<svg fill="none" height="2667" viewBox="0 0 4000 2667" width="4000" xmlns="http://www.w3.org/2000/svg" xmlns:xlink="http://www.w3.org/1999/xlink"><clipPath id="a"><path d="m0 0h4000v2666.67h-4000z"/></clipPath><g clip-path="url(#a)"><path d="m374.422 1356.87c205.018-70.52 276.536-1057.877 1187.198-564.198 196.1 106.313 438.91 85.394 699.62 64.475 220.79-17.701 454.42-35.417 683.39 24.121 458.64 119.262 469.19 463.282 411.2 587.122-63.36 135.32 189.3 297.11 448.07 408.22 405.92 174.3 107.43 786.86-276.03 789.79-383.47 2.92-3200.726-5.82-3200.726-5.82s-766.646-1023.72 47.278-1303.71z" fill="#d3e4fe"/><path d="m2547 1686h855v-602h-855z" fill="#b2cbfd"/><path d="m2576 1655h797v-540h-797z" fill="#fff"/><path d="m3402 1686h6v-602h-6z" fill="#466aa5"/><g fill="#d6716b"><path d="m3030.96 1300.47c19.58-14.47 47.55-5.71 55.46 17.33 1.13 3.25 2.22 6.71 3.28 10.35.32 1.08 1.65 1.42 2.46.66l.23-.22c5.66-5.17 8.96-12.44 8.96-20.11l-7.14-64.46c-.83-7.49 5.02-14.02 12.52-14.02h15.42c7.5 0 13.33 6.53 12.52 14l-7.16 64.87c0 7.77 3.31 15.19 9.16 20.28l.1.09c.82.74 2.11.35 2.42-.7 1.09-3.79 2.23-7.36 3.39-10.74 7.91-23.04 35.87-31.8 55.44-17.33 79.93 59.05 77.85 154.08 68.42 208.59-3.86 22.38-27.19 35.65-48.36 27.54l-51.83-19.85c-10.21-3.91-18.1-12.24-21.43-22.66-15.11-47.22-17.4-88.06-14.12-121.12.58-5.83-1.03-11.65-4.46-16.38l-.01-.03c-6.18-8.55-10.74-10.79-12.45-10.76-2.05.04-7.02 3.63-13.02 15.93-1.97 4.02-2.71 8.51-2.3 12.95 3.05 32.78.56 73.04-14.29 119.46-3.33 10.4-11.24 18.71-21.42 22.61l-51.83 19.85c-21.15 8.11-44.48-5.12-48.36-27.49-9.42-54.5-11.52-149.58 68.4-208.64"/><path d="m2644.98 1411h162.04c4.39 0 7.98 3.37 7.98 7.49s-3.59 7.51-7.98 7.51h-162.04c-4.39 0-7.98-3.39-7.98-7.51s3.59-7.49 7.98-7.49z"/><path d="m2644.98 1444h162.04c4.39 0 7.98 3.61 7.98 8.01 0 4.39-3.59 7.99-7.98 7.99h-162.04c-4.39 0-7.98-3.6-7.98-7.99 0-4.4 3.59-8.01 7.98-8.01z"/><path d="m2644.98 1481h162.04c4.39 0 7.98 3.6 7.98 8.01 0 4.39-3.59 7.99-7.98 7.99h-162.04c-4.39 0-7.98-3.6-7.98-7.99 0-4.41 3.59-8.01 7.98-8.01z"/><path d="m2644.98 1517h162.04c4.39 0 7.98 3.82 7.98 8.51 0 4.67-3.59 8.49-7.98 8.49h-162.04c-4.39 0-7.98-3.82-7.98-8.49 0-4.69 3.59-8.51 7.98-8.51z"/><path d="m2644.98 1237h162.04c4.39 0 7.98 3.37 7.98 7.51 0 4.12-3.59 7.49-7.98 7.49h-162.04c-4.39 0-7.98-3.37-7.98-7.49 0-4.14 3.59-7.51 7.98-7.51z"/><path d="m2644.98 1269h162.04c4.39 0 7.98 3.82 7.98 8.49s-3.59 8.51-7.98 8.51h-162.04c-4.39 0-7.98-3.84-7.98-8.51s3.59-8.49 7.98-8.49z"/><path d="m2644.98 1306h162.04c4.39 0 7.98 3.6 7.98 8s-3.59 8-7.98 8h-162.04c-4.39 0-7.98-3.6-7.98-8s3.59-8 7.98-8z"/><path d="m2644.98 1343h162.04c4.39 0 7.98 3.61 7.98 8.01 0 4.39-3.59 7.99-7.98 7.99h-162.04c-4.39 0-7.98-3.6-7.98-7.99 0-4.4 3.59-8.01 7.98-8.01z"/><path d="m2846.99 1301h40.02c6.59 0 11.99-5.4 11.99-11.99v-40.02c0-6.59-5.4-11.99-11.99-11.99h-40.02c-6.59 0-11.99 5.4-11.99 11.99v40.02c0 6.59 5.4 11.99 11.99 11.99z"/><path d="m2846.99 1475h40.02c6.59 0 11.99-5.4 11.99-11.98v-40.02c0-6.6-5.4-12-11.99-12h-40.02c-6.59 0-11.99 5.4-11.99 12v40.02c0 6.58 5.4 11.98 11.99 11.98z"/></g><path d="m2887 1440.63-11.98 26.37-29.02-46 30.96 26.13z" fill="#fff"/><path d="m2887 1264.63-11.98 26.37-29.02-46 30.96 26.13z" fill="#fff"/><path d="m2688.95 1147h573.08c3.86 0 6.97-2.9 6.97-6.49s-3.11-6.51-6.97-6.51h-573.08c-3.84 0-6.95 2.92-6.95 6.51s3.11 6.49 6.95 6.49z" fill="#d6716b"/><path d="m1333 2664h950v-1654h-950z" fill="#deedff"/><path d="m1401 2664h814v-1583h-814z" fill="#b2cbfd"/><path d="m2584.32 2347h1174.36c7.88 0 14.32-6.43 14.32-14.29v-420.71h-1123.22c-43.88 0-79.78 35.83-79.78 79.63v341.08c0 7.86 6.44 14.29 14.32 14.29" fill="#a8d29f"/><path d="m2502.53 2320h1188.94c43.18 0 78.53 35.54 78.53 78.97v184.06c0 43.44-35.35 78.97-78.53 78.97h-1188.94c-43.2 0-78.53-35.53-78.53-78.97v-184.06c0-43.43 35.33-78.97 78.53-78.97z" fill="#a8d29f"/><path d="m3607.42 2327.4h92.54v-352.18c0-34.78 28.53-63.22 63.38-63.22h8.77c2.13 0 3.89 1.74 3.89 3.86v417.59 79.66 242.84c0 3.33-2.73 6.05-6.07 6.05h-267.88c-3.32 0-6.05-2.72-6.05-6.05v-217.4c0-61.13 50.14-111.15 111.42-111.15" fill="#66a357"/><path d="m3497.93 1915.53s88.25-8.45 118.84 42.18c30.61 50.61 0 241.04 25.89 274.78s56.48 54.24 55.31 94.01l-189.79 2.01s-166.85 5.99-165.65 94.61c1.22 88.6 0 241.88 0 241.88h-95.5s-4.3-393.35 92.37-416.45c211.97-50.66 158.53-333.02 158.53-333.02z" fill="#82b378"/><path d="m2564.75 2306.63 5.14.19v-329.38c0-36.14 29.25-65.44 65.34-65.44h201.56s41.52 137.51 46.94 183.96c5.43 46.43 164.32 48.21 185.99 105.37 21.66 57.15 25.28 121.44 25.28 121.44h-80.65s-3.16 1.07-8.54 3.41c-31.75 13.8-141.07 72.31-139.53 222.61v111.21h-399.03s-63.21-326.47 97.5-353.37z" fill="#82b378"/><path d="m3248.34 2165.94s-16.49-4.94-22.28-2.01c-5.77 2.93-21.3 12.1-19.98 19.06 1.33 6.97 28.81 11.27 45.3.44 16.5-10.81-3.04-17.49-3.04-17.49" fill="#e49963"/><path d="m3303 2638.16c0 4.66-2.3 7.88-6.21 10.03l-.04.04c-7.22 3.98-18.73.92-32.51.31-1.76-.06-20.07 7.79-45.97 10.02-29.54 2.53-40.43-6.54-42.15-10.66-1.48-3.52 11.2-7.48 25.35-12.02.69-.22 1.37-.46 2.07-.68 1.88-.59 3.78-1.21 5.66-1.84 16.86-5.62 33.46-12.29 37.6-29.41 4.4-18.18-8.8-68.88-8.8-68.88l46.8-5.07s4.51 53.01 7.45 69.51c1.59 8.82 5.57 15.83 7.9 23.39.16.53.31 1.06.47 1.59 1.2 4.44 2.4 8.97 2.38 13.67" fill="#d38957"/><path d="m3303 2638.87c0 4.56-2.3 7.69-6.21 9.79l-.04.03c-10.46 6.58-29.03-2.57-59.27 11.07-1.29.59-11.45-.09-18.49-.18-9.18-.14-22.4.68-25.51.18-14.27-2.24-16.4-9.13-17.36-11.39-1.48-3.42 11.2-7.29 25.35-11.72 3.98 1.51 22.91 7.93 45.33 3.78 19.69-3.63 39.28-13.22 53.35-16.43.16.52.31 1.04.47 1.55 1.2 4.33 2.4 8.74 2.38 13.32" fill="#2f5791"/><path d="m3299 2647-7.25 12h-15.75v-8.79z" fill="#2f5791"/><path d="m3546.05 2186.53-151.92-14.53s-232.53 1.06-254.18 31.83c0 0-41.52 28.85 5.41 148.09 46.92 119.21 102.04 238.39 102.04 238.39s14.04 3.84 33.29 2.34c7.61-.59 17.86-3.2 17.86-3.2s-10.6-177.93-34.07-247.15c-23.46-69.23-30.68-55.77 10.84-51.93 41.51 3.85 175.07 34.62 236.45 26.93 61.36-7.69 34.28-130.77 34.28-130.77" fill="#2c3a64"/><path d="m3333 2638.61c-.02 4.68-2.34 7.91-6.25 10.08l-.07.03c-7.27 4-19.18-4.77-73.5 8.09-29.06 6.88-46.31-4.28-48.06-8.42-1.48-3.53 11.28-7.51 25.56-12.07.69-.22 1.38-.46 2.07-.68 1.92-.59 3.83-1.22 5.72-1.85 16.98-5.64 33.71-12.34 37.89-29.54 4.42-18.25-8.89-69.15-8.89-69.15l47.17-5.1s4.55 53.23 7.51 69.8c1.6 8.86 5.61 15.9 7.97 23.49.17.53.32 1.06.47 1.6 1.2 4.45 2.41 9 2.41 13.72" fill="#e49963"/><path d="m2813 2638.16c-.02 4.66-2.3 7.88-6.21 10.03l-.06.04c-7.2 3.98-19.86 4.37-33.64 3.77-1.76-.07-3.34-.12-4.76-.12-.37 0-.75 0-1.1.01-.3 0-.58.02-.86.02-13.62.33-12.19 4.42-38.09 6.65-29.54 2.53-40.42-6.54-42.16-10.66-1.47-3.52 11.21-7.48 25.36-12.02.69-.22 1.37-.46 2.07-.68 1.88-.59 3.78-1.21 5.66-1.84 16.86-5.62 33.46-12.29 37.6-29.41 4.4-18.18-8.81-68.88-8.81-68.88l46.8-5.07s4.51 53.01 7.45 69.51c1.59 8.82 5.57 15.83 7.89 23.39.17.53.32 1.06.48 1.59 1.2 4.44 2.4 8.97 2.38 13.67" fill="#e49963"/><path d="m2813 2638.79c-.02 4.53-2.3 7.64-6.21 9.73l-.06.03c-7.67 3.46-20.12 3.95-33.61 3.58-1.77-.05-3.36-.05-4.79-.03-.37 0-.75 0-1.1.01-.3 0-.58.02-.86.02-13.62.31-12.19 4.28-38.09 6.45-29.54 2.45-40.42-6.35-42.16-10.34-1.47-3.41 11.21-7.26 25.36-11.66 3.98 1.5 22.91 7.89 45.31 3.75 19.71-3.6 39.29-13.14 53.35-16.33.17.51.32 1.03.48 1.54 1.2 4.3 2.4 8.69 2.38 13.25" fill="#c65447"/><path d="m2507.13 2579.22c-2.62 13.07-21.25 10.89-42.08 5.8-20.82-5.08-15.86.96-45.5-2.31-29.63-3.28-38.61-14.32-39.52-18.73-.8-3.91 13.83-5.29 29.54-7.09 1.97-.21 3.96-.47 5.95-.72 17.72-2.22 30.71-13.65 46.83-23.04 15.25-8.9 38.02-45.13 38.02-45.13l40.63 3.21s-21.33 32.36-29.57 46.45c-4.85 8.27-4.6 19.22-3.99 27.68.31 4.58.61 9.29-.31 13.88" fill="#e49963"/><path d="m2465.22 2584.91c-20.86-5.22-15.89.98-45.59-2.38-29.69-3.37-38.69-14.72-39.6-19.25-.8-4.02 13.86-5.43 29.6-7.28l.14.31s17.81 12.93 42.53 13.54c20.15.5 41.49-5.41 55.39-5.17.32 4.71.61 9.55-.31 14.27-2.62 13.44-21.29 11.19-42.16 5.96" fill="#c65447"/><path d="m2597 1983.13s-9.5-23.71-19.97-24.68-43.76-6.28-46.14-1.45c-2.37 4.85 0 22.25 7.14 28.55 7.14 6.29 51.36 16.45 51.36 16.45z" fill="#e49963"/><path d="m2663 2319.13 87.96 235.65s13.51 1.3 26.46-2.42c11.93-3.41 25.58-12.41 25.58-12.41s-21.81-226.25-61.81-273.31c-40.01-47.07-78.19 52.49-78.19 52.49z" fill="#365da4"/><path d="m3037.57 2213.25c-17.95 7.18-37.83 7.9-56.24 2.02-67.32-21.5-235.08-72.11-279.63-57.74-56.15 18.09-224.7 353.13-224.7 353.13s3.8 5.05 14.19 8.94c9.66 3.63 33.04 3.4 33.04 3.4s152.1-130.27 170.22-168.27c18.11-37.99 25.35-74.17 43.46-70.56 18.1 3.61 233.6 88.65 282.48 38 48.89-50.66 36.1-116.49 36.1-116.49z" fill="#466aa5"/><path d="m2855.74 1829.01c-4.01-8.31-8.48-23.04-10.66-49.3.33 2.61 4.84 35.74 17.53 54.48 52.11 34.36 151.99 149.07 150.02 170.81 0 0 35.17-59.93 35.78-60.28 0 0 64.9-82.86-12.01-130.34-39.1-24.12-38.9-55.09-37.26-81.98 1.65-26.9-10.66-142.68-88.97-112.39 0 0-12.58-5.6-18.2-4.75 0 0 4.6.88 6.93 3.3-9.08-.53-22.06.14-32.9 6.32-28.69 16.38-54.4 163.34-10.26 204.13" fill="#b74b42"/><path d="m2866 1835.63c-.26.11 24.89 13.4 43.82 8.14 17.79-4.94 29.42-28.4 29.18-28.45-7.54-1.54-9.71-12.07-9.56-57.32l-3.41.69-57.28 11.52s1.31 18.34 1.34 35.61c.04 14.5-.82 28.26-4.09 29.81z" fill="#e49963"/><path d="m2868 1770.49s1.33 18.29 1.36 35.51c32.45-.92 49.62-30.57 56.64-47z" fill="#d68d5d"/><path d="m2932.43 1753s16.99-27.06 21.08-50.2c2.9-16.52-5.45-77.75-66.5-68.94 0 0-17.74 1.76-34.41 13.11-13.25 9.02-32.38 28.5-10.99 81.94l5.55 18.06z" fill="#b74b42"/><path d="m2857.51 1786s76.59 1.26 76.63-46.36c.05-47.61 9.98-79.52-38.92-82.35-48.9-2.81-58.41 15.35-62.3 31.24-3.89 15.88 4.67 95.91 24.59 97.47" fill="#e49963"/><path d="m2930.15 1665.87s-52.35-35.98-68.91-11.1c-5.02-4.32-13.97-7.46-25.8 6.95-17.77 21.65-1.96 59.92-1.96 59.92 7.31.86 9.02-24.3 12.84-36.53 2.88-9.21 12.5-18.62 17.05-22.69 6.7 15.14 25.1 51.42 50.44 57.97 32.22 8.32 46.19-.35 46.19-.35s-24.71-19.73-29.85-54.17" fill="#b74b42"/><path d="m3036.02 2042.08c7.57-31.79-18.21-93.48-45.12-144.55-24.42-46.29-49.76-83.84-52.04-82.5-64.41 38.24-70.22 6.46-70.22 6.46s-58.51 7.77-75.06 36.3c-22.92 39.44-47.87 157.81-72.39 156.06-11.24-.81-124.48-43.39-124.48-43.39s-18.86 17.68-15.25 39.38c0 0 55.91 37.45 103.2 61.35 24.99 12.64 47.6 21.48 58.22 18.98 21.55-5.08 55.18-55.03 73.36-84.43l.12-.2c23.21 131.38-8.33 161.31 7.64 175.17 16.86 14.63 40.96-6.97 93.95 16.01 34.78 15.09 83.03 36.91 115.5 40.7 17.02 2 29.73-.97 33.89-12.48 12.04-33.44-45.78-122.26-31.32-182.86" fill="#699dee"/><path d="m2874 1757.41s-1.44 5.33-16.64 4.5c0 0-12.74-.68-12.35-6.54 0 0 12.35-4.17 28.99 2.04" fill="#fff"/><path d="m3067.35 2224.95c-4.12 11.51-16.75 14.47-33.65 12.47-22.33-9.8-118.76-47.4-117.69-72.88 1.61-37.74 18.54-38.94 6.59-85.51-9.61-37.4 79.5-106.92 93.7-122.03 26.74 51.04 27.47 53.45 19.94 85.21-14.35 60.57 43.07 149.32 31.11 182.74" fill="#3b76ca"/><path d="m2817 2006.48c-18.09 29.28-51.58 79.04-73.03 84.1-10.57 2.49-33.08-6.32-57.97-18.91 18.16 4.69 35.82 4.56 52.96 2.9 18.59-1.79 23.99-24.6 53.39-58.82 19.04-22.19 23.72-16.6 24.65-9.27z" fill="#3b76ca"/><path d="m2907.2 2078.96s-16.35-12.47-31.77-9.5c-15.44 2.97-23.01 13.37-22.4 18.11.6 4.76 8.78 18.13 20.58 19.31 11.8 1.19 45.39-7.13 45.39-7.13z" fill="#e49963"/><path d="m2938.91 1815s62.86 3.87 84.61 34.19c30.63 42.69 104.14 232.59 69.32 256.87-39.21 27.33-191.22-.81-191.22-.81s-4.64-21.65 1.8-32.13c6.45-10.46 111.23-27.37 116.08-32.21 4.82-4.84-60.46-94.26-60.46-108.74 0-14.51-20.13-117.17-20.13-117.17z" fill="#699dee"/><path d="m3567.46 2197.08-142.54-12.08s-232.62 1.02-254.28 30.84c0 0-35.16 22.08 11.8 137.64 46.95 115.56 94.49 242.73 94.49 242.73s10.53 1.46 23.28.41c16.03-1.3 21.36-6.52 21.36-6.52s-3.3-158.13-26.79-225.22c-23.47-67.11-32.48-60.28 9.04-56.55 41.53 3.74 158.3 32.93 238.78 17.48 60.78-11.66 24.86-128.73 24.86-128.73" fill="#35488b"/><path d="m3205.12 2648.01c.95 2.14 2.98 8.56 16.08 10.99h46.32c15.96-6.94 28.66-7.72 38.64-7.89 8.88-.12 15.58.24 20.52-2.79l.07-.03c.21-.13.47-.25.69-.39 3.51-2.07 5.54-5.04 5.56-9.25 0-4.5-1.21-8.86-2.41-13.12-.15-.51-.3-1.04-.47-1.53-14.19 3.15-33.91 12.61-53.77 16.18-22.57 4.09-41.67-2.23-45.66-3.72-14.29 4.37-27.06 8.17-25.57 11.55" fill="#365da4"/><path d="m3328 2647-6.92 12h-15.08v-8.79z" fill="#365da4"/><path d="m3300.63 2091.61c10.18-14.54 10.78-197.79 16.77-225.5 5.97-27.7 57.6-44.11 57.6-44.11s-9.56 93.38-20.76 178.3c-9.03 68.7-10.1 134.14-17.06 137.9-15.53 8.43-60.29 42.53-80.51 39.63l-12.22-10.95c-2.31-2.05-1.77-5.75.96-7.15 21.72-11.13 47.65-57.3 55.22-68.12z" fill="#ee9849"/><path d="m3371.77 1624.64c9.75-7.78 23.9-6.81 33.02-6.28-2.34-2.4-6.96-3.27-6.96-3.27 5.65-.84 18.27 4.72 18.27 4.72s47.78-24.29 69.9 38.01c0 0-3.8-4.7-9.04-10.05 12.79 35.84-.14 90.05-40.43 99.7-26.2 6.27-164.72-43.13-64.76-122.83" fill="#163560"/><path d="m3372 1835.63c-.26.11 24.89 13.4 43.82 8.14 17.79-4.94 29.42-28.4 29.18-28.45-7.54-1.54-9.71-12.07-9.56-57.32l-3.41.69-57.28 11.52s1.31 18.34 1.34 35.61c.04 14.5-.82 28.26-4.09 29.81z" fill="#e49963"/><path d="m3374 1770.49s1.33 18.29 1.36 35.51c32.45-.92 49.62-30.57 56.64-47z" fill="#d68d5d"/><path d="m3438.43 1753s16.99-27.06 21.08-50.2c2.9-16.52-5.45-77.75-66.5-68.94 0 0-17.74 1.76-34.41 13.11-13.25 9.02-32.38 28.5-10.99 81.94l5.55 18.06z" fill="#163560"/><path d="m3363.51 1786s76.59 1.26 76.63-46.36c.05-47.61 9.98-79.52-38.92-82.35-48.9-2.81-58.41 15.35-62.3 31.24-3.89 15.88 4.67 95.91 24.59 97.47" fill="#e49963"/><path d="m3344.89 1892.88c1.33-5.48-10.07-9.58-12.87-4.71-5.23 9.13-6.27 20.63-8.36 29.81-5.98 26.17 0 62.02 0 62.02z" fill="#e58638"/><path d="m3341.44 1661.72c11.83-14.41 20.78-11.27 25.8-6.95 16.56-24.88 68.91 11.1 68.91 11.1 5.13 34.44 29.85 54.17 29.85 54.17s-13.97 8.67-46.19.35c-25.34-6.55-43.74-42.83-50.44-57.97-4.55 4.07-14.17 13.48-17.05 22.69-3.82 12.23-5.53 37.39-12.84 36.53 0 0-15.81-38.27 1.96-59.92" fill="#163560"/><path d="m3380 1757.41s-1.39 5.33-16.06 4.5c0 0-12.31-.68-11.93-6.54 0 0 11.93-4.17 27.99 2.04" fill="#fff"/><path d="m3319.95 1990s9.83 139.52-18.95 171l59-36.95z" fill="#e58638"/><path d="m3319.13 1982.52c31.01 150.17 5.07 173.22 21.17 187.99l14.39 6.32c16.79 14.64 17.21-3.09 69.96 19.89 25.13 10.96 57.35 25.46 85.5 34.05 10.6 3.22 20.61 5.61 29.47 6.65 16.96 2 29.59-.97 33.73-12.48 11.98-33.44-45.57-122.26-31.18-182.86.12-.52.23-1.05.34-1.57 1.04-5.29 1.24-11.38.7-18.05-2.69-33.82-23.94-82.96-45.95-124.93-24.3-46.29-49.53-83.84-51.8-82.5-64.11 38.24-69.89 6.46-69.89 6.46s-67.01 109.81-56.44 161.03z" fill="#ee9849"/><path d="m3349 2174.87c16.83 14.6 22.36-.98 75.25 21.94 25.2 10.94 57.51 25.4 85.73 33.98 14.41 2.5 25.15 4.72 29.55 6.63 17 2 29.67-.96 33.81-12.45 12.02-33.36-45.69-121.97-31.26-182.44.13-.51.23-1.04.34-1.56 1.25-5.97 1.42-11.94.71-18.01-3.04-25.64-21.9-53.46-43.25-93.96-14.27 15.09-121.55-2.4-96.18 146.68 7.77 45.71-48.03 63.72-54.7 99.19" fill="#e58638"/><path d="m3354.59 2182.01s-23.83-5.84-34.75-1.25c-10.91 4.6-32.74 16.29-30.71 22.54 2.03 6.27 27.88 9.62 38.8 3.35 10.9-6.27 18.98 1.67 32.32-2.92 13.34-4.6-5.66-21.72-5.66-21.72" fill="#e49963"/><path d="m3445.12 1815s87.16 1.17 102.78 43.39c15.62 42.19 10.82 190.5-12.01 235.12-22.83 44.6-152.61 104.9-167.03 107.31s-23.42-19.9-22.83-22.3c.6-2.43 136.39-112.75 135.78-124.21-.6-11.45-36.69-239.31-36.69-239.31" fill="#ee9849"/><path d="m1112.65 1783.78s18.02-20.64 1.11-33.74c0 0-12.35-7.33-22.42-6.74 0 0 14.27 23.48 9.65 25.81-4.61 2.34-13.98-27.28-13.98-27.28s-28.1-2.68-37.15 1.59c0 0 24.03 19.29 18.97 20.44-5.06 1.16-31.01-17.79-31.01-17.79s-26.16 4.37-24.77 20.03c1.4 15.65 10.41 20.49 14.37 20.08 3.96-.42 27.14-9.1 27.64-5.91.51 3.18-13.44 13.59-23.21 14.07 0 0 18.44 19.96 30.7 14.2 12.26-5.75 13.31-14.89 20.95-18.31s14.16-3.42 11.01.08c-3.16 3.49-16.99 6.88-21.36 14.47-4.37 7.58-8.29 12.7 4.4 10.83 12.68-1.88 33.29-10.98 34.2-21.41.9-10.42.9-10.42.9-10.42" fill="#82b378"/><path d="m1026 1767.12s70.67-2.66 86.27 17.13c0 0 3.45 10.12 14.07 19.33l1.66 4.42s-12.25-12.63-16.63-13.4c0 0 6.85-24.52-85.37-27.48z" fill="#82b378"/><path d="m1126.15 1802.82s15.76 11.46 16.85 31.92l-2.86.26s-5.03-21.17-14.13-29.45.14-2.73.14-2.73z" fill="#82b378"/><path d="m1174.54 1757.99s-28.2-16.01-15.04-37.72c0 0 10.53-13.32 21.81-16.76 0 0-6.02 32.38 0 33.15 6.02.75 4.14-36.58 4.14-36.58s29.71-14.47 41.36-13.32c0 0-18.42 31.61-12.41 30.86 6.02-.77 26.7-32.78 26.7-32.78s30.46-5.7 35.36 12.59c4.88 18.27-3.01 27.41-7.52 28.56-4.52 1.15-33.48.75-32.73 4.57.76 3.8 20.32 9.9 31.22 6.47 0 0-12.03 30.09-27.82 28.58-15.81-1.52-20.69-11.43-30.47-12.19-9.78-.77-16.92 1.9-12.04 4.57 4.89 2.66 21.44.87 29.34 7.67 7.89 6.8 14.28 11-.37 14.05-14.67 3.04-41 1.13-46.26-10.29-5.27-11.43-5.27-11.43-5.27-11.43" fill="#a8d29f"/><path d="m1263 1703s-79.37 25.5-88.44 54.01c0 0 .38 12.74-7.56 27.36v5.63s8.31-19.12 12.85-21.75c0 0-17.76-24.74 83.15-65.25" fill="#82b378"/><path d="m1167.28 1785.47s-12.02 18.29-5.17 40.53l3.09-.83s-3-24.51 3.29-36.84c6.29-12.32-1.21-2.86-1.21-2.86" fill="#82b378"/><path d="m1129.23 1735.87s37.68-20.95 20.09-49.38c0 0-14.06-17.45-29.14-21.95 0 0 8.04 42.41 0 43.39-8.04 1-5.52-47.88-5.52-47.88s-39.7-18.95-55.27-17.45c0 0 24.62 41.39 16.58 40.39s-35.68-42.89-35.68-42.89-40.697-7.47-47.229 16.47 4.02 35.91 10.049 37.41c6.03 1.48 44.72.98 43.71 5.98-1 4.99-27.13 12.96-41.7 8.47 0 0 16.08 39.41 37.18 37.41 21.11-1.98 27.64-14.95 40.7-15.95s22.61 2.5 16.08 5.98c-6.53 3.49-28.64 1.14-39.19 10.05s-19.1 14.39.5 18.38c19.6 4 54.77 1.5 61.8-13.47 7.04-14.96 7.04-14.96 7.04-14.96z" fill="#a8d29f"/><path d="m1012 1664s105.83 33.99 117.92 71.99c0 0-.5 17.01 10.08 36.5v7.51s-11.09-25.5-17.13-29c0 0 23.68-33-110.87-87z" fill="#82b378"/><path d="m1139.42 1772.57s17.47 24.1 7.51 53.43l-4.5-1.09s4.37-32.32-4.78-48.56c-9.14-16.25 1.77-3.78 1.77-3.78" fill="#82b378"/><path d="m1130.5 1891c-41.14 0-74.5-32.68-74.5-73h149c0 40.32-33.35 73-74.5 73" fill="#f1a34f"/><path d="m1113 1890.44c2.97.37 5.99.56 9.06.56 40.29 0 72.94-32.68 72.94-73h-18.12c0 37.25-27.87 67.98-63.88 72.44z" fill="#ffb973"/><path d="m1055 1894h150c0-4.42-4.09-8-9.13-8h-131.74c-5.04 0-9.13 3.58-9.13 8z" fill="#f1a34f"/><path d="m1055 1820h152v-2h-152z" fill="#d86713"/><path d="m862.867 1876.1s17.117-5.43 25.386-3.79c8.265 1.62 33.923 13.04 34.494 15.48.569 2.44 0 4.21 0 4.21h-59.88s-13.387-2.48-15.667-10.01c-2.28-7.51 15.667-5.89 15.667-5.89z" fill="#ffb27d"/><path d="m640.427 2631.62c.459 4.92 3.176 8.08 7.486 9.98l.066.01c7.971 3.51 21.335 2.71 35.78.77 1.85-.25 3.513-.45 5.005-.59.39-.03.781-.07 1.162-.08.304-.03.607-.05.898-.08 14.382-.96 13.255 3.49 40.74 3.37 31.328-.17 41.924-10.76 43.362-15.29 1.207-3.82-12.509-6.8-27.847-10.23-.742-.15-1.483-.33-2.237-.48-2.04-.46-4.096-.94-6.137-1.41-18.282-4.31-36.387-9.74-42.374-27.38-6.351-18.7-4.847-74.21-4.847-74.21h-55.484s14.564 61.32 13.04 78.99c-.829 9.44-5.325 12.12-7.056 20.3-.126.57-.24 1.14-.342 1.72-.84 4.78-1.674 9.68-1.215 14.61z" fill="#ad7041"/><path d="m574.428 2033.07c4.724 26.36 11.461 53.59 17.314 81.91 9.403 45.54 16.499 93.92 9.235 146.01-.929 6.71-1.434 14.11-1.544 22.07-1.411 92.07 39.984 258.93 39.984 258.93s11.242 4.82 30.084 3.89c9.7-.48 24.588-6.69 24.588-6.69s3.916-103.46 4.152-242.59c.17-100.85 20.092-233.63 24.117-311.67 2.437-47.21-2.852-110.12-2.852-110.12s-82.511-65.94-112.149-32.2c-29.28 33.34-50.601 91.88-32.929 190.46" fill="#415da5"/><path d="m602.107 2260.09c-.916 6.66-1.414 14.01-1.522 21.91 60.939-88.35 74.415-281 74.415-281l-66.933 32.5s-7.34 36.13-15.067 81.62c9.273 45.21 16.271 93.25 9.107 144.97" fill="#355493"/><path d="m462.132 2631.67c.461 4.9 3.207 8.05 7.558 9.94l.066.02c8.048 3.49 21.541 2.7 36.124.76 1.868-.25 3.547-.45 5.053-.59.395-.03.79-.06 1.173-.08.307-.03.614-.05.907-.08 14.521-.95 13.384 3.48 41.132 3.36 31.631-.17 42.328-10.73 43.78-15.24 1.221-3.8-12.63-6.77-28.115-10.19-.748-.15-1.496-.33-2.259-.48-2.06-.45-4.134-.94-6.195-1.41-18.459-4.29-36.738-9.7-42.783-27.28-6.412-18.64 2.75-73.09 2.75-73.09l-51.896-4.31s3.219 62.06 1.679 79.66c-.836 9.42-5.654 14.58-7.404 22.73-.127.58-.241 1.14-.343 1.72-.851 4.76-1.69 9.64-1.227 14.56" fill="#ad7041"/><path d="m469.504 2546.28s13.274 6.27 22.833 8.18c9.558 1.9 29.413-1.82 29.413-1.82 3.581-40.04 11.902-102.67 28.071-173.32 18.414-80.45 45.812-175.51 84.01-265.54 8.159-19.23 41.805-110.23 47.513-133.21 17.265-69.38-.068-61.91-.068-61.91l-150.904-17.66s-18.591 9.53-27.153 107.52c-2.562 29.34-2.877 156.05-6.739 180.06-3.656 22.76-7.938 41.67-12.959 53.96-28.034 68.63-14.017 303.74-14.017 303.74" fill="#415da5"/><path d="m462.132 2631.94c.461 4.8 3.207 7.89 7.558 9.74l.066.02c8.505 2.95 21.793 2.32 36.091.65 1.871-.21 3.553-.36 5.086-.49.395-.03.79-.06 1.173-.07.307-.03.614-.05.907-.08 14.521-.93 13.384 3.41 41.132 3.29 31.631-.17 42.328-10.5 43.78-14.92 1.221-3.73-12.63-6.64-28.115-9.98-4.073 1.95-23.565 10.51-47.786 8.22-21.299-1.97-43.045-10.26-58.322-12.32-.127.57-.241 1.12-.343 1.68-.851 4.66-1.69 9.45-1.227 14.26" fill="#b84c42"/><path d="m640.131 2631.94c.459 4.8 3.183 7.89 7.502 9.74l.066.02c8.442 2.95 21.634 2.32 35.827.65 1.855-.21 3.525-.36 5.048-.49.391-.03.783-.06 1.164-.07.305-.03.609-.05.901-.08 14.413-.93 13.284 3.41 40.829 3.29 31.398-.17 42.016-10.5 43.458-14.92 1.21-3.73-12.537-6.64-27.908-9.98-4.045 1.95-23.393 10.51-47.435 8.22-21.141-1.97-42.729-10.26-57.892-12.32-.127.57-.241 1.12-.342 1.68-.843 4.66-1.678 9.45-1.218 14.26" fill="#b84c42"/><path d="m700.28 1450.56c5.104-41.55-7.912-108.05-91.088-97.43-83.177 10.63-109.387 92.14-92.614 128.39 16.775 36.24-24.148 44.99-36.996 83.96-11.036 33.48-14.881 75.05-32.742 93.72-57.579 60.16 55.282 152.66 123.318 133.15 123.928-35.54 139.891-40.84 135.491-137.94-2.254-49.75-41.069-69.03-16.423-83.42 59.532-34.77-.492-26.4 11.054-120.43" fill="#2b478b"/><path d="m577 1559.74 23.097 58.86 50.003 2.4 24.9-36.72c-28.248-21.08-27.054-61.43-25.667-75.52.317-3.18.631-5.02.631-5.02l-62.503-18.74c-.755 16.27-1.679 29-2.671 38.95-3.494 34.95-7.79 35.79-7.79 35.79" fill="#ffb27d"/><path d="m675.11 1557.59c-3.175 0-57.078-10.98-148.11 12.31 0 0 49.854 228.48 32.917 271.55-16.936 43.05-23.372 81.28-23.372 81.28l183.731 2.27s-2.57-147.81 5.899-200.12c8.468-52.31-51.065-167.29-51.065-167.29" fill="#ffb27d"/><path d="m539.601 1812.76c-2.693 30.24-31.007 99.33-24.882 114.05 6.419 15.45 15.337 23.28 34.847 27.76 13.451 3.08 31.926 4.57 58.085 5.87 55.48 2.75 114.933-4.2 123.023-30.52 3.877-12.63 2.383-61.5.329-84.06-4.25-46.67 4.656-113.66 5.959-157 1.072-36.17-20.787-118.44-20.787-118.44s-9.86-6.2-40.806-12.42c0 0-3.255 42.73-25.61 46.41-38.651 6.37-69.798-28.95-78.896-43.18 0 0-44.393 11.17-57.42 26-12.339 14.03 4.542 117.97 8.294 127.93 3.241 8.57 6.303 16.91 8.97 25.3 7.056 22.14 11.37 44.62 8.894 72.3" fill="#7a97f3"/><path d="m382.131 1876.1s-17.116-5.42-25.384-3.8c-8.267 1.64-33.924 13.04-34.494 15.48-.569 2.45 0 4.22 0 4.22h59.878s13.387-2.49 15.669-10.01c2.28-7.51-15.669-5.89-15.669-5.89" fill="#ffb27d"/><path d="m585 1528c22.743-15.07 51.33-15.82 64.371-15.21.316-3.19.629-5.03.629-5.03l-62.336-18.76c-.753 16.29-1.675 29.04-2.664 39z" fill="#e8945b"/><path d="m666.134 1508.69s-74.173 15.06-82.738-31.75c-8.566-46.82-23.908-76.4 23.087-87.99 46.997-11.58 59.492 4.54 66.111 19.48 6.621 14.91 12.612 95.15-6.46 100.26" fill="#ffb27d"/><path d="m568.585 1392.63c12.59-14.13 30.751-16.88 43.99-16.64-7.98-9.65 24.117-30.8 60.817 5.26 15.812 15.54 13.423 46.1 4.953 63.81 0 0-13.005-37.98-36.677-46.26-5.27-1.83-10.273-4.91-14.867-8.58-2.883 7.23-8.682 17.45-20.346 30.16-24.467 26.68-19.698 80.62-19.698 80.62s-40.171-83.69-18.172-108.37z" fill="#2b478b"/><path d="m644 1485.53s1.934 5.22 15.551 2.85c0 0 11.433-1.98 10.381-7.85 0 0-11.663-2.94-25.932 5z" fill="#fff"/><path d="m439.987 1766.37c27.975-107.53 43.319-168.92 66.239-187.5 20.269-16.42 63.978-17.94 63.978-17.94.678 12.93.066 25.91-1.525 38.76l53.769 102.07s27.549 54.29 37.34 113.68c7.393-58.98 14.734-113.68 14.734-113.68s6.934-34.9 9.119-66.83c-6.48-24.91-5.804-50.9-8.845-76.93l3.383.19c10.617.75 43.72 4.1 60.595 17.9 22.92 18.74 28.061 101.05 66.239 189.15 0 0 46.26 77.48 60.987 108.22 0 0-2.759 4.2-8.276 7.37-5.348 3.07-12.098 4.29-12.098 4.29s-83.451-81.85-88.934-94.8c-1.804-4.25-11.901-19.18-24.434-41.14 0 0-3.326 116.95 3.963 167.43 1.545 10.68-3.597 21.23-13.033 26.53-51.539 29-205.937 107.99-234.669 31.28-3.221-8.61 53.204-154.71 45.48-186.34-2.471-10.11-5.731-33.2-9.025-59.88-17.68 33.77-34.3 57.49-36.666 63.03-5.485 12.82-88.934 93.96-88.934 93.96s-6.75-1.21-12.098-4.25c-5.518-3.14-8.276-7.3-8.276-7.3 14.727-30.47 60.987-107.27 60.987-107.27" fill="#e9f2ff"/><path d="m573.57 1561 49.43 141-49.424-46.42 3.738-14.43s-11.36 1.01-15.97-1.95-15.344-75.04-15.344-75.04 10.058-1.68 13.393-2.05c3.558-.41 14.177-1.11 14.177-1.11" fill="#b2cbfd"/><path d="m675.269 1558s10.188 111.75-.269 144c0 0 29.947-48.23 24.337-58.22l-10.854-7.28s20.955-2.77 17.026-15.02c-3.928-12.25-20.765-61.9-20.765-61.9z" fill="#b2cbfd"/><path d="m1236 2664h-1174v-386.15l1174-3.85z" fill="#699ff0"/><path d="m62 2067h1174v-101h-1174z" fill="#699ff0"/><path d="m34.4747 1966h1226.0553c17.93 0 32.47-14.8 32.47-33.05v-7.9c0-18.25-14.54-33.05-32.47-33.05h-1226.0553c-17.9354 0-32.4747 14.8-32.4747 33.05v7.9c0 18.25 14.5393 33.05 32.4747 33.05" fill="#466aa5"/><path d="m545.313 1697.99 33.813-2.05c2.275-.14 4.008-2.05 3.866-4.29l-.93-14.84c-.141-2.24-2.1-3.94-4.376-3.8l-33.81 2.05c-2.277.14-4.009 2.05-3.868 4.29l.932 14.84c.139 2.24 2.098 3.94 4.373 3.8" fill="#2b478b"/><path d="m566.839 1693 10.161-.67-.838-14.33-10.162.67z" fill="#e9f2ff"/><path d="m546.916 1683 13.39-.74c.991-.06 1.752-.84 1.691-1.73-.061-.9-.923-1.58-1.913-1.53l-13.39.74c-.991.06-1.752.84-1.691 1.73.061.9.923 1.58 1.913 1.53z" fill="#e9f2ff"/><path d="m545.73 1689 15.625-1.65c.378-.05.668-.6.644-1.25-.023-.65-.351-1.15-.729-1.1l-15.624 1.65c-.378.02-.668.6-.645 1.25.023.63.352 1.15.729 1.1" fill="#e9f2ff"/><path d="m545.73 1691 15.624-.82c.379-.02.669-.3.645-.63-.023-.31-.351-.56-.729-.55l-15.624.82c-.378.03-.668.3-.645.63.025.33.352.57.729.55z" fill="#e9f2ff"/><path d="m653 1820c0-2.76-2.462-5-5.5-5s-5.5 2.24-5.5 5 2.462 5 5.5 5 5.5-2.24 5.5-5z" fill="#2b478b"/><path d="m653 1853.51c0-3.04-2.462-5.51-5.5-5.51s-5.5 2.47-5.5 5.51c0 3.02 2.462 5.49 5.5 5.49s5.5-2.47 5.5-5.49z" fill="#2b478b"/><path d="m77 2278v-74c9.8412 25.16 20.233 49.82 31 73.9z" fill="#b7d2fb"/><path d="m107.094 2278c-10.4523-23.73-20.5404-48.02-30.094-72.81v-138.19h423.589c-1.103 47.44-2.111 106.59-4.62 122.22-3.647 22.73-7.917 41.62-12.925 53.89-3.583 8.79-6.475 20.29-8.799 33.69zm468.848-1.55c8.046-27.61 17.022-55.87 26.993-84.2.561 8.29.871 16.66.869 25.12-.003 14.34-.898 28.97-2.971 43.89-.649 4.72-1.089 9.78-1.332 15.12zm121.807-.39c1.688-66.58 10.362-143.7 16.883-209.06h505.368v207.3z" fill="#b3cffb"/><path d="m605 2276c35.083-56.16 53.449-147.17 62.394-209h47.606c-6.476 65.25-15.088 142.23-16.765 208.69l-48.903.15z" fill="#a4c2f2"/><path d="m600 2276c.242-5.33.681-10.38 1.328-15.08 2.067-14.9 2.96-29.5 2.963-43.82.002-8.45-.307-16.8-.867-25.08 9.133-25.96 19.101-51.98 29.941-77.6 3.195-7.54 10.322-26.2 18.132-47.42h15.503c-8.983 61.83-27.427 152.84-62.658 209z" fill="#a3c1f0"/><path d="m475 2276c2.326-13.34 5.219-24.81 8.804-33.56 5.011-12.22 9.283-31.04 12.932-53.69 2.51-15.56 3.519-74.49 4.623-121.75h150.641c-7.837 21.18-14.988 39.8-18.194 47.32-10.877 25.57-20.879 51.54-30.042 77.45-9.977 28.23-18.959 56.38-27.008 83.89z" fill="#a4c2f2"/><path d="m77 2278v-.05l30.12-.1 367.472-1.25 101.786-.36 23.58-.08h4.358l44.684-.16z" fill="#a8c8fa"/><path d="m178.259 1718 37.741 174h-147.0968l-32.9032-174z" fill="#699ff0"/><path d="m172.822 1724 34.178 157h-133.2043l-29.7957-157z" fill="#fff"/><g fill="#699ff0"><path d="m62.3893 1736h101.2217c1.864 0 3.389 1.59 3.389 3.5 0 1.93-1.525 3.5-3.389 3.5h-101.2217c-1.8641 0-3.3893-1.57-3.3893-3.5 0-1.91 1.5252-3.5 3.3893-3.5z"/><path d="m66.3893 1753h101.2217c1.864 0 3.389 1.35 3.389 3s-1.525 3-3.389 3h-101.2217c-1.8625 0-3.3893-1.35-3.3893-3s1.5268-3 3.3893-3z"/><path d="m69.3909 1768h101.2181c1.866 0 3.391 1.36 3.391 3 0 1.65-1.525 3-3.391 3h-101.2181c-1.8657 0-3.3909-1.35-3.3909-3 0-1.64 1.5252-3 3.3909-3z"/><path d="m75.3908 1799h101.2182c1.866 0 3.391 1.57 3.391 3.5 0 1.91-1.525 3.5-3.391 3.5h-101.2182c-1.8641 0-3.3908-1.59-3.3908-3.5 0-1.93 1.5267-3.5 3.3908-3.5z"/><path d="m79.3909 1815h101.2181c1.866 0 3.391 1.57 3.391 3.5s-1.525 3.5-3.391 3.5h-101.2181c-1.8641 0-3.3909-1.57-3.3909-3.5s1.5268-3.5 3.3909-3.5z"/><path d="m82.3908 1831h101.2182c1.864 0 3.391 1.36 3.391 3.01 0 1.63-1.527 2.99-3.391 2.99h-101.2182c-1.8657 0-3.3908-1.36-3.3908-2.99 0-1.65 1.5251-3.01 3.3908-3.01z"/></g><path d="m240.029 1815 21.971 72.77-4.029 1.23-21.971-72.79z" fill="#a53d38"/><path d="m259.5 1880c7.435 0 13.561 5.24 14.5 12h-29c.938-6.76 7.065-12 14.5-12" fill="#b64c41"/><path d="m240.174 1891c5.22 0 10.413-.94 10.826-1.02l-.152-.94c-5.217.96-19.104 2.4-20.659-2.29-.691-2.09-.045-5.6.849-10.46 1.626-8.83 4.084-22.19 1.196-40.83-2.262-14.59-.582-19.01 1.227-20.14 1.892-1.19 4.439.99 4.465 1.01l.564-.76c-.125-.11-3.066-2.6-5.483-1.08-2.986 1.87-3.546 8.99-1.663 21.14 2.864 18.46.425 31.71-1.189 40.47-.923 5.02-1.588 8.64-.816 10.96 1.031 3.12 5.945 3.94 10.835 3.94" fill="#b64c41"/><path d="m1612.16 2561s-20.67 18.99-16.64 32.5c4.03 13.5 22.68 22.5 25.2 39.01 2.52 16.49 12.59 25.49 21.67 25.49h43.24s6.67-11.61-9.44-15.1c-16.14-3.5-22.21-22.9-21.2-40.9 1-18.01-1.52-42-1.52-42l-34.26-8z" fill="#2c3a64"/><path d="m1867.4 2657.54c.33.17.79.31 1.35.46h115.25c-1-4.01-4.7-11.66-18.19-13.82-18-2.87-49.18-13.17-56.14-35.82-.22-.72-.43-1.48-.6-2.24-5.52-24.21-45.68 7.43-45.68 7.43s-.13.96-.3 2.61c-.92 8.88-3.31 37.62 4.31 41.38" fill="#2c3a64"/><path d="m1961 2002.5s-6.05 75.8-13.16 166.92c-9.65 123.76-21.28 275.8-22.43 304.6-1.98 50.01-9.96 130.01-9.96 130.01s-18.91 19.01-56.76 11c0 0-33.71-114.21-43.35-235.04-.14-1.98-.29-3.98-.45-5.96-8.96-123.02-22.89-382.03-22.89-382.03z" fill="#35488b"/><path d="m1961 2002.47s-6.05 75.6-13.16 166.49l-132.5 210.04c-.14-1.98-.29-3.97-.45-5.95-8.96-122.7-22.89-381.05-22.89-381.05z" fill="#2c3a64"/><path d="m1934 2011.49s-109.5 274.51-181.5 403.52c-72 128.99-94.5 164.99-94.5 164.99s-41.25-16.49-45-27.75c0 0 27.53-249.04 75.75-309.75 27.24-34.31 59.25-137.25 60.75-173.25s9.75-107.25 9.75-107.25z" fill="#35488b"/><path d="m1900 1503.11c-40.66 13.02-111-22.14-111-22.14s31.71-24.17 35.26-74.32c.06-.69.11-1.37.14-2.07.2-3.73.25-7.58.13-11.58l11.12 9.09 41.65 34.1s-2.14 16.82-2.99 44.84c6.6 3.67 11.89 7.73 15.89 11.35 6.61 5.95 9.8 10.73 9.8 10.73" fill="#f4ac75"/><path d="m1743 1476s108.21-17 179.5 29.96c0 0 48.42 314.98 6.25 344.79s-185.75 0-185.75 0z" fill="#f4ac75"/><path d="m1886.89 2190h-194.89s22.65-332.15 29.12-413c5.24-65.58 16.35-222.82 20.36-279.9.94-13.31 1.49-21.17 1.49-21.17l46.53-7.93 79.91 103.45s12.64 275.87 12.17 319.34c-.44 43.48 5.04 212.91 5.31 241.39.25 28.48 0 57.82 0 57.82" fill="#e9f2ff"/><path d="m1870 1572.09 17.27 617.91h90.73s-4.2-406.39-4.51-443.74c-.31-37.34 9.87-198.18-18.44-223.13-23.68-20.87-80.64-41.13-80.64-41.13z" fill="#e9f2ff"/><path d="m1875.01 1467s25.94 18.1 24.96 24.6c-.97 6.5-4.53 16.78-4.53 16.78l-15.86-3.26 13.38 9.53s-15.18 44.87-22.96 57.35z" fill="#e9f2ff"/><path d="m1692 2190 30.33-422.15c51.47-3.15 109.22-15.37 109.22-15.37s3.54-11.31 4.01-18.82c.44-7.17-3.51-15.16-3.51-15.16s-80.87-13.8-104.48-23.49l1.78-24.8c5.34-11.89 12.55-27.23 19.4-41.59 1.9-.42 3.89-.62 6-.62 41.13 0 118.12 78 109.6 149.05-20.48 170.75-107.7 361.12-172.35 412.95z" fill="#deeaff"/><path d="m1823.59 1407.57c-.18-1.28-.59-1.92-.59-1.92l.73-.15 11.55-2.5 42.72 34.1s-1.84 15.88-3.16 44.9c-.11-.16-44.03-24.21-51.25-74.43z" fill="#c97c47"/><path d="m1893.99 1447s-72.92-2.05-70.95-47.71c1.97-45.64-6.1-76.65 40.53-77.27 46.64-.62 54.93 17.2 57.95 32.59s-8.51 91.74-27.53 92.39z" fill="#f4ac75"/><path d="m1823.64 1404.72s9.47 2.49 16.99-7.48c7.51-9.97 20.03-48.33 36.56-50.82 16.54-2.5 38.32 9.71 45.36 2.74 10.24-10.17 23.45-26.82 23.45-26.82s-81.99-58.14-114.72-31.23c-32.72 26.91-44.18 66.26-7.64 113.61z" fill="#2c3a64"/><path d="m1921.39 1567c-1.49-27.6-16.25-72.57-16.39-73l4.22 1.91c.52 1.79 12.26 42.83 13.78 71.03z" fill="#2c3a64"/><path d="m1815.43 1651c-1.56-1.6-39.36-37.69-31.31-62.98 3.16-9.86 8.94-13.74 15.08-16.6 5.72-2.08 19.09-4.24 25.99.08 12.6 7.87 18.95 29.6 20.81 65.76l-1.53.08c-2.22-42.89-13.37-58.41-21.68-61.91-10.46-4.4-28.81-2.59-34.6 14.03-3.97 11.44 3.83 27.45 11.07 38.43 8.05 12.2 16.8 23.02 16.9 23.11z" fill="#2c3a64"/><path d="m1819.81 1654.92c-1.59 1.44-4.19 1.44-5.78 0l-2.85-2.58c-1.57-1.45-1.57-3.81 0-5.26 1.59-1.44 4.2-1.44 5.79 0l2.84 2.58c1.59 1.45 1.59 3.81 0 5.26z" fill="#b64c41"/><path d="m1845.49 1644c-1.92 0-3.49-1.66-3.49-3.69v-3.62c0-2.03 1.57-3.69 3.49-3.69 1.93 0 3.51 1.66 3.51 3.69v3.62c0 2.03-1.58 3.69-3.51 3.69z" fill="#b64c41"/><path d="m1912 1567.5c0-5.25 4.48-9.5 10.01-9.5 5.51 0 9.99 4.25 9.99 9.5s-4.48 9.5-9.99 9.5c-5.53 0-10.01-4.25-10.01-9.5z" fill="#2c3a64"/><path d="m1918 1568c0-2.76 2.02-5 4.51-5s4.49 2.24 4.49 5-2 5-4.49 5-4.51-2.24-4.51-5z" fill="#d6716b"/><path d="m1876.93 2190c-.06-.62-6.66-62.86-4.75-116.96.8-22.86.12-49.72-.54-75.7-.93-37.07-3.02-72.76.12-96.04 5.37-39.83 4.29-220.87 2.09-240.49-2.14-19.14-.08-40.11 1.89-46.44 2.03-6.45-6.64-41.76-6.74-42.12l1.01-.25c.41 1.48 9.77 36.25 7.66 42.96-1.98 6.27-4.9 26.75-2.78 45.74 2.21 19.64 6.44 200.64 1.05 240.52-3.12 23.19-4.18 59.06-3.25 96.09.65 25.99 1.34 52.89.54 75.77-1.91 54.02 7.7 116.3 7.77 116.92z" fill="#b2cbfd"/><path d="m2038.51 1692s24.38 42.14-1.19 53.23c-25.56 11.08-28.32-.61-28.32-.61z" fill="#e9f2ff"/><path d="m1831.48 1718.98s3.92 7.97 3.49 15.14c-.47 7.5-3.99 18.8-3.99 18.8s-152.22 32.33-181.8 5.31c-31.77-29.02 27.16-247.02 52.38-268.35 10.87-9.2 33.79-14.81 54.94-18.16 11.66-1.85 22.78-3.02 31.06-3.74 8.51-.73 14.04-.98 14.04-.98l-3.43 12.67-13.34 49.23-15.57 57.4s-46.53 95.56-48.03 104.55c-1.5 8.97 110.25 28.13 110.25 28.13" fill="#e9f2ff"/><path d="m1853 1556s-38.39-16.61-66-31.74l12.04-44.26z" fill="#deeaff"/><path d="m1786.74 1524c-.02-.02-.03-.02-.05-.03-18.36-9.93-27.75-28.52-29.69-52.27 11.76-1.83 22.97-2.99 31.31-3.7 1.34.43 2.16.71 2.16.71l8.53 10.86z" fill="#deeaff"/><path d="m1870 1572-60.73-115s-22.66 4.56-30.27 11.64c0 0 3.86 34.58 6.89 42.25 0 0 11.72-1.34 13.4-.35 0 0-5.7 8.65-7.38 9.65 0 0 52.8 24.44 78.09 51.81z" fill="#e9f2ff"/><path d="m1800.5 1576c-4.23-9.13-41.44-86.8-31.96-106.56l3.64-.44c-7.18 14.98 18.61 82.49 29.82 106.69z" fill="#2c3a64"/><path d="m1885 1647c-2.75 0-5-2.01-5-4.5s2.25-4.5 5-4.5c2.77 0 5 2.01 5 4.5s-2.23 4.5-5 4.5z" fill="#cddefe"/><path d="m1885 1920c-2.75 0-5-2.23-5-5s2.25-5 5-5c2.77 0 5 2.23 5 5s-2.23 5-5 5z" fill="#cddefe"/><path d="m1887.5 1795c-2.47 0-4.5-2.24-4.5-5.01 0-2.75 2.03-4.99 4.5-4.99 2.49 0 4.5 2.24 4.5 4.99 0 2.77-2.01 5.01-4.5 5.01z" fill="#cddefe"/><path d="m1887.37 2039c-1.95 0-3.61-1.29-4.28-3.14l-.09-3.45c.61-1.98 2.34-3.41 4.37-3.41 2.56 0 4.63 2.24 4.63 5.01 0 2.75-2.07 4.99-4.63 4.99" fill="#cddefe"/><path d="m1829 1494s16.83 8.27 44 3.15l-3.06 74.85z" fill="#7a97f3"/><path d="m1934.73 1582 157.27 14.12-95.97 170.88-148.03-8.52z" fill="#35488b"/><path d="m1949 1581.56s.06-24.15 13.94-22.48c13.87 1.68 18.06 25.92 18.06 25.92z" fill="#b2cbfd"/><path d="m2090.92 1594.07-157.22-14.07-86.7 175.82 1.08 2.18 86.69-175.82 157.23 14.07z" fill="#7a97f3"/><path d="m1963 1559s22.24 10.87 14.39 45.72c-7.88 34.86-17.67 53.97-11.95 74.58l106.06 9.7s-11.53-27.4 1.28-55.15c12.81-27.73 3.7-59.42-8.05-62.19z" fill="#e9f2ff"/><path d="m2015.45 1734.36s-16.37-19.59-12.99-33.74c3.39-14.15 15.59-17.42 23.02-12.42 7.46 5 18.3 16.46 16.27 25.23-2.04 8.76-18.06 25-26.3 20.93" fill="#f4ac75"/><path d="m1823.99 1722.91s27.07-11.7 39.47-8.29c12.39 3.42 29.13 5.85 30.43 10.25 1.31 4.39-8.92 20.64-24.14 21.47-15.22.82-42 7.81-48.44 0-6.46-7.82 2.68-23.43 2.68-23.43z" fill="#f4ac75"/><path d="m1400.5 1464c5.26 0 9.5-4.31 9.5-9.62v-109.75c0-5.32-4.24-9.63-9.5-9.63s-9.5 4.31-9.5 9.63v109.75c0 5.31 4.24 9.62 9.5 9.62z" fill="#466aa5"/><path d="m1400.5 2402c5.26 0 9.5-4.28 9.5-9.54v-108.9c0-5.28-4.24-9.56-9.5-9.56s-9.5 4.28-9.5 9.56v108.9c0 5.26 4.24 9.54 9.5 9.54z" fill="#466aa5"/><path d="m2137 1756.49c0 15.74 12.75 28.51 28.49 28.51s28.51-12.77 28.51-28.51c0-15.72-12.77-28.49-28.51-28.49s-28.49 12.77-28.49 28.49z" fill="#699ff0"/><path d="m2136 2028.49c0 15.74 12.98 28.51 29 28.51s29-12.77 29-28.51-12.98-28.49-29-28.49-29 12.75-29 28.49z" fill="#699ff0"/><path d="m2165.5 2027c6.35 0 11.5-5.13 11.5-11.45v-254.12c0-6.3-5.15-11.43-11.5-11.43s-11.5 5.13-11.5 11.43v254.12c0 6.32 5.15 11.45 11.5 11.45z" fill="#466aa5"/></g></svg>