<svg fill="none" height="70" viewBox="0 0 70 70" width="70" xmlns="http://www.w3.org/2000/svg"><path d="m10.2514 31.6501c-13.66855 8.4186-13.66855 22.0685 0 30.4886 13.6686 8.4201 35.8305 8.4201 49.4977 0s13.6686-22.07 0-30.4886-35.8305-8.4172-49.4977 0z" fill="#516eb4"/><path d="m10.2514 31.6501c-13.66855 8.4186-13.66855 22.0685 0 30.4886 13.6686 8.4201 35.8305 8.4201 49.4977 0s13.6686-22.07 0-30.4886-35.8305-8.4172-49.4977 0z" fill="#fff" opacity=".6"/><path d="m30.1799 58.4241-6.5269-3.7691-13.1989 7.6057c2.296 1.3765 4.7289 2.5107 7.2595 3.3841z" fill="#fafafa"/><path d="m69.2134 42.3367-43.8096 25.2932c11.8142 2.0669 25.0462.2384 34.3453-5.4913 8.7274-5.3749 11.8789-12.8843 9.4643-19.8019z" fill="#f0f0f0"/><path d="m11.623 52.4921v7.1216l.092-.0532v-7.123z" fill="#263238"/><path d="m11.498 52.4189v7.1231l.125.0718v-7.1216z" fill="#37474f"/><path d="m11.498 52.4189.125.0732.0919-.0546-.1249-.0718z" fill="#455a64"/><path d="m12.0986 53.0494-1.1348-.6579c-.0416-.0244-.0761 0-.0761.0431v1.9679c.0017.0264.0094.052.0226.0749.0133.0229.0315.0425.0535.0572l1.1348.655c.0416.023.0761 0 .0761-.0445v-1.965c-.0015-.0262-.0092-.0518-.0224-.0745s-.0316-.042-.0537-.0562z" fill="#516eb4"/><path d="m12.0986 53.0494-1.1348-.6579c-.0416-.0244-.0761 0-.0761.0431v1.9679c.0017.0264.0094.052.0226.0749.0133.0229.0315.0425.0535.0572l1.1348.655c.0416.023.0761 0 .0761-.0445v-1.965c-.0015-.0262-.0092-.0518-.0224-.0745s-.0316-.042-.0537-.0562z" fill="#fff" opacity=".2"/><path d="m10.9881 52.5237 1.06.6119c.0142.0109.0235.0269.0259.0446v1.8673l-1.0615-.6076c-.0142-.0109-.0235-.0269-.0258-.0446v-1.8673m-.0331-.0588v1.9333c.0014.0146.006.0288.0134.0414.0075.0127.0176.0236.0297.0319l1.1103.642v-1.9376c-.0011-.0146-.0054-.0287-.0126-.0413-.0072-.0127-.0171-.0236-.029-.032l-1.1104-.6421z" fill="#fafafa"/><path d="m11.8743 53.2894c.0113.007.0199.0176.0244.0301.0067.0134.0102.0282.0101.0431v1.2928c.0006.0056 0 .0114-.0018.0168-.0017.0054-.0045.0105-.0083.0148-.0034.0029-.0077.0045-.0122.0045s-.0088-.0016-.0122-.0045l-.1695-.0977c-.0106-.0078-.019-.0182-.0244-.0302-.0069-.0138-.0103-.0291-.0101-.0445v-.4869l-.2872-.1667v.4884c.0006.0057.0001.0114-.0017.0169-.0017.0054-.0046.0105-.0084.0147-.0016.0016-.0035.0029-.0056.0038-.0021.0008-.0043.0013-.0066.0013s-.0045-.0005-.0066-.0013c-.0021-.0009-.004-.0022-.0056-.0038l-.1695-.0977c-.01-.0055-.0181-.014-.023-.0244-.0073-.0137-.0112-.029-.0115-.0445v-1.2928c-.0004-.0057.0005-.0115.0024-.017.002-.0054.0051-.0104.0091-.0146.0034-.0029.0077-.0045.0122-.0045s.0088.0016.0122.0045l.1695.0977c.0106.0078.019.0182.0244.0302.0069.0138.0104.0291.0101.0445v.4783l.2873.1652v-.4812c-.0007-.0057-.0001-.0114.0016-.0169.0017-.0054.0046-.0104.0084-.0147.0016-.0016.0035-.0029.0056-.0037.0021-.0009.0044-.0013.0066-.0013.0023 0 .0046.0004.0066.0013.0021.0008.004.0021.0056.0037z" fill="#fafafa"/><path d="m58.2667 41.2652v7.1202l-.0919-.0517v-7.1245z" fill="#263238"/><path d="m58.3916 41.1907v7.123l-.125.0718v-7.1201z" fill="#37474f"/><path d="m58.3917 41.1906-.125.0747-.0919-.056.125-.0718z" fill="#455a64"/><path d="m57.7915 41.8211 1.1347-.6549c.0417-.0245.0761 0 .0761.0445v1.9563c-.0015.0265-.0091.0522-.0223.0752-.0133.0229-.0317.0424-.0538.057l-1.1347.655c-.0417.0244-.0762 0-.0762-.0446v-1.9563c.0015-.0265.0092-.0522.0224-.0751.0132-.023.0316-.0425.0538-.0571z" fill="#516eb4"/><path d="m57.7915 41.8211 1.1347-.6549c.0417-.0245.0761 0 .0761.0445v1.9563c-.0015.0265-.0091.0522-.0223.0752-.0133.0229-.0317.0424-.0538.057l-1.1347.655c-.0417.0244-.0762 0-.0762-.0446v-1.9563c.0015-.0265.0092-.0522.0224-.0751.0132-.023.0316-.0425.0538-.0571z" fill="#fff" opacity=".2"/><path d="m58.9021 41.2955v1.8673c-.0028.0179-.012.0343-.0259.0459l-1.06.6119v-1.8673c.0016-.018.0098-.0349.0229-.0474l1.0601-.6119m.033-.0574-1.1103.6406c-.0121.0086-.0223.0197-.0297.0326s-.012.0273-.0134.0421v1.929l1.1103-.6406c.012-.0087.0221-.0199.0295-.0328.0074-.0128.0121-.0271.0136-.0419v-1.9276z" fill="#fafafa"/><path d="m58.1807 41.9633c.0036-.0027.0078-.0041.0123-.0041.0044 0 .0087.0014.0122.0041.0037.0043.0065.0093.0083.0147.0017.0055.0023.0112.0017.0169v.4855l.2873-.1652v-.4797c0-.0154.0035-.0307.01-.0446.0055-.0119.0139-.0223.0245-.0301l.1695-.0977h.0244c.0041.0041.0072.0091.0092.0145.002.0055.0027.0113.0023.0171v1.2927c-.0001.0156-.004.0309-.0115.0446-.0045.0125-.0131.0231-.0244.0301l-.1695.0977c-.0035.0027-.0078.0041-.0122.0041-.0045 0-.0087-.0014-.0123-.0041-.0038-.0043-.0067-.0093-.0084-.0147-.0017-.0055-.0023-.0112-.0016-.0169v-.5042l-.2873.1652v.4884c.0001.0149-.0033.0297-.01.0431-.0055.0119-.0139.0223-.0245.0301l-.1694.0977c-.0016.0016-.0036.0029-.0057.0038-.002.0008-.0043.0013-.0066.0013-.0022 0-.0045-.0005-.0066-.0013-.0021-.0009-.004-.0022-.0056-.0038-.0037-.0043-.0065-.0093-.0083-.0147-.0017-.0055-.0023-.0112-.0017-.0169v-1.2927c-.0001-.015.0033-.0298.01-.0431.005-.0123.0135-.0228.0245-.0302z" fill="#fafafa"/><path d="m65.0866 44.0604c-.0996-.0498-.2096-.0758-.321-.0758s-.2213.026-.321.0758c-.0387.0133-.0723.0384-.0961.0718-.0237.0333-.0365.0732-.0365.1142 0 .0409.0128.0808.0365.1142.0238.0333.0574.0584.0961.0718.0997.0498.2096.0757.321.0757s.2214-.0259.321-.0757c.0387-.0134.0723-.0385.0961-.0718.0237-.0334.0365-.0733.0365-.1142 0-.041-.0128-.0809-.0365-.1142-.0238-.0334-.0574-.0585-.0961-.0718z" fill="#455a64"/><path d="m65.2203 44.2456c-.0037-.0402-.018-.0787-.0415-.1115s-.0553-.0588-.0921-.0752c-.0997-.0498-.2096-.0757-.321-.0757-.1115 0-.2214.0259-.3211.0757-.0368.0164-.0686.0424-.0921.0752s-.0378.0713-.0415.1115v.1092c.0038.04.0181.0782.0416.1108s.0553.0583.092.0745c.0997.0498.2096.0757.3211.0757.1114 0 .2213-.0259.321-.0757.0367-.0162.0685-.0419.092-.0745s.0378-.0708.0416-.1108z" fill="#263238"/><path d="m65.0866 44.0604c-.0996-.0498-.2096-.0758-.321-.0758s-.2213.026-.321.0758c-.0387.0133-.0723.0384-.0961.0718-.0237.0333-.0365.0732-.0365.1142 0 .0409.0128.0808.0365.1142.0238.0333.0574.0584.0961.0718.0997.0498.2096.0757.321.0757s.2214-.0259.321-.0757c.0387-.0134.0723-.0385.0961-.0718.0237-.0334.0365-.0733.0365-.1142 0-.041-.0128-.0809-.0365-.1142-.0238-.0334-.0574-.0585-.0961-.0718z" fill="#455a64"/><path d="m64.4287 40.6734c.0029-.0295.0136-.0577.031-.0817s.041-.0429.0681-.0548c.0736-.0376.1551-.0572.2377-.0572.0827 0 .1642.0196.2378.0572.0271.0119.0506.0308.0681.0548.0174.024.0281.0522.031.0817v3.5406c-.0029.0295-.0136.0577-.031.0817-.0175.024-.041.0429-.0681.0548-.0736.0376-.1551.0572-.2378.0572-.0826 0-.1641-.0196-.2377-.0572-.0271-.0119-.0507-.0308-.0681-.0548s-.0281-.0522-.031-.0817z" fill="#37474f"/><path d="m65.0032 40.5369c-.0736-.0376-.155-.0572-.2377-.0572-.0826 0-.1641.0196-.2377.0572-.0293.0091-.0549.0273-.0731.052-.0181.0247-.0279.0545-.0279.0852 0 .0306.0098.0605.0279.0852.0182.0246.0438.0429.0731.052.0736.0375.1551.0571.2377.0571.0827 0 .1641-.0196.2377-.0571.0293-.0091.0549-.0274.0731-.052.0182-.0247.028-.0546.028-.0852 0-.0307-.0098-.0605-.028-.0852s-.0438-.0429-.0731-.052z" fill="#455a64"/><path d="m64.8208 33.8621v6.8156c-.0003.0049-.002.0096-.0047.0137-.0028.004-.0067.0072-.0111.0093-.0119.0064-.0253.0098-.0388.0098s-.0269-.0034-.0388-.0098c-.0047-.0019-.0088-.005-.0119-.0091-.003-.004-.0049-.0088-.0053-.0139v-6.8156c-.0013-.008-.0008-.0162.0013-.024.0022-.0079.0061-.0151.0113-.0213.0053-.0062.0118-.0111.0192-.0145s.0154-.0052.0235-.0052.0161.0018.0235.0052c.0073.0034.0139.0083.0191.0145.0053.0062.0092.0134.0113.0213.0022.0078.0027.016.0014.024z" fill="#263238"/><path d="m64.8149 35.5959h-.0991c.0043-.2154.0647-.426.1753-.6109s.2675-.3378.4553-.4434c.2114-.122.4517-.1849.6957-.1824.2441.0025.483.0705.6918.1967l-.0502.0876c-.1941-.1187-.4167-.1829-.6442-.1856-.2276-.0028-.4516.0559-.6486.1698-.1716.0977-.3149.2383-.4158.408-.101.1697-.1562.3627-.1602.5602z" fill="#263238"/><path d="m64.8149 35.5959h-.0991c-.0043-.198-.0602-.3916-.1622-.5614-.1021-.1698-.2467-.31-.4195-.4067-.197-.114-.4211-.1727-.6486-.1699s-.4501.0669-.6442.1857l-.0488-.0876c.2086-.1263.4472-.1943.6911-.1968.2438-.0025.4838.0605.695.1824.1888.105.3469.2575.4585.4424.1116.185.1729.3959.1778.6119z" fill="#263238"/><path d="m66.6721 34.9423.2485.1724c.1044.0686.2249.1088.3496.1166.1247.0079.2493-.017.3614-.0721.0367-.0156.0686-.0407.0924-.0728.0237-.0321.0384-.0699.0427-.1096 0-.023 0-.1149 0-.1436 0-.0747-.0575-.1437-.1738-.2026l-.3907-.1795c-.2184-.1005-.5056-.1192-.6407-.0417-.0217.0123-.0399.03-.0528.0514-.0128.0214-.0199.0458-.0204.0707v.1437c.0078.0557.0285.1088.0605.1552.0319.0464.0741.0847.1233.1119z" fill="#263238"/><path d="m66.5587 34.4151c-.135.0775-.0833.2528.1135.3907l.2485.1723c.1048.0677.2252.1074.3497.1152s.2489-.0166.3613-.0707c.1953-.1134.1767-.2872-.0417-.3863l-.3907-.1796c-.2183-.1005-.5056-.1192-.6406-.0416z" fill="#37474f"/><path d="m66.543 34.5342c.0008-.0144.0054-.0282.0135-.0401s.0193-.0214.0324-.0274c.0633-.0296.1328-.0434.2026-.0402.1317.0014.2617.0298.382.0833l.3907.1795c.0891.0403.1437.0948.1437.1437 0 .0488-.0345.0948-.1049.135-.0849.0447-.1798.0669-.2758.0646-.1317.0019-.2611-.0351-.372-.1063l-.247-.1723c-.042-.0223-.0786-.0535-.1072-.0915-.0285-.038-.0483-.0818-.058-.1283z" fill="#455a64"/><path d="m62.7712 34.9423-.2471.1724c-.1056.069-.2273.1094-.3532.1172s-.2516-.0173-.365-.0727c-.0365-.0157-.0681-.0409-.0916-.073-.0235-.032-.038-.0698-.0419-.1094 0-.023 0-.1149 0-.1436 0-.0747.0574-.1437.1752-.2026l.3893-.1795c.2197-.1005.5056-.1192.6406-.0417.022.0121.0405.0297.0536.0511s.0204.0459.0211.071v.1437c-.0076.0554-.0278.1084-.0592.1547-.0314.0464-.0731.0849-.1218.1124z" fill="#263238"/><path d="m62.8846 34.4151c.135.0775.0847.2528-.1135.3907l-.247.1723c-.1057.0687-.2274.109-.3533.1168-.1258.0078-.2515-.0171-.3649-.0723-.1954-.1134-.1767-.2872.0431-.3863l.3892-.1796c.2255-.1005.5114-.1192.6464-.0416z" fill="#37474f"/><path d="m62.9003 34.5343c-.0005-.0143-.005-.0281-.0128-.04-.0079-.012-.0189-.0215-.0318-.0275-.0637-.0299-.1337-.0437-.2039-.0403-.1317.0017-.2617.03-.3821.0834l-.3907.1795c-.0891.0402-.1436.0948-.1436.1436 0 .0489.0344.0948.1048.1351.0851.0442.1799.0664.2758.0646.1318.0021.2612-.0349.372-.1063l.2471-.1724c.042-.0222.0785-.0534.1071-.0914.0285-.038.0484-.0818.0581-.1283z" fill="#455a64"/><path d="m54.4043 50.8875-20.5029 11.8372v-35.1482l20.5029-11.8372z" fill="#f5f5f5"/><path d="m33.9014 62.7249-5.5918-3.229v-35.1482l5.5918 3.2289z" fill="#e6e6e6"/><path d="m28.31 57.3442-4.6596-2.6904v-35.1482l6.524 3.7662-1.8644 1.0759z" fill="#516eb4"/><path d="m28.31 57.3442-4.6596-2.6904v-35.1482l6.524 3.7662-1.8644 1.0759z" fill="#000" opacity=".2"/><path d="m23.6504 54.6538v-4.0908l4.6596 2.6903v4.0908z" fill="#516eb4"/><path d="m26.0532 51.9519v4.0894l.3404.1968v-4.088z" fill="#000"/><path d="m23.6501 19.5056-1.8645 1.0744v35.1497l1.8645-1.0759z" fill="#e0e0e0"/><path d="m23.6501 19.5056-1.8645 1.0744v35.1497l1.8645-1.0759z" fill="#000" opacity=".1"/><path d="m21.7856 50.5657 1.8645 2.0612 4.6596 2.6975v-.994z" fill="#000" opacity=".3"/><path d="m23.6501 48.6267 4.6596 2.6745v1.9521l-6.5241-3.7662z" fill="#fafafa"/><path d="m21.7856 49.4871v1.0787l6.5241 3.7647v-1.0773z" fill="#e6e6e6"/><path d="m16.1953 17.3539 20.4885-11.84584 5.4827 3.16865-1.8601 1.07441 6.6418 3.83518 1.8644-1.0759 5.5919 3.229-20.5029 11.8372-5.5919-3.229 1.8645-1.0758-6.5241-3.7662-1.8644 1.0758z" fill="#fafafa"/><path d="m36.6841 6.59961 3.7432 2.14451-1.8716 1.08016 8.3928 4.83912 1.8644-1.0758 3.7274 2.1517-18.6384 10.7096-3.7274-2.1014 1.8629-1.0758-8.5479-4.7487-1.7035.9825-3.7274-2.1517z" fill="#ebebeb"/><path d="m21.7857 55.7295-5.5919-3.2275v-35.1482l5.5919 3.2275z" fill="#e6e6e6"/><path d="m36.6841 6.59961v1.06005l-17.6933 10.23134-.9322-.5372z" fill="#e0e0e0"/><path d="m48.8127 13.5876v1.0759l-1.8645 1.0758v-1.0758z" fill="#f5f5f5"/><path d="m32.0373 23.2717v1.0759l-.9207.5329-.9423-.5329z" fill="#f5f5f5"/><path d="m40.4268 8.74412-3.7432-2.14451v1.06005l2.7952 1.63173z" fill="#e0e0e0"/><path d="m38.5557 9.82422v1.06868l8.3927 4.8463v-1.0758z" fill="#e0e0e0"/><path d="m52.5404 15.7393-3.7274-2.1517v1.0759l2.7952 1.613z" fill="#e0e0e0"/><path d="m36.684 6.59961-.6191 1.41771 2.811 1.62167 1.5513-.89487z" fill="#000" opacity=".1"/><path d="m38.5556 9.82422-.6191 1.41768 8.4689 4.8334.543-.3361v-1.0758z" fill="#000" opacity=".1"/><path d="m48.7968 13.5876-.6191 1.4178 2.811 1.6202 1.5513-.8863z" fill="#000" opacity=".1"/><path d="m25.1455 46.4419.7182.4152v-23.9359l-.7182-.4151z" fill="#516eb4"/><path d="m25.3438 46.3372.5199.2987v-23.7146l-.5199-.3002z" fill="#516eb4"/><path d="m25.3438 46.3372.5199.2987v-23.7146l-.5199-.3002z" fill="#fff" opacity=".8"/><path d="m25.1455 46.4419.1982-.1048v-23.7161l-.1982-.1149z" fill="#000" opacity=".4"/><path d="m26.5815 47.2693.7197.4151v-23.9358l-.7197-.4151z" fill="#516eb4"/><path d="m26.7812 47.1645.52.2988v-23.7146l-.52-.3002z" fill="#516eb4"/><path d="m26.7812 47.1645.52.2988v-23.7146l-.52-.3002z" fill="#fff" opacity=".8"/><path d="m26.5815 47.2693.1997-.1048v-23.7161l-.1997-.1149z" fill="#000" opacity=".4"/><path d="m28.31 51.3012-2.8842-1.6562-1.7754.9179 4.6596 2.6903z" fill="#000" opacity=".15"/><path d="m28.31 24.3477-2.8842 25.2975 2.8842 1.6561z" fill="#000" opacity=".15"/><path d="m15.2632 46.7968.9322.5386v-1.0701l-.9322-.5444z" fill="#516eb4"/><path d="m15.2632 45.7208.9322-.5372v1.0816z" fill="#516eb4"/><path d="m15.2632 45.7208.9322-.5372v1.0816z" fill="#fff" opacity=".6"/><path d="m52.5404 19.5342v3.2275l-3.7274 2.1532v-3.229z" fill="#37474f"/><path d="m52.5405 19.5342-.4467.2571v2.6745l.4467.2959z" fill="#455a64"/><path d="m48.813 21.6872v2.9719l3.522-2.0325v-2.9733z" fill="#516eb4"/><path d="m48.813 21.6872v2.9719l3.522-2.0325v-2.9733z" fill="#fff" opacity=".8"/><path d="m50.5566 23.9079v-3.2289l-.2212.1292v2.9719z" fill="#37474f"/><path d="m50.5566 23.9079v-3.229l.2212-.1264v3.2275z" fill="#455a64"/><path d="m52.5404 22.7617.3663.214-3.7289 2.1517-.3648-.2125z" fill="#516eb4"/><path d="m52.5404 22.7617.3663.214-3.7289 2.1517-.3648-.2125z" fill="#fff" opacity=".6"/><path d="m49.1778 25.6016-.3648-.214v-.4726l.3648.2126z" fill="#516eb4"/><path d="m49.1777 25.6015 3.7289-2.1531v-.4726l-3.7289 2.1517z" fill="#516eb4"/><path d="m49.1777 25.6015 3.7289-2.1531v-.4726l-3.7289 2.1517z" fill="#fff" opacity=".4"/><path d="m46.0101 23.3003v3.229l-3.7289 2.1517v-3.229z" fill="#37474f"/><path d="m46.0102 23.3003-.4467.2585v2.6731l.4467.2974z" fill="#455a64"/><path d="m42.2812 25.4536v2.9719l3.5221-2.0325v-2.9733z" fill="#516eb4"/><path d="m42.2812 25.4536v2.9719l3.5221-2.0325v-2.9733z" fill="#fff" opacity=".8"/><path d="m44.0249 27.674v-3.2289l-.2212.1292v2.9719z" fill="#37474f"/><path d="m44.0249 27.6742v-3.229l.2212-.1264v3.2276z" fill="#455a64"/><path d="m46.0101 26.5295.3648.2126-3.7274 2.1517-.3663-.2126z" fill="#516eb4"/><path d="m46.0101 26.5295.3648.2126-3.7274 2.1517-.3663-.2126z" fill="#fff" opacity=".6"/><path d="m42.6475 29.3677-.3663-.2125v-.474l.3663.2125z" fill="#516eb4"/><path d="m42.6479 29.3676 3.7275-2.1531v-.4726l-3.7275 2.1517z" fill="#516eb4"/><path d="m42.6479 29.3676 3.7275-2.1531v-.4726l-3.7275 2.1517z" fill="#fff" opacity=".4"/><path d="m39.4789 27.0667v3.2289l-3.7274 2.1517v-3.2275z" fill="#37474f"/><path d="m39.4789 27.0667-.4467.2585v2.6731l.4467.2973z" fill="#455a64"/><path d="m35.7515 29.2197v2.9719l3.522-2.0325v-2.9733z" fill="#516eb4"/><path d="m35.7515 29.2197v2.9719l3.522-2.0325v-2.9733z" fill="#fff" opacity=".8"/><path d="m37.4951 31.4404v-3.2275l-.2212.1278v2.9719z" fill="#37474f"/><path d="m37.4951 31.4403v-3.2275l.2212-.1278v3.2275z" fill="#455a64"/><path d="m39.4789 30.2957.3662.2125-3.7288 2.1517-.3648-.2125z" fill="#516eb4"/><path d="m39.4789 30.2957.3662.2125-3.7288 2.1517-.3648-.2125z" fill="#fff" opacity=".6"/><path d="m36.1163 33.1339-.3648-.2126v-.474l.3648.2126z" fill="#516eb4"/><path d="m36.1167 33.1338 3.7288-2.1517v-.474l-3.7288 2.1517z" fill="#516eb4"/><path d="m36.1167 33.1338 3.7288-2.1517v-.474l-3.7288 2.1517z" fill="#fff" opacity=".4"/><path d="m52.5404 25.9907v3.229l-3.7274 2.1517v-3.229z" fill="#37474f"/><path d="m52.5405 25.9907-.4467.2586v2.6731l.4467.2973z" fill="#455a64"/><path d="m48.813 28.1438v2.9718l3.522-2.0324v-2.9733z" fill="#516eb4"/><path d="m48.813 28.1438v2.9718l3.522-2.0324v-2.9733z" fill="#fff" opacity=".8"/><path d="m50.5566 30.3645v-3.2275l-.2212.1278v2.9719z" fill="#37474f"/><path d="m50.5566 30.3644v-3.2275l.2212-.1279v3.2276z" fill="#455a64"/><path d="m52.5404 29.2197.3663.2126-3.7289 2.1517-.3648-.2126z" fill="#516eb4"/><path d="m52.5404 29.2197.3663.2126-3.7289 2.1517-.3648-.2126z" fill="#fff" opacity=".6"/><path d="m49.1778 32.0579-.3648-.2126v-.474l.3648.2126z" fill="#516eb4"/><path d="m49.1777 32.0581 3.7289-2.1532v-.4725l-3.7289 2.1517z" fill="#516eb4"/><path d="m49.1777 32.0581 3.7289-2.1532v-.4725l-3.7289 2.1517z" fill="#fff" opacity=".4"/><path d="m46.0101 29.7571v3.229l-3.7289 2.1517v-3.2276z" fill="#37474f"/><path d="m46.0102 29.7571-.4467.2585v2.6731l.4467.2974z" fill="#455a64"/><path d="m42.2812 31.9101v2.9719l3.5221-2.0325v-2.9733z" fill="#516eb4"/><path d="m42.2812 31.9101v2.9719l3.5221-2.0325v-2.9733z" fill="#fff" opacity=".8"/><path d="m44.0249 34.1309v-3.2276l-.2212.1279v2.9718z" fill="#37474f"/><path d="m44.0249 34.1308v-3.2276l.2212-.1278v3.2275z" fill="#455a64"/><path d="m46.0101 32.9858.3648.2126-3.7274 2.1517-.3663-.2126z" fill="#516eb4"/><path d="m46.0101 32.9858.3648.2126-3.7274 2.1517-.3663-.2126z" fill="#fff" opacity=".6"/><path d="m42.6475 35.8243-.3663-.2126v-.474l.3663.2126z" fill="#516eb4"/><path d="m42.6479 35.8242 3.7275-2.1517v-.474l-3.7275 2.1517z" fill="#516eb4"/><path d="m42.6479 35.8242 3.7275-2.1517v-.474l-3.7275 2.1517z" fill="#fff" opacity=".4"/><path d="m39.4789 33.5232v3.229l-3.7274 2.1517v-3.2276z" fill="#37474f"/><path d="m39.4789 33.5232-.4467.2585v2.6731l.4467.2974z" fill="#455a64"/><path d="m35.7515 35.6762v2.9719l3.522-2.0325v-2.9733z" fill="#516eb4"/><path d="m35.7515 35.6762v2.9719l3.522-2.0325v-2.9733z" fill="#fff" opacity=".8"/><path d="m37.4951 37.897v-3.2276l-.2212.1279v2.9718z" fill="#37474f"/><path d="m37.4951 37.8969v-3.2276l.2212-.1278v3.2276z" fill="#455a64"/><path d="m39.4789 36.7522.3662.2126-3.7288 2.1517-.3648-.2126z" fill="#516eb4"/><path d="m39.4789 36.7522.3662.2126-3.7288 2.1517-.3648-.2126z" fill="#fff" opacity=".6"/><path d="m36.1163 39.5904-.3648-.2126v-.474l.3648.2126z" fill="#516eb4"/><path d="m36.1167 39.5905 3.7288-2.1517v-.474l-3.7288 2.1517z" fill="#516eb4"/><path d="m36.1167 39.5905 3.7288-2.1517v-.474l-3.7288 2.1517z" fill="#fff" opacity=".4"/><path d="m52.5404 32.4473v3.2289l-3.7274 2.1517v-3.2275z" fill="#37474f"/><path d="m52.5405 32.4473-.4467.2585v2.6731l.4467.2973z" fill="#455a64"/><path d="m48.813 34.6003v2.9719l3.522-2.0325v-2.9733z" fill="#516eb4"/><path d="m48.813 34.6003v2.9719l3.522-2.0325v-2.9733z" fill="#fff" opacity=".8"/><path d="m50.5566 36.8211v-3.2276l-.2212.1278v2.9719z" fill="#37474f"/><path d="m50.5566 36.821v-3.2276l.2212-.1278v3.2275z" fill="#455a64"/><path d="m52.5404 35.6763.3663.2126-3.7289 2.1516-.3648-.2125z" fill="#516eb4"/><path d="m52.5404 35.6763.3663.2126-3.7289 2.1516-.3648-.2125z" fill="#fff" opacity=".6"/><path d="m49.1778 38.5147-.3648-.2126v-.474l.3648.2126z" fill="#516eb4"/><path d="m49.1777 38.5146 3.7289-2.1517v-.474l-3.7289 2.1517z" fill="#516eb4"/><path d="m49.1777 38.5146 3.7289-2.1517v-.474l-3.7289 2.1517z" fill="#fff" opacity=".4"/><path d="m46.0101 36.2134v3.229l-3.7289 2.1517v-3.2276z" fill="#37474f"/><path d="m46.0102 36.2134-.4467.2585v2.6731l.4467.2974z" fill="#455a64"/><path d="m42.2812 38.3664v2.9719l3.5221-2.0325v-2.9733z" fill="#516eb4"/><path d="m42.2812 38.3664v2.9719l3.5221-2.0325v-2.9733z" fill="#fff" opacity=".8"/><path d="m44.0249 40.5872v-3.2276l-.2212.1279v2.9733z" fill="#37474f"/><path d="m44.0249 40.5871v-3.2276l.2212-.1278v3.229z" fill="#455a64"/><path d="m46.0101 39.4426.3648.2126-3.7274 2.1517-.3663-.2126z" fill="#516eb4"/><path d="m46.0101 39.4426.3648.2126-3.7274 2.1517-.3663-.2126z" fill="#fff" opacity=".6"/><path d="m42.6475 42.2808-.3663-.2126v-.474l.3663.2126z" fill="#516eb4"/><path d="m42.6479 42.2807 3.7275-2.1517v-.474l-3.7275 2.1517z" fill="#516eb4"/><path d="m42.6479 42.2807 3.7275-2.1517v-.474l-3.7275 2.1517z" fill="#fff" opacity=".4"/><path d="m39.4789 39.9812v3.2275l-3.7274 2.1532v-3.229z" fill="#37474f"/><path d="m39.4789 39.9812-.4467.2571v2.6731l.4467.2973z" fill="#455a64"/><path d="m35.7515 42.133v2.9719l3.522-2.0325v-2.9733z" fill="#516eb4"/><path d="m35.7515 42.133v2.9719l3.522-2.0325v-2.9733z" fill="#fff" opacity=".8"/><path d="m37.4951 44.355v-3.229l-.2212.1278v2.9733z" fill="#37474f"/><path d="m37.4951 44.3551v-3.229l.2212-.1278v3.229z" fill="#455a64"/><path d="m39.4789 43.2087.3662.2126-3.7288 2.1532-.3648-.2126z" fill="#516eb4"/><path d="m39.4789 43.2087.3662.2126-3.7288 2.1532-.3648-.2126z" fill="#fff" opacity=".6"/><path d="m36.1163 46.047-.3648-.2126v-.4726l.3648.2126z" fill="#516eb4"/><path d="m36.1167 46.0468 3.7288-2.1516v-.4741l-3.7288 2.1532z" fill="#516eb4"/><path d="m36.1167 46.0468 3.7288-2.1516v-.4741l-3.7288 2.1532z" fill="#fff" opacity=".4"/><path d="m52.5404 38.9055v3.2276l-3.7274 2.1517v-3.2276z" fill="#37474f"/><path d="m52.5405 38.9053-.4467.2571v2.6731l.4467.2973z" fill="#455a64"/><path d="m48.813 41.0571v2.9719l3.522-2.0325v-2.9733z" fill="#516eb4"/><path d="m48.813 41.0571v2.9719l3.522-2.0325v-2.9733z" fill="#fff" opacity=".8"/><path d="m50.5566 43.2776v-3.2276l-.2212.1279v2.9733z" fill="#37474f"/><path d="m50.5566 43.2777v-3.2275l.2212-.1278v3.2289z" fill="#455a64"/><path d="m52.5404 42.1328.3663.2126-3.7289 2.1531-.3648-.214z" fill="#516eb4"/><path d="m52.5404 42.1328.3663.2126-3.7289 2.1531-.3648-.214z" fill="#fff" opacity=".6"/><path d="m49.1778 44.971-.3648-.2126v-.474l.3648.214z" fill="#516eb4"/><path d="m49.1777 44.9712 3.7289-2.1517v-.474l-3.7289 2.1531z" fill="#516eb4"/><path d="m49.1777 44.9712 3.7289-2.1517v-.474l-3.7289 2.1531z" fill="#fff" opacity=".4"/><path d="m46.0101 42.6714v3.2275l-3.7289 2.1532v-3.229z" fill="#37474f"/><path d="m46.0102 42.6714-.4467.2571v2.6745l.4467.2959z" fill="#455a64"/><path d="m42.2812 44.823v2.9718l3.5221-2.031v-2.9747z" fill="#516eb4"/><path d="m42.2812 44.823v2.9718l3.5221-2.031v-2.9747z" fill="#fff" opacity=".8"/><path d="m44.0249 47.0451v-3.2289l-.2212.1278v2.9733z" fill="#37474f"/><path d="m44.0249 47.0453v-3.229l.2212-.1278v3.229z" fill="#455a64"/><path d="m46.0101 45.8989.3648.2126-3.7274 2.1531-.3663-.2125z" fill="#516eb4"/><path d="m46.0101 45.8989.3648.2126-3.7274 2.1531-.3663-.2125z" fill="#fff" opacity=".6"/><path d="m42.6475 48.7374-.3663-.2126v-.4726l.3663.2126z" fill="#516eb4"/><path d="m42.6479 48.7373 3.7275-2.1517v-.474l-3.7275 2.1531z" fill="#516eb4"/><path d="m42.6479 48.7373 3.7275-2.1517v-.474l-3.7275 2.1531z" fill="#fff" opacity=".4"/><path d="m39.4789 46.4375v3.2275l-3.7274 2.1532v-3.229z" fill="#37474f"/><path d="m39.4789 46.4375-.4467.2571v2.6746l.4467.2958z" fill="#455a64"/><path d="m35.7515 48.5906v2.9718l3.522-2.0325v-2.9733z" fill="#516eb4"/><path d="m35.7515 48.5906v2.9718l3.522-2.0325v-2.9733z" fill="#fff" opacity=".8"/><path d="m37.4951 50.8113v-3.229l-.2212.1278v2.9733z" fill="#37474f"/><path d="m37.4951 50.8112v-3.229l.2212-.1264v3.2276z" fill="#455a64"/><path d="m39.4789 49.665.3662.2126-3.7288 2.1532-.3648-.2126z" fill="#516eb4"/><path d="m39.4789 49.665.3662.2126-3.7288 2.1532-.3648-.2126z" fill="#fff" opacity=".6"/><path d="m36.1163 52.5049-.3648-.214v-.4725l.3648.2125z" fill="#516eb4"/><path d="m36.1167 52.5048 3.7288-2.1531v-.474l-3.7288 2.1531z" fill="#516eb4"/><path d="m36.1167 52.5048 3.7288-2.1531v-.474l-3.7288 2.1531z" fill="#fff" opacity=".4"/><path d="m30.3569 50.1077v1.659l1.4364.8288v-1.659z" fill="#455a64"/><path d="m30.3569 47.6184v1.659l1.4364.8303v-1.6591z" fill="#455a64"/><path d="m30.3569 43.6526v1.659l1.4364.8302v-1.659z" fill="#455a64"/><path d="m30.3569 41.1633v1.6605l1.4364.8288v-1.659z" fill="#455a64"/><path d="m30.3569 37.1946v1.659l1.4364.8288v-1.659z" fill="#455a64"/><path d="m30.3569 34.7053v1.659l1.4364.8303v-1.6591z" fill="#455a64"/><path d="m30.3569 30.7366v1.6604l1.4364.8288v-1.659z" fill="#455a64"/><path d="m30.3569 28.2488v1.659l1.4364.8288v-1.659z" fill="#455a64"/><path d="m30.71 36.1301 1.083.6248v-1.2195l-1.083-.6262z" fill="#516eb4"/><path d="m30.71 38.6179 1.083.6263v-1.2209l-1.083-.6249z" fill="#516eb4"/><path d="m30.71 32.1614 1.083.6248v-1.2195l-1.083-.6248z" fill="#516eb4"/><path d="m30.71 29.6721 1.083.6263v-1.2209l-1.083-.6249z" fill="#516eb4"/><path d="m30.71 45.0774 1.083.6248v-1.2195l-1.083-.6263z" fill="#516eb4"/><path d="m30.71 42.5881 1.083.6249v-1.2195l-1.083-.6248z" fill="#516eb4"/><path d="m30.71 51.531 1.083.6263v-1.221l-1.083-.6248z" fill="#516eb4"/><path d="m30.71 49.0432 1.083.6248v-1.2195l-1.083-.6262z" fill="#516eb4"/><path d="m30.3569 28.2488.3534.2039v1.2195l-.3534.2356z" fill="#37474f"/><path d="m30.3569 30.7366.3534.2054v1.2195l-.3534.2355z" fill="#37474f"/><path d="m30.3569 34.7053.3534.204v1.2209l-.3534.2341z" fill="#37474f"/><path d="m30.3569 37.1946.3534.2039v1.2195l-.3534.2356z" fill="#37474f"/><path d="m30.3569 41.1633.3534.2054v1.2195l-.3534.2356z" fill="#37474f"/><path d="m30.3569 43.6526.3534.204v1.2209l-.3534.2341z" fill="#37474f"/><path d="m30.3569 47.6184.3534.204v1.2209l-.3534.2341z" fill="#37474f"/><path d="m30.3569 50.1077.3534.2039v1.2195l-.3534.2356z" fill="#37474f"/><path d="m18.2407 43.1125v1.6591l1.4378.8302v-1.659z" fill="#455a64"/><path d="m18.2407 40.6233v1.659l1.4378.8302v-1.659z" fill="#455a64"/><path d="m18.2407 36.6572v1.659l1.4378.8303v-1.659z" fill="#455a64"/><path d="m18.2407 34.1694v1.6591l1.4378.8287v-1.659z" fill="#455a64"/><path d="m18.2407 30.1992v1.659l1.4378.8303v-1.6591z" fill="#455a64"/><path d="m18.2407 27.7102v1.659l1.4378.8303v-1.6591z" fill="#455a64"/><path d="m18.2407 23.7429v1.659l1.4378.8288v-1.659z" fill="#455a64"/><path d="m18.2407 21.2537v1.659l1.4378.8302v-1.659z" fill="#455a64"/><path d="m18.5957 29.135 1.083.6248v-1.2195l-1.083-.6262z" fill="#516eb4"/><path d="m18.5957 31.6242 1.083.6249v-1.2195l-1.083-.6263z" fill="#516eb4"/><path d="m18.5957 25.1663 1.083.6248v-1.2195l-1.083-.6248z" fill="#516eb4"/><path d="m18.5957 22.677 1.083.6263v-1.2195l-1.083-.6263z" fill="#516eb4"/><path d="m18.5957 38.0823 1.083.6248v-1.2195l-1.083-.6263z" fill="#516eb4"/><path d="m18.5957 35.593 1.083.6248v-1.2194l-1.083-.6249z" fill="#516eb4"/><path d="m18.5957 44.5359 1.083.6263v-1.2195l-1.083-.6263z" fill="#516eb4"/><path d="m18.5957 42.0481 1.083.6248v-1.2195l-1.083-.6263z" fill="#516eb4"/><path d="m18.2407 21.2537.3548.2039v1.2195l-.3548.2356z" fill="#37474f"/><path d="m18.2407 23.7429.3548.204v1.2195l-.3548.2355z" fill="#37474f"/><path d="m18.2407 27.7102.3548.204v1.2209l-.3548.2341z" fill="#37474f"/><path d="m18.2407 30.1992.3548.204v1.2209l-.3548.2341z" fill="#37474f"/><path d="m18.2407 34.1694.3548.204v1.2195l-.3548.2356z" fill="#37474f"/><path d="m18.2407 36.6572.3548.204v1.2209l-.3548.2341z" fill="#37474f"/><path d="m18.2407 40.6233.3548.204v1.2209l-.3548.2341z" fill="#37474f"/><path d="m18.2407 43.1125.3548.204v1.2195l-.3548.2356z" fill="#37474f"/><path d="m54.4043 46.7322-19.575 11.3617-.9279-.5357v2.1517l20.5029-11.6002z" fill="#000" opacity=".15"/><path d="m50.5132 47.9703v4.4413l.1681-.0977v-4.4399zm-2.0382 5.6133.1681-.0976v-4.4399l-.1681.0977zm-2.0325 1.1721.1681-.0962v-4.4413l-.1681.0977zm-4.7472 2.7435.1681-.0962v-4.437l-.1695.0977zm-2.0339 1.1735.1695-.0976v-4.4399l-.1695.0977zm-2.0325 1.1721.1695-.0977v-4.4398l-.1695.0977z" fill="#455a64"/><path d="m37.6289 57.6011.1695-.0962v-1.1348l-.1695.0977z" fill="#37474f"/><path d="m41.8634 54.0103-.1681.0991v1.1907l.1681-.0948z" fill="#37474f"/><path d="m39.8311 55.1909-.1695.0977v1.162l.1695-.0948z" fill="#37474f"/><path d="m50.6759 48.8953-.1681.0976v1.3215l.1681-.0962z" fill="#37474f"/><path d="m48.6432 50.0759-.1681.0977v1.2913l.1681-.0962z" fill="#37474f"/><path d="m46.6109 51.2554-.168.0976v1.2612l.168-.0948z" fill="#37474f"/><path d="m54.4043 50.8875v-.7269l-20.5029 11.8373v.7268z" fill="#455a64"/><path d="m52.5402 46.7966-1.8644 1.0773v4.4399l1.8644-1.0759z" fill="#516eb4"/><path d="m50.5075 47.9702-1.8644 1.0773v4.4399l1.8644-1.0759z" fill="#516eb4"/><path d="m48.4753 49.1453-1.8645 1.0758v4.4399l1.8645-1.0759z" fill="#516eb4"/><path d="m46.4411 50.3188-1.863 1.0759v4.4398l1.863-1.0758z" fill="#516eb4"/><path d="m43.7277 51.886-1.8644 1.0758v4.4399l1.8644-1.0759z" fill="#516eb4"/><path d="m41.6955 53.0593-1.8644 1.0759v4.4413l1.8644-1.0773z" fill="#516eb4"/><path d="m39.6613 54.2329-1.863 1.0759v4.4412l1.863-1.0758z" fill="#516eb4"/><path d="m37.6291 55.4065-1.8645 1.0773v4.4398l1.8645-1.0758z" fill="#516eb4"/><path d="m52.5401 46.7966-1.8673 1.0773v4.4399l1.8673-1.0759zm-3.894 2.2508v4.4399l1.8673-1.0759v-4.4412zm-2.0325 1.1736v4.4398l1.8673-1.0758v-4.4399zm-2.0325 1.1735v4.4441l1.8673-1.0758v-4.4442zm-2.7176 1.5714v4.4398l1.8673-1.0758v-4.4442zm-2.0325 1.1735v4.4413l1.8673-1.0773v-4.4442zm-2.0324 1.1735v4.4413l1.8673-1.0773v-4.4441zm-2.034 1.175v4.4355l1.8673-1.0758v-4.4399z" fill="#fff" opacity=".8"/><path d="m37.9651 55.2126-.1666.349v1.0126l.836-1.7408zm1.6964 3.4602v-.4611l-.3045.6435zm0-4.052-1.8673 3.8926v1.2367l.26-.1508 1.603-3.3482zm.2571-.5358-.0876.1824v1.6303l1.1663-2.4418zm-2.9388 6.1362.6492-.3734v-.9811zm.6492-4.3091-1.8673 3.8926v1.0126l1.8673-3.8926zm4.6654-3.2017-.4309.8992v1.014l1.1002-2.2982zm4.7544-2.7449-.4381.9149v1.0127l1.1074-2.3155zm1.9535-1.129-.3591.7498v1.6303l1.4364-3.0021zm-4.4241 2.663v1.0242l.3649-.7628zm6.797-4.0319-.7024 1.4665v1.0156l1.3717-2.8728zm-2.903 2.4734-1.8673 3.8941v.8259l.5315-.3074 1.333-2.7823zm0 3.6441v-.0445l-.0344.0704zm2.0411-4.2976-1.8673 3.894v.306l.4669-.2701 1.4004-2.9173zm0 3.1241v-.1637l-.1134.2355zm-8.8193 1.5599-1.8673 3.8941v.7181l.1953-.1134 1.6734-3.4933zm10.8461-5.971-1.8673 3.8926v.4309l.7972-.4596 1.0672-2.2307zm-10.8447 9.5045v-.5745l-.3849.8029zm.1681-.9322v.8346l.5257-.3031 1.3387-2.7952v-1.6303zm4.5777-5.3304-1.8673 3.894v.7024l.2025-.1163 1.6648-3.4746zm0 3.5234v-.5745l-.3806.7857z" fill="#fff" opacity=".3"/><path d="m33.9014 57.5624.9279.5358v-1.0672l-.9279-.5444z" fill="#516eb4"/><path d="m34.8296 58.0939 20.4469-11.8688v-1.0083l-20.4469 11.8099z" fill="#516eb4"/><path d="m34.8296 58.0939 20.4469-11.8688v-1.0083l-20.4469 11.8099z" fill="#fff" opacity=".4"/><path d="m33.9014 56.4821.9279.5444 20.4468-11.8099-.8718-.576z" fill="#516eb4"/><path d="m33.9014 56.4821.9279.5444 20.4468-11.8099-.8718-.576z" fill="#fff" opacity=".6"/><g fill="#516eb4" opacity=".35"><path d="m41.6955 54.1094-1.8644 1.0816v1.1649l1.8644-1.0558z" opacity=".8"/><path d="m43.7277 52.9287-1.8644 1.0816v1.1951l1.8644-1.0543z" opacity=".8"/><path d="m35.7646 58.6556 1.8645-1.0543v-1.1333l-1.8645 1.083z" opacity=".8"/><path d="m39.6613 55.2886-1.863 1.0816v1.1347l1.863-1.0543z" opacity=".8"/><path d="m46.4411 51.353-1.863 1.0831v1.2338l1.863-1.0557z" opacity=".8"/><path d="m50.5075 48.9932-1.8644 1.083v1.2927l1.8644-1.0543z" opacity=".8"/><path d="m52.5402 47.8137-1.8644 1.0816v1.3229l1.8644-1.0543z" opacity=".8"/><path d="m48.4753 50.1738-1.8645 1.0816v1.264l1.8645-1.0543z" opacity=".8"/></g><path d="m48.2755 46.2969-9.1095 5.2586c-.0647.0422-.1186.0991-.1572.1659-.0387.0669-.0611.1419-.0654.219v1.6892c.0044.0769.0271.1516.066.218.039.0664.0931.1227.158.1641l.0158.0101c.0692.0344.1454.0523.2227.0523.0772 0 .1534-.0179.2226-.0523l9.1167-5.2586c.0643-.0426.1177-.0995.1561-.1663.0384-.0669.0607-.1417.0651-.2187v-1.692c-.0042-.0768-.0266-.1515-.0653-.2179s-.0926-.1227-.1573-.1642l-.0173-.0101c-.0701-.0349-.1475-.0528-.2258-.0523-.0784.0005-.1555.0194-.2252.0552z" fill="#f0f0f0"/><path d="m39.6227 54.019c-.0693.034-.1455.0517-.2227.0517s-.1533-.0177-.2226-.0517l-.0158-.01c-.0651-.0413-.1194-.0975-.1583-.1639-.039-.0665-.0615-.1413-.0658-.2182v-1.6863c.0032-.0805.0274-.1588.0704-.227l.4582.2701c-.0399.066-.0622.1412-.0646.2183v1.6892c0 .1292.0904.2039.2212.1278z" fill="#e0e0e0"/><path d="m48.7393 46.5584-9.1167 5.2586c-.0644.042-.118.0987-.1564.1653-.0385.0666-.0607.1414-.0648.2182v1.6892c0 .1436.0991.1982.2212.1278l9.1167-5.2586c.0642-.0425.1177-.0995.1561-.1663s.0607-.1417.0651-.2186v-1.6878c0-.1407-.0991-.1982-.2212-.1278z" fill="#fafafa"/><path d="m48.8384 46.5913c.0517 0 .0589.0589.0589.0948v1.6834c-.0042.0659-.0235.13-.0563.1873-.0329.0573-.0785.1062-.1333.1431l-9.111 5.2715c-.0202.0132-.0434.0211-.0675.023-.0517 0-.0603-.0603-.0603-.0963v-1.6963c.0043-.0661.0238-.1302.0569-.1875.0332-.0573.079-.1062.1341-.1429l9.1153-5.2586c.0208-.0129.0445-.0203.0689-.0215m0-.0632c-.0351.0012-.0692.0116-.0991.0301l-9.1224 5.2586c-.0644.0421-.118.0987-.1564.1654-.0385.0666-.0607.1413-.0648.2181v1.6892c0 .1006.0502.158.1221.158.0351-.0007.0694-.0111.0991-.0301l9.1167-5.2586c.0642-.0426.1177-.0995.1561-.1663.0384-.0669.0607-.1417.0651-.2187v-1.6877c0-.1006-.0503-.158-.1221-.158z" fill="#f0f0f0"/><path d="m42.7813 51.4479-.3993.2255v-.1896l.362-.2097c.0105-.0066.019-.0161.0244-.0273.0058-.0117.0092-.0244.01-.0374v-.1795c.0004-.0048-.0003-.0096-.002-.0141s-.0045-.0085-.008-.0118c-.0035-.0026-.0078-.0041-.0122-.0041s-.0087.0015-.0122.0041l-.362.2097v-.1824l.3893-.2197c.0105-.0067.019-.0161.0244-.0273.0067-.0119.0101-.0252.01-.0388v-.1781c.0007-.005.0001-.0101-.0017-.0149-.0017-.0047-.0046-.009-.0083-.0124-.0036-.0025-.0079-.0038-.0122-.0038-.0044 0-.0086.0013-.0122.0038l-.589.3418c-.0102.007-.0186.0164-.0244.0273-.006.0121-.0094.0253-.01.0388v1.0917c-.0001.0047.0007.0095.0024.0139s.0043.0085.0076.0119c.0036.0025.0079.0038.0122.0038.0044 0 .0087-.0013.0122-.0038l.6005-.3476c.0109-.0062.0194-.0158.0244-.0273.0064-.0114.0099-.0242.01-.0373v-.1796c0-.0129 0-.0215-.01-.0258-.0035-.0034-.0081-.0052-.013-.0052-.0048 0-.0094.0018-.0129.0052zm.7771-.6363c.0487-.0568.0867-.1221.112-.1925.0266-.0747.0397-.1535.0388-.2327.0023-.0538-.006-.1074-.0244-.158-.0126-.0343-.0377-.0626-.0704-.079-.0363-.0125-.0757-.0125-.112 0-.0508.0129-.0993.0338-.1437.0618l-.3447.1982c-.0101.0067-.0181.0162-.023.0273-.0067.0118-.0101.0252-.01.0387v1.0917c0 .0129 0 .0215.01.0259.0032.0028.0073.0043.0115.0043.0043 0 .0084-.0015.0115-.0043l.1666-.0963c.0109-.0062.0195-.0158.0244-.0273.0059-.0116.0093-.0243.0101-.0373v-.362l.1164-.0675.1436.2801c.0045.0081.0103.0154.0172.0215h.0359l.1724-.1005c.0088-.0049.0158-.0125.0201-.0216.0055-.0096.0085-.0205.0086-.0316.0013-.0051.0013-.0106 0-.0158zm-.1178-.1724c-.0238.0317-.0536.0585-.0876.079l-.1436.0819v-.25l.1436-.0818c.0252-.0186.0564-.0273.0876-.0245.023 0 .0345.0259.0345.0776.0018.042-.0104.0834-.0345.1178zm-2.5596 1.9061-.4008.2312v-.1896l.3634-.2097c.0106-.0066.0191-.0161.0245-.0273.0064-.0114.0099-.0242.01-.0373v-.1796c0-.0129 0-.0215-.01-.0258-.0035-.0027-.0078-.0042-.0122-.0042-.0045 0-.0088.0015-.0123.0042l-.3634.2097v-.1824l.3907-.2255c.0106-.0067.019-.0161.0245-.0273.0066-.0119.0101-.0252.01-.0388v-.1796c.0005-.0048-.0001-.0096-.0019-.0141-.0017-.0045-.0045-.0085-.0081-.0117-.0038-.0022-.008-.0033-.0123-.0033-.0042 0-.0085.0011-.0122.0033l-.5903.3418c-.0103.007-.0186.0164-.0244.0273-.0058.0117-.0093.0244-.0101.0374v1.0931c-.0001.0047.0007.0095.0024.0139.0018.0044.0044.0085.0077.0119.0037.0022.0079.0033.0122.0033s.0085-.0011.0122-.0033l.6004-.3476c.0109-.0062.0195-.0158.0244-.0273.0065-.0114.0099-.0242.0101-.0373v-.1796c.0006-.005 0-.0101-.0017-.0148-.0018-.0048-.0047-.0091-.0084-.0125-.0037-.0022-.0081-.0033-.0124-.003-.0044.0002-.0086.0018-.012.0045zm1.0414-1.514-.1437.0848c-.0166.0092-.0302.0232-.0388.0402-.0065.0119-.0118.0244-.0158.0373l-.2054.5861-.2054-.3491c-.0049-.0064-.0107-.0122-.0172-.0172-.0086-.0086-.0201-.0072-.0373 0l-.1437.0848c-.0101.0067-.0181.0161-.023.0272-.0067.0119-.0101.0252-.01.0388v1.0917c-.0007.0048-.0001.0097.0017.0142.0017.0045.0046.0085.0083.0116.0032.0029.0073.0044.0115.0044.0043 0 .0084-.0015.0115-.0044l.1666-.0962c.0103-.007.0187-.0164.0245-.0273.0058-.0117.0092-.0244.01-.0373v-.5602l.1192.2097c.0046.0072.0104.0135.0173.0186h.0287l.0819-.0473c.0131-.0072.0236-.0182.0301-.0316.0067-.0121.0124-.0246.0173-.0374l.1192-.3476v.5602c-.0005.0048.0001.0096.0019.0141.0017.0045.0045.0086.0081.0117.0034.0024.0074.0037.0115.0037s.0082-.0013.0115-.0037l.1666-.0948c.0106-.0066.0191-.016.0245-.0273.006-.012.0094-.0252.01-.0387v-1.0917c.0004-.0048-.0003-.0096-.002-.0141-.0018-.0044-.0045-.0085-.008-.0117-.0016-.0028-.0038-.0051-.0065-.0067-.0027-.0017-.0058-.0027-.0089-.0028-.0032-.0001-.0063.0005-.0092.0019-.0028.0014-.0052.0035-.007.0061zm3.4947-1.1045-.4008.2312v-.1896l.3634-.2097c.0103-.007.0186-.0163.0244-.0273.0059-.0116.0093-.0243.0101-.0373v-.1753c.0004-.0048-.0003-.0096-.002-.0141-.0018-.0044-.0045-.0085-.0081-.0117-.0035-.0027-.0077-.0042-.0122-.0042-.0044 0-.0087.0015-.0122.0042l-.3634.2082v-.1824l.3907-.2255c.0109-.0062.0195-.0158.0244-.0273.0067-.0113.0101-.0242.0101-.0373v-.1839c.0006-.0048.0001-.0097-.0017-.0142s-.0046-.0085-.0084-.0116c-.0034-.003-.0077-.0046-.0122-.0046s-.0088.0016-.0122.0046l-.5903.3418c-.0109.0062-.0195.0158-.0244.0273-.0065.0114-.01.0243-.0101.0374v1.0988c-.0006.005-.0001.0101.0017.0149.0017.0047.0046.009.0084.0124.0035.0024.0078.0038.0122.0038.0043 0 .0086-.0014.0122-.0038l.6004-.3462c.0105-.0066.019-.0161.0244-.0273.0067-.0118.0102-.0252.01-.0388v-.1896c.0007-.005.0001-.0101-.0017-.0148-.0017-.0048-.0046-.009-.0083-.0125-.004-.0018-.0085-.0024-.0129-.0017-.0044.0008-.0084.0029-.0115.0061zm1.3301-1.231c.0017-.0276.0055-.0549.0115-.0819.0062-.0272.0154-.0537.0272-.079.0137-.0252.03-.0488.0489-.0704.0207-.0229.0449-.0423.0718-.0574.0216-.0144.0461-.0237.0718-.0273.0151-.0039.0309-.0039.046 0 .0111.0068.0204.0162.0273.0273 0 .0129.01.0244.0143.0359.0021.0108.0065.0211.013.0301h.0301l.1652-.0962c.0088-.0049.0158-.0125.0201-.0215.0053-.0098.0083-.0206.0086-.0316.0006-.0497-.0102-.0988-.0316-.1437-.0181-.0364-.0479-.0658-.0847-.0833-.0381-.0161-.0799-.0211-.1207-.0144-.0551.0083-.1079.0279-.1551.0575-.061.0348-.1163.0789-.1637.1307-.0472.0515-.0882.1084-.1221.1695-.033.0606-.059.1247-.0776.191-.0182.0631-.0283.1283-.0302.194v.1536.1437c.0016.0544.0118.1082.0302.1594.0148.0412.0425.0765.079.1006.0363.0231.0793.0332.1221.0287.0577-.0068.1132-.0264.1623-.0575.0573-.033.1095-.0742.1551-.1221.0478-.0486.0897-.1026.125-.1608.0346-.0572.063-.1178.0847-.181.0193-.0585.03-.1195.0316-.181 0-.0101.0001-.0172-.0086-.0201-.0029-.0021-.0064-.0032-.01-.0032s-.0071.0011-.0101.0032l-.1652.0948c-.0123.0069-.0227.0167-.0301.0287-.0057.0149-.01.0303-.013.046 0 .0158-.0086.033-.0143.0517-.007.0205-.0162.0403-.0273.0589-.0135.0214-.0289.0416-.046.0603-.0216.021-.0457.0394-.0718.0546-.0216.0139-.0462.0223-.0718.0244-.0175.0015-.0349-.0036-.0488-.0143-.013-.0127-.0224-.0286-.0273-.046-.0063-.0225-.0102-.0456-.0115-.069 0-.0143 0-.0344 0-.0603 0-.0258 0-.0531 0-.0804s0-.0546 0-.0805c0-.0258-.0058-.0474-.0043-.0617zm-.431-.2026-.1666.0963c-.0105.0066-.019.0161-.0244.0273-.006.0116-.0094.0243-.01.0373v.5746l-.2873-.4108c-.0049-.0058-.0107-.0107-.0173-.0144-.0052-.0029-.0112-.0044-.0172-.0044s-.0119.0015-.0172.0044l-.1322.0761c-.0101.0067-.0181.0162-.023.0273-.0068.0113-.0107.0242-.0115.0374v1.0931c-.0002.0049.0007.0097.0027.0142s.005.0085.0088.0116c.0035.0022.0075.0033.0115.0033.0041 0 .0081-.0011.0115-.0033l.1666-.0962c.0103-.007.0187-.0164.0245-.0273.006-.0121.0094-.0253.01-.0388v-.5746l.2873.4094c.0045.0062.0104.0111.0172.0144h.0345l.1321-.0762c.0099-.0073.0182-.0166.0245-.0272.0058-.0122.0092-.0254.01-.0388v-1.0945c.0004-.0048-.0003-.0097-.002-.0141-.0018-.0045-.0045-.0085-.008-.0118-.0038-.0013-.0078-.0014-.0117-.0004-.0038.001-.0073.0032-.0099.0061zm-1.7236 1.4695-.3074.1781c-.0105.0066-.019.016-.0244.0273-.0058.0116-.0092.0243-.0101.0373v.1752c-.0004.0048.0003.0097.0021.0141.0017.0045.0045.0085.008.0118.0035.0027.0078.0041.0122.0041s.0087-.0014.0122-.0041l.1063-.0618c.0003.0316-.004.0631-.0129.0934-.0069.0274-.018.0536-.0331.0776-.0144.0228-.0318.0435-.0517.0617-.019.0174-.0397.0328-.0617.046-.0215.0141-.0462.0225-.0719.0244-.0084.0009-.017.0001-.0251-.0023-.0082-.0025-.0157-.0066-.0223-.012-.0134-.0132-.0233-.0295-.0287-.0475-.0064-.0219-.0102-.0446-.0115-.0675 0-.0129 0-.033 0-.0589 0-.0258 0-.0531 0-.0804s0-.0546 0-.0819 0-.0459 0-.0617c.0029-.0275.0072-.0548.013-.0819.0056-.0274.0147-.054.0272-.079.0121-.0258.0281-.0495.0474-.0704.0207-.0229.045-.0423.0719-.0574.0264-.0199.0589-.0301.0919-.0288.0188.0045.0358.0145.0488.0288l.0216.0186h.0287l.1695-.0962c.0084-.0059.0153-.0138.0201-.023.0056-.0095.0081-.0206.0072-.0316-.0012-.036-.0116-.0711-.0302-.102-.0184-.0313-.0453-.0567-.0775-.0732-.038-.0166-.0797-.0226-.1207-.0173-.0567.0073-.1111.0269-.1594.0575-.0607.0353-.1159.0794-.1638.1307-.0476.0512-.0887.1081-.1221.1695-.0329.0606-.0589.1247-.0775.191-.0183.0631-.0284.1283-.0302.1939v.1537.1437c.0009.054.0111.1074.0302.158.0147.0411.0425.0764.079.1005.0359.024.0792.0342.1221.0288.0578-.0061.1134-.0258.1623-.0575.0572-.0331.1095-.0742.1551-.1221.0983-.1005.1699-.2239.2083-.3591.0212-.0684.0318-.1396.0316-.2111v-.2169c.0001-.0048-.0007-.0095-.0025-.014-.0017-.0044-.0043-.0085-.0076-.0119-.0041-.0017-.0087-.0021-.0131-.001-.0044.001-.0083.0034-.0113.0068zm3.578-2.5281c-.0029-.0021-.0064-.0032-.01-.0032s-.0072.0011-.0101.0032l-.1738.0991c-.0159.0092-.0288.0226-.0373.0388-.0062.0111-.0114.0226-.0158.0345l-.1609.5085-.1595-.3203c-.0036-.0067-.0091-.0122-.0158-.0158-.0086-.0072-.0201 0-.0373 0l-.1738.1005c-.0084.0054-.0153.0128-.0201.0216-.0053.0097-.0083.0205-.0086.0316-.0015.0061-.0015.0125 0 .0186l.2872.5502v.3591c-.0006.005 0 .0101.0017.0148.0018.0048.0047.009.0084.0124.0036.0025.0078.0038.0122.0038s.0086-.0013.0122-.0038l.1652-.0948c.0106-.0071.019-.0171.0244-.0287.0067-.0113.0101-.0242.0101-.0373v-.3577l.2873-.8862c.0011-.0086.0011-.0173 0-.0259.0043-.002.0081-.0052.0106-.0093.0026-.0041.0039-.0088.0037-.0137z" fill="#516eb4"/><path d="m22.675 47.0523 5.3146 3.0653c.0649.042.119.0987.1577.1656.0387.067.061.1421.065.2193v1.6878c-.0041.0768-.0265.1515-.0652.2179-.0387.0665-.0927.1227-.1575.1642l-.0172.01c-.0691.0347-.1453.0528-.2227.0528-.0773 0-.1535-.0181-.2226-.0528l-5.3103-3.0638c-.0643-.0425-.1177-.0995-.1561-.1663s-.0607-.1417-.0651-.2186v-1.6921c.0042-.0768.0266-.1514.0653-.2178.0387-.0665.0926-.1228.1573-.1643l.0173-.01c.0686-.0331.1439-.05.2201-.0495s.1512.0184.2194.0523z" fill="#f0f0f0"/><path d="m27.5312 52.581c.0694.0337.1456.0512.2227.0512s.1532-.0175.2226-.0512l.0173-.01c.0648-.0415.1187-.0977.1575-.1642.0387-.0664.061-.1411.0651-.2179v-1.6863c-.003-.0806-.0272-.1589-.0704-.227l-.4582.2701c.0399.066.0622.1412.0647.2183v1.6878c-.0058.1292-.0963.2039-.2213.1292z" fill="#e0e0e0"/><path d="m22.2166 47.3138 5.3146 3.0666c.0645.0422.1182.0991.1567.166.0384.0669.0605.1419.0645.219v1.6877c0 .1437-.0991.1997-.2212.1293l-5.3146-3.0638c-.0643-.0425-.1178-.0995-.1562-.1663s-.0606-.1417-.065-.2186v-1.6921c-.0058-.1408.0933-.1982.2212-.1278z" fill="#fafafa"/><path d="m22.1118 47.3469c.024.0014.0472.0088.0675.0215l5.3147 3.0653c.055.0367.1009.0856.134.1429.0332.0572.0527.1214.057.1874v1.6878c0 .0359-.0086.0962-.0603.0962-.024-.0014-.0472-.0088-.0675-.0215l-5.3147-3.0653c-.055-.0367-.1009-.0855-.134-.1428-.0332-.0573-.0527-.1215-.057-.1875v-1.6892c0-.0359.0086-.0948.0603-.0948zm0-.0632c-.0732 0-.1221.0574-.1221.158v1.6892c.0046.0779.0276.1537.067.2211.0395.0674.0943.1245.16.1667l5.3146 3.0652c.0299.0184.064.0288.0991.0302.0733 0 .1221-.0589.1221-.1594v-1.6907c-.0042-.0768-.0264-.1515-.0648-.2181-.0384-.0667-.092-.1233-.1564-.1654l-5.3146-3.0652c-.0299-.0184-.064-.0287-.0991-.0302z" fill="#f0f0f0"/><g fill="#516eb4"><path d="m22.8902 48.2446c.0083.0063.0148.0148.0187.0245.0055.0106.0085.0224.0086.0344v1.017c.0005.0044-.0001.009-.0016.0132-.0014.0042-.0039.008-.007.0112-.0012.0013-.0027.0023-.0043.003-.0016.0006-.0033.001-.0051.001-.0017 0-.0034-.0004-.005-.001-.0016-.0007-.0031-.0017-.0043-.003l-.135-.0761c-.0083-.0063-.0148-.0148-.0187-.0244-.0055-.0107-.0085-.0225-.0086-.0345v-.3864l-.2269-.1307v.395c.0004.0045-.0001.009-.0016.0132s-.0039.008-.0071.0112c-.0012.0013-.0026.0023-.0042.003s-.0034.001-.0051.001-.0035-.0003-.0051-.001-.003-.0017-.0042-.003l-.1336-.0775c-.0091-.0052-.0162-.0133-.0201-.023-.0053-.0107-.0078-.0226-.0072-.0345v-1.017c-.0006-.0045-.0003-.0092.001-.0136.0012-.0045.0033-.0086.0062-.0122.0029-.0021.0064-.0032.01-.0032s.0071.0011.0101.0032l.1336.0776c.0086.0059.0152.0144.0186.0244.0056.0106.0085.0224.0087.0344v.3792l.2269.1308v-.3792c-.0005-.0045.0001-.009.0016-.0132.0014-.0043.0039-.0081.007-.0113.0012-.0012.0027-.0022.0043-.0029s.0033-.001.0051-.001c.0017 0 .0034.0003.005.001s.0031.0017.0043.0029z"/><path d="m23.047 48.7473c.0011-.0517.0098-.103.0259-.1522.011-.0382.0324-.0725.0617-.0991.0272-.0233.062-.0356.0977-.0345.0475.0027.0935.0175.1336.0431.0504.0291.0956.0665.1336.1106.0386.0438.0718.092.0991.1436.0533.1099.0827.2298.0862.3519v.1437.1436c-.0008.0517-.009.103-.0244.1523-.0116.0378-.0329.072-.0618.0991-.0275.0236-.0629.0359-.0991.0344-.0475-.0026-.0935-.0175-.1336-.043-.0504-.0292-.0956-.0665-.1336-.1106-.038-.044-.0707-.0922-.0977-.1437-.0271-.0549-.0478-.1127-.0617-.1723-.0148-.0588-.0235-.119-.0259-.1796 0-.0445 0-.0905 0-.1436 0-.0532-.0014-.0991 0-.1437zm.4496.5315c0-.0187 0-.0402 0-.0618 0-.0215 0-.0474 0-.0704 0-.0229 0-.0488 0-.0703 0-.0216 0-.0446 0-.0618-.0015-.0266-.0053-.0531-.0115-.079-.0057-.0247-.0139-.0488-.0244-.0718-.0098-.0224-.0229-.0432-.0388-.0618-.016-.0183-.0349-.0339-.056-.046-.0164-.0103-.0352-.0162-.0546-.0172-.0149 0-.0293.0056-.0402.0158-.0115.0122-.0199.027-.0244.0431-.006.0215-.0094.0437-.0101.0661v.0589.1436.0646c.0023.052.014.1031.0345.1509.0195.0446.0527.0818.0948.1063.0431.0244.0747.0258.0948 0 .0231-.0318.0356-.07.0359-.1092z"/><path d="m24.0839 48.9169c.0448.0264.0851.0598.1192.0991.0366.0392.0684.0826.0948.1293.0263.0454.0475.0936.0632.1436.013.0386.0207.0787.023.1192.0024.0065.0024.0137 0 .0201-.002.0017-.0046.0026-.0072.0026s-.0051-.0009-.0072-.0026l-.1335-.0775c-.0091-.0042-.017-.0107-.023-.0187-.007-.0095-.0133-.0196-.0187-.0302l-.0086-.0201c-.0057-.012-.0124-.0235-.0201-.0344-.0079-.0141-.0181-.0267-.0302-.0374-.0136-.0134-.0285-.0254-.0445-.0359l-.0374-.0172c-.0104-.0017-.0211-.0017-.0316 0-.0044-.0001-.0089.0008-.0129.0028s-.0075.005-.01.0087c-.0067.0102-.0097.0223-.0087.0344-.0002.0155.0032.0307.0101.0446.0084.0178.0196.0343.033.0488.0187.0215.0388.0417.0604.0603l.0933.0848c.0356.0309.0687.0645.0991.1005.0266.0338.0502.0698.0704.1078.0177.0377.0317.0772.0417.1177.0094.0473.0137.0955.0129.1437.0021.0442-.0058.0884-.023.1292-.0132.0304-.0366.0553-.0661.0704-.0316.0138-.0668.0173-.1005.0101-.0447-.0086-.0875-.0251-.1264-.0489-.0468-.0277-.0894-.062-.1264-.1019-.0743-.0776-.1303-.1709-.1638-.273-.0143-.0426-.0225-.0871-.0244-.1321-.0005-.0078.0021-.0156.0072-.0215.002-.0017.0046-.0026.0072-.0026s.0051.0009.0072.0026l.1336.0775c.0088.0047.0166.011.0229.0187.0064.0079.0118.0166.0158.0258l.013.0273c.0063.0143.0135.0283.0215.0417.0102.0162.0217.0316.0345.046.0149.0165.0324.0305.0517.0416.0274.0174.0583.0287.0905.0331.0244 0 .0373-.013.0373-.0431 0-.0169-.005-.0334-.0143-.0474-.0108-.0188-.0239-.0361-.0388-.0517-.0187-.0202-.0417-.0417-.069-.0661l-.0976-.0876c-.0647-.0568-.1171-.1262-.1537-.204-.0376-.0839-.0558-.1753-.0532-.2672-.0007-.0401.0061-.0801.0201-.1178.0114-.0304.0314-.0568.0575-.0761.0273-.0173.0597-.0249.0919-.0215.0421.0059.0823.0211.1178.0445z"/><path d="m24.834 49.3749c.0437.0239.0834.0544.1178.0905.0348.0361.0647.0767.089.1206.0246.0455.0439.0937.0575.1437.0129.0565.0192.1143.0187.1723.0016.051-.0047.1019-.0187.1509-.0098.0327-.03.0615-.0575.0818-.0265.0167-.0581.0233-.089.0187-.0417-.0075-.0816-.0226-.1178-.0445l-.1307-.0762v.3218c.0004.0044-.0001.0089-.0016.0132-.0015.0042-.0039.008-.007.0112-.0012.0013-.0027.0023-.0043.003-.0016.0006-.0033.001-.0051.001-.0017 0-.0034-.0004-.0051-.001-.0016-.0007-.003-.0017-.0042-.003l-.1336-.0776c-.0091-.0051-.0162-.0132-.0201-.0229-.0063-.013-.0088-.0274-.0072-.0417v-1.0055c-.0004-.0046.0002-.0093.0017-.0138.0014-.0044.0038-.0085.0069-.012.003-.0021.0065-.0033.0101-.0033s.0071.0012.01.0033zm-.1307.4165.1264.0733c.0099.0074.0215.0123.0338.0143.0122.002.0248.001.0366-.0028.0186-.0086.0287-.0345.0287-.079.001-.0393-.009-.0781-.0287-.1121-.017-.0287-.0413-.0525-.0704-.0689l-.1264-.0733z"/><path d="m25.2529 50.7107c-.0087-.0056-.0157-.0136-.0201-.023-.0044-.011-.0069-.0226-.0072-.0345v-1.0169c-.0004-.0092.0021-.0182.0072-.0259.0029-.0021.0065-.0032.0101-.0032s.0071.0011.01.0032l.1336.0776c.0088.0061.0158.0146.0201.0244.002.0114.002.0231 0 .0345v1.0169c.0028.0079.0028.0165 0 .0244-.0028.0024-.0064.0037-.01.0037-.0037 0-.0073-.0013-.0101-.0037z"/><path d="m26.0948 50.0932c.0087.0059.0153.0145.0187.0244.0056.0107.0085.0225.0086.0345v.1666c.0005.0045 0 .009-.0015.0132s-.0039.0081-.0071.0113c-.0012.0012-.0027.0022-.0043.0029s-.0033.001-.005.001c-.0018 0-.0035-.0003-.0051-.001s-.0031-.0017-.0043-.0029l-.1795-.1035v.8073c.0004.0047-.0002.0094-.0017.0138-.0014.0044-.0038.0085-.0069.012-.003.0021-.0065.0033-.0101.0033s-.0071-.0012-.01-.0033l-.1336-.0775c-.0084-.0063-.0148-.0148-.0187-.0244-.0056-.0107-.0085-.0225-.0086-.0345v-.8073l-.1796-.1034c-.0088-.0061-.0157-.0146-.0201-.0244-.0051-.0108-.0075-.0226-.0072-.0345v-.1609c-.0006-.0045-.0002-.0092.001-.0136s.0034-.0086.0062-.0122c.003-.0021.0065-.0032.0101-.0032s.0071.0011.01.0032z"/><path d="m26.5256 50.3474c.0139.0078.025.0199.0316.0345.0063.0138.0111.0282.0143.0431l.2227 1.1204c.0009.0085.0009.0172 0 .0258.0003.0037-.0002.0074-.0014.0108-.0013.0035-.0032.0067-.0058.0093-.0021.002-.005.0032-.0079.0032s-.0058-.0012-.0079-.0032l-.1278-.0747c-.0134-.0061-.0241-.0168-.0302-.0301-.0049-.01-.0083-.0207-.0101-.0316l-.0287-.1437-.2715-.158-.0287.1149c-.0015.0074-.0055.0141-.0115.0187 0 0-.0158 0-.0287 0l-.1293-.0747c-.007-.0045-.0125-.011-.0158-.0187-.002-.0094-.002-.0192 0-.0287 0 0 0-.0115 0-.0215l.2241-.8619c.0018-.0099.0068-.019.0144-.0258.0071-.0086.0172-.0086.0316 0zm-.1652.5918.1652.0948-.0833-.4309z"/><path d="m27.3961 51.6977c.0091.0051.0162.0132.0201.0229.0055.0107.0085.0225.0086.0345v.1666c.0005.0047 0 .0094-.0015.0139s-.0039.0085-.0071.012c0 0-.0115 0-.0201 0l-.4726-.2729c-.0088-.0062-.0158-.0146-.0201-.0244-.0027-.0114-.0027-.0232 0-.0345v-1.017c0-.0115 0-.0201 0-.0244.0028-.0023.0064-.0036.01-.0036.0037 0 .0073.0013.0101.0036l.1336.0776c.0087.0056.0157.0135.0201.023.002.0114.002.023 0 .0344v.8073z"/><path d="m33.3559 18.5991-1.715-.9883-1.8745 1.0816-.7727-.4467 4.4944-2.5941.7728.4467-1.7582 1.0155 1.7136.9897 1.7582-1.0169.7727.4467-4.493 2.5955-.7742-.4467z"/><path d="m32.9308 21.1473c-1.3976 0-2.7952-.3059-3.8595-.9207-1.0644-.6148-1.6519-1.445-1.6519-2.3356 0-.8905.5861-1.7236 1.6519-2.3341 2.1287-1.2295 5.5904-1.2295 7.7191 0 1.0658.6148 1.6518 1.4364 1.6518 2.3341 0 .8978-.586 1.7237-1.6518 2.3356s-2.462.9207-3.8596.9207zm0-6.1463c-1.3301 0-2.6602.2873-3.6742.8762-.9452.5459-1.4666 1.2612-1.4666 2.011s.5214 1.4679 1.4666 2.0109c2.0267 1.1692 5.3218 1.1706 7.3485 0 .9451-.5458 1.4665-1.2611 1.4665-2.0109s-.5214-1.468-1.4665-2.011c-1.0127-.5846-2.3442-.8762-3.6743-.8762z"/></g><path d="m42.1939 13.3018 4.1296 2.3815-2.9044 1.6777-4.1295-2.383z" fill="#000" opacity=".1"/><path d="m42.1997 12.5449 1.5857.9164-2.2206 1.2813-1.5843-.915z" fill="#fafafa"/><path d="m43.7851 13.4612v.915l-2.2206 1.2812v-.915z" fill="#e0e0e0"/><path d="m39.9805 13.8274v.915l1.5843.9149v-.9149z" fill="#f0f0f0"/><path d="m42.7212 13.1595c.2872.1667.2872.4309 0 .6019-.1615.0822-.3402.1251-.5214.1251-.1813 0-.3599-.0429-.5215-.1251-.2872-.1666-.2872-.4309 0-.6019.1618-.0814.3404-.1239.5215-.1239.181 0 .3596.0425.5214.1239z" fill="#e0e0e0"/><path d="m42.4436 13.3306c.1351.0718.1351.1881 0 .2599-.0764.0359-.1597.0545-.2441.0545-.0845 0-.1678-.0186-.2442-.0545-.1351-.0718-.1351-.1881 0-.2599.0767-.0348.1599-.0528.2442-.0528.0842 0 .1674.018.2441.0528z" fill="#fafafa"/><path d="m40.7572 15.6344c.0206 0 .0403-.0081.0549-.0227.0145-.0145.0227-.0343.0227-.0548v-.5042l.2786-.1609c.0178-.0106.0305-.0279.0355-.048.005-.02.0018-.0413-.0089-.059-.0106-.0177-.0279-.0304-.048-.0354-.02-.005-.0413-.0018-.059.0088l-.3174.1839c-.0121.0066-.0221.0164-.0289.0283-.0069.0119-.0103.0255-.0099.0392v.5487c.0002.0103.0024.0205.0066.0299.0041.0095.0101.018.0176.0251.0075.007.0163.0126.026.0162.0096.0036.0199.0053.0302.0049z" fill="#516eb4"/><path d="m40.2963 15.3701c.021 0 .0411-.0083.0559-.0231s.0231-.0349.0231-.0559v-.5041l.2772-.1609c.018-.0103.031-.0273.0364-.0472.0054-.02.0027-.0412-.0076-.0591s-.0273-.031-.0472-.0364c-.02-.0054-.0412-.0026-.0591.0077l-.3175.1838c-.0119.0067-.0218.0166-.0286.0284-.0069.0119-.0104.0254-.0101.0391v.5487c0 .0207.0081.0406.0226.0554s.0342.0232.0549.0236z" fill="#516eb4"/><path d="m44.4189 13.8274 1.5858.915-2.2192 1.2812-1.5858-.915z" fill="#fafafa"/><path d="m46.0044 14.7424v.915l-2.2192 1.2813v-.915z" fill="#e0e0e0"/><path d="m42.1997 15.1086v.915l1.5858.915v-.915z" fill="#f0f0f0"/><path d="m44.9399 14.4409c.2873.1666.2873.4309 0 .6018-.1613.082-.3397.1248-.5206.1248-.181 0-.3594-.0428-.5207-.1248-.2873-.1666-.2873-.4309 0-.6018.1613-.082.3397-.1247.5207-.1247.1809 0 .3593.0427.5206.1247z" fill="#e0e0e0"/><path d="m44.6633 14.6145c.135.0704.135.1868 0 .2586-.0764.0359-.1598.0545-.2442.0545s-.1678-.0186-.2442-.0545c-.1336-.0718-.1336-.1882 0-.2586.0764-.0358.1598-.0544.2442-.0544s.1678.0186.2442.0544z" fill="#fafafa"/><path d="m42.977 16.9128c.0104 0 .0206-.0021.0302-.006.0096-.004.0183-.0098.0257-.0172.0073-.0073.0131-.016.0171-.0256.0039-.0096.006-.0199.006-.0302v-.4956l.2772-.1609c.0089-.005.0167-.0118.0229-.0199s.0108-.0174.0135-.0272c.0027-.0099.0034-.0202.002-.0304-.0013-.0101-.0046-.0199-.0097-.0287-.0051-.0089-.0118-.0167-.0199-.0229-.0081-.0063-.0174-.0109-.0273-.0135-.0098-.0027-.0201-.0034-.0303-.0021-.0101.0013-.0199.0046-.0288.0097l-.3174.1839c-.0119.0067-.0218.0165-.0287.0284-.0068.0119-.0103.0254-.0101.0391v.5487c.0021.0192.0112.0369.0255.0499s.0328.0202.0521.0205z" fill="#516eb4"/><path d="m42.5168 16.6515c.0207-.0004.0405-.0088.055-.0236s.0226-.0347.0226-.0554v-.5042l.2787-.1594c.019-.0105.0331-.0281.0392-.049.006-.0208.0035-.0433-.0069-.0623-.0105-.0191-.0281-.0332-.049-.0392-.0209-.0061-.0433-.0036-.0623.0069l-.3161.1838c-.0119.0069-.0218.0167-.0289.0285-.007.0119-.0109.0253-.0113.039v.5487c-.001.011.0003.022.0038.0325.0036.0104.0092.02.0167.0281.0074.0081.0165.0146.0265.019.0101.0044.021.0067.032.0066z" fill="#516eb4"/><path d="m31.1494 10.9547 3.0222 1.7452v-4.52316l-3.0222-1.73802z" fill="#e6e6e6"/><path d="m31.1494 10.9547 3.0222 1.7452v-4.52316l-3.0222-1.73802z" fill="#000" opacity=".1"/><path d="m38.0444 10.465-3.8725 2.235v-4.52317l3.8725-2.22639z" fill="#f5f5f5"/><path d="m34.5293 8.42387v4.06783l3.1572-1.8199v-4.06926z" fill="#263238"/><path d="m37.5385 6.68872-3.0092 1.73515v3.89113l3.0092-1.7351z" fill="#37474f"/><path d="m36.0317 7.56052v3.88828l.1523-.0876v-3.8883z" fill="#263238"/><path d="m36.3188 9.16821.0316.01868v.54151l-.0316-.01867z" fill="#e0e0e0"/><path d="m36.3506 9.1867.1767-.10198v.54151l-.1767.10199z" fill="#fafafa"/><path d="m36.5273 9.23413-.0776.04453v.08762c.0001.00183.0006.00361.0016.00519.0009.00159.0022.00293.0037.00391.0016.00099.0033.00158.0051.00175.0019.00017.0037-.00011.0054-.0008l.0618-.03591z" fill="#000" opacity=".05"/><path d="m36.5271 9.08483-.033-.01867-.1753.10198.0316.01868z" fill="#ebebeb"/><path d="m36.4179 9.25998.0804.0474.033-.05602-.0804-.0474c-.0056-.00209-.0117-.00209-.0172 0-.0064.00469-.0116.01073-.0154.01768-.0037.00696-.0058.01466-.0062.02254 0 0 .0014.01437.0058.0158z" fill="#e0e0e0"/><path d="m36.4497 9.27865.0302.01723v-.03878l.0301-.01867-.0287-.01724-.0316.01868z" fill="#000" opacity=".1"/><path d="m36.4883 9.2629v.08475l.3232-.18673v-.08475z" fill="#fafafa"/><path d="m36.4882 9.26284-.0287-.01723v.08474l.0287.01724z" fill="#e0e0e0"/><path d="m36.8114 9.0761-.0287-.0158-.3232.1853.0287.01723z" fill="#ebebeb"/><path d="m36.4092 9.49853c-.0004-.01067.0019-.02126.0067-.03081.0047-.00954.0118-.01772.0206-.02378.0173-.01005.0302 0 .0302.01724-.001.0154-.0071.03004-.0173.04166v.05458c0 .0035-.0009.00693-.0027.00995s-.0043.00553-.0073.00728h-.0101v-.05602c-.0129.00288-.0201-.00574-.0201-.0201z" fill="#455a64"/><path d="m38.044 5.95041-3.0221-1.75095-3.8725 2.23932 3.0222 1.73802z" fill="#fafafa"/><path d="m20.8072 55.5803c.27.158.27.4137 0 .5746-.1512.0771-.3186.1174-.4884.1174s-.3371-.0403-.4883-.1174c-.2701-.158-.2701-.4137 0-.5746.1512-.0772.3185-.1174.4883-.1174s.3372.0402.4884.1174z" fill="#516eb4" opacity=".4"/><path d="m28.2808 60.2112c.2686.158.2686.4137 0 .5745-.1513.0779-.3189.1185-.4891.1185-.1701 0-.3378-.0406-.4891-.1185-.27-.1565-.27-.4122 0-.5745.1515-.0772.3191-.1174.4891-.1174s.3376.0402.4891.1174z" fill="#516eb4" opacity=".4"/><path d="m20.898 55.3606h-1.1578l.1193.4984c.0081.0357.0242.0692.0471.0978s.0519.0516.085.0674c.101.0515.2127.0783.3261.0783.1133 0 .225-.0268.326-.0783.0366-.0167.0684-.0426.0922-.075.0239-.0324.0391-.0704.0443-.1103z" fill="#37474f"/><path d="m20.7558 55.7025c.0252-.0136.0488-.03.0703-.0489l.0647-.2657c-.0342.0365-.0733.0679-.1164.0934-.1374.0691-.2887.106-.4425.108s-.306-.031-.4452-.0966l.0288-.1192-.0086-.0129h-.1667l.1193.4984c.0081.0357.0242.0692.0471.0978s.0519.0516.085.0674c.1461.0746.3134.0969.474.0632-.2873.0215-.4855-.1049-.5157-.2212-.0114-.046-.033-.1436-.033-.1436.1324.0599.2765.0891.4217.0857.1453-.0035.2878-.0397.4172-.1058z" fill="#263238"/><path d="m20.9567 55.214c-.0066.0319-.0192.0621-.0373.0891-.0375.0534-.0866.0976-.1437.1293-.1411.0716-.2971.109-.4553.109s-.3142-.0374-.4553-.109c-.0571-.0317-.1062-.0759-.1437-.1293-.0181-.027-.0307-.0572-.0373-.0891-.0064-.064.0081-.1283.0412-.1834s.0831-.0981.1426-.1225c.1411-.0717.2971-.109.4554-.109.1582 0 .3142.0373.4553.109.0587.025.1078.0682.1399.1234.0321.0551.0455.1191.0382.1825z" fill="#455a64"/><path d="m20.9238 55.3032c-.0375.0534-.0866.0976-.1437.1292-.1411.0717-.2971.1091-.4553.1091s-.3143-.0374-.4553-.1091c-.0571-.0316-.1062-.0758-.1437-.1292-.0181-.027-.0307-.0573-.0373-.0891l.0287.1954c.0115.047.0333.0908.0639.1283s.0691.0678.1128.0886c.1337.067.2813.102.4309.102s.2972-.035.4309-.102c.0421-.0222.0789-.0532.1079-.0909.029-.0376.0495-.0811.0602-.1275l.0273-.1881c-.0042.0291-.0134.0573-.0273.0833z" fill="#37474f"/><path d="m20.6984 54.9513c-.1176-.0595-.2475-.0905-.3792-.0905-.1318 0-.2617.031-.3792.0905-.0486.0203-.0895.0553-.1171.1002-.0276.0448-.0404.0972-.0366.1497.0105.0404.0297.0781.0562.1103.0266.0323.0598.0583.0975.0764.1173.0602.2473.0915.3792.0915s.2618-.0313.3792-.0915c.0376-.0181.0709-.0441.0974-.0764.0266-.0322.0458-.0699.0563-.1103.0038-.0525-.009-.1049-.0366-.1497-.0276-.0449-.0685-.0799-.1171-.1002z" fill="#263238"/><path d="m19.8208 55.2846c.0319.0425.0726.0778.1192.1034.1174.0601.2474.0914.3792.0914.1319 0 .2619-.0313.3792-.0914.0467-.0256.0873-.0609.1192-.1034-.0047-.0429-.0203-.0838-.0455-.1188s-.059-.0628-.0981-.0809c-.1089-.056-.2295-.0851-.3519-.0851s-.243.0291-.3519.0851c-.0402.0173-.0752.0448-.1014.0799-.0262.035-.0428.0763-.048.1198z" fill="#fafafa"/><path d="m20.7459 53.4746-.3289.2872.3232-.1652c.0034.1068-.0122.2133-.046.3146-.0875.0574-.1705.1212-.2485.191l.2485-.1091c.0114.1418-.0008.2844-.0359.4223-.0371.0983-.0803.1943-.1292.2873-.0197.0445-.0422.0877-.0676.1292v.0086c-.0589-.0316-.1192-.0603-.1838-.089-.0631-.1485-.1071-.3044-.1307-.464-.0977-.6578.3878-1.0557.7842-1.1979-.0846.116-.1474.2465-.1853.385z" fill="#516eb4"/><path d="m20.4629 53.5132c-.0635.0748-.1087.1633-.1321.2585-.0269.0937-.0432.19-.0489.2873-.0146.1962.0174.3931.0934.5746.0013.0019.002.0041.002.0064s-.0007.0046-.002.0065c-.0018.0015-.0041.0023-.0065.0023-.0023 0-.0046-.0008-.0064-.0023-.0727-.1823-.1022-.379-.0862-.5746.0083-.0973.0266-.1936.0546-.2872.0216-.0998.0669-.1929.1321-.2715z" fill="#fff"/><path d="m19.3237 53.7332c.106.19.1996.3867.2801.5889l.3519.1221h-.2757l.1034.2528.3433.1364h-.2873c.0186.1628.0915.3146.2068.4309.0991.0819.1437.092.1896.0747.046-.0172.0891-.0933.1293-.2068.0434-.1992.0335-.4063-.0287-.6004-.0191-.0662-.0472-.1295-.0833-.1882-.2256-.3094-.5559-.5263-.9294-.6104z" fill="#516eb4"/><path d="m19.3237 53.7332c.106.19.1996.3867.2801.5889l.3519.1221h-.2757l.1034.2528.3433.1364h-.2873c.0186.1628.0915.3146.2068.4309.0991.0819.1437.092.1896.0747.046-.0172.0891-.0933.1293-.2068.0434-.1992.0335-.4063-.0287-.6004-.0191-.0662-.0472-.1295-.0833-.1882-.2256-.3094-.5559-.5263-.9294-.6104z" fill="#000" opacity=".1"/><path d="m19.6816 53.9183c.1752.1116.3254.2584.441.4309.0569.0886.0995.1855.1264.2873.0262.1017.0354.207.0273.3117-.0012-.1034-.0157-.2062-.0431-.3059-.0275-.1009-.0685-.1976-.1221-.2873-.1117-.176-.2583-.3271-.4309-.4439z" fill="#fff"/><path d="m21.5702 53.8565c-.0364-.0027-.0729-.0027-.1092 0-.1425.017-.2823.0512-.4165.102-.049.0186-.0969.0397-.1437.0632-.0244.0115-.0488.023-.0732.0374-.1189.0622-.2267.1437-.3189.2413-.0427.0467-.0798.0983-.1106.1537-.0033.0074-.0071.0146-.0115.0215l-.0244.056c-.075.16-.1077.3366-.0948.5128.0019.0998.0259.1979.0704.2873l.0115.0086c.0359.0216.0919.0086.1967-.0503.1401-.1024.2413-.2492.2873-.4165l-.2873-.0503.3764-.0747.145-.2312-.2872-.0517.3835-.0589c.1213-.1909.2537-.3746.3964-.5502z" fill="#516eb4"/><path d="m21.461 53.8608c-.1425.0169-.2823.0512-.4165.102-.049.0185-.0969.0396-.1437.0632-.0244.0115-.0488.023-.0732.0373-.1189.0623-.2267.1438-.3189.2413-.0427.0468-.0798.0984-.1106.1537-.0033.0075-.0071.0147-.0115.0216l-.0244.056c-.075.16-.1077.3366-.0948.5128.0019.0998.0259.1979.0704.2873l.0115.0086c.007.0043.0148.0073.0229.0086-.036-.3576.0698-.7151.2946-.9956.2249-.2804.5508-.4614.9077-.504-.038-.0006-.0759.0018-.1135.0072z" fill="#516eb4"/><path d="m21.461 53.8608c-.1425.0169-.2823.0512-.4165.102-.049.0185-.0969.0396-.1437.0632-.0244.0115-.0488.023-.0732.0373-.1189.0623-.2267.1438-.3189.2413-.0427.0468-.0798.0984-.1106.1537-.0033.0075-.0071.0147-.0115.0216l-.0244.056c-.075.16-.1077.3366-.0948.5128.0019.0998.0259.1979.0704.2873l.0115.0086c.007.0043.0148.0073.0229.0086-.036-.3576.0698-.7151.2946-.9956.2249-.2804.5508-.4614.9077-.504-.038-.0006-.0759.0018-.1135.0072z" fill="#000" opacity=".2"/><path d="m20.3653 55.3563c-.0094-.1443.0002-.2892.0288-.4309.0261-.1413.0745-.2776.1436-.4036.0756-.1233.1729-.2319.2873-.3203.1121-.0896.2358-.1635.3677-.2198-.125.0664-.2429.1453-.3519.2356-.0551.0441-.1069.0921-.1551.1436-.0499.0494-.0933.1049-.1293.1652-.0687.1241-.1172.2585-.1437.3979-.0311.1389-.0436.2814-.0373.4237z" fill="#fff"/><path d="m28.3697 59.9912h-1.1563l.1192.4984c.0082.0359.0245.0695.0476.0981.0232.0286.0526.0516.086.0671.1008.0512.2123.0779.3253.0779.1131 0 .2246-.0267.3254-.0779.0355-.0165.0664-.0415.0899-.0729.0236-.0313.0391-.0679.0451-.1066z" fill="#37474f"/><path d="m28.2294 60.3331c.0242-.0144.0473-.0308.0689-.0489l.0646-.2657c-.0335.0372-.0728.0687-.1163.0934-.1374.0691-.2887.106-.4425.108s-.306-.031-.4452-.0965l.0287-.1193-.01-.0129h-.1652l.1192.4984c.0082.0359.0245.0695.0477.0981.0231.0286.0525.0516.0859.0671.1457.0743.3125.0966.4726.0632-.2873.0216-.4855-.1048-.5157-.2212-.0115-.0459-.0316-.1436-.0316-.1436.1324.0599.2765.0892.4217.0857.1453-.0035.2878-.0397.4172-.1058z" fill="#263238"/><path d="m28.4301 59.8447c-.0065.0321-.0197.0625-.0388.0891-.0371.0538-.0863.098-.1436.1293-.1409.0714-.2967.1086-.4546.1086-.158 0-.3137-.0372-.4546-.1086-.0576-.0309-.1069-.0753-.1437-.1293-.0191-.0266-.0323-.057-.0388-.0891-.0229-.1091.0388-.2226.1839-.3073.1409-.0715.2966-.1087.4546-.1087s.3137.0372.4546.1087c.0591.0251.1086.0685.1411.1239.0326.0553.0466.1196.0399.1834z" fill="#455a64"/><path d="m28.393 59.9338c-.0371.0537-.0863.098-.1436.1293-.1409.0714-.2967.1086-.4546.1086-.158 0-.3138-.0372-.4547-.1086-.0576-.0309-.1069-.0753-.1436-.1293-.0191-.0266-.0323-.057-.0388-.0891l.0287.1954c.0116.047.0334.0908.0639.1283.0306.0375.0691.0678.1128.0886.1337.0673.2813.1023.4309.1023.1497 0 .2973-.035.4309-.1023.0431-.0209.0812-.0508.1117-.0878.0305-.0369.0527-.08.065-.1263v-.01l.0273-.1882c-.0056.0319-.0178.0622-.0359.0891z" fill="#37474f"/><path d="m28.1702 59.5819c-.1173-.0595-.247-.0904-.3785-.0904s-.2612.0309-.3785.0904c-.0491.0197-.0906.0546-.1185.0995-.0279.045-.0407.0976-.0366.1504.0106.0406.03.0783.0568.1106.0268.0322.0604.0582.0983.0761.1171.0603.2468.0917.3785.0917.1316 0 .2614-.0314.3785-.0917.0376-.0181.0709-.0441.0974-.0764.0266-.0322.0458-.0699.0563-.1103.0044-.0526-.0081-.1053-.0358-.1503-.0276-.0449-.069-.0799-.1179-.0996z" fill="#263238"/><path d="m27.2939 59.9152c.0313.0432.0721.0786.1193.1034.117.0602.2468.0916.3785.0916.1316 0 .2614-.0314.3784-.0916.047-.0252.0877-.0605.1193-.1034-.0046-.0429-.0202-.0839-.0454-.1189s-.0591-.0628-.0983-.0808c-.1091-.0559-.23-.0851-.3526-.0851s-.2435.0292-.3526.0851c-.0398.0176-.0742.0453-.0999.0803-.0258.035-.0418.0762-.0467.1194z" fill="#fafafa"/><path d="m28.2191 58.1054-.3304.2873.3232-.1652c.0034.1066-.0117.2131-.0445.3146-.0881.0572-.1716.121-.2499.191l.2484-.1092c.0114.1418-.0007.2845-.0359.4223-.0365.0984-.0792.1943-.1278.2873-.0201.0446-.0432.0878-.0689.1293v.0086c-.0589-.0316-.1207-.0603-.1839-.089-.0636-.1484-.1075-.3043-.1307-.464-.0977-.6579.3864-1.0557.7828-1.1979-.0833.1163-.1451.2467-.1824.3849z" fill="#516eb4"/><path d="m27.9344 58.1443c-.0627.075-.1075.1635-.1307.2585-.0266.0938-.0434.1901-.0502.2873-.0149.1964.0176.3934.0948.5746v.0129c-.0016.0014-.0037.0022-.0058.0022s-.0041-.0008-.0057-.0022c-.0743-.1819-.1039-.3789-.0862-.5746.0071-.0974.0249-.1937.0531-.2872.0226-.0992.0672-.1921.1307-.2715z" fill="#fff"/><path d="m26.7954 58.364c.1051.1903.1982.387.2787.5889l.3519.1221h-.2744l.102.2528.3433.1365h-.2873c.019.163.0924.3148.2083.4309.0991.0819.1436.0919.1896.0747s.0891-.0934.1278-.2068c.0444-.1991.035-.4063-.0272-.6005-.0191-.0664-.0476-.1298-.0848-.1881-.2245-.3099-.5545-.527-.9279-.6105z" fill="#516eb4"/><path d="m26.7954 58.364c.1051.1903.1982.387.2787.5889l.3519.1221h-.2744l.102.2528.3433.1365h-.2873c.019.163.0924.3148.2083.4309.0991.0819.1436.0919.1896.0747s.0891-.0934.1278-.2068c.0444-.1991.035-.4063-.0272-.6005-.0191-.0664-.0476-.1298-.0848-.1881-.2245-.3099-.5545-.527-.9279-.6105z" fill="#000" opacity=".1"/><path d="m27.1533 58.5492c.1755.1112.3257.258.441.4309.0574.0884.1005.1854.1278.2873.0258.1017.0345.207.0259.3117-.0018-.1035-.0167-.2063-.0446-.306-.027-.1008-.0676-.1974-.1206-.2873-.1122-.1755-.2588-.3265-.4309-.4438z" fill="#fff"/><path d="m29.0421 58.4876c-.0363-.0027-.0728-.0027-.1092 0-.1425.017-.2823.0512-.4165.102-.0503.0187-.0991.0388-.1437.0632-.0244.0115-.0488.023-.0718.0359-.1189.0629-.2271.1443-.3203.2414-.0426.047-.0793.0991-.1092.1551-.0043.0069-.0082.0141-.0114.0215-.0098.0181-.0185.0368-.0259.056-.0743.1602-.107.3366-.0948.5128.0021.1.0267.1981.0718.2873l.0101.0086c.0359.0216.0919.0086.1982-.0502.1404-.1022.2417-.2491.2873-.4166l-.2873-.0503.3763-.0747.1537-.2384-.2873-.0517.3821-.0589c.1215-.1912.2544-.3749.3979-.5501z" fill="#516eb4"/><path d="m28.9329 58.4919c-.1425.017-.2823.0512-.4165.102-.0503.0187-.0991.0388-.1437.0632-.0244.0115-.0488.023-.0718.0359-.1189.0628-.2271.1443-.3203.2413-.0426.0471-.0793.0992-.1092.1551-.0043.0069-.0082.0141-.0114.0216-.0098.0181-.0185.0368-.0259.056-.0743.1602-.107.3366-.0948.5128.0021.0999.0267.1981.0718.2873l.0101.0086c.0078.0037.016.0066.0244.0086-.0111-.3082.0619-.6135.2111-.8834.2487-.3144.5992-.5323.9911-.6162-.0384-.0007-.0768.0017-.1149.0072z" fill="#516eb4"/><path d="m28.9329 58.4919c-.1425.017-.2823.0512-.4165.102-.0503.0187-.0991.0388-.1437.0632-.0244.0115-.0488.023-.0718.0359-.1189.0628-.2271.1443-.3203.2413-.0426.0471-.0793.0992-.1092.1551-.0043.0069-.0082.0141-.0114.0216-.0098.0181-.0185.0368-.0259.056-.0743.1602-.107.3366-.0948.5128.0021.0999.0267.1981.0718.2873l.0101.0086c.0078.0037.016.0066.0244.0086-.0111-.3082.0619-.6135.2111-.8834.2487-.3144.5992-.5323.9911-.6162-.0384-.0007-.0768.0017-.1149.0072z" fill="#000" opacity=".2"/><path d="m27.8384 59.9872c-.01-.1442-.0008-.2891.0273-.4309.0267-.1412.0752-.2774.1436-.4037.0761-.1229.1733-.2313.2873-.3203.1118-.0892.2349-.1631.3662-.2198-.1252.0667-.2436.1457-.3533.2356-.0547.0445-.1066.0925-.1551.1437-.0494.0498-.0928.1052-.1293.1651-.0687.1242-.1172.2585-.1436.3979-.0305.1391-.0431.2815-.0374.4237z" fill="#fff"/></svg>