<svg width="70" height="70" viewBox="0 0 70 70" fill="none" xmlns="http://www.w3.org/2000/svg">
<path d="M10.2514 31.6501C-3.41715 40.0687 -3.41715 53.7186 10.2514 62.1387C23.92 70.5588 46.0819 70.5588 59.7491 62.1387C73.4163 53.7186 73.4177 40.0687 59.7491 31.6501C46.0805 23.2315 23.9186 23.2329 10.2514 31.6501Z" fill="#516EB4"/>
<path opacity="0.6" d="M10.2514 31.6501C-3.41715 40.0687 -3.41715 53.7186 10.2514 62.1387C23.92 70.5588 46.0819 70.5588 59.7491 62.1387C73.4163 53.7186 73.4177 40.0687 59.7491 31.6501C46.0805 23.2315 23.9186 23.2329 10.2514 31.6501Z" fill="white"/>
<path d="M30.1799 58.4241L23.653 54.655L10.4541 62.2607C12.7501 63.6372 15.183 64.7714 17.7136 65.6448L30.1799 58.4241Z" fill="#FAFAFA"/>
<path d="M69.2134 42.3367L25.4038 67.6299C37.218 69.6968 50.45 67.8683 59.7491 62.1386C68.4765 56.7637 71.628 49.2543 69.2134 42.3367Z" fill="#F0F0F0"/>
<path d="M11.623 52.4921V59.6137L11.715 59.5605V52.4375L11.623 52.4921Z" fill="#263238"/>
<path d="M11.498 52.4189V59.542L11.623 59.6138V52.4922L11.498 52.4189Z" fill="#37474F"/>
<path d="M11.498 52.4189L11.623 52.4921L11.7149 52.4375L11.59 52.3657L11.498 52.4189Z" fill="#455A64"/>
<path d="M12.0986 53.0494L10.9638 52.3915C10.9222 52.3671 10.8877 52.3915 10.8877 52.4346V54.4025C10.8894 54.4289 10.8971 54.4545 10.9103 54.4774C10.9236 54.5003 10.9418 54.5199 10.9638 54.5346L12.0986 55.1896C12.1402 55.2126 12.1747 55.1896 12.1747 55.1451V53.1801C12.1732 53.1539 12.1655 53.1283 12.1523 53.1056C12.1391 53.0829 12.1207 53.0636 12.0986 53.0494Z" fill="#516EB4"/>
<path opacity="0.2" d="M12.0986 53.0494L10.9638 52.3915C10.9222 52.3671 10.8877 52.3915 10.8877 52.4346V54.4025C10.8894 54.4289 10.8971 54.4545 10.9103 54.4774C10.9236 54.5003 10.9418 54.5199 10.9638 54.5346L12.0986 55.1896C12.1402 55.2126 12.1747 55.1896 12.1747 55.1451V53.1801C12.1732 53.1539 12.1655 53.1283 12.1523 53.1056C12.1391 53.0829 12.1207 53.0636 12.0986 53.0494Z" fill="white"/>
<path d="M10.9881 52.5237L12.0481 53.1356C12.0623 53.1465 12.0716 53.1625 12.074 53.1802V55.0475L11.0125 54.4399C10.9983 54.429 10.989 54.413 10.9867 54.3953V52.528M10.9536 52.4692V54.4025C10.955 54.4171 10.9596 54.4313 10.967 54.4439C10.9745 54.4566 10.9846 54.4675 10.9967 54.4758L12.107 55.1178V53.1802C12.1059 53.1656 12.1016 53.1515 12.0944 53.1389C12.0872 53.1262 12.0773 53.1153 12.0654 53.1069L10.955 52.4648L10.9536 52.4692Z" fill="#FAFAFA"/>
<path d="M11.8743 53.2894C11.8856 53.2964 11.8942 53.307 11.8987 53.3195C11.9054 53.3329 11.9089 53.3477 11.9088 53.3626V54.6554C11.9094 54.661 11.9088 54.6668 11.907 54.6722C11.9053 54.6776 11.9025 54.6827 11.8987 54.687C11.8953 54.6899 11.891 54.6915 11.8865 54.6915C11.882 54.6915 11.8777 54.6899 11.8743 54.687L11.7048 54.5893C11.6942 54.5815 11.6858 54.5711 11.6804 54.5591C11.6735 54.5453 11.6701 54.53 11.6703 54.5146V54.0277L11.3831 53.861V54.3494C11.3837 54.3551 11.3832 54.3608 11.3814 54.3663C11.3797 54.3717 11.3768 54.3768 11.373 54.381C11.3714 54.3826 11.3695 54.3839 11.3674 54.3848C11.3653 54.3856 11.3631 54.3861 11.3608 54.3861C11.3585 54.3861 11.3563 54.3856 11.3542 54.3848C11.3521 54.3839 11.3502 54.3826 11.3486 54.381L11.1791 54.2833C11.1691 54.2778 11.161 54.2693 11.1561 54.2589C11.1488 54.2452 11.1449 54.2299 11.1446 54.2144V52.9216C11.1442 52.9159 11.1451 52.9101 11.147 52.9046C11.149 52.8992 11.1521 52.8942 11.1561 52.89C11.1595 52.8871 11.1638 52.8855 11.1683 52.8855C11.1728 52.8855 11.1771 52.8871 11.1805 52.89L11.35 52.9877C11.3606 52.9955 11.369 53.0059 11.3744 53.0179C11.3813 53.0317 11.3848 53.047 11.3845 53.0624V53.5407L11.6718 53.7059V53.2247C11.6711 53.219 11.6717 53.2133 11.6734 53.2078C11.6751 53.2024 11.678 53.1974 11.6818 53.1931C11.6834 53.1915 11.6853 53.1902 11.6874 53.1894C11.6895 53.1885 11.6918 53.1881 11.694 53.1881C11.6963 53.1881 11.6986 53.1885 11.7006 53.1894C11.7027 53.1902 11.7046 53.1915 11.7062 53.1931L11.8743 53.2894Z" fill="#FAFAFA"/>
<path d="M58.2667 41.2652V48.3854L58.1748 48.3337V41.2092L58.2667 41.2652Z" fill="#263238"/>
<path d="M58.3916 41.1907V48.3137L58.2666 48.3855V41.2654L58.3916 41.1907Z" fill="#37474F"/>
<path d="M58.3917 41.1906L58.2667 41.2653L58.1748 41.2093L58.2998 41.1375L58.3917 41.1906Z" fill="#455A64"/>
<path d="M57.7915 41.8211L58.9262 41.1662C58.9679 41.1417 59.0023 41.1662 59.0023 41.2107V43.167C59.0008 43.1935 58.9932 43.2192 58.98 43.2422C58.9667 43.2651 58.9483 43.2846 58.9262 43.2992L57.7915 43.9542C57.7498 43.9786 57.7153 43.9542 57.7153 43.9096V41.9533C57.7168 41.9268 57.7245 41.9011 57.7377 41.8782C57.7509 41.8552 57.7693 41.8357 57.7915 41.8211Z" fill="#516EB4"/>
<path opacity="0.2" d="M57.7915 41.8211L58.9262 41.1662C58.9679 41.1417 59.0023 41.1662 59.0023 41.2107V43.167C59.0008 43.1935 58.9932 43.2192 58.98 43.2422C58.9667 43.2651 58.9483 43.2846 58.9262 43.2992L57.7915 43.9542C57.7498 43.9786 57.7153 43.9542 57.7153 43.9096V41.9533C57.7168 41.9268 57.7245 41.9011 57.7377 41.8782C57.7509 41.8552 57.7693 41.8357 57.7915 41.8211Z" fill="white"/>
<path d="M58.9021 41.2955V43.1628C58.8993 43.1807 58.8901 43.1971 58.8762 43.2087L57.8162 43.8206V41.9533C57.8178 41.9353 57.826 41.9184 57.8391 41.9059L58.8992 41.294M58.9322 41.2366L57.8219 41.8772C57.8098 41.8858 57.7996 41.8969 57.7922 41.9098C57.7848 41.9227 57.7802 41.9371 57.7788 41.9519V43.8809L58.8891 43.2403C58.9011 43.2316 58.9112 43.2204 58.9186 43.2075C58.926 43.1947 58.9307 43.1804 58.9322 43.1656V41.238V41.2366Z" fill="#FAFAFA"/>
<path d="M58.1807 41.9633C58.1843 41.9606 58.1885 41.9592 58.193 41.9592C58.1974 41.9592 58.2017 41.9606 58.2052 41.9633C58.2089 41.9676 58.2117 41.9726 58.2135 41.978C58.2152 41.9835 58.2158 41.9892 58.2152 41.9949V42.4804L58.5025 42.3152V41.8355C58.5025 41.8201 58.506 41.8048 58.5125 41.7909C58.518 41.779 58.5264 41.7686 58.537 41.7608L58.7065 41.6631C58.7165 41.6631 58.7251 41.6631 58.7309 41.6631C58.735 41.6672 58.7381 41.6722 58.7401 41.6776C58.7421 41.6831 58.7428 41.6889 58.7424 41.6947V42.9874C58.7423 43.003 58.7384 43.0183 58.7309 43.032C58.7264 43.0445 58.7178 43.0551 58.7065 43.0621L58.537 43.1598C58.5335 43.1625 58.5292 43.1639 58.5248 43.1639C58.5203 43.1639 58.5161 43.1625 58.5125 43.1598C58.5087 43.1555 58.5058 43.1505 58.5041 43.1451C58.5024 43.1396 58.5018 43.1339 58.5025 43.1282V42.624L58.2152 42.7892V43.2776C58.2153 43.2925 58.2119 43.3073 58.2052 43.3207C58.1997 43.3326 58.1913 43.343 58.1807 43.3508L58.0113 43.4485C58.0097 43.4501 58.0077 43.4514 58.0056 43.4523C58.0036 43.4531 58.0013 43.4536 57.999 43.4536C57.9968 43.4536 57.9945 43.4531 57.9924 43.4523C57.9903 43.4514 57.9884 43.4501 57.9868 43.4485C57.9831 43.4442 57.9803 43.4392 57.9785 43.4338C57.9768 43.4283 57.9762 43.4226 57.9768 43.4169V42.1242C57.9767 42.1092 57.9801 42.0944 57.9868 42.0811C57.9918 42.0688 58.0003 42.0583 58.0113 42.0509L58.1807 41.9633Z" fill="#FAFAFA"/>
<path d="M65.0866 44.0604C64.987 44.0106 64.877 43.9846 64.7656 43.9846C64.6542 43.9846 64.5443 44.0106 64.4446 44.0604C64.4059 44.0737 64.3723 44.0988 64.3485 44.1322C64.3248 44.1655 64.312 44.2054 64.312 44.2464C64.312 44.2873 64.3248 44.3272 64.3485 44.3606C64.3723 44.3939 64.4059 44.419 64.4446 44.4324C64.5443 44.4822 64.6542 44.5081 64.7656 44.5081C64.877 44.5081 64.987 44.4822 65.0866 44.4324C65.1253 44.419 65.1589 44.3939 65.1827 44.3606C65.2064 44.3272 65.2192 44.2873 65.2192 44.2464C65.2192 44.2054 65.2064 44.1655 65.1827 44.1322C65.1589 44.0988 65.1253 44.0737 65.0866 44.0604Z" fill="#455A64"/>
<path d="M65.2203 44.2456C65.2166 44.2054 65.2023 44.1669 65.1788 44.1341C65.1553 44.1013 65.1235 44.0753 65.0867 44.0589C64.987 44.0091 64.8771 43.9832 64.7657 43.9832C64.6542 43.9832 64.5443 44.0091 64.4446 44.0589C64.4078 44.0753 64.376 44.1013 64.3525 44.1341C64.329 44.1669 64.3147 44.2054 64.311 44.2456V44.3548C64.3148 44.3948 64.3291 44.433 64.3526 44.4656C64.3761 44.4982 64.4079 44.5239 64.4446 44.5401C64.5443 44.5899 64.6542 44.6158 64.7657 44.6158C64.8771 44.6158 64.987 44.5899 65.0867 44.5401C65.1234 44.5239 65.1552 44.4982 65.1787 44.4656C65.2022 44.433 65.2165 44.3948 65.2203 44.3548V44.2456Z" fill="#263238"/>
<path d="M65.0866 44.0604C64.987 44.0106 64.877 43.9846 64.7656 43.9846C64.6542 43.9846 64.5443 44.0106 64.4446 44.0604C64.4059 44.0737 64.3723 44.0988 64.3485 44.1322C64.3248 44.1655 64.312 44.2054 64.312 44.2464C64.312 44.2873 64.3248 44.3272 64.3485 44.3606C64.3723 44.3939 64.4059 44.419 64.4446 44.4324C64.5443 44.4822 64.6542 44.5081 64.7656 44.5081C64.877 44.5081 64.987 44.4822 65.0866 44.4324C65.1253 44.419 65.1589 44.3939 65.1827 44.3606C65.2064 44.3272 65.2192 44.2873 65.2192 44.2464C65.2192 44.2054 65.2064 44.1655 65.1827 44.1322C65.1589 44.0988 65.1253 44.0737 65.0866 44.0604Z" fill="#455A64"/>
<path d="M64.4287 40.6734C64.4316 40.6439 64.4423 40.6157 64.4597 40.5917C64.4771 40.5677 64.5007 40.5488 64.5278 40.5369C64.6014 40.4993 64.6829 40.4797 64.7655 40.4797C64.8482 40.4797 64.9297 40.4993 65.0033 40.5369C65.0304 40.5488 65.0539 40.5677 65.0714 40.5917C65.0888 40.6157 65.0995 40.6439 65.1024 40.6734V44.214C65.0995 44.2435 65.0888 44.2717 65.0714 44.2957C65.0539 44.3197 65.0304 44.3386 65.0033 44.3505C64.9297 44.3881 64.8482 44.4077 64.7655 44.4077C64.6829 44.4077 64.6014 44.3881 64.5278 44.3505C64.5007 44.3386 64.4771 44.3197 64.4597 44.2957C64.4423 44.2717 64.4316 44.2435 64.4287 44.214V40.6734Z" fill="#37474F"/>
<path d="M65.0032 40.5369C64.9296 40.4993 64.8482 40.4797 64.7655 40.4797C64.6829 40.4797 64.6014 40.4993 64.5278 40.5369C64.4985 40.546 64.4729 40.5642 64.4547 40.5889C64.4366 40.6136 64.4268 40.6434 64.4268 40.6741C64.4268 40.7047 64.4366 40.7346 64.4547 40.7593C64.4729 40.7839 64.4985 40.8022 64.5278 40.8113C64.6014 40.8488 64.6829 40.8684 64.7655 40.8684C64.8482 40.8684 64.9296 40.8488 65.0032 40.8113C65.0325 40.8022 65.0581 40.7839 65.0763 40.7593C65.0945 40.7346 65.1043 40.7047 65.1043 40.6741C65.1043 40.6434 65.0945 40.6136 65.0763 40.5889C65.0581 40.5642 65.0325 40.546 65.0032 40.5369Z" fill="#455A64"/>
<path d="M64.8208 33.8621V40.6777C64.8205 40.6826 64.8188 40.6873 64.8161 40.6914C64.8133 40.6954 64.8094 40.6986 64.805 40.7007C64.7931 40.7071 64.7797 40.7105 64.7662 40.7105C64.7527 40.7105 64.7393 40.7071 64.7274 40.7007C64.7227 40.6988 64.7186 40.6957 64.7155 40.6916C64.7125 40.6876 64.7106 40.6828 64.7102 40.6777V33.8621C64.7089 33.8541 64.7094 33.8459 64.7115 33.8381C64.7137 33.8302 64.7176 33.823 64.7228 33.8168C64.7281 33.8106 64.7346 33.8057 64.742 33.8023C64.7494 33.7989 64.7574 33.7971 64.7655 33.7971C64.7736 33.7971 64.7816 33.7989 64.789 33.8023C64.7963 33.8057 64.8029 33.8106 64.8081 33.8168C64.8134 33.823 64.8173 33.8302 64.8194 33.8381C64.8216 33.8459 64.8221 33.8541 64.8208 33.8621Z" fill="#263238"/>
<path d="M64.8149 35.5959H64.7158C64.7201 35.3805 64.7805 35.1699 64.8911 34.985C65.0017 34.8001 65.1586 34.6472 65.3464 34.5416C65.5578 34.4196 65.7981 34.3567 66.0421 34.3592C66.2862 34.3617 66.5251 34.4297 66.7339 34.5559L66.6837 34.6435C66.4896 34.5248 66.267 34.4606 66.0395 34.4579C65.8119 34.4551 65.5879 34.5138 65.3909 34.6277C65.2193 34.7254 65.076 34.866 64.9751 35.0357C64.8741 35.2054 64.8189 35.3984 64.8149 35.5959Z" fill="#263238"/>
<path d="M64.8149 35.5959H64.7158C64.7115 35.3979 64.6556 35.2043 64.5536 35.0345C64.4515 34.8647 64.3069 34.7245 64.1341 34.6278C63.9371 34.5138 63.713 34.4551 63.4855 34.4579C63.258 34.4607 63.0354 34.5248 62.8413 34.6436L62.7925 34.556C63.0011 34.4297 63.2397 34.3617 63.4836 34.3592C63.7274 34.3567 63.9674 34.4197 64.1786 34.5416C64.3674 34.6466 64.5255 34.7991 64.6371 34.984C64.7487 35.169 64.81 35.3799 64.8149 35.5959Z" fill="#263238"/>
<path d="M66.6721 34.9423L66.9206 35.1147C67.025 35.1833 67.1455 35.2235 67.2702 35.2313C67.3949 35.2392 67.5195 35.2143 67.6316 35.1592C67.6683 35.1436 67.7002 35.1185 67.724 35.0864C67.7477 35.0543 67.7624 35.0165 67.7667 34.9768C67.7667 34.9538 67.7667 34.8619 67.7667 34.8332C67.7667 34.7585 67.7092 34.6895 67.5929 34.6306L67.2022 34.4511C66.9838 34.3506 66.6966 34.3319 66.5615 34.4094C66.5398 34.4217 66.5216 34.4394 66.5087 34.4608C66.4959 34.4822 66.4888 34.5066 66.4883 34.5315V34.6752C66.4961 34.7309 66.5168 34.784 66.5488 34.8304C66.5807 34.8768 66.6229 34.9151 66.6721 34.9423Z" fill="#263238"/>
<path d="M66.5587 34.4151C66.4237 34.4926 66.4754 34.6679 66.6722 34.8058L66.9207 34.9781C67.0255 35.0458 67.1459 35.0855 67.2704 35.0933C67.3949 35.1011 67.5193 35.0767 67.6317 35.0226C67.827 34.9092 67.8084 34.7354 67.59 34.6363L67.1993 34.4567C66.981 34.3562 66.6937 34.3375 66.5587 34.4151Z" fill="#37474F"/>
<path d="M66.543 34.5342C66.5438 34.5198 66.5484 34.506 66.5565 34.4941C66.5646 34.4822 66.5758 34.4727 66.5889 34.4667C66.6522 34.4371 66.7217 34.4233 66.7915 34.4265C66.9232 34.4279 67.0532 34.4563 67.1735 34.5098L67.5642 34.6893C67.6533 34.7296 67.7079 34.7841 67.7079 34.833C67.7079 34.8818 67.6734 34.9278 67.603 34.968C67.5181 35.0127 67.4232 35.0349 67.3272 35.0326C67.1955 35.0345 67.0661 34.9975 66.9552 34.9263L66.7082 34.754C66.6662 34.7317 66.6296 34.7005 66.601 34.6625C66.5725 34.6245 66.5527 34.5807 66.543 34.5342Z" fill="#455A64"/>
<path d="M62.7712 34.9423L62.5241 35.1147C62.4185 35.1837 62.2968 35.2241 62.1709 35.2319C62.045 35.2397 61.9193 35.2146 61.8059 35.1592C61.7694 35.1435 61.7378 35.1183 61.7143 35.0862C61.6908 35.0542 61.6763 35.0164 61.6724 34.9768C61.6724 34.9538 61.6724 34.8619 61.6724 34.8332C61.6724 34.7585 61.7298 34.6895 61.8476 34.6306L62.2369 34.4511C62.4566 34.3506 62.7425 34.3319 62.8775 34.4094C62.8995 34.4215 62.918 34.4391 62.9311 34.4605C62.9442 34.4819 62.9515 34.5064 62.9522 34.5315C62.9522 34.5545 62.9522 34.6464 62.9522 34.6752C62.9446 34.7306 62.9244 34.7836 62.893 34.8299C62.8616 34.8763 62.8199 34.9148 62.7712 34.9423Z" fill="#263238"/>
<path d="M62.8846 34.4151C63.0196 34.4926 62.9693 34.6679 62.7711 34.8058L62.5241 34.9781C62.4184 35.0468 62.2967 35.0871 62.1708 35.0949C62.045 35.1027 61.9193 35.0778 61.8059 35.0226C61.6105 34.9092 61.6292 34.7354 61.849 34.6363L62.2382 34.4567C62.4637 34.3562 62.7496 34.3375 62.8846 34.4151Z" fill="#37474F"/>
<path d="M62.9003 34.5343C62.8998 34.52 62.8953 34.5062 62.8875 34.4943C62.8796 34.4823 62.8686 34.4728 62.8557 34.4668C62.792 34.4369 62.722 34.4231 62.6518 34.4265C62.5201 34.4282 62.3901 34.4565 62.2697 34.5099L61.879 34.6894C61.7899 34.7296 61.7354 34.7842 61.7354 34.833C61.7354 34.8819 61.7698 34.9278 61.8402 34.9681C61.9253 35.0123 62.0201 35.0345 62.116 35.0327C62.2478 35.0348 62.3772 34.9978 62.488 34.9264L62.7351 34.754C62.7771 34.7318 62.8136 34.7006 62.8422 34.6626C62.8707 34.6246 62.8906 34.5808 62.9003 34.5343Z" fill="#455A64"/>
<path d="M54.4043 50.8875L33.9014 62.7247V27.5765L54.4043 15.7393V50.8875Z" fill="#F5F5F5"/>
<path d="M33.9014 62.7249L28.3096 59.4959V24.3477L33.9014 27.5766V62.7249Z" fill="#E6E6E6"/>
<path d="M28.31 57.3442L23.6504 54.6538V19.5056L30.1744 23.2718L28.31 24.3477V57.3442Z" fill="#516EB4"/>
<path opacity="0.2" d="M28.31 57.3442L23.6504 54.6538V19.5056L30.1744 23.2718L28.31 24.3477V57.3442Z" fill="black"/>
<path d="M23.6504 54.6538V50.563L28.31 53.2533V57.3441L23.6504 54.6538Z" fill="#516EB4"/>
<path d="M26.0532 51.9519V56.0413L26.3936 56.2381V52.1501L26.0532 51.9519Z" fill="black"/>
<path d="M23.6501 19.5056L21.7856 20.58V55.7297L23.6501 54.6538V19.5056Z" fill="#E0E0E0"/>
<g style="mix-blend-mode:multiply" opacity="0.1">
<path d="M23.6501 19.5056L21.7856 20.58V55.7297L23.6501 54.6538V19.5056Z" fill="black"/>
</g>
<g style="mix-blend-mode:multiply" opacity="0.3">
<path d="M21.7856 50.5657L23.6501 52.6269L28.3097 55.3244V54.3304L21.7856 50.5657Z" fill="black"/>
</g>
<path d="M23.6501 48.6267L28.3097 51.3012V53.2533L21.7856 49.4871L23.6501 48.6267Z" fill="#FAFAFA"/>
<path d="M21.7856 49.4871V50.5658L28.3097 54.3305V53.2532L21.7856 49.4871Z" fill="#E6E6E6"/>
<path d="M16.1953 17.3539L36.6838 5.50806L42.1665 8.67671L40.3064 9.75112L46.9482 13.5863L48.8126 12.5104L54.4045 15.7394L33.9016 27.5766L28.3097 24.3476L30.1742 23.2718L23.6501 19.5056L21.7857 20.5814L16.1953 17.3539Z" fill="#FAFAFA"/>
<path d="M36.6841 6.59961L40.4273 8.74412L38.5557 9.82428L46.9485 14.6634L48.8129 13.5876L52.5403 15.7393L33.9019 26.4489L30.1745 24.3475L32.0374 23.2717L23.4895 18.523L21.786 19.5055L18.0586 17.3538L36.6841 6.59961Z" fill="#EBEBEB"/>
<path d="M21.7857 55.7295L16.1938 52.502V17.3538L21.7857 20.5813V55.7295Z" fill="#E6E6E6"/>
<path d="M36.6841 6.59961V7.65966L18.9908 17.891L18.0586 17.3538L36.6841 6.59961Z" fill="#E0E0E0"/>
<path d="M48.8127 13.5876V14.6635L46.9482 15.7393V14.6635L48.8127 13.5876Z" fill="#F5F5F5"/>
<path d="M32.0373 23.2717V24.3476L31.1166 24.8805L30.1743 24.3476L32.0373 23.2717Z" fill="#F5F5F5"/>
<path d="M40.4268 8.74412L36.6836 6.59961V7.65966L39.4788 9.29139L40.4268 8.74412Z" fill="#E0E0E0"/>
<path d="M38.5557 9.82422V10.8929L46.9484 15.7392V14.6634L38.5557 9.82422Z" fill="#E0E0E0"/>
<path d="M52.5404 15.7393L48.813 13.5876V14.6635L51.6082 16.2765L52.5404 15.7393Z" fill="#E0E0E0"/>
<g style="mix-blend-mode:multiply" opacity="0.1">
<path d="M36.684 6.59961L36.0649 8.01732L38.8759 9.63899L40.4272 8.74412L36.684 6.59961Z" fill="black"/>
</g>
<g style="mix-blend-mode:multiply" opacity="0.1">
<path d="M38.5556 9.82422L37.9365 11.2419L46.4054 16.0753L46.9484 15.7392V14.6634L38.5556 9.82422Z" fill="black"/>
</g>
<g style="mix-blend-mode:multiply" opacity="0.1">
<path d="M48.7968 13.5876L48.1777 15.0054L50.9887 16.6256L52.54 15.7393L48.7968 13.5876Z" fill="black"/>
</g>
<path d="M25.1455 46.4419L25.8637 46.8571V22.9212L25.1455 22.5061V46.4419Z" fill="#516EB4"/>
<path d="M25.3438 46.3372L25.8637 46.6359V22.9213L25.3438 22.6211V46.3372Z" fill="#516EB4"/>
<path opacity="0.8" d="M25.3438 46.3372L25.8637 46.6359V22.9213L25.3438 22.6211V46.3372Z" fill="white"/>
<path opacity="0.4" d="M25.1455 46.4419L25.3437 46.3371V22.621L25.1455 22.5061V46.4419Z" fill="black"/>
<path d="M26.5815 47.2693L27.3012 47.6844V23.7486L26.5815 23.3335V47.2693Z" fill="#516EB4"/>
<path d="M26.7812 47.1645L27.3012 47.4633V23.7487L26.7812 23.4485V47.1645Z" fill="#516EB4"/>
<path opacity="0.8" d="M26.7812 47.1645L27.3012 47.4633V23.7487L26.7812 23.4485V47.1645Z" fill="white"/>
<path opacity="0.4" d="M26.5815 47.2693L26.7812 47.1645V23.4484L26.5815 23.3335V47.2693Z" fill="black"/>
<g style="mix-blend-mode:multiply" opacity="0.15">
<path d="M28.31 51.3012L25.4258 49.645L23.6504 50.5629L28.31 53.2532V51.3012Z" fill="black"/>
</g>
<g style="mix-blend-mode:multiply" opacity="0.15">
<path d="M28.31 24.3477L25.4258 49.6452L28.31 51.3013V24.3477Z" fill="black"/>
</g>
<path d="M15.2632 46.7968L16.1954 47.3354V46.2653L15.2632 45.7209V46.7968Z" fill="#516EB4"/>
<path d="M15.2632 45.7208L16.1954 45.1836V46.2652L15.2632 45.7208Z" fill="#516EB4"/>
<path opacity="0.6" d="M15.2632 45.7208L16.1954 45.1836V46.2652L15.2632 45.7208Z" fill="white"/>
<path d="M52.5404 19.5342V22.7617L48.813 24.9149V21.6859L52.5404 19.5342Z" fill="#37474F"/>
<path d="M52.5405 19.5342L52.0938 19.7913V22.4658L52.5405 22.7617V19.5342Z" fill="#455A64"/>
<path d="M48.813 21.6872V24.6591L52.335 22.6266V19.6533L48.813 21.6872Z" fill="#516EB4"/>
<path opacity="0.8" d="M48.813 21.6872V24.6591L52.335 22.6266V19.6533L48.813 21.6872Z" fill="white"/>
<path d="M50.5566 23.9079V20.679L50.3354 20.8082V23.7801L50.5566 23.9079Z" fill="#37474F"/>
<path d="M50.5566 23.9079V20.6789L50.7778 20.5525V23.78L50.5566 23.9079Z" fill="#455A64"/>
<path d="M52.5404 22.7617L52.9067 22.9757L49.1778 25.1274L48.813 24.9149L52.5404 22.7617Z" fill="#516EB4"/>
<path opacity="0.6" d="M52.5404 22.7617L52.9067 22.9757L49.1778 25.1274L48.813 24.9149L52.5404 22.7617Z" fill="white"/>
<path d="M49.1778 25.6016L48.813 25.3876V24.915L49.1778 25.1276V25.6016Z" fill="#516EB4"/>
<path d="M49.1777 25.6015L52.9066 23.4484V22.9758L49.1777 25.1275V25.6015Z" fill="#516EB4"/>
<path opacity="0.4" d="M49.1777 25.6015L52.9066 23.4484V22.9758L49.1777 25.1275V25.6015Z" fill="white"/>
<path d="M46.0101 23.3003V26.5293L42.2812 28.681V25.452L46.0101 23.3003Z" fill="#37474F"/>
<path d="M46.0102 23.3003L45.5635 23.5588V26.2319L46.0102 26.5293V23.3003Z" fill="#455A64"/>
<path d="M42.2812 25.4536V28.4255L45.8033 26.393V23.4197L42.2812 25.4536Z" fill="#516EB4"/>
<path opacity="0.8" d="M42.2812 25.4536V28.4255L45.8033 26.393V23.4197L42.2812 25.4536Z" fill="white"/>
<path d="M44.0249 27.674V24.4451L43.8037 24.5743V27.5462L44.0249 27.674Z" fill="#37474F"/>
<path d="M44.0249 27.6742V24.4452L44.2461 24.3188V27.5464L44.0249 27.6742Z" fill="#455A64"/>
<path d="M46.0101 26.5295L46.3749 26.7421L42.6475 28.8938L42.2812 28.6812L46.0101 26.5295Z" fill="#516EB4"/>
<path opacity="0.6" d="M46.0101 26.5295L46.3749 26.7421L42.6475 28.8938L42.2812 28.6812L46.0101 26.5295Z" fill="white"/>
<path d="M42.6475 29.3677L42.2812 29.1552V28.6812L42.6475 28.8937V29.3677Z" fill="#516EB4"/>
<path d="M42.6479 29.3676L46.3754 27.2145V26.7419L42.6479 28.8936V29.3676Z" fill="#516EB4"/>
<path opacity="0.4" d="M42.6479 29.3676L46.3754 27.2145V26.7419L42.6479 28.8936V29.3676Z" fill="white"/>
<path d="M39.4789 27.0667V30.2956L35.7515 32.4473V29.2198L39.4789 27.0667Z" fill="#37474F"/>
<path d="M39.4789 27.0667L39.0322 27.3252V29.9983L39.4789 30.2956V27.0667Z" fill="#455A64"/>
<path d="M35.7515 29.2197V32.1916L39.2735 30.1591V27.1858L35.7515 29.2197Z" fill="#516EB4"/>
<path opacity="0.8" d="M35.7515 29.2197V32.1916L39.2735 30.1591V27.1858L35.7515 29.2197Z" fill="white"/>
<path d="M37.4951 31.4404V28.2129L37.2739 28.3407V31.3126L37.4951 31.4404Z" fill="#37474F"/>
<path d="M37.4951 31.4403V28.2128L37.7163 28.085V31.3125L37.4951 31.4403Z" fill="#455A64"/>
<path d="M39.4789 30.2957L39.8451 30.5082L36.1163 32.6599L35.7515 32.4474L39.4789 30.2957Z" fill="#516EB4"/>
<path opacity="0.6" d="M39.4789 30.2957L39.8451 30.5082L36.1163 32.6599L35.7515 32.4474L39.4789 30.2957Z" fill="white"/>
<path d="M36.1163 33.1339L35.7515 32.9213V32.4473L36.1163 32.6599V33.1339Z" fill="#516EB4"/>
<path d="M36.1167 33.1338L39.8455 30.9821V30.5081L36.1167 32.6598V33.1338Z" fill="#516EB4"/>
<path opacity="0.4" d="M36.1167 33.1338L39.8455 30.9821V30.5081L36.1167 32.6598V33.1338Z" fill="white"/>
<path d="M52.5404 25.9907V29.2197L48.813 31.3714V28.1424L52.5404 25.9907Z" fill="#37474F"/>
<path d="M52.5405 25.9907L52.0938 26.2493V28.9224L52.5405 29.2197V25.9907Z" fill="#455A64"/>
<path d="M48.813 28.1438V31.1156L52.335 29.0832V26.1099L48.813 28.1438Z" fill="#516EB4"/>
<path opacity="0.8" d="M48.813 28.1438V31.1156L52.335 29.0832V26.1099L48.813 28.1438Z" fill="white"/>
<path d="M50.5566 30.3645V27.137L50.3354 27.2648V30.2367L50.5566 30.3645Z" fill="#37474F"/>
<path d="M50.5566 30.3644V27.1369L50.7778 27.009V30.2366L50.5566 30.3644Z" fill="#455A64"/>
<path d="M52.5404 29.2197L52.9067 29.4323L49.1778 31.584L48.813 31.3714L52.5404 29.2197Z" fill="#516EB4"/>
<path opacity="0.6" d="M52.5404 29.2197L52.9067 29.4323L49.1778 31.584L48.813 31.3714L52.5404 29.2197Z" fill="white"/>
<path d="M49.1778 32.0579L48.813 31.8453V31.3713L49.1778 31.5839V32.0579Z" fill="#516EB4"/>
<path d="M49.1777 32.0581L52.9066 29.9049V29.4324L49.1777 31.5841V32.0581Z" fill="#516EB4"/>
<path opacity="0.4" d="M49.1777 32.0581L52.9066 29.9049V29.4324L49.1777 31.5841V32.0581Z" fill="white"/>
<path d="M46.0101 29.7571V32.9861L42.2812 35.1378V31.9102L46.0101 29.7571Z" fill="#37474F"/>
<path d="M46.0102 29.7571L45.5635 30.0156V32.6887L46.0102 32.9861V29.7571Z" fill="#455A64"/>
<path d="M42.2812 31.9101V34.882L45.8033 32.8495V29.8762L42.2812 31.9101Z" fill="#516EB4"/>
<path opacity="0.8" d="M42.2812 31.9101V34.882L45.8033 32.8495V29.8762L42.2812 31.9101Z" fill="white"/>
<path d="M44.0249 34.1309V30.9033L43.8037 31.0312V34.003L44.0249 34.1309Z" fill="#37474F"/>
<path d="M44.0249 34.1308V30.9032L44.2461 30.7754V34.0029L44.0249 34.1308Z" fill="#455A64"/>
<path d="M46.0101 32.9858L46.3749 33.1984L42.6475 35.3501L42.2812 35.1375L46.0101 32.9858Z" fill="#516EB4"/>
<path opacity="0.6" d="M46.0101 32.9858L46.3749 33.1984L42.6475 35.3501L42.2812 35.1375L46.0101 32.9858Z" fill="white"/>
<path d="M42.6475 35.8243L42.2812 35.6117V35.1377L42.6475 35.3503V35.8243Z" fill="#516EB4"/>
<path d="M42.6479 35.8242L46.3754 33.6725V33.1985L42.6479 35.3502V35.8242Z" fill="#516EB4"/>
<path opacity="0.4" d="M42.6479 35.8242L46.3754 33.6725V33.1985L42.6479 35.3502V35.8242Z" fill="white"/>
<path d="M39.4789 33.5232V36.7522L35.7515 38.9039V35.6763L39.4789 33.5232Z" fill="#37474F"/>
<path d="M39.4789 33.5232L39.0322 33.7817V36.4548L39.4789 36.7522V33.5232Z" fill="#455A64"/>
<path d="M35.7515 35.6762V38.6481L39.2735 36.6156V33.6423L35.7515 35.6762Z" fill="#516EB4"/>
<path opacity="0.8" d="M35.7515 35.6762V38.6481L39.2735 36.6156V33.6423L35.7515 35.6762Z" fill="white"/>
<path d="M37.4951 37.897V34.6694L37.2739 34.7973V37.7691L37.4951 37.897Z" fill="#37474F"/>
<path d="M37.4951 37.8969V34.6693L37.7163 34.5415V37.7691L37.4951 37.8969Z" fill="#455A64"/>
<path d="M39.4789 36.7522L39.8451 36.9648L36.1163 39.1165L35.7515 38.9039L39.4789 36.7522Z" fill="#516EB4"/>
<path opacity="0.6" d="M39.4789 36.7522L39.8451 36.9648L36.1163 39.1165L35.7515 38.9039L39.4789 36.7522Z" fill="white"/>
<path d="M36.1163 39.5904L35.7515 39.3778V38.9038L36.1163 39.1164V39.5904Z" fill="#516EB4"/>
<path d="M36.1167 39.5905L39.8455 37.4388V36.9648L36.1167 39.1165V39.5905Z" fill="#516EB4"/>
<path opacity="0.4" d="M36.1167 39.5905L39.8455 37.4388V36.9648L36.1167 39.1165V39.5905Z" fill="white"/>
<path d="M52.5404 32.4473V35.6762L48.813 37.8279V34.6004L52.5404 32.4473Z" fill="#37474F"/>
<path d="M52.5405 32.4473L52.0938 32.7058V35.3789L52.5405 35.6762V32.4473Z" fill="#455A64"/>
<path d="M48.813 34.6003V37.5722L52.335 35.5397V32.5664L48.813 34.6003Z" fill="#516EB4"/>
<path opacity="0.8" d="M48.813 34.6003V37.5722L52.335 35.5397V32.5664L48.813 34.6003Z" fill="white"/>
<path d="M50.5566 36.8211V33.5935L50.3354 33.7213V36.6932L50.5566 36.8211Z" fill="#37474F"/>
<path d="M50.5566 36.821V33.5934L50.7778 33.4656V36.6931L50.5566 36.821Z" fill="#455A64"/>
<path d="M52.5404 35.6763L52.9067 35.8889L49.1778 38.0405L48.813 37.828L52.5404 35.6763Z" fill="#516EB4"/>
<path opacity="0.6" d="M52.5404 35.6763L52.9067 35.8889L49.1778 38.0405L48.813 37.828L52.5404 35.6763Z" fill="white"/>
<path d="M49.1778 38.5147L48.813 38.3021V37.8281L49.1778 38.0407V38.5147Z" fill="#516EB4"/>
<path d="M49.1777 38.5146L52.9066 36.3629V35.8889L49.1777 38.0406V38.5146Z" fill="#516EB4"/>
<path opacity="0.4" d="M49.1777 38.5146L52.9066 36.3629V35.8889L49.1777 38.0406V38.5146Z" fill="white"/>
<path d="M46.0101 36.2134V39.4424L42.2812 41.5941V38.3665L46.0101 36.2134Z" fill="#37474F"/>
<path d="M46.0102 36.2134L45.5635 36.4719V39.145L46.0102 39.4424V36.2134Z" fill="#455A64"/>
<path d="M42.2812 38.3664V41.3383L45.8033 39.3058V36.3325L42.2812 38.3664Z" fill="#516EB4"/>
<path opacity="0.8" d="M42.2812 38.3664V41.3383L45.8033 39.3058V36.3325L42.2812 38.3664Z" fill="white"/>
<path d="M44.0249 40.5872V37.3596L43.8037 37.4875V40.4608L44.0249 40.5872Z" fill="#37474F"/>
<path d="M44.0249 40.5871V37.3595L44.2461 37.2317V40.4607L44.0249 40.5871Z" fill="#455A64"/>
<path d="M46.0101 39.4426L46.3749 39.6552L42.6475 41.8069L42.2812 41.5943L46.0101 39.4426Z" fill="#516EB4"/>
<path opacity="0.6" d="M46.0101 39.4426L46.3749 39.6552L42.6475 41.8069L42.2812 41.5943L46.0101 39.4426Z" fill="white"/>
<path d="M42.6475 42.2808L42.2812 42.0682V41.5942L42.6475 41.8068V42.2808Z" fill="#516EB4"/>
<path d="M42.6479 42.2807L46.3754 40.129V39.655L42.6479 41.8067V42.2807Z" fill="#516EB4"/>
<path opacity="0.4" d="M42.6479 42.2807L46.3754 40.129V39.655L42.6479 41.8067V42.2807Z" fill="white"/>
<path d="M39.4789 39.9812V43.2087L35.7515 45.3619V42.1329L39.4789 39.9812Z" fill="#37474F"/>
<path d="M39.4789 39.9812L39.0322 40.2383V42.9114L39.4789 43.2087V39.9812Z" fill="#455A64"/>
<path d="M35.7515 42.133V45.1049L39.2735 43.0724V40.0991L35.7515 42.133Z" fill="#516EB4"/>
<path opacity="0.8" d="M35.7515 42.133V45.1049L39.2735 43.0724V40.0991L35.7515 42.133Z" fill="white"/>
<path d="M37.4951 44.355V41.126L37.2739 41.2538V44.2271L37.4951 44.355Z" fill="#37474F"/>
<path d="M37.4951 44.3551V41.1261L37.7163 40.9983V44.2273L37.4951 44.3551Z" fill="#455A64"/>
<path d="M39.4789 43.2087L39.8451 43.4213L36.1163 45.5745L35.7515 45.3619L39.4789 43.2087Z" fill="#516EB4"/>
<path opacity="0.6" d="M39.4789 43.2087L39.8451 43.4213L36.1163 45.5745L35.7515 45.3619L39.4789 43.2087Z" fill="white"/>
<path d="M36.1163 46.047L35.7515 45.8344V45.3618L36.1163 45.5744V46.047Z" fill="#516EB4"/>
<path d="M36.1167 46.0468L39.8455 43.8952V43.4211L36.1167 45.5743V46.0468Z" fill="#516EB4"/>
<path opacity="0.4" d="M36.1167 46.0468L39.8455 43.8952V43.4211L36.1167 45.5743V46.0468Z" fill="white"/>
<path d="M52.5404 38.9055V42.1331L48.813 44.2848V41.0572L52.5404 38.9055Z" fill="#37474F"/>
<path d="M52.5405 38.9053L52.0938 39.1624V41.8355L52.5405 42.1328V38.9053Z" fill="#455A64"/>
<path d="M48.813 41.0571V44.029L52.335 41.9965V39.0232L48.813 41.0571Z" fill="#516EB4"/>
<path opacity="0.8" d="M48.813 41.0571V44.029L52.335 41.9965V39.0232L48.813 41.0571Z" fill="white"/>
<path d="M50.5566 43.2776V40.05L50.3354 40.1779V43.1512L50.5566 43.2776Z" fill="#37474F"/>
<path d="M50.5566 43.2777V40.0502L50.7778 39.9224V43.1513L50.5566 43.2777Z" fill="#455A64"/>
<path d="M52.5404 42.1328L52.9067 42.3454L49.1778 44.4985L48.813 44.2845L52.5404 42.1328Z" fill="#516EB4"/>
<path opacity="0.6" d="M52.5404 42.1328L52.9067 42.3454L49.1778 44.4985L48.813 44.2845L52.5404 42.1328Z" fill="white"/>
<path d="M49.1778 44.971L48.813 44.7584V44.2844L49.1778 44.4984V44.971Z" fill="#516EB4"/>
<path d="M49.1777 44.9712L52.9066 42.8195V42.3455L49.1777 44.4986V44.9712Z" fill="#516EB4"/>
<path opacity="0.4" d="M49.1777 44.9712L52.9066 42.8195V42.3455L49.1777 44.4986V44.9712Z" fill="white"/>
<path d="M46.0101 42.6714V45.8989L42.2812 48.0521V44.8231L46.0101 42.6714Z" fill="#37474F"/>
<path d="M46.0102 42.6714L45.5635 42.9285V45.603L46.0102 45.8989V42.6714Z" fill="#455A64"/>
<path d="M42.2812 44.823V47.7948L45.8033 45.7638V42.7891L42.2812 44.823Z" fill="#516EB4"/>
<path opacity="0.8" d="M42.2812 44.823V47.7948L45.8033 45.7638V42.7891L42.2812 44.823Z" fill="white"/>
<path d="M44.0249 47.0451V43.8162L43.8037 43.944V46.9173L44.0249 47.0451Z" fill="#37474F"/>
<path d="M44.0249 47.0453V43.8163L44.2461 43.6885V46.9175L44.0249 47.0453Z" fill="#455A64"/>
<path d="M46.0101 45.8989L46.3749 46.1115L42.6475 48.2646L42.2812 48.0521L46.0101 45.8989Z" fill="#516EB4"/>
<path opacity="0.6" d="M46.0101 45.8989L46.3749 46.1115L42.6475 48.2646L42.2812 48.0521L46.0101 45.8989Z" fill="white"/>
<path d="M42.6475 48.7374L42.2812 48.5248V48.0522L42.6475 48.2648V48.7374Z" fill="#516EB4"/>
<path d="M42.6479 48.7373L46.3754 46.5856V46.1116L42.6479 48.2647V48.7373Z" fill="#516EB4"/>
<path opacity="0.4" d="M42.6479 48.7373L46.3754 46.5856V46.1116L42.6479 48.2647V48.7373Z" fill="white"/>
<path d="M39.4789 46.4375V49.665L35.7515 51.8182V48.5892L39.4789 46.4375Z" fill="#37474F"/>
<path d="M39.4789 46.4375L39.0322 46.6946V49.3692L39.4789 49.665V46.4375Z" fill="#455A64"/>
<path d="M35.7515 48.5906V51.5624L39.2735 49.5299V46.5566L35.7515 48.5906Z" fill="#516EB4"/>
<path opacity="0.8" d="M35.7515 48.5906V51.5624L39.2735 49.5299V46.5566L35.7515 48.5906Z" fill="white"/>
<path d="M37.4951 50.8113V47.5823L37.2739 47.7101V50.6834L37.4951 50.8113Z" fill="#37474F"/>
<path d="M37.4951 50.8112V47.5822L37.7163 47.4558V50.6834L37.4951 50.8112Z" fill="#455A64"/>
<path d="M39.4789 49.665L39.8451 49.8776L36.1163 52.0308L35.7515 51.8182L39.4789 49.665Z" fill="#516EB4"/>
<path opacity="0.6" d="M39.4789 49.665L39.8451 49.8776L36.1163 52.0308L35.7515 51.8182L39.4789 49.665Z" fill="white"/>
<path d="M36.1163 52.5049L35.7515 52.2909V51.8184L36.1163 52.0309V52.5049Z" fill="#516EB4"/>
<path d="M36.1167 52.5048L39.8455 50.3517V49.8777L36.1167 52.0308V52.5048Z" fill="#516EB4"/>
<path opacity="0.4" d="M36.1167 52.5048L39.8455 50.3517V49.8777L36.1167 52.0308V52.5048Z" fill="white"/>
<path d="M30.3569 50.1077V51.7667L31.7933 52.5955V50.9365L30.3569 50.1077Z" fill="#455A64"/>
<path d="M30.3569 47.6184V49.2774L31.7933 50.1077V48.4486L30.3569 47.6184Z" fill="#455A64"/>
<path d="M30.3569 43.6526V45.3116L31.7933 46.1418V44.4828L30.3569 43.6526Z" fill="#455A64"/>
<path d="M30.3569 41.1633V42.8238L31.7933 43.6526V41.9936L30.3569 41.1633Z" fill="#455A64"/>
<path d="M30.3569 37.1946V38.8536L31.7933 39.6824V38.0234L30.3569 37.1946Z" fill="#455A64"/>
<path d="M30.3569 34.7053V36.3643L31.7933 37.1946V35.5355L30.3569 34.7053Z" fill="#455A64"/>
<path d="M30.3569 30.7366V32.397L31.7933 33.2258V31.5668L30.3569 30.7366Z" fill="#455A64"/>
<path d="M30.3569 28.2488V29.9078L31.7933 30.7366V29.0776L30.3569 28.2488Z" fill="#455A64"/>
<path d="M30.71 36.1301L31.793 36.7549V35.5354L30.71 34.9092V36.1301Z" fill="#516EB4"/>
<path d="M30.71 38.6179L31.793 39.2442V38.0233L30.71 37.3984V38.6179Z" fill="#516EB4"/>
<path d="M30.71 32.1614L31.793 32.7862V31.5667L30.71 30.9419V32.1614Z" fill="#516EB4"/>
<path d="M30.71 29.6721L31.793 30.2984V29.0775L30.71 28.4526V29.6721Z" fill="#516EB4"/>
<path d="M30.71 45.0774L31.793 45.7022V44.4827L30.71 43.8564V45.0774Z" fill="#516EB4"/>
<path d="M30.71 42.5881L31.793 43.213V41.9935L30.71 41.3687V42.5881Z" fill="#516EB4"/>
<path d="M30.71 51.531L31.793 52.1573V50.9363L30.71 50.3115V51.531Z" fill="#516EB4"/>
<path d="M30.71 49.0432L31.793 49.668V48.4485L30.71 47.8223V49.0432Z" fill="#516EB4"/>
<path d="M30.3569 28.2488L30.7103 28.4527V29.6722L30.3569 29.9078V28.2488Z" fill="#37474F"/>
<path d="M30.3569 30.7366L30.7103 30.942V32.1615L30.3569 32.397V30.7366Z" fill="#37474F"/>
<path d="M30.3569 34.7053L30.7103 34.9093V36.1302L30.3569 36.3643V34.7053Z" fill="#37474F"/>
<path d="M30.3569 37.1946L30.7103 37.3985V38.618L30.3569 38.8536V37.1946Z" fill="#37474F"/>
<path d="M30.3569 41.1633L30.7103 41.3687V42.5882L30.3569 42.8238V41.1633Z" fill="#37474F"/>
<path d="M30.3569 43.6526L30.7103 43.8566V45.0775L30.3569 45.3116V43.6526Z" fill="#37474F"/>
<path d="M30.3569 47.6184L30.7103 47.8224V49.0433L30.3569 49.2774V47.6184Z" fill="#37474F"/>
<path d="M30.3569 50.1077L30.7103 50.3116V51.5311L30.3569 51.7667V50.1077Z" fill="#37474F"/>
<path d="M18.2407 43.1125V44.7716L19.6785 45.6018V43.9428L18.2407 43.1125Z" fill="#455A64"/>
<path d="M18.2407 40.6233V42.2823L19.6785 43.1125V41.4535L18.2407 40.6233Z" fill="#455A64"/>
<path d="M18.2407 36.6572V38.3162L19.6785 39.1465V37.4875L18.2407 36.6572Z" fill="#455A64"/>
<path d="M18.2407 34.1694V35.8285L19.6785 36.6572V34.9982L18.2407 34.1694Z" fill="#455A64"/>
<path d="M18.2407 30.1992V31.8582L19.6785 32.6885V31.0294L18.2407 30.1992Z" fill="#455A64"/>
<path d="M18.2407 27.7102V29.3692L19.6785 30.1995V28.5404L18.2407 27.7102Z" fill="#455A64"/>
<path d="M18.2407 23.7429V25.4019L19.6785 26.2307V24.5717L18.2407 23.7429Z" fill="#455A64"/>
<path d="M18.2407 21.2537V22.9127L19.6785 23.7429V22.0839L18.2407 21.2537Z" fill="#455A64"/>
<path d="M18.5957 29.135L19.6787 29.7598V28.5403L18.5957 27.9141V29.135Z" fill="#516EB4"/>
<path d="M18.5957 31.6242L19.6787 32.2491V31.0296L18.5957 30.4033V31.6242Z" fill="#516EB4"/>
<path d="M18.5957 25.1663L19.6787 25.7911V24.5716L18.5957 23.9468V25.1663Z" fill="#516EB4"/>
<path d="M18.5957 22.677L19.6787 23.3033V22.0838L18.5957 21.4575V22.677Z" fill="#516EB4"/>
<path d="M18.5957 38.0823L19.6787 38.7071V37.4876L18.5957 36.8613V38.0823Z" fill="#516EB4"/>
<path d="M18.5957 35.593L19.6787 36.2178V34.9984L18.5957 34.3735V35.593Z" fill="#516EB4"/>
<path d="M18.5957 44.5359L19.6787 45.1622V43.9427L18.5957 43.3164V44.5359Z" fill="#516EB4"/>
<path d="M18.5957 42.0481L19.6787 42.6729V41.4534L18.5957 40.8271V42.0481Z" fill="#516EB4"/>
<path d="M18.2407 21.2537L18.5955 21.4576V22.6771L18.2407 22.9127V21.2537Z" fill="#37474F"/>
<path d="M18.2407 23.7429L18.5955 23.9469V25.1664L18.2407 25.4019V23.7429Z" fill="#37474F"/>
<path d="M18.2407 27.7102L18.5955 27.9142V29.1351L18.2407 29.3692V27.7102Z" fill="#37474F"/>
<path d="M18.2407 30.1992L18.5955 30.4032V31.6241L18.2407 31.8582V30.1992Z" fill="#37474F"/>
<path d="M18.2407 34.1694L18.5955 34.3734V35.5929L18.2407 35.8285V34.1694Z" fill="#37474F"/>
<path d="M18.2407 36.6572L18.5955 36.8612V38.0821L18.2407 38.3162V36.6572Z" fill="#37474F"/>
<path d="M18.2407 40.6233L18.5955 40.8273V42.0482L18.2407 42.2823V40.6233Z" fill="#37474F"/>
<path d="M18.2407 43.1125L18.5955 43.3165V44.536L18.2407 44.7716V43.1125Z" fill="#37474F"/>
<g style="mix-blend-mode:multiply" opacity="0.15">
<path d="M54.4043 46.7322L34.8293 58.0939L33.9014 57.5582V59.7099L54.4043 48.1097V46.7322Z" fill="black"/>
</g>
<path d="M50.5132 47.9703V52.4116L50.6813 52.3139V47.874L50.5132 47.9703ZM48.475 53.5836L48.6431 53.486V49.0461L48.475 49.1438V53.5836ZM46.4425 54.7557L46.6106 54.6595V50.2182L46.4425 50.3159V54.7557ZM41.6953 57.4992L41.8634 57.403V52.966L41.6939 53.0637L41.6953 57.4992ZM39.6614 58.6727L39.8309 58.5751V54.1352L39.6614 54.2329V58.6727ZM37.6289 59.8448L37.7984 59.7471V55.3073L37.6289 55.405V59.8448Z" fill="#455A64"/>
<path d="M37.6289 57.6011L37.7984 57.5049V56.3701L37.6289 56.4678V57.6011Z" fill="#37474F"/>
<path d="M41.8634 54.0103L41.6953 54.1094V55.3001L41.8634 55.2053V54.0103Z" fill="#37474F"/>
<path d="M39.8311 55.1909L39.6616 55.2886V56.4506L39.8311 56.3558V55.1909Z" fill="#37474F"/>
<path d="M50.6759 48.8953L50.5078 48.9929V50.3144L50.6759 50.2182V48.8953Z" fill="#37474F"/>
<path d="M48.6432 50.0759L48.4751 50.1736V51.4649L48.6432 51.3687V50.0759Z" fill="#37474F"/>
<path d="M46.6109 51.2554L46.4429 51.353V52.6142L46.6109 52.5194V51.2554Z" fill="#37474F"/>
<path d="M54.4043 50.8875V50.1606L33.9014 61.9979V62.7247L54.4043 50.8875Z" fill="#455A64"/>
<path d="M52.5402 46.7966L50.6758 47.8739V52.3138L52.5402 51.2379V46.7966Z" fill="#516EB4"/>
<path d="M50.5075 47.9702L48.6431 49.0475V53.4874L50.5075 52.4115V47.9702Z" fill="#516EB4"/>
<path d="M48.4753 49.1453L46.6108 50.2211V54.661L48.4753 53.5851V49.1453Z" fill="#516EB4"/>
<path d="M46.4411 50.3188L44.5781 51.3947V55.8345L46.4411 54.7587V50.3188Z" fill="#516EB4"/>
<path d="M43.7277 51.886L41.8633 52.9618V57.4017L43.7277 56.3258V51.886Z" fill="#516EB4"/>
<path d="M41.6955 53.0593L39.8311 54.1352V58.5765L41.6955 57.4992V53.0593Z" fill="#516EB4"/>
<path d="M39.6613 54.2329L37.7983 55.3088V59.75L39.6613 58.6742V54.2329Z" fill="#516EB4"/>
<path d="M37.6291 55.4065L35.7646 56.4838V60.9236L37.6291 59.8478V55.4065Z" fill="#516EB4"/>
<path opacity="0.8" d="M52.5401 46.7966L50.6728 47.8739V52.3138L52.5401 51.2379V46.7966ZM48.6461 49.0474V53.4873L50.5134 52.4114V47.9702L48.6461 49.0474ZM46.6136 50.221V54.6608L48.4809 53.585V49.1451L46.6136 50.221ZM44.5811 51.3945V55.8386L46.4484 54.7628V50.3186L44.5811 51.3945ZM41.8635 52.9659V57.4057L43.7308 56.3299V51.8857L41.8635 52.9659ZM39.831 54.1394V58.5807L41.6983 57.5034V53.0592L39.831 54.1394ZM37.7986 55.3129V59.7542L39.6659 58.6769V54.2328L37.7986 55.3129ZM35.7646 56.4879V60.9234L37.6319 59.8476V55.4077L35.7646 56.4879Z" fill="white"/>
<path opacity="0.3" d="M37.9651 55.2126L37.7985 55.5616V56.5742L38.6345 54.8334L37.9651 55.2126ZM39.6615 58.6728V58.2117L39.357 58.8552L39.6615 58.6728ZM39.6615 54.6208L37.7942 58.5134V59.7501L38.0542 59.5993L39.6572 56.2511L39.6615 54.6208ZM39.9186 54.085L39.831 54.2674V55.8977L40.9973 53.4559L39.9186 54.085ZM36.9798 60.2212L37.629 59.8478V58.8667L36.9798 60.2212ZM37.629 55.9121L35.7617 59.8047V60.8173L37.629 56.9247V55.9121ZM42.2944 52.7104L41.8635 53.6096V54.6236L42.9637 52.3254L42.2944 52.7104ZM47.0488 49.9655L46.6107 50.8804V51.8931L47.7181 49.5776L47.0488 49.9655ZM49.0023 48.8365L48.6432 49.5863V51.2166L50.0796 48.2145L49.0023 48.8365ZM44.5782 51.4995V52.5237L44.9431 51.7609L44.5782 51.4995ZM51.3752 47.4676L50.6728 48.9341V49.9497L52.0445 47.0769L51.3752 47.4676ZM48.4722 49.941L46.6049 53.8351V54.661L47.1364 54.3536L48.4694 51.5713L48.4722 49.941ZM48.4722 53.5851V53.5406L48.4378 53.611L48.4722 53.5851ZM50.5133 49.2875L48.646 53.1815V53.4875L49.1129 53.2174L50.5133 50.3001V49.2875ZM50.5133 52.4116V52.2479L50.3999 52.4834L50.5133 52.4116ZM41.694 53.9715L39.8267 57.8656V58.5837L40.022 58.4703L41.6954 54.977L41.694 53.9715ZM52.5401 48.0005L50.6728 51.8931V52.324L51.47 51.8644L52.5372 49.6337L52.5401 48.0005ZM41.6954 57.505V56.9305L41.3105 57.7334L41.6954 57.505ZM41.8635 56.5728V57.4074L42.3892 57.1043L43.7279 54.3091V52.6788L41.8635 56.5728ZM46.4412 51.2424L44.5739 55.1364V55.8388L44.7764 55.7225L46.4412 52.2479V51.2424ZM46.4412 54.7658V54.1913L46.0606 54.977L46.4412 54.7658Z" fill="white"/>
<path d="M33.9014 57.5624L34.8293 58.0982V57.031L33.9014 56.4866V57.5624Z" fill="#516EB4"/>
<path d="M34.8296 58.0939L55.2765 46.2251V45.2168L34.8296 57.0267V58.0939Z" fill="#516EB4"/>
<path opacity="0.4" d="M34.8296 58.0939L55.2765 46.2251V45.2168L34.8296 57.0267V58.0939Z" fill="white"/>
<path d="M33.9014 56.4821L34.8293 57.0265L55.2761 45.2166L54.4043 44.6406L33.9014 56.4821Z" fill="#516EB4"/>
<path opacity="0.6" d="M33.9014 56.4821L34.8293 57.0265L55.2761 45.2166L54.4043 44.6406L33.9014 56.4821Z" fill="white"/>
<g style="mix-blend-mode:multiply" opacity="0.35">
<path opacity="0.8" d="M41.6955 54.1094L39.8311 55.191V56.3559L41.6955 55.3001V54.1094Z" fill="#516EB4"/>
<path opacity="0.8" d="M43.7277 52.9287L41.8633 54.0103V55.2054L43.7277 54.1511V52.9287Z" fill="#516EB4"/>
<path opacity="0.8" d="M35.7646 58.6556L37.6291 57.6013V56.468L35.7646 57.551V58.6556Z" fill="#516EB4"/>
<path opacity="0.8" d="M39.6613 55.2886L37.7983 56.3702V57.5049L39.6613 56.4506V55.2886Z" fill="#516EB4"/>
<path opacity="0.8" d="M46.4411 51.353L44.5781 52.4361V53.6699L46.4411 52.6142V51.353Z" fill="#516EB4"/>
<path opacity="0.8" d="M50.5075 48.9932L48.6431 50.0762V51.3689L50.5075 50.3146V48.9932Z" fill="#516EB4"/>
<path opacity="0.8" d="M52.5402 47.8137L50.6758 48.8953V50.2182L52.5402 49.1639V47.8137Z" fill="#516EB4"/>
<path opacity="0.8" d="M48.4753 50.1738L46.6108 51.2554V52.5194L48.4753 51.4651V50.1738Z" fill="#516EB4"/>
</g>
<path d="M48.2755 46.2969L39.166 51.5555C39.1013 51.5977 39.0474 51.6546 39.0088 51.7214C38.9701 51.7883 38.9477 51.8633 38.9434 51.9404V53.6296C38.9478 53.7065 38.9705 53.7812 39.0094 53.8476C39.0484 53.914 39.1025 53.9703 39.1674 54.0117L39.1832 54.0218C39.2524 54.0562 39.3286 54.0741 39.4059 54.0741C39.4831 54.0741 39.5593 54.0562 39.6285 54.0218L48.7452 48.7632C48.8095 48.7206 48.8629 48.6637 48.9013 48.5969C48.9397 48.53 48.962 48.4552 48.9664 48.3782V46.6862C48.9622 46.6094 48.9398 46.5347 48.9011 46.4683C48.8624 46.4019 48.8085 46.3456 48.7438 46.3041L48.7265 46.294C48.6564 46.2591 48.579 46.2412 48.5007 46.2417C48.4223 46.2422 48.3452 46.2611 48.2755 46.2969Z" fill="#F0F0F0"/>
<path d="M39.6227 54.019C39.5534 54.053 39.4772 54.0707 39.4 54.0707C39.3228 54.0707 39.2467 54.053 39.1774 54.019L39.1616 54.009C39.0965 53.9677 39.0422 53.9115 39.0033 53.8451C38.9643 53.7786 38.9418 53.7038 38.9375 53.6269V51.9406C38.9407 51.8601 38.9649 51.7818 39.0079 51.7136L39.4661 51.9837C39.4262 52.0497 39.4039 52.1249 39.4015 52.202V53.8912C39.4015 54.0204 39.4919 54.0951 39.6227 54.019Z" fill="#E0E0E0"/>
<path d="M48.7393 46.5584L39.6226 51.817C39.5582 51.859 39.5046 51.9157 39.4662 51.9823C39.4277 52.0489 39.4055 52.1237 39.4014 52.2005V53.8897C39.4014 54.0333 39.5005 54.0879 39.6226 54.0175L48.7393 48.7589C48.8035 48.7164 48.857 48.6594 48.8954 48.5926C48.9338 48.5258 48.9561 48.4509 48.9605 48.374V46.6862C48.9605 46.5455 48.8614 46.488 48.7393 46.5584Z" fill="#FAFAFA"/>
<path d="M48.8384 46.5913C48.8901 46.5913 48.8973 46.6502 48.8973 46.6861V48.3695C48.8931 48.4354 48.8738 48.4995 48.841 48.5568C48.8081 48.6141 48.7625 48.663 48.7077 48.6999L39.5967 53.9714C39.5765 53.9846 39.5533 53.9925 39.5292 53.9944C39.4775 53.9944 39.4689 53.9341 39.4689 53.8981V52.2018C39.4732 52.1357 39.4927 52.0716 39.5258 52.0143C39.559 51.957 39.6048 51.9081 39.6599 51.8714L48.7752 46.6128C48.796 46.5999 48.8197 46.5925 48.8441 46.5913M48.8441 46.5281C48.809 46.5293 48.7749 46.5397 48.745 46.5582L39.6226 51.8168C39.5582 51.8589 39.5046 51.9155 39.4662 51.9822C39.4277 52.0488 39.4055 52.1235 39.4014 52.2003V53.8895C39.4014 53.9901 39.4516 54.0475 39.5235 54.0475C39.5586 54.0468 39.5929 54.0364 39.6226 54.0174L48.7393 48.7588C48.8035 48.7162 48.857 48.6593 48.8954 48.5925C48.9338 48.5256 48.9561 48.4508 48.9605 48.3738V46.6861C48.9605 46.5855 48.9102 46.5281 48.8384 46.5281H48.8441Z" fill="#F0F0F0"/>
<path d="M42.7813 51.4479L42.382 51.6734V51.4838L42.744 51.2741C42.7545 51.2675 42.763 51.258 42.7684 51.2468C42.7742 51.2351 42.7776 51.2224 42.7784 51.2094V51.0299C42.7788 51.0251 42.7781 51.0203 42.7764 51.0158C42.7747 51.0113 42.7719 51.0073 42.7684 51.004C42.7649 51.0014 42.7606 50.9999 42.7562 50.9999C42.7518 50.9999 42.7475 51.0014 42.744 51.004L42.382 51.2137V51.0313L42.7713 50.8116C42.7818 50.8049 42.7903 50.7955 42.7957 50.7843C42.8024 50.7724 42.8058 50.7591 42.8057 50.7455V50.5674C42.8064 50.5624 42.8058 50.5573 42.804 50.5525C42.8023 50.5478 42.7994 50.5435 42.7957 50.5401C42.7921 50.5376 42.7878 50.5363 42.7835 50.5363C42.7791 50.5363 42.7749 50.5376 42.7713 50.5401L42.1823 50.8819C42.1721 50.8889 42.1637 50.8983 42.1579 50.9092C42.1519 50.9213 42.1485 50.9345 42.1479 50.948V52.0397C42.1478 52.0444 42.1486 52.0492 42.1503 52.0536C42.152 52.058 42.1546 52.0621 42.1579 52.0655C42.1615 52.068 42.1658 52.0693 42.1701 52.0693C42.1745 52.0693 42.1788 52.068 42.1823 52.0655L42.7828 51.7179C42.7937 51.7117 42.8022 51.7021 42.8072 51.6906C42.8136 51.6792 42.8171 51.6664 42.8172 51.6533V51.4737C42.8172 51.4608 42.8172 51.4522 42.8072 51.4479C42.8037 51.4445 42.7991 51.4427 42.7942 51.4427C42.7894 51.4427 42.7848 51.4445 42.7813 51.4479ZM43.5584 50.8116C43.6071 50.7548 43.6451 50.6895 43.6704 50.6191C43.697 50.5444 43.7101 50.4656 43.7092 50.3864C43.7115 50.3326 43.7032 50.279 43.6848 50.2284C43.6722 50.1941 43.6471 50.1658 43.6144 50.1494C43.5781 50.1369 43.5387 50.1369 43.5024 50.1494C43.4516 50.1623 43.4031 50.1832 43.3587 50.2112L43.014 50.4094C43.0039 50.4161 42.9959 50.4256 42.991 50.4367C42.9843 50.4485 42.9809 50.4619 42.981 50.4754V51.5671C42.981 51.58 42.981 51.5886 42.991 51.593C42.9942 51.5958 42.9983 51.5973 43.0025 51.5973C43.0068 51.5973 43.0109 51.5958 43.014 51.593L43.1806 51.4967C43.1915 51.4905 43.2001 51.4809 43.205 51.4694C43.2109 51.4578 43.2143 51.4451 43.2151 51.4321V51.0701L43.3315 51.0026L43.4751 51.2827C43.4796 51.2908 43.4854 51.2981 43.4923 51.3042C43.4995 51.3042 43.511 51.3042 43.5282 51.3042L43.7006 51.2037C43.7094 51.1988 43.7164 51.1912 43.7207 51.1821C43.7262 51.1725 43.7292 51.1616 43.7293 51.1505C43.7306 51.1454 43.7306 51.1399 43.7293 51.1347L43.5584 50.8116ZM43.4406 50.6392C43.4168 50.6709 43.387 50.6977 43.353 50.7182L43.2094 50.8001V50.5501L43.353 50.4683C43.3782 50.4497 43.4094 50.441 43.4406 50.4438C43.4636 50.4438 43.4751 50.4697 43.4751 50.5214C43.4769 50.5634 43.4647 50.6048 43.4406 50.6392ZM40.881 52.5453L40.4802 52.7765V52.5869L40.8436 52.3772C40.8542 52.3706 40.8627 52.3611 40.8681 52.3499C40.8745 52.3385 40.878 52.3257 40.8781 52.3126V52.133C40.8781 52.1201 40.8781 52.1115 40.8681 52.1072C40.8646 52.1045 40.8603 52.103 40.8559 52.103C40.8514 52.103 40.8471 52.1045 40.8436 52.1072L40.4802 52.3169V52.1345L40.8709 51.909C40.8815 51.9023 40.8899 51.8929 40.8954 51.8817C40.902 51.8698 40.9055 51.8565 40.9054 51.8429V51.6633C40.9059 51.6585 40.9053 51.6537 40.9035 51.6492C40.9018 51.6447 40.899 51.6407 40.8954 51.6375C40.8916 51.6353 40.8874 51.6342 40.8831 51.6342C40.8789 51.6342 40.8746 51.6353 40.8709 51.6375L40.2806 51.9793C40.2703 51.9863 40.262 51.9957 40.2562 52.0066C40.2504 52.0183 40.2469 52.031 40.2461 52.044V53.1371C40.246 53.1418 40.2468 53.1466 40.2485 53.151C40.2503 53.1554 40.2529 53.1595 40.2562 53.1629C40.2599 53.1651 40.2641 53.1662 40.2684 53.1662C40.2727 53.1662 40.2769 53.1651 40.2806 53.1629L40.881 52.8153C40.8919 52.8091 40.9005 52.7995 40.9054 52.788C40.9119 52.7766 40.9153 52.7638 40.9155 52.7507V52.5711C40.9161 52.5661 40.9155 52.561 40.9138 52.5563C40.912 52.5515 40.9091 52.5472 40.9054 52.5438C40.9017 52.5416 40.8973 52.5405 40.893 52.5408C40.8886 52.541 40.8844 52.5426 40.881 52.5453ZM41.9224 51.0313L41.7787 51.1161C41.7621 51.1253 41.7485 51.1393 41.7399 51.1563C41.7334 51.1682 41.7281 51.1807 41.7241 51.1936L41.5187 51.7797L41.3133 51.4306C41.3084 51.4242 41.3026 51.4184 41.2961 51.4134C41.2875 51.4048 41.276 51.4062 41.2588 51.4134L41.1151 51.4982C41.105 51.5049 41.097 51.5143 41.0921 51.5254C41.0854 51.5373 41.082 51.5506 41.0821 51.5642V52.6559C41.0814 52.6607 41.082 52.6656 41.0838 52.6701C41.0855 52.6746 41.0884 52.6786 41.0921 52.6817C41.0953 52.6846 41.0994 52.6861 41.1036 52.6861C41.1079 52.6861 41.112 52.6846 41.1151 52.6817L41.2817 52.5855C41.292 52.5785 41.3004 52.5691 41.3062 52.5582C41.312 52.5465 41.3154 52.5338 41.3162 52.5209V51.9607L41.4354 52.1704C41.44 52.1776 41.4458 52.1839 41.4527 52.189C41.4598 52.189 41.4699 52.189 41.4814 52.189L41.5633 52.1417C41.5764 52.1345 41.5869 52.1235 41.5934 52.1101C41.6001 52.098 41.6058 52.0855 41.6107 52.0727L41.7299 51.7251V52.2853C41.7294 52.2901 41.73 52.2949 41.7318 52.2994C41.7335 52.3039 41.7363 52.308 41.7399 52.3111C41.7433 52.3135 41.7473 52.3148 41.7514 52.3148C41.7555 52.3148 41.7596 52.3135 41.7629 52.3111L41.9295 52.2163C41.9401 52.2097 41.9486 52.2003 41.954 52.189C41.96 52.177 41.9634 52.1638 41.964 52.1503V51.0586C41.9644 51.0538 41.9637 51.049 41.962 51.0445C41.9602 51.0401 41.9575 51.036 41.954 51.0328C41.9524 51.03 41.9502 51.0277 41.9475 51.0261C41.9448 51.0244 41.9417 51.0234 41.9386 51.0233C41.9354 51.0232 41.9323 51.0238 41.9294 51.0252C41.9266 51.0266 41.9242 51.0287 41.9224 51.0313ZM45.4171 49.9268L45.0163 50.158V49.9684L45.3797 49.7587C45.39 49.7517 45.3983 49.7424 45.4041 49.7314C45.41 49.7198 45.4134 49.7071 45.4142 49.6941V49.5188C45.4146 49.514 45.4139 49.5092 45.4122 49.5047C45.4104 49.5003 45.4077 49.4962 45.4041 49.493C45.4006 49.4903 45.3964 49.4888 45.3919 49.4888C45.3875 49.4888 45.3832 49.4903 45.3797 49.493L45.0163 49.7012V49.5188L45.407 49.2933C45.4179 49.2871 45.4265 49.2775 45.4314 49.266C45.4381 49.2547 45.4415 49.2418 45.4415 49.2287V49.0448C45.4421 49.04 45.4416 49.0351 45.4398 49.0306C45.438 49.0261 45.4352 49.0221 45.4314 49.019C45.428 49.016 45.4237 49.0144 45.4192 49.0144C45.4147 49.0144 45.4104 49.016 45.407 49.019L44.8167 49.3608C44.8058 49.367 44.7972 49.3766 44.7923 49.3881C44.7858 49.3995 44.7823 49.4124 44.7822 49.4255V50.5243C44.7816 50.5293 44.7821 50.5344 44.7839 50.5392C44.7856 50.5439 44.7885 50.5482 44.7923 50.5516C44.7958 50.554 44.8001 50.5554 44.8045 50.5554C44.8088 50.5554 44.8131 50.554 44.8167 50.5516L45.4171 50.2054C45.4276 50.1988 45.4361 50.1893 45.4415 50.1781C45.4482 50.1663 45.4517 50.1529 45.4515 50.1393V49.9497C45.4522 49.9447 45.4516 49.9396 45.4498 49.9349C45.4481 49.9301 45.4452 49.9259 45.4415 49.9224C45.4375 49.9206 45.433 49.92 45.4286 49.9207C45.4242 49.9215 45.4202 49.9236 45.4171 49.9268ZM46.7472 48.6958C46.7489 48.6682 46.7527 48.6409 46.7587 48.6139C46.7649 48.5867 46.7741 48.5602 46.7859 48.5349C46.7996 48.5097 46.8159 48.4861 46.8348 48.4645C46.8555 48.4416 46.8797 48.4222 46.9066 48.4071C46.9282 48.3927 46.9527 48.3834 46.9784 48.3798C46.9935 48.3759 47.0093 48.3759 47.0244 48.3798C47.0355 48.3866 47.0448 48.396 47.0517 48.4071C47.0517 48.42 47.0617 48.4315 47.066 48.443C47.0681 48.4538 47.0725 48.4641 47.079 48.4731C47.079 48.4731 47.0948 48.4731 47.1091 48.4731L47.2743 48.3769C47.2831 48.372 47.2901 48.3644 47.2944 48.3554C47.2997 48.3456 47.3027 48.3348 47.303 48.3238C47.3036 48.2741 47.2928 48.225 47.2714 48.1801C47.2533 48.1437 47.2235 48.1143 47.1867 48.0968C47.1486 48.0807 47.1068 48.0757 47.066 48.0824C47.0109 48.0907 46.9581 48.1103 46.9109 48.1399C46.8499 48.1747 46.7946 48.2188 46.7472 48.2706C46.7 48.3221 46.659 48.379 46.6251 48.4401C46.5921 48.5007 46.5661 48.5648 46.5475 48.6311C46.5293 48.6942 46.5192 48.7594 46.5173 48.8251C46.5173 48.8739 46.5173 48.9256 46.5173 48.9787C46.5173 49.0319 46.5173 49.0807 46.5173 49.1224C46.5189 49.1768 46.5291 49.2306 46.5475 49.2818C46.5623 49.323 46.59 49.3583 46.6265 49.3824C46.6628 49.4055 46.7058 49.4156 46.7486 49.4111C46.8063 49.4043 46.8618 49.3847 46.9109 49.3536C46.9682 49.3206 47.0204 49.2794 47.066 49.2315C47.1138 49.1829 47.1557 49.1289 47.191 49.0707C47.2256 49.0135 47.254 48.9529 47.2757 48.8897C47.295 48.8312 47.3057 48.7702 47.3073 48.7087C47.3073 48.6986 47.3074 48.6915 47.2987 48.6886C47.2958 48.6865 47.2923 48.6854 47.2887 48.6854C47.2851 48.6854 47.2816 48.6865 47.2786 48.6886L47.1134 48.7834C47.1011 48.7903 47.0907 48.8001 47.0833 48.8121C47.0776 48.827 47.0733 48.8424 47.0703 48.8581C47.0703 48.8739 47.0617 48.8911 47.056 48.9098C47.049 48.9303 47.0398 48.9501 47.0287 48.9687C47.0152 48.9901 46.9998 49.0103 46.9827 49.029C46.9611 49.05 46.937 49.0684 46.9109 49.0836C46.8893 49.0975 46.8647 49.1059 46.8391 49.108C46.8216 49.1095 46.8042 49.1044 46.7903 49.0937C46.7773 49.081 46.7679 49.0651 46.763 49.0477C46.7567 49.0252 46.7528 49.0021 46.7515 48.9787C46.7515 48.9644 46.7515 48.9443 46.7515 48.9184C46.7515 48.8926 46.7515 48.8653 46.7515 48.838C46.7515 48.8107 46.7515 48.7834 46.7515 48.7575C46.7515 48.7317 46.7457 48.7101 46.7472 48.6958ZM46.3162 48.4932L46.1496 48.5895C46.1391 48.5961 46.1306 48.6056 46.1252 48.6168C46.1192 48.6284 46.1158 48.6411 46.1152 48.6541V49.2287L45.8279 48.8179C45.823 48.8121 45.8172 48.8072 45.8106 48.8035C45.8054 48.8006 45.7994 48.7991 45.7934 48.7991C45.7874 48.7991 45.7815 48.8006 45.7762 48.8035L45.644 48.8796C45.6339 48.8863 45.6259 48.8958 45.621 48.9069C45.6142 48.9182 45.6103 48.9311 45.6095 48.9443V50.0374C45.6093 50.0423 45.6102 50.0471 45.6122 50.0516C45.6142 50.0561 45.6172 50.0601 45.621 50.0632C45.6245 50.0654 45.6285 50.0665 45.6325 50.0665C45.6366 50.0665 45.6406 50.0654 45.644 50.0632L45.8106 49.967C45.8209 49.96 45.8293 49.9506 45.8351 49.9397C45.8411 49.9276 45.8445 49.9144 45.8451 49.9009V49.3263L46.1324 49.7357C46.1369 49.7419 46.1428 49.7468 46.1496 49.7501C46.1582 49.7501 46.1697 49.7501 46.1841 49.7501L46.3162 49.6739C46.3261 49.6666 46.3344 49.6573 46.3407 49.6467C46.3465 49.6345 46.3499 49.6213 46.3507 49.6079V48.5134C46.3511 48.5086 46.3504 48.5037 46.3487 48.4993C46.3469 48.4948 46.3442 48.4908 46.3407 48.4875C46.3369 48.4862 46.3329 48.4861 46.329 48.4871C46.3252 48.4881 46.3217 48.4903 46.3191 48.4932H46.3162ZM44.5926 49.9627L44.2852 50.1408C44.2747 50.1474 44.2662 50.1568 44.2608 50.1681C44.255 50.1797 44.2516 50.1924 44.2507 50.2054V50.3806C44.2503 50.3854 44.251 50.3903 44.2528 50.3947C44.2545 50.3992 44.2573 50.4032 44.2608 50.4065C44.2643 50.4092 44.2686 50.4106 44.273 50.4106C44.2774 50.4106 44.2817 50.4092 44.2852 50.4065L44.3915 50.3447C44.3918 50.3763 44.3875 50.4078 44.3786 50.4381C44.3717 50.4655 44.3606 50.4917 44.3455 50.5157C44.3311 50.5385 44.3137 50.5592 44.2938 50.5774C44.2748 50.5948 44.2541 50.6102 44.2321 50.6234C44.2106 50.6375 44.1859 50.6459 44.1602 50.6478C44.1518 50.6487 44.1432 50.6479 44.1351 50.6455C44.1269 50.643 44.1194 50.6389 44.1128 50.6335C44.0994 50.6203 44.0895 50.604 44.0841 50.586C44.0777 50.5641 44.0739 50.5414 44.0726 50.5185C44.0726 50.5056 44.0726 50.4855 44.0726 50.4596C44.0726 50.4338 44.0726 50.4065 44.0726 50.3792C44.0726 50.3519 44.0726 50.3246 44.0726 50.2973C44.0726 50.27 44.0726 50.2514 44.0726 50.2356C44.0755 50.2081 44.0798 50.1808 44.0856 50.1537C44.0912 50.1263 44.1003 50.0997 44.1128 50.0747C44.1249 50.0489 44.1409 50.0252 44.1602 50.0043C44.1809 49.9814 44.2052 49.962 44.2321 49.9469C44.2585 49.927 44.291 49.9168 44.324 49.9181C44.3428 49.9226 44.3598 49.9326 44.3728 49.9469L44.3944 49.9655C44.4016 49.9655 44.4116 49.9655 44.4231 49.9655L44.5926 49.8693C44.601 49.8634 44.6079 49.8555 44.6127 49.8463C44.6183 49.8368 44.6208 49.8257 44.6199 49.8147C44.6187 49.7787 44.6083 49.7436 44.5897 49.7127C44.5713 49.6814 44.5444 49.656 44.5122 49.6395C44.4742 49.6229 44.4325 49.6169 44.3915 49.6222C44.3348 49.6295 44.2804 49.6491 44.2321 49.6797C44.1714 49.715 44.1162 49.7591 44.0683 49.8104C44.0207 49.8616 43.9796 49.9185 43.9462 49.9799C43.9133 50.0405 43.8873 50.1046 43.8687 50.1709C43.8504 50.234 43.8403 50.2992 43.8385 50.3648C43.8385 50.4151 43.8385 50.4654 43.8385 50.5185C43.8385 50.5717 43.8385 50.6205 43.8385 50.6622C43.8394 50.7162 43.8496 50.7696 43.8687 50.8202C43.8834 50.8613 43.9112 50.8966 43.9477 50.9207C43.9836 50.9447 44.0269 50.9549 44.0698 50.9495C44.1276 50.9434 44.1832 50.9237 44.2321 50.892C44.2893 50.8589 44.3416 50.8178 44.3872 50.7699C44.4855 50.6694 44.5571 50.546 44.5955 50.4108C44.6167 50.3424 44.6273 50.2712 44.6271 50.1997V49.9828C44.6272 49.978 44.6264 49.9733 44.6246 49.9688C44.6229 49.9644 44.6203 49.9603 44.617 49.9569C44.6129 49.9552 44.6083 49.9548 44.6039 49.9559C44.5995 49.9569 44.5956 49.9593 44.5926 49.9627ZM48.1706 47.4346C48.1677 47.4325 48.1642 47.4314 48.1606 47.4314C48.157 47.4314 48.1534 47.4325 48.1505 47.4346L47.9767 47.5337C47.9608 47.5429 47.9479 47.5563 47.9394 47.5725C47.9332 47.5836 47.928 47.5951 47.9236 47.607L47.7627 48.1155L47.6032 47.7952C47.5996 47.7885 47.5941 47.783 47.5874 47.7794C47.5788 47.7722 47.5673 47.7794 47.5501 47.7794L47.3763 47.8799C47.3679 47.8853 47.361 47.8927 47.3562 47.9015C47.3509 47.9112 47.3479 47.922 47.3476 47.9331C47.3461 47.9392 47.3461 47.9456 47.3476 47.9517L47.6348 48.5019V48.861C47.6342 48.866 47.6348 48.8711 47.6365 48.8758C47.6383 48.8806 47.6412 48.8848 47.6449 48.8882C47.6485 48.8907 47.6527 48.892 47.6571 48.892C47.6615 48.892 47.6657 48.8907 47.6693 48.8882L47.8345 48.7934C47.8451 48.7863 47.8535 48.7763 47.8589 48.7647C47.8656 48.7534 47.869 48.7405 47.869 48.7274V48.3697L48.1563 47.4835C48.1574 47.4749 48.1574 47.4662 48.1563 47.4576C48.1606 47.4556 48.1644 47.4524 48.1669 47.4483C48.1695 47.4442 48.1708 47.4395 48.1706 47.4346Z" fill="#516EB4"/>
<path d="M22.675 47.0523L27.9896 50.1176C28.0545 50.1596 28.1086 50.2163 28.1473 50.2832C28.186 50.3502 28.2083 50.4253 28.2123 50.5025V52.1903C28.2082 52.2671 28.1858 52.3418 28.1471 52.4082C28.1084 52.4747 28.0544 52.5309 27.9896 52.5724L27.9724 52.5824C27.9033 52.6171 27.8271 52.6352 27.7497 52.6352C27.6724 52.6352 27.5962 52.6171 27.5271 52.5824L22.2168 49.5186C22.1525 49.4761 22.0991 49.4191 22.0607 49.3523C22.0223 49.2855 22 49.2106 21.9956 49.1337V47.4416C21.9998 47.3648 22.0222 47.2902 22.0609 47.2238C22.0996 47.1573 22.1535 47.101 22.2182 47.0595L22.2355 47.0495C22.3041 47.0164 22.3794 46.9995 22.4556 47C22.5318 47.0005 22.6068 47.0184 22.675 47.0523Z" fill="#F0F0F0"/>
<path d="M27.5312 52.581C27.6006 52.6147 27.6768 52.6322 27.7539 52.6322C27.831 52.6322 27.9071 52.6147 27.9765 52.581L27.9938 52.571C28.0586 52.5295 28.1125 52.4733 28.1513 52.4068C28.19 52.3404 28.2123 52.2657 28.2164 52.1889V50.5026C28.2134 50.422 28.1892 50.3437 28.146 50.2756L27.6878 50.5457C27.7277 50.6117 27.75 50.6869 27.7525 50.764V52.4518C27.7467 52.581 27.6562 52.6557 27.5312 52.581Z" fill="#E0E0E0"/>
<path d="M22.2166 47.3138L27.5312 50.3804C27.5957 50.4226 27.6494 50.4795 27.6879 50.5464C27.7263 50.6133 27.7484 50.6883 27.7524 50.7654V52.4531C27.7524 52.5968 27.6533 52.6528 27.5312 52.5824L22.2166 49.5186C22.1523 49.4761 22.0988 49.4191 22.0604 49.3523C22.022 49.2855 21.9998 49.2106 21.9954 49.1337V47.4416C21.9896 47.3008 22.0887 47.2434 22.2166 47.3138Z" fill="#FAFAFA"/>
<path d="M22.1118 47.3469C22.1358 47.3483 22.159 47.3557 22.1793 47.3684L27.494 50.4337C27.549 50.4704 27.5949 50.5193 27.628 50.5766C27.6612 50.6338 27.6807 50.698 27.685 50.764V52.4518C27.685 52.4877 27.6764 52.548 27.6247 52.548C27.6007 52.5466 27.5775 52.5392 27.5572 52.5265L22.2425 49.4612C22.1875 49.4245 22.1416 49.3757 22.1085 49.3184C22.0753 49.2611 22.0558 49.1969 22.0515 49.1309V47.4417C22.0515 47.4058 22.0601 47.3469 22.1118 47.3469ZM22.1118 47.2837C22.0386 47.2837 21.9897 47.3411 21.9897 47.4417V49.1309C21.9943 49.2088 22.0173 49.2846 22.0567 49.352C22.0962 49.4194 22.151 49.4765 22.2167 49.5187L27.5313 52.5839C27.5612 52.6023 27.5953 52.6127 27.6304 52.6141C27.7037 52.6141 27.7525 52.5552 27.7525 52.4547V50.764C27.7483 50.6872 27.7261 50.6125 27.6877 50.5459C27.6493 50.4792 27.5957 50.4226 27.5313 50.3805L22.2167 47.3153C22.1868 47.2969 22.1527 47.2866 22.1176 47.2851L22.1118 47.2837Z" fill="#F0F0F0"/>
<path d="M22.8902 48.2446C22.8985 48.2509 22.905 48.2594 22.9089 48.2691C22.9144 48.2797 22.9174 48.2915 22.9175 48.3035V49.3205C22.918 49.3249 22.9174 49.3295 22.9159 49.3337C22.9145 49.3379 22.912 49.3417 22.9089 49.3449C22.9077 49.3462 22.9062 49.3472 22.9046 49.3479C22.903 49.3485 22.9013 49.3489 22.8995 49.3489C22.8978 49.3489 22.8961 49.3485 22.8945 49.3479C22.8929 49.3472 22.8914 49.3462 22.8902 49.3449L22.7552 49.2688C22.7469 49.2625 22.7404 49.254 22.7365 49.2444C22.731 49.2337 22.728 49.2219 22.7279 49.2099V48.8235L22.501 48.6928V49.0878C22.5014 49.0923 22.5009 49.0968 22.4994 49.101C22.4979 49.1052 22.4955 49.109 22.4923 49.1122C22.4911 49.1135 22.4897 49.1145 22.4881 49.1152C22.4865 49.1159 22.4847 49.1162 22.483 49.1162C22.4813 49.1162 22.4795 49.1159 22.4779 49.1152C22.4763 49.1145 22.4749 49.1135 22.4737 49.1122L22.3401 49.0347C22.331 49.0295 22.3239 49.0214 22.32 49.0117C22.3147 49.001 22.3122 48.9891 22.3128 48.9772V47.9602C22.3122 47.9557 22.3125 47.951 22.3138 47.9466C22.315 47.9421 22.3171 47.938 22.32 47.9344C22.3229 47.9323 22.3264 47.9312 22.33 47.9312C22.3336 47.9312 22.3371 47.9323 22.3401 47.9344L22.4737 48.012C22.4823 48.0179 22.4889 48.0264 22.4923 48.0364C22.4979 48.047 22.5008 48.0588 22.501 48.0708V48.45L22.7279 48.5808V48.2016C22.7274 48.1971 22.728 48.1926 22.7295 48.1884C22.7309 48.1841 22.7334 48.1803 22.7365 48.1771C22.7377 48.1759 22.7392 48.1749 22.7408 48.1742C22.7424 48.1735 22.7441 48.1732 22.7459 48.1732C22.7476 48.1732 22.7493 48.1735 22.7509 48.1742C22.7525 48.1749 22.754 48.1759 22.7552 48.1771L22.8902 48.2446Z" fill="#516EB4"/>
<path d="M23.047 48.7473C23.0481 48.6956 23.0568 48.6443 23.0729 48.5951C23.0839 48.5569 23.1053 48.5226 23.1346 48.496C23.1618 48.4727 23.1966 48.4604 23.2323 48.4615C23.2798 48.4642 23.3258 48.479 23.3659 48.5046C23.4163 48.5337 23.4615 48.5711 23.4995 48.6152C23.5381 48.659 23.5713 48.7072 23.5986 48.7588C23.6519 48.8687 23.6813 48.9886 23.6848 49.1107C23.6848 49.1567 23.6848 49.2041 23.6848 49.2544C23.6848 49.3046 23.6848 49.3506 23.6848 49.398C23.684 49.4497 23.6758 49.501 23.6604 49.5503C23.6488 49.5881 23.6275 49.6223 23.5986 49.6494C23.5711 49.673 23.5357 49.6853 23.4995 49.6838C23.452 49.6812 23.406 49.6663 23.3659 49.6408C23.3155 49.6116 23.2703 49.5743 23.2323 49.5302C23.1943 49.4862 23.1616 49.438 23.1346 49.3865C23.1075 49.3316 23.0868 49.2738 23.0729 49.2142C23.0581 49.1554 23.0494 49.0952 23.047 49.0346C23.047 48.9901 23.047 48.9441 23.047 48.891C23.047 48.8378 23.0456 48.7919 23.047 48.7473ZM23.4966 49.2788C23.4966 49.2601 23.4966 49.2386 23.4966 49.217C23.4966 49.1955 23.4966 49.1696 23.4966 49.1466C23.4966 49.1237 23.4966 49.0978 23.4966 49.0763C23.4966 49.0547 23.4966 49.0317 23.4966 49.0145C23.4951 48.9879 23.4913 48.9614 23.4851 48.9355C23.4794 48.9108 23.4712 48.8867 23.4607 48.8637C23.4509 48.8413 23.4378 48.8205 23.4219 48.8019C23.4059 48.7836 23.387 48.768 23.3659 48.7559C23.3495 48.7456 23.3307 48.7397 23.3113 48.7387C23.2964 48.7387 23.282 48.7443 23.2711 48.7545C23.2596 48.7667 23.2512 48.7815 23.2467 48.7976C23.2407 48.8191 23.2373 48.8413 23.2366 48.8637C23.2366 48.8809 23.2366 48.901 23.2366 48.9226V49.0662C23.2366 49.0906 23.2366 49.1122 23.2366 49.1308C23.2389 49.1828 23.2506 49.2339 23.2711 49.2817C23.2906 49.3263 23.3238 49.3635 23.3659 49.388C23.409 49.4124 23.4406 49.4138 23.4607 49.388C23.4838 49.3562 23.4963 49.318 23.4966 49.2788Z" fill="#516EB4"/>
<path d="M24.0839 48.9169C24.1287 48.9433 24.169 48.9767 24.2031 49.016C24.2397 49.0552 24.2715 49.0986 24.2979 49.1453C24.3242 49.1907 24.3454 49.2389 24.3611 49.2889C24.3741 49.3275 24.3818 49.3676 24.3841 49.4081C24.3865 49.4146 24.3865 49.4218 24.3841 49.4282C24.3821 49.4299 24.3795 49.4308 24.3769 49.4308C24.3743 49.4308 24.3718 49.4299 24.3697 49.4282L24.2362 49.3507C24.2271 49.3465 24.2192 49.34 24.2132 49.332C24.2062 49.3225 24.1999 49.3124 24.1945 49.3018L24.1859 49.2817C24.1802 49.2697 24.1735 49.2582 24.1658 49.2473C24.1579 49.2332 24.1477 49.2206 24.1356 49.2099C24.122 49.1965 24.1071 49.1845 24.0911 49.174L24.0537 49.1568C24.0433 49.1551 24.0326 49.1551 24.0221 49.1568C24.0177 49.1567 24.0132 49.1576 24.0092 49.1596C24.0052 49.1616 24.0017 49.1646 23.9992 49.1683C23.9925 49.1785 23.9895 49.1906 23.9905 49.2027C23.9903 49.2182 23.9937 49.2334 24.0006 49.2473C24.009 49.2651 24.0202 49.2816 24.0336 49.2961C24.0523 49.3176 24.0724 49.3378 24.094 49.3564L24.1873 49.4412C24.2229 49.4721 24.256 49.5057 24.2864 49.5417C24.313 49.5755 24.3366 49.6115 24.3568 49.6495C24.3745 49.6872 24.3885 49.7267 24.3985 49.7672C24.4079 49.8145 24.4122 49.8627 24.4114 49.9109C24.4135 49.9551 24.4056 49.9993 24.3884 50.0401C24.3752 50.0705 24.3518 50.0954 24.3223 50.1105C24.2907 50.1243 24.2555 50.1278 24.2218 50.1206C24.1771 50.112 24.1343 50.0955 24.0954 50.0717C24.0486 50.044 24.006 50.0097 23.969 49.9698C23.8947 49.8922 23.8387 49.7989 23.8052 49.6968C23.7909 49.6542 23.7827 49.6097 23.7808 49.5647C23.7803 49.5569 23.7829 49.5491 23.788 49.5432C23.79 49.5415 23.7926 49.5406 23.7952 49.5406C23.7978 49.5406 23.8003 49.5415 23.8024 49.5432L23.936 49.6207C23.9448 49.6254 23.9526 49.6317 23.9589 49.6394C23.9653 49.6473 23.9707 49.656 23.9747 49.6652L23.9877 49.6925C23.994 49.7068 24.0012 49.7208 24.0092 49.7342C24.0194 49.7504 24.0309 49.7658 24.0437 49.7802C24.0586 49.7967 24.0761 49.8107 24.0954 49.8218C24.1228 49.8392 24.1537 49.8505 24.1859 49.8549C24.2103 49.8549 24.2232 49.8419 24.2232 49.8118C24.2232 49.7949 24.2182 49.7784 24.2089 49.7644C24.1981 49.7456 24.185 49.7283 24.1701 49.7127C24.1514 49.6925 24.1284 49.671 24.1011 49.6466L24.0035 49.559C23.9388 49.5022 23.8864 49.4328 23.8498 49.355C23.8122 49.2711 23.794 49.1797 23.7966 49.0878C23.7959 49.0477 23.8027 49.0077 23.8167 48.97C23.8281 48.9396 23.8481 48.9132 23.8742 48.8939C23.9015 48.8766 23.9339 48.869 23.9661 48.8724C24.0082 48.8783 24.0484 48.8935 24.0839 48.9169Z" fill="#516EB4"/>
<path d="M24.834 49.3749C24.8777 49.3988 24.9174 49.4293 24.9518 49.4654C24.9866 49.5015 25.0165 49.5421 25.0408 49.586C25.0654 49.6315 25.0847 49.6797 25.0983 49.7297C25.1112 49.7862 25.1175 49.844 25.117 49.902C25.1186 49.953 25.1123 50.0039 25.0983 50.0529C25.0885 50.0856 25.0683 50.1144 25.0408 50.1347C25.0143 50.1514 24.9827 50.158 24.9518 50.1534C24.9101 50.1459 24.8702 50.1308 24.834 50.1089L24.7033 50.0327V50.3545C24.7037 50.3589 24.7032 50.3634 24.7017 50.3677C24.7002 50.3719 24.6978 50.3757 24.6947 50.3789C24.6935 50.3802 24.692 50.3812 24.6904 50.3819C24.6888 50.3825 24.6871 50.3829 24.6853 50.3829C24.6836 50.3829 24.6819 50.3825 24.6802 50.3819C24.6786 50.3812 24.6772 50.3802 24.676 50.3789L24.5424 50.3013C24.5333 50.2962 24.5262 50.2881 24.5223 50.2784C24.516 50.2654 24.5135 50.251 24.5151 50.2367V49.2312C24.5147 49.2266 24.5153 49.2219 24.5168 49.2174C24.5182 49.213 24.5206 49.2089 24.5237 49.2054C24.5267 49.2033 24.5302 49.2021 24.5338 49.2021C24.5374 49.2021 24.5409 49.2033 24.5438 49.2054L24.834 49.3749ZM24.7033 49.7914L24.8297 49.8647C24.8396 49.8721 24.8512 49.877 24.8635 49.879C24.8757 49.881 24.8883 49.88 24.9001 49.8762C24.9187 49.8676 24.9288 49.8417 24.9288 49.7972C24.9298 49.7579 24.9198 49.7191 24.9001 49.6851C24.8831 49.6564 24.8588 49.6326 24.8297 49.6162L24.7033 49.5429V49.7914Z" fill="#516EB4"/>
<path d="M25.2529 50.7107C25.2442 50.7051 25.2372 50.6971 25.2328 50.6877C25.2284 50.6767 25.2259 50.6651 25.2256 50.6532V49.6363C25.2252 49.6271 25.2277 49.6181 25.2328 49.6104C25.2357 49.6083 25.2393 49.6072 25.2429 49.6072C25.2465 49.6072 25.25 49.6083 25.2529 49.6104L25.3865 49.688C25.3953 49.6941 25.4023 49.7026 25.4066 49.7124C25.4086 49.7238 25.4086 49.7355 25.4066 49.7469V50.7638C25.4094 50.7717 25.4094 50.7803 25.4066 50.7882C25.4038 50.7906 25.4002 50.7919 25.3966 50.7919C25.3929 50.7919 25.3893 50.7906 25.3865 50.7882L25.2529 50.7107Z" fill="#516EB4"/>
<path d="M26.0948 50.0932C26.1035 50.0991 26.1101 50.1077 26.1135 50.1176C26.1191 50.1283 26.122 50.1401 26.1221 50.1521V50.3187C26.1226 50.3232 26.1221 50.3277 26.1206 50.3319C26.1191 50.3361 26.1167 50.34 26.1135 50.3432C26.1123 50.3444 26.1108 50.3454 26.1092 50.3461C26.1076 50.3468 26.1059 50.3471 26.1042 50.3471C26.1024 50.3471 26.1007 50.3468 26.0991 50.3461C26.0975 50.3454 26.096 50.3444 26.0948 50.3432L25.9153 50.2397V51.047C25.9157 51.0517 25.9151 51.0564 25.9136 51.0608C25.9122 51.0652 25.9098 51.0693 25.9067 51.0728C25.9037 51.0749 25.9002 51.0761 25.8966 51.0761C25.893 51.0761 25.8895 51.0749 25.8866 51.0728L25.753 50.9953C25.7446 50.989 25.7382 50.9805 25.7343 50.9709C25.7287 50.9602 25.7258 50.9484 25.7257 50.9364V50.1291L25.5461 50.0257C25.5373 50.0196 25.5304 50.0111 25.526 50.0013C25.5209 49.9905 25.5185 49.9787 25.5188 49.9668V49.8059C25.5182 49.8014 25.5186 49.7967 25.5198 49.7923C25.521 49.7879 25.5232 49.7837 25.526 49.7801C25.529 49.778 25.5325 49.7769 25.5361 49.7769C25.5397 49.7769 25.5432 49.778 25.5461 49.7801L26.0948 50.0932Z" fill="#516EB4"/>
<path d="M26.5256 50.3474C26.5395 50.3552 26.5506 50.3673 26.5572 50.3819C26.5635 50.3957 26.5683 50.4101 26.5715 50.425L26.7942 51.5454C26.7951 51.5539 26.7951 51.5626 26.7942 51.5712C26.7945 51.5749 26.794 51.5786 26.7928 51.582C26.7915 51.5855 26.7896 51.5887 26.787 51.5913C26.7849 51.5933 26.782 51.5945 26.7791 51.5945C26.7762 51.5945 26.7733 51.5933 26.7712 51.5913L26.6434 51.5166C26.63 51.5105 26.6193 51.4998 26.6132 51.4865C26.6083 51.4765 26.6049 51.4658 26.6031 51.4549L26.5744 51.3112L26.3029 51.1532L26.2742 51.2681C26.2727 51.2755 26.2687 51.2822 26.2627 51.2868C26.2627 51.2868 26.2469 51.2868 26.234 51.2868L26.1047 51.2121C26.0977 51.2076 26.0922 51.2011 26.0889 51.1934C26.0869 51.184 26.0869 51.1742 26.0889 51.1647C26.0889 51.1647 26.0889 51.1532 26.0889 51.1432L26.313 50.2813C26.3148 50.2714 26.3198 50.2623 26.3274 50.2555C26.3345 50.2469 26.3446 50.2469 26.359 50.2555L26.5256 50.3474ZM26.3604 50.9392L26.5256 51.034L26.4423 50.6031L26.3604 50.9392Z" fill="#516EB4"/>
<path d="M27.3961 51.6977C27.4052 51.7028 27.4123 51.7109 27.4162 51.7206C27.4217 51.7313 27.4247 51.7431 27.4248 51.7551V51.9217C27.4253 51.9264 27.4248 51.9311 27.4233 51.9356C27.4218 51.9401 27.4194 51.9441 27.4162 51.9476C27.4162 51.9476 27.4047 51.9476 27.3961 51.9476L26.9235 51.6747C26.9147 51.6685 26.9077 51.6601 26.9034 51.6503C26.9007 51.6389 26.9007 51.6271 26.9034 51.6158V50.5988C26.9034 50.5873 26.9034 50.5787 26.9034 50.5744C26.9062 50.5721 26.9098 50.5708 26.9134 50.5708C26.9171 50.5708 26.9207 50.5721 26.9235 50.5744L27.0571 50.652C27.0658 50.6576 27.0728 50.6655 27.0772 50.675C27.0792 50.6864 27.0792 50.698 27.0772 50.7094V51.5167L27.3961 51.6977Z" fill="#516EB4"/>
<path d="M33.3559 18.5991L31.6409 17.6108L29.7664 18.6924L28.9937 18.2457L33.4881 15.6516L34.2609 16.0983L32.5027 17.1138L34.2163 18.1035L35.9745 17.0866L36.7472 17.5333L32.2542 20.1288L31.48 19.6821L33.3559 18.5991Z" fill="#516EB4"/>
<path d="M32.9308 21.1473C31.5332 21.1473 30.1356 20.8414 29.0713 20.2266C28.0069 19.6118 27.4194 18.7816 27.4194 17.891C27.4194 17.0005 28.0055 16.1674 29.0713 15.5569C31.2 14.3274 34.6617 14.3274 36.7904 15.5569C37.8562 16.1717 38.4422 16.9933 38.4422 17.891C38.4422 18.7888 37.8562 19.6147 36.7904 20.2266C35.7246 20.8385 34.3284 21.1473 32.9308 21.1473ZM32.9308 15.001C31.6007 15.001 30.2706 15.2883 29.2566 15.8772C28.3114 16.4231 27.79 17.1384 27.79 17.8882C27.79 18.638 28.3114 19.3561 29.2566 19.8991C31.2833 21.0683 34.5784 21.0697 36.6051 19.8991C37.5502 19.3533 38.0716 18.638 38.0716 17.8882C38.0716 17.1384 37.5502 16.4202 36.6051 15.8772C35.5924 15.2926 34.2609 15.001 32.9308 15.001Z" fill="#516EB4"/>
<path opacity="0.1" d="M42.1939 13.3018L46.3235 15.6833L43.4191 17.361L39.2896 14.978L42.1939 13.3018Z" fill="black"/>
<path d="M42.1997 12.5449L43.7854 13.4613L41.5648 14.7426L39.9805 13.8276L42.1997 12.5449Z" fill="#FAFAFA"/>
<path d="M43.7851 13.4612V14.3762L41.5645 15.6574V14.7424L43.7851 13.4612Z" fill="#E0E0E0"/>
<path d="M39.9805 13.8274V14.7424L41.5648 15.6573V14.7424L39.9805 13.8274Z" fill="#F0F0F0"/>
<path d="M42.7212 13.1595C43.0084 13.3262 43.0084 13.5904 42.7212 13.7614C42.5597 13.8436 42.381 13.8865 42.1998 13.8865C42.0185 13.8865 41.8399 13.8436 41.6783 13.7614C41.3911 13.5948 41.3911 13.3305 41.6783 13.1595C41.8401 13.0781 42.0187 13.0356 42.1998 13.0356C42.3808 13.0356 42.5594 13.0781 42.7212 13.1595Z" fill="#E0E0E0"/>
<path d="M42.4436 13.3306C42.5787 13.4024 42.5787 13.5187 42.4436 13.5905C42.3672 13.6264 42.2839 13.645 42.1995 13.645C42.115 13.645 42.0317 13.6264 41.9553 13.5905C41.8202 13.5187 41.8202 13.4024 41.9553 13.3306C42.032 13.2958 42.1152 13.2778 42.1995 13.2778C42.2837 13.2778 42.3669 13.2958 42.4436 13.3306Z" fill="#FAFAFA"/>
<path d="M40.7572 15.6344C40.7778 15.6344 40.7975 15.6263 40.8121 15.6117C40.8266 15.5972 40.8348 15.5774 40.8348 15.5569V15.0527L41.1134 14.8918C41.1312 14.8812 41.1439 14.8639 41.1489 14.8438C41.1539 14.8238 41.1507 14.8025 41.14 14.7848C41.1294 14.7671 41.1121 14.7544 41.092 14.7494C41.072 14.7444 41.0507 14.7476 41.033 14.7582L40.7156 14.9421C40.7035 14.9487 40.6935 14.9585 40.6867 14.9704C40.6798 14.9823 40.6764 14.9959 40.6768 15.0096V15.5583C40.677 15.5686 40.6792 15.5788 40.6834 15.5882C40.6875 15.5977 40.6935 15.6062 40.701 15.6133C40.7085 15.6203 40.7173 15.6259 40.727 15.6295C40.7366 15.6331 40.7469 15.6348 40.7572 15.6344Z" fill="#516EB4"/>
<path d="M40.2963 15.3701C40.3173 15.3701 40.3374 15.3618 40.3522 15.347C40.367 15.3322 40.3753 15.3121 40.3753 15.2911V14.787L40.6525 14.6261C40.6705 14.6158 40.6835 14.5988 40.6889 14.5789C40.6943 14.5589 40.6916 14.5377 40.6813 14.5198C40.671 14.5019 40.654 14.4888 40.6341 14.4834C40.6141 14.478 40.5929 14.4808 40.575 14.4911L40.2575 14.6749C40.2456 14.6816 40.2357 14.6915 40.2289 14.7033C40.222 14.7152 40.2185 14.7287 40.2188 14.7424V15.2911C40.2188 15.3118 40.2269 15.3317 40.2414 15.3465C40.2559 15.3613 40.2756 15.3697 40.2963 15.3701Z" fill="#516EB4"/>
<path d="M44.4189 13.8274L46.0047 14.7424L43.7855 16.0236L42.1997 15.1086L44.4189 13.8274Z" fill="#FAFAFA"/>
<path d="M46.0044 14.7424V15.6574L43.7852 16.9387V16.0237L46.0044 14.7424Z" fill="#E0E0E0"/>
<path d="M42.1997 15.1086V16.0236L43.7855 16.9386V16.0236L42.1997 15.1086Z" fill="#F0F0F0"/>
<path d="M44.9399 14.4409C45.2272 14.6075 45.2272 14.8718 44.9399 15.0427C44.7786 15.1247 44.6002 15.1675 44.4193 15.1675C44.2383 15.1675 44.0599 15.1247 43.8986 15.0427C43.6113 14.8761 43.6113 14.6118 43.8986 14.4409C44.0599 14.3589 44.2383 14.3162 44.4193 14.3162C44.6002 14.3162 44.7786 14.3589 44.9399 14.4409Z" fill="#E0E0E0"/>
<path d="M44.6633 14.6145C44.7983 14.6849 44.7983 14.8013 44.6633 14.8731C44.5869 14.909 44.5035 14.9276 44.4191 14.9276C44.3347 14.9276 44.2513 14.909 44.1749 14.8731C44.0413 14.8013 44.0413 14.6849 44.1749 14.6145C44.2513 14.5787 44.3347 14.5601 44.4191 14.5601C44.5035 14.5601 44.5869 14.5787 44.6633 14.6145Z" fill="#FAFAFA"/>
<path d="M42.977 16.9128C42.9874 16.9128 42.9976 16.9107 43.0072 16.9068C43.0168 16.9028 43.0255 16.897 43.0329 16.8896C43.0402 16.8823 43.046 16.8736 43.05 16.864C43.0539 16.8544 43.056 16.8441 43.056 16.8338V16.3382L43.3332 16.1773C43.3421 16.1723 43.3499 16.1655 43.3561 16.1574C43.3623 16.1493 43.3669 16.14 43.3696 16.1302C43.3723 16.1203 43.373 16.11 43.3716 16.0998C43.3703 16.0897 43.367 16.0799 43.3619 16.0711C43.3568 16.0622 43.3501 16.0544 43.342 16.0482C43.3339 16.0419 43.3246 16.0373 43.3147 16.0347C43.3049 16.032 43.2946 16.0313 43.2844 16.0326C43.2743 16.0339 43.2645 16.0372 43.2556 16.0423L42.9382 16.2262C42.9263 16.2329 42.9164 16.2427 42.9095 16.2546C42.9027 16.2665 42.8992 16.28 42.8994 16.2937V16.8424C42.9015 16.8616 42.9106 16.8793 42.9249 16.8923C42.9392 16.9053 42.9577 16.9125 42.977 16.9128Z" fill="#516EB4"/>
<path d="M42.5168 16.6515C42.5375 16.6511 42.5573 16.6427 42.5718 16.6279C42.5863 16.6131 42.5944 16.5932 42.5944 16.5725V16.0683L42.8731 15.9089C42.8921 15.8984 42.9062 15.8808 42.9123 15.8599C42.9183 15.8391 42.9158 15.8166 42.9054 15.7976C42.8949 15.7785 42.8773 15.7644 42.8564 15.7584C42.8355 15.7523 42.8131 15.7548 42.7941 15.7653L42.478 15.9491C42.4661 15.956 42.4562 15.9658 42.4491 15.9776C42.4421 15.9895 42.4382 16.0029 42.4378 16.0166V16.5653C42.4368 16.5763 42.4381 16.5873 42.4416 16.5978C42.4452 16.6082 42.4508 16.6178 42.4583 16.6259C42.4657 16.634 42.4748 16.6405 42.4848 16.6449C42.4949 16.6493 42.5058 16.6516 42.5168 16.6515Z" fill="#516EB4"/>
<path d="M31.1494 10.9547L34.1716 12.6999V8.17674L31.1494 6.43872V10.9547Z" fill="#E6E6E6"/>
<g style="mix-blend-mode:multiply" opacity="0.1">
<path d="M31.1494 10.9547L34.1716 12.6999V8.17674L31.1494 6.43872V10.9547Z" fill="black"/>
</g>
<path d="M38.0444 10.465L34.1719 12.7V8.17683L38.0444 5.95044V10.465Z" fill="#F5F5F5"/>
<path d="M34.5293 8.42387V12.4917L37.6865 10.6718V6.60254L34.5293 8.42387Z" fill="#263238"/>
<path d="M37.5385 6.68872L34.5293 8.42387V12.315L37.5385 10.5799V6.68872Z" fill="#37474F"/>
<path d="M36.0317 7.56052V11.4488L36.184 11.3612V7.4729L36.0317 7.56052Z" fill="#263238"/>
<path d="M36.3188 9.16821L36.3504 9.18689V9.7284L36.3188 9.70973V9.16821Z" fill="#E0E0E0"/>
<path d="M36.3506 9.1867L36.5273 9.08472V9.62623L36.3506 9.72822V9.1867Z" fill="#FAFAFA"/>
<path opacity="0.05" d="M36.5273 9.23413L36.4497 9.27866V9.36628C36.4498 9.36811 36.4503 9.36989 36.4513 9.37147C36.4522 9.37306 36.4535 9.3744 36.455 9.37538C36.4566 9.37637 36.4583 9.37696 36.4601 9.37713C36.462 9.3773 36.4638 9.37702 36.4655 9.37633L36.5273 9.34042V9.23413Z" fill="black"/>
<path d="M36.5271 9.08483L36.4941 9.06616L36.3188 9.16814L36.3504 9.18682L36.5271 9.08483Z" fill="#EBEBEB"/>
<path d="M36.4179 9.25998L36.4983 9.30738L36.5313 9.25136L36.4509 9.20396C36.4453 9.20187 36.4392 9.20187 36.4337 9.20396C36.4273 9.20865 36.4221 9.21469 36.4183 9.22164C36.4146 9.2286 36.4125 9.2363 36.4121 9.24418C36.4121 9.24418 36.4135 9.25855 36.4179 9.25998Z" fill="#E0E0E0"/>
<path opacity="0.1" d="M36.4497 9.27865L36.4799 9.29588V9.2571L36.51 9.23843L36.4813 9.22119L36.4497 9.23987V9.27865Z" fill="black"/>
<path d="M36.4883 9.2629V9.34765L36.8115 9.16092V9.07617L36.4883 9.2629Z" fill="#FAFAFA"/>
<path d="M36.4882 9.26284L36.4595 9.24561V9.33035L36.4882 9.34759V9.26284Z" fill="#E0E0E0"/>
<path d="M36.8114 9.0761L36.7827 9.0603L36.4595 9.2456L36.4882 9.26283L36.8114 9.0761Z" fill="#EBEBEB"/>
<path d="M36.4092 9.49853C36.4088 9.48786 36.4111 9.47727 36.4159 9.46772C36.4206 9.45818 36.4277 9.45 36.4365 9.44394C36.4538 9.43389 36.4667 9.44394 36.4667 9.46118C36.4657 9.47658 36.4596 9.49122 36.4494 9.50284V9.55742C36.4494 9.56092 36.4485 9.56435 36.4467 9.56737C36.4449 9.57039 36.4424 9.5729 36.4394 9.57465H36.4293V9.51863C36.4164 9.52151 36.4092 9.51289 36.4092 9.49853Z" fill="#455A64"/>
<path d="M38.044 5.95041L35.0219 4.19946L31.1494 6.43878L34.1716 8.1768L38.044 5.95041Z" fill="#FAFAFA"/>
<path opacity="0.4" d="M20.8072 55.5803C21.0772 55.7383 21.0772 55.994 20.8072 56.1549C20.656 56.232 20.4886 56.2723 20.3188 56.2723C20.149 56.2723 19.9817 56.232 19.8305 56.1549C19.5604 55.9969 19.5604 55.7412 19.8305 55.5803C19.9817 55.5031 20.149 55.4629 20.3188 55.4629C20.4886 55.4629 20.656 55.5031 20.8072 55.5803Z" fill="#516EB4"/>
<path opacity="0.4" d="M28.2808 60.2112C28.5494 60.3692 28.5494 60.6249 28.2808 60.7857C28.1295 60.8636 27.9619 60.9042 27.7917 60.9042C27.6216 60.9042 27.4539 60.8636 27.3026 60.7857C27.0326 60.6292 27.0326 60.3735 27.3026 60.2112C27.4541 60.134 27.6217 60.0938 27.7917 60.0938C27.9617 60.0938 28.1293 60.134 28.2808 60.2112Z" fill="#516EB4"/>
<path d="M20.898 55.3606H19.7402L19.8595 55.859C19.8676 55.8947 19.8837 55.9282 19.9066 55.9568C19.9295 55.9854 19.9585 56.0084 19.9916 56.0242C20.0926 56.0757 20.2043 56.1025 20.3177 56.1025C20.431 56.1025 20.5427 56.0757 20.6437 56.0242C20.6803 56.0075 20.7121 55.9816 20.7359 55.9492C20.7598 55.9168 20.775 55.8788 20.7802 55.8389L20.898 55.3606Z" fill="#37474F"/>
<path d="M20.7558 55.7025C20.781 55.6889 20.8046 55.6725 20.8261 55.6536L20.8908 55.3879C20.8566 55.4244 20.8175 55.4558 20.7744 55.4813C20.637 55.5504 20.4857 55.5873 20.3319 55.5893C20.1781 55.5913 20.0259 55.5583 19.8867 55.4927L19.9155 55.3735L19.9069 55.3606H19.7402L19.8595 55.859C19.8676 55.8947 19.8837 55.9282 19.9066 55.9568C19.9295 55.9854 19.9585 56.0084 19.9916 56.0242C20.1377 56.0988 20.305 56.1211 20.4656 56.0874C20.1783 56.1089 19.9801 55.9825 19.9499 55.8662C19.9385 55.8202 19.9169 55.7226 19.9169 55.7226C20.0493 55.7825 20.1934 55.8117 20.3386 55.8083C20.4839 55.8048 20.6264 55.7686 20.7558 55.7025Z" fill="#263238"/>
<path d="M20.9567 55.214C20.9501 55.2459 20.9375 55.2761 20.9194 55.3031C20.8819 55.3565 20.8328 55.4007 20.7757 55.4324C20.6346 55.504 20.4786 55.5414 20.3204 55.5414C20.1622 55.5414 20.0062 55.504 19.8651 55.4324C19.808 55.4007 19.7589 55.3565 19.7214 55.3031C19.7033 55.2761 19.6907 55.2459 19.6841 55.214C19.6777 55.15 19.6922 55.0857 19.7253 55.0306C19.7584 54.9755 19.8084 54.9325 19.8679 54.9081C20.009 54.8364 20.165 54.7991 20.3233 54.7991C20.4815 54.7991 20.6375 54.8364 20.7786 54.9081C20.8373 54.9331 20.8864 54.9763 20.9185 55.0315C20.9506 55.0866 20.964 55.1506 20.9567 55.214Z" fill="#455A64"/>
<path d="M20.9238 55.3032C20.8863 55.3566 20.8372 55.4008 20.7801 55.4324C20.639 55.5041 20.483 55.5415 20.3248 55.5415C20.1666 55.5415 20.0105 55.5041 19.8695 55.4324C19.8124 55.4008 19.7633 55.3566 19.7258 55.3032C19.7077 55.2762 19.6951 55.2459 19.6885 55.2141L19.7172 55.4095C19.7287 55.4565 19.7505 55.5003 19.7811 55.5378C19.8117 55.5753 19.8502 55.6056 19.8939 55.6264C20.0276 55.6934 20.1752 55.7284 20.3248 55.7284C20.4744 55.7284 20.622 55.6934 20.7557 55.6264C20.7978 55.6042 20.8346 55.5732 20.8636 55.5355C20.8926 55.4979 20.9131 55.4544 20.9238 55.408L20.9511 55.2199C20.9469 55.249 20.9377 55.2772 20.9238 55.3032Z" fill="#37474F"/>
<path d="M20.6984 54.9513C20.5808 54.8918 20.4509 54.8608 20.3192 54.8608C20.1874 54.8608 20.0575 54.8918 19.94 54.9513C19.8914 54.9716 19.8505 55.0066 19.8229 55.0515C19.7953 55.0963 19.7825 55.1487 19.7863 55.2012C19.7968 55.2416 19.816 55.2793 19.8425 55.3115C19.8691 55.3438 19.9023 55.3698 19.94 55.3879C20.0573 55.4481 20.1873 55.4794 20.3192 55.4794C20.4511 55.4794 20.581 55.4481 20.6984 55.3879C20.736 55.3698 20.7693 55.3438 20.7958 55.3115C20.8224 55.2793 20.8416 55.2416 20.8521 55.2012C20.8559 55.1487 20.8431 55.0963 20.8155 55.0515C20.7879 55.0066 20.747 54.9716 20.6984 54.9513Z" fill="#263238"/>
<path d="M19.8208 55.2846C19.8527 55.3271 19.8934 55.3624 19.94 55.388C20.0574 55.4481 20.1874 55.4794 20.3192 55.4794C20.4511 55.4794 20.5811 55.4481 20.6984 55.388C20.7451 55.3624 20.7857 55.3271 20.8176 55.2846C20.8129 55.2417 20.7973 55.2008 20.7721 55.1658C20.7469 55.1308 20.7131 55.103 20.674 55.0849C20.5651 55.0289 20.4445 54.9998 20.3221 54.9998C20.1997 54.9998 20.0791 55.0289 19.9702 55.0849C19.93 55.1022 19.895 55.1297 19.8688 55.1648C19.8426 55.1998 19.826 55.2411 19.8208 55.2846Z" fill="#FAFAFA"/>
<path d="M20.7459 53.4746L20.417 53.7618L20.7402 53.5966C20.7436 53.7034 20.728 53.8099 20.6942 53.9112C20.6067 53.9686 20.5237 54.0324 20.4457 54.1022L20.6942 53.9931C20.7056 54.1349 20.6934 54.2775 20.6583 54.4154C20.6212 54.5137 20.578 54.6097 20.5291 54.7027C20.5094 54.7472 20.4869 54.7904 20.4615 54.8319V54.8405C20.4026 54.8089 20.3423 54.7802 20.2777 54.7515C20.2146 54.603 20.1706 54.4471 20.147 54.2875C20.0493 53.6297 20.5348 53.2318 20.9312 53.0896C20.8466 53.2056 20.7838 53.3361 20.7459 53.4746Z" fill="#516EB4"/>
<path d="M20.4629 53.5132C20.3994 53.588 20.3542 53.6765 20.3308 53.7717C20.3039 53.8654 20.2876 53.9617 20.2819 54.059C20.2673 54.2552 20.2993 54.4521 20.3753 54.6336C20.3766 54.6355 20.3773 54.6377 20.3773 54.64C20.3773 54.6423 20.3766 54.6446 20.3753 54.6465C20.3735 54.648 20.3712 54.6488 20.3688 54.6488C20.3665 54.6488 20.3642 54.648 20.3624 54.6465C20.2897 54.4642 20.2602 54.2675 20.2762 54.0719C20.2845 53.9746 20.3028 53.8783 20.3308 53.7847C20.3524 53.6849 20.3977 53.5918 20.4629 53.5132Z" fill="white"/>
<path d="M19.3237 53.7332C19.4297 53.9232 19.5233 54.1199 19.6038 54.3221L19.9557 54.4442H19.68L19.7834 54.697L20.1267 54.8334H19.8394C19.858 54.9962 19.9309 55.148 20.0462 55.2643C20.1453 55.3462 20.1899 55.3563 20.2358 55.339C20.2818 55.3218 20.3249 55.2457 20.3651 55.1322C20.4085 54.933 20.3986 54.7259 20.3364 54.5318C20.3173 54.4656 20.2892 54.4023 20.2531 54.3436C20.0275 54.0342 19.6972 53.8173 19.3237 53.7332Z" fill="#516EB4"/>
<path opacity="0.1" d="M19.3237 53.7332C19.4297 53.9232 19.5233 54.1199 19.6038 54.3221L19.9557 54.4442H19.68L19.7834 54.697L20.1267 54.8334H19.8394C19.858 54.9962 19.9309 55.148 20.0462 55.2643C20.1453 55.3462 20.1899 55.3563 20.2358 55.339C20.2818 55.3218 20.3249 55.2457 20.3651 55.1322C20.4085 54.933 20.3986 54.7259 20.3364 54.5318C20.3173 54.4656 20.2892 54.4023 20.2531 54.3436C20.0275 54.0342 19.6972 53.8173 19.3237 53.7332Z" fill="black"/>
<path d="M19.6816 53.9183C19.8568 54.0299 20.007 54.1767 20.1226 54.3492C20.1795 54.4378 20.2221 54.5347 20.249 54.6365C20.2752 54.7382 20.2844 54.8435 20.2763 54.9482C20.2751 54.8448 20.2606 54.742 20.2332 54.6423C20.2057 54.5414 20.1647 54.4447 20.1111 54.355C19.9994 54.179 19.8528 54.0279 19.6802 53.9111L19.6816 53.9183Z" fill="white"/>
<path d="M21.5702 53.8565C21.5338 53.8538 21.4973 53.8538 21.461 53.8565C21.3185 53.8735 21.1787 53.9077 21.0445 53.9585C20.9955 53.9771 20.9476 53.9982 20.9008 54.0217C20.8764 54.0332 20.852 54.0447 20.8276 54.0591C20.7087 54.1213 20.6009 54.2028 20.5087 54.3004C20.466 54.3471 20.4289 54.3987 20.3981 54.4541C20.3948 54.4615 20.391 54.4687 20.3866 54.4756L20.3622 54.5316C20.2872 54.6916 20.2545 54.8682 20.2674 55.0444C20.2693 55.1442 20.2933 55.2423 20.3378 55.3317L20.3493 55.3403C20.3852 55.3619 20.4412 55.3489 20.546 55.29C20.6861 55.1876 20.7873 55.0408 20.8333 54.8735L20.546 54.8232L20.9224 54.7485L21.0674 54.5173L20.7802 54.4656L21.1637 54.4067C21.285 54.2158 21.4174 54.0321 21.5601 53.8565H21.5702Z" fill="#516EB4"/>
<path d="M21.461 53.8608C21.3185 53.8777 21.1787 53.912 21.0445 53.9628C20.9955 53.9813 20.9476 54.0024 20.9008 54.026C20.8764 54.0375 20.852 54.049 20.8276 54.0633C20.7087 54.1256 20.6009 54.2071 20.5087 54.3046C20.466 54.3514 20.4289 54.403 20.3981 54.4583C20.3948 54.4658 20.391 54.473 20.3866 54.4799L20.3622 54.5359C20.2872 54.6959 20.2545 54.8725 20.2674 55.0487C20.2693 55.1485 20.2933 55.2466 20.3378 55.336L20.3493 55.3446C20.3563 55.3489 20.3641 55.3519 20.3722 55.3532C20.3362 54.9956 20.442 54.6381 20.6668 54.3576C20.8917 54.0772 21.2176 53.8962 21.5745 53.8536C21.5365 53.853 21.4986 53.8554 21.461 53.8608Z" fill="#516EB4"/>
<path opacity="0.2" d="M21.461 53.8608C21.3185 53.8777 21.1787 53.912 21.0445 53.9628C20.9955 53.9813 20.9476 54.0024 20.9008 54.026C20.8764 54.0375 20.852 54.049 20.8276 54.0633C20.7087 54.1256 20.6009 54.2071 20.5087 54.3046C20.466 54.3514 20.4289 54.403 20.3981 54.4583C20.3948 54.4658 20.391 54.473 20.3866 54.4799L20.3622 54.5359C20.2872 54.6959 20.2545 54.8725 20.2674 55.0487C20.2693 55.1485 20.2933 55.2466 20.3378 55.336L20.3493 55.3446C20.3563 55.3489 20.3641 55.3519 20.3722 55.3532C20.3362 54.9956 20.442 54.6381 20.6668 54.3576C20.8917 54.0772 21.2176 53.8962 21.5745 53.8536C21.5365 53.853 21.4986 53.8554 21.461 53.8608Z" fill="black"/>
<path d="M20.3653 55.3563C20.3559 55.212 20.3655 55.0671 20.3941 54.9254C20.4202 54.7841 20.4686 54.6478 20.5377 54.5218C20.6133 54.3985 20.7106 54.2899 20.825 54.2015C20.9371 54.1119 21.0608 54.038 21.1927 53.9817C21.0677 54.0481 20.9498 54.127 20.8408 54.2173C20.7857 54.2614 20.7339 54.3094 20.6857 54.3609C20.6358 54.4103 20.5924 54.4658 20.5564 54.5261C20.4877 54.6502 20.4392 54.7846 20.4127 54.924C20.3816 55.0629 20.3691 55.2054 20.3754 55.3477L20.3653 55.3563Z" fill="white"/>
<path d="M28.3697 59.9912H27.2134L27.3326 60.4896C27.3408 60.5255 27.3571 60.5591 27.3802 60.5877C27.4034 60.6163 27.4328 60.6393 27.4662 60.6548C27.567 60.706 27.6785 60.7327 27.7915 60.7327C27.9046 60.7327 28.0161 60.706 28.1169 60.6548C28.1524 60.6383 28.1833 60.6133 28.2068 60.5819C28.2304 60.5506 28.2459 60.514 28.2519 60.4753L28.3697 59.9912Z" fill="#37474F"/>
<path d="M28.2294 60.3331C28.2536 60.3187 28.2767 60.3023 28.2983 60.2842L28.3629 60.0185C28.3294 60.0557 28.2901 60.0872 28.2466 60.1119C28.1092 60.181 27.9579 60.2179 27.8041 60.2199C27.6503 60.2219 27.4981 60.1889 27.3589 60.1234L27.3876 60.0041L27.3776 59.9912H27.2124L27.3316 60.4896C27.3398 60.5255 27.3561 60.5591 27.3793 60.5877C27.4024 60.6163 27.4318 60.6393 27.4652 60.6548C27.6109 60.7291 27.7777 60.7514 27.9378 60.718C27.6505 60.7396 27.4523 60.6132 27.4221 60.4968C27.4106 60.4509 27.3905 60.3532 27.3905 60.3532C27.5229 60.4131 27.667 60.4424 27.8122 60.4389C27.9575 60.4354 28.1 60.3992 28.2294 60.3331Z" fill="#263238"/>
<path d="M28.4301 59.8447C28.4236 59.8768 28.4104 59.9072 28.3913 59.9338C28.3542 59.9876 28.305 60.0318 28.2477 60.0631C28.1068 60.1345 27.951 60.1717 27.7931 60.1717C27.6351 60.1717 27.4794 60.1345 27.3385 60.0631C27.2809 60.0322 27.2316 59.9878 27.1948 59.9338C27.1757 59.9072 27.1625 59.8768 27.156 59.8447C27.1331 59.7356 27.1948 59.6221 27.3399 59.5374C27.4808 59.4659 27.6365 59.4287 27.7945 59.4287C27.9525 59.4287 28.1082 59.4659 28.2491 59.5374C28.3082 59.5625 28.3577 59.6059 28.3902 59.6613C28.4228 59.7166 28.4368 59.7809 28.4301 59.8447Z" fill="#455A64"/>
<path d="M28.393 59.9338C28.3559 59.9875 28.3067 60.0318 28.2494 60.0631C28.1085 60.1345 27.9527 60.1717 27.7948 60.1717C27.6368 60.1717 27.481 60.1345 27.3401 60.0631C27.2825 60.0322 27.2332 59.9878 27.1965 59.9338C27.1774 59.9072 27.1642 59.8768 27.1577 59.8447L27.1864 60.0401C27.198 60.0871 27.2198 60.1309 27.2503 60.1684C27.2809 60.2059 27.3194 60.2362 27.3631 60.257C27.4968 60.3243 27.6444 60.3593 27.794 60.3593C27.9437 60.3593 28.0913 60.3243 28.2249 60.257C28.268 60.2361 28.3061 60.2062 28.3366 60.1692C28.3671 60.1323 28.3893 60.0892 28.4016 60.0429V60.0329L28.4289 59.8447C28.4233 59.8766 28.4111 59.9069 28.393 59.9338Z" fill="#37474F"/>
<path d="M28.1702 59.5819C28.0529 59.5224 27.9232 59.4915 27.7917 59.4915C27.6602 59.4915 27.5305 59.5224 27.4132 59.5819C27.3641 59.6016 27.3226 59.6365 27.2947 59.6814C27.2668 59.7264 27.254 59.779 27.2581 59.8318C27.2687 59.8724 27.2881 59.9101 27.3149 59.9424C27.3417 59.9746 27.3753 60.0006 27.4132 60.0185C27.5303 60.0788 27.66 60.1102 27.7917 60.1102C27.9233 60.1102 28.0531 60.0788 28.1702 60.0185C28.2078 60.0004 28.2411 59.9744 28.2676 59.9421C28.2942 59.9099 28.3134 59.8722 28.3239 59.8318C28.3283 59.7792 28.3158 59.7265 28.2881 59.6815C28.2605 59.6366 28.2191 59.6016 28.1702 59.5819Z" fill="#263238"/>
<path d="M27.2939 59.9152C27.3252 59.9584 27.366 59.9938 27.4132 60.0186C27.5302 60.0788 27.66 60.1102 27.7917 60.1102C27.9233 60.1102 28.0531 60.0788 28.1701 60.0186C28.2171 59.9934 28.2578 59.9581 28.2894 59.9152C28.2848 59.8723 28.2692 59.8313 28.244 59.7963C28.2188 59.7613 28.1849 59.7335 28.1457 59.7155C28.0366 59.6596 27.9157 59.6304 27.7931 59.6304C27.6705 59.6304 27.5496 59.6596 27.4405 59.7155C27.4007 59.7331 27.3663 59.7608 27.3406 59.7958C27.3148 59.8308 27.2988 59.872 27.2939 59.9152Z" fill="#FAFAFA"/>
<path d="M28.2191 58.1054L27.8887 58.3927L28.2119 58.2275C28.2153 58.3341 28.2002 58.4406 28.1674 58.5421C28.0793 58.5993 27.9958 58.6631 27.9175 58.7331L28.1659 58.6239C28.1773 58.7657 28.1652 58.9084 28.13 59.0462C28.0935 59.1446 28.0508 59.2405 28.0022 59.3335C27.9821 59.3781 27.959 59.4213 27.9333 59.4628V59.4714C27.8744 59.4398 27.8126 59.4111 27.7494 59.3824C27.6858 59.234 27.6419 59.0781 27.6187 58.9184C27.521 58.2605 28.0051 57.8627 28.4015 57.7205C28.3182 57.8368 28.2564 57.9672 28.2191 58.1054Z" fill="#516EB4"/>
<path d="M27.9344 58.1443C27.8717 58.2193 27.8269 58.3078 27.8037 58.4028C27.7771 58.4966 27.7603 58.5929 27.7535 58.6901C27.7386 58.8865 27.7711 59.0835 27.8483 59.2647C27.8483 59.2647 27.8483 59.2762 27.8483 59.2776C27.8467 59.279 27.8446 59.2798 27.8425 59.2798C27.8404 59.2798 27.8384 59.279 27.8368 59.2776C27.7625 59.0957 27.7329 58.8987 27.7506 58.703C27.7577 58.6056 27.7755 58.5093 27.8037 58.4158C27.8263 58.3166 27.8709 58.2237 27.9344 58.1443Z" fill="white"/>
<path d="M26.7954 58.364C26.9005 58.5543 26.9936 58.751 27.0741 58.9529L27.426 59.075H27.1516L27.2536 59.3278L27.5969 59.4643H27.3096C27.3286 59.6273 27.402 59.7791 27.5179 59.8952C27.617 59.9771 27.6615 59.9871 27.7075 59.9699C27.7535 59.9527 27.7966 59.8765 27.8353 59.7631C27.8797 59.564 27.8703 59.3568 27.8081 59.1626C27.789 59.0962 27.7605 59.0328 27.7233 58.9745C27.4988 58.6646 27.1688 58.4475 26.7954 58.364Z" fill="#516EB4"/>
<path opacity="0.1" d="M26.7954 58.364C26.9005 58.5543 26.9936 58.751 27.0741 58.9529L27.426 59.075H27.1516L27.2536 59.3278L27.5969 59.4643H27.3096C27.3286 59.6273 27.402 59.7791 27.5179 59.8952C27.617 59.9771 27.6615 59.9871 27.7075 59.9699C27.7535 59.9527 27.7966 59.8765 27.8353 59.7631C27.8797 59.564 27.8703 59.3568 27.8081 59.1626C27.789 59.0962 27.7605 59.0328 27.7233 58.9745C27.4988 58.6646 27.1688 58.4475 26.7954 58.364Z" fill="black"/>
<path d="M27.1533 58.5492C27.3288 58.6604 27.479 58.8072 27.5943 58.9801C27.6517 59.0685 27.6948 59.1655 27.7221 59.2674C27.7479 59.3691 27.7566 59.4744 27.748 59.5791C27.7462 59.4756 27.7313 59.3728 27.7034 59.2731C27.6764 59.1723 27.6358 59.0757 27.5828 58.9858C27.4706 58.8103 27.324 58.6593 27.1519 58.542L27.1533 58.5492Z" fill="white"/>
<path d="M29.0421 58.4876C29.0058 58.4849 28.9693 58.4849 28.9329 58.4876C28.7904 58.5046 28.6506 58.5388 28.5164 58.5896C28.4661 58.6083 28.4173 58.6284 28.3727 58.6528C28.3483 58.6643 28.3239 58.6758 28.3009 58.6887C28.182 58.7516 28.0738 58.833 27.9806 58.9301C27.938 58.9771 27.9013 59.0292 27.8714 59.0852C27.8671 59.0921 27.8632 59.0993 27.86 59.1067C27.8502 59.1248 27.8415 59.1435 27.8341 59.1627C27.7598 59.3229 27.7271 59.4993 27.7393 59.6755C27.7414 59.7755 27.766 59.8736 27.8111 59.9628L27.8212 59.9714C27.8571 59.993 27.9131 59.98 28.0194 59.9212C28.1598 59.819 28.2611 59.6721 28.3067 59.5046L28.0194 59.4543L28.3957 59.3796L28.5494 59.1412L28.2621 59.0895L28.6442 59.0306C28.7657 58.8394 28.8986 58.6557 29.0421 58.4805V58.4876Z" fill="#516EB4"/>
<path d="M28.9329 58.4919C28.7904 58.5089 28.6506 58.5431 28.5164 58.5939C28.4661 58.6126 28.4173 58.6327 28.3727 58.6571C28.3483 58.6686 28.3239 58.6801 28.3009 58.693C28.182 58.7558 28.0738 58.8373 27.9806 58.9343C27.938 58.9814 27.9013 59.0335 27.8714 59.0894C27.8671 59.0963 27.8632 59.1035 27.86 59.111C27.8502 59.1291 27.8415 59.1478 27.8341 59.167C27.7598 59.3272 27.7271 59.5036 27.7393 59.6798C27.7414 59.7797 27.766 59.8779 27.8111 59.9671L27.8212 59.9757C27.829 59.9794 27.8372 59.9823 27.8456 59.9843C27.8345 59.6761 27.9075 59.3708 28.0567 59.1009C28.3054 58.7865 28.6559 58.5686 29.0478 58.4847C29.0094 58.484 28.971 58.4864 28.9329 58.4919Z" fill="#516EB4"/>
<path opacity="0.2" d="M28.9329 58.4919C28.7904 58.5089 28.6506 58.5431 28.5164 58.5939C28.4661 58.6126 28.4173 58.6327 28.3727 58.6571C28.3483 58.6686 28.3239 58.6801 28.3009 58.693C28.182 58.7558 28.0738 58.8373 27.9806 58.9343C27.938 58.9814 27.9013 59.0335 27.8714 59.0894C27.8671 59.0963 27.8632 59.1035 27.86 59.111C27.8502 59.1291 27.8415 59.1478 27.8341 59.167C27.7598 59.3272 27.7271 59.5036 27.7393 59.6798C27.7414 59.7797 27.766 59.8779 27.8111 59.9671L27.8212 59.9757C27.829 59.9794 27.8372 59.9823 27.8456 59.9843C27.8345 59.6761 27.9075 59.3708 28.0567 59.1009C28.3054 58.7865 28.6559 58.5686 29.0478 58.4847C29.0094 58.484 28.971 58.4864 28.9329 58.4919Z" fill="black"/>
<path d="M27.8384 59.9872C27.8284 59.843 27.8376 59.6981 27.8657 59.5563C27.8924 59.4151 27.9409 59.2789 28.0093 59.1526C28.0854 59.0297 28.1826 58.9213 28.2966 58.8323C28.4084 58.7431 28.5315 58.6692 28.6628 58.6125C28.5376 58.6792 28.4192 58.7582 28.3095 58.8481C28.2548 58.8926 28.2029 58.9406 28.1544 58.9918C28.105 59.0416 28.0616 59.097 28.0251 59.1569C27.9564 59.2811 27.9079 59.4154 27.8815 59.5548C27.851 59.6939 27.8384 59.8363 27.8441 59.9785L27.8384 59.9872Z" fill="white"/>
</svg>
