<svg fill="none" height="24" viewBox="0 0 24 24" width="24" xmlns="http://www.w3.org/2000/svg" xmlns:xlink="http://www.w3.org/1999/xlink"><clipPath id="a"><path d="m0 0h24v24h-24z"/></clipPath><g clip-path="url(#a)"><path d="m22.5555 13.6619-1.9-6.83597c-.5569-2.00266-1.7673-3.76171-3.4387-4.99753-1.6714-1.235813-3.7079-1.877479-5.7859-1.82299891-2.07791.05448011-4.07802.80197991-5.68237 2.12367891-1.60434 1.3217-2.72086 3.14176-3.17206 5.17085l-1.471 6.61497c-.162484.731-.158728 1.4891.01099 2.2184.16972.7292.50107 1.4111.96959 1.9952s1.06224 1.0555 1.73733 1.3794 1.41431.4921 2.16309.492h1.114c.22952 1.1303.84273 2.1465 1.73574 2.8764s2.01089 1.1286 3.16429 1.1286c1.1533 0 2.2712-.3987 3.1642-1.1286s1.5063-1.7461 1.7358-2.8764h.838c.7708.0001 1.5312-.1781 2.2217-.5205.6906-.3425 1.2926-.84 1.7591-1.4536s.7847-1.3268.93-2.0838c.1452-.757.1134-1.5374-.0928-2.2801zm-10.555 8.338c-.6183-.0025-1.2207-.196-1.7247-.5541-.5041-.358-.88525-.863-1.09133-1.4459h5.63203c-.2061.5829-.5873 1.0879-1.0913 1.4459-.5041.3581-1.1065.5516-1.7247.5541zm8.126-5.185c-.2787.3697-.6397.6693-1.0544.875s-.8717.3119-1.3346.31h-11.75103c-.44922 0-.89268-.101-1.29766-.2954s-.76113-.4772-1.04218-.8277c-.28104-.3504-.4798-.7595-.5816-1.197s-.10404-.8924-.00656-1.3309l1.47-6.61597c.35435-1.59379 1.23131-3.02339 2.49146-4.06155 1.26015-1.03815 2.83116-1.62527 4.46327-1.66803 1.6322-.04276 3.2318.4613 4.5446 1.43205 1.3128.97076 2.2634 2.35248 2.7007 3.92553l1.9 6.83597c.1255.4454.1455.9139.0584 1.3684-.0872.4544-.279.8823-.5604 1.2496z" fill="#000"/></g></svg>