<svg fill="none" height="24" viewBox="0 0 24 24" width="24" xmlns="http://www.w3.org/2000/svg"><path d="m15.6459 18.0148c.4288 1.6004-.5209 3.2454-2.1213 3.6742s-3.2454-.5209-3.67424-2.1213m-7.79353-7.9544c-.38949-1.3982.01555-2.90981 1.05195-3.92592m9.03752-1.94653c.3042-.5473.4044-1.2088.2296-1.8614-.3574-1.33366-1.7282-2.12512-3.0619-1.76777-1.33366.35736-2.12512 1.7282-1.76776 3.06187.17486.65259.59239 1.17536 1.12949 1.49724m11.64327.04921c-.3618-1.40561-1.4684-2.51221-2.874-2.87398m.0456 5.59926c-.3569-1.33213-1.3098-2.44609-2.6491-3.09683-1.3393-.65073-2.9552-.78493-4.4923-.37307-1.53706.41186-2.86939 1.33604-3.70387 2.56923-.83448 1.23318-1.10275 2.67439-.74581 4.00649.59058 2.2041.4759 3.9624.10295 5.2986-.42507 1.5228-.6376 2.2843-.58019 2.4372.0657.1749.11321.2229.28745.2904.15229.059.79206-.1124 2.0716-.4553l11.86507-3.1792c1.2795-.3429 1.9193-.5143 2.0217-.6415.1171-.1456.1343-.2109.1037-.3953-.0267-.1611-.5915-.7142-1.721-1.8205-.9911-.9707-1.9696-2.4362-2.5602-4.64022z" stroke="#000" stroke-linecap="round" stroke-linejoin="round" stroke-width="2"/></svg>