<svg fill="none" height="24" viewBox="0 0 24 24" width="24" xmlns="http://www.w3.org/2000/svg"><path d="m15.0002 19c0 1.6569-1.3431 3-3 3-1.6568 0-2.99995-1.3431-2.99995-3m4.79655-12.76144c.4354-.44992.7034-1.06294.7034-1.73856 0-1.38071-1.1192-2.5-2.5-2.5-1.3807 0-2.49995 1.11929-2.49995 2.5 0 .67562.268 1.28864.70345 1.73856m-7.65663 2.0844c-.01435-1.45135.76813-2.80665 2.03221-3.5199m16.87412 3.5199c.0144-1.45135-.7681-2.80665-2.0322-3.5199m-1.421 6.39694c0-1.37913-.6321-2.70177-1.7573-3.67696-1.1252-.97518-2.6514-1.52304-4.2427-1.52304s-3.11737.54786-4.24259 1.52304c-1.12522.97519-1.75736 2.29783-1.75736 3.67696 0 2.2818-.56587 3.9506-1.27194 5.1447-.80472 1.3609-1.20709 2.0414-1.1912 2.2039.01818.186.05165.2447.20248.355.13183.0964.79417.0964 2.11885.0964h12.28366c1.3246 0 1.987 0 2.1188-.0964.1508-.1103.1843-.169.2025-.355.0159-.1625-.3865-.843-1.1912-2.2039-.7061-1.1941-1.272-2.8629-1.272-5.1447z" stroke="#000" stroke-linecap="round" stroke-linejoin="round" stroke-width="2"/></svg>