<svg fill="none" height="25" viewBox="0 0 25 25" width="25" xmlns="http://www.w3.org/2000/svg"><g stroke="#000" stroke-linecap="round" stroke-linejoin="round" stroke-width="2"><path d="m8.9 3.5h-3.8c-.56005 0-.84008 0-1.05399.10899-.18816.09588-.34114.24886-.43702.43702-.10899.21391-.10899.49394-.10899 1.05399v3.8c0 .56005 0 .84008.10899 1.05399.09588.18821.24886.34111.43702.43701.21391.109.49394.109 1.05399.109h3.8c.56005 0 .84008 0 1.05399-.109.18821-.0959.34111-.2488.43701-.43701.109-.21391.109-.49394.109-1.05399v-3.8c0-.56005 0-.84008-.109-1.05399-.0959-.18816-.2488-.34114-.43701-.43702-.21391-.10899-.49394-.10899-1.05399-.10899z"/><path d="m19.9 3.5h-3.8c-.5601 0-.8401 0-1.054.10899-.1882.09588-.3411.24886-.437.43702-.109.21391-.109.49394-.109 1.05399v3.8c0 .56005 0 .84008.109 1.05399.0959.18821.2488.34111.437.43701.2139.109.4939.109 1.054.109h3.8c.5601 0 .8401 0 1.054-.109.1882-.0959.3411-.2488.437-.43701.109-.21391.109-.49394.109-1.05399v-3.8c0-.56005 0-.84008-.109-1.05399-.0959-.18816-.2488-.34114-.437-.43702-.2139-.10899-.4939-.10899-1.054-.10899z"/><path d="m19.9 14.5h-3.8c-.5601 0-.8401 0-1.054.109-.1882.0959-.3411.2488-.437.437-.109.2139-.109.4939-.109 1.054v3.8c0 .5601 0 .8401.109 1.054.0959.1882.2488.3411.437.437.2139.109.4939.109 1.054.109h3.8c.5601 0 .8401 0 1.054-.109.1882-.0959.3411-.2488.437-.437.109-.2139.109-.4939.109-1.054v-3.8c0-.5601 0-.8401-.109-1.054-.0959-.1882-.2488-.3411-.437-.437-.2139-.109-.4939-.109-1.054-.109z"/><path d="m8.9 14.5h-3.8c-.56005 0-.84008 0-1.05399.109-.18816.0959-.34114.2488-.43702.437-.10899.2139-.10899.4939-.10899 1.054v3.8c0 .5601 0 .8401.10899 1.054.09588.1882.24886.3411.43702.437.21391.109.49394.109 1.05399.109h3.8c.56005 0 .84008 0 1.05399-.109.18821-.0959.34111-.2488.43701-.437.109-.2139.109-.4939.109-1.054v-3.8c0-.5601 0-.8401-.109-1.054-.0959-.1882-.2488-.3411-.43701-.437-.21391-.109-.49394-.109-1.05399-.109z"/></g></svg>