<svg fill="none" height="26" viewBox="0 0 26 26" width="26" xmlns="http://www.w3.org/2000/svg" xmlns:xlink="http://www.w3.org/1999/xlink"><clipPath id="a"><path d="m0 0h26v26h-26z"/></clipPath><g clip-path="url(#a)" fill="#000"><path d="m20.5833 2.16667h-1.0833v-1.08334c0-.287315-.1141-.562865-.3173-.766029s-.4787-.317301-.766-.317301c-.2874 0-.5629.114137-.7661.317301-.2031.203164-.3173.478714-.3173.766029v1.08334h-8.66663v-1.08334c0-.287315-.11414-.562865-.3173-.766029-.20317-.203164-.47872-.317301-.76604-.317301-.28731 0-.56286.114137-.76603.317301-.20316.203164-.3173.478714-.3173.766029v1.08334h-1.08333c-1.43606.00172-2.81282.57295-3.82827 1.5884-1.015445 1.01545-1.58667982 2.3922-1.5884 3.82826v12.99997c.00172018 1.4361.572955 2.8128 1.5884 3.8283 1.01545 1.0154 2.39221 1.5867 3.82827 1.5884h15.16663c1.4361-.0017 2.8128-.573 3.8283-1.5884 1.0154-1.0155 1.5867-2.3922 1.5884-3.8283v-12.99997c-.0017-1.43606-.573-2.81281-1.5884-3.82826-1.0155-1.01545-2.3922-1.58668-3.8283-1.5884zm-18.41663 5.41666c0-.86195.34241-1.6886.9519-2.29809.60949-.6095 1.43614-.95191 2.2981-.95191h15.16663c.862 0 1.6886.34241 2.2981.95191.6095.60949.9519 1.43614.9519 2.29809v1.08334h-21.66663zm18.41663 16.24997h-15.16663c-.86196 0-1.68861-.3424-2.2981-.9519s-.9519-1.4361-.9519-2.2981v-9.75h21.66663v9.75c0 .862-.3424 1.6886-.9519 2.2981s-1.4361.9519-2.2981.9519z"/><path d="m13 17.875c.8975 0 1.625-.7275 1.625-1.625s-.7275-1.625-1.625-1.625-1.625.7275-1.625 1.625.7275 1.625 1.625 1.625z"/><path d="m7.58325 17.875c.89746 0 1.625-.7275 1.625-1.625s-.72754-1.625-1.625-1.625-1.625.7275-1.625 1.625.72754 1.625 1.625 1.625z"/><path d="m18.4167 17.875c.8975 0 1.625-.7275 1.625-1.625s-.7275-1.625-1.625-1.625c-.8974 0-1.625.7275-1.625 1.625s.7276 1.625 1.625 1.625z"/></g></svg>