<svg fill="none" height="2667" viewBox="0 0 4000 2667" width="4000" xmlns="http://www.w3.org/2000/svg" xmlns:xlink="http://www.w3.org/1999/xlink"><clipPath id="a"><path d="m0 0h4000v2666.67h-4000z"/></clipPath><g clip-path="url(#a)"><path d="m286.467 2667h3373.373c91.91-21.94 202.19-83.49 274.87-242.17 188.11-410.6-75.89-800.63-531.29-828.73-656.81-40.52-292.8-1089.323-1329.25-804.753-291.43 80.019-925.32-333.057-1298.46 366.843-63.449 119.02-253.125 113.17-505.832 316.21-415.381 333.72-304.3614 1088.16 16.589 1192.6z" fill="#fcecdb"/><path d="m3082.38 2244.13s-67.74-78.68-4.18-128.64c0 0 46.43-27.99 84.3-25.71 0 0-53.64 89.54-36.28 98.44 17.36 8.91 52.54-104.06 52.54-104.06s105.67-10.21 139.65 6.07c0 0-90.33 73.58-71.3 77.96 19.02 4.37 116.58-67.84 116.58-67.84s98.35 16.65 93.11 76.37c-5.24 59.71-39.14 78.15-54.02 76.58-14.9-1.6-102.02-34.7-103.92-22.55-1.89 12.15 50.54 51.85 87.27 53.7 0 0-69.34 76.11-115.42 54.14-46.06-21.96-50-56.79-78.72-69.84-28.72-13.06-53.25-13.03-41.38.3 11.85 13.31 63.84 26.25 80.25 55.18 16.44 28.92 31.17 48.43-16.5 41.29-47.68-7.14-125.17-41.87-128.56-81.64-3.42-39.75-3.42-39.75-3.42-39.75" fill="#599dad"/><path d="m3408 2178.46s-266.03-10.21-324.8 65.58c0 0-12.99 38.75-52.98 74.05l-6.22 16.91s46.09-48.41 62.6-51.35c0 0-25.8-93.88 321.4-105.19" fill="#599dad"/><path d="m3029.99 2317.79s-57.02 42.79-60.99 119.28l10.36.93s18.22-79.07 51.14-110c32.92-30.92-.51-10.21-.51-10.21" fill="#599dad"/><path d="m2847.33 2144.42s107.5-60.21 57.33-141.92c0 0-40.14-50.18-83.14-63.08 0 0 22.94 121.86 0 124.72-22.92 2.87-15.75-137.63-15.75-137.63s-113.25-54.46-157.68-50.16c0 0 70.24 118.98 47.29 116.11-22.92-2.86-101.77-123.28-101.77-123.28s-116.1-21.5-134.73 47.31c-18.63 68.8 11.46 103.21 28.67 107.52 17.2 4.29 127.56 2.86 124.7 17.19-2.87 14.33-77.41 37.27-118.97 24.37 0 0 45.87 113.24 106.08 107.51 60.2-5.73 78.83-43 116.1-45.87s64.5 7.17 45.87 17.21c-18.64 10.02-81.71 3.29-111.81 28.87-30.1 25.6-54.46 41.37 1.44 52.84 55.89 11.46 156.23 4.3 176.29-38.7 20.08-43.01 20.08-43.01 20.08-43.01" fill="#6bb7bf"/><path d="m2511 1938s301.76 97.3 336.25 206.07c0 0-1.44 48.65 28.75 104.46v21.47s-31.62-73-48.87-83c0 0 67.55-94.46-316.13-249" fill="#6bb7bf"/><path d="m2875.88 2250.25s44.79 69.79 19.25 154.75l-11.53-3.18s11.2-93.57-12.25-140.64c-23.42-47.06 4.53-10.93 4.53-10.93" fill="#6bb7bf"/><path d="m3018.02 2061.9s-141.49-79.34-75.46-187.02c0 0 52.81-66.12 109.41-83.12 0 0-30.17 160.57 0 164.34 30.19 3.79 20.76-181.34 20.76-181.34s149.03-71.78 207.5-66.12c0 0-92.44 156.79-62.25 153.02 30.19-3.78 133.95-162.47 133.95-162.47s152.8-28.33 177.34 62.34c24.51 90.69-15.11 136.02-37.74 141.68-22.64 5.68-167.9 3.79-164.13 22.68 3.78 18.89 101.87 49.1 156.57 32.1 0 0-60.36 149.24-139.58 141.69-79.24-7.55-103.76-56.67-152.82-60.46-49.05-3.77-84.89 9.45-60.36 22.68 24.52 13.23 107.53 4.32 147.15 38.06 39.6 33.72 71.68 54.5-1.89 69.61-73.57 15.12-205.63 5.68-232.04-51-26.41-56.67-26.41-56.67-26.41-56.67z" fill="#86d1cd"/><path d="m3459 1790s-396.02 128.38-441.28 271.87c0 0 1.89 64.18-37.72 137.81v28.32s41.5-96.29 64.12-109.5c0 0-88.63-124.61 414.88-328.5" fill="#6bb7bf"/><path d="m2980.05 2199.59s-61.17 92.64-26.31 205.41l15.75-4.21s-15.28-124.22 16.72-186.69c32.02-62.47-6.16-14.51-6.16-14.51z" fill="#6bb7bf"/><path d="m3013.51 2651c153.25 0 277.49-124.47 277.49-278h-555c0 153.53 124.24 278 277.51 278" fill="#efcbab"/><path d="m3081 2648.88c-11.25 1.41-22.73 2.12-34.37 2.12-152.78 0-276.63-124.47-276.63-278h68.73c0 141.84 105.71 258.87 242.27 275.88" fill="#ffebdc"/><path d="m3294 2665h-561c0-18.79 15.29-34 34.14-34h492.72c18.85 0 34.14 15.21 34.14 34" fill="#efcbab"/><path d="m3298 2381h-571v-8h571z" fill="#efcdaf"/><path d="m1148.29 1942.7s87.83-166.17-43.77-229.44c0 0-92.74-31.13-158.391-12.1 0 0 129.881 137.28 102.911 159.93-26.97 22.66-133.726-163.42-133.726-163.42s-189.8 23.84-243.092 66.12c0 0 188.026 94.47 156.325 109.77-31.705 15.3-231.91-73.91-231.91-73.91s-166.264 68.5-133.315 172.16c32.941 103.67 99.837 122.88 125.388 114.15 25.551-8.71 165.549-101.88 173.71-81.12 8.164 20.76-68.25 111.84-132.07 129.7 0 0 152.122 107.27 224.399 50.1 72.276-57.16 65.356-120.38 110.659-154.89 45.302-34.51 88.422-44.17 72.872-15.89-15.56 28.29-101.799 71.82-119.186 129.54-17.384 57.72-35.543 98.11 45.432 66.56 80.974-31.54 203.394-123.75 193.584-195.51-9.82-71.75-9.82-71.75-9.82-71.75" fill="#599dad"/><path d="m549 1956.01s466.01-123.8 600.07-12.77c0 0 38.44 63.55 123.15 110.24l17.78 27.52s-100.79-67.53-131.1-66.16c0 0 8.1-176.71-609.9-58.83" fill="#599dad"/><path d="m1272.87 2053.32s117.27 51.72 154.13 182.94l-17.88 5.74s-63-130.1-133.12-170.73c-70.12-40.65-3.13-17.95-3.13-17.95z" fill="#599dad"/><path d="m1756.7 1687.71s260.22-135.68 146.57-333.73c0 0-92.01-122.28-193.46-156.03 0 0 45.96 291.65-8.84 296.86-54.82 5.2-27.8-328.69-27.8-328.69s-265.73-137.68-371.82-130.6c0 0 158.78 288.18 104.38 279.73-54.41-8.44-233.55-300.65-233.55-300.65s-274.912-59.405-324.157 103.05c-49.244 162.46 19.985 246.48 60.632 257.95 40.645 11.44 303.525 15.87 295.685 49.78-7.84 33.9-186.93 83.22-284.984 49.57 0 0 101.174 272.81 244.914 263.43s190.75-96.79 279.69-100.97c88.92-4.18 153.06 21.63 107.97 44.2-45.07 22.56-194.74 2.05-268.23 60.83-73.48 58.78-132.62 94.58-.33 125.83 132.28 31.28 371.68 21.32 422.5-79.61 50.83-100.95 50.83-100.95 50.83-100.95" fill="#86d1cd"/><path d="m973 1172s709.96 253.53 784.16 515.49c0 0-6.87 115.99 60.84 251.29l-1.51 51.22s-69.93-176.38-110.17-201.5c0 0 167.16-220.59-733.32-616.5z" fill="#6bb7bf"/><path d="m1818.28 1938.8s105.21 170.96 36.34 373.2l-28.13-8.48s34.2-223.99-20.1-338.78c-54.29-114.8 11.89-25.94 11.89-25.94" fill="#6bb7bf"/><path d="m3168 2665h-1486.9l-311.1-1273h1486.9z" fill="#c67022"/><path d="m1059 2665h1486.09l310.91-1273h-1486.08z" fill="#f1a34f"/><path d="m1160 2592h1318.21l275.79-1129h-1318.21z" fill="#fff"/><g fill="#afcdfb"><path d="m2522 1767h123.21l25.79-105h-123.21z"/><path d="m2336 1767h122.39l25.61-105h-122.39z"/><path d="m2149 1767h123.23l25.77-105h-123.21z"/><path d="m1962 1767h121.57l25.43-105h-121.57z"/><path d="m1775 1767h122.39l25.61-105h-122.39z"/><path d="m1587 1767h122.39l25.61-105h-122.39z"/><path d="m1400 1767h122.4l25.6-105h-122.39z"/><path d="m2471 1953h122.4l25.6-106h-122.4z"/><path d="m2285 1953h122.4l25.6-106h-122.4z"/><path d="m2098 1953h123.21l25.79-106h-123.21z"/><path d="m1910 1953h122.39l25.61-106h-122.39z"/><path d="m1724 1953h122.4l25.6-106h-122.39z"/><path d="m1536 1953h121.56l25.44-106h-121.58z"/><path d="m1349 1953h122.39l25.61-106h-122.39z"/><path d="m2424 2136h122.4l25.6-105h-122.39z"/><path d="m2239 2136h122.4l25.6-105h-122.39z"/><path d="m2052 2136h123.21l25.79-105h-123.23z"/><path d="m1864 2136h122.39l25.61-105h-122.39z"/><path d="m1677 2136h123.21l25.79-105h-123.21z"/><path d="m1490 2136h121.57l25.43-105h-121.57z"/><path d="m1303 2136h122.39l25.61-105h-122.4z"/><path d="m2378 2315h122.39l25.61-106h-122.39z"/><path d="m2193 2315h122.39l25.61-106h-122.39z"/><path d="m2005 2315h122.4l25.6-106h-122.4z"/><path d="m1818 2315h122.39l25.61-106h-122.39z"/><path d="m1630 2315h123.21l25.79-106h-123.21z"/><path d="m1444 2315h121.58l25.42-106h-121.56z"/><path d="m1256 2315h122.39l25.61-106h-122.4z"/><path d="m2334 2491h122.39l25.61-105h-122.39z"/><path d="m2148 2491h123.21l25.79-105h-123.21z"/><path d="m1961 2491h122.39l25.61-105h-122.39z"/></g><path d="m3168 2665-316.45-60-307.55 60z" fill="#aa5d17"/><path d="m2593.06 1258c74.25 0 134.86 59.78 136.94 134.05h-54.82c-2.04-43.83-38.09-78.85-82.12-78.85-45.34 0-82.24 37.15-82.24 82.8s36.9 82.79 82.24 82.79c15.14 0 27.4 12.36 27.4 27.6s-12.26 27.61-27.4 27.61c-75.58 0-137.06-61.9-137.06-138s61.48-138 137.06-138" fill="#1c468a"/><path d="m2245.04 1258c74.81 0 135.85 59.78 137.96 134.05h-55.22c-2.07-43.83-38.39-78.85-82.74-78.85-45.67 0-82.82 37.15-82.82 82.8s37.15 82.79 82.82 82.79c15.25 0 27.62 12.36 27.62 27.6s-12.37 27.61-27.62 27.61c-76.11 0-138.04-61.9-138.04-138s61.93-138 138.04-138z" fill="#1c468a"/><path d="m1896.06 1258c74.25 0 134.86 59.78 136.94 134.05h-54.82c-2.04-43.83-38.09-78.85-82.12-78.85-45.36 0-82.24 37.15-82.24 82.8s36.88 82.79 82.24 82.79c15.14 0 27.4 12.36 27.4 27.6s-12.26 27.61-27.4 27.61c-75.58 0-137.06-61.9-137.06-138s61.48-138 137.06-138z" fill="#1c468a"/><path d="m1548.04 1258c74.27 0 134.87 59.78 136.96 134.05h-54.82c-2.06-43.83-38.11-78.85-82.14-78.85-45.34 0-82.22 37.15-82.22 82.8s36.88 82.79 82.22 82.79c15.14 0 27.42 12.36 27.42 27.6s-12.28 27.61-27.42 27.61c-75.56 0-137.04-61.9-137.04-138s61.48-138 137.04-138" fill="#1c468a"/><path d="m2855.17 1392-4.17 1212.46 317 60.54z" fill="#d88029"/><path d="m1875.45 1834.34c-47.68 13.74-96.22 15.5-134.67 9.1-38.84-6.45-64.99-27.77-71.87-51.36-6.26-21.39 2.94-45.34 26.63-69.32-22.69 22.97-30.69 49.41-25.01 68.85 6.31 21.57 31.36 37.51 68.73 43.73 38.31 6.37 85.6 2.34 133.17-11.36 47.55-13.7 89.68-35.41 118.6-61.16 28.22-25.1 40.77-51.86 34.46-73.43-6.67-22.84-34.77-45.53-73.33-59.22-43.84-15.55-91.34-12.32-136.22.61-84.26 24.27-113.53 52.78-136.85 84.66 23.41-32.02 49.94-68.32 134.51-92.67 45.06-12.98 94.13-11.51 138.18 4.11 39.37 13.97 68.26 37.73 75.35 62.04 6.9 23.6-5.45 50.95-34.77 77.03-29.03 25.83-69.22 54.65-116.91 68.39" fill="#c65447"/><path d="m1029 1996.61s3.84 37.12 8.05 44.14c4.21 7.03 22.13 29.46 29.77 33.86s-4.66-29.55-3.11-36.17c1.56-6.62 6.29 12.06 9.65 12.51 3.37.43 2.5-16.37 2.62-22.49.12-6.11-16.37-21.21-22.19-34.24-5.81-13.01-24.79 2.39-24.79 2.39z" fill="#ffb27d"/><path d="m1486 1653.57 8.51-16.17s-4.23-28.82 31.59-47.06c0 0 13.08-5.37 20.47 5.39 6.81 9.92-12.97 8.13-11.9 25.08 1.06 16.98-6.93 26.93-18.05 32.45l-9.18 10.74z" fill="#ffb27d"/><path d="m1146 1613.57s30.94 151.85 201.15 201.46c53.14 15.49 173.85-159.49 173.85-159.49s-4.24-16.13-30.83-12.41c0 0-117.53 77.82-132.34 86.28-13.12 7.5-99.47-96.44-138.85-113.22-39.35-16.75-72.98-2.62-72.98-2.62" fill="#aa413e"/><path d="m1440 1608.97 4.83 31.03 158.17-23.97-4.83-31.03z" fill="#aa413e"/><path d="m1637 1594.93-33.32 21.07-4.68-31z" fill="#ffb27d"/><path d="m1423.13 1621.37 1.54 10.05c.95 6.17 6.75 10.39 12.93 9.45l7.4-1.14-4.88-31.73-8.05 1.24c-5.83.9-9.84 6.33-8.94 12.13" fill="#ffb27d"/><path d="m942.523 2569.09s-21.11 19.17-16.99 32.8 23.168 22.72 25.743 39.37c2.574 16.65 12.872 25.74 22.139 25.74h44.185s6.82-11.73-9.66-15.25c-16.47-3.54-22.681-23.12-21.653-41.27 1.03-18.18-1.543-42.4-1.543-42.4l-35.012-8.08z" fill="#233862"/><path d="m1200.78 2618.12s-3.84 44.27 5.52 48.88l119.7-.25s0-13.82-19.23-16.88c-19.23-3.09-53-14.33-58.7-39.42-5.73-25.07-47.29 7.67-47.29 7.67z" fill="#233862"/><path d="m1303 1999.63s-6.34 76.76-13.78 169.06c-10.12 125.35-22.3 279.33-23.49 308.5-2.09 50.66-10.44 131.68-10.44 131.68s-19.81 19.25-59.43 11.13c0 0-35.33-115.66-45.41-238.03-.16-2.01-.32-4.04-.48-6.05-9.38-124.6-23.97-386.92-23.97-386.92z" fill="#2b478b"/><path d="m1303 1999.6s-6.34 76.57-13.78 168.64l-138.77 212.76c-.16-2.01-.32-4.03-.48-6.04-9.38-124.28-23.97-385.96-23.97-385.96z" fill="#233862"/><path d="m1273 2009.14s-112.92 278.05-187.16 408.72c-74.24 130.66-97.439 167.14-97.439 167.14s-42.535-16.73-46.401-28.12c0 0 28.391-252.25 78.11-313.75 28.09-34.76 61.09-139.04 62.64-175.5s10.05-108.63 10.05-108.63z" fill="#2b478b"/><path d="m1124 1579.17s77.38 36.3 122 22.83c0 0-10.98-13.47-30.2-23.5 1.54-8.69 2.74-16.25 3.43-22.66 1.88-14.78 1.88-23.15 1.88-23.15l-29.85-22.85-28.3-21.84c2.21 61.43-38.96 91.17-38.96 91.17" fill="#ffb27d"/><path d="m1085 1972.26c-.17 4.67 9.79 10 14.18 11.99 32.58 14.34 62.97 24.33 97.4 27.66 40.7 4.17 88.81-5 105.34-4.67 1.68 0 3.21-.65 4.56-1.83 1.18-.84 2.02-49.96 1.18-111.76 0-2.5 0-5-.16-7.49v-.84c-.35-24.15-1.18-49.47-2.37-74.77-2.36-55.63-6.76-109.27-14.19-138.93-8.93-34.96-29.19-58.11-47.58-74.95l-15.21-13.32c-15.19 3-31.22 2.17-47.26-5.66-17.56-8.5-36.47-17.65-39.5-15.32-22.96 16.81-38.49 54.62-46.77 102.93-4.72 27.82-7.09 58.97-6.92 91.61 0 11.99.34 24.31 1.02 36.48 4.05 65.96 0 123.24-2.37 156.38-.67 9.67-1.18 17.16-1.35 22.49" fill="#c65447"/><path d="m1086 1970c267.14-.54 49.26-290.89 49.26-290.89l-43.27-14.11c-3.42 29.81-5.13 63.21-5.01 98.21 0 12.85.24 26.07.73 39.11 2.94 70.7 0 132.14-1.71 167.68" fill="#aa413e"/><path d="m1163 1510.64s19.34 34.66 56.14 44.36c1.86-14.79 1.86-23.15 1.86-23.15l-29.5-22.85z" fill="#ed985f"/><path d="m1233.83 1531.55s-72.58 12.01-79.4-33.11c-6.82-45.11-20.78-73.95 25.29-83.53 46.06-9.57 57.69 6.29 63.65 20.79 5.94 14.51 9.17 91.56-9.54 95.85z" fill="#ffb27d"/><path d="m1127.6 1409.81c-.66-.76-2.19-1.37-5.6-1.57 0 0 2.72-1.69 6.36-1.77.72-4.74 3.24-13.12 11.38-15.16 0 0-4.38 2.33-4.95 7.37 9.44-9.69 29.68-16.75 85.69-12.34 73.82 5.84 49.49 53.09 39.93 58.72s-33.61-9.81-51.42-8.4-21.19 27.15-27.24 30.67c-6.03 3.54-3.66-2.7-11.83-6.39-8.17-3.7-8.96 9.84-6.59 18.64 2.36 8.8-8.87 20.42-8.87 20.42s0 0-11.34-12.23c-11.35-12.22-22.05-63.97-16.89-75 .45-.97.9-1.96 1.37-2.96" fill="#2c3a64"/><path d="m1141.29 1562s-45.89 21.85-67.88 55.47c-34.12 52.12-73.667 242.13-74.397 259.72-.731 17.59 28.867 141.81 28.867 141.81s30.02-2 37.76-17.24c0 0-6-127.64-2.2-135.83 3.8-8.21 125.15-171.2 111.49-205.98-13.64-34.78-33.64-97.95-33.64-97.95" fill="#c65447"/><path d="m1495.43 1636.12s-2.41-9.8 4.18-14.2c6.58-4.42 12.65-16.39 15.43-14.77 5.75 3.35-3.15 13.8-1.53 26.85.58 4.56-9.73 16.52-18.08 2.12z" fill="#ffb27d"/></g></svg>