<svg fill="none" height="24" viewBox="0 0 24 24" width="24" xmlns="http://www.w3.org/2000/svg" xmlns:xlink="http://www.w3.org/1999/xlink"><clipPath id="a"><path d="m0 0h24v24h-24z"/></clipPath><g clip-path="url(#a)" fill="#000"><path d="m0 19c.00158786 1.3256.528882 2.5964 1.46622 3.5338.93734.9373 2.20818 1.4646 3.53378 1.4662h14c1.3256-.0016 2.5964-.5289 3.5338-1.4662.9373-.9374 1.4646-2.2082 1.4662-3.5338v-9h-24zm17-4.5c.2967 0 .5867.088.8334.2528.2466.1648.4389.3991.5524.6732s.1433.5757.0854.8666c-.0579.291-.2008.5583-.4105.7681-.2098.2097-.4771.3526-.7681.4105-.2909.0579-.5925.0282-.8666-.0854-.2741-.1135-.5084-.3058-.6732-.5524-.1648-.2467-.2528-.5367-.2528-.8334 0-.3978.158-.7794.4393-1.0607s.6629-.4393 1.0607-.4393zm-5 0c.2967 0 .5867.088.8334.2528.2466.1648.4389.3991.5524.6732.1136.2741.1433.5757.0854.8666-.0579.291-.2008.5583-.4105.7681-.2098.2097-.4771.3526-.7681.4105-.2909.0579-.5925.0282-.8666-.0854-.2741-.1135-.5084-.3058-.6732-.5524-.1648-.2467-.2528-.5367-.2528-.8334 0-.3978.158-.7794.4393-1.0607s.6629-.4393 1.0607-.4393zm-5 0c.29667 0 .58668.088.83336.2528.24667.1648.43893.3991.55246.6732s.14324.5757.08536.8666c-.05788.291-.20074.5583-.41052.7681-.20978.2097-.47705.3526-.76802.4105-.29098.0579-.59258.0282-.86667-.0854-.27408-.1135-.50835-.3058-.67317-.5524-.16483-.2467-.2528-.5367-.2528-.8334 0-.3978.15804-.7794.43934-1.0607s.66284-.4393 1.06066-.4393z"/><path d="m19 2h-1v-1c0-.265216-.1054-.51957-.2929-.707107-.1875-.187536-.4419-.292893-.7071-.292893s-.5196.105357-.7071.292893c-.1875.187537-.2929.441891-.2929.707107v1h-8v-1c0-.265216-.10536-.51957-.29289-.707107-.18754-.187536-.44189-.292893-.70711-.292893s-.51957.105357-.70711.292893c-.18753.187537-.29289.441891-.29289.707107v1h-1c-1.3256.00159-2.59644.52888-3.53378 1.46622-.937338.93734-1.46463214 2.20818-1.46622 3.53378v1h24v-1c-.0016-1.3256-.5289-2.59644-1.4662-3.53378-.9374-.93734-2.2082-1.46463-3.5338-1.46622z"/></g></svg>