<svg fill="none" height="24" viewBox="0 0 24 24" width="24" xmlns="http://www.w3.org/2000/svg" xmlns:xlink="http://www.w3.org/1999/xlink"><clipPath id="a"><path d="m0 0h9v9h-9z"/></clipPath><g fill="#000"><path d="m13.875 14.5c2.6234 0 4.75-2.1266 4.75-4.75 0-2.62335-2.1266-4.75-4.75-4.75s-4.75 2.12665-4.75 4.75c0 2.6234 2.1266 4.75 4.75 4.75z"/><path d="m13.875 16.083c-3.93322.0044-7.12062 3.1918-7.125 7.125 0 .4372.35443.7917.79165.7917h12.66665c.4372 0 .7917-.3545.7917-.7917-.0044-3.9332-3.1918-7.1207-7.125-7.125z"/><g clip-path="url(#a)"><path d="m1.15723 4.00653c.27156-1.84538 1.98767-3.121219 3.83305-2.84966.62961.09264 1.22023.36129 1.70382.77499l-.43534.43533c-.14591.14595-.14587.38256.00009.52847.07005.07003.16506.10939.26411.10941h1.71371c.20638 0 .37368-.1673.37368-.37368v-1.713709c-.00005-.206377-.16739-.373641-.37377-.373606-.09905.000018-.19406.039377-.26411.109407l-.48581.485778c-1.85253-1.65135-4.693-1.488273-6.34435.36426-.585028.65628-.964677 1.46977-1.0919158 2.33971-.05016684.30841.1591708.59909.4675638.64926.027781.00451.055842.00695.083991.0073.282153-.00305.518991-.21344.555281-.49326z"/><path d="m8.39801 4.5c-.28215.00305-.51899.21344-.55528.49326-.27156 1.84538-1.98767 3.12122-3.83305 2.84968-.62961-.09264-1.22022-.36129-1.70381-.77499l.43533-.43534c.14591-.14594.14588-.38255-.00009-.52846-.07005-.07003-.16505-.10939-.26411-.10941h-1.713675c-.206378 0-.373677.1673-.373677.37368v1.71371c.000053.20637.167387.37364.373764.3736.099055-.00002.194064-.03937.264108-.1094l.48578-.48578c1.85209 1.65152 4.69235 1.48895 6.3439-.36315.58534-.65643.96516-1.4702 1.09237-2.34045.05038-.30837-.15877-.5992-.46713-.64958-.02792-.00457-.05614-.00704-.08443-.00737z"/></g></g></svg>