<svg fill="none" height="24" viewBox="0 0 24 24" width="24" xmlns="http://www.w3.org/2000/svg"><path d="m17 10v-2c0-2.76142-2.2386-5-5-5-2.76142 0-5 2.23858-5 5v2m5 4.5v2m-3.2 4.5h6.4c1.6802 0 2.5202 0 3.162-.327.5645-.2876 1.0234-.7465 1.311-1.311.327-.6418.327-1.4818.327-3.162v-1.4c0-1.6802 0-2.5202-.327-3.162-.2876-.5645-.7465-1.0234-1.311-1.311-.6418-.327-1.4818-.327-3.162-.327h-6.4c-1.68016 0-2.52024 0-3.16197.327-.56449.2876-1.02343.7465-1.31105 1.311-.32698.6418-.32698 1.4818-.32698 3.162v1.4c0 1.6802 0 2.5202.32698 3.162.28762.5645.74656 1.0234 1.31105 1.311.64173.327 1.48181.327 3.16197.327z" stroke="#000" stroke-linecap="round" stroke-linejoin="round" stroke-width="2"/></svg>