<svg fill="none" height="18" viewBox="0 0 18 18" width="18" xmlns="http://www.w3.org/2000/svg"><path d="m11.25 15h-7.5c-.9942-.0012-1.94733-.3967-2.65034-1.0997-.702999-.703-1.09846911-1.6561-1.09966-2.6503v-7.5c.00119089-.9942.396661-1.94733 1.09966-2.65034.70301-.702999 1.65614-1.09846911 2.65034-1.09966h7.5c.9942.00119089 1.9473.396661 2.6503 1.09966.703.70301 1.0985 1.65614 1.0997 2.65034v7.5c-.0012.9942-.3967 1.9473-1.0997 2.6503s-1.6561 1.0985-2.6503 1.0997zm-7.5-13.5c-.59674 0-1.16903.23705-1.59099.65901s-.65901.99425-.65901 1.59099v7.5c0 .5967.23705 1.169.65901 1.591.42196.4219.99425.659 1.59099.659h7.5c.5967 0 1.169-.2371 1.591-.659.4219-.422.659-.9943.659-1.591v-7.5c0-.59674-.2371-1.16903-.659-1.59099-.422-.42196-.9943-.65901-1.591-.65901zm14.25 12.75v-9.75c0-.19891-.079-.38968-.2197-.53033-.1406-.14065-.3314-.21967-.5303-.21967s-.3897.07902-.5303.21967c-.1407.14065-.2197.33142-.2197.53033v9.75c0 .5967-.2371 1.169-.659 1.591-.422.4219-.9943.659-1.591.659h-9.75c-.19891 0-.38968.079-.53033.2197-.14065.1406-.21967.3314-.21967.5303s.07902.3897.21967.5303c.14065.1407.33142.2197.53033.2197h9.75c.9942-.0012 1.9473-.3967 2.6503-1.0997s1.0985-1.6561 1.0997-2.6503z" fill="#000"/></svg>