<svg fill="none" height="24" viewBox="0 0 24 24" width="24" xmlns="http://www.w3.org/2000/svg" xmlns:xlink="http://www.w3.org/1999/xlink"><clipPath id="a"><path d="m0 0h24v24h-24z"/></clipPath><g clip-path="url(#a)"><path d="m3 6c0-1.18668.35189-2.34672 1.01118-3.33342.65929-.98669 1.59636-1.755729 2.69272-2.209854 1.09636-.45412628 2.30276-.572946 3.4666-.341435 1.1639.231511 2.233.802956 3.0721 1.642069.8392.83912 1.4106 1.90822 1.6421 3.0721.2315 1.16389.1127 2.37029-.3414 3.46664-.4541 1.09636-1.2232 2.0334-2.2099 2.6927s-2.1467 1.0112-3.3334 1.0112c-1.59081-.0016-3.11601-.6342-4.24089-1.7591-1.12487-1.12488-1.75752-2.65008-1.75911-4.2409zm6 8c-2.38614.0027-4.67378.9517-6.36104 2.639-1.687252 1.6872-2.63631315 3.9749-2.63896 6.361 0 .2652.105357.5196.292893.7071.187537.1875.441891.2929.707107.2929h16c.2652 0 .5196-.1054.7071-.2929s.2929-.4419.2929-.7071c-.0026-2.3861-.9517-4.6738-2.639-6.361-1.6872-1.6873-3.9749-2.6363-6.361-2.639zm12.414-2 2.293-2.293c.1822-.1886.283-.4412.2807-.7034-.0023-.26219-.1075-.51301-.2929-.69841-.1854-.18541-.4362-.29058-.6984-.29286s-.5148.09852-.7034.28067l-2.293 2.293-2.293-2.293c-.1886-.18215-.4412-.28295-.7034-.28067s-.513.10745-.6984.29286c-.1854.1854-.2906.43622-.2929.69841-.0023.2622.0985.5148.2807.7034l2.293 2.293-2.293 2.293c-.0955.0923-.1717.2026-.2241.3246s-.08.2532-.0812.386c-.0011.1328.0242.2645.0745.3874s.1245.2345.2184.3284.2056.1681.3284.2184c.1229.0503.2546.0756.3874.0745.1328-.0012.264-.0288.386-.0812s.2324-.1286.3246-.2241l2.293-2.293 2.293 2.293c.1886.1822.4412.283.7034.2807s.513-.1075.6984-.2929.2906-.4362.2929-.6984-.0985-.5148-.2807-.7034z" fill="#000"/></g></svg>