<svg viewBox="0 0 809.61 912.24" xmlns="http://www.w3.org/2000/svg" xmlns:xlink="http://www.w3.org/1999/xlink"><linearGradient id="a" gradientUnits="userSpaceOnUse" x1="391.1" x2="663.34" y1="661.19" y2="661.19"><stop offset=".04" stop-color="#7da6ff"/><stop offset=".21" stop-color="#76a0fb"/><stop offset=".46" stop-color="#618ef0"/><stop offset=".77" stop-color="#4072dd"/><stop offset=".97" stop-color="#275ccf"/></linearGradient><linearGradient id="b" gradientTransform="matrix(1 0 .05 1 -32.49 0)" x1="461.77" x2="734.02" xlink:href="#a" y1="721.57" y2="721.57"/><ellipse cx="378.42" cy="388.97" fill="#dee8ff" rx="371.23" ry="395.74" transform="matrix(.84535508 -.53420482 .53420482 .84535508 -149.26 262.29)"/><path d="m208.7 792.94c-17.56-97.72-69.94-91.19-145.21-128.41 23.51 123.77 65.32 215.75 141.31 247.09z" fill="#4abfb8"/><path d="m406.17 792.94s33.17-281.09 257.17-382.8c0 0-37 164.57-34.36 220.17s-37.87 213-125.68 281.93h-112.2z" fill="url(#a)"/><path d="m481.41 821.63s23.59-213.49 244.06-290.73c0 0-52.58 99.41-50.15 186.6 1.19 42.46-7.25 142.38-92.69 194.74h-112.21z" fill="url(#b)"/><path d="m207.59 195.28s-129.19 89-78 170.16 184.5 112.88 184.5 112.88l45.77-278.82z" fill="#1e1c61"/><path d="m436.9 419.85 80.02 152.31-56.87 31.91-96.24-168.78z" fill="#f57e71"/><path d="m427.23 539.44 56.19-28.71s4.58 30.61-20.42 38.35-35.77-9.64-35.77-9.64z" fill="#e05f51"/><path d="m425.68 540.29s48.46 1.26 58.47-35.07l-15-30.09-63 33.24z" fill="#fff"/><path d="m371.23 313.74c29.12-2.06 47 29.92 59.37 80.91l51.26 96.35s-16 65.37-97.54 32.28c-112.95-45.86-13.09-209.54-13.09-209.54z" fill="#c9daff"/><path d="m237.17 663.89c-43.95 75.11-30.17 248.35-30.17 248.35h248.49l-39-253.59z" fill="#d6e3ff"/><path d="m267.1 910.51c-15.31-109.19 27.07-140.51 8.29-262.46l-38.22-17.74c-76.58 68.91-48.81 163.93-37.35 281.93z" fill="#a6c2ff"/><path d="m404.75 655.77c.3-18.67 10.7-79.66 15.21-115 4.22-33.05 24.56-28.14 17.43-68.42-.94-22-34.19-78.45-35.87-94.5-2.68-25.38 1.73-52.28-51.65-77.27l-23.47 5.09a154.86 154.86 0 0 0 -32.2 10.77c-108.82 50.4-132.54 52.86-125 116.6 1.23 32.77 20.74 7.27 26.62 29 11.27 41.65 55.23 84 39.74 157.07-3.12 14.73-14.66 24.77-1.53 34.55 56.97 42.34 169.97 50.68 170.72 2.11z" fill="#d6e3ff"/><path d="m416.94 655.45c.07 1.58.15-.11 0 0z" fill="#ff5cab"/><path d="m442.1 466c-.94-22-39.9-84.44-41.59-100.5l-.16 10.08c1.85 17.62 27.31 60.27 28.33 84.4 6.72 37.94-10.26 72.61-10.26 72.61s29.74-32.36 23.68-66.59z" fill="#e0ebff"/><path d="m228.5 437-22.77 79.08 29.87 114.5 21.21 14.87v-100.33c-15.87-31.35-22.58-69.37-28.31-108.12z" fill="#a6c2ff"/><path d="m234.14 344.08s42.11 100.92 103.28 74.62 16.85-117.57 16.85-117.57-63.53 13.07-120.13 42.95z" fill="#f57e71"/><path d="m245.83 338.47s37.1 104 98.17 76.42c47.39-21.43 13-107.5 13-107.5l12.78 2.46s46 98.92-23.17 127.15c-60.89 24.84-117-90.73-117-90.73z" fill="#fff"/><path d="m232.1 460c15 35.66 24.71 81.25 108.83 102.4 0 0-74.48 14.6-93.49 8.13s-15.34-110.53-15.34-110.53z" fill="#a6c2ff"/><path d="m423.1 526.83s-2.23 2.73-2.89 3.66c-3.26 4.57-13.8 18.34-24.6 21.77l22.6 1.5" fill="#a6c2ff"/><path d="m328.87 807.39-101.63-35.49a34.9 34.9 0 0 1 -21.44-44.45l65.14-186.51a34.88 34.88 0 0 1 44.44-21.43l101.62 35.49a34.91 34.91 0 0 1 21.44 44.45l-65.12 186.55a34.89 34.89 0 0 1 -44.45 21.39z" fill="#292685"/><path d="m214.89 586.36h217.84v144.58h-217.84z" fill="#fafafa" transform="matrix(.32969065 -.94408902 .94408902 .32969065 -404.77 747.19)"/><path d="m334.63 699.78c-63.89-2.52-121.13-19.87-172.68-49.9-13.87-8.08-18.64-21.69-19-37.19-.76-35.53 2.9-103.56 14.92-113.82l46.59 59-5.46 52.13c60.24 26.52 96.8 56.2 133.61 67.38z" fill="#f57e71"/><path d="m173.12 644.73c-12.48-10.13-17-31-17.35-46.48-.53-25.06-.48-63.78 3.81-88l-4-4.62c-12 10.26-12.43 73.32-11.67 108.85a45.81 45.81 0 0 0 23 38.2c51.55 30 108.79 47.39 172.68 49.91-.07-.04-112.92-14.37-166.47-57.86z" fill="#e05f51"/><path d="m317.34 671.79s47.31-19 66.44-12.53c14.05 4.75 35.84 20.78 46.44 29a2 2 0 0 1 -1.49 3.7l-20.59-3.25 17.44 14.19-9.69 12.45c-4.09 5.25-11.74 6.32-17.66 2.48l-30.09-19.54s-3.91 14.11-45 4.23c-9.62-2.35-5.8-30.73-5.8-30.73z" fill="#f57e71"/><path d="m151 577.86 52.29-2.67s-20.59 25.06-51.65 16z" fill="#e05f51"/><path d="m142 571.59s24.35 18.89 61.75 3.5l2.15-26.93-63.9-4.53z" fill="#fff"/><path d="m236.13 435.94-17.13 108.84c-2.46 15.62-14.41 26.85-29.15 27.43-21.87.85-50-3-50-28.52-.13-70.5 15.85-125.45 28.41-157.73 5.45-14 21-17.32 38.5-28.23 2.83-1.76.83 13.81 4 16.09 19.01 13.89 29.09 38.49 25.37 62.12z" fill="#d6e3ff"/><path d="m168.19 386s-35.88 97.43-28.41 161.19c0 0-.11 17 20.39 22a84.68 84.68 0 0 1 -6.7-34.61c.5-19.34 8.72 6.81 11.71-.18s4.53-32.88 3-50.94 9.64-69.79 4.25-82-4.24-15.46-4.24-15.46z" fill="#a6c2ff"/><g fill="#f57e71"><path d="m521.12 580.31c11.85-68.37 4.67-124.56 22.45-167.82l-29.73-2.06s-78.95 185.57-48.09 201.57c46.12 23.75 55.37-31.69 55.37-31.69z"/><path d="m535.26 363c1.12 4.36-2.88 15.4-3.24 22.09a205.06 205.06 0 0 0 1.43 34.91s-12.59 14.14-22.58 1.41 4.85-38.4 4.85-38.4l10.7-31.15s4.73-4.86 8.84 11.14z"/><path d="m579.54 377.32c.1-5.84.19-12.31.19-12.31-.16-10.28-3.37-18.95-10.81-26l-17.3 26.16c-11.49 9.6-20.68 18.22-21.29 26l-6.76 4.16a3.26 3.26 0 0 0 -1.51 2.81l.51 33.88a3.24 3.24 0 0 0 5.28 2.56c2.22-1.92 5.28-4.8 8.8-8.23l-6 22.92s34.81-42.69 43.51-56.66l.32-.47a26.16 26.16 0 0 0 5.06-14.82z"/></g><path d="m348.05 310.55c12.16 3.05 24 7.95 27.91 18.9 3 8.46 2.15 17.09 5.7 25.58 7 16.67 21.36 30.46 31.42 45.93 3 4.56 11.32 1.36 8.34-3.22-13.34-20.51-31.39-37.11-34.59-60.65-2.49-18.28-14.76-28.52-35.95-33.84-5.91-1.48-8.77 5.81-2.83 7.3z" fill="#292685"/><path d="m376.59 338.11c-.14 21.89-20.46 42.8-5 65.4 3.08 4.5 11.43 1.31 8.33-3.22-14-20.42 6-41.29 6.11-61.28 0-5-9.43-5.93-9.46-.9z" fill="#292685"/><path d="m411.49 410.9 3.39 60.5c.15 13.07-.93 20.5-20.53 20.45.33 2.25.69 4.5 1.16 6.74l3 .06c14.38.29 25.64-9.07 25-21l-4-72.49c-.71-11.89-8.67-5.94-8.02 5.74z" fill="#fff"/><path d="m385.07 491.66 10.17-.74c2.86-.21 5.57 1.57 6 4l.23 1.23c.46 2.39-1.51 4.51-4.37 4.72l-10.17.75c-2.86.21-5.58-1.58-6-4l-.24-1.23c-.45-2.39 1.52-4.52 4.38-4.73z" fill="#292685"/><path d="m386.8 411.5 33.88 55.5c7.85 11.81 13.35 18.14 30.94 12 1.08 2.13 2.13 4.26 3.07 6.43l-2.69 1c-12.75 4.76-28.59-.12-35.26-11l-40.61-66.45c-6.67-11.04 4.12-8.19 10.67 2.52z" fill="#fff"/><g fill="#292685"><path d="m459.86 475.83-9.6 2.52c-2.7.71-4.05 3.17-3 5.46l.54 1.18a6 6 0 0 0 6.82 2.88l9.59-2.52c2.71-.71 4.06-3.17 3-5.46l-.54-1.18a6 6 0 0 0 -6.81-2.88z"/><path d="m414.48 405.61 5.18-.58c2.68-.29 4.42-2.36 3.87-4.61l-.57-2.31c-.54-2.26-3.17-3.84-5.85-3.54l-5.18.57c-2.69.29-4.42 2.36-3.87 4.61l.56 2.32c.55 2.25 3.17 3.83 5.86 3.54z"/><path d="m378.51 409.91 4.85-1.43c2.52-.75 3.69-3.09 2.61-5.24l-1.11-2.24a5.7 5.7 0 0 0 -6.53-2.53l-4.85 1.44c-2.52.75-3.69 3.09-2.61 5.23l1.12 2.21a5.66 5.66 0 0 0 6.52 2.56z"/></g><path d="m797.34 145.21-240.54-19.32c-6.92-.56-12.73 4.93-12.91 12.19l-2.89 117.17c-.18 7.26 5.34 13.66 12.27 14.21l240.53 19.33c6.93.55 12.74-4.93 12.91-12.2l2.86-117.16c.22-7.27-5.3-13.66-12.23-14.22z" fill="#bfd3ff"/><path d="m741.52 318.61-240.52-19.33c-6.92-.55-12.44-6.95-12.26-14.21l2.85-117.17c.18-7.26 6-12.75 12.91-12.19l240.5 19.29c6.92.56 12.44 7 12.27 14.22l-2.86 117.16c-.16 7.3-5.96 12.78-12.89 12.23z" fill="#fff"/><ellipse cx="562.5" cy="235.23" fill="#2fd6ec" rx="42.35" ry="48.44" transform="matrix(.38123173 -.92447951 .92447951 .38123173 130.63 665.61)"/><path d="m695.76 217.43-65.84-5.78-.34 17.85 65.84 5.77z" fill="#a6c2ff"/><path d="m629.32 242.75-.34 17.85 99.9 8.77.34-17.85z" fill="#a6c2ff"/><path d="m381.87 575.24-51.59-18.52a10.6 10.6 0 0 1 -6.38-13.53 10.61 10.61 0 0 1 13.52-6.38l51.58 18.52a10.62 10.62 0 0 1 6.39 13.53 10.61 10.61 0 0 1 -13.52 6.38z" fill="#d6e3ff"/><path d="m209 192.92s-79.34 17.91-98 49.08 18.12 105.52 18.12 105.52l-1.14-39.38s-48.29-74.41 78.54-94.68c85.12-13.66 2.48-20.54 2.48-20.54z" fill="#1e1c61"/><path d="m303.64 366.61 4.13.82c13.92 2.81 26.78-5.66 28.57-18.82l10.07-74.15c1.79-13.16-8.15-26.21-22.08-29l-4.12-.83c-13.93-2.8-26.79 5.67-28.58 18.82l-20.77 69c-1.79 13.17 18.85 31.36 32.78 34.16z" fill="#f57e71"/><path d="m270.52 154.34c12-20.55 31.06-24.64 49.18-13.54 17.24-7.58 38.6 2.22 54.89 28.18 22.69 36.15 22 87.26 9.43 119.72-6.81 17.57-15 29.92-56.82 23.87-28.33-4.59-46.38-15.72-63.11-42.37-22.68-36.15-11.09-85.9 6.43-115.86z" fill="#f57e71"/><path d="m341.51 315.61s-33.51-.61-56.63-32.25c0 0 23.08 47.75 53.82 53z" fill="#e05f51"/><path d="m245.83 338.47s8.15-5.59 26.86-12.09l15.31-52.16s-7.23 10.56 8.8 26.47l-2.82 10.6a55.8 55.8 0 0 1 -25.61 33.85l-16.27 8.12z" fill="#e05f51"/><path d="m267.68 243.24s44.47 10.75 62.5-49.56c0 0 6.5-20.73 1.43-28.44s-63.93 78-63.93 78z" fill="#b2b1b3"/><path d="m369.91 183.33c-47.75 78.74-77.49 57.39-78.34 69.49 0 0-7.52 32.32-7.54 32.39-4.37 24.13-29 15.09-52.17 23.53h-.07s-79.35-86.64 14-160.78c63.19-50.16 153.91-5.17 146.07 58.66z" fill="#1e1c61"/><path d="m158.76 393.34s66.35-44.83 69.48-68.33 37.15-31 41.84-57.39l25.41-19.06s48.87 1.44 74.3-67.65c0 0-5.25-13.42-21.23-8.73s-19.64 47.35-39.79 51.9-39.1 36.77-53.15 48.74-41.44 2.75-58.34 36.41-38.52 84.11-38.52 84.11z" fill="#292685"/><ellipse cx="283.18" cy="255.4" fill="#f57e71" rx="17.51" ry="19.22" transform="matrix(.49120783 -.8710424 .8710424 .49120783 -78.4 376.58)"/><path d="m286.31 256.39a4.38 4.38 0 0 0 .12-6.7c-2.91-2.74-7.32-5.28-10.39.33s.66 12.68 3.89 17.14a.85.85 0 0 0 1.54-.68c-.78-2.88-.89-6.27 1.94-8.08 1.18-.75 2.13-1.4 2.9-2.01z" fill="#e05f51"/><path d="m369.91 183.33 22 23.31s5.73-25.08-14.64-48.5c0 0-21.68-24.56-44.43-28.08s-39.27 73.4 14.91 66.71z" fill="#292685"/><path d="m305.25 465.56c-12.12-27.28-26.25-53.56-36.73-81.84-6.85-18.55-13.42-41.88 3-59.25 3.28-3.47-.65-9.2-4-5.69-15.12 16-15.15 35.61-9.81 54.93 9.3 33.61 27.25 63.88 41.07 95 1.84 4.15 8.31 1 6.46-3.17z" fill="#292685"/><ellipse cx="303.42" cy="477.07" fill="#6763db" rx="22.79" ry="21.98" transform="matrix(.77637652 -.63026938 .63026938 .77637652 -232.82 297.88)"/><ellipse cx="301.39" cy="472.91" fill="#fbfbff" rx="17.56" ry="16.93" transform="matrix(.77648651 -.63013387 .63013387 .77648651 -230.64 295.65)"/><ellipse cx="298.7" cy="466.71" fill="#292685" rx="17.56" ry="16.93" transform="matrix(.77637652 -.63026938 .63026938 .77637652 -227.34 292.6)"/><path d="m306.81 460.1c2.29 4.67.42 10.85-4.17 13.8s-10.17 1.56-12.46-3.11-.42-10.79 4.17-13.79 10.18-1.57 12.46 3.1z" fill="#6763db"/><path d="m581.82 261.85c4.33.32 7.29-5.26 6.28-8.8s-2.33-6.51-3.6-7.59a12.54 12.54 0 0 0 -3.81-2c-1.3-.5-3-1.26-4.61-2l-1.64-.73-3.28-1.61-1.46-1a3.39 3.39 0 0 1 -.34-.23 3.84 3.84 0 0 1 0-.59v-3.78a8.15 8.15 0 0 0 2.76-4.8c2.25.21 2.91-2.44 3.23-4.26.22-1.29.59-4.47-1.14-4.92 0-.21.1-.42.15-.6a15 15 0 0 0 .69-3.46 6.7 6.7 0 0 0 -.66-3.47 1.84 1.84 0 0 0 -.53-.64 3 3 0 0 0 -.21-1.28 10.35 10.35 0 0 0 -6.44-6.24 14.13 14.13 0 0 0 -8.39.19c-2 .58-4.72 1.88-4.93 4.81a1.87 1.87 0 0 0 .18 1 1.24 1.24 0 0 0 -.89.65 6.38 6.38 0 0 0 -.92 3.36 15.81 15.81 0 0 0 .44 3.54c0 .18.07.38.11.59-2.16-.19-1.93 3.36-1.76 4.79.2 1.77.7 4.37 2.74 4.62a9.88 9.88 0 0 0 .54 2.3 7.58 7.58 0 0 0 1.71 2.65s0 0 0 0v3.87a3.26 3.26 0 0 1 0 .45c0-.08-.38.27-.47.35l-1 .76-.9.25-.22.05c-.59.14-1.19.32-1.81.53h-.07c-.78.26-1.56.56-2.33.85-1.4.54-2.79.83-4.15 1.39a16.39 16.39 0 0 0 -9.15 12.4c-.47 3.12 1.16 5.27 4.25 5.56zm-6.88-37.27c0 .17-.07.34-.09.46.03-.14.06-.3.09-.46z" fill="#fff"/></svg>