<svg fill="none" height="26" viewBox="0 0 26 26" width="26" xmlns="http://www.w3.org/2000/svg" xmlns:xlink="http://www.w3.org/1999/xlink"><clipPath id="a"><path d="m0 0h26v26h-26z"/></clipPath><g clip-path="url(#a)"><path d="m26 9.75c.0025-.59639-.1592-1.18197-.4674-1.6926-.3081-.51063-.7508-.92663-1.2796-1.20244s-1.1233-.40079-1.7184-.36127c-.595.03953-1.1678.24204-1.6555.58536-.4876.34332-.8714.81421-1.1093 1.36111-.2379.54689-.3207 1.14871-.2394 1.73954.0813.5908.3236 1.1479.7004 1.6102s.8736.812 1.4359 1.0108v4.5326c0 1.7239-.6849 3.3772-1.9038 4.5962-1.219 1.219-2.8723 1.9038-4.5962 1.9038s-3.3772-.6848-4.5962-1.9038c-1.21901-1.219-1.90383-2.8723-1.90383-4.5962v-.0866c1.80273-.2616 3.45133-1.1628 4.64463-2.5391 1.1934-1.3764 1.8519-3.136 1.8554-4.9576v-4.33333c-.0018-1.43606-.573-2.81282-1.5884-3.82827-1.0155-1.015445-2.3922-1.58667982-3.8283-1.5884-.28732 0-.56287.114137-.76603.317301-.20317.203164-.3173.478714-.3173.766029 0 .28732.11413.56287.3173.76604.20316.20316.47871.3173.76603.3173.862 0 1.6886.34241 2.2981.9519s.9519 1.43614.9519 2.2981v4.33333c0 1.4366-.5707 2.8143-1.5865 3.8302-1.0158 1.0158-2.39358 1.5865-3.83017 1.5865s-2.81434-.5707-3.83016-1.5865c-1.01582-1.0159-1.5865-2.3936-1.5865-3.8302v-4.33333c0-.86196.34241-1.68861.9519-2.2981s1.43614-.9519 2.2981-.9519c.28731 0 .56286-.11414.76603-.3173.20316-.20317.3173-.47872.3173-.76604 0-.287315-.11414-.562865-.3173-.766029-.20317-.203164-.47872-.317301-.76603-.317301-1.43606.00172018-2.81282.572955-3.82827 1.5884-1.015445 1.01545-1.58667982 2.39221-1.5884 3.82827v4.33333c.00348395 1.8216.662016 3.5812 1.85536 4.9576 1.19334 1.3763 2.84189 2.2775 4.64464 2.5391v.0866c0 2.2986.91309 4.503 2.53841 6.1283 1.62529 1.6253 3.82969 2.5384 6.12829 2.5384 2.2985 0 4.5029-.9131 6.1282-2.5384s2.5384-3.8297 2.5384-6.1283v-4.5326c.6315-.2233 1.1786-.6362 1.5664-1.1823.3879-.5461.5975-1.1986.6003-1.8684zm-3.25 1.0833c-.2143 0-.4237-.0635-.6019-.1825-.1781-.1191-.317-.2883-.399-.4862-.082-.19798-.1034-.4158-.0616-.62595.0418-.21014.145-.40317.2965-.55468s.3445-.25469.5547-.29649c.2101-.0418.4279-.02034.6259.06165.1979.082.3671.22085.4862.399.119.17816.1825.38761.1825.60187 0 .2873-.1141.5629-.3173.766-.2031.2032-.4787.3173-.766.3173z" fill="#000"/></g></svg>