<svg fill="none" height="1894" viewBox="0 0 2861 1894" width="2861" xmlns="http://www.w3.org/2000/svg" xmlns:xlink="http://www.w3.org/1999/xlink"><clipPath id="a"><path d="m0 0h2860.76v1893.85h-2860.76z"/></clipPath><g clip-path="url(#a)"><path d="m836.27 22c75.13 0 156 22.29 240.34 66.25 145.57 75.86 271.29 141.38 424.94 141.38 61.08 0 123-10.28 189.34-31.41 55.57-17.71 140.6-38.82 230.1-38.82 71.57 0 134.43 13.57 186.82 40.34 63.3 32.33 111.07 83.66 142 152.57 32 71.36 47.22 141.24 46.46 213.63-.65 62.12-12.77 115.31-23.47 162.24-9.46 41.49-17.63 77.32-14.76 107.17 10.51 109.51 52.49 198.37 93.08 284.3 35.28 74.66 68.6 145.18 78.81 223.51 5.64 42.03 3.71 84.72-5.7 126.07-10.32 45.88-29.44 91.5-58.43 139.45-38.82 64.24-84.82 107.82-140.62 133.24-53.39 24.33-106.9 27.45-147.55 27.45-206.57 0-256.83-14.72-346.51-35.41-73.54-17-118.85-28.45-190.51-19.62-66.88 8.24-135.94 32.71-194.66 55.56-20.83 8.11-42.17 16.74-62.8 25.08-54.93 22.22-111.72 45.2-168.73 62.3-31.78 9.53-74.66 14.57-124 14.57-57.14 0-119.71-6.71-180.94-19.42-75.56-15.68-220.25-55.91-340.33-149.1-54.1-42-96.64-89.89-126.41-142.35-33.59-59.18-51-124.34-51.86-193.67-1.38-116.24 19.18-208.19 62.86-281.1 38.21-63.8 86.8-101.82 129.66-135.36 41.24-32.27 73.82-57.76 85.11-96.6 13.06-44.94-1.73-108.8-46.56-201-70.3-144.58-61.05-332 23-466.38 66.55-106.31 170.03-164.87 291.32-164.87zm0-22c-64.22 0-123.79 15.29-177 45.43s-97.88 73.73-132.95 129.79c-22.168 35.729-39.436 74.273-51.34 114.6-12.139 40.774-19.308 82.866-21.35 125.36-2.141 42.632.834 85.366 8.86 127.29 7.908 41.708 21.259 82.198 39.71 120.43 21.89 45 36.06 82.16 43.34 113.55 6.77 29.25 7.39 52.7 1.87 71.67-9.31 32-37.93 54.42-77.54 85.42-44.37 34.72-94.66 74.07-135 141.37-45.83 76.51-67.41 172.24-66 292.67.87 73.1 19.28 141.82 54.72 204.26 31.22 55 75.65 105.1 132.07 148.88 123.58 95.9 271.92 137.18 349.32 153.25 62.68 13 126.79 19.88 185.4 19.88 51.47 0 96.54-5.36 130.34-15.5 58-17.39 115.26-40.56 170.64-63 20.54-8.3 41.76-16.89 62.54-25 57.47-22.36 124.9-46.29 189.38-54.23 67.69-8.35 110 2.4 182.86 19.21 91.24 21 144.12 36 351.47 36 42.88 0 99.43-3.34 156.68-29.43 59.93-27.32 109.1-73.72 150.3-141.87 30.24-50 50.22-97.78 61.08-146 9.98-43.86 12.03-89.16 6.05-133.74-10.67-81.76-44.7-153.8-80.73-230.07-39.8-84.22-80.94-171.31-91.08-277-2.53-26.31 5.27-60.53 14.31-100.16 10.94-48 23.35-102.44 24-166.92.8-75.64-15-148.54-48.39-222.87-33-73.59-84.18-128.49-152-163.16-55.53-28.29-121.76-42.71-196.85-42.71-92.33 0-179.72 21.67-236.78 39.85-64.14 20.44-123.88 30.38-182.66 30.38-148.26 0-271.76-64.36-414.76-138.89-87.52-45.61-171.8-68.74-250.51-68.74z" fill="#fff"/><path d="m609.98 1243.65c-14.51-6.73-36.83-37.54-24.35-61.65 7.58-12.82 32.4-9.2 43.33-17.22s2.19-32.32-5.11-45.76 1.35-32.26 29.31-35.41c21.45-2.41 29.47-4.89 30.68-21.38s-10.09-46.6 22.28-46.6c16.56 1.88 27.53 4.7 19.78 8.18s-23.67-7.65-29.44 7.52 7.16 33.77-2.38 48.28c-16 24.29-50.55 8.21-57.59 24.46s21.62 47.3 7.24 63-41.89 3.65-48.65 23.4 20.37 44.11 14.9 53.18z" fill="#516eb4"/><path d="m2015.13 1134.11c11.23-8.77 44.72-14 58.77 5.74 7.08 11.22-5.87 29.43-4 41.34s24.73 14.87 38.35 14.54 25 14.18 16.16 37.62c-6.8 18-8.09 25.36 4.49 33s41 10.93 27.89 36.59c-8.22 12.36-14.91 19.91-14.53 12.36s15.68-15.66 6-26.39-29.68-8-37.31-21.51c-12.76-22.53 14-43.4 4-55.58s-46.28-2.08-52.86-19.85 14.12-34.69 1.21-48.07-43.2-1.76-48.17-9.79z" fill="#516eb4"/><path d="m1147.26 1159.1s-166.11 173.64-222 321.77c65.57-19.43 202.62-22.25 202.62-22.25l150.56-167.56z" fill="#de623c"/><path d="m1255.64 1196.27c-108.39-17.06-344.85-87.23-268.91-253.321 75.94-166.09 130.72-112.19 59.14-282.41s27.72-334.08 154.79-321.9 176.49 103.6 319.18 50.6 291.76 61.31 259.27 191.55-45.13 192.39 19.52 248.59 312.15 82.51 245.14 259.841c-67.01 177.33-113.57 176.2-64.06 251s-10.81 182.33-148.79 195.78-270.55-14.2-349.39-156-225.89-183.73-225.89-183.73z" fill="#062440"/><path d="m1556.71 887.309-7 194.241s-101.14 72.25-179.34 24.13c12-60.16 28.41-159.121 28.41-159.121z" fill="#de623c"/><path d="m1369.13 1016.46s-126.63 16.17-262.54 188.33c19.05 13.19 104.39 91.85 104.39 91.85z" fill="#5578e6"/><path d="m1431.03 1001.93c111.02-20.093 179.13-157.366 152.11-306.603-27.01-149.238-138.91-253.928-249.93-233.832-111.03 20.096-179.13 157.368-152.11 306.606 27.01 149.238 138.91 253.929 249.93 233.829z" fill="#f37a50"/><path d="m1596.52 692.869c-113.54 5.9-227.91-37.23-300.65-106.61-20.74 100.21-114.76 181.81-114.76 181.81s-111.28-164.35 14.87-286.72c120.3-116.71 458.47-113.08 400.54 211.52z" fill="#062440"/><path d="m1556.9 721.569c-17.76 33.35-12.12 71.05 12.6 84.2s59.13-3.2 76.89-36.55 12.11-71-12.6-84.2-59.14 3.21-76.89 36.55z" fill="#f37a50"/><path d="m1588.52 780.939c1.12-.215 2.17-.702 3.06-1.418.9-.716 1.6-1.639 2.05-2.688.45-1.05.64-2.194.55-3.333-.1-1.139-.47-2.238-1.08-3.201-7-10.68-8.77-20-5.33-27.59 5.3-11.78 21.72-18.1 34.14-19.92 1.66-.443 3.09-1.478 4.04-2.911.94-1.432 1.33-3.161 1.08-4.858-.25-1.698-1.11-3.245-2.42-4.35-1.31-1.104-2.99-1.688-4.7-1.641-16.67 2.45-37.2 11.08-44.8 28-3.79 8.41-5.76 22.33 6.37 40.9.75 1.131 1.82 2.019 3.07 2.553 1.25.535 2.63.693 3.97.457z" fill="#de623c"/><path d="m1671.46 1709.2c-7.26-41-12.38-97.26-5.9-169.74.99-4 2.01-8.12 3.06-12.37 8.25-33.1 18.28-71.73 28.34-112.57 2.05-8.34 4.1-16.76 6.15-25.27 26.62-110.62 51-232 40.74-301.59-2-13.28-5.18-24.68-9.9-33.76 0-4.15-8.16-10.83-21.17-18.47-39.54-23.22-123.67-55.281-157.25-52.071 0 0-.83 2.39-2.49 6.46-9.93 24.321-49.67 108.831-120.6 103.141-40.4-3.24-44.53-72.07-44.88-80.41 0-.53 0-.82 0-.82-6.28.99-12.44 2.58-18.41 4.75-57.89 20.85-106.21 94.5-139.33 175.14-5 12.08-9.58 24.32-13.84 36.56-2.1 6-4.1 12-6 18-4.26 13.68-6.96 27.8-8.06 42.09-2.22 26.27-.28 54.52 3.42 84.22 1.77 14.28 4 28.91 6.27 43.81 11.42 73.64 25.61 151 12.45 229.76-6.21 36.94-41.43 164-62.84 248h600.29c-32.07-73.42-87.36-176.18-90.05-184.86z" fill="#7a94e6"/><path d="m1774.06 1261.06c-49.39 109.33-213.73 361.89-301.31 391.6l-114.94-135s38.24-63.24 76.23-140.91c52.63-107.59 140.23-229.28 161.51-261.63 63.58-97.17 259.43-32.4 178.51 145.94z" fill="#f37a50"/><path d="m916.85 1736.89s6.77 1.14 19 2.71c75.22 9.69 356.94 35.77 536.91-86.93 9.57-11.48-103.57-141.2-103.57-141.2-3.53 1.64-7.06 3.27-10.6 4.9-26.27 12-52.88 23.45-79.35 34.2-81.51 33.1-161.63 59.92-226 79.61-71 21.74-122.92 34.81-136.35 38.12l-3.43.83z" fill="#f37a50"/><path d="m945.61 1727.69c-31 47.61-139.5 74.8-207.46 45.91s-14.51-81.32 19.64-84.52 79.59-.52 77-18.13-20.73-22.62-24.67-43.71c-3.52-18.83 61.16-19.3 106.59 40.78z" fill="#f37a50"/><path d="m1722.89 1036.64c19.4 6.59 103.18 18.4 60.22 213.51-18.84 75.69-81.29 167.21-81.29 167.21s-131.44-73.85-207.23-180.32c13.22-38.08 129.01-218.77 228.3-200.4z" fill="#5578e6"/><path d="m1325.52 1402.77c-73.31 6.83-148.65-21.07-309.13 18.53-145.65 35.94-99.94 142.14-26 149.31 105.3 10.22 352.76-108.41 352.76-108.41z" fill="#de623c"/><path d="m1476.98 1363.95c5.72-34.88 2.62-66 36.37-52.16s24.56 61.54 21.25 85.15-8.26 41.17 8.34 35.2 23.43 22.38 4.62 32.19-48.26-5.11-56.31 28.62-34.85 100.52-47.82 74.63 12.41-58.85-1.9-63.35-35.15-15.72-14.84-30.3 32.84-21.12 30.7-41.34 19.59-68.64 19.59-68.64z" fill="#fa897a"/><path d="m1186.33 1601.94c35.88-6.59 62.67 36.15 26.52 43.38s-51.93-15-75.92 3.62-80.82 45.44-66.28 20.48 56.64-56.63 115.68-67.48z" fill="#fa897a"/><g fill="#fa0c44"><path d="m1500.28 1473.19c5.37-5.37 5.37-14.08 0-19.46-5.38-5.37-14.09-5.37-19.46 0-5.38 5.38-5.38 14.09 0 19.46 5.37 5.38 14.08 5.38 19.46 0z"/><path d="m1490.52 1525.31c1.5 1.51 3.42 2.53 5.51 2.95 2.09.41 4.25.2 6.22-.61 1.96-.82 3.65-2.2 4.83-3.97s1.81-3.85 1.81-5.98c0-2.12-.63-4.21-1.81-5.97-1.18-1.77-2.87-3.15-4.83-3.97-1.97-.81-4.13-1.02-6.22-.61-2.09.42-4.01 1.44-5.51 2.95-2.02 2.02-3.15 4.75-3.15 7.6 0 2.86 1.13 5.59 3.15 7.61z"/><path d="m1493.79 1363.91c0 2.72.81 5.38 2.32 7.64 1.51 2.27 3.66 4.03 6.17 5.07 2.52 1.04 5.29 1.32 7.95.78 2.67-.53 5.13-1.84 7.05-3.76 1.92-1.93 3.23-4.38 3.77-7.05.53-2.67.25-5.43-.79-7.95-1.04-2.51-2.8-4.66-5.07-6.17-2.26-1.51-4.92-2.32-7.64-2.32-3.65 0-7.15 1.45-9.73 4.03s-4.03 6.08-4.03 9.73z"/><path d="m1436.5 1455.74c0 1.73.51 3.43 1.48 4.87.96 1.44 2.33 2.56 3.93 3.22 1.6.67 3.36.84 5.06.5s3.26-1.17 4.49-2.4c1.22-1.23 2.06-2.79 2.39-4.49.34-1.7.16-3.46-.5-5.06s-1.79-2.97-3.23-3.93-3.14-1.47-4.87-1.47c-2.32 0-4.55.93-6.19 2.57s-2.56 3.87-2.56 6.19z"/><path d="m1432.41 1541.99c0 1.73.51 3.43 1.48 4.87.96 1.44 2.33 2.56 3.93 3.22 1.6.67 3.36.84 5.06.5s3.26-1.17 4.48-2.4c1.23-1.22 2.06-2.78 2.4-4.48s.17-3.46-.5-5.06c-.66-1.6-1.78-2.97-3.22-3.93-1.44-.97-3.14-1.48-4.87-1.48-2.32 0-4.55.92-6.19 2.56-1.65 1.65-2.57 3.88-2.57 6.2z"/><path d="m1527.98 1443.24c0 1.73.51 3.43 1.48 4.87.96 1.44 2.33 2.56 3.93 3.22 1.6.67 3.36.84 5.06.5s3.26-1.17 4.48-2.4c1.23-1.22 2.06-2.78 2.4-4.48s.17-3.46-.5-5.06c-.66-1.6-1.78-2.97-3.22-3.93-1.44-.97-3.14-1.48-4.87-1.48-2.32 0-4.55.92-6.19 2.56-1.65 1.65-2.57 3.88-2.57 6.2z"/><path d="m1429.84 1489.45c0 1.27.37 2.51 1.08 3.56.7 1.06 1.7 1.88 2.87 2.37s2.46.61 3.71.37c1.24-.25 2.39-.86 3.28-1.76.9-.9 1.51-2.04 1.76-3.28.24-1.25.12-2.54-.37-3.71s-1.31-2.17-2.37-2.87c-1.05-.71-2.29-1.08-3.56-1.08-1.7 0-3.32.68-4.52 1.88s-1.88 2.82-1.88 4.52z"/><path d="m1463.03 1498.79c0 1.03.3 2.05.88 2.91.57.86 1.39 1.53 2.34 1.93.96.4 2.01.5 3.03.3 1.01-.2 1.95-.7 2.68-1.43s1.23-1.67 1.43-2.68c.2-1.02.1-2.07-.3-3.03-.4-.95-1.07-1.77-1.93-2.34-.86-.58-1.87-.88-2.91-.88-1.38 0-2.71.55-3.69 1.53s-1.53 2.31-1.53 3.69z"/><path d="m1550.08 1426.24c0 1.03.31 2.04.88 2.9.58.86 1.39 1.54 2.35 1.93.95.4 2.01.5 3.02.3s1.95-.7 2.68-1.43 1.23-1.67 1.43-2.68.1-2.07-.3-3.02c-.39-.96-1.06-1.77-1.92-2.35-.86-.57-1.88-.88-2.91-.88-1.39 0-2.72.55-3.7 1.53s-1.53 2.31-1.53 3.7z"/><path d="m1449.71 1565.1c0 1.03.31 2.05.88 2.91.58.86 1.39 1.53 2.35 1.92.96.4 2.01.5 3.02.3 1.02-.2 1.95-.7 2.68-1.44.73-.73 1.23-1.66 1.43-2.68.2-1.01.1-2.06-.3-3.02-.4-.95-1.07-1.77-1.93-2.34-.86-.58-1.88-.88-2.91-.88-.69 0-1.37.13-2 .4-.63.26-1.21.65-1.69 1.13-.49.49-.87 1.06-1.14 1.7-.26.63-.39 1.31-.39 2z"/><path d="m1508.16 1327.19c0 1.03.31 2.04.88 2.9.58.86 1.39 1.54 2.35 1.93.95.4 2.01.5 3.02.3s1.95-.7 2.68-1.43 1.23-1.67 1.43-2.68c.2-1.02.1-2.07-.3-3.02-.39-.96-1.06-1.77-1.92-2.35-.86-.57-1.88-.88-2.91-.88-.69 0-1.37.13-2 .39-.64.27-1.22.65-1.7 1.14-.49.48-.87 1.06-1.13 1.7-.27.63-.4 1.31-.4 2z"/><path d="m1455.74 1538.82c0 1.27.37 2.51 1.08 3.56.7 1.06 1.7 1.88 2.87 2.37s2.46.61 3.7.37c1.25-.25 2.39-.86 3.29-1.75.9-.9 1.51-2.04 1.76-3.29.24-1.24.12-2.53-.37-3.7-.48-1.17-1.3-2.18-2.36-2.88-1.05-.7-2.29-1.08-3.56-1.08-1.7 0-3.33.67-4.53 1.87s-1.88 2.83-1.88 4.53z"/><path d="m1143.29 1627.79c1.5 1.51 3.42 2.53 5.51 2.95 2.09.41 4.25.2 6.22-.61 1.96-.82 3.65-2.2 4.83-3.97s1.81-3.85 1.81-5.98c0-2.12-.63-4.21-1.81-5.97-1.18-1.77-2.87-3.15-4.83-3.97-1.97-.81-4.13-1.02-6.22-.61-2.09.42-4.01 1.44-5.51 2.95-2.02 2.02-3.15 4.75-3.15 7.6 0 2.86 1.13 5.59 3.15 7.61z"/><path d="m1060.1 1684.45c2.01 2.01 4.58 3.38 7.37 3.94 2.8.55 5.69.27 8.32-.82s4.88-2.94 6.46-5.31c1.59-2.36 2.43-5.15 2.43-8 0-2.84-.84-5.63-2.43-8-1.58-2.36-3.83-4.21-6.46-5.3s-5.52-1.37-8.32-.82c-2.79.56-5.36 1.93-7.37 3.94-1.34 1.34-2.4 2.92-3.13 4.67-.72 1.75-1.09 3.62-1.09 5.51 0 1.9.37 3.77 1.09 5.52.73 1.75 1.79 3.33 3.13 4.67z"/><path d="m1093.95 1653.23c4.84 0 8.76-3.92 8.76-8.76s-3.92-8.76-8.76-8.76-8.76 3.92-8.76 8.76 3.92 8.76 8.76 8.76z"/><path d="m1197.05 1620.07c0 1.73.51 3.43 1.48 4.87.96 1.44 2.33 2.56 3.93 3.22 1.6.67 3.36.84 5.06.5s3.26-1.17 4.48-2.4c1.23-1.22 2.06-2.78 2.4-4.48s.17-3.46-.5-5.06c-.66-1.6-1.78-2.97-3.22-3.93-1.44-.97-3.14-1.48-4.87-1.48-2.32 0-4.55.92-6.19 2.56-1.65 1.65-2.57 3.88-2.57 6.2z"/><path d="m1102.49 1667.58c0 1.03.31 2.05.88 2.91.58.86 1.39 1.53 2.35 1.92.96.4 2.01.5 3.02.3 1.02-.2 1.95-.7 2.68-1.44.73-.73 1.23-1.66 1.43-2.68.2-1.01.1-2.06-.3-3.02-.4-.95-1.07-1.77-1.93-2.34-.86-.58-1.88-.88-2.91-.88-.69 0-1.37.13-2 .4-.63.26-1.21.65-1.69 1.13-.49.49-.87 1.06-1.14 1.7-.26.63-.39 1.31-.39 2z"/><path d="m1188.13 1639.88c0 1.03.3 2.05.88 2.91.57.86 1.39 1.53 2.34 1.93.96.4 2.01.5 3.03.3 1.01-.2 1.95-.7 2.68-1.43s1.23-1.67 1.43-2.68c.2-1.02.1-2.07-.3-3.03-.4-.95-1.07-1.77-1.93-2.34-.86-.58-1.87-.88-2.91-.88-1.38 0-2.71.55-3.69 1.53s-1.53 2.31-1.53 3.69z"/><path d="m1114.92 1647.7c3.53 0 6.4-2.87 6.4-6.4 0-3.54-2.87-6.4-6.4-6.4s-6.4 2.86-6.4 6.4c0 3.53 2.87 6.4 6.4 6.4z"/></g><path d="m1313.34 1405.64c10.62-39 9.34-65.67 39.23-98.1 25.5-27.66 98.38-39 129.32-7.39 10.63 10.86 13.3 25.44-2.13 30.28-10.7 3.36-44.13.93-70.59 23.53-21.46 18.33-18.24 38.74-15.9 66.77 3 35.85-61.55 42.35-61.55 42.35z" fill="#de623c"/><path d="m1172.41 1413.13c21.93-1.24 51.08 5.19 62 20s-17.66 12.55-37.57 5.73-32.36 1.29-56.23 8.51-28.01-30.86 31.8-34.24z" fill="#fa7c6c"/><path d="m1197.37 1433.25c.14 2.12.9 4.16 2.2 5.85 1.29 1.68 3.06 2.95 5.07 3.63 2.02.69 4.19.76 6.24.21 2.06-.55 3.9-1.7 5.31-3.3 1.4-1.6 2.29-3.58 2.57-5.69.27-2.11-.08-4.26-1.03-6.16-.94-1.91-2.43-3.5-4.28-4.56-1.84-1.06-3.96-1.54-6.08-1.4-2.84.19-5.49 1.5-7.36 3.64s-2.82 4.94-2.64 7.78z" fill="#e01947"/><path d="m1126.73 1437.52c.12 1.84.78 3.6 1.9 5.07 1.12 1.46 2.65 2.56 4.4 3.15 1.74.6 3.62.66 5.4.18 1.78-.47 3.38-1.46 4.6-2.85 1.22-1.38 2-3.1 2.24-4.92.24-1.83-.06-3.69-.88-5.34-.81-1.66-2.1-3.03-3.69-3.96-1.6-.92-3.43-1.35-5.27-1.23-2.47.16-4.77 1.29-6.4 3.15s-2.46 4.28-2.3 6.75z" fill="#e01947"/><path d="m1172.98 1422.3c.97.85 2.16 1.39 3.44 1.56 1.27.17 2.57-.05 3.72-.62 1.15-.56 2.11-1.46 2.76-2.58.64-1.11.94-2.39.85-3.67-.08-1.28-.54-2.51-1.33-3.53-.78-1.02-1.85-1.79-3.06-2.2-1.22-.41-2.53-.46-3.78-.12-1.24.33-2.35 1.02-3.2 1.99-.56.64-1 1.39-1.27 2.19-.28.81-.39 1.67-.33 2.52.05.85.28 1.68.65 2.45.38.76.91 1.45 1.55 2.01z" fill="#e01947"/><path d="m1234.98 1442.25c.97.85 2.16 1.39 3.44 1.56 1.27.17 2.57-.05 3.72-.62 1.15-.56 2.11-1.46 2.76-2.58.64-1.11.94-2.39.85-3.67-.08-1.28-.54-2.51-1.33-3.53-.78-1.02-1.85-1.79-3.06-2.2-1.22-.41-2.53-.46-3.78-.12-1.24.33-2.35 1.02-3.2 1.99-.56.64-1 1.39-1.27 2.19-.28.81-.39 1.67-.33 2.52.05.85.28 1.68.65 2.45.38.76.91 1.45 1.55 2.01z" fill="#e01947"/><path d="m1159.5 1428.37c.7.62 1.57 1.01 2.5 1.14.92.12 1.86-.03 2.7-.44.84-.42 1.54-1.07 2.01-1.88.46-.8.68-1.73.62-2.67-.06-.93-.39-1.82-.96-2.56s-1.35-1.3-2.23-1.6c-.89-.3-1.84-.33-2.74-.09s-1.71.75-2.33 1.45c-.82.94-1.24 2.17-1.16 3.41.08 1.25.65 2.41 1.59 3.24z" fill="#e01947"/><path d="m1126.34 1422.28c.7.62 1.57 1.01 2.5 1.14.92.12 1.86-.03 2.7-.44.84-.42 1.54-1.07 2.01-1.88.46-.8.68-1.73.62-2.67-.06-.93-.39-1.82-.96-2.56s-1.35-1.3-2.23-1.6c-.89-.3-1.84-.33-2.74-.09s-1.71.75-2.33 1.45c-.82.94-1.24 2.17-1.16 3.41.08 1.25.65 2.41 1.59 3.24z" fill="#e01947"/><path d="m1081.16 1236.21c17.59-11 51.23-8.09 44.65 22.22s-33.39 23.45-36.69 42.14 6 35.27-8.09 49.84-28.35-22.1-38.87-1.84-35-12.21-23.48-31.23c13-21.38 62.48-81.13 62.48-81.13z" fill="#fa7c6c"/><path d="m1093.39 1256.44c0 2.32.69 4.59 1.98 6.53 1.29 1.93 3.13 3.44 5.27 4.32 2.15.89 4.51 1.13 6.79.67 2.28-.45 4.38-1.57 6.02-3.21 1.64-1.65 2.76-3.74 3.21-6.02.46-2.28.22-4.64-.66-6.79-.89-2.14-2.4-3.98-4.33-5.27s-4.21-1.98-6.53-1.98c-3.12 0-6.11 1.24-8.31 3.44s-3.44 5.19-3.44 8.31z" fill="#e01947"/><path d="m1069.28 1338.64c0 2.32.69 4.6 1.98 6.53s3.12 3.44 5.27 4.33c2.14.89 4.51 1.13 6.79.67 2.28-.45 4.37-1.57 6.01-3.21 1.65-1.64 2.77-3.74 3.22-6.01.46-2.28.23-4.65-.66-6.8-.89-2.14-2.4-3.98-4.33-5.27s-4.21-1.98-6.53-1.98c-3.11 0-6.1 1.24-8.31 3.44-2.2 2.2-3.44 5.18-3.44 8.3z" fill="#e01947"/><path d="m1101.9 1282.05c0 1.58.47 3.13 1.35 4.44.88 1.32 2.13 2.34 3.59 2.95s3.07.76 4.62.46c1.55-.31 2.98-1.08 4.1-2.19 1.12-1.12 1.88-2.55 2.19-4.1.3-1.55.15-3.16-.46-4.62-.6-1.46-1.63-2.71-2.95-3.59-1.31-.88-2.86-1.35-4.44-1.35-2.12 0-4.16.84-5.66 2.34s-2.34 3.54-2.34 5.66z" fill="#e01947"/><path d="m1055.2 1292.45c0 1.58.47 3.13 1.35 4.44.88 1.32 2.13 2.34 3.59 2.95s3.07.76 4.62.46c1.55-.31 2.98-1.08 4.1-2.19 1.12-1.12 1.88-2.55 2.19-4.1.3-1.55.15-3.16-.46-4.62-.6-1.46-1.63-2.71-2.95-3.59-1.31-.88-2.86-1.35-4.44-1.35-2.12 0-4.16.84-5.66 2.34s-2.34 3.54-2.34 5.66z" fill="#e01947"/><path d="m1073.98 1281.54c0 1.03.3 2.03.87 2.88.57.86 1.39 1.52 2.33 1.91.95.4 2 .5 3 .3 1.01-.2 1.93-.7 2.66-1.42.73-.73 1.22-1.65 1.42-2.66s.1-2.05-.3-3c-.39-.95-1.05-1.76-1.91-2.33-.85-.57-1.85-.87-2.88-.87-.68 0-1.36.13-1.99.39-.63.27-1.2.65-1.68 1.13s-.86 1.05-1.12 1.68c-.27.63-.4 1.31-.4 1.99z" fill="#e01947"/><path d="m1078.42 1362.81c0 .84.25 1.66.71 2.35.47.7 1.13 1.25 1.91 1.57.77.32 1.62.4 2.45.24.82-.17 1.58-.57 2.17-1.16.59-.6.99-1.35 1.16-2.17.16-.83.08-1.68-.24-2.45-.32-.78-.87-1.44-1.56-1.91-.7-.46-1.52-.71-2.36-.71-1.12 0-2.2.45-3 1.24-.79.8-1.24 1.87-1.24 3z" fill="#e01947"/><path d="m1034.77 1340.48c0 .84.25 1.66.71 2.35.47.7 1.13 1.25 1.91 1.57.77.32 1.62.4 2.45.24.82-.17 1.58-.57 2.17-1.16.59-.6.99-1.35 1.16-2.17.16-.83.08-1.68-.24-2.45-.32-.78-.87-1.44-1.56-1.91-.7-.46-1.52-.71-2.36-.71-1.12 0-2.2.45-3 1.24-.79.8-1.24 1.87-1.24 3z" fill="#e01947"/><path d="m1049.62 1335.64c0 1.03.3 2.03.87 2.88.57.86 1.39 1.52 2.33 1.91.95.4 2 .5 3 .3 1.01-.2 1.93-.7 2.66-1.42.73-.73 1.22-1.65 1.42-2.66s.1-2.05-.3-3c-.39-.95-1.05-1.76-1.91-2.33-.85-.57-1.85-.87-2.88-.87-1.38 0-2.7.55-3.67 1.52s-1.52 2.29-1.52 3.67z" fill="#e01947"/><path d="m1046.7 1359.01c0 1.74.52 3.44 1.48 4.89.97 1.45 2.35 2.58 3.96 3.25s3.38.84 5.09.5 3.28-1.18 4.51-2.41 2.07-2.8 2.41-4.51.17-3.48-.5-5.09-1.8-2.99-3.25-3.96c-1.44-.96-3.15-1.48-4.89-1.48-2.34 0-4.58.93-6.23 2.58s-2.58 3.89-2.58 6.23z" fill="#e01947"/><path d="m1951.58 326.82c9.37-10.73 41.29-22.14 58.8-5.46 9.07 9.68-.21 30 3.92 41.35s27.09 9.92 40.41 7 27.25 9.2 23 33.89c-3.28 18.95-3.16 26.43 10.64 31.57s42.37 3 34.3 30.67c-5.74 13.69-10.88 22.37-11.93 14.88s12.44-18.34.91-27-30.66-2.3-40.69-14.08c-16.79-19.72 5.58-45.27-6.57-55.34s-45.84 6.7-55.66-9.51 7.32-36.73-7.89-47.43-42.84 6.4-49.24-.54z" fill="#516eb4"/><path d="m787.73 384.82c1.21-1.642 2.519-3.208 3.92-4.69.61-.65-.51.51-.51.51l.57-.56c.32-.3.64-.6 1-.89s.65-.57 1-.85c.48-.4 2.08-1.47.09-.11.73-.5 1.43-1 2.17-1.53.35-.23.71-.44 1.06-.66s1.16-.56-.69.39c.26-.13.5-.28.76-.42.753-.407 1.523-.787 2.31-1.14.48-.22 2-.76-.07 0l1.37-.53c.76-.27 1.53-.52 2.3-.74.39-.12.78-.22 1.17-.32s1.27-.19-.37.08c.24 0 .47-.1.71-.15 1.742-.368 3.505-.622 5.28-.76l1.22-.07c1.23-.08-.91 0 .32 0h2.7c1.781.078 3.557.252 5.32.52 1.79.27 3.56.64 5.32 1.07.06 0 .88.24.28.07s.22.07.28.08l1.22.36c.91.28 1.8.58 2.69.9 3.523 1.265 6.932 2.827 10.19 4.67 3.294 1.87 6.431 4.003 9.38 6.38l1 .84c.08.07.76.65.18.14l.39.35c.73.64 1.44 1.29 2.14 2 1.39 1.33 2.73 2.71 4 4.16 4.794 5.449 8.525 11.747 11 18.57.29.79-.19-.65.06.16l.18.59c.13.44.26.88.37 1.32.24.88.45 1.76.63 2.65.341 1.7.579 3.42.71 5.15.12 1.781.12 3.569 0 5.35-.06.88-.15 1.75-.25 2.63.12-1.06-.06.31-.1.56-.09.5-.18 1-.29 1.51-.383 1.792-.887 3.556-1.51 5.28-.452.881-.823 1.802-1.11 2.75 0-.07.46-1 .13-.29-.12.25-.23.5-.36.75-.24.5-.5 1-.77 1.49-.93 1.73-1.94 3.43-2.95 5.1-.23.38-.47.76-.71 1.13-.15.21-.31.43-.45.65.8-1.28.49-.67.25-.35-.63.79-1.26 1.56-1.95 2.29-1 1 1-1 0 0-.32.3-.63.6-1 .89l-1 .84-.51.4c-.42.35 1.54-1.12.39-.3-.71.5-1.43 1-2.17 1.44l-.67.41c1.75-1.08 1.16-.66.76-.45l-1.38.74c-.86.43-1.75.8-2.62 1.2 0 0 1.51-.6.68-.29l-.73.28c-.5.19-1 .36-1.49.52-.83.27-1.66.52-2.51.74l-.76.19s1.35-.29.55-.13l-1.53.31c-1.854.346-3.727.574-5.61.68h-.51c-.93.06 1.07 0 .14 0h-1.26c-.9 0-1.81 0-2.72-.11-1.681-.129-3.351-.369-5-.72l-.68-.16c-.08 0-.83-.21-.21-.05s-.65-.19-.85-.25c-.77-.24-1.54-.52-2.29-.83-1.368-.557-2.678-1.247-3.91-2.06-.28-.18-.55-.38-.82-.58s-1-.81-.62-.47-.43-.4-.56-.53-.54-.55-.79-.85c-.886-1.005-1.62-2.133-2.18-3.35-.13-.29-.24-.59-.36-.88-.34-.83.11.54-.1-.32-.184-.711-.324-1.432-.42-2.16-.078-.771-.102-1.546-.07-2.32 0-.37.06-.74.08-1.11 0-.61 0 .19 0 .27 0-.31.1-.62.16-.93.162-.811.369-1.612.62-2.4.409-.912.763-1.847 1.06-2.8.1.11-.44.92 0 0l.27-.53c.26-.51.52-1 .81-1.5.63-1.12 1.32-2.2 2.05-3.26.13-.2.27-.39.41-.58.72-1-.71.93.07-.09.38-.51.76-1 1.17-1.51.9-1.1 1.9-2.13 2.88-3.17s1.73-1.81 2.61-2.7-1 1 0 0l.52-.52 1.55-1.49c1.82-1.74 3.683-3.407 5.59-5 .82-.7 1.66-1.39 2.5-2.06.41-.33.82-.66 1.24-1s1.36-1-.34.26l.74-.55c1.733-1.293 3.507-2.52 5.32-3.68.78-.49 1.58-1 2.37-1.45s-1.31.74-.62.36l.59-.33 1.39-.76c1.57-.83 3.17-1.61 4.8-2.3l.67-.29c-1.71.79-1.06.43-.63.26l1.22-.46c.79-.3 1.6-.57 2.41-.83s1.43-.43 2.15-.62c.45-.12 1.81-.35 0 0 .42-.08.83-.19 1.26-.28 1.486-.305 2.989-.526 4.5-.66l1-.07c.4 0 1.62 0 0 0h2.14c1.316.037 2.628.154 3.93.35.67.1 1.33.22 2 .36l.89.2.35.09c.62.15-1-.28-.05 0 2.44.729 4.789 1.735 7 3 1.079.622 2.12 1.307 3.12 2.05.48.35.95.72 1.42 1.1l.41.35c-.69-.55-.37-.32-.22-.19l.81.73c3.949 3.775 7.158 8.255 9.46 13.21.61 1.28 1.17 2.59 1.69 3.92.27.71.53 1.42.78 2.14 0 .14.09.27.13.4.25.7-.21-.7 0 0 .12.41.25.81.37 1.22.881 3.009 1.549 6.077 2 9.18.982 6.621 1.153 13.337.51 20-.08.87-.17 1.73-.28 2.6 0 .2-.05.41-.08.62-.1.87.13-.82 0 .05-.08.5-.15 1-.22 1.5-.28 1.767-.613 3.527-1 5.28-.784 3.699-1.786 7.349-3 10.93-.61 1.8-1.28 3.58-2 5.34-.37.9-.74 1.79-1.13 2.67l-.28.63c-.15.33-.63.94 0 0-.272.491-.513.998-.72 1.52-1.732 3.606-3.672 7.109-5.81 10.49-1.1 1.74-2.26 3.45-3.45 5.13-.61.86.61-.82.18-.25l-.44.6c-.3.41-.6.81-.91 1.2-.67.89-1.36 1.76-2.06 2.62-1.1 1.36-2.46 4.44.41 4.66s6-1.78 7.72-3.86c10.92-13.45 19-29.34 22.43-46.39 2.84-14.08 2.74-28.78-1.81-42.49-3.59-10.79-10.49-21-21-26.07-12.49-6.06-26.9-3.24-38.91 2.55-8.676 4.345-16.695 9.893-23.82 16.48-4.43 3.905-8.568 8.13-12.38 12.64-3.558 4.139-6.348 8.88-8.24 14-2.16 6.39-1.54 13.66 3.63 18.42s12.56 6.72 19.56 6.91c8.814.26 17.541-1.809 25.3-6 4.616-2.475 8.793-5.695 12.36-9.53 2.868-3.35 5.307-7.046 7.26-11 3.985-7.26 5.824-15.504 5.3-23.77-.683-7.623-3.142-14.979-7.18-21.48-8.437-13.471-21.316-23.57-36.41-28.55-7.584-2.587-15.641-3.491-23.61-2.65-9.013 1.162-17.525 4.812-24.58 10.54-3.364 2.69-6.354 5.818-8.89 9.3-.6.82-1.52 2-1.4 3.08.062.436.279.836.612 1.126.332.29.757.451 1.198.454 2.66.2 6.18-1.74 7.72-3.86z" fill="#516eb4"/><path d="m2519.63 951.64c-3.44 14.982-11.24 28.609-22.42 39.157-11.18 10.553-25.24 17.543-40.4 20.103-15.15 2.56-30.73.56-44.75-5.73-14.03-6.292-25.87-16.603-34.03-29.627-8.17-13.024-12.29-28.176-11.84-43.541s5.44-30.252 14.35-42.779 21.33-22.131 35.7-27.598c14.36-5.467 30.03-6.551 45.01-3.115 20.09 4.61 37.53 17.011 48.48 34.476 10.94 17.465 14.51 38.563 9.9 58.654z" fill="#516eb4"/><path d="m2467.27 799.01c-1.32 5.788-4.33 11.055-8.64 15.133-4.32 4.078-9.74 6.785-15.6 7.776-5.85.992-11.87.225-17.28-2.205-5.42-2.429-10-6.411-13.15-11.441-3.15-5.031-4.74-10.884-4.57-16.818.18-5.935 2.11-11.684 5.56-16.519 3.44-4.836 8.24-8.541 13.79-10.646s11.61-2.516 17.39-1.18c7.74 1.787 14.45 6.569 18.67 13.299s5.6 14.857 3.83 22.601z" fill="#516eb4"/><path d="m2603.68 867.9c-1.32 5.789-4.32 11.057-8.64 15.137-4.31 4.08-9.74 6.788-15.59 7.782s-11.87.229-17.29-2.199c-5.42-2.427-9.99-6.408-13.15-11.437-3.15-5.03-4.74-10.883-4.57-16.817.17-5.935 2.1-11.685 5.55-16.521 3.44-4.837 8.24-8.544 13.79-10.65 5.55-2.107 11.6-2.519 17.39-1.185 7.74 1.785 14.45 6.565 18.67 13.293 4.22 6.727 5.6 14.854 3.84 22.597z" fill="#516eb4"/><path d="m2620.13 1044.3c-1.32 5.79-4.33 11.05-8.64 15.13-4.32 4.08-9.74 6.79-15.6 7.78-5.85.99-11.87.22-17.28-2.21-5.42-2.42-10-6.41-13.15-11.44s-4.74-10.88-4.57-16.82c.18-5.93 2.11-11.68 5.56-16.51 3.44-4.84 8.24-8.54 13.79-10.65 5.55-2.1 11.61-2.52 17.39-1.18 3.84.88 7.46 2.5 10.67 4.78s5.93 5.17 8.02 8.51c2.09 3.33 3.5 7.04 4.16 10.92.65 3.88.53 7.86-.35 11.69z" fill="#516eb4"/><path d="m2422.55 1068.1c-1.32 5.79-4.33 11.06-8.64 15.13-4.32 4.08-9.74 6.79-15.6 7.78-5.85.99-11.87.22-17.28-2.21-5.42-2.42-10-6.41-13.15-11.44s-4.74-10.88-4.57-16.82c.18-5.93 2.11-11.68 5.56-16.51 3.44-4.84 8.24-8.54 13.79-10.65 5.55-2.1 11.61-2.52 17.39-1.18 7.74 1.79 14.45 6.57 18.67 13.3s5.6 14.86 3.83 22.6z" fill="#516eb4"/><path d="m2306.49 902.7c-1.32 5.79-4.32 11.059-8.63 15.141-4.31 4.081-9.74 6.791-15.6 7.787-5.85.995-11.87.231-17.29-2.196-5.41-2.427-9.99-6.407-13.15-11.437-3.15-5.029-4.74-10.882-4.57-16.818.17-5.935 2.1-11.685 5.55-16.522 3.44-4.838 8.24-8.544 13.79-10.651s11.6-2.519 17.39-1.184c7.74 1.785 14.45 6.563 18.67 13.289 4.22 6.725 5.6 14.849 3.84 22.591z" fill="#516eb4"/><path d="m2444.35 906.82c-1.79.087-3.55-.54-4.88-1.743s-2.13-2.885-2.22-4.677l-5.63-112c-.04-.887.09-1.774.39-2.611.29-.837.75-1.606 1.35-2.265.6-.658 1.32-1.193 2.12-1.573.8-.379 1.67-.597 2.56-.641.89-.046 1.77.084 2.61.381.84.298 1.61.758 2.27 1.353.65.595 1.19 1.315 1.57 2.117.38.803.6 1.672.64 2.559l5.63 112c.05.887-.08 1.775-.38 2.612s-.76 1.607-1.35 2.267c-.6.659-1.32 1.195-2.12 1.576s-1.67.6-2.56.645z" fill="#516eb4"/><path d="m2393.21 1061.47c-1.68-.64-3.03-1.91-3.77-3.55-.74-1.63-.79-3.49-.16-5.17l39.7-104.87c.64-1.676 1.91-3.032 3.55-3.769 1.63-.736 3.49-.794 5.17-.161.83.314 1.59.789 2.24 1.397.65.609 1.17 1.339 1.53 2.148.37.81.57 1.684.6 2.572.02.888-.13 1.772-.44 2.603l-39.65 104.87c-.31.84-.79 1.6-1.4 2.25-.62.65-1.35 1.18-2.17 1.54-.81.37-1.69.57-2.58.59-.9.02-1.79-.13-2.62-.45z" fill="#516eb4"/><path d="m2464.51 923.55c-.43-.779-.7-1.635-.79-2.518-.1-.884-.02-1.777.23-2.63.25-.852.67-1.647 1.22-2.339.56-.692 1.25-1.267 2.03-1.693l98.38-53.82c.78-.427 1.64-.696 2.52-.791.88-.096 1.78-.017 2.63.233s1.65.665 2.34 1.223c.69.557 1.26 1.245 1.69 2.025.43.779.7 1.634.79 2.517.1.882.02 1.776-.23 2.628-.25.853-.66 1.648-1.22 2.34-.55.692-1.24 1.268-2.02 1.695l-98.39 53.82c-1.57.859-3.43 1.058-5.15.554s-3.17-1.671-4.03-3.244z" fill="#516eb4"/><path d="m2576.4 1022.71c-.58.67-1.29 1.22-2.09 1.62-.79.39-1.66.63-2.54.69-.89.06-1.78-.05-2.62-.33s-1.62-.73-2.29-1.31l-84.64-73.56c-1.36-1.178-2.19-2.845-2.31-4.636-.13-1.791.46-3.559 1.64-4.914.58-.671 1.29-1.221 2.09-1.617.79-.397 1.66-.632 2.54-.694.89-.061 1.78.053 2.62.336.84.284 1.62.73 2.29 1.315l84.64 73.56c.67.58 1.22 1.29 1.62 2.09.39.79.63 1.66.69 2.54.06.89-.05 1.78-.33 2.62s-.73 1.62-1.31 2.29z" fill="#516eb4"/><path d="m2400.29 919.39c-.3 1.767-1.29 3.342-2.76 4.38-1.46 1.039-3.27 1.456-5.04 1.16l-110.57-18.72c-1.77-.303-3.34-1.294-4.38-2.756s-1.46-3.276-1.16-5.044c.3-1.767 1.29-3.342 2.76-4.38 1.46-1.039 3.27-1.456 5.04-1.16l110.57 18.72c1.77.301 3.35 1.291 4.38 2.754 1.04 1.462 1.46 3.277 1.16 5.046z" fill="#516eb4"/><path d="m2566.83 1735.13c-8.57 1.19-17.3-.2-25.09-3.97-7.78-3.78-14.27-9.78-18.65-17.24-4.37-7.47-6.44-16.06-5.93-24.7s3.57-16.93 8.79-23.83 12.37-12.09 20.54-14.93c8.18-2.84 17.01-3.18 25.38-1 8.38 2.18 15.91 6.8 21.66 13.27 5.75 6.46 9.45 14.49 10.64 23.06 1.59 11.49-1.45 23.15-8.45 32.4-7.01 9.25-17.4 15.35-28.89 16.94z" fill="#fff"/><path d="m2654.82 1652.16c-3.5 1.85-7.47 2.61-11.4 2.2-3.94-.41-7.66-1.98-10.71-4.5-3.04-2.53-5.27-5.91-6.39-9.7-1.13-3.79-1.11-7.83.07-11.61 1.17-3.78 3.43-7.13 6.51-9.62 3.07-2.49 6.82-4.01 10.76-4.38 3.94-.36 7.89.46 11.37 2.34 3.48 1.89 6.32 4.77 8.16 8.27 2.47 4.69 2.97 10.17 1.4 15.23s-5.08 9.3-9.77 11.77z" fill="#fff"/><path d="m2642.05 1796.25c-1.47 3.67-4 6.83-7.26 9.06-3.27 2.24-7.12 3.46-11.07 3.5-3.96.05-7.84-1.08-11.15-3.24-3.32-2.16-5.92-5.26-7.47-8.89-1.56-3.64-2-7.66-1.27-11.55.72-3.88 2.59-7.47 5.35-10.3 2.77-2.83 6.31-4.77 10.18-5.59 3.87-.81 7.9-.46 11.57 1.01 4.92 1.97 8.86 5.82 10.94 10.7 2.09 4.87 2.15 10.38.18 15.3z" fill="#fff"/><path d="m2467.56 1720.68c-3.92.54-7.91-.09-11.47-1.82-3.56-1.72-6.53-4.46-8.53-7.88-2-3.41-2.94-7.34-2.71-11.29.24-3.95 1.63-7.74 4.02-10.89 2.39-3.16 5.66-5.53 9.4-6.83 3.73-1.29 7.77-1.45 11.6-.45s7.27 3.11 9.9 6.06c2.63 2.96 4.32 6.63 4.86 10.55.73 5.25-.66 10.58-3.86 14.81-3.21 4.23-7.96 7.01-13.21 7.74z" fill="#fff"/><path d="m2543.26 1609.07c-3.92.54-7.91-.09-11.47-1.82-3.56-1.72-6.53-4.46-8.53-7.88-2-3.41-2.94-7.34-2.71-11.29.24-3.95 1.63-7.74 4.02-10.89 2.39-3.16 5.66-5.53 9.4-6.83 3.73-1.29 7.77-1.45 11.6-.45s7.27 3.11 9.9 6.06c2.63 2.96 4.32 6.63 4.86 10.55.73 5.25-.66 10.58-3.87 14.81-3.2 4.23-7.95 7.01-13.2 7.74z" fill="#fff"/><path d="m2590.3 1687.51c-.82-.87-1.26-2.03-1.23-3.23.02-1.19.53-2.33 1.39-3.16l54.21-51.61c.43-.41.93-.73 1.49-.94.55-.22 1.14-.32 1.73-.3.6.01 1.18.14 1.72.38.54.25 1.03.59 1.44 1.02.82.87 1.27 2.03 1.24 3.22-.02 1.2-.53 2.33-1.39 3.16l-54.21 51.61c-.87.82-2.03 1.27-3.23 1.24-1.19-.02-2.33-.53-3.16-1.39z" fill="#fff"/><path d="m2464.75 1700.82c0-1.2.47-2.35 1.32-3.19.85-.85 1.99-1.33 3.19-1.33l74.84-.06c.59 0 1.18.11 1.73.34s1.05.56 1.47.98.75.91.98 1.46c.22.55.34 1.14.34 1.73s-.11 1.18-.34 1.73-.56 1.05-.98 1.47-.91.75-1.46.98c-.55.22-1.14.34-1.73.34l-74.84.06c-.59 0-1.18-.11-1.73-.34s-1.05-.56-1.47-.98-.75-.91-.98-1.46c-.22-.55-.34-1.14-.34-1.73z" fill="#fff"/><path d="m2615.45 1777.49c-.45.38-.98.67-1.54.85-.57.18-1.16.24-1.75.19s-1.17-.21-1.7-.49c-.52-.27-.99-.65-1.37-1.1l-48.21-57.25c-.38-.45-.67-.98-.85-1.54-.18-.57-.24-1.16-.19-1.75s.21-1.17.49-1.7c.27-.52.65-.99 1.1-1.37s.98-.67 1.54-.85c.57-.18 1.16-.25 1.75-.2s1.17.22 1.69.49c.53.27 1 .65 1.38 1.1l48.2 57.26c.38.45.67.98.85 1.54.18.57.25 1.16.2 1.75s-.22 1.17-.49 1.69c-.27.53-.65 1-1.1 1.38z" fill="#fff"/><path d="m2555.08 1671.54c-.58.12-1.18.12-1.76 0-.58-.11-1.14-.34-1.63-.67s-.92-.76-1.25-1.25-.56-1.05-.67-1.63l-14.52-73.42c-.23-1.17.01-2.39.68-3.39.67-.99 1.7-1.68 2.87-1.92 1.18-.23 2.4.02 3.39.68 1 .67 1.69 1.7 1.92 2.88l14.52 73.42c.12.58.11 1.18 0 1.76-.12.58-.35 1.13-.68 1.63-.33.49-.75.91-1.24 1.24-.5.33-1.05.56-1.63.67z" fill="#fff"/><path d="m2536.7 383.51c-6.81-10.34-10.39-22.467-10.31-34.846.09-12.379 3.84-24.454 10.79-34.7 6.95-10.245 16.78-18.199 28.25-22.857s24.06-5.81 36.19-3.311c12.12 2.499 23.23 8.538 31.93 17.352 8.69 8.814 14.57 20.008 16.9 32.166s1 24.734-3.81 36.137c-4.82 11.404-12.91 21.123-23.25 27.929-13.87 9.126-30.79 12.369-47.05 9.018-16.25-3.351-30.51-13.023-39.64-26.888z" fill="#fff"/><path d="m2697.98 446.11c-4.54-3.379-7.98-8.03-9.88-13.363-1.89-5.334-2.17-11.11-.78-16.598 1.39-5.489 4.37-10.442 8.58-14.234 4.2-3.792 9.43-6.252 15.03-7.068 5.6-.817 11.32.047 16.43 2.481 5.11 2.435 9.39 6.33 12.28 11.195 2.9 4.864 4.29 10.478 3.99 16.131s-2.26 11.091-5.65 15.626c-4.54 6.071-11.29 10.095-18.79 11.188s-15.13-.834-21.21-5.358z" fill="#fff"/><path d="m2504.04 518.28c-5.65.36-11.27-.962-16.17-3.8s-8.84-7.064-11.33-12.143c-2.5-5.08-3.43-10.785-2.68-16.394.75-5.608 3.14-10.87 6.88-15.117 3.74-4.248 8.65-7.292 14.12-8.746 5.47-1.455 11.25-1.256 16.6.573 5.36 1.829 10.05 5.205 13.49 9.7 3.43 4.496 5.46 9.91 5.82 15.557.48 7.571-2.07 15.023-7.08 20.718-5.01 5.694-12.08 9.166-19.65 9.652z" fill="#fff"/><path d="m2494.27 246.41c-3.11-4.727-4.75-10.27-4.71-15.929s1.75-11.179 4.93-15.862c3.18-4.684 7.67-8.32 12.91-10.449 5.25-2.129 11-2.655 16.54-1.512 5.55 1.142 10.63 3.903 14.6 7.933 3.97 4.029 6.66 9.147 7.73 14.705 1.06 5.558.45 11.306-1.75 16.519s-5.9 9.655-10.63 12.765c-6.34 4.169-14.07 5.651-21.5 4.118-7.43-1.532-13.95-5.952-18.12-12.288z" fill="#fff"/><path d="m2684.98 275.5c-3.11-4.725-4.75-10.266-4.71-15.922s1.76-11.173 4.94-15.854c3.17-4.68 7.66-8.314 12.91-10.442 5.24-2.127 10.99-2.653 16.53-1.511 5.54 1.143 10.62 3.902 14.59 7.929s6.66 9.142 7.72 14.697c1.07 5.555.46 11.301-1.74 16.511-2.2 5.211-5.9 9.652-10.62 12.762-3.14 2.066-6.65 3.493-10.34 4.2-3.69.708-7.48.681-11.16-.077-3.68-.759-7.18-2.235-10.28-4.344-3.11-2.11-5.78-4.811-7.84-7.949z" fill="#fff"/><path d="m2612.65 384.53c.62-1.595 1.84-2.88 3.4-3.576 1.56-.695 3.33-.743 4.93-.134l100 38.25c1.6.613 2.89 1.836 3.59 3.399s.75 3.34.14 4.941c-.61 1.599-1.84 2.889-3.4 3.589-1.56.699-3.34.75-4.94.141l-100-38.25c-.79-.304-1.52-.761-2.14-1.346-.61-.584-1.11-1.285-1.46-2.062-.34-.777-.53-1.614-.55-2.464-.02-.849.12-1.695.43-2.488z" fill="#fff"/><path d="m2518.21 230.55c1.54-.743 3.31-.845 4.93-.282 1.61.562 2.94 1.743 3.68 3.282l46.16 96.67c.74 1.54.84 3.311.28 4.925-.56 1.613-1.74 2.938-3.28 3.685-1.54.744-3.31.845-4.93.283-1.62-.563-2.94-1.743-3.69-3.283l-46.13-96.63c-.37-.763-.59-1.593-.65-2.442-.05-.848.06-1.699.34-2.503s.71-1.545 1.28-2.181c.56-.636 1.24-1.154 2.01-1.524z" fill="#fff"/><path d="m2511.9 472.37c-1.56-.709-2.77-2.007-3.37-3.611-.61-1.603-.55-3.379.16-4.939l44.29-97.49c.35-.773.85-1.469 1.47-2.049s1.34-1.032 2.14-1.33c.79-.298 1.64-.437 2.49-.408.84.029 1.68.225 2.45.577 1.56.711 2.77 2.009 3.37 3.612.6 1.602.54 3.378-.16 4.938l-44.29 97.49c-.35.773-.85 1.469-1.47 2.049s-1.34 1.032-2.14 1.33c-.79.298-1.64.437-2.49.408-.84-.029-1.68-.225-2.45-.577z" fill="#fff"/><path d="m2611.58 329.21c-1.01-1.372-1.44-3.088-1.19-4.774s1.16-3.205 2.52-4.226l85.89-63.94c1.37-1.01 3.09-1.437 4.77-1.188 1.69.249 3.21 1.154 4.23 2.518 1.01 1.371 1.44 3.088 1.19 4.774-.25 1.687-1.15 3.206-2.52 4.226l-85.89 63.94c-1.37 1.01-3.09 1.437-4.77 1.188-1.69-.249-3.21-1.154-4.23-2.518z" fill="#fff"/><g fill="#516eb4"><path d="m215.39 469.99c13.87-6.626 29.394-8.989 44.608-6.792 15.213 2.197 29.434 8.856 40.863 19.135s19.554 23.716 23.346 38.612c3.792 14.897 3.082 30.583-2.041 45.076-5.122 14.493-14.428 27.141-26.739 36.345-12.311 9.205-27.075 14.551-42.425 15.365-15.35.813-30.596-2.943-43.811-10.795s-23.805-19.446-30.431-33.316c-4.399-9.21-6.942-19.196-7.482-29.388s.933-20.39 4.334-30.013c3.402-9.623 8.665-18.482 15.49-26.071s15.078-13.759 24.288-18.158z"/><path d="m128.42 605.91c5.354-2.57 11.351-3.493 17.23-2.652s11.376 3.408 15.795 7.376 7.561 9.158 9.028 14.913c1.466 5.755 1.192 11.816-.789 17.415s-5.579 10.484-10.339 14.036c-4.759 3.552-10.466 5.612-16.397 5.918s-11.82-1.155-16.92-4.199c-5.099-3.043-9.181-7.532-11.728-12.897-3.402-7.168-3.827-15.391-1.18-22.87 2.646-7.48 8.147-13.607 15.3-17.04z"/><path d="m97.54 456.25c5.354-2.567 11.349-3.488 17.226-2.645 5.877.842 11.372 3.409 15.79 7.376 4.417 3.968 7.558 9.156 9.025 14.91 1.466 5.753 1.193 11.812-.786 17.41-1.979 5.597-5.575 10.482-10.331 14.035-4.757 3.553-10.461 5.615-16.391 5.924-5.929.31-11.816-1.147-16.9172-4.186-5.1007-3.039-9.185-7.523-11.7358-12.884-3.4115-7.171-3.841-15.401-1.1942-22.888s8.1539-13.619 15.3142-17.052z"/><path d="m225.45 333.66c5.354-2.567 11.349-3.488 17.226-2.645 5.877.842 11.372 3.409 15.79 7.376 4.417 3.967 7.558 9.156 9.024 14.909 1.467 5.754 1.194 11.813-.785 17.411-1.979 5.597-5.575 10.482-10.332 14.035-4.756 3.553-10.46 5.615-16.39 5.924-5.929.31-11.817-1.147-16.917-4.186-5.101-3.039-9.185-7.523-11.736-12.884-1.696-3.55-2.676-7.398-2.884-11.327-.209-3.928.359-7.859 1.67-11.568s3.341-7.123 5.972-10.048 5.812-5.302 9.362-6.997z"/><path d="m366.98 473.58c5.353-2.561 11.345-3.477 17.218-2.632 5.874.845 11.365 3.413 15.779 7.378 4.414 3.966 7.553 9.152 9.019 14.902 1.467 5.749 1.195 11.805-.78 17.4-1.975 5.596-5.565 10.48-10.316 14.035-4.752 3.555-10.45 5.621-16.376 5.937-5.925.316-11.811-1.133-16.914-4.162-5.102-3.03-9.191-7.504-11.75-12.858-3.43-7.177-3.87-15.423-1.222-22.924s8.166-13.643 15.342-17.076z"/><path d="m309.61 667.33c5.353-2.561 11.345-3.477 17.218-2.632 5.874.845 11.365 3.413 15.779 7.378 4.414 3.966 7.553 9.152 9.019 14.902 1.467 5.749 1.195 11.805-.78 17.4-1.975 5.596-5.565 10.48-10.317 14.035-4.751 3.555-10.449 5.621-16.375 5.937-5.925.316-11.811-1.133-16.914-4.162-5.102-3.03-9.191-7.504-11.75-12.858-3.431-7.177-3.87-15.423-1.222-22.924s8.166-13.643 15.342-17.076z"/><path d="m227.1 556.82c1.184 1.346 1.785 3.107 1.671 4.896-.115 1.789-.935 3.46-2.281 4.644l-84.21 74.06c-1.348 1.185-3.111 1.786-4.901 1.671-1.791-.114-3.463-.935-4.649-2.281-1.183-1.349-1.783-3.113-1.667-4.903.117-1.791.939-3.462 2.287-4.647l84.21-74.05c.666-.588 1.441-1.038 2.281-1.325.841-.288 1.729-.406 2.616-.35.886.057 1.752.288 2.549.68s1.508.937 2.094 1.605z"/><path d="m379.98 500.69c.271.846.372 1.736.299 2.621-.074.885-.321 1.747-.728 2.536-.407.79-.965 1.491-1.643 2.065-.678.573-1.462 1.008-2.308 1.278l-106.84 34.1c-1.709.543-3.565.387-5.158-.437-1.594-.823-2.796-2.245-3.342-3.953-.544-1.709-.387-3.565.437-5.158.823-1.594 2.245-2.796 3.953-3.342l106.83-34.1c1.709-.544 3.565-.387 5.158.437 1.594.823 2.796 2.244 3.342 3.953z"/><path d="m227.66 530.62c-.697 1.653-2.022 2.961-3.683 3.638s-3.523.667-5.177-.028l-103.32-43.58c-.819-.344-1.563-.847-2.187-1.478-.625-.632-1.12-1.381-1.455-2.204s-.505-1.703-.499-2.592c.005-.889.186-1.767.531-2.586.697-1.653 2.022-2.961 3.683-3.638s3.523-.667 5.177.028l103.33 43.58c.818.345 1.561.848 2.184 1.48.624.632 1.118 1.381 1.452 2.204s.503 1.703.497 2.592c-.006.888-.187 1.766-.533 2.584z"/><path d="m241.98 376.66c1.79-.112 3.551.49 4.897 1.675s2.167 2.855 2.283 4.645l7.11 111.92c.057.886-.061 1.775-.348 2.616s-.737 1.617-1.324 2.284-1.299 1.211-2.097 1.602c-.798.392-1.664.622-2.551.678-1.79.112-3.551-.49-4.897-1.675s-2.167-2.855-2.283-4.645l-7.13-111.94c-.054-.887.067-1.775.356-2.615.29-.839.742-1.614 1.33-2.279.589-.665 1.303-1.207 2.102-1.596.798-.389 1.665-.617 2.552-.67z"/><path d="m264.35 583.5c.778-.429 1.632-.7 2.515-.798s1.776-.02 2.629.228 1.648.662 2.341 1.218c.692.556 1.268 1.243 1.695 2.022l54.1 98.22c.429.778.701 1.633.8 2.516s.022 1.777-.225 2.63c-.247.854-.66 1.65-1.215 2.344s-1.241 1.272-2.02 1.7c-1.572.865-3.422 1.07-5.145.571-1.723-.498-3.178-1.661-4.045-3.231l-54.1-98.23c-.864-1.573-1.068-3.424-.567-5.148.5-1.723 1.665-3.177 3.237-4.042z"/><path d="m447.8 1673.82c17.8 28.25 10 65.82-17.34 83.9s-64 9.85-81.8-18.4-10-65.81 17.34-83.9 63.98-9.89 81.8 18.4z"/><path d="m336.65 1619.46c3.317 5.2 4.475 11.49 3.23 17.53-1.246 6.04-4.797 11.36-9.9 14.83-2.522 1.65-5.351 2.78-8.317 3.31-2.966.54-6.01.47-8.95-.19-2.941-.66-5.719-1.91-8.169-3.66-2.45-1.76-4.522-3.99-6.094-6.56-3.306-5.2-4.456-11.49-3.207-17.53 1.248-6.03 4.798-11.35 9.897-14.81 2.521-1.65 5.346-2.77 8.31-3.31 2.963-.54 6.004-.47 8.942.19s5.714 1.9 8.163 3.65c2.449 1.76 4.522 3.98 6.095 6.55z"/><path d="m446.47 1581.07c3.307 5.2 4.459 11.49 3.212 17.52-1.247 6.04-4.795 11.35-9.892 14.82-2.523 1.65-5.352 2.78-8.319 3.31-2.967.54-6.012.48-8.953-.19-2.942-.66-5.72-1.9-8.171-3.66s-4.524-3.99-6.097-6.56c-3.306-5.2-4.456-11.49-3.207-17.53 1.248-6.03 4.798-11.35 9.897-14.81 2.523-1.65 5.351-2.78 8.317-3.31 2.966-.54 6.01-.47 8.951.19 2.94.66 5.718 1.91 8.168 3.66 2.45 1.76 4.522 3.99 6.094 6.56z"/><path d="m551.63 1668.42c3.326 5.2 4.491 11.5 3.25 17.55-1.242 6.05-4.793 11.38-9.9 14.85-2.523 1.65-5.351 2.78-8.317 3.31-2.966.54-6.01.47-8.951-.19-2.94-.66-5.718-1.91-8.168-3.66-2.45-1.76-4.522-3.99-6.094-6.56-3.308-5.2-4.46-11.49-3.211-17.53 1.249-6.03 4.8-11.35 9.901-14.81 2.517-1.65 5.339-2.77 8.299-3.31s5.997-.47 8.932.18c2.936.66 5.71 1.9 8.159 3.64 2.449 1.75 4.523 3.97 6.1 6.53z"/><path d="m460.13 1791.67c3.308 5.2 4.46 11.49 3.211 17.53-1.249 6.03-4.8 11.35-9.901 14.81-2.522 1.65-5.35 2.78-8.315 3.31-2.966.54-6.01.48-8.95-.18-2.941-.66-5.719-1.91-8.169-3.66-2.45-1.76-4.523-3.99-6.096-6.56-3.306-5.2-4.456-11.49-3.207-17.53 1.248-6.03 4.798-11.35 9.897-14.81 2.522-1.65 5.35-2.78 8.315-3.32 2.966-.53 6.01-.47 8.95.19 2.941.66 5.719 1.91 8.169 3.66 2.45 1.76 4.523 3.99 6.096 6.56z"/><path d="m308.3 1765.89c3.307 5.2 4.46 11.49 3.213 17.53s-4.795 11.35-9.893 14.82c-2.522 1.65-5.351 2.78-8.317 3.31-2.966.54-6.01.47-8.95-.19-2.941-.66-5.719-1.91-8.169-3.66-2.45-1.76-4.522-3.99-6.094-6.56-3.307-5.2-4.459-11.49-3.212-17.52 1.247-6.04 4.795-11.35 9.892-14.82 2.522-1.65 5.35-2.78 8.316-3.31 2.965-.54 6.008-.47 8.948.19 2.941.66 5.718 1.9 8.169 3.66 2.45 1.75 4.523 3.98 6.097 6.55z"/><path d="m383.47 1691.25c-.437.52-.975.95-1.583 1.26-.608.3-1.272.48-1.952.53-.68.04-1.361-.06-2.002-.29-.64-.23-1.227-.59-1.723-1.06l-64.23-58.15c-1.031-.94-1.658-2.24-1.75-3.64-.091-1.39.361-2.76 1.26-3.83.437-.52.975-.95 1.583-1.26.608-.3 1.272-.48 1.952-.53.68-.04 1.361.06 2.001.29.641.23 1.227.59 1.724 1.06l64.23 58.19c1.02.94 1.639 2.23 1.73 3.62.092 1.38-.353 2.75-1.24 3.81z"/><path d="m440.98 1804.41c-.618.29-1.287.45-1.969.48-.681.02-1.361-.09-1.999-.33s-1.221-.61-1.716-1.07c-.495-.47-.891-1.04-1.166-1.66l-36.32-79.56c-.584-1.26-.653-2.7-.191-4 .461-1.31 1.417-2.39 2.661-3 .617-.29 1.286-.45 1.967-.48s1.36.09 1.998.33c.637.24 1.22.6 1.714 1.07s.889 1.04 1.161 1.66l36.33 79.55c.582 1.26.65 2.7.188 4.01-.461 1.31-1.415 2.38-2.658 3z"/><path d="m403.28 1689.15c-1.331-.4-2.451-1.31-3.122-2.53-.67-1.22-.838-2.65-.468-3.99l22.61-84.34c.168-.66.466-1.28.878-1.82.411-.55.927-1 1.517-1.34s1.242-.56 1.918-.64c.676-.09 1.362-.04 2.017.15 1.331.41 2.452 1.32 3.122 2.54.671 1.21.839 2.65.468 3.99l-22.61 84.33c-.167.66-.464 1.28-.875 1.82-.411.55-.927 1-1.518 1.34-.59.34-1.243.56-1.919.65-.676.08-1.363.03-2.018-.16z"/><path d="m520.83 1685.38c.278 1.36.007 2.77-.754 3.93s-1.95 1.97-3.306 2.25l-83.7 16.32c-.674.12-1.365.11-2.033-.04-.669-.14-1.302-.42-1.864-.81s-1.041-.89-1.411-1.47c-.369-.57-.621-1.22-.742-1.89-.275-1.36-.003-2.77.757-3.93.761-1.15 1.948-1.96 3.303-2.25l83.71-16.32c.673-.12 1.363-.11 2.032.04.668.14 1.3.42 1.861.81s1.04.89 1.408 1.47c.369.57.62 1.22.739 1.89z"/><path d="m367.04 1722.7c.81 1.13 1.147 2.54.942 3.92s-.937 2.62-2.042 3.47l-68.72 51.43c-.545.41-1.166.7-1.827.86s-1.348.19-2.019.08-1.313-.36-1.888-.72c-.574-.36-1.069-.84-1.456-1.4-.809-1.13-1.146-2.54-.941-3.91.205-1.38.937-2.62 2.041-3.47l68.72-51.43c.545-.41 1.166-.7 1.826-.86s1.347-.19 2.018-.08 1.313.35 1.888.71c.575.37 1.071.84 1.458 1.4z"/><path d="m1855.62 120.66c25.11 9.16 38.6 36.73 30.14 61.59s-35.67 37.57-60.78 28.44-38.6-36.73-30.14-61.59 35.67-37.59 60.78-28.44z"/><path d="m1758.27 115.7c4.59 3.24 7.73 8.137 8.77 13.655 1.03 5.518-.12 11.223-3.22 15.905-1.55 2.261-3.55 4.186-5.86 5.663-2.31 1.476-4.89 2.474-7.6 2.933-2.7.458-5.47.37-8.14-.262-2.67-.631-5.19-1.792-7.4-3.414-4.59-3.236-7.73-8.132-8.77-13.649-1.03-5.517.12-11.221 3.22-15.901 1.55-2.26 3.55-4.186 5.86-5.663 2.31-1.476 4.89-2.474 7.6-2.934 2.7-.46 5.47-.372 8.14.258s5.19 1.789 7.4 3.409z"/><path d="m1924.68 49.5899c5.8 2.088 10.56 6.3523 13.27 11.8891s3.15 11.9109 1.24 17.7709c-.98 2.85-2.53 5.4736-4.54 7.715-2.02 2.2413-4.46 4.0548-7.19 5.3327s-5.69 1.9941-8.71 2.1062c-3.01.112-6.01-.3824-8.83-1.4539-5.8-2.0901-10.56-6.3558-13.27-11.8938s-3.16-11.9134-1.25-17.7762c.99-2.8486 2.53-5.4704 4.55-7.71s4.46-4.0515 7.19-5.3281c2.73-1.2767 5.69-1.9922 8.71-2.1042 3.01-.112 6.01.3819 8.83 1.4523z"/><path d="m1920.03 145.9c-1.47-5.987-.55-12.312 2.56-17.633s8.18-9.219 14.12-10.867c2.92-.756 5.96-.919 8.94-.478 2.98.44 5.84 1.475 8.42 3.043 2.57 1.568 4.8 3.636 6.56 6.083s3.01 5.223 3.68 8.162c1.47 5.987.55 12.311-2.56 17.631-3.12 5.321-8.18 9.219-14.12 10.869-2.92.756-5.96.919-8.94.478-2.98-.44-5.84-1.475-8.42-3.043-2.57-1.568-4.8-3.637-6.56-6.083-1.76-2.447-3.01-5.223-3.68-8.162z"/><path d="m1822.54 159.99c-.19.593-.5 1.142-.91 1.611-.41.47-.91.851-1.47 1.121s-1.17.422-1.79.447c-.63.026-1.25-.076-1.83-.299l-74.21-26.78c-1.19-.435-2.17-1.316-2.73-2.456-.56-1.141-.66-2.454-.27-3.664.19-.593.5-1.142.91-1.612s.91-.852 1.47-1.122c.56-.271 1.17-.424 1.79-.451.63-.026 1.25.074 1.83.295l74.21 26.79c1.19.433 2.18 1.313 2.73 2.455.56 1.141.66 2.455.27 3.665z"/><path d="m1910.71 81.8199c1.05.9022 1.7 2.1851 1.81 3.567s-.34 2.7497-1.24 3.803l-56.19 64.1501c-.46.508-1.01.921-1.63 1.215s-1.28.463-1.97.498c-.68.034-1.36-.067-2.01-.297-.64-.231-1.23-.586-1.74-1.046-1.05-.901-1.7-2.181-1.81-3.56-.11-1.38.33-2.746 1.23-3.8l56.19-64.1601c.46-.5077 1.01-.92 1.63-1.2133.62-.2934 1.29-.462 1.97-.4964.69-.0344 1.37.0663 2.02.2961.64.2299 1.23.5845 1.74 1.0436z"/><path d="m1850.55 168.01c-.4-1.332-.28-2.768.36-4.007.63-1.238 1.72-2.183 3.04-2.633l81.57-26.73c.65-.21 1.33-.288 2.01-.229s1.33.254 1.94.573c.6.319 1.13.756 1.56 1.284.42.529.74 1.138.93 1.792.41 1.332.28 2.769-.36 4.008-.63 1.24-1.72 2.183-3.04 2.632l-81.58 26.73c-.65.209-1.33.285-2.01.226-.67-.06-1.33-.255-1.93-.574s-1.13-.756-1.56-1.283c-.42-.528-.74-1.136-.93-1.789z"/></g><path d="m97.73 1573.13c-15.63 24.82-48.34 32.93-73.06 18.1-24.7200011-14.83-32.1-47-16.46-71.81s48.34-32.93 73.06-18.1 32.09 46.98 16.46 71.81z" fill="#fff"/><path d="m125.57 1469.82c-4.537 4.17-10.52 6.41-16.68 6.25-6.161-.17-12.0149-2.73-16.3201-7.14-2.068-2.19-3.6752-4.77-4.7261-7.6-1.0509-2.82-1.5242-5.83-1.3917-8.84.1324-3.01.8678-5.96 2.1627-8.68 1.2948-2.72 3.1226-5.15 5.3751-7.15 4.5354-4.17 10.5181-6.41 16.6781-6.25 6.161.16 12.015 2.72 16.322 7.13 2.07 2.19 3.678 4.77 4.73 7.6 1.052 2.82 1.525 5.83 1.393 8.84s-.868 5.96-2.164 8.69c-1.296 2.72-3.125 5.15-5.379 7.15z" fill="#fff"/><path d="m158.03 1663.67c-7.53 12-23.28 15.86-35.19 8.72-2.829-1.72-5.285-3.98-7.222-6.66-1.938-2.68-3.317-5.73-4.057-8.95-.739-3.23-.824-6.57-.249-9.83.576-3.25 1.799-6.36 3.598-9.14 7.53-12 23.29-15.86 35.19-8.72 2.831 1.71 5.289 3.98 7.228 6.66s3.319 5.73 4.059 8.95c.74 3.23.824 6.57.247 9.83-.577 3.25-1.802 6.36-3.604 9.14z" fill="#fff"/><path d="m55.76 1636.41c14.12-.34 26.09 10.62 26.72 24.49.1367 3.31-.392 6.61-1.5548 9.7-1.1629 3.1-2.9362 5.94-5.2147 8.34s-5.0158 4.31-8.0495 5.63c-3.0338 1.33-6.3021 2.03-9.611 2.06-14.12.34-26.09-10.62-26.72-24.49-.1368-3.31.3919-6.61 1.5548-9.7 1.1628-3.1 2.9361-5.94 5.2146-8.34s5.0158-4.31 8.0496-5.63c3.0337-1.33 6.302-2.03 9.611-2.06z" fill="#fff"/><path d="m63.18 1528.53c-.5922-.34-1.1093-.79-1.5196-1.34-.4102-.54-.7049-1.16-.866-1.82-.1611-.67-.1851-1.35-.0706-2.03.1144-.67.365-1.31.7362-1.88l45.91-73.43c.744-1.18 1.915-2.03 3.268-2.36 1.353-.34 2.784-.14 3.992.56.592.34 1.109.79 1.52 1.34.41.54.705 1.16.866 1.82.161.67.185 1.35.07 2.03-.114.67-.365 1.31-.736 1.88l-45.91 73.43c-.7437 1.18-1.9147 2.02-3.2679 2.36-1.3531.34-2.7836.14-3.9921-.56z" fill="#fff"/><path d="m126.64 1641.22c-1.21.9-2.727 1.3-4.223 1.09-1.496-.2-2.853-.99-3.777-2.18l-55.85-75.14c-.4439-.61-.7626-1.3-.9377-2.03-.175-.74-.2029-1.5-.082-2.24.1209-.75.3882-1.46.7864-2.1.3981-.64.9193-1.19 1.5333-1.63 1.208-.91 2.7244-1.3 4.2214-1.1s2.8543.99 3.7786 2.18l55.89 75.17c.439.61.752 1.3.923 2.04.17.73.193 1.49.069 2.23-.125.74-.395 1.45-.795 2.09-.4.63-.923 1.19-1.537 1.62z" fill="#fff"/><path d="m48.0899 1556.74c1.5228-.13 3.0362.34 4.2197 1.31 1.1834.96 1.9439 2.35 2.1203 3.87l9.82 93.72c.0756.74.0012 1.49-.2186 2.2-.2198.72-.5806 1.38-1.0609 1.95-.4804.57-1.0705 1.04-1.7353 1.38-.6649.34-1.391.54-2.1352.59-1.5248.13-3.0394-.34-4.2241-1.31-1.1848-.97-1.947-2.36-2.1259-3.88l-9.77-93.75c-.0699-.74.0073-1.48.2273-2.18.2199-.71.5781-1.36 1.0538-1.93.4756-.57 1.0591-1.03 1.7165-1.37s1.3755-.54 2.1124-.6z" fill="#fff"/><path d="m323.98 1070.82c-21.65 15.67-52 11.41-67.91-9.53s-11.17-50.61 10.48-66.28 52.05-11.41 67.91 9.52 11.18 50.63-10.48 66.29z" fill="#516eb4"/><path d="m382.62 992.96c-5.256 1.982-11.078 1.838-16.229-.403-5.152-2.24-9.227-6.401-11.361-11.597-1.004-2.555-1.485-5.285-1.414-8.03.071-2.744.692-5.446 1.827-7.945 1.135-2.5 2.761-4.746 4.78-6.606 2.02-1.859 4.392-3.294 6.977-4.219 5.25-1.985 11.067-1.848 16.217.383s9.23 6.38 11.373 11.567c1.012 2.558 1.499 5.293 1.432 8.043s-.687 5.458-1.822 7.963c-1.136 2.506-2.764 4.757-4.788 6.62-2.023 1.863-4.401 3.299-6.992 4.224z" fill="#516eb4"/><path d="m344.2 1167.82c-4.978 3.64-11.176 5.19-17.28 4.33-6.105-.85-11.636-4.05-15.42-8.92-1.81-2.41-3.118-5.16-3.845-8.08-.728-2.93-.86-5.97-.389-8.95s1.536-5.83 3.131-8.39c1.594-2.55 3.687-4.77 6.153-6.5 4.978-3.64 11.176-5.19 17.28-4.33 6.105.85 11.635 4.05 15.42 8.92 1.81 2.41 3.118 5.16 3.845 8.08.728 2.93.86 5.97.389 8.95s-1.536 5.83-3.131 8.39c-1.595 2.55-3.687 4.77-6.153 6.5z" fill="#516eb4"/><path d="m271.84 963.89c-5.931 1.681-12.283.988-17.711-1.933-5.428-2.922-9.506-7.841-11.369-13.717-.86-2.89-1.13-5.922-.796-8.918.335-2.996 1.267-5.895 2.742-8.524 1.476-2.629 3.464-4.935 5.847-6.781s5.113-3.195 8.027-3.967c5.93-1.681 12.282-.986 17.709 1.938 5.427 2.923 9.502 7.845 11.361 13.722.861 2.888 1.133 5.92.8 8.915-.333 2.996-1.265 5.893-2.74 8.522-1.474 2.628-3.462 4.934-5.845 6.779-2.382 1.845-5.111 3.193-8.025 3.964z" fill="#516eb4"/><path d="m309.98 1021.4c-.377-.49-.651-1.05-.805-1.65s-.185-1.23-.092-1.84c.094-.61.31-1.2.636-1.72.326-.53.755-.98 1.261-1.34l63.75-46.48c1.035-.738 2.315-1.046 3.572-.86 1.257.187 2.392.854 3.168 1.86.381.488.66 1.048.819 1.647.158.598.195 1.223.106 1.836-.089.612-.301 1.201-.623 1.73s-.748.987-1.252 1.347l-63.75 46.47c-1.037.76-2.33 1.07-3.599.89-1.27-.19-2.416-.87-3.191-1.89z" fill="#516eb4"/><path d="m325.3 1138.21c-1.337.37-2.764.19-3.969-.5-1.205-.68-2.09-1.82-2.461-3.15l-21.68-82.48c-.321-1.33-.102-2.74.607-3.91.71-1.17 1.854-2.02 3.183-2.35 1.337-.37 2.763-.19 3.968.5 1.206.68 2.091 1.82 2.462 3.15l21.68 82.48c.32 1.33.102 2.74-.608 3.91-.709 1.17-1.853 2.02-3.182 2.35z" fill="#516eb4"/><path d="m296.42 1032.53c-1.317.45-2.757.38-4.018-.21-1.262-.59-2.245-1.65-2.742-2.95l-29.63-80.55c-.232-.64-.333-1.319-.298-1.999.035-.679.207-1.344.505-1.956.297-.612.715-1.158 1.227-1.605.513-.448 1.11-.788 1.756-1 1.317-.452 2.757-.376 4.019.214 1.261.589 2.244 1.646 2.741 2.946l29.63 80.56c.231.64.331 1.32.295 2-.037.67-.209 1.34-.506 1.95s-.714 1.15-1.226 1.6-1.108.79-1.753 1z" fill="#516eb4"/><path d="m153.6 65c0 7.9923-2.37 15.8052-6.81 22.4506-4.441 6.6454-10.752 11.8248-18.136 14.8834-7.384 3.058-15.509 3.859-23.348 2.3-7.8383-1.56-15.0387-5.4084-20.6901-11.0598-5.6515-5.6515-9.5002-12.8519-11.0594-20.6906-1.5592-7.8388-.759-15.9639 2.2996-23.3479 3.0585-7.3839 8.238-13.6951 14.8834-18.1354 6.6453-4.4403 14.4585-6.8103 22.4505-6.8103 10.717 0 20.996 4.2574 28.574 11.8358 7.579 7.5783 11.836 17.8568 11.836 28.5742z" fill="#fff"/><path d="m164.47 125.82c3.687 0 7.29 1.093 10.356 3.141 3.065 2.049 5.454 4.96 6.865 8.366s1.78 7.154 1.061 10.769c-.719 3.616-2.495 6.938-5.102 9.544-2.606 2.607-5.928 4.383-9.544 5.102-3.615.719-7.363.35-10.769-1.061s-6.317-3.8-8.366-6.865c-2.048-3.066-3.141-6.669-3.141-10.356.005-4.942 1.971-9.68 5.465-13.175 3.495-3.494 8.233-5.46 13.175-5.465zm0-11c-5.862 0-11.593 1.738-16.467 4.995s-8.673 7.886-10.917 13.302c-2.243 5.416-2.83 11.376-1.687 17.125 1.144 5.75 3.967 11.031 8.112 15.177 4.146 4.145 9.427 6.968 15.176 8.111 5.75 1.144 11.71.557 17.126-1.686 5.416-2.244 10.045-6.043 13.302-10.917s4.995-10.605 4.995-16.467c0-7.861-3.123-15.4-8.681-20.959-5.559-5.558-13.098-8.681-20.959-8.681z" fill="#fff"/><path d="m2174.98 16.8199c3.69-.0019 7.29 1.0899 10.36 3.1373s5.46 4.9585 6.87 8.3649 1.78 7.1551 1.06 10.7719c-.72 3.6167-2.49 6.939-5.1 9.5464-2.61 2.6075-5.93 4.383-9.55 5.1019-3.61.7189-7.36.3489-10.77-1.0632-3.4-1.412-6.32-3.8027-8.36-6.8696-2.05-3.0668-3.14-6.6721-3.14-10.3596.01-4.9385 1.97-9.6725 5.47-13.1646 3.49-3.4921 8.22-5.4574 13.16-5.4654zm0-10.99995c-5.86 0-11.6 1.73919-16.47 4.99765-4.88 3.2584-8.68 7.8897-10.92 13.3081-2.25 5.4184-2.83 11.3805-1.69 17.1324 1.15 5.7518 3.97 11.0349 8.12 15.1811s9.43 6.9693 15.18 8.1122c5.75 1.143 11.72.5544 17.13-1.6913 5.42-2.2457 10.05-6.0475 13.31-10.9248 3.25-4.8772 4.99-10.6107 4.99-16.4754 0-7.8619-3.13-15.4009-8.69-20.9592s-13.1-8.68075-20.96-8.68075z" fill="#516eb4"/><path d="m148.79 1188.82c3.687 0 7.291 1.09 10.356 3.14s5.454 4.96 6.865 8.37c1.411 3.4 1.78 7.15 1.061 10.77-.719 3.61-2.495 6.93-5.101 9.54-2.607 2.61-5.929 4.38-9.544 5.1-3.616.72-7.364.35-10.77-1.06s-6.317-3.8-8.366-6.86c-2.048-3.07-3.141-6.67-3.141-10.36.005-4.94 1.971-9.68 5.465-13.17 3.495-3.5 8.233-5.46 13.175-5.47zm0-11c-5.862 0-11.593 1.74-16.467 5-4.874 3.25-8.673 7.88-10.917 13.3-2.243 5.41-2.83 11.37-1.686 17.12 1.143 5.75 3.966 11.03 8.111 15.18 4.146 4.14 9.427 6.97 15.177 8.11 5.749 1.14 11.709.56 17.125-1.69 5.416-2.24 10.045-6.04 13.302-10.91 3.257-4.88 4.995-10.61 4.995-16.47 0-7.86-3.123-15.4-8.681-20.96-5.559-5.56-13.098-8.68-20.959-8.68z" fill="#fff"/><path d="m1485.55 54.0499c0 5.8623-1.74 11.5928-5 16.4671-3.25 4.8743-7.88 8.6733-13.3 10.9167-5.41 2.2434-11.37 2.8304-17.12 1.6867s-11.03-3.9666-15.18-8.1118c-4.14-4.1453-6.97-9.4266-8.11-15.1762s-.56-11.7092 1.69-17.1252c2.24-5.416 6.04-10.0452 10.91-13.302 4.88-3.2569 10.61-4.9953 16.47-4.9953 7.86 0 15.4 3.1228 20.96 8.6814 5.56 5.5585 8.68 13.0976 8.68 20.9586z" fill="#fff"/><path d="m2860.77 1250.67c0 5.86-1.74 11.6-4.99 16.48-3.26 4.87-7.89 8.67-13.31 10.92-5.41 2.25-11.38 2.83-17.13 1.69s-11.03-3.96-15.18-8.11-6.97-9.43-8.12-15.18c-1.14-5.75-.56-11.72 1.69-17.13 2.24-5.42 6.04-10.05 10.92-13.31 4.87-3.26 10.61-5 16.47-5 7.86 0 15.4 3.12 20.96 8.68s8.69 13.1 8.69 20.96z" fill="#fff"/><path d="m2767.36 1095.14c9.76-.04 19.19 3.55 26.45 10.08 7.25 6.53 11.82 15.53 12.81 25.24s-1.67 19.45-7.47 27.3c-5.79 7.86-14.3 13.28-23.87 15.21-9.57 1.92-19.52.22-27.9-4.78-8.38-5.01-14.6-12.95-17.45-22.29-2.85-9.33-2.12-19.4 2.05-28.23 4.16-8.83 11.46-15.79 20.48-19.53 4.72-1.97 9.78-2.98 14.9-3zm0-23.14c-13.37 0-26.39 4.3-37.13 12.26-10.75 7.96-18.64 19.17-22.53 31.96-3.89 12.8-3.57 26.5.93 39.1 4.49 12.59 12.92 23.41 24.03 30.85s24.31 11.12 37.67 10.48 26.16-5.55 36.51-14.02c10.35-8.46 17.71-20.03 20.98-32.99 3.28-12.97 2.3-26.64-2.79-39.01-4.69-11.44-12.68-21.22-22.95-28.1s-22.36-10.54-34.72-10.53z" fill="#fff"/></g></svg>