<svg fill="none" height="50" viewBox="0 0 50 50" width="50" xmlns="http://www.w3.org/2000/svg" xmlns:xlink="http://www.w3.org/1999/xlink"><linearGradient id="a" gradientUnits="userSpaceOnUse" x1="24.1868" x2="24.1868" y1="4.77441" y2="37.505"><stop offset="0" stop-color="#f7b186"/><stop offset="1" stop-color="#ffc299"/></linearGradient><linearGradient id="b" gradientUnits="userSpaceOnUse" x1="23.2403" x2="23.2403" y1="2" y2="23.4346"><stop offset="0" stop-color="#1d0024"/><stop offset="1" stop-color="#100014"/></linearGradient><linearGradient id="c" gradientUnits="userSpaceOnUse" x1="43.5" x2="7" y1="40.7329" y2="40.7329"><stop offset="0" stop-color="#dedef4"/><stop offset="1" stop-color="#f8f8f8"/></linearGradient><linearGradient id="d" gradientUnits="userSpaceOnUse" x1="18.5" x2="31" y1="38.0749" y2="38.0749"><stop offset="0" stop-color="#dedef4"/><stop offset="1" stop-color="#c1c1e3"/></linearGradient><path d="m15.8331 33.2528c3.0556 2.3623 6.1112 4.2522 9.1667 4.2522s6.1112-1.8899 9.1667-4.2522c-2.5186-.815-3.7963-2.0316-3.8333-3.6498 0-.2884.0019-.698.0038-1.4671 0-.1222.0003-.2473.0008-.3753.005-2.0623.0132-4.7837.0247-7.5476 2.3886-3.2914 1.5112-7.15.7627-7.0538-.9177.1187-8.8682-7.90164-10.3932-8.31286s-5.3989.91634-6.0655 4.61485c-.6667 3.69851-.9454 13.02101 1.5833 16.74291.7196 1.0592 1.8529 1.4735 3.4 1.2429.0022.7741.0065 1.2085.0167 2.0852-.0199 1.6918-1.2975 2.9065-3.8334 3.7206z" fill="url(#a)"/><path d="m19.666 27.4444c3.6667-.4429 6-2.126 6-2.126s-2.6667 3.5434-6 4.2521z" fill="#fc9f6a"/><path d="m31.5835 20.2688c1.1484-2.9358 5.75-8.9149 1.7834-12.63553-1.3334-6.909784-8.7-6.14492-13.6167-4.55036-3.3045 1.07173-5.8 3.18913-6.3333 1.59457-3.3334 2.95579-1.664 5.84672.5333 6.67642 1.9943.753 5.3667 1.506 11.101.7973 1.0243-.1267.8098 3.2083 1.3572 3.5688.8211.5409 1.4585-2.8601 3.7098-1.8389 2.2513 1.0213.9153 5.7564-1.5013 5.7564-.8334 0-1.25 2.4356 1 3.5873 1.6333.8532 1.2205-1.0484 1.9666-2.956z" fill="url(#b)"/><path d="m42.5 38.6613c1.5867 3.4295 2.5 11.3391 2.5 11.3391h-40s.91367-7.9105 2.5-11.3391c1.58633-3.4287 10.85-6.6088 10.85-6.6088 5.1188 2.1249 8.2513 2.1249 13.2952-.0012 0 0 9.2681 3.1804 10.8548 6.61z" fill="url(#c)"/><path d="m22.125 33.3286 2.375 15.6714-5.4189-6.651 2.214-2.431-3.0451-1.6207v-6.3349c1.4741.656 2.3219.9606 3.875 1.3662h5.074c2.048-.3758 3.0653-.6628 4.551-1.3662l-.738 6.3349-2.2661 1.6207 2.2661 2.431-6.512 6.651s3-15.1773 2.699-15.6714z" fill="url(#d)"/><path d="m24.5 49-2.5-15.5c2 .5 3.4985.4885 5.5 0z" fill="#516eb4"/></svg>