<svg height="512" viewBox="0 0 24 24" width="512" xmlns="http://www.w3.org/2000/svg"><path d="m18.656.93-12.192 12.192a4.966 4.966 0 0 0 -1.464 3.535v1.343a1 1 0 0 0 1 1h1.343a4.966 4.966 0 0 0 3.535-1.464l12.192-12.192a3.125 3.125 0 0 0 0-4.414 3.194 3.194 0 0 0 -4.414 0zm3 3-12.192 12.192a3.02 3.02 0 0 1 -2.121.878h-.343v-.343a3.02 3.02 0 0 1 .878-2.121l12.192-12.192a1.148 1.148 0 0 1 1.586 0 1.123 1.123 0 0 1 0 1.586z"/><path d="m23 8.979a1 1 0 0 0 -1 1v5.021h-4a3 3 0 0 0 -3 3v4h-10a3 3 0 0 1 -3-3v-14a3 3 0 0 1 3-3h9.042a1 1 0 0 0 0-2h-9.042a5.006 5.006 0 0 0 -5 5v14a5.006 5.006 0 0 0 5 5h11.343a4.968 4.968 0 0 0 3.536-1.464l2.656-2.658a4.968 4.968 0 0 0 1.465-3.535v-6.364a1 1 0 0 0 -1-1zm-4.535 12.143a2.975 2.975 0 0 1 -1.465.8v-3.922a1 1 0 0 1 1-1h3.925a3.016 3.016 0 0 1 -.8 1.464z"/></svg>