<svg fill="none" height="300" viewBox="0 0 300 300" width="300" xmlns="http://www.w3.org/2000/svg"><path d="m150.3 280.658c76.712 0 138.899-35.906 138.899-80.197 0-44.292-62.187-80.197-138.899-80.197-76.7126 0-138.9001 35.905-138.9001 80.197 0 44.291 62.1875 80.197 138.9001 80.197z" fill="#f5f5f5"/><path d="m68.1328 192.379 89.1372 51.462 74.765-43.156-89.138-51.461z" fill="#e0e0e0"/><path d="m227.063 195.428-67.697 39.09-76.2332-44.119 67.6972-39.081z" fill="#516eb4"/><path d="m227.063 195.428-67.697 39.09-76.2332-44.119 67.6972-39.081z" fill="#000" opacity=".5"/><path d="m150.83 98.3333v52.9847l-67.6972 39.08v-52.975z" fill="#516eb4"/><path d="m150.83 98.3333v52.9847l-67.6972 39.08v-52.975z" fill="#000" opacity=".23"/><path d="m159.366 181.532v52.985l-76.2332-44.119v-52.975z" fill="#516eb4"/><path d="m159.366 181.532v52.985l-76.2332-44.119v-52.975z" fill="#000" opacity=".38"/><path d="m227.064 142.443v52.985l-76.233-44.11v-52.9847z" fill="#516eb4"/><path d="m227.064 142.443v52.985l-76.233-44.11v-52.9847z" fill="#000" opacity=".4"/><path d="m227.064 195.428v-52.985l-67.698 39.089v52.985z" fill="#516eb4"/><path d="m227.064 195.428v-52.985l-67.698 39.089v52.985z" fill="#000" opacity=".23"/><path d="m150.831 98.3331.091-29.3331 76.05 44.165.092 29.278z" fill="#516eb4"/><path d="m150.831 98.3331.091-29.3331 76.05 44.165.092 29.278z" fill="#000" opacity=".2"/><path d="m159.366 181.533 6.351-25.662 67.083-38.732-5.736 25.304z" fill="#516eb4"/><path d="m159.366 181.533 6.351-25.662 67.083-38.732-5.736 25.304z" fill="#000" opacity=".3"/><path d="m83.1329 137.422-8.0767-26.616 67.6978-39.0802 8.076 26.6073z" fill="#516eb4"/><path d="m83.1329 137.422-8.0767-26.616 67.6978-39.0802 8.076 26.6073z" fill="#000" opacity=".1"/><path d="m83.1328 137.422-15.9331-21.999 76.2423 44.109 15.924 22z" fill="#516eb4"/><path d="m83.1328 137.422-15.9331-21.999 76.2423 44.109 15.924 22z" fill="#000" opacity=".45"/><g fill="#fff"><g opacity=".7"><path d="m179.301 218.758c-.11.001-.216-.043-.295-.12s-.125-.182-.127-.293v-9.324c.002-.112.047-.218.126-.296.079-.079.185-.124.296-.127.11.003.216.048.293.127s.12.185.12.296v9.324c0 .11-.043.215-.121.293-.077.077-.182.12-.292.12z"/><path d="m178.08 212.251c-.055.009-.111.009-.165 0-.1-.046-.179-.129-.22-.231-.041-.103-.041-.217-.001-.319l1.487-3.424 1.652 1.909c.059.086.085.19.072.293s-.063.198-.142.266c-.078.068-.179.105-.283.103-.104-.001-.204-.041-.28-.111l-.78-.918-.918 2.203c-.04.076-.101.138-.176.179s-.161.058-.246.05z"/><path d="m183.146 216.565c-.11-.002-.215-.048-.292-.127s-.121-.185-.121-.295v-9.316c0-.109.044-.215.121-.292.078-.077.183-.121.292-.121.11 0 .215.044.292.121.078.077.121.183.121.292v9.307c.002.055-.008.11-.028.162s-.05.099-.089.139c-.038.04-.084.072-.135.094-.05.023-.105.035-.161.036z"/><path d="m181.925 210.058c-.054.008-.11.008-.165 0-.05-.022-.096-.054-.134-.094-.038-.039-.067-.086-.087-.137-.02-.052-.029-.106-.027-.161s.014-.109.037-.159l1.478-3.469 1.652 1.899c.076.079.119.185.119.294 0 .11-.043.215-.119.294-.039.039-.084.07-.135.091-.05.021-.104.031-.159.031-.054 0-.109-.01-.159-.031s-.096-.052-.135-.091l-.78-.918-.917 2.203c-.038.088-.106.161-.191.206s-.183.06-.278.042z"/></g><g opacity=".7"><path d="m168.205 225.082c-.157.003-.312-.035-.45-.11-.166-.106-.3-.255-.389-.431s-.129-.373-.116-.569v-1.148c.003-.11.048-.215.127-.292s.185-.121.296-.121c.109 0 .214.044.292.121.077.078.121.183.121.292v1.148c0 .165 0 .257.082.275.083.018.129 0 .266-.073.259-.239.462-.531.597-.856.135-.324.197-.675.184-1.026v-4.773c0-.109.043-.214.121-.292.077-.077.182-.121.292-.121.109 0 .214.044.292.121.077.078.121.183.121.292v4.773c.02.496-.076.989-.282 1.44s-.515.848-.902 1.157c-.197.122-.422.188-.652.193z"/><path d="m163.827 221.237v-.716c.109-1.838.646-3.626 1.569-5.219.922-1.594 2.205-2.95 3.745-3.959 1.505-.863 2.937-.992 4.038-.349.588.403 1.056.956 1.356 1.602.301.646.422 1.36.351 2.069v.239zm7.81-9.858c-.735.034-1.449.255-2.074.643-1.32.868-2.437 2.01-3.276 3.348-.84 1.338-1.381 2.841-1.588 4.407l9.334-5.396c.04-.532-.059-1.065-.285-1.547-.227-.483-.575-.898-1.009-1.207-.34-.178-.719-.263-1.102-.248z"/></g><path d="m67.1997 115.423 76.2423 44.109 15.924 22-16.768-21.219z" opacity=".7"/><path d="m227.064 142.443-67.698 39.089v52.985l1.267-51.92z" opacity=".7"/></g><path d="m127.862 127.798c6.916-1.005 13.233-5.484 17.268-11.115 1.881-2.631 3.267-5.586 4.089-8.72.873-2.931 1.016-6.032.418-9.0315-1.245-5.0184-5.862-7.9892-10.742-8.6108-2.476-.3277-4.994-.0807-7.361.7221-2.454.8471-4.583 2.4453-6.089 4.5705-.944 1.1322-1.538 2.5177-1.709 3.9854-.014.5753.187 1.1343.565 1.5663.377.432.902.705 1.471.765 1.463.124 2.926-.25 4.153-1.061 1.497-.844 2.815-1.9742 3.881-3.327 2.286-2.8375 3.996-6.0983 5.035-9.5979.728-3.003.728-6.138 0-9.141-.554-3.1412-1.981-6.0603-4.117-8.4187-2.449-2.2398-5.556-3.6164-8.852-3.9215-3.28-.4533-6.62-.1405-9.76.9141-1.38.4207-2.658 1.124-3.754 2.0658-.781.7313-1.672 1.9379-1.354 3.1262.318 1.1884 2.045 1.7185 3.217 1.5631 1.735-.327 3.325-1.1934 4.544-2.4772 1.359-1.3458 2.514-2.8858 3.426-4.5704.678-1.2107 1.032-2.5777 1.027-3.9672-.118-5.7953-6.489-9.5431-11.478-10.6035-1.347-.283-2.726-.3753-4.099-.2742-.463 0-.181.7679.191.7404 2.685-.1227 5.353.4835 7.725 1.7551 2.34 1.0817 4.305 2.842 5.644 5.0549.596 1.091.891 2.3231.852 3.5675-.038 1.2445-.408 2.4559-1.07 3.5076-.89 1.5589-1.998 2.9812-3.29 4.2231-1.082.9872-2.727 2.1298-4.244 2.0201-.251-.0005-.496-.072-.708-.2061-.212-.1342-.383-.3256-.492-.5525-.046-.3002-.021-.607.072-.8958.093-.2889.252-.5519.464-.7679.803-.8693 1.795-1.539 2.899-1.9562 2.727-1.1399 5.679-1.628 8.625-1.4259 3.036.0552 5.988 1.0091 8.488 2.7422 2.178 1.8189 3.725 4.2869 4.417 7.0477.877 2.8046 1.149 5.765.8 8.6839-.54 2.9371-1.662 5.7349-3.299 8.2268-1.682 2.7971-3.79 5.4846-6.953 6.5815-.781.283-2.417.695-2.726-.448-.309-1.1426.582-2.5503 1.154-3.4369 1.266-2.0042 3.112-3.5705 5.289-4.4882 2.101-.8471 4.37-1.1913 6.626-1.0055 4.28.3199 8.624 2.5686 10.115 6.8465.747 2.5571.829 5.2641.236 7.8611-.535 2.847-1.552 5.581-3.008 8.081-3.132 5.312-7.875 9.474-13.532 11.874-1.345.585-2.727 1.078-4.135 1.535-.146.055-.082.421.081.393z" fill="#e0e0e0"/><path d="m98.4896 48.2977c-3.6638-.2621-8.7107 2.5853-6.9154 4.6643s6.5582-1.2836 6.5582-1.2836-.4488 4.2033 1.1083 4.6824c1.5573.4791 3.6643-3.5344 2.1063-6.1016.751.2922 1.565.3924 2.366.2912.8-.1011 1.562-.4003 2.214-.8697 2.217-1.609-.128-3.1276-3.251-2.8564 0 0 2.234-7.2315-2.281-5.8485-2.2626.678-3.0595 3.2904-1.9054 7.3219z" fill="#516eb4"/><path d="m98.4896 48.2977c-3.6638-.2621-8.7107 2.5853-6.9154 4.6643s6.5582-1.2836 6.5582-1.2836-.4488 4.2033 1.1083 4.6824c1.5573.4791 3.6643-3.5344 2.1063-6.1016.751.2922 1.565.3924 2.366.2912.8-.1011 1.562-.4003 2.214-.8697 2.217-1.609-.128-3.1276-3.251-2.8564 0 0 2.234-7.2315-2.281-5.8485-2.2626.678-3.0595 3.2904-1.9054 7.3219z" fill="#fff" opacity=".65"/><path d="m113.094 102.517c-.13-.128-.268-.248-.413-.36-.207-.159-.425-.313-.632-.466-.201-.146-.412-.279-.631-.396-.127-.07-.257-.133-.39-.189-.184-.086-.389-.119-.59-.094-.053.001-.105.017-.149.045-.045.028-.081.068-.106.115-.024.047-.035.1-.032.153.004.053.021.104.051.147.162.176.364.31.59.39l.319.171c.218.13.413.278.59.425.177.148.413.289.59.437.305.247.645.446 1.01.59.016.009.034.014.053.014s.037-.005.053-.014c.301-.236-.142-.797-.313-.968z" fill="#455a64"/></svg>