<svg width="300" height="300" viewBox="0 0 300 300" fill="none" xmlns="http://www.w3.org/2000/svg">
<g clip-path="url(#clip0_226_3898)">
<path d="M43.937 141.04C-14.6457 174.862 -14.6457 229.699 43.937 263.522C102.52 297.345 197.502 297.345 256.079 263.522C314.655 229.699 314.661 174.862 256.079 141.04C197.496 107.217 102.513 107.223 43.937 141.04Z" fill="#F5F5F5"/>
<path d="M144.543 273.13C163.8 273.13 179.411 264.117 179.411 252.999C179.411 241.881 163.8 232.867 144.543 232.867C125.286 232.867 109.675 241.881 109.675 252.999C109.675 264.117 125.286 273.13 144.543 273.13Z" fill="#E0E0E0"/>
<path d="M253.515 240.722C272.772 240.722 288.383 231.709 288.383 220.591C288.383 209.473 272.772 200.46 253.515 200.46C234.258 200.46 218.647 209.473 218.647 220.591C218.647 231.709 234.258 240.722 253.515 240.722Z" fill="#E0E0E0"/>
<path d="M46.8591 240.722C66.1161 240.722 81.7269 231.709 81.7269 220.591C81.7269 209.473 66.1161 200.46 46.8591 200.46C27.6021 200.46 11.9912 209.473 11.9912 220.591C11.9912 231.709 27.6021 240.722 46.8591 240.722Z" fill="#E0E0E0"/>
<path d="M267.94 228.848C268.161 231.055 268.544 232.568 269.408 233.827C270.271 235.087 271.823 235.437 273.361 234.99C274.227 234.748 275.025 234.31 275.694 233.71C276.363 233.11 276.884 232.364 277.217 231.529C277.779 229.822 277.827 227.986 277.354 226.251L267.94 228.848Z" fill="#263238"/>
<path d="M274.257 214.196C274.614 215.663 274.789 216.663 275.276 218.682C276.036 221.798 276.841 223.122 277.302 225.719C277.828 228.686 277.522 230.127 276.36 231.886C275.198 233.646 271.582 235.658 269.589 233.152C267.96 231.114 267.804 228.777 267.824 225.797C267.802 223.274 267.631 220.756 267.311 218.253V218.208C267.233 217.409 267.103 215.838 266.986 215.046C266.733 213.3 267.921 213.099 268.388 212.859C269.033 212.495 269.732 212.241 270.459 212.106C271.204 212.005 271.96 212.038 272.693 212.203C273.523 212.365 273.913 212.787 274.257 214.196Z" fill="#37474F"/>
<path d="M224.873 219.591C224.738 219.949 224.709 220.338 224.787 220.713C224.865 221.088 225.048 221.433 225.315 221.707C226.204 222.408 228.794 223.518 232.157 223.006C235.52 222.493 237.312 221.422 238.649 220.292C239.986 219.162 241.817 217.565 243.329 217.195C244.738 216.851 246.575 216.079 247.03 215.637C247.484 215.196 247.387 213.268 247.387 213.268L224.873 219.591Z" fill="#263238"/>
<path d="M245.764 207.237C245.92 207.232 246.074 207.268 246.212 207.341C246.377 207.477 246.508 207.649 246.594 207.844C246.681 208.038 246.721 208.251 246.712 208.464C246.72 208.837 246.774 209.208 246.874 209.568C247.385 210.964 247.537 212.466 247.316 213.937C247.082 214.891 244.537 215.754 243.077 216.339C241.366 217.118 239.782 218.149 238.376 219.396C236.323 220.941 233.888 221.899 231.333 222.168C227.983 222.318 225.782 221.519 225.075 220.364C224.198 218.948 224.828 218.098 228.632 216.254C229.353 215.904 231.878 214.365 232.735 213.807C233.651 213.227 234.519 212.576 235.332 211.859C235.734 211.493 236.115 211.105 236.474 210.697C237.048 210.105 237.669 209.56 238.331 209.068C238.775 208.671 239.255 208.317 239.766 208.01C240.61 207.553 241.546 207.291 242.505 207.244C243.479 207.179 244.407 207.373 245.381 207.276C245.485 207.25 245.628 207.237 245.764 207.237Z" fill="#37474F"/>
<path d="M273.861 213.424C273.114 206.99 273.634 199.862 272.667 189.813C272.511 187.216 272.303 184.463 272.017 182.022C271.083 173.778 269.641 170.986 269.453 169.415C269.453 169.415 269.369 153.185 268.07 135.106C267.467 126.601 264.824 124.128 262.572 119.694L237.253 120.687C234.994 131.951 235.514 157.353 236.065 168.844C236.344 174.687 237.87 195.72 237.948 205.25C237.948 208.048 237.409 209.055 236.416 210.171C234.332 212.515 231.651 214.183 229.1 216.014C228.392 217.539 231.962 218.429 234.942 216.799C237.461 215.417 240.35 213.729 241.213 213.066C243.388 211.372 245.758 210.23 246.173 207.834C246.348 206.86 250.925 184.463 251.01 179.614C250.954 175.847 250.707 172.086 250.27 168.344L252.347 150.511C252.347 150.511 255.132 164.098 256.787 171.285C258.443 178.471 260.274 186.982 262.163 194.084C264.039 202.27 266.564 210.204 267.122 214.319C267.278 215.3 268.83 224.934 269.401 227.128C269.972 229.322 274.984 229.179 275.146 225.356C275.257 222.791 274.004 214.631 273.861 213.424Z" fill="#B16668"/>
<path d="M263.286 119.843C266.369 124.79 268.674 128.834 269.576 143.863C270.479 158.891 270.394 168.038 270.53 169.83C270.667 171.622 271.628 172.966 272.958 181.866C274.289 190.767 273.608 201.601 273.608 201.601C273.608 201.601 272.757 203.257 269.226 203.711C265.98 204.127 264.298 203.004 264.298 203.004C264.298 203.004 259.864 186.521 258.404 180.392C257.125 175.05 252.58 154.191 252.58 154.191L251.029 168.636C251.029 168.636 252.36 173.901 251.308 181.795C250.256 189.689 248.491 197.427 248.491 197.427C246.835 197.872 245.128 198.09 243.414 198.076C241.4 198.044 239.405 197.676 237.513 196.986C237.513 196.986 235.838 174.264 235.481 165.37C235.124 156.476 234.403 131.827 237.188 121.083L263.286 119.843Z" fill="#455A64"/>
<path d="M267.323 169.941C267.323 169.941 265.454 168.201 262.02 168.746C258.585 169.292 257.248 171.304 257.248 171.304C260.883 169.545 267.323 169.941 267.323 169.941ZM259.254 171.888C261.305 172.193 263.344 172.284 267.765 171.239C265.636 170.824 259.254 171.869 259.254 171.869V171.888Z" fill="#B16668"/>
<path d="M235.514 166.734C235.514 167.046 235.514 167.383 235.559 167.701C238.48 167.395 241.424 167.375 244.349 167.643C243.077 167 238.48 166.292 235.514 166.734Z" fill="#B16668"/>
<path d="M235.624 168.961C235.624 169.253 235.656 169.551 235.676 169.863C237.898 169.681 240.105 169.34 242.278 168.844C239.279 168.746 236.293 168.915 235.624 168.961Z" fill="#B16668"/>
<path d="M269.622 172.947C268.551 168.831 268.538 160.904 268.272 154.016C268.194 151.939 268.109 149.784 267.993 147.524C267.551 138.559 266.422 128.555 261.462 122.271L261.092 122.544C264.429 126.77 266.006 132.736 266.811 138.923C262.118 138.52 260.916 134.112 259.274 128.055C259.053 127.224 258.82 126.367 258.573 125.459L258.125 125.575C258.372 126.452 258.605 127.309 258.826 128.133C260.469 134.184 261.767 138.975 266.863 139.351C267.201 142.078 267.402 144.843 267.512 147.511C267.629 149.797 267.707 151.945 267.791 154.003C268.058 160.911 268.071 168.863 269.155 173.024L269.544 174.492C270.972 179.815 272.641 188.689 272.31 202.764C272.485 202.66 272.647 202.556 272.784 202.459C273.069 188.521 271.414 179.685 269.992 174.375L269.622 172.947Z" fill="#37474F"/>
<path d="M252.58 154.191L248.964 137.228C248.964 137.228 242.791 137.053 239.227 133.742C239.999 136.67 244.991 138.935 247.231 139.383L247.919 142.37C247.874 143.973 247.822 145.661 247.77 147.394C247.484 156.983 247.276 166.87 247.77 169.103C248.75 173.427 248.49 177.588 247.926 183.242C247.419 188.345 246.543 194.668 245.978 197.901L246.439 197.843C246.991 194.636 247.737 189.001 248.432 183.268C249.127 177.536 249.334 173.531 248.198 168.986C247.66 166.831 247.926 156.515 248.198 147.407C248.237 146.304 248.27 145.22 248.296 144.161L250.711 154.672L250.996 168.629L252.58 154.191Z" fill="#37474F"/>
<path d="M204.936 95.3559C204.642 94.2272 204.457 93.0728 204.384 91.9087C204.348 91.2904 204.348 90.6704 204.384 90.0521C204.43 89.2536 204.592 89.5911 205.176 89.3445C205.255 89.2992 205.319 89.2338 205.364 89.155C205.408 89.0763 205.431 88.987 205.429 88.8965C205.429 88.7147 205.429 88.533 205.429 88.3512C205.451 88.2187 205.507 88.094 205.591 87.9894C205.675 87.8847 205.785 87.8036 205.91 87.7539C206.048 87.7162 206.181 87.6617 206.306 87.5916C206.546 87.3969 206.468 87.0074 206.598 86.7217C206.693 86.5515 206.849 86.4234 207.034 86.3632C207.219 86.303 207.421 86.3151 207.598 86.3971C207.772 86.485 207.925 86.6112 208.044 86.7663C208.163 86.9214 208.246 87.1015 208.286 87.293C208.301 87.3689 208.33 87.4414 208.37 87.5072C208.484 87.6026 208.631 87.6493 208.779 87.6371C209.003 87.6819 209.215 87.7755 209.399 87.9112C209.583 88.047 209.735 88.2216 209.844 88.4226C210.428 89.4159 210.318 90.6688 210.577 91.7594C210.748 92.5065 211.073 93.2096 211.532 93.8238C211.603 93.9212 211.701 94.0251 211.817 94.0056C211.934 93.9861 211.993 93.8303 212.006 93.707C212.174 92.5125 211.577 91.2531 212.006 90.117C212.156 89.7297 212.376 89.3733 212.655 89.0653C212.71 88.9937 212.781 88.9359 212.863 88.8965C212.961 88.8708 213.065 88.8825 213.155 88.9293C213.245 88.9761 213.314 89.0546 213.349 89.1497C213.449 89.5037 213.512 89.867 213.538 90.2338C213.717 91.1391 213.973 92.0275 214.304 92.889C214.606 93.6437 214.824 94.4297 214.953 95.2326C215.057 95.8818 214.888 96.8036 215.148 97.4138C215.221 97.5526 215.316 97.6795 215.427 97.7904C216.342 98.8096 221.27 102.951 222.769 104.081C223.84 104.886 224.918 105.691 226.015 106.477C226.015 106.477 230.053 101.458 232.332 98.92C237.61 93.0448 238.415 91.9282 242.985 92.3307L238.882 106.749C238.882 106.749 234.539 110.878 229.943 114.929C227.242 117.311 225.288 117.669 221.354 113.592C219.069 111.222 214.141 105.723 213.031 104.503C211.921 103.283 210.727 102.679 209.61 101.718C207.987 100.322 206.156 98.8486 205.429 96.7776C205.189 96.3297 205.059 95.8493 204.936 95.3559Z" fill="#B16668"/>
<path d="M243.037 92.0969C240.084 92.1748 238 91.9995 235.247 95.1156C233.183 97.4397 232.41 98.4135 232.41 98.4135C232.17 100.602 232.71 102.804 233.936 104.633C234.864 106.067 236.058 107.31 237.454 108.294L239.571 106.386L243.037 92.0969Z" fill="#263238"/>
<path d="M267.291 127.575C265.479 121.999 263.636 119.343 263.941 116.74C264.408 112.735 266.038 107.69 266.154 104.918C266.557 95.0768 264.655 94.09 262.909 93.3369C262.909 93.3369 259.76 92.6553 258.033 92.2463C256.994 91.9996 254.923 91.714 254.923 91.714C253.333 91.6555 250.1 91.714 248.789 91.8373C248.185 91.8733 247.581 91.8733 246.977 91.8373L242.946 92.123C240.702 94.1046 238.676 96.32 236.902 98.7317C233.831 102.886 232.656 107.82 237.097 111.534C237.097 111.534 237.311 115.429 237.272 117.149C237.09 119.642 236.266 124.121 235.863 129.289C242.686 135.593 259.611 134.112 267.291 127.575Z" fill="#263238"/>
<path d="M251.32 104.646L243.92 98.2578L249.555 68.6808L238.616 59.2417L230.092 62.2084L226.145 82.9175L217.874 75.7829L247.685 27.6846L235.922 17.5378L227.398 20.5046L195.516 71.6411L193.335 83.0668L221.484 107.359L218.225 124.472L229.164 133.918L237.687 130.944L239.265 122.7L239.83 123.187L248.354 120.22L251.32 104.646Z" fill="#516EB4"/>
<path opacity="0.3" d="M251.32 104.646L243.92 98.2578L249.555 68.6808L238.616 59.2417L230.092 62.2084L226.145 82.9175L217.874 75.7829L247.685 27.6846L235.922 17.5378L227.398 20.5046L195.516 71.6411L193.335 83.0668L221.484 107.359L218.225 124.472L229.164 133.918L237.687 130.944L239.265 122.7L239.83 123.187L248.354 120.22L251.32 104.646Z" fill="black"/>
<path d="M235.396 101.225L241.031 71.6541L230.092 62.2084L224.451 91.7854L209.344 78.7497L239.161 30.6579L227.398 20.5046L195.516 71.6411L193.335 83.0668L221.484 107.359L218.225 124.472L229.164 133.918L232.429 116.799L239.83 123.187L242.797 107.613L235.396 101.225Z" fill="#516EB4"/>
<path opacity="0.3" d="M235.396 101.225L241.031 71.6541L230.092 62.2084L224.451 91.7854L209.344 78.7497L239.161 30.6579L227.398 20.5046L195.516 71.6411L193.335 83.0668L221.484 107.359L218.225 124.472L229.164 133.918L232.429 116.799L239.83 123.187L242.797 107.613L235.396 101.225Z" fill="white"/>
<path d="M227.398 20.5046L239.162 30.6579L247.686 27.6846L235.922 17.5378L227.398 20.5046Z" fill="#516EB4"/>
<path opacity="0.5" d="M227.398 20.5046L239.162 30.6579L247.686 27.6846L235.922 17.5378L227.398 20.5046Z" fill="white"/>
<path d="M230.093 62.2085L238.617 59.2417L249.555 68.6809L241.032 71.6542L230.093 62.2085Z" fill="#516EB4"/>
<path opacity="0.5" d="M230.093 62.2085L238.617 59.2417L249.555 68.6809L241.032 71.6542L230.093 62.2085Z" fill="white"/>
<path d="M235.396 101.224L243.92 98.2576L251.321 104.646L242.797 107.612L235.396 101.224Z" fill="#516EB4"/>
<path opacity="0.5" d="M235.396 101.224L243.92 98.2576L251.321 104.646L242.797 107.612L235.396 101.224Z" fill="white"/>
<path d="M209.345 78.7497L217.875 75.783L226.146 82.9175L224.451 91.7854L209.345 78.7497Z" fill="#516EB4"/>
<path opacity="0.5" d="M209.345 78.7497L217.875 75.783L226.146 82.9175L224.451 91.7854L209.345 78.7497Z" fill="white"/>
<path d="M262.318 80.3466C263.001 80.3295 263.654 80.0588 264.149 79.5871C264.895 78.86 265.226 77.6914 266.155 77.211C266.804 76.8735 267.602 76.9708 268.317 76.7761C268.867 76.6159 269.355 76.2901 269.714 75.843C270.073 75.3958 270.285 74.8489 270.323 74.2767C270.374 73.0887 269.673 71.9332 269.907 70.7711C270.167 70.0699 270.486 69.3922 270.861 68.7456C271.128 68.0333 271.144 67.2517 270.909 66.5287C270.673 65.8057 270.198 65.1842 269.563 64.7661C268.972 64.4091 268.265 64.2403 267.687 63.9157C266.427 63.2211 266.622 61.7149 265.571 60.7931C265.115 60.3901 264.564 60.1092 263.971 59.9763C263.377 59.8435 262.759 59.8632 262.175 60.0335C261.37 60.2932 260.585 60.8515 259.754 60.6827C259.304 60.526 258.878 60.3075 258.488 60.0335C257.713 59.6478 256.826 59.5497 255.986 59.7565C255.145 59.9634 254.405 60.4618 253.898 61.1631C253.671 61.6446 253.341 62.0702 252.931 62.4096C252.054 62.9289 251.918 63.5327 251.509 64.461C251.282 64.9163 251.173 65.4217 251.194 65.9302C251.214 66.4387 251.363 66.9337 251.626 67.3694C252.048 67.9601 252.749 68.3431 253.054 68.9988C253.632 70.2323 252.554 71.5956 252.405 72.9329C252.152 75.666 254.904 75.4582 256.131 77.0163C256.49 77.552 256.815 78.1092 257.105 78.6847C257.787 79.8013 259.215 79.3339 260.351 79.7688C260.752 79.9568 261.164 80.1194 261.584 80.2557C261.824 80.3202 262.07 80.3508 262.318 80.3466Z" fill="#263238"/>
<path d="M259.182 64.5191C259.89 64.9473 260.483 65.5424 260.908 66.2524C261.081 66.5243 261.141 66.8523 261.077 67.1678C260.908 67.7131 260.207 67.8624 259.636 67.8754C257.468 67.9403 255.001 67.1029 254.209 64.8502C253.228 62.0068 258.182 63.8699 259.182 64.5191Z" fill="#516EB4"/>
<path d="M256.021 86.7994C255.637 86.8276 255.253 86.7606 254.902 86.6043C254.551 86.448 254.244 86.2073 254.008 85.9036C252.781 84.6506 251.931 83.0666 250.678 81.8332C249.159 80.3335 247.146 79.4571 245.173 78.6262C244.214 78.1893 243.185 77.9256 242.134 77.8471C241.671 77.7565 241.235 77.5575 240.863 77.2664C240.49 76.9754 240.192 76.6005 239.992 76.1722C239.523 75.2935 239.416 74.266 239.693 73.3093C239.96 72.4135 240.563 71.6085 240.622 70.6736C240.667 70.0244 240.427 69.3752 240.408 68.6871C240.4 68.0607 240.582 67.4466 240.93 66.9253C241.277 66.404 241.774 65.9998 242.355 65.7658C243.491 65.3243 244.868 65.5645 245.867 64.8699C246.64 64.3311 247.003 63.3378 247.815 62.8249C248.235 62.5785 248.706 62.4298 249.191 62.39C250.791 62.2099 252.403 62.6083 253.735 63.5131C254.238 63.9148 254.777 64.269 255.345 64.5713C256.144 64.8022 256.961 64.9672 257.786 65.0647C258.575 65.23 259.311 65.5864 259.931 66.1025C260.55 66.6186 261.033 67.2787 261.337 68.0249C261.675 69.0507 261.545 70.1218 261.844 71.1475C262.142 72.1732 262.895 73.0951 263.402 74.1078C264.008 75.311 264.258 76.6624 264.122 78.003C264.094 78.521 263.94 79.0245 263.674 79.4701C262.954 80.5607 261.305 80.8529 260.818 82.0669C260.697 82.4444 260.619 82.8341 260.584 83.2289C260.391 84.1837 259.886 85.0474 259.15 85.6852C258.414 86.323 257.487 86.6988 256.514 86.754C256.027 86.7605 256.475 86.6761 256.021 86.7994Z" fill="#263238"/>
<path d="M256.994 90.2463C257.027 89.2661 257.39 84.3647 257.39 84.3647C257.39 84.7347 259.15 85.8124 260.825 83.9946C262.499 82.1769 262.396 79.4503 261.253 78.3078C259.5 76.5744 256.858 77.9767 256.488 80.3592C255.092 81.0603 254.651 79.34 255.605 77.4184C255.534 75.8344 253.904 75.5747 254.112 72.1405C253.969 70.4201 248.756 68.7582 244.179 69.6151C243.219 71.5627 242.037 73.1857 242.232 75.6851C242.297 76.568 241.583 77.6326 241.453 78.8011C240.998 83.9946 242.362 86.5005 243.991 87.4548C245.082 88.104 246.023 88.3507 247.984 88.4091L247.815 90.0386C247.743 90.8566 247.815 91.5966 246.997 91.8238C246.543 92.9954 246.445 94.275 246.717 95.5018C246.988 96.7286 247.616 97.8477 248.522 98.7182C253.865 97.5692 258.098 93.1092 258.487 92.3237C257.124 91.8693 256.955 91.2201 256.994 90.2463Z" fill="#B16668"/>
<path d="M242.933 74.7245L245.108 74.335C245.09 74.1922 245.043 74.0546 244.97 73.9306C244.897 73.8066 244.8 73.6987 244.684 73.6136C244.568 73.5286 244.436 73.4681 244.295 73.4358C244.155 73.4036 244.01 73.4003 243.868 73.4261C243.576 73.4816 243.316 73.6472 243.142 73.8888C242.968 74.1304 242.893 74.4295 242.933 74.7245Z" fill="#263238"/>
<path d="M250.977 74.1663L252.626 75.6854C252.532 75.7972 252.416 75.8887 252.286 75.9545C252.156 76.0203 252.013 76.0589 251.868 76.068C251.722 76.0771 251.576 76.0565 251.439 76.0075C251.301 75.9585 251.175 75.882 251.068 75.7827C250.85 75.5755 250.719 75.2929 250.702 74.9925C250.685 74.6921 250.784 74.3966 250.977 74.1663Z" fill="#263238"/>
<path d="M245.011 76.6201C245.006 76.8648 244.906 77.098 244.733 77.2711C244.56 77.4441 244.327 77.5435 244.082 77.5485C243.963 77.552 243.844 77.5313 243.733 77.4878C243.621 77.4443 243.52 77.3787 243.434 77.2951C243.349 77.2115 243.281 77.1114 243.235 77.0011C243.189 76.8907 243.166 76.7721 243.167 76.6526C243.172 76.4079 243.271 76.1747 243.444 76.0017C243.617 75.8286 243.851 75.7292 244.095 75.7243C244.215 75.7208 244.334 75.7414 244.445 75.7849C244.557 75.8285 244.658 75.894 244.743 75.9776C244.829 76.0613 244.897 76.1613 244.943 76.2717C244.988 76.3821 245.012 76.5006 245.011 76.6201Z" fill="#263238"/>
<path d="M251.456 77.6651C251.451 77.9098 251.352 78.143 251.179 78.3161C251.006 78.4891 250.772 78.5885 250.528 78.5935C250.408 78.5979 250.289 78.5779 250.177 78.5347C250.065 78.4915 249.963 78.426 249.878 78.3422C249.792 78.2583 249.724 78.158 249.679 78.0472C249.633 77.9363 249.611 77.8174 249.612 77.6976C249.619 77.4524 249.72 77.2191 249.894 77.0462C250.068 76.8734 250.302 76.7742 250.547 76.7693C250.666 76.7666 250.784 76.7879 250.895 76.8319C251.006 76.8758 251.106 76.9415 251.191 77.025C251.276 77.1086 251.343 77.2083 251.388 77.3182C251.434 77.4282 251.457 77.5461 251.456 77.6651Z" fill="#263238"/>
<path d="M243.965 80.4242L246.704 81.6187L247.776 76.4836C246.62 76.4187 245.302 78.2364 243.965 80.4242Z" fill="#9A4A4D"/>
<path d="M247.556 84.2673C248.051 84.2673 248.452 83.8662 248.452 83.3715C248.452 82.8767 248.051 82.4756 247.556 82.4756C247.061 82.4756 246.66 82.8767 246.66 83.3715C246.66 83.8662 247.061 84.2673 247.556 84.2673Z" fill="#9A4A4D"/>
<path d="M248.425 83.1509C248.435 83.2241 248.435 83.2984 248.425 83.3716C248.423 83.5429 248.372 83.7101 248.277 83.853C248.183 83.9958 248.049 84.1083 247.892 84.1769C247.735 84.2455 247.561 84.2672 247.392 84.2395C247.223 84.2118 247.065 84.1359 246.938 84.0208C247.103 83.7715 247.323 83.5634 247.58 83.4126C247.838 83.2617 248.127 83.1722 248.425 83.1509Z" fill="#F28F8F"/>
<path d="M247.958 88.4094C250.555 88.4094 252.392 87.981 253.567 87.2344C254.45 86.6906 255.188 85.9397 255.716 85.0466C255.383 86.1723 254.747 87.185 253.879 87.9745C251.457 89.8182 247.867 89.6624 247.867 89.6624L247.958 88.4094Z" fill="#9A4A4D"/>
<path d="M249.184 115.714C249.184 115.714 248.99 116.753 248.977 116.935C248.938 118.883 250.106 120.22 251.93 121.005C255.915 122.564 259.996 123.865 264.148 124.901C270.354 126.562 273.516 125.498 274.652 124.381C275.788 123.265 276.281 120.596 275.58 117.727C273.431 108.866 272.983 107.372 271.925 103.932C269.192 94.9016 267.634 94.7328 263.239 93.4863C260.785 96.2129 260.48 101.562 261.941 106.34C263.927 112.832 265.343 116.364 265.343 116.364C261.727 115.988 258.132 115.429 254.573 114.689C252.235 114.202 252.898 110.794 252.898 110.794L249.184 115.714Z" fill="#B16668"/>
<path d="M252.684 109.547C253.022 107.749 252.951 107.359 252.269 106.054C251.587 104.75 251.289 104.146 250.971 103.659C250.374 102.849 249.681 102.114 248.906 101.471C248.205 101.095 247.835 102.516 248.406 103.464C248.978 104.412 249.828 105.594 249.828 105.594L252.684 109.547Z" fill="#9A4A4D"/>
<path d="M251.223 117.694C251.061 117.227 252.742 116.071 252.587 115.215C252.431 114.358 252.275 114.319 252.755 113.579C252.963 113.325 253.09 113.015 253.12 112.689C253.15 112.363 253.082 112.035 252.924 111.748C252.638 111.332 253.573 111.04 253.281 110.112C252.82 108.994 252.239 107.929 251.548 106.937C251.054 106.243 249.035 105.185 248.114 104.756C247.192 104.328 246.991 105.107 247.017 105.697C247.136 106.208 247.392 106.677 247.757 107.054C247.757 107.054 246.685 106.691 246.458 107.054C246.192 107.509 246.27 108.463 247.328 109.262C246.452 108.846 246.03 109.19 246.134 109.911C246.327 110.607 246.759 111.214 247.354 111.625C248.231 112.371 249.302 113.209 249.451 114.124L249.165 115.753L251.223 117.694Z" fill="#B16668"/>
<path d="M251.223 117.695C251.138 117.493 251.268 117.286 251.346 117.11C251.424 116.935 251.56 116.773 251.671 116.617C251.898 116.326 252.102 116.018 252.281 115.695C252.355 115.562 252.391 115.412 252.385 115.26L252.307 114.689C252.262 114.47 252.29 114.242 252.385 114.04C252.483 113.863 252.608 113.704 252.755 113.566C252.68 113.742 252.621 113.924 252.58 114.111C252.549 114.279 252.567 114.453 252.632 114.611C252.69 114.793 252.735 114.981 252.781 115.176C252.815 115.412 252.774 115.652 252.664 115.864C252.468 116.218 252.219 116.54 251.924 116.818L251.515 117.221C251.363 117.338 251.259 117.506 251.223 117.695Z" fill="#9A4A4D"/>
<path d="M247.757 107.054C248.27 107.262 248.783 107.47 249.282 107.704C249.798 107.931 250.291 108.205 250.756 108.522C251.156 108.927 251.506 109.378 251.801 109.865C252.091 110.343 252.351 110.837 252.58 111.346C252.204 110.937 251.847 110.515 251.503 110.086L250.983 109.437C250.829 109.232 250.657 109.041 250.47 108.866C250.068 108.567 249.555 108.301 249.101 108.009C248.632 107.721 248.183 107.402 247.757 107.054Z" fill="#9A4A4D"/>
<path d="M251.736 113.468C251.405 113.059 251.139 112.598 250.86 112.17C250.57 111.768 250.212 111.421 249.802 111.144C248.977 110.495 248.133 109.93 247.348 109.197C248.306 109.62 249.214 110.149 250.055 110.774C250.504 111.082 250.876 111.491 251.139 111.969C251.37 112.455 251.569 112.956 251.736 113.468Z" fill="#9A4A4D"/>
<path d="M265.342 116.331C267.751 116.331 269.926 116.63 271.692 118.493C270.296 115.559 267.459 115.552 265.005 115.442L265.342 116.331Z" fill="#9A4A4D"/>
<path d="M262.902 93.311C266.875 94.2524 267.615 94.577 268.745 95.9078C269.874 97.2386 270.465 98.5045 271.861 102.919C270.79 105.678 262 107.593 262 107.593C261.453 105.985 261.049 104.332 260.792 102.653C260.455 100.257 260.422 95.9013 262.902 93.311Z" fill="#455A64"/>
<path d="M122.392 238.541C122.788 232.757 122.989 230.056 123.541 219.714C123.593 217.066 123.69 214.235 123.866 211.716C124.463 203.238 125.553 201.219 126.281 198.311C127.008 195.402 126.93 187.541 128.027 169.311C128.378 162.344 129.506 155.437 131.39 148.719H157.493C160.175 160.145 160.941 184.885 160.856 196.668C160.817 202.667 160.752 233.672 160.902 236.165C161.055 238.205 161.949 240.119 163.414 241.547C165.563 243.858 167.108 244.792 169.802 246.798C169.413 247.831 163.765 247.792 162.155 247.006C159.824 245.836 157.573 244.513 155.416 243.046C153.196 241.41 152.683 240.417 152.644 237.924C152.644 237.612 152.644 237.158 152.644 237.106C152.605 235.652 148.405 213.917 147.489 209.009C146.775 205.192 147.554 197.811 147.554 197.811L144.789 179.634C144.789 179.634 142.354 194.117 140.686 201.459C139.466 206.854 136.434 215.378 134.447 224.006C132.13 232.776 131.941 233.549 130.552 239.826C129.864 242.994 128.176 253.641 127.41 255.835C124.93 262.905 119.321 259.393 119.003 255.485C118.847 252.914 122.308 239.787 122.392 238.541Z" fill="#FFA8A7"/>
<path d="M144.815 179.666L146.841 166.566C146.841 166.566 154.631 165.637 157.501 162.911C157.501 162.911 153.917 167.968 148.613 168.792L146.38 179.647L147.555 197.688L144.815 179.666Z" fill="#AF6152"/>
<path d="M175.781 249.74C175.929 250.124 175.969 250.542 175.898 250.947C175.828 251.353 175.648 251.732 175.379 252.044C174.47 252.843 171.789 254.173 168.238 253.752C164.687 253.33 162.733 252.245 161.298 251.07C159.863 249.895 157.844 248.233 156.234 247.896C154.735 247.584 152.294 246.766 151.807 246.305C151.32 245.844 151.365 243.793 151.365 243.793L175.781 249.74Z" fill="#263238"/>
<path d="M152.605 236.574C152.465 236.644 152.342 236.744 152.245 236.866C152.147 236.988 152.077 237.13 152.04 237.282C151.936 237.847 151.936 238.58 151.716 239.502C151.362 241.143 151.261 242.829 151.417 244.501C151.625 245.552 154.884 246.416 156.448 246.994C158.289 247.774 160.001 248.829 161.525 250.123C163.74 251.721 166.357 252.672 169.081 252.869C172.626 252.869 174.924 251.895 175.573 250.616C176.437 249.032 175.736 248.13 171.646 246.286C170.873 245.935 168.153 244.338 167.225 243.793C166.238 243.197 165.304 242.518 164.433 241.761C163.991 241.38 163.571 240.975 163.174 240.547C162.764 240.168 162.412 239.73 162.129 239.249C162.083 239.139 162.051 239.015 162.005 238.905C161.886 238.596 161.795 238.276 161.733 237.95C161.661 237.613 161.616 237.12 161.291 236.925C160.831 236.737 160.327 236.683 159.837 236.769C159.309 236.811 158.784 236.889 158.266 237.003C157.669 237.146 156.169 237.048 155.818 237.613C155.587 238.071 155.477 238.581 155.5 239.093C155.5 239.333 155.5 239.573 155.5 239.807C155.5 239.911 155.546 240.093 155.403 240.054C155.26 240.015 155.111 239.658 155.059 239.541C154.942 239.275 154.864 238.989 154.741 238.73C154.633 238.411 154.458 238.119 154.228 237.873C153.54 237.314 152.891 237.431 152.689 237.223C152.715 237.204 152.637 236.775 152.605 236.574Z" fill="#37474F"/>
<path d="M172.334 246.565C167.212 246.968 165.628 250.155 165.434 252.116C166.606 252.543 167.836 252.788 169.082 252.843C172.627 252.843 175.055 251.869 175.749 250.59C176.561 249.097 175.976 247.903 172.334 246.565Z" fill="#FAFAFA"/>
<path d="M164.648 246.695C164.592 246.696 164.536 246.678 164.492 246.643C164.465 246.623 164.443 246.598 164.427 246.569C164.41 246.541 164.4 246.509 164.396 246.476C164.392 246.443 164.396 246.41 164.405 246.378C164.415 246.346 164.431 246.317 164.453 246.292C165.043 245.667 165.761 245.175 166.557 244.85C167.353 244.526 168.21 244.375 169.069 244.41C169.129 244.423 169.182 244.459 169.218 244.509C169.254 244.559 169.27 244.621 169.264 244.682C169.258 244.744 169.229 244.801 169.183 244.843C169.138 244.885 169.079 244.908 169.017 244.909C168.242 244.887 167.47 245.026 166.752 245.317C166.033 245.609 165.383 246.047 164.843 246.604C164.818 246.632 164.788 246.654 164.755 246.67C164.721 246.685 164.685 246.694 164.648 246.695Z" fill="#F0F0F0"/>
<path d="M162.428 245.435C162.369 245.435 162.312 245.414 162.266 245.377C162.215 245.335 162.183 245.275 162.175 245.209C162.168 245.144 162.187 245.078 162.227 245.026C162.818 244.402 163.535 243.911 164.331 243.587C165.128 243.264 165.984 243.115 166.843 243.15C166.903 243.164 166.955 243.199 166.992 243.248C167.028 243.298 167.044 243.359 167.039 243.42C167.033 243.481 167.006 243.538 166.961 243.58C166.917 243.623 166.859 243.647 166.797 243.65C166.022 243.626 165.251 243.764 164.532 244.054C163.814 244.345 163.163 244.782 162.623 245.338C162.6 245.368 162.571 245.392 162.537 245.409C162.503 245.426 162.466 245.435 162.428 245.435Z" fill="#F0F0F0"/>
<path d="M160.396 243.988C160.339 243.987 160.284 243.966 160.24 243.929C160.214 243.91 160.191 243.885 160.175 243.856C160.158 243.827 160.148 243.795 160.144 243.763C160.14 243.73 160.144 243.696 160.153 243.665C160.163 243.633 160.18 243.604 160.201 243.579C160.792 242.954 161.509 242.464 162.306 242.14C163.102 241.816 163.958 241.667 164.817 241.703C164.883 241.709 164.944 241.741 164.986 241.792C165.029 241.843 165.05 241.909 165.044 241.975C165.036 242.042 165.002 242.103 164.95 242.145C164.898 242.187 164.832 242.208 164.765 242.203C163.99 242.179 163.219 242.318 162.501 242.608C161.782 242.899 161.132 243.335 160.591 243.89C160.569 243.921 160.539 243.946 160.505 243.963C160.471 243.98 160.434 243.989 160.396 243.988Z" fill="#F0F0F0"/>
<path d="M158.344 242.54C158.288 242.539 158.234 242.521 158.189 242.488C158.162 242.468 158.14 242.443 158.123 242.415C158.107 242.387 158.096 242.355 158.092 242.322C158.088 242.29 158.09 242.256 158.099 242.225C158.108 242.193 158.123 242.163 158.143 242.137C159.11 240.885 161.324 240.041 163.187 240.229C163.253 240.235 163.314 240.268 163.357 240.319C163.399 240.37 163.42 240.435 163.415 240.502C163.411 240.534 163.402 240.566 163.386 240.594C163.371 240.623 163.35 240.648 163.324 240.669C163.299 240.689 163.27 240.705 163.238 240.714C163.207 240.723 163.174 240.726 163.142 240.722C161.461 240.56 159.403 241.333 158.539 242.443C158.516 242.472 158.486 242.496 158.452 242.513C158.419 242.53 158.382 242.539 158.344 242.54Z" fill="#F0F0F0"/>
<path d="M128.222 256.68C127.82 259.062 127.268 260.614 126.274 261.925C125.281 263.236 123.613 263.503 122.029 262.912C120.445 262.321 118.484 260.964 118.25 258.861C117.912 256.948 118.003 254.983 118.517 253.109L128.222 256.68Z" fill="#263238"/>
<path d="M122.393 238.541C121.743 238.541 121.542 241.716 120.796 244.903C119.997 248.318 119.348 249.629 118.66 252.427C117.881 255.621 118.257 257.127 119.173 259.211C120.088 261.295 123.899 263.665 126.19 261.075C128.06 258.971 128.404 256.439 128.618 253.187C128.829 250.465 129.279 247.767 129.962 245.124C130.533 242.527 131.15 240.197 130.611 239.859C130.432 240.737 130.202 241.604 129.923 242.456C129.839 242.625 129.527 243.047 129.501 242.358C129.501 242.157 129.605 241.709 129.605 241.495C129.617 241.318 129.574 241.141 129.481 240.99C129.388 240.838 129.25 240.72 129.086 240.651C128.24 240.131 127.288 239.809 126.301 239.71C125.002 239.56 123.86 239.392 123.055 239.71C122.594 239.885 122.561 240.307 122.464 240.71C122.367 241.112 122.315 241.489 122.204 241.359C122.003 241.112 122.425 238.892 122.393 238.541Z" fill="#37474F"/>
<path d="M118.269 254.284C117.955 256.004 118.203 257.78 118.977 259.348C119.892 261.432 124.021 263.84 126.313 261.256C127.355 259.934 128.015 258.351 128.221 256.679C127.287 254.381 120.347 252.648 118.269 254.284Z" fill="#FAFAFA"/>
<path d="M127.15 252.992L127.073 252.96C125.202 251.977 123.098 251.528 120.99 251.661C120.924 251.667 120.858 251.647 120.806 251.606C120.754 251.565 120.72 251.506 120.71 251.441C120.707 251.408 120.71 251.375 120.719 251.344C120.728 251.313 120.743 251.284 120.764 251.258C120.784 251.233 120.81 251.212 120.839 251.196C120.867 251.181 120.899 251.171 120.931 251.168C123.152 251.002 125.374 251.47 127.339 252.518C127.394 252.554 127.433 252.61 127.447 252.674C127.462 252.739 127.451 252.806 127.417 252.862C127.391 252.909 127.352 252.947 127.304 252.97C127.257 252.993 127.203 253.001 127.15 252.992Z" fill="#F0F0F0"/>
<path d="M121.405 249.285C121.358 249.276 121.314 249.252 121.281 249.217C121.247 249.182 121.225 249.138 121.217 249.091C121.209 249.059 121.208 249.025 121.213 248.993C121.219 248.96 121.23 248.929 121.248 248.902C121.266 248.874 121.288 248.85 121.315 248.831C121.342 248.812 121.373 248.799 121.405 248.792C124.521 248.11 127.689 250.006 127.806 250.09C127.834 250.107 127.859 250.13 127.878 250.157C127.897 250.184 127.91 250.215 127.917 250.247C127.923 250.279 127.923 250.312 127.916 250.345C127.91 250.377 127.896 250.407 127.877 250.434C127.839 250.489 127.781 250.527 127.715 250.539C127.65 250.551 127.582 250.537 127.527 250.499C127.527 250.499 124.417 248.643 121.515 249.285H121.405Z" fill="#F0F0F0"/>
<path d="M121.762 247.026C121.717 247.015 121.675 246.992 121.642 246.959C121.608 246.925 121.585 246.883 121.574 246.838C121.566 246.806 121.565 246.773 121.571 246.74C121.576 246.708 121.588 246.677 121.605 246.649C121.623 246.621 121.646 246.597 121.673 246.578C121.7 246.559 121.73 246.546 121.762 246.539C125.197 245.721 128.176 247.74 128.254 247.837C128.287 247.855 128.315 247.879 128.337 247.909C128.358 247.938 128.374 247.972 128.381 248.008C128.389 248.043 128.389 248.081 128.381 248.116C128.372 248.152 128.357 248.186 128.334 248.215C128.312 248.244 128.283 248.267 128.251 248.284C128.218 248.301 128.183 248.311 128.146 248.313C128.109 248.315 128.073 248.309 128.039 248.295C128.005 248.281 127.974 248.26 127.949 248.233C127.949 248.233 125.041 246.286 121.84 247.039L121.762 247.026Z" fill="#F0F0F0"/>
<path d="M122.178 244.793C122.132 244.785 122.09 244.763 122.056 244.731C122.022 244.698 121.999 244.657 121.99 244.611C121.974 244.546 121.984 244.478 122.018 244.421C122.052 244.364 122.107 244.323 122.171 244.306C125.417 243.494 128.611 245.604 128.735 245.669C128.778 245.712 128.804 245.769 128.809 245.83C128.813 245.891 128.796 245.951 128.76 246C128.723 246.049 128.671 246.083 128.611 246.096C128.552 246.109 128.49 246.101 128.436 246.072C128.436 246.072 125.288 244.033 122.295 244.773C122.258 244.789 122.218 244.796 122.178 244.793Z" fill="#EBEBEB"/>
<path d="M129.02 148.732C128.371 155.698 128.027 157.613 126.962 173.486C125.93 188.878 126.527 193.565 126.378 195.422C126.028 199.674 124.145 201.141 123.593 211.178C123.087 220.37 122.788 231.718 122.788 231.718C122.788 231.718 124.022 233.419 127.527 233.731C130.773 234.023 132.377 232.809 132.377 232.809C132.377 232.809 138.369 211.386 140.037 205.971C142.309 198.648 144.809 183.354 144.809 183.354L146.925 198.071C146.557 202.649 146.788 207.256 147.613 211.775C149.307 220.026 151.034 228.998 151.034 228.998C152.591 229.564 154.255 229.77 155.903 229.602C159.688 229.219 160.947 228.342 160.947 228.342C160.947 228.342 162.012 203.407 162.012 194.305C162.012 185.204 161.661 162.839 160.882 148.667L129.02 148.732Z" fill="#455A64"/>
<path d="M144.815 183.354L147.412 167.423C147.412 167.423 152.684 166.033 156.066 162.489C155.813 165.131 151.126 168.513 148.925 169.039L145.99 183.159L146.893 198.09L144.815 183.354Z" fill="#37474F"/>
<path d="M138.687 151.199C137.891 152.52 137.238 153.922 136.739 155.38C136.223 156.833 135.79 158.313 135.441 159.814C135.086 161.314 134.809 162.83 134.61 164.358C134.385 165.884 134.283 167.426 134.305 168.968C134.668 167.468 135.012 165.981 135.35 164.495C135.687 163.008 135.999 161.522 136.382 160.041C136.765 158.561 137.096 157.088 137.479 155.614C137.862 154.14 138.232 152.673 138.687 151.199Z" fill="#37474F"/>
<path d="M136.674 151.758C135.911 152.472 135.213 153.254 134.59 154.095C133.968 154.92 133.404 155.788 132.902 156.691C132.395 157.61 131.961 158.567 131.604 159.554C131.24 160.539 131.002 161.567 130.896 162.612L132.299 159.853C132.773 158.951 133.24 158.048 133.74 157.159C134.24 156.269 134.727 155.374 135.214 154.471C135.7 153.569 136.22 152.705 136.674 151.758Z" fill="#37474F"/>
<path d="M140.024 170.182C139.375 174.96 138.765 179.738 138.161 184.516C137.557 189.294 137.077 196.993 136.213 201.706C135.35 206.419 129.76 224.902 129.033 229.667C130.13 224.973 136.239 206.627 137.168 201.881C138.096 197.136 138.466 189.398 138.92 184.6C139.375 179.803 139.732 174.999 140.024 170.182Z" fill="#37474F"/>
<path d="M157.15 170.182L157.955 182.756C158.072 184.853 158.202 186.944 158.299 189.034C158.397 191.124 158.52 193.221 158.488 195.286C158.455 197.35 158.312 217.423 158.598 221.617C159.085 216.943 159.312 199.544 159.455 195.305C159.455 191.059 159.085 186.866 158.708 182.698C158.332 178.53 157.8 174.317 157.15 170.182Z" fill="#37474F"/>
<path d="M150.657 226.979L151.365 231.342C151.365 231.342 153.118 232.458 156.786 232.082C160.453 231.705 160.986 230.517 160.986 230.517V226.408C160.986 226.408 160.103 227.258 156.753 227.641C154.697 227.859 152.618 227.633 150.657 226.979Z" fill="#37474F"/>
<path d="M122.865 228.673L122.534 233.081C122.534 233.081 123.975 234.574 127.637 235.061C131.298 235.548 132.084 234.523 132.084 234.523L133.038 230.524C133.038 230.524 131.986 231.173 128.637 230.738C126.587 230.469 124.62 229.766 122.865 228.673Z" fill="#37474F"/>
<path d="M154.702 114.124C158.104 114.54 161.674 116.636 167.868 120.058L174.496 123.726C174.496 123.726 180.053 113.118 182.091 109.677C185.052 104.698 187.408 110.443 186.636 112.501C185.194 116.351 184.721 120.811 182.319 129.159C181.079 133.47 180.215 135.327 174.82 133.554C170.374 132.1 159.169 127.971 159.169 127.971L154.702 114.124Z" fill="#FFA8A7"/>
<path d="M188.869 102.718C189.187 100.634 187.57 98.3228 187.57 98.3228V101.452L188.869 102.718Z" fill="#F28F8F"/>
<path d="M154.475 113.669C157.967 114.124 159.616 114.721 161.921 116.13C164.225 117.539 172.678 122.336 172.678 122.336C173.106 124.064 173.199 125.858 172.95 127.62C172.881 128.553 172.606 129.458 172.144 130.27C171.683 131.083 171.047 131.783 170.282 132.321L158.039 128.224L154.475 113.669Z" fill="#263238"/>
<path d="M129.02 116.708C129.02 116.708 126.345 122.128 128.02 132.068C128.786 136.612 129.351 140.143 129.02 146.181C128.734 151.296 127.722 160.619 127.722 160.619C132.98 165.092 156.059 165.306 161.447 158.593C161.447 158.593 161.148 147.557 161.148 138.878C161.148 132.386 160.785 126.952 160.045 123.888C158.383 116.967 155.903 114.721 154.501 113.67C150.718 113.356 146.914 113.43 143.146 113.89C138.964 114.394 134.815 115.141 130.721 116.13C130.125 116.226 129.55 116.421 129.02 116.708Z" fill="#37474F"/>
<path d="M129.02 116.708C124.476 118.285 123.625 120.356 120.379 125.945C117.345 131.323 114.74 136.932 112.589 142.72C111.33 146.323 113.284 150.193 114.985 150.887C116.322 151.433 117.419 151.978 119.068 150.712C120.454 149.574 121.665 148.24 122.664 146.752C125.91 141.688 130.935 132.918 130.935 132.918C130.935 132.918 134.428 121.083 129.02 116.708Z" fill="#FFA8A7"/>
<path d="M120.145 146.454C120.989 142.136 120.262 140.611 119.899 137.93C119.535 135.249 119.107 131.139 118.847 128.666C117.62 130.977 116.438 133.437 115.406 135.722L120.145 146.454Z" fill="#F28F8F"/>
<path d="M115.77 134.281C116.042 135.638 119.353 142.507 124.8 143.701L131.603 132.665C131.603 132.665 134.291 125.634 130.694 116.156C126.611 116.922 124.852 117.798 122.359 121.771C119.866 125.745 115.77 134.281 115.77 134.281Z" fill="#263238"/>
<path d="M112.356 131.074C112.356 131.886 112.473 132.464 112.356 135.164C112.239 137.865 112.116 138.261 111.908 141.117C111.687 144.272 111.116 146.311 113.135 149.518C115.154 152.725 117.543 152.063 119.588 150.258C120.6 147.122 120.302 142.111 119.042 138.475C118.288 136.316 117.787 134.076 117.549 131.802L112.356 131.074Z" fill="#FFA8A7"/>
<path d="M109.629 123.518C109.465 123.384 109.265 123.303 109.055 123.283C108.845 123.263 108.633 123.307 108.447 123.408C108.149 123.641 108.558 124.433 109.097 125.498C109.467 126.199 110.259 128.744 111.044 129.796C111.829 130.706 112.303 131.843 112.395 133.042C112.742 131.349 112.672 129.597 112.19 127.938C111.708 126.278 110.829 124.761 109.629 123.518Z" fill="#F28F8F"/>
<path d="M137.499 109.813C135.272 106.626 133.253 104.62 131.617 101.062C130.968 99.6212 129.871 96.2649 130.513 94.2329C130.961 92.8112 131.721 91.6362 133.201 91.5128C132.995 90.8161 132.979 90.0772 133.154 89.3721C133.328 88.667 133.687 88.0211 134.194 87.5008C134.568 87.0631 135.057 86.7391 135.605 86.5658C136.154 86.3925 136.74 86.3768 137.297 86.5206C137.314 86.0252 137.471 85.5448 137.749 85.1347C138.028 84.7245 138.416 84.4014 138.87 84.2026C139.324 84.0038 139.825 83.9373 140.315 84.0109C140.805 84.0845 141.265 84.2951 141.64 84.6185C141.854 84.1075 142.215 83.672 142.678 83.3678C143.14 83.0636 143.684 82.9045 144.237 82.9111C144.82 82.907 145.392 83.0714 145.884 83.3847C146.376 83.698 146.767 84.1467 147.009 84.6769C149.067 82.8202 152.521 84.0277 152.644 87.6242C152.877 87.4132 153.168 87.2762 153.479 87.2304C153.791 87.1846 154.108 87.2322 154.392 87.367C154.677 87.5018 154.914 87.7178 155.076 87.9877C155.237 88.2577 155.315 88.5695 155.299 88.8836C155.203 89.2829 155.164 89.6938 155.183 90.1041C155.223 90.2797 155.312 90.4404 155.439 90.5678C155.567 90.6952 155.727 90.7842 155.903 90.8247C156.081 90.8577 156.264 90.8405 156.433 90.7752C156.601 90.7098 156.748 90.5988 156.857 90.4546C156.962 90.7689 156.987 91.1044 156.929 91.4306C156.87 91.7567 156.731 92.063 156.524 92.3214C156.316 92.5798 156.047 92.782 155.742 92.9095C155.436 93.0371 155.103 93.0859 154.774 93.0514C154.856 93.3272 154.859 93.6209 154.781 93.898C154.703 94.1752 154.547 94.4242 154.332 94.6159C153.977 94.8848 153.535 95.0121 153.092 94.973L137.499 109.813Z" fill="#263238"/>
<path d="M153.904 104.912C153.612 107.645 152.554 109.028 150.801 109.852C149.856 110.232 148.865 110.483 147.854 110.599L148.113 113.52C154.06 119.363 141.154 120.142 138.096 114.851L137.025 106.003C137.025 106.003 136.019 107.47 133.948 106.457C133.1 105.98 132.442 105.224 132.087 104.318C131.733 103.412 131.702 102.411 132 101.484C132.702 99.3549 134.597 99.225 135.642 100.056C136.804 100.984 136.824 101.971 137.33 101.874C137.624 101.843 137.9 101.721 138.119 101.523C138.338 101.326 138.489 101.065 138.551 100.777C138.784 99.8677 138.746 98.9719 138.551 97.0503C139.276 96.5858 139.868 95.9418 140.271 95.1806C140.493 94.5166 140.559 93.8102 140.464 93.1165C140.368 92.4228 140.113 91.7606 139.719 91.1816C141.79 90.1364 144.264 92.1684 146.627 92.2138C149.301 92.2658 149.301 90.0131 150.762 90.039C152.06 90.9479 152.833 93.3239 152.943 94.895C153.164 97.9656 154.482 99.4977 153.904 104.912Z" fill="#FFA8A7"/>
<path d="M147.847 110.599C144.698 110.774 141.355 110.138 140.056 109.099C138.758 108.061 138.005 105.717 138.005 105.717C138.005 105.717 138.55 108.736 139.589 109.969C140.628 111.203 142.9 111.514 144.283 111.683C145.665 111.852 147.957 111.826 147.957 111.826L147.847 110.599Z" fill="#F28F8F"/>
<path d="M151.729 95.817L149.573 95.1678C149.61 95.0255 149.676 94.8923 149.766 94.7762C149.857 94.6602 149.97 94.5637 150.098 94.4926C150.227 94.4216 150.369 94.3775 150.515 94.363C150.662 94.3484 150.809 94.3639 150.95 94.4083C151.232 94.5024 151.47 94.6996 151.614 94.9606C151.758 95.2216 151.799 95.5273 151.729 95.817Z" fill="#263238"/>
<path d="M141.862 97.109L143.666 95.7002C143.58 95.5794 143.469 95.4772 143.342 95.3997C143.215 95.3222 143.074 95.2711 142.927 95.2493C142.78 95.2275 142.63 95.2355 142.486 95.2728C142.342 95.3101 142.207 95.376 142.089 95.4665C141.85 95.6605 141.693 95.938 141.651 96.2429C141.609 96.5479 141.684 96.8574 141.862 97.109Z" fill="#263238"/>
<path d="M149.782 97.8422C149.807 98.0919 149.927 98.3223 150.119 98.4846C150.31 98.6469 150.557 98.7285 150.807 98.7121C150.929 98.7056 151.048 98.6747 151.157 98.6211C151.266 98.5674 151.364 98.4923 151.443 98.4001C151.523 98.3079 151.583 98.2006 151.62 98.0847C151.656 97.9687 151.669 97.8465 151.658 97.7253C151.633 97.4768 151.513 97.2475 151.323 97.0853C151.133 96.9232 150.888 96.8408 150.639 96.8554C150.517 96.8619 150.398 96.8929 150.288 96.9464C150.179 97 150.081 97.075 150.001 97.1671C149.921 97.2591 149.86 97.3664 149.823 97.4824C149.785 97.5983 149.771 97.7207 149.782 97.8422Z" fill="#263238"/>
<path d="M142.751 98.7126C142.775 98.9623 142.896 99.1927 143.087 99.355C143.279 99.5173 143.526 99.5989 143.776 99.5825C143.898 99.5752 144.018 99.5435 144.127 99.4892C144.237 99.435 144.334 99.3593 144.414 99.2668C144.494 99.1742 144.555 99.0665 144.592 98.9502C144.63 98.8338 144.644 98.7111 144.633 98.5893C144.605 98.3414 144.483 98.1136 144.293 97.9529C144.102 97.7923 143.856 97.711 143.607 97.7259C143.486 97.7324 143.366 97.7633 143.257 97.8168C143.147 97.8704 143.05 97.9454 142.97 98.0375C142.89 98.1296 142.829 98.2368 142.791 98.3528C142.754 98.4688 142.74 98.5911 142.751 98.7126Z" fill="#263238"/>
<path d="M150.658 101.608L147.672 102.906L146.458 97.0633C147.542 96.7517 149.438 99.6017 150.658 101.608Z" fill="#F28F8F"/>
<path d="M147.262 104.854C147.115 104.632 146.924 104.442 146.701 104.297C146.477 104.152 146.227 104.054 145.964 104.01C145.685 103.946 145.399 103.924 145.113 103.945C144.813 103.946 144.516 104.019 144.25 104.159C144.12 104.237 144.25 104.451 144.38 104.445C144.891 104.377 145.408 104.377 145.918 104.445C146.176 104.497 146.427 104.58 146.665 104.691C146.86 104.776 147.022 104.906 147.217 104.996C147.269 104.977 147.282 104.854 147.262 104.854Z" fill="#B16668"/>
<path d="M187.59 97.5116C187.787 91.9353 186.859 86.3764 184.861 81.1665C182.863 75.9566 179.836 71.2026 175.961 67.1879C172.086 63.1733 167.442 59.9803 162.306 57.7996C157.17 55.6188 151.647 54.4949 146.068 54.4949C140.488 54.4949 134.965 55.6188 129.829 57.7996C124.693 59.9803 120.049 63.1733 116.174 67.1879C112.299 71.2026 109.272 75.9566 107.274 81.1665C105.276 86.3764 104.348 91.9353 104.546 97.5116V103.601C104.348 109.177 105.276 114.736 107.274 119.946C109.272 125.156 112.299 129.91 116.174 133.925C120.049 137.939 124.693 141.132 129.829 143.313C134.965 145.494 140.488 146.618 146.068 146.618C151.647 146.618 157.17 145.494 162.306 143.313C167.442 141.132 172.086 137.939 175.961 133.925C179.836 129.91 182.863 125.156 184.861 119.946C186.859 114.736 187.787 109.177 187.59 103.601V97.5116ZM146.042 123.051C139.802 123.04 133.783 120.746 129.119 116.602C124.455 112.458 121.468 106.751 120.723 100.556C121.467 94.3541 124.458 88.6396 129.131 84.494C133.804 80.3483 139.834 78.0589 146.081 78.0589C152.327 78.0589 158.357 80.3483 163.03 84.494C167.703 88.6396 170.694 94.3541 171.438 100.556C170.687 106.757 167.69 112.468 163.014 116.609C158.338 120.751 152.307 123.035 146.061 123.031L146.042 123.051Z" fill="#516EB4"/>
<path opacity="0.5" d="M187.59 97.5116C187.787 91.9353 186.859 86.3764 184.861 81.1665C182.863 75.9566 179.836 71.2026 175.961 67.1879C172.086 63.1733 167.442 59.9803 162.306 57.7996C157.17 55.6188 151.647 54.4949 146.068 54.4949C140.488 54.4949 134.965 55.6188 129.829 57.7996C124.693 59.9803 120.049 63.1733 116.174 67.1879C112.299 71.2026 109.272 75.9566 107.274 81.1665C105.276 86.3764 104.348 91.9353 104.546 97.5116V103.601C104.348 109.177 105.276 114.736 107.274 119.946C109.272 125.156 112.299 129.91 116.174 133.925C120.049 137.939 124.693 141.132 129.829 143.313C134.965 145.494 140.488 146.618 146.068 146.618C151.647 146.618 157.17 145.494 162.306 143.313C167.442 141.132 172.086 137.939 175.961 133.925C179.836 129.91 182.863 125.156 184.861 119.946C186.859 114.736 187.787 109.177 187.59 103.601V97.5116ZM146.042 123.051C139.802 123.04 133.783 120.746 129.119 116.602C124.455 112.458 121.468 106.751 120.723 100.556C121.467 94.3541 124.458 88.6396 129.131 84.494C133.804 80.3483 139.834 78.0589 146.081 78.0589C152.327 78.0589 158.357 80.3483 163.03 84.494C167.703 88.6396 170.694 94.3541 171.438 100.556C170.687 106.757 167.69 112.468 163.014 116.609C158.338 120.751 152.307 123.035 146.061 123.031L146.042 123.051Z" fill="white"/>
<path d="M146.061 62.0725C137.843 62.0725 129.81 64.5093 122.978 69.0746C116.145 73.64 110.82 80.1289 107.675 87.7208C104.531 95.3127 103.708 103.667 105.311 111.726C106.914 119.786 110.871 127.189 116.682 132.999C122.492 138.81 129.896 142.767 137.955 144.37C146.015 145.973 154.369 145.151 161.96 142.006C169.552 138.861 176.041 133.536 180.607 126.703C185.172 119.871 187.609 111.838 187.609 103.621C187.609 92.6013 183.231 82.0334 175.44 74.2416C167.648 66.4499 157.08 62.0725 146.061 62.0725ZM146.061 129.14C141.008 129.139 136.07 127.639 131.869 124.831C127.669 122.023 124.396 118.033 122.464 113.364C120.531 108.696 120.027 103.56 121.014 98.6045C122.001 93.6494 124.435 89.0982 128.008 85.5265C131.582 81.9548 136.134 79.523 141.09 78.5386C146.045 77.5542 151.182 78.0614 155.849 79.996C160.516 81.9307 164.505 85.206 167.311 89.4076C170.117 93.6093 171.614 98.5486 171.613 103.601C171.613 106.956 170.952 110.278 169.667 113.377C168.383 116.477 166.501 119.293 164.128 121.664C161.755 124.036 158.938 125.917 155.838 127.2C152.738 128.482 149.416 129.142 146.061 129.14Z" fill="#516EB4"/>
<path opacity="0.3" d="M146.061 62.0725C137.843 62.0725 129.81 64.5093 122.978 69.0746C116.145 73.64 110.82 80.1289 107.675 87.7208C104.531 95.3127 103.708 103.667 105.311 111.726C106.914 119.786 110.871 127.189 116.682 132.999C122.492 138.81 129.896 142.767 137.955 144.37C146.015 145.973 154.369 145.151 161.96 142.006C169.552 138.861 176.041 133.536 180.607 126.703C185.172 119.871 187.609 111.838 187.609 103.621C187.609 92.6013 183.231 82.0334 175.44 74.2416C167.648 66.4499 157.08 62.0725 146.061 62.0725ZM146.061 129.14C141.008 129.139 136.07 127.639 131.869 124.831C127.669 122.023 124.396 118.033 122.464 113.364C120.531 108.696 120.027 103.56 121.014 98.6045C122.001 93.6494 124.435 89.0982 128.008 85.5265C131.582 81.9548 136.134 79.523 141.09 78.5386C146.045 77.5542 151.182 78.0614 155.849 79.996C160.516 81.9307 164.505 85.206 167.311 89.4076C170.117 93.6093 171.614 98.5486 171.613 103.601C171.613 106.956 170.952 110.278 169.667 113.377C168.383 116.477 166.501 119.293 164.128 121.664C161.755 124.036 158.938 125.917 155.838 127.2C152.738 128.482 149.416 129.142 146.061 129.14Z" fill="white"/>
<path d="M146.068 123.031C139.834 123.024 133.818 120.737 129.154 116.6C124.49 112.464 121.501 106.764 120.749 100.576C120.622 101.573 120.557 102.576 120.555 103.581C120.513 107.087 121.194 110.564 122.554 113.796C123.915 117.027 125.926 119.944 128.463 122.364C130.999 124.785 134.007 126.657 137.298 127.865C140.59 129.073 144.095 129.59 147.595 129.385C151.095 129.179 154.516 128.255 157.643 126.671C160.771 125.086 163.539 122.875 165.775 120.174C168.011 117.474 169.667 114.342 170.64 110.973C171.613 107.605 171.883 104.072 171.431 100.595C170.673 106.787 167.675 112.488 163.002 116.621C158.33 120.754 152.306 123.034 146.068 123.031Z" fill="#516EB4"/>
<path opacity="0.3" d="M146.068 123.031C139.834 123.024 133.818 120.737 129.154 116.6C124.49 112.464 121.501 106.764 120.749 100.576C120.622 101.573 120.557 102.576 120.555 103.581C120.513 107.087 121.194 110.564 122.554 113.796C123.915 117.027 125.926 119.944 128.463 122.364C130.999 124.785 134.007 126.657 137.298 127.865C140.59 129.073 144.095 129.59 147.595 129.385C151.095 129.179 154.516 128.255 157.643 126.671C160.771 125.086 163.539 122.875 165.775 120.174C168.011 117.474 169.667 114.342 170.64 110.973C171.613 107.605 171.883 104.072 171.431 100.595C170.673 106.787 167.675 112.488 163.002 116.621C158.33 120.754 152.306 123.034 146.068 123.031Z" fill="black"/>
<path d="M189.368 104.01C189.978 102.842 189.887 102.712 189.4 102.231C189.029 101.846 188.572 101.554 188.067 101.38C187.561 101.206 187.021 101.155 186.492 101.232C185.692 101.295 184.91 101.497 184.181 101.829C183.739 102.14 184.291 103.095 185.537 103.192C187.485 103.341 187.569 103.841 187.569 103.841C186.73 103.77 185.887 103.742 185.044 103.757C184.113 103.962 183.2 104.237 182.311 104.581C181.519 104.828 181.512 105.88 182.928 106.049L181.486 106.496C180.48 106.808 180.188 107.412 181.11 107.931C181.404 108.111 181.748 108.188 182.09 108.152C182.09 108.152 180.993 108.308 181.026 108.678C181.11 109.736 181.824 109.911 184.142 110.236C186.089 110.515 186.836 111.19 186.738 111.982L186.641 112.476C186.641 112.476 187.42 111.826 188.108 111.216C188.608 110.755 189.017 110.255 188.64 109.424C188.64 109.424 189.854 109.269 189.822 108.515C189.762 107.963 189.585 107.429 189.303 106.951C189.501 106.796 189.652 106.588 189.738 106.352C189.824 106.116 189.842 105.86 189.79 105.614C189.721 105.134 189.492 104.693 189.14 104.361L189.368 104.01Z" fill="#FFA8A7"/>
<path d="M182.928 106.074C183.349 105.921 183.784 105.808 184.226 105.737C184.688 105.74 185.145 105.817 185.583 105.964C186.445 106.198 187.285 106.504 188.095 106.879C187.217 106.774 186.348 106.596 185.499 106.347C185.094 106.205 184.677 106.105 184.252 106.048C183.837 106.035 183.376 106.094 182.928 106.074Z" fill="#F28F8F"/>
<path d="M182.09 108.178C182.543 107.971 183.041 107.884 183.538 107.925C184.024 107.957 184.507 108.035 184.979 108.158C185.916 108.392 186.826 108.725 187.692 109.152C186.746 108.996 185.807 108.792 184.881 108.541C183.982 108.247 183.035 108.123 182.09 108.178Z" fill="#F28F8F"/>
<path d="M110.576 128.712C109.408 128.127 109.401 127.965 109.512 127.29C109.585 126.761 109.783 126.257 110.09 125.82C110.398 125.383 110.804 125.026 111.277 124.778C111.96 124.357 112.712 124.06 113.498 123.901C114.043 123.901 114.147 124.985 113.199 125.803C111.693 127.102 112.063 127.407 112.063 127.407C112.063 127.407 113.361 126.362 113.946 125.992C114.821 125.609 115.723 125.295 116.646 125.05C117.425 124.784 118.061 125.641 117.01 126.602L118.438 126.115C119.438 125.777 120.009 126.115 119.587 127.056C119.46 127.372 119.231 127.637 118.938 127.809C118.938 127.809 119.918 127.29 120.113 127.608C120.665 128.517 120.184 129.082 118.503 130.705C117.075 132.087 116.886 133.055 117.425 133.639L117.795 133.996C117.795 133.996 116.796 133.938 115.848 133.827C115.199 133.749 114.549 133.581 114.355 132.691C114.06 132.759 113.753 132.758 113.459 132.687C113.165 132.616 112.892 132.477 112.66 132.282C112.245 131.906 112.375 131.075 112.375 131.075C112.114 131.049 111.864 130.956 111.65 130.804C111.436 130.653 111.265 130.449 111.154 130.211C110.929 129.818 110.862 129.354 110.966 128.913L110.576 128.712Z" fill="#FFA8A7"/>
<path d="M117.01 126.602C116.572 126.727 116.148 126.894 115.744 127.102C115.374 127.378 115.048 127.709 114.776 128.082C114.215 128.777 113.715 129.52 113.283 130.302C113.935 129.702 114.539 129.051 115.088 128.355C115.334 128.005 115.612 127.679 115.919 127.381C116.25 127.108 116.659 126.881 117.01 126.602Z" fill="#F28F8F"/>
<path d="M118.918 127.81C118.439 127.917 117.993 128.14 117.62 128.459C117.247 128.774 116.904 129.121 116.594 129.497C115.972 130.236 115.43 131.039 114.978 131.893C115.663 131.215 116.313 130.502 116.925 129.757C117.463 128.99 118.139 128.33 118.918 127.81Z" fill="#F28F8F"/>
<path d="M53.583 206.913L52.5508 197.753L63.0157 196.811C63.0157 196.811 62.5742 203.874 62.6392 207.107C62.6392 208.633 63.7428 211.509 63.7428 211.509C63.7428 211.509 59.3802 213.768 57.1146 212.846C54.8489 211.924 53.3493 208.347 53.4012 207.692C53.4532 207.036 53.583 206.913 53.583 206.913Z" fill="#FFBDA7"/>
<path d="M75.7983 221.318C75.9411 221.318 76.0515 222.649 75.2595 223.298C73.1139 224.752 70.499 225.343 67.9367 224.954C64.444 224.447 62.5679 223.35 61.1916 222.169C59.8153 220.987 57.8807 219.332 56.3032 218.955C54.887 218.546 53.564 217.864 52.4081 216.949C51.9472 216.495 52.051 214.502 52.051 214.502L75.7983 221.318Z" fill="#263238"/>
<path d="M53.5834 206.893C53.4544 206.897 53.3307 206.944 53.2326 207.028C53.1346 207.112 53.0682 207.227 53.0446 207.354C52.9277 207.899 52.7784 209.49 52.5317 210.385C52.1397 211.964 51.993 213.593 52.0968 215.215C52.272 216.241 55.0441 217.514 56.5632 218.117C58.3495 218.92 60.0041 219.988 61.471 221.285C63.0875 222.649 66.5217 224.103 68.8068 224.122C71.5075 224.122 74.5586 223.343 75.2987 222.123C76.1881 220.61 76.8503 218.877 72.8837 216.929C72.1307 216.572 69.495 214.982 68.5991 214.397C66.1776 212.833 64.4768 211.405 63.4056 208.698C63.3179 208.362 63.1187 208.067 62.8408 207.86C62.5973 207.756 62.3277 207.729 62.0683 207.782C60.7381 207.899 59.4187 208.116 58.1212 208.431C57.5759 208.672 56.8228 208.957 56.8228 209.632C56.8324 209.867 56.8784 210.1 56.9592 210.321C57.0046 210.463 57.0371 210.645 56.9137 210.73C56.7904 210.814 56.6411 210.73 56.5437 210.619C56.1543 210.218 55.8003 209.783 55.4855 209.321C55.1766 208.909 54.8405 208.519 54.4793 208.152C54.2434 208.017 54.0157 207.867 53.7976 207.704C53.525 207.51 53.5899 207.211 53.5834 206.893Z" fill="#455A64"/>
<path d="M61.4717 221.286C60.7836 220.708 60.05 220.149 59.3164 219.643C59.3164 219.643 63.9711 222.538 65.8992 221.292C67.1391 220.494 66.5484 219.481 66.5484 219.163C66.5484 218.845 70.8914 216.657 72.0859 216.566C72.417 216.748 72.6832 216.91 72.8649 216.981C75.9681 218.28 76.3511 219.857 75.7928 221.844C75.0722 223.064 72.3391 224.291 68.853 224.233C66.5678 224.168 63.0882 222.649 61.4717 221.286Z" fill="#37474F"/>
<path d="M66.2622 218.221C68.7356 219.247 67.6645 219.682 66.9633 219.773C66.2622 219.864 62.1204 217.377 59.6016 215.339C57.0048 213.216 54.9534 210.392 53.9796 209.613C53.6161 209.328 53.22 208.964 52.876 208.639C52.9539 208.101 53.0123 207.607 53.0707 207.341C53.0944 207.214 53.1608 207.099 53.2588 207.015C53.3568 206.932 53.4806 206.884 53.6096 206.88C53.6096 207.198 53.5511 207.497 53.7848 207.737C54.003 207.9 54.2306 208.049 54.4665 208.185C54.8277 208.552 55.1638 208.942 55.4727 209.354C55.7875 209.816 56.1415 210.25 56.5309 210.652C58.6278 213.417 63.7693 217.196 66.2622 218.221Z" fill="#37474F"/>
<path d="M66.7684 219.41C66.7118 219.406 66.6576 219.386 66.6126 219.351C66.5896 219.329 66.5714 219.302 66.5589 219.272C66.5465 219.243 66.54 219.211 66.54 219.179C66.54 219.147 66.5465 219.115 66.5589 219.086C66.5714 219.056 66.5896 219.029 66.6126 219.007C67.3267 218.17 70.696 216.222 72.5202 216.449C72.5524 216.452 72.5837 216.462 72.6121 216.478C72.6405 216.493 72.6655 216.514 72.6855 216.54C72.7055 216.565 72.7201 216.595 72.7286 216.626C72.737 216.657 72.739 216.69 72.7344 216.722C72.7313 216.754 72.7217 216.785 72.706 216.813C72.6904 216.841 72.6691 216.866 72.6435 216.885C72.6179 216.905 72.5885 216.919 72.5573 216.926C72.526 216.934 72.4935 216.935 72.4618 216.93C70.7544 216.722 67.5539 218.656 66.9891 219.319C66.962 219.35 66.9279 219.374 66.8895 219.39C66.8512 219.406 66.8097 219.413 66.7684 219.41Z" fill="#263238"/>
<path d="M64.619 218.053C64.5638 218.052 64.5107 218.031 64.4697 217.994C64.4253 217.949 64.4004 217.889 64.4004 217.825C64.4004 217.762 64.4253 217.702 64.4697 217.657C65.1903 216.819 68.5531 214.872 70.3838 215.099C70.4154 215.102 70.4461 215.112 70.474 215.127C70.5019 215.142 70.5266 215.162 70.5465 215.187C70.5664 215.212 70.5812 215.24 70.5901 215.271C70.5989 215.301 70.6016 215.333 70.598 215.365C70.594 215.398 70.5836 215.429 70.5673 215.457C70.5511 215.486 70.5293 215.511 70.5034 215.531C70.4774 215.551 70.4477 215.565 70.416 215.574C70.3843 215.582 70.3513 215.584 70.3189 215.579C68.6115 215.372 65.4175 217.306 64.8462 217.968C64.8184 218 64.7831 218.025 64.7434 218.039C64.7037 218.054 64.6609 218.059 64.619 218.053Z" fill="#263238"/>
<path d="M62.4713 216.768C62.4174 216.766 62.3652 216.748 62.322 216.716C62.2726 216.674 62.2415 216.614 62.2355 216.55C62.2294 216.486 62.2488 216.422 62.2896 216.371C63.0102 215.534 66.3729 213.58 68.2037 213.814C68.2359 213.817 68.2671 213.827 68.2955 213.842C68.3239 213.858 68.3489 213.879 68.3689 213.904C68.3889 213.93 68.4036 213.959 68.412 213.99C68.4204 214.022 68.4224 214.054 68.4179 214.086C68.4083 214.151 68.3735 214.209 68.3212 214.248C68.2689 214.287 68.2033 214.303 68.1387 214.294C66.4314 214.086 63.2374 216.021 62.6661 216.683C62.6426 216.712 62.6127 216.734 62.5788 216.749C62.545 216.763 62.5081 216.77 62.4713 216.768Z" fill="#263238"/>
<path d="M60.4905 215.313C60.4332 215.313 60.3777 215.293 60.3347 215.255C60.2853 215.213 60.2542 215.154 60.2482 215.089C60.2421 215.025 60.2615 214.961 60.3023 214.911C61.0229 214.08 64.3986 212.126 66.2164 212.359C66.2483 212.362 66.2794 212.371 66.3078 212.385C66.3362 212.4 66.3612 212.421 66.3813 212.446C66.4014 212.471 66.4161 212.5 66.4246 212.531C66.4331 212.561 66.4351 212.594 66.4306 212.626C66.4225 212.69 66.3893 212.749 66.3382 212.789C66.2872 212.829 66.2224 212.847 66.1579 212.84C64.4506 212.626 61.2501 214.567 60.6788 215.229C60.656 215.256 60.6271 215.278 60.5945 215.293C60.5618 215.307 60.5263 215.314 60.4905 215.313Z" fill="#263238"/>
<path d="M58.5434 213.852C58.4894 213.851 58.4372 213.833 58.394 213.8C58.3684 213.781 58.3469 213.756 58.331 213.728C58.3151 213.7 58.305 213.669 58.3013 213.637C58.2977 213.605 58.3006 213.572 58.3098 213.541C58.3191 213.51 58.3345 213.481 58.3551 213.456C59.3483 212.275 62.8605 210.658 64.6912 210.86C64.7234 210.863 64.7547 210.872 64.7831 210.888C64.8115 210.904 64.8364 210.925 64.8564 210.95C64.8764 210.976 64.8911 211.005 64.8995 211.036C64.9079 211.068 64.9099 211.1 64.9054 211.132C64.8958 211.197 64.861 211.255 64.8087 211.294C64.7564 211.333 64.6908 211.349 64.6262 211.34C62.9838 211.132 59.6145 212.69 58.7381 213.742C58.7175 213.775 58.6888 213.803 58.6548 213.822C58.6208 213.841 58.5825 213.852 58.5434 213.852Z" fill="#263238"/>
<path d="M36.3017 211.21L38.7816 200.213L27.9597 198.519L27.7584 209.373C27.7584 209.373 26.9275 212.294 27.5442 213.301C28.1609 214.307 34.6853 215.358 35.2695 214.69C35.8538 214.021 36.3017 211.21 36.3017 211.21Z" fill="#FFBDA7"/>
<path d="M35.2185 228.537C34.9329 231.004 34.4135 232.601 33.3489 233.931C32.2842 235.262 30.3821 235.496 28.4994 234.84C26.6168 234.185 24.2343 232.737 23.7928 230.53C23.3973 228.563 23.4977 226.528 24.085 224.609L35.2185 228.537Z" fill="#263238"/>
<path d="M27.7587 209.373C26.9732 209.334 27.1874 211.275 26.8174 214.599C26.4149 218.202 24.7919 221.019 24.2207 223.902C23.5715 227.2 23.6883 228.725 24.9153 230.913C26.1422 233.101 30.758 235.671 33.2054 233.049C35.2049 230.913 35.4126 228.297 35.4062 224.921C35.3255 222.069 35.4079 219.214 35.6528 216.371C35.9255 213.878 36.9512 211.574 36.302 211.21C36.2306 211.574 35.562 214.099 35.1205 214.06C35.1008 213.744 35.1138 213.426 35.1595 213.112C35.1894 212.968 35.1892 212.819 35.1591 212.675C35.1289 212.531 35.0694 212.395 34.9842 212.275C34.6105 211.975 34.1798 211.754 33.7183 211.626C32.9522 211.392 31.5889 211.106 30.8099 210.976C30.4204 210.898 30.0244 210.834 29.6349 210.788C29.3034 210.739 28.9666 210.739 28.6351 210.788C28.5451 210.803 28.4593 210.837 28.3833 210.887C28.3072 210.937 28.2426 211.003 28.1937 211.08C28.148 211.2 28.1281 211.329 28.1352 211.457C28.1198 211.678 28.0762 211.896 28.0054 212.106C27.9665 212.203 27.8886 212.314 27.7717 212.281C27.7328 212.26 27.701 212.228 27.6802 212.188C27.6595 212.149 27.6506 212.105 27.6549 212.061C27.6743 211.658 27.7328 209.587 27.7587 209.373Z" fill="#455A64"/>
<path d="M24.4419 223.006C24.338 223.48 23.7213 226.628 24.6756 227.323C25.6299 228.018 26.4219 225.635 26.4219 225.635C26.4219 225.635 28.9537 225.259 32.5307 227.115C32.3165 227.615 32.7969 229.4 33.8291 229.16C34.8613 228.92 35.4131 225.265 35.4196 225.265C35.4196 228.511 35.1599 231.023 33.2189 233.101C30.7585 235.697 26.1557 233.159 24.9288 230.965C23.7018 228.771 23.5719 227.252 24.2341 223.954C24.2796 223.571 24.3575 223.266 24.4419 223.006Z" fill="#37474F"/>
<path d="M26.6937 225.849C26.6223 227.063 25.285 226.498 25.3109 224.765C25.3369 223.032 26.2393 218.87 26.6093 216.053C26.8365 212.008 26.9988 209.334 27.7843 209.373C27.7843 209.418 27.7843 209.457 27.7843 209.496C27.7843 209.535 27.7064 211.807 27.6934 212.093C27.5571 214.566 27.5246 219.37 27.1676 221.603C26.9246 223.008 26.7663 224.426 26.6937 225.849Z" fill="#37474F"/>
<path d="M32.1082 226.999C32.5149 225.633 32.8336 224.243 33.0625 222.837C33.4455 220.624 34.7699 216.203 35.4191 213.82C35.6333 213.431 36.302 211.223 36.302 211.223C36.8473 211.373 36.302 213.496 36.0423 214.469C35.7826 215.443 35.4775 216.521 35.1594 217.949C34.3479 220.753 34.27 224.96 33.7442 226.577C33.2183 228.193 31.7901 228.161 32.1082 226.999Z" fill="#37474F"/>
<path d="M32.6016 227.193C32.5647 227.187 32.5294 227.174 32.4977 227.154C30.6631 226.145 28.5737 225.694 26.4862 225.856C26.4112 225.866 26.3351 225.849 26.2711 225.809C26.2071 225.768 26.1592 225.707 26.1357 225.635C26.1281 225.601 26.128 225.566 26.1353 225.532C26.1427 225.498 26.1574 225.466 26.1784 225.438C26.1994 225.41 26.2262 225.387 26.2569 225.371C26.2877 225.355 26.3216 225.345 26.3564 225.343C28.5914 225.154 30.8318 225.638 32.7898 226.732C32.8211 226.748 32.8488 226.77 32.8711 226.797C32.8935 226.823 32.9101 226.855 32.9199 226.888C32.9296 226.922 32.9323 226.957 32.9278 226.991C32.9233 227.026 32.9117 227.059 32.8937 227.089C32.8613 227.134 32.816 227.168 32.7638 227.187C32.7116 227.205 32.655 227.208 32.6016 227.193Z" fill="#263238"/>
<path d="M33.3873 224.642C33.3529 224.634 33.3199 224.621 33.2899 224.603C31.2095 223.544 28.8895 223.045 26.5579 223.155C26.4831 223.162 26.4081 223.143 26.3463 223.1C26.2845 223.057 26.2399 222.994 26.2203 222.921C26.2135 222.887 26.2145 222.852 26.2231 222.818C26.2318 222.784 26.2479 222.753 26.2703 222.726C26.2928 222.699 26.3209 222.678 26.3527 222.663C26.3845 222.649 26.4191 222.642 26.454 222.642C28.9174 222.505 31.3724 223.032 33.5626 224.168C33.5951 224.183 33.6241 224.205 33.648 224.231C33.6719 224.258 33.6902 224.289 33.7017 224.323C33.7132 224.357 33.7178 224.393 33.7151 224.429C33.7124 224.465 33.7024 224.499 33.6859 224.531C33.6527 224.577 33.6066 224.612 33.5534 224.632C33.5003 224.652 33.4424 224.655 33.3873 224.642Z" fill="#263238"/>
<path d="M26.87 220.682C26.816 220.67 26.7658 220.644 26.724 220.608C26.6821 220.572 26.6497 220.526 26.6298 220.474C26.6213 220.441 26.6198 220.406 26.6255 220.372C26.6311 220.338 26.6439 220.306 26.6628 220.277C26.6818 220.248 26.7065 220.224 26.7355 220.205C26.7645 220.187 26.797 220.174 26.8311 220.169C30.3951 219.52 33.7903 221.558 33.9332 221.643C33.9652 221.658 33.9936 221.68 34.0167 221.707C34.0398 221.735 34.0571 221.766 34.0674 221.8C34.0778 221.834 34.081 221.87 34.0769 221.906C34.0728 221.941 34.0614 221.975 34.0435 222.006C33.9946 222.062 33.927 222.099 33.8531 222.11C33.7793 222.121 33.704 222.105 33.641 222.065C33.641 222.065 30.3107 220.117 26.9934 220.682H26.87Z" fill="#263238"/>
<path d="M27.1873 218.345C27.1345 218.336 27.0849 218.313 27.0438 218.279C27.0027 218.245 26.9715 218.2 26.9536 218.15C26.9416 218.117 26.9372 218.082 26.9406 218.047C26.9439 218.012 26.9551 217.979 26.9731 217.949C26.9912 217.919 27.0157 217.894 27.0449 217.874C27.0741 217.855 27.1072 217.843 27.1418 217.838C29.657 217.426 32.2363 217.947 34.3933 219.305C34.4235 219.324 34.4496 219.348 34.4701 219.377C34.4905 219.406 34.5048 219.439 34.5121 219.474C34.5194 219.508 34.5196 219.544 34.5125 219.579C34.5055 219.613 34.4914 219.646 34.4712 219.675C34.4196 219.729 34.3502 219.762 34.2761 219.768C34.2019 219.774 34.1282 219.752 34.0687 219.708C32.0515 218.466 29.6581 217.983 27.3171 218.345C27.2748 218.358 27.2296 218.358 27.1873 218.345Z" fill="#263238"/>
<path d="M27.5578 215.728C27.5048 215.718 27.4553 215.694 27.4143 215.659C27.3734 215.623 27.3423 215.578 27.3241 215.527C27.3121 215.495 27.3074 215.461 27.3105 215.427C27.3135 215.393 27.3241 215.36 27.3416 215.331C27.359 215.301 27.3829 215.276 27.4113 215.258C27.4398 215.239 27.4721 215.227 27.5059 215.222C31.1868 214.462 34.647 216.67 34.8028 216.767C34.8339 216.784 34.8611 216.807 34.8828 216.835C34.9045 216.862 34.9201 216.894 34.9286 216.929C34.9372 216.963 34.9385 216.999 34.9325 217.033C34.9265 217.068 34.9132 217.101 34.8936 217.131C34.8437 217.186 34.7752 217.221 34.701 217.23C34.6269 217.238 34.5522 217.219 34.4912 217.176C34.4912 217.176 31.1089 215.021 27.6877 215.728H27.5578Z" fill="#263238"/>
<path d="M31.9271 126.413C28.4734 134.853 30.7391 146.175 30.3885 155.38C29.9731 166.416 29.7718 175.037 29.7718 175.037C29.642 176.524 28.798 178.595 28.1099 185.905C27.3828 193.617 27.4153 204.627 27.4153 204.627C27.4153 204.627 33.9071 207.406 37.984 205.971C37.984 205.971 42.3336 189.456 44.4759 180.374C46.4689 171.779 47.9361 158.34 47.9361 158.34L50.2991 171.292C50.2991 171.292 50.007 176.849 50.1433 180.744C50.3056 185.288 52.7401 202.608 52.7401 202.608C52.7401 202.608 58.797 206.237 63.0102 202.777C63.0102 202.777 65.0616 177.336 65.198 171.889C65.4641 161.203 65.7693 140.196 64.5098 126.446L31.9271 126.413Z" fill="#37474F"/>
<path d="M47.9033 158.34L50.6039 141.403C50.6039 141.403 56.4466 140.429 58.959 138.001C57.5408 140.46 55.2067 142.257 52.4671 143L49.6366 158.684L50.2858 171.292L47.9033 158.34Z" fill="#263238"/>
<path d="M27.3115 205.004C29.1357 206.426 34.4526 207.646 38.0621 206.335L38.7957 203.271C36.0561 204.192 30.4146 203.608 27.3764 201.732L27.3115 205.004Z" fill="#455A64"/>
<path d="M52.7203 202.965C53.9472 204.212 59.6406 205.244 63.0034 203.27L63.2501 200.193C60.6988 201.615 54.8107 201.375 52.3438 199.914L52.7203 202.965Z" fill="#455A64"/>
<path d="M30.1996 156.893C30.1996 156.893 29.6348 170.623 29.6738 171.623C29.7128 172.622 37.1719 174.602 37.3667 173.966C37.6913 172.908 37.6134 170.551 38.2561 159.171C32.0693 158.373 30.1996 156.893 30.1996 156.893Z" fill="#455A64"/>
<path d="M37.0945 163.086C36.8624 163.034 36.6243 163.015 36.3869 163.028L35.5689 162.989C34.9901 162.939 34.4153 162.85 33.8486 162.722C33.2079 162.578 32.5786 162.387 31.9659 162.151C31.4596 161.963 30.9921 161.703 30.4858 161.502C30.4403 161.502 30.4338 161.573 30.4858 161.593C30.9744 161.929 31.5047 162.199 32.0633 162.398C33.1047 162.809 34.1963 163.08 35.3092 163.203C35.5949 163.235 35.887 163.255 36.1727 163.268C36.4785 163.322 36.7929 163.3 37.088 163.203C37.1335 163.196 37.1399 163.105 37.0945 163.086Z" fill="#37474F"/>
<path d="M33.8421 161.171C33.7707 161.028 33.7187 160.944 33.5564 160.924C33.4233 160.91 33.2897 160.945 33.1799 161.021C33.1285 161.057 33.0855 161.103 33.054 161.157C33.0226 161.211 33.0035 161.271 32.9981 161.333C32.9896 161.43 33.008 161.528 33.0512 161.615C33.0945 161.703 33.1609 161.777 33.2433 161.829C33.3258 161.881 33.421 161.91 33.5185 161.912C33.6161 161.914 33.7123 161.889 33.7966 161.839C33.8412 161.8 33.876 161.751 33.8985 161.695C33.921 161.64 33.9306 161.581 33.9265 161.521C33.9271 161.399 33.8982 161.279 33.8421 161.171ZM33.6993 161.593C33.6551 161.645 33.5937 161.681 33.5261 161.693C33.4584 161.704 33.3887 161.692 33.3292 161.658C33.1345 161.547 33.1734 161.184 33.4071 161.158C33.4804 161.149 33.5544 161.167 33.6149 161.21C33.6717 161.253 33.7113 161.316 33.7267 161.386C33.7422 161.456 33.7324 161.529 33.6993 161.593Z" fill="#37474F"/>
<path d="M55.3105 90.6562C59.0693 91.3054 60.8936 92.2922 63.75 96.8235C66.6064 101.355 72.3128 114.293 72.3128 114.293L84.6473 123.745L77.2271 127.076C77.4413 127.387 75.4743 126.634 70.547 123.979C66.1715 121.616 65.7949 121.61 62.9255 116.617C60.3742 112.183 56.57 105.763 56.57 105.763L55.3105 90.6562Z" fill="#FFBDA7"/>
<path d="M30.7838 97.0638C32.0063 97.0638 33.2169 96.823 34.3463 96.3552C35.4758 95.8873 36.502 95.2016 37.3665 94.3371C38.2309 93.4727 38.9167 92.4464 39.3845 91.317C39.8523 90.1875 40.0931 88.977 40.0931 87.7544V64.52H38.5481C36.482 64.52 34.5005 65.3408 33.0395 66.8017C31.5786 68.2627 30.7578 70.2442 30.7578 72.3103L30.7838 97.0638Z" fill="#37474F"/>
<path d="M35.3732 67.4477C35.24 67.8305 35.1485 68.2267 35.1005 68.6292C35.0681 68.8878 35.0681 69.1495 35.1005 69.4082C35.2152 70.0096 35.5387 70.5511 36.0138 70.9371C36.4889 71.3231 37.0852 71.5289 37.6973 71.5181C38.3001 71.495 38.8898 71.3351 39.4218 71.0506C39.9537 70.766 40.4141 70.3642 40.7679 69.8756C41.7677 68.5772 43.2478 65.604 41.3132 64.5393C40.6639 64.2106 39.9362 64.0681 39.2109 64.1277C38.4855 64.1873 37.7909 64.4466 37.2039 64.8769C36.336 65.5175 35.6948 66.418 35.3732 67.4477Z" fill="#516EB4"/>
<path opacity="0.25" d="M35.3732 67.4477C35.24 67.8305 35.1485 68.2267 35.1005 68.6292C35.0681 68.8878 35.0681 69.1495 35.1005 69.4082C35.2152 70.0096 35.5387 70.5511 36.0138 70.9371C36.4889 71.3231 37.0852 71.5289 37.6973 71.5181C38.3001 71.495 38.8898 71.3351 39.4218 71.0506C39.9537 70.766 40.4141 70.3642 40.7679 69.8756C41.7677 68.5772 43.2478 65.604 41.3132 64.5393C40.6639 64.2106 39.9362 64.0681 39.2109 64.1277C38.4855 64.1873 37.7909 64.4466 37.2039 64.8769C36.336 65.5175 35.6948 66.418 35.3732 67.4477Z" fill="black"/>
<path d="M34.8413 117.26C34.6271 118.208 32.3679 123.102 31.0176 128.393C39.1259 138.852 63.1394 133.145 64.8987 127.264C64.5221 120.265 64.1975 102.595 62.6655 99.4136C60.9693 95.9352 58.4433 92.9276 55.3102 90.6561C53.6175 90.3362 51.907 90.1194 50.1881 90.0069C47.6334 89.6752 45.0428 89.7409 42.5082 90.2016C40.1291 90.6597 37.8005 91.3489 35.5554 92.2596C32.7444 93.4346 32.1147 97.1869 33.0301 103.296C33.452 106.1 36.3409 110.696 34.8413 117.26Z" fill="#455A64"/>
<path d="M98.0792 98.2191L90.6784 91.8311L96.3134 62.2541L85.3746 52.8149L76.8443 55.7817L72.8972 76.4908L64.6265 69.3562L94.4437 21.2579L82.6804 11.1111L74.1566 14.0779L42.275 65.2144L40.0938 76.6401L68.2425 100.933L64.9836 118.045L75.9224 127.491L84.4462 124.518L86.0173 116.273L86.5886 116.76L95.1124 113.793L98.0792 98.2191Z" fill="#516EB4"/>
<path opacity="0.3" d="M98.0792 98.2191L90.6784 91.8311L96.3134 62.2541L85.3746 52.8149L76.8443 55.7817L72.8972 76.4908L64.6265 69.3562L94.4437 21.2579L82.6804 11.1111L74.1566 14.0779L42.275 65.2144L40.0938 76.6401L68.2425 100.933L64.9836 118.045L75.9224 127.491L84.4462 124.518L86.0173 116.273L86.5886 116.76L95.1124 113.793L98.0792 98.2191Z" fill="black"/>
<path d="M82.1546 94.8043L87.7896 65.2274L76.8443 55.7817L71.2093 85.3587L56.1027 72.3295L85.9199 24.2312L74.1566 14.0779L42.275 65.2144L40.0938 76.6466L68.2425 100.933L64.9836 118.045L75.9224 127.491L79.1878 110.372L86.5886 116.76L89.5553 101.186L82.1546 94.8043Z" fill="#516EB4"/>
<path opacity="0.3" d="M82.1546 94.8043L87.7896 65.2274L76.8443 55.7817L71.2093 85.3587L56.1027 72.3295L85.9199 24.2312L74.1566 14.0779L42.275 65.2144L40.0938 76.6466L68.2425 100.933L64.9836 118.045L75.9224 127.491L79.1878 110.372L86.5886 116.76L89.5553 101.186L82.1546 94.8043Z" fill="white"/>
<path d="M74.1562 14.0779L85.9195 24.2312L94.4434 21.2579L82.6801 11.1111L74.1562 14.0779Z" fill="#516EB4"/>
<path opacity="0.5" d="M74.1562 14.0779L85.9195 24.2312L94.4434 21.2579L82.6801 11.1111L74.1562 14.0779Z" fill="white"/>
<path d="M76.8438 55.7817L85.3741 52.8149L96.3129 62.2541L87.7891 65.2274L76.8438 55.7817Z" fill="#516EB4"/>
<path opacity="0.5" d="M76.8438 55.7817L85.3741 52.8149L96.3129 62.2541L87.7891 65.2274L76.8438 55.7817Z" fill="white"/>
<path d="M82.1543 94.8041L90.6781 91.8308L98.0789 98.2188L89.555 101.186L82.1543 94.8041Z" fill="#516EB4"/>
<path opacity="0.5" d="M82.1543 94.8041L90.6781 91.8308L98.0789 98.2188L89.555 101.186L82.1543 94.8041Z" fill="white"/>
<path d="M56.1025 72.3295L64.6264 69.3562L72.897 76.4908L71.2091 85.3587L56.1025 72.3295Z" fill="#516EB4"/>
<path opacity="0.5" d="M56.1025 72.3295L64.6264 69.3562L72.897 76.4908L71.2091 85.3587L56.1025 72.3295Z" fill="white"/>
<path d="M76.9281 98.3163C76.2789 98.1411 77.7591 95.6417 77.4475 94.0122C77.2917 93.2007 76.2919 92.4542 75.9348 93.5383C75.1818 95.817 74.1885 96.6479 73.5264 98.0177" fill="#FFBDA7"/>
<path d="M73.5261 98.018C72.8173 99.5123 71.6896 100.768 70.2802 101.634C68.2872 103.036 56.5499 105.529 56.5499 105.529C56.5499 105.529 53.7778 103.887 49.0518 100.725C43.0598 96.7196 37.4508 91.9416 35.5681 92.2856C29.6346 93.98 31.0238 102.627 33.3349 104.562C34.854 105.86 36.5809 107.003 42.7611 110.294C49.4283 113.865 50.4021 114.001 52.3496 114.838C55.8033 116.299 56.5174 116.007 60.8605 114.468C65.2035 112.93 67.7678 111.573 73.5391 108.71C76.4669 107.262 77.5381 106.23 79.7453 104.744C80.6015 104.217 81.3703 103.56 82.024 102.796C82.6327 102.1 83.0628 101.267 83.2769 100.368C83.2994 100.199 83.3431 100.033 83.4068 99.8746C83.4912 99.7318 83.5885 99.5955 83.6859 99.4592C83.8919 99.2185 84.0624 98.9496 84.1923 98.6607C84.281 98.3359 84.3376 98.0032 84.3611 97.6674C84.3699 97.5122 84.3916 97.3581 84.426 97.2065C84.4742 97.0524 84.535 96.9026 84.6078 96.7585C84.8249 96.4002 84.9787 96.0071 85.0622 95.5965C85.0756 95.4851 85.06 95.3721 85.0167 95.2686C84.9735 95.165 84.9042 95.0745 84.8155 95.0057C84.8155 95.0057 85.1271 94.5643 85.2245 94.4085C85.3636 94.1898 85.4789 93.957 85.5686 93.7138C85.591 93.6673 85.6026 93.6162 85.6026 93.5645C85.6026 93.5128 85.591 93.4618 85.5686 93.4152C85.5358 93.365 85.4881 93.3264 85.4322 93.3049C84.5818 92.8634 83.7638 93.3957 83.0951 93.9151C81.3553 95.2524 80.5438 96.4599 78.6547 97.609C77.629 98.2582 77.3563 98.375 76.9344 98.3685" fill="#FFBDA7"/>
<path d="M84.7841 95.0771C84.4854 95.5381 84.1349 95.9665 83.8038 96.3755C83.4727 96.7845 83.1027 97.2195 82.7586 97.6414C82.5833 97.8492 82.421 98.0699 82.2328 98.2906C82.0445 98.5113 81.8562 98.6931 81.655 98.8749C81.2617 99.2585 80.8477 99.6205 80.415 99.959L80.9798 99.3618C81.1681 99.167 81.3628 98.9658 81.5446 98.7645C81.7264 98.5633 81.9147 98.3685 82.0899 98.1608C82.2652 97.953 82.4275 97.7388 82.6028 97.5116C82.9534 97.0896 83.3104 96.6741 83.6805 96.2717L84.7841 95.0771Z" fill="#F0997A"/>
<path d="M84.4386 97.0637C84.2782 97.4624 84.0804 97.845 83.8478 98.2063C83.6141 98.5568 83.3674 98.9009 83.1077 99.232C82.8481 99.5631 82.5819 99.8812 82.3028 100.206C82.02 100.522 81.7187 100.821 81.4004 101.102C81.6666 100.771 81.9197 100.452 82.1794 100.102L82.9455 99.1087L83.718 98.1089C83.9647 97.8038 84.2049 97.4467 84.4386 97.0637Z" fill="#F0997A"/>
<path d="M57.6021 77.6529L58.3616 77.4192C61.7828 75.582 61.6075 71.122 60.7831 68.798C58.9264 63.6045 53.3239 61.6569 49.8508 61.4816C43.2745 61.1181 40.061 62.8189 39.3794 66.2272C38.49 66.1493 37.263 66.8764 36.5229 67.8761C34.9065 70.0768 32.9849 77.7502 41.5087 85.8456L57.6021 77.6529Z" fill="#37474F"/>
<path d="M39.9248 83.2748C39.388 83.3313 38.8458 83.2439 38.3541 83.0214C37.8623 82.7989 37.4387 82.4494 37.1268 82.0089C35.6077 80.1911 35.5233 78.3994 36.3153 77.2373C36.9645 76.2895 38.4966 75.7247 39.5223 76.4258C40.548 77.127 40.6324 77.7242 41.0284 78.5682C41.4244 79.4121 43.0733 79.3797 43.6251 76.1727C44.112 73.1864 43.9757 70.0443 45.5013 68.746C47.7735 66.7984 50.1105 67.4476 50.9415 68.707C51.8893 67.3372 53.9407 67.2398 55.4144 68.1033C56.4856 68.7524 57.6022 69.7392 57.4853 73.102C57.4464 74.1407 58.1345 76.0818 58.2124 77.536C58.511 83.3786 57.5632 84.8069 55.9922 86.2221C55.0638 87.066 53.5967 87.6243 51.4089 87.6373L51.4868 90.6106C51.4868 90.6106 54.1485 94.5057 54.2394 96.4013L41.7295 90.4613L41.4179 82.4178C41.2567 82.6706 41.0367 82.8806 40.7767 83.0298C40.5166 83.1791 40.2244 83.2631 39.9248 83.2748Z" fill="#FFBDA7"/>
<path d="M54.7517 71.1677L56.4721 72.6868C56.3791 72.8049 56.2629 72.9027 56.1307 72.974C55.9984 73.0454 55.8529 73.0888 55.7032 73.1016C55.5534 73.1143 55.4026 73.0962 55.2602 73.0483C55.1178 73.0004 54.9867 72.9238 54.8751 72.8232C54.6468 72.6153 54.5068 72.3279 54.4838 72.02C54.4609 71.7121 54.5567 71.4071 54.7517 71.1677Z" fill="#263238"/>
<path d="M48.8445 73.0763L46.7216 74.3422C46.6343 74.208 46.5752 74.0574 46.5482 73.8995C46.5211 73.7417 46.5266 73.58 46.5643 73.4244C46.602 73.2687 46.6711 73.1224 46.7673 72.9945C46.8636 72.8665 46.985 72.7596 47.1241 72.6803C47.408 72.5172 47.743 72.4675 48.062 72.5409C48.381 72.6143 48.6605 72.8055 48.8445 73.0763Z" fill="#263238"/>
<path d="M45.4881 69.1487C44.9753 69.7979 44.5988 70.4471 44.6767 72.7971C44.7091 73.7774 44.6377 76.0431 43.982 77.4064C43.4107 78.5944 42.82 79.302 41.5541 79.5227C40.7848 79.6383 39.9988 79.5579 39.2689 79.289C38.821 79.0813 37.5616 78.1984 37.7174 76.8935C37.9734 77.1748 38.2881 77.3964 38.6392 77.5427C38.9047 77.6575 39.188 77.7256 39.4767 77.7439C39.9076 77.743 40.3312 77.633 40.7081 77.4241C41.085 77.2153 41.4028 76.9143 41.632 76.5494C42.4824 75.29 42.424 73.5891 42.6836 72.1479C43.0147 70.3107 43.3328 68.2528 44.9883 67.318C46.9358 66.2403 50.4869 66.7207 50.9153 68.7202C50.1339 68.0687 49.1287 67.7488 48.1145 67.8289C47.1003 67.909 46.1576 68.3827 45.4881 69.1487Z" fill="#37474F"/>
<path d="M51.8496 74.5303L52.5248 80.2366L55.6214 79.0291L51.8496 74.5303Z" fill="#F0997A"/>
<path d="M49.8828 76.3222C49.8841 76.5012 49.8321 76.6766 49.7335 76.8259C49.6348 76.9753 49.494 77.092 49.3288 77.1611C49.1637 77.2302 48.9817 77.2486 48.806 77.214C48.6304 77.1794 48.469 77.0933 48.3424 76.9667C48.2158 76.8401 48.1298 76.6787 48.0952 76.5031C48.0605 76.3274 48.079 76.1455 48.1481 75.9803C48.2172 75.8152 48.3338 75.6743 48.4832 75.5757C48.6326 75.477 48.8079 75.425 48.987 75.4263C49.2246 75.4263 49.4524 75.5207 49.6204 75.6887C49.7885 75.8567 49.8828 76.0846 49.8828 76.3222Z" fill="#263238"/>
<path d="M55.3812 76.322C55.876 76.322 56.2771 75.9209 56.2771 75.4262C56.2771 74.9314 55.876 74.5303 55.3812 74.5303C54.8864 74.5303 54.4854 74.9314 54.4854 75.4262C54.4854 75.9209 54.8864 76.322 55.3812 76.322Z" fill="#263238"/>
<path d="M51.9792 82.0349C51.978 82.2118 51.9243 82.3844 51.8251 82.5309C51.7259 82.6773 51.5855 82.7912 51.4217 82.858C51.2579 82.9248 51.078 82.9416 50.9046 82.9063C50.7313 82.871 50.5723 82.7852 50.4476 82.6596C50.323 82.5341 50.2383 82.3744 50.2042 82.2008C50.1702 82.0272 50.1883 81.8474 50.2563 81.6841C50.3243 81.5208 50.4391 81.3813 50.5863 81.2831C50.7335 81.185 50.9064 81.1326 51.0834 81.1326C51.2016 81.1326 51.3186 81.1559 51.4277 81.2014C51.5368 81.2468 51.6359 81.3134 51.7191 81.3973C51.8024 81.4811 51.8683 81.5807 51.9129 81.6901C51.9575 81.7996 51.9801 81.9167 51.9792 82.0349Z" fill="#B16668"/>
<path d="M50.2135 81.8079C50.2036 81.8833 50.2036 81.9597 50.2135 82.0351C50.2135 82.2727 50.3079 82.5005 50.4759 82.6686C50.6439 82.8366 50.8718 82.931 51.1094 82.931C51.3246 82.9316 51.5326 82.8531 51.6937 82.7102C51.5334 82.4557 51.3163 82.2418 51.0595 82.0853C50.8027 81.9287 50.5131 81.8338 50.2135 81.8079Z" fill="#F28F8F"/>
<path d="M51.3759 87.6372C48.8441 87.5398 46.533 87.1243 45.0982 86.235C43.9927 85.5213 43.0842 84.5413 42.4561 83.385C42.544 84.1904 42.8018 84.9679 43.2126 85.6662C43.6233 86.3645 44.1775 86.9677 44.8386 87.4359C47.1172 89.0459 51.4084 89.3251 51.4084 89.3251L51.3759 87.6372Z" fill="#F0997A"/>
<path d="M85.9518 125.53C87.2502 125.53 87.3411 125.381 87.5423 124.725C87.7085 124.217 87.7522 123.677 87.6698 123.149C87.5875 122.621 87.3814 122.12 87.0684 121.687C86.6374 121.012 86.0952 120.415 85.4649 119.921C84.978 119.675 84.3938 120.609 84.8936 121.759C85.6727 123.576 85.2442 123.868 85.2442 123.868C84.9125 123.095 84.542 122.339 84.1341 121.603C83.5192 120.872 82.8485 120.191 82.1281 119.564C81.5438 118.98 80.6025 119.467 81.1219 120.798L80.0507 119.733C79.3041 118.987 78.6485 119.025 78.603 120.064C78.5821 120.41 78.6781 120.753 78.8757 121.038C78.8757 121.038 78.2265 120.136 77.9084 120.337C77.0125 120.908 77.1943 121.635 77.9863 123.823C78.6355 125.699 78.3953 126.653 77.6552 126.939L77.1748 127.075C77.1748 127.075 78.0837 127.478 78.9666 127.789C79.6158 128.017 80.2649 128.147 80.8038 127.426C80.8038 127.426 81.5049 128.426 82.1606 128.043C82.6195 127.732 83.0068 127.327 83.2966 126.855C83.527 126.959 83.782 126.995 84.0323 126.961C84.2826 126.926 84.5181 126.822 84.7119 126.66C85.1014 126.379 85.3868 125.978 85.5234 125.517L85.9518 125.53Z" fill="#FFBDA7"/>
<path d="M81.1221 120.798C81.4579 121.102 81.7624 121.439 82.0309 121.804C82.2426 122.212 82.3893 122.65 82.4659 123.102C82.6619 123.973 82.7835 124.86 82.8294 125.751C82.5079 124.919 82.2581 124.061 82.0829 123.187C82.0123 122.765 81.9059 122.35 81.7648 121.947C81.5765 121.583 81.3103 121.2 81.1221 120.798Z" fill="#F0997A"/>
<path d="M78.876 121.038C79.2646 121.344 79.5722 121.741 79.7719 122.194C79.9661 122.642 80.1204 123.107 80.2328 123.583C80.4622 124.521 80.5949 125.48 80.6288 126.446C80.3195 125.536 80.0594 124.611 79.8498 123.674C79.6876 122.743 79.3576 121.85 78.876 121.038Z" fill="#F0997A"/>
</g>
<defs>
<clipPath id="clip0_226_3898">
<rect width="300" height="300" fill="white"/>
</clipPath>
</defs>
</svg>
