<svg fill="none" height="300" viewBox="0 0 300 300" width="300" xmlns="http://www.w3.org/2000/svg" xmlns:xlink="http://www.w3.org/1999/xlink"><clipPath id="a"><path d="m0 0h300v300h-300z"/></clipPath><g clip-path="url(#a)"><path d="m43.937 141.04c-58.5827 33.822-58.5827 88.659 0 122.482 58.583 33.823 153.565 33.823 212.142 0 58.576-33.823 58.582-88.66 0-122.482-58.583-33.823-153.566-33.817-212.142 0z" fill="#f5f5f5"/><path d="m144.543 273.13c19.257 0 34.868-9.013 34.868-20.131s-15.611-20.132-34.868-20.132-34.868 9.014-34.868 20.132 15.611 20.131 34.868 20.131z" fill="#e0e0e0"/><path d="m253.515 240.722c19.257 0 34.868-9.013 34.868-20.131s-15.611-20.131-34.868-20.131-34.868 9.013-34.868 20.131 15.611 20.131 34.868 20.131z" fill="#e0e0e0"/><path d="m46.8591 240.722c19.257 0 34.8678-9.013 34.8678-20.131s-15.6108-20.131-34.8678-20.131-34.8679 9.013-34.8679 20.131 15.6109 20.131 34.8679 20.131z" fill="#e0e0e0"/><path d="m267.94 228.848c.221 2.207.604 3.72 1.468 4.979.863 1.26 2.415 1.61 3.953 1.163.866-.242 1.664-.68 2.333-1.28s1.19-1.346 1.523-2.181c.562-1.707.61-3.543.137-5.278z" fill="#263238"/><path d="m274.257 214.196c.357 1.467.532 2.467 1.019 4.486.76 3.116 1.565 4.44 2.026 7.037.526 2.967.22 4.408-.942 6.167-1.162 1.76-4.778 3.772-6.771 1.266-1.629-2.038-1.785-4.375-1.765-7.355-.022-2.523-.193-5.041-.513-7.544v-.045c-.078-.799-.208-2.37-.325-3.162-.253-1.746.935-1.947 1.402-2.187.645-.364 1.344-.618 2.071-.753.745-.101 1.501-.068 2.234.097.83.162 1.22.584 1.564 1.993z" fill="#37474f"/><path d="m224.873 219.591c-.135.358-.164.747-.086 1.122s.261.72.528.994c.889.701 3.479 1.811 6.842 1.299 3.363-.513 5.155-1.584 6.492-2.714s3.168-2.727 4.68-3.097c1.409-.344 3.246-1.116 3.701-1.558.454-.441.357-2.369.357-2.369z" fill="#263238"/><path d="m245.764 207.237c.156-.005.31.031.448.104.165.136.296.308.382.503.087.194.127.407.118.62.008.373.062.744.162 1.104.511 1.396.663 2.898.442 4.369-.234.954-2.779 1.817-4.239 2.402-1.711.779-3.295 1.81-4.701 3.057-2.053 1.545-4.488 2.503-7.043 2.772-3.35.15-5.551-.649-6.258-1.804-.877-1.416-.247-2.266 3.557-4.11.721-.35 3.246-1.889 4.103-2.447.916-.58 1.784-1.231 2.597-1.948.402-.366.783-.754 1.142-1.162.574-.592 1.195-1.137 1.857-1.629.444-.397.924-.751 1.435-1.058.844-.457 1.78-.719 2.739-.766.974-.065 1.902.129 2.876.032.104-.026.247-.039.383-.039z" fill="#37474f"/><path d="m273.861 213.424c-.747-6.434-.227-13.562-1.194-23.611-.156-2.597-.364-5.35-.65-7.791-.934-8.244-2.376-11.036-2.564-12.607 0 0-.084-16.23-1.383-34.309-.603-8.505-3.246-10.978-5.498-15.412l-25.319.993c-2.259 11.264-1.739 36.666-1.188 48.157.279 5.843 1.805 26.876 1.883 36.406 0 2.798-.539 3.805-1.532 4.921-2.084 2.344-4.765 4.012-7.316 5.843-.708 1.525 2.862 2.415 5.842.785 2.519-1.382 5.408-3.07 6.271-3.733 2.175-1.694 4.545-2.836 4.96-5.232.175-.974 4.752-23.371 4.837-28.22-.056-3.767-.303-7.528-.74-11.27l2.077-17.833s2.785 13.587 4.44 20.774c1.656 7.186 3.487 15.697 5.376 22.799 1.876 8.186 4.401 16.12 4.959 20.235.156.981 1.708 10.615 2.279 12.809s5.583 2.051 5.745-1.772c.111-2.565-1.142-10.725-1.285-11.932z" fill="#b16668"/><path d="m263.286 119.843c3.083 4.947 5.388 8.991 6.29 24.02.903 15.028.818 24.175.954 25.967.137 1.792 1.098 3.136 2.428 12.036 1.331 8.901.65 19.735.65 19.735s-.851 1.656-4.382 2.11c-3.246.416-4.928-.707-4.928-.707s-4.434-16.483-5.894-22.612c-1.279-5.342-5.824-26.201-5.824-26.201l-1.551 14.445s1.331 5.265.279 13.159-2.817 15.632-2.817 15.632c-1.656.445-3.363.663-5.077.649-2.014-.032-4.009-.4-5.901-1.09 0 0-1.675-22.722-2.032-31.616s-1.078-33.543 1.707-44.287z" fill="#455a64"/><path d="m267.323 169.941s-1.869-1.74-5.303-1.195c-3.435.546-4.772 2.558-4.772 2.558 3.635-1.759 10.075-1.363 10.075-1.363zm-8.069 1.947c2.051.305 4.09.396 8.511-.649-2.129-.415-8.511.63-8.511.63z" fill="#b16668"/><path d="m235.514 166.734c0 .312 0 .649.045.967 2.921-.306 5.865-.326 8.79-.058-1.272-.643-5.869-1.351-8.835-.909z" fill="#b16668"/><path d="m235.624 168.961c0 .292.032.59.052.902 2.222-.182 4.429-.523 6.602-1.019-2.999-.098-5.985.071-6.654.117z" fill="#b16668"/><path d="m269.622 172.947c-1.071-4.116-1.084-12.043-1.35-18.931-.078-2.077-.163-4.232-.279-6.492-.442-8.965-1.571-18.969-6.531-25.253l-.37.273c3.337 4.226 4.914 10.192 5.719 16.379-4.693-.403-5.895-4.811-7.537-10.868-.221-.831-.454-1.688-.701-2.596l-.448.116c.247.877.48 1.734.701 2.558 1.643 6.051 2.941 10.842 8.037 11.218.338 2.727.539 5.492.649 8.16.117 2.286.195 4.434.279 6.492.267 6.908.28 14.86 1.364 19.021l.389 1.468c1.428 5.323 3.097 14.197 2.766 28.272.175-.104.337-.208.474-.305.285-13.938-1.37-22.774-2.792-28.084z" fill="#37474f"/><path d="m252.58 154.191-3.616-16.963s-6.173-.175-9.737-3.486c.772 2.928 5.764 5.193 8.004 5.641l.688 2.987c-.045 1.603-.097 3.291-.149 5.024-.286 9.589-.494 19.476 0 21.709.98 4.324.72 8.485.156 14.139-.507 5.103-1.383 11.426-1.948 14.659l.461-.058c.552-3.207 1.298-8.842 1.993-14.575.695-5.732.902-9.737-.234-14.282-.538-2.155-.272-12.471 0-21.579.039-1.103.072-2.187.098-3.246l2.415 10.511.285 13.957z" fill="#37474f"/><path d="m204.936 95.3559c-.294-1.1287-.479-2.2831-.552-3.4472-.036-.6183-.036-1.2383 0-1.8566.046-.7985.208-.461.792-.7076.079-.0453.143-.1107.188-.1895.044-.0787.067-.168.065-.2585 0-.1818 0-.3635 0-.5453.022-.1325.078-.2572.162-.3618.084-.1047.194-.1858.319-.2355.138-.0377.271-.0922.396-.1623.24-.1947.162-.5842.292-.8699.095-.1702.251-.2983.436-.3585s.387-.0481.564.0339c.174.0879.327.2141.446.3692s.202.3352.242.5267c.015.0759.044.1484.084.2142.114.0954.261.1421.409.1299.224.0448.436.1384.62.2741.184.1358.336.3104.445.5114.584.9933.474 2.2462.733 3.3368.171.7471.496 1.4502.955 2.0644.071.0974.169.2013.285.1818.117-.0195.176-.1753.189-.2986.168-1.1945-.429-2.4539 0-3.59.15-.3873.37-.7437.649-1.0517.055-.0716.126-.1294.208-.1688.098-.0257.202-.014.292.0328s.159.1253.194.2204c.1.354.163.7173.189 1.0841.179.9053.435 1.7937.766 2.6552.302.7547.52 1.5407.649 2.3436.104.6492-.065 1.571.195 2.1812.073.1388.168.2657.279.3766.915 1.0192 5.843 5.1606 7.342 6.2906 1.071.805 2.149 1.61 3.246 2.396 0 0 4.038-5.019 6.317-7.557 5.278-5.8752 6.083-6.9918 10.653-6.5893l-4.103 14.4183s-4.343 4.129-8.939 8.18c-2.701 2.382-4.655 2.74-8.589-1.337-2.285-2.37-7.213-7.869-8.323-9.089s-2.304-1.824-3.421-2.785c-1.623-1.396-3.454-2.8694-4.181-4.9404-.24-.4479-.37-.9283-.493-1.4217z" fill="#b16668"/><path d="m243.037 92.0969c-2.953.0779-5.037-.0974-7.79 3.0187-2.064 2.3241-2.837 3.2979-2.837 3.2979-.24 2.1885.3 4.3905 1.526 6.2195.928 1.434 2.122 2.677 3.518 3.661l2.117-1.908z" fill="#263238"/><path d="m267.291 127.575c-1.812-5.576-3.655-8.232-3.35-10.835.467-4.005 2.097-9.05 2.213-11.822.403-9.8412-1.499-10.828-3.245-11.5811 0 0-3.149-.6816-4.876-1.0906-1.039-.2467-3.11-.5323-3.11-.5323-1.59-.0585-4.823 0-6.134.1233-.604.036-1.208.036-1.812 0l-4.031.2857c-2.244 1.9816-4.27 4.197-6.044 6.6087-3.071 4.1543-4.246 9.0883.195 12.8023 0 0 .214 3.895.175 5.615-.182 2.493-1.006 6.972-1.409 12.14 6.823 6.304 23.748 4.823 31.428-1.714z" fill="#263238"/><path d="m251.32 104.646-7.4-6.3882 5.635-29.577-10.939-9.4391-8.524 2.9667-3.947 20.7091-8.271-7.1346 29.811-48.0983-11.763-10.1468-8.524 2.9668-31.882 51.1365-2.181 11.4257 28.149 24.2922-3.259 17.113 10.939 9.446 8.523-2.974 1.578-8.244.565.487 8.524-2.967z" fill="#516eb4"/><path d="m251.32 104.646-7.4-6.3882 5.635-29.577-10.939-9.4391-8.524 2.9667-3.947 20.7091-8.271-7.1346 29.811-48.0983-11.763-10.1468-8.524 2.9668-31.882 51.1365-2.181 11.4257 28.149 24.2922-3.259 17.113 10.939 9.446 8.523-2.974 1.578-8.244.565.487 8.524-2.967z" fill="#000" opacity=".3"/><path d="m235.396 101.225 5.635-29.5709-10.939-9.4457-5.641 29.577-15.107-13.0357 29.817-48.0918-11.763-10.1533-31.882 51.1365-2.181 11.4257 28.149 24.2922-3.259 17.113 10.939 9.446 3.265-17.119 7.401 6.388 2.967-15.574z" fill="#516eb4"/><path d="m235.396 101.225 5.635-29.5709-10.939-9.4457-5.641 29.577-15.107-13.0357 29.817-48.0918-11.763-10.1533-31.882 51.1365-2.181 11.4257 28.149 24.2922-3.259 17.113 10.939 9.446 3.265-17.119 7.401 6.388 2.967-15.574z" fill="#fff" opacity=".3"/><path d="m227.398 20.5046 11.764 10.1533 8.524-2.9733-11.764-10.1468z" fill="#516eb4"/><path d="m227.398 20.5046 11.764 10.1533 8.524-2.9733-11.764-10.1468z" fill="#fff" opacity=".5"/><path d="m230.093 62.2085 8.524-2.9668 10.938 9.4392-8.523 2.9733z" fill="#516eb4"/><path d="m230.093 62.2085 8.524-2.9668 10.938 9.4392-8.523 2.9733z" fill="#fff" opacity=".5"/><path d="m235.396 101.224 8.524-2.9664 7.401 6.3884-8.524 2.966z" fill="#516eb4"/><path d="m235.396 101.224 8.524-2.9664 7.401 6.3884-8.524 2.966z" fill="#fff" opacity=".5"/><path d="m209.345 78.7497 8.53-2.9667 8.271 7.1345-1.695 8.8679z" fill="#516eb4"/><path d="m209.345 78.7497 8.53-2.9667 8.271 7.1345-1.695 8.8679z" fill="#fff" opacity=".5"/><path d="m262.318 80.3466c.683-.0171 1.336-.2878 1.831-.7595.746-.7271 1.077-1.8957 2.006-2.3761.649-.3375 1.447-.2402 2.162-.4349.55-.1602 1.038-.486 1.397-.9331.359-.4472.571-.9941.609-1.5663.051-1.188-.65-2.3435-.416-3.5056.26-.7012.579-1.3789.954-2.0255.267-.7123.283-1.4939.048-2.2169-.236-.723-.711-1.3445-1.346-1.7626-.591-.357-1.298-.5258-1.876-.8504-1.26-.6946-1.065-2.2008-2.116-3.1226-.456-.403-1.007-.6839-1.6-.8168-.594-.1328-1.212-.1131-1.796.0572-.805.2597-1.59.818-2.421.6492-.45-.1567-.876-.3752-1.266-.6492-.775-.3857-1.662-.4838-2.502-.277-.841.2069-1.581.7053-2.088 1.4066-.227.4815-.557.9071-.967 1.2465-.877.5193-1.013 1.1231-1.422 2.0514-.227.4553-.336.9607-.315 1.4692.02.5085.169 1.0035.432 1.4392.422.5907 1.123.9737 1.428 1.6294.578 1.2335-.5 2.5968-.649 3.9341-.253 2.7331 2.499 2.5253 3.726 4.0834.359.5357.684 1.0929.974 1.6684.682 1.1166 2.11.6492 3.246 1.0841.401.188.813.3506 1.233.4869.24.0645.486.0951.734.0909z" fill="#263238"/><path d="m259.182 64.5191c.708.4282 1.301 1.0233 1.726 1.7333.173.2719.233.5999.169.9154-.169.5453-.87.6946-1.441.7076-2.168.0649-4.635-.7725-5.427-3.0252-.981-2.8434 3.973-.9803 4.973-.3311z" fill="#516eb4"/><path d="m256.021 86.7994c-.384.0282-.768-.0388-1.119-.1951s-.658-.397-.894-.7007c-1.227-1.253-2.077-2.837-3.33-4.0704-1.519-1.4997-3.532-2.3761-5.505-3.207-.959-.4369-1.988-.7006-3.039-.7791-.463-.0906-.899-.2896-1.271-.5807-.373-.291-.671-.6659-.871-1.0942-.469-.8787-.576-1.9062-.299-2.8629.267-.8958.87-1.7008.929-2.6357.045-.6492-.195-1.2984-.214-1.9865-.008-.6264.174-1.2405.522-1.7618.347-.5213.844-.9255 1.425-1.1595 1.136-.4415 2.513-.2013 3.512-.8959.773-.5388 1.136-1.5321 1.948-2.045.42-.2464.891-.3951 1.376-.4349 1.6-.1801 3.212.2183 4.544 1.1231.503.4017 1.042.7559 1.61 1.0582.799.2309 1.616.3959 2.441.4934.789.1653 1.525.5217 2.145 1.0378.619.5161 1.102 1.1762 1.406 1.9224.338 1.0258.208 2.0969.507 3.1226.298 1.0257 1.051 1.9476 1.558 2.9603.606 1.2032.856 2.5546.72 3.8952-.028.518-.182 1.0215-.448 1.4671-.72 1.0906-2.369 1.3828-2.856 2.5968-.121.3775-.199.7672-.234 1.162-.193.9548-.698 1.8185-1.434 2.4563s-1.663 1.0136-2.636 1.0688c-.487.0065-.039-.0779-.493.0454z" fill="#263238"/><path d="m256.994 90.2463c.033-.9802.396-5.8816.396-5.8816 0 .37 1.76 1.4477 3.435-.3701 1.674-1.8177 1.571-4.5443.428-5.6868-1.753-1.7334-4.395-.3311-4.765 2.0514-1.396.7011-1.837-1.0192-.883-2.9408-.071-1.584-1.701-1.8437-1.493-5.2779-.143-1.7204-5.356-3.3823-9.933-2.5254-.96 1.9476-2.142 3.5706-1.947 6.07.065.8829-.649 1.9475-.779 3.116-.455 5.1935.909 7.6994 2.538 8.6537 1.091.6492 2.032.8959 3.993.9543l-.169 1.6295c-.072.818 0 1.558-.818 1.7852-.454 1.1716-.552 2.4512-.28 3.678.271 1.2268.899 2.3459 1.805 3.2164 5.343-1.149 9.576-5.609 9.965-6.3945-1.363-.4544-1.532-1.1036-1.493-2.0774z" fill="#b16668"/><path d="m242.933 74.7245 2.175-.3895c-.018-.1428-.065-.2804-.138-.4044s-.17-.2319-.286-.317c-.116-.085-.248-.1455-.389-.1778-.14-.0322-.285-.0355-.427-.0097-.292.0555-.552.2211-.726.4627s-.249.5407-.209.8357z" fill="#263238"/><path d="m250.977 74.1663 1.649 1.5191c-.094.1118-.21.2033-.34.2691s-.273.1044-.418.1135c-.146.0091-.292-.0115-.429-.0605-.138-.049-.264-.1255-.371-.2248-.218-.2072-.349-.4898-.366-.7902s.082-.5959.275-.8262z" fill="#263238"/><path d="m245.011 76.6201c-.005.2447-.105.4779-.278.651-.173.173-.406.2724-.651.2774-.119.0035-.238-.0172-.349-.0607-.112-.0435-.213-.1091-.299-.1927-.085-.0836-.153-.1837-.199-.294-.046-.1104-.069-.229-.068-.3485.005-.2447.104-.4779.277-.6509.173-.1731.407-.2725.651-.2774.12-.0035.239.0171.35.0606.112.0436.213.1091.298.1927.086.0837.154.1837.2.2941.045.1104.069.2289.068.3484z" fill="#263238"/><path d="m251.456 77.6651c-.005.2447-.104.4779-.277.651-.173.173-.407.2724-.651.2774-.12.0044-.239-.0156-.351-.0588s-.214-.1087-.299-.1925c-.086-.0839-.154-.1842-.199-.295-.046-.1109-.068-.2298-.067-.3496.007-.2452.108-.4785.282-.6514.174-.1728.408-.272.653-.2769.119-.0027.237.0186.348.0626.111.0439.211.1096.296.1931.085.0836.152.1833.197.2932.046.11.069.2279.068.3469z" fill="#263238"/><path d="m243.965 80.4242 2.739 1.1945 1.072-5.1351c-1.156-.0649-2.474 1.7528-3.811 3.9406z" fill="#9a4a4d"/><path d="m247.556 84.2673c.495 0 .896-.4011.896-.8958 0-.4948-.401-.8959-.896-.8959s-.896.4011-.896.8959c0 .4947.401.8958.896.8958z" fill="#9a4a4d"/><path d="m248.425 83.1509c.01.0732.01.1475 0 .2207-.002.1713-.053.3385-.148.4814-.094.1428-.228.2553-.385.3239s-.331.0903-.5.0626-.327-.1036-.454-.2187c.165-.2493.385-.4574.642-.6082.258-.1509.547-.2404.845-.2617z" fill="#f28f8f"/><path d="m247.958 88.4094c2.597 0 4.434-.4284 5.609-1.175.883-.5438 1.621-1.2947 2.149-2.1878-.333 1.1257-.969 2.1384-1.837 2.9279-2.422 1.8437-6.012 1.6879-6.012 1.6879z" fill="#9a4a4d"/><path d="m249.184 115.714s-.194 1.039-.207 1.221c-.039 1.948 1.129 3.285 2.953 4.07 3.985 1.559 8.066 2.86 12.218 3.896 6.206 1.661 9.368.597 10.504-.52 1.136-1.116 1.629-3.785.928-6.654-2.149-8.861-2.597-10.355-3.655-13.795-2.733-9.0304-4.291-9.1992-8.686-10.4457-2.454 2.7266-2.759 8.0757-1.298 12.8537 1.986 6.492 3.402 10.024 3.402 10.024-3.616-.376-7.211-.935-10.77-1.675-2.338-.487-1.675-3.895-1.675-3.895z" fill="#b16668"/><path d="m252.684 109.547c.338-1.798.267-2.188-.415-3.493-.682-1.304-.98-1.908-1.298-2.395-.597-.81-1.29-1.545-2.065-2.188-.701-.376-1.071 1.045-.5 1.993.572.948 1.422 2.13 1.422 2.13z" fill="#9a4a4d"/><path d="m251.223 117.694c-.162-.467 1.519-1.623 1.364-2.479-.156-.857-.312-.896.168-1.636.208-.254.335-.564.365-.89s-.038-.654-.196-.941c-.286-.416.649-.708.357-1.636-.461-1.118-1.042-2.183-1.733-3.175-.494-.694-2.513-1.752-3.434-2.181-.922-.428-1.123.351-1.097.941.119.511.375.98.74 1.357 0 0-1.072-.363-1.299 0-.266.455-.188 1.409.87 2.208-.876-.416-1.298-.072-1.194.649.193.696.625 1.303 1.22 1.714.877.746 1.948 1.584 2.097 2.499l-.286 1.629z" fill="#b16668"/><path d="m251.223 117.695c-.085-.202.045-.409.123-.585.078-.175.214-.337.325-.493.227-.291.431-.599.61-.922.074-.133.11-.283.104-.435l-.078-.571c-.045-.219-.017-.447.078-.649.098-.177.223-.336.37-.474-.075.176-.134.358-.175.545-.031.168-.013.342.052.5.058.182.103.37.149.565.034.236-.007.476-.117.688-.196.354-.445.676-.74.954l-.409.403c-.152.117-.256.285-.292.474z" fill="#9a4a4d"/><path d="m247.757 107.054c.513.208 1.026.416 1.525.65.516.227 1.009.501 1.474.818.4.405.75.856 1.045 1.343.29.478.55.972.779 1.481-.376-.409-.733-.831-1.077-1.26l-.52-.649c-.154-.205-.326-.396-.513-.571-.402-.299-.915-.565-1.369-.857-.469-.288-.918-.607-1.344-.955z" fill="#9a4a4d"/><path d="m251.736 113.468c-.331-.409-.597-.87-.876-1.298-.29-.402-.648-.749-1.058-1.026-.825-.649-1.669-1.214-2.454-1.947.958.423 1.866.952 2.707 1.577.449.308.821.717 1.084 1.195.231.486.43.987.597 1.499z" fill="#9a4a4d"/><path d="m265.342 116.331c2.409 0 4.584.299 6.35 2.162-1.396-2.934-4.233-2.941-6.687-3.051z" fill="#9a4a4d"/><path d="m262.902 93.311c3.973.9414 4.713 1.266 5.843 2.5968 1.129 1.3308 1.72 2.5967 3.116 7.0112-1.071 2.759-9.861 4.674-9.861 4.674-.547-1.608-.951-3.261-1.208-4.94-.337-2.396-.37-6.7517 2.11-9.342z" fill="#455a64"/><path d="m122.392 238.541c.396-5.784.597-8.485 1.149-18.827.052-2.648.149-5.479.325-7.998.597-8.478 1.687-10.497 2.415-13.405.727-2.909.649-10.77 1.746-29 .351-6.967 1.479-13.874 3.363-20.592h26.103c2.682 11.426 3.448 36.166 3.363 47.949-.039 5.999-.104 37.004.046 39.497.153 2.04 1.047 3.954 2.512 5.382 2.149 2.311 3.694 3.245 6.388 5.251-.389 1.033-6.037.994-7.647.208-2.331-1.17-4.582-2.493-6.739-3.96-2.22-1.636-2.733-2.629-2.772-5.122 0-.312 0-.766 0-.818-.039-1.454-4.239-23.189-5.155-28.097-.714-3.817.065-11.198.065-11.198l-2.765-18.177s-2.435 14.483-4.103 21.825c-1.22 5.395-4.252 13.919-6.239 22.547-2.317 8.77-2.506 9.543-3.895 15.82-.688 3.168-2.376 13.815-3.142 16.009-2.48 7.07-8.089 3.558-8.407-.35-.156-2.571 3.305-15.698 3.389-16.944z" fill="#ffa8a7"/><path d="m144.815 179.666 2.026-13.1s7.79-.929 10.66-3.655c0 0-3.584 5.057-8.888 5.881l-2.233 10.855 1.175 18.041z" fill="#af6152"/><path d="m175.781 249.74c.148.384.188.802.117 1.207-.07.406-.25.785-.519 1.097-.909.799-3.59 2.129-7.141 1.708-3.551-.422-5.505-1.507-6.94-2.682s-3.454-2.837-5.064-3.174c-1.499-.312-3.94-1.13-4.427-1.591s-.442-2.512-.442-2.512z" fill="#263238"/><path d="m152.605 236.574c-.14.07-.263.17-.36.292-.098.122-.168.264-.205.416-.104.565-.104 1.298-.324 2.22-.354 1.641-.455 3.327-.299 4.999.208 1.051 3.467 1.915 5.031 2.493 1.841.78 3.553 1.835 5.077 3.129 2.215 1.598 4.832 2.549 7.556 2.746 3.545 0 5.843-.974 6.492-2.253.864-1.584.163-2.486-3.927-4.33-.773-.351-3.493-1.948-4.421-2.493-.987-.596-1.921-1.275-2.792-2.032-.442-.381-.862-.786-1.259-1.214-.41-.379-.762-.817-1.045-1.298-.046-.11-.078-.234-.124-.344-.119-.309-.21-.629-.272-.955-.072-.337-.117-.83-.442-1.025-.46-.188-.964-.242-1.454-.156-.528.042-1.053.12-1.571.234-.597.143-2.097.045-2.448.61-.231.458-.341.968-.318 1.48v.714c0 .104.046.286-.097.247s-.292-.396-.344-.513c-.117-.266-.195-.552-.318-.811-.108-.319-.283-.611-.513-.857-.688-.559-1.337-.442-1.539-.65.026-.019-.052-.448-.084-.649z" fill="#37474f"/><path d="m172.334 246.565c-5.122.403-6.706 3.59-6.9 5.551 1.172.427 2.402.672 3.648.727 3.545 0 5.973-.974 6.667-2.253.812-1.493.227-2.687-3.415-4.025z" fill="#fafafa"/><path d="m164.648 246.695c-.056.001-.112-.017-.156-.052-.027-.02-.049-.045-.065-.074-.017-.028-.027-.06-.031-.093s0-.066.009-.098c.01-.032.026-.061.048-.086.59-.625 1.308-1.117 2.104-1.442.796-.324 1.653-.475 2.512-.44.06.013.113.049.149.099s.052.112.046.173c-.006.062-.035.119-.081.161-.045.042-.104.065-.166.066-.775-.022-1.547.117-2.265.408-.719.292-1.369.73-1.909 1.287-.025.028-.055.05-.088.066-.034.015-.07.024-.107.025z" fill="#f0f0f0"/><path d="m162.428 245.435c-.059 0-.116-.021-.162-.058-.051-.042-.083-.102-.091-.168-.007-.065.012-.131.052-.183.591-.624 1.308-1.115 2.104-1.439.797-.323 1.653-.472 2.512-.437.06.014.112.049.149.098.036.05.052.111.047.172-.006.061-.033.118-.078.16-.044.043-.102.067-.164.07-.775-.024-1.546.114-2.265.404-.718.291-1.369.728-1.909 1.284-.023.03-.052.054-.086.071s-.071.026-.109.026z" fill="#f0f0f0"/><path d="m160.396 243.988c-.057-.001-.112-.022-.156-.059-.026-.019-.049-.044-.065-.073-.017-.029-.027-.061-.031-.093-.004-.033 0-.067.009-.098.01-.032.027-.061.048-.086.591-.625 1.308-1.115 2.105-1.439.796-.324 1.652-.473 2.511-.437.066.006.127.038.169.089.043.051.064.117.058.183-.008.067-.042.128-.094.17s-.118.063-.185.058c-.775-.024-1.546.115-2.264.405-.719.291-1.369.727-1.91 1.282-.022.031-.052.056-.086.073s-.071.026-.109.025z" fill="#f0f0f0"/><path d="m158.344 242.54c-.056-.001-.11-.019-.155-.052-.027-.02-.049-.045-.066-.073-.016-.028-.027-.06-.031-.093-.004-.032-.002-.066.007-.097.009-.032.024-.062.044-.088.967-1.252 3.181-2.096 5.044-1.908.066.006.127.039.17.09.042.051.063.116.058.183-.004.032-.013.064-.029.092-.015.029-.036.054-.062.075-.025.02-.054.036-.086.045-.031.009-.064.012-.096.008-1.681-.162-3.739.611-4.603 1.721-.023.029-.053.053-.087.07-.033.017-.07.026-.108.027z" fill="#f0f0f0"/><path d="m128.222 256.68c-.402 2.382-.954 3.934-1.948 5.245-.993 1.311-2.661 1.578-4.245.987s-3.545-1.948-3.779-4.051c-.338-1.913-.247-3.878.267-5.752z" fill="#263238"/><path d="m122.393 238.541c-.65 0-.851 3.175-1.597 6.362-.799 3.415-1.448 4.726-2.136 7.524-.779 3.194-.403 4.7.513 6.784.915 2.084 4.726 4.454 7.017 1.864 1.87-2.104 2.214-4.636 2.428-7.888.211-2.722.661-5.42 1.344-8.063.571-2.597 1.188-4.927.649-5.265-.179.878-.409 1.745-.688 2.597-.084.169-.396.591-.422-.098 0-.201.104-.649.104-.863.012-.177-.031-.354-.124-.505-.093-.152-.231-.27-.395-.339-.846-.52-1.798-.842-2.785-.941-1.299-.15-2.441-.318-3.246 0-.461.175-.494.597-.591 1-.097.402-.149.779-.26.649-.201-.247.221-2.467.189-2.818z" fill="#37474f"/><path d="m118.269 254.284c-.314 1.72-.066 3.496.708 5.064.915 2.084 5.044 4.492 7.336 1.908 1.042-1.322 1.702-2.905 1.908-4.577-.934-2.298-7.874-4.031-9.952-2.395z" fill="#fafafa"/><path d="m127.15 252.992-.077-.032c-1.871-.983-3.975-1.432-6.083-1.299-.066.006-.132-.014-.184-.055s-.086-.1-.096-.165c-.003-.033 0-.066.009-.097s.024-.06.045-.086c.02-.025.046-.046.075-.062.028-.015.06-.025.092-.028 2.221-.166 4.443.302 6.408 1.35.055.036.094.092.108.156.015.065.004.132-.03.188-.026.047-.065.085-.113.108-.047.023-.101.031-.154.022z" fill="#f0f0f0"/><path d="m121.405 249.285c-.047-.009-.091-.033-.124-.068-.034-.035-.056-.079-.064-.126-.008-.032-.009-.066-.004-.098.006-.033.017-.064.035-.091.018-.028.04-.052.067-.071s.058-.032.09-.039c3.116-.682 6.284 1.214 6.401 1.298.028.017.053.04.072.067s.032.058.039.09c.006.032.006.065-.001.098-.006.032-.02.062-.039.089-.038.055-.096.093-.162.105-.065.012-.133-.002-.188-.04 0 0-3.11-1.856-6.012-1.214z" fill="#f0f0f0"/><path d="m121.762 247.026c-.045-.011-.087-.034-.12-.067-.034-.034-.057-.076-.068-.121-.008-.032-.009-.065-.003-.098.005-.032.017-.063.034-.091.018-.028.041-.052.068-.071s.057-.032.089-.039c3.435-.818 6.414 1.201 6.492 1.298.033.018.061.042.083.072.021.029.037.063.044.099.008.035.008.073 0 .108-.009.036-.024.07-.047.099-.022.029-.051.052-.083.069-.033.017-.068.027-.105.029s-.073-.004-.107-.018-.065-.035-.09-.062c0 0-2.908-1.947-6.109-1.194z" fill="#f0f0f0"/><path d="m122.178 244.793c-.046-.008-.088-.03-.122-.062-.034-.033-.057-.074-.066-.12-.016-.065-.006-.133.028-.19s.089-.098.153-.115c3.246-.812 6.44 1.298 6.564 1.363.043.043.069.1.074.161.004.061-.013.121-.049.17-.037.049-.089.083-.149.096-.059.013-.121.005-.175-.024 0 0-3.148-2.039-6.141-1.299-.037.016-.077.023-.117.02z" fill="#ebebeb"/><path d="m129.02 148.732c-.649 6.966-.993 8.881-2.058 24.754-1.032 15.392-.435 20.079-.584 21.936-.35 4.252-2.233 5.719-2.785 15.756-.506 9.192-.805 20.54-.805 20.54s1.234 1.701 4.739 2.013c3.246.292 4.85-.922 4.85-.922s5.992-21.423 7.66-26.838c2.272-7.323 4.772-22.617 4.772-22.617l2.116 14.717c-.368 4.578-.137 9.185.688 13.704 1.694 8.251 3.421 17.223 3.421 17.223 1.557.566 3.221.772 4.869.604 3.785-.383 5.044-1.26 5.044-1.26s1.065-24.935 1.065-34.037c0-9.101-.351-31.466-1.13-45.638z" fill="#455a64"/><g fill="#37474f"><path d="m144.815 183.354 2.597-15.931s5.272-1.39 8.654-4.934c-.253 2.642-4.94 6.024-7.141 6.55l-2.935 14.12.903 14.931z"/><path d="m138.687 151.199c-.796 1.321-1.449 2.723-1.948 4.181-.516 1.453-.949 2.933-1.298 4.434-.355 1.5-.632 3.016-.831 4.544-.225 1.526-.327 3.068-.305 4.61.363-1.5.707-2.987 1.045-4.473.337-1.487.649-2.973 1.032-4.454.383-1.48.714-2.953 1.097-4.427s.753-2.941 1.208-4.415z"/><path d="m136.674 151.758c-.763.714-1.461 1.496-2.084 2.337-.622.825-1.186 1.693-1.688 2.596-.507.919-.941 1.876-1.298 2.863-.364.985-.602 2.013-.708 3.058l1.403-2.759c.474-.902.941-1.805 1.441-2.694.5-.89.987-1.785 1.474-2.688.486-.902 1.006-1.766 1.46-2.713z"/><path d="m140.024 170.182c-.649 4.778-1.259 9.556-1.863 14.334s-1.084 12.477-1.948 17.19c-.863 4.713-6.453 23.196-7.18 27.961 1.097-4.694 7.206-23.04 8.135-27.786.928-4.745 1.298-12.483 1.752-17.281.455-4.797.812-9.601 1.104-14.418z"/><path d="m157.15 170.182.805 12.574c.117 2.097.247 4.188.344 6.278.098 2.09.221 4.187.189 6.252-.033 2.064-.176 22.137.11 26.331.487-4.674.714-22.073.857-26.312 0-4.246-.37-8.439-.747-12.607-.376-4.168-.908-8.381-1.558-12.516z"/><path d="m150.657 226.979.708 4.363s1.753 1.116 5.421.74c3.667-.377 4.2-1.565 4.2-1.565v-4.109s-.883.85-4.233 1.233c-2.056.218-4.135-.008-6.096-.662z"/><path d="m122.865 228.673-.331 4.408s1.441 1.493 5.103 1.98c3.661.487 4.447-.538 4.447-.538l.954-3.999s-1.052.649-4.401.214c-2.05-.269-4.017-.972-5.772-2.065z"/></g><path d="m154.702 114.124c3.402.416 6.972 2.512 13.166 5.934l6.628 3.668s5.557-10.608 7.595-14.049c2.961-4.979 5.317.766 4.545 2.824-1.442 3.85-1.915 8.31-4.317 16.658-1.24 4.311-2.104 6.168-7.499 4.395-4.446-1.454-15.651-5.583-15.651-5.583z" fill="#ffa8a7"/><path d="m188.869 102.718c.318-2.084-1.299-4.3952-1.299-4.3952v3.1292z" fill="#f28f8f"/><path d="m154.475 113.669c3.492.455 5.141 1.052 7.446 2.461 2.304 1.409 10.757 6.206 10.757 6.206.428 1.728.521 3.522.272 5.284-.069.933-.344 1.838-.806 2.65-.461.813-1.097 1.513-1.862 2.051l-12.243-4.097z" fill="#263238"/><path d="m129.02 116.708s-2.675 5.42-1 15.36c.766 4.544 1.331 8.075 1 14.113-.286 5.115-1.298 14.438-1.298 14.438 5.258 4.473 28.337 4.687 33.725-2.026 0 0-.299-11.036-.299-19.715 0-6.492-.363-11.926-1.103-14.99-1.662-6.921-4.142-9.167-5.544-10.218-3.783-.314-7.587-.24-11.355.22-4.182.504-8.331 1.251-12.425 2.24-.596.096-1.171.291-1.701.578z" fill="#37474f"/><path d="m129.02 116.708c-4.544 1.577-5.395 3.648-8.641 9.237-3.034 5.378-5.639 10.987-7.79 16.775-1.259 3.603.695 7.473 2.396 8.167 1.337.546 2.434 1.091 4.083-.175 1.386-1.138 2.597-2.472 3.596-3.96 3.246-5.064 8.271-13.834 8.271-13.834s3.493-11.835-1.915-16.21z" fill="#ffa8a7"/><path d="m120.145 146.454c.844-4.318.117-5.843-.246-8.524-.364-2.681-.792-6.791-1.052-9.264-1.227 2.311-2.409 4.771-3.441 7.056z" fill="#f28f8f"/><path d="m115.77 134.281c.272 1.357 3.583 8.226 9.03 9.42l6.803-11.036s2.688-7.031-.909-16.509c-4.083.766-5.842 1.642-8.335 5.615-2.493 3.974-6.589 12.51-6.589 12.51z" fill="#263238"/><path d="m112.356 131.074c0 .812.117 1.39 0 4.09-.117 2.701-.24 3.097-.448 5.953-.221 3.155-.792 5.194 1.227 8.401s4.408 2.545 6.453.74c1.012-3.136.714-8.147-.546-11.783-.754-2.159-1.255-4.399-1.493-6.673z" fill="#ffa8a7"/><path d="m109.629 123.518c-.164-.134-.364-.215-.574-.235s-.422.024-.608.125c-.298.233.111 1.025.65 2.09.37.701 1.162 3.246 1.947 4.298.785.91 1.259 2.047 1.351 3.246.347-1.693.277-3.445-.205-5.104-.482-1.66-1.361-3.177-2.561-4.42z" fill="#f28f8f"/><path d="m137.499 109.813c-2.227-3.187-4.246-5.193-5.882-8.751-.649-1.4408-1.746-4.7971-1.104-6.8291.448-1.4217 1.208-2.5967 2.688-2.7201-.206-.6967-.222-1.4356-.047-2.1407.174-.7051.533-1.351 1.04-1.8713.374-.4377.863-.7617 1.411-.935.549-.1733 1.135-.189 1.692-.0452.017-.4954.174-.9758.452-1.3859.279-.4102.667-.7333 1.121-.9321s.955-.2653 1.445-.1917.95.2842 1.325.6076c.214-.511.575-.9465 1.038-1.2507.462-.3042 1.006-.4633 1.559-.4567.583-.0041 1.155.1603 1.647.4736s.883.762 1.125 1.2922c2.058-1.8567 5.512-.6492 5.635 2.9473.233-.211.524-.348.835-.3938.312-.0458.629.0018.913.1366.285.1348.522.3508.684.6207.161.27.239.5818.223.8959-.096.3993-.135.8102-.116 1.2205.04.1756.129.3363.256.4637.128.1274.288.2164.464.2569.178.033.361.0158.53-.0495.168-.0654.315-.1764.424-.3206.105.3143.13.6498.072.976-.059.3261-.198.6324-.405.8908-.208.2584-.477.4606-.782.5881-.306.1276-.639.1764-.968.1419.082.2758.085.5695.007.8466-.078.2772-.234.5262-.449.7179-.355.2689-.797.3962-1.24.3571z" fill="#263238"/><path d="m153.904 104.912c-.292 2.733-1.35 4.116-3.103 4.94-.945.38-1.936.631-2.947.747l.259 2.921c5.947 5.843-6.959 6.622-10.017 1.331l-1.071-8.848s-1.006 1.467-3.077.454c-.848-.477-1.506-1.233-1.861-2.139-.354-.906-.385-1.907-.087-2.834.702-2.1291 2.597-2.259 3.642-1.428 1.162.928 1.182 1.915 1.688 1.818.294-.031.57-.153.789-.351.219-.197.37-.458.432-.746.233-.9093.195-1.8051 0-3.7267.725-.4645 1.317-1.1085 1.72-1.8697.222-.664.288-1.3704.193-2.0641-.096-.6937-.351-1.3559-.745-1.9349 2.071-1.0452 4.545.9868 6.908 1.0322 2.674.052 2.674-2.2007 4.135-2.1748 1.298.9089 2.071 3.2849 2.181 4.856.221 3.0706 1.539 4.6027.961 10.017z" fill="#ffa8a7"/><path d="m147.847 110.599c-3.149.175-6.492-.461-7.791-1.5-1.298-1.038-2.051-3.382-2.051-3.382s.545 3.019 1.584 4.252c1.039 1.234 3.311 1.545 4.694 1.714 1.382.169 3.674.143 3.674.143z" fill="#f28f8f"/><path d="m151.729 95.817-2.156-.6492c.037-.1423.103-.2755.193-.3916.091-.116.204-.2125.332-.2836.129-.071.271-.1151.417-.1296.147-.0146.294.0009.435.0453.282.0941.52.2913.664.5523s.185.5667.115.8564z" fill="#263238"/><path d="m141.862 97.109 1.804-1.4088c-.086-.1208-.197-.223-.324-.3005s-.268-.1286-.415-.1504-.297-.0138-.441.0235-.279.1032-.397.1937c-.239.194-.396.4715-.438.7764-.042.305.033.6145.211.8661z" fill="#263238"/><path d="m149.782 97.8422c.025.2497.145.4801.337.6424.191.1623.438.2439.688.2275.122-.0065.241-.0374.35-.091.109-.0537.207-.1288.286-.221.08-.0922.14-.1995.177-.3154.036-.116.049-.2382.038-.3594-.025-.2485-.145-.4778-.335-.64-.19-.1621-.435-.2445-.684-.2299-.122.0065-.241.0375-.351.091-.109.0536-.207.1286-.287.2207-.08.092-.141.1993-.178.3153-.038.1159-.052.2383-.041.3598z" fill="#263238"/><path d="m142.751 98.7126c.024.2497.145.4801.336.6424.192.1623.439.2439.689.2275.122-.0073.242-.039.351-.0933.11-.0542.207-.1299.287-.2224.08-.0926.141-.2003.178-.3166.038-.1164.052-.2391.041-.3609-.028-.2479-.15-.4757-.34-.6364-.191-.1606-.437-.2419-.686-.227-.121.0065-.241.0374-.35.0909-.11.0536-.207.1286-.287.2207s-.141.1993-.179.3153c-.037.116-.051.2383-.04.3598z" fill="#263238"/><path d="m150.658 101.608-2.986 1.298-1.214-5.8427c1.084-.3116 2.98 2.5384 4.2 4.5447z" fill="#f28f8f"/><path d="m147.262 104.854c-.147-.222-.338-.412-.561-.557-.224-.145-.474-.243-.737-.287-.279-.064-.565-.086-.851-.065-.3.001-.597.074-.863.214-.13.078 0 .292.13.286.511-.068 1.028-.068 1.538 0 .258.052.509.135.747.246.195.085.357.215.552.305.052-.019.065-.142.045-.142z" fill="#b16668"/><path d="m187.59 97.5116c.197-5.5763-.731-11.1352-2.729-16.3451s-5.025-9.9639-8.9-13.9786c-3.875-4.0146-8.519-7.2076-13.655-9.3883-5.136-2.1808-10.659-3.3047-16.238-3.3047-5.58 0-11.103 1.1239-16.239 3.3047-5.136 2.1807-9.78 5.3737-13.655 9.3883-3.875 4.0147-6.902 8.7687-8.9 13.9786s-2.926 10.7688-2.728 16.3451v6.0894c-.198 5.576.73 11.135 2.728 16.345s5.025 9.964 8.9 13.979c3.875 4.014 8.519 7.207 13.655 9.388s10.659 3.305 16.239 3.305c5.579 0 11.102-1.124 16.238-3.305s9.78-5.374 13.655-9.388c3.875-4.015 6.902-8.769 8.9-13.979s2.926-10.769 2.729-16.345zm-41.548 25.5394c-6.24-.011-12.259-2.305-16.923-6.449s-7.651-9.851-8.396-16.046c.744-6.2019 3.735-11.9164 8.408-16.062 4.673-4.1457 10.703-6.4351 16.95-6.4351 6.246 0 12.276 2.2894 16.949 6.4351 4.673 4.1456 7.664 9.8601 8.408 16.062-.751 6.201-3.748 11.912-8.424 16.053-4.676 4.142-10.707 6.426-16.953 6.422z" fill="#516eb4"/><path d="m187.59 97.5116c.197-5.5763-.731-11.1352-2.729-16.3451s-5.025-9.9639-8.9-13.9786c-3.875-4.0146-8.519-7.2076-13.655-9.3883-5.136-2.1808-10.659-3.3047-16.238-3.3047-5.58 0-11.103 1.1239-16.239 3.3047-5.136 2.1807-9.78 5.3737-13.655 9.3883-3.875 4.0147-6.902 8.7687-8.9 13.9786s-2.926 10.7688-2.728 16.3451v6.0894c-.198 5.576.73 11.135 2.728 16.345s5.025 9.964 8.9 13.979c3.875 4.014 8.519 7.207 13.655 9.388s10.659 3.305 16.239 3.305c5.579 0 11.102-1.124 16.238-3.305s9.78-5.374 13.655-9.388c3.875-4.015 6.902-8.769 8.9-13.979s2.926-10.769 2.729-16.345zm-41.548 25.5394c-6.24-.011-12.259-2.305-16.923-6.449s-7.651-9.851-8.396-16.046c.744-6.2019 3.735-11.9164 8.408-16.062 4.673-4.1457 10.703-6.4351 16.95-6.4351 6.246 0 12.276 2.2894 16.949 6.4351 4.673 4.1456 7.664 9.8601 8.408 16.062-.751 6.201-3.748 11.912-8.424 16.053-4.676 4.142-10.707 6.426-16.953 6.422z" fill="#fff" opacity=".5"/><path d="m146.061 62.0725c-8.218 0-16.251 2.4368-23.083 7.0021-6.833 4.5654-12.158 11.0543-15.303 18.6462-3.144 7.5919-3.967 15.9462-2.364 24.0052 1.603 8.06 5.56 15.463 11.371 21.273 5.81 5.811 13.214 9.768 21.273 11.371 8.06 1.603 16.414.781 24.005-2.364 7.592-3.145 14.081-8.47 18.647-15.303 4.565-6.832 7.002-14.865 7.002-23.082 0-11.0197-4.378-21.5876-12.169-29.3794-7.792-7.7917-18.36-12.1691-29.379-12.1691zm0 67.0675c-5.053-.001-9.991-1.501-14.192-4.309-4.2-2.808-7.473-6.798-9.405-11.467-1.933-4.668-2.437-9.804-1.45-14.7595.987-4.9551 3.421-9.5063 6.994-13.078 3.574-3.5717 8.126-6.0035 13.082-6.9879 4.955-.9844 10.092-.4772 14.759 1.4574 4.667 1.9347 8.656 5.21 11.462 9.4116 2.806 4.2017 4.303 9.141 4.302 14.1934 0 3.355-.661 6.677-1.946 9.776-1.284 3.1-3.166 5.916-5.539 8.287-2.373 2.372-5.19 4.253-8.29 5.536-3.1 1.282-6.422 1.942-9.777 1.94z" fill="#516eb4"/><path d="m146.061 62.0725c-8.218 0-16.251 2.4368-23.083 7.0021-6.833 4.5654-12.158 11.0543-15.303 18.6462-3.144 7.5919-3.967 15.9462-2.364 24.0052 1.603 8.06 5.56 15.463 11.371 21.273 5.81 5.811 13.214 9.768 21.273 11.371 8.06 1.603 16.414.781 24.005-2.364 7.592-3.145 14.081-8.47 18.647-15.303 4.565-6.832 7.002-14.865 7.002-23.082 0-11.0197-4.378-21.5876-12.169-29.3794-7.792-7.7917-18.36-12.1691-29.379-12.1691zm0 67.0675c-5.053-.001-9.991-1.501-14.192-4.309-4.2-2.808-7.473-6.798-9.405-11.467-1.933-4.668-2.437-9.804-1.45-14.7595.987-4.9551 3.421-9.5063 6.994-13.078 3.574-3.5717 8.126-6.0035 13.082-6.9879 4.955-.9844 10.092-.4772 14.759 1.4574 4.667 1.9347 8.656 5.21 11.462 9.4116 2.806 4.2017 4.303 9.141 4.302 14.1934 0 3.355-.661 6.677-1.946 9.776-1.284 3.1-3.166 5.916-5.539 8.287-2.373 2.372-5.19 4.253-8.29 5.536-3.1 1.282-6.422 1.942-9.777 1.94z" fill="#fff" opacity=".3"/><path d="m146.068 123.031c-6.234-.007-12.25-2.294-16.914-6.431-4.664-4.136-7.653-9.836-8.405-16.024-.127.997-.192 2-.194 3.005-.042 3.506.639 6.983 1.999 10.215 1.361 3.231 3.372 6.148 5.909 8.568 2.536 2.421 5.544 4.293 8.835 5.501 3.292 1.208 6.797 1.725 10.297 1.52 3.5-.206 6.921-1.13 10.048-2.714 3.128-1.585 5.896-3.796 8.132-6.497 2.236-2.7 3.892-5.832 4.865-9.201.973-3.368 1.243-6.901.791-10.378-.758 6.192-3.756 11.893-8.429 16.026-4.672 4.133-10.696 6.413-16.934 6.41z" fill="#516eb4"/><path d="m146.068 123.031c-6.234-.007-12.25-2.294-16.914-6.431-4.664-4.136-7.653-9.836-8.405-16.024-.127.997-.192 2-.194 3.005-.042 3.506.639 6.983 1.999 10.215 1.361 3.231 3.372 6.148 5.909 8.568 2.536 2.421 5.544 4.293 8.835 5.501 3.292 1.208 6.797 1.725 10.297 1.52 3.5-.206 6.921-1.13 10.048-2.714 3.128-1.585 5.896-3.796 8.132-6.497 2.236-2.7 3.892-5.832 4.865-9.201.973-3.368 1.243-6.901.791-10.378-.758 6.192-3.756 11.893-8.429 16.026-4.672 4.133-10.696 6.413-16.934 6.41z" fill="#000" opacity=".3"/><path d="m189.368 104.01c.61-1.168.519-1.298.032-1.779-.371-.385-.828-.677-1.333-.851-.506-.174-1.046-.225-1.575-.148-.8.063-1.582.265-2.311.597-.442.311.11 1.266 1.356 1.363 1.948.149 2.032.649 2.032.649-.839-.071-1.682-.099-2.525-.084-.931.205-1.844.48-2.733.824-.792.247-.799 1.299.617 1.468l-1.442.447c-1.006.312-1.298.916-.376 1.435.294.18.638.257.98.221 0 0-1.097.156-1.064.526.084 1.058.798 1.233 3.116 1.558 1.947.279 2.694.954 2.596 1.746l-.097.494s.779-.65 1.467-1.26c.5-.461.909-.961.532-1.792 0 0 1.214-.155 1.182-.909-.06-.552-.237-1.086-.519-1.564.198-.155.349-.363.435-.599s.104-.492.052-.738c-.069-.48-.298-.921-.65-1.253z" fill="#ffa8a7"/><path d="m182.928 106.074c.421-.153.856-.266 1.298-.337.462.003.919.08 1.357.227.862.234 1.702.54 2.512.915-.878-.105-1.747-.283-2.596-.532-.405-.142-.822-.242-1.247-.299-.415-.013-.876.046-1.324.026z" fill="#f28f8f"/><path d="m182.09 108.178c.453-.207.951-.294 1.448-.253.486.032.969.11 1.441.233.937.234 1.847.567 2.713.994-.946-.156-1.885-.36-2.811-.611-.899-.294-1.846-.418-2.791-.363z" fill="#f28f8f"/><path d="m110.576 128.712c-1.168-.585-1.175-.747-1.064-1.422.073-.529.271-1.033.578-1.47.308-.437.714-.794 1.187-1.042.683-.421 1.435-.718 2.221-.877.545 0 .649 1.084-.299 1.902-1.506 1.299-1.136 1.604-1.136 1.604s1.298-1.045 1.883-1.415c.875-.383 1.777-.697 2.7-.942.779-.266 1.415.591.364 1.552l1.428-.487c1-.338 1.571 0 1.149.941-.127.316-.356.581-.649.753 0 0 .98-.519 1.175-.201.552.909.071 1.474-1.61 3.097-1.428 1.382-1.617 2.35-1.078 2.934l.37.357s-.999-.058-1.947-.169c-.649-.078-1.299-.246-1.493-1.136-.295.068-.602.067-.896-.004s-.567-.21-.799-.405c-.415-.376-.285-1.207-.285-1.207-.261-.026-.511-.119-.725-.271-.214-.151-.385-.355-.496-.593-.225-.393-.292-.857-.188-1.298z" fill="#ffa8a7"/><path d="m117.01 126.602c-.438.125-.862.292-1.266.5-.37.276-.696.607-.968.98-.561.695-1.061 1.438-1.493 2.22.652-.6 1.256-1.251 1.805-1.947.246-.35.524-.676.831-.974.331-.273.74-.5 1.091-.779z" fill="#f28f8f"/><path d="m118.918 127.81c-.479.107-.925.33-1.298.649-.373.315-.716.662-1.026 1.038-.622.739-1.164 1.542-1.616 2.396.685-.678 1.335-1.391 1.947-2.136.538-.767 1.214-1.427 1.993-1.947z" fill="#f28f8f"/><path d="m53.583 206.913-1.0322-9.16 10.4649-.942s-.4415 7.063-.3765 10.296c0 1.526 1.1036 4.402 1.1036 4.402s-4.3626 2.259-6.6282 1.337c-2.2657-.922-3.7653-4.499-3.7134-5.154.052-.656.1818-.779.1818-.779z" fill="#ffbda7"/><path d="m75.7983 221.318c.1428 0 .2532 1.331-.5388 1.98-2.1456 1.454-4.7605 2.045-7.3228 1.656-3.4927-.507-5.3688-1.604-6.7451-2.785-1.3763-1.182-3.3109-2.837-4.8884-3.214-1.4162-.409-2.7392-1.091-3.8951-2.006-.4609-.454-.3571-2.447-.3571-2.447z" fill="#263238"/><path d="m53.5834 206.893c-.129.004-.2527.051-.3508.135-.098.084-.1644.199-.188.326-.1169.545-.2662 2.136-.5129 3.031-.392 1.579-.5387 3.208-.4349 4.83.1752 1.026 2.9473 2.299 4.4664 2.902 1.7863.803 3.4409 1.871 4.9078 3.168 1.6165 1.364 5.0507 2.818 7.3358 2.837 2.7007 0 5.7518-.779 6.4919-1.999.8894-1.513 1.5516-3.246-2.415-5.194-.753-.357-3.3887-1.947-4.2846-2.532-2.4215-1.564-4.1223-2.992-5.1935-5.699-.0877-.336-.2869-.631-.5648-.838-.2435-.104-.5131-.131-.7725-.078-1.3302.117-2.6496.334-3.9471.649-.5453.241-1.2984.526-1.2984 1.201.0096.235.0556.468.1364.689.0454.142.0779.324-.0455.409-.1233.084-.2726 0-.37-.111-.3894-.401-.7434-.836-1.0582-1.298-.3089-.412-.645-.802-1.0062-1.169-.2359-.135-.4636-.285-.6817-.448-.2726-.194-.2077-.493-.2142-.811z" fill="#455a64"/><path d="m61.4717 221.286c-.6881-.578-1.4217-1.137-2.1553-1.643 0 0 4.6547 2.895 6.5828 1.649 1.2399-.798.6492-1.811.6492-2.129s4.343-2.506 5.5375-2.597c.3311.182.5973.344.779.415 3.1032 1.299 3.4862 2.876 2.9279 4.863-.7206 1.22-3.4537 2.447-6.9398 2.389-2.2852-.065-5.7648-1.584-7.3813-2.947z" fill="#37474f"/><path d="m66.2622 218.221c2.4734 1.026 1.4023 1.461.7011 1.552-.7011.091-4.8429-2.396-7.3617-4.434-2.5968-2.123-4.6482-4.947-5.622-5.726-.3635-.285-.7596-.649-1.1036-.974.0779-.538.1363-1.032.1947-1.298.0237-.127.0901-.242.1881-.326.098-.083.2218-.131.3508-.135 0 .318-.0585.617.1752.857.2182.163.4458.312.6817.448.3612.367.6973.757 1.0062 1.169.3148.462.6688.896 1.0582 1.298 2.0969 2.765 7.2384 6.544 9.7313 7.569z" fill="#37474f"/><path d="m66.7684 219.41c-.0566-.004-.1108-.024-.1558-.059-.023-.022-.0412-.049-.0537-.079-.0124-.029-.0189-.061-.0189-.093s.0065-.064.0189-.093c.0125-.03.0307-.057.0537-.079.7141-.837 4.0834-2.785 5.9076-2.558.0322.003.0635.013.0919.029.0284.015.0534.036.0734.062.02.025.0346.055.0431.086.0084.031.0104.064.0058.096-.0031.032-.0127.063-.0284.091-.0156.028-.0369.053-.0625.072-.0256.02-.055.034-.0862.041-.0313.008-.0638.009-.0955.004-1.7074-.208-4.9079 1.726-5.4727 2.389-.0271.031-.0612.055-.0996.071-.0383.016-.0798.023-.1211.02z" fill="#263238"/><path d="m64.619 218.053c-.0552-.001-.1083-.022-.1493-.059-.0444-.045-.0693-.105-.0693-.169 0-.063.0249-.123.0693-.168.7206-.838 4.0834-2.785 5.9141-2.558.0316.003.0623.013.0902.028s.0526.035.0725.06.0347.053.0436.084c.0088.03.0115.062.0079.094-.004.033-.0144.064-.0307.092-.0162.029-.038.054-.0639.074-.026.02-.0557.034-.0874.043-.0317.008-.0647.01-.0971.005-1.7074-.207-4.9014 1.727-5.4727 2.389-.0278.032-.0631.057-.1028.071-.0397.015-.0825.02-.1244.014z" fill="#263238"/><path d="m62.4713 216.768c-.0539-.002-.1061-.02-.1493-.052-.0494-.042-.0805-.102-.0865-.166-.0061-.064.0133-.128.0541-.179.7206-.837 4.0833-2.791 5.9141-2.557.0322.003.0634.013.0918.028.0284.016.0534.037.0734.062.02.026.0347.055.0431.086.0084.032.0104.064.0059.096-.0096.065-.0444.123-.0967.162s-.1179.055-.1825.046c-1.7073-.208-4.9013 1.727-5.4726 2.389-.0235.029-.0534.051-.0873.066-.0338.014-.0707.021-.1075.019z" fill="#263238"/><path d="m60.4905 215.313c-.0573 0-.1128-.02-.1558-.058-.0494-.042-.0805-.101-.0865-.166-.0061-.064.0133-.128.0541-.178.7206-.831 4.0963-2.785 5.9141-2.552.0319.003.063.012.0914.026.0284.015.0534.036.0735.061s.0348.054.0433.085c.0085.03.0105.063.006.095-.0081.064-.0413.123-.0924.163-.051.04-.1158.058-.1803.051-1.7073-.214-4.9078 1.727-5.4791 2.389-.0228.027-.0517.049-.0843.064-.0327.014-.0682.021-.104.02z" fill="#263238"/><path d="m58.5434 213.852c-.054-.001-.1062-.019-.1494-.052-.0256-.019-.0471-.044-.063-.072s-.026-.059-.0297-.091c-.0036-.032-.0007-.065.0085-.096.0093-.031.0247-.06.0453-.085.9932-1.181 4.5054-2.798 6.3361-2.596.0322.003.0635.012.0919.028s.0533.037.0733.062c.02.026.0347.055.0431.086.0084.032.0104.064.0059.096-.0096.065-.0444.123-.0967.162s-.1179.055-.1825.046c-1.6424-.208-5.0117 1.35-5.8881 2.402-.0206.033-.0493.061-.0833.08s-.0723.03-.1114.03z" fill="#263238"/><path d="m36.3017 211.21 2.4799-10.997-10.8219-1.694-.2013 10.854s-.8309 2.921-.2142 3.928c.6167 1.006 7.1411 2.057 7.7253 1.389.5843-.669 1.0322-3.48 1.0322-3.48z" fill="#ffbda7"/><path d="m35.2185 228.537c-.2856 2.467-.805 4.064-1.8696 5.394-1.0647 1.331-2.9668 1.565-4.8495.909-1.8826-.655-4.2651-2.103-4.7066-4.31-.3955-1.967-.2951-4.002.2922-5.921z" fill="#263238"/><path d="m27.7587 209.373c-.7855-.039-.5713 1.902-.9413 5.226-.4025 3.603-2.0255 6.42-2.5967 9.303-.6492 3.298-.5324 4.823.6946 7.011 1.2269 2.188 5.8427 4.758 8.2901 2.136 1.9995-2.136 2.2072-4.752 2.2008-8.128-.0807-2.852.0017-5.707.2466-8.55.2727-2.493 1.2984-4.797.6492-5.161-.0714.364-.74 2.889-1.1815 2.85-.0197-.316-.0067-.634.039-.948.0299-.144.0297-.293-.0004-.437-.0302-.144-.0897-.28-.1749-.4-.3737-.3-.8044-.521-1.2659-.649-.7661-.234-2.1294-.52-2.9084-.65-.3895-.078-.7855-.142-1.175-.188-.3315-.049-.6683-.049-.9998 0-.09.015-.1758.049-.2518.099-.0761.05-.1407.116-.1896.193-.0457.12-.0656.249-.0585.377-.0154.221-.059.439-.1298.649-.0389.097-.1168.208-.2337.175-.0389-.021-.0707-.053-.0915-.093-.0207-.039-.0296-.083-.0253-.127.0194-.403.0779-2.474.1038-2.688z" fill="#455a64"/><path d="m24.4419 223.006c-.1039.474-.7206 3.622.2337 4.317s1.7463-1.688 1.7463-1.688 2.5318-.376 6.1088 1.48c-.2142.5.2662 2.285 1.2984 2.045s1.584-3.895 1.5905-3.895c0 3.246-.2597 5.758-2.2007 7.836-2.4604 2.596-7.0632.058-8.2901-2.136-1.227-2.194-1.3569-3.713-.6947-7.011.0455-.383.1234-.688.2078-.948z" fill="#37474f"/><path d="m26.6937 225.849c-.0714 1.214-1.4087.649-1.3828-1.084.026-1.733.9284-5.895 1.2984-8.712.2272-4.045.3895-6.719 1.175-6.68v.123c0 .039-.0779 2.311-.0909 2.597-.1363 2.473-.1688 7.277-.5258 9.51-.243 1.405-.4013 2.823-.4739 4.246z" fill="#37474f"/><path d="m32.1082 226.999c.4067-1.366.7254-2.756.9543-4.162.383-2.213 1.7074-6.634 2.3566-9.017.2142-.389.8829-2.597.8829-2.597.5453.15 0 2.273-.2597 3.246-.2597.974-.5648 2.052-.8829 3.48-.8115 2.804-.8894 7.011-1.4152 8.628-.5259 1.616-1.9541 1.584-1.636.422z" fill="#37474f"/><path d="m32.6016 227.193c-.0369-.006-.0722-.019-.1039-.039-1.8346-1.009-3.924-1.46-6.0115-1.298-.075.01-.1511-.007-.2151-.047-.064-.041-.1119-.102-.1354-.174-.0076-.034-.0077-.069-.0004-.103.0074-.034.0221-.066.0431-.094s.0478-.051.0785-.067c.0308-.016.0647-.026.0995-.028 2.235-.189 4.4754.295 6.4334 1.389.0313.016.059.038.0813.065.0224.026.039.058.0488.091.0097.034.0124.069.0079.103-.0045.035-.0161.068-.0341.098-.0324.045-.0777.079-.1299.098-.0522.018-.1088.021-.1622.006z" fill="#263238"/><path d="m33.3873 224.642c-.0344-.008-.0674-.021-.0974-.039-2.0804-1.059-4.4004-1.558-6.732-1.448-.0748.007-.1498-.012-.2116-.055s-.1064-.106-.126-.179c-.0068-.034-.0058-.069.0028-.103.0087-.034.0248-.065.0472-.092.0225-.027.0506-.048.0824-.063.0318-.014.0664-.021.1013-.021 2.4634-.137 4.9184.39 7.1086 1.526.0325.015.0615.037.0854.063.0239.027.0422.058.0537.092s.0161.07.0134.106-.0127.07-.0292.102c-.0332.046-.0793.081-.1325.101-.0531.02-.111.023-.1661.01z" fill="#263238"/><path d="m26.87 220.682c-.054-.012-.1042-.038-.146-.074-.0419-.036-.0743-.082-.0942-.134-.0085-.033-.01-.068-.0043-.102.0056-.034.0184-.066.0373-.095.019-.029.0437-.053.0727-.072.029-.018.0615-.031.0956-.036 3.564-.649 6.9592 1.389 7.1021 1.474.032.015.0604.037.0835.064.0231.028.0404.059.0507.093.0104.034.0136.07.0095.106-.0041.035-.0155.069-.0334.1-.0489.056-.1165.093-.1904.104-.0738.011-.1491-.005-.2121-.045 0 0-3.3303-1.948-6.6476-1.383z" fill="#263238"/><path d="m27.1873 218.345c-.0528-.009-.1024-.032-.1435-.066s-.0723-.079-.0902-.129c-.012-.033-.0164-.068-.013-.103.0033-.035.0145-.068.0325-.098.0181-.03.0426-.055.0718-.075.0292-.019.0623-.031.0969-.036 2.5152-.412 5.0945.109 7.2515 1.467.0302.019.0563.043.0768.072.0204.029.0347.062.042.097.0073.034.0075.07.0004.105-.007.034-.0211.067-.0413.096-.0516.054-.121.087-.1951.093-.0742.006-.1479-.016-.2074-.06-2.0172-1.242-4.4106-1.725-6.7516-1.363-.0423.013-.0875.013-.1298 0z" fill="#263238"/><path d="m27.5578 215.728c-.053-.01-.1025-.034-.1435-.069-.0409-.036-.072-.081-.0902-.132-.012-.032-.0167-.066-.0136-.1.003-.034.0136-.067.0311-.096.0174-.03.0413-.055.0697-.073.0285-.019.0608-.031.0946-.036 3.6809-.76 7.1411 1.448 7.2969 1.545.0311.017.0583.04.08.068.0217.027.0373.059.0458.094.0086.034.0099.07.0039.104-.006.035-.0193.068-.0389.098-.0499.055-.1184.09-.1926.099-.0741.008-.1488-.011-.2098-.054 0 0-3.3823-2.155-6.8035-1.448z" fill="#263238"/><path d="m31.9271 126.413c-3.4537 8.44-1.188 19.762-1.5386 28.967-.4154 11.036-.6167 19.657-.6167 19.657-.1298 1.487-.9738 3.558-1.6619 10.868-.7271 7.712-.6946 18.722-.6946 18.722s6.4918 2.779 10.5687 1.344c0 0 4.3496-16.515 6.4919-25.597 1.993-8.595 3.4602-22.034 3.4602-22.034l2.363 12.952s-.2921 5.557-.1558 9.452c.1623 4.544 2.5968 21.864 2.5968 21.864s6.0569 3.629 10.2701.169c0 0 2.0514-25.441 2.1878-30.888.2661-10.686.5713-31.693-.6882-45.443z" fill="#37474f"/><path d="m47.9033 158.34 2.7006-16.937s5.8427-.974 8.3551-3.402c-1.4182 2.459-3.7523 4.256-6.4919 4.999l-2.8305 15.684.6492 12.608z" fill="#263238"/><path d="m27.3115 205.004c1.8242 1.422 7.1411 2.642 10.7506 1.331l.7336-3.064c-2.7396.921-8.3811.337-11.4193-1.539z" fill="#455a64"/><path d="m52.7203 202.965c1.2269 1.247 6.9203 2.279 10.2831.305l.2467-3.077c-2.5513 1.422-8.4394 1.182-10.9063-.279z" fill="#455a64"/><path d="m30.1996 156.893s-.5648 13.73-.5258 14.73c.039.999 7.4981 2.979 7.6929 2.343.3246-1.058.2467-3.415.8894-14.795-6.1868-.798-8.0565-2.278-8.0565-2.278z" fill="#455a64"/><path d="m37.0945 163.086c-.2321-.052-.4702-.071-.7076-.058l-.818-.039c-.5788-.05-1.1536-.139-1.7203-.267-.6407-.144-1.27-.335-1.8827-.571-.5063-.188-.9738-.448-1.4801-.649-.0455 0-.052.071 0 .091.4886.336 1.0189.606 1.5775.805 1.0414.411 2.133.682 3.2459.805.2857.032.5778.052.8635.065.3058.054.6202.032.9153-.065.0455-.007.0519-.098.0065-.117z" fill="#37474f"/><path d="m33.8421 161.171c-.0714-.143-.1234-.227-.2857-.247-.1331-.014-.2667.021-.3765.097-.0514.036-.0944.082-.1259.136-.0314.054-.0505.114-.0559.176-.0085.097.0099.195.0531.282.0433.088.1097.162.1921.214.0825.052.1777.081.2752.083.0976.002.1938-.023.2781-.073.0446-.039.0794-.088.1019-.144.0225-.055.0321-.114.028-.174.0006-.122-.0283-.242-.0844-.35zm-.1428.422c-.0442.052-.1056.088-.1732.1-.0677.011-.1374-.001-.1969-.035-.1947-.111-.1558-.474.0779-.5.0733-.009.1473.009.2078.052.0568.043.0964.106.1118.176.0155.07.0057.143-.0274.207z" fill="#37474f"/><path d="m55.3105 90.6562c3.7588.6492 5.5831 1.636 8.4395 6.1673 2.8564 4.5315 8.5628 17.4695 8.5628 17.4695l12.3345 9.452-7.4202 3.331c.2142.311-1.7528-.442-6.6801-3.097-4.3755-2.363-4.7521-2.369-7.6215-7.362-2.5513-4.434-6.3555-10.854-6.3555-10.854z" fill="#ffbda7"/><path d="m30.7838 97.0638c1.2225 0 2.4331-.2408 3.5625-.7086 1.1295-.4679 2.1557-1.1536 3.0202-2.0181.8644-.8644 1.5502-1.8907 2.018-3.0201.4678-1.1295.7086-2.34.7086-3.5626v-23.2344h-1.545c-2.0661 0-4.0476.8208-5.5086 2.2817-1.4609 1.461-2.2817 3.4425-2.2817 5.5086z" fill="#37474f"/><path d="m35.3732 67.4477c-.1332.3828-.2247.779-.2727 1.1815-.0324.2586-.0324.5203 0 .779.1147.6014.4382 1.1429.9133 1.5289s1.0714.5918 1.6835.581c.6028-.0231 1.1925-.183 1.7245-.4675.5319-.2846.9923-.6864 1.3461-1.175.9998-1.2984 2.4799-4.2716.5453-5.3363-.6493-.3287-1.377-.4712-2.1023-.4116-.7254.0596-1.42.3189-2.007.7492-.8679.6406-1.5091 1.5411-1.8307 2.5708z" fill="#516eb4"/><path d="m35.3732 67.4477c-.1332.3828-.2247.779-.2727 1.1815-.0324.2586-.0324.5203 0 .779.1147.6014.4382 1.1429.9133 1.5289s1.0714.5918 1.6835.581c.6028-.0231 1.1925-.183 1.7245-.4675.5319-.2846.9923-.6864 1.3461-1.175.9998-1.2984 2.4799-4.2716.5453-5.3363-.6493-.3287-1.377-.4712-2.1023-.4116-.7254.0596-1.42.3189-2.007.7492-.8679.6406-1.5091 1.5411-1.8307 2.5708z" fill="#000" opacity=".25"/><path d="m34.8413 117.26c-.2142.948-2.4734 5.842-3.8237 11.133 8.1083 10.459 32.1218 4.752 33.8811-1.129-.3766-6.999-.7012-24.669-2.2332-27.8504-1.6962-3.4784-4.2222-6.486-7.3553-8.7575-1.6927-.3199-3.4032-.5367-5.1221-.6492-2.5547-.3317-5.1453-.266-7.6799.1947-2.3791.4581-4.7077 1.1473-6.9528 2.058-2.811 1.175-3.4407 4.9273-2.5253 11.0364.4219 2.804 3.3108 7.4 1.8112 13.964z" fill="#455a64"/><path d="m98.0792 98.2191-7.4008-6.388 5.635-29.577-10.9388-9.4392-8.5303 2.9668-3.9471 20.7091-8.2707-7.1346 29.8172-48.0983-11.7633-10.1468-8.5238 2.9668-31.8816 51.1365-2.1812 11.4257 28.1487 24.2929-3.2589 17.112 10.9388 9.446 8.5238-2.973 1.5711-8.245.5713.487 8.5238-2.967z" fill="#516eb4"/><path d="m98.0792 98.2191-7.4008-6.388 5.635-29.577-10.9388-9.4392-8.5303 2.9668-3.9471 20.7091-8.2707-7.1346 29.8172-48.0983-11.7633-10.1468-8.5238 2.9668-31.8816 51.1365-2.1812 11.4257 28.1487 24.2929-3.2589 17.112 10.9388 9.446 8.5238-2.973 1.5711-8.245.5713.487 8.5238-2.967z" fill="#000" opacity=".3"/><path d="m82.1546 94.8043 5.635-29.5769-10.9453-9.4457-5.635 29.577-15.1066-13.0292 29.8172-48.0983-11.7633-10.1533-31.8816 51.1365-2.1812 11.4322 28.1487 24.2864-3.2589 17.112 10.9388 9.446 3.2654-17.119 7.4008 6.388 2.9667-15.574z" fill="#516eb4"/><path d="m82.1546 94.8043 5.635-29.5769-10.9453-9.4457-5.635 29.577-15.1066-13.0292 29.8172-48.0983-11.7633-10.1533-31.8816 51.1365-2.1812 11.4322 28.1487 24.2864-3.2589 17.112 10.9388 9.446 3.2654-17.119 7.4008 6.388 2.9667-15.574z" fill="#fff" opacity=".3"/><path d="m74.1562 14.0779 11.7633 10.1533 8.5239-2.9733-11.7633-10.1468z" fill="#516eb4"/><path d="m74.1562 14.0779 11.7633 10.1533 8.5239-2.9733-11.7633-10.1468z" fill="#fff" opacity=".5"/><path d="m76.8438 55.7817 8.5303-2.9668 10.9388 9.4392-8.5238 2.9733z" fill="#516eb4"/><path d="m76.8438 55.7817 8.5303-2.9668 10.9388 9.4392-8.5238 2.9733z" fill="#fff" opacity=".5"/><path d="m82.1543 94.8041 8.5238-2.9733 7.4008 6.388-8.5239 2.9672z" fill="#516eb4"/><path d="m82.1543 94.8041 8.5238-2.9733 7.4008 6.388-8.5239 2.9672z" fill="#fff" opacity=".5"/><path d="m56.1025 72.3295 8.5239-2.9733 8.2706 7.1346-1.6879 8.8679z" fill="#516eb4"/><path d="m56.1025 72.3295 8.5239-2.9733 8.2706 7.1346-1.6879 8.8679z" fill="#fff" opacity=".5"/><path d="m76.9281 98.3163c-.6492-.1752.831-2.6746.5194-4.3041-.1558-.8115-1.1556-1.558-1.5127-.4739-.753 2.2787-1.7463 3.1096-2.4084 4.4794" fill="#ffbda7"/><path d="m73.5261 98.018c-.7088 1.4943-1.8365 2.75-3.2459 3.616-1.993 1.402-13.7303 3.895-13.7303 3.895s-2.7721-1.642-7.4981-4.804c-5.992-4.0054-11.601-8.7834-13.4837-8.4394-5.9335 1.6944-4.5443 10.3414-2.2332 12.2764 1.5191 1.298 3.246 2.441 9.4262 5.732 6.6672 3.571 7.641 3.707 9.5885 4.544 3.4537 1.461 4.1678 1.169 8.5109-.37 4.343-1.538 6.9073-2.895 12.6786-5.758 2.9278-1.448 3.999-2.48 6.2062-3.966.8562-.527 1.625-1.184 2.2787-1.948.6087-.696 1.0388-1.529 1.2529-2.428.0225-.169.0662-.335.1299-.4934.0844-.1428.1817-.2791.2791-.4154.206-.2407.3765-.5096.5064-.7985.0887-.3248.1453-.6575.1688-.9933.0088-.1552.0305-.3093.0649-.4609.0482-.1541.109-.3039.1818-.448.2171-.3583.3709-.7514.4544-1.162.0134-.1114-.0022-.2244-.0455-.3279-.0432-.1036-.1125-.1941-.2012-.2629 0 0 .3116-.4414.409-.5972.1391-.2187.2544-.4515.3441-.6947.0224-.0465.034-.0976.034-.1493s-.0116-.1027-.034-.1493c-.0328-.0502-.0805-.0888-.1364-.1103-.8504-.4415-1.6684.0908-2.3371.6102-1.7398 1.3373-2.5513 2.5448-4.4404 3.6939-1.0257.6492-1.2984.766-1.7203.7595" fill="#ffbda7"/><path d="m84.7841 95.0771c-.2987.461-.6492.8894-.9803 1.2984s-.7011.844-1.0452 1.2659c-.1753.2078-.3376.4285-.5258.6492-.1883.2207-.3766.4025-.5778.5843-.3933.3836-.8073.7456-1.24 1.0841l.5648-.5972c.1883-.1948.383-.396.5648-.5973.1818-.2012.3701-.396.5453-.6037.1753-.2078.3376-.422.5129-.6492.3506-.422.7076-.8375 1.0777-1.2399z" fill="#f0997a"/><path d="m84.4386 97.0637c-.1604.3987-.3582.7813-.5908 1.1426-.2337.3505-.4804.6946-.7401 1.0257-.2596.3311-.5258.6492-.8049.974-.2828.316-.5841.615-.9024.896.2662-.331.5193-.65.779-1l.7661-.9933.7725-.9998c.2467-.3051.4869-.6622.7206-1.0452z" fill="#f0997a"/><path d="m57.6021 77.6529.7595-.2337c3.4212-1.8372 3.2459-6.2972 2.4215-8.6212-1.8567-5.1935-7.4592-7.1411-10.9323-7.3164-6.5763-.3635-9.7898 1.3373-10.4714 4.7456-.8894-.0779-2.1164.6492-2.8565 1.6489-1.6164 2.2007-3.538 9.8741 4.9858 17.9695z" fill="#37474f"/><path d="m39.9248 83.2748c-.5368.0565-1.079-.0309-1.5707-.2534-.4918-.2225-.9154-.572-1.2273-1.0125-1.5191-1.8178-1.6035-3.6095-.8115-4.7716.6492-.9478 2.1813-1.5126 3.207-.8115 1.0257.7012 1.1101 1.2984 1.5061 2.1424.396.8439 2.0449.8115 2.5967-2.3955.4869-2.9863.3506-6.1284 1.8762-7.4267 2.2722-1.9476 4.6092-1.2984 5.4402-.039.9478-1.3698 2.9992-1.4672 4.4729-.6037 1.0712.6491 2.1878 1.6359 2.0709 4.9987-.0389 1.0387.6492 2.9798.7271 4.434.2986 5.8426-.6492 7.2709-2.2202 8.6861-.9284.8439-2.3955 1.4022-4.5833 1.4152l.0779 2.9733s2.6617 3.8951 2.7526 5.7907l-12.5099-5.94-.3116-8.0435c-.1612.2528-.3812.4628-.6412.612-.2601.1493-.5523.2333-.8519.245z" fill="#ffbda7"/><path d="m54.7517 71.1677 1.7204 1.5191c-.093.1181-.2092.2159-.3414.2872-.1323.0714-.2778.1148-.4275.1276-.1498.0127-.3006-.0054-.443-.0533s-.2735-.1245-.3851-.2251c-.2283-.2079-.3683-.4953-.3913-.8032-.0229-.3079.0729-.6129.2679-.8523z" fill="#263238"/><path d="m48.8445 73.0763-2.1229 1.2659c-.0873-.1342-.1464-.2848-.1734-.4427-.0271-.1578-.0216-.3195.0161-.4751.0377-.1557.1068-.302.203-.4299.0963-.128.2177-.2349.3568-.3142.2839-.1631.6189-.2128.9379-.1394s.5985.2646.7825.5354z" fill="#263238"/><path d="m45.4881 69.1487c-.5128.6492-.8893 1.2984-.8114 3.6484.0324.9803-.039 3.246-.6947 4.6093-.5713 1.188-1.162 1.8956-2.4279 2.1163-.7693.1156-1.5553.0352-2.2852-.2337-.4479-.2077-1.7073-1.0906-1.5515-2.3955.256.2813.5707.5029.9218.6492.2655.1148.5488.1829.8375.2012.4309-.0009.8545-.1109 1.2314-.3198.3769-.2088.6947-.5098.9239-.8747.8504-1.2594.792-2.9603 1.0516-4.4015.3311-1.8372.6492-3.8951 2.3047-4.8299 1.9475-1.0777 5.4986-.5973 5.927 1.4022-.7814-.6515-1.7866-.9714-2.8008-.8913s-1.9569.5538-2.6264 1.3198z" fill="#37474f"/><path d="m51.8496 74.5303.6752 5.7063 3.0966-1.2075z" fill="#f0997a"/><path d="m49.8828 76.3222c.0013.179-.0507.3544-.1493.5037-.0987.1494-.2395.2661-.4047.3352-.1651.0691-.3471.0875-.5228.0529-.1756-.0346-.337-.1207-.4636-.2473s-.2126-.288-.2472-.4636c-.0347-.1757-.0162-.3576.0529-.5228.0691-.1651.1857-.306.3351-.4046.1494-.0987.3247-.1507.5038-.1494.2376 0 .4654.0944.6334.2624.1681.168.2624.3959.2624.6335z" fill="#263238"/><path d="m55.3812 76.322c.4948 0 .8959-.4011.8959-.8958 0-.4948-.4011-.8959-.8959-.8959s-.8958.4011-.8958.8959c0 .4947.401.8958.8958.8958z" fill="#263238"/><path d="m51.9792 82.0349c-.0012.1769-.0549.3495-.1541.496-.0992.1464-.2396.2603-.4034.3271s-.3437.0836-.5171.0483c-.1733-.0353-.3323-.1211-.457-.2467-.1246-.1255-.2093-.2852-.2434-.4588-.034-.1736-.0159-.3534.0521-.5167s.1828-.3028.33-.401c.1472-.0981.3201-.1505.4971-.1505.1182 0 .2352.0233.3443.0688.1091.0454.2082.112.2914.1959.0833.0838.1492.1834.1938.2928.0446.1095.0672.2266.0663.3448z" fill="#b16668"/><path d="m50.2135 81.8079c-.0099.0754-.0099.1518 0 .2272 0 .2376.0944.4654.2624.6335.168.168.3959.2624.6335.2624.2152.0006.4232-.0779.5843-.2208-.1603-.2545-.3774-.4684-.6342-.6249-.2568-.1566-.5464-.2515-.846-.2774z" fill="#f28f8f"/><path d="m51.3759 87.6372c-2.5318-.0974-4.8429-.5129-6.2777-1.4022-1.1055-.7137-2.014-1.6937-2.6421-2.85.0879.8054.3457 1.5829.7565 2.2812.4107.6983.9649 1.3015 1.626 1.7697 2.2786 1.61 6.5698 1.8892 6.5698 1.8892z" fill="#f0997a"/><path d="m85.9518 125.53c1.2984 0 1.3893-.149 1.5905-.805.1662-.508.2099-1.048.1275-1.576-.0823-.528-.2884-1.029-.6014-1.462-.431-.675-.9732-1.272-1.6035-1.766-.4869-.246-1.0711.688-.5713 1.838.7791 1.817.3506 2.109.3506 2.109-.3317-.773-.7022-1.529-1.1101-2.265-.6149-.731-1.2856-1.412-2.006-2.039-.5843-.584-1.5256-.097-1.0062 1.234l-1.0712-1.065c-.7466-.746-1.4022-.708-1.4477.331-.0209.346.0751.689.2727.974 0 0-.6492-.902-.9673-.701-.8959.571-.7141 1.298.0779 3.486.6492 1.876.409 2.83-.3311 3.116l-.4804.136s.9089.403 1.7918.714c.6492.228 1.2983.358 1.8372-.363 0 0 .7011 1 1.3568.617.4589-.311.8462-.716 1.136-1.188.2304.104.4854.14.7357.106.2503-.035.4858-.139.6796-.301.3895-.281.6749-.682.8115-1.143z" fill="#ffbda7"/><path d="m81.1221 120.798c.3358.304.6403.641.9088 1.006.2117.408.3584.846.435 1.298.196.871.3176 1.758.3635 2.649-.3215-.832-.5713-1.69-.7465-2.564-.0706-.422-.177-.837-.3181-1.24-.1883-.364-.4545-.747-.6427-1.149z" fill="#f0997a"/><path d="m78.876 121.038c.3886.306.6962.703.8959 1.156.1942.448.3485.913.4609 1.389.2294.938.3621 1.897.396 2.863-.3093-.91-.5694-1.835-.779-2.772-.1622-.931-.4922-1.824-.9738-2.636z" fill="#f0997a"/></g></svg>