<svg fill="none" height="21" viewBox="0 0 21 21" width="21" xmlns="http://www.w3.org/2000/svg" xmlns:xlink="http://www.w3.org/1999/xlink"><clipPath id="a"><path d="m0 0h21v21h-21z"/></clipPath><g clip-path="url(#a)" fill="#fff"><path d="m10.5 0c-2.0767 0-4.10677.615814-5.83348 1.76957-1.72672 1.15375-3.07253 2.79363-3.86725 4.71225-.7947205 1.91863-1.002656 4.02978-.597511 6.06658s1.405171 3.9078 2.873621 5.3762c1.46845 1.4685 3.33938 2.4685 5.37618 2.8736 2.03684.4052 4.14804.1973 6.06664-.5975 1.9186-.7947 3.5585-2.1405 4.7122-3.8672 1.1538-1.7267 1.7696-3.7568 1.7696-5.8335-.003-2.78385-1.1102-5.45282-3.0787-7.4213s-4.6374-3.07568905-7.4213-3.0787zm0 19.25c-1.73058 0-3.42231-.5132-4.86124-1.4746-1.43893-.9615-2.56043-2.3281-3.2227-3.9269-.66227-1.5989-.83555-3.3582-.49793-5.05554.33762-1.69733 1.17098-3.25643 2.39469-4.48014s2.78281-2.05707 4.48014-2.39469c1.69734-.33762 3.45664-.16434 5.05554.49792 1.5988.66227 2.9654 1.78378 3.9269 3.22271.9614 1.43893 1.4746 3.13065 1.4746 4.86124-.0025 2.3199-.9252 4.544-2.5656 6.1844s-3.8645 2.5631-6.1844 2.5656z"/><path d="m10.5 4.375c-.2321 0-.4546.09219-.61872.25628-.16409.1641-.25628.38666-.25628.61872v7c0 .2321.09219.4546.25628.6187.16412.1641.38662.2563.61872.2563s.4546-.0922.6187-.2563.2563-.3866.2563-.6187v-7c0-.23206-.0922-.45462-.2563-.61872-.1641-.16409-.3866-.25628-.6187-.25628z"/><path d="m11.375 15.75c0-.4832-.3918-.875-.875-.875s-.875.3918-.875.875.3918.875.875.875.875-.3918.875-.875z"/></g></svg>