<svg enable-background="new 0 0 512.19 512.19" height="512" viewBox="0 0 512.19 512.19" width="512" xmlns="http://www.w3.org/2000/svg"><path d="m496.543 200.771c-19.259-31.537-43.552-59.707-71.915-83.392l59.733-59.733c8.185-8.475 7.95-21.98-.525-30.165-8.267-7.985-21.374-7.985-29.641 0l-64.96 65.045c-40.269-23.918-86.306-36.385-133.141-36.053-132.075 0-207.339 90.411-240.448 144.299-20.862 33.743-20.862 76.379 0 110.123 19.259 31.537 43.552 59.707 71.915 83.392l-59.733 59.733c-8.475 8.185-8.71 21.691-.525 30.165 8.185 8.475 21.691 8.71 30.165.525.178-.172.353-.347.525-.525l65.109-65.109c40.219 23.915 86.201 36.402 132.992 36.117 132.075 0 207.339-90.411 240.448-144.299 20.863-33.743 20.863-76.379.001-110.123zm-368.448 55.062c-.121-70.575 56.992-127.885 127.567-128.006 26.703-.046 52.75 8.275 74.481 23.793l-30.976 30.976c-13.004-7.842-27.887-12.022-43.072-12.096-47.128 0-85.333 38.205-85.333 85.333.074 15.185 4.254 30.068 12.096 43.072l-30.976 30.976c-15.468-21.593-23.786-47.487-23.787-74.048zm128 128c-26.561-.001-52.455-8.319-74.048-23.787l30.976-30.976c13.004 7.842 27.887 12.022 43.072 12.096 47.128 0 85.333-38.205 85.333-85.333-.074-15.185-4.254-30.068-12.096-43.072l30.976-30.976c41.013 57.434 27.702 137.242-29.732 178.255-21.731 15.518-47.778 23.839-74.481 23.793z"/></svg>