<svg enable-background="new 0 0 512.19 512.19" height="512" viewBox="0 0 512.19 512.19" width="512" xmlns="http://www.w3.org/2000/svg"><circle cx="256.095" cy="256.095" r="85.333"/><path d="m496.543 201.034c-33.088-53.888-108.352-144.299-240.448-144.299s-207.36 90.411-240.448 144.299c-20.862 33.743-20.862 76.379 0 110.123 33.088 53.888 108.352 144.299 240.448 144.299s207.36-90.411 240.448-144.299c20.862-33.744 20.862-76.38 0-110.123zm-240.448 183.061c-70.692 0-128-57.308-128-128s57.308-128 128-128 128 57.308 128 128c-.071 70.663-57.337 127.929-128 128z"/></svg>