<svg width="300" height="300" viewBox="0 0 300 300" fill="none" xmlns="http://www.w3.org/2000/svg">
<path d="M150 286.758C228.068 286.758 291.354 250.219 291.354 205.146C291.354 160.073 228.068 123.534 150 123.534C71.9328 123.534 8.64648 160.073 8.64648 205.146C8.64648 250.219 71.9328 286.758 150 286.758Z" fill="#F0F0F0"/>
<path d="M120.75 266.988C147.67 266.988 169.494 254.389 169.494 238.848C169.494 223.307 147.67 210.708 120.75 210.708C93.8293 210.708 72.0059 223.307 72.0059 238.848C72.0059 254.389 93.8293 266.988 120.75 266.988Z" fill="#E0E0E0"/>
<path d="M259.368 203.64L253.65 200.34C253.65 200.34 252.252 188.1 253.182 178.62C254.49 165.3 263.094 149.268 273.354 153.036C283.614 156.804 268.65 170.364 265.32 181.662C261.99 192.96 259.368 203.64 259.368 203.64Z" fill="#516EB4"/>
<path opacity="0.15" d="M259.368 203.64L253.65 200.34C253.65 200.34 252.252 188.1 253.182 178.62C254.49 165.3 263.094 149.268 273.354 153.036C283.614 156.804 268.65 170.364 265.32 181.662C261.99 192.96 259.368 203.64 259.368 203.64Z" fill="black"/>
<path d="M256.362 202.254C256.453 202.249 256.539 202.209 256.6 202.142C256.662 202.074 256.695 201.985 256.692 201.894C255.69 172.296 270.426 157.404 270.57 157.26C270.635 157.195 270.671 157.106 270.671 157.014C270.671 156.922 270.635 156.833 270.57 156.768C270.538 156.736 270.5 156.71 270.458 156.693C270.417 156.676 270.372 156.667 270.327 156.667C270.281 156.667 270.237 156.676 270.195 156.693C270.153 156.71 270.115 156.736 270.084 156.768C269.928 156.912 254.982 172.02 255.996 201.918C255.997 201.964 256.008 202.01 256.027 202.052C256.047 202.094 256.074 202.132 256.108 202.163C256.142 202.194 256.182 202.218 256.226 202.234C256.269 202.25 256.315 202.256 256.362 202.254Z" fill="white"/>
<path d="M262.962 205.698L258.894 203.352C258.894 203.352 258.198 194.952 262.32 184.752C265.92 175.872 274.8 168.498 279.276 170.046C283.752 171.594 283.638 174.768 281.454 178.098C279.27 181.428 266.004 189.354 262.962 205.698Z" fill="#516EB4"/>
<path d="M260.813 204.81C260.905 204.808 260.993 204.771 261.057 204.706C261.122 204.641 261.16 204.554 261.161 204.462C261.077 185.742 278.651 173.094 278.831 172.968C278.869 172.942 278.901 172.909 278.925 172.871C278.949 172.833 278.966 172.79 278.973 172.745C278.98 172.7 278.978 172.654 278.967 172.61C278.956 172.566 278.937 172.524 278.909 172.488C278.856 172.414 278.776 172.364 278.686 172.348C278.597 172.332 278.504 172.352 278.429 172.404C278.249 172.53 260.387 185.394 260.465 204.462C260.465 204.554 260.502 204.643 260.567 204.708C260.632 204.773 260.721 204.81 260.813 204.81Z" fill="white"/>
<path d="M47.7958 196.29L53.0758 192.726C53.0758 192.726 55.3978 178.926 53.2378 166.752C50.2018 149.676 38.3998 144 34.1998 145.8C29.9998 147.6 29.0998 152.682 36.9418 162.426C41.5918 168.156 47.6338 180.39 47.7958 196.29Z" fill="#516EB4"/>
<g opacity="0.15">
<path d="M47.7958 196.29L53.0758 192.726C53.0758 192.726 55.3978 178.926 53.2378 166.752C50.2018 149.676 38.3998 144 34.1998 145.8C29.9998 147.6 29.0998 152.682 36.9418 162.426C41.5918 168.156 47.6338 180.39 47.7958 196.29Z" fill="black"/>
</g>
<path d="M49.6081 189.45H49.5541C49.5002 189.447 49.4476 189.432 49.3998 189.407C49.3519 189.382 49.3099 189.347 49.2765 189.304C49.2431 189.262 49.219 189.213 49.2058 189.16C49.1927 189.108 49.1907 189.053 49.2001 189C51.1081 172.926 44.3221 155.478 36.9361 148.536C36.8651 148.464 36.8252 148.367 36.8252 148.266C36.8252 148.165 36.8651 148.068 36.9361 147.996C36.9713 147.96 37.0133 147.931 37.0597 147.912C37.1061 147.892 37.1559 147.882 37.2061 147.882C37.2564 147.882 37.3062 147.892 37.3526 147.912C37.3989 147.931 37.4409 147.96 37.4761 147.996C45.0001 155.064 51.9121 172.8 49.9801 189.108C49.9688 189.2 49.9252 189.285 49.857 189.347C49.7889 189.41 49.7007 189.446 49.6081 189.45Z" fill="white"/>
<path d="M33.9717 205.614C33.1317 206.118 30.6837 204.3 30.0057 203.862C28.8437 203.103 27.8972 202.058 27.2577 200.826C26.5403 199.429 26.274 197.844 26.4957 196.29C26.6186 195.479 26.797 194.677 27.0297 193.89C27.2397 193.104 27.4497 192.318 27.6297 191.526C27.8958 190.756 27.998 189.938 27.9297 189.126C27.6957 187.524 26.2497 186.426 24.9297 185.484C23.4777 184.434 21.9297 183.048 21.9297 181.116C22.0037 179.598 22.5847 178.149 23.5797 177C24.4797 175.8 25.5597 174.756 26.3697 173.502C27.0031 172.633 27.3264 171.577 27.2877 170.502C27.1834 169.84 26.9467 169.205 26.5917 168.636C25.8837 167.388 24.9657 166.236 24.4677 164.91C23.9697 163.584 24.0057 161.88 25.0677 160.89C25.9137 160.08 27.2037 159.948 28.3737 160.002C29.4762 160.112 30.5412 160.462 31.4937 161.028C34.5957 162.678 36.4197 166.278 39.7017 167.532C40.9677 168.012 42.3477 168.096 43.6617 168.42C44.9757 168.744 46.3317 169.386 46.9617 170.58C48.2037 172.95 46.0377 175.938 46.9257 178.452C47.7177 180.684 49.9257 181.5 51.1737 183.498C51.6802 184.385 51.8904 185.411 51.7737 186.426C51.7033 188.139 51.3189 189.825 50.6397 191.4C49.8585 193.033 48.9768 194.616 47.9997 196.14C47.9997 196.14 34.0977 205.536 33.9717 205.614Z" fill="#516EB4"/>
<path d="M42.0833 200.64C42.0328 200.639 41.9831 200.628 41.9368 200.608C41.8905 200.588 41.8486 200.559 41.8135 200.523C41.7784 200.487 41.7508 200.444 41.7322 200.397C41.7136 200.35 41.7045 200.3 41.7053 200.25C42.0413 185.058 34.5653 168.45 29.2733 163.65C29.1981 163.582 29.1527 163.487 29.1471 163.386C29.1415 163.285 29.176 163.186 29.2433 163.11C29.2785 163.074 29.3205 163.045 29.3668 163.026C29.4132 163.006 29.463 162.996 29.5133 162.996C29.5636 162.996 29.6133 163.006 29.6597 163.026C29.7061 163.045 29.7481 163.074 29.7833 163.11C35.1833 167.97 42.8093 184.866 42.4673 200.268C42.4665 200.318 42.4559 200.367 42.4362 200.412C42.4165 200.458 42.388 200.499 42.3523 200.533C42.3167 200.568 42.2746 200.595 42.2284 200.613C42.1822 200.632 42.1329 200.641 42.0833 200.64Z" fill="white"/>
<path d="M39.2812 182.13C39.2458 182.139 39.2087 182.139 39.1732 182.13C34.2652 180.714 28.1812 180.57 28.1212 180.564C28.0711 180.563 28.0216 180.552 27.9756 180.532C27.9296 180.512 27.8881 180.483 27.8535 180.447C27.8189 180.411 27.7918 180.368 27.7739 180.321C27.756 180.274 27.7476 180.224 27.7492 180.174C27.7483 180.123 27.7579 180.073 27.7774 180.026C27.7969 179.979 27.8259 179.937 27.8625 179.902C27.8992 179.867 27.9427 179.84 27.9903 179.823C28.038 179.806 28.0887 179.799 28.1392 179.802C28.1992 179.802 34.3792 179.952 39.3832 181.392C39.4799 181.421 39.5612 181.487 39.6095 181.576C39.6578 181.665 39.6692 181.769 39.6412 181.866C39.6179 181.943 39.5701 182.01 39.5052 182.058C39.4403 182.106 39.3617 182.131 39.2812 182.13Z" fill="white"/>
<path d="M180.696 185.844L178.422 184.53C178.043 184.284 177.728 183.952 177.502 183.561C177.275 183.17 177.145 182.731 177.12 182.28V87.768C177.145 87.3177 177.275 86.8795 177.5 86.4887C177.725 86.0979 178.039 85.7654 178.416 85.518L241.626 49.026C242.029 48.822 242.474 48.7157 242.925 48.7157C243.376 48.7157 243.821 48.822 244.224 49.026L246.498 50.34C246.877 50.586 247.192 50.918 247.419 51.309C247.645 51.7 247.776 52.1389 247.8 52.59V147.102C247.775 147.552 247.645 147.991 247.42 148.381C247.195 148.772 246.881 149.105 246.504 149.352L183.294 185.85C182.891 186.054 182.446 186.161 181.994 186.16C181.543 186.158 181.098 186.05 180.696 185.844Z" fill="#455A64"/>
<path d="M247.8 52.38C247.71 51.708 247.164 51.462 246.51 51.84L183.294 88.338C182.912 88.5778 182.596 88.9101 182.376 89.304L177.498 86.49C177.716 86.0931 178.032 85.7585 178.416 85.518L241.626 49.026C242.029 48.822 242.474 48.7157 242.925 48.7157C243.376 48.7157 243.821 48.822 244.224 49.026L246.498 50.34C246.849 50.5661 247.147 50.8655 247.372 51.2176C247.597 51.5697 247.743 51.9662 247.8 52.38Z" fill="#455A64"/>
<path d="M183.072 185.952C182.688 186.108 182.275 186.179 181.861 186.161C181.447 186.144 181.041 186.038 180.672 185.85L178.392 184.53C178.015 184.283 177.701 183.95 177.476 183.559C177.251 183.169 177.12 182.73 177.096 182.28V87.768C177.111 87.3168 177.241 86.877 177.474 86.49L182.352 89.304C182.115 89.6915 181.982 90.134 181.968 90.588V185.1C181.992 185.844 182.46 186.186 183.072 185.952Z" fill="#263238"/>
<path d="M181.992 90.6V185.1C181.992 185.928 182.592 186.264 183.294 185.85L246.504 149.352C246.881 149.105 247.195 148.772 247.42 148.381C247.645 147.991 247.775 147.552 247.8 147.102V52.59C247.8 51.762 247.2 51.426 246.504 51.84L183.294 88.338C182.914 88.5851 182.597 88.9191 182.371 89.3123C182.145 89.7055 182.015 90.1468 181.992 90.6Z" fill="#37474F"/>
<path d="M167.232 126.6C166.416 126.114 162.63 123.96 162.432 123.846C162.278 123.754 162.146 123.628 162.047 123.479C161.947 123.329 161.883 123.159 161.858 122.981C161.833 122.803 161.849 122.622 161.904 122.45C161.958 122.279 162.051 122.123 162.174 121.992L177.12 105.96L181.992 108.756L167.052 124.8C166.934 124.925 166.845 125.074 166.79 125.236C166.735 125.398 166.715 125.57 166.732 125.741C166.75 125.911 166.803 126.076 166.889 126.225C166.975 126.373 167.092 126.501 167.232 126.6Z" fill="#455A64"/>
<path d="M181.992 108.774L167.052 124.8C166.886 124.977 166.778 125.2 166.741 125.44C166.705 125.68 166.742 125.926 166.848 126.144C166.954 126.363 167.123 126.544 167.334 126.664C167.546 126.784 167.788 126.837 168.03 126.816L181.992 125.664V108.774Z" fill="#37474F"/>
<path d="M214.896 79.9201C222.264 75.6661 228.234 79.1161 228.234 87.6241C228.234 96.1321 222.264 106.47 214.896 110.724C207.528 114.978 201.558 111.528 201.558 103.026C201.558 94.5241 207.528 84.1741 214.896 79.9201Z" fill="#516EB4"/>
<path d="M214.8 86.6161C217.2 85.2361 219.126 86.3521 219.126 89.1121C219.044 90.6124 218.61 92.0723 217.858 93.3733C217.106 94.6743 216.059 95.7798 214.8 96.6001C212.4 97.9801 210.468 96.8641 210.468 94.1041C210.55 92.6032 210.985 91.143 211.738 89.8419C212.491 88.5408 213.54 87.4356 214.8 86.6161Z" fill="white"/>
<path d="M223.332 101.328C223.332 96.7981 220.146 94.9561 216.222 97.2241L213.768 98.6401C209.844 100.908 206.658 106.44 206.658 110.958V112.2C207.399 112.437 208.172 112.556 208.95 112.554C211.055 112.483 213.105 111.862 214.896 110.754C218.307 108.653 221.192 105.801 223.332 102.414V101.328Z" fill="white"/>
<path d="M206.447 152.838L223.344 143.082C224.064 142.668 224.646 143.004 224.646 143.832V149.274C224.621 149.725 224.49 150.164 224.264 150.555C224.038 150.946 223.722 151.278 223.344 151.524L206.447 161.28C205.727 161.694 205.146 161.358 205.146 160.53V155.088C205.17 154.637 205.301 154.198 205.527 153.807C205.753 153.416 206.069 153.084 206.447 152.838Z" fill="#516EB4"/>
<path d="M198.174 140.682L231.6 121.374C232.458 120.876 233.16 121.278 233.16 122.274V124.296C233.13 124.837 232.974 125.364 232.703 125.833C232.432 126.302 232.054 126.7 231.6 126.996L198.156 146.304C197.298 146.802 196.602 146.4 196.602 145.404V143.4C196.629 142.855 196.786 142.324 197.059 141.851C197.333 141.378 197.715 140.978 198.174 140.682Z" fill="#FAFAFA"/>
<path d="M202.086 126.708C202.542 126.444 202.896 126.402 203.148 126.588C203.4 126.774 203.526 127.188 203.526 127.824C203.539 128.404 203.409 128.979 203.148 129.498C202.912 129.967 202.543 130.355 202.086 130.614L201.186 131.136V133.074C201.184 133.141 201.168 133.206 201.138 133.266C201.117 133.32 201.079 133.366 201.03 133.398L200.574 133.662C200.558 133.674 200.539 133.68 200.52 133.68C200.5 133.68 200.482 133.674 200.466 133.662C200.434 133.621 200.419 133.57 200.424 133.518V127.908C200.423 127.842 200.438 127.776 200.466 127.716C200.489 127.663 200.526 127.617 200.574 127.584L202.086 126.708ZM201.186 130.05L202.056 129.546C202.266 129.427 202.443 129.258 202.572 129.054C202.708 128.813 202.775 128.539 202.764 128.262C202.764 127.938 202.698 127.752 202.572 127.698C202.483 127.676 202.39 127.675 202.301 127.695C202.211 127.715 202.128 127.755 202.056 127.812L201.186 128.316V130.05Z" fill="#FAFAFA"/>
<path d="M206.039 124.422C206.099 124.386 206.147 124.386 206.177 124.422C206.216 124.476 206.242 124.537 206.255 124.602L207.641 129.294C207.641 129.294 207.641 129.33 207.641 129.348C207.641 129.415 207.624 129.481 207.593 129.54C207.572 129.594 207.534 129.641 207.485 129.672L207.077 129.906C207.005 129.948 206.951 129.954 206.921 129.906C206.892 129.876 206.872 129.839 206.861 129.798L206.615 128.976L204.815 130.008L204.575 131.112C204.558 131.172 204.536 131.23 204.509 131.286C204.48 131.359 204.424 131.419 204.353 131.454L203.945 131.688C203.93 131.701 203.911 131.708 203.891 131.708C203.872 131.708 203.853 131.701 203.837 131.688C203.806 131.649 203.791 131.6 203.795 131.55C203.792 131.528 203.792 131.506 203.795 131.484L205.175 125.196C205.192 125.104 205.218 125.013 205.253 124.926C205.283 124.863 205.331 124.811 205.391 124.776L206.039 124.422ZM206.351 128.058L205.751 125.94L205.151 128.772L206.351 128.058Z" fill="#FAFAFA"/>
<path d="M209.742 122.196C209.943 122.069 210.171 121.993 210.408 121.974C210.575 121.959 210.743 121.997 210.888 122.082C211.02 122.168 211.122 122.291 211.182 122.436C211.248 122.584 211.284 122.743 211.29 122.904C211.294 122.971 211.28 123.037 211.248 123.096C211.227 123.15 211.189 123.197 211.14 123.228L210.744 123.456C210.678 123.492 210.63 123.498 210.6 123.456C210.563 123.432 210.532 123.399 210.51 123.36C210.486 123.306 210.451 123.258 210.408 123.217C210.365 123.177 210.314 123.146 210.258 123.126C210.075 123.1 209.89 123.147 209.742 123.258C209.645 123.321 209.553 123.391 209.466 123.468C209.377 123.55 209.298 123.643 209.232 123.744C209.168 123.842 209.116 123.946 209.076 124.056C209.041 124.16 209.022 124.27 209.022 124.38C209.015 124.481 209.034 124.582 209.076 124.674C209.095 124.706 209.121 124.734 209.152 124.753C209.183 124.773 209.219 124.785 209.256 124.788C209.367 124.807 209.481 124.807 209.592 124.788L210.114 124.674C210.309 124.616 210.511 124.592 210.714 124.602C210.859 124.602 211 124.648 211.116 124.734C211.226 124.826 211.305 124.95 211.344 125.088C211.403 125.282 211.429 125.485 211.422 125.688C211.422 125.956 211.383 126.223 211.308 126.48C211.235 126.745 211.128 126.999 210.99 127.236C210.845 127.479 210.672 127.705 210.474 127.908C210.272 128.117 210.042 128.297 209.79 128.442C209.605 128.555 209.402 128.634 209.19 128.676C209.017 128.709 208.839 128.695 208.674 128.634C208.524 128.564 208.4 128.449 208.32 128.304C208.222 128.119 208.169 127.913 208.164 127.704C208.163 127.636 208.178 127.568 208.206 127.506C208.233 127.455 208.272 127.412 208.32 127.38L208.716 127.152C208.776 127.116 208.824 127.104 208.86 127.122C208.896 127.14 208.92 127.17 208.944 127.224C208.969 127.286 209.001 127.344 209.04 127.398C209.077 127.45 209.13 127.49 209.19 127.512C209.269 127.53 209.351 127.53 209.43 127.512C209.557 127.482 209.679 127.431 209.79 127.362C209.906 127.296 210.017 127.219 210.12 127.134C210.322 126.974 210.482 126.769 210.588 126.534C210.636 126.414 210.661 126.286 210.66 126.156C210.666 126.109 210.662 126.061 210.648 126.016C210.635 125.971 210.612 125.928 210.582 125.892C210.55 125.863 210.511 125.842 210.47 125.83C210.429 125.817 210.385 125.814 210.342 125.82C210.206 125.826 210.071 125.848 209.94 125.886C209.784 125.922 209.604 125.964 209.394 126C209.233 126.04 209.067 126.052 208.902 126.036C208.772 126.028 208.649 125.975 208.554 125.886C208.45 125.784 208.377 125.655 208.344 125.514C208.296 125.306 208.274 125.092 208.278 124.878C208.278 124.614 208.316 124.351 208.392 124.098C208.464 123.838 208.569 123.588 208.704 123.354C208.834 123.122 208.991 122.907 209.172 122.712C209.337 122.514 209.529 122.34 209.742 122.196Z" fill="#FAFAFA"/>
<path d="M213.684 119.928C213.883 119.797 214.112 119.719 214.35 119.7C214.517 119.686 214.685 119.723 214.83 119.808C214.958 119.896 215.058 120.019 215.118 120.162C215.184 120.31 215.22 120.469 215.226 120.63C215.233 120.697 215.218 120.764 215.184 120.822C215.163 120.876 215.125 120.922 215.076 120.954L214.68 121.182C214.62 121.218 214.572 121.23 214.536 121.182C214.498 121.158 214.468 121.122 214.452 121.08C214.397 120.975 214.305 120.893 214.194 120.852C214.105 120.839 214.013 120.844 213.926 120.866C213.838 120.889 213.756 120.929 213.684 120.984C213.584 121.045 213.489 121.115 213.402 121.194C213.315 121.276 213.238 121.369 213.174 121.47C213.108 121.566 213.055 121.671 213.018 121.782C212.981 121.886 212.96 121.995 212.958 122.106C212.951 122.207 212.97 122.308 213.012 122.4C213.031 122.432 213.057 122.459 213.088 122.479C213.119 122.499 213.155 122.511 213.192 122.514C213.303 122.533 213.417 122.533 213.528 122.514L214.05 122.4C214.245 122.346 214.448 122.321 214.65 122.328C214.795 122.327 214.936 122.373 215.052 122.46C215.162 122.554 215.243 122.676 215.286 122.814C215.339 123.009 215.363 123.212 215.358 123.414C215.358 123.682 215.319 123.949 215.244 124.206C215.171 124.471 215.064 124.725 214.926 124.962C214.782 125.208 214.608 125.435 214.41 125.64C214.207 125.844 213.98 126.022 213.732 126.168C213.547 126.28 213.344 126.359 213.132 126.402C212.961 126.435 212.785 126.42 212.622 126.36C212.469 126.292 212.343 126.176 212.262 126.03C212.163 125.845 212.112 125.639 212.112 125.43C212.105 125.363 212.12 125.296 212.154 125.238C212.175 125.184 212.213 125.137 212.262 125.106L212.658 124.878C212.718 124.842 212.772 124.83 212.802 124.848C212.823 124.857 212.841 124.872 212.856 124.889C212.87 124.907 212.881 124.928 212.886 124.95C212.913 125.011 212.945 125.069 212.982 125.124C213.022 125.177 213.076 125.216 213.138 125.238C213.217 125.256 213.299 125.256 213.378 125.238C213.505 125.208 213.627 125.157 213.738 125.088C213.852 125.02 213.96 124.944 214.062 124.86C214.167 124.778 214.26 124.681 214.338 124.572C214.416 124.468 214.48 124.355 214.53 124.236C214.578 124.116 214.603 123.987 214.602 123.858C214.608 123.811 214.604 123.763 214.59 123.718C214.577 123.673 214.554 123.63 214.524 123.594C214.492 123.565 214.453 123.544 214.412 123.532C214.371 123.519 214.327 123.516 214.284 123.522C214.15 123.53 214.017 123.552 213.888 123.588C213.732 123.624 213.546 123.666 213.342 123.702C213.179 123.742 213.011 123.754 212.844 123.738C212.714 123.731 212.59 123.678 212.496 123.588C212.394 123.486 212.323 123.357 212.292 123.216C212.239 123.01 212.215 122.798 212.22 122.586C212.222 122.32 212.261 122.056 212.334 121.8C212.408 121.541 212.513 121.291 212.646 121.056C212.776 120.823 212.935 120.607 213.12 120.414C213.282 120.224 213.472 120.06 213.684 119.928Z" fill="#FAFAFA"/>
<path d="M218.058 120.678L217.572 123.552C217.558 123.638 217.533 123.723 217.5 123.804C217.477 123.869 217.432 123.924 217.374 123.96L216.918 124.224C216.858 124.26 216.816 124.26 216.786 124.224C216.746 124.175 216.723 124.114 216.72 124.05L216 118.98C216 118.98 216 118.932 216 118.914C216.002 118.847 216.018 118.782 216.048 118.722C216.071 118.669 216.108 118.623 216.156 118.59L216.57 118.35C216.605 118.336 216.643 118.336 216.678 118.35C216.714 118.35 216.738 118.398 216.75 118.494L217.224 121.908L217.638 119.346C217.649 119.282 217.667 119.22 217.692 119.16C217.716 119.084 217.767 119.02 217.836 118.98L218.298 118.71C218.364 118.674 218.412 118.68 218.442 118.71C218.468 118.748 218.486 118.791 218.496 118.836L218.916 120.918L219.39 116.958C219.396 116.88 219.418 116.804 219.456 116.736C219.484 116.691 219.521 116.652 219.564 116.622L219.978 116.382C219.994 116.37 220.013 116.364 220.032 116.364C220.051 116.364 220.07 116.37 220.086 116.382C220.103 116.402 220.116 116.425 220.124 116.449C220.133 116.474 220.136 116.5 220.134 116.526C220.136 116.55 220.136 116.574 220.134 116.598L219.414 122.496C219.402 122.582 219.38 122.667 219.348 122.748C219.321 122.812 219.275 122.866 219.216 122.904L218.754 123.168C218.7 123.198 218.658 123.198 218.628 123.168C218.598 123.113 218.573 123.055 218.556 122.994L218.058 120.678Z" fill="#FAFAFA"/>
<path d="M220.866 118.134C220.879 117.801 220.919 117.47 220.986 117.144C221.055 116.825 221.159 116.515 221.298 116.22C221.43 115.933 221.6 115.665 221.802 115.422C222.007 115.181 222.253 114.978 222.528 114.822C222.739 114.679 222.987 114.598 223.242 114.588C223.433 114.59 223.615 114.665 223.752 114.798C223.897 114.961 224.002 115.157 224.058 115.368C224.135 115.644 224.178 115.928 224.184 116.214C224.184 116.322 224.184 116.442 224.184 116.574C224.184 116.706 224.184 116.844 224.184 116.988C224.184 117.132 224.184 117.27 224.184 117.402C224.184 117.534 224.184 117.66 224.184 117.774C224.171 118.105 224.131 118.434 224.064 118.758C223.995 119.076 223.892 119.386 223.758 119.682C223.622 119.968 223.45 120.236 223.248 120.48C223.043 120.719 222.8 120.921 222.528 121.08C222.312 121.222 222.061 121.303 221.802 121.314C221.709 121.316 221.616 121.299 221.529 121.264C221.442 121.229 221.364 121.176 221.298 121.11C221.141 120.942 221.034 120.735 220.986 120.51C220.915 120.233 220.874 119.95 220.866 119.664C220.866 119.556 220.866 119.436 220.866 119.304C220.866 119.172 220.866 119.034 220.866 118.89C220.866 118.746 220.866 118.614 220.866 118.476C220.866 118.338 220.86 118.242 220.866 118.134ZM223.422 116.7C223.435 116.553 223.419 116.405 223.373 116.265C223.328 116.125 223.255 115.995 223.158 115.884C223.002 115.746 222.786 115.752 222.528 115.884C222.248 116.049 222.026 116.296 221.892 116.592C221.722 116.942 221.632 117.325 221.628 117.714C221.628 117.936 221.628 118.182 221.628 118.452C221.628 118.722 221.628 118.962 221.628 119.178C221.615 119.325 221.631 119.473 221.677 119.613C221.722 119.753 221.795 119.883 221.892 119.994C222.048 120.126 222.264 120.114 222.528 119.964C222.803 119.798 223.023 119.554 223.158 119.262C223.328 118.914 223.418 118.533 223.422 118.146C223.422 117.918 223.422 117.672 223.422 117.402C223.422 117.132 223.428 116.916 223.422 116.7Z" fill="#FAFAFA"/>
<path d="M226.8 112.428C227.274 112.158 227.628 112.116 227.874 112.314C228.02 112.475 228.128 112.666 228.192 112.873C228.255 113.081 228.272 113.299 228.24 113.514C228.245 113.922 228.182 114.327 228.054 114.714C227.932 115.074 227.743 115.408 227.496 115.698L228.276 117.396C228.279 117.424 228.279 117.452 228.276 117.48C228.277 117.534 228.264 117.588 228.24 117.636C228.224 117.68 228.194 117.717 228.156 117.744L227.676 118.02C227.598 118.062 227.544 118.068 227.508 118.02C227.477 117.989 227.45 117.952 227.43 117.912L226.692 116.31L225.942 116.742V118.77C225.943 118.836 225.928 118.902 225.9 118.962C225.876 119.014 225.839 119.06 225.792 119.094L225.336 119.358C225.321 119.371 225.302 119.378 225.282 119.378C225.263 119.378 225.243 119.371 225.228 119.358C225.211 119.34 225.198 119.318 225.19 119.294C225.181 119.27 225.178 119.245 225.18 119.22V113.61C225.182 113.543 225.198 113.478 225.228 113.418C225.249 113.364 225.287 113.318 225.336 113.286L226.8 112.428ZM225.954 115.656L226.8 115.2C227.007 115.085 227.184 114.922 227.316 114.726C227.455 114.495 227.522 114.227 227.508 113.958C227.508 113.634 227.442 113.454 227.316 113.418C227.134 113.393 226.949 113.441 226.8 113.55L225.984 114.018L225.954 115.656Z" fill="#FAFAFA"/>
<path d="M230.819 110.118C231.037 109.976 231.286 109.889 231.545 109.866C231.733 109.859 231.916 109.926 232.055 110.052C232.214 110.219 232.324 110.427 232.373 110.652C232.454 110.95 232.498 111.256 232.505 111.564C232.505 111.984 232.505 112.416 232.505 112.854C232.493 113.211 232.449 113.567 232.373 113.916C232.305 114.241 232.2 114.557 232.061 114.858C231.927 115.135 231.758 115.393 231.557 115.626C231.357 115.864 231.118 116.067 230.849 116.226L229.427 117C229.412 117.013 229.393 117.02 229.373 117.02C229.354 117.02 229.334 117.013 229.319 117C229.302 116.982 229.288 116.96 229.28 116.936C229.272 116.912 229.269 116.887 229.271 116.862V111.252C229.273 111.185 229.29 111.12 229.319 111.06C229.341 111.006 229.378 110.959 229.427 110.928L230.819 110.118ZM231.743 111.984C231.741 111.821 231.716 111.66 231.671 111.504C231.643 111.386 231.583 111.278 231.497 111.192C231.46 111.154 231.415 111.125 231.365 111.105C231.316 111.086 231.263 111.076 231.209 111.078C231.059 111.088 230.914 111.138 230.789 111.222L230.033 111.654V115.566L230.819 115.116C230.971 115.027 231.107 114.914 231.221 114.78C231.333 114.648 231.428 114.503 231.503 114.348C231.578 114.183 231.634 114.01 231.671 113.832C231.713 113.647 231.737 113.458 231.743 113.268C231.761 112.83 231.761 112.404 231.743 111.984Z" fill="#FAFAFA"/>
<path d="M148.428 23.034C149.464 23.2645 150.462 23.6402 151.392 24.15C152.283 24.629 153.082 25.2629 153.75 26.022C154.39 26.7523 154.865 27.6118 155.142 28.542C155.425 29.5378 155.446 30.5899 155.202 31.596C155.041 32.3938 154.725 33.1521 154.272 33.828C153.859 34.4061 153.366 34.9231 152.808 35.364C152.261 35.7892 151.677 36.1646 151.062 36.486L149.334 37.404C148.814 37.6755 148.32 37.9949 147.858 38.358C147.441 38.6782 147.121 39.1083 146.934 39.6C146.843 39.8247 146.691 40.0199 146.496 40.164C146.404 40.2357 146.297 40.2854 146.182 40.3094C146.068 40.3333 145.95 40.3308 145.836 40.302L143.292 39.738C143.17 39.7124 143.054 39.6625 142.951 39.5914C142.848 39.5204 142.76 39.4295 142.692 39.324C142.621 39.2261 142.573 39.1125 142.553 38.9927C142.533 38.8728 142.542 38.7499 142.578 38.634C142.783 37.8462 143.144 37.1075 143.64 36.462C144.093 35.8911 144.617 35.3809 145.2 34.944C145.768 34.5282 146.371 34.1609 147 33.846C147.6 33.54 148.2 33.246 148.722 32.952C149.208 32.691 149.664 32.3793 150.084 32.022C150.453 31.7136 150.708 31.2915 150.81 30.822C150.906 30.4144 150.901 29.9897 150.797 29.5843C150.692 29.1789 150.491 28.8048 150.21 28.494C149.509 27.728 148.571 27.219 147.546 27.048C145.65 26.628 144.05 27.266 142.746 28.962C142.62 29.1472 142.462 29.3078 142.278 29.436C142.071 29.5387 141.832 29.5559 141.612 29.484L138.906 28.884C138.713 28.8468 138.543 28.7346 138.432 28.572C138.373 28.4852 138.334 28.3867 138.316 28.2831C138.298 28.1796 138.303 28.0735 138.33 27.972C138.56 27.1383 138.988 26.3726 139.578 25.74C140.244 25.0065 141.034 24.397 141.912 23.94C142.873 23.4375 143.908 23.0931 144.978 22.92C146.125 22.7336 147.297 22.7723 148.428 23.034ZM145.554 42.342C145.792 42.3979 145.999 42.5447 146.13 42.751C146.261 42.9573 146.307 43.2068 146.256 43.446L145.608 46.386C145.586 46.5091 145.539 46.6262 145.468 46.7296C145.398 46.833 145.307 46.9204 145.2 46.986C145.1 47.0553 144.986 47.1028 144.866 47.1255C144.746 47.1483 144.623 47.1457 144.504 47.118L141.6 46.452C141.477 46.4312 141.359 46.384 141.256 46.3136C141.152 46.2432 141.065 46.1512 141 46.044C140.933 45.9427 140.887 45.8287 140.866 45.709C140.844 45.5894 140.847 45.4665 140.874 45.348L141.528 42.408C141.584 42.1697 141.731 41.9625 141.937 41.8304C142.143 41.6982 142.392 41.6515 142.632 41.7L145.554 42.342Z" fill="#516EB4"/>
<path d="M151.633 51.1801C152.355 51.0642 153.09 51.0501 153.817 51.1381C154.51 51.2206 155.185 51.4236 155.809 51.7381C156.403 52.0464 156.926 52.4756 157.345 52.9981C157.721 53.5095 157.986 54.0941 158.122 54.7141C158.259 55.3342 158.263 55.976 158.137 56.5981C158.022 57.0764 157.838 57.5353 157.591 57.9601C157.352 58.3733 157.075 58.763 156.763 59.1241C156.457 59.4841 156.163 59.8261 155.893 60.1561C155.628 60.4635 155.393 60.795 155.191 61.1461C155 61.4539 154.904 61.8105 154.915 62.1721C154.909 62.3411 154.862 62.5061 154.777 62.6521C154.733 62.7194 154.676 62.7766 154.609 62.8201C154.541 62.8635 154.466 62.8922 154.387 62.9041L152.587 63.1921C152.502 63.2074 152.416 63.2057 152.333 63.1871C152.249 63.1686 152.17 63.1336 152.101 63.0841C152.03 63.0395 151.97 62.9788 151.928 62.9068C151.885 62.8348 151.86 62.7537 151.855 62.6701C151.779 62.1118 151.82 61.5439 151.975 61.0021C152.116 60.5225 152.317 60.0628 152.575 59.6341C152.827 59.2227 153.116 58.8351 153.439 58.4761C153.757 58.1161 154.039 57.7801 154.315 57.4561C154.561 57.1667 154.774 56.8508 154.951 56.5141C155.107 56.2243 155.164 55.8913 155.113 55.5661C155.067 55.2799 154.954 55.0087 154.781 54.7758C154.609 54.5429 154.383 54.355 154.123 54.2281C153.478 53.9165 152.747 53.8279 152.047 53.9761C151.412 54.0689 150.822 54.3557 150.357 54.7972C149.891 55.2387 149.574 55.8132 149.449 56.4421C149.413 56.5934 149.353 56.7375 149.269 56.8681C149.162 56.982 149.016 57.0525 148.861 57.0661L146.965 57.3721C146.831 57.3976 146.693 57.3696 146.581 57.2941C146.523 57.2544 146.474 57.2028 146.438 57.1428C146.402 57.0828 146.379 57.0157 146.371 56.9461C146.314 56.3507 146.407 55.7506 146.641 55.2001C146.878 54.5595 147.227 53.9662 147.673 53.4481C148.161 52.8808 148.736 52.3947 149.377 52.0081C150.068 51.5888 150.834 51.3076 151.633 51.1801ZM154.729 64.2901C154.811 64.277 154.896 64.2803 154.977 64.2999C155.058 64.3194 155.135 64.3549 155.203 64.4041C155.273 64.4506 155.333 64.5115 155.379 64.5829C155.424 64.6542 155.454 64.7344 155.467 64.8181L155.803 66.8761C155.829 67.043 155.788 67.2135 155.689 67.3505C155.59 67.4876 155.441 67.5801 155.275 67.6081L153.265 67.9381C153.098 67.9639 152.927 67.9229 152.791 67.8241C152.721 67.777 152.662 67.7158 152.618 67.6445C152.573 67.5732 152.544 67.4933 152.533 67.4101L152.197 65.3521C152.181 65.2695 152.184 65.1846 152.203 65.103C152.223 65.0213 152.259 64.9447 152.311 64.8781C152.358 64.8085 152.419 64.7496 152.49 64.7051C152.561 64.6607 152.641 64.6317 152.725 64.6201L154.729 64.2901Z" fill="#516EB4"/>
<g opacity="0.2">
<path d="M151.633 51.1801C152.355 51.0642 153.09 51.0501 153.817 51.1381C154.51 51.2206 155.185 51.4236 155.809 51.7381C156.403 52.0464 156.926 52.4756 157.345 52.9981C157.721 53.5095 157.986 54.0941 158.122 54.7141C158.259 55.3342 158.263 55.976 158.137 56.5981C158.022 57.0764 157.838 57.5353 157.591 57.9601C157.352 58.3733 157.075 58.763 156.763 59.1241C156.457 59.4841 156.163 59.8261 155.893 60.1561C155.628 60.4635 155.393 60.795 155.191 61.1461C155 61.4539 154.904 61.8105 154.915 62.1721C154.909 62.3411 154.862 62.5061 154.777 62.6521C154.733 62.7194 154.676 62.7766 154.609 62.8201C154.541 62.8635 154.466 62.8922 154.387 62.9041L152.587 63.1921C152.502 63.2074 152.416 63.2057 152.333 63.1871C152.249 63.1686 152.17 63.1336 152.101 63.0841C152.03 63.0395 151.97 62.9788 151.928 62.9068C151.885 62.8348 151.86 62.7537 151.855 62.6701C151.779 62.1118 151.82 61.5439 151.975 61.0021C152.116 60.5225 152.317 60.0628 152.575 59.6341C152.827 59.2227 153.116 58.8351 153.439 58.4761C153.757 58.1161 154.039 57.7801 154.315 57.4561C154.561 57.1667 154.774 56.8508 154.951 56.5141C155.107 56.2243 155.164 55.8913 155.113 55.5661C155.067 55.2799 154.954 55.0087 154.781 54.7758C154.609 54.5429 154.383 54.355 154.123 54.2281C153.478 53.9165 152.747 53.8279 152.047 53.9761C151.412 54.0689 150.822 54.3557 150.357 54.7972C149.891 55.2387 149.574 55.8132 149.449 56.4421C149.413 56.5934 149.353 56.7375 149.269 56.8681C149.162 56.982 149.016 57.0525 148.861 57.0661L146.965 57.3721C146.831 57.3976 146.693 57.3696 146.581 57.2941C146.523 57.2544 146.474 57.2028 146.438 57.1428C146.402 57.0828 146.379 57.0157 146.371 56.9461C146.314 56.3507 146.407 55.7506 146.641 55.2001C146.878 54.5595 147.227 53.9662 147.673 53.4481C148.161 52.8808 148.736 52.3947 149.377 52.0081C150.068 51.5888 150.834 51.3076 151.633 51.1801ZM154.729 64.2901C154.811 64.277 154.896 64.2803 154.977 64.2999C155.058 64.3194 155.135 64.3549 155.203 64.4041C155.273 64.4506 155.333 64.5115 155.379 64.5829C155.424 64.6542 155.454 64.7344 155.467 64.8181L155.803 66.8761C155.829 67.043 155.788 67.2135 155.689 67.3505C155.59 67.4876 155.441 67.5801 155.275 67.6081L153.265 67.9381C153.098 67.9639 152.927 67.9229 152.791 67.8241C152.721 67.777 152.662 67.7158 152.618 67.6445C152.573 67.5732 152.544 67.4933 152.533 67.4101L152.197 65.3521C152.181 65.2695 152.184 65.1846 152.203 65.103C152.223 65.0213 152.259 64.9447 152.311 64.8781C152.358 64.8085 152.419 64.7496 152.49 64.7051C152.561 64.6607 152.641 64.6317 152.725 64.6201L154.729 64.2901Z" fill="black"/>
</g>
<path d="M168.6 54.4141C168.682 54.471 168.751 54.5439 168.804 54.6285C168.856 54.7131 168.891 54.8076 168.906 54.9061C168.925 55.0037 168.924 55.1042 168.902 55.2013C168.88 55.2983 168.839 55.3899 168.78 55.4701L167.352 57.4801C167.295 57.5619 167.222 57.6312 167.138 57.6838C167.053 57.7365 166.959 57.7712 166.86 57.7861C166.762 57.8052 166.662 57.8038 166.565 57.7822C166.468 57.7605 166.376 57.7189 166.296 57.6601L164.328 56.2621C164.246 56.206 164.177 56.1331 164.125 56.0483C164.074 55.9635 164.04 55.8686 164.028 55.7701C164.009 55.6725 164.01 55.572 164.032 55.4749C164.054 55.3778 164.095 55.2863 164.154 55.2061L165.6 53.1961C165.717 53.0332 165.893 52.9229 166.091 52.8892C166.289 52.8555 166.492 52.9011 166.656 53.0161L168.6 54.4141ZM176.904 40.8001C177.622 41.303 178.261 41.9096 178.8 42.6001C179.326 43.2424 179.733 43.974 180 44.7601C180.249 45.5134 180.333 46.3115 180.246 47.1001C180.144 47.941 179.826 48.7412 179.322 49.4221C178.948 49.9726 178.466 50.442 177.906 50.8021C177.413 51.1111 176.877 51.3456 176.316 51.4981C175.769 51.641 175.211 51.7374 174.648 51.7861L173.052 51.9301C172.573 51.9683 172.099 52.0507 171.636 52.1761C171.209 52.2731 170.817 52.4895 170.508 52.8001C170.368 52.942 170.192 53.0418 169.998 53.0881C169.906 53.1145 169.809 53.1185 169.715 53.0997C169.621 53.0809 169.533 53.0399 169.458 52.9801L167.718 51.7441C167.552 51.6253 167.438 51.4469 167.4 51.2461C167.378 51.1488 167.378 51.0475 167.402 50.9506C167.426 50.8537 167.473 50.7637 167.538 50.6881C167.945 50.1607 168.452 49.72 169.032 49.3921C169.554 49.1071 170.111 48.8913 170.688 48.7501C171.245 48.6148 171.814 48.5285 172.386 48.4921C172.95 48.4561 173.478 48.4141 173.97 48.3661C174.42 48.3263 174.865 48.2378 175.296 48.1021C175.673 47.9765 175.998 47.7297 176.22 47.4001C176.421 47.1218 176.551 46.7992 176.6 46.4596C176.649 46.1201 176.616 45.7738 176.502 45.4501C176.218 44.6504 175.676 43.9683 174.96 43.5121C173.664 42.5881 172.25 42.5581 170.718 43.4221C170.564 43.5202 170.393 43.5894 170.214 43.6261C170.121 43.6326 170.027 43.6205 169.939 43.5907C169.85 43.5608 169.768 43.5137 169.698 43.4521L167.85 42.1381C167.783 42.0937 167.726 42.0362 167.681 41.9693C167.637 41.9023 167.607 41.827 167.592 41.7481C167.578 41.6664 167.58 41.5827 167.6 41.5021C167.62 41.4216 167.656 41.346 167.706 41.2801C168.142 40.7214 168.709 40.2784 169.356 39.9901C170.091 39.6569 170.879 39.4539 171.684 39.3901C172.57 39.3161 173.461 39.387 174.324 39.6001C175.255 39.8245 176.132 40.2324 176.904 40.8001Z" fill="#516EB4"/>
<g opacity="0.6">
<path d="M168.6 54.4141C168.682 54.471 168.751 54.5439 168.804 54.6285C168.856 54.7131 168.891 54.8076 168.906 54.9061C168.925 55.0037 168.924 55.1042 168.902 55.2013C168.88 55.2983 168.839 55.3899 168.78 55.4701L167.352 57.4801C167.295 57.5619 167.222 57.6312 167.138 57.6838C167.053 57.7365 166.959 57.7712 166.86 57.7861C166.762 57.8052 166.662 57.8038 166.565 57.7822C166.468 57.7605 166.376 57.7189 166.296 57.6601L164.328 56.2621C164.246 56.206 164.177 56.1331 164.125 56.0483C164.074 55.9635 164.04 55.8686 164.028 55.7701C164.009 55.6725 164.01 55.572 164.032 55.4749C164.054 55.3778 164.095 55.2863 164.154 55.2061L165.6 53.1961C165.717 53.0332 165.893 52.9229 166.091 52.8892C166.289 52.8555 166.492 52.9011 166.656 53.0161L168.6 54.4141ZM176.904 40.8001C177.622 41.303 178.261 41.9096 178.8 42.6001C179.326 43.2424 179.733 43.974 180 44.7601C180.249 45.5134 180.333 46.3115 180.246 47.1001C180.144 47.941 179.826 48.7412 179.322 49.4221C178.948 49.9726 178.466 50.442 177.906 50.8021C177.413 51.1111 176.877 51.3456 176.316 51.4981C175.769 51.641 175.211 51.7374 174.648 51.7861L173.052 51.9301C172.573 51.9683 172.099 52.0507 171.636 52.1761C171.209 52.2731 170.817 52.4895 170.508 52.8001C170.368 52.942 170.192 53.0418 169.998 53.0881C169.906 53.1145 169.809 53.1185 169.715 53.0997C169.621 53.0809 169.533 53.0399 169.458 52.9801L167.718 51.7441C167.552 51.6253 167.438 51.4469 167.4 51.2461C167.378 51.1488 167.378 51.0475 167.402 50.9506C167.426 50.8537 167.473 50.7637 167.538 50.6881C167.945 50.1607 168.452 49.72 169.032 49.3921C169.554 49.1071 170.111 48.8913 170.688 48.7501C171.245 48.6148 171.814 48.5285 172.386 48.4921C172.95 48.4561 173.478 48.4141 173.97 48.3661C174.42 48.3263 174.865 48.2378 175.296 48.1021C175.673 47.9765 175.998 47.7297 176.22 47.4001C176.421 47.1218 176.551 46.7992 176.6 46.4596C176.649 46.1201 176.616 45.7738 176.502 45.4501C176.218 44.6504 175.676 43.9683 174.96 43.5121C173.664 42.5881 172.25 42.5581 170.718 43.4221C170.564 43.5202 170.393 43.5894 170.214 43.6261C170.121 43.6326 170.027 43.6205 169.939 43.5907C169.85 43.5608 169.768 43.5137 169.698 43.4521L167.85 42.1381C167.783 42.0937 167.726 42.0362 167.681 41.9693C167.637 41.9023 167.607 41.827 167.592 41.7481C167.578 41.6664 167.58 41.5827 167.6 41.5021C167.62 41.4216 167.656 41.346 167.706 41.2801C168.142 40.7214 168.709 40.2784 169.356 39.9901C170.091 39.6569 170.879 39.4539 171.684 39.3901C172.57 39.3161 173.461 39.387 174.324 39.6001C175.255 39.8245 176.132 40.2324 176.904 40.8001Z" fill="white"/>
</g>
<path d="M123.918 107.526H102.6V55.8781C102.6 51.3922 104.382 47.0901 107.554 43.9181C110.726 40.7461 115.028 38.9641 119.514 38.9641H121.482C125.967 38.9641 130.27 40.7461 133.442 43.9181C136.614 47.0901 138.396 51.3922 138.396 55.8781V93.0781C138.388 96.9127 136.859 100.588 134.145 103.296C131.43 106.005 127.752 107.526 123.918 107.526Z" fill="#263238"/>
<path d="M100.523 231.864C100.146 234.004 99.9457 236.171 99.9234 238.344C99.8454 242.28 99.1255 243.678 99.0295 246.906C98.9155 250.596 99.5575 251.976 101.051 254.052C102.545 256.128 106.451 258.006 108.143 254.502C109.835 250.998 109.589 248.7 109.055 245.082C108.509 241.338 108.455 239.268 108.119 236.418C107.843 233.904 107.519 231.99 107.519 231.99L100.523 231.864Z" fill="#263238"/>
<path d="M111.695 205.722L98.7354 205.488C98.9274 214.14 100.301 223.746 100.535 231.888C100.583 233.418 100.499 243.762 101.075 246.888C101.945 251.616 107.549 250.974 107.849 248.148C108.149 245.322 107.489 233.244 107.507 231.996C107.453 226.788 109.907 217.998 111.173 208.65C111.227 208.2 111.635 206.172 111.695 205.722Z" fill="#FFA8A7"/>
<path d="M128.346 225.132C128.346 225.132 127.836 224.856 127.746 225.402C127.62 226.05 127.428 227.388 127.146 228.456C126.774 229.938 126.462 232.38 126.684 233.592C126.906 234.804 129.726 236.352 131.556 236.916C133.811 237.612 135.868 238.836 137.556 240.486C139.356 242.19 143.274 243.798 145.956 243.78C149.106 243.78 151.302 242.73 152.34 241.044C153.378 239.358 151.392 239.154 147.792 236.844L145.002 235.044C139.296 231.318 137.202 229.326 135.6 225.6L128.346 225.132Z" fill="#263238"/>
<path d="M135.648 222.822C135.552 220.146 137.4 197.4 137.4 197.4L125.094 203.01C127.728 218.742 128.292 222.456 128.334 225.03C128.28 225.246 128.258 225.468 128.268 225.69C128.268 228.744 131.73 230.394 134.418 232.434C136.703 234.224 139.138 235.814 141.696 237.186C143.652 238.164 147.624 238.254 148.116 237C144.84 234.498 140.076 230.754 137.472 227.898C136.2 226.554 135.744 225.504 135.648 222.822Z" fill="#FFA8A7"/>
<path d="M104.046 121.296C99.3183 131.67 99.3182 139.698 100.104 152.94C100.8 165.09 101.958 175.8 101.958 175.8C101.778 177.954 98.7843 182.16 98.3943 191.688C98.0343 200.592 98.9943 211.914 98.9943 211.914C98.9943 211.914 105.72 215.64 110.694 211.878C110.694 211.878 115.494 188.964 116.898 177.816C118.098 168.09 120.258 155.664 120.258 155.664L124.8 177.75C123.82 180.884 123.109 184.095 122.676 187.35C122.04 193.908 125.712 206.784 125.712 206.784C125.712 206.784 132.66 208.854 136.902 205.092C136.902 205.092 138.486 184.158 139.08 176.262C139.872 165.684 138.204 137.052 136.902 121.89L104.046 121.296Z" fill="#455A64"/>
<path d="M120.27 155.646L122.136 139.002C122.136 139.002 130.5 137.886 134.292 134.322C133.206 136.02 131.76 137.458 130.057 138.535C128.353 139.611 126.433 140.299 124.434 140.55L121.734 156.036L124.8 177.75L120.27 155.646Z" fill="#263238"/>
<path d="M154.14 117.204C154.486 114.167 154.638 111.111 154.596 108.054C154.41 105.414 153.936 104.982 150.246 100.308C145.266 93.99 141.012 88.308 136.512 82.662C133.296 78.63 129.912 78.012 126.624 78.192C124.32 78.318 128.82 89.4 131.082 95.958L144 109.866C144.4 110.415 144.584 111.092 144.516 111.768L143.736 123.6L147.606 128.784C147.606 128.784 153.468 123.732 154.14 117.204Z" fill="#FFA8A7"/>
<path d="M114.168 78.552C111.666 78.726 107.118 79.152 107.118 79.152C104.496 80.616 103.83 81.822 103.344 85.302C103.134 86.79 104.346 90.744 105.384 96.366L107.352 106.788L107.136 111.96C106.116 115.116 103.806 119.034 101.766 124.812C111.786 130.404 120.186 130.614 127.806 129.612C133.614 128.862 136.692 127.458 137.718 126.066C137.502 120.36 137.118 116.832 136.998 110.868C136.956 108.366 137.106 105.834 137.208 102.954C141.102 99.75 141.15 94.422 139.008 90.954C134.07 82.956 129.264 77.922 126.084 78.18L114.168 78.552Z" fill="#516EB4"/>
<path opacity="0.6" d="M114.168 78.552C111.666 78.726 107.118 79.152 107.118 79.152C104.496 80.616 103.83 81.822 103.344 85.302C103.134 86.79 104.346 90.744 105.384 96.366L107.352 106.788L107.136 111.96C106.116 115.116 103.806 119.034 101.766 124.812C111.786 130.404 120.186 130.614 127.806 129.612C133.614 128.862 136.692 127.458 137.718 126.066C137.502 120.36 137.118 116.832 136.998 110.868C136.956 108.366 137.106 105.834 137.208 102.954C141.102 99.75 141.15 94.422 139.008 90.954C134.07 82.956 129.264 77.922 126.084 78.18L114.168 78.552Z" fill="white"/>
<path opacity="0.1" d="M129.45 103.032C129.45 103.032 124.878 106.584 119.652 104.73C118.185 104.268 116.861 103.434 115.81 102.311C114.759 101.187 114.016 99.8111 113.652 98.316C113.652 98.316 113.1 104.286 119.682 106.32C126.06 108.282 129.45 103.032 129.45 103.032Z" fill="black"/>
<path d="M135.654 62.166C135.456 70.83 132.654 72.966 131.238 73.566C129.822 74.166 127.11 73.806 124.47 73.368V78.6C124.47 78.6 127.518 81.792 127.29 84.174C127.062 86.556 122.49 86.826 119.082 84.492C117.202 83.2003 115.501 81.6649 114.024 79.926C113.741 79.5905 113.585 79.1653 113.586 78.726V66.486C113.586 66.486 112.14 68.016 109.584 66.264C109.033 65.912 108.56 65.4492 108.198 64.9048C107.835 64.3605 107.589 63.7466 107.476 63.1021C107.363 62.4577 107.386 61.7968 107.542 61.1615C107.698 60.5263 107.985 59.9304 108.384 59.412C109.5 58.098 112.332 58.008 113.688 60.012C114.456 61.506 114.558 63.012 115.416 62.412C117.696 60.768 116.472 57.012 119.226 55.212C120.13 54.7403 121.069 54.3391 122.034 54.012C126.948 52.314 131.208 50.886 132.234 47.526C134.166 48.63 135.894 51.948 135.654 62.166Z" fill="#FFA8A7"/>
<path d="M125.964 69.9061C126.594 69.9061 127.104 69.3957 127.104 68.7661C127.104 68.1365 126.594 67.6261 125.964 67.6261C125.335 67.6261 124.824 68.1365 124.824 68.7661C124.824 69.3957 125.335 69.9061 125.964 69.9061Z" fill="#B16668"/>
<path d="M125.208 60.852C125.207 61.0867 125.138 61.3162 125.009 61.512C124.879 61.7079 124.695 61.8615 124.48 61.9538C124.264 62.0461 124.026 62.0731 123.795 62.0315C123.564 61.9898 123.35 61.8814 123.18 61.7195C123.01 61.5576 122.891 61.3494 122.838 61.1207C122.786 60.8921 122.801 60.6529 122.883 60.4328C122.964 60.2128 123.109 60.0216 123.298 59.8828C123.487 59.744 123.713 59.6637 123.948 59.652C124.11 59.6439 124.273 59.6689 124.425 59.7255C124.578 59.7822 124.717 59.8693 124.835 59.9815C124.953 60.0938 125.047 60.2289 125.111 60.3785C125.175 60.5281 125.208 60.6892 125.208 60.852Z" fill="#263238"/>
<path d="M134.298 60.9721C134.31 61.1189 134.293 61.2667 134.248 61.4068C134.203 61.5469 134.13 61.6766 134.034 61.7883C133.938 61.9 133.82 61.9915 133.689 62.0573C133.557 62.1232 133.413 62.1622 133.266 62.1721C133.118 62.1858 132.968 62.1678 132.828 62.1192C132.687 62.0707 132.558 61.9928 132.45 61.8907C132.341 61.7885 132.256 61.6645 132.199 61.5268C132.142 61.3891 132.115 61.2409 132.12 61.0921C132.105 60.9442 132.12 60.7947 132.164 60.6528C132.208 60.5108 132.281 60.3795 132.378 60.2667C132.475 60.1539 132.594 60.0621 132.727 59.9969C132.861 59.9317 133.007 59.8945 133.155 59.8875C133.304 59.8806 133.452 59.904 133.591 59.9565C133.73 60.0089 133.857 60.0892 133.964 60.1924C134.071 60.2956 134.156 60.4196 134.214 60.5568C134.271 60.6939 134.3 60.8414 134.298 60.9901V60.9721Z" fill="#263238"/>
<path d="M123.666 63.936C122.631 63.936 121.638 63.5253 120.906 62.7941C120.174 62.0629 119.761 61.0709 119.76 60.036C119.76 57.384 122.496 57.384 123.666 57.384C124.836 57.384 127.566 57.384 127.566 60.036C127.564 61.0699 127.153 62.061 126.422 62.792C125.691 63.523 124.7 63.9344 123.666 63.936ZM123.666 57.996C121.266 57.996 120.378 58.596 120.378 60.036C120.378 60.9112 120.725 61.7506 121.344 62.3695C121.963 62.9884 122.803 63.336 123.678 63.336C124.553 63.336 125.392 62.9884 126.011 62.3695C126.63 61.7506 126.978 60.9112 126.978 60.036C126.954 58.566 126.03 57.996 123.666 57.996Z" fill="#455A64"/>
<path d="M133.572 63.936C132.537 63.936 131.545 63.5253 130.812 62.7941C130.08 62.0629 129.668 61.0709 129.666 60.036C129.666 57.384 132.402 57.384 133.572 57.384C134.742 57.384 137.472 57.384 137.472 60.036C137.47 61.0699 137.059 62.061 136.328 62.792C135.597 63.523 134.606 63.9344 133.572 63.936ZM133.572 57.996C131.208 57.996 130.284 58.596 130.284 60.036C130.284 60.9112 130.632 61.7506 131.251 62.3695C131.869 62.9884 132.709 63.336 133.584 63.336C134.459 63.336 135.299 62.9884 135.917 62.3695C136.536 61.7506 136.884 60.9112 136.884 60.036C136.86 58.566 135.936 57.996 133.572 57.996Z" fill="#455A64"/>
<path d="M128.172 58.776L128.364 66.066L132.198 64.878L128.172 58.776Z" fill="#F28F8F"/>
<path d="M124.464 73.386C121.68 73.02 115.95 71.376 115.056 69.108C115.415 70.2542 116.117 71.2632 117.066 72C118.776 73.47 124.464 75.12 124.464 75.12V73.386Z" fill="#F28F8F"/>
<path d="M124.602 55.2361L122.058 56.7901C121.857 56.4408 121.799 56.0278 121.895 55.6367C121.991 55.2456 122.234 54.9066 122.574 54.6901C122.741 54.5882 122.928 54.5215 123.122 54.4938C123.317 54.4662 123.515 54.4783 123.704 54.5293C123.894 54.5803 124.071 54.6693 124.225 54.7908C124.38 54.9122 124.508 55.0637 124.602 55.2361Z" fill="#263238"/>
<path d="M134.952 56.9641L132.12 55.9741C132.175 55.7864 132.268 55.6119 132.392 55.4614C132.517 55.3108 132.671 55.1873 132.845 55.0985C133.02 55.0097 133.21 54.9575 133.405 54.945C133.6 54.9326 133.796 54.9602 133.98 55.0261C134.36 55.1626 134.673 55.44 134.854 55.8007C135.035 56.1615 135.07 56.5781 134.952 56.9641Z" fill="#263238"/>
<path d="M127.26 60.3481C127.219 60.3481 127.179 60.34 127.142 60.3243C127.104 60.3085 127.07 60.2854 127.042 60.2564C127.013 60.2273 126.991 60.1929 126.976 60.1551C126.961 60.1172 126.953 60.0768 126.954 60.0361C126.954 59.5381 127.938 59.2141 128.826 59.2141C129.714 59.2141 130.284 59.5381 130.284 60.0361C130.266 60.1013 130.226 60.1587 130.172 60.1995C130.118 60.2403 130.052 60.2624 129.984 60.2624C129.916 60.2624 129.85 60.2403 129.796 60.1995C129.742 60.1587 129.703 60.1013 129.684 60.0361C129.684 59.9761 129.378 59.8261 128.844 59.8261C128.414 59.817 127.987 59.8903 127.584 60.0421C127.584 60.0839 127.576 60.1252 127.559 60.1635C127.543 60.2019 127.519 60.2364 127.488 60.2651C127.458 60.2938 127.422 60.3159 127.383 60.3302C127.344 60.3445 127.302 60.3506 127.26 60.3481Z" fill="#455A64"/>
<path d="M120.078 60.0841H120.042L113.184 59.4841C112.863 59.1665 112.481 58.9174 112.062 58.7521L120.114 59.4961C120.194 59.5066 120.268 59.5482 120.318 59.6121C120.369 59.676 120.392 59.7571 120.384 59.8381C120.369 59.9085 120.331 59.9717 120.275 60.0166C120.219 60.0616 120.149 60.0855 120.078 60.0841Z" fill="#455A64"/>
<path d="M91.9198 67.2361C94.1638 64.236 95.6938 61.974 97.7398 59.436C98.9038 57.978 99.6478 56.9341 100.74 55.4401C101.508 54.4081 101.94 53.538 102.816 53.22C103.762 52.8323 104.615 52.2473 105.318 51.504C105.75 51.0262 106.151 50.5212 106.518 49.9921C107.804 48.2611 109.331 46.7234 111.054 45.4261C112.854 44.0701 114.864 43.026 116.718 41.736C117.822 40.962 119.004 39.678 117.66 38.478C117.248 38.1309 116.754 37.8935 116.226 37.788C112.956 37.08 110.112 38.202 106.914 39.018C105.525 39.3648 104.166 39.8243 102.852 40.3921C102.205 40.6477 101.599 40.9953 101.052 41.4241C100.287 42.1955 99.6595 43.0925 99.1978 44.0761C97.7998 46.5721 94.7998 48.804 92.6998 50.778C90.2458 53.088 88.0498 55.2061 85.2478 57.7501C82.7278 60.0481 80.2618 62.1601 77.9518 64.6681C76.0378 66.7381 76.7518 68.3581 77.0038 68.9221C78.5638 72.1261 80.3098 73.2781 82.4038 75.2641C86.0038 78.7021 98.4538 88.5961 102.576 91.8661C103.461 92.5617 104.157 93.4698 104.598 94.506L105.39 96.3361C110.094 97.2001 113.232 90.1381 109.338 81.6361C108.693 80.2612 107.708 79.0738 106.476 78.1861C101.556 74.6041 91.9198 67.2361 91.9198 67.2361Z" fill="#FFA8A7"/>
<path d="M91.9199 67.2361C90.4226 69.078 88.4274 70.4505 86.1719 71.1901C86.1719 71.1901 89.1719 71.9581 93.2819 68.2681L91.9199 67.2361Z" fill="#F28F8F"/>
<path d="M152.916 110.946L152.148 110.286C152.033 110.21 151.902 110.163 151.765 110.147C151.629 110.132 151.49 110.148 151.362 110.196L143.028 112.464C142.608 112.604 142.223 112.833 141.9 113.135C141.577 113.438 141.323 113.806 141.156 114.216L135.156 131.514C135.083 131.655 135.055 131.814 135.074 131.972C135.093 132.129 135.159 132.277 135.264 132.396L136.056 133.08C136.171 133.16 136.304 133.21 136.443 133.227C136.582 133.243 136.723 133.226 136.854 133.176L145.2 130.908C145.619 130.768 146.004 130.539 146.327 130.237C146.65 129.934 146.904 129.566 147.072 129.156C148.272 125.754 151.872 115.26 153.072 111.858C153.216 111.432 153.144 111.108 152.916 110.946Z" fill="#455A64"/>
<path d="M135.942 132.18L141.942 114.882C142.109 114.473 142.363 114.104 142.686 113.803C143.009 113.501 143.394 113.274 143.814 113.136L152.142 110.868C152.916 110.658 153.342 111.102 153.066 111.858C151.866 115.26 148.266 125.754 147.066 129.156C146.899 129.566 146.645 129.934 146.321 130.237C145.998 130.539 145.614 130.768 145.194 130.908L136.866 133.2C136.098 133.38 135.684 132.936 135.942 132.18Z" fill="#516EB4"/>
<path d="M142.908 113.616C142.474 113.944 142.138 114.384 141.936 114.888L135.936 132.18C135.867 132.317 135.838 132.471 135.853 132.624C135.868 132.777 135.926 132.923 136.02 133.044L135.276 132.408C135.169 132.29 135.101 132.143 135.081 131.985C135.06 131.827 135.089 131.667 135.162 131.526L141.162 114.228C141.351 113.758 141.659 113.344 142.056 113.028L142.908 113.616Z" fill="#37474F"/>
<path d="M150.63 118.83C150.03 120.588 147.948 121.764 144.504 122.58C141.06 123.396 139.158 127.05 139.704 128.16C140.25 129.27 145.818 130.308 148.044 129.99C150.27 129.672 152.502 126.456 153.18 125.46C153.858 124.464 154.638 117.516 153.924 116.562C153.21 115.608 151.704 115.758 151.704 115.758L150.63 118.83Z" fill="#F28F8F"/>
</svg>
