<svg fill="none" height="300" viewBox="0 0 300 300" width="300" xmlns="http://www.w3.org/2000/svg"><path d="m150 286.758c78.068 0 141.354-36.539 141.354-81.612s-63.286-81.612-141.354-81.612c-78.0672 0-141.35352 36.539-141.35352 81.612s63.28632 81.612 141.35352 81.612z" fill="#f0f0f0"/><path d="m120.75 266.988c26.92 0 48.744-12.599 48.744-28.14s-21.824-28.14-48.744-28.14c-26.9207 0-48.7441 12.599-48.7441 28.14s21.8234 28.14 48.7441 28.14z" fill="#e0e0e0"/><path d="m259.368 203.64-5.718-3.3s-1.398-12.24-.468-21.72c1.308-13.32 9.912-29.352 20.172-25.584s-4.704 17.328-8.034 28.626-5.952 21.978-5.952 21.978z" fill="#516eb4"/><path d="m259.368 203.64-5.718-3.3s-1.398-12.24-.468-21.72c1.308-13.32 9.912-29.352 20.172-25.584s-4.704 17.328-8.034 28.626-5.952 21.978-5.952 21.978z" fill="#000" opacity=".15"/><path d="m256.362 202.254c.091-.005.177-.045.238-.112.062-.068.095-.157.092-.248-1.002-29.598 13.734-44.49 13.878-44.634.065-.065.101-.154.101-.246s-.036-.181-.101-.246c-.032-.032-.07-.058-.112-.075-.041-.017-.086-.026-.131-.026-.046 0-.09.009-.132.026s-.08.043-.111.075c-.156.144-15.102 15.252-14.088 45.15.001.046.012.092.031.134.02.042.047.08.081.111s.074.055.118.071c.043.016.089.022.136.02z" fill="#fff"/><path d="m262.962 205.698-4.068-2.346s-.696-8.4 3.426-18.6c3.6-8.88 12.48-16.254 16.956-14.706s4.362 4.722 2.178 8.052-15.45 11.256-18.492 27.6z" fill="#516eb4"/><path d="m260.813 204.81c.092-.002.18-.039.244-.104.065-.065.103-.152.104-.244-.084-18.72 17.49-31.368 17.67-31.494.038-.026.07-.059.094-.097s.041-.081.048-.126.005-.091-.006-.135-.03-.086-.058-.122c-.053-.074-.133-.124-.223-.14-.089-.016-.182.004-.257.056-.18.126-18.042 12.99-17.964 32.058 0 .092.037.181.102.246s.154.102.246.102z" fill="#fff"/><path d="m47.7958 196.29 5.28-3.564s2.322-13.8.162-25.974c-3.036-17.076-14.838-22.752-19.038-20.952s-5.1 6.882 2.742 16.626c4.65 5.73 10.692 17.964 10.854 33.864z" fill="#516eb4"/><path d="m47.7958 196.29 5.28-3.564s2.322-13.8.162-25.974c-3.036-17.076-14.838-22.752-19.038-20.952s-5.1 6.882 2.742 16.626c4.65 5.73 10.692 17.964 10.854 33.864z" fill="#000" opacity=".15"/><path d="m49.6081 189.45h-.054c-.0539-.003-.1065-.018-.1543-.043-.0479-.025-.0899-.06-.1233-.103-.0334-.042-.0575-.091-.0707-.144-.0131-.052-.0151-.107-.0057-.16 1.908-16.074-4.878-33.522-12.264-40.464-.071-.072-.1109-.169-.1109-.27s.0399-.198.1109-.27c.0352-.036.0772-.065.1236-.084.0464-.02.0962-.03.1464-.03.0503 0 .1001.01.1465.03.0463.019.0883.048.1235.084 7.524 7.068 14.436 24.804 12.504 41.112-.0113.092-.0549.177-.1231.239-.0681.063-.1563.099-.2489.103z" fill="#fff"/><path d="m33.9717 205.614c-.84.504-3.288-1.314-3.966-1.752-1.162-.759-2.1085-1.804-2.748-3.036-.7174-1.397-.9837-2.982-.762-4.536.1229-.811.3013-1.613.534-2.4.21-.786.42-1.572.6-2.364.2661-.77.3683-1.588.3-2.4-.234-1.602-1.68-2.7-3-3.642-1.452-1.05-3-2.436-3-4.368.074-1.518.655-2.967 1.65-4.116.9-1.2 1.98-2.244 2.79-3.498.6334-.869.9567-1.925.918-3-.1043-.662-.341-1.297-.696-1.866-.708-1.248-1.626-2.4-2.124-3.726s-.462-3.03.6-4.02c.846-.81 2.136-.942 3.306-.888 1.1025.11 2.1675.46 3.12 1.026 3.102 1.65 4.926 5.25 8.208 6.504 1.266.48 2.646.564 3.96.888s2.67.966 3.3 2.16c1.242 2.37-.924 5.358-.036 7.872.792 2.232 3 3.048 4.248 5.046.5065.887.7167 1.913.6 2.928-.0704 1.713-.4548 3.399-1.134 4.974-.7812 1.633-1.6629 3.216-2.64 4.74 0 0-13.902 9.396-14.028 9.474z" fill="#516eb4"/><path d="m42.0833 200.64c-.0505-.001-.1002-.012-.1465-.032s-.0882-.049-.1233-.085-.0627-.079-.0813-.126-.0277-.097-.0269-.147c.336-15.192-7.14-31.8-12.432-36.6-.0752-.068-.1206-.163-.1262-.264s.0289-.2.0962-.276c.0352-.036.0772-.065.1235-.084.0464-.02.0962-.03.1465-.03s.1.01.1464.03c.0464.019.0884.048.1236.084 5.4 4.86 13.026 21.756 12.684 37.158-.0008.05-.0114.099-.0311.144-.0197.046-.0482.087-.0839.121-.0356.035-.0777.062-.1239.08-.0462.019-.0955.028-.1451.027z" fill="#fff"/><path d="m39.2812 182.13c-.0354.009-.0725.009-.108 0-4.908-1.416-10.992-1.56-11.052-1.566-.0501-.001-.0996-.012-.1456-.032s-.0875-.049-.1221-.085-.0617-.079-.0796-.126-.0263-.097-.0247-.147c-.0009-.051.0087-.101.0282-.148s.0485-.089.0851-.124c.0367-.035.0802-.062.1278-.079.0477-.017.0984-.024.1489-.021.06 0 6.24.15 11.244 1.59.0967.029.178.095.2263.184s.0597.193.0317.29c-.0233.077-.0711.144-.136.192s-.1435.073-.224.072z" fill="#fff"/><path d="m180.696 185.844-2.274-1.314c-.379-.246-.694-.578-.92-.969-.227-.391-.357-.83-.382-1.281v-94.512c.025-.4503.155-.8885.38-1.2793s.539-.7233.916-.9707l63.21-36.492c.403-.204.848-.3103 1.299-.3103s.896.1063 1.299.3103l2.274 1.314c.379.246.694.578.921.969.226.391.357.8299.381 1.281v94.512c-.025.45-.155.889-.38 1.279-.225.391-.539.724-.916.971l-63.21 36.498c-.403.204-.848.311-1.3.31-.451-.002-.896-.11-1.298-.316z" fill="#455a64"/><path d="m247.8 52.38c-.09-.672-.636-.918-1.29-.54l-63.216 36.498c-.382.2398-.698.5721-.918.966l-4.878-2.814c.218-.3969.534-.7315.918-.972l63.21-36.492c.403-.204.848-.3103 1.299-.3103s.896.1063 1.299.3103l2.274 1.314c.351.2261.649.5255.874.8776s.371.7486.428 1.1624z" fill="#455a64"/><path d="m183.072 185.952c-.384.156-.797.227-1.211.209-.414-.017-.82-.123-1.189-.311l-2.28-1.32c-.377-.247-.691-.58-.916-.971-.225-.39-.356-.829-.38-1.279v-94.512c.015-.4512.145-.891.378-1.278l4.878 2.814c-.237.3875-.37.83-.384 1.284v94.512c.024.744.492 1.086 1.104.852z" fill="#263238"/><path d="m181.992 90.6v94.5c0 .828.6 1.164 1.302.75l63.21-36.498c.377-.247.691-.58.916-.971.225-.39.355-.829.38-1.279v-94.512c0-.828-.6-1.164-1.296-.75l-63.21 36.498c-.38.2471-.697.5811-.923.9743s-.356.8345-.379 1.2877z" fill="#37474f"/><path d="m167.232 126.6c-.816-.486-4.602-2.64-4.8-2.754-.154-.092-.286-.218-.385-.367-.1-.15-.164-.32-.189-.498s-.009-.359.046-.531c.054-.171.147-.327.27-.458l14.946-16.032 4.872 2.796-14.94 16.044c-.118.125-.207.274-.262.436s-.075.334-.058.505c.018.17.071.335.157.484.086.148.203.276.343.375z" fill="#455a64"/><path d="m181.992 108.774-14.94 16.026c-.166.177-.274.4-.311.64-.036.24.001.486.107.704.106.219.275.4.486.52.212.12.454.173.696.152l13.962-1.152z" fill="#37474f"/><path d="m214.896 79.9201c7.368-4.254 13.338-.804 13.338 7.704s-5.97 18.8459-13.338 23.0999-13.338.804-13.338-7.698c0-8.5019 5.97-18.8519 13.338-23.1059z" fill="#516eb4"/><path d="m214.8 86.6161c2.4-1.38 4.326-.264 4.326 2.496-.082 1.5003-.516 2.9602-1.268 4.2612s-1.799 2.4065-3.058 3.2268c-2.4 1.38-4.332.264-4.332-2.496.082-1.5009.517-2.9611 1.27-4.2622s1.802-2.4063 3.062-3.2258z" fill="#fff"/><path d="m223.332 101.328c0-4.5299-3.186-6.3719-7.11-4.1039l-2.454 1.416c-3.924 2.2679-7.11 7.7999-7.11 12.3179v1.242c.741.237 1.514.356 2.292.354 2.105-.071 4.155-.692 5.946-1.8 3.411-2.101 6.296-4.953 8.436-8.34z" fill="#fff"/><path d="m206.447 152.838 16.897-9.756c.72-.414 1.302-.078 1.302.75v5.442c-.025.451-.156.89-.382 1.281s-.542.723-.92.969l-16.897 9.756c-.72.414-1.301.078-1.301-.75v-5.442c.024-.451.155-.89.381-1.281s.542-.723.92-.969z" fill="#516eb4"/><g fill="#fafafa"><path d="m198.174 140.682 33.426-19.308c.858-.498 1.56-.096 1.56.9v2.022c-.03.541-.186 1.068-.457 1.537s-.649.867-1.103 1.163l-33.444 19.308c-.858.498-1.554.096-1.554-.9v-2.004c.027-.545.184-1.076.457-1.549.274-.473.656-.873 1.115-1.169z"/><path d="m202.086 126.708c.456-.264.81-.306 1.062-.12s.378.6.378 1.236c.013.58-.117 1.155-.378 1.674-.236.469-.605.857-1.062 1.116l-.9.522v1.938c-.002.067-.018.132-.048.192-.021.054-.059.1-.108.132l-.456.264c-.016.012-.035.018-.054.018-.02 0-.038-.006-.054-.018-.032-.041-.047-.092-.042-.144v-5.61c-.001-.066.014-.132.042-.192.023-.053.06-.099.108-.132zm-.9 3.342.87-.504c.21-.119.387-.288.516-.492.136-.241.203-.515.192-.792 0-.324-.066-.51-.192-.564-.089-.022-.182-.023-.271-.003-.09.02-.173.06-.245.117l-.87.504z"/><path d="m206.039 124.422c.06-.036.108-.036.138 0 .039.054.065.115.078.18l1.386 4.692v.054c0 .067-.017.133-.048.192-.021.054-.059.101-.108.132l-.408.234c-.072.042-.126.048-.156 0-.029-.03-.049-.067-.06-.108l-.246-.822-1.8 1.032-.24 1.104c-.017.06-.039.118-.066.174-.029.073-.085.133-.156.168l-.408.234c-.015.013-.034.02-.054.02-.019 0-.038-.007-.054-.02-.031-.039-.046-.088-.042-.138-.003-.022-.003-.044 0-.066l1.38-6.288c.017-.092.043-.183.078-.27.03-.063.078-.115.138-.15zm.312 3.636-.6-2.118-.6 2.832z"/><path d="m209.742 122.196c.201-.127.429-.203.666-.222.167-.015.335.023.48.108.132.086.234.209.294.354.066.148.102.307.108.468.004.067-.01.133-.042.192-.021.054-.059.101-.108.132l-.396.228c-.066.036-.114.042-.144 0-.037-.024-.068-.057-.09-.096-.024-.054-.059-.102-.102-.143-.043-.04-.094-.071-.15-.091-.183-.026-.368.021-.516.132-.097.063-.189.133-.276.21-.089.082-.168.175-.234.276-.064.098-.116.202-.156.312-.035.104-.054.214-.054.324-.007.101.012.202.054.294.019.032.045.06.076.079.031.02.067.032.104.035.111.019.225.019.336 0l.522-.114c.195-.058.397-.082.6-.072.145 0 .286.046.402.132.11.092.189.216.228.354.059.194.085.397.078.6 0 .268-.039.535-.114.792-.073.265-.18.519-.318.756-.145.243-.318.469-.516.672-.202.209-.432.389-.684.534-.185.113-.388.192-.6.234-.173.033-.351.019-.516-.042-.15-.07-.274-.185-.354-.33-.098-.185-.151-.391-.156-.6-.001-.068.014-.136.042-.198.027-.051.066-.094.114-.126l.396-.228c.06-.036.108-.048.144-.03s.06.048.084.102c.025.062.057.12.096.174.037.052.09.092.15.114.079.018.161.018.24 0 .127-.03.249-.081.36-.15.116-.066.227-.143.33-.228.202-.16.362-.365.468-.6.048-.12.073-.248.072-.378.006-.047.002-.095-.012-.14-.013-.045-.036-.088-.066-.124-.032-.029-.071-.05-.112-.062-.041-.013-.085-.016-.128-.01-.136.006-.271.028-.402.066-.156.036-.336.078-.546.114-.161.04-.327.052-.492.036-.13-.008-.253-.061-.348-.15-.104-.102-.177-.231-.21-.372-.048-.208-.07-.422-.066-.636 0-.264.038-.527.114-.78.072-.26.177-.51.312-.744.13-.232.287-.447.468-.642.165-.198.357-.372.57-.516z"/><path d="m213.684 119.928c.199-.131.428-.209.666-.228.167-.014.335.023.48.108.128.088.228.211.288.354.066.148.102.307.108.468.007.067-.008.134-.042.192-.021.054-.059.1-.108.132l-.396.228c-.06.036-.108.048-.144 0-.038-.024-.068-.06-.084-.102-.055-.105-.147-.187-.258-.228-.089-.013-.181-.008-.268.014-.088.023-.17.063-.242.118-.1.061-.195.131-.282.21-.087.082-.164.175-.228.276-.066.096-.119.201-.156.312-.037.104-.058.213-.06.324-.007.101.012.202.054.294.019.032.045.059.076.079s.067.032.104.035c.111.019.225.019.336 0l.522-.114c.195-.054.398-.079.6-.072.145-.001.286.045.402.132.11.094.191.216.234.354.053.195.077.398.072.6 0 .268-.039.535-.114.792-.073.265-.18.519-.318.756-.144.246-.318.473-.516.678-.203.204-.43.382-.678.528-.185.112-.388.191-.6.234-.171.033-.347.018-.51-.042-.153-.068-.279-.184-.36-.33-.099-.185-.15-.391-.15-.6-.007-.067.008-.134.042-.192.021-.054.059-.101.108-.132l.396-.228c.06-.036.114-.048.144-.03.021.009.039.024.054.041.014.018.025.039.03.061.027.061.059.119.096.174.04.053.094.092.156.114.079.018.161.018.24 0 .127-.03.249-.081.36-.15.114-.068.222-.144.324-.228.105-.082.198-.179.276-.288.078-.104.142-.217.192-.336.048-.12.073-.249.072-.378.006-.047.002-.095-.012-.14-.013-.045-.036-.088-.066-.124-.032-.029-.071-.05-.112-.062-.041-.013-.085-.016-.128-.01-.134.008-.267.03-.396.066-.156.036-.342.078-.546.114-.163.04-.331.052-.498.036-.13-.007-.254-.06-.348-.15-.102-.102-.173-.231-.204-.372-.053-.206-.077-.418-.072-.63.002-.266.041-.53.114-.786.074-.259.179-.509.312-.744.13-.233.289-.449.474-.642.162-.19.352-.354.564-.486z"/><path d="m218.058 120.678-.486 2.874c-.014.086-.039.171-.072.252-.023.065-.068.12-.126.156l-.456.264c-.06.036-.102.036-.132 0-.04-.049-.063-.11-.066-.174l-.72-5.07s0-.048 0-.066c.002-.067.018-.132.048-.192.023-.053.06-.099.108-.132l.414-.24c.035-.014.073-.014.108 0 .036 0 .06.048.072.144l.474 3.414.414-2.562c.011-.064.029-.126.054-.186.024-.076.075-.14.144-.18l.462-.27c.066-.036.114-.03.144 0 .026.038.044.081.054.126l.42 2.082.474-3.96c.006-.078.028-.154.066-.222.028-.045.065-.084.108-.114l.414-.24c.016-.012.035-.018.054-.018s.038.006.054.018c.017.02.03.043.038.067.009.025.012.051.01.077.002.024.002.048 0 .072l-.72 5.898c-.012.086-.034.171-.066.252-.027.064-.073.118-.132.156l-.462.264c-.054.03-.096.03-.126 0-.03-.055-.055-.113-.072-.174z"/><path d="m220.866 118.134c.013-.333.053-.664.12-.99.069-.319.173-.629.312-.924.132-.287.302-.555.504-.798.205-.241.451-.444.726-.6.211-.143.459-.224.714-.234.191.002.373.077.51.21.145.163.25.359.306.57.077.276.12.56.126.846v.36.414.414.372c-.013.331-.053.66-.12.984-.069.318-.172.628-.306.924-.136.286-.308.554-.51.798-.205.239-.448.441-.72.6-.216.142-.467.223-.726.234-.093.002-.186-.015-.273-.05s-.165-.088-.231-.154c-.157-.168-.264-.375-.312-.6-.071-.277-.112-.56-.12-.846 0-.108 0-.228 0-.36s0-.27 0-.414 0-.276 0-.414-.006-.234 0-.342zm2.556-1.434c.013-.147-.003-.295-.049-.435-.045-.14-.118-.27-.215-.381-.156-.138-.372-.132-.63 0-.28.165-.502.412-.636.708-.17.35-.26.733-.264 1.122v.738.726c-.013.147.003.295.049.435.045.14.118.27.215.381.156.132.372.12.636-.03.275-.166.495-.41.63-.702.17-.348.26-.729.264-1.116 0-.228 0-.474 0-.744s.006-.486 0-.702z"/><path d="m226.8 112.428c.474-.27.828-.312 1.074-.114.146.161.254.352.318.559.063.208.08.426.048.641.005.408-.058.813-.186 1.2-.122.36-.311.694-.558.984l.78 1.698c.003.028.003.056 0 .084.001.054-.012.108-.036.156-.016.044-.046.081-.084.108l-.48.276c-.078.042-.132.048-.168 0-.031-.031-.058-.068-.078-.108l-.738-1.602-.75.432v2.028c.001.066-.014.132-.042.192-.024.052-.061.098-.108.132l-.456.264c-.015.013-.034.02-.054.02-.019 0-.039-.007-.054-.02-.017-.018-.03-.04-.038-.064-.009-.024-.012-.049-.01-.074v-5.61c.002-.067.018-.132.048-.192.021-.054.059-.1.108-.132zm-.846 3.228.846-.456c.207-.115.384-.278.516-.474.139-.231.206-.499.192-.768 0-.324-.066-.504-.192-.54-.182-.025-.367.023-.516.132l-.816.468z"/><path d="m230.819 110.118c.218-.142.467-.229.726-.252.188-.007.371.06.51.186.159.167.269.375.318.6.081.298.125.604.132.912v1.29c-.012.357-.056.713-.132 1.062-.068.325-.173.641-.312.942-.134.277-.303.535-.504.768-.2.238-.439.441-.708.6l-1.422.774c-.015.013-.034.02-.054.02-.019 0-.039-.007-.054-.02-.017-.018-.031-.04-.039-.064s-.011-.049-.009-.074v-5.61c.002-.067.019-.132.048-.192.022-.054.059-.101.108-.132zm.924 1.866c-.002-.163-.027-.324-.072-.48-.028-.118-.088-.226-.174-.312-.037-.038-.082-.067-.132-.087-.049-.019-.102-.029-.156-.027-.15.01-.295.06-.42.144l-.756.432v3.912l.786-.45c.152-.089.288-.202.402-.336.112-.132.207-.277.282-.432.075-.165.131-.338.168-.516.042-.185.066-.374.072-.564.018-.438.018-.864 0-1.284z"/></g><path d="m148.428 23.034c1.036.2305 2.034.6062 2.964 1.116.891.479 1.69 1.1129 2.358 1.872.64.7303 1.115 1.5898 1.392 2.52.283.9958.304 2.0479.06 3.054-.161.7978-.477 1.5561-.93 2.232-.413.5781-.906 1.0951-1.464 1.536-.547.4252-1.131.8006-1.746 1.122l-1.728.918c-.52.2715-1.014.5909-1.476.954-.417.3202-.737.7503-.924 1.242-.091.2247-.243.4199-.438.564-.092.0717-.199.1214-.314.1454-.114.0239-.232.0214-.346-.0074l-2.544-.564c-.122-.0256-.238-.0755-.341-.1466-.103-.071-.191-.1619-.259-.2674-.071-.0979-.119-.2115-.139-.3313-.02-.1199-.011-.2428.025-.3587.205-.7878.566-1.5265 1.062-2.172.453-.5709.977-1.0811 1.56-1.518.568-.4158 1.171-.7831 1.8-1.098.6-.306 1.2-.6 1.722-.894.486-.261.942-.5727 1.362-.93.369-.3084.624-.7305.726-1.2.096-.4076.091-.8323-.013-1.2377-.105-.4054-.306-.7795-.587-1.0903-.701-.766-1.639-1.275-2.664-1.446-1.896-.42-3.496.218-4.8 1.914-.126.1852-.284.3458-.468.474-.207.1027-.446.1199-.666.048l-2.706-.6c-.193-.0372-.363-.1494-.474-.312-.059-.0868-.098-.1853-.116-.2889-.018-.1035-.013-.2096.014-.3111.23-.8337.658-1.5994 1.248-2.232.666-.7335 1.456-1.343 2.334-1.8.961-.5025 1.996-.8469 3.066-1.02 1.147-.1864 2.319-.1477 3.45.114zm-2.874 19.308c.238.0559.445.2027.576.409s.177.4558.126.695l-.648 2.94c-.022.1231-.069.2402-.14.3436-.07.1034-.161.1908-.268.2564-.1.0693-.214.1168-.334.1395-.12.0228-.243.0202-.362-.0075l-2.904-.666c-.123-.0208-.241-.068-.344-.1384-.104-.0704-.191-.1624-.256-.2696-.067-.1013-.113-.2153-.134-.335-.022-.1196-.019-.2425.008-.361l.654-2.94c.056-.2383.203-.4455.409-.5776.206-.1322.455-.1789.695-.1304z" fill="#516eb4"/><path d="m151.633 51.1801c.722-.1159 1.457-.13 2.184-.042.693.0825 1.368.2855 1.992.6.594.3083 1.117.7375 1.536 1.26.376.5114.641 1.096.777 1.716.137.6201.141 1.2619.015 1.884-.115.4783-.299.9372-.546 1.362-.239.4132-.516.8029-.828 1.164-.306.36-.6.702-.87 1.032-.265.3074-.5.6389-.702.99-.191.3078-.287.6644-.276 1.026-.006.169-.053.334-.138.48-.044.0673-.101.1245-.168.168-.068.0434-.143.0721-.222.084l-1.8.288c-.085.0153-.171.0136-.254-.005-.084-.0185-.163-.0535-.232-.103-.071-.0446-.131-.1053-.173-.1773-.043-.072-.068-.1531-.073-.2367-.076-.5583-.035-1.1262.12-1.668.141-.4796.342-.9393.6-1.368.252-.4114.541-.799.864-1.158.318-.36.6-.696.876-1.02.246-.2894.459-.6053.636-.942.156-.2898.213-.6228.162-.948-.046-.2862-.159-.5574-.332-.7903-.172-.2329-.398-.4208-.658-.5477-.645-.3116-1.376-.4002-2.076-.252-.635.0928-1.225.3796-1.69.8211-.466.4415-.783 1.016-.908 1.6449-.036.1513-.096.2954-.18.426-.107.1139-.253.1844-.408.198l-1.896.306c-.134.0255-.272-.0025-.384-.078-.058-.0397-.107-.0913-.143-.1513s-.059-.1271-.067-.1967c-.057-.5954.036-1.1955.27-1.746.237-.6406.586-1.2339 1.032-1.752.488-.5673 1.063-1.0534 1.704-1.44.691-.4193 1.457-.7005 2.256-.828zm3.096 13.11c.082-.0131.167-.0098.248.0098.081.0195.158.055.226.1042.07.0465.13.1074.176.1788.045.0713.075.1515.088.2352l.336 2.058c.026.1669-.015.3374-.114.4744-.099.1371-.248.2296-.414.2576l-2.01.33c-.167.0258-.338-.0152-.474-.114-.07-.0471-.129-.1083-.173-.1796-.045-.0713-.074-.1512-.085-.2344l-.336-2.058c-.016-.0826-.013-.1675.006-.2491.02-.0817.056-.1583.108-.2249.047-.0696.108-.1285.179-.173.071-.0444.151-.0734.235-.085z" fill="#516eb4"/><path d="m151.633 51.1801c.722-.1159 1.457-.13 2.184-.042.693.0825 1.368.2855 1.992.6.594.3083 1.117.7375 1.536 1.26.376.5114.641 1.096.777 1.716.137.6201.141 1.2619.015 1.884-.115.4783-.299.9372-.546 1.362-.239.4132-.516.8029-.828 1.164-.306.36-.6.702-.87 1.032-.265.3074-.5.6389-.702.99-.191.3078-.287.6644-.276 1.026-.006.169-.053.334-.138.48-.044.0673-.101.1245-.168.168-.068.0434-.143.0721-.222.084l-1.8.288c-.085.0153-.171.0136-.254-.005-.084-.0185-.163-.0535-.232-.103-.071-.0446-.131-.1053-.173-.1773-.043-.072-.068-.1531-.073-.2367-.076-.5583-.035-1.1262.12-1.668.141-.4796.342-.9393.6-1.368.252-.4114.541-.799.864-1.158.318-.36.6-.696.876-1.02.246-.2894.459-.6053.636-.942.156-.2898.213-.6228.162-.948-.046-.2862-.159-.5574-.332-.7903-.172-.2329-.398-.4208-.658-.5477-.645-.3116-1.376-.4002-2.076-.252-.635.0928-1.225.3796-1.69.8211-.466.4415-.783 1.016-.908 1.6449-.036.1513-.096.2954-.18.426-.107.1139-.253.1844-.408.198l-1.896.306c-.134.0255-.272-.0025-.384-.078-.058-.0397-.107-.0913-.143-.1513s-.059-.1271-.067-.1967c-.057-.5954.036-1.1955.27-1.746.237-.6406.586-1.2339 1.032-1.752.488-.5673 1.063-1.0534 1.704-1.44.691-.4193 1.457-.7005 2.256-.828zm3.096 13.11c.082-.0131.167-.0098.248.0098.081.0195.158.055.226.1042.07.0465.13.1074.176.1788.045.0713.075.1515.088.2352l.336 2.058c.026.1669-.015.3374-.114.4744-.099.1371-.248.2296-.414.2576l-2.01.33c-.167.0258-.338-.0152-.474-.114-.07-.0471-.129-.1083-.173-.1796-.045-.0713-.074-.1512-.085-.2344l-.336-2.058c-.016-.0826-.013-.1675.006-.2491.02-.0817.056-.1583.108-.2249.047-.0696.108-.1285.179-.173.071-.0444.151-.0734.235-.085z" fill="#000" opacity=".2"/><path d="m168.6 54.4141c.082.0569.151.1298.204.2144.052.0846.087.1791.102.2776.019.0976.018.1981-.004.2952-.022.097-.063.1886-.122.2688l-1.428 2.01c-.057.0818-.13.1511-.214.2037-.085.0527-.179.0874-.278.1023-.098.0191-.198.0177-.295-.0039-.097-.0217-.189-.0633-.269-.1221l-1.968-1.398c-.082-.0561-.151-.129-.203-.2138-.051-.0848-.085-.1797-.097-.2782-.019-.0976-.018-.1981.004-.2952s.063-.1886.122-.2688l1.446-2.01c.117-.1629.293-.2732.491-.3069s.401.0119.565.1269zm8.304-13.614c.718.5029 1.357 1.1095 1.896 1.8.526.6423.933 1.3739 1.2 2.16.249.7533.333 1.5514.246 2.34-.102.8409-.42 1.6411-.924 2.322-.374.5505-.856 1.0199-1.416 1.38-.493.309-1.029.5435-1.59.696-.547.1429-1.105.2393-1.668.288l-1.596.144c-.479.0382-.953.1206-1.416.246-.427.097-.819.3134-1.128.624-.14.1419-.316.2417-.51.288-.092.0264-.189.0304-.283.0116s-.182-.0598-.257-.1196l-1.74-1.236c-.166-.1188-.28-.2972-.318-.498-.022-.0973-.022-.1986.002-.2955s.071-.1869.136-.2625c.407-.5274.914-.9681 1.494-1.296.522-.285 1.079-.5008 1.656-.642.557-.1353 1.126-.2216 1.698-.258.564-.036 1.092-.078 1.584-.126.45-.0398.895-.1283 1.326-.264.377-.1256.702-.3724.924-.702.201-.2783.331-.6009.38-.9405.049-.3395.016-.6858-.098-1.0095-.284-.7997-.826-1.4818-1.542-1.938-1.296-.924-2.71-.954-4.242-.09-.154.0981-.325.1673-.504.204-.093.0065-.187-.0056-.275-.0354-.089-.0299-.171-.077-.241-.1386l-1.848-1.314c-.067-.0444-.124-.1019-.169-.1688-.044-.067-.074-.1423-.089-.2212-.014-.0817-.012-.1654.008-.246.02-.0805.056-.1561.106-.222.436-.5587 1.003-1.0017 1.65-1.29.735-.3332 1.523-.5362 2.328-.6.886-.074 1.777-.0031 2.64.21.931.2244 1.808.6323 2.58 1.2z" fill="#516eb4"/><path d="m168.6 54.4141c.082.0569.151.1298.204.2144.052.0846.087.1791.102.2776.019.0976.018.1981-.004.2952-.022.097-.063.1886-.122.2688l-1.428 2.01c-.057.0818-.13.1511-.214.2037-.085.0527-.179.0874-.278.1023-.098.0191-.198.0177-.295-.0039-.097-.0217-.189-.0633-.269-.1221l-1.968-1.398c-.082-.0561-.151-.129-.203-.2138-.051-.0848-.085-.1797-.097-.2782-.019-.0976-.018-.1981.004-.2952s.063-.1886.122-.2688l1.446-2.01c.117-.1629.293-.2732.491-.3069s.401.0119.565.1269zm8.304-13.614c.718.5029 1.357 1.1095 1.896 1.8.526.6423.933 1.3739 1.2 2.16.249.7533.333 1.5514.246 2.34-.102.8409-.42 1.6411-.924 2.322-.374.5505-.856 1.0199-1.416 1.38-.493.309-1.029.5435-1.59.696-.547.1429-1.105.2393-1.668.288l-1.596.144c-.479.0382-.953.1206-1.416.246-.427.097-.819.3134-1.128.624-.14.1419-.316.2417-.51.288-.092.0264-.189.0304-.283.0116s-.182-.0598-.257-.1196l-1.74-1.236c-.166-.1188-.28-.2972-.318-.498-.022-.0973-.022-.1986.002-.2955s.071-.1869.136-.2625c.407-.5274.914-.9681 1.494-1.296.522-.285 1.079-.5008 1.656-.642.557-.1353 1.126-.2216 1.698-.258.564-.036 1.092-.078 1.584-.126.45-.0398.895-.1283 1.326-.264.377-.1256.702-.3724.924-.702.201-.2783.331-.6009.38-.9405.049-.3395.016-.6858-.098-1.0095-.284-.7997-.826-1.4818-1.542-1.938-1.296-.924-2.71-.954-4.242-.09-.154.0981-.325.1673-.504.204-.093.0065-.187-.0056-.275-.0354-.089-.0299-.171-.077-.241-.1386l-1.848-1.314c-.067-.0444-.124-.1019-.169-.1688-.044-.067-.074-.1423-.089-.2212-.014-.0817-.012-.1654.008-.246.02-.0805.056-.1561.106-.222.436-.5587 1.003-1.0017 1.65-1.29.735-.3332 1.523-.5362 2.328-.6.886-.074 1.777-.0031 2.64.21.931.2244 1.808.6323 2.58 1.2z" fill="#fff" opacity=".6"/><path d="m123.918 107.526h-21.318v-51.6479c0-4.4859 1.782-8.788 4.954-11.96s7.474-4.954 11.96-4.954h1.968c4.485 0 8.788 1.782 11.96 4.954s4.954 7.4741 4.954 11.96v37.2c-.008 3.8346-1.537 7.5099-4.251 10.2179-2.715 2.709-6.393 4.23-10.227 4.23z" fill="#263238"/><path d="m100.523 231.864c-.377 2.14-.5773 4.307-.5996 6.48-.078 3.936-.7979 5.334-.8939 8.562-.114 3.69.528 5.07 2.0215 7.146 1.494 2.076 5.4 3.954 7.092.45s1.446-5.802.912-9.42c-.546-3.744-.6-5.814-.936-8.664-.276-2.514-.6-4.428-.6-4.428z" fill="#263238"/><path d="m111.695 205.722-12.9596-.234c.192 8.652 1.5656 18.258 1.7996 26.4.048 1.53-.036 11.874.54 15 .87 4.728 6.474 4.086 6.774 1.26s-.36-14.904-.342-16.152c-.054-5.208 2.4-13.998 3.666-23.346.054-.45.462-2.478.522-2.928z" fill="#ffa8a7"/><path d="m128.346 225.132s-.51-.276-.6.27c-.126.648-.318 1.986-.6 3.054-.372 1.482-.684 3.924-.462 5.136s3.042 2.76 4.872 3.324c2.255.696 4.312 1.92 6 3.57 1.8 1.704 5.718 3.312 8.4 3.294 3.15 0 5.346-1.05 6.384-2.736s-.948-1.89-4.548-4.2l-2.79-1.8c-5.706-3.726-7.8-5.718-9.402-9.444z" fill="#263238"/><path d="m135.648 222.822c-.096-2.676 1.752-25.422 1.752-25.422l-12.306 5.61c2.634 15.732 3.198 19.446 3.24 22.02-.054.216-.076.438-.066.66 0 3.054 3.462 4.704 6.15 6.744 2.285 1.79 4.72 3.38 7.278 4.752 1.956.978 5.928 1.068 6.42-.186-3.276-2.502-8.04-6.246-10.644-9.102-1.272-1.344-1.728-2.394-1.824-5.076z" fill="#ffa8a7"/><path d="m104.046 121.296c-4.7277 10.374-4.7278 18.402-3.942 31.644.696 12.15 1.854 22.86 1.854 22.86-.18 2.154-3.1737 6.36-3.5637 15.888-.36 8.904.6 20.226.6 20.226s6.7257 3.726 11.6997-.036c0 0 4.8-22.914 6.204-34.062 1.2-9.726 3.36-22.152 3.36-22.152l4.542 22.086c-.98 3.134-1.691 6.345-2.124 9.6-.636 6.558 3.036 19.434 3.036 19.434s6.948 2.07 11.19-1.692c0 0 1.584-20.934 2.178-28.83.792-10.578-.876-39.21-2.178-54.372z" fill="#455a64"/><path d="m120.27 155.646 1.866-16.644s8.364-1.116 12.156-4.68c-1.086 1.698-2.532 3.136-4.235 4.213-1.704 1.076-3.624 1.764-5.623 2.015l-2.7 15.486 3.066 21.714z" fill="#263238"/><path d="m154.14 117.204c.346-3.037.498-6.093.456-9.15-.186-2.64-.66-3.072-4.35-7.746-4.98-6.318-9.234-12-13.734-17.646-3.216-4.032-6.6-4.65-9.888-4.47-2.304.126 2.196 11.208 4.458 17.766l12.918 13.908c.4.549.584 1.226.516 1.902l-.78 11.832 3.87 5.184s5.862-5.052 6.534-11.58z" fill="#ffa8a7"/><path d="m114.168 78.552c-2.502.174-7.05.6-7.05.6-2.622 1.464-3.288 2.67-3.774 6.15-.21 1.488 1.002 5.442 2.04 11.064l1.968 10.422-.216 5.172c-1.02 3.156-3.33 7.074-5.37 12.852 10.02 5.592 18.42 5.802 26.04 4.8 5.808-.75 8.886-2.154 9.912-3.546-.216-5.706-.6-9.234-.72-15.198-.042-2.502.108-5.034.21-7.914 3.894-3.204 3.942-8.532 1.8-12-4.938-7.998-9.744-13.032-12.924-12.774z" fill="#516eb4"/><path d="m114.168 78.552c-2.502.174-7.05.6-7.05.6-2.622 1.464-3.288 2.67-3.774 6.15-.21 1.488 1.002 5.442 2.04 11.064l1.968 10.422-.216 5.172c-1.02 3.156-3.33 7.074-5.37 12.852 10.02 5.592 18.42 5.802 26.04 4.8 5.808-.75 8.886-2.154 9.912-3.546-.216-5.706-.6-9.234-.72-15.198-.042-2.502.108-5.034.21-7.914 3.894-3.204 3.942-8.532 1.8-12-4.938-7.998-9.744-13.032-12.924-12.774z" fill="#fff" opacity=".6"/><path d="m129.45 103.032s-4.572 3.552-9.798 1.698c-1.467-.462-2.791-1.296-3.842-2.419-1.051-1.124-1.794-2.4999-2.158-3.995 0 0-.552 5.97 6.03 8.004 6.378 1.962 9.768-3.288 9.768-3.288z" fill="#000" opacity=".1"/><path d="m135.654 62.166c-.198 8.664-3 10.8-4.416 11.4s-4.128.24-6.768-.198v5.232s3.048 3.192 2.82 5.574-4.8 2.652-8.208.318c-1.88-1.2917-3.581-2.8271-5.058-4.566-.283-.3355-.439-.7607-.438-1.2v-12.24s-1.446 1.53-4.002-.222c-.551-.352-1.024-.8148-1.386-1.3592-.363-.5443-.609-1.1582-.722-1.8027-.113-.6444-.09-1.3053.066-1.9406.156-.6352.443-1.2311.842-1.7495 1.116-1.314 3.948-1.404 5.304.6.768 1.494.87 3 1.728 2.4 2.28-1.644 1.056-5.4 3.81-7.2.904-.4717 1.843-.8729 2.808-1.2 4.914-1.698 9.174-3.126 10.2-6.486 1.932 1.104 3.66 4.422 3.42 14.64z" fill="#ffa8a7"/><path d="m125.964 69.9061c.63 0 1.14-.5104 1.14-1.14s-.51-1.14-1.14-1.14c-.629 0-1.14.5104-1.14 1.14s.511 1.14 1.14 1.14z" fill="#b16668"/><path d="m125.208 60.852c-.001.2347-.07.4642-.199.66-.13.1959-.314.3495-.529.4418-.216.0923-.454.1193-.685.0777-.231-.0417-.445-.1501-.615-.312s-.289-.3701-.342-.5988c-.052-.2286-.037-.4678.045-.6879.081-.22.226-.4112.415-.55s.415-.2191.65-.2308c.162-.0081.325.0169.477.0735.153.0567.292.1438.41.256.118.1123.212.2474.276.397s.097.3107.097.4735z" fill="#263238"/><path d="m134.298 60.9721c.012.1468-.005.2946-.05.4347s-.118.2698-.214.3815-.214.2032-.345.269c-.132.0659-.276.1049-.423.1148-.148.0137-.298-.0043-.438-.0529-.141-.0485-.27-.1264-.378-.2285-.109-.1022-.194-.2262-.251-.3639s-.084-.2859-.079-.4347c-.015-.1479 0-.2974.044-.4393.044-.142.117-.2733.214-.3861s.216-.2046.349-.2698c.134-.0652.28-.1024.428-.1094.149-.0069.297.0165.436.069.139.0524.266.1327.373.2359s.192.2272.25.3644c.057.1371.086.2846.084.4333z" fill="#263238"/><path d="m123.666 63.936c-1.035 0-2.028-.4107-2.76-1.1419s-1.145-1.7232-1.146-2.7581c0-2.652 2.736-2.652 3.906-2.652s3.9 0 3.9 2.652c-.002 1.0339-.413 2.025-1.144 2.756s-1.722 1.1424-2.756 1.144zm0-5.94c-2.4 0-3.288.6-3.288 2.04 0 .8752.347 1.7146.966 2.3335s1.459.9665 2.334.9665 1.714-.3476 2.333-.9665.967-1.4583.967-2.3335c-.024-1.47-.948-2.04-3.312-2.04z" fill="#455a64"/><path d="m133.572 63.936c-1.035 0-2.027-.4107-2.76-1.1419-.732-.7312-1.144-1.7232-1.146-2.7581 0-2.652 2.736-2.652 3.906-2.652s3.9 0 3.9 2.652c-.002 1.0339-.413 2.025-1.144 2.756s-1.722 1.1424-2.756 1.144zm0-5.94c-2.364 0-3.288.6-3.288 2.04 0 .8752.348 1.7146.967 2.3335.618.6189 1.458.9665 2.333.9665s1.715-.3476 2.333-.9665c.619-.6189.967-1.4583.967-2.3335-.024-1.47-.948-2.04-3.312-2.04z" fill="#455a64"/><path d="m128.172 58.776.192 7.29 3.834-1.188z" fill="#f28f8f"/><path d="m124.464 73.386c-2.784-.366-8.514-2.01-9.408-4.278.359 1.1462 1.061 2.1552 2.01 2.892 1.71 1.47 7.398 3.12 7.398 3.12z" fill="#f28f8f"/><path d="m124.602 55.2361-2.544 1.554c-.201-.3493-.259-.7623-.163-1.1534s.339-.7301.679-.9466c.167-.1019.354-.1686.548-.1963.195-.0276.393-.0155.582.0355.19.051.367.14.521.2615.155.1214.283.2729.377.4453z" fill="#263238"/><path d="m134.952 56.9641-2.832-.99c.055-.1877.148-.3622.272-.5127.125-.1506.279-.2741.453-.3629.175-.0888.365-.141.56-.1535.195-.0124.391.0152.575.0811.38.1365.693.4139.874.7746.181.3608.216.7774.098 1.1634z" fill="#263238"/><path d="m127.26 60.3481c-.041 0-.081-.0081-.118-.0238-.038-.0158-.072-.0389-.1-.0679-.029-.0291-.051-.0635-.066-.1013-.015-.0379-.023-.0783-.022-.119 0-.498.984-.822 1.872-.822s1.458.324 1.458.822c-.018.0652-.058.1226-.112.1634s-.12.0629-.188.0629-.134-.0221-.188-.0629-.093-.0982-.112-.1634c0-.06-.306-.21-.84-.21-.43-.0091-.857.0642-1.26.216 0 .0418-.008.0831-.025.1214-.016.0384-.04.0729-.071.1016-.03.0287-.066.0508-.105.0651s-.081.0204-.123.0179z" fill="#455a64"/><path d="m120.078 60.0841h-.036l-6.858-.6c-.321-.3176-.703-.5667-1.122-.732l8.052.744c.08.0105.154.0521.204.116.051.0639.074.145.066.226-.015.0704-.053.1336-.109.1785-.056.045-.126.0689-.197.0675z" fill="#455a64"/><path d="m91.9198 67.2361c2.244-3.0001 3.774-5.2621 5.82-7.8001 1.164-1.458 1.908-2.5019 3.0002-3.9959.768-1.032 1.2-1.9021 2.076-2.2201.946-.3877 1.799-.9727 2.502-1.716.432-.4778.833-.9828 1.2-1.5119 1.286-1.731 2.813-3.2687 4.536-4.566 1.8-1.356 3.81-2.4001 5.664-3.6901 1.104-.774 2.286-2.058.942-3.258-.412-.3471-.906-.5845-1.434-.69-3.27-.708-6.114.414-9.312 1.23-1.389.3468-2.748.8063-4.062 1.3741-.647.2556-1.253.6032-1.8 1.032-.765.7714-1.3925 1.6684-1.8542 2.652-1.398 2.496-4.398 4.7279-6.498 6.7019-2.454 2.31-4.65 4.4281-7.452 6.9721-2.52 2.298-4.986 4.41-7.296 6.918-1.914 2.07-1.2 3.69-.948 4.254 1.56 3.204 3.306 4.356 5.4 6.342 3.6 3.438 16.05 13.332 20.1722 16.602.885.6956 1.581 1.6037 2.022 2.6399l.792 1.8301c4.704.864 7.842-6.198 3.948-14.7-.645-1.3749-1.63-2.5623-2.862-3.45-4.92-3.582-14.5562-10.95-14.5562-10.95z" fill="#ffa8a7"/><path d="m91.9199 67.2361c-1.4973 1.8419-3.4925 3.2144-5.748 3.954 0 0 3 .768 7.11-2.922z" fill="#f28f8f"/><path d="m152.916 110.946-.768-.66c-.115-.076-.246-.123-.383-.139-.136-.015-.275.001-.403.049l-8.334 2.268c-.42.14-.805.369-1.128.671-.323.303-.577.671-.744 1.081l-6 17.298c-.073.141-.101.3-.082.458.019.157.085.305.19.424l.792.684c.115.08.248.13.387.147.139.016.28-.001.411-.051l8.346-2.268c.419-.14.804-.369 1.127-.671.323-.303.577-.671.745-1.081 1.2-3.402 4.8-13.896 6-17.298.144-.426.072-.75-.156-.912z" fill="#455a64"/><path d="m135.942 132.18 6-17.298c.167-.409.421-.778.744-1.079.323-.302.708-.529 1.128-.667l8.328-2.268c.774-.21 1.2.234.924.99-1.2 3.402-4.8 13.896-6 17.298-.167.41-.421.778-.745 1.081-.323.302-.707.531-1.127.671l-8.328 2.292c-.768.18-1.182-.264-.924-1.02z" fill="#516eb4"/><path d="m142.908 113.616c-.434.328-.77.768-.972 1.272l-6 17.292c-.069.137-.098.291-.083.444s.073.299.167.42l-.744-.636c-.107-.118-.175-.265-.195-.423-.021-.158.008-.318.081-.459l6-17.298c.189-.47.497-.884.894-1.2z" fill="#37474f"/><path d="m150.63 118.83c-.6 1.758-2.682 2.934-6.126 3.75s-5.346 4.47-4.8 5.58 6.114 2.148 8.34 1.83 4.458-3.534 5.136-4.53 1.458-7.944.744-8.898-2.22-.804-2.22-.804z" fill="#f28f8f"/></svg>