<svg fill="none" height="24" viewBox="0 0 24 24" width="24" xmlns="http://www.w3.org/2000/svg"><path d="m4.27209 20.7279 6.59651-6.5965c.396-.396.5941-.5941.8224-.6682.2008-.0653.4172-.0653.618 0 .2283.0741.4264.2722.8224.6682l6.5525 6.5525m-5.6839-5.6839 2.8686-2.8686c.396-.396.5941-.5941.8224-.6682.2008-.0653.4172-.0653.618 0 .2283.0741.4264.2722.8224.6682l2.8686 2.8686m-12-6c0 1.1046-.89543 2-2 2s-2-.8954-2-2c0-1.10457.89543-2 2-2s2 .89543 2 2zm-3.2 12h10.4c1.6802 0 2.5202 0 3.162-.327.5645-.2876 1.0234-.7465 1.311-1.311.327-.6418.327-1.4818.327-3.162v-8.4c0-1.68016 0-2.52024-.327-3.16197-.2876-.56449-.7465-1.02343-1.311-1.31105-.6418-.32698-1.4818-.32698-3.162-.32698h-10.4c-1.68016 0-2.52024 0-3.16197.32698-.56449.28762-1.02343.74656-1.31105 1.31105-.32698.64173-.32698 1.48181-.32698 3.16197v8.4c0 1.6802 0 2.5202.32698 3.162.28762.5645.74656 1.0234 1.31105 1.311.64173.327 1.48181.327 3.16197.327z" stroke="#000" stroke-linecap="round" stroke-linejoin="round" stroke-width="2"/></svg>