<svg fill="none" height="19" viewBox="0 0 18 19" width="18" xmlns="http://www.w3.org/2000/svg" xmlns:xlink="http://www.w3.org/1999/xlink"><clipPath id="a"><path d="m0 .5h18v18h-18z"/></clipPath><g clip-path="url(#a)"><path d="m17.7109 9.71583c0-.60783-.059-1.23527-.1574-1.8235h-8.52335v3.47057h4.88175c-.1969 1.1176-.8465 2.098-1.811 2.7254l2.9133 2.2549c1.7125-1.5883 2.6967-3.9019 2.6967-6.62737z" fill="#4280ef"/><path d="m9.03018 18.5c2.44082 0 4.48802-.8039 5.98402-2.1764l-2.9133-2.2353c-.807.549-1.8503.8628-3.07072.8628-2.36212 0-4.35024-1.5883-5.07856-3.7059l-2.992025 2.2941c1.535385 3.0392 4.645515 4.9607 8.070585 4.9607z" fill="#34a353"/><path d="m3.95164 11.2257c-.37401-1.1177-.37401-2.33333 0-3.45096l-2.992027-2.31368c-1.279484 2.54897-1.279484 5.54894 0 8.07824z" fill="#f6b704"/><path d="m9.03018 4.0689c1.27952-.0196 2.53932.47058 3.46442 1.35292l2.5787-2.58819c-1.6338-1.52938-3.7991-2.352895-6.04312-2.333288-3.42508 0-6.5352 1.921538-8.070585 4.960688l2.992025 2.31369c.72832-2.13722 2.71644-3.70582 5.07856-3.70582z" fill="#e54335"/></g></svg>