<svg fill="none" height="25" viewBox="0 0 24 25" width="24" xmlns="http://www.w3.org/2000/svg"><path d="m9 21.5v-7.4c0-.5601 0-.8401.10899-1.054.09588-.1882.24886-.3411.43702-.437.21391-.109.49389-.109 1.05399-.109h2.8c.5601 0 .8401 0 1.054.109.1882.0959.3411.2488.437.437.109.2139.109.4939.109 1.054v7.4m-3.9823-18.236-6.78231 5.27512c-.45337.35263-.68005.52894-.84336.74974-.14466.19558-.25243.41592-.318.65019-.07403.26445-.07403.55165-.07403 1.12605v7.2349c0 1.1201 0 1.6801.21799 2.108.19174.3763.4977.6823.87403.874.42782.218.98787.218 2.10798.218h11.6c1.1201 0 1.6802 0 2.108-.218.3763-.1917.6823-.4977.874-.874.218-.4279.218-.9879.218-2.108v-7.2349c0-.5744 0-.8616-.074-1.12605-.0656-.23427-.1734-.45461-.318-.65019-.1633-.2208-.39-.39711-.8434-.74973l-6.7823-5.27513c-.3513-.27325-.527-.40988-.721-.4624-.1711-.04634-.3515-.04634-.5226 0-.194.05252-.3697.18915-.721.4624z" stroke="#000" stroke-linecap="round" stroke-linejoin="round" stroke-width="2"/></svg>