<svg fill="none" height="24" viewBox="0 0 24 24" width="24" xmlns="http://www.w3.org/2000/svg" xmlns:xlink="http://www.w3.org/1999/xlink"><clipPath id="a"><path d="m0 0h24v24h-24z"/></clipPath><g clip-path="url(#a)"><path d="m12 0c-2.37337 0-4.69345.703788-6.66684 2.02236-1.97339 1.31858-3.51146 3.19273-4.419709 5.38544-.90825157 2.19271-1.145892 4.6055-.682869 6.9333s1.605908 4.466 3.284138 6.1442 3.81643 2.8211 6.1442 3.2841c2.32778.463 4.74058.2254 6.93328-.6828 2.1927-.9083 4.0669-2.4464 5.3854-4.4198 1.3186-1.9733 2.0224-4.2934 2.0224-6.6668-.0034-3.18154-1.2688-6.23179-3.5185-8.48148s-5.3-3.51507892-8.4815-3.51852zm0 20c-.1978 0-.3911-.0586-.5556-.1685-.1644-.1099-.2926-.2661-.3683-.4488s-.0955-.3838-.0569-.5778.1338-.3722.2737-.512c.1399-.1399.318-.2351.512-.2737s.3951-.0188.5778.0569.3389.2039.4488.3683c.1099.1645.1685.3578.1685.5556 0 .2652-.1054.5196-.2929.7071s-.4419.2929-.7071.2929zm1.93-7.494c-.2951.1845-.5364.4435-.6997.7509-.1632.3073-.2427.6523-.2303 1.0001v.743c0 .2652-.1054.5196-.2929.7071s-.4419.2929-.7071.2929-.5196-.1054-.7071-.2929-.2929-.4419-.2929-.7071v-.743c-.0148-.7056.1596-1.4022.5049-2.0177.3454-.6155.8492-1.1273 1.4591-1.4823.3695-.2035.6652-.5186.8448-.90026s.2339-.81034.1552-1.22474c-.0779-.3948-.2718-.75741-.5567-1.04151-.285-.2841-.6483-.4768-1.0433-.55349-.2883-.05336-.5848-.04269-.8685.03126s-.5476.20936-.7732.39666c-.2255.18729-.4071.42188-.532.68715-.1248.26528-.1898.55476-.1903.84793 0 .26522-.10535.51957-.29289.70711-.18753.18753-.44189.29289-.7071.29289-.26522 0-.51957-.10536-.70711-.29289-.18754-.18754-.29289-.44189-.29289-.70711.00025-.70549.18708-1.39837.54155-2.00835s.86396-1.11535 1.47684-1.46486c.6128-.34951 1.3072-.53072 2.0126-.52525.7055.00547 1.397.19743 2.0043.5564.6074.35898 1.1089.87219 1.4539 1.4876.345.6154.521 1.31109.5103 2.01651-.0106.70541-.2077 1.39545-.5712 2.00015-.3634.6046-.8804 1.1024-1.4983 1.4428z" fill="#000"/></g></svg>