<svg fill="none" height="15" viewBox="0 0 15 15" width="15" xmlns="http://www.w3.org/2000/svg"><path d="m0 7.5c0-4.14258 3.35742-7.5 7.5-7.5 4.1426 0 7.5 3.35742 7.5 7.5 0 4.1426-3.3574 7.5-7.5 7.5-4.14258 0-7.5-3.3574-7.5-7.5zm5.12695-1.40332 1.37989 1.37695-1.37989 1.40332c-.27246.27539-.27246.72071 0 .96973.27539.29882.72071.29882.96973 0l1.37695-1.35352 1.40332 1.35352c.27539.29882.72071.29882.96973 0 .29882-.24902.29882-.69434 0-.96973l-1.35352-1.40332 1.35352-1.37695c.29882-.24902.29882-.69434 0-.96973-.24902-.27246-.69434-.27246-.96973 0l-1.40332 1.37989-1.37695-1.37989c-.24902-.27246-.69434-.27246-.96973 0-.27246.27539-.27246.72071 0 .96973z" fill="#ff5151"/></svg>