<svg fill="none" height="24" viewBox="0 0 24 24" width="24" xmlns="http://www.w3.org/2000/svg" xmlns:xlink="http://www.w3.org/1999/xlink"><clipPath id="a"><path d="m0 0h24v24h-24z"/></clipPath><g clip-path="url(#a)"><path d="m7.5 13c-.89002 0-1.76005-.2639-2.50007-.7584-.74002-.4944-1.31679-1.1973-1.65739-2.0195-.34059-.82229-.42971-1.72709-.25607-2.6.17363-.87292.60221-1.67474 1.23155-2.30408.62934-.62933 1.43116-1.05792 2.30407-1.23155.87292-.17363 1.77772-.08452 2.59999.25607.82222.3406 1.52502.91738 2.01952 1.6574s.7584 1.61005.7584 2.50006c-.0013 1.19307-.4759 2.3369-1.3195 3.1805-.84361.8436-1.98743 1.3182-3.1805 1.3195zm6.5 11h-13c-.265216 0-.51957-.1054-.707107-.2929-.187536-.1875-.292893-.4419-.292893-.7071v-.5c0-1.9891.790176-3.8968 2.1967-5.3033 1.40652-1.4065 3.31418-2.1967 5.3033-2.1967s3.8968.7902 5.3033 2.1967 2.1967 3.3142 2.1967 5.3033v.5c0 .2652-.1054.5196-.2929.7071s-.4419.2929-.7071.2929zm3.5-15c-.89 0-1.76-.26392-2.5001-.75838-.74-.49447-1.3168-1.19727-1.6574-2.01954s-.4297-1.72707-.256-2.59998c.1736-.87292.6022-1.67474 1.2315-2.30408.6294-.629335 1.4312-1.057918 2.3041-1.2315517.8729-.1736335 1.7777-.08451851 2.6.2560757.8222.340595 1.525.917366 2.0195 1.657396.4945.74002.7584 1.61005.7584 2.50006-.0013 1.19307-.4759 2.33689-1.3195 3.18052s-1.9874 1.31816-3.1805 1.31948zm-1.421 2.021c-.9314.125-1.8269.4409-2.6305.9281-.8036.4871-1.4979 1.1349-2.0395 1.9029 2.2409 1.0177 4.0016 2.8622 4.914 5.148h6.677c.2652 0 .5196-.1054.7071-.2929s.2929-.4419.2929-.7071v-.038c-.001-.9968-.2147-1.9819-.6267-2.8895-.4121-.9077-1.013-1.717-1.7627-2.3739-.7497-.657-1.6309-1.1464-2.5848-1.4357s-1.9585-.3718-2.9468-.2419z" fill="#000"/></g></svg>