<svg fill="none" height="18" viewBox="0 0 18 18" width="18" xmlns="http://www.w3.org/2000/svg" xmlns:xlink="http://www.w3.org/1999/xlink"><clipPath id="a"><path d="m0 0h18v18h-18z"/></clipPath><g clip-path="url(#a)" fill="#516eb4"><path d="m10.3837 12.9503-2.4465 2.4465c-.7103.6914-1.66424 1.0752-2.65541 1.0686-.99117-.0067-1.93987-.4033-2.64085-1.1041-.70098-.7007-1.09787-1.6493-1.10479-2.6405s.37668-1.9452 1.0678-2.6557l2.44651-2.44876c.14063-.14073.21959-.33156.21952-.53052-.00007-.19895-.07917-.38972-.2199-.53036-.14073-.14063-.33156-.21959-.53052-.21952-.19895.00007-.38972.07917-.53036.2199l-2.44575 2.44875c-.988292.98879-1.54331319 2.32971-1.54296155 3.72771s.55604755 2.7386 1.54484155 3.7269c.98879.9883 2.32969 1.5433 3.7277 1.543 1.39801-.0004 2.73863-.5561 3.72692-1.5449l2.44655-2.4465c.1366-.1414.2122-.3309.2105-.5275-.0017-.1967-.0806-.3848-.2197-.5238-.139-.1391-.3271-.218-.5238-.2197-.1966-.0017-.3861.0739-.5275.2105z"/><path d="m16.4579 1.54577c-.4881-.49139-1.0688-.881043-1.7085-1.146379-.6397-.265337-1.3257-.40108334-2.0183-.39937252-.6922-.0018388-1.3779.13355852-2.0174.39836352-.6396.264805-1.22029.653768-1.70859 1.144388l-2.45025 2.44725c-.14073.14063-.21983.33141-.2199.53036s.0789.38978.21953.53051.33141.21984.53036.21991.38978-.0789.53051-.21953l2.44874-2.4465c.3492-.35126.7646-.62977 1.2221-.81941.4575-.18963.9481-.28662 1.4434-.28534.7457.00025 1.4746.22157 2.0945.636.62.41442 1.1031 1.00335 1.3884 1.69231.2853.68897.3599 1.44705.2144 2.17842s-.5045 1.40318-1.0318 1.93052l-2.4465 2.44653c-.1407.1407-.2198.3316-.2198.5306s.0791.3899.2198.5306c.1407.1408.3316.2198.5306.2198.1991 0 .3899-.079.5307-.2198l2.4465-2.44498c.987-.98918 1.5414-2.32942 1.5417-3.72682.0003-1.39739-.5536-2.73786-1.5402-3.72743z"/><path d="m10.7197 6.21981-4.50001 4.49999c-.07163.0692-.12877.152-.16808.2435-.0393.0915-.05999.1899-.06086.2895-.00086.0995.01811.1983.05582.2905.03771.0921.0934.1759.16382.2463s.15416.1261.24633.1638c.09218.0377.19093.0567.29052.0558.09958-.0008.198-.0215.2895-.0608.09151-.0393.17426-.0965.24345-.1681l4.50001-4.49999c.1366-.14145.2122-.3309.2105-.52755s-.0806-.38476-.2196-.52381c-.1391-.13906-.3272-.21794-.5239-.21964-.1966-.00171-.3861.07388-.5275.2105z"/></g></svg>