<svg fill="none" height="24" viewBox="0 0 24 24" width="24" xmlns="http://www.w3.org/2000/svg"><path d="m19 8.424v-1.42402c0-3.86596-3.134-6.99998-7-6.99998-3.86603 0-7 3.13402-7 6.99998v1.42402c-1.81997.7943-2.99737 2.5903-3 4.576v6c.00328 2.76 2.23992 4.9967 4.99997 5h10.00003c2.76-.0033 4.9966-2.24 5-5v-6c-.0026-1.9857-1.1801-3.7817-3-4.576zm-6 8.576c0 .5523-.4477 1-1 1s-1-.4477-1-1v-2c0-.5523.4477-1 1-1s1 .4477 1 1zm4-8.99998h-10.00003v-.99999c0-2.76141 2.23856-5.00001 5.00003-5.00001 2.7614 0 5 2.23856 5 5.00001z" fill="#000"/></svg>