<svg enable-background="new 0 0 512 512" height="512" viewBox="0 0 512 512" width="512" xmlns="http://www.w3.org/2000/svg"><path d="m170.698 448h-97.941c-4.814-.012-8.714-3.911-8.725-8.725v-366.55c.012-4.814 3.911-8.714 8.725-8.725h97.941c17.673 0 32-14.327 32-32s-14.327-32-32-32h-97.941c-40.146.047-72.678 32.58-72.725 72.725v366.549c.047 40.146 32.579 72.679 72.725 72.726h97.941c17.673 0 32-14.327 32-32s-14.327-32-32-32z"/><path d="m483.914 188.117-82.816-82.752c-12.501-12.495-32.764-12.49-45.259.011s-12.49 32.764.011 45.259l72.789 72.768-289.941.597c-17.673 0-32 14.327-32 32s14.327 32 32 32l291.115-.533-73.963 73.963c-12.042 12.936-11.317 33.184 1.618 45.226 12.295 11.445 31.346 11.436 43.63-.021l82.752-82.752c37.491-37.49 37.491-98.274.001-135.764 0 0-.001-.001-.001-.001z"/></svg>