<svg fill="none" height="70" viewBox="0 0 70 70" width="70" xmlns="http://www.w3.org/2000/svg"><path d="m59.2846 64.1422c13.5271-7.8096 13.5271-20.4733 0-28.2844-13.527-7.8111-35.4617-7.8097-48.9903 0-13.52856 7.8096-13.52707 20.4748 0 28.2844 13.5271 7.8097 35.4618 7.8111 48.9903 0z" fill="#f5f5f5"/><path d="m57.2012 40.7694c0-.0182 0-.0364 0-.056s0 0 0-.0098c-.0024-.0405-.0076-.0807-.0154-.1204 0-.0084 0-.0168-.007-.0252v-.0196c-.012-.0455-.0275-.0899-.0462-.133-.0031-.0101-.0068-.0199-.0112-.0294-.0193-.0408-.0408-.0806-.0644-.119l-.021-.0364c-.0252-.0364-.0518-.0728-.0812-.1092l-.0322-.0406c-.0266-.0308-.056-.0602-.0868-.0896l-.0098-.0098c-.0154-.014-.028-.0294-.0448-.0434s-.0756-.063-.1176-.0952l-.0476-.0378c-.0602-.0434-.1246-.084-.1932-.1246l-1.3412-.7742-.2086-.1204c-.0658-.0378-.133-.0728-.2044-.1064-1.057-.497-2.6152-.462-3.6008.1064l-8.239 4.76-.3192.1848-1.26.7266-.616.3556-4.466 2.5788-1.6422.9478c-.1484.0868-.2968.1792-.4452.28-1.5554 1.0402-3.087 2.7692-4.8384 4.3666-.42.3808-.84.7532-1.2908 1.1074-.3556.28-.7224.56-1.1004.8106l-2.121 1.4266-1.337.8974-1.96 1.309-2.8826 1.659-.0336.021c-.102.0581-.1903.1376-.2587.2331-.0684.0954-.1153.2046-.1375.3199v.0266.0322c-.0021.0321-.0021.0644 0 .0966.0003.1361.0347.2699.1.3893s.1594.2205.2739.2942c.1144.0736.2455.1174.3812.1274s.2717-.0142.3957-.0703l.0392-.0224 2.87-1.666h.007s2.7902-1.3902 6.314-3.136 8.9866-1.9684 11.3666-3.3432l14.8764-8.596c.6188-.357 1.1816-.6846 1.6688-.9632.0658-.0392.1274-.0784.1848-.119.4018-.28.6034-.6328.6034-.98z" fill="#e0e0e0"/><path d="m67.6548 44.9119-.0084-.0644c0-.0373-.0056-.0751-.0168-.1134l-.0168-.0798c0-.0294-.014-.0588-.0224-.0882s-.0168-.0602-.0266-.091-.0112-.028-.0154-.0434c-.0469-.1303-.1069-.2556-.1792-.3738.0007-.0037.0007-.0075 0-.0112-.2547-.4127-.6511-.7183-1.1151-.8595-.4639-.1412-.9634-.1084-1.4049.0923l-.0938.0546-27.1264 15.6534s-.3556.1904-.7154.399c-.945.546-.812 1.8326-1.5988 2.2904-.441.2576-.6524.3766-1.2236.707l-4.06 2.3492-.0336.021c-.1021.0593-.1901.1401-.2578.2368s-.1135.207-.1342.3232v.0252c-.0005.0108-.0005.0215 0 .0322-.0044.0325-.0068.0653-.007.098.0004.2159.0864.4228.2392.5753.1527.1525.3598.2381.5756.2381.1165.0001.2317-.0253.3374-.0742l.0378-.021 5.46-3.1528c.1666-.0952.4802-.0826.8624-.0616l.4018.0196c.56.021 1.1914 0 1.7108-.301l27.3546-15.813.0406-.0252.042-.0252c.149-.0862.2864-.1912.4088-.3122.0614-.0598.1184-.1239.1708-.1918.0535-.0677.1026-.1388.147-.2128.1825-.3067.2792-.6567.28-1.0136-.0028-.063-.007-.1246-.0126-.1862z" fill="#e0e0e0"/><path d="m22.1773 55.1597-9.4234-5.4404c-1.0052-.5796-1.0052-1.5204 0-2.1l7.2464-4.1846c1.0038-.5796 2.632-.5796 3.64 0l9.4234 5.4404c1.0038.581 1.0038 1.5204 0 2.1l-7.2464 4.1846c-1.008.5796-2.6362.5796-3.64 0z" fill="#e0e0e0"/><path d="m65.0849 42c-.286-.0005-.5688.0611-.8288.1806l-.0938.0532-27.1138 15.6534s-.3542.1918-.714.399c-.9464.546-.8134 1.8326-1.6002 2.2904-.441.2576-.6524.3766-1.2236.707l.7504 1.4434 1.3902-.8022c.4424-.2562 1.9376.2562 2.975-.3444l27.3714-15.8018.0826-.0504c.3819-.219.6806-.558.8498-.9643.1692-.4064.1994-.8572.0859-1.2825-.1136-.4252-.3645-.8011-.7137-1.069s-.7772-.4129-1.2174-.4124z" fill="#516eb4"/><path d="m65.0849 42c-.286-.0005-.5688.0611-.8288.1806l-.0938.0532-27.1138 15.6534s-.3542.1918-.714.399c-.9464.546-.8134 1.8326-1.6002 2.2904-.441.2576-.6524.3766-1.2236.707l.7504 1.4434 1.3902-.8022c.4424-.2562 1.9376.2562 2.975-.3444l27.3714-15.8018.0826-.0504c.3819-.219.6806-.558.8498-.9643.1692-.4064.1994-.8572.0859-1.2825-.1136-.4252-.3645-.8011-.7137-1.069s-.7772-.4129-1.2174-.4124z" fill="#fff" opacity=".8"/><path d="m66.2651 44.6627-2.38-1.3734-27.3714 15.8018v.1932l2.38 1.3748 27.3714-15.8032z" fill="#e0e0e0"/><path d="m36.5137 59.0913 2.38 1.3748v.1932l-2.38-1.3748z" fill="#000" opacity=".1"/><path d="m36.5137 59.0911 2.38 1.3748 27.3714-15.8032-2.38-1.3734z" fill="#fafafa"/><path d="m53.5841 50.5889-.609-.3514-.343-.1988c-.0042-.0025-.0088-.0041-.0137-.0047-.0048-.0006-.0097-.0003-.0144.001s-.0091.0036-.013.0066c-.0038.003-.0069.0068-.0093.0111-.0046.0086-.0057.0186-.0031.028s.0087.0174.0171.0224l.952.5488.0588.035.343.1974c.0059.002.0123.002.0182 0 .0065-.0001.0128-.0019.0184-.0051.0056-.0031.0104-.0076.0138-.0131.0025-.0042.0041-.0089.0047-.0137.0007-.0048.0003-.0098-.001-.0145s-.0035-.0091-.0066-.0129c-.003-.0038-.0068-.007-.0111-.0093zm-12.684 7.3262-.6146-.3514-.343-.1988c-.0085-.0048-.0186-.0061-.0281-.0034-.0094.0026-.0175.0089-.0223.0174s-.006.0186-.0034.0281.0089.0175.0174.0223l.952.5488.0588.035.343.1974c.0059.0018.0123.0018.0182 0 .0065-.0001.0128-.0019.0184-.0051.0056-.0031.0104-.0076.0138-.0131.0025-.0042.0041-.0089.0047-.0137.0007-.0048.0003-.0098-.001-.0145s-.0035-.0091-.0066-.0129c-.003-.0038-.0068-.007-.0111-.0093zm9.1-5.7316c-.0086-.0046-.0186-.0057-.028-.0031s-.0174.0087-.0224.0171c-.0045.0084-.0056.0182-.003.0274.0026.0091.0087.0169.017.0216l.343.1988.1274.0728.343.1988c.006.0013.0122.0013.0182 0 .0065-.0001.0128-.0019.0184-.0051.0056-.0031.0104-.0076.0138-.0131.0025-.0042.0041-.0089.0047-.0137.0007-.0048.0003-.0098-.001-.0145s-.0035-.0091-.0066-.0129c-.003-.0038-.0068-.007-.0111-.0093zm-2.7608 2.0678-.609-.3514-.343-.1974c-.0084-.0047-.0183-.0061-.0277-.0037-.0094.0023-.0175.0082-.0227.0163-.0025.0042-.004.0089-.0047.0137-.0006.0048-.0003.0098.001.0145s.0036.0091.0066.0129c.0031.0038.0068.007.0111.0093l.952.5502.0588.035.343.1974c.006.0013.0122.0013.0182 0 .0065.0001.0129-.0015.0186-.0047s.0104-.0079.0136-.0135c.0046-.0086.0058-.0186.0031-.028-.0026-.0094-.0087-.0174-.0171-.0224zm12.7484-7.2912-.6678-.3864-.3416-.1974c-.0084-.0047-.0183-.0061-.0277-.0037-.0094.0023-.0175.0082-.0227.0163-.0024.0042-.004.0089-.0047.0137-.0006.0049-.0003.0098.001.0145s.0036.0091.0066.0129c.0031.0038.0068.007.0111.0093l1.3538.7826c.006.0014.0122.0014.0182 0 .0065.0001.0129-.0015.0186-.0047s.0104-.0079.0136-.0135c.0046-.0084.0056-.0182.003-.0274-.0026-.0091-.0087-.0169-.017-.0216zm-16.3324 8.8858c-.0042-.0024-.0089-.0039-.0137-.0045s-.0097-.0002-.0144.0011-.009.0035-.0129.0065c-.0038.003-.007.0067-.0094.0109s-.0039.0089-.0045.0137-.0002.0097.0011.0144.0035.0091.0065.0129.0067.007.0109.0094l.343.1974.6776.3906.343.1988c.006.0013.0122.0013.0182 0 .0065-.0001.0128-.0019.0184-.0051.0056-.0031.0104-.0076.0138-.0131.0025-.0042.0041-.0089.0047-.0137.0007-.0048.0003-.0098-.001-.0145s-.0035-.0091-.0066-.0129c-.003-.0038-.0068-.007-.0111-.0093zm20.398-10.2018-.952-.5502-.0686-.0392-.343-.1974c-.0042-.0025-.0088-.0041-.0137-.0047-.0048-.0006-.0097-.0003-.0144.001s-.0091.0036-.013.0066c-.0038.003-.0069.0068-.0093.0111-.0024.0041-.004.0087-.0046.0134s-.0003.0095.001.0141c.0014.0046.0036.0089.0066.0126s.0068.0067.011.0089l.4102.238.6104.3514.343.1974c.0059.002.0123.002.0182 0 .0063-.0001.0124-.0019.0178-.0051.0054-.0031.0099-.0077.013-.0131.0032-.0078.0037-.0164.0014-.0246-.0023-.0081-.0072-.0152-.014-.0202zm-7.2968 3.1136-.0686-.0392-.343-.1974c-.004-.0027-.0086-.0046-.0135-.0054-.0048-.0009-.0097-.0007-.0145.0005-.0047.0012-.0092.0034-.013.0064-.0039.003-.0071.0068-.0094.0111-.0025.0042-.004.0089-.0047.0137-.0006.0049-.0003.0098.001.0145s.0036.0091.0066.0129c.0031.0038.0068.007.0111.0093l.4116.2366.609.3514.343.1988c.0086.0048.0187.0061.0281.0034.0095-.0026.0175-.0089.0223-.0174s.0061-.0186.0035-.0281c-.0027-.0094-.0089-.0175-.0175-.0223zm-18.06 9.7216c-.0084-.0047-.0183-.0061-.0277-.0037-.0094.0023-.0175.0082-.0227.0163-.0025.0042-.004.0089-.0047.0137-.0006.0049-.0003.0098.001.0145s.0036.0091.0066.0129c.0031.0038.0068.007.0111.0093l1.218.7c.006.0013.0122.0013.0182 0 .0065-.0001.0128-.0019.0184-.0051.0056-.0031.0104-.0077.0138-.0131.0046-.0086.0058-.0186.0031-.028-.0026-.0094-.0087-.0174-.0171-.0224zm3.1724-1.8326c-.0042-.0024-.0089-.0039-.0137-.0045s-.0097-.0002-.0144.0011-.009.0035-.0129.0065c-.0038.003-.007.0067-.0094.0109s-.0039.0089-.0045.0137-.0002.0097.0011.0144.0035.0091.0065.0129.0067.007.0109.0094l1.218.7c.0059.0018.0123.0018.0182 0 .0065-.0001.0128-.0019.0184-.0051.0056-.0031.0104-.0076.0138-.0131.0025-.0042.0041-.0089.0047-.0137.0007-.0048.0003-.0098-.001-.0145s-.0035-.0091-.0066-.0129c-.003-.0038-.0068-.007-.0111-.0093zm15.8648-9.163c-.0042-.0025-.0088-.0041-.0137-.0047-.0048-.0006-.0097-.0003-.0144.001s-.0091.0036-.013.0066c-.0038.003-.0069.0068-.0093.0111-.0047.0084-.0061.0183-.0037.0277.0023.0094.0082.0175.0163.0227l1.2194.7c.0059.002.0123.002.0182 0 .0065-.0001.0128-.0019.0184-.0051.0056-.0031.0104-.0076.0138-.0131.0046-.0086.0058-.0186.0031-.028-.0026-.0094-.0087-.0174-.0171-.0224zm3.171-1.82c-.0041-.0024-.0086-.004-.0134-.0046-.0047-.0006-.0095-.0003-.0141.001s-.0089.0036-.0126.0066c-.0036.003-.0067.0068-.0089.011-.0046.0082-.0059.0179-.0036.027.0024.0092.0082.0171.0162.022l1.2194.7c.006.0014.0122.0014.0182 0 .0065.0001.0129-.0015.0186-.0047s.0104-.0079.0136-.0135c.0046-.0084.0056-.0182.003-.0274-.0026-.0091-.0087-.0169-.017-.0216zm-6.3434 3.6638c-.004-.0027-.0086-.0046-.0135-.0054-.0048-.0009-.0097-.0007-.0145.0005-.0047.0012-.0092.0034-.013.0064-.0039.003-.0071.0068-.0094.0111-.0047.0084-.0061.0183-.0037.0277.0023.0094.0082.0175.0163.0227l1.2194.7c.0059.0018.0123.0018.0182 0 .0065-.0001.0128-.0019.0184-.0051.0056-.0031.0104-.0076.0138-.0131.0025-.0042.0041-.0089.0047-.0137.0007-.0048.0003-.0098-.001-.0145s-.0035-.0091-.0066-.0129c-.003-.0038-.0068-.007-.0111-.0093zm-3.1724 1.8312c-.0084-.0047-.0183-.0061-.0277-.0037-.0094.0023-.0175.0082-.0227.0163-.0024.0042-.004.0089-.0047.0137-.0006.0049-.0003.0098.001.0145s.0036.0091.0066.0129c.0031.0038.0068.007.0111.0093l1.218.7c.006.0013.0122.0013.0182 0 .0065-.0001.0128-.0019.0184-.0051.0056-.0031.0104-.0076.0138-.0131.0046-.0086.0058-.0186.0031-.028-.0026-.0094-.0087-.0174-.0171-.0224zm-6.3448 3.6568c-.0042-.0024-.0089-.0039-.0137-.0045s-.0097-.0002-.0144.0011-.009.0035-.0129.0065c-.0038.003-.007.0067-.0094.0109s-.0039.0089-.0045.0137-.0002.0097.0011.0144.0035.0091.0065.0129.0067.007.0109.0094l1.218.7c.006.0012.0122.0012.0182 0 .0065-.0001.0128-.0019.0184-.0051.0056-.0031.0104-.0076.0138-.0131.0025-.0042.0041-.0089.0047-.0137.0007-.0048.0003-.0098-.001-.0145s-.0035-.0091-.0066-.0129c-.003-.0038-.0068-.007-.0111-.0093zm3.1724-1.8312c-.0042-.0025-.0088-.0041-.0137-.0047-.0048-.0006-.0097-.0003-.0144.001s-.0091.0036-.013.0066c-.0038.003-.0069.0068-.0093.0111-.0024.0041-.004.0087-.0046.0134s-.0003.0095.001.0141c.0014.0046.0036.0089.0066.0126s.0068.0067.011.0089l1.218.7c.006.0013.0122.0013.0182 0 .0065.0001.0129-.0015.0186-.0047s.0104-.0079.0136-.0135c.0025-.0041.004-.0087.0047-.0134.0006-.0047.0002-.0095-.0011-.0141s-.0035-.0089-.0066-.0126c-.003-.0037-.0067-.0067-.011-.0089z" fill="#455a64"/><g fill="#000"><path d="m41.7065 58.4612c-.0201-.0117-.0418-.0202-.0644-.0252-.0223-.0035-.045-.0035-.0672 0-.0233.0014-.0464.0057-.0686.0126-.0231.0071-.0452.017-.0658.0294l-.0126.007-.0224-.1638h-.0098c-.0042-.0028-.0091-.0043-.014-.0043-.005 0-.0099.0015-.014.0043l-.2324.14c-.0098 0-.0084.0098 0 .0154h.0098c.0041.0027.009.0042.014.0042.0049 0 .0098-.0015.014-.0042l.1876-.1078.0224.161c.0023.0005.0047.0005.007 0h.0084c.0041.0027.009.0042.014.0042.0049 0 .0098-.0015.014-.0042l.0546-.0322c.0293-.0168.0617-.0277.0952-.0322.0328-.0022.0654.0056.0938.0224.0127.0067.0237.0163.0322.028.0031.0044.0054.0094.0066.0146.0012.0053.0013.0108.0004.0162-.0034.0112-.0097.0213-.0182.0294-.0112.011-.024.0205-.0378.028-.0121.0071-.0247.0132-.0378.0182l-.042.014c-.0158.0021-.0319.0021-.0476 0-.0169 0-.0335-.0034-.049-.0098-.0065-.0011-.0132-.0011-.0196 0h-.0126-.0084c-.0007.001-.001.0022-.001.0035 0 .0012.0003.0024.001.0035v.007c.0155.0087.0326.0144.0504.0168.0209.0021.042.0021.063 0 .0493-.0037.0972-.0185.14-.0434.0186-.0106.0356-.0238.0504-.0392.0111-.0117.0189-.0263.0224-.042.0021-.0148-.0014-.0298-.0098-.042-.0134-.0128-.0291-.0228-.0462-.0294zm.392-.1708c-.0142-.0179-.0318-.0327-.0518-.0434-.0227-.0132-.0472-.0227-.0728-.028-.0248-.0058-.0502-.0082-.0756-.007-.0252.0014-.05.0056-.0742.0126-.0233.007-.0459.0164-.0672.028-.0179.0087-.0336.0211-.0462.0364-.0049.007-.0091.0145-.0126.0224l-.1274-.0882.1778-.1036c.0098 0 .0098-.0112 0-.0154h-.0098c-.004-.0027-.0086-.0041-.0133-.0041-.0048 0-.0094.0014-.0133.0041l-.203.1162c-.0084 0-.0084.0098 0 .0168l.1848.1274c.0041.0027.009.0042.014.0042.0049 0 .0098-.0015.014-.0042h.0112c.0027-.0014.0052-.0034.0071-.0058.002-.0024.0033-.0052.0041-.0082-.0005-.0061-.0005-.0122 0-.0182.0029-.0077.0071-.0149.0126-.021.0083-.0111.0194-.0198.0322-.0252.0154-.0099.0325-.017.0504-.021.0177-.0054.036-.0087.0546-.0098.0181-.0021.0364-.0021.0546 0 .0186.0035.0366.0102.0532.0196.0146.0081.0274.019.0378.0322.0065.0094.01.0207.0098.0322-.0014.0118-.0063.0231-.014.0322-.0103.0119-.0226.0219-.0364.0294-.0118.0072-.0246.0129-.0378.0168-.014.0053-.0286.0087-.0434.0098-.0158.0021-.0319.0021-.0476 0-.0172-.0018-.0342-.0055-.0504-.0112h-.0182-.0112l-.0112.007s-.007 0-.007.007c.0166.0087.0346.0149.0532.0182.0459.0118.094.0118.14 0 .0247-.006.0484-.0159.07-.0294.0188-.0096.0359-.0224.0504-.0378.011-.012.0179-.0272.0196-.0434.0034-.0162.001-.0331-.007-.0476z"/><path d="m43.3485 55.7507c-.0197-.0122-.0416-.0207-.0644-.0252-.0222-.0034-.0449-.0034-.0672 0-.0232.0015-.0463.0058-.0686.0126-.023.0072-.0451.0171-.0658.0294l-.0126.007-.0224-.1638h-.0098c-.0041-.0027-.009-.0042-.014-.0042-.0049 0-.0098.0015-.014.0042l-.2324.14c-.0098 0-.0084.0112 0 .0168h.0098c.0042.0028.0091.0043.014.0043.005 0 .0099-.0015.014-.0043l.1876-.1092.0224.1624h.0084c.0042.0028.0091.0043.014.0043.005 0 .0099-.0015.014-.0043l.0546-.0322c.0292-.0173.0616-.0282.0952-.0322.0329-.0028.0658.005.0938.0224.0131.0063.0242.016.0322.028.0031.0042.0053.009.0065.014.0012.0051.0014.0103.0005.0154-.003.0118-.0093.0225-.0182.0308-.0112.0111-.0239.0206-.0378.028-.012.0072-.0246.0133-.0378.0182-.0135.0057-.0276.0099-.042.0126-.0158.0022-.0318.0022-.0476 0-.0167-.0007-.0332-.004-.049-.0098-.0064-.001-.0131-.001-.0196 0h-.0126-.0084c-.0006.0011-.0009.0023-.0009.0035 0 .0013.0003.0025.0009.0035v.007c.0158.0083.0328.014.0504.0168.021.0022.0421.0022.063 0 .0238-.0015.0472-.0058.07-.0126.0248-.0079.0487-.0182.0714-.0308.0187-.0105.0357-.0237.0504-.0392.0112-.0116.019-.0262.0224-.042.0022-.0147-.0013-.0297-.0098-.042-.0116-.0121-.0254-.0221-.0406-.0294zm.3948-.1862c-.0122-.0145-.0269-.0268-.0434-.0364-.0201-.0114-.0418-.0199-.0644-.0252-.0245-.0073-.05-.0111-.0756-.0112-.0268-.0006-.0536.0022-.0798.0084-.0275.0063-.0539.0167-.0784.0308l-.021.014-.0154.0126-.0392-.1288h-.014c-.0019-.0009-.0041-.0015-.0063-.0015-.0021 0-.0043.0006-.0063.0015h-.0126s-.0084.007 0 .0112 0 0 0 .0084l.049.1694c.002.0063.0043.0123.007.0182.0035.0079.0077.0154.0126.0224l.021.0238c.0096.0085.0199.016.0308.0224.0201.0106.0412.019.063.0252.0248.0065.0501.0103.0756.0112.0273 0 .0545-.0029.0812-.0084.027-.0067.0529-.017.077-.0308.0213-.0102.0396-.0256.0532-.0448.0099-.0134.0152-.0295.0154-.0462-.0044-.0182-.0148-.0344-.0294-.0462zm-.0504.0854c-.01.0112-.0219.0207-.035.028-.0155.0087-.0319.0158-.049.021-.0188.0043-.038.0071-.0574.0084-.0195.0028-.0393.0028-.0588 0-.0196-.004-.0385-.0111-.056-.021-.0149-.0082-.0278-.0197-.0378-.0336-.0064-.01-.0098-.0216-.0098-.0336.002-.0119.0073-.0231.0154-.0322.0098-.0119.0216-.0218.035-.0294.0155-.0084.032-.015.049-.0196.0182-.0055.0371-.0083.056-.0084.0195-.0027.0393-.0027.0588 0 .0201.0043.0394.0114.0574.021.0143.0086.0271.0195.0378.0322.0066.0105.0096.0228.0084.035.0013.0113-.0012.0226-.007.0322z"/><path d="m48.078 54.7834c-.02-.012-.0417-.021-.0644-.0266-.0228-.0028-.0458-.0028-.0686 0-.0228.0015-.0454.0057-.0672.0126-.023.0072-.0451.0171-.0658.0294h-.0126l-.0224-.1652h-.0084c-.0044-.0027-.0095-.0041-.0147-.0041s-.0103.0014-.0147.0041l-.231.133c-.0103.0056-.0103.0112 0 .0168h.0098c.0041.0021.0087.0032.0133.0032s.0092-.0011.0133-.0032l.1876-.1092.0238.161h.007.0084c.0044.0022.0091.0032.014.0032.0048 0 .0096-.001.014-.0032l.0546-.0322c.029-.0175.0615-.0285.0952-.0322.0329-.0028.0658.005.0938.0224.013.0063.0241.016.0322.028.002.0047.003.0097.003.0147 0 .0051-.001.0101-.003.0147-.0023.0114-.0082.0217-.0168.0294-.0118.0115-.0249.0214-.0392.0294l-.0364.0182c-.014.0057-.0286.0099-.0434.0126h-.0462c-.0172-.0005-.0342-.0038-.0504-.0098-.0059-.0018-.0123-.0018-.0182 0h-.0126-.0084c-.0006.0011-.0009.0023-.0009.0035 0 .0013.0003.0025.0009.0035.016.0077.033.0134.0504.0168.0209.0029.0421.0029.063 0 .0237-.0015.0472-.0058.07-.0126.0251-.007.0491-.0173.0714-.0308.0189-.01.036-.0233.0504-.0392.0108-.0113.0186-.0253.0224-.0406.0014-.0147-.002-.0294-.0098-.042-.0139-.0048-.0287-.0067-.0434-.0056zm.2632-.028-.2156-.3066-.007-.0084-.0112-.007h-.0098c-.0042-.0027-.009-.0042-.014-.0042s-.0099.0015-.014.0042l-.2408.14c-.0084 0-.0084.0098 0 .0154h.0084c.0041.0028.009.0043.014.0043s.0098-.0015.014-.0043l.2114-.1218.2198.3108h.0126.0126l.014-.007s0 0 0-.0098z"/><path d="m49.6821 52.094c-.0204-.011-.042-.0195-.0644-.0252-.0223-.0034-.045-.0034-.0672 0-.0233.0015-.0463.0057-.0686.0126-.0231.0072-.0451.0171-.0658.0294l-.0126.007-.0224-.1638h-.0098c-.0042-.0027-.009-.0042-.014-.0042s-.0099.0015-.014.0042l-.2324.14c-.0098 0-.0098.0098 0 .0154h.0098c.0039.0027.0085.0041.0133.0041.0047 0 .0093-.0014.0133-.0041l.189-.1078.0224.161c.0023.0006.0047.0006.007 0h.0084c.0041.0028.009.0043.014.0043s.0098-.0015.014-.0043l.0546-.0308c.0287-.0181.0613-.0291.0952-.0322.0327-.0034.0656.004.0938.021.0127.0068.0237.0163.0322.028.0031.0044.0054.0094.0066.0147s.0013.0108.0004.0161c-.0034.0112-.0097.0214-.0182.0294-.0112.0111-.024.0205-.0378.028-.0121.0072-.0247.0133-.0378.0182l-.042.014c-.0158.0022-.0318.0022-.0476 0-.0173.0002-.0345-.0032-.0504-.0098-.006-.0011-.0122-.0011-.0182 0h-.0126-.0084c-.0006.0011-.001.0023-.001.0035 0 .0013.0004.0025.001.0035v.007c.0155.0088.0326.0145.0504.0168.0209.0022.042.0022.063 0 .0493-.0036.0972-.0185.14-.0434.0186-.0105.0356-.0237.0504-.0392.0111-.0117.0189-.0262.0224-.042.0021-.0147-.0014-.0297-.0098-.042-.0133-.0127-.029-.0227-.0462-.0294zm.42-.1792c-.0111-.0164-.026-.0299-.0434-.0392-.0268-.0149-.0563-.0244-.0868-.028-.0311-.0049-.0628-.0049-.0938 0 .0031-.007.0046-.0147.0046-.0224s-.0015-.0153-.0046-.0224c-.009-.0182-.0238-.033-.042-.042-.019-.0101-.0393-.0176-.0602-.0224-.0219-.0028-.044-.0028-.0658 0-.0229.0015-.0454.0057-.0672.0126-.0211.0071-.0413.0165-.0602.028-.0176.0091-.0337.021-.0476.035-.011.0102-.0188.0233-.0224.0378-.0048.0122-.0048.0257 0 .0378.0096.015.0232.0271.0392.035.0221.0125.0463.0211.0714.0252.0255.0036.0514.0036.077 0-.0055.0076-.0091.0164-.0105.0256-.0015.0093-.0008.0187.0021.0276.0095.0223.027.0403.049.0504.0209.0119.0436.0204.0672.0252.0246.0028.0495.0028.0742 0 .0247-.0024.0491-.0076.0728-.0154.024-.0067.0471-.0166.0686-.0294.019-.0105.0365-.0237.0518-.0392.0122-.0118.0209-.0269.0252-.0434.0049-.0114.0063-.0241.0042-.0364zm-.3696 0c-.0155.0052-.0314.0084-.0476.0098-.0154.0021-.0309.0021-.0462 0-.0138-.0023-.0271-.007-.0392-.014-.0109-.0048-.0198-.0132-.0252-.0238-.0017-.004-.0026-.0082-.0026-.0126 0-.0043.0009-.0086.0026-.0126.0034-.0104.0092-.02.0168-.028.0101-.0097.0214-.0182.0336-.0252.0141-.0082.0291-.0148.0448-.0196.0151-.0046.0305-.0079.0462-.0098.0153-.0014.0308-.0014.0462 0 .0142.0024.0279.0071.0406.014.0099.0057.0181.0139.0238.0238.0035.0085.0035.0181 0 .0266-.0035.0101-.0093.0191-.0168.0266-.0096.0098-.0204.0183-.0322.0252-.0133.007-.0274.0121-.042.0154zm.301.0784c-.0115.0112-.0242.021-.0378.0294-.0166.0089-.034.0164-.0518.0224-.0178.0053-.0361.0086-.0546.0098-.0181.0028-.0365.0028-.0546 0-.0164-.0026-.032-.0083-.0462-.0168-.0123-.0063-.0225-.016-.0294-.028-.0036-.0099-.0036-.0208 0-.0308.0039-.0117.0106-.0223.0196-.0308.0108-.0119.0236-.0218.0378-.0294.0163-.0094.0337-.017.0518-.0224.0177-.0057.036-.0095.0546-.0112.0176-.0021.0355-.0021.0532 0 .0164.0037.0324.0093.0476.0168.012.0067.0221.0164.0294.028.002.0049.0031.0101.0031.0154s-.0011.0106-.0031.0154c-.0036.0104-.0094.0199-.0168.028z"/><path d="m54.396 51.1351c-.0203-.011-.042-.0195-.0644-.0252-.0223-.0034-.0449-.0034-.0672 0-.0233.0013-.0463.0056-.0686.0126-.023.0072-.0451.0171-.0658.0294h-.0126l-.0224-.1638h-.0084c-.0044-.0027-.0095-.0041-.0147-.0041s-.0103.0014-.0147.0041l-.231.14c-.0098 0-.0098.0098 0 .0154h.0098c.0039.0027.0086.0041.0133.0041s.0094-.0014.0133-.0041l.189-.1078.0224.161c.0023.0006.0047.0006.007 0h.0084c.0041.0028.009.0043.014.0043s.0099-.0015.014-.0043l.0546-.0308c.0287-.0181.0614-.0291.0952-.0322.0327-.0034.0656.004.0938.021.0127.0068.0238.0163.0322.028.004.0099.004.021 0 .0308-.0022.0114-.0081.0217-.0168.0294-.0112.0111-.0239.0205-.0378.028l-.0378.0182-.0434.014c-.0153.0021-.0309.0021-.0462 0-.0173.0002-.0344-.0032-.0504-.0098-.006-.0011-.0122-.0011-.0182 0h-.0126-.0084c-.0006.0011-.0009.0023-.0009.0035s.0003.0025.0009.0035c.0156.0088.0327.0145.0504.0168.0209.0022.0421.0022.063 0 .0237-.0016.0472-.0058.07-.0126.0249-.0076.0488-.0179.0714-.0308.0186-.0105.0356-.0237.0504-.0392.0112-.0117.0189-.0262.0224-.042.0022-.0147-.0013-.0297-.0098-.042-.0135-.0075-.0282-.0127-.0434-.0154zm.2996-.0448-.0532-.1778c-.002-.0062-.0043-.0123-.007-.0182l-.0112-.0196c-.0057-.0081-.0123-.0156-.0196-.0224l-.0308-.0224c-.0188-.0109-.0391-.0189-.0602-.0238-.0242-.0067-.0491-.0105-.0742-.0112-.0264.0001-.0526.0029-.0784.0084-.0275.0056-.054.0155-.0784.0294-.0204.0109-.0381.0262-.0518.0448-.0093.0136-.0137.0298-.0126.0462.0013.0156.0077.0304.0182.042.0117.0142.0259.0261.042.035.0196.0106.0402.019.0616.0252.0498.0113.1014.0113.1512 0 .0278-.0054.0543-.0159.0784-.0308.0126-.007.0243-.0155.035-.0252l.0406.14h.0126c.0045.0015.0095.0015.014 0l.0126-.007s.0084-.007.007-.0098.0028 0 .0042-.0028zm-.1288-.14c-.0099.0114-.0217.0209-.035.028-.0152.0091-.0318.0157-.049.0196-.018.0042-.0362.007-.0546.0084-.0191.0022-.0383.0022-.0574 0-.0188-.004-.0367-.0111-.0532-.021-.0137-.0076-.0257-.0181-.035-.0308-.0072-.0091-.0107-.0206-.0098-.0322.0008-.0118.0052-.023.0126-.0322.0095-.0118.0214-.0213.035-.028.0152-.009.0317-.0156.049-.0196.0181-.0056.037-.0084.056-.0084.0191-.0019.0383-.0019.0574 0 .0183.0041.0358.0112.0518.021.0143.0068.0268.0169.0364.0294.0067.0099.0097.0218.0084.0336-.0013.0113-.0057.0219-.0126.0308z"/><path d="m56.4499 48.2761c-.0054-.0174-.0156-.033-.0294-.0448-.0175-.0166-.0367-.0311-.0574-.0434-.0322-.0196-.0672-.0406-.1036-.0602-.0239-.0129-.0487-.0241-.0742-.0336-.0259-.0086-.0527-.0142-.0798-.0168-.0274-.0041-.0552-.0041-.0826 0-.0297.0063-.0581.0176-.084.0336-.0229.0107-.0427.027-.0574.0476-.0047.0072-.0078.0152-.0092.0236-.0015.0084-.0012.0171.0008.0254.0057.018.0163.034.0308.0462.0179.0156.0371.0297.0574.042.0336.021.0686.0406.1036.0602.0237.013.0485.0238.0742.0322.0256.0097.0525.0158.0798.0182.0275.0027.0551.0027.0826 0 .0297-.0063.0581-.0177.084-.0336.022-.0115.0408-.0283.0546-.049.0049-.0068.0084-.0145.01-.0228.0017-.0082.0016-.0166-.0002-.0248zm-.1008.0756c-.0362.0204-.0776.0297-.119.0266-.0453-.0052-.0891-.0195-.1288-.042l-.0504-.0294-.0476-.028c-.0329-.0145-.059-.0411-.0728-.0742-.007-.0238.0084-.0476.0448-.0686.036-.0208.0777-.0296.119-.0252.0453.0043.0892.0181.1288.0406l.049.028.049.0294c.0323.0152.0582.0416.0728.0742.007.0238-.0084.0476-.0448.0686zm-.3654.1176.0574-.0336c.0084 0 .0084-.0112 0-.0154h-.0098c-.0042-.0028-.009-.0043-.014-.0043s-.0099.0015-.014.0043l-.056.0322-.28-.1568c-.0039-.0027-.0086-.0041-.0133-.0041s-.0094.0014-.0133.0041l-.0252.014c-.0112.007-.0154.0126-.0126.0196l.0812.266c-.0007.0032-.0007.0066 0 .0098h.0098c.0041.0028.009.0042.014.0042s.0098-.0014.014-.0042l.2044-.1176.0994.056c.0039.0026.0086.004.0133.004s.0094-.0014.0133-.004l.0126-.007c.0084 0 .0084-.0098 0-.0154zm-.245.098-.0728-.238.2422.14z"/><path d="m61.1326 47.3718-.4074-.2352c-.0042-.0028-.009-.0043-.014-.0043s-.0099.0015-.014.0043l-.0112.007h-.007l-.0294.14v.0084h.014.0154c.0126 0 .0196 0 .021-.0098l.0252-.1148.371.2142c.0041.0027.009.0042.014.0042s.0098-.0015.014-.0042l.0112-.007c.007.0084.007.0028-.0028-.0028zm-.3752.1036.056-.0322c.0084-.0056.0084-.0112 0-.0168h-.0098c-.0044-.0021-.0092-.0032-.014-.0032-.0049 0-.0096.0011-.014.0032l-.056.0336-.273-.1582c-.0041-.0021-.0087-.0032-.0133-.0032s-.0092.0011-.0133.0032l-.0252.0154c-.0112 0-.0154.0126-.0126.0196l.0812.2646c-.001.0036-.001.0075 0 .0112h.0098c.0041.0027.009.0042.014.0042s.0098-.0015.014-.0042l.2058-.119.098.0574c.004.0023.0086.0035.0133.0035s.0092-.0012.0133-.0035l.0126-.007c.0084 0 .0084-.0112 0-.0154zm-.2464.0994-.0728-.238.2422.14z"/><path d="m62.8522 44.6167h-.0098c-.0044-.0021-.0092-.0032-.014-.0032-.0049 0-.0097.0011-.014.0032l-.2086.1204v-.1694c.0018-.0219-.0016-.044-.0098-.0644-.0118-.0213-.0299-.0384-.0518-.049-.0175-.0096-.0358-.0175-.0546-.0238-.0205-.0061-.0417-.0094-.063-.0098-.0231-.0005-.0462.0019-.0686.007-.0252.0062-.0493.0161-.0714.0294-.0194.01-.0362.0244-.049.042-.0082.0124-.0122.0272-.0112.042.0022.0146.0085.0282.0182.0392.0099.0117.0218.0216.035.0294.0037.0024.0081.0036.0126.0036.0044 0 .0088-.0012.0126-.0036l.0126-.007c.0006-.001.0009-.0023.0009-.0035s-.0003-.0024-.0009-.0035c.001-.0014.0015-.0031.0015-.0049 0-.0017-.0005-.0035-.0015-.0049-.0099-.0057-.0183-.0136-.0246-.023-.0063-.0095-.0104-.0203-.0118-.0316 0-.0182.014-.0364.0434-.0532.0275-.0162.0589-.0249.091-.0252.0315-.0006.0625.0076.0896.0238l.0238.0168c.0062.0056.0115.0122.0154.0196.0031.0077.0055.0157.007.0238.0007.0112.0007.0224 0 .0336v.1862c-.001.0051-.001.0103 0 .0154l.0084.0084h.0098c.0039.0027.0085.0041.0133.0041.0047 0 .0093-.0014.0133-.0041l.2548-.147c.0098-.0056.0098-.0112.0014-.0168zm-.5054.1792.056-.0322c.0102-.0056.0102-.0112 0-.0168h-.0098c-.004-.0026-.0086-.004-.0133-.004-.0048 0-.0094.0014-.0133.004l-.0574.0322-.2688-.1624c-.0042-.0027-.0091-.0042-.014-.0042-.005 0-.0099.0015-.014.0042l-.0252.014c-.0098.007-.0154.0126-.0126.0196l.0812.266c.0011.004.0036.0074.007.0098l.0098.007c.0041.0021.0086.0032.0133.0032.0046 0 .0091-.0011.0133-.0032l.2058-.119.098.056c.0041.0028.009.0043.014.0043.0049 0 .0098-.0015.014-.0043h.0112c.0084-.0056.0084-.0112 0-.0168zm-.2464.0994-.0728-.238.2422.14z"/></g><path d="m64.6845 44.4612-18.8174 10.8626c.0126-.0123.0224-.0272.0287-.0437.0062-.0164.0089-.034.0077-.0515-.0033-.0538-.0191-.1061-.0461-.1527s-.0644-.0864-.1093-.1161c-.0151-.01-.0322-.0165-.0502-.0189-.0179-.0024-.0362-.0008-.0534.0048l18.8202-10.8625c.025-.0145.0526-.0238.0813-.0276.0286-.0038.0577-.0019.0856.0056.0278.0075.054.0204.0769.038.0229.0175.0421.0394.0565.0645.0145.025.0238.0526.0276.0812s.0018.0577-.0056.0856c-.0075.0279-.0204.054-.038.0769-.0175.0229-.0395.0421-.0645.0566z" fill="#455a64"/><path d="m45.9033 55.2257c.0012.0176-.0014.0352-.0077.0516-.0063.0165-.0161.0313-.0287.0436l-.0154.0084-13.5408 7.8148c-.0333.0202-.0716.0309-.1106.0308-.0483-.0001-.0952-.0162-.1335-.0457s-.0658-.0708-.0782-.1175c-.0125-.0467-.0092-.0963.0094-.1409.0185-.0446.0513-.0819.0931-.1061l13.538-7.8134.0154-.0084c.0173-.0056.0355-.0072.0534-.0048.018.0024.0351.0089.0502.0188.045.0298.0824.0695.1093.1162.027.0466.0428.0989.0461.1526z" fill="#516eb4"/><path d="m67.0799 43.9978c-.0002-.4225-.135-.8339-.385-1.1746-.1092 1.379-1.4686 1.995-3.6764 3.2984s-23.8896 13.8502-25.0684 14.5376-1.05-.406-3.2802.9212l-.77.4634.3584.6888 1.3902-.8022c.4424-.2562 1.9376.2562 2.975-.3444l27.3742-15.8074.0826-.0504c.3042-.1749.5568-.427.7323-.7309.1755-.3038.2677-.6486.2673-.9995z" fill="#516eb4" opacity=".2"/><path d="m34.8267 60.8565c.3091-.2153.585-.4747.819-.77.1041-.1557.1887-.3235.252-.4998.067-.18.1614-.3486.28-.4998.5166-.581 1.2194-.9156 1.855-1.3146l3.8962-2.317c2.5984-1.54 5.2108-3.0604 7.8162-4.592s5.2276-3.0338 7.8498-4.5346l3.9368-2.247c.6566-.3752 1.3132-.7518 1.9852-1.1004.3346-.179.6829-.3311 1.0416-.455.1812-.0566.3701-.0854.56-.0854.1902.011.3765.0585.5488.14-.174-.0732-.3602-.1126-.5488-.1162-.1873.0062-.3725.0416-.5488.105-.3517.134-.6925.295-1.0192.4816-.6594.3668-1.3034.7616-1.9474 1.155l-3.8962 2.3184c-2.5998 1.54-5.2122 3.0618-7.8176 4.592s-5.229 3.0338-7.8512 4.5346l-3.9382 2.2456-.98.56c-.3244.1856-.6212.4156-.882.6832-.2576.2702-.3206.6692-.56.98-.247.285-.5337.533-.8512.7364z" fill="#fff" opacity=".4"/><path d="m33.9 61.3102c-.0523-.0365-.1128-.0593-.1762-.0664-.0633-.0071-.1274.0018-.1864.0258l-4.0936 2.3646-.0336.0196c-.156.0888-.2782.2269-.3474.3925s-.0816.3495-.0352.523c.0464.1734.1489.3265.2916.4355.1427.1089.3175.1675.497.1666.1163-.0002.2313-.025.3374-.0728l.0378-.0224 4.0684-2.3492c.0673-.0423.1215-.1023.1569-.1734.0353-.0712.0503-.1507.0433-.2298-.0065-.2012-.0607-.398-.158-.5742-.0974-.1762-.2352-.3268-.402-.4394z" fill="#fafafa"/><path d="m33.6677 61.3873c.0567.0025.1117.0198.1596.0504.1434.1.2615.2323.3446.3862.0832.1539.1291.3251.1342.5 0 .14-.0392.2422-.1106.28l-4.0754 2.3464-.0322.0182c-.1017.0449-.2129.0638-.3237.0549s-.2176-.0453-.3108-.1059c-.0931-.0606-.1697-.1435-.2227-.2412s-.0808-.2071-.0808-.3182c.0008-.1178.0326-.2334.092-.3351.0595-.1017.1445-.186.2468-.2445l.0308-.0182 4.088-2.3618c.019-.0082.0395-.012.0602-.0112zm0-.147c-.0447-.0007-.0888.0094-.1288.0294l-4.0936 2.3646-.0336.0196c-.1549.0895-.276.2276-.3444.3929-.0685.1654-.0805.3486-.0343.5215.0462.1728.1482.3256.29.4346.1419.1091.3158.1683.4947.1686.1163-.0002.2313-.025.3374-.0728l.0378-.0224 4.0684-2.3492c.067-.0425.121-.1025.1561-.1737.0351-.0711.0498-.1506.0427-.2295-.0067-.1993-.0601-.3942-.1559-.5691-.0958-.1748-.2314-.3247-.3957-.4375-.0706-.0432-.1511-.0674-.2338-.07z" fill="#e0e0e0"/><path d="m34.2667 62.7241c.0655-.0429.1181-.1028.1521-.1734.0341-.0705.0483-.149.0411-.227-.0017-.0783-.0116-.1562-.0294-.2324-.56.3136-3.3418 1.8928-4.0264 2.2806-.84.4732-1.3105.3514-1.3791-.1624-.0232.1179-.0199.2395.0096.356.0294.1164.0844.2249.1609.3176.0764.0927.1725.1672.2813.2183.1088.051.2275.0773.3477.0769.1163-.0002.2313-.025.3374-.0728l.0378-.0224 4.0684-2.3492z" fill="#000" opacity=".1"/><path d="m56.3399 39.62c0-.3976-.2632-.7952-.7882-1.099l-1.5498-.8946c-1.0514-.6076-2.7552-.6076-3.8066 0l-16.5452 9.5452c-2.38 1.3734-4.6508 4.5276-7.6734 6.5618s-5.4166 3.64-5.4166 3.64v.973l.7644.4606s2.7916-1.3916 6.3154-3.1374 8.9852-1.9684 11.3652-3.3418l16.5438-9.5508c.525-.3038.7882-.7.7882-1.099z" fill="#516eb4"/><path d="m56.3399 39.62c0-.3976-.2632-.7952-.7882-1.099l-1.5498-.8946c-1.0514-.6076-2.7552-.6076-3.8066 0l-16.5452 9.5452c-2.38 1.3734-4.6508 4.5276-7.6734 6.5618s-5.4166 3.64-5.4166 3.64v.973l.7644.4606s2.7916-1.3916 6.3154-3.1374 8.9852-1.9684 11.3652-3.3418l16.5438-9.5508c.525-.3038.7882-.7.7882-1.099z" fill="#fff" opacity=".6"/><path d="m27.6399 54.6937c3.5238-1.7444 8.9852-3.0562 11.3652-4.431l16.5438-9.5508c.525-.3024.7882-.7.7882-1.0976s-.2632-.7952-.7882-1.099l-1.5498-.8946c-1.0514-.6076-2.7552-.6076-3.8066 0l-16.5424 9.5508c-2.38 1.3734-4.6508 4.5276-7.6734 6.5618s-5.4166 3.64-5.4166 3.64l.7798.4466s2.7762-1.3804 6.3-3.1262z" fill="#516eb4"/><path d="m27.6399 54.6937c3.5238-1.7444 8.9852-3.0562 11.3652-4.431l16.5438-9.5508c.525-.3024.7882-.7.7882-1.0976s-.2632-.7952-.7882-1.099l-1.5498-.8946c-1.0514-.6076-2.7552-.6076-3.8066 0l-16.5424 9.5508c-2.38 1.3734-4.6508 4.5276-7.6734 6.5618s-5.4166 3.64-5.4166 3.64l.7798.4466s2.7762-1.3804 6.3-3.1262z" fill="#fff" opacity=".8"/><path d="m51.3614 43.0471-4.172 2.3604-8.3188 4.76c-.6971.3769-1.4199.7044-2.163.98-.7434.28-1.4952.5502-2.2498.812-1.5078.525-3.0268 1.0262-4.515 1.6212-.742.2996-1.484.6048-2.2022.966l-2.1392 1.0822c-1.4196.7294-2.8448 1.4518-4.2616 2.191 1.4462-.6818 2.884-1.379 4.326-2.0678l2.156-1.0444c.7168-.3444 1.4588-.637 2.2022-.9226 1.4924-.56 3.0072-1.0654 4.5206-1.5778.756-.259 1.512-.5208 2.2624-.8022.7578-.2751 1.4955-.6026 2.2078-.98l4.1468-2.4052c1.3804-.805 2.7664-1.6002 4.1412-2.4136l4.137-2.4346c1.372-.8204 2.7482-1.6324 4.116-2.4598-1.4084.77-2.7986 1.5568-4.1944 2.3352z" fill="#fff"/><path d="m46.7415 40.5551c.0846-.0024.1685.0169.2436.056l3.5308 2.0384c.0476.028.0574.0518.0574.056s-.0098.028-.0574.056l-6.5058 3.7562c-.0751.0391-.159.0584-.2436.056-.0851.0024-.1694-.0169-.245-.056l-3.5308-2.0384c-.0476-.028-.0574-.0518-.0574-.056s.0098-.0294.0574-.056l6.5058-3.7562c.0756-.0391.1599-.0584.245-.056zm0-.147c-.1107-.0021-.22.0239-.3178.0756l-6.5058 3.7562c-.175.1008-.175.2646 0 .3668l3.5308 2.0384c.0982.0499.2069.0759.3171.0759s.2188-.026.3171-.0759l6.5058-3.7562c.0385-.0128.0721-.0374.0958-.0703.0238-.0329.0366-.0725.0366-.1131s-.0128-.0802-.0366-.1131c-.0237-.0329-.0573-.0575-.0958-.0703l-3.5308-2.0384c-.0973-.0518-.2062-.0778-.3164-.0756z" fill="#516eb4"/><path d="m48.5979 42.0181c0-.1862-.1232-.3724-.3696-.5152-.2766-.1401-.5824-.2131-.8925-.2131s-.6158.073-.8925.2131c-.2464.14-.3696.329-.3696.5152v.3444c0 .1862.1232.3724.3696.5152.2767.1401.5824.2131.8925.2131s.6159-.073.8925-.2131c.2464-.14.3696-.329.3696-.5152z" fill="#516eb4"/><path d="m48.5979 42.0181c0-.1862-.1232-.3724-.3696-.5152-.2766-.1401-.5824-.2131-.8925-.2131s-.6158.073-.8925.2131c-.2464.14-.3696.329-.3696.5152v.3444c0 .1862.1232.3724.3696.5152.2767.1401.5824.2131.8925.2131s.6159-.073.8925-.2131c.2464-.14.3696-.329.3696-.5152z" fill="#000" opacity=".2"/><path d="m46.4433 41.5029c-.2464.14-.3696.329-.3696.5152s.1232.3738.3696.5152c.2763.1413.5822.215.8925.215.3104 0 .6162-.0737.8925-.215.2464-.14.3696-.329.3696-.5152s-.1232-.3724-.3696-.5152c-.2766-.1401-.5824-.2131-.8925-.2131s-.6158.073-.8925.2131z" fill="#516eb4"/><path d="m46.4713 43.8913-3.1108 1.7962c-.0588.0298-.1238.0453-.1897.0453s-.1309-.0155-.1897-.0453l-1.3244-.7644 3.108-1.7962c.059-.03.1243-.0456.1904-.0456.0662 0 .1315.0156.1904.0456z" fill="#455a64"/><path d="m46.5513 43.8465-.0798.0448-1.3314-.7644c-.059-.03-.1242-.0457-.1904-.0457s-.1314.0157-.1904.0457l-3.108 1.7962-.0798-.0462c-.1064-.0602-.1064-.1582 0-.2198l3.1878-1.8424c.0593-.0291.1244-.0442.1904-.0442s.1311.0151.1904.0442l1.4.812c.0234.0066.0441.0204.0592.0393.0151.019.0239.0423.0252.0666.0012.0242-.0052.0482-.0183.0687-.0131.0204-.0323.0362-.0549.0452z" fill="#516eb4"/><path d="m43.5998 44.8446.154.0882c.0742.0434.0994.0924.0742.14-.0402.0692-.1002.1248-.1722.1596-.084.0496-.1766.0828-.273.098-.0857.0133-.1734-.0025-.2492-.0448l-.0588-.035c-.021-.0112-.0126-.028.0224-.049s.0644-.0252.0854-.0126l.0742.042c.0432.0223.0932.0273.14.014.0586-.0145.1148-.0376.1666-.0686.0464-.0235.087-.057.119-.098.0224-.0317.0154-.0583-.021-.0798l-.1666-.0966c-.0315-.0206-.0675-.0331-.105-.0364-.0419.0046-.0822.019-.1176.042l-.2324.14c-.0182.0112-.0434.007-.0756-.0112s-.0378-.0322-.0196-.0434l.1904-.1106v-.0742c.0011-.0261-.0051-.052-.018-.0748-.0129-.0227-.0318-.0414-.0548-.054l-.0154-.0098c-.0378-.0234-.0804-.0383-.1246-.0434-.0395-.0018-.0785.0085-.112.0294l-.3136.182c-.0126.0044-.0262.0056-.0394.0034s-.0257-.0077-.0362-.016c-.0322-.0182-.0378-.0322-.0196-.0434l.3136-.1806c.0659-.0414.142-.0637.2198-.0644.078.0042.1537.0283.2198.07l.0224.014c.0274.0167.0508.0391.0686.0658.0186.0268.0289.0584.0294.091v.0336c.0514-.0212.1069-.0303.1624-.0266.0576.0089.1129.0294.1624.0602z" fill="#f0f0f0"/><path d="m43.9571 44.8139-.5712-.3304c-.084-.0476-.1288-.0924-.14-.133s.0322-.0826.1092-.1274l.3416-.1974c.0182-.0112.0434-.007.0742.0112s.0392.0336.021.0434l-.3318.1974c-.0392.0224-.056.0448-.0504.0658s.0364.0476.0882.0784l.1638.0938.28-.1204c.0541-.0224.1008-.0392.14-.0504.0372-.0128.0757-.0217.1148-.0266.0802-.0123.1622.0046.231.0476l.1568.0896c.0742.0434.098.091.0742.14-.0411.0685-.1008.1239-.1722.1596-.0839.0496-.1766.0824-.273.0966-.0872.0188-.1782.0054-.2562-.0378zm.1232-.0546c.0212.0115.0445.0187.0686.0211.024.0024.0483 0 .0714-.0071.0591-.0142.1158-.0373.168-.0686.0464-.0235.087-.057.119-.098.0056-.006.0095-.0134.0115-.0214.002-.0079.0019-.0163-.0002-.0242-.0021-.008-.0061-.0153-.0118-.0212-.0056-.006-.0127-.0105-.0205-.013l-.1862-.105c-.033-.0177-.0709-.0241-.1078-.0182-.0538.0092-.1061.0257-.1554.049l-.28.1204z" fill="#f0f0f0"/><path d="m44.9229 44.3337.1148.0658c.021.0126.014.0294-.0252.0518-.0124.0099-.0272.0166-.0428.0193-.0157.0026-.0318.0013-.0468-.0039l-.1162-.0672c-.021-.0126-.0126-.0294.0252-.0518s.0686-.0266.091-.014z" fill="#f0f0f0"/><path d="m44.6584 43.9333-.1596-.0924c-.084-.0476-.1274-.0924-.133-.133s.0322-.0826.1092-.1274l.315-.182c.0182-.0112.042-.007.0742.0112s.0392.0336.021.0434l-.315.182c-.0392.0224-.056.0448-.049.0658s.035.0476.0868.0784l.1652.0952.266-.098c.0814-.036.167-.0618.2548-.077.0467-.0068.0944-.004.14.0084.03.0105.059.0236.0868.0392l.14.0812c.0742.0434.0994.0924.0742.14-.0398.0695-.0999.1252-.1722.1596-.0836.0494-.1758.0826-.2716.098-.0858.0143-.1738-.0015-.2492-.0448l-.0602-.035c-.021-.0112-.0126-.028.0238-.049s.0644-.0252.0854-.0126l.0728.042c.043.023.0933.028.14.014.0589-.0143.1155-.0369.168-.0672.0462-.0244.0868-.0582.119-.0994.0224-.0322.014-.0588-.021-.0798l-.1666-.0966c-.031-.0176-.0672-.0235-.1022-.0168-.055.0103-.1089.0257-.161.0462l-.3192.119c-.0249.01-.0516.0147-.0784.014-.0293-.0041-.0577-.0131-.084-.0266z" fill="#f0f0f0"/><path d="m20.9507 57.4c-.0522-.0364-.1128-.0592-.1761-.0663s-.1274.0017-.1865.0257l-2.9036 1.68-.0336.0196c-.1556.0893-.2773.2274-.3462.393-.069.1656-.0812.3494-.0349.5227s.1486.3264.291.4355c.1423.1091.3168.1681.4961.1678.1165.0001.2317-.0253.3374-.0742l.0378-.021 2.8784-1.6632c.0655-.0442.1176-.1056.1504-.1775s.0452-.1514.0358-.2299c-.0051-.1997-.0572-.3954-.1521-.5713-.0949-.1758-.2298-.3269-.3939-.4409z" fill="#fafafa"/><path d="m20.7168 57.4714c.0567.0025.1117.0199.1596.0504.1425.0994.26.2305.3431.3831s.1295.3225.1357.4961c0 .14-.0392.2422-.1106.28l-2.8784 1.6632-.0322.0182c-.1563.0691-.3332.0755-.4941.0179s-.2936-.1748-.3705-.3274-.0923-.3289-.0429-.4925c.0494-.1637.1597-.302.3083-.3866l.0308-.0182 2.898-1.68c.0192-.0074.0396-.0112.0602-.0112m0-.147c-.0447-.0006-.0889.0095-.1288.0294l-2.9036 1.68-.0336.0196c-.1556.0892-.2774.2274-.3463.393s-.0812.3494-.0349.5226c.0463.1733.1486.3265.291.4356s.3168.1681.4962.1678c.1165 0 .2316-.0253.3374-.0742l.0378-.021 2.8784-1.6632c.0655-.0442.1175-.1056.1503-.1775.0329-.0719.0453-.1514.0359-.2299-.0067-.1993-.0601-.3942-.1559-.569-.0958-.1749-.2314-.3247-.3957-.4376-.0705-.0434-.1511-.0675-.2338-.07z" fill="#e0e0e0"/><path d="m21.3164 58.8083c.0654-.0442.1175-.1056.1503-.1775.0329-.0719.0453-.1514.0359-.2299-.0016-.0778-.0115-.1552-.0294-.231-.56.3136-2.1518 1.2054-2.835 1.5932-.84.4732-1.3104.3514-1.3804-.1624-.0222.1178-.0182.239.0117.355.0298.1161.0849.2242.1611.3166.0763.0924.1719.167.2802.2183.1083.0514.2265.0783.3464.0789.1165 0 .2316-.0253.3374-.0742l.0378-.021 2.8784-1.6632z" fill="#000" opacity=".1"/><path d="m56.3399 39.6506v2.0244c0 .3976-.2618.7938-.7882 1.099l-1.6674.9646v-2.0636l1.6674-.9632c.5082-.2926.7686-.672.7882-1.0612z" fill="#516eb4"/><path d="m56.3399 39.6506v2.0244c0 .3976-.2618.7938-.7882 1.099l-1.6674.9646v-2.0636l1.6674-.9632c.5082-.2926.7686-.672.7882-1.0612z" fill="#000" opacity=".2"/><path d="m53.8785 41.6765 1.6702-.9646c1.05-.6062 1.05-1.5904 0-2.1966l-1.5498-.8946c-1.0514-.6076-2.7552-.6076-3.8066 0l-1.6674.9632z" fill="#516eb4"/><path d="m53.3229 40.5816-2.975-1.7178c-.017-.0097-.037-.0123-.0559-.0073-.0189.0049-.035.0172-.0449.0339-.0097.0168-.0123.0366-.0073.0553.005.0186.0172.0345.0339.0441l2.9763 1.7178c.011.0067.0236.0101.0364.0098.0177.0025.0357-.0015.0506-.0115.0149-.0099.0256-.0249.0301-.0422s.0025-.0357-.0057-.0516-.0219-.0282-.0385-.0347zm-1.8592-1.5918 1.7863 1.0304c.011.0067.0236.0101.0364.0098.0177.0025.0357-.0016.0506-.0115s.0256-.0249.0301-.0422.0025-.0357-.0057-.0516-.0219-.0282-.0385-.0347l-1.785-1.0262c-.017-.0097-.037-.0123-.0559-.0073-.0189.0049-.035.0172-.0449.0339-.0097.0168-.0123.0366-.0073.0553.005.0186.0172.0345.0339.0441z" fill="#000" opacity=".2"/><path d="m15.7175 33.2664c-.0989-3.2848-.639-5.4965-1.4792-6.9827.1571.6584-.7201 3.3537-1.1596 4.6333-.0685.1949-.0664.4077.0058.6012.0723.1935.2101.3555.3896.4579z" fill="#516eb4"/><path d="m15.7175 33.2664c-.0989-3.2848-.639-5.4965-1.4792-6.9827.1571.6584-.7201 3.3537-1.1596 4.6333-.0685.1949-.0664.4077.0058.6012.0723.1935.2101.3555.3896.4579z" fill="#fff" opacity=".3"/><path d="m28.1948 7.2228c-1.2603-.72722-10.9029-4.30505-15.2097-5.8901-.6462-.23789-1.3368-.33068-2.0228-.27181-.6861.05887-1.35074.26797-1.94693.61247l-2.14987 1.23557c-.81117.46853-1.48459 1.14248-1.95248 1.95401s-.71374 1.732-.71281 2.66875v5.29531c-.00164.4818.10919.9573.32369 1.3888.2145.4314.52674.8069.91188 1.0964 3.09949 2.3123 6.08072 5.2494 7.39572 7.4222 1.2903 2.1358 1.9186 4.8416 2.4888 11.0141.4342 4.7075.9761 11.1201 1.2196 14.0272.0403.4807.1964.9445.4549 1.3518.2585.4072.6118.7459 1.0296.9869l3.8691 2.2346c.4549.2614.9703.399 1.495.399.5246 0 1.0401-.1376 1.495-.399l3.7332-2.1551c.4519-.261.8277-.6356 1.09-1.0868s.4019-.9631.405-1.485c.0724-13.7094.8473-26.0332-1.9169-40.3993z" fill="#516eb4"/><path d="m19.436 50.9297c-.3262-.1707-.6025-.423-.8021-.7324-.1995-.3093-.3154-.6652-.3363-1.0327-.0406-.8543-1.1121-15.0491-1.6204-18.6676-.4925-3.4966-.9302-3.8567-2.5947-4.8222.5295 1.8428.8967 4.3156 1.2444 8.0788.4342 4.7075.9761 11.1201 1.2197 14.0272.0403.4807.1963.9445.4548 1.3517.2585.4073.6118.7459 1.0296.987l1.4121.812z" fill="#455a64"/><path d="m12.9851 1.3327c-.6462-.23789-1.3368-.33068-2.0228-.27181-.6861.05887-1.35074.26797-1.94693.61247l-2.14987 1.23557c-.81117.46853-1.48459 1.14248-1.95248 1.95401s-.71374 1.732-.71281 2.66875v5.29531c-.00164.4818.10919.9573.32369 1.3888.2145.4314.52674.8069.91188 1.0964.5913.4395 1.17554.9037 1.74567 1.3785-.68005-.6829-1.06099-1.6079-1.05906-2.5717v-5.966c-.00009-.78749.20741-1.5611.60158-2.24284s.96109-1.24754 1.64362-1.64035l3.74371-2.14988c.3679-.21197.778-.34036 1.2011-.37606.4231-.03569.8489.0222 1.2471.16954l.2401.08826z" fill="#000" opacity=".2"/><path d="m32.9075 13.9424-.2012-3.2971c-.0053-.2429-.0707-.4808-.1901-.69233-.1195-.21157-.2895-.39031-.4947-.52032-.2683-.15356-3.4525-1.98925-3.8267-2.20989-.1414-.08184-.2985-.1328-.4609-.14954-.1625-.01673-.3266.00115-.4817.05246-3.3749 1.04964-6.6815 2.98532-9.9198 5.80712-.6425.5613-1.0926 1.8057-1.0273 2.75.0459.6761.0547.8102.0512.7414.03.4571.0847 1.2355.1765 2.5417.4378 6.4214 2.284 11.1095 4.5892 12.4509.6443.376 3.2054 1.8551 3.8674 2.2346.4141.2513.8902.3818 1.3746.3768.4843-.005.9577-.1453 1.3665-.405 3.4455-1.9946 5.7701-10.8059 5.177-19.6808z" fill="#455a64"/><path d="m20.1443 17.8996c.1765 2.6477-.2048-2.9865.2242 3.2831.6036 8.866 3.8955 14.4367 7.3516 12.4403 3.456-1.9963 5.7806-10.8058 5.1875-19.6807l-.2012-3.2972c-.0635-.9443-.796-1.55855-1.615-1.30262-3.3749 1.04962-6.6815 2.98532-9.9198 5.80712-.6425.5613-1.0856 1.8075-1.0273 2.75z" fill="#516eb4"/><path d="m20.1443 17.8996c.1765 2.6477-.2048-2.9865.2242 3.2831.6036 8.866 3.8955 14.4367 7.3516 12.4403 3.456-1.9963 5.7806-10.8058 5.1875-19.6807l-.2012-3.2972c-.0635-.9443-.796-1.55855-1.615-1.30262-3.3749 1.04962-6.6815 2.98532-9.9198 5.80712-.6425.5613-1.0856 1.8075-1.0273 2.75z" fill="#fff" opacity=".6"/><path d="m29.9142 21.5287-5.7684 3.3308c-.4218.2418-.7925 0-.8295-.5384l-.5154-7.5634c-.0371-.5419.2735-1.1773.6954-1.4121l5.7683-3.3307c.4201-.2436.7925 0 .8296.5296l.5154 7.5634c.0388.5418-.2736 1.1773-.6954 1.4208z" fill="#516eb4"/><path d="m24.1321 23.7775-.5066-7.4222 5.6571-3.2655.5066 7.4205z" fill="#455a64"/><path d="m25.5009 19.543.0247.3654c.0137.1725-.0351.3442-.1376.4836-.1095.1452-.2485.2655-.4078.353-.122.0855-.2698.126-.4183.1147-.1118-.0211-.1736-.12-.1853-.2965l-.0106-.1412c0-.0494.0317-.0935.0953-.1324.0635-.0388.0988-.0335.1059.0159l.0123.1765c0 .0883.0459.1324.1183.1324.0952-.0099.1867-.0426.2665-.0953.1009-.0548.1907-.1278.2648-.2154.032-.0336.057-.0732.0737-.1165.0166-.0433.0246-.0895.0234-.1359l-.0265-.3989c0-.0988-.0247-.1571-.053-.1765-.0282-.0194-.0882 0-.1765.0512l-.4359.2542c-.0353.0194-.0548 0-.0601-.0847-.0052-.0848.0106-.1218.0442-.1413l.353-.2065.1077-.2224c.074-.1335.114-.2833.1165-.4359v-.0371c.0034-.0758-.0176-.1507-.0601-.2136-.0317-.0318-.0847-.0265-.157.0159l-.5825.3371c-.0353.0194-.0547 0-.06-.0829-.0053-.083.0106-.1236.0441-.143l.5842-.3371c.143-.083.2489-.1006.316-.0495.0826.0984.1243.2248.1165.3531v.0547c.0027.0821-.0068.1642-.0283.2436-.0235.0999-.0578.197-.1023.2894l-.0495.1024c.0322-.0168.0688-.0233.1048-.0186.036.0048.0697.0205.0965.0451.0566.087.0855.1892.0829.293z" fill="#f0f0f0"/><path d="m25.9108 19.686-.0918-1.3591c-.0192-.1643.0014-.3308.06-.4854.063-.1337.1677-.2433.2983-.3125l.6337-.3653c.0335-.0195.0529.0088.0582.0829.0053.0742-.0088.1236-.0423.143l-.6337.3671c-.0675.0352-.1201.0935-.1483.1642-.0275.0938-.0359.1923-.0247.2895l.0265.39.4607-.1765c.0687-.0256.1389-.0474.21-.0653.0506-.0112.103-.0112.1536 0 .0988.0124.1536.1112.1659.2948l.0247.3707c.0141.1722-.0355.3437-.1394.4818-.1082.1485-.2466.2724-.406.3636-.1223.0847-.27.1246-.4183.113-.113-.0247-.1748-.1183-.1871-.2965zm.2047-.083c0 .0883.0442.1324.1165.1306.0958-.0071.1882-.0387.2683-.0918.0999-.0568.1895-.1302.2648-.2171.0322-.0338.0573-.0737.074-.1173s.0245-.0902.0231-.1368l-.03-.4289c0-.0724-.0318-.1165-.0812-.1254-.0783-.006-.1568.0087-.2277.0424l-.4607.1765z" fill="#f0f0f0"/><path d="m27.5908 18.881.0177.2753c0 .0512-.03.0971-.1006.1395-.0706.0423-.1095.0335-.113-.0177l-.0194-.2736c0-.0512.0318-.0988.1024-.1394s.1094-.0353.1129.0159z" fill="#f0f0f0"/><path d="m27.9104 17.5115-.0265-.3777c-.0175-.1644.0036-.3306.0618-.4854.0625-.134.1673-.2438.2983-.3124l.5843-.3371c.0335-.0195.0511.0088.0564.0847s0 .1235-.0423.1429l-.5843.3372c-.0666.0357-.1185.0939-.1465.1641-.0288.0936-.0378.1922-.0264.2895l.0264.3936.4131-.1182c.1165-.0509.2438-.0727.3706-.0636.0296.0071.0569.0217.0791.0424.0223.0208.0388.0469.048.0759.0179.0573.0286.1166.0318.1765l.0229.3371c.0124.1727-.037.3441-.1394.4837-.1078.1488-.2462.2728-.406.3636-.1223.0847-.27.1246-.4183.1129-.113-.0194-.1765-.1182-.1871-.2947v-.143c0-.0494.0282-.0936.0953-.1306.0671-.0371.1024-.0353.1059.0141l.0124.1765c0 .0906.0388.1347.1165.1324.0956-.008.1878-.0396.2683-.0918.0999-.0569.1894-.1303.2647-.2171.0322-.0338.0574-.0737.074-.1174.0167-.0436.0245-.0901.0231-.1368l-.0282-.3971c0-.0706-.03-.1112-.0759-.1183-.0787-.0044-.1575.0076-.2313.0353l-.496.1448c-.0476.0141-.0811.0105-.0988-.0089-.0305-.0467-.0464-.1013-.0459-.1571z" fill="#f0f0f0"/><path d="m29.3914 29.7842c-.03-.4324-.1977-.7395-.4448-.8825l-.7184-.4166c-.1309-.0669-.2774-.0972-.4241-.0876s-.2881.0588-.409.1424c-.6496.3759-1.1297 1.3555-1.0732 2.1887.03.4377.2012.7466.4519.8825.12.0688.5913.3442.7166.4148.1302.0653.2757.0944.421.0841.1453-.0102.2852-.0594.405-.1423.6514-.3707 1.1244-1.3503 1.075-2.1835z" fill="#516eb4"/><path d="m29.3914 29.7842c-.03-.4324-.1977-.7395-.4448-.8825l-.7184-.4166c-.1309-.0669-.2774-.0972-.4241-.0876s-.2881.0588-.409.1424c-.6496.3759-1.1297 1.3555-1.0732 2.1887.03.4377.2012.7466.4519.8825.12.0688.5913.3442.7166.4148.1302.0653.2757.0944.421.0841.1453-.0102.2852-.0594.405-.1423.6514-.3707 1.1244-1.3503 1.075-2.1835z" fill="#fff" opacity=".2"/><path d="m29.3916 29.7841c.0565.8331-.4236 1.8127-1.0749 2.1887-.6513.3759-1.2215 0-1.2797-.8314-.0583-.8314.4254-1.8127 1.0749-2.1887.6496-.376 1.2215-.0035 1.2797.8314z" fill="#fff" opacity=".2"/><path d="m31.6243 24.9-.1183-1.7316-.7166-.413-1.931 1.1137.1553 2.2947.7167.413c.668-.516 1.3008-1.0762 1.8939-1.6768z" fill="#516eb4"/><path d="m31.6243 24.9-.1183-1.7316-.7166-.413-1.931 1.1137.1553 2.2947.7167.413c.668-.516 1.3008-1.0762 1.8939-1.6768z" fill="#000" opacity=".2"/><path d="m28.8584 23.8623.7149.413.1571 2.2876-.7167-.413z" fill="#000" opacity=".2"/><path d="m31.506 23.1614.1183 1.7315c-.5934.5982-1.2261 1.1561-1.894 1.6698l-.1571-2.2946z" fill="#516eb4"/><path d="m29.3197 26.87-.1607-2.3547-.7148-.413-2.5453 1.4703.1589 2.3511.7166.413c.8993-.3947 1.7528-.8865 2.5453-1.4667z" fill="#516eb4"/><path d="m29.3197 26.87-.1607-2.3547-.7148-.413-2.5453 1.4703.1589 2.3511.7166.413c.8993-.3947 1.7528-.8865 2.5453-1.4667z" fill="#000" opacity=".2"/><path d="m26.6138 25.9855-.7149-.413.1589 2.3511.7166.413z" fill="#000" opacity=".2"/><path d="m26.6167 25.9857 2.5453-1.4703.1606 2.3546c-.7924.5802-1.6459 1.0721-2.5453 1.4668z" fill="#516eb4"/><path d="m26.3537 28.5116-.1553-2.2946-.7166-.413-1.931 1.1155.1182 1.7315.7061.4131c.6756-.1207 1.3382-.3057 1.9786-.5525z" fill="#516eb4"/><path d="m24.2656 27.341-.7148-.413.1182 1.7315.7149.4131z" fill="#000" opacity=".2"/><path d="m26.3537 28.5116-.1553-2.2946-.7166-.413-1.931 1.1155.1182 1.7315.7061.4131c.6756-.1207 1.3382-.3057 1.9786-.5525z" fill="#000" opacity=".2"/><path d="m24.2656 27.3411 1.9328-1.1155.1553 2.2946c-.6373.2493-1.2969.4372-1.9698.5613z" fill="#516eb4"/><path d="m23.3143 51.2316-1.3414-19.3153 1.3114.7607s-2.9935-2.3052-3.7278-10.0716c-.4942-5.2211-.9602-6.5096-1.8092-7.4451-.6725-.7396-9.34088-7.3375-12.94696-10.07339-.39266.75517-.59846 1.5935-.60013 2.44465v5.29524c-.00164.4819.10919.9574.32369 1.3889.2145.4314.52674.8068.91188 1.0964 3.09949 2.3122 6.08072 5.2493 7.39572 7.4222 1.2903 2.1357 1.9186 4.8416 2.4888 11.0141.4342 4.7075.9761 11.1201 1.2196 14.0272.0403.4807.1964.9445.4549 1.3517.2585.4073.6118.7459 1.0296.987l3.8691 2.2346c.4549.2614.9703.399 1.495.399.5246 0 1.0401-.1376 1.495-.399-.1778.0472-.3637.0546-.5447.0218-.181-.0329-.3525-.1052-.5023-.2119s-.2743-.2451-.3645-.4053c-.0903-.1603-.1441-.3385-.1577-.5219z" fill="#000" opacity=".2"/><path d="m43.8295 32.9658-1.1254-2.1345.9112-2.638v-1.6152l-2.7974 1.6152v1.6151l1.2028 2.0845c.0188.0316.0465.0569.0797.0729z" fill="#516eb4"/><path d="m43.8295 32.9658-1.1254-2.1345.9112-2.638v-1.6152l-2.7974 1.6152v1.6151l1.2028 2.0845c.0188.0316.0465.0569.0797.0729z" fill="#000" opacity=".2"/><path d="m43.9236 32.8815c-.0118.0004-.0234-.0027-.0335-.0087-.0101-.0061-.0182-.0149-.0234-.0254l-1.2575-2.1779-3.4673 2.0047c-.0406.0228-.0824.0433-.1253.0615-.0618.024-.1273.0371-.1936.0388-.0471.0016-.0938-.0079-.1366-.0277-.0427-.0198-.0802-.0493-.1094-.0863-.0756-.1076-.1125-.2377-.1048-.369v-11.527c.006-.239.0685-.4732.1822-.6835l.0524-.0911c.1285-.2386.3169-.4396.5468-.5832l10.4791-6.0596c.0958-.0605.2057-.0951.3189-.1003.0782.0002.1538.0283.2131.0792.0593.051.0985.1215.1104.1988.0127.0698.0188.1408.0182.2118v11.5248c-.0141.2712-.0923.5352-.2281.7704s-.3254.4349-.5532.5827l-4.3489 2.5219-1.2825 3.6996c-.0037.0125-.0112.0235-.0214.0317-.0101.0081-.0226.013-.0356.0138z" fill="#fafafa"/><path d="m50.0513 13.3608c.0387 0 .1617 0 .2141.1936.009.0596.0136.1197.0137.18v11.5247c-.0154.2511-.0888.4951-.2145.7129s-.3003.4035-.51.5424l-4.3123 2.5058-.0729.0433-.0274.0798-1.2301 3.556-1.1391-1.9887-.1139-.1982-.1982.1139-3.3647 1.9455c-.036.0205-.0733.0387-.1116.0546-.0487.0193-.1003.0301-.1526.0319-.2051 0-.2279-.2278-.2279-.369v-11.5271c.007-.2052.0583-.4065.1504-.59l.0706-.1253c.1177-.2209.2913-.4071.5035-.5399l10.4791-6.0597c.0789-.0496.169-.0785.262-.0842m0-.2278c-.1334.0045-.2632.0446-.3759.1161l-10.4791 6.0597c-.2486.153-.4522.3692-.59.6265-.1513.2501-.236.5348-.2461.8269v11.527c0 .3782.1891.5969.4556.5969.078-.0021.1551-.0175.2278-.0456-.0536.0225-.1084.0423-.164.0593.1074-.0287.2107-.0708.3076-.1253l3.3601-1.9455 1.2006 2.0799c.0162.0272.0392.0497.0668.0652.0275.0156.0587.0237.0903.0236.0372-.0003.0733-.012.1035-.0336s.0529-.0521.0651-.0871l1.2689-3.6609 4.3124-2.5058c.2441-.1594.4473-.374.5929-.6265.1457-.2525.2298-.5359.2454-.827v-11.5133c-.0011-.1408-.0234-.2805-.066-.4146.0161.0577.029.1162.0387.1754-.0186-.1014-.072-.1931-.1511-.2592-.079-.0662-.1787-.1026-.2817-.103z" fill="#516eb4"/><path d="m50.484 13.4949c-.098-.3554-.4215-.4693-.8087-.246l-10.4792 6.0596c-.2485.1531-.4521.3692-.59.6265-.1512.2502-.2359.5348-.246.827v11.527c0 .4784.3007.7016.6971.5513-.0537.0225-.1084.0422-.1641.0592-.0569.016-.1139.0296-.1731.041-.1848.0338-.3734.0414-.5604.0228-.0589-.0048-.1175-.0132-.1754-.0251-.0502-.0086-.0996-.0208-.1481-.0364-.1101-.028-.2159-.0709-.3144-.1276l-.6834-.3964c-.2438-.159-.4468-.3733-.5924-.6254-.1457-.2521-.2299-.535-.2459-.8257v-11.527c.0101-.2922.0948-.5768.246-.827.0747-.1311.1649-.2527.2688-.3622l.0752-.0752.0797-.0706c.0434-.0349.0891-.0669.1367-.0957.0101-.0083.0208-.0159.0319-.0227l6.6383-3.8363 3.8363-2.2211c.0099-.0067.0206-.0121.0319-.016.1138-.0617.2357-.107.3622-.1344.1093-.0253.2206-.0413.3326-.0478h.2278c.112.0065.2233.0225.3326.0478.1377.0293.2699.0801.3918.1504l.6835.3941c.0883.0534.1708.116.246.1868.025.025.0524.0501.0774.0774.0764.0822.1458.1705.2073.2643.0415.064.0796.1301.114.1982.0503.1004.0922.2048.1252.3121.0161.0569.029.1147.0388.1731z" fill="#516eb4"/><path d="m39.0601 32.8381c-.0536.0225-.1084.0423-.164.0592-.057.016-.1139.0297-.1732.0411-.1849.0326-.3734.0403-.5604.0227-.0589-.0048-.1175-.0132-.1754-.025-.0501-.0087-.0996-.0209-.148-.0365-.1102-.028-.2159-.0709-.3144-.1276l-.6834-.3963c-.2439-.1591-.4468-.3734-.5925-.6255-.1456-.2521-.2299-.535-.2459-.8257v-11.527c.0101-.2921.0948-.5768.2461-.8269l2.3578 1.3668c-.1513.2501-.2359.5348-.2461.8269v11.5271c-.0022.4738.2985.6971.6994.5467z" fill="#000" opacity=".2"/><path d="m50.4847 13.4951c-.098-.3553-.4215-.4692-.8087-.246l-10.4792 6.0597c-.2485.153-.4521.3692-.59.6265l-2.3578-1.3669c.0739-.1318.1634-.2542.2666-.3645l.0751-.0752.0798-.0706c.053-.043.1094-.0819.1685-.1162l6.6383-3.8385 3.8363-2.2211c.0099-.0067.0206-.012.0319-.016.1144-.0603.2362-.1055.3622-.1344.1093-.0253.2206-.0413.3326-.0478h.2278c.112.0065.2233.0225.3326.0478.1371.0314.269.082.3919.1504l.6834.3941c.089.0524.1716.1151.246.1868.0251.025.0524.0501.0775.0774.0777.081.1471.1695.2073.2643.0415.064.0795.1301.1139.1982.0503.1004.0922.2048.1253.3121.0163.0592.0292.1193.0387.1799z" fill="#fff" opacity=".3"/><path d="m42.4203 23.6051c0 .0979-.0113.2278-.0136.4009-.0023.1732 0 .3417 0 .5217v.5194c0 .1686 0 .3007.0136.3918.0072.1482.0317.295.0729.4374.0291.1158.0917.2204.18.3007.0871.0708.1979.1059.3098.098.167-.0164.3273-.0735.467-.1663.1686-.0935.3222-.2117.4556-.3508.1121-.1167.2114-.245.2962-.3827.072-.1202.1308-.2477.1754-.3805.0374-.1105.0686-.2231.0934-.3371.0176-.103.0483-.2032.0911-.2985.0435-.0768.1084-.1393.1868-.1799l1.073-.6174c.0183-.014.0407-.0216.0638-.0216s.0455.0076.0638.0216c.0188.0171.0334.0383.0425.0621.0091.0237.0125.0493.0099.0746-.0084.397-.0775.7903-.205 1.1664-.132.4078-.3133.7979-.5399 1.1618-.2292.3753-.4997.7237-.8065 1.0388-.2952.31-.6326.5769-1.0023.7927-.3178.201-.6767.328-1.0502.3714-.2765.0302-.5551-.0341-.7905-.1823-.229-.1625-.4024-.3915-.4966-.6561-.1241-.3272-.1918-.673-.2005-1.0228 0-.2916-.016-.6083-.016-.9522 0-.344 0-.6721.016-.991.0145-.424.0803-.8447.1959-1.2529.1208-.4293.2897-.8434.5035-1.2348.217-.3959.4825-.7632.7904-1.0934.3069-.3334.6625-.6184 1.0548-.8452.3062-.1877.6471-.3116 1.0023-.3645.2736-.0423.5535-.0051.8065.1071.2357.1128.4261.3024.5399.5376.1403.2894.2105.6078.205.9295-.0018.0699-.0198.1385-.0524.2004-.0275.0594-.0718.1093-.1276.1435l-1.0729.622c-.0912.0546-.1549.066-.1868.0387-.047-.0554-.0785-.1222-.0912-.1936-.0228-.0791-.0541-.1555-.0934-.2279-.0394-.0754-.1005-.1373-.1754-.1776-.0929-.0412-.1955-.0554-.2961-.041-.1622.0282-.3172.0886-.4556.1776-.1741.0987-.3317.224-.467.3714-.2429.2749-.4115.6074-.4898.9659-.0407.1699-.0674.3428-.0798.5171z" fill="#455a64"/><path d="m47.716 17.5932c.1251-.0755.2623-.1287.4055-.1572.1198-.028.2452-.0193.3599.025.1089.0468.2005.1265.262.2278.0758.1401.1164.2964.1185.4556v.2894.3007c-.0101.1978-.0477.3934-.1116.5809-.0615.1862-.1465.3638-.2529.5285-.1026.1607-.2233.309-.3599.4419-.1281.1225-.2695.2302-.4215.3212-.1309.0771-.2731.1332-.4214.1663-.1199.0286-.2458.019-.36-.0273-.1092-.0444-.2001-.1247-.2574-.2278-.0734-.1405-.1102-.2972-.1071-.4556-.0049-.0964-.0049-.193 0-.2893 0-.139 0-.2278 0-.2985.005-.2001.0435-.398.1139-.5854.0695-.1875.1588-.367.2666-.5354.1011-.1617.222-.3102.3599-.4419.1216-.1225.2578-.2296.4055-.3189zm0 .8292c-.0731.0433-.1305.1087-.164.1868-.0429.1206-.0645.2478-.0638.3759-.0042.0819-.0042.164 0 .246-.0042.0759-.0042.1519 0 .2278 0 .1754.0342.2802.0729.3121s.0934.0296.164-.0114c.0711-.0416.1282-.1035.164-.1777.0381-.1192.0566-.2439.0547-.369 0-.0615 0-.1436 0-.2461s0-.1799 0-.2278c.0042-.105-.0211-.2092-.0729-.3007-.0319-.0569-.0866-.0569-.1549-.0159z" fill="#455a64"/><path d="m62.3363 22.2819-1.139-2.1368.9112-2.6403v-1.6152l-2.7975 1.6152v1.6174l1.2029 2.0822c.0178.0332.0469.0591.082.0729z" fill="#516eb4"/><path d="m62.3363 22.2819-1.139-2.1368.9112-2.6403v-1.6152l-2.7975 1.6152v1.6174l1.2029 2.0822c.0178.0332.0469.0591.082.0729z" fill="#000" opacity=".2"/><path d="m62.43 22.1927c-.0115.0003-.0229-.0025-.0329-.0081s-.0184-.0138-.0241-.0238l-1.2575-2.1778-3.4672 2.0047c-.0404.0232-.0822.0438-.1253.0615-.0614.0257-.1271.0397-.1936.041-.0473.0015-.0943-.0082-.1371-.0284-.0427-.0202-.0801-.0503-.109-.0878-.0755-.1077-.1125-.2377-.1048-.369v-11.5271c.0061-.23895.0685-.47312.1823-.68338l.0524-.09113c.1272-.23951.3159-.44081.5467-.58318l10.4791-6.06195c.0966-.0585.2062-.09215.319-.09796.0778.00008.1531.02786.2124.07836s.0986.12043.1111.19729c.0126.06913.0187.1393.0182.20958v11.52477c-.0124.2735-.0897.5401-.2256.7778s-.3264.4396-.5558.589l-4.3488 2.5196-1.2826 3.7018c-.0052.0106-.0134.0194-.0235.0255-.01.006-.0217.0091-.0334.0087z" fill="#fafafa"/><path d="m68.5576 2.67662c.0387 0 .1617 0 .2141.19363.0089.05958.0135.11973.0137.17997v11.52478c-.0152.2514-.0885.4958-.2142.714s-.3004.4043-.5102.5435l-4.3124 2.5059-.0729.041-.0273.0797-1.2348 3.5629-1.139-1.9888-.1139-.1982-.1982.1162-3.3624 1.9455c-.0365.0205-.0752.0387-.1116.0547-.0487.0193-.1003.0301-.1527.0319-.205 0-.2278-.2278-.2278-.3714v-11.527c.0073-.20445.0585-.40492.1504-.58774l.0706-.12529c.1172-.22203.2918-.4085.5057-.53991l10.4791-6.05966c.0789-.04961.169-.0786.262-.08429m0-.22781c-.133.00484-.2625.04408-.3759.11391l-10.4791 6.05966c-.2486.15302-.4521.36918-.59.62647-.1512.25015-.2359.53482-.246.82696v11.527c0 .3782.189.5992.4556.5992.0782-.002.1554-.0182.2278-.0479-.0537.0225-.1084.0423-.164.0592.1073-.0286.2107-.0707.3075-.1252l3.367-1.9478 1.2005 2.0799c.0174.0298.0429.054.0736.0697s.0652.0223.0996.0189c.0343-.0033.0669-.0165.094-.0378.027-.0214.0474-.0501.0586-.0827l1.2621-3.67 4.3123-2.5059c.2442-.1593.4473-.3739.593-.6264.1456-.2526.2297-.5359.2454-.827v-11.53157c-.0012-.14073-.0234-.28049-.0661-.41461.0162.05771.0291.11627.0387.17541-.0186-.10115-.0721-.19255-.1512-.25832-.0791-.06576-.1787-.10172-.2816-.10161z" fill="#516eb4"/><path d="m68.9908 2.81123c-.0979-.35538-.4214-.46928-.8087-.24603l-10.4791 6.05967c-.2486.15301-.4522.36917-.5901.62647-.1512.25014-.2359.53481-.246.82696v11.527c0 .4784.3007.7017.6971.5513-.0536.0225-.1084.0422-.164.0592-.057.016-.1139.0297-.1731.041-.1849.0338-.3735.0415-.5605.0228-.0589-.0048-.1174-.0132-.1754-.025-.0501-.0087-.0996-.0209-.148-.0365-.1102-.028-.2159-.0709-.3144-.1276l-.6834-.3963c-.2439-.1591-.4468-.3734-.5925-.6255-.1456-.2521-.2299-.535-.2459-.8257v-11.53157c.0102-.29212.0949-.57679.2461-.82694.0746-.13115.1649-.25277.2688-.36221.025-.02506.0501-.05239.0752-.07517l.0797-.07063c.0456-.03341.0911-.0653.1367-.09568l.0319-.02277 6.6383-3.83628 3.8362-2.22112.0319-.01594c.1138-.06173.2358-.10698.3622-.13441.1094-.02533.2206-.04134.3326-.04784h.2278c.1121.0065.2233.02251.3326.04784.1377.02933.2699.08006.3919.15035l.6834.39411c.0884.05339.1709.11601.246.1868l.0775.07746c.0764.08212.1457.17052.2073.26425.0415.06398.0795.13014.1139.1982.0503.10038.0922.20477.1253.31209.0162.05846.0292.11778.0387.17769z" fill="#516eb4"/><path d="m57.5616 22.1518c-.0537.0225-.1084.0423-.1641.0593-.0569.0159-.1139.0296-.1731.041-.1849.0326-.3734.0403-.5604.0227-.0589-.0048-.1175-.0132-.1754-.025-.0502-.0087-.0996-.0208-.1481-.0365-.1101-.028-.2159-.0709-.3143-.1275l-.6835-.3964c-.2438-.1591-.4468-.3734-.5924-.6255-.1457-.2521-.2299-.5349-.2459-.8256v-11.52709c.0101-.29212.0948-.57679.246-.82693l2.3578 1.36684c-.1512.25014-.2359.53482-.246.82698v11.527c.0023.4738.303.6971.6994.5467z" fill="#000" opacity=".2"/><path d="m68.9901 2.81107c-.098-.35538-.4215-.46929-.8088-.24604l-10.4791 6.05967c-.2486.15302-.4521.36918-.59.62647l-2.3578-1.36684c.0738-.13179.1633-.25418.2665-.36449.0251-.02506.0501-.0524.0752-.07518l.0797-.07062c.0531-.04306.1095-.08191.1686-.11618l6.6383-3.83855 3.8363-2.22112.0319-.01594c.1144-.06036.2361-.10555.3622-.13441.1093-.02534.2206-.04134.3326-.04784h.2278c.112.0065.2233.0225.3326.04784.137.03138.269.082.3918.15035l.6834.39411c.0891.05245.1716.11514.2461.1868l.0774.07745c.0778.08096.1472.16948.2073.26426.0415.06398.0796.13013.1139.19819.0504.10039.0923.20478.1253.3121.0164.0592.0293.11929.0388.17997z" fill="#fff" opacity=".3"/><path d="m63.9175 8.29242c.0226-.01631.0497-.02509.0775-.02509s.0549.00878.0775.02509c.0236.02083.0419.04698.0534.0763s.0158.06095.0126.09228v1.15726c-.0021.0861-.0247.17046-.066.24603-.0342.07185-.0879.13264-.155.17541l-2.4466 1.4124v1.4967l2.2781-1.319c.0224-.0166.0495-.0256.0774-.0256s.0551.009.0775.0256c.0234.0209.0417.0471.0531.0764.0115.0293.0159.0609.0129.0922v1.1572c-.002.0861-.0247.1705-.066.2461-.0342.0718-.0878.1326-.1549.1754l-2.2781 1.319v2.3555c-.0017.0862-.0244.1706-.0661.246-.0334.0729-.0872.1346-.1549.1777l-1.0729.6174c-.0224.0166-.0496.0256-.0775.0256s-.0551-.009-.0775-.0256c-.0235-.0214-.0417-.048-.0531-.0777-.0115-.0296-.0159-.0615-.0129-.0932v-7.0483c.0018-.0855.0245-.1691.066-.2438.0335-.0729.0873-.1346.155-.1777z" fill="#455a64"/><path d="m65.872 7.10741c.126-.07349.2629-.12655.4055-.15719.1201-.02613.2452-.01663.36.02734.1095.04588.2013.12574.2619.2278.0765.13978.1172.2963.1185.45562v.28931.29843c-.0104.19839-.0472.3945-.1094.58319-.0636.18573-.1492.36317-.2551.52851-.1011.16172-.222.31018-.3599.44195-.1266.1235-.2682.23063-.4215.31893-.1301.0793-.2725.1363-.4214.1686-.1201.0261-.2452.0166-.36-.0274-.1079-.0464-.1982-.1262-.2574-.2278-.0724-.1408-.1091-.29724-.107-.45558 0-.05468 0-.15036 0-.28932s0-.2392 0-.30071c.0058-.19952.0451-.39666.1161-.58318.0696-.187.1582-.36638.2643-.53535.1025-.16069.2233-.30899.3599-.44194.1223-.12247.2583-.23027.4055-.32121zm0 .82922c-.0731.04427-.1305.11041-.164.18908-.0451.1235-.0697.25355-.0729.38499v.24603.22781c-.007.10894.0184.21753.0729.3121.038.03189.0926.02733.164-.01367.0711-.04068.1282-.10181.1641-.17542.049-.12636.0737-.26084.0728-.39638.0043-.08196.0043-.16407 0-.24603.0042-.07588.0042-.15193 0-.22781.0066-.10528-.0188-.21009-.0728-.3007-.038-.04101-.0927-.04101-.1641 0z" fill="#455a64"/></svg>