<svg width="70" height="70" viewBox="0 0 70 70" fill="none" xmlns="http://www.w3.org/2000/svg">
<path d="M59.2846 64.1422C72.8117 56.3326 72.8117 43.6689 59.2846 35.8578C45.7576 28.0467 23.8229 28.0481 10.2943 35.8578C-3.23426 43.6674 -3.23277 56.3326 10.2943 64.1422C23.8214 71.9519 45.7561 71.9533 59.2846 64.1422Z" fill="#F5F5F5"/>
<path d="M57.2012 40.7694C57.2012 40.7512 57.2012 40.733 57.2012 40.7134C57.2012 40.6938 57.2012 40.7134 57.2012 40.7036C57.1988 40.6631 57.1936 40.6229 57.1858 40.5832C57.1858 40.5748 57.1858 40.5664 57.1788 40.558V40.5384C57.1668 40.4929 57.1513 40.4485 57.1326 40.4054C57.1295 40.3953 57.1258 40.3855 57.1214 40.376C57.1021 40.3352 57.0806 40.2954 57.057 40.257L57.036 40.2206C57.0108 40.1842 56.9842 40.1478 56.9548 40.1114L56.9226 40.0708C56.896 40.04 56.8666 40.0106 56.8358 39.9812L56.826 39.9714C56.8106 39.9574 56.798 39.942 56.7812 39.928C56.7644 39.914 56.7056 39.865 56.6636 39.8328L56.616 39.795C56.5558 39.7516 56.4914 39.711 56.4228 39.6704L55.0816 38.8962L54.873 38.7758C54.8072 38.738 54.74 38.703 54.6686 38.6694C53.6116 38.1724 52.0534 38.2074 51.0678 38.7758L42.8288 43.5358L42.5096 43.7206L41.2496 44.4472L40.6336 44.8028L36.1676 47.3816L34.5254 48.3294C34.377 48.4162 34.2286 48.5086 34.0802 48.6094C32.5248 49.6496 30.9932 51.3786 29.2418 52.976C28.8218 53.3568 28.4018 53.7292 27.951 54.0834C27.5954 54.3634 27.2286 54.6434 26.8506 54.894L24.7296 56.3206L23.3926 57.218L21.4326 58.527L18.55 60.186L18.5164 60.207C18.4144 60.2651 18.3261 60.3446 18.2577 60.4401C18.1893 60.5355 18.1424 60.6447 18.1202 60.76V60.7866V60.8188C18.1181 60.8509 18.1181 60.8832 18.1202 60.9154C18.1205 61.0515 18.1549 61.1853 18.2202 61.3047C18.2855 61.4241 18.3796 61.5252 18.4941 61.5989C18.6085 61.6725 18.7396 61.7163 18.8753 61.7263C19.011 61.7363 19.147 61.7121 19.271 61.656L19.3102 61.6336L22.1802 59.9676H22.1872C22.1872 59.9676 24.9774 58.5774 28.5012 56.8316C32.025 55.0858 37.4878 54.8632 39.8678 53.4884L54.7442 44.8924C55.363 44.5354 55.9258 44.2078 56.413 43.9292C56.4788 43.89 56.5404 43.8508 56.5978 43.8102C56.9996 43.5302 57.2012 43.1774 57.2012 42.8302V40.7694Z" fill="#E0E0E0"/>
<path d="M67.6548 44.9119L67.6464 44.8475C67.6464 44.8102 67.6408 44.7724 67.6296 44.7341L67.6128 44.6543C67.6128 44.6249 67.5988 44.5955 67.5904 44.5661C67.582 44.5367 67.5736 44.5059 67.5638 44.4751C67.554 44.4443 67.5526 44.4471 67.5484 44.4317C67.5015 44.3014 67.4415 44.1761 67.3692 44.0579C67.3699 44.0542 67.3699 44.0504 67.3692 44.0467C67.1145 43.634 66.7181 43.3284 66.2541 43.1872C65.7902 43.046 65.2907 43.0788 64.8492 43.2795L64.7554 43.3341L37.629 58.9875C37.629 58.9875 37.2734 59.1779 36.9136 59.3865C35.9686 59.9325 36.1016 61.2191 35.3148 61.6769C34.8738 61.9345 34.6624 62.0535 34.0912 62.3839L30.0312 64.7331L29.9976 64.7541C29.8955 64.8134 29.8075 64.8942 29.7398 64.9909C29.6721 65.0876 29.6263 65.1979 29.6056 65.3141C29.6056 65.3225 29.6056 65.3309 29.6056 65.3393C29.6051 65.3501 29.6051 65.3608 29.6056 65.3715C29.6012 65.404 29.5988 65.4368 29.5986 65.4695C29.599 65.6854 29.685 65.8923 29.8378 66.0448C29.9905 66.1973 30.1976 66.2829 30.4134 66.2829C30.5299 66.283 30.6451 66.2576 30.7508 66.2087L30.7886 66.1877L36.2486 63.0349C36.4152 62.9397 36.7288 62.9523 37.111 62.9733L37.5128 62.9929C38.0728 63.0139 38.7042 62.9929 39.2236 62.6919L66.5782 46.8789L66.6188 46.8537L66.6608 46.8285C66.8098 46.7423 66.9472 46.6373 67.0696 46.5163C67.131 46.4565 67.188 46.3924 67.2404 46.3245C67.2939 46.2568 67.343 46.1857 67.3874 46.1117C67.5699 45.805 67.6666 45.455 67.6674 45.0981C67.6646 45.0351 67.6604 44.9735 67.6548 44.9119Z" fill="#E0E0E0"/>
<path d="M22.1773 55.1597L12.7539 49.7193C11.7487 49.1397 11.7487 48.1989 12.7539 47.6193L20.0003 43.4347C21.0041 42.8551 22.6323 42.8551 23.6403 43.4347L33.0637 48.8751C34.0675 49.4561 34.0675 50.3955 33.0637 50.9751L25.8173 55.1597C24.8093 55.7393 23.1811 55.7393 22.1773 55.1597Z" fill="#E0E0E0"/>
<path d="M65.0849 42C64.7989 41.9995 64.5161 42.0611 64.2561 42.1806L64.1623 42.2338L37.0485 57.8872C37.0485 57.8872 36.6943 58.079 36.3345 58.2862C35.3881 58.8322 35.5211 60.1188 34.7343 60.5766C34.2933 60.8342 34.0819 60.9532 33.5107 61.2836L34.2611 62.727L35.6513 61.9248C36.0937 61.6686 37.5889 62.181 38.6263 61.5804L65.9977 45.7786L66.0803 45.7282C66.4622 45.5092 66.7609 45.1702 66.9301 44.7639C67.0993 44.3575 67.1295 43.9067 67.016 43.4814C66.9024 43.0562 66.6515 42.6803 66.3023 42.4124C65.9531 42.1445 65.5251 41.9995 65.0849 42Z" fill="#516EB4"/>
<path opacity="0.8" d="M65.0849 42C64.7989 41.9995 64.5161 42.0611 64.2561 42.1806L64.1623 42.2338L37.0485 57.8872C37.0485 57.8872 36.6943 58.079 36.3345 58.2862C35.3881 58.8322 35.5211 60.1188 34.7343 60.5766C34.2933 60.8342 34.0819 60.9532 33.5107 61.2836L34.2611 62.727L35.6513 61.9248C36.0937 61.6686 37.5889 62.181 38.6263 61.5804L65.9977 45.7786L66.0803 45.7282C66.4622 45.5092 66.7609 45.1702 66.9301 44.7639C67.0993 44.3575 67.1295 43.9067 67.016 43.4814C66.9024 43.0562 66.6515 42.6803 66.3023 42.4124C65.9531 42.1445 65.5251 41.9995 65.0849 42Z" fill="white"/>
<path d="M66.2651 44.6627L63.8851 43.2893L36.5137 59.0911V59.2843L38.8937 60.6591L66.2651 44.8559V44.6627Z" fill="#E0E0E0"/>
<path opacity="0.1" d="M36.5137 59.0913L38.8937 60.4661V60.6593L36.5137 59.2845V59.0913Z" fill="black"/>
<path d="M36.5137 59.0911L38.8937 60.4659L66.2651 44.6627L63.8851 43.2893L36.5137 59.0911Z" fill="#FAFAFA"/>
<path d="M53.5841 50.5889L52.9751 50.2375L52.6321 50.0387C52.6279 50.0362 52.6233 50.0346 52.6184 50.034C52.6136 50.0334 52.6087 50.0337 52.604 50.035C52.5993 50.0363 52.5949 50.0386 52.591 50.0416C52.5872 50.0446 52.5841 50.0484 52.5817 50.0527C52.5771 50.0613 52.576 50.0713 52.5786 50.0807C52.5812 50.0901 52.5873 50.0981 52.5957 50.1031L53.5477 50.6519L53.6065 50.6869L53.9495 50.8843C53.9554 50.8863 53.9618 50.8863 53.9677 50.8843C53.9742 50.8842 53.9805 50.8824 53.9861 50.8792C53.9917 50.8761 53.9965 50.8716 53.9999 50.8661C54.0024 50.8619 54.004 50.8572 54.0046 50.8524C54.0053 50.8476 54.0049 50.8426 54.0036 50.8379C54.0023 50.8332 54.0001 50.8288 53.997 50.825C53.994 50.8212 53.9902 50.818 53.9859 50.8157L53.5841 50.5889ZM40.9001 57.9151L40.2855 57.5637L39.9425 57.3649C39.934 57.3601 39.9239 57.3588 39.9144 57.3615C39.905 57.3641 39.8969 57.3704 39.8921 57.3789C39.8873 57.3874 39.8861 57.3975 39.8887 57.407C39.8913 57.4165 39.8976 57.4245 39.9061 57.4293L40.8581 57.9781L40.9169 58.0131L41.2599 58.2105C41.2658 58.2123 41.2722 58.2123 41.2781 58.2105C41.2846 58.2104 41.2909 58.2086 41.2965 58.2054C41.3021 58.2023 41.3069 58.1978 41.3103 58.1923C41.3128 58.1881 41.3144 58.1834 41.315 58.1786C41.3157 58.1738 41.3153 58.1688 41.314 58.1641C41.3127 58.1594 41.3105 58.155 41.3074 58.1512C41.3044 58.1474 41.3006 58.1442 41.2963 58.1419L40.9001 57.9151ZM50.0001 52.1835C49.9915 52.1789 49.9815 52.1778 49.9721 52.1804C49.9627 52.183 49.9547 52.1891 49.9497 52.1975C49.9452 52.2059 49.9441 52.2157 49.9467 52.2249C49.9493 52.234 49.9554 52.2418 49.9637 52.2465L50.3067 52.4453L50.4341 52.5181L50.7771 52.7169C50.7831 52.7182 50.7893 52.7182 50.7953 52.7169C50.8018 52.7168 50.8081 52.715 50.8137 52.7118C50.8193 52.7087 50.8241 52.7042 50.8275 52.6987C50.83 52.6945 50.8316 52.6898 50.8322 52.685C50.8329 52.6802 50.8325 52.6752 50.8312 52.6705C50.8299 52.6658 50.8277 52.6614 50.8246 52.6576C50.8216 52.6538 50.8178 52.6506 50.8135 52.6483L50.0001 52.1835ZM47.2393 54.2513L46.6303 53.8999L46.2873 53.7025C46.2789 53.6978 46.269 53.6964 46.2596 53.6988C46.2502 53.7011 46.2421 53.707 46.2369 53.7151C46.2344 53.7193 46.2329 53.724 46.2322 53.7288C46.2316 53.7336 46.2319 53.7386 46.2332 53.7433C46.2345 53.748 46.2368 53.7524 46.2398 53.7562C46.2429 53.76 46.2466 53.7632 46.2509 53.7655L47.2029 54.3157L47.2617 54.3507L47.6047 54.5481C47.6107 54.5494 47.6169 54.5494 47.6229 54.5481C47.6294 54.5482 47.6358 54.5466 47.6415 54.5434C47.6472 54.5402 47.6519 54.5355 47.6551 54.5299C47.6597 54.5213 47.6609 54.5113 47.6582 54.5019C47.6556 54.4925 47.6495 54.4845 47.6411 54.4795L47.2393 54.2513ZM59.9877 46.9601L59.3199 46.5737L58.9783 46.3763C58.9699 46.3716 58.96 46.3702 58.9506 46.3726C58.9412 46.3749 58.9331 46.3808 58.9279 46.3889C58.9255 46.3931 58.9239 46.3978 58.9232 46.4026C58.9226 46.4075 58.9229 46.4124 58.9242 46.4171C58.9255 46.4218 58.9278 46.4262 58.9308 46.43C58.9339 46.4338 58.9376 46.437 58.9419 46.4393L60.2957 47.2219C60.3017 47.2233 60.3079 47.2233 60.3139 47.2219C60.3204 47.222 60.3268 47.2204 60.3325 47.2172C60.3382 47.214 60.3429 47.2093 60.3461 47.2037C60.3507 47.1953 60.3517 47.1855 60.3491 47.1763C60.3465 47.1672 60.3404 47.1594 60.3321 47.1547L59.9877 46.9601ZM43.6553 55.8459C43.6511 55.8435 43.6464 55.842 43.6416 55.8414C43.6368 55.8408 43.6319 55.8412 43.6272 55.8425C43.6225 55.8438 43.6182 55.846 43.6143 55.849C43.6105 55.852 43.6073 55.8557 43.6049 55.8599C43.6025 55.8641 43.601 55.8688 43.6004 55.8736C43.5998 55.8784 43.6002 55.8833 43.6015 55.888C43.6028 55.8927 43.605 55.8971 43.608 55.9009C43.611 55.9047 43.6147 55.9079 43.6189 55.9103L43.9619 56.1077L44.6395 56.4983L44.9825 56.6971C44.9885 56.6984 44.9947 56.6984 45.0007 56.6971C45.0072 56.697 45.0135 56.6952 45.0191 56.692C45.0247 56.6889 45.0295 56.6844 45.0329 56.6789C45.0354 56.6747 45.037 56.67 45.0376 56.6652C45.0383 56.6604 45.0379 56.6554 45.0366 56.6507C45.0353 56.646 45.0331 56.6416 45.03 56.6378C45.027 56.634 45.0232 56.6308 45.0189 56.6285L43.6553 55.8459ZM64.0533 45.6441L63.1013 45.0939L63.0327 45.0547L62.6897 44.8573C62.6855 44.8548 62.6809 44.8532 62.676 44.8526C62.6712 44.852 62.6663 44.8523 62.6616 44.8536C62.6569 44.8549 62.6525 44.8572 62.6486 44.8602C62.6448 44.8632 62.6417 44.867 62.6393 44.8713C62.6369 44.8754 62.6353 44.88 62.6347 44.8847C62.6341 44.8894 62.6344 44.8942 62.6357 44.8988C62.6371 44.9034 62.6393 44.9077 62.6423 44.9114C62.6453 44.9151 62.6491 44.9181 62.6533 44.9203L63.0635 45.1583L63.6739 45.5097L64.0169 45.7071C64.0228 45.7091 64.0292 45.7091 64.0351 45.7071C64.0414 45.707 64.0475 45.7052 64.0529 45.702C64.0583 45.6989 64.0628 45.6943 64.0659 45.6889C64.0691 45.6811 64.0696 45.6725 64.0673 45.6643C64.065 45.6562 64.0601 45.6491 64.0533 45.6441ZM56.7565 48.7577L56.6879 48.7185L56.3449 48.5211C56.3409 48.5184 56.3363 48.5165 56.3314 48.5157C56.3266 48.5148 56.3217 48.515 56.3169 48.5162C56.3122 48.5174 56.3077 48.5196 56.3039 48.5226C56.3 48.5256 56.2968 48.5294 56.2945 48.5337C56.292 48.5379 56.2905 48.5426 56.2898 48.5474C56.2892 48.5523 56.2895 48.5572 56.2908 48.5619C56.2921 48.5666 56.2944 48.571 56.2974 48.5748C56.3005 48.5786 56.3042 48.5818 56.3085 48.5841L56.7201 48.8207L57.3291 49.1721L57.6721 49.3709C57.6807 49.3757 57.6908 49.377 57.7002 49.3743C57.7097 49.3717 57.7177 49.3654 57.7225 49.3569C57.7273 49.3484 57.7286 49.3383 57.726 49.3288C57.7233 49.3194 57.7171 49.3113 57.7085 49.3065L56.7565 48.7577ZM38.6965 58.4793C38.6881 58.4746 38.6782 58.4732 38.6688 58.4756C38.6594 58.4779 38.6513 58.4838 38.6461 58.4919C38.6436 58.4961 38.6421 58.5008 38.6414 58.5056C38.6408 58.5105 38.6411 58.5154 38.6424 58.5201C38.6437 58.5248 38.646 58.5292 38.649 58.533C38.6521 58.5368 38.6558 58.54 38.6601 58.5423L39.8781 59.2423C39.8841 59.2436 39.8903 59.2436 39.8963 59.2423C39.9028 59.2422 39.9091 59.2404 39.9147 59.2372C39.9203 59.2341 39.9251 59.2295 39.9285 59.2241C39.9331 59.2155 39.9343 59.2055 39.9316 59.1961C39.929 59.1867 39.9229 59.1787 39.9145 59.1737L38.6965 58.4793ZM41.8689 56.6467C41.8647 56.6443 41.86 56.6428 41.8552 56.6422C41.8504 56.6416 41.8455 56.642 41.8408 56.6433C41.8361 56.6446 41.8318 56.6468 41.8279 56.6498C41.8241 56.6528 41.8209 56.6565 41.8185 56.6607C41.8161 56.6649 41.8146 56.6696 41.814 56.6744C41.8134 56.6792 41.8138 56.6841 41.8151 56.6888C41.8164 56.6935 41.8186 56.6979 41.8216 56.7017C41.8246 56.7055 41.8283 56.7087 41.8325 56.7111L43.0505 57.4111C43.0564 57.4129 43.0628 57.4129 43.0687 57.4111C43.0752 57.411 43.0815 57.4092 43.0871 57.406C43.0927 57.4029 43.0975 57.3984 43.1009 57.3929C43.1034 57.3887 43.105 57.384 43.1056 57.3792C43.1063 57.3744 43.1059 57.3694 43.1046 57.3647C43.1033 57.36 43.1011 57.3556 43.098 57.3518C43.095 57.348 43.0912 57.3448 43.0869 57.3425L41.8689 56.6467ZM57.7337 47.4837C57.7295 47.4812 57.7249 47.4796 57.72 47.479C57.7152 47.4784 57.7103 47.4787 57.7056 47.48C57.7009 47.4813 57.6965 47.4836 57.6926 47.4866C57.6888 47.4896 57.6857 47.4934 57.6833 47.4977C57.6786 47.5061 57.6772 47.516 57.6796 47.5254C57.6819 47.5348 57.6878 47.5429 57.6959 47.5481L58.9153 48.2481C58.9212 48.2501 58.9276 48.2501 58.9335 48.2481C58.94 48.248 58.9463 48.2462 58.9519 48.243C58.9575 48.2399 58.9623 48.2354 58.9657 48.2299C58.9703 48.2213 58.9715 48.2113 58.9688 48.2019C58.9662 48.1925 58.9601 48.1845 58.9517 48.1795L57.7337 47.4837ZM60.9047 45.6637C60.9006 45.6613 60.8961 45.6597 60.8913 45.6591C60.8866 45.6585 60.8818 45.6588 60.8772 45.6601C60.8726 45.6614 60.8683 45.6637 60.8646 45.6667C60.861 45.6697 60.8579 45.6735 60.8557 45.6777C60.8511 45.6859 60.8498 45.6956 60.8521 45.7047C60.8545 45.7139 60.8603 45.7218 60.8683 45.7267L62.0877 46.4267C62.0937 46.4281 62.0999 46.4281 62.1059 46.4267C62.1124 46.4268 62.1188 46.4252 62.1245 46.422C62.1302 46.4188 62.1349 46.4141 62.1381 46.4085C62.1427 46.4001 62.1437 46.3903 62.1411 46.3811C62.1385 46.372 62.1324 46.3642 62.1241 46.3595L60.9047 45.6637ZM54.5613 49.3275C54.5573 49.3248 54.5527 49.3229 54.5478 49.3221C54.543 49.3212 54.5381 49.3214 54.5333 49.3226C54.5286 49.3238 54.5241 49.326 54.5203 49.329C54.5164 49.332 54.5132 49.3358 54.5109 49.3401C54.5062 49.3485 54.5048 49.3584 54.5072 49.3678C54.5095 49.3772 54.5154 49.3853 54.5235 49.3905L55.7429 50.0905C55.7488 50.0923 55.7552 50.0923 55.7611 50.0905C55.7676 50.0904 55.7739 50.0886 55.7795 50.0854C55.7851 50.0823 55.7899 50.0778 55.7933 50.0723C55.7958 50.0681 55.7974 50.0634 55.798 50.0586C55.7987 50.0538 55.7983 50.0488 55.797 50.0441C55.7957 50.0394 55.7935 50.035 55.7904 50.0312C55.7874 50.0274 55.7836 50.0242 55.7793 50.0219L54.5613 49.3275ZM51.3889 51.1587C51.3805 51.154 51.3706 51.1526 51.3612 51.155C51.3518 51.1573 51.3437 51.1632 51.3385 51.1713C51.3361 51.1755 51.3345 51.1802 51.3338 51.185C51.3332 51.1899 51.3335 51.1948 51.3348 51.1995C51.3361 51.2042 51.3384 51.2086 51.3414 51.2124C51.3445 51.2162 51.3482 51.2194 51.3525 51.2217L52.5705 51.9217C52.5765 51.923 52.5827 51.923 52.5887 51.9217C52.5952 51.9216 52.6015 51.9198 52.6071 51.9166C52.6127 51.9135 52.6175 51.909 52.6209 51.9035C52.6255 51.8949 52.6267 51.8849 52.624 51.8755C52.6214 51.8661 52.6153 51.8581 52.6069 51.8531L51.3889 51.1587ZM45.0441 54.8155C45.0399 54.8131 45.0352 54.8116 45.0304 54.811C45.0256 54.8104 45.0207 54.8108 45.016 54.8121C45.0113 54.8134 45.007 54.8156 45.0031 54.8186C44.9993 54.8216 44.9961 54.8253 44.9937 54.8295C44.9913 54.8337 44.9898 54.8384 44.9892 54.8432C44.9886 54.848 44.989 54.8529 44.9903 54.8576C44.9916 54.8623 44.9938 54.8667 44.9968 54.8705C44.9998 54.8743 45.0035 54.8775 45.0077 54.8799L46.2257 55.5799C46.2317 55.5811 46.2379 55.5811 46.2439 55.5799C46.2504 55.5798 46.2567 55.578 46.2623 55.5748C46.2679 55.5717 46.2727 55.5672 46.2761 55.5617C46.2786 55.5575 46.2802 55.5528 46.2808 55.548C46.2815 55.5432 46.2811 55.5382 46.2798 55.5335C46.2785 55.5288 46.2763 55.5244 46.2732 55.5206C46.2702 55.5168 46.2664 55.5136 46.2621 55.5113L45.0441 54.8155ZM48.2165 52.9843C48.2123 52.9818 48.2077 52.9802 48.2028 52.9796C48.198 52.979 48.1931 52.9793 48.1884 52.9806C48.1837 52.9819 48.1793 52.9842 48.1754 52.9872C48.1716 52.9902 48.1685 52.994 48.1661 52.9983C48.1637 53.0024 48.1621 53.007 48.1615 53.0117C48.1609 53.0164 48.1612 53.0212 48.1625 53.0258C48.1639 53.0304 48.1661 53.0347 48.1691 53.0384C48.1721 53.0421 48.1759 53.0451 48.1801 53.0473L49.3981 53.7473C49.4041 53.7486 49.4103 53.7486 49.4163 53.7473C49.4228 53.7474 49.4292 53.7458 49.4349 53.7426C49.4406 53.7394 49.4453 53.7347 49.4485 53.7291C49.451 53.725 49.4525 53.7204 49.4532 53.7157C49.4538 53.711 49.4534 53.7062 49.4521 53.7016C49.4508 53.697 49.4486 53.6927 49.4455 53.689C49.4425 53.6853 49.4388 53.6823 49.4345 53.6801L48.2165 52.9843Z" fill="#455A64"/>
<path d="M41.7065 58.4612C41.6864 58.4495 41.6647 58.441 41.6421 58.436C41.6198 58.4325 41.5971 58.4325 41.5749 58.436C41.5516 58.4374 41.5285 58.4417 41.5063 58.4486C41.4832 58.4557 41.4611 58.4656 41.4405 58.478L41.4279 58.485L41.4055 58.3212H41.3957C41.3915 58.3184 41.3866 58.3169 41.3817 58.3169C41.3767 58.3169 41.3718 58.3184 41.3677 58.3212L41.1353 58.4612C41.1255 58.4612 41.1269 58.471 41.1353 58.4766H41.1451C41.1492 58.4793 41.1541 58.4808 41.1591 58.4808C41.164 58.4808 41.1689 58.4793 41.1731 58.4766L41.3607 58.3688L41.3831 58.5298C41.3854 58.5303 41.3878 58.5303 41.3901 58.5298H41.3985C41.4026 58.5325 41.4075 58.534 41.4125 58.534C41.4174 58.534 41.4223 58.5325 41.4265 58.5298L41.4811 58.4976C41.5104 58.4808 41.5428 58.4699 41.5763 58.4654C41.6091 58.4632 41.6417 58.471 41.6701 58.4878C41.6828 58.4945 41.6938 58.5041 41.7023 58.5158C41.7054 58.5202 41.7077 58.5252 41.7089 58.5304C41.7101 58.5357 41.7102 58.5412 41.7093 58.5466C41.7059 58.5578 41.6996 58.5679 41.6911 58.576C41.6799 58.587 41.6671 58.5965 41.6533 58.604C41.6412 58.6111 41.6286 58.6172 41.6155 58.6222L41.5735 58.6362C41.5577 58.6383 41.5416 58.6383 41.5259 58.6362C41.509 58.6362 41.4924 58.6328 41.4769 58.6264C41.4704 58.6253 41.4637 58.6253 41.4573 58.6264H41.4447H41.4363C41.4356 58.6274 41.4353 58.6286 41.4353 58.6299C41.4353 58.6311 41.4356 58.6323 41.4363 58.6334C41.4363 58.6334 41.4363 58.6334 41.4363 58.6404C41.4518 58.6491 41.4689 58.6548 41.4867 58.6572C41.5076 58.6593 41.5287 58.6593 41.5497 58.6572C41.599 58.6535 41.6469 58.6387 41.6897 58.6138C41.7083 58.6032 41.7253 58.59 41.7401 58.5746C41.7512 58.5629 41.759 58.5483 41.7625 58.5326C41.7646 58.5178 41.7611 58.5028 41.7527 58.4906C41.7393 58.4778 41.7236 58.4678 41.7065 58.4612ZM42.0985 58.2904C42.0843 58.2725 42.0667 58.2577 42.0467 58.247C42.024 58.2338 41.9995 58.2243 41.9739 58.219C41.9491 58.2132 41.9237 58.2108 41.8983 58.212C41.8731 58.2134 41.8483 58.2176 41.8241 58.2246C41.8008 58.2316 41.7782 58.241 41.7569 58.2526C41.739 58.2613 41.7233 58.2737 41.7107 58.289C41.7058 58.296 41.7016 58.3035 41.6981 58.3114L41.5707 58.2232L41.7485 58.1196C41.7583 58.1196 41.7583 58.1084 41.7485 58.1042H41.7387C41.7347 58.1015 41.7301 58.1001 41.7254 58.1001C41.7206 58.1001 41.716 58.1015 41.7121 58.1042L41.5091 58.2204C41.5007 58.2204 41.5007 58.2302 41.5091 58.2372L41.6939 58.3646C41.698 58.3673 41.7029 58.3688 41.7079 58.3688C41.7128 58.3688 41.7177 58.3673 41.7219 58.3646H41.7331C41.7358 58.3632 41.7383 58.3612 41.7402 58.3588C41.7422 58.3564 41.7435 58.3536 41.7443 58.3506C41.7438 58.3445 41.7438 58.3384 41.7443 58.3324C41.7472 58.3247 41.7514 58.3175 41.7569 58.3114C41.7652 58.3003 41.7763 58.2916 41.7891 58.2862C41.8045 58.2763 41.8216 58.2692 41.8395 58.2652C41.8572 58.2598 41.8755 58.2565 41.8941 58.2554C41.9122 58.2533 41.9305 58.2533 41.9487 58.2554C41.9673 58.2589 41.9853 58.2656 42.0019 58.275C42.0165 58.2831 42.0293 58.294 42.0397 58.3072C42.0462 58.3166 42.0497 58.3279 42.0495 58.3394C42.0481 58.3512 42.0432 58.3625 42.0355 58.3716C42.0252 58.3835 42.0129 58.3935 41.9991 58.401C41.9873 58.4082 41.9745 58.4139 41.9613 58.4178C41.9473 58.4231 41.9327 58.4265 41.9179 58.4276C41.9021 58.4297 41.886 58.4297 41.8703 58.4276C41.8531 58.4258 41.8361 58.4221 41.8199 58.4164H41.8017H41.7905L41.7793 58.4234C41.7793 58.4234 41.7723 58.4234 41.7723 58.4304C41.7889 58.4391 41.8069 58.4453 41.8255 58.4486C41.8714 58.4604 41.9195 58.4604 41.9655 58.4486C41.9902 58.4426 42.0139 58.4327 42.0355 58.4192C42.0543 58.4096 42.0714 58.3968 42.0859 58.3814C42.0969 58.3694 42.1038 58.3542 42.1055 58.338C42.1089 58.3218 42.1065 58.3049 42.0985 58.2904Z" fill="black"/>
<path d="M43.3485 55.7507C43.3288 55.7385 43.3069 55.73 43.2841 55.7255C43.2619 55.7221 43.2392 55.7221 43.2169 55.7255C43.1937 55.727 43.1706 55.7313 43.1483 55.7381C43.1253 55.7453 43.1032 55.7552 43.0825 55.7675L43.0699 55.7745L43.0475 55.6107H43.0377C43.0336 55.608 43.0287 55.6065 43.0237 55.6065C43.0188 55.6065 43.0139 55.608 43.0097 55.6107L42.7773 55.7507C42.7675 55.7507 42.7689 55.7619 42.7773 55.7675H42.7871C42.7913 55.7703 42.7962 55.7718 42.8011 55.7718C42.8061 55.7718 42.811 55.7703 42.8151 55.7675L43.0027 55.6583L43.0251 55.8207H43.0335C43.0377 55.8235 43.0426 55.825 43.0475 55.825C43.0525 55.825 43.0574 55.8235 43.0615 55.8207L43.1161 55.7885C43.1453 55.7712 43.1777 55.7603 43.2113 55.7563C43.2442 55.7535 43.2771 55.7613 43.3051 55.7787C43.3182 55.785 43.3293 55.7947 43.3373 55.8067C43.3404 55.8109 43.3426 55.8157 43.3438 55.8207C43.345 55.8258 43.3452 55.831 43.3443 55.8361C43.3413 55.8479 43.335 55.8586 43.3261 55.8669C43.3149 55.878 43.3022 55.8875 43.2883 55.8949C43.2763 55.9021 43.2637 55.9082 43.2505 55.9131C43.237 55.9188 43.2229 55.923 43.2085 55.9257C43.1927 55.9279 43.1767 55.9279 43.1609 55.9257C43.1442 55.925 43.1277 55.9217 43.1119 55.9159C43.1055 55.9149 43.0988 55.9149 43.0923 55.9159H43.0797H43.0713C43.0707 55.917 43.0704 55.9182 43.0704 55.9194C43.0704 55.9207 43.0707 55.9219 43.0713 55.9229C43.0713 55.9229 43.0713 55.9229 43.0713 55.9299C43.0871 55.9382 43.1041 55.9439 43.1217 55.9467C43.1427 55.9489 43.1638 55.9489 43.1847 55.9467C43.2085 55.9452 43.2319 55.9409 43.2547 55.9341C43.2795 55.9262 43.3034 55.9159 43.3261 55.9033C43.3448 55.8928 43.3618 55.8796 43.3765 55.8641C43.3877 55.8525 43.3955 55.8379 43.3989 55.8221C43.4011 55.8074 43.3976 55.7924 43.3891 55.7801C43.3775 55.768 43.3637 55.758 43.3485 55.7507ZM43.7433 55.5645C43.7311 55.55 43.7164 55.5377 43.6999 55.5281C43.6798 55.5167 43.6581 55.5082 43.6355 55.5029C43.611 55.4956 43.5855 55.4918 43.5599 55.4917C43.5331 55.4911 43.5063 55.4939 43.4801 55.5001C43.4526 55.5064 43.4262 55.5168 43.4017 55.5309L43.3807 55.5449L43.3653 55.5575L43.3261 55.4287H43.3121C43.3102 55.4278 43.308 55.4272 43.3058 55.4272C43.3037 55.4272 43.3015 55.4278 43.2995 55.4287H43.2869C43.2869 55.4287 43.2785 55.4357 43.2869 55.4399C43.2953 55.4441 43.2869 55.4399 43.2869 55.4483L43.3359 55.6177C43.3379 55.624 43.3402 55.63 43.3429 55.6359C43.3464 55.6438 43.3506 55.6513 43.3555 55.6583L43.3765 55.6821C43.3861 55.6906 43.3964 55.6981 43.4073 55.7045C43.4274 55.7151 43.4485 55.7235 43.4703 55.7297C43.4951 55.7362 43.5204 55.74 43.5459 55.7409C43.5732 55.7409 43.6004 55.738 43.6271 55.7325C43.6541 55.7258 43.68 55.7155 43.7041 55.7017C43.7254 55.6915 43.7437 55.6761 43.7573 55.6569C43.7672 55.6435 43.7725 55.6274 43.7727 55.6107C43.7683 55.5925 43.7579 55.5763 43.7433 55.5645ZM43.6929 55.6499C43.6829 55.6611 43.671 55.6706 43.6579 55.6779C43.6424 55.6866 43.626 55.6937 43.6089 55.6989C43.5901 55.7032 43.5709 55.706 43.5515 55.7073C43.532 55.7101 43.5122 55.7101 43.4927 55.7073C43.4731 55.7033 43.4542 55.6962 43.4367 55.6863C43.4218 55.6781 43.4089 55.6666 43.3989 55.6527C43.3925 55.6427 43.3891 55.6311 43.3891 55.6191C43.3911 55.6072 43.3964 55.596 43.4045 55.5869C43.4143 55.575 43.4261 55.5651 43.4395 55.5575C43.455 55.5491 43.4715 55.5425 43.4885 55.5379C43.5067 55.5324 43.5256 55.5296 43.5445 55.5295C43.564 55.5268 43.5838 55.5268 43.6033 55.5295C43.6234 55.5338 43.6427 55.5409 43.6607 55.5505C43.675 55.5591 43.6878 55.57 43.6985 55.5827C43.7051 55.5932 43.7081 55.6055 43.7069 55.6177C43.7082 55.629 43.7057 55.6403 43.6999 55.6499H43.6929Z" fill="black"/>
<path d="M48.078 54.7834C48.058 54.7714 48.0363 54.7624 48.0136 54.7568C47.9908 54.754 47.9678 54.754 47.945 54.7568C47.9222 54.7583 47.8996 54.7625 47.8778 54.7694C47.8548 54.7766 47.8327 54.7865 47.812 54.7988H47.7994L47.777 54.6336H47.7686C47.7642 54.6309 47.7591 54.6295 47.7539 54.6295C47.7487 54.6295 47.7436 54.6309 47.7392 54.6336L47.5082 54.7666C47.4979 54.7722 47.4979 54.7778 47.5082 54.7834H47.518C47.5221 54.7855 47.5267 54.7866 47.5313 54.7866C47.5359 54.7866 47.5405 54.7855 47.5446 54.7834L47.7322 54.6742L47.756 54.8352H47.763H47.7714C47.7758 54.8374 47.7805 54.8384 47.7854 54.8384C47.7902 54.8384 47.795 54.8374 47.7994 54.8352L47.854 54.803C47.883 54.7855 47.9155 54.7745 47.9492 54.7708C47.9821 54.768 48.015 54.7758 48.043 54.7932C48.056 54.7995 48.0671 54.8092 48.0752 54.8212C48.0772 54.8259 48.0782 54.8309 48.0782 54.8359C48.0782 54.841 48.0772 54.846 48.0752 54.8506C48.0729 54.862 48.067 54.8723 48.0584 54.88C48.0466 54.8915 48.0335 54.9014 48.0192 54.9094L47.9828 54.9276C47.9688 54.9333 47.9542 54.9375 47.9394 54.9402H47.8932C47.876 54.9397 47.859 54.9364 47.8428 54.9304C47.8369 54.9286 47.8305 54.9286 47.8246 54.9304H47.812H47.8036C47.803 54.9315 47.8027 54.9327 47.8027 54.9339C47.8027 54.9352 47.803 54.9364 47.8036 54.9374C47.8196 54.9451 47.8366 54.9508 47.854 54.9542C47.8749 54.9571 47.8961 54.9571 47.917 54.9542C47.9407 54.9527 47.9642 54.9484 47.987 54.9416C48.0121 54.9346 48.0361 54.9243 48.0584 54.9108C48.0773 54.9008 48.0944 54.8875 48.1088 54.8716C48.1196 54.8603 48.1274 54.8463 48.1312 54.831C48.1326 54.8163 48.1292 54.8016 48.1214 54.789C48.1075 54.7842 48.0927 54.7823 48.078 54.7834ZM48.3412 54.7554L48.1256 54.4488L48.1186 54.4404L48.1074 54.4334H48.0976C48.0934 54.4307 48.0886 54.4292 48.0836 54.4292C48.0786 54.4292 48.0737 54.4307 48.0696 54.4334L47.8288 54.5734C47.8204 54.5734 47.8204 54.5832 47.8288 54.5888H47.8372C47.8413 54.5916 47.8462 54.5931 47.8512 54.5931C47.8562 54.5931 47.861 54.5916 47.8652 54.5888L48.0766 54.467L48.2964 54.7778H48.309C48.309 54.7778 48.3188 54.7778 48.3216 54.7778L48.3356 54.7708C48.3356 54.7708 48.3356 54.7708 48.3356 54.761L48.3412 54.7554Z" fill="black"/>
<path d="M49.6821 52.094C49.6617 52.083 49.6401 52.0745 49.6177 52.0688C49.5954 52.0654 49.5727 52.0654 49.5505 52.0688C49.5272 52.0703 49.5042 52.0745 49.4819 52.0814C49.4588 52.0886 49.4368 52.0985 49.4161 52.1108L49.4035 52.1178L49.3811 51.954H49.3713C49.3671 51.9513 49.3623 51.9498 49.3573 51.9498C49.3523 51.9498 49.3474 51.9513 49.3433 51.954L49.1109 52.094C49.1011 52.094 49.1011 52.1038 49.1109 52.1094H49.1207C49.1246 52.1121 49.1292 52.1135 49.134 52.1135C49.1387 52.1135 49.1433 52.1121 49.1473 52.1094L49.3363 52.0016L49.3587 52.1626C49.361 52.1632 49.3634 52.1632 49.3657 52.1626H49.3741C49.3782 52.1654 49.3831 52.1669 49.3881 52.1669C49.3931 52.1669 49.3979 52.1654 49.4021 52.1626L49.4567 52.1318C49.4854 52.1137 49.518 52.1027 49.5519 52.0996C49.5846 52.0962 49.6175 52.1036 49.6457 52.1206C49.6584 52.1274 49.6694 52.1369 49.6779 52.1486C49.681 52.153 49.6833 52.158 49.6845 52.1633C49.6857 52.1686 49.6858 52.1741 49.6849 52.1794C49.6815 52.1906 49.6752 52.2008 49.6667 52.2088C49.6555 52.2199 49.6427 52.2293 49.6289 52.2368C49.6168 52.244 49.6042 52.2501 49.5911 52.255L49.5491 52.269C49.5333 52.2712 49.5173 52.2712 49.5015 52.269C49.4842 52.2692 49.467 52.2658 49.4511 52.2592C49.4451 52.2581 49.4389 52.2581 49.4329 52.2592H49.4203H49.4119C49.4113 52.2603 49.4109 52.2615 49.4109 52.2627C49.4109 52.264 49.4113 52.2652 49.4119 52.2662C49.4119 52.2662 49.4119 52.2662 49.4119 52.2732C49.4274 52.282 49.4445 52.2877 49.4623 52.29C49.4832 52.2922 49.5043 52.2922 49.5253 52.29C49.5746 52.2864 49.6225 52.2715 49.6653 52.2466C49.6839 52.2361 49.7009 52.2229 49.7157 52.2074C49.7268 52.1957 49.7346 52.1812 49.7381 52.1654C49.7402 52.1507 49.7367 52.1357 49.7283 52.1234C49.715 52.1107 49.6993 52.1007 49.6821 52.094ZM50.1021 51.9148C50.091 51.8984 50.0761 51.8849 50.0587 51.8756C50.0319 51.8607 50.0024 51.8512 49.9719 51.8476C49.9408 51.8427 49.9091 51.8427 49.8781 51.8476C49.8812 51.8406 49.8827 51.8329 49.8827 51.8252C49.8827 51.8175 49.8812 51.8099 49.8781 51.8028C49.8691 51.7846 49.8543 51.7698 49.8361 51.7608C49.8171 51.7507 49.7968 51.7432 49.7759 51.7384C49.754 51.7356 49.7319 51.7356 49.7101 51.7384C49.6872 51.7399 49.6647 51.7441 49.6429 51.751C49.6218 51.7581 49.6016 51.7675 49.5827 51.779C49.5651 51.7881 49.549 51.8 49.5351 51.814C49.5241 51.8242 49.5163 51.8373 49.5127 51.8518C49.5079 51.864 49.5079 51.8775 49.5127 51.8896C49.5223 51.9046 49.5359 51.9167 49.5519 51.9246C49.574 51.9371 49.5982 51.9457 49.6233 51.9498C49.6488 51.9534 49.6747 51.9534 49.7003 51.9498C49.6948 51.9574 49.6912 51.9662 49.6898 51.9754C49.6883 51.9847 49.689 51.9941 49.6919 52.003C49.7014 52.0253 49.7189 52.0433 49.7409 52.0534C49.7618 52.0653 49.7845 52.0738 49.8081 52.0786C49.8327 52.0814 49.8576 52.0814 49.8823 52.0786C49.907 52.0762 49.9314 52.071 49.9551 52.0632C49.9791 52.0565 50.0022 52.0466 50.0237 52.0338C50.0427 52.0233 50.0602 52.0101 50.0755 51.9946C50.0877 51.9828 50.0964 51.9677 50.1007 51.9512C50.1056 51.9398 50.107 51.9271 50.1049 51.9148H50.1021ZM49.7325 51.9148C49.717 51.92 49.7011 51.9232 49.6849 51.9246C49.6695 51.9267 49.654 51.9267 49.6387 51.9246C49.6249 51.9223 49.6116 51.9176 49.5995 51.9106C49.5886 51.9058 49.5797 51.8974 49.5743 51.8868C49.5726 51.8828 49.5717 51.8786 49.5717 51.8742C49.5717 51.8699 49.5726 51.8656 49.5743 51.8616C49.5777 51.8512 49.5835 51.8416 49.5911 51.8336C49.6012 51.8239 49.6125 51.8154 49.6247 51.8084C49.6388 51.8002 49.6538 51.7936 49.6695 51.7888C49.6846 51.7842 49.7 51.7809 49.7157 51.779C49.731 51.7776 49.7465 51.7776 49.7619 51.779C49.7761 51.7814 49.7898 51.7861 49.8025 51.793C49.8124 51.7987 49.8206 51.8069 49.8263 51.8168C49.8298 51.8253 49.8298 51.8349 49.8263 51.8434C49.8228 51.8535 49.817 51.8625 49.8095 51.87C49.7999 51.8798 49.7891 51.8883 49.7773 51.8952C49.764 51.9022 49.7499 51.9073 49.7353 51.9106L49.7325 51.9148ZM50.0335 51.9932C50.022 52.0044 50.0093 52.0142 49.9957 52.0226C49.9791 52.0315 49.9617 52.039 49.9439 52.045C49.9261 52.0503 49.9078 52.0536 49.8893 52.0548C49.8712 52.0576 49.8528 52.0576 49.8347 52.0548C49.8183 52.0522 49.8027 52.0465 49.7885 52.038C49.7762 52.0317 49.766 52.022 49.7591 52.01C49.7555 52.0001 49.7555 51.9892 49.7591 51.9792C49.763 51.9675 49.7697 51.9569 49.7787 51.9484C49.7895 51.9365 49.8023 51.9266 49.8165 51.919C49.8328 51.9096 49.8502 51.902 49.8683 51.8966C49.886 51.8909 49.9043 51.8871 49.9229 51.8854C49.9405 51.8833 49.9584 51.8833 49.9761 51.8854C49.9925 51.8891 50.0085 51.8947 50.0237 51.9022C50.0357 51.9089 50.0458 51.9186 50.0531 51.9302C50.0551 51.9351 50.0562 51.9403 50.0562 51.9456C50.0562 51.9509 50.0551 51.9562 50.0531 51.961C50.0495 51.9714 50.0437 51.9809 50.0363 51.989L50.0335 51.9932Z" fill="black"/>
<path d="M54.396 51.1351C54.3757 51.1241 54.354 51.1156 54.3316 51.1099C54.3093 51.1065 54.2867 51.1065 54.2644 51.1099C54.2411 51.1112 54.2181 51.1155 54.1958 51.1225C54.1728 51.1297 54.1507 51.1396 54.13 51.1519H54.1174L54.095 50.9881H54.0866C54.0822 50.9854 54.0771 50.984 54.0719 50.984C54.0667 50.984 54.0616 50.9854 54.0572 50.9881L53.8262 51.1281C53.8164 51.1281 53.8164 51.1379 53.8262 51.1435H53.836C53.8399 51.1462 53.8446 51.1476 53.8493 51.1476C53.854 51.1476 53.8587 51.1462 53.8626 51.1435L54.0516 51.0357L54.074 51.1967C54.0763 51.1973 54.0787 51.1973 54.081 51.1967H54.0894C54.0935 51.1995 54.0984 51.201 54.1034 51.201C54.1084 51.201 54.1133 51.1995 54.1174 51.1967L54.172 51.1659C54.2007 51.1478 54.2334 51.1368 54.2672 51.1337C54.2999 51.1303 54.3328 51.1377 54.361 51.1547C54.3737 51.1615 54.3848 51.171 54.3932 51.1827C54.3972 51.1926 54.3972 51.2037 54.3932 51.2135C54.391 51.2249 54.3851 51.2352 54.3764 51.2429C54.3652 51.254 54.3525 51.2634 54.3386 51.2709L54.3008 51.2891L54.2574 51.3031C54.2421 51.3052 54.2265 51.3052 54.2112 51.3031C54.1939 51.3033 54.1768 51.2999 54.1608 51.2933C54.1548 51.2922 54.1486 51.2922 54.1426 51.2933H54.13H54.1216C54.121 51.2944 54.1207 51.2956 54.1207 51.2968C54.1207 51.298 54.121 51.2993 54.1216 51.3003C54.1372 51.3091 54.1543 51.3148 54.172 51.3171C54.1929 51.3193 54.2141 51.3193 54.235 51.3171C54.2587 51.3155 54.2822 51.3113 54.305 51.3045C54.3299 51.2969 54.3538 51.2866 54.3764 51.2737C54.395 51.2632 54.412 51.25 54.4268 51.2345C54.438 51.2228 54.4457 51.2083 54.4492 51.1925C54.4514 51.1778 54.4479 51.1628 54.4394 51.1505C54.4259 51.143 54.4112 51.1378 54.396 51.1351ZM54.6956 51.0903L54.6424 50.9125C54.6404 50.9063 54.6381 50.9002 54.6354 50.8943L54.6242 50.8747C54.6185 50.8666 54.6119 50.8591 54.6046 50.8523L54.5738 50.8299C54.555 50.819 54.5347 50.811 54.5136 50.8061C54.4894 50.7994 54.4645 50.7956 54.4394 50.7949C54.413 50.795 54.3868 50.7978 54.361 50.8033C54.3335 50.8089 54.307 50.8188 54.2826 50.8327C54.2622 50.8436 54.2445 50.8589 54.2308 50.8775C54.2215 50.8911 54.2171 50.9073 54.2182 50.9237C54.2195 50.9393 54.2259 50.9541 54.2364 50.9657C54.2481 50.9799 54.2623 50.9918 54.2784 51.0007C54.298 51.0113 54.3186 51.0197 54.34 51.0259C54.3898 51.0372 54.4414 51.0372 54.4912 51.0259C54.519 51.0205 54.5455 51.01 54.5696 50.9951C54.5822 50.9881 54.5939 50.9796 54.6046 50.9699L54.6452 51.1099H54.6578C54.6623 51.1114 54.6673 51.1114 54.6718 51.1099L54.6844 51.1029C54.6844 51.1029 54.6928 51.0959 54.6914 51.0931C54.69 51.0903 54.6942 51.0931 54.6956 51.0903ZM54.5668 50.9503C54.5569 50.9617 54.5451 50.9712 54.5318 50.9783C54.5166 50.9874 54.5 50.994 54.4828 50.9979C54.4648 51.0021 54.4466 51.0049 54.4282 51.0063C54.4091 51.0085 54.3899 51.0085 54.3708 51.0063C54.352 51.0023 54.3341 50.9952 54.3176 50.9853C54.3039 50.9777 54.2919 50.9672 54.2826 50.9545C54.2754 50.9454 54.2719 50.9339 54.2728 50.9223C54.2736 50.9105 54.278 50.8993 54.2854 50.8901C54.2949 50.8783 54.3068 50.8688 54.3204 50.8621C54.3356 50.8531 54.3521 50.8465 54.3694 50.8425C54.3875 50.8369 54.4064 50.8341 54.4254 50.8341C54.4445 50.8322 54.4637 50.8322 54.4828 50.8341C54.5011 50.8382 54.5186 50.8453 54.5346 50.8551C54.5489 50.8619 54.5614 50.872 54.571 50.8845C54.5777 50.8944 54.5807 50.9063 54.5794 50.9181C54.5781 50.9294 54.5737 50.94 54.5668 50.9489V50.9503Z" fill="black"/>
<path d="M56.4499 48.2761C56.4445 48.2587 56.4343 48.2431 56.4205 48.2313C56.403 48.2147 56.3838 48.2002 56.3631 48.1879C56.3309 48.1683 56.2959 48.1473 56.2595 48.1277C56.2356 48.1148 56.2108 48.1036 56.1853 48.0941C56.1594 48.0855 56.1326 48.0799 56.1055 48.0773C56.0781 48.0732 56.0503 48.0732 56.0229 48.0773C55.9932 48.0836 55.9648 48.0949 55.9389 48.1109C55.916 48.1216 55.8962 48.1379 55.8815 48.1585C55.8768 48.1657 55.8737 48.1737 55.8723 48.1821C55.8708 48.1905 55.8711 48.1992 55.8731 48.2075C55.8788 48.2255 55.8894 48.2415 55.9039 48.2537C55.9218 48.2693 55.941 48.2834 55.9613 48.2957C55.9949 48.3167 56.0299 48.3363 56.0649 48.3559C56.0886 48.3689 56.1134 48.3797 56.1391 48.3881C56.1647 48.3978 56.1916 48.4039 56.2189 48.4063C56.2464 48.409 56.274 48.409 56.3015 48.4063C56.3312 48.4 56.3596 48.3886 56.3855 48.3727C56.4075 48.3612 56.4263 48.3444 56.4401 48.3237C56.445 48.3169 56.4485 48.3092 56.4501 48.3009C56.4518 48.2927 56.4517 48.2843 56.4499 48.2761ZM56.3491 48.3517C56.3129 48.3721 56.2715 48.3814 56.2301 48.3783C56.1848 48.3731 56.141 48.3588 56.1013 48.3363L56.0509 48.3069L56.0033 48.2789C55.9704 48.2644 55.9443 48.2378 55.9305 48.2047C55.9235 48.1809 55.9389 48.1571 55.9753 48.1361C56.0113 48.1153 56.053 48.1065 56.0943 48.1109C56.1396 48.1152 56.1835 48.129 56.2231 48.1515L56.2721 48.1795L56.3211 48.2089C56.3534 48.2241 56.3793 48.2505 56.3939 48.2831C56.4009 48.3069 56.3855 48.3307 56.3491 48.3517ZM55.9837 48.4693L56.0411 48.4357C56.0495 48.4357 56.0495 48.4245 56.0411 48.4203H56.0313C56.0271 48.4175 56.0223 48.416 56.0173 48.416C56.0123 48.416 56.0074 48.4175 56.0033 48.4203L55.9473 48.4525L55.6673 48.2957C55.6634 48.293 55.6587 48.2916 55.654 48.2916C55.6493 48.2916 55.6446 48.293 55.6407 48.2957L55.6155 48.3097C55.6043 48.3167 55.6001 48.3223 55.6029 48.3293L55.6841 48.5953C55.6834 48.5985 55.6834 48.6019 55.6841 48.6051H55.6939C55.698 48.6079 55.7029 48.6093 55.7079 48.6093C55.7129 48.6093 55.7177 48.6079 55.7219 48.6051L55.9263 48.4875L56.0257 48.5435C56.0296 48.5461 56.0343 48.5475 56.039 48.5475C56.0437 48.5475 56.0484 48.5461 56.0523 48.5435L56.0649 48.5365C56.0733 48.5365 56.0733 48.5267 56.0649 48.5211L55.9837 48.4693ZM55.7387 48.5673L55.6659 48.3293L55.9081 48.4693L55.7387 48.5673Z" fill="black"/>
<path d="M61.1326 47.3718L60.7252 47.1366C60.721 47.1338 60.7162 47.1323 60.7112 47.1323C60.7062 47.1323 60.7013 47.1338 60.6972 47.1366L60.686 47.1436H60.679L60.6496 47.2836C60.6496 47.2836 60.6496 47.2836 60.6496 47.292H60.6636H60.679C60.6916 47.292 60.6986 47.292 60.7 47.2822L60.7252 47.1674L61.0962 47.3816C61.1003 47.3843 61.1052 47.3858 61.1102 47.3858C61.1152 47.3858 61.12 47.3843 61.1242 47.3816L61.1354 47.3746C61.1424 47.383 61.1424 47.3774 61.1326 47.3718ZM60.7574 47.4754L60.8134 47.4432C60.8218 47.4376 60.8218 47.432 60.8134 47.4264H60.8036C60.7992 47.4243 60.7944 47.4232 60.7896 47.4232C60.7847 47.4232 60.78 47.4243 60.7756 47.4264L60.7196 47.46L60.4466 47.3018C60.4425 47.2997 60.4379 47.2986 60.4333 47.2986C60.4287 47.2986 60.4241 47.2997 60.42 47.3018L60.3948 47.3172C60.3836 47.3172 60.3794 47.3298 60.3822 47.3368L60.4634 47.6014C60.4624 47.605 60.4624 47.6089 60.4634 47.6126H60.4732C60.4773 47.6153 60.4822 47.6168 60.4872 47.6168C60.4922 47.6168 60.497 47.6153 60.5012 47.6126L60.707 47.4936L60.805 47.551C60.809 47.5533 60.8136 47.5545 60.8183 47.5545C60.823 47.5545 60.8275 47.5533 60.8316 47.551L60.8442 47.544C60.8526 47.544 60.8526 47.5328 60.8442 47.5286L60.7574 47.4754ZM60.511 47.5748L60.4382 47.3368L60.6804 47.4768L60.511 47.5748Z" fill="black"/>
<path d="M62.8522 44.6167H62.8424C62.838 44.6146 62.8332 44.6135 62.8284 44.6135C62.8235 44.6135 62.8187 44.6146 62.8144 44.6167L62.6058 44.7371V44.5677C62.6076 44.5458 62.6042 44.5237 62.596 44.5033C62.5842 44.482 62.5661 44.4649 62.5442 44.4543C62.5267 44.4447 62.5084 44.4368 62.4896 44.4305C62.4691 44.4244 62.4479 44.4211 62.4266 44.4207C62.4035 44.4202 62.3804 44.4226 62.358 44.4277C62.3328 44.4339 62.3087 44.4438 62.2866 44.4571C62.2672 44.4671 62.2504 44.4815 62.2376 44.4991C62.2294 44.5115 62.2254 44.5263 62.2264 44.5411C62.2286 44.5557 62.2349 44.5693 62.2446 44.5803C62.2545 44.592 62.2664 44.6019 62.2796 44.6097C62.2833 44.6121 62.2877 44.6133 62.2922 44.6133C62.2966 44.6133 62.301 44.6121 62.3048 44.6097L62.3174 44.6027C62.318 44.6017 62.3183 44.6004 62.3183 44.5992C62.3183 44.598 62.318 44.5968 62.3174 44.5957C62.3184 44.5943 62.3189 44.5926 62.3189 44.5908C62.3189 44.5891 62.3184 44.5873 62.3174 44.5859C62.3075 44.5802 62.2991 44.5723 62.2928 44.5629C62.2865 44.5534 62.2824 44.5426 62.281 44.5313C62.281 44.5131 62.295 44.4949 62.3244 44.4781C62.3519 44.4619 62.3833 44.4532 62.4154 44.4529C62.4469 44.4523 62.4779 44.4605 62.505 44.4767L62.5288 44.4935C62.535 44.4991 62.5403 44.5057 62.5442 44.5131C62.5473 44.5208 62.5497 44.5288 62.5512 44.5369C62.5519 44.5481 62.5519 44.5593 62.5512 44.5705V44.7567C62.5502 44.7618 62.5502 44.767 62.5512 44.7721L62.5596 44.7805H62.5694C62.5733 44.7832 62.5779 44.7846 62.5827 44.7846C62.5874 44.7846 62.592 44.7832 62.596 44.7805L62.8508 44.6335C62.8606 44.6279 62.8606 44.6223 62.8522 44.6167ZM62.3468 44.7959L62.4028 44.7637C62.413 44.7581 62.413 44.7525 62.4028 44.7469H62.393C62.389 44.7443 62.3844 44.7429 62.3797 44.7429C62.3749 44.7429 62.3703 44.7443 62.3664 44.7469L62.309 44.7791L62.0402 44.6167C62.036 44.614 62.0311 44.6125 62.0262 44.6125C62.0212 44.6125 62.0163 44.614 62.0122 44.6167L61.987 44.6307C61.9772 44.6377 61.9716 44.6433 61.9744 44.6503L62.0556 44.9163C62.0567 44.9203 62.0592 44.9237 62.0626 44.9261L62.0724 44.9331C62.0765 44.9352 62.081 44.9363 62.0857 44.9363C62.0903 44.9363 62.0948 44.9352 62.099 44.9331L62.3048 44.8141L62.4028 44.8701C62.4069 44.8729 62.4118 44.8744 62.4168 44.8744C62.4217 44.8744 62.4266 44.8729 62.4308 44.8701H62.442C62.4504 44.8645 62.4504 44.8589 62.442 44.8533L62.3468 44.7959ZM62.1004 44.8953L62.0276 44.6573L62.2698 44.7973L62.1004 44.8953Z" fill="black"/>
<path d="M64.6845 44.4612L45.8671 55.3238C45.8797 55.3115 45.8895 55.2966 45.8958 55.2801C45.902 55.2637 45.9047 55.2461 45.9035 55.2286C45.9002 55.1748 45.8844 55.1225 45.8574 55.0759C45.8304 55.0293 45.793 54.9895 45.7481 54.9598C45.733 54.9498 45.7159 54.9433 45.6979 54.9409C45.68 54.9385 45.6617 54.9401 45.6445 54.9457L64.4647 44.0832C64.4897 44.0687 64.5173 44.0594 64.546 44.0556C64.5746 44.0518 64.6037 44.0537 64.6316 44.0612C64.6594 44.0687 64.6856 44.0816 64.7085 44.0992C64.7314 44.1167 64.7506 44.1386 64.765 44.1637C64.7795 44.1887 64.7888 44.2163 64.7926 44.2449C64.7964 44.2735 64.7944 44.3026 64.787 44.3305C64.7795 44.3584 64.7666 44.3845 64.749 44.4074C64.7315 44.4303 64.7095 44.4495 64.6845 44.464V44.4612Z" fill="#455A64"/>
<path d="M45.9033 55.2257C45.9045 55.2433 45.9019 55.2609 45.8956 55.2773C45.8893 55.2938 45.8795 55.3086 45.8669 55.3209L45.8515 55.3293L32.3107 63.1441C32.2774 63.1643 32.2391 63.175 32.2001 63.1749C32.1518 63.1748 32.1049 63.1587 32.0666 63.1292C32.0283 63.0997 32.0008 63.0584 31.9884 63.0117C31.9759 62.965 31.9792 62.9154 31.9978 62.8708C32.0163 62.8262 32.0491 62.7889 32.0909 62.7647L45.6289 54.9513L45.6443 54.9429C45.6616 54.9373 45.6798 54.9357 45.6977 54.9381C45.7157 54.9405 45.7328 54.947 45.7479 54.9569C45.7929 54.9867 45.8303 55.0264 45.8572 55.0731C45.8842 55.1197 45.9 55.172 45.9033 55.2257Z" fill="#516EB4"/>
<path opacity="0.2" d="M67.0799 43.9978C67.0797 43.5753 66.9449 43.1639 66.6949 42.8232C66.5857 44.2022 65.2263 44.8182 63.0185 46.1216C60.8107 47.425 39.1289 59.9718 37.9501 60.6592C36.7713 61.3466 36.9001 60.2532 34.6699 61.5804L33.8999 62.0438L34.2583 62.7326L35.6485 61.9304C36.0909 61.6742 37.5861 62.1866 38.6235 61.586L65.9977 45.7786L66.0803 45.7282C66.3845 45.5533 66.6371 45.3012 66.8126 44.9973C66.9881 44.6935 67.0803 44.3487 67.0799 43.9978Z" fill="#516EB4"/>
<path opacity="0.4" d="M34.8267 60.8565C35.1358 60.6412 35.4117 60.3818 35.6457 60.0865C35.7498 59.9308 35.8344 59.763 35.8977 59.5867C35.9647 59.4067 36.0591 59.2381 36.1777 59.0869C36.6943 58.5059 37.3971 58.1713 38.0327 57.7723L41.9289 55.4553C44.5273 53.9153 47.1397 52.3949 49.7451 50.8633C52.3505 49.3317 54.9727 47.8295 57.5949 46.3287L61.5317 44.0817C62.1883 43.7065 62.8449 43.3299 63.5169 42.9813C63.8515 42.8023 64.1998 42.6502 64.5585 42.5263C64.7397 42.4697 64.9286 42.4409 65.1185 42.4409C65.3087 42.4519 65.495 42.4994 65.6673 42.5809C65.4933 42.5077 65.3071 42.4683 65.1185 42.4647C64.9312 42.4709 64.746 42.5063 64.5697 42.5697C64.218 42.7037 63.8772 42.8647 63.5505 43.0513C62.8911 43.4181 62.2471 43.8129 61.6031 44.2063L57.7069 46.5247C55.1071 48.0647 52.4947 49.5865 49.8893 51.1167C47.2839 52.6469 44.6603 54.1505 42.0381 55.6513L38.0999 57.8969L37.1199 58.4569C36.7955 58.6425 36.4987 58.8725 36.2379 59.1401C35.9803 59.4103 35.9173 59.8093 35.6779 60.1201C35.4309 60.4051 35.1442 60.6531 34.8267 60.8565Z" fill="white"/>
<path d="M33.9 61.3102C33.8477 61.2737 33.7872 61.2509 33.7238 61.2438C33.6605 61.2367 33.5964 61.2456 33.5374 61.2696L29.4438 63.6342L29.4102 63.6538C29.2542 63.7426 29.132 63.8807 29.0628 64.0463C28.9936 64.2119 28.9812 64.3958 29.0276 64.5693C29.074 64.7427 29.1765 64.8958 29.3192 65.0048C29.4619 65.1137 29.6367 65.1723 29.8162 65.1714C29.9325 65.1712 30.0475 65.1464 30.1536 65.0986L30.1914 65.0762L34.2598 62.727C34.3271 62.6847 34.3813 62.6247 34.4167 62.5536C34.452 62.4824 34.467 62.4029 34.46 62.3238C34.4535 62.1226 34.3993 61.9258 34.302 61.7496C34.2046 61.5734 34.0668 61.4228 33.9 61.3102Z" fill="#FAFAFA"/>
<path d="M33.6677 61.3873C33.7244 61.3898 33.7794 61.4071 33.8273 61.4377C33.9707 61.5377 34.0888 61.67 34.1719 61.8239C34.2551 61.9778 34.301 62.149 34.3061 62.3239C34.3061 62.4639 34.2669 62.5661 34.1955 62.6039L30.1201 64.9503L30.0879 64.9685C29.9862 65.0134 29.875 65.0323 29.7642 65.0234C29.6534 65.0145 29.5466 64.9781 29.4534 64.9175C29.3603 64.8569 29.2837 64.774 29.2307 64.6763C29.1777 64.5786 29.1499 64.4692 29.1499 64.3581C29.1507 64.2403 29.1825 64.1247 29.2419 64.023C29.3014 63.9213 29.3864 63.837 29.4887 63.7785L29.5195 63.7603L33.6075 61.3985C33.6265 61.3903 33.647 61.3865 33.6677 61.3873ZM33.6677 61.2403C33.623 61.2396 33.5789 61.2497 33.5389 61.2697L29.4453 63.6343L29.4117 63.6539C29.2568 63.7434 29.1357 63.8815 29.0673 64.0468C28.9988 64.2122 28.9868 64.3954 29.033 64.5683C29.0792 64.7411 29.1812 64.8939 29.323 65.0029C29.4649 65.112 29.6388 65.1712 29.8177 65.1715C29.934 65.1713 30.049 65.1465 30.1551 65.0987L30.1929 65.0763L34.2613 62.7271C34.3283 62.6846 34.3823 62.6246 34.4174 62.5534C34.4525 62.4823 34.4672 62.4028 34.4601 62.3239C34.4534 62.1246 34.4 61.9297 34.3042 61.7548C34.2084 61.58 34.0728 61.4301 33.9085 61.3173C33.8379 61.2741 33.7574 61.2499 33.6747 61.2473L33.6677 61.2403Z" fill="#E0E0E0"/>
<path opacity="0.1" d="M34.2667 62.7241C34.3322 62.6812 34.3848 62.6213 34.4188 62.5507C34.4529 62.4802 34.4671 62.4017 34.4599 62.3237C34.4582 62.2454 34.4483 62.1675 34.4305 62.0913C33.8705 62.4049 31.0887 63.9841 30.4041 64.3719C29.5641 64.8451 29.0936 64.7233 29.025 64.2095C29.0018 64.3274 29.0051 64.449 29.0346 64.5655C29.064 64.6819 29.119 64.7904 29.1955 64.8831C29.2719 64.9758 29.368 65.0503 29.4768 65.1014C29.5856 65.1524 29.7043 65.1787 29.8245 65.1783C29.9408 65.1781 30.0558 65.1533 30.1619 65.1055L30.1997 65.0831L34.2681 62.7339L34.2667 62.7241Z" fill="black"/>
<path d="M56.3399 39.62C56.3399 39.2224 56.0767 38.8248 55.5517 38.521L54.0019 37.6264C52.9505 37.0188 51.2467 37.0188 50.1953 37.6264L33.6501 47.1716C31.2701 48.545 28.9993 51.6992 25.9767 53.7334C22.9541 55.7676 20.5601 57.3734 20.5601 57.3734V58.3464L21.3245 58.807C21.3245 58.807 24.1161 57.4154 27.6399 55.6696C31.1637 53.9238 36.6251 53.7012 39.0051 52.3278L55.5489 42.777C56.0739 42.4732 56.3371 42.077 56.3371 41.678L56.3399 39.62Z" fill="#516EB4"/>
<path opacity="0.6" d="M56.3399 39.62C56.3399 39.2224 56.0767 38.8248 55.5517 38.521L54.0019 37.6264C52.9505 37.0188 51.2467 37.0188 50.1953 37.6264L33.6501 47.1716C31.2701 48.545 28.9993 51.6992 25.9767 53.7334C22.9541 55.7676 20.5601 57.3734 20.5601 57.3734V58.3464L21.3245 58.807C21.3245 58.807 24.1161 57.4154 27.6399 55.6696C31.1637 53.9238 36.6251 53.7012 39.0051 52.3278L55.5489 42.777C56.0739 42.4732 56.3371 42.077 56.3371 41.678L56.3399 39.62Z" fill="white"/>
<path d="M27.6399 54.6937C31.1637 52.9493 36.6251 51.6375 39.0051 50.2627L55.5489 40.7119C56.0739 40.4095 56.3371 40.0119 56.3371 39.6143C56.3371 39.2167 56.0739 38.8191 55.5489 38.5153L53.9991 37.6207C52.9477 37.0131 51.2439 37.0131 50.1925 37.6207L33.6501 47.1715C31.2701 48.5449 28.9993 51.6991 25.9767 53.7333C22.9541 55.7675 20.5601 57.3733 20.5601 57.3733L21.3399 57.8199C21.3399 57.8199 24.1161 56.4395 27.6399 54.6937Z" fill="#516EB4"/>
<path opacity="0.8" d="M27.6399 54.6937C31.1637 52.9493 36.6251 51.6375 39.0051 50.2627L55.5489 40.7119C56.0739 40.4095 56.3371 40.0119 56.3371 39.6143C56.3371 39.2167 56.0739 38.8191 55.5489 38.5153L53.9991 37.6207C52.9477 37.0131 51.2439 37.0131 50.1925 37.6207L33.6501 47.1715C31.2701 48.5449 28.9993 51.6991 25.9767 53.7333C22.9541 55.7675 20.5601 57.3733 20.5601 57.3733L21.3399 57.8199C21.3399 57.8199 24.1161 56.4395 27.6399 54.6937Z" fill="white"/>
<path d="M51.3614 43.0471L47.1894 45.4075L38.8706 50.1675C38.1735 50.5444 37.4507 50.8719 36.7076 51.1475C35.9642 51.4275 35.2124 51.6977 34.4578 51.9595C32.95 52.4845 31.431 52.9857 29.9428 53.5807C29.2008 53.8803 28.4588 54.1855 27.7406 54.5467L25.6014 55.6289C24.1818 56.3583 22.7566 57.0807 21.3398 57.8199C22.786 57.1381 24.2238 56.4409 25.6658 55.7521L27.8218 54.7077C28.5386 54.3633 29.2806 54.0707 30.024 53.7851C31.5164 53.2251 33.0312 52.7197 34.5446 52.2073C35.3006 51.9483 36.0566 51.6865 36.807 51.4051C37.5648 51.13 38.3025 50.8025 39.0148 50.4251L43.1616 48.0199C44.542 47.2149 45.928 46.4197 47.3028 45.6063L51.4398 43.1717C52.8118 42.3513 54.188 41.5393 55.5558 40.7119C54.1474 41.4819 52.7572 42.2687 51.3614 43.0471Z" fill="white"/>
<path d="M46.7415 40.5551C46.8261 40.5527 46.91 40.572 46.9851 40.6111L50.5159 42.6495C50.5635 42.6775 50.5733 42.7013 50.5733 42.7055C50.5733 42.7097 50.5635 42.7335 50.5159 42.7615L44.0101 46.5177C43.935 46.5568 43.8511 46.5761 43.7665 46.5737C43.6814 46.5761 43.5971 46.5568 43.5215 46.5177L39.9907 44.4793C39.9431 44.4513 39.9333 44.4275 39.9333 44.4233C39.9333 44.4191 39.9431 44.3939 39.9907 44.3673L46.4965 40.6111C46.5721 40.572 46.6564 40.5527 46.7415 40.5551ZM46.7415 40.4081C46.6308 40.406 46.5215 40.432 46.4237 40.4837L39.9179 44.2399C39.7429 44.3407 39.7429 44.5045 39.9179 44.6067L43.4487 46.6451C43.5469 46.695 43.6556 46.721 43.7658 46.721C43.876 46.721 43.9846 46.695 44.0829 46.6451L50.5887 42.8889C50.6272 42.8761 50.6608 42.8515 50.6845 42.8186C50.7083 42.7857 50.7211 42.7461 50.7211 42.7055C50.7211 42.6649 50.7083 42.6253 50.6845 42.5924C50.6608 42.5595 50.6272 42.5349 50.5887 42.5221L47.0579 40.4837C46.9606 40.4319 46.8517 40.4059 46.7415 40.4081Z" fill="#516EB4"/>
<path d="M48.5979 42.0181C48.5979 41.8319 48.4747 41.6457 48.2283 41.5029C47.9517 41.3628 47.6459 41.2898 47.3358 41.2898C47.0257 41.2898 46.72 41.3628 46.4433 41.5029C46.1969 41.6429 46.0737 41.8319 46.0737 42.0181V42.3625C46.0737 42.5487 46.1969 42.7349 46.4433 42.8777C46.72 43.0178 47.0257 43.0908 47.3358 43.0908C47.6459 43.0908 47.9517 43.0178 48.2283 42.8777C48.4747 42.7377 48.5979 42.5487 48.5979 42.3625V42.0181Z" fill="#516EB4"/>
<path opacity="0.2" d="M48.5979 42.0181C48.5979 41.8319 48.4747 41.6457 48.2283 41.5029C47.9517 41.3628 47.6459 41.2898 47.3358 41.2898C47.0257 41.2898 46.72 41.3628 46.4433 41.5029C46.1969 41.6429 46.0737 41.8319 46.0737 42.0181V42.3625C46.0737 42.5487 46.1969 42.7349 46.4433 42.8777C46.72 43.0178 47.0257 43.0908 47.3358 43.0908C47.6459 43.0908 47.9517 43.0178 48.2283 42.8777C48.4747 42.7377 48.5979 42.5487 48.5979 42.3625V42.0181Z" fill="black"/>
<path d="M46.4433 41.5029C46.1969 41.6429 46.0737 41.8319 46.0737 42.0181C46.0737 42.2043 46.1969 42.3919 46.4433 42.5333C46.7196 42.6746 47.0255 42.7483 47.3358 42.7483C47.6462 42.7483 47.952 42.6746 48.2283 42.5333C48.4747 42.3933 48.5979 42.2043 48.5979 42.0181C48.5979 41.8319 48.4747 41.6457 48.2283 41.5029C47.9517 41.3628 47.6459 41.2898 47.3358 41.2898C47.0257 41.2898 46.72 41.3628 46.4433 41.5029Z" fill="#516EB4"/>
<path d="M46.4713 43.8913L43.3605 45.6875C43.3017 45.7173 43.2367 45.7328 43.1708 45.7328C43.1049 45.7328 43.0399 45.7173 42.9811 45.6875L41.6567 44.9231L44.7647 43.1269C44.8237 43.0969 44.889 43.0813 44.9551 43.0813C45.0213 43.0813 45.0866 43.0969 45.1455 43.1269L46.4713 43.8913Z" fill="#455A64"/>
<path d="M46.5513 43.8465L46.4715 43.8913L45.1401 43.1269C45.0811 43.0969 45.0159 43.0812 44.9497 43.0812C44.8835 43.0812 44.8183 43.0969 44.7593 43.1269L41.6513 44.9231L41.5715 44.8769C41.4651 44.8167 41.4651 44.7187 41.5715 44.6571L44.7593 42.8147C44.8186 42.7856 44.8837 42.7705 44.9497 42.7705C45.0157 42.7705 45.0808 42.7856 45.1401 42.8147L46.5401 43.6267C46.5635 43.6333 46.5842 43.6471 46.5993 43.666C46.6144 43.685 46.6232 43.7083 46.6245 43.7326C46.6257 43.7568 46.6193 43.7808 46.6062 43.8013C46.5931 43.8217 46.5739 43.8375 46.5513 43.8465Z" fill="#516EB4"/>
<path d="M43.5998 44.8446L43.7538 44.9328C43.828 44.9762 43.8532 45.0252 43.828 45.0728C43.7878 45.142 43.7278 45.1976 43.6558 45.2324C43.5718 45.282 43.4792 45.3152 43.3828 45.3304C43.2971 45.3437 43.2094 45.3279 43.1336 45.2856L43.0748 45.2506C43.0538 45.2394 43.0622 45.2226 43.0972 45.2016C43.1322 45.1806 43.1616 45.1764 43.1826 45.189L43.2568 45.231C43.3 45.2533 43.35 45.2583 43.3968 45.245C43.4554 45.2305 43.5116 45.2074 43.5634 45.1764C43.6098 45.1529 43.6504 45.1194 43.6824 45.0784C43.7048 45.0467 43.6978 45.0201 43.6614 44.9986L43.4948 44.902C43.4633 44.8814 43.4273 44.8689 43.3898 44.8656C43.3479 44.8702 43.3076 44.8846 43.2722 44.9076L43.0398 45.0476C43.0216 45.0588 42.9964 45.0546 42.9642 45.0364C42.932 45.0182 42.9264 45.0042 42.9446 44.993L43.135 44.8824V44.8082C43.1361 44.7821 43.1299 44.7562 43.117 44.7334C43.1041 44.7107 43.0852 44.692 43.0622 44.6794L43.0468 44.6696C43.009 44.6462 42.9664 44.6313 42.9222 44.6262C42.8827 44.6244 42.8437 44.6347 42.8102 44.6556L42.4966 44.8376C42.484 44.842 42.4704 44.8432 42.4572 44.841C42.444 44.8388 42.4315 44.8333 42.421 44.825C42.3888 44.8068 42.3832 44.7928 42.4014 44.7816L42.715 44.601C42.7809 44.5596 42.857 44.5373 42.9348 44.5366C43.0128 44.5408 43.0885 44.5649 43.1546 44.6066L43.177 44.6206C43.2044 44.6373 43.2278 44.6597 43.2456 44.6864C43.2642 44.7132 43.2745 44.7448 43.275 44.7774V44.811C43.3264 44.7898 43.3819 44.7807 43.4374 44.7844C43.495 44.7933 43.5503 44.8138 43.5998 44.8446Z" fill="#F0F0F0"/>
<path d="M43.9571 44.8139L43.3859 44.4835C43.3019 44.4359 43.2571 44.3911 43.2459 44.3505C43.2347 44.3099 43.2781 44.2679 43.3551 44.2231L43.6967 44.0257C43.7149 44.0145 43.7401 44.0187 43.7709 44.0369C43.8017 44.0551 43.8101 44.0705 43.7919 44.0803L43.4601 44.2777C43.4209 44.3001 43.4041 44.3225 43.4097 44.3435C43.4153 44.3645 43.4461 44.3911 43.4979 44.4219L43.6617 44.5157L43.9417 44.3953C43.9958 44.3729 44.0425 44.3561 44.0817 44.3449C44.1189 44.3321 44.1574 44.3232 44.1965 44.3183C44.2767 44.306 44.3587 44.3229 44.4275 44.3659L44.5843 44.4555C44.6585 44.4989 44.6823 44.5465 44.6585 44.5955C44.6174 44.664 44.5577 44.7194 44.4863 44.7551C44.4024 44.8047 44.3097 44.8375 44.2133 44.8517C44.1261 44.8705 44.0351 44.8571 43.9571 44.8139ZM44.0803 44.7593C44.1015 44.7708 44.1248 44.778 44.1489 44.7804C44.1729 44.7828 44.1972 44.7804 44.2203 44.7733C44.2794 44.7591 44.3361 44.736 44.3883 44.7047C44.4347 44.6812 44.4753 44.6477 44.5073 44.6067C44.5129 44.6007 44.5168 44.5933 44.5188 44.5853C44.5208 44.5774 44.5207 44.569 44.5186 44.5611C44.5165 44.5531 44.5125 44.5458 44.5068 44.5399C44.5012 44.5339 44.4941 44.5294 44.4863 44.5269L44.3001 44.4219C44.2671 44.4042 44.2292 44.3978 44.1923 44.4037C44.1385 44.4129 44.0862 44.4294 44.0369 44.4527L43.7569 44.5731L44.0803 44.7593Z" fill="#F0F0F0"/>
<path d="M44.9229 44.3337L45.0377 44.3995C45.0587 44.4121 45.0517 44.4289 45.0125 44.4513C45.0001 44.4612 44.9853 44.4679 44.9697 44.4706C44.954 44.4732 44.9379 44.4719 44.9229 44.4667L44.8067 44.3995C44.7857 44.3869 44.7941 44.3701 44.8319 44.3477C44.8697 44.3253 44.9005 44.3211 44.9229 44.3337Z" fill="#F0F0F0"/>
<path d="M44.6584 43.9333L44.4988 43.8409C44.4148 43.7933 44.3714 43.7485 44.3658 43.7079C44.3602 43.6673 44.398 43.6253 44.475 43.5805L44.79 43.3985C44.8082 43.3873 44.832 43.3915 44.8642 43.4097C44.8964 43.4279 44.9034 43.4433 44.8852 43.4531L44.5702 43.6351C44.531 43.6575 44.5142 43.6799 44.5212 43.7009C44.5282 43.7219 44.5562 43.7485 44.608 43.7793L44.7732 43.8745L45.0392 43.7765C45.1206 43.7405 45.2062 43.7147 45.294 43.6995C45.3407 43.6927 45.3884 43.6955 45.434 43.7079C45.464 43.7184 45.493 43.7315 45.5208 43.7471L45.6608 43.8283C45.735 43.8717 45.7602 43.9207 45.735 43.9683C45.6952 44.0378 45.6351 44.0935 45.5628 44.1279C45.4792 44.1773 45.387 44.2105 45.2912 44.2259C45.2054 44.2402 45.1174 44.2244 45.042 44.1811L44.9818 44.1461C44.9608 44.1349 44.9692 44.1181 45.0056 44.0971C45.042 44.0761 45.07 44.0719 45.091 44.0845L45.1638 44.1265C45.2068 44.1495 45.2571 44.1545 45.3038 44.1405C45.3627 44.1262 45.4193 44.1036 45.4718 44.0733C45.518 44.0489 45.5586 44.0151 45.5908 43.9739C45.6132 43.9417 45.6048 43.9151 45.5698 43.8941L45.4032 43.7975C45.3722 43.7799 45.336 43.774 45.301 43.7807C45.246 43.791 45.1921 43.8064 45.14 43.8269L44.8208 43.9459C44.7959 43.9559 44.7692 43.9606 44.7424 43.9599C44.7131 43.9558 44.6847 43.9468 44.6584 43.9333Z" fill="#F0F0F0"/>
<path d="M20.9507 57.4C20.8985 57.3636 20.8379 57.3408 20.7746 57.3337C20.7113 57.3266 20.6472 57.3354 20.5881 57.3594L17.6845 59.0394L17.6509 59.059C17.4953 59.1483 17.3736 59.2864 17.3047 59.452C17.2357 59.6176 17.2235 59.8014 17.2698 59.9747C17.3161 60.148 17.4184 60.3011 17.5608 60.4102C17.7031 60.5193 17.8776 60.5783 18.0569 60.578C18.1734 60.5781 18.2886 60.5527 18.3943 60.5038L18.4321 60.4828L21.3105 58.8196C21.376 58.7754 21.4281 58.714 21.4609 58.6421C21.4937 58.5702 21.5061 58.4907 21.4967 58.4122C21.4916 58.2125 21.4395 58.0168 21.3446 57.8409C21.2497 57.6651 21.1148 57.514 20.9507 57.4Z" fill="#FAFAFA"/>
<path d="M20.7168 57.4714C20.7735 57.4739 20.8285 57.4913 20.8764 57.5218C21.0189 57.6212 21.1364 57.7523 21.2195 57.9049C21.3026 58.0575 21.349 58.2274 21.3552 58.401C21.3552 58.541 21.316 58.6432 21.2446 58.681L18.3662 60.3442L18.334 60.3624C18.1777 60.4315 18.0008 60.4379 17.8399 60.3803C17.679 60.3227 17.5463 60.2055 17.4694 60.0529C17.3925 59.9003 17.3771 59.724 17.4265 59.5604C17.4759 59.3967 17.5862 59.2584 17.7348 59.1738L17.7656 59.1556L20.6636 57.4756C20.6828 57.4682 20.7032 57.4644 20.7238 57.4644M20.7238 57.3174C20.6791 57.3168 20.6349 57.3269 20.595 57.3468L17.6914 59.0268L17.6578 59.0464C17.5022 59.1356 17.3804 59.2738 17.3115 59.4394C17.2426 59.605 17.2303 59.7888 17.2766 59.962C17.3229 60.1353 17.4252 60.2885 17.5676 60.3976C17.71 60.5067 17.8844 60.5657 18.0638 60.5654C18.1803 60.5654 18.2954 60.5401 18.4012 60.4912L18.439 60.4702L21.3174 58.807C21.3829 58.7628 21.4349 58.7014 21.4677 58.6295C21.5006 58.5576 21.513 58.4781 21.5036 58.3996C21.4969 58.2003 21.4435 58.0054 21.3477 57.8306C21.2519 57.6557 21.1163 57.5059 20.952 57.393C20.8815 57.3496 20.8009 57.3255 20.7182 57.323L20.7238 57.3174Z" fill="#E0E0E0"/>
<path opacity="0.1" d="M21.3164 58.8083C21.3818 58.7641 21.4339 58.7027 21.4667 58.6308C21.4996 58.5589 21.512 58.4794 21.5026 58.4009C21.501 58.3231 21.4911 58.2457 21.4732 58.1699C20.9132 58.4835 19.3214 59.3753 18.6382 59.7631C17.7982 60.2363 17.3278 60.1145 17.2578 59.6007C17.2356 59.7185 17.2396 59.8397 17.2695 59.9557C17.2993 60.0718 17.3544 60.1799 17.4306 60.2723C17.5069 60.3647 17.6025 60.4393 17.7108 60.4906C17.8191 60.542 17.9373 60.5689 18.0572 60.5695C18.1737 60.5695 18.2888 60.5442 18.3946 60.4953L18.4324 60.4743L21.3108 58.8111L21.3164 58.8083Z" fill="black"/>
<path d="M56.3399 39.6506V41.675C56.3399 42.0726 56.0781 42.4688 55.5517 42.774L53.8843 43.7386V41.675L55.5517 40.7118C56.0599 40.4192 56.3203 40.0398 56.3399 39.6506Z" fill="#516EB4"/>
<path opacity="0.2" d="M56.3399 39.6506V41.675C56.3399 42.0726 56.0781 42.4688 55.5517 42.774L53.8843 43.7386V41.675L55.5517 40.7118C56.0599 40.4192 56.3203 40.0398 56.3399 39.6506Z" fill="black"/>
<path d="M53.8785 41.6765L55.5487 40.7119C56.5987 40.1057 56.5987 39.1215 55.5487 38.5153L53.9989 37.6207C52.9475 37.0131 51.2437 37.0131 50.1923 37.6207L48.5249 38.5839L53.8785 41.6765Z" fill="#516EB4"/>
<path opacity="0.2" d="M53.3229 40.5816L50.3479 38.8638C50.3309 38.8541 50.3109 38.8515 50.292 38.8565C50.2731 38.8614 50.257 38.8737 50.2471 38.8904C50.2374 38.9072 50.2348 38.927 50.2398 38.9457C50.2448 38.9643 50.257 38.9802 50.2737 38.9898L53.25 40.7076C53.261 40.7143 53.2736 40.7177 53.2864 40.7174C53.3041 40.7199 53.3221 40.7159 53.337 40.7059C53.3519 40.696 53.3626 40.681 53.3671 40.6637C53.3716 40.6464 53.3696 40.628 53.3614 40.6121C53.3532 40.5962 53.3395 40.5839 53.3229 40.5774V40.5816ZM51.4637 38.9898L53.25 40.0202C53.261 40.0269 53.2736 40.0303 53.2864 40.03C53.3041 40.0325 53.3221 40.0284 53.337 40.0185C53.3519 40.0086 53.3626 39.9936 53.3671 39.9763C53.3716 39.959 53.3696 39.9406 53.3614 39.9247C53.3532 39.9088 53.3395 39.8965 53.3229 39.89L51.5379 38.8638C51.5209 38.8541 51.5009 38.8515 51.482 38.8565C51.4631 38.8614 51.447 38.8737 51.4371 38.8904C51.4274 38.9072 51.4248 38.927 51.4298 38.9457C51.4348 38.9643 51.447 38.9802 51.4637 38.9898Z" fill="black"/>
<path d="M15.7175 33.2664C15.6186 29.9816 15.0785 27.7699 14.2383 26.2837C14.3954 26.9421 13.5182 29.6374 13.0787 30.917C13.0102 31.1119 13.0123 31.3247 13.0845 31.5182C13.1568 31.7117 13.2946 31.8737 13.4741 31.9761L15.7175 33.2664Z" fill="#516EB4"/>
<path opacity="0.3" d="M15.7175 33.2664C15.6186 29.9816 15.0785 27.7699 14.2383 26.2837C14.3954 26.9421 13.5182 29.6374 13.0787 30.917C13.0102 31.1119 13.0123 31.3247 13.0845 31.5182C13.1568 31.7117 13.2946 31.8737 13.4741 31.9761L15.7175 33.2664Z" fill="white"/>
<path d="M28.1948 7.2228C26.9345 6.49558 17.2919 2.91775 12.9851 1.3327C12.3389 1.09481 11.6483 1.00202 10.9623 1.06089C10.2762 1.11976 9.61156 1.32886 9.01537 1.67336L6.8655 2.90893C6.05433 3.37746 5.38091 4.05141 4.91302 4.86294C4.44513 5.67447 4.19928 6.59494 4.20021 7.53169V12.827C4.19857 13.3088 4.3094 13.7843 4.5239 14.2158C4.7384 14.6472 5.05064 15.0227 5.43578 15.3122C8.53527 17.6245 11.5165 20.5616 12.8315 22.7344C14.1218 24.8702 14.7501 27.576 15.3203 33.7485C15.7545 38.456 16.2964 44.8686 16.5399 47.7757C16.5802 48.2564 16.7363 48.7202 16.9948 49.1275C17.2533 49.5347 17.6066 49.8734 18.0244 50.1144L21.8935 52.349C22.3484 52.6104 22.8638 52.748 23.3885 52.748C23.9131 52.748 24.4286 52.6104 24.8835 52.349L28.6167 50.1939C29.0686 49.9329 29.4444 49.5583 29.7067 49.1071C29.969 48.6559 30.1086 48.144 30.1117 47.6221C30.1841 33.9127 30.959 21.5889 28.1948 7.2228Z" fill="#516EB4"/>
<path d="M19.436 50.9297C19.1098 50.759 18.8335 50.5067 18.6339 50.1973C18.4344 49.888 18.3185 49.5321 18.2976 49.1646C18.257 48.3103 17.1855 34.1155 16.6772 30.497C16.1847 27.0004 15.747 26.6403 14.0825 25.6748C14.612 27.5176 14.9792 29.9904 15.3269 33.7536C15.7611 38.4611 16.303 44.8737 16.5466 47.7808C16.5869 48.2615 16.7429 48.7253 17.0014 49.1325C17.2599 49.5398 17.6132 49.8784 18.031 50.1195L19.4431 50.9315L19.436 50.9297Z" fill="#455A64"/>
<path opacity="0.2" d="M12.9851 1.3327C12.3389 1.09481 11.6483 1.00202 10.9623 1.06089C10.2762 1.11976 9.61156 1.32886 9.01537 1.67336L6.8655 2.90893C6.05433 3.37746 5.38091 4.05141 4.91302 4.86294C4.44513 5.67447 4.19928 6.59494 4.20021 7.53169V12.827C4.19857 13.3088 4.3094 13.7843 4.5239 14.2158C4.7384 14.6472 5.05064 15.0227 5.43578 15.3122C6.02708 15.7517 6.61132 16.2159 7.18145 16.6907C6.5014 16.0078 6.12046 15.0828 6.12239 14.119V8.153C6.1223 7.36551 6.3298 6.5919 6.72397 5.91016C7.11814 5.22842 7.68506 4.66262 8.36759 4.26981L12.1113 2.11993C12.4792 1.90796 12.8893 1.77957 13.3124 1.74387C13.7355 1.70818 14.1613 1.76607 14.5595 1.91341L14.7996 2.00167L12.9851 1.3327Z" fill="black"/>
<path d="M32.9075 13.9424L32.7063 10.6453C32.701 10.4024 32.6356 10.1645 32.5162 9.95297C32.3967 9.7414 32.2267 9.56266 32.0215 9.43265C31.7532 9.27909 28.569 7.4434 28.1948 7.22276C28.0534 7.14092 27.8963 7.08996 27.7339 7.07322C27.5714 7.05649 27.4073 7.07437 27.2522 7.12568C23.8773 8.17532 20.5707 10.111 17.3324 12.9328C16.6899 13.4941 16.2398 14.7385 16.3051 15.6828C16.351 16.3589 16.3598 16.493 16.3563 16.4242C16.3863 16.8813 16.441 17.6597 16.5328 18.9659C16.9706 25.3873 18.8168 30.0754 21.122 31.4168C21.7663 31.7928 24.3274 33.2719 24.9894 33.6514C25.4035 33.9027 25.8796 34.0332 26.364 34.0282C26.8483 34.0232 27.3217 33.8829 27.7305 33.6232C31.176 31.6286 33.5006 22.8173 32.9075 13.9424Z" fill="#455A64"/>
<path d="M20.1443 17.8996C20.3208 20.5473 19.9395 14.9131 20.3685 21.1827C20.9721 30.0487 24.264 35.6194 27.7201 33.623C31.1761 31.6267 33.5007 22.8172 32.9076 13.9423L32.7064 10.6451C32.6429 9.7008 31.9104 9.08655 31.0914 9.34248C27.7165 10.3921 24.4099 12.3278 21.1716 15.1496C20.5291 15.7109 20.086 16.9571 20.1443 17.8996Z" fill="#516EB4"/>
<path opacity="0.6" d="M20.1443 17.8996C20.3208 20.5473 19.9395 14.9131 20.3685 21.1827C20.9721 30.0487 24.264 35.6194 27.7201 33.623C31.1761 31.6267 33.5007 22.8172 32.9076 13.9423L32.7064 10.6451C32.6429 9.7008 31.9104 9.08655 31.0914 9.34248C27.7165 10.3921 24.4099 12.3278 21.1716 15.1496C20.5291 15.7109 20.086 16.9571 20.1443 17.8996Z" fill="white"/>
<path d="M29.9142 21.5287L24.1458 24.8595C23.724 25.1013 23.3533 24.8595 23.3163 24.3211L22.8009 16.7577C22.7638 16.2158 23.0744 15.5804 23.4963 15.3456L29.2646 12.0149C29.6847 11.7713 30.0571 12.0149 30.0942 12.5445L30.6096 20.1079C30.6484 20.6497 30.336 21.2852 29.9142 21.5287Z" fill="#516EB4"/>
<path d="M24.1321 23.7775L23.6255 16.3553L29.2826 13.0898L29.7892 20.5103L24.1321 23.7775Z" fill="#455A64"/>
<path d="M25.5009 19.543L25.5256 19.9084C25.5393 20.0809 25.4905 20.2526 25.388 20.392C25.2785 20.5372 25.1395 20.6575 24.9802 20.745C24.8582 20.8305 24.7104 20.871 24.5619 20.8597C24.4501 20.8386 24.3883 20.7397 24.3766 20.5632L24.366 20.422C24.366 20.3726 24.3977 20.3285 24.4613 20.2896C24.5248 20.2508 24.5601 20.2561 24.5672 20.3055L24.5795 20.482C24.5795 20.5703 24.6254 20.6144 24.6978 20.6144C24.793 20.6045 24.8845 20.5718 24.9643 20.5191C25.0652 20.4643 25.155 20.3913 25.2291 20.3037C25.2611 20.2701 25.2861 20.2305 25.3028 20.1872C25.3194 20.1439 25.3274 20.0977 25.3262 20.0513L25.2997 19.6524C25.2997 19.5536 25.275 19.4953 25.2467 19.4759C25.2185 19.4565 25.1585 19.4759 25.0702 19.5271L24.6343 19.7813C24.599 19.8007 24.5795 19.7813 24.5742 19.6966C24.569 19.6118 24.5848 19.5748 24.6184 19.5553L24.9714 19.3488L25.0791 19.1264C25.1531 18.9929 25.1931 18.8431 25.1956 18.6905V18.6534C25.199 18.5776 25.178 18.5027 25.1355 18.4398C25.1038 18.408 25.0508 18.4133 24.9785 18.4557L24.396 18.7928C24.3607 18.8122 24.3413 18.7928 24.336 18.7099C24.3307 18.6269 24.3466 18.5863 24.3801 18.5669L24.9643 18.2298C25.1073 18.1468 25.2132 18.1292 25.2803 18.1803C25.3629 18.2787 25.4046 18.4051 25.3968 18.5334V18.5881C25.3995 18.6702 25.39 18.7523 25.3685 18.8317C25.345 18.9316 25.3107 19.0287 25.2662 19.1211L25.2167 19.2235C25.2489 19.2067 25.2855 19.2002 25.3215 19.2049C25.3575 19.2097 25.3912 19.2254 25.418 19.25C25.4746 19.337 25.5035 19.4392 25.5009 19.543Z" fill="#F0F0F0"/>
<path d="M25.9108 19.686L25.819 18.3269C25.7998 18.1626 25.8204 17.9961 25.879 17.8415C25.942 17.7078 26.0467 17.5982 26.1773 17.529L26.811 17.1637C26.8445 17.1442 26.8639 17.1725 26.8692 17.2466C26.8745 17.3208 26.8604 17.3702 26.8269 17.3896L26.1932 17.7567C26.1257 17.7919 26.0731 17.8502 26.0449 17.9209C26.0174 18.0147 26.009 18.1132 26.0202 18.2104L26.0467 18.6004L26.5074 18.4239C26.5761 18.3983 26.6463 18.3765 26.7174 18.3586C26.768 18.3474 26.8204 18.3474 26.871 18.3586C26.9698 18.371 27.0246 18.4698 27.0369 18.6534L27.0616 19.0241C27.0757 19.1963 27.0261 19.3678 26.9222 19.5059C26.814 19.6544 26.6756 19.7783 26.5162 19.8695C26.3939 19.9542 26.2462 19.9941 26.0979 19.9825C25.9849 19.9578 25.9231 19.8642 25.9108 19.686ZM26.1155 19.603C26.1155 19.6913 26.1597 19.7354 26.232 19.7336C26.3278 19.7265 26.4202 19.6949 26.5003 19.6418C26.6002 19.585 26.6898 19.5116 26.7651 19.4247C26.7973 19.3909 26.8224 19.351 26.8391 19.3074C26.8558 19.2638 26.8636 19.2172 26.8622 19.1706L26.8322 18.7417C26.8322 18.6693 26.8004 18.6252 26.751 18.6163C26.6727 18.6103 26.5942 18.625 26.5233 18.6587L26.0626 18.8352L26.1155 19.603Z" fill="#F0F0F0"/>
<path d="M27.5908 18.881L27.6085 19.1563C27.6085 19.2075 27.5785 19.2534 27.5079 19.2958C27.4373 19.3381 27.3984 19.3293 27.3949 19.2781L27.3755 19.0045C27.3755 18.9533 27.4073 18.9057 27.4779 18.8651C27.5485 18.8245 27.5873 18.8298 27.5908 18.881Z" fill="#F0F0F0"/>
<path d="M27.9104 17.5115L27.8839 17.1338C27.8664 16.9694 27.8875 16.8032 27.9457 16.6484C28.0082 16.5144 28.113 16.4046 28.244 16.336L28.8283 15.9989C28.8618 15.9794 28.8794 16.0077 28.8847 16.0836C28.89 16.1595 28.8847 16.2071 28.8424 16.2265L28.2581 16.5637C28.1915 16.5994 28.1396 16.6576 28.1116 16.7278C28.0828 16.8214 28.0738 16.92 28.0852 17.0173L28.1116 17.4109L28.5247 17.2927C28.6412 17.2418 28.7685 17.22 28.8953 17.2291C28.9249 17.2362 28.9522 17.2508 28.9744 17.2715C28.9967 17.2923 29.0132 17.3184 29.0224 17.3474C29.0403 17.4047 29.051 17.464 29.0542 17.5239L29.0771 17.861C29.0895 18.0337 29.0401 18.2051 28.9377 18.3447C28.8299 18.4935 28.6915 18.6175 28.5317 18.7083C28.4094 18.793 28.2617 18.8329 28.1134 18.8212C28.0004 18.8018 27.9369 18.703 27.9263 18.5265V18.3835C27.9263 18.3341 27.9545 18.2899 28.0216 18.2529C28.0887 18.2158 28.124 18.2176 28.1275 18.267L28.1399 18.4435C28.1399 18.5341 28.1787 18.5782 28.2564 18.5759C28.352 18.5679 28.4442 18.5363 28.5247 18.4841C28.6246 18.4272 28.7141 18.3538 28.7894 18.267C28.8216 18.2332 28.8468 18.1933 28.8634 18.1496C28.8801 18.106 28.8879 18.0595 28.8865 18.0128L28.8583 17.6157C28.8583 17.5451 28.8283 17.5045 28.7824 17.4974C28.7037 17.493 28.6249 17.505 28.5511 17.5327L28.0551 17.6775C28.0075 17.6916 27.974 17.688 27.9563 17.6686C27.9258 17.6219 27.9099 17.5673 27.9104 17.5115Z" fill="#F0F0F0"/>
<path d="M29.3914 29.7842C29.3614 29.3518 29.1937 29.0447 28.9466 28.9017L28.2282 28.4851C28.0973 28.4182 27.9508 28.3879 27.8041 28.3975C27.6574 28.4071 27.516 28.4563 27.3951 28.5399C26.7455 28.9158 26.2654 29.8954 26.3219 30.7286C26.3519 31.1663 26.5231 31.4752 26.7738 31.6111C26.8938 31.6799 27.3651 31.9553 27.4904 32.0259C27.6206 32.0912 27.7661 32.1203 27.9114 32.11C28.0567 32.0998 28.1966 32.0506 28.3164 31.9677C28.9678 31.597 29.4408 30.6174 29.3914 29.7842Z" fill="#516EB4"/>
<path opacity="0.2" d="M29.3914 29.7842C29.3614 29.3518 29.1937 29.0447 28.9466 28.9017L28.2282 28.4851C28.0973 28.4182 27.9508 28.3879 27.8041 28.3975C27.6574 28.4071 27.516 28.4563 27.3951 28.5399C26.7455 28.9158 26.2654 29.8954 26.3219 30.7286C26.3519 31.1663 26.5231 31.4752 26.7738 31.6111C26.8938 31.6799 27.3651 31.9553 27.4904 32.0259C27.6206 32.0912 27.7661 32.1203 27.9114 32.11C28.0567 32.0998 28.1966 32.0506 28.3164 31.9677C28.9678 31.597 29.4408 30.6174 29.3914 29.7842Z" fill="white"/>
<path opacity="0.2" d="M29.3916 29.7841C29.4481 30.6172 28.968 31.5968 28.3167 31.9728C27.6654 32.3487 27.0952 31.9728 27.037 31.1414C26.9787 30.31 27.4624 29.3287 28.1119 28.9527C28.7615 28.5767 29.3334 28.9492 29.3916 29.7841Z" fill="white"/>
<path d="M31.6243 24.9L31.506 23.1684L30.7894 22.7554L28.8584 23.8691L29.0137 26.1638L29.7304 26.5768C30.3984 26.0608 31.0312 25.5006 31.6243 24.9Z" fill="#516EB4"/>
<path opacity="0.2" d="M31.6243 24.9L31.506 23.1684L30.7894 22.7554L28.8584 23.8691L29.0137 26.1638L29.7304 26.5768C30.3984 26.0608 31.0312 25.5006 31.6243 24.9Z" fill="black"/>
<path opacity="0.2" d="M28.8584 23.8623L29.5733 24.2753L29.7304 26.5629L29.0137 26.1499L28.8584 23.8623Z" fill="black"/>
<path d="M31.506 23.1614L31.6243 24.8929C31.0309 25.4911 30.3982 26.049 29.7303 26.5627L29.5732 24.2681L31.506 23.1614Z" fill="#516EB4"/>
<path d="M29.3197 26.87L29.159 24.5153L28.4442 24.1023L25.8989 25.5726L26.0578 27.9237L26.7744 28.3367C27.6737 27.942 28.5272 27.4502 29.3197 26.87Z" fill="#516EB4"/>
<path opacity="0.2" d="M29.3197 26.87L29.159 24.5153L28.4442 24.1023L25.8989 25.5726L26.0578 27.9237L26.7744 28.3367C27.6737 27.942 28.5272 27.4502 29.3197 26.87Z" fill="black"/>
<path opacity="0.2" d="M26.6138 25.9855L25.8989 25.5725L26.0578 27.9236L26.7744 28.3366L26.6138 25.9855Z" fill="black"/>
<path d="M26.6167 25.9857L29.162 24.5154L29.3226 26.87C28.5302 27.4502 27.6767 27.9421 26.7773 28.3368L26.6167 25.9857Z" fill="#516EB4"/>
<path d="M26.3537 28.5116L26.1984 26.217L25.4818 25.804L23.5508 26.9195L23.669 28.651L24.3751 29.0641C25.0507 28.9434 25.7133 28.7584 26.3537 28.5116Z" fill="#516EB4"/>
<path opacity="0.2" d="M24.2656 27.341L23.5508 26.928L23.669 28.6595L24.3839 29.0726L24.2656 27.341Z" fill="black"/>
<path opacity="0.2" d="M26.3537 28.5116L26.1984 26.217L25.4818 25.804L23.5508 26.9195L23.669 28.651L24.3751 29.0641C25.0507 28.9434 25.7133 28.7584 26.3537 28.5116Z" fill="black"/>
<path d="M24.2656 27.3411L26.1984 26.2256L26.3537 28.5202C25.7164 28.7695 25.0568 28.9574 24.3839 29.0815L24.2656 27.3411Z" fill="#516EB4"/>
<path opacity="0.2" d="M23.3143 51.2316L21.9729 31.9163L23.2843 32.677C23.2843 32.677 20.2908 30.3718 19.5565 22.6054C19.0623 17.3843 18.5963 16.0958 17.7473 15.1603C17.0748 14.4207 8.40642 7.8228 4.80034 5.08691C4.40768 5.84208 4.20188 6.68041 4.20021 7.53156V12.8268C4.19857 13.3087 4.3094 13.7842 4.5239 14.2157C4.7384 14.6471 5.05064 15.0225 5.43578 15.3121C8.53527 17.6243 11.5165 20.5614 12.8315 22.7343C14.1218 24.87 14.7501 27.5759 15.3203 33.7484C15.7545 38.4559 16.2964 44.8685 16.5399 47.7756C16.5802 48.2563 16.7363 48.7201 16.9948 49.1273C17.2533 49.5346 17.6066 49.8732 18.0244 50.1143L21.8935 52.3489C22.3484 52.6103 22.8638 52.7479 23.3885 52.7479C23.9131 52.7479 24.4286 52.6103 24.8835 52.3489C24.7057 52.3961 24.5198 52.4035 24.3388 52.3707C24.1578 52.3378 23.9863 52.2655 23.8365 52.1588C23.6867 52.0521 23.5622 51.9137 23.472 51.7535C23.3817 51.5932 23.3279 51.415 23.3143 51.2316Z" fill="black"/>
<path d="M43.8295 32.9658L42.7041 30.8313L43.6153 28.1933V26.5781L40.8179 28.1933V29.8084L42.0207 31.8929C42.0395 31.9245 42.0672 31.9498 42.1004 31.9658L43.8295 32.9658Z" fill="#516EB4"/>
<path opacity="0.2" d="M43.8295 32.9658L42.7041 30.8313L43.6153 28.1933V26.5781L40.8179 28.1933V29.8084L42.0207 31.8929C42.0395 31.9245 42.0672 31.9498 42.1004 31.9658L43.8295 32.9658Z" fill="black"/>
<path d="M43.9236 32.8815C43.9118 32.8819 43.9002 32.8788 43.8901 32.8728C43.88 32.8667 43.8719 32.8579 43.8667 32.8474L42.6092 30.6695L39.1419 32.6742C39.1013 32.697 39.0595 32.7175 39.0166 32.7357C38.9548 32.7597 38.8893 32.7728 38.823 32.7745C38.7759 32.7761 38.7292 32.7666 38.6864 32.7468C38.6437 32.727 38.6062 32.6975 38.577 32.6605C38.5014 32.5529 38.4645 32.4228 38.4722 32.2915V20.7645C38.4782 20.5255 38.5407 20.2913 38.6544 20.081L38.7068 19.9899C38.8353 19.7513 39.0237 19.5503 39.2536 19.4067L49.7327 13.3471C49.8285 13.2866 49.9384 13.252 50.0516 13.2468C50.1298 13.247 50.2054 13.2751 50.2647 13.326C50.324 13.377 50.3632 13.4475 50.3751 13.5248C50.3878 13.5946 50.3939 13.6656 50.3933 13.7366V25.2614C50.3792 25.5326 50.301 25.7966 50.1652 26.0318C50.0294 26.267 49.8398 26.4667 49.612 26.6145L45.2631 29.1364L43.9806 32.836C43.9769 32.8485 43.9694 32.8595 43.9592 32.8677C43.9491 32.8758 43.9366 32.8807 43.9236 32.8815Z" fill="#FAFAFA"/>
<path d="M50.0513 13.3608C50.09 13.3608 50.213 13.3608 50.2654 13.5544C50.2744 13.614 50.279 13.6741 50.2791 13.7344V25.2591C50.2637 25.5102 50.1903 25.7542 50.0646 25.972C49.9389 26.1898 49.7643 26.3755 49.5546 26.5144L45.2423 29.0202L45.1694 29.0635L45.142 29.1433L43.9119 32.6993L42.7728 30.7106L42.6589 30.5124L42.4607 30.6263L39.096 32.5718C39.06 32.5923 39.0227 32.6105 38.9844 32.6264C38.9357 32.6457 38.8841 32.6565 38.8318 32.6583C38.6267 32.6583 38.6039 32.4305 38.6039 32.2893V20.7622C38.6109 20.557 38.6622 20.3557 38.7543 20.1722L38.8249 20.0469C38.9426 19.826 39.1162 19.6398 39.3284 19.507L49.8075 13.4473C49.8864 13.3977 49.9765 13.3688 50.0695 13.3631M50.0695 13.1353C49.9361 13.1398 49.8063 13.1799 49.6936 13.2514L39.2145 19.3111C38.9659 19.4641 38.7623 19.6803 38.6245 19.9376C38.4732 20.1877 38.3885 20.4724 38.3784 20.7645V32.2915C38.3784 32.6697 38.5675 32.8884 38.834 32.8884C38.912 32.8863 38.9891 32.8709 39.0618 32.8428C39.0082 32.8653 38.9534 32.8851 38.8978 32.9021C39.0052 32.8734 39.1085 32.8313 39.2054 32.7768L42.5655 30.8313L43.7661 32.9112C43.7823 32.9384 43.8053 32.9609 43.8329 32.9764C43.8604 32.992 43.8916 33.0001 43.9232 33C43.9604 32.9997 43.9965 32.988 44.0267 32.9664C44.0569 32.9448 44.0796 32.9143 44.0918 32.8793L45.3607 29.2184L49.6731 26.7126C49.9172 26.5532 50.1204 26.3386 50.266 26.0861C50.4117 25.8336 50.4958 25.5502 50.5114 25.2591V13.7458C50.5103 13.605 50.488 13.4653 50.4454 13.3312C50.4615 13.3889 50.4744 13.4474 50.4841 13.5066C50.4655 13.4052 50.4121 13.3135 50.333 13.2474C50.254 13.1812 50.1543 13.1448 50.0513 13.1444L50.0695 13.1353Z" fill="#516EB4"/>
<path d="M50.484 13.4949C50.386 13.1395 50.0625 13.0256 49.6753 13.2489L39.1961 19.3085C38.9476 19.4616 38.744 19.6777 38.6061 19.935C38.4549 20.1852 38.3702 20.4698 38.3601 20.762V32.289C38.3601 32.7674 38.6608 32.9906 39.0572 32.8403C39.0035 32.8628 38.9488 32.8825 38.8931 32.8995C38.8362 32.9155 38.7792 32.9291 38.72 32.9405C38.5352 32.9743 38.3466 32.9819 38.1596 32.9633C38.1007 32.9585 38.0421 32.9501 37.9842 32.9382C37.934 32.9296 37.8846 32.9174 37.8361 32.9018C37.726 32.8738 37.6202 32.8309 37.5217 32.7742L36.8383 32.3778C36.5945 32.2188 36.3915 32.0045 36.2459 31.7524C36.1002 31.5003 36.016 31.2174 36 30.9267V19.3997C36.0101 19.1075 36.0948 18.8229 36.246 18.5727C36.3207 18.4416 36.4109 18.32 36.5148 18.2105L36.59 18.1353L36.6697 18.0647C36.7131 18.0298 36.7588 17.9978 36.8064 17.969C36.8165 17.9607 36.8272 17.9531 36.8383 17.9463L43.4766 14.11L47.3129 11.8889C47.3228 11.8822 47.3335 11.8768 47.3448 11.8729C47.4586 11.8112 47.5805 11.7659 47.707 11.7385C47.8163 11.7132 47.9276 11.6972 48.0396 11.6907H48.2674C48.3794 11.6972 48.4907 11.7132 48.6 11.7385C48.7377 11.7678 48.8699 11.8186 48.9918 11.8889L49.6753 12.283C49.7636 12.3364 49.8461 12.399 49.9213 12.4698C49.9463 12.4948 49.9737 12.5199 49.9987 12.5472C50.0751 12.6294 50.1445 12.7177 50.206 12.8115C50.2475 12.8755 50.2856 12.9416 50.32 13.0097C50.3703 13.1101 50.4122 13.2145 50.4452 13.3218C50.4613 13.3787 50.4742 13.4365 50.484 13.4949Z" fill="#516EB4"/>
<path opacity="0.2" d="M39.0601 32.8381C39.0065 32.8606 38.9517 32.8804 38.8961 32.8973C38.8391 32.9133 38.7822 32.927 38.7229 32.9384C38.538 32.971 38.3495 32.9787 38.1625 32.9611C38.1036 32.9563 38.045 32.9479 37.9871 32.9361C37.937 32.9274 37.8875 32.9152 37.8391 32.8996C37.7289 32.8716 37.6232 32.8287 37.5247 32.772L36.8413 32.3757C36.5974 32.2166 36.3945 32.0023 36.2488 31.7502C36.1032 31.4981 36.0189 31.2152 36.0029 30.9245V19.3975C36.013 19.1054 36.0977 18.8207 36.249 18.5706L38.6068 19.9374C38.4555 20.1875 38.3709 20.4722 38.3607 20.7643V32.2914C38.3585 32.7652 38.6592 32.9885 39.0601 32.8381Z" fill="black"/>
<path opacity="0.3" d="M50.4847 13.4951C50.3867 13.1398 50.0632 13.0259 49.676 13.2491L39.1968 19.3088C38.9483 19.4618 38.7447 19.678 38.6068 19.9353L36.249 18.5684C36.3229 18.4366 36.4124 18.3142 36.5156 18.2039L36.5907 18.1287L36.6705 18.0581C36.7235 18.0151 36.7799 17.9762 36.839 17.9419L43.4773 14.1034L47.3136 11.8823C47.3235 11.8756 47.3342 11.8703 47.3455 11.8663C47.4599 11.806 47.5817 11.7608 47.7077 11.7319C47.817 11.7066 47.9283 11.6906 48.0403 11.6841H48.2681C48.3801 11.6906 48.4914 11.7066 48.6007 11.7319C48.7378 11.7633 48.8697 11.8139 48.9926 11.8823L49.676 12.2764C49.765 12.3288 49.8476 12.3915 49.922 12.4632C49.9471 12.4882 49.9744 12.5133 49.9995 12.5406C50.0772 12.6216 50.1466 12.7101 50.2068 12.8049C50.2483 12.8689 50.2863 12.935 50.3207 13.0031C50.371 13.1035 50.4129 13.2079 50.446 13.3152C50.4623 13.3744 50.4752 13.4345 50.4847 13.4951Z" fill="white"/>
<path d="M42.4203 23.6051C42.4203 23.703 42.409 23.8329 42.4067 24.006C42.4044 24.1792 42.4067 24.3477 42.4067 24.5277C42.4067 24.7077 42.4067 24.8785 42.4067 25.0471C42.4067 25.2157 42.4067 25.3478 42.4203 25.4389C42.4275 25.5871 42.452 25.7339 42.4932 25.8763C42.5223 25.9921 42.5849 26.0967 42.6732 26.177C42.7603 26.2478 42.8711 26.2829 42.983 26.275C43.15 26.2586 43.3103 26.2015 43.45 26.1087C43.6186 26.0152 43.7722 25.897 43.9056 25.7579C44.0177 25.6412 44.117 25.5129 44.2018 25.3752C44.2738 25.255 44.3326 25.1275 44.3772 24.9947C44.4146 24.8842 44.4458 24.7716 44.4706 24.6576C44.4882 24.5546 44.5189 24.4544 44.5617 24.3591C44.6052 24.2823 44.6701 24.2198 44.7485 24.1792L45.8215 23.5618C45.8398 23.5478 45.8622 23.5402 45.8853 23.5402C45.9084 23.5402 45.9308 23.5478 45.9491 23.5618C45.9679 23.5789 45.9825 23.6001 45.9916 23.6239C46.0007 23.6476 46.0041 23.6732 46.0015 23.6985C45.9931 24.0955 45.924 24.4888 45.7965 24.8649C45.6645 25.2727 45.4832 25.6628 45.2566 26.0267C45.0274 26.402 44.7569 26.7504 44.4501 27.0655C44.1549 27.3755 43.8175 27.6424 43.4478 27.8582C43.13 28.0592 42.7711 28.1862 42.3976 28.2296C42.1211 28.2598 41.8425 28.1955 41.6071 28.0473C41.3781 27.8848 41.2047 27.6558 41.1105 27.3912C40.9864 27.064 40.9187 26.7182 40.91 26.3684C40.91 26.0768 40.894 25.7601 40.894 25.4162C40.894 25.0722 40.894 24.7441 40.91 24.4252C40.9245 24.0012 40.9903 23.5805 41.1059 23.1723C41.2267 22.743 41.3956 22.3289 41.6094 21.9375C41.8264 21.5416 42.0919 21.1743 42.3998 20.8441C42.7067 20.5107 43.0623 20.2257 43.4546 19.9989C43.7608 19.8112 44.1017 19.6873 44.4569 19.6344C44.7305 19.5921 45.0104 19.6293 45.2634 19.7415C45.4991 19.8543 45.6895 20.0439 45.8033 20.2791C45.9436 20.5685 46.0138 20.8869 46.0083 21.2086C46.0065 21.2785 45.9885 21.3471 45.9559 21.409C45.9284 21.4684 45.8841 21.5183 45.8283 21.5525L44.7554 22.1745C44.6642 22.2291 44.6005 22.2405 44.5686 22.2132C44.5216 22.1578 44.4901 22.091 44.4774 22.0196C44.4546 21.9405 44.4233 21.8641 44.384 21.7917C44.3446 21.7163 44.2835 21.6544 44.2086 21.6141C44.1157 21.5729 44.0131 21.5587 43.9125 21.5731C43.7503 21.6013 43.5953 21.6617 43.4569 21.7507C43.2828 21.8494 43.1252 21.9747 42.9899 22.1221C42.747 22.397 42.5784 22.7295 42.5001 23.088C42.4594 23.2579 42.4327 23.4308 42.4203 23.6051Z" fill="#455A64"/>
<path d="M47.716 17.5932C47.8411 17.5177 47.9783 17.4645 48.1215 17.436C48.2413 17.408 48.3667 17.4167 48.4814 17.461C48.5903 17.5078 48.6819 17.5875 48.7434 17.6888C48.8192 17.8289 48.8598 17.9852 48.8619 18.1444C48.8619 18.1991 48.8619 18.2971 48.8619 18.4338C48.8619 18.5704 48.8619 18.673 48.8619 18.7345C48.8518 18.9323 48.8142 19.1279 48.7503 19.3154C48.6888 19.5016 48.6038 19.6792 48.4974 19.8439C48.3948 20.0046 48.2741 20.1529 48.1375 20.2858C48.0094 20.4083 47.868 20.516 47.716 20.607C47.5851 20.6841 47.4429 20.7402 47.2946 20.7733C47.1747 20.8019 47.0488 20.7923 46.9346 20.746C46.8254 20.7016 46.7345 20.6213 46.6772 20.5182C46.6038 20.3777 46.567 20.221 46.5701 20.0626C46.5652 19.9662 46.5652 19.8696 46.5701 19.7733C46.5701 19.6343 46.5701 19.5455 46.5701 19.4748C46.5751 19.2747 46.6136 19.0768 46.684 18.8894C46.7535 18.7019 46.8428 18.5224 46.9506 18.354C47.0517 18.1923 47.1726 18.0438 47.3105 17.9121C47.4321 17.7896 47.5683 17.6825 47.716 17.5932ZM47.716 18.4224C47.6429 18.4657 47.5855 18.5311 47.552 18.6092C47.5091 18.7298 47.4875 18.857 47.4882 18.9851C47.484 19.067 47.484 19.1491 47.4882 19.2311C47.484 19.307 47.484 19.383 47.4882 19.4589C47.4882 19.6343 47.5224 19.7391 47.5611 19.771C47.5998 19.8029 47.6545 19.8006 47.7251 19.7596C47.7962 19.718 47.8533 19.6561 47.8891 19.5819C47.9272 19.4627 47.9457 19.338 47.9438 19.2129C47.9438 19.1514 47.9438 19.0693 47.9438 18.9668C47.9438 18.8643 47.9438 18.7869 47.9438 18.739C47.948 18.634 47.9227 18.5298 47.8709 18.4383C47.839 18.3814 47.7843 18.3814 47.716 18.4224Z" fill="#455A64"/>
<path d="M62.3363 22.2819L61.1973 20.1451L62.1085 17.5048V15.8896L59.311 17.5048V19.1222L60.5139 21.2044C60.5317 21.2376 60.5608 21.2635 60.5959 21.2773L62.3363 22.2819Z" fill="#516EB4"/>
<path opacity="0.2" d="M62.3363 22.2819L61.1973 20.1451L62.1085 17.5048V15.8896L59.311 17.5048V19.1222L60.5139 21.2044C60.5317 21.2376 60.5608 21.2635 60.5959 21.2773L62.3363 22.2819Z" fill="black"/>
<path d="M62.43 22.1927C62.4185 22.193 62.4071 22.1902 62.3971 22.1846C62.3871 22.179 62.3787 22.1708 62.373 22.1608L61.1155 19.983L57.6483 21.9877C57.6079 22.0109 57.5661 22.0315 57.523 22.0492C57.4616 22.0749 57.3959 22.0889 57.3294 22.0902C57.2821 22.0917 57.2351 22.082 57.1923 22.0618C57.1496 22.0416 57.1122 22.0115 57.0833 21.974C57.0078 21.8663 56.9708 21.7363 56.9785 21.605V10.0779C56.9846 9.83895 57.047 9.60478 57.1608 9.39452L57.2132 9.30339C57.3404 9.06388 57.5291 8.86258 57.7599 8.72021L68.239 2.65826C68.3356 2.59976 68.4452 2.56611 68.558 2.5603C68.6358 2.56038 68.7111 2.58816 68.7704 2.63866C68.8297 2.68916 68.869 2.75909 68.8815 2.83595C68.8941 2.90508 68.9002 2.97525 68.8997 3.04553V14.5703C68.8873 14.8438 68.81 15.1104 68.6741 15.3481C68.5382 15.5858 68.3477 15.7877 68.1183 15.9371L63.7695 18.4567L62.4869 22.1585C62.4817 22.1691 62.4735 22.1779 62.4634 22.184C62.4534 22.19 62.4417 22.1931 62.43 22.1927Z" fill="#FAFAFA"/>
<path d="M68.5576 2.67662C68.5963 2.67662 68.7193 2.67662 68.7717 2.87025C68.7806 2.92983 68.7852 2.98998 68.7854 3.05022V14.575C68.7702 14.8264 68.6969 15.0708 68.5712 15.289C68.4455 15.5072 68.2708 15.6933 68.061 15.8325L63.7486 18.3384L63.6757 18.3794L63.6484 18.4591L62.4136 22.022L61.2746 20.0332L61.1607 19.835L60.9625 19.9512L57.6001 21.8967C57.5636 21.9172 57.5249 21.9354 57.4885 21.9514C57.4398 21.9707 57.3882 21.9815 57.3358 21.9833C57.1308 21.9833 57.108 21.7555 57.108 21.6119V10.0849C57.1153 9.88045 57.1665 9.67998 57.2584 9.49716L57.329 9.37187C57.4462 9.14984 57.6208 8.96337 57.8347 8.83196L68.3138 2.7723C68.3927 2.72269 68.4828 2.6937 68.5758 2.68801M68.5758 2.4602C68.4428 2.46504 68.3133 2.50428 68.1999 2.57411L57.7208 8.63377C57.4722 8.78679 57.2687 9.00295 57.1308 9.26024C56.9796 9.51039 56.8949 9.79506 56.8848 10.0872V21.6142C56.8848 21.9924 57.0738 22.2134 57.3404 22.2134C57.4186 22.2114 57.4958 22.1952 57.5682 22.1655C57.5145 22.188 57.4598 22.2078 57.4042 22.2247C57.5115 22.1961 57.6149 22.154 57.7117 22.0995L61.0787 20.1517L62.2792 22.2316C62.2966 22.2614 62.3221 22.2856 62.3528 22.3013C62.3835 22.317 62.418 22.3236 62.4524 22.3202C62.4867 22.3169 62.5193 22.3037 62.5464 22.2824C62.5734 22.261 62.5938 22.2323 62.605 22.1997L63.8671 18.5297L68.1794 16.0238C68.4236 15.8645 68.6267 15.6499 68.7724 15.3974C68.918 15.1448 69.0021 14.8615 69.0178 14.5704V3.03883C69.0166 2.8981 68.9944 2.75834 68.9517 2.62422C68.9679 2.68193 68.9808 2.74049 68.9904 2.79963C68.9718 2.69848 68.9183 2.60708 68.8392 2.54131C68.7601 2.47555 68.6605 2.43959 68.5576 2.4397L68.5758 2.4602Z" fill="#516EB4"/>
<path d="M68.9908 2.81123C68.8929 2.45585 68.5694 2.34195 68.1821 2.5652L57.703 8.62487C57.4544 8.77788 57.2508 8.99404 57.1129 9.25134C56.9617 9.50148 56.877 9.78615 56.8669 10.0783V21.6053C56.8669 22.0837 57.1676 22.307 57.564 22.1566C57.5104 22.1791 57.4556 22.1988 57.4 22.2158C57.343 22.2318 57.2861 22.2455 57.2269 22.2568C57.042 22.2906 56.8534 22.2983 56.6664 22.2796C56.6075 22.2748 56.549 22.2664 56.491 22.2546C56.4409 22.2459 56.3914 22.2337 56.343 22.2181C56.2328 22.1901 56.1271 22.1472 56.0286 22.0905L55.3452 21.6942C55.1013 21.5351 54.8984 21.3208 54.7527 21.0687C54.6071 20.8166 54.5228 20.5337 54.5068 20.243V8.71143C54.517 8.41931 54.6017 8.13464 54.7529 7.88449C54.8275 7.75334 54.9178 7.63172 55.0217 7.52228C55.0467 7.49722 55.0718 7.46989 55.0969 7.44711L55.1766 7.37648C55.2222 7.34307 55.2677 7.31118 55.3133 7.2808L55.3452 7.25803L61.9835 3.42175L65.8197 1.20063L65.8516 1.18469C65.9654 1.12296 66.0874 1.07771 66.2138 1.05028C66.3232 1.02495 66.4344 1.00894 66.5464 1.00244H66.7742C66.8863 1.00894 66.9975 1.02495 67.1068 1.05028C67.2445 1.07961 67.3767 1.13034 67.4987 1.20063L68.1821 1.59474C68.2705 1.64813 68.353 1.71075 68.4281 1.78154L68.5056 1.859C68.582 1.94112 68.6513 2.02952 68.7129 2.12325C68.7544 2.18723 68.7924 2.25339 68.8268 2.32145C68.8771 2.42183 68.919 2.52622 68.9521 2.63354C68.9683 2.692 68.9813 2.75132 68.9908 2.81123Z" fill="#516EB4"/>
<path opacity="0.2" d="M57.5616 22.1518C57.5079 22.1743 57.4532 22.1941 57.3975 22.2111C57.3406 22.227 57.2836 22.2407 57.2244 22.2521C57.0395 22.2847 56.851 22.2924 56.664 22.2748C56.6051 22.27 56.5465 22.2616 56.4886 22.2498C56.4384 22.2411 56.389 22.229 56.3405 22.2133C56.2304 22.1853 56.1246 22.1424 56.0262 22.0858L55.3427 21.6894C55.0989 21.5303 54.8959 21.316 54.7503 21.0639C54.6046 20.8118 54.5204 20.529 54.5044 20.2383V8.71121C54.5145 8.41909 54.5992 8.13442 54.7504 7.88428L57.1082 9.25112C56.957 9.50126 56.8723 9.78594 56.8622 10.0781V21.6051C56.8645 22.0789 57.1652 22.3022 57.5616 22.1518Z" fill="black"/>
<path opacity="0.3" d="M68.9901 2.81107C68.8921 2.45569 68.5686 2.34178 68.1813 2.56503L57.7022 8.6247C57.4536 8.77772 57.2501 8.99388 57.1122 9.25117L54.7544 7.88433C54.8282 7.75254 54.9177 7.63015 55.0209 7.51984C55.046 7.49478 55.071 7.46744 55.0961 7.44466L55.1758 7.37404C55.2289 7.33098 55.2853 7.29213 55.3444 7.25786L61.9827 3.41931L65.819 1.19819L65.8509 1.18225C65.9653 1.12189 66.087 1.0767 66.2131 1.04784C66.3224 1.0225 66.4337 1.0065 66.5457 1H66.7735C66.8855 1.0065 66.9968 1.0225 67.1061 1.04784C67.2431 1.07922 67.3751 1.12984 67.4979 1.19819L68.1813 1.5923C68.2704 1.64475 68.3529 1.70744 68.4274 1.7791L68.5048 1.85655C68.5826 1.93751 68.652 2.02603 68.7121 2.12081C68.7536 2.18479 68.7917 2.25094 68.826 2.319C68.8764 2.41939 68.9183 2.52378 68.9513 2.6311C68.9677 2.6903 68.9806 2.75039 68.9901 2.81107Z" fill="white"/>
<path d="M63.9175 8.29242C63.9401 8.27611 63.9672 8.26733 63.995 8.26733C64.0228 8.26733 64.0499 8.27611 64.0725 8.29242C64.0961 8.31325 64.1144 8.3394 64.1259 8.36872C64.1374 8.39804 64.1417 8.42967 64.1385 8.461V9.61826C64.1364 9.70436 64.1138 9.78872 64.0725 9.86429C64.0383 9.93614 63.9846 9.99693 63.9175 10.0397L61.4709 11.4521V12.9488L63.749 11.6298C63.7714 11.6132 63.7985 11.6042 63.8264 11.6042C63.8543 11.6042 63.8815 11.6132 63.9039 11.6298C63.9273 11.6507 63.9456 11.6769 63.957 11.7062C63.9685 11.7355 63.9729 11.7671 63.9699 11.7984V12.9556C63.9679 13.0417 63.9452 13.1261 63.9039 13.2017C63.8697 13.2735 63.8161 13.3343 63.749 13.3771L61.4709 14.6961V17.0516C61.4692 17.1378 61.4465 17.2222 61.4048 17.2976C61.3714 17.3705 61.3176 17.4322 61.2499 17.4753L60.177 18.0927C60.1546 18.1093 60.1274 18.1183 60.0995 18.1183C60.0716 18.1183 60.0444 18.1093 60.022 18.0927C59.9985 18.0713 59.9803 18.0447 59.9689 18.015C59.9574 17.9854 59.953 17.9535 59.956 17.9218V10.8735C59.9578 10.788 59.9805 10.7044 60.022 10.6297C60.0555 10.5568 60.1093 10.4951 60.177 10.452L63.9175 8.29242Z" fill="#455A64"/>
<path d="M65.872 7.10741C65.998 7.03392 66.1349 6.98086 66.2775 6.95022C66.3976 6.92409 66.5227 6.93359 66.6375 6.97756C66.747 7.02344 66.8388 7.1033 66.8994 7.20536C66.9759 7.34514 67.0166 7.50166 67.0179 7.66098C67.0179 7.71565 67.0179 7.81133 67.0179 7.95029C67.0179 8.08926 67.0179 8.1781 67.0179 8.24872C67.0075 8.44711 66.9707 8.64322 66.9085 8.83191C66.8449 9.01764 66.7593 9.19508 66.6534 9.36042C66.5523 9.52214 66.4314 9.6706 66.2935 9.80237C66.1669 9.92587 66.0253 10.033 65.872 10.1213C65.7419 10.2006 65.5995 10.2576 65.4506 10.2899C65.3305 10.316 65.2054 10.3065 65.0906 10.2625C64.9827 10.2161 64.8924 10.1363 64.8332 10.0347C64.7608 9.8939 64.7241 9.73746 64.7262 9.57912C64.7262 9.52444 64.7262 9.42876 64.7262 9.2898C64.7262 9.15084 64.7262 9.0506 64.7262 8.98909C64.732 8.78957 64.7713 8.59243 64.8423 8.40591C64.9119 8.21891 65.0005 8.03953 65.1066 7.87056C65.2091 7.70987 65.3299 7.56157 65.4665 7.42862C65.5888 7.30615 65.7248 7.19835 65.872 7.10741ZM65.872 7.93663C65.7989 7.9809 65.7415 8.04704 65.708 8.12571C65.6629 8.24921 65.6383 8.37926 65.6351 8.5107C65.6351 8.57221 65.6351 8.65422 65.6351 8.75673C65.6351 8.85925 65.6351 8.9367 65.6351 8.98454C65.6281 9.09348 65.6535 9.20207 65.708 9.29664C65.746 9.32853 65.8006 9.32397 65.872 9.28297C65.9431 9.24229 66.0002 9.18116 66.0361 9.10755C66.0851 8.98119 66.1098 8.84671 66.1089 8.71117C66.1132 8.62921 66.1132 8.5471 66.1089 8.46514C66.1131 8.38926 66.1131 8.31321 66.1089 8.23733C66.1155 8.13205 66.0901 8.02724 66.0361 7.93663C65.9981 7.89562 65.9434 7.89562 65.872 7.93663Z" fill="#455A64"/>
</svg>
