<svg fill="none" height="2667" viewBox="0 0 3734 2667" width="3734" xmlns="http://www.w3.org/2000/svg" xmlns:xlink="http://www.w3.org/1999/xlink"><clipPath id="a"><path d="m0 0h3733.33v2666.67h-3733.33z"/></clipPath><g clip-path="url(#a)"><path d="m298.042 2663.87s-499.072-560.69-205.5923-1099.9c293.4813-539.2 725.5213-165.71 706.6753-793.41-18.847-627.716 906.175-681.3192 1200.535-499.208 294.37 182.11 292.53 401.319 900.38 328.99 607.85-72.314 723.76 532.328 565.52 840.398-224.51 437.11 622.58 365.3 88.54 1224.26z" fill="#ebf3fa"/><path d="m1110.38 1294c-105.63-24.7-207.04-41.83-227.222-59.88-.305-.26-.605-.54-.896-.82-17.165-15.85-5.704-44.3 17.126-44.3.538 0 1.084.02 1.634.05 77.227 4.52 155.168 32.74 218.978 63.46-3.72 13.36-6.92 27.19-9.62 41.49z" fill="#dce9fa"/><path d="m875.611 1382c-30.918 0-53.681-1.94-64.473-7.3-17.717-8.83-24.751-18.94-26.622-28.14-2.874-14.13 6.567-27.92 20.575-31.32 44.866-10.88 91.912-15.24 138.583-15.24 56.516 0 112.476 6.41 163.326 15.47-2.74 18.24-4.72 37.1-5.95 56.55-25.63 1.07-50.9 2.38-75.22 3.71-58.095 3.13-110.792 6.27-150.219 6.27" fill="#dce9fa"/><path d="m2322.95 2016c-60.5 0-131.36-14.33-156.95-48.52 40-109.82 69.03-230.5 82.4-348.97 41.75-15.61 99.74-34.58 134.85-34.58 3.54 0 6.86.2 9.91.6 0 0-89.82 139.88-63.88 139.88.22 0 .45-.02.7-.03 28.16-2.45 130.09-146.1 130.09-146.1s15.56-2.28 37.14-2.28c43.76 0 112.24 9.41 125.38 66.37 19.6 85.02-18.78 125.7-40 130.18-21.23 4.46-156.09-2.39-153.24 15.27 2.36 14.62 64.48 38.73 114.98 38.73 10.5 0 20.48-1.04 29.33-3.43 0 0-57.11 127.11-127.04 127.11-2.51 0-5.04-.17-7.59-.51-73.32-9.79-94.38-56.23-139.8-61.46-7.91-.91-15.46-1.33-22.43-1.33-33.05 0-52.87 9.4-34.44 20.25 22.32 13.13 99.72 7.79 135.34 40.49 35.62 32.69 64.68 53.09-4.19 64.54-14.88 2.48-32.23 3.79-50.56 3.79" fill="#cde0fb"/><path d="m943.924 2391c-14.714-7.55-11.104-15.72 0-25.8zm-28.138-46.37c-57.423 0-96.676-109.66-96.676-109.66 10.096 3.66 22.327 5.19 35.023 5.19 37.406 0 78.819-13.19 81.295-23.53 3.319-13.84-103.799-17.46-120.323-22.44-16.524-4.97-44.437-39.88-23.785-106.09 11.523-36.95 51.415-45.1 84.441-45.1 26.17 0 48.035 5.13 48.035 5.13s71.965 120.94 94.104 124.79c.35.06.68.09.99.09 19.14-.02-42.526-115.42-42.526-115.42.793-.04 1.604-.06 2.438-.06 44.738 0 148.628 56.14 148.628 56.14s-6.12 68.54-1.75 107.9h-121.17c-33.324 0-60.586 27.28-60.586 60.65v58.63c-7.759 1.91-16.327 3.27-25.948 3.74-.733.03-1.462.04-2.19.04m315.214-123.06h-82.56c2.48-35.82-6.19-94.6-6.19-94.6 41.23 14.53 78.28 65.25 78.28 65.25 5.7 10.23 9.02 20.04 10.47 29.35" fill="#d9e5fc"/><path d="m1439.52 506.542c21.27 56.099 203.57 203.458 203.57 203.458s59.41-48.332 114.44-100.385c41.18-38.527 79.66-79.077 88.78-103.073 21.61-55.775-1.36-135.53-81.02-149.057-79.34-13.511-122.2 69.626-122.2 69.626s-42.87-83.137-122.53-69.626c-13.85 2.378-26.01 6.764-36.47 12.848-49.63 27.717-62.12 90.24-44.57 136.209" fill="#f78248"/><path d="m1076.32 965.045c33.56 37.155 103.05 108.405 183.68 158.625l-102.57 94.33s-150.6-71.02-195.694-179.2c-9.724-23.32.141-50.246 22.549-61.854l40.785-21.147c17.22-8.923 38.24-5.156 51.25 9.246z" fill="#ea7147"/><path d="m1994.92 1099.28s13.83-245.662-315.39-232.791c-329.22 12.885-419.53 257.511-419.53 257.511z" fill="#ff8c5a"/><path d="m1571 1096.27s-153.08-468.649-485.32-517.687c-21.14-3.12-42.17 6.472-54.04 24.249l-35.789 53.61c-20.646 30.921-7.53 73.148 27.129 86.555 91.09 35.215 247.42 140.072 351.3 452.003z" fill="#ea7147"/><path d="m1946 1114.14s124.74-381.296 395.43-423.561c18.85-2.946 37.68 5.523 48.28 21.364l22.96 34.352c19.31 28.861 7.47 68.118-24.58 81.523-75.56 31.606-198.28 120.008-280.74 367.182z" fill="#ea7147"/><path d="m2256.84 1495.63c-6.8 408.85-230 901.59-464.05 901.59-23.79 0-62.06 4-85.04 0-490.93-85.21-773.083-1049.56-502.95-1291.89 223.25-200.262 473.57-116.158 473.57-116.158 334.12-98.852 500.26 48.918 556.23 281.048 6.4 26.55 11.36 54.18 14.97 82.69 1.56 12.37 2.87 24.9 3.94 37.58 2.87 34.14 3.93 69.31 3.33 105.14" fill="#f78248"/><path d="m1678 989.496s-152.82-100.266-323.08-48.805c-170.25 51.461-229.92 299.559-229.92 299.559s40.4 63.92 159.25-74.4c118.86-138.31 393.75-176.354 393.75-176.354" fill="#ea642f"/><path d="m1328 1127.43s103.93-56.86 155.41 15.16c51.46 72.04 16.07 371.53 115.8 526.97 99.71 155.43 125.45 204.7 128.67 318.44 0 0 7.31-169.7-90.07-327.3-97.38-157.58-79.19-502.38-100.79-573.7-21.6-71.33 60.46-99.057 60.46-99.057s-99.06-35.871-156.97 0c-57.9 35.867-112.51 139.487-112.51 139.487" fill="#ea642f"/><path d="m1434.29 1908.69c-7.36 10.49 130.17-246.4 109.88-387.69l26.72 43.26s9.04 136.75-136.6 344.43" fill="#ea642f"/><path d="m1537 1195s49.32 47.21 169.41 59.87c120.1 12.65 180.14 59.55 201.59 149.13 0 0-33.78-117.83-165.66-117.83-131.89 0-205.34-47.98-205.34-47.98z" fill="#ea642f"/><path d="m2249 1352.77c-19.84 8.06-41.7 27.26-59.49 68.76-17.56 40.98-176.34 169.9-197.45 282.77-20.73 111.08-94.76 175.71-97.06 177.7 47.04-47.56 55.89-80.5 74.93-193.62 2.31-13.75 6.3-27.41 11.56-40.88 5.05-12.93 11.25-25.68 18.27-38.19 17.66-31.49 40.45-61.4 62.6-88.55 6.51-7.97 12.95-15.7 19.2-23.16 27.67-33.04 51.41-60.8 58.67-80.68 23.65-64.69 67.25-118.27 93.8-146.92 6.4 26.58 11.36 54.24 14.97 82.77" fill="#ea642f"/><path d="m1789.26 1700.99c-7.98.51 167.11-33.31 217.74-99.99l-5.73 30.69s-54.06 59.24-212.01 69.3z" fill="#ea642f"/><path d="m2109 1493.89s-45.1 14.98-123.93-13.58c-78.84-28.55-130.55-17.03-171.07 33.37 0 0 56.78-64.6 139.15-24.41 82.38 40.17 142.78 32.06 142.78 32.06z" fill="#ea642f"/><path d="m2129.88 1158.89s-75.67-126.19-158.67-133.23c-82.99-7.05-115.34 8.44-106.91 45.06 8.44 36.63 74.3 24.6 120.15 62.3 45.84 37.7 164.83 94.33 145.43 25.87z" fill="#ff996c"/><path d="m1395 2025.19s86.61 215.49 203.35 256.61c116.73 41.12 161.96 10.29 149.71-37.02-12.28-47.29-66.26-26.22-140.93-96.39-74.68-70.17-208.36-209.12-212.13-123.2z" fill="#e8672e"/><path d="m2738.83 888.05c17.87 24.375 41.94 45.686 71.54 63.33 22.75 13.557 48.86 25.025 77.59 34.064 48.26 15.186 87.88 18.436 89.54 18.556l5.5-70.186c-1.65-.139-35.35-3.204-75.45-16.003-31.24-9.967-72.36-27.858-101.01-58.176l-1.67 17.256-3.07-22.503c-2.22-2.6-4.35-5.277-6.39-8.032-11.49-15.663-33.47-19.036-49.1-7.506-15.62 11.499-18.97 33.537-7.48 49.2" fill="#f9ddbf"/><path d="m2716.69 980.343c30.92 21.607 65.22 37.817 101.92 48.127 29.18 8.22 59.91 12.72 91.34 13.43 3.33.08 6.62.11 9.81.1 48.42-.14 81.76-9.36 83.24-9.78l-17.32-61.726c-2 .54-33.04 8.521-76.44 7.255-25.77-.756-50.87-4.569-74.59-11.361-3.55-1.019-7.06-2.099-10.55-3.257l-.38 18.524-4.32-20.114c-23.55-8.228-45.71-19.558-66.03-33.76-14.5-10.142-34.47-6.591-44.6 7.919-10.12 14.526-6.59 34.501 7.92 44.643" fill="#f9ddbf"/><path d="m2821.77 846.647c10.88 30.57 34.24 59.73 69.43 86.659 24.99 19.12 47.24 30.214 48.18 30.694l26.62-54.555c-1.05-.511-19.21-9.793-39.17-25.209-10.64-8.212-19.78-16.579-27.28-24.931l-6.86 17.122 3.24-21.32c-8.15-9.793-14.01-19.539-17.36-28.959-5.61-15.804-22.89-24.016-38.57-18.361-15.69 5.655-23.84 23.055-18.23 38.86" fill="#f9ddbf"/><path d="m3246.29 886.772c-17.75 24.456-41.74 45.868-71.26 63.65-22.71 13.688-48.78 25.291-77.51 34.498-48.25 15.45-87.9 18.94-89.57 19.08l-5.95-70.031c1.67-.154 35.4-3.43 75.48-16.438 31.25-10.15 72.3-28.272 100.82-58.707l1.78 17.226 2.92-22.494c2.22-2.595 4.34-5.283 6.35-8.064 11.42-15.696 33.42-19.188 49.13-7.786 15.73 11.386 19.22 33.37 7.81 49.066z" fill="#f9ddbf"/><path d="m3268.48 978.158c-30.72 21.769-64.85 38.172-101.44 48.702-29.07 8.37-59.72 13.07-91.09 13.98-3.33.1-6.59.14-9.79.16-48.32.15-81.67-8.85-83.16-9.25l16.9-61.764c2.02.525 33.05 8.31 76.37 6.769 25.71-.91 50.74-4.872 74.37-11.81 3.54-1.033 7.05-2.143 10.52-3.315l.5 18.501 4.18-20.119c23.47-8.372 45.52-19.811 65.71-34.134 14.41-10.206 34.36-6.784 44.57 7.647 10.21 14.43 6.79 34.411-7.64 44.633" fill="#f9ddbf"/><path d="m3163.28 845.323c-10.72 30.543-33.97 59.742-69.11 86.795-24.94 19.209-47.19 30.419-48.13 30.882l-27.04-54.183c1.03-.54 19.21-9.898 39.14-25.37 10.61-8.245 19.73-16.645 27.19-25.03l7.01 17.017-3.38-21.217c8.1-9.805 13.91-19.563 17.23-28.967 5.52-15.781 22.8-24.073 38.57-18.529 15.76 5.543 24.06 22.822 18.52 38.602" fill="#f9ddbf"/><path d="m2836 1044.18c-.28-88.549 159.61-288.18 159.61-288.18s161.11 198.642 161.39 287.19c.28 88.54-71.36 160.53-160 160.81-88.65.28-160.72-71.29-161-159.82z" fill="#88b9ff"/><path d="m3136.97 762.586c-.62-6.652-8.13-10.31-45.98-10.572-25.71-.185-59.55 1.512-95.45 4.738.5.633 3.29 4.09 7.82 9.862 59.34-5.032 100.93-4.831 117.24-2.531-14.69 4.923-51.79 12.053-105.52 17.686-6.07.633-12.35 1.25-18.83 1.852-7.99.741-15.67 1.374-23.05 1.914-51.65 3.859-87.86 3.504-102.79 1.389 15.63-5.232 56.63-12.979 116.01-18.751 5.12-6.621 8.33-10.665 8.92-11.406-.51.046-1.04.108-1.53.155-36.56 3.349-70.82 7.886-96.47 12.794-37.2 7.084-43.91 12.038-43.3 18.705.61 6.652 8.11 10.31 45.96 10.572 1.76.016 3.58 0 5.41 0 17.21-.046 37.57-.849 59.52-2.33 10.45-.71 21.27-1.575 32.27-2.578 8.59-.771 17.03-1.636 25.3-2.546 26.87-2.948 51.53-6.482 71.17-10.233 35.79-6.837 43.35-11.683 43.33-17.98 0-.231-.02-.493-.03-.74" fill="#f9ddbf"/><path d="m2907 1000.18 15.56-.04.07 28.02 28.68-.09-.08-28.01 15.54-.06.23 70.82-15.55.04-.1-28.42-28.67.09.09 28.42-15.54.05z" fill="#fff0e1"/><path d="m3012.07 1056.84c12.87-.05 21.53-8.68 21.48-21.45-.05-12.56-8.75-21.35-21.62-21.3l-12.16.03.14 42.75zm-28.07-56.75 27.88-.09c22.48-.061 38.06 15.19 38.12 35.35.06 19.95-15.41 35.5-37.89 35.57l-27.89.08z" fill="#fff0e1"/><path d="m3063 1000.05 15.86-.05.17 56.77 35.92-.11.05 14.19-51.78.15z" fill="#fff0e1"/><path d="m2693 1458.85 20.43-32.08c1.45 2.27 36.31 61.12 89.46 47.27 21.09-5.49 27.6-22.53 30.23-50.25 2.87-30.18 6.44-67.73 48.44-98.79l7.44 10.04c-37.53 27.74-36.84 63.77-38.95 92.98-9 123.47-143.12 59.11-157.05 30.83" fill="#ea642f"/><path d="m2843 1329.93s32.72-26.49 71.98-13.2c0 0 1.61 20.02-24.63 52.27 0 0-8.63-38.16-47.35-39.07z" fill="#ea642f"/><path d="m2456.17 1106s6.18 76.95 77.83 100.52l-29.29 57.48s-118.67-31.83-48.54-158z" fill="#ea642f"/><path d="m2747.34 1105s-5.71 77.34-77.34 101.46l29.71 57.54s118.66-32.7 47.63-159z" fill="#ea642f"/><path d="m2442 1381.25c-.26-87.94 158.11-286.25 158.11-286.25s159.61 197.32 159.89 285.26c.26 87.96-70.69 159.48-158.5 159.74-87.82.28-159.22-70.8-159.5-158.75z" fill="#f78248"/><path d="m2517 1338.05 15.55-.05.17 56.76 35.23-.12.05 14.19-50.78.17z" fill="#fff0e1"/><path d="m2607.64 1394.03c12.68-.03 21.19-8.56 21.16-21.14-.05-12.39-8.62-21.04-21.29-21.01l-11.97.04.12 42.16zm-27.64-55.95 27.46-.08c22.14-.08 37.48 14.96 37.54 34.84.06 19.68-15.19 35.01-37.31 35.07l-27.46.09z" fill="#fff0e1"/><path d="m2659 1337.05 15.55-.05.18 56.76 35.22-.11.05 14.2-50.77.15z" fill="#fff0e1"/><path d="m1696 1184.5c0-182.53 147.74-330.5 330-330.5s330 147.97 330 330.5-147.74 330.5-330 330.5-330-147.97-330-330.5" fill="#f9ddbf"/><path d="m1783 1184.5c0-134.47 108.79-243.5 243-243.5 134.2 0 243 109.03 243 243.5s-108.8 243.5-243 243.5c-134.21 0-243-109.03-243-243.5z" fill="#ea642f"/><path d="m1809 1184.5c0-120.13 97.15-217.5 217-217.5 119.84 0 217 97.37 217 217.5s-97.16 217.5-217 217.5c-119.85 0-217-97.37-217-217.5z" fill="#f99746"/><g fill="#ffc688"><path d="m1927 1356.01c0-18.23 14.78-33.01 33.01-33.01 18.21 0 32.99 14.78 32.99 33.01 0 18.21-14.78 32.99-32.99 32.99-18.23 0-33.01-14.78-33.01-32.99z"/><path d="m1982 1373.5c0-15.73 12.77-28.5 28.5-28.5 15.75 0 28.5 12.77 28.5 28.5 0 15.75-12.75 28.5-28.5 28.5-15.73 0-28.5-12.75-28.5-28.5z"/><path d="m2039 1370.5c0-15.73 12.53-28.5 28-28.5 15.46 0 28 12.77 28 28.5 0 15.75-12.54 28.5-28 28.5-15.47 0-28-12.75-28-28.5z"/><path d="m2187 1198c0-15.46 12.53-28 28-28 15.46 0 28 12.54 28 28 0 15.47-12.54 28-28 28-15.47 0-28-12.53-28-28"/><path d="m2183 1249c0-13.81 10.97-25 24.5-25s24.5 11.19 24.5 25-10.97 25-24.5 25-24.5-11.19-24.5-25z"/><path d="m2090 1347.99c0-16.02 12.98-28.99 29-28.99s29 12.97 29 28.99-12.98 29.01-29 29.01-29-12.99-29-29.01z"/><path d="m2142 1329.01c0-10.5 8.73-19.01 19.51-19.01 10.76 0 19.49 8.51 19.49 19.01 0 10.48-8.73 18.99-19.49 18.99-10.78 0-19.51-8.51-19.51-18.99z"/><path d="m2174 1290.51c0-10.78 8.51-19.51 18.99-19.51 10.5 0 19.01 8.73 19.01 19.51 0 10.76-8.51 19.49-19.01 19.49-10.48 0-18.99-8.73-18.99-19.49z"/><path d="m2136 1291.49c0-10.76 8.51-19.49 18.99-19.49 10.5 0 19.01 8.73 19.01 19.49 0 10.78-8.51 19.51-19.01 19.51-10.48 0-18.99-8.73-18.99-19.51z"/><path d="m2060 1324.51c0-10.78 8.51-19.51 18.99-19.51 10.5 0 19.01 8.73 19.01 19.51 0 10.76-8.51 19.49-19.01 19.49-10.48 0-18.99-8.73-18.99-19.49z"/><path d="m2124 1013.99c0 18.23-14.78 33.01-33.01 33.01-18.21 0-32.99-14.78-32.99-33.01 0-18.228 14.78-32.99 32.99-32.99 18.23 0 33.01 14.762 33.01 32.99z"/><path d="m2170 1034c0 13.8-11.19 25-24.99 25-13.82 0-25.01-11.2-25.01-25 0-13.82 11.19-25 25.01-25 13.8 0 24.99 11.18 24.99 25z"/><path d="m2208 1074c0 15.46-12.75 28-28.49 28s-28.51-12.54-28.51-28 12.77-28 28.51-28 28.49 12.54 28.49 28z"/><path d="m2235 1130.49c0 19.07-15.45 34.51-34.5 34.51s-34.5-15.44-34.5-34.51c0-19.05 15.45-34.49 34.5-34.49s34.5 15.44 34.5 34.49z"/><path d="m2169 1112.01c0 9.94-8.06 17.99-18 17.99s-18-8.05-18-17.99 8.06-18.01 18-18.01 18 8.07 18 18.01z"/><path d="m2067 1041.5c0 10.21-8.06 18.5-18 18.5s-18-8.29-18-18.5 8.06-18.5 18-18.5 18 8.29 18 18.5z"/><path d="m1950 1069c0 9.94-8.06 18-18 18s-18-8.06-18-18 8.06-18 18-18 18 8.06 18 18z"/><path d="m2092 1059c0 8.29-6.71 15-14.99 15-8.29 0-15.01-6.71-15.01-15s6.72-15 15.01-15c8.28 0 14.99 6.71 14.99 15z"/><path d="m2068 997c0 15.47-12.54 28-28 28-15.47 0-28-12.53-28-28 0-15.455 12.53-28 28-28 15.46 0 28 12.545 28 28z"/><path d="m2012 1000c0 15.47-12.53 28-28 28-15.46 0-28-12.53-28-28 0-15.455 12.54-28 28-28 15.47 0 28 12.545 28 28z"/><path d="m1864 1172c0 15.47-12.53 28-28 28-15.46 0-28-12.53-28-28 0-15.46 12.54-28 28-28 15.47 0 28 12.54 28 28z"/><path d="m1861 1224c0 13.26-10.75 24-24 24-13.26 0-24-10.74-24-24s10.74-24 24-24c13.25 0 24 10.74 24 24z"/><path d="m1906 1224.5c0 13.52-10.75 24.5-24 24.5-13.26 0-24-10.98-24-24.5 0-13.54 10.74-24.5 24-24.5 13.25 0 24 10.96 24 24.5z"/><path d="m1887 1270.99c0 15.47-12.77 28.01-28.49 28.01-15.74 0-28.51-12.54-28.51-28.01 0-15.45 12.77-27.99 28.51-27.99 15.72 0 28.49 12.54 28.49 27.99z"/><path d="m1897 1315.5c0 10.78-8.73 19.5-19.51 19.5-10.76 0-19.49-8.72-19.49-19.5 0-10.76 8.73-19.5 19.49-19.5 10.78 0 19.51 8.74 19.51 19.5z"/><path d="m1927 1343.5c0 10.76-8.72 19.5-19.5 19.5-10.76 0-19.5-8.74-19.5-19.5 0-10.78 8.74-19.5 19.5-19.5 10.78 0 19.5 8.72 19.5 19.5z"/><path d="m1935 1305.5c0 10.76-8.72 19.5-19.5 19.5-10.76 0-19.5-8.74-19.5-19.5 0-10.78 8.74-19.5 19.5-19.5 10.78 0 19.5 8.72 19.5 19.5z"/><path d="m1868 1121.5c0 13.53-10.97 24.5-24.5 24.5s-24.5-10.97-24.5-24.5 10.97-24.5 24.5-24.5 24.5 10.97 24.5 24.5z"/><path d="m1961 1021.99c0 16.02-12.98 29.01-29 29.01s-29-12.99-29-29.01 12.98-28.99 29-28.99 29 12.97 29 28.99z"/><path d="m1908 1041.51c0 10.76-8.51 19.49-19.01 19.49-10.48 0-18.99-8.73-18.99-19.49 0-10.78 8.51-19.51 18.99-19.51 10.5 0 19.01 8.73 19.01 19.51z"/><path d="m1877 1080.01c0 10.48-8.73 18.99-19.49 18.99-10.78 0-19.51-8.51-19.51-18.99 0-10.5 8.73-19.01 19.51-19.01 10.76 0 19.49 8.51 19.49 19.01z"/><path d="m1915 1078.99c0 10.5-8.51 19.01-18.99 19.01-10.5 0-19.01-8.51-19.01-19.01 0-10.48 8.51-18.99 19.01-18.99 10.48 0 18.99 8.51 18.99 18.99z"/></g><path d="m944 1620.91s4.738-10.73 7.806-15.81 16.178-19.98 18.409-16.61c2.233 3.36 11.158 26.07 6.417 32.42-4.743 6.34.307 17.4-23.278 24.09z" fill="#ffb27d"/><path d="m683 1554s120.106 100.24 166.938 90.96c36.619-7.26 92.824-26.52 92.824-26.52l11.238 28.74s-50.401 68.36-102.953 68.81c-82.139.7-142.825-35.56-142.825-35.56z" fill="#95b3ef"/><path d="m473 2610.04s3.483 56.05 14.351 56.85c1.446.11 55.124.11 55.124.11l68.525-.38s-.449-16.49-20.479-19.97-53.555-17.54-65.689-43.95c-12.764-27.79-51.832 7.34-51.832 7.34z" fill="#1c3d72"/><path d="m469.001 2614.02s20.878 6.98 37.177 6.98c18.182 0 34.709-4.94 34.709-4.94s3.93-37.96 25.561-121.58c11.341-43.83 27.535-100.17 50.576-170.21 63.704-193.54 83.077-306.75 84.845-317.47.094-.57.131-.85.131-.85l-.206-.09-195.854-85.86s24.207 266.74-6.676 369.12c-4.326 14.31-8.031 30.98-11.21 49.06-19.505 111.19-19.053 275.84-19.053 275.84" fill="#2b478b"/><path d="m566.109 2494c11.297-43.79 27.428-100.09 50.379-170.07 63.454-193.37 82.752-306.49 84.512-317.2-.018-.32-.037-.62-.074-.94l-195.088-85.79s24.112 266.52-6.65 368.81c-4.309 14.3 66.921 205.19 66.921 205.19" fill="#233862"/><path d="m626 2610.04s3.483 56.05 14.351 56.85c1.446.11 55.124.11 55.124.11l68.525-.38s-.449-16.49-20.479-19.97-53.555-17.54-65.689-43.95c-12.764-27.79-51.832 7.34-51.832 7.34z" fill="#1c3d72"/><path d="m736.946 1927s2.54 172.6-27.37 384.52c-29.913 211.91-19.773 301.87-19.773 301.87s-20.551 6.65-28.845 7.32c-21.13 1.73-42.796-4.94-42.796-4.94s-42.812-211.99-30.536-318.06c12.274-106.07-58.626-363.97-58.626-363.97z" fill="#2b478b"/><path d="m598 1522.86 38.135 25.14 34.737-9.88c6.35-9.11 8.03-26.66 8.124-41.88.092-15.11-1.364-27.89-1.364-27.89l-51.451-22.85-19.197-8.5c.055.29 1.493 15.85 1.7 18.12 3.584 40.33-10.684 67.74-10.684 67.74" fill="#ffb27d"/><path d="m738.521 2258.05c-47.518 45.86-244.615.35-255.697-50.18-11.065-50.54 28.554-675.45 109.726-699.3 16.843-4.96 106.896 24.14 106.896 24.14s14.13 36.95 23.397 84c1.799 9.17 7.049 106.18 10.978 196.96 1.833 42.45 3.383 83.54 4.175 113.62.723 28.19 1.547 329.74.525 330.76" fill="#afcdfb"/><path d="m612.466 1456.19c10.45 17.48 47.107 32.79 66.53 39.81.092-14.89-1.365-27.48-1.365-27.48l-51.501-22.51c-11.384-.16-18.319 2.37-13.664 10.18" fill="#fca56b"/><path d="m696.635 1465.55s-82.918 25.88-98.231-26.03c-15.312-51.92-36.327-83.54 15.966-102.26 52.292-18.72 68.468-1.96 77.791 14.12 9.324 16.09 25.648 106.09 4.474 114.17z" fill="#ffb27d"/><path d="m689.192 1346.49s-5.296 60.1-17.8 57.49-26.268-8.2-24.437 9.92c1.831 18.11-12.16 49.18-30.192 49.1-38.672-.17-80.689-98.79-70.103-117.49 30.547-53.96 186.683-64.86 142.532.98" fill="#163560"/><path d="m676.91 1510.31c-1.073-.45-61.839-27.5-68.946-25.17-7.106 2.32-15.964 23.86-15.964 23.86l107 24s-8.421-16.99-22.09-22.69z" fill="#95b3ef"/><path d="m1054.79 1803.5-339.988 320.11c-6.663 6.28-15.067 8.27-18.675 4.44l-11.476-12.2c-3.606-3.82-1.106-12.09 5.559-18.37l339.99-320.09c6.66-6.28 15.07-8.27 18.67-4.44l11.48 12.18c3.61 3.84 1.1 12.11-5.56 18.37" fill="#1f4d84"/><path d="m864 1983.12-149.197 140.49c-6.664 6.28-15.068 8.27-18.676 4.44l-11.476-12.2c-3.606-3.82-1.106-12.09 5.559-18.37l149.196-140.48z" fill="#f78248"/><path d="m1052.73 1437.3c58.69-62.39 142.32-87.25 220.84-73.65 45.77 7.92 89.78 28.88 126.12 63.08 98.74 92.88 103.46 248.23 10.58 346.97-34.2 36.34-76.85 59.95-122.02 70.64-77.57 18.37-162.56-1.35-224.95-60.06-98.734-92.88-103.479-248.22-10.57-346.98zm-76.173 245.97c13.057 43.02 37.223 83.3 72.323 116.33 107.2 100.86 275.87 95.7 376.73-11.48 99.51-105.81 95.82-271.41-7.33-372.68-1.36-1.36-2.76-2.7-4.18-4.03-107.18-100.85-275.84-95.73-376.69 11.46-67.838 72.11-87.732 172.02-60.853 260.4z" fill="#1f4d84"/><path d="m1184 1846c-29.83-5.87-58.79-17.33-85.27-34.39-12.37-7.97-24.18-17.16-35.29-27.58-98.957-92.84-103.713-248.12-10.59-346.83 6.9-7.31 14.14-14.11 21.68-20.39 8.28-6.91 16.9-13.17 25.82-18.81-4.16 136.34 26.01 296.3 83.65 448" fill="#cfe1f9"/><path d="m1231.6 1851c-4.47 0-8.94-.12-13.41-.37-11.52-.62-23.02-2.07-34.4-4.32-57.48-151.79-87.57-311.84-83.41-448.26 39.86-25.31 85.55-38.05 131.31-38.05 14.06 0 28.12 1.2 42.03 3.61 37.5 6.5 73.82 21.75 105.72 45.88 7 5.31 13.8 11.04 20.34 17.21 10.99 10.34 20.79 21.44 29.44 33.15 26.91 36.48 42.51 78.81 46.66 122.12 6.49 67.9-15.16 138.16-65.53 191.75-34.18 36.35-76.81 59.95-121.95 70.65-18.64 4.41-37.71 6.63-56.8 6.63" fill="#d5a9a1"/><path d="m1231.46 1851c-4.49 0-8.97-.12-13.45-.37 4.47.25 8.94.37 13.42.37 19.1 0 38.18-2.22 56.84-6.64 45.17-10.71 87.83-34.34 122.04-70.73 50.4-53.64 72.06-123.98 65.57-191.96 6.49 67.98-15.17 138.32-65.57 191.96-34.21 36.39-76.87 60.02-122.04 70.74-18.64 4.42-37.73 6.63-56.81 6.63m-132.96-39.14c-12.34-7.99-24.14-17.19-35.22-27.63-98.755-93-103.493-248.54-10.58-347.43 6.89-7.32 14.12-14.13 21.65-20.42-7.53 6.29-14.75 13.1-21.64 20.42-92.926 98.89-88.18 254.43 10.57 347.43 11.09 10.44 22.88 19.64 35.22 27.63m330.69-352.44c-8.65-11.73-18.47-22.85-29.47-33.2-6.54-6.18-13.34-11.91-20.35-17.22 7.01 5.31 13.81 11.04 20.35 17.21 10.99 10.35 20.82 21.48 29.47 33.21z" fill="#698ebf"/><path d="m738 1927c-187.254-133.22-171.683-311-171.683-311 68.442 38.55 136.354 123.77 167.514 197.69 1.83 42.33 3.378 83.31 4.169 113.31" fill="#95b3ef"/><path d="m922.36 1866.6c13.167-3.01 22.01-12.88 23.848-14.6 0 0 5.616.38-.92 12.26-.547.99-1.762 3.53-2.678 5.35-.374.73.146 1.58.978 1.64 7.6.58 15.236-2.4 29.876.63 2.019.41 2.608 5.21 2.529 7.26-.132 3.46.12 7.34-3.934 12.65-2.357 3.08-8.939 6.4-23.594 12.24-5.585 2.24-21.548.55-36.51-4.54l-11.955-5.49 3.708-22.03 3.003.63c4.768.99 10.676-4.79 15.649-6" fill="#ffb27d"/><path d="m624.076 1533s-168.41 32 49.548 275.39c34.859 38.92 223.192 89.61 223.192 89.61s19.101-16.22 9.471-29.36c0 0-129.671-93.96-158.202-108.9-12.836-6.73-49.815-149.99-70.739-184.51-20.923-34.5-53.27-42.23-53.27-42.23z" fill="#afcdfb"/><path d="m948 1623.63s5.549-10.42 6.632-15.92c1.082-5.5 8.068-21.54 10.947-24.35 1.152-1.13 4.95.34 5.398 5.18.196 2.12-.86 5.97-2.725 10.56-3.034 7.45-2.535 17.56-3.589 20.94-2.626 8.4-16.663 3.59-16.663 3.59z" fill="#ffb27d"/><path d="m1547.43 2666h-542.86c-33.312 0-60.57-27.26-60.57-60.59v-322.82c0-33.33 27.258-60.59 60.57-60.59h542.86c33.32 0 60.57 27.26 60.57 60.59v322.82c0 33.33-27.25 60.59-60.57 60.59z" fill="#fcecdb"/><path d="m1147.77 2364.19c-12.81 34.14-50.85 51.39-84.96 38.58s-51.39-50.83-38.58-84.96c12.81-34.12 50.86-51.39 84.97-38.58s51.38 50.86 38.57 84.96z" fill="#f7e0cb"/><path d="m1110 2279.24-46.81 123.76c-34.41-12.83-51.85-50.92-38.92-85.12 12.92-34.18 51.31-51.47 85.73-38.64z" fill="#efcbab"/><path d="m1137.13 2587.73c-23.06 28.25-64.63 32.45-92.86 9.39-28.24-23.04-32.45-64.61-9.39-92.85 23.04-28.24 64.63-32.44 92.86-9.4 28.23 23.06 32.43 64.64 9.39 92.86z" fill="#f7e0cb"/><path d="m1128 2494.85-83.68 102.15c-28.3-23.02-32.52-64.54-9.41-92.76 23.11-28.21 64.79-32.4 93.09-9.39z" fill="#efcbab"/><path d="m1550.77 2364.19c-12.81 34.14-50.86 51.39-84.96 38.58-34.12-12.81-51.4-50.83-38.58-84.96 12.81-34.12 50.86-51.39 84.97-38.58s51.38 50.86 38.57 84.96z" fill="#f7e0cb"/><path d="m1512 2279.24-46.28 123.76c-34.05-12.83-51.29-50.92-38.49-85.12 12.77-34.18 50.73-51.47 84.77-38.64z" fill="#efcbab"/><path d="m1540.12 2587.74c-22.26 27.27-61.78 32.12-89.9 11.64-1.01-.7-1.98-1.47-2.95-2.25-28.24-23.05-32.44-64.61-9.4-92.86s64.64-32.44 92.87-9.4c.95.8 1.88 1.59 2.8 2.42 25.69 23.45 28.85 63.18 6.58 90.45" fill="#f7e0cb"/><path d="m1533 2497.24-82.92 101.76c-1-.69-1.96-1.46-2.93-2.25-28.11-22.97-32.28-64.4-9.35-92.56 22.93-28.15 64.32-32.34 92.4-9.37.96.8 1.88 1.59 2.8 2.42" fill="#efcbab"/><path d="m1354.62 2312.74c15.62 32.95 1.56 72.28-31.37 87.88-32.93 15.62-72.28 1.57-87.88-31.36-15.61-32.92-1.55-72.29 31.36-87.89 32.93-15.6 72.29-1.56 87.89 31.37" fill="#f7e0cb"/><path d="m1266.63 2282 56.37 118.65c-32.84 15.54-72.08 1.57-87.64-31.2-15.57-32.76-1.56-71.93 31.27-87.45z" fill="#efcbab"/><path d="m1270.48 2607.26c-33.84-13.55-50.28-51.95-36.74-85.78 13.54-33.82 51.93-50.28 85.78-36.74 33.83 13.54 50.28 51.96 36.74 85.78-13.55 33.83-51.95 50.28-85.78 36.74z" fill="#f7e0cb"/><path d="m1356.27 2570-122.27-48.76c13.51-33.62 51.82-49.99 85.61-36.52 33.75 13.45 50.17 51.65 36.66 85.28z" fill="#efcbab"/><path d="m2707.32 2134.9s-13.44 2.31-30.17 0c-16.7-2.31-46.41-.45-34.34 8.84s36.43 16.18 46.89 17.15c10.44.99 23.3-5.28 23.3-5.28z" fill="#ed985f"/><path d="m2872.06 1816.28c11.91-38.33 63.74-45.51 84.59-11.24 3.76 6.17 6.14 13.25 6.34 21.37 1.14 44.92-87.35 218.84-99.1 234.22-21.38 28.01-150.47 95.37-150.47 95.37l-27.42-4.01s15.5-9.75 31.55-25.81c33.18-33.15 81.52-87.06 90.39-94.52 15.19-12.81 41.48-142.63 64.12-215.38" fill="#ed985f"/><path d="m2819 1603.88s27.76-42.27 71.36-22.72c54.34 24.37 40.37 80.21 54.34 92.05 40.03 33.98 57.13 50.79 43.88 92.19-14.36 44.84-68.76 87.05-114.7 112.6 0 0-61.85-55.88-27.16-86.34 18.78-16.49 7.71-66.55 5.78-73.87-1.94-7.32-33.5-113.91-33.5-113.91" fill="#2b478b"/><path d="m2876.04 1803s-11.77 23.18-18.04 43.25c-6.29 20.08-22 83.93-22 83.93s32.4 36.89 77.47 34.73c0 0 24.24-37.85 15.71-72.04-8.55-34.18-53.14-89.87-53.14-89.87" fill="#95b3ef"/><path d="m2482 2004.98-47.21 111.43-92.93 219.34c-1.05-.43-2.08-.84-3.13-1.25-26.91-10.54-56.2-16.31-86.83-16.31-22.75 0-44.73 3.18-65.57 9.13-10.2 2.92-20.11 6.5-29.71 10.68l-13.38-26.16-.02-.03v-.01l-.01-.02-95.11-186.05-55.1-107.78c78.33-37.78 166.16-58.95 258.9-58.95 81.33 0 158.84 16.28 229.5 45.74h.01c.19.07.39.15.59.24" fill="#f9ddbf"/><path d="m2057 2418.8c-.83 1.16-1.65 2.33-2.47 3.52-26.27 38.29-41.67 84.65-41.68 134.57v.11h-358.85c0-117.31 33.86-226.73 92.35-319l104.62 60.89z" fill="#88b9ff"/><path d="m2156 2338.36c-.91.4-1.8.79-2.7 1.2-.17.08-.34.16-.51.23-38.58 17.54-71.65 45.04-95.97 79.21l-206.14-120.23-104.68-61.06c59.71-94.38 145.07-170.9 246.26-219.71l55.15 107.89 95.17 186.23.02.01v.02l.01.03z" fill="#afcdfb"/><path d="m2490.51 2557v-.11c-.03-49.19-14.93-94.92-40.42-132.88-.69-1.02-1.4-2.05-2.09-3.07l205.71-120 104.48-60.94c57.54 91.88 90.81 200.57 90.81 317z" fill="#e8672e"/><path d="m2758 2239.89-104.44 61-205.63 120.11c-26.03-37.56-62.56-67.27-105.31-84.87-.2-.09-.42-.17-.62-.26l92.82-219.41 47.15-111.46c114.46 47.94 210.83 130.62 276.03 234.89" fill="#f99746"/><path d="m2407 2557h-310c0-36.23 12.44-69.57 33.29-95.98 14-17.75 31.81-32.35 52.2-42.6 4.04-2.03 8.18-3.89 12.43-5.57 9.67-3.84 19.81-6.73 30.34-8.55 8.69-1.51 17.61-2.3 26.73-2.3 18.83 0 36.86 3.35 53.56 9.51 1.27.45 2.52.94 3.77 1.43 26.37 10.51 49.17 28.03 66.1 50.29 19.82 26.04 31.58 58.53 31.58 93.77z" fill="#aec3ff"/><path d="m2354 2557h-205c0-26.75 10.15-51.1 26.77-69.42 7.12-7.84 15.41-14.56 24.62-19.87 5.69-3.31 11.74-6.08 18.06-8.24 9.9-3.38 20.48-5.28 31.49-5.45.52-.02 1.03-.02 1.55-.02 11.43 0 22.41 1.87 32.66 5.35 1.4.46 2.79.97 4.16 1.5 15.88 6.13 29.84 16.13 40.78 28.84 15.53 18.07 24.91 41.58 24.91 67.31" fill="#88b9ff"/><path d="m2254.03 2531.84c-5.03-.54-9.99-2.51-14.2-5.96-.65-.54-1.28-1.11-1.88-1.7-.61-.6-1.16-1.22-1.7-1.85-7.47-8.91-8.37-21.82-2.02-31.72.1-.18.23-.33.37-.47l7.45-8.14h-.01l29.27-32.01 33.15-36.24 53.04-58 18.52-20.25.02-.03h.01l.02-.01 101.87-111.4c1.18-1.28 3.14-1.42 4.48-.31l4.4 3.59c1.32 1.1 1.57 3.04.55 4.43l-105.68 146.1-47.18 65.26-30.54 42.21-23.92 33.07-3.37 4.66-.71.99c-.12.18-.26.34-.41.48-5.88 5.62-13.82 8.14-21.53 7.3" fill="#2b478b"/><path d="m2249.86 2494.33c4.99-4.58 12.91-4.41 17.68.38 4.77 4.78 4.58 12.39-.41 16.97s-12.9 4.4-17.67-.39c-4.76-4.79-4.59-12.39.4-16.96z" fill="#f9ddbf"/><path d="m1654 2661h1195v-105h-1195z" fill="#2b478b"/><g fill="#91b5f8"><path d="m1986 2608.49c0-14.02 10.22-25.49 24.87-25.49 8.99 0 14.03 3.52 18.46 8.02l-6.27 7.47c-3.69-3.45-6.82-5.49-12.27-5.49-8.04 0-13.83 6.91-13.83 15.49 0 8.46 5.65 15.5 13.83 15.5 5.45 0 8.79-2.25 12.54-5.78l6.67 7.41c-4.9 5.41-10.35 8.38-19.54 8.38-14.04 0-24.46-11.21-24.46-25.51"/><path d="m2039 2584h10.68v19.38h19.66v-19.38h10.66v49h-10.66v-19.67h-19.66v19.67h-10.68z"/><path d="m2129.74 2608.49c0-8.44-6.15-15.49-14.81-15.49-8.67 0-14.69 6.91-14.69 15.49 0 8.46 6.16 15.5 14.83 15.5 8.66 0 14.67-6.9 14.67-15.5zm-40.74 0c0-14.02 10.96-25.49 26.07-25.49 15.09 0 25.93 11.33 25.93 25.49 0 14.02-10.98 25.51-26.07 25.51-15.11 0-25.93-11.35-25.93-25.51z"/><path d="m2150 2584h10.73v39.21h24.27v9.79h-35z"/><path d="m2193 2584h36.66v9.59h-26.03v9.95h22.91v9.58h-22.91v10.29h26.37v9.59h-37z"/><path d="m2236 2625.37 6.4-7.41c4.44 3.53 9.08 5.77 14.72 5.77 4.44 0 7.1-1.69 7.1-4.62 0-2.66-1.69-4.02-9.93-6.05-9.91-2.46-16.33-5.11-16.33-14.71 0-8.63 7.19-14.35 17.26-14.35 7.18 0 13.3 2.17 18.31 6.05l-5.65 7.9c-4.36-2.92-8.66-4.7-12.8-4.7-4.16 0-6.34 1.84-6.34 4.29 0 3.13 2.12 4.14 10.62 6.27 10.01 2.5 15.64 5.97 15.64 14.42 0 9.46-7.47 14.77-18.1 14.77-7.46 0-14.99-2.52-20.9-7.63z"/><path d="m2293.69 2593.95h-14.69v-9.95h40v9.95h-14.69v39.05h-10.62z"/><path d="m2328 2584h36.64v9.59h-26.03v9.95h22.91v9.58h-22.91v10.29h26.39v9.59h-37z"/><path d="m2395.52 2607.8c5.2 0 8.18-2.79 8.18-7.07 0-4.61-3.19-7-8.4-7h-10.61v14.07zm-21.52-23.8h22.21c6.18 0 10.97 1.76 14.16 4.97 2.71 2.73 4.16 6.59 4.16 11.34 0 7.91-4.24 12.88-10.41 15.19l11.88 17.5h-12.5l-10.55-15.67h-8.26v15.67h-10.69z"/><path d="m2461.96 2608.49c0-8.44-6.04-15.49-14.53-15.49-8.51 0-14.4 6.91-14.4 15.49 0 8.46 6.03 15.5 14.54 15.5 8.49 0 14.39-6.9 14.39-15.5zm-39.96 0c0-14.02 10.75-25.49 25.57-25.49 14.8 0 25.43 11.33 25.43 25.49 0 14.02-10.77 25.51-25.57 25.51-14.81 0-25.43-11.35-25.43-25.51z"/><path d="m2483 2584h10.73v39.21h24.27v9.79h-35z"/></g><path d="m2834.29 1596.77c-.71-2.89 62.77 28.69 66 32.26 29.77 33.03 21.28 76.13 4.23 76.54-10.91.27-8.79 18.43-8.79 18.43l-121.73-51.49s14.66-85.46 60.29-75.74" fill="#2b478b"/><path d="m2968 2627 26.25-3.88s88.28-70.3 101.42-201.47c1.34-13.36 11.44-60.3 20.96-75.76 9.38-15.24 25.43-44.03 43.1-76.37 31.83-58.21 68.89-127.82 81.6-149.99 40.49-70.68 20.97-118.19 20.97-118.19s-112.98-11.19-143.93-38.34l-11.16 17.22s-24.48 108.61-23.31 109.12c-1.21 3.69-2.43 7.46-3.68 11.27-19.32 59.76-41.53 134.45-53.66 195.29-6.79 34.23-8.61 102.05-10.46 115.26-10.94 77.95-48.1 215.84-48.1 215.84" fill="#2b478b"/><path d="m2913 2660h109.4s2.63-16.7-3.1-29.38c-5.48-12.17-13.28-12.56-1-31.62-6.94 7.17-29.3 10.13-45.1 8-1.94 3.15-12.5 24.28-18.97 28.94-7.14 5.15-39.03 3.32-41.23 24.06" fill="#223e6b"/><path d="m3159.73 2269c31.83-58.13 68.89-127.64 81.6-149.78 40.49-70.58 20.97-118.03 20.97-118.03s-54.76-18.08-85.73-45.19c0 0-25.3 220.64-16.84 313" fill="#233862"/><path d="m3157.37 2009.35-.37-20.52c40.77 5.15 140.58-48.83 140.58-48.83s42.65 28.44 48.48 109.63c2.87 39.63 20.89 207.23 22.89 257.28.72 18.14 18.53 62.65 24.87 74.47 62.21 115.99 29.68 273.62 29.68 273.62l-14.46-3.69s-52.6-163.4-86.97-234.07c-5.85-11.99-42.14-69.18-55.58-101.34-25.39-60.79-50.05-141.02-67.64-203.13-1.23.21-41.48-103.42-41.48-103.42z" fill="#2b478b"/><path d="m2917.85 1872.82c66.65-15.37 24.07-109.48 20.21-107.83-9.24-1.88-29.52-18.17-47.67-49.99l-2.45 2.13-40.94 36.07s9.47 14.02 17.42 27.75c6.22 10.77 11.52 21.36 10.67 24.99-3.29 2.62 24.97 70.98 42.76 66.88" fill="#ffb27d"/><path d="m2847 1753.6s9.53 13.83 17.55 27.4c25.64-15.56 25.66-46.82 23.69-63z" fill="#ed985f"/><path d="m2845.57 1771.28s61.65-34.46 39.71-72.69c-21.96-38.22-28.79-68.41-69.08-48.03-40.29 20.39-39.49 39.35-35.25 53.91 4.23 14.54 48.02 74.78 64.62 66.81" fill="#ffb27d"/><path d="m2770.41 1682.37c2.84-16.98 11.46-18.6 17.48-17.46 22.89-37.85 60.28-23.07 60.28-23.07 19.97 25.04 48.83 29.32 48.83 29.32s-7.19 13.37-36.81 21.66c-9.06 2.53-19.32 1-29.23-2.33 20.56 11.44 42.06 15.84 42.06 15.84-39.05 3.56-76.19-32.12-80.05-35.93-1.81 5.52-4.97 17.11-3.07 25.56 2.58 11.51 12.78 32.34 6.54 35.04 0 0-30.28-23.16-26.03-48.63" fill="#2b478b"/><path d="m3337 2660h109.4s2.62-16.76-3.09-29.48c-5.48-12.2-14.05-17.74-12.01-32.52-6.94 7.21-18.28 15.26-34.08 13.12-1.94 3.16-12.51 20.07-18.99 24.74-7.14 5.17-39.03 3.33-41.23 24.14" fill="#223e6b"/><path d="m2910.06 1947.41c14.1 4.92 33.88 7.62 54.11 9.82 28.83 3.14 58.58 5.28 74.16 11.51 3.04 1.2 11.9 4.92 20.78 11.34v.02s.23.14.62.46c2.94 2.14 5.88 4.62 8.58 7.41 4.13 4.25 7.74 9.22 10.07 14.92 5.7 14.11-1.87 53.24-6.71 74.63-1.96 8.61 2.11 17.5 9.94 21.57 10.96 5.66 21.74 10.9 32.31 15.67.56.27 1.11.5 1.67.76-.11-2.19-.14-4.35-.14-6.46-.02-14.76 1.85-27.03 1.85-27.03 2.6 14.89 12.42 30.98 21.58 43.37 147.05 58.99 249.78 33.34 248.1 3.96-5.8-102.03-74.62-188.82-74.62-188.82-128.35-149.21-388-188.51-388-188.51s-12.44-1.49-27.44 16.54c-21.58 25.96-22.65 32.73-22.65 32.73s-5.71 131.64 35.79 146.11" fill="#afcdfb"/><path d="m2964 1957.48c28.9 3.15 58.75 5.3 74.38 11.52 6.39-95.3-38.66-167-38.66-167s-29.4 119.4-35.72 155.48" fill="#95b3ef"/><path d="m2933.77 1783s72.14 7.14 77.91 54.19c5.79 47.03-69.15 238.62-79.88 255.96-19.54 31.58-134.6 139.85-134.6 139.85l-21.2-12.9s81.6-138.65 94.24-151.61c19.84-20.39 39.1-269.2 63.53-285.49" fill="#ffb27d"/><path d="m2896.81 1873.33s-7.43-121.03 85.38-91.76c92.79 29.26-14.41 237.43-14.41 237.43s-54.47-2.68-73.78-50.13z" fill="#afcdfb"/><path d="m3071.42 2077.69c-1.99 8.63 2.14 17.54 10.1 21.61 11.15 5.67 22.1 10.92 32.85 15.7.56-1.81 1.08-3.69 1.55-5.71 1.69-7.46 2.48-16.38 1.88-27.07-2.47-45.24-33.77-79.51-49.8-94.22 4.2 4.26 7.87 9.23 10.23 14.94 5.8 14.14-1.89 53.33-6.81 74.75" fill="#95b3ef"/><path d="m2924 1751.81s-11.28-14.26-18.91-13.8c0 0-30.84 43.19-31.09 62.99 0 0 38.46-51.19 50-49.19" fill="#95b3ef"/><path d="m2775.71 2219.45s-10.23 22.28-15.85 29.82c-5.63 7.56 3.19 34.18 4.31 38.1 1.12 3.91 5.68-6.82 4.8-14.34-.89-7.52-.29-11.23 1.53-10.95 1.83.3 11.56 14.88 12.45 26.69.89 11.83 3.2 21.05 6.69 17.44 3.51-3.59 21.81-27.97 14.93-45.61-6.88-17.65-14.09-19.41 1.53-36.6 17.67-19.44-30.39-4.55-30.39-4.55" fill="#ffb27d"/><path d="m2692.5 2147s-8.6 3.31-19.5 2.84c-10.9-.48-17.06 4.82-9.95 5.96 7.11 1.13 27.48 7.94 38.61 3.97 11.14-3.97-9.16-12.77-9.16-12.77" fill="#ed985f"/><path d="m1289 2612.99c0 12.66 5.17 24.15 13.51 32.49 8.33 8.36 19.82 13.52 32.46 13.52h217.08c25.27 0 45.95-20.7 45.95-46.01 0-12.64-5.17-24.13-13.49-32.49-8.35-8.32-19.82-13.5-32.46-13.5h-217.08c-25.27 0-45.97 20.7-45.97 45.99z" fill="#9db0f4"/><path d="m1401 2612.99c0 12.66 5.17 24.15 13.5 32.49 8.33 8.36 19.82 13.52 32.46 13.52h105.09c25.27 0 45.95-20.7 45.95-46.01 0-12.64-5.17-24.13-13.49-32.49-8.34-8.32-19.82-13.5-32.46-13.5h-105.09c-25.28 0-45.96 20.7-45.96 45.99z" fill="#aec3ff"/><path d="m1324.84 2591.56h93.53v-14.51h-93.53z" fill="#c4d0f8"/><path d="m1538.47 2592h-132.47c2.96-5.8 7.06-10.9 11.97-15h120.5c3.58 0 6.53 3.03 6.53 6.74v1.52c0 3.71-2.95 6.74-6.53 6.74" fill="#cedbff"/><path d="m1507.47 2490.24c-5.63 12.17-5.75 25.52-1.43 37.26 4.32 11.73 13.09 21.82 25.28 27.44l209.37 96.59c24.38 11.24 53.56.54 64.82-23.79 5.64-12.15 5.78-25.52 1.47-37.24-4.34-11.72-13.1-21.81-25.3-27.43l-209.36-96.59c-24.39-11.26-53.56-.55-64.85 23.76z" fill="#ed7d2b"/><path d="m1615.49 2540.22c-5.64 12.13-5.78 25.47-1.47 37.19 4.32 11.72 13.1 21.8 25.28 27.41l101.38 46.71c24.39 11.23 53.57.54 64.83-23.76 5.64-12.14 5.78-25.49 1.47-37.19-4.34-11.71-13.1-21.78-25.3-27.4l-101.38-46.71c-24.37-11.23-53.55-.56-64.81 23.75z" fill="#f99746"/><path d="m1630.07 2522-72.06-33.39c-3.45-1.59-4.97-5.73-3.37-9.18l.64-1.42c1.17-2.51 3.68-4.01 6.3-4.01.95 0 1.94.2 2.88.63l83.54 38.72c-6.48 1.63-12.59 4.56-17.93 8.65z" fill="#f6be95"/><path d="m1760.4 2582c-.97 0-1.94-.2-2.89-.64l-127.51-59.6c5.36-4.14 11.49-7.11 17.99-8.76l116 54.22c3.45 1.62 4.97 5.79 3.38 9.28l-.65 1.44c-1.17 2.56-3.69 4.06-6.32 4.06" fill="#fccba3"/></g></svg>