<svg viewBox="0 0 109 113.89" xmlns="http://www.w3.org/2000/svg" xmlns:xlink="http://www.w3.org/1999/xlink"><clipPath id="a" transform="translate(0 -.06)"><path d="m21.6 0h50.67v71.14h-50.67z"/></clipPath><clipPath id="b" transform="translate(0 -.06)"><path d="m70.94 43.14h38.06v33.33h-38.06z"/></clipPath><clipPath id="c" transform="translate(0 -.06)"><path d="m37.6 43.14h49.33v70.86h-49.33z"/></clipPath><path d="m16.65 37.61h21.2c0 20.26-8.86 32.44-15.76 33h-1.31-4.13a16.65 16.65 0 0 1 -11.77-4.8 16.38 16.38 0 0 1 -4.88-11.68 16.58 16.58 0 0 1 16.65-16.52" fill="#a5d2d5" transform="translate(0 -.06)"/><g clip-path="url(#a)"><path d="m71.15 16.58v9.47a27.77 27.77 0 0 1 -8.24 19.73l-13 12.9a41.36 41.36 0 0 1 -27.82 11.95c6.9-.58 15.76-12.76 15.76-33v-21a16.65 16.65 0 0 1 33.3 0" fill="#516eb4" transform="translate(0 -.06)"/></g><g clip-path="url(#b)"><path d="m92.35 76.4h-21.2c0-20.25 8.86-32.43 15.76-33h1.3 4.14a16.69 16.69 0 0 1 11.78 4.84 16.5 16.5 0 0 1 -11.78 28.16" fill="#a5d1d4" transform="translate(0 -.06)"/></g><g clip-path="url(#c)"><path d="m37.85 97.43v-9.43a27.8 27.8 0 0 1 8.23-19.73l13-12.9a41.35 41.35 0 0 1 27.83-11.98c-6.91.61-15.76 12.76-15.76 33.01v21a16.65 16.65 0 0 1 -33.3 0" fill="#516eb4" transform="translate(0 -.06)"/></g></svg>