<svg fill="none" height="199" viewBox="0 0 358 199" width="358" xmlns="http://www.w3.org/2000/svg"><path d="m19.8349 197.666s-50.68-117.7273 58.3255-139.614c68.0156-13.6555 66.2376-61.1346 162.4806-57.893823 98.556 3.319913 59.744 94.814723 72.531 115.742823 12.787 20.929 45.604 29.326 33.704 81.765z" fill="#ebf3fa"/><path d="m251.94 25.6408c-3.497-7.7477-16.987-3.1171-16.987-3.1171s-7.208 15.5795-9.897 16.3288 3.516-14.5001 3.516-14.5001c-5.393.2993-17.931 8.7517-17.931 8.7517s3.448 16.3771.652 16.4562-2.299-14.6546-2.299-14.6546c-4.908 2.2949-8.779 8.9174-8.779 8.9174-4.494 10.5099 9.472 15.6376 9.472 15.6376s1.07 5.7001-1.498 12.8147c-2.569 7.1147-.63 1.3367-1.125 3.5227l1.401-.2114c.057-.387.126-.7641.213-1.1277v-.016c.063-.2276.154-.5515.267-.9459.113-.3945 0 0 0 0 .299-.8891.493-1.5419.606-2.0081.881-2.7808 2.199-6.4296 3.32-7.3248-.159-.1772-.293-.3743-.399-.5861l.399.5861c3.193 4.6899 15.325 3.7094 21.798 1.3601 6.472-2.3493 3.271-3.7712-.803-6.233-4.075-2.4618-11.489-.5267-13.902-1.3688-2.414-.842.658-2.5137 5.168-2.8513 4.51-.3375 7.424 3.7094 14.73 3.2866 7.305-.4229 10.703-14.5557 10.703-14.5557-4.734 2.2701-14.071.9248-14.677-.7073-.607-1.6321 12.618-3.4621 14.596-4.2806 1.978-.8186 4.954-5.4257 1.456-13.1734z" fill="#dfebfd"/><path d="m291.069 159.728c12.545-7.363 1.863-28.71 1.863-28.71s-28.137-8.728-29.974-13.02c-1.837-4.291 25.544 2.844 25.544 2.844-1.616-8.852-18.646-27.845-18.646-27.845s-27.328 9.045-28.034 4.4414c-.706-4.6034 24.613-6.8006 24.613-6.8006-4.93-7.6377-17.058-12.6874-17.058-12.6874-18.909-5.2772-24.829 18.8537-24.829 18.8537s-9.538 2.9329-22.242.1422-2.414-.7555-6.259-1.1388l.649 2.2738c.675.0149 1.333.0532 1.973.1237.002-.0009.004-.0013.006-.0013s.004.0004.006.0013h.027c.403.0569.976.1397 1.675.2473 1.582.3128 2.738.4946 3.561.5935h.008c4.94.8816 11.457 2.3172 13.212 3.9902.272-.299.582-.561.922-.78l-.922.78c-7.374 6.234-3.224 26.089 2.139 36.301s7.125 4.632 10.506-2.596c3.381-7.229-1.448-19.098-.503-23.258.945-4.161 4.438.575 5.939 7.959s-4.822 13.029-2.615 25.017c2.207 11.989 27.1 14.714 27.1 14.714-4.85-7.359-4.458-23.064-1.788-24.401 2.671-1.338 8.509 20.147 10.311 23.245 1.802 3.099 10.269 7.074 22.816-.289z" fill="#dfebfd"/><path d="m105.054 73.2852c7.027-9.961 24.709.0977 24.709.0977s5.872 23.781 9.446 25.5466c3.573 1.7655-.982-21.2956-.982-21.2956 7.495 1.8423 22.799 17.0199 22.799 17.0199s-9.312 22.0962-5.411 22.9422c3.901.847 7.229-19.9771 7.229-19.9771 6.262 4.5171 9.898 14.8371 9.898 14.8371 3.443 15.951-17.575 19.467-17.575 19.467s-3.059 7.726-1.393 18.397c1.666 10.67.503 2.041.618 5.245l-1.912-.668c.025-.559.031-1.105.009-1.64.001-.003.001-.006 0-.009.001-.008.001-.015 0-.023-.025-.336-.064-.815-.117-1.399-.053-.585 0 0 0 0-.177-1.328-.272-2.295-.304-2.982v-.007c-.474-4.137-1.332-9.612-2.664-11.163.271-.207.513-.449.721-.718l-.721.718c-5.765 5.746-22.539 1.179-30.988-3.844-8.448-5.022-3.562-6.159 2.829-8.544s16.283 2.289 19.902 1.743c3.619-.545-.239-3.709-6.481-5.368-6.241-1.66-11.44 3.244-21.589.733-10.148-2.511-11.06-23.2654-11.06-23.2654 6.03 4.4354 19.511 5.0074 20.81 2.8744 1.298-2.1325-16.78-8.1912-19.334-9.8604-2.555-1.6693-5.4701-8.8964 1.561-18.8574z" fill="#cde0fb"/><path d="m233.003 88.1454c-.024-.0544-.052-.1125-.086-.1731-.111-.4253-1.081-2.6781-1.189-2.9254-.305-.7023-.804-.3289-.804.1953 0 .162.07 1.3193.03 1.4838-.824-.596-1.333-1.2167-3.458-1.8065 0 0-1.622-.5243-.842 1.0807.521 1.0732 1.143 1.208 1.902 2.7091.758 1.501 2.161 2.5335 3.417 2.4395l1.348.4476 1.363-1.9783-.881-.5317c-.359-.2249-.639-.5536-.8-.941z" fill="#ffb27d"/><path d="m151.102 42.8101h79.822v112.8699h-79.822z" fill="#fff"/><path d="m171.573 52.9741h36.383v1.856h-36.383z" fill="#f99746"/><path d="m166.87 57.2817h18.192v1.856h-18.192z" fill="#f99746"/><path d="m187.256 57.2817h26.701v1.856h-26.701z" fill="#f99746"/><g fill="#aec3ff"><path d="m168.827 99.0952h39.253v1.4128h-39.253z"/><path d="m189.526 95.3242h27.795v1.4133h-27.795z"/><path d="m159.586 95.3242h27.077v1.4133h-27.077z"/><path d="m190.688 91.5527h23.912v1.4133h-23.912z"/><path d="m162.308 91.5527h23.912v1.4133h-23.912z"/></g><path d="m194.86 113.035h-11.542c-.252-.001-.494-.1-.673-.275-.178-.175-.279-.413-.28-.661.001-.248.102-.486.28-.661.179-.175.42-.274.673-.275h11.542c.253.001.495.1.673.275s.278.413.279.661c-.001.248-.101.485-.28.661-.178.175-.419.274-.672.275z" fill="#a8c3f7"/><path d="m210.962 113.035h-11.543c-.252-.001-.494-.1-.672-.275-.179-.175-.279-.413-.28-.661 0-.248.101-.486.28-.661.178-.175.42-.274.672-.275h11.543c.252.001.494.1.673.275.178.175.279.413.279.661-.001.248-.101.486-.28.661-.178.175-.42.274-.672.275z" fill="#a8c3f7"/><path d="m196.864 137.884c-2.057 0-4.068-.599-5.778-1.722s-3.043-2.719-3.831-4.586c-.787-1.867-.993-3.921-.592-5.904.402-1.982 1.392-3.803 2.846-5.232 1.455-1.429 3.308-2.402 5.325-2.796 2.017-.395 4.108-.192 6.008.581 1.901.774 3.525 2.084 4.667 3.764 1.143 1.681 1.752 3.657 1.752 5.678-.003 2.708-1.1 5.305-3.049 7.221-1.949 1.915-4.592 2.992-7.348 2.996zm0-19.92c-1.953 0-3.862.569-5.486 1.635s-2.889 2.582-3.637 4.355c-.747 1.773-.943 3.723-.562 5.606.381 1.882 1.322 3.61 2.703 4.967s3.14 2.281 5.055 2.656c1.916.374 3.901.182 5.705-.552 1.805-.735 3.347-1.978 4.432-3.574 1.085-1.595 1.664-3.471 1.664-5.39-.003-2.573-1.045-5.039-2.896-6.858s-4.36-2.842-6.978-2.845z" fill="#a8c3f7"/><path d="m196.864 135.899c-1.658 0-3.278-.483-4.656-1.387-1.378-.905-2.452-2.191-3.087-3.695-.634-1.505-.8-3.16-.477-4.758.323-1.597 1.122-3.064 2.293-4.216 1.172-1.151 2.666-1.936 4.291-2.253 1.626-.318 3.31-.155 4.842.469 1.531.623 2.839 1.678 3.76 3.033.921 1.354 1.412 2.946 1.412 4.575-.003 2.182-.887 4.274-2.457 5.818-1.571 1.543-3.7 2.411-5.921 2.414zm0-15.951c-1.554 0-3.072.453-4.364 1.301s-2.298 2.054-2.893 3.464c-.594 1.41-.75 2.962-.447 4.459s1.051 2.873 2.15 3.952c1.098 1.079 2.498 1.814 4.021 2.112 1.524.298 3.103.145 4.538-.439 1.436-.584 2.662-1.573 3.525-2.843.863-1.269 1.324-2.761 1.324-4.287-.002-2.047-.831-4.009-2.303-5.455-1.472-1.447-3.469-2.261-5.551-2.264z" fill="#a8c3f7"/><path d="m196.974 130.896c-1.088.346-2.15.527-2.986.459-1.272-.104-1.989-.759-2.013-1.845-.023-.866.341-1.616 1.055-2.226-.008-.058-.013-.123-.018-.176-.047-.608.086-1.011.393-1.199.503-.305 1.235.112 1.265.124l-.164.278c-.165-.095-.657-.303-.929-.135-.234.145-.262.542-.242.866.689-.46 1.456-.795 2.265-.989.699-.181 1.413-.301 2.133-.358 0-.075.01-.143.018-.199.022-.148.075-.322.224-.358.053-.008.107.001.155.025.047.025.085.063.109.111.068.119.103.253.101.389.236 0 .456 0 .651.014v-.012c-.04-.372-.023-.747.051-1.113.083-.371.219-.559.409-.578.055-.005.109.008.156.036s.083.071.103.121c.107.248-.093.934-.378 1.588.271.046.455.124.513.223.026.049.035.107.023.161-.012.055-.044.105-.089.139-.219.199-.394.148-.478.101-.076-.047-.137-.115-.175-.196-.219.424-.457.787-.644.942-.049.047-.112.078-.18.087-.068.01-.137-.001-.198-.033-.03-.017-.058-.039-.081-.065-.073.174-.157.343-.252.507-.342.59-.727.893-1.114.874-.157-.007-.306-.071-.417-.181-.202.432-.456.839-.755 1.212-.272.329-.62.45-.977.34-.629-.195-1.208-1.097-1.423-2.164-.258.234-.462.52-.598.838-.135.318-.2.661-.19 1.006.025.926.603 1.442 1.719 1.533 2.816.231 7.753-2.342 8.128-4.235-.31 1.531-2.648 3.284-5.17 4.088zm-3.602-3.486c.172 1.127.746 1.955 1.233 2.102.228.07.439-.009.629-.236.323-.402.588-.847.787-1.321-.062-.135-.107-.275-.136-.42-.087-.407-.087-.828 0-1.236-.531.126-1.047.302-1.542.528-.345.158-.671.353-.971.583zm3.006.527c.029.053.07.098.12.131.05.034.108.055.168.062.252.01.545-.247.814-.713.137-.236.25-.485.337-.742-.053-.215-.083-.434-.091-.654-.363.029-.755.076-1.164.149.212.4.089 1.085-.184 1.767zm1.78-1.263c.052.15.097.18.097.18.184-.153.392-.495.582-.865-.155 0-.33-.008-.52 0-.032.23-.085.458-.159.68zm-1.917-.413c-.083.17-.144.715-.043 1.201.165-.533.199-.992.043-1.201zm3.17-1.853c-.036.11-.062.222-.079.335.034-.109.06-.221.079-.335z" fill="#a8c3f7"/><g fill="#aec3ff"><path d="m166.538 81.9272h43.83v1.4133h-43.83z"/><path d="m189.651 78.1558h31.036v1.4132h-31.036z"/><path d="m156.22 78.1558h30.234v1.4132h-30.234z"/><path d="m190.948 74.3848h26.701v1.4132h-26.701z"/><path d="m159.259 74.3848h26.7v1.4132h-26.7z"/></g><path d="m265.604 84.6174s6.711 25.2606-13.691 21.0616c-5.509-1.133-20.185-15.5037-20.185-15.5037s1.413-2.1898 3.146-1.9573c0 0 14.178 4.5304 16.446 6.17 1.258.9088 2.689-13.4033 7.033-13.1993 4.343.204 7.251 3.4287 7.251 3.4287z" fill="#91cecf"/><path d="m274.799 191.434s-.378 5.935-1.545 6.026c-.155.011-5.932.011-5.932.011l-7.376-.042s.049-1.746 2.204-2.115c2.156-.37 5.765-1.855 7.071-4.658 1.373-2.945 5.578.778 5.578.778z" fill="#163560"/><path d="m275.224 191.845s-2.242.742-3.993.742c-1.26-.016-2.512-.191-3.727-.523 0 0-.421-4.011-2.744-12.849-1.218-4.632-2.957-10.588-5.431-17.989-6.841-20.454-8.921-32.419-9.111-33.553-.01-.059-.014-.089-.014-.089l.021-.01 21.032-9.074s-2.599 28.191.717 39.011c.504 1.704.906 3.434 1.204 5.184 2.094 11.75 2.046 29.15 2.046 29.15z" fill="#2b478b"/><path d="m273.181 162.691-8.418 16.52c-1.219-4.632-2.958-10.588-5.431-17.989-6.842-20.454-8.922-32.419-9.112-33.553 0-.033 0-.066.008-.099l21.031-9.074s-2.598 28.191.717 39.011c.504 1.704.906 3.434 1.205 5.184z" fill="#233862"/><path d="m258.372 191.434s-.378 5.935-1.544 6.026c-.156.011-5.933.011-5.933.011l-7.375-.042s.047-1.746 2.203-2.115c2.155-.37 5.764-1.855 7.07-4.658 1.374-2.945 5.579.778 5.579.778z" fill="#163560"/><path d="m246.448 119.161s-.273 18.267 2.943 40.697c3.216 22.429 2.126 31.95 2.126 31.95s2.21.704 3.102.775c2.273.182 4.602-.524 4.602-.524s4.604-22.437 3.284-33.664 6.304-38.523 6.304-38.523z" fill="#2b478b"/><path d="m261.766 75.6902-3.685 3.1826-6.029-.2609c.014-.4772.126-2.4618.227-4.2596.006-.1063.012-.2127.019-.3165.088-1.5308.166-2.8439.166-2.8439l5.144-3.1394 1.917-1.1697c0 .0309.08 1.673.092 1.9128.218 4.2522 2.149 6.8946 2.149 6.8946z" fill="#ffb27d"/><path d="m245.222 119.951c.084 9.645.739 32.199 1.219 32.658 5.112 4.847 27.591-1.33 28.784-6.67s-4.53-68.4791-13.26-71.0002c-1.81-.5231-11.496 2.5533-11.496 2.5533-1.067 2.8924-1.909 5.8607-2.516 8.879-.369 1.8436-1.575 14.9939-2.278 23.7819-.186 2.342-.338 4.374-.428 5.799-.034.589-.041 2.024-.025 3.999z" fill="#abddda"/><path d="m259.213 68.9257c-.916 2.1724-5.159 4.5291-6.937 5.4268.006-.1063.013-.2127.019-.3165.088-1.5308.166-2.8439.166-2.8439l5.144-3.1394c1.211-.1854 1.986-.021 1.608.873z" fill="#fca56b"/><path d="m250.559 71.4047s9.311.8507 9.758-4.8531 1.954-9.4367-3.97-10.2206c-5.924-.784-7.252 1.3044-7.873 3.1727-.622 1.8683-.325 11.5338 2.085 11.901z" fill="#ffb27d"/><path d="m248.704 58.9103s1.91 6.1292 3.166 5.5826c1.256-.5465 2.403-.9966 2.62.9274.216 1.9239-1.133 4.4772 2.986 3.9641 4.118-.5131 7.723-11.9937 6.189-13.7087-4.425-4.9261-21.083-2.6325-14.961 3.2346z" fill="#163560"/><path d="m252.844 75.0769c.115-.047 6.644-2.9255 7.407-2.6769.764.2485 1.715 2.5384 1.715 2.5384l-11.495 2.5534s.904-1.8078 2.373-2.4149z" fill="#91cecf"/><path d="m245.222 126.858c17.491-12.429 18.852-32.13 18.852-32.13-8.322 4.6133-16.232 12.241-18.79 20.622-.185 2.349.055 6.084-.034 7.509-.037.595-.044 2.024-.028 3.999z" fill="#91cecf"/><path d="m234.239 120.498s-.22-.171-.709-.21c-.423-.139-1.602-.65-1.803-.829-.641-.572-.865.035-.418.641.097.131.443.355.564.48-.958.356-2.236 1.089-3.901 2.521 0 0-1.329 1.052.465 1.282 1.201.154 1.654-.285 3.349-.096s3.339-.406 3.941-1.492l1.116-.866-.951-2.201z" fill="#ffb27d"/><path d="m256.645 77.9517s18.423-.8655 1.762 29.5883c-2.664 4.872-21.704 15.456-21.704 15.456s-1.789-1.904-1.113-3.495c0 0 12.398-13.865 14.06-14.429 1.474-.494 1.169-17.3819 2.488-21.4523 1.318-4.0705 4.507-5.668 4.507-5.668z" fill="#abddda"/><path d="m234.847 197.147h-13.356-7.064c-1.321-.004-2.587-.522-3.52-1.44-.934-.919-1.46-2.163-1.463-3.461l.015-48.493c.004-1.298.531-2.542 1.465-3.459.934-.918 2.2-1.435 3.521-1.438h6.264 14.155c1.321.005 2.587.523 3.521 1.441.933.918 1.459 2.163 1.463 3.461l-.015 48.493c-.005 1.297-.532 2.541-1.466 3.458s-2.199 1.434-3.52 1.438z" fill="#c0d8fb" opacity=".5"/><path d="m237.68 183.402-.355-2.553-.355-2.553c-.089-.627-.427-1.195-.94-1.578-.514-.383-1.16-.552-1.799-.468-.075.01-.146.025-.217.041.236-.336.381-.726.419-1.132.236.554.675 1 1.23 1.25s1.186.286 1.766.1c.581-.186 1.069-.579 1.368-1.102.3-.523.387-1.138.247-1.722l-.611-2.505-.61-2.506c-.074-.305-.209-.594-.397-.848-.187-.254-.424-.469-.696-.634-.273-.164-.575-.274-.891-.323-.316-.05-.638-.038-.949.036-.311.073-.604.205-.863.39-.258.184-.478.417-.645.684-.167.268-.279.565-.329.875-.05.311-.038.627.036.933l.92 3.775c-.216-.306-.503-.557-.836-.734-.334-.176-.705-.273-1.084-.281.262-.832.352-1.706.265-2.572-.086-.866-.347-1.706-.768-2.472l-4.042-3.283c-.477-.39-1.088-.586-1.707-.547-.62.038-1.201.307-1.625.753-.423.445-.658 1.033-.655 1.643.002.609.242 1.195.67 1.637-.219-.002-.437.025-.648.081l-2.529.68-2.529.681c-.419.113-.799.335-1.101.641-.303.306-.517.686-.62 1.101l-.265-.625-1.007-2.377c-.123-.29-.303-.553-.53-.775-.226-.221-.495-.397-.791-.516s-.612-.18-.932-.18c-.32.001-.636.064-.931.185s-.563.298-.788.521-.404.487-.525.777c-.122.291-.184.602-.183.916s.065.625.188.915l1.007 2.378.648 1.523c-.435.169-.81.457-1.083.829-.273.373-.431.815-.455 1.273l-.126 2.573-.125 2.573c-.021.383.052.765.213 1.114s.406.654.713.891c.307.236.667.396 1.05.466.384.071.779.049 1.152-.062-.254.5-.322 1.072-.193 1.616-.465.26-.828.665-1.032 1.151l-1.006 2.38-1.007 2.382c-.218.519-.244 1.096-.072 1.632.172.535.53.994 1.012 1.296.482.301 1.056.427 1.622.355.567-.073 1.089-.339 1.476-.752.162.38.422.711.755.962.513.384 1.16.552 1.799.469.639-.084 1.219-.412 1.612-.914l1.593-2.047 1.595-2.046c.209-.269.357-.58.434-.91.573.058 1.148-.087 1.622-.408l.416-.282-.577.742-1.593 2.045c-.382.504-.546 1.136-.457 1.758s.423 1.185.931 1.567c.508.381 1.148.552 1.782.474.634-.079 1.212-.399 1.608-.892l1.593-2.045 1.594-2.047c.02-.025.038-.054.057-.08.127.201.285.383.467.539l-.568.728c-.392.504-.565 1.14-.48 1.769s.421 1.199.934 1.584c.512.386 1.16.555 1.8.472.64-.084 1.219-.414 1.612-.918l3.187-4.091c.23-.293.388-.634.46-.997.073-.363.058-.738-.043-1.094-.1-.357-.284-.685-.536-.96s-.566-.488-.917-.623l.09-.007c.639-.088 1.216-.421 1.606-.926s.56-1.141.474-1.769zm-21.931-2.282.045-.878c.215.365.529.665.906.866l-1.115.755c.095-.237.15-.488.164-.743zm16.399-2.177.477 3.432c-.227-.452-.593-.823-1.047-1.059-.453-.236-.971-.326-1.48-.256.256-.153.48-.35.662-.583l1.369-1.757c.003.074.009.149.019.223zm-5.536-9.274.612.495-.629.428c.067-.303.073-.616.018-.921zm.528 7.584c-.061-.367-.208-.715-.43-1.016.185-.067.36-.156.523-.265l1.918-1.3zm1.592 4.474c-.253-.207-.546-.362-.861-.455-.315-.094-.646-.124-.974-.089l.052-.644c.117.142.251.271.399.382.257.193.551.334.864.414.314.079.64.096.96.05-.159.098-.306.213-.439.344zm-4.908-9.051c-.27.399-.412.867-.409 1.345.004.479.153.945.428 1.34.01.015.023.028.033.043-.177.065-.346.151-.503.255.153-.47.155-.975.006-1.445-.149-.471-.443-.886-.841-1.186h-.007zm-2.422 5.751.939-1.205c-.014.075-.024.15-.03.226l-.179 2.213c-.346-.308-.775-.511-1.236-.585l.504-.649zm-4.394 10.107.274-.654c.194-.461.235-.97.117-1.455.057-.031.112-.064.165-.1l4.318-2.926c.027-.019.052-.04.079-.059.058.23.15.45.274.654l-.769.52c-.497.339-.847.848-.982 1.427-.412-.04-.828.023-1.208.184-.381.161-.713.415-.966.737zm11.451-2.948.134.554c-.214-.095-.441-.158-.674-.188zm5.14.559-.187-.77-.036-.147c.264.319.606.566.994.718-.264.024-.522.091-.765.197zm-14.741-12.321-1.321 1.696-1.593 2.045c-.008.009-.013.019-.021.029l.083-1.621c0-.042 0-.083 0-.124.076-.023.15-.049.224-.079.472-.196.869-.532 1.136-.962.266-.429.389-.93.351-1.432.337.244.732.398 1.147.449z" fill="#afcdfb"/><path d="m221.491 197.147h-7.064c-1.321-.004-2.587-.522-3.52-1.44-.934-.919-1.46-2.163-1.463-3.461l.015-48.493c.004-1.298.531-2.542 1.465-3.459.934-.918 2.2-1.435 3.521-1.438h6.264c.541.921.823 1.967.818 3.03l-.017 54.775c.002.161-.005.324-.019.486z" fill="#afcdfb" opacity=".5"/><path d="m239.521 141.144h-18.968-10.765c-.257-.001-.503-.101-.685-.28s-.284-.421-.284-.673v-4.567c.001-.252.103-.494.285-.672.182-.179.428-.279.685-.28h10.75 18.98c.257.001.503.102.685.28.181.178.284.42.284.672v4.568c0 .252-.102.494-.283.672-.182.179-.428.279-.684.28z" fill="#f99746"/><path d="m220.553 141.135h-10.765c-.257 0-.503-.101-.685-.28-.182-.178-.284-.421-.284-.673v-4.566c.001-.253.103-.495.285-.673.182-.179.428-.279.685-.279h10.75c.256.001.502.102.683.281.181.178.283.42.283.672v4.566c-.001.25-.101.489-.279.667s-.419.28-.673.285z" fill="#ef7e29"/><path d="m309.384 194.247c-.003.851-.348 1.668-.961 2.27-.613.603-1.444.942-2.311.944h-15.434c-.868 0-1.7-.338-2.314-.941-.613-.603-.958-1.421-.958-2.273 0-.853.345-1.671.958-2.274.614-.603 1.446-.941 2.314-.941h15.437c.866.002 1.697.342 2.309.944.613.603.958 1.419.96 2.271z" fill="#ef7e29"/><path d="m301.42 194.247c-.002.852-.347 1.668-.96 2.271-.613.602-1.445.942-2.312.943h-7.474c-.868 0-1.7-.338-2.314-.941-.613-.603-.958-1.421-.958-2.273 0-.853.345-1.671.958-2.274.614-.603 1.446-.941 2.314-.941h7.474c.868 0 1.7.338 2.314.941.613.603.958 1.421.958 2.274z" fill="#f99746"/><path d="m306.376 191.747h-14.726c-.256 0-.463.203-.463.455v.102c0 .252.207.455.463.455h14.726c.256 0 .463-.203.463-.455v-.102c0-.252-.207-.455-.463-.455z" fill="#ffe2cc" opacity=".5"/><path d="m168.516 110.011v45.231c-.004 1.337-.546 2.619-1.509 3.565-.962.945-2.266 1.478-3.627 1.482h-27.356c-.71.001-1.412-.145-2.061-.427-.912-.396-1.687-1.043-2.233-1.863-.545-.82-.838-1.777-.841-2.757v-45.231c.004-1.337.546-2.618 1.508-3.564.963-.945 2.266-1.478 3.627-1.482h27.356c1.361.003 2.665.536 3.627 1.482.963.945 1.505 2.227 1.509 3.564z" fill="#fcecdb"/><path d="m156.396 121.97c-1.035-.382-1.932-1.057-2.577-1.939-.646-.883-1.01-1.934-1.047-3.02-.038-1.086.254-2.159.837-3.082.583-.924 1.431-1.657 2.438-2.106 1.007-.45 2.127-.596 3.219-.42 1.091.176 2.105.666 2.913 1.408s1.374 1.703 1.626 2.761.18 2.166-.209 3.183c-.257.676-.648 1.295-1.15 1.823-.501.527-1.103.952-1.772 1.251-.669.298-1.39.464-2.125.489-.734.024-1.465-.094-2.153-.348z" fill="#f7e0cb"/><path d="m163.596 118.762-10.468-3.863c.258-.676.649-1.294 1.151-1.821.501-.527 1.104-.952 1.772-1.25.669-.298 1.39-.464 2.124-.488.734-.025 1.465.093 2.153.347.687.254 1.317.638 1.853 1.131.536.492.969 1.084 1.272 1.741.304.657.472 1.366.497 2.087s-.096 1.44-.354 2.116z" fill="#efcbab"/><path d="m137.503 121.086c-.857-.687-1.487-1.609-1.81-2.648-.324-1.038-.327-2.148-.008-3.189.318-1.04.943-1.965 1.796-2.656.853-.692 1.895-1.119 2.995-1.228 1.1-.11 2.209.104 3.185.614.977.51 1.777 1.292 2.301 2.249s.747 2.045.642 3.127c-.106 1.081-.535 2.108-1.234 2.949-.938 1.129-2.294 1.845-3.769 1.992-1.475.146-2.95-.289-4.098-1.21z" fill="#f7e0cb"/><path d="m145.37 120.305-8.663-6.949c.938-1.129 2.294-1.846 3.769-1.992 1.475-.147 2.95.289 4.098 1.21 1.149.922 1.878 2.254 2.027 3.703.149 1.45-.294 2.899-1.231 4.028z" fill="#efcbab"/><path d="m156.396 155.486c-1.035-.382-1.931-1.057-2.576-1.939-.645-.883-1.009-1.934-1.046-3.019-.037-1.086.254-2.158.837-3.082.583-.923 1.431-1.655 2.438-2.105 1.006-.449 2.126-.595 3.217-.42 1.091.176 2.104.666 2.912 1.408.808.741 1.374 1.702 1.626 2.759.253 1.058.18 2.166-.208 3.183-.257.676-.648 1.295-1.149 1.823-.502.527-1.104.952-1.773 1.251-.668.298-1.39.464-2.124.489-.734.024-1.466-.094-2.154-.348z" fill="#f7e0cb"/><path d="m163.596 152.648-10.468-3.863c.258-.675.649-1.294 1.151-1.821.501-.527 1.104-.952 1.772-1.25.669-.298 1.39-.464 2.124-.488s1.465.094 2.153.347c.687.254 1.317.638 1.853 1.131s.969 1.084 1.272 1.741c.304.657.472 1.367.497 2.088s-.096 1.439-.354 2.115z" fill="#efcbab"/><path d="m137.503 154.599c-.857-.687-1.487-1.608-1.81-2.647-.324-1.039-.327-2.149-.008-3.19.318-1.04.943-1.965 1.796-2.656s1.895-1.119 2.995-1.228 2.209.104 3.185.614c.977.51 1.777 1.293 2.301 2.249.524.957.747 2.045.642 3.127-.106 1.081-.535 2.108-1.234 2.95-.938 1.128-2.294 1.844-3.769 1.991s-2.95-.289-4.098-1.21z" fill="#f7e0cb"/><path d="m145.37 154.19-8.663-6.948c.938-1.129 2.293-1.845 3.769-1.992 1.475-.147 2.949.289 4.098 1.21 1.148.921 1.878 2.253 2.027 3.703.149 1.449-.294 2.898-1.231 4.027z" fill="#efcbab"/><path d="m160.756 139.174c-.999.465-2.116.629-3.21.471-1.094-.159-2.116-.632-2.936-1.362-.819-.729-1.401-1.68-1.671-2.734-.269-1.054-.215-2.162.157-3.186.372-1.023 1.044-1.915 1.932-2.563s1.951-1.023 3.055-1.077c1.105-.054 2.201.215 3.149.773.949.558 1.708 1.38 2.182 2.362.314.652.495 1.358.532 2.078.036.721-.072 1.441-.319 2.121-.246.679-.627 1.304-1.12 1.839-.492.535-1.087.969-1.751 1.278z" fill="#f7e0cb"/><path d="m163.414 131.862-10.104 4.698c-.334-.654-.531-1.367-.581-2.097-.049-.731.051-1.463.294-2.155.242-.692.624-1.329 1.12-1.874.497-.545 1.1-.988 1.773-1.301.674-.313 1.404-.49 2.148-.522s1.487.082 2.185.336c.699.255 1.338.643 1.882 1.144.543.5.98 1.102 1.283 1.771z" fill="#efcbab"/><path d="m135.848 132.168c.411-1.008 1.117-1.875 2.029-2.489s1.989-.949 3.094-.962c1.106-.013 2.191.296 3.117.889.927.593 1.654 1.442 2.089 2.441.436.999.56 2.102.357 3.17s-.723 2.053-1.495 2.831c-.773.777-1.763 1.312-2.844 1.537-1.082.224-2.207.129-3.234-.275-.682-.268-1.303-.665-1.828-1.169-.526-.504-.945-1.105-1.234-1.768s-.442-1.376-.451-2.097c-.009-.722.127-1.438.4-2.108z" fill="#f7e0cb"/><path d="m138.961 139.31 4.152-10.201c.689.263 1.319.657 1.852 1.161.532.503.959 1.105 1.253 1.771.295.666.452 1.383.463 2.109s-.125 1.447-.399 2.121c-.275.675-.682 1.289-1.2 1.807-.518.519-1.135.931-1.815 1.214-.681.282-1.412.429-2.151.433-.739.003-1.472-.138-2.155-.415z" fill="#efcbab"/><path d="m168.516 116.202v39.359c0 2.597-2.114 4.729-4.699 4.729h-25.041c-.651 0-1.295-.137-1.887-.401v-38.239c-.002-.743.151-1.478.447-2.161s.73-1.3 1.275-1.814c.392-.37.838-.68 1.323-.92.735-.364 1.547-.553 2.37-.553z" fill="#efcbab" opacity=".5"/><path d="m175.421 166.733v-45.23c0-2.788-2.3-5.047-5.137-5.047h-27.358c-2.837 0-5.137 2.259-5.137 5.047v45.23c0 2.787 2.3 5.047 5.137 5.047h27.358c2.837 0 5.137-2.26 5.137-5.047z" fill="#fcecdb"/><path d="m163.301 133.469c-1.035-.382-1.932-1.056-2.577-1.939s-1.009-1.933-1.046-3.019.254-2.158.837-3.081 1.431-1.656 2.438-2.105c1.006-.45 2.126-.596 3.217-.42s2.105.665 2.913 1.407c.807.742 1.373 1.702 1.626 2.76.252 1.058.18 2.165-.208 3.182-.258.676-.649 1.296-1.15 1.823s-1.104.953-1.772 1.251c-.669.299-1.391.465-2.125.489s-1.466-.094-2.153-.348z" fill="#f7e0cb"/><path d="m170.502 130.254-10.468-3.862c.258-.676.649-1.295 1.151-1.822.501-.527 1.103-.951 1.772-1.25.668-.298 1.39-.464 2.124-.488s1.465.094 2.153.348c.687.253 1.317.638 1.853 1.13.536.493.968 1.085 1.272 1.742.303.657.472 1.366.497 2.087.024.721-.096 1.44-.354 2.115z" fill="#efcbab"/><path d="m144.407 132.578c-.857-.688-1.486-1.609-1.81-2.648s-.326-2.149-.008-3.189c.318-1.041.943-1.965 1.796-2.656.853-.692 1.895-1.119 2.996-1.229 1.1-.109 2.208.105 3.185.615.976.509 1.777 1.292 2.301 2.249.523.957.747 2.045.641 3.126-.105 1.082-.535 2.108-1.234 2.95-.938 1.129-2.294 1.845-3.769 1.991-1.475.147-2.949-.288-4.098-1.209z" fill="#f7e0cb"/><path d="m152.274 131.796-8.662-6.949c.937-1.128 2.293-1.845 3.768-1.991 1.476-.147 2.95.288 4.099 1.21 1.148.921 1.877 2.253 2.027 3.703.149 1.45-.294 2.898-1.232 4.027z" fill="#efcbab"/><path d="m163.301 166.978c-1.035-.382-1.932-1.057-2.577-1.94-.645-.882-1.009-1.933-1.046-3.019-.037-1.085.254-2.158.837-3.081s1.431-1.656 2.438-2.105c1.006-.449 2.126-.596 3.217-.42s2.105.666 2.913 1.407c.807.742 1.373 1.702 1.626 2.76.252 1.058.18 2.165-.208 3.183-.258.676-.649 1.295-1.15 1.822-.501.528-1.104.953-1.772 1.251-.669.299-1.391.465-2.125.489-.734.025-1.466-.094-2.153-.347z" fill="#f7e0cb"/><path d="m170.502 164.134-10.468-3.862c.527-1.357 1.578-2.453 2.925-3.05s2.88-.646 4.264-.136c1.383.511 2.505 1.538 3.119 2.859.615 1.321.672 2.827.16 4.189z" fill="#efcbab"/><path d="m153.04 164.068c1.263-2.769.002-6.019-2.815-7.26-2.818-1.241-6.126-.002-7.388 2.767-1.263 2.768-.003 6.019 2.815 7.26 2.818 1.24 6.125.002 7.388-2.767z" fill="#f7e0cb"/><path d="m152.274 165.681-8.662-6.947c.937-1.129 2.293-1.846 3.768-1.992 1.475-.147 2.949.288 4.098 1.21 1.149.921 1.878 2.253 2.027 3.703.149 1.449-.293 2.898-1.231 4.026z" fill="#efcbab"/><path d="m167.661 150.666c-1 .465-2.117.629-3.211.47-1.093-.158-2.115-.632-2.935-1.361s-1.401-1.68-1.671-2.734c-.269-1.054-.215-2.163.157-3.186s1.044-1.915 1.931-2.563c.888-.648 1.951-1.023 3.055-1.077 1.105-.054 2.201.214 3.149.772.949.558 1.709 1.38 2.182 2.362.315.651.496 1.358.532 2.078.037.721-.071 1.442-.318 2.121-.246.68-.627 1.305-1.12 1.84s-1.088.969-1.751 1.278z" fill="#f7e0cb"/><path d="m170.318 143.348-10.104 4.706c-.635-1.316-.712-2.827-.213-4.199.498-1.372 1.531-2.494 2.871-3.118 1.339-.624 2.877-.7 4.273-.21 1.397.49 2.538 1.505 3.173 2.821z" fill="#efcbab"/><path d="m142.752 143.66c.411-1.009 1.117-1.875 2.029-2.489.912-.615 1.989-.95 3.095-.963 1.105-.013 2.19.297 3.117.89.926.592 1.653 1.442 2.089 2.441.435.998.559 2.102.357 3.17-.203 1.068-.724 2.053-1.496 2.83-.772.778-1.762 1.313-2.844 1.537-1.082.225-2.207.13-3.234-.274-.681-.268-1.303-.665-1.828-1.169s-.944-1.105-1.234-1.768c-.289-.664-.442-1.376-.451-2.098-.008-.721.127-1.437.4-2.107z" fill="#f7e0cb"/><path d="m145.865 150.802 4.153-10.201c.689.263 1.318.657 1.851 1.16s.959 1.105 1.254 1.771c.294.666.452 1.383.463 2.109.01.727-.125 1.448-.4 2.122-.274.674-.682 1.288-1.2 1.807-.517.518-1.134.931-1.815 1.213-.681.283-1.412.43-2.151.433s-1.471-.137-2.155-.414z" fill="#efcbab"/><path d="m128.215 134.497h42.97v63.014h-42.97z" fill="#ef7e29"/><path d="m134.201 134.497h42.97v63.015h-42.97z" fill="#f99746"/><path d="m134.201 138.154-2.06 3.147h-3.926v-6.804h5.986z" fill="#d8661a"/><path d="m130.53 139.461h-5.986l3.671-4.964h5.986z" fill="#f99746"/><path d="m156.363 197.712h-22.162v-60.343l22.162 2.092z" fill="#efcbab" opacity=".5"/><path d="m177.171 139.461-3.487 1.84h-37.412l-2.071-3.147v-3.657z" fill="#ef7e29"/><path d="m180.206 139.461h-42.97l-3.035-4.964h42.97z" fill="#f99746"/><path d="m85.8424 118.298c-1.1325-3.586-6.0827-4.263-8.0734-1.053-.378.603-.5865 1.293-.6039 2.001-.1095 4.204 8.3363 20.494 9.4562 21.935 2.041 2.622 14.3587 8.93 14.3587 8.93l2.617-.371c-1.084-.706-2.093-1.518-3.011-2.423-3.1658-3.103-7.7788-8.152-8.6244-8.85-1.4508-1.2-3.9587-13.356-6.1192-20.169z" fill="#ed985f"/><path d="m159.094 151.5h-56.195c-3.4936 0-6.3257 2.783-6.3257 6.216v33.433c0 3.433 2.8321 6.216 6.3257 6.216h56.195c3.494 0 6.326-2.783 6.326-6.216v-33.433c0-3.433-2.832-6.216-6.326-6.216z" fill="#fcecdb"/><path d="m117.739 166.271c-1.327 3.524-5.268 5.306-8.808 3.983-3.539-1.323-5.325-5.249-3.996-8.779s5.268-5.305 8.808-3.984c3.54 1.322 5.324 5.258 3.996 8.78z" fill="#f7e0cb"/><path d="m113.743 157.496-4.807 12.758c-3.534-1.322-5.325-5.249-3.996-8.779s5.268-5.3 8.803-3.979z" fill="#efcbab"/><path d="m116.636 189.298c-.562.692-1.258 1.267-2.048 1.691-.791.424-1.659.688-2.555.778-.896.091-1.801.004-2.662-.253-.862-.258-1.662-.682-2.355-1.248-1.407-1.154-2.297-2.805-2.479-4.598-.182-1.792.359-3.583 1.506-4.988.562-.692 1.258-1.267 2.049-1.691.79-.424 1.658-.689 2.554-.779s1.801-.004 2.663.254c.861.257 1.662.681 2.354 1.247 1.407 1.155 2.297 2.806 2.479 4.598.182 1.793-.359 3.584-1.506 4.989z" fill="#f7e0cb"/><path d="m115.663 179.713-8.647 10.556c-1.407-1.155-2.297-2.806-2.479-4.598-.182-1.793.359-3.584 1.506-4.989.562-.691 1.258-1.266 2.049-1.69.79-.424 1.658-.689 2.554-.78.896-.09 1.801-.004 2.663.254.861.258 1.662.682 2.354 1.247z" fill="#efcbab"/><path d="m159.444 166.271c-1.329 3.524-5.27 5.306-8.808 3.983-3.539-1.323-5.324-5.249-3.997-8.779 1.328-3.53 5.269-5.305 8.808-3.984 3.54 1.322 5.323 5.258 3.997 8.78z" fill="#f7e0cb"/><path d="m155.447 157.496-4.805 12.758c-3.535-1.322-5.325-5.249-3.998-8.779 1.328-3.53 5.27-5.3 8.803-3.979z" fill="#efcbab"/><path d="m158.339 189.297c-1.092 1.346-2.672 2.223-4.409 2.447-1.736.224-3.494-.222-4.902-1.245-.105-.072-.206-.151-.307-.233-1.407-1.155-2.297-2.806-2.479-4.599-.182-1.792.36-3.583 1.507-4.988.562-.692 1.258-1.267 2.048-1.691s1.659-.688 2.554-.779c.896-.09 1.801-.003 2.662.254.862.258 1.662.682 2.355 1.248.099.081.195.163.29.247 1.292 1.185 2.079 2.806 2.206 4.538.126 1.732-.419 3.447-1.525 4.801z" fill="#f7e0cb"/><path d="m157.657 179.96-8.631 10.539c-.104-.072-.205-.151-.307-.233-1.407-1.155-2.297-2.806-2.478-4.599-.182-1.792.359-3.583 1.507-4.988.561-.692 1.258-1.267 2.048-1.691s1.658-.688 2.554-.779c.896-.09 1.801-.003 2.662.254.862.258 1.662.682 2.354 1.248.1.081.195.163.291.249z" fill="#efcbab"/><path d="m139.146 160.957c1.617 3.403.161 7.465-3.25 9.076-.813.382-1.696.601-2.596.645s-1.8-.089-2.648-.39c-.847-.302-1.625-.766-2.288-1.365-.664-.6-1.199-1.323-1.575-2.128-1.615-3.401-.161-7.465 3.251-9.076.813-.382 1.695-.601 2.595-.645s1.8.089 2.648.39c.847.302 1.625.766 2.289 1.365.663.6 1.198 1.323 1.574 2.128z" fill="#f7e0cb"/><path d="m130.04 157.719 5.856 12.314c-.813.382-1.696.601-2.596.645-.9.043-1.8-.089-2.648-.391-.847-.301-1.625-.765-2.288-1.365-.664-.599-1.199-1.323-1.575-2.128-1.615-3.402-.161-7.464 3.251-9.075z" fill="#efcbab"/><path d="m130.427 191.315c-3.507-1.4-5.209-5.365-3.806-8.858s5.38-5.193 8.887-3.795c3.507 1.399 5.21 5.365 3.807 8.858s-5.384 5.192-8.888 3.795z" fill="#f7e0cb"/><path d="m139.315 187.52-12.694-5.069c1.403-3.493 5.38-5.193 8.887-3.795s5.21 5.371 3.807 8.864z" fill="#efcbab"/><path d="m89.4185 97.7118c.068-.2695-5.9757 2.6842-6.2827 3.0182-2.8338 3.091-2.0259 7.121-.404 7.159 1.0407.025.8394 1.731.8394 1.731l11.5865-4.822s-1.3942-7.9962-5.7392-7.0862z" fill="#b5453c"/><path d="m90.8505 98.3351s.409-4.4328-4.6356-4.4328c0 0 1.5288.4068 2.319 1.2217 0 0-3.2162-1.8547-6.7169.9966-3.5006 2.8513-1.3262 10.0034-2.3908 11.3604-1.0645 1.358-5.2094 1.63-4.7035 6.021.5058 4.39 13.1569 9.891 12.3453 13.52 0 0 4.9578-7.16 1.4118-10.428 0 0 1.729 1.599 1.9039 3.5 0 0 .4693-3.709-1.9341-4.898-2.1265-1.051-3.8693-4.893-3.6856-5.579.1837-.687 6.0865-11.2819 6.0865-11.2819z" fill="#b5453c"/><path d="m76.6781 194.247-2.5079-.363s-8.4307-6.582-9.689-18.868c-.1317-1.262-.1519-2.533-.0604-3.798.019-.146-.0115-.293-.0868-.42-.2693-.406-.9413-1.424-1.8498-2.873-.8971-1.427-2.431-4.124-4.1184-7.152-3.0401-5.45-6.5798-11.97-7.794-14.047-3.8681-6.618-2.0033-11.068-2.0033-11.068s10.7913-1.049 13.7484-3.586l1.0645 1.608s2.338 10.171 2.2285 10.218c.1145.346.2315.697.3511 1.056 1.8447 5.596 3.9674 12.591 5.1238 18.288.6506 3.205.9954 5.998.8104 7.901-.0642.652.0138 1.656.19 2.894 1.0444 7.297 4.5929 20.21 4.5929 20.21z" fill="#2b478b"/><path d="m81.9378 197.363h-10.4654s-.2516-1.566.2957-2.754c.5235-1.14 1.2697-1.177.0957-2.968.6644.673 2.801.951 4.3135.751.1862.295 1.1954 2.276 1.8145 2.712.687.486 3.7359.312 3.946 2.259z" fill="#233862"/><path d="m65.9598 144.951c-.9148 4.953-3.0729 13.196-7.5952 15.818-3.0401-5.45-6.5798-11.97-7.7941-14.047-3.868-6.618-2.0032-11.068-2.0032-11.068s10.7913-1.048 13.7484-3.586l1.0645 1.608s2.338 10.171 2.2285 10.218c.1145.347.2315.703.3511 1.057z" fill="#233862"/><path d="m58.6225 136.418.0352-1.923c-3.9008.484-13.4426-4.575-13.4426-4.575s-4.0782 2.666-4.6356 10.278c-.2731 3.709-1.997 19.429-2.1882 24.121-.0692 1.7-.0919 2.914-.0994 3.399-.0099.146-.0682.285-.1661.396-.7965.998-1.5029 2.062-2.1115 3.181-5.9493 10.881-2.8387 25.653-2.8387 25.653l1.3841-.345s5.0333-15.32 8.3175-21.946c.5574-1.124 1.0645-1.998 1.4886-2.504 1.2356-1.475 2.5392-3.98 3.824-6.996 2.4285-5.7 4.7816-13.221 6.4677-19.041.1158.019 3.965-9.698 3.965-9.698z" fill="#2b478b"/><path d="m81.4357 123.586c-6.3733-1.437-2.3014-10.237-1.9327-10.082.8808-.177 2.8224-1.7 4.5576-4.676l.234.2 3.9134 3.372s-.9047 1.312-1.666 2.596c-.5952 1.006-1.101 1.997-1.0205 2.337.3158.244-2.3858 6.636-4.0858 6.253z" fill="#ffb27d"/><path d="m85.4586 117.049s1.1211 2.174 1.7188 4.055c.5977 1.882 2.0939 7.868 2.0939 7.868s-3.0854 3.462-7.3763 3.258c0 0-2.3077-3.55-1.4948-6.755.8128-3.205 5.0584-8.426 5.0584-8.426z" fill="#91cecf"/><path d="m88.208 112.401s-.906 1.31-1.666 2.597c-2.4336-1.475-2.4361-4.435-2.2486-5.969z" fill="#ed985f"/><path d="m88.3175 114.09s-5.9141-3.231-3.8052-6.817c2.109-3.585 2.7595-6.416 6.6213-4.504s3.785 3.691 3.3786 5.056c-.4065 1.365-4.6042 7.013-6.1947 6.265z" fill="#ffb27d"/><path d="m95.5063 105.734c-.2705-1.593-1.0935-1.745-1.6673-1.638-2.1819-3.547-5.7467-2.162-5.7467-2.162-1.9051 2.35-4.6558 2.749-4.6558 2.749s.6858 1.254 3.5107 2.029c.8632.237 1.8422.094 2.7872-.219-1.2617.672-2.6109 1.171-4.0103 1.484 3.7234.335 7.2656-3.01 7.633-3.367.1711.518.4731 1.607.2919 2.396-.2441 1.078-1.218 3.031-.6291 3.284.0075.002 2.8966-2.168 2.4864-4.556z" fill="#b5453c"/><path d="m41.4955 197.364h-10.4616s-.2517-1.567.2957-2.755c.5235-1.14 1.3439-1.659 1.1463-3.039.6657.672 1.7491 1.425 3.2616 1.225.1849.296 1.1954 1.876 1.8145 2.312.6845.484 3.7321.309 3.9435 2.257z" fill="#233862"/><path d="m82.1857 130.562c-1.3464.461-3.2351.715-5.1679.921-2.7507.296-5.592.495-7.0793 1.081-.7024.275-1.3687.632-1.9844 1.063-.0204.013-.0398.028-.0578.044-.2933.208-.5678.44-.8205.695-.4085.401-.7345.876-.9601 1.399-.5461 1.325.1775 4.997.6405 7.005.0923.393.0495.805-.1217 1.171-.1712.367-.4612.667-.8245.854-1.047.532-2.075 1.022-3.0842 1.472l-.1598.07c.0101-.204.0139-.407.0139-.605-.0005-.848-.0598-1.696-.1775-2.537-.2516 1.397-1.1853 2.907-2.0598 4.069-14.0391 5.536-23.8476 3.13-23.6878.371.5549-9.574 7.1245-17.717 7.1245-17.717 12.2548-14.003 37.0436-17.69 37.0436-17.69s1.1879-.14 2.6199 1.552c2.0611 2.436 2.163 3.071 2.163 3.071s.5411 12.354-3.4201 13.711z" fill="#abddda"/><path d="m77.0165 131.484c-2.7506.294-5.5907.494-7.078 1.079-.609-8.927 3.6793-15.643 3.6793-15.643s2.796 11.184 3.3987 14.564z" fill="#91cecf"/><path d="m79.9031 115.193s-6.8943.669-7.4467 5.069c-.5524 4.401 6.61 22.331 7.6355 23.956 1.8673 2.955 12.8638 13.086 12.8638 13.086l2.0271-1.206s-7.8016-12.976-9.0083-14.19c-1.8925-1.904-3.7334-25.191-6.0714-26.715z" fill="#ffb27d"/><path d="m83.439 123.602s.7072-11.349-8.1337-8.604c-8.841 2.745 1.3728 22.266 1.3728 22.266s5.188-.247 7.029-4.699z" fill="#abddda"/><path d="m66.7562 142.772c.0917.393.0486.804-.1225 1.17-.1712.366-.4608.666-.8237.853-1.0469.532-2.075 1.022-3.0842 1.472-.0541-.17-.1031-.347-.1459-.534-.1773-.834-.237-1.688-.1774-2.538.234-4.238 3.1709-7.448 4.6771-8.827-.4085.402-.7345.877-.9601 1.4-.5499 1.324.1737 4.996.6367 7.004z" fill="#91cecf"/><path d="m80.8192 112.228s1.0796-1.34 1.8095-1.297c0 0 2.9495 4.058 2.9734 5.92 0 0-3.6793-4.811-4.7829-4.623z" fill="#91cecf"/><path d="m109.122 151.499s-1.569.028-1.907-.019c-.339-.047-.777-.19-1.223-.206-.447-.016-.843.124-1.259.208-.061.012-.123.018-.186.017h-2.602s-.26-.123-.546-.573c-.126-.196-.14-.661-.422-.815-1.575-.866 2.618-.371 2.618-.371s2.632-.047 2.876.131c.434.316 2.751 1.506 2.651 1.628z" fill="#ed985f"/><path d="m101.948 151.5s1.598.453 2.032.742l.458.285s.265-.291-.152-.619c-.221-.17-.83-.668-.85-1.236s-1.822-.07-1.488.828z" fill="#ed985f"/><path d="m94.9853 156.096s1.1413.997 2.0134 1.207c.872.21 1.8547 2.654 2.0133 3.002.1585.349-.828-.154-1.2231-.749s-.6644-.827-.7789-.699c-.1145.129.0692 1.759.726 2.664.6569.905 1.0532 1.705.5789 1.654-.4744-.05-3.288-.724-3.8668-2.405-.5789-1.68-.1548-1.738-1.4849-3.462-1.33-1.723 2.0221-1.212 2.0221-1.212z" fill="#ffb27d"/><path d="m220.903 193.756c-.004.937-.384 1.835-1.058 2.497-.675.663-1.589 1.037-2.542 1.04h-17.003c-.943-.017-1.841-.398-2.502-1.059-.66-.661-1.031-1.551-1.031-2.478s.371-1.816 1.031-2.478c.661-.661 1.559-1.041 2.502-1.059h17.003c.953.003 1.867.376 2.542 1.039.674.662 1.055 1.56 1.058 2.498z" fill="#2b478b"/><path d="m212.132 193.756c-.003.937-.383 1.835-1.058 2.498-.674.662-1.588 1.036-2.542 1.039h-8.232c-.943-.017-1.841-.398-2.502-1.059-.66-.661-1.031-1.551-1.031-2.478s.371-1.816 1.031-2.478c.661-.661 1.559-1.041 2.502-1.059h8.232c.954.003 1.868.376 2.542 1.039.675.662 1.055 1.56 1.058 2.498z" fill="#699ff0"/><path d="m217.591 191.003h-16.219c-.281 0-.509.225-.509.501v.114c0 .277.228.501.509.501h16.219c.281 0 .509-.224.509-.501v-.114c0-.276-.228-.501-.509-.501z" fill="#e9f3fe" opacity=".4"/><path d="m206.394 183.735c.45.89.524 1.919.205 2.862s-1.005 1.724-1.907 2.172l-16.114 7.936c-.905.445-1.953.519-2.914.206-.96-.314-1.755-.99-2.208-1.879-.454-.889-.529-1.919-.21-2.863s1.007-1.724 1.912-2.17l16.115-7.937c.905-.442 1.952-.514 2.912-.201.959.313 1.754.987 2.209 1.874z" fill="#ef7e29"/><path d="m198.082 187.829c.45.89.524 1.918.205 2.861s-1.004 1.724-1.907 2.172l-7.801 3.843c-.905.445-1.953.52-2.914.206-.96-.314-1.755-.989-2.208-1.879-.454-.889-.529-1.919-.21-2.862.319-.944 1.007-1.725 1.912-2.171l7.801-3.843c.906-.442 1.953-.515 2.912-.201.96.313 1.754.987 2.21 1.874z" fill="#f99746"/><path d="m202.463 183.731-15.37 7.568c-.128.063-.277.073-.413.029s-.248-.14-.313-.265l-.054-.108c-.064-.126-.075-.271-.03-.405s.142-.245.27-.308l15.372-7.57c.128-.062.276-.072.412-.027.136.044.249.139.314.265l.054.107c.064.126.074.272.029.406s-.143.244-.271.308z" fill="#ffe2cc" opacity=".5"/></svg>