<svg fill="none" height="70" viewBox="0 0 70 70" width="70" xmlns="http://www.w3.org/2000/svg" xmlns:xlink="http://www.w3.org/1999/xlink"><clipPath id="a"><path d="m0 0h70v70h-70z"/></clipPath><mask id="b" height="17" maskUnits="userSpaceOnUse" width="21" x="35" y="21"><path d="m55.7287 27.4296c0-1.502-.9915-3.0071-2.9685-4.1559-3.9719-2.2917-10.4106-2.2917-14.3825 0-1.9859 1.1459-2.9685 2.6509-2.9685 4.1559v4.5063c0 1.502.9915 3.0071 2.9685 4.1559 3.9719 2.2917 10.4106 2.2917 14.3825 0 1.9859-1.1459 2.9685-2.6509 2.9685-4.1559z" fill="#fff"/></mask><g clip-path="url(#a)"><path d="m57.5179 64.0532c12.6994-7.3318 12.6994-19.2206 0-26.5538s-33.292-7.3318-45.9928 0c-12.70083 7.3318-12.69943 19.222 0 26.5538 12.6994 7.3318 33.292 7.3332 45.9928 0z" fill="#f5f5f5"/><path d="m55.0027 57.1727 9.9266-37.0468c.1271-.6058.1098-1.2331-.0505-1.831-.1603-.598-.459-1.1498-.8721-1.6108l-14.8347-14.85005c-.8042-.80383-1.6958-.56621-1.99.53166l-9.932 37.06669c-.127.6061-.1095 1.2337.0512 1.8318.1608.5981.4602 1.1499.874 1.6107l14.84 14.8301c.8015.8138 1.6907.5755 1.9875-.5323z" fill="#e0e0e0"/><path d="m54.075 57.4351 9.9293-37.0567c.1279-.6058.111-1.2333-.0494-1.8313-.1603-.5981-.4595-1.1499-.8733-1.6105l-14.8373-14.84009c-.8043-.80384-1.6959-.56622-1.99.53165l-9.9294 37.05674c-.127.6061-.1095 1.2337.0513 1.8318.1607.5981.4601 1.1499.8739 1.6107l14.8199 14.8354c.8142.8065 1.7108.5702 2.005-.5277z" fill="#f5f5f5"/><path d="m63.0645 16.9317-13.3804-13.38214c3.888 4.29764 11.8785 12.30084 12.8112 13.54914.9328 1.2482 1.3807 2.0205.5754 5.0259-.8053 3.0055-8.4484 33.2686-8.4484 33.2686l9.3842-35.0224c.1249-.6069.1047-1.2348-.059-1.8324s-.4662-1.1481-.883-1.6067z" fill="#fafafa"/><path d="m54.6665 10.7765c.0509.0586.0872.1285.1059.2038.0187.0754.0192.1541.0016.2297l-9.8974 36.9375c-.0379.1415-.1458.1765-.2452.0807-.05-.059-.0856-.1289-.1038-.204s-.0186-.1535-.0012-.2288l9.8974-36.9375c.0406-.1515.1458-.1766.2427-.0814z" fill="#e0e0e0"/><path d="m44.6048 41.1128c.0316-.1174.053-.2372.064-.3583.0073-.0273.0132-.1189.0129-.1376.043-1.0415-.3291-2.0576-1.0347-2.825l-2.5495-2.5466-.024-.0198c-.2694-.2953-.6133-.5127-.9956-.6293-.3824-.1167-.789-.1282-1.1774-.0335-.3883.0947-.7441.2922-1.0298.5718-.2857.2795-.4909.6309-.594 1.0171-.0308.1176-.0514.2377-.0616.3588-.0058.0459-.0093.0921-.0104.1383-.0447 1.0399.3247 2.0551 1.0272 2.823l2.5521 2.5474.0215.019c.2692.296.6132.514.9958.6311.3827.1171.7898.1289 1.1786.0342.3887-.0947.7448-.2924 1.0307-.5723.286-.2799.4912-.6317.5942-1.0183z" fill="#fafafa" opacity=".7"/><path d="m39.1291 35.6471c-.2762 1.0308.1536 2.5169.9578 3.3208l2.5495 2.5466c.8043.8039 1.6812.6209 1.9574-.4099s-.1535-2.517-.9577-3.3208l-2.5495-2.5467c-.8149-.804-1.6833-.6134-1.9575.41z" fill="#e0e0e0"/><path d="m39.9044 34.5504c-.5609-.1262-1.1488-.0307-1.6408.2667s-.85.7735-.999 1.3288c-.0308.1176-.0514.2377-.0615.3588-.0059.0459-.0093.0921-.0105.1383-.0334.8934.2311 1.7725.7521 2.499-.5233-1.3755-.7958-2.2365-.2884-3.3251.2004-.4155.5234-.7597.9253-.9861s.8636-.3243 1.3228-.2804z" fill="#fff"/><path d="m39.8975 40.3069c-.1033-.1259-.1716-.2769-.1977-.4378-.0261-.1608-.0091-.3257.0491-.4779.1407-.4306.3809-.8219.7013-1.1422.3203-.3203.7117-.5605 1.1424-.7011.1521-.0587.3171-.0758.4781-.0495.1609.0263.3119.095.4375.199l1.3679 1.3728c.3461.3473.5401.8178.5393 1.3081s-.1964.9602-.5436 1.3063c-.3473.3462-.8179.5401-1.3082.5393s-.9602-.1964-1.3063-.5436z" fill="#f5f5f5"/><path d="m38.0116 38.417c-.3351-.349-.5199-.8155-.5149-1.2993.0049-.4838.1994-.9464.5415-1.2885.3422-.3421.8048-.5364 1.2886-.5413.4839-.0048.9503.1801 1.2993.5153l1.888 1.8955c-.1256-.104-.2766-.1726-.4375-.1989s-.326-.0092-.4781.0494c-.4307.1406-.822.3809-1.1424.7012-.3203.3203-.5606.7116-.7013 1.1422-.0582.1522-.0752.3171-.049.4779.0261.1608.0943.3119.1976.4378z" fill="#516eb4"/><path d="m39.1151 35.9063c-.1321.1324-.2065.3118-.2067.4988s.0737.3666.2055.4992l2.2782 2.2877c.328-.3147.57-.7081.7029-1.1428.0119-.0447.0226-.0845.0332-.1242l-2.0095-2.0186c-.0655-.0665-.1436-.1194-.2298-.1554-.0861-.0361-.1786-.0546-.272-.0546s-.1858.0185-.272.0546c-.0861.036-.1642.0888-.2298.1553z" fill="#fff" opacity=".4"/><path d="m39.8975 40.3069c-.1033-.1259-.1716-.2769-.1977-.4378-.0261-.1608-.0091-.3257.0491-.4779.1407-.4306.3809-.8219.7013-1.1422.3203-.3203.7117-.5605 1.1424-.7011.1521-.0587.3171-.0758.4781-.0495.1609.0263.3119.095.4375.199l1.3679 1.3728c.3461.3473.5401.8178.5393 1.3081s-.1964.9602-.5436 1.3063c-.3473.3462-.8179.5401-1.3082.5393s-.9602-.1964-1.3063-.5436z" fill="#f5f5f5"/><path d="m41.5933 37.5478c-.4306.1406-.822.3808-1.1424.7011-.3203.3203-.5606.7117-.7013 1.1423-.0582.1521-.0751.317-.049.4778.0261.1609.0943.3119.1977.4379l-.1067-.1085-.0823-.0806c-.1038-.1257-.1723-.2767-.1985-.4377-.0261-.1609-.0089-.3259.0499-.478.1407-.4306.3809-.8219.7013-1.1423.3203-.3203.7117-.5605 1.1424-.7011.1521-.0586.3171-.0757.4781-.0494.1609.0263.3119.0949.4375.1989l.189.1891c-.1256-.104-.2767-.1727-.4376-.199-.1609-.0262-.3259-.0092-.4781.0495z" fill="#000" opacity=".1"/><path d="m44.3927 40.6623c-.051.3379-.1948.655-.4155.9159-.2207.2608-.5095.4552-.8343.5615-.3247.1063-.6726.1202-1.0048.0403-.3322-.08-.6357-.2507-.8765-.4931l-1.3648-1.3746c-.1033-.126-.1715-.277-.1977-.4379-.0261-.1608-.0091-.3257.0491-.4778.051-.1835.1259-.3594.2227-.5234l2.2857 2.2896c.7534.745 1.9704.0781 2.1361-.5005z" fill="#e0e0e0"/><path d="m43.7585 40.564c-.0656.0656-.1434.1176-.2291.1531-.0856.0354-.1775.0536-.2702.0535s-.1845-.0185-.2701-.0542c-.0855-.0356-.1633-.0878-.2286-.1536l-2.3083-2.3143c.3155-.3274.7092-.5692 1.1439-.7024.041-.0115.0826-.0208.1246-.0279l2.0421 2.046c.132.1332.2057.3133.2048.5008-.0008.1875-.076.367-.2091.499z" fill="#fff"/><path d="m38.1884 35.6506c.0272-.022.0562-.0409.0859-.0622l.0619-.042c.0227-.0152.0472-.0273.0724-.0418l.0756-.0437.0421-.018c.1155-.0552.2367-.0977.3614-.1268l.1377-.027c-.578.17-1.2465 1.3832-.495 2.1356.2557.2575.6377.6501 1.4327 1.4488-.0969.1639-.1718.3398-.2228.5233-.0582.1522-.0751.317-.049.4779.0261.1608.0943.3119.1977.4378l-1.8894-1.8906c-.3459-.3471-.5401-.8172-.54-1.3072 0-.49.1943-.96.5403-1.307.0425-.0392.0849-.0784.1292-.1145z" fill="#000" opacity=".1"/><path d="m54.1624 50.6062c.0312-.1174.0534-.2369.0665-.3576.0073-.0273.0108-.1196.0105-.1383.044-1.041-.3273-2.057-1.0323-2.8243l-2.552-2.5473-.024-.0198c-.2693-.2953-.6132-.5127-.9956-.6293-.3823-.1167-.789-.1282-1.1774-.0335-.3883.0947-.744.2922-1.0297.5718-.2858.2795-.491.6309-.5941 1.0171-.0308.1176-.0514.2377-.0616.3588-.0066.0249-.0072.0966-.0104.1383-.0453 1.04.3242 2.0554 1.0273 2.823l2.552 2.5474.0248.0066c.2692.296.6133.514.9959.6311s.7897.1289 1.1785.0342.7448-.2924 1.0308-.5723c.2859-.2799.4912-.6317.5941-1.0184z" fill="#fafafa" opacity=".7"/><path d="m48.7026 45.1445c-.2762 1.0308.1503 2.5188.9546 3.3226l2.552 2.5474c.8017.8032 1.6787.6202 1.9549-.4106s-.1535-2.517-.9553-3.3202l-2.552-2.5473c-.8042-.8039-1.6774-.6252-1.9542.4081z" fill="#e0e0e0"/><path d="m49.4747 44.0475c-.5608-.1256-1.1484-.0298-1.6403.2675-.4918.2973-.8499.773-.9995 1.3279-.0308.1177-.0513.2377-.0615.3589-.0067.0248-.0072.0966-.0104.1383-.0335.8933.231 1.7725.752 2.499-.5208-1.3748-.7958-2.2365-.2891-3.3227.2007-.4156.5237-.7599.9257-.9867.4019-.2268.8636-.3253 1.3231-.2822z" fill="#fff"/><path d="m49.4638 49.8023c-.1032-.1255-.1715-.2761-.1977-.4365s-.0095-.3249.0484-.4767c.1408-.431.3812-.8227.7016-1.1434s.7119-.5614 1.1428-.7025c.1521-.0587.3171-.0757.4781-.0494.1609.0262.3119.0949.4375.1989l1.3679 1.3728c.1715.1717.3075.3754.4002.5996.0928.2241.1404.4644.1403.707s-.048.4828-.1409.7069c-.093.2241-.2292.4277-.4008.5992-.1716.1714-.3753.3074-.5995.4001-.2242.0928-.4644.1404-.7071.1403-.2426-.0001-.4828-.048-.7069-.1409-.224-.093-.4276-.2291-.5991-.4008z" fill="#f5f5f5"/><path d="m47.5746 47.9123c-.3463-.3466-.5407-.8166-.5405-1.3066.0002-.4899.1951-.9597.5417-1.306s.8166-.5407 1.3066-.5405c.4899.0002.9597.1951 1.306.5417l1.8887 1.8931c-.1255-.104-.2766-.1727-.4375-.199-.1609-.0262-.326-.0092-.4781.0495-.4308.1411-.8223.3818-1.1428.7025-.3204.3207-.5608.7124-.7016 1.1433-.0579.1519-.0746.3164-.0484.4768.0263.1604.0945.311.1978.4365z" fill="#516eb4"/><path d="m48.6863 45.4035c-.0657.0654-.1179.1431-.1535.2287-.0357.0856-.0541.1773-.0542.2701-.0001.0927.0181.1845.0535.2702.0355.0856.0875.1635.153.229l2.2776 2.2901c.3274-.3151.5692-.7084.7028-1.1428.0113-.0422.0227-.0844.0333-.1241l-2.0095-2.0187c-.0654-.0665-.1433-.1195-.2293-.1557s-.1783-.055-.2716-.0552c-.0934-.0002-.1858.0181-.272.0539-.0861.0357-.1644.0883-.2301.1545z" fill="#fff" opacity=".4"/><path d="m49.4638 49.8023c-.1032-.1255-.1715-.2761-.1977-.4365s-.0095-.3249.0484-.4767c.1408-.431.3812-.8227.7016-1.1434s.7119-.5614 1.1428-.7025c.1521-.0587.3171-.0757.4781-.0494.1609.0262.3119.0949.4375.1989l1.3679 1.3728c.1715.1717.3075.3754.4002.5996.0928.2241.1404.4644.1403.707s-.048.4828-.1409.7069c-.093.2241-.2292.4277-.4008.5992-.1716.1714-.3753.3074-.5995.4001-.2242.0928-.4644.1404-.7071.1403-.2426-.0001-.4828-.048-.7069-.1409-.224-.093-.4276-.2291-.5991-.4008z" fill="#f5f5f5"/><path d="m51.1635 47.0448c-.4308.1412-.8223.3818-1.1428.7025-.3204.3208-.5607.7124-.7015 1.1434-.058.1518-.0747.3163-.0484.4767.0262.1604.0944.311.1977.4365l-.1074-.106-.0816-.0831c-.1037-.1252-.1722-.2758-.1985-.4363-.0262-.1605-.0092-.3251.0492-.4769.1408-.4309.3812-.8226.7016-1.1433s.7119-.5614 1.1428-.7025c.1521-.0587.3171-.0757.4781-.0495.1609.0263.3119.095.4375.199l.189.189c-.1256-.104-.2767-.1726-.4376-.1989s-.3259-.0092-.4781.0494z" fill="#000" opacity=".1"/><path d="m53.9641 50.1593c-.051.3379-.1948.655-.4155.9159-.2207.2608-.5095.4552-.8343.5615-.3247.1063-.6726.1202-1.0048.0403-.3322-.08-.6357-.2507-.8765-.4931l-1.3684-1.3809c-.1033-.1255-.1715-.2761-.1977-.4365s-.0095-.3249.0484-.4768c.0512-.1842.1263-.361.2234-.5258.8006.7976 1.7759 1.7777 2.2856 2.2896.7565.7538 1.9734.0869 2.1398-.4942z" fill="#e0e0e0"/><path d="m53.3273 50.0679c-.0655.0656-.1433.1176-.229.1531-.0857.0354-.1775.0536-.2702.0535s-.1845-.0185-.2701-.0542c-.0856-.0356-.1633-.0878-.2287-.1536l-2.3083-2.3143c.3156-.3274.7092-.5691 1.144-.7024.0432-.0124.0851-.0198.1246-.0279l2.0421 2.046c.1313.1335.2045.3135.2037.5008s-.0756.3667-.2081.499z" fill="#fff"/><path d="m47.759 45.1495c.0275-.0222.0562-.0429.0859-.0622.0195-.0155.0402-.0295.0618-.042l.0731-.0443c.0249-.0151.0508-.0286.0774-.0405.0149-.0086.031-.0151.0477-.0191.1157-.0561.2371-.0994.3621-.1293.0426-.0099.0877-.0191.1346-.0252-.5773.1675-1.2465 1.3831-.4944 2.1331.2558.2575.6403.6507 1.4328 1.4488-.0972.1647-.1723.3415-.2235.5258-.0579.1518-.0746.3163-.0484.4767s.0945.311.1977.4365l-1.8893-1.8906c-.346-.3471-.5401-.8173-.5396-1.3073.0006-.4901.1956-.9599.5424-1.3062.0402-.0405.0825-.0789.1266-.1152z" fill="#000" opacity=".1"/><path d="m47.1031 31.7884c.0318-.1182.0534-.2389.0647-.3607.0066-.0249.0132-.1189.0122-.1352.0218-.5161-.0583-1.0315-.2357-1.5166s-.4487-.9306-.7983-1.3108l-2.5496-2.5467-.0273-.0073c-.2694-.2954-.6133-.5128-.9956-.6294-.3824-.1166-.789-.1282-1.1774-.0335-.3883.0948-.7441.2923-1.0298.5718-.2857.2796-.4909.6309-.594 1.0171-.0308.1176-.0514.2377-.0616.3589-.0063.0458-.0098.092-.0104.1383-.045 1.0405.3241 2.0565 1.0266 2.8254l2.552 2.5474.0248.0066c.2693.296.6133.514.9959.6311s.7897.1289 1.1785.0342.7449-.2924 1.0308-.5723.4912-.6317.5942-1.0183z" fill="#fafafa" opacity=".7"/><path d="m41.628 26.3227c-.2756 1.0283.1535 2.517.9577 3.3208l2.5496 2.5467c.8042.8038 1.6812.6209 1.9567-.4075.2755-1.0283-.1535-2.5169-.9571-3.3233l-2.5495-2.5466c-.8142-.8065-1.6812-.6209-1.9574.4099z" fill="#e0e0e0"/><path d="m42.4039 25.2235c-.5608-.1256-1.1484-.0297-1.6403.2675-.4919.2973-.8499.773-.9995 1.328-.0308.1176-.0514.2377-.0615.3588-.0063.0459-.0098.0921-.0104.1383-.0335.8934.231 1.7725.752 2.499-.5233-1.3755-.7958-2.2365-.2891-3.3227.2007-.4156.5237-.7599.9257-.9867.4019-.2268.8636-.3253 1.3231-.2822z" fill="#fff"/><path d="m42.3971 30.9802c-.1058-.1254-.176-.277-.2033-.4388-.0274-.1619-.0108-.3281.0479-.4813.1408-.431.3811-.8227.7016-1.1434.3204-.3207.7119-.5614 1.1427-.7025.1523-.0585.3173-.0752.4782-.0485.1609.0268.3117.096.4368.2005l1.3686 1.3703c.172.1716.3085.3754.4018.5998.0932.2243.1413.4649.1416.7078.0003.243-.0473.4836-.14.7082s-.2287.4287-.4003.6007-.3754.3085-.5998.4017c-.2243.0933-.4648.1414-.7078.1417s-.4836-.0473-.7082-.14c-.2245-.0927-.4287-.2288-.6007-.4003z" fill="#f5f5f5"/><path d="m40.5101 29.0903c-.1714-.1717-.3074-.3754-.4002-.5996-.0927-.2241-.1404-.4644-.1403-.707.0002-.2426.0481-.4828.141-.7069.093-.2241.2291-.4277.4007-.5992.1717-.1714.3754-.3074.5996-.4001.2242-.0928.4644-.1404.707-.1403s.4828.048.7069.1409c.2241.093.4277.2291.5992.4008l1.888 1.8955c-.1251-.1045-.2759-.1737-.4368-.2004s-.3259-.01-.4782.0484c-.432.1389-.8251.3776-1.1475.6969s-.5649.7101-.7079 1.1407c-.0582.1518-.0751.3164-.0488.4768.0262.1605.0946.3111.1981.4364z" fill="#516eb4"/><path d="m41.6143 26.5799c-.1323.1327-.2068.3124-.2072.4999-.0003.1874.0735.3674.2054.5006l2.2781 2.2876c.3278-.3148.5697-.7082.7029-1.1427.0113-.0423.022-.082.0326-.1218l-2.0095-2.0186c-.0652-.0666-.143-.1196-.2288-.156s-.1781-.0553-.2713-.0558-.1856.0176-.2718.0531-.1645.0877-.2304.1537z" fill="#fff" opacity=".4"/><path d="m42.3971 30.9802c-.1058-.1254-.176-.277-.2033-.4388-.0274-.1619-.0108-.3281.0479-.4813.1408-.431.3811-.8227.7016-1.1434.3204-.3207.7119-.5614 1.1427-.7025.1523-.0585.3173-.0752.4782-.0485.1609.0268.3117.096.4368.2005l1.3686 1.3703c.172.1716.3085.3754.4018.5998.0932.2243.1413.4649.1416.7078.0003.243-.0473.4836-.14.7082s-.2287.4287-.4003.6007-.3754.3085-.5998.4017c-.2243.0933-.4648.1414-.7078.1417s-.4836-.0473-.7082-.14c-.2245-.0927-.4287-.2288-.6007-.4003z" fill="#f5f5f5"/><path d="m44.0925 28.221c-.4312.1396-.8235.3789-1.145.6984-.3214.3195-.5631.7102-.7055 1.1405-.0582.1518-.075.3164-.0488.4768.0262.1605.0946.3111.1981.4364l-.1005-.1015-.0816-.0831c-.104-.1251-.1727-.2757-.1989-.4362-.0263-.1606-.0092-.3252.0496-.477.1408-.4309.3811-.8226.7015-1.1433.3205-.3207.712-.5614 1.1428-.7025.1522-.0585.3173-.0752.4782-.0485.1608.0267.3117.0959.4368.2005l.189.189c-.1255-.1042-.2766-.173-.4375-.1993-.161-.0263-.3261-.0091-.4782.0498z" fill="#000" opacity=".1"/><path d="m46.8923 31.335c-.0509.3379-.1948.6549-.4155.9158-.2206.2609-.5095.4553-.8342.5616-.3248.1062-.6726.1202-1.0048.0402-.3323-.08-.6357-.2507-.8765-.493l-1.3641-1.3772c-.1062-.1258-.1765-.2778-.2038-.4401-.0272-.1623-.0103-.329.049-.4825.0514-.1842.1265-.361.2234-.5259l2.2857 2.2897c.7575.7594 1.9738.0949 2.1408-.4886z" fill="#e0e0e0"/><path d="m46.2573 31.2399c-.1327.1318-.3122.2057-.4992.2054-.1871-.0002-.3664-.0745-.4988-.2066l-2.3083-2.3144c.3151-.3288.7092-.5715 1.1446-.7049l.1246-.0278 2.0421 2.0459c.132.1338.2056.3143.2047.5022s-.0763.3678-.2097.5002z" fill="#fff"/><path d="m40.6868 26.3261c.0275-.0222.0562-.043.0859-.0622.0196-.0155.0402-.0295.0618-.042.0232-.0155.0474-.0295.0725-.0418l.0755-.0437.0421-.018c.1157-.056.2371-.0994.3621-.1292l.137-.0246c-.5773.1675-1.2464 1.3832-.495 2.1356.2565.255.6385.6476 1.4328 1.4488-.0944.1603-.1682.332-.2195.5109-.0582.1518-.075.3163-.0488.4768.0263.1604.0946.311.1982.4364l-1.8894-1.8906c-.3459-.3466-.5402-.8162-.5402-1.3058-.0001-.4896.194-.9593.5398-1.3059.0431-.0417.0849-.0784.1292-.1145.0177-.0118.0364-.0219.056-.0302z" fill="#000" opacity=".1"/><path d="m56.6615 41.2816c.0314-.1182.0538-.2385.0672-.36.0066-.0249.01-.1171.0097-.1358.0221-.5156-.0577-1.0304-.2348-1.515s-.4481-.9296-.7974-1.3093l-2.552-2.5474-.024-.0197c-.2699-.2947-.6141-.5114-.9964-.6275-.3824-.1161-.789-.1273-1.1772-.0324-.3882.095-.7437.2925-1.0294.5719s-.491.6305-.5945 1.0165c-.0306.1168-.0509.2361-.0609.3564-.0073.0273-.0079.099-.0104.1383-.0456 1.0406.3236 2.0568 1.0266 2.8254l2.552 2.5474.0215.0191c.2692.296.6132.514.9959.631.3826.1171.7897.1289 1.1785.0342s.7448-.2924 1.0308-.5723c.2859-.2799.4912-.6317.5941-1.0183z" fill="#fafafa" opacity=".7"/><path d="m51.2009 35.8197c-.2762 1.0308.1511 2.5163.9553 3.3201l2.552 2.5474c.8018.8031 1.6787.6202 1.9543-.4082.2755-1.0283-.1535-2.5169-.9553-3.3201l-2.552-2.5473c-.8036-.8064-1.6781-.6227-1.9543.4081z" fill="#e0e0e0"/><path d="m51.9738 34.7227c-.5609-.1262-1.1489-.0306-1.6409.2668-.492.2973-.8499.7735-.9989 1.3287-.0306.1168-.051.2361-.0609.3564-.0073.0273-.0079.0991-.0104.1383-.0343.8935.2303 1.7728.752 2.499-.5208-1.3748-.7964-2.234-.2891-3.3227.2005-.4155.5234-.7596.9253-.986.402-.2264.8636-.3243 1.3229-.2805z" fill="#fff"/><path d="m51.9626 40.4782c-.1034-.1259-.1716-.277-.1977-.4378s-.0092-.3257.0491-.4779c.1409-.4308.3813-.8224.7018-1.1431.3204-.3207.7118-.5614 1.1425-.7028.1522-.0584.3173-.0752.4782-.0484.1608.0267.3116.0959.4368.2004l1.3686 1.3704c.1774.1704.319.3744.4166.6002.0975.2258.1491.4688.1515.7148.0025.2459-.0441.4899-.1371.7176s-.2305.4346-.4045.6085c-.1739.1739-.3808.3113-.6085.4043-.2278.0929-.4718.1395-.7177.137-.246-.0026-.489-.0542-.7147-.1518-.2258-.0976-.4298-.2393-.6001-.4167z" fill="#f5f5f5"/><path d="m50.0736 38.5851c-.3463-.3466-.5407-.8166-.5405-1.3065.0003-.49.1951-.9598.5417-1.3061s.8166-.5407 1.3066-.5405c.4899.0003.9598.1951 1.306.5418l1.8881 1.8955c-.1252-.1045-.276-.1737-.4368-.2004-.1609-.0268-.326-.01-.4782.0484-.4307.1413-.8221.3821-1.1425.7028-.3205.3206-.5609.7123-.7018 1.1431-.0583.1522-.0752.317-.0491.4779.0261.1608.0943.3119.1977.4378z" fill="#516eb4"/><path d="m51.1854 36.0768c-.1324.1327-.2069.3124-.2072.4999-.0004.1874.0734.3674.2053.5006l2.2782 2.2876c.3277-.3149.5697-.7082.7029-1.1428.0113-.0422.0219-.0819.0326-.1217l-2.0095-2.0186c-.0654-.0663-.1432-.1191-.2291-.1553-.0858-.0361-.1779-.055-.271-.0554-.0932-.0005-.1855.0174-.2717.0527-.0861.0353-.1645.0873-.2305.153z" fill="#fff" opacity=".4"/><path d="m51.9626 40.4782c-.1034-.1259-.1716-.277-.1977-.4378s-.0092-.3257.0491-.4779c.1409-.4308.3813-.8224.7018-1.1431.3204-.3207.7118-.5614 1.1425-.7028.1522-.0584.3173-.0752.4782-.0484.1608.0267.3116.0959.4368.2004l1.3686 1.3704c.1774.1704.319.3744.4166.6002.0975.2258.1491.4688.1515.7148.0025.2459-.0441.4899-.1371.7176s-.2305.4346-.4045.6085c-.1739.1739-.3808.3113-.6085.4043-.2278.0929-.4718.1395-.7177.137-.246-.0026-.489-.0542-.7147-.1518-.2258-.0976-.4298-.2393-.6001-.4167z" fill="#f5f5f5"/><path d="m53.6636 37.7178c-.4307.1413-.8221.3821-1.1425.7028-.3205.3207-.5609.7123-.7018 1.1431-.0583.1522-.0752.3171-.0491.4779s.0943.3119.1977.4378l-.1067-.1085-.0816-.083c-.1042-.125-.173-.2756-.1993-.4363-.0263-.1606-.009-.3253.05-.4769.141-.4309.3814-.8225.7018-1.1432s.7118-.5614 1.1426-.7027c.1522-.0585.3173-.0752.4781-.0485.1609.0267.3117.0959.4369.2005l.1889.189c-.1251-.1045-.276-.1737-.4368-.2004-.1609-.0268-.326-.01-.4782.0484z" fill="#000" opacity=".1"/><path d="m56.4625 40.8345c-.0586.3862-.2393.7436-.5155 1.0199-.3468.3465-.817.5411-1.3072.5411-.4902-.0001-.9603-.1948-1.307-.5414l-1.3697-1.376c-.1034-.126-.1716-.277-.1977-.4378-.0261-.1609-.0092-.3257.049-.4779.0514-.1842.1265-.361.2234-.5258l2.2857 2.2896c.7564.7537 1.9727.0893 2.139-.4917z" fill="#e0e0e0"/><path d="m55.8278 40.7361c-.0655.0656-.1434.1176-.229.1531-.0857.0354-.1775.0536-.2702.0535-.0928-.0001-.1845-.0185-.2701-.0542-.0856-.0356-.1633-.0878-.2287-.1536l-2.3083-2.3143c.3157-.3281.7095-.5707 1.1446-.7049l.124-.0254 2.0421 2.046c.0656.0658.1176.1439.1529.2299.0354.0859.0534.178.0529.2709-.0004.093-.0191.1849-.0552.2705-.0361.0857-.0888.1633-.155.2285z" fill="#fff"/><path d="m50.2581 35.823c.0275-.0221.0562-.0429.0859-.0621.0195-.0134.0398-.0293.0618-.042l.0724-.0419.0781-.0429.0396-.0187c.1155-.0553.2367-.0978.3614-.1268.0444-.0126.0895-.0218.1352-.0276-.5773.1674-1.2464 1.3831-.495 2.1355.2558.2576.6403.6508 1.4328 1.4488-.097.1648-.1721.3416-.2235.5258-.0582.1522-.0751.317-.049.4779.0261.1608.0943.3119.1977.4378l-1.8887-1.8931c-.1716-.1714-.3077-.375-.4005-.5991s-.1405-.4643-.1403-.7069c.0002-.2425.0483-.4826.1414-.7066.0932-.2239.2296-.4273.4015-.5984.0403-.0405.0826-.0789.1267-.1152z" fill="#000" opacity=".1"/><path d="m49.6023 22.4616c.0317-.1173.0531-.2372.0641-.3582.0073-.0273.0132-.1189.0129-.1376.043-1.0416-.3292-2.0576-1.0347-2.825l-2.5495-2.5467-.024-.0197c-.2694-.2953-.6133-.5127-.9957-.6294-.3823-.1166-.789-.1282-1.1773-.0334-.3884.0947-.7441.2922-1.0298.5717-.2857.2796-.4909.6309-.5941 1.0171-.0308.1177-.0514.2377-.0615.3589-.0059.0459-.0094.0921-.0105.1383-.0447 1.0399.3247 2.0551 1.0273 2.823l2.552 2.5473.0249.0067c.2692.296.6132.514.9958.6311.3827.117.7898.1288 1.1785.0341.3888-.0946.7449-.2923 1.0308-.5722.286-.2799.4912-.6317.5942-1.0184z" fill="#fafafa" opacity=".7"/><path d="m44.1292 16.9882c-.2762 1.0308.1535 2.517.9577 3.3209l2.5496 2.5466c.8042.8039 1.6812.6209 1.9574-.4099s-.1536-2.517-.9578-3.3208l-2.5495-2.5467c-.8168-.7966-1.6839-.6109-1.9574.4099z" fill="#e0e0e0"/><path d="m44.902 15.899c-.5609-.1262-1.1488-.0306-1.6409.2667-.492.2974-.8499.7735-.9989 1.3288-.0308.1176-.0514.2377-.0616.3589-.0058.0459-.0093.092-.0104.1383-.0335.8933.2311 1.7724.752 2.4989-.5233-1.3754-.7957-2.2364-.2884-3.3251.2005-.4155.5234-.7596.9254-.9861.4019-.2264.8635-.3242 1.3228-.2804z" fill="#fff"/><path d="m44.8956 21.6556c-.1034-.126-.1716-.277-.1977-.4378-.0261-.1609-.0092-.3257.049-.4779.1407-.4306.381-.822.7013-1.1423.3204-.3203.7118-.5605 1.1424-.7011.1522-.0587.3172-.0757.4781-.0494.1609.0262.312.0949.4376.1989l1.3679 1.3728c.1713.172.3072.376.3997.6005.0925.2244.14.4649.1396.7077-.0004.2427-.0487.483-.142.7072-.0932.2241-.2297.4277-.4017.5991-.1719.1713-.376.3072-.6004.3997-.2245.0925-.465.14-.7077.1396-.2428-.0005-.4831-.0487-.7072-.142-.2242-.0932-.4278-.2297-.5991-.4017z" fill="#f5f5f5"/><path d="m43.0091 19.7657c-.335-.3491-.5199-.8156-.5149-1.2994s.1994-.9464.5416-1.2884c.3422-.3421.8048-.5365 1.2886-.5413.4838-.0049.9503.1801 1.2992.5152l1.8881 1.8956c-.1256-.104-.2766-.1727-.4376-.199-.1609-.0262-.3259-.0092-.4781.0495-.4306.1406-.822.3808-1.1423.7011-.3204.3203-.5607.7116-.7013 1.1423-.0583.1521-.0752.317-.0491.4778.0261.1609.0943.3119.1977.4378z" fill="#516eb4"/><path d="m44.1137 17.2509c-.1321.1324-.2064.3117-.2066.4988-.0003.187.0736.3666.2055.4992l2.2781 2.2877c.3281-.3147.57-.7081.7029-1.1428.012-.0447.0226-.0845.0333-.1242l-2.0151-2.0175c-.0654-.0657-.1431-.1179-.2287-.1535-.0856-.0357-.1774-.0541-.2701-.0542s-.1845.0181-.2702.0535-.1635.0875-.2291.153z" fill="#fff" opacity=".4"/><path d="m44.8956 21.6556c-.1034-.126-.1716-.277-.1977-.4378-.0261-.1609-.0092-.3257.049-.4779.1407-.4306.381-.822.7013-1.1423.3204-.3203.7118-.5605 1.1424-.7011.1522-.0587.3172-.0757.4781-.0494.1609.0262.312.0949.4376.1989l1.3679 1.3728c.1713.172.3072.376.3997.6005.0925.2244.14.4649.1396.7077-.0004.2427-.0487.483-.142.7072-.0932.2241-.2297.4277-.4017.5991-.1719.1713-.376.3072-.6004.3997-.2245.0925-.465.14-.7077.1396-.2428-.0005-.4831-.0487-.7072-.142-.2242-.0932-.4278-.2297-.5991-.4017z" fill="#f5f5f5"/><path d="m46.5909 18.8967c-.4307.1406-.8221.3808-1.1424.7011-.3204.3203-.5606.7116-.7013 1.1423-.0582.1521-.0752.317-.0491.4778.0261.1609.0944.3119.1977.4378l-.1067-.1084-.0822-.0806c-.1039-.1257-.1724-.2768-.1985-.4377s-.0089-.3259.0499-.478c.1406-.4306.3809-.822.7013-1.1423.3203-.3203.7117-.5605 1.1423-.7011.1522-.0587.3172-.0757.4781-.0494.161.0262.312.0949.4376.1989l.1889.1891c-.1256-.104-.2766-.1727-.4375-.199-.161-.0263-.326-.0092-.4781.0495z" fill="#000" opacity=".1"/><path d="m49.3902 22.0107c-.0509.3379-.1948.655-.4155.9158-.2206.2609-.5095.4553-.8342.5616-.3248.1063-.6726.1202-1.0049.0402-.3322-.0799-.6356-.2506-.8765-.493l-1.3647-1.3747c-.1034-.1259-.1716-.2769-.1977-.4378-.0261-.1608-.0092-.3257.0491-.4778.051-.1835.1258-.3594.2227-.5234l2.2856 2.2896c.7535.745 1.9698.0806 2.1361-.5005z" fill="#e0e0e0"/><path d="m48.7565 21.9127c-.0655.0655-.1433.1176-.229.153s-.1775.0536-.2702.0535-.1845-.0185-.2701-.0542c-.0856-.0356-.1633-.0878-.2287-.1535l-2.3083-2.3144c.3156-.3274.7092-.5691 1.144-.7024.041-.0115.0826-.0208.1246-.0279l2.0421 2.046c.1319.1332.2056.3134.2048.5009-.0008.1874-.0761.3669-.2092.499z" fill="#fff"/><path d="m43.1855 17.0014.0859-.0622.0618-.042.0725-.0418.0755-.0436.0421-.018c.116-.0543.237-.0968.3615-.1268l.1376-.027c-.5779.1699-1.2464 1.3831-.495 2.1355.2558.2576.6378.6501 1.4328 1.4488-.0969.1639-.1718.3399-.2228.5233-.0582.1522-.0751.3171-.049.4779s.0943.3119.1977.4378l-1.8894-1.8906c-.3459-.3471-.5401-.8171-.5401-1.3071.0001-.4901.1944-.9601.5404-1.3071.0424-.0392.0849-.0784.1292-.1144z" fill="#000" opacity=".1"/><path d="m59.1604 31.9553c.0311-.1173.0534-.2368.0665-.3575.0073-.0274.0107-.1196.0104-.1383.044-1.0411-.3273-2.057-1.0322-2.8243l-2.552-2.5474-.0273-.0073c-.2694-.2953-.6133-.5127-.9957-.6294-.3823-.1166-.789-.1282-1.1774-.0334-.3883.0947-.744.2922-1.0297.5718-.2857.2795-.4909.6308-.5941 1.017-.0308.1177-.0514.2377-.0615.3589-.0067.0249-.0073.0966-.0105.1383-.0453 1.04.3242 2.0554 1.0273 2.823l2.552 2.5473.0248.0067c.2693.296.6133.514.9959.6311.3826.117.7898.1288 1.1785.0342.3888-.0947.7449-.2924 1.0308-.5723.286-.2799.4912-.6317.5942-1.0184z" fill="#fafafa" opacity=".7"/><path d="m53.6988 26.496c-.2756 1.0284.151 2.5164.9552 3.3202l2.552 2.5473c.8018.8032 1.6788.6202 1.955-.4106s-.1536-2.517-.9553-3.3201l-2.552-2.5474c-.8042-.8038-1.6787-.6202-1.9549.4106z" fill="#e0e0e0"/><path d="m54.4728 25.3958c-.5608-.1255-1.1485-.0297-1.6404.2676-.4918.2973-.8499.773-.9994 1.3279-.0308.1176-.0514.2377-.0616.3589-.0066.0248-.0072.0966-.0104.1383-.0335.8933.2311 1.7725.752 2.499-.5208-1.3748-.7957-2.2365-.289-3.3227.2007-.4156.5237-.7599.9256-.9867.402-.2268.8637-.3253 1.3232-.2823z" fill="#fff"/><path d="m54.4619 31.1511c-.1033-.1254-.1715-.276-.1977-.4364-.0263-.1604-.0096-.3249.0484-.4768.1408-.4309.3811-.8226.7015-1.1433.3205-.3207.712-.5614 1.1428-.7025.1522-.0587.3172-.0757.4781-.0495.161.0263.312.095.4376.199l1.3679 1.3728c.3463.3466.5407.8166.5405 1.3066-.0003.4899-.1951.9597-.5417 1.306-.3467.3463-.8166.5407-1.3066.5405s-.9598-.1951-1.3061-.5417z" fill="#f5f5f5"/><path d="m52.5721 29.2604c-.3462-.3466-.5407-.8166-.5404-1.3065.0002-.49.1951-.9598.5417-1.3061s.8166-.5407 1.3065-.5405c.49.0003.9598.1951 1.3061.5417l1.8887 1.8931c-.1256-.104-.2766-.1726-.4376-.1989-.1609-.0263-.3259-.0092-.4781.0494-.4308.1412-.8223.3818-1.1427.7025-.3205.3207-.5608.7124-.7016 1.1434-.0581.1515-.0752.3158-.0494.476.0258.1603.0935.3109.1962.4365z" fill="#516eb4"/><path d="m53.6841 26.7524c-.1323.1327-.2068.3124-.2072.4999-.0003.1874.0735.3674.2054.5006l2.2782 2.2876c.3274-.3151.5692-.7084.7028-1.1427.0113-.0423.0226-.0845.0333-.1242l-2.0095-2.0186c-.0654-.0666-.1433-.1196-.2293-.1558s-.1783-.0549-.2717-.0552c-.0933-.0002-.1857.0181-.2719.0539-.0861.0357-.1644.0883-.2301.1545z" fill="#fff" opacity=".4"/><path d="m54.4619 31.1511c-.1033-.1254-.1715-.276-.1977-.4364-.0263-.1604-.0096-.3249.0484-.4768.1408-.4309.3811-.8226.7015-1.1433.3205-.3207.712-.5614 1.1428-.7025.1522-.0587.3172-.0757.4781-.0495.161.0263.312.095.4376.199l1.3679 1.3728c.3463.3466.5407.8166.5405 1.3066-.0003.4899-.1951.9597-.5417 1.306-.3467.3463-.8166.5407-1.3066.5405s-.9598-.1951-1.3061-.5417z" fill="#f5f5f5"/><path d="m56.1621 28.3933c-.4308.1412-.8223.3818-1.1427.7025-.3205.3208-.5608.7125-.7016 1.1434-.0584.1512-.0758.3152-.0504.4753.0253.1602.0925.3107.1947.4366l-.1073-.106-.0816-.0831c-.1038-.1252-.1723-.2758-.1985-.4363-.0263-.1605-.0093-.3251.0492-.4769.1408-.4309.3811-.8226.7016-1.1433.3204-.3207.7119-.5614 1.1427-.7026.1522-.0586.3172-.0757.4781-.0494.161.0263.312.0949.4376.1989l.1889.1891c-.1252-.1029-.2754-.1708-.4354-.1968-.1599-.026-.3239-.0093-.4753.0486z" fill="#000" opacity=".1"/><path d="m58.9616 31.5075c-.0509.3379-.1948.6549-.4154.9158-.2207.2609-.5096.4553-.8343.5616-.3248.1062-.6726.1201-1.0049.0402-.3322-.08-.6356-.2507-.8764-.4931l-1.3684-1.3809c-.1033-.1255-.1715-.2761-.1978-.4365-.0262-.1604-.0095-.3249.0485-.4767.0512-.1843.1263-.3611.2234-.5258.8006.7975 1.7752 1.7801 2.2856 2.2896.7564.7537 1.9707.0968 2.1397-.4942z" fill="#e0e0e0"/><path d="m58.3263 31.4119c-.0655.0656-.1433.1176-.229.1531-.0857.0354-.1775.0536-.2702.0535s-.1845-.0185-.2701-.0542c-.0856-.0356-.1633-.0878-.2287-.1536l-2.3083-2.3143c.3156-.3274.7093-.5691 1.144-.7024.0432-.0124.0852-.0198.1246-.0279l2.0421 2.046c.1313.1335.2046.3135.2038.5008-.0009.1873-.0757.3667-.2082.499z" fill="#fff"/><path d="m52.7586 26.4885c.0275-.0222.0562-.043.0858-.0622.0196-.0155.0403-.0295.0619-.042l.0731-.0443c.0249-.0151.0508-.0286.0774-.0405.0124-.0078.0257-.0141.0396-.0187.1157-.056.2371-.0994.3621-.1292.0426-.0099.0876-.0192.1345-.0252-.5773.1674-1.2465 1.3831-.4943 2.133.2557.2576.6402.6508 1.4327 1.4488-.0971.1648-.1722.3416-.2234.5258-.0581.1528-.0745.3182-.0475.4794.027.1611.0964.3122.2011.4377l-1.8894-1.8906c-.3459-.3466-.5401-.8163-.5397-1.306s.1953-.9591.5418-1.3051c.04-.0418.0826-.081.1274-.1176z" fill="#000" opacity=".1"/><path d="m52.1006 13.1372c.0318-.1182.0535-.2388.0647-.3607.0067-.0248.0132-.1189.0123-.1352.0199-.5174-.0625-1.0337-.2427-1.5191-.1801-.4855-.4543-.9306-.8069-1.30982l-2.5496-2.54668-.0273-.00732c-.2698-.29453-.6137-.51118-.9958-.62731-.3822-.11613-.7885-.12746-1.1765-.03282-.3881.09464-.7436.29177-1.0293.57081-.2858.27903-.4914.62971-.5952 1.01537-.0308.11763-.0514.2377-.0616.35887-.0063.04584-.0098.09203-.0104.1383-.045 1.04053.3241 2.0565 1.0266 2.8255l2.552 2.5473.0215.0191c.2692.296.6133.514.9959.6311.3826.117.7897.1288 1.1785.0341s.7448-.2923 1.0308-.5723c.2859-.2799.4912-.6316.5941-1.0183z" fill="#fafafa" opacity=".7"/><path d="m46.6258 7.67125c-.2763 1.0308.1535 2.51695.9577 3.32085l2.547 2.546c.8043.8038 1.6812.6208 1.9568-.4075.2755-1.0283-.1535-2.517-.9578-3.3208l-2.5495-2.54668c-.811-.80832-1.678-.62268-1.9542.40813z" fill="#e0e0e0"/><path d="m47.401 6.57211c-.5608-.12556-1.1485-.02971-1.6403.26756-.4919.29728-.8499.773-.9995 1.32791-.0308.11763-.0514.23771-.0615.35888-.0064.04584-.0098.09203-.0105.1383-.0342.89345.2304 1.77284.752 2.49894-.5232-1.37544-.7957-2.23645-.289-3.32263.2007-.4156.5237-.7599.9256-.98671.402-.22681.8637-.3253 1.3232-.28225z" fill="#fff"/><path d="m47.3949 12.3288c-.1035-.1254-.1719-.276-.1981-.4365-.0262-.1604-.0094-.3249.0488-.4767.1408-.431.3812-.8227.7016-1.1434.3204-.32071.7119-.56139 1.1428-.70253.1522-.05845.3173-.07519.4781-.04846.1609.02672.3117.09592.4369.20046l1.3685 1.37033c.1757.171.3155.3753.4115.6008.096.2256.1462.468.1476.7131.0014.2452-.0459.4881-.1392.7148-.0934.2267-.2308.4325-.4045.6056-.1736.173-.3799.3098-.6069.4024s-.4701.1391-.7152.1368c-.2452-.0022-.4874-.0532-.7126-.1499-.2253-.0967-.4291-.2373-.5995-.4135z" fill="#f5f5f5"/><path d="m45.5087 10.436c-.1715-.1717-.3075-.3754-.4002-.59956-.0928-.22418-.1404-.46443-.1403-.70704.0001-.2426.048-.48281.1409-.7069.093-.22409.2292-.42769.4008-.59915.1716-.17147.3753-.30745.5995-.40019.2242-.09273.4644-.1404.707-.14029.2427.00011.4829.04801.707.14095.224.09295.4276.22912.5991.40075l1.8881 1.89557c-.1252-.10453-.276-.17374-.4369-.20046-.1608-.02672-.3259-.00999-.4781.04846-.4309.14115-.8224.38183-1.1428.70256-.3204.3207-.5608.7124-.7016 1.1433-.0582.1518-.075.3164-.0488.4768.0262.1605.0946.3111.1981.4364z" fill="#516eb4"/><path d="m46.6119 7.92855c-.1324.13273-.2069.31242-.2072.49986-.0004.18745.0734.36742.2053.50063l2.2782 2.28766c.3278-.3149.5697-.7083.7029-1.1428.0113-.0422.0219-.08198.0326-.12172l-2.0095-2.01862c-.0652-.06664-.143-.11967-.2288-.15604-.0859-.03636-.1781-.05532-.2713-.05579-.0933-.00046-.1857.01758-.2719.05308s-.1645.08776-.2303.15374z" fill="#fff" opacity=".4"/><path d="m47.3949 12.3288c-.1035-.1254-.1719-.276-.1981-.4365-.0262-.1604-.0094-.3249.0488-.4767.1408-.431.3812-.8227.7016-1.1434.3204-.32071.7119-.56139 1.1428-.70253.1522-.05845.3173-.07519.4781-.04846.1609.02672.3117.09592.4369.20046l1.3685 1.37033c.1757.171.3155.3753.4115.6008.096.2256.1462.468.1476.7131.0014.2452-.0459.4881-.1392.7148-.0934.2267-.2308.4325-.4045.6056-.1736.173-.3799.3098-.6069.4024s-.4701.1391-.7152.1368c-.2452-.0022-.4874-.0532-.7126-.1499-.2253-.0967-.4291-.2373-.5995-.4135z" fill="#f5f5f5"/><path d="m49.0902 9.56984c-.4308.14114-.8223.38182-1.1427.70256-.3205.3207-.5608.7124-.7016 1.1433-.0582.1518-.0751.3164-.0488.4768.0262.1605.0946.3111.1981.4364l-.1074-.1059-.0815-.0831c-.104-.1251-.1727-.2758-.199-.4363-.0262-.1606-.0091-.3252.0496-.4769.1408-.431.3812-.8227.7016-1.1434.3205-.3207.712-.56138 1.1428-.70252.1522-.05845.3173-.07519.4782-.04846.1608.02672.3116.09593.4368.20046l.1889.18906c-.1251-.10454-.2759-.17374-.4368-.20046s-.3259-.00999-.4782.04846z" fill="#000" opacity=".1"/><path d="m51.8902 12.6786c-.0587.3863-.2393.7437-.5156 1.0199-.1717.1725-.3758.3094-.6005.4029s-.4657.1418-.709.1421c-.2434.0003-.4845-.0473-.7094-.1403-.225-.0929-.4294-.2293-.6016-.4013l-1.3641-1.3772c-.1035-.1253-.1719-.2759-.1981-.4364-.0262-.1604-.0094-.325.0488-.4768.0514-.1842.1265-.361.2234-.5258l2.2857 2.2896c.7557.7562 1.972.0918 2.1404-.4967z" fill="#e0e0e0"/><path d="m51.2554 12.588c-.1327.1318-.3122.2057-.4993.2055-.187-.0002-.3664-.0746-.4987-.2067l-2.3083-2.3143c.315-.32889.7091-.57158 1.1446-.70495l.1246-.02785 2.0421 2.046c.132.1337.2056.3143.2046.5022-.0009.1879-.0763.3677-.2096.5001z" fill="#fff"/><path d="m45.6847 7.67473c.0275-.02219.0562-.04294.0859-.06218.0195-.01548.0402-.02951.0618-.042l.0724-.04182.0756-.04364.0421-.018c.1157-.05606.2371-.0994.3621-.12927.0453-.01181.0913-.02083.1377-.027-.5773.16744-1.2465 1.38312-.495 2.13555.2564.25507.6377.65013 1.4327 1.44873-.0969.1649-.172.3417-.2234.5259-.0582.1518-.0751.3163-.0488.4768.0262.1604.0946.311.1981.4364l-1.8894-1.8906c-.3459-.3466-.5401-.81619-.5402-1.30581-.0001-.48961.1941-.95927.5399-1.30592.0431-.04169.0849-.07842.1291-.11447.0182-.01631.0381-.03061.0594-.04267z" fill="#000" opacity=".1"/><path d="m61.6586 22.6307c.0313-.1181.0538-.2385.0671-.36.0067-.0248.0101-.1171.0098-.1358.0221-.5155-.0577-1.0303-.2348-1.515-.1772-.4846-.4481-.9295-.7974-1.3093l-2.552-2.5474-.024-.0197c-.2699-.2947-.6141-.5114-.9965-.6275s-.7889-.1273-1.1771-.0323c-.3882.0949-.7437.2924-1.0294.5718s-.491.6305-.5945 1.0165c-.0306.1168-.051.2361-.0609.3564-.0073.0273-.0079.0991-.0104.1383-.0456 1.0406.3236 2.0568 1.0266 2.8255l2.552 2.5473.0248.0067c.2692.296.6132.514.9959.631.3826.1171.7897.1289 1.1785.0342s.7448-.2924 1.0308-.5723c.2859-.2799.4912-.6317.5941-1.0183z" fill="#fafafa" opacity=".7"/><path d="m56.1988 17.1689c-.2762 1.0308.151 2.5163.9552 3.3201l2.552 2.5474c.8018.8032 1.6788.6202 1.955-.4106s-.1536-2.517-.9553-3.3202l-2.552-2.5473c-.8042-.8039-1.6787-.6202-1.9549.4106z" fill="#e0e0e0"/><path d="m56.9708 16.0714c-.5608-.1262-1.1488-.0307-1.6408.2667s-.85.7735-.999 1.3287c-.0305.1169-.0509.2361-.0608.3564-.0074.0274-.0079.0991-.0105.1383-.0342.8935.2304 1.7729.752 2.499-.5208-1.3748-.7964-2.234-.289-3.3227.2004-.4154.5234-.7596.9253-.986s.8636-.3243 1.3228-.2804z" fill="#fff"/><path d="m56.9605 21.8272c-.1034-.126-.1716-.277-.1977-.4378-.0261-.1609-.0092-.3258.049-.4779.141-.4309.3814-.8225.7018-1.1432.3204-.3206.7118-.5614 1.1426-.7027.1523-.0577.3172-.074.4779-.0473s.3115.0955.4371.1993l1.3679 1.3728c.1714.1717.3074.3754.4001.5996.0928.2241.1405.4644.1403.707-.0001.2426-.048.4828-.1409.7069-.093.2241-.2291.4277-.4008.5991-.1716.1715-.3753.3075-.5995.4002-.2242.0928-.4644.1404-.707.1403s-.4828-.048-.7069-.1409c-.2241-.093-.4277-.2291-.5992-.4008z" fill="#f5f5f5"/><path d="m55.0712 19.9335c-.3463-.3466-.5407-.8166-.5405-1.3065.0002-.49.1951-.9598.5417-1.3061s.8166-.5407 1.3065-.5405c.49.0003.9598.1951 1.3061.5417l1.8881 1.8956c-.1256-.1038-.2764-.1726-.4371-.1993-.1607-.0266-.3256-.0103-.4779.0473-.4308.1413-.8222.3821-1.1426.7028-.3204.3206-.5608.7122-.7018 1.1431-.0582.1522-.0751.317-.049.4779.0261.1608.0943.3118.1977.4378z" fill="#516eb4"/><path d="m56.1829 17.4257c-.1323.1327-.2068.3124-.2072.4998-.0003.1875.0735.3674.2054.5007l2.2781 2.2876c.3278-.3149.5697-.7082.7029-1.1428.0113-.0422.022-.082.0326-.1217l-2.0095-2.0186c-.0653-.0663-.1432-.1191-.229-.1553-.0858-.0361-.1779-.055-.2711-.0555-.0931-.0004-.1854.0175-.2716.0528s-.1645.0873-.2306.153z" fill="#fff" opacity=".4"/><path d="m56.9605 21.8272c-.1034-.126-.1716-.277-.1977-.4378-.0261-.1609-.0092-.3258.049-.4779.141-.4309.3814-.8225.7018-1.1432.3204-.3206.7118-.5614 1.1426-.7027.1523-.0577.3172-.074.4779-.0473s.3115.0955.4371.1993l1.3679 1.3728c.1714.1717.3074.3754.4001.5996.0928.2241.1405.4644.1403.707-.0001.2426-.048.4828-.1409.7069-.093.2241-.2291.4277-.4008.5991-.1716.1715-.3753.3075-.5995.4002-.2242.0928-.4644.1404-.707.1403s-.4828-.048-.7069-.1409c-.2241-.093-.4277-.2291-.5992-.4008z" fill="#f5f5f5"/><path d="m58.661 19.0664c-.4307.1413-.8221.3821-1.1426.7028-.3204.3206-.5608.7122-.7017 1.1431-.0583.1522-.0752.317-.0491.4779.0261.1608.0943.3118.1977.4378l-.1067-.1085-.0822-.0806c-.1039-.1257-.1724-.2767-.1985-.4377-.0262-.1609-.009-.3259.0498-.478.141-.4308.3814-.8224.7018-1.1431s.7118-.5614 1.1425-.7027c.1523-.0585.3174-.0752.4782-.0485.1609.0267.3117.0959.4368.2004l.189.1891c-.1256-.1038-.2763-.1726-.437-.1992-.1607-.0267-.3257-.0104-.478.0472z" fill="#000" opacity=".1"/><path d="m61.4606 22.1831c-.0587.3863-.2393.7436-.5156 1.0199-.3467.3465-.8169.5412-1.3071.5411-.4903-.0001-.9604-.1948-1.3071-.5414l-1.3697-1.376c-.1034-.1259-.1716-.277-.1977-.4378s-.0092-.3257.0491-.4779c.0513-.1842.1264-.361.2234-.5258l2.2856 2.2896c.7564.7538 1.9727.0893 2.1391-.4917z" fill="#e0e0e0"/><path d="m60.826 22.0854c-.0655.0656-.1433.1176-.229.1531-.0857.0354-.1775.0536-.2702.0535s-.1845-.0185-.2701-.0542c-.0856-.0356-.1633-.0878-.2287-.1536l-2.3177-2.3088c.3156-.3282.7095-.5708 1.1446-.705l.1239-.0253 2.0421 2.046c.1316.1317.2059.3099.2069.4961.0009.1862-.0716.3652-.2018.4982z" fill="#fff"/><path d="m55.2556 17.1717c.0276-.0222.0563-.043.0859-.0622.0196-.0134.0398-.0293.0619-.042l.0724-.0418.0781-.043.0396-.0187c.1155-.0552.2367-.0977.3614-.1267.0443-.0126.0895-.0219.1352-.0277-.578.1699-1.2465 1.3831-.495 2.1355.2558.2576.6402.6508 1.4327 1.4488-.0969.1649-.172.3416-.2234.5258-.0582.1522-.0752.3171-.049.4779.0261.1608.0943.3119.1977.4378l-1.8888-1.8931c-.1716-.1714-.3077-.375-.4005-.5991s-.1404-.4643-.1402-.7068c.0002-.2426.0482-.4827.1414-.7066.0931-.224.2296-.4274.4015-.5985.0402-.0405.0825-.0789.1266-.1151z" fill="#000" opacity=".1"/><path d="m27.877 11.6091c-.7508-.1594-1.5121-.2644-2.278-.3141-.7061-.0402-1.3838-.2916-1.9452-.7216-.5615-.4299-.9809-1.01866-1.2038-1.68982l-1.219-3.7873-12.36574 3.98014 1.21904 3.78728c.2126.6762.2165 1.4007.0112 2.0791-.20539.6784-.6105 1.2791-1.16247 1.7237-.5931.4872-1.15025 1.0165-1.66709 1.584-2.32016 2.5608-3.04475 5.1717-2.352 7.324l9.19196 28.5582c.6928 2.1523 2.8087 3.8489 6.1826 4.577 6.7567 1.4534 15.9773-1.5144 20.6022-6.6312 2.3202-2.5609 3.0477-5.1703 2.3542-7.3248l-9.1941-28.5647c-.6825-2.158-2.8064-3.8496-6.1738-4.5799z" fill="#516eb4"/><path d="m27.877 11.6091c-.7508-.1594-1.5121-.2644-2.278-.3141-.7061-.0402-1.3838-.2916-1.9452-.7216-.5615-.4299-.9809-1.01866-1.2038-1.68982l-1.219-3.7873-12.36574 3.98014 1.21904 3.78728c.2126.6762.2165 1.4007.0112 2.0791-.20539.6784-.6105 1.2791-1.16247 1.7237-.5931.4872-1.15025 1.0165-1.66709 1.584-2.32016 2.5608-3.04475 5.1717-2.352 7.324l9.19196 28.5582c.6928 2.1523 2.8087 3.8489 6.1826 4.577 6.7567 1.4534 15.9773-1.5144 20.6022-6.6312 2.3202-2.5609 3.0477-5.1703 2.3542-7.3248l-9.1941-28.5647c-.6825-2.158-2.8064-3.8496-6.1738-4.5799z" fill="#fff" opacity=".7"/><path d="m31.3967 57.8481c8.0435-2.589 13.3641-8.4156 11.884-13.0141s-9.2005-6.2276-17.244-3.6387c-8.0435 2.589-13.3642 8.4156-11.884 13.0141 1.4801 4.5985 9.2005 6.2276 17.244 3.6387z" fill="#516eb4"/><path d="m31.3967 57.8481c8.0435-2.589 13.3641-8.4156 11.884-13.0141s-9.2005-6.2276-17.244-3.6387c-8.0435 2.589-13.3642 8.4156-11.884 13.0141 1.4801 4.5985 9.2005 6.2276 17.244 3.6387z" fill="#fff" opacity=".5"/><path d="m23.6941 8.69841c-3.1785-.68459-7.1351.00841-10.4102 1.61649l-.776-2.41093-3.64264 1.17245 1.21834 3.78508c.2135.6764.2179 1.4014.0127 2.0803-.20531.6789-.61074 1.28-1.16327 1.7247-.59149.489-1.14851 1.0182-1.66709 1.584-.02411.0077-.03467.0426-.05744.062-2.27335 2.541-2.98237 5.1251-2.29244 7.2686l9.18704 28.5428c.6942 2.1567 2.8087 3.8489 6.1826 4.577 4.8553 1.0471 10.9876-.2059 15.7745-2.8883-11.5868 4.6268-16.0529.5205-17.2225-3.1134l-8.93735-27.767c-.41269-1.2821-.56055-2.4028.05532-3.5855.56793.2602 1.16373.4548 1.77573.5798 4.8205 1.0365 11.4066-1.0834 14.7131-4.7357 3.3064-3.6523 2.0715-7.45147-2.7504-8.49239z" fill="#fff" opacity=".4"/><path d="m27.877 11.6091c-.7508-.1595-1.5121-.2644-2.278-.3142-.7061-.0402-1.3838-.2916-1.9453-.7215-.5614-.43-.9808-1.01874-1.2037-1.68989l-1.219-3.78731-1.3501.43456 1.6317 5.06944c.376 1.1682 1.7396 1.9556 3.108 2.2166s5.5851.6768 7.0473 2.146c1.3931 1.3972 2.1849 4.8116 3.4547 8.7567l6.4901 20.1639c.824 2.5599.9488 6.6075-3.0883 10.3644.8602-.641 1.6595-1.3598 2.3879-2.1473 2.3202-2.5609 3.073-5.0841 2.3436-7.3504l-9.1941-28.5647c-.6935-2.1545-2.8174-3.8461-6.1848-4.5763z" fill="#fff" opacity=".4"/><path d="m27.1737 9.0489.3471 1.0783c.4938 1.5342-.0186 3.4068-1.6788 5.2449-3.3072 3.6502-9.8911 5.7693-14.7174 4.7371-1.0539-.2008-2.05117-.6294-2.92218-1.2557-.69246-.498-1.21132-1.2007-1.48354-2.009l-.36048-1.12c-.07895-.2338-.1271-.4768-.14324-.7231-.16699-1.383.41733-2.9643 1.81459-4.5073.03908-.0466.08164-.0903.12732-.1305 3.35073-3.57467 9.83503-5.62788 14.59013-4.60658 2.035.43829 3.4429 1.37834 4.1112 2.59033.134.21975.2399.45544.3153.70155z" fill="#f0f0f0"/><path d="m19.5539 18.1001-1.2324-3.829c-.4875-1.5145.5556.4113-2.1007 1.2663-2.3035.7415-6.0628-3.9117-8.05209-5.1774-.04567.0402-.08823.0838-.12731.1305-1.39726 1.543-1.98158 3.1243-1.8146 4.5073.01615.2462.0643.4893.14324.7231l.36049 1.12c.27222.8083.79107 1.5109 1.48354 2.009.871.6263 1.86833 1.0548 2.92213 1.2557 4.8264 1.0322 11.4103-1.087 14.7174-4.7371-2.5159 2.0579-5.8348 4.1759-6.2997 2.7316z" fill="#e0e0e0"/><path d="m18.6938 18.3818c5.746-1.8494 9.5384-6.0384 8.4704-9.35624-1.0679-3.31786-6.5917-4.50822-12.3377-2.65875-5.74605 1.84947-9.53842 6.03839-8.4705 9.35629s6.5917 4.5082 12.3378 2.6587z" fill="#455a64"/><path d="m26.013 5.44094.6927 2.15228c.0822.24389.1337.4971.1531.75375.1642 1.37425-.4311 2.95903-1.829 4.49993-1.4806 1.6375-3.6168 2.9588-5.9485 3.823-2.8939 1.0863-6.1004 1.4798-8.7718.9053-1.0493-.2002-2.04368-.6223-2.91649-1.2382-.4832-.3556-.88343-.8119-1.17303-1.3373-.13148-.2124-.23508-.4408-.30824-.6797l-.70898-2.2027c-.49381-1.5342.02276-3.39359 1.67135-5.23037.14947-.15937.29893-.31874.46217-.47287 3.43012-3.36564 9.65422-5.25771 14.25522-4.26422 2.4164.52598 3.9329 1.74312 4.4215 3.2911z" fill="#f0f0f0"/><path d="m17.517 14.7261c5.746-1.8495 9.5384-6.03843 8.4705-9.3563-1.0679-3.31786-6.5917-4.508223-12.3378-2.65875-5.74601 1.84947-9.53838 6.03842-8.47046 9.35625 1.06792 3.3179 6.59176 4.5083 12.33776 2.6588z" fill="#fafafa"/><path d="m7.38989 16.3307c.87281.6159 1.86719 1.038 2.91651 1.2382 2.6721.5767 5.8778.181 8.7718-.9053-.2149-.7653.0219-1.4801-2.8718-1.1292-2.4029.2897-6.0494.4281-8.40566-1.5419-2.16494-1.8114-2.30238-5.064-.47337-7.58773-.16324.15413-.31271.3135-.46217.47287-1.65212 1.82582-2.16869 3.68526-1.67135 5.23036l.70897 2.2027c.07316.2389.17676.4673.30825.6797.29092.5271.69319.9844 1.17882 1.3403z" fill="#e0e0e0"/><path d="m33.164 27.862c-4.6656 5.1106-13.9366 8.0946-20.7074 6.6651-3.38575-.7122-5.50468-2.3958-6.1939-4.5371l4.5515 14.141c.6893 2.1413 2.8082 3.8249 6.194 4.5371 6.7707 1.4295 16.0417-1.5545 20.7074-6.6651 2.3346-2.5534 3.0737-5.1569 2.3845-7.2982l-4.5516-14.141c.6893 2.1413-.0498 4.7448-2.3845 7.2982z" fill="#516eb4"/><path d="m32.7282 26.5073c-4.6664 5.1083-13.9374 8.0924-20.7074 6.665-3.38647-.7144-5.5047-2.3957-6.19392-4.537l4.55152 14.141c.69 2.1435 2.8082 3.8248 6.194 4.5371 6.77 1.4273 16.041-1.5567 20.7074-6.6651 2.3339-2.5557 3.0737-5.1569 2.3845-7.2982l-4.5523-14.1432c.6899 2.1435-.0498 4.7447-2.3838 7.3004z" fill="#fafafa"/><path d="m20.3079 39.7058c-.2974-.8807-.7677-1.6931-1.3835-2.3895l-.0056-.0176c-.7032-.7944-1.5403-1.3812-2.3148-1.5479-1.1297-.2411-1.6398.9172-1.552 2.2797.0103.137-.1366.1916-.1994.0642-.8184-1.5506-2.2713-3.2091-3.4338-3.4541-.7782-.1632-1.3287.1253-1.58316.7175-.2143.5141-.21095 1.2459.06989 2.1109.86347 2.6827 3.25847 4.5701 5.42917 6.6699l2.2498 1.9776 1.1286-1.2581c1.0214-1.3955 2.4626-2.4713 1.5948-5.1526z" fill="#516eb4"/><path d="m13.6387 40.8845.0976-1.8383c-.0015-.057.0156-.1129.0486-.1593.0331-.0464.0803-.0808.1347-.098.0548-.0173.1139-.0151.1673.006.0535.021.0981.0598.1264.1099l2.1764 3.4477.092-2.3517c.0024-.0538.0215-.1054.0547-.1478.0333-.0424.0789-.0733.1306-.0884.0514-.0131.1057-.0098.1552.0094s.0918.0533.1211.0976l1.2267 1.8498 2.3568.5064-.0234.085c-.0377.117-.0814.232-.131.3445l-.0262.0616-2.3938-.5163c-.0651-.0138-.1221-.0528-.1584-.1086l-.8453-1.2736-.0945 2.4493c-.0023.0553-.0225.1085-.0574.1516-.035.043-.0828.0737-.1366.0874-.0534.0128-.1096.008-.1601-.0136-.0506-.0217-.0928-.059-.1204-.1066l-2.0911-3.3179-.1216 1.1252c.0017.039-.0056.0778-.0214.1135s-.0396.0673-.0696.0923c-.0303.0261-.0662.0449-.105.0548-.0387.01-.0792.0108-.1184.0026l-1.8846-.4069-.018-.0184c-.1324-.1484-.262-.2954-.3856-.4467l-.1496-.1792z" fill="#fafafa"/><g fill="#e0e0e0"><path d="m24.877 37.2389c-.5589.1799-1.1278.3436-1.7111.4927-.0591.0146-.1215.0053-.1737-.0259-.0522-.0313-.0899-.0819-.1049-.1408-.0147-.0591-.0054-.1215.0259-.1737.0312-.0522.0818-.09.1408-.1049 3.9263-1.005 7.3411-2.7427 9.8842-5.0318.0225-.0203.0488-.036.0774-.0461s.0589-.0144.0891-.0128c.0303.0015.06.0091.0873.0222.0274.013.0519.0313.0722.0539.0203.0225.0359.0488.046.0774s.0145.0589.0129.0892c-.0016.0302-.0091.0599-.0222.0873-.0131.0273-.0314.0518-.0539.0721-2.216 1.9977-5.0868 3.5844-8.37 4.6412z"/><path d="m25.6431 39.619c-.5589.1799-1.1278.3437-1.7111.4927-.059.0147-.1215.0053-.1737-.0259s-.0899-.0819-.1049-.1408c-.0147-.0591-.0054-.1215.0259-.1737.0312-.0522.0818-.0899.1408-.1049 3.9263-1.005 7.3411-2.7426 9.8842-5.0318.0455-.041.1054-.0622.1666-.0589.0611.0032.1185.0306.1594.0761.041.0455.0622.1054.0589.1666-.0032.0611-.0306.1185-.0761.1594-2.216 1.9977-5.0868 3.5844-8.37 4.6412z"/><path d="m26.4099 42.0016c-.5589.1799-1.1278.3437-1.7112.4928-.0593.0149-.1221.0056-.1747-.0258-.0525-.0314-.0904-.0824-.1053-.1417s-.0057-.1222.0257-.1747.0824-.0904.1417-.1054c3.9271-1.0027 7.3419-2.7404 9.8849-5.0296.0453-.0407.1049-.0618.1657-.0588.0609.0031.118.0302.1589.0753.0206.0224.0365.0487.0468.0773.0104.0286.0149.059.0135.0894-.0015.0304-.009.0602-.022.0876-.0131.0275-.0314.0521-.054.0725-2.2175 1.9933-5.0868 3.5844-8.37 4.6411z"/></g><path d="m55.1473 31.808c0-1.416-.9351-2.8349-2.8082-3.9155-3.7433-2.161-9.8139-2.161-13.5572 0-1.8732 1.0806-2.8083 2.4995-2.8083 3.9155v24.6121c0 1.4159.9351 2.8319 2.8083 3.9125 3.7433 2.164 9.8139 2.164 13.5572 0 1.8731-1.0806 2.8082-2.4966 2.8082-3.9125z" fill="#516eb4"/><path d="m51.4639 27.4509v33.3276c.3043-.1285.6016-.2732.8905-.4334.5572-.3147 1.0694-.7032 1.5229-1.1547v-30.1394c-.454-.4518-.9661-.8412-1.5229-1.1578-.2968-.1603-.5937-.3057-.8905-.4423z" fill="#fff" opacity=".4"/><path d="m48.9482 61.5948c.4662-.1025.9269-.2283 1.3804-.377v-34.2063c-.4531-.1501-.9139-.2759-1.3804-.377z" fill="#fff" opacity=".4"/><path d="m54.9811 30.7868c-.5946-.7994-1.3551-1.4607-2.2294-1.9384-3.6958-2.1344-9.526-2.2798-13.5186-.4423v-.7481c-.1514.0772-.2969.1514-.4512.2345-1.8732 1.0806-2.8083 2.4995-2.8083 3.9155v3.7463 15.4987 5.3671c0 1.4159.9351 2.8319 2.8083 3.9125 3.7433 2.164 9.8139 2.164 13.5572 0 .635-.3551 1.2117-.8056 1.7099-1.3359-1.7811 1.6654-6.2339 2.5826-9.5201 1.9325-3.2861-.6501-5.2958-2.7518-5.2958-4.2479v-4.8743c1.8494 1.0004 4.2687 1.4842 6.6317 1.4842v-9.9564c-2.3749 0-4.7823-.3651-6.6317-1.3596v-4.3815c3.9926 1.8375 9.8228 1.692 13.5186-.4423.9727-.5228 1.7969-1.2837 2.3956-2.2116v-3.1318c-.0011-.347-.0572-.6917-.1662-1.0212z" fill="#000" opacity=".1"/><path d="m37.5915 57.1061v-28.3761c-1.0776.9291-1.6179 2.0037-1.6179 3.0783v24.6121c0 1.416.9351 2.8319 2.8083 3.9125 1.1343.6309 2.3634 1.074 3.6394 1.3121-3.6009-.9767-4.8298-3.4376-4.8298-4.5389z" fill="#000" opacity=".1"/><path d="m55.7287 27.4296c0-1.502-.9915-3.0071-2.9685-4.1559-3.9719-2.2917-10.4106-2.2917-14.3825 0-1.9859 1.1459-2.9685 2.6509-2.9685 4.1559v4.5063c0 1.502.9915 3.0071 2.9685 4.1559 3.9719 2.2917 10.4106 2.2917 14.3825 0 1.9859-1.1459 2.9685-2.6509 2.9685-4.1559z" fill="#e0e0e0"/><g fill="#000" mask="url(#b)"><g opacity=".2"><path d="m55.9727 27.011h-.4869v7.0116h.4869z"/><path d="m54.8496 28.9048h-.4868v7.0502h.4868z"/><path d="m53.1524 30.2085h-.4869v7.0859h.4869z"/><path d="m51.2173 31.0183h-.4868v7.1245h.4868z"/><path d="m49.0884 31.5591h-.4868v7.163h.4868z"/><path d="m46.836 31.8293h-.4869v7.2017h.4869z"/><path d="m44.5464 31.8203h-.4868v7.2373h.4868z"/><path d="m42.314 31.5232h-.4869v7.2758h.4869z"/><path d="m40.2222 30.9209h-.4868v7.3144h.4868z"/><path d="m38.3252 29.9885h-.4868v7.3531h.4868z"/><path d="m36.8199 28.6914h-.4869v7.3887h.4869z"/><path d="m35.6353 26.5957h-.4869v7.4272h.4869z"/></g><path d="m47.993 37.6295c-5.0317.0297-7.6885-1.6059-8.493-2.9388-.6144-1.0153-.7183-2.8854-.7183-4.7497 0 0-.567-4.2271-.4572-4.239s-1.2082-.2968-2.1848-.4928c-.4746.6408-.7362 1.4143-.7481 2.2116v4.5151c0 1.5021.9915 3.0071 2.9685 4.1559 2.6183 1.5021 6.2933 2.0127 9.6329 1.5377z" opacity=".1"/></g><path d="m45.5588 33.3013c5.6169 0 10.1702-2.6288 10.1702-5.8717s-4.5533-5.8717-10.1702-5.8717c-5.6168 0-10.1701 2.6288-10.1701 5.8717s4.5533 5.8717 10.1701 5.8717z" fill="#ebebeb"/><path d="m53.2976 31.2324c3.4079-2.3065 3.2298-5.7737-.5462-7.9556-1.9355-1.1162-4.4528-1.6861-6.9968-1.7128-1.3011.2022-2.5569.6301-3.7107 1.2646-3.4316 1.9622-3.4316 5.8806 0 7.8428 3.0635 1.7514 7.8251 1.9355 11.2537.561z" fill="#f5f5f5"/><path d="m39.3342 59.8962c3.4375 1.7277 9.0154 1.7277 12.4529 0 3.4376-1.7277 3.4405-4.53 0-6.2577-3.4405-1.7276-9.0154-1.7276-12.4529 0-3.4376 1.7277-3.4406 4.53 0 6.2577z" fill="#000" opacity=".1"/><path d="m35.9736 38.2769c0 1.4159.9351 2.8319 2.8083 3.9125 1.8731 1.0805 4.3251 1.6208 6.7771 1.6208v9.7575c-2.452 0-4.907-.5403-6.7771-1.6208-1.8702-1.0805-2.8083-2.4965-2.8083-3.9125z" fill="#fff"/><path d="m36.1694 29.6828s3.307 3.3307 9.6952 3.1555c6.3883-.1751 8.9472-3.6631 9.2826-4.7496.172-.6369.1834-1.3065.0332-1.9489s-.4574-1.2375-.8941-1.7321c.4324.3787.7833.8413 1.0313 1.3598s.388 1.082.4114 1.6562v4.5122c0 .38.1959 1.692-1.8672 3.39 0 0 1.2112-1.3744 1.2112-2.6954v-3.1169s-2.262 3.7819-9.2024 3.7819-9.3509-3.0457-9.7012-3.6127z" fill="#fff"/><path d="m24.3281 57.9252c-.0421-.1235-.093-.2439-.1521-.3603-.05-.0995-.1062-.1957-.1682-.2882-.2887-.4184-.6525-.7795-1.073-1.065v1.109l-.9488-.5525v-1.101c-2.6424-1.2532-6.55-1.1611-9.0162.2602-.8364.423-1.4919 1.1339-1.8457 2.0018 0 .0641-.036.1242-.052.1882-.0476.1817-.0718.3687-.0721.5565v2.198c.0084.5265.1805 1.0372.4924 1.4613.3948.5292.8986.9675 1.4774 1.2852 2.6304 1.5174 6.8903 1.5174 9.5126 0 1.3132-.7607 1.9738-1.7536 1.9738-2.7465v-2.198c-.0008-.2549-.0441-.5079-.1281-.7487z" fill="#f0f0f0"/><path d="m19.836 54.9828c-2.3341-.4444-5.0085-.1322-6.8662.9408-.8364.423-1.4919 1.1339-1.8457 2.0018 0 .0641-.036.1241-.052.1882-.0476.1817-.0718.3687-.0721.5565v2.198c.0084.5264.1805 1.0372.4924 1.4613.3948.5292.8986.9675 1.4774 1.2852 1.8577 1.073 4.5321 1.3813 6.8662.9369z" fill="#ebebeb"/><path d="m12.9736 55.9232c-2.4662 1.4253-2.6184 3.6793-.4524 5.2047l9.4646-5.465c-2.6424-1.2491-6.5459-1.145-9.0122.2603z" fill="#fafafa"/><path d="m12.5169 60.5515s-2.61438-2.0018.2923-4.5281c-2.3061 1.4253-2.4022 3.6033-.2883 5.1047l9.4646-5.465z" fill="#fff"/><path d="m22.9348 56.2119-9.4646 5.465c2.6424 1.2491 6.55 1.165 9.0162-.2603s2.6144-3.6953.4484-5.2047z" fill="#fafafa"/><path d="m13.4702 61.6769c2.6424 1.2491 6.55 1.165 9.0162-.2603.2745-.1566.5344-.3375.7767-.5404-4.8404 2.4262-8.7319.7166-8.7319.7166l8.4076-5.3809z" fill="#fff"/><path d="m21.9871 56.7641-9.4646 5.489v-1.125l9.4646-5.465z" fill="#e0e0e0"/><path d="m13.4713 61.6765.004 1.125-.9528-.5485z" fill="#000" opacity=".2"/><path d="m24.3491 53.1412c-.0414-.1251-.0923-.2469-.1521-.3643-.0521-.0979-.1096-.1928-.1722-.2843-.2871-.4182-.6496-.7794-1.069-1.065v1.101l-.9528-.5525v-1.101c-2.6424-1.2491-6.546-1.161-9.0122.2643-.8385.4203-1.4947 1.1321-1.8457 2.0018-.02.0641-.04.1241-.056.1842-.0444.1822-.0672.369-.0681.5565v2.202c.0084.5264.1805 1.0372.4924 1.4613.3941.5289.8981.966 1.4774 1.2812 2.6264 1.5174 6.8862 1.5174 9.5126 0 1.3132-.7567 1.9698-1.7496 1.9698-2.7425v-2.202c.0001-.2521-.0418-.5024-.1241-.7407z" fill="#f0f0f0"/><path d="m19.837 50.1948c-2.3381-.4444-5.0085-.1281-6.8662.9449-.8385.4203-1.4947 1.1321-1.8457 2.0018-.02.0641-.04.1241-.0561.1842-.0443.1822-.0671.3689-.068.5565v2.202c.0083.5264.1805 1.0372.4924 1.4613.394.5289.8981.966 1.4774 1.2812 1.8577 1.0729 4.5281 1.3852 6.8662.9408z" fill="#ebebeb"/><path d="m12.9707 51.1396c-2.4663 1.4213-2.6184 3.6754-.4524 5.2048l9.4646-5.461c-2.6424-1.2571-6.546-1.1691-9.0122.2562z" fill="#fafafa"/><path d="m12.5189 55.7681s-2.61438-2.0018.2923-4.5321c-2.3101 1.4293-2.4022 3.6032-.2923 5.1046l9.4646-5.461z" fill="#fff"/><path d="m22.9358 51.4277-9.4646 5.465c2.6424 1.2491 6.5459 1.1611 9.0122-.2642 2.4662-1.4253 2.6144-3.6754.4524-5.2008z" fill="#fafafa"/><path d="m13.4712 56.8927c2.6424 1.2491 6.5459 1.1611 9.0122-.2642.2741-.1558.534-.3353.7767-.5365-4.8364 2.4222-8.7319.7126-8.7319.7126l8.4076-5.3769z" fill="#fff"/><path d="m21.9822 51.9766-9.4646 5.493v-1.129l9.4646-5.461z" fill="#e0e0e0"/><path d="m13.4704 56.8928v1.1251l-.9528-.5486z" fill="#000" opacity=".2"/><path d="m30.7258 62.2972c-.4003-.2322-.6526-.7326-.6526-1.4453.0422-.7754.2665-1.53.6546-2.2026s.9292-1.2444 1.5795-1.6689c.2254-.1637.4903-.2644.7675-.2919.2773-.0274.5568.0194.8099.1357l2.8746 1.6656c.7263.4199 1.256 1.1112 1.4727 1.9217.2166.8105.1023 1.6739-.3176 2.4002-.42.7263-1.1113 1.256-1.9218 1.4726s-1.6739.1024-2.4002-.3176z" fill="#f5f5f5"/><path d="m26.7658 60.007c-.3888-.1918-.7342-.4615-1.0146-.7923s-.4899-.7156-.6155-1.1307c-.1256-.415-.1646-.8514-.1146-1.2822.05-.4307.1879-.8466.4052-1.2219.2173-.3752.5094-.7019.8581-.9596.3487-.2578.7466-.4412 1.1691-.5389s.8605-.1076 1.287-.029c.4265.0785.8323.2438 1.1922.4856l3.9516 2.2981c-.2531-.1163-.5326-.1631-.8099-.1357-.2772.0274-.5421.1282-.7675.2919-.6503.4245-1.1914.9962-1.5795 1.6689-.3881.6726-.6124 1.4271-.6546 2.2026 0 .7126.2483 1.2011.6526 1.4453z" fill="#516eb4"/><path d="m27.4788 55.3663c-.0808.1372-.1336.2891-.1552.4468-.0216.1578-.0116.3183.0294.4721.0409.1539.1121.2981.2093.4242s.2185.2316.3569.3104l4.7844 2.7745c.4029-.6675.6289-1.4268.6566-2.206 0-.076 0-.1481 0-.2162l-4.2279-2.4342c-.1365-.0813-.2877-.1348-.445-.1573-.1572-.0224-.3174-.0135-.4712.0263-.1538.0399-.2981.1098-.4247.2059-.1265.096-.2328.2161-.3126.3535z" fill="#fff" opacity=".4"/><path d="m30.7258 62.2972c-.4003-.2322-.6526-.7326-.6526-1.4453.0422-.7754.2665-1.53.6546-2.2026s.9292-1.2444 1.5795-1.6689c.2254-.1637.4903-.2644.7675-.2919.2773-.0274.5568.0194.8099.1357l2.8746 1.6656c.7263.4199 1.256 1.1112 1.4727 1.9217.2166.8105.1023 1.6739-.3176 2.4002-.42.7263-1.1113 1.256-1.9218 1.4726s-1.6739.1024-2.4002-.3176z" fill="#f5f5f5"/><path d="m32.3072 56.9803c-.6503.4246-1.1914.9963-1.5795 1.6689-.3882.6727-.6124 1.4272-.6546 2.2026 0 .7127.2482 1.2011.6526 1.4454l-.2242-.1282-.1721-.1c-.4004-.2323-.6526-.7327-.6526-1.4454.0412-.7756.265-1.5305.6533-2.2033.3882-.6728.9298-1.2443 1.5807-1.6682.2254-.1637.4903-.2644.7675-.2918.2773-.0275.5568.0194.8099.1357l.4004.2282c-.2537-.1171-.534-.1643-.812-.1369-.278.0275-.5436.1286-.7694.293z" fill="#000" opacity=".1"/><path d="m38.3167 60.8915c.0755.6656-.0649 1.3379-.4003 1.9177-.2078.3601-.4844.6757-.8143.9288-.3298.2531-.7062.4387-1.1078.5461-.4016.1075-.8205.1347-1.2326.0802s-.8094-.1898-1.1693-.398l-2.8666-1.6695c-.4003-.2322-.6526-.7327-.6526-1.4454.0031-.3275.0489-.6532.1362-.9688l4.8043 2.7745c1.5695.9128 3.287-.7287 3.303-1.7656z" fill="#ebebeb"/><path d="m37.227 61.0156c-.0788.1384-.1843.2597-.3104.3569s-.2703.1684-.4242.2094c-.1538.041-.3143.051-.4721.0293-.1577-.0216-.3096-.0743-.4468-.1552l-4.8484-2.8025c.3741-.6848.9189-1.2613 1.5814-1.6735l.1922-.1001 4.2839 2.4782c.1392.0785.2614.1839.3594.3102.0979.1263.1697.2708.2111.4252s.0516.3154.0299.4738c-.0216.1583-.0747.3108-.156.4483z" fill="#fff"/><path d="m25.8331 55.3388c.036-.0481.072-.0961.1121-.1402l.084-.0961.1001-.1041c.0354-.0367.0729-.0714.1121-.104l.0561-.0481c.1671-.142.3482-.2668.5405-.3723l.2122-.1041c-.8848.5325-1.4453 2.8386.1281 3.7514.5405.3123 1.3492.8007 3.0147 1.7536-.0873.3156-.133.6414-.1361.9689 0 .7126.2482 1.201.6526 1.4453l-3.9596-2.2901c-.7265-.4203-1.2564-1.1118-1.4733-1.9225-.217-.8108-.1032-1.6745.3162-2.4014.0481-.0841.1041-.1642.1602-.2443z" fill="#000" opacity=".1"/><path d="m52.1224 64.1781c.228-.1617.409-.3811.5244-.6358.1154-.2546.161-.5354.1322-.8135-.0425-.7748-.2669-1.5287-.6551-2.2006-.3881-.6719-.929-1.243-1.579-1.6669-.6165-.3563-1.177-.4004-1.5814-.1561l-2.8706 1.6615c-.7268.4194-1.2573 1.1104-1.4746 1.9209-.2174.8105-.1039 1.6742.3155 2.401s1.1104 1.2573 1.9209 1.4746c.8106.2174 1.6742.1039 2.4011-.3155z" fill="#f5f5f5"/><path d="m56.0819 61.8884c.7268-.4194 1.2572-1.1104 1.4746-1.9209.2173-.8105.1038-1.6742-.3156-2.401s-1.1104-1.2573-1.9209-1.4746c-.8105-.2174-1.6742-.1039-2.401.3156l-3.9556 2.3141c.4003-.2363.9649-.2002 1.5814.1561.65.4239 1.1909.995 1.579 1.6669s.6126 1.4258.655 2.2006c.0289.2781-.0168.5589-.1321.8135-.1154.2547-.2964.4741-.5244.6358z" fill="#516eb4"/><path d="m55.3735 57.2441c.0807.1374.1332.2895.1545.4475.0214.1579.011.3185-.0303.4724-.0414.1539-.1129.298-.2106.4239-.0976.126-.2193.2313-.358.3097l-4.7803 2.7745c-.4034-.6673-.6294-1.4267-.6566-2.206 0-.072 0-.1441 0-.2162l4.2198-2.4502c.1378-.0819.2905-.1355.4493-.1575s.3203-.012.4752.0295c.1548.0414.2998.1134.4264.2117s.2322.2209.3106.3607z" fill="#fff" opacity=".4"/><path d="m52.1224 64.1781c.228-.1617.409-.3811.5244-.6358.1154-.2546.161-.5354.1322-.8135-.0425-.7748-.2669-1.5287-.6551-2.2006-.3881-.6719-.929-1.243-1.579-1.6669-.6165-.3563-1.177-.4004-1.5814-.1561l-2.8706 1.6615c-.7268.4194-1.2573 1.1104-1.4746 1.9209-.2174.8105-.1039 1.6742.3155 2.401s1.1104 1.2573 1.9209 1.4746c.8106.2174 1.6742.1039 2.4011-.3155z" fill="#f5f5f5"/><path d="m50.5444 58.8616c.65.4239 1.1909.995 1.579 1.6669.3882.6719.6126 1.4258.6551 2.2006.0288.2781-.0168.5589-.1322.8135-.1154.2547-.2964.4741-.5244.6358l.2282-.1321.1681-.1001c.2284-.1605.4097-.3791.5251-.6332.1155-.2542.1609-.5345.1315-.8121-.0421-.7749-.2664-1.5289-.6546-2.2009-.3881-.6719-.9293-1.2429-1.5794-1.6666-.2258-.1643-.4912-.2657-.7691-.2938-.2778-.0282-.5582.018-.8124.1336l-.4003.2323c.4084-.2363.9569-.2002 1.5854.1561z" fill="#000" opacity=".1"/><path d="m44.5312 62.7731c-.0631.5805.0359 1.1673.286 1.695.2502.5277.6418.9757 1.1312 1.2942.4895.3186 1.0577.4952 1.6415.5103s1.1604-.1319 1.6656-.4247l2.8666-1.6695c.2281-.1618.4091-.3812.5245-.6359.1153-.2546.1609-.5354.1321-.8135-.0045-.3263-.0516-.6507-.1401-.9648l-4.8044 2.7745c-1.5694.9088-3.2829-.7287-3.303-1.7656z" fill="#ebebeb"/><path d="m45.6245 62.8931c.0785.1387.1837.2604.3097.358.126.0977.2701.1692.424.2106s.3145.0517.4724.0304c.1579-.0214.31-.0739.4474-.1546l4.8484-2.8025c-.3766-.6819-.9209-1.2566-1.5814-1.6695-.0633-.0373-.1288-.0707-.1962-.1001l-4.2839 2.4782c-.1378.0788-.2586.1842-.3555.31s-.1678.2695-.2088.4229c-.0409.1534-.0511.3134-.0298.4707.0213.1574.0735.3089.1537.4459z" fill="#fff"/><path d="m57.0191 57.236-.1121-.1442-.0881-.096-.1001-.1001-.1081-.1041-.056-.0481c-.1675-.1434-.3501-.2682-.5445-.3723l-.2122-.1041c.8888.5365 1.4493 2.8426-.1281 3.7514-.5405.3123-1.3452.8007-3.0148 1.7576.0886.3142.1357.6385.1402.9649.0288.2781-.0168.5588-.1322.8135s-.2964.4741-.5244.6358l3.9596-2.2901c.3601-.2077.6757-.4844.9288-.8142s.4386-.7063.5461-1.1079.1347-.8204.0802-1.2325c-.0546-.4122-.1898-.8095-.3981-1.1693-.048-.0841-.1001-.1682-.1561-.2482z" fill="#000" opacity=".1"/></g></svg>