<svg width="70" height="70" viewBox="0 0 70 70" fill="none" xmlns="http://www.w3.org/2000/svg">
<g clip-path="url(#clip0_250_2926)">
<path d="M57.5179 64.0532C70.2173 56.7214 70.2173 44.8326 57.5179 37.4994C44.8185 30.1662 24.2259 30.1676 11.5251 37.4994C-1.17573 44.8312 -1.17433 56.7214 11.5251 64.0532C24.2245 71.385 44.8171 71.3864 57.5179 64.0532Z" fill="#F5F5F5"/>
<path d="M55.0027 57.1727L64.9293 20.1259C65.0564 19.5201 65.0391 18.8928 64.8788 18.2949C64.7185 17.6969 64.4198 17.1451 64.0067 16.6841L49.172 1.83405C48.3678 1.03022 47.4762 1.26784 47.182 2.36571L37.25 39.4324C37.123 40.0385 37.1405 40.6661 37.3012 41.2642C37.462 41.8623 37.7614 42.4141 38.1752 42.8749L53.0152 57.705C53.8167 58.5188 54.7059 58.2805 55.0027 57.1727Z" fill="#E0E0E0"/>
<path d="M54.075 57.4351L64.0043 20.3784C64.1322 19.7726 64.1153 19.1451 63.9549 18.5471C63.7946 17.949 63.4954 17.3972 63.0816 16.9366L48.2443 2.09651C47.44 1.29267 46.5484 1.53029 46.2543 2.62816L36.3249 39.6849C36.1979 40.291 36.2154 40.9186 36.3762 41.5167C36.5369 42.1148 36.8363 42.6666 37.2501 43.1274L52.07 57.9628C52.8842 58.7693 53.7808 58.533 54.075 57.4351Z" fill="#F5F5F5"/>
<path d="M63.0645 16.9317L49.6841 3.54956C53.5721 7.8472 61.5626 15.8504 62.4953 17.0987C63.4281 18.3469 63.876 19.1192 63.0707 22.1246C62.2654 25.1301 54.6223 55.3932 54.6223 55.3932L64.0065 20.3708C64.1314 19.7639 64.1112 19.136 63.9475 18.5384C63.7838 17.9408 63.4813 17.3903 63.0645 16.9317Z" fill="#FAFAFA"/>
<path d="M54.6665 10.7765C54.7174 10.8351 54.7537 10.905 54.7724 10.9803C54.7911 11.0557 54.7916 11.1344 54.774 11.21L44.8766 48.1475C44.8387 48.289 44.7308 48.324 44.6314 48.2282C44.5814 48.1692 44.5458 48.0993 44.5276 48.0242C44.5094 47.9491 44.509 47.8707 44.5264 47.7954L54.4238 10.8579C54.4644 10.7064 54.5696 10.6813 54.6665 10.7765Z" fill="#E0E0E0"/>
<g style="mix-blend-mode:hard-light" opacity="0.7">
<path d="M44.6048 41.1128C44.6364 40.9954 44.6578 40.8756 44.6688 40.7545C44.6761 40.7272 44.682 40.6356 44.6817 40.6169C44.7247 39.5754 44.3526 38.5593 43.647 37.7919L41.0975 35.2453L41.0735 35.2255C40.8041 34.9302 40.4602 34.7128 40.0779 34.5962C39.6955 34.4795 39.2889 34.468 38.9005 34.5627C38.5122 34.6574 38.1564 34.8549 37.8707 35.1345C37.585 35.414 37.3798 35.7654 37.2767 36.1516C37.2459 36.2692 37.2253 36.3893 37.2151 36.5104C37.2093 36.5563 37.2058 36.6025 37.2047 36.6487C37.16 37.6886 37.5294 38.7038 38.2319 39.4717L40.784 42.0191L40.8055 42.0381C41.0747 42.3341 41.4187 42.5521 41.8013 42.6692C42.184 42.7863 42.5911 42.7981 42.9799 42.7034C43.3686 42.6087 43.7247 42.411 44.0106 42.1311C44.2966 41.8512 44.5018 41.4994 44.6048 41.1128Z" fill="#FAFAFA"/>
</g>
<path d="M39.1291 35.6471C38.8529 36.6779 39.2827 38.164 40.0869 38.9679L42.6364 41.5145C43.4407 42.3184 44.3176 42.1354 44.5938 41.1046C44.87 40.0738 44.4403 38.5876 43.6361 37.7838L41.0866 35.2371C40.2717 34.4331 39.4033 34.6237 39.1291 35.6471Z" fill="#E0E0E0"/>
<path d="M39.9044 34.5504C39.3435 34.4242 38.7556 34.5197 38.2636 34.8171C37.7716 35.1145 37.4136 35.5906 37.2646 36.1459C37.2338 36.2635 37.2132 36.3836 37.2031 36.5047C37.1972 36.5506 37.1938 36.5968 37.1926 36.643C37.1592 37.5364 37.4237 38.4155 37.9447 39.142C37.4214 37.7665 37.1489 36.9055 37.6563 35.8169C37.8567 35.4014 38.1797 35.0572 38.5816 34.8308C38.9835 34.6044 39.4452 34.5065 39.9044 34.5504Z" fill="white"/>
<path d="M39.8975 40.3069C39.7942 40.181 39.7259 40.03 39.6998 39.8691C39.6737 39.7083 39.6907 39.5434 39.7489 39.3912C39.8896 38.9606 40.1298 38.5693 40.4502 38.249C40.7705 37.9287 41.1619 37.6885 41.5926 37.5479C41.7447 37.4892 41.9097 37.4721 42.0707 37.4984C42.2316 37.5247 42.3826 37.5934 42.5082 37.6974L43.8761 39.0702C44.2222 39.4175 44.4162 39.888 44.4154 40.3783C44.4146 40.8686 44.219 41.3385 43.8718 41.6846C43.5245 42.0308 43.0539 42.2247 42.5636 42.2239C42.0733 42.2231 41.6034 42.0275 41.2573 41.6803L39.8975 40.3069Z" fill="#F5F5F5"/>
<path d="M38.0116 38.417C37.6765 38.068 37.4917 37.6015 37.4967 37.1177C37.5016 36.6339 37.6961 36.1713 38.0382 35.8292C38.3804 35.4871 38.843 35.2928 39.3268 35.2879C39.8107 35.2831 40.2771 35.468 40.6261 35.8032L42.5141 37.6987C42.3885 37.5947 42.2375 37.5261 42.0766 37.4998C41.9157 37.4735 41.7506 37.4906 41.5985 37.5492C41.1678 37.6898 40.7765 37.9301 40.4561 38.2504C40.1358 38.5707 39.8955 38.962 39.7548 39.3926C39.6966 39.5448 39.6796 39.7097 39.7058 39.8705C39.7319 40.0313 39.8001 40.1824 39.9034 40.3083L38.0116 38.417Z" fill="#516EB4"/>
<path opacity="0.4" d="M39.1151 35.9063C38.983 36.0387 38.9086 36.2181 38.9084 36.4051C38.9082 36.5921 38.9821 36.7717 39.1139 36.9043L41.3921 39.192C41.7201 38.8773 41.9621 38.4839 42.095 38.0492C42.1069 38.0045 42.1176 37.9647 42.1282 37.925L40.1187 35.9064C40.0532 35.8399 39.9751 35.787 39.8889 35.751C39.8028 35.7149 39.7103 35.6964 39.6169 35.6964C39.5235 35.6964 39.4311 35.7149 39.3449 35.751C39.2588 35.787 39.1807 35.8398 39.1151 35.9063Z" fill="white"/>
<path d="M39.8975 40.3069C39.7942 40.181 39.7259 40.03 39.6998 39.8691C39.6737 39.7083 39.6907 39.5434 39.7489 39.3912C39.8896 38.9606 40.1298 38.5693 40.4502 38.249C40.7705 37.9287 41.1619 37.6885 41.5926 37.5479C41.7447 37.4892 41.9097 37.4721 42.0707 37.4984C42.2316 37.5247 42.3826 37.5934 42.5082 37.6974L43.8761 39.0702C44.2222 39.4175 44.4162 39.888 44.4154 40.3783C44.4146 40.8686 44.219 41.3385 43.8718 41.6846C43.5245 42.0308 43.0539 42.2247 42.5636 42.2239C42.0733 42.2231 41.6034 42.0275 41.2573 41.6803L39.8975 40.3069Z" fill="#F5F5F5"/>
<path opacity="0.1" d="M41.5933 37.5478C41.1627 37.6884 40.7713 37.9286 40.4509 38.2489C40.1306 38.5692 39.8903 38.9606 39.7496 39.3912C39.6914 39.5433 39.6745 39.7082 39.7006 39.869C39.7267 40.0299 39.7949 40.1809 39.8983 40.3069L39.7916 40.1984L39.7093 40.1178C39.6055 39.9921 39.537 39.8411 39.5108 39.6801C39.4847 39.5192 39.5019 39.3542 39.5607 39.2021C39.7014 38.7715 39.9416 38.3802 40.262 38.0598C40.5823 37.7395 40.9737 37.4993 41.4044 37.3587C41.5565 37.3001 41.7215 37.283 41.8825 37.3093C42.0434 37.3356 42.1944 37.4042 42.32 37.5082L42.509 37.6973C42.3834 37.5933 42.2323 37.5246 42.0714 37.4983C41.9105 37.4721 41.7455 37.4891 41.5933 37.5478Z" fill="black"/>
<path d="M44.3927 40.6623C44.3417 41.0002 44.1979 41.3173 43.9772 41.5782C43.7565 41.839 43.4677 42.0334 43.1429 42.1397C42.8182 42.246 42.4703 42.2599 42.1381 42.18C41.8059 42.1 41.5024 41.9293 41.2616 41.6869L39.8968 40.3123C39.7935 40.1863 39.7253 40.0353 39.6991 39.8744C39.673 39.7136 39.69 39.5487 39.7482 39.3966C39.7992 39.2131 39.8741 39.0372 39.9709 38.8732L42.2566 41.1628C43.01 41.9078 44.227 41.2409 44.3927 40.6623Z" fill="#E0E0E0"/>
<path d="M43.7585 40.564C43.6929 40.6296 43.6151 40.6816 43.5294 40.7171C43.4438 40.7525 43.3519 40.7707 43.2592 40.7706C43.1665 40.7705 43.0747 40.7521 42.9891 40.7164C42.9036 40.6808 42.8258 40.6286 42.7605 40.5628L40.4522 38.2485C40.7677 37.9211 41.1614 37.6793 41.5961 37.5461C41.6371 37.5346 41.6787 37.5253 41.7207 37.5182L43.7628 39.5642C43.8948 39.6974 43.9685 39.8775 43.9676 40.065C43.9668 40.2525 43.8916 40.432 43.7585 40.564Z" fill="white"/>
<path opacity="0.1" d="M38.1884 35.6506C38.2156 35.6286 38.2446 35.6097 38.2743 35.5884L38.3362 35.5464C38.3589 35.5312 38.3834 35.5191 38.4086 35.5046L38.4842 35.4609L38.5263 35.4429C38.6418 35.3877 38.763 35.3452 38.8877 35.3161L39.0254 35.2891C38.4474 35.4591 37.7789 36.6723 38.5304 37.4247C38.7861 37.6822 39.1681 38.0748 39.9631 38.8735C39.8662 39.0374 39.7913 39.2133 39.7403 39.3968C39.6821 39.549 39.6652 39.7138 39.6913 39.8747C39.7174 40.0355 39.7856 40.1866 39.889 40.3125L37.9996 38.4219C37.6537 38.0748 37.4595 37.6047 37.4596 37.1147C37.4596 36.6247 37.6539 36.1547 37.9999 35.8077C38.0424 35.7685 38.0848 35.7293 38.1291 35.6932L38.1884 35.6506Z" fill="black"/>
<g style="mix-blend-mode:hard-light" opacity="0.7">
<path d="M54.1624 50.6062C54.1936 50.4888 54.2158 50.3693 54.2289 50.2486C54.2362 50.2213 54.2397 50.129 54.2394 50.1103C54.2834 49.0693 53.9121 48.0533 53.2071 47.286L50.6551 44.7387L50.6311 44.7189C50.3618 44.4236 50.0179 44.2062 49.6355 44.0896C49.2532 43.9729 48.8465 43.9614 48.4581 44.0561C48.0698 44.1508 47.7141 44.3483 47.4284 44.6279C47.1426 44.9074 46.9374 45.2588 46.8343 45.645C46.8035 45.7626 46.7829 45.8827 46.7727 46.0038C46.7661 46.0287 46.7655 46.1004 46.7623 46.1421C46.717 47.1821 47.0865 48.1975 47.7896 48.9651L50.3416 51.5125L50.3664 51.5191C50.6356 51.8151 50.9797 52.0331 51.3623 52.1502C51.7449 52.2673 52.152 52.2791 52.5408 52.1844C52.9296 52.0897 53.2856 51.892 53.5716 51.6121C53.8575 51.3322 54.0628 50.9804 54.1657 50.5937L54.1624 50.6062Z" fill="#FAFAFA"/>
</g>
<path d="M48.7026 45.1445C48.4264 46.1753 48.8529 47.6633 49.6572 48.4671L52.2092 51.0145C53.0109 51.8177 53.8879 51.6347 54.1641 50.6039C54.4403 49.5731 54.0106 48.0869 53.2088 47.2837L50.6568 44.7364C49.8526 43.9325 48.9794 44.1112 48.7026 45.1445Z" fill="#E0E0E0"/>
<path d="M49.4747 44.0475C48.9139 43.9219 48.3263 44.0177 47.8344 44.315C47.3426 44.6123 46.9845 45.088 46.8349 45.6429C46.8041 45.7606 46.7836 45.8806 46.7734 46.0018C46.7667 46.0266 46.7662 46.0984 46.763 46.1401C46.7295 47.0334 46.994 47.9126 47.515 48.6391C46.9942 47.2643 46.7192 46.4026 47.2259 45.3164C47.4266 44.9008 47.7496 44.5565 48.1516 44.3297C48.5535 44.1029 49.0152 44.0044 49.4747 44.0475Z" fill="white"/>
<path d="M49.4638 49.8023C49.3606 49.6768 49.2923 49.5262 49.2661 49.3658C49.2399 49.2054 49.2566 49.0409 49.3145 48.8891C49.4553 48.4581 49.6957 48.0664 50.0161 47.7457C50.3365 47.425 50.728 47.1843 51.1589 47.0432C51.311 46.9845 51.476 46.9675 51.637 46.9938C51.7979 47.02 51.9489 47.0887 52.0745 47.1927L53.4424 48.5655C53.6139 48.7372 53.7499 48.9409 53.8426 49.1651C53.9354 49.3892 53.983 49.6295 53.9829 49.8721C53.9828 50.1147 53.9349 50.3549 53.842 50.579C53.749 50.8031 53.6128 51.0067 53.4412 51.1782C53.2696 51.3496 53.0659 51.4856 52.8417 51.5783C52.6175 51.6711 52.3773 51.7187 52.1346 51.7186C51.892 51.7185 51.6518 51.6706 51.4277 51.5777C51.2037 51.4847 51.0001 51.3486 50.8286 51.1769L49.4638 49.8023Z" fill="#F5F5F5"/>
<path d="M47.5746 47.9123C47.2283 47.5657 47.0339 47.0957 47.0341 46.6057C47.0343 46.1158 47.2292 45.646 47.5758 45.2997C47.9224 44.9534 48.3924 44.759 48.8824 44.7592C49.3723 44.7594 49.8421 44.9543 50.1884 45.3009L52.0771 47.194C51.9516 47.09 51.8005 47.0213 51.6396 46.995C51.4787 46.9688 51.3136 46.9858 51.1615 47.0445C50.7307 47.1856 50.3392 47.4263 50.0187 47.747C49.6983 48.0677 49.4579 48.4594 49.3171 48.8903C49.2592 49.0422 49.2425 49.2067 49.2687 49.3671C49.295 49.5275 49.3632 49.6781 49.4665 49.8036L47.5746 47.9123Z" fill="#516EB4"/>
<path opacity="0.4" d="M48.6863 45.4035C48.6206 45.4689 48.5684 45.5466 48.5328 45.6322C48.4971 45.7178 48.4787 45.8095 48.4786 45.9023C48.4785 45.995 48.4967 46.0868 48.5321 46.1725C48.5676 46.2581 48.6196 46.336 48.6851 46.4015L50.9627 48.6916C51.2901 48.3765 51.5319 47.9832 51.6655 47.5488C51.6768 47.5066 51.6882 47.4644 51.6988 47.4247L49.6893 45.406C49.6239 45.3395 49.546 45.2865 49.46 45.2503C49.374 45.2141 49.2817 45.1953 49.1884 45.1951C49.095 45.1949 49.0026 45.2132 48.9164 45.249C48.8303 45.2847 48.752 45.3373 48.6863 45.4035Z" fill="white"/>
<path d="M49.4638 49.8023C49.3606 49.6768 49.2923 49.5262 49.2661 49.3658C49.2399 49.2054 49.2566 49.0409 49.3145 48.8891C49.4553 48.4581 49.6957 48.0664 50.0161 47.7457C50.3365 47.425 50.728 47.1843 51.1589 47.0432C51.311 46.9845 51.476 46.9675 51.637 46.9938C51.7979 47.02 51.9489 47.0887 52.0745 47.1927L53.4424 48.5655C53.6139 48.7372 53.7499 48.9409 53.8426 49.1651C53.9354 49.3892 53.983 49.6295 53.9829 49.8721C53.9828 50.1147 53.9349 50.3549 53.842 50.579C53.749 50.8031 53.6128 51.0067 53.4412 51.1782C53.2696 51.3496 53.0659 51.4856 52.8417 51.5783C52.6175 51.6711 52.3773 51.7187 52.1346 51.7186C51.892 51.7185 51.6518 51.6706 51.4277 51.5777C51.2037 51.4847 51.0001 51.3486 50.8286 51.1769L49.4638 49.8023Z" fill="#F5F5F5"/>
<path opacity="0.1" d="M51.1635 47.0448C50.7327 47.186 50.3412 47.4266 50.0207 47.7473C49.7003 48.0681 49.46 48.4597 49.3192 48.8907C49.2612 49.0425 49.2445 49.207 49.2708 49.3674C49.297 49.5278 49.3652 49.6784 49.4685 49.8039L49.3611 49.6979L49.2795 49.6148C49.1758 49.4896 49.1073 49.339 49.081 49.1785C49.0548 49.018 49.0718 48.8534 49.1302 48.7016C49.271 48.2707 49.5114 47.879 49.8318 47.5583C50.1522 47.2376 50.5437 46.9969 50.9746 46.8558C51.1267 46.7971 51.2917 46.7801 51.4527 46.8063C51.6136 46.8326 51.7646 46.9013 51.8902 47.0053L52.0792 47.1943C51.9536 47.0903 51.8025 47.0217 51.6416 46.9954C51.4807 46.9691 51.3157 46.9862 51.1635 47.0448Z" fill="black"/>
<path d="M53.9641 50.1593C53.9131 50.4972 53.7693 50.8143 53.5486 51.0752C53.3279 51.336 53.0391 51.5304 52.7143 51.6367C52.3896 51.743 52.0417 51.7569 51.7095 51.677C51.3773 51.597 51.0738 51.4263 50.833 51.1839L49.4646 49.803C49.3613 49.6775 49.2931 49.5269 49.2669 49.3665C49.2407 49.2061 49.2574 49.0416 49.3153 48.8897C49.3665 48.7055 49.4416 48.5287 49.5387 48.3639C50.3393 49.1615 51.3146 50.1416 51.8243 50.6535C52.5808 51.4073 53.7977 50.7404 53.9641 50.1593Z" fill="#E0E0E0"/>
<path d="M53.3273 50.0679C53.2618 50.1335 53.184 50.1855 53.0983 50.221C53.0126 50.2564 52.9208 50.2746 52.8281 50.2745C52.7354 50.2744 52.6436 50.256 52.558 50.2203C52.4724 50.1847 52.3947 50.1325 52.3293 50.0667L50.021 47.7524C50.3366 47.425 50.7302 47.1833 51.165 47.05C51.2082 47.0376 51.2501 47.0302 51.2896 47.0221L53.3317 49.0681C53.463 49.2016 53.5362 49.3816 53.5354 49.5689C53.5346 49.7562 53.4598 49.9356 53.3273 50.0679Z" fill="white"/>
<path opacity="0.1" d="M47.759 45.1495C47.7865 45.1273 47.8152 45.1066 47.8449 45.0873C47.8644 45.0718 47.8851 45.0578 47.9067 45.0453L47.9798 45.001C48.0047 44.9859 48.0306 44.9724 48.0572 44.9605C48.0721 44.9519 48.0882 44.9454 48.1049 44.9414C48.2206 44.8853 48.342 44.842 48.467 44.8121C48.5096 44.8022 48.5547 44.793 48.6016 44.7869C48.0243 44.9544 47.3551 46.17 48.1072 46.92C48.363 47.1775 48.7475 47.5707 49.54 48.3688C49.4428 48.5335 49.3677 48.7103 49.3165 48.8946C49.2586 49.0464 49.2419 49.2109 49.2681 49.3713C49.2943 49.5317 49.3626 49.6823 49.4658 49.8078L47.5765 47.9172C47.2305 47.5701 47.0364 47.0999 47.0369 46.6099C47.0375 46.1198 47.2325 45.65 47.5793 45.3037C47.6195 45.2632 47.6618 45.2248 47.7059 45.1885L47.759 45.1495Z" fill="black"/>
<g style="mix-blend-mode:hard-light" opacity="0.7">
<path d="M47.1031 31.7884C47.1349 31.6702 47.1565 31.5495 47.1678 31.4277C47.1744 31.4028 47.181 31.3088 47.18 31.2925C47.2018 30.7764 47.1217 30.261 46.9443 29.7759C46.7669 29.2908 46.4956 28.8453 46.146 28.4651L43.5964 25.9184L43.5691 25.9111C43.2997 25.6157 42.9558 25.3983 42.5735 25.2817C42.1911 25.1651 41.7845 25.1535 41.3961 25.2482C41.0078 25.343 40.652 25.5405 40.3663 25.82C40.0806 26.0996 39.8754 26.4509 39.7723 26.8371C39.7415 26.9547 39.7209 27.0748 39.7107 27.196C39.7044 27.2418 39.7009 27.288 39.7003 27.3343C39.6553 28.3748 40.0244 29.3908 40.7269 30.1597L43.2789 32.7071L43.3037 32.7137C43.573 33.0097 43.917 33.2277 44.2996 33.3448C44.6822 33.4619 45.0893 33.4737 45.4781 33.379C45.8669 33.2843 46.223 33.0866 46.5089 32.8067C46.7948 32.5268 47.0001 32.175 47.1031 31.7884Z" fill="#FAFAFA"/>
</g>
<path d="M41.628 26.3227C41.3524 27.351 41.7815 28.8397 42.5857 29.6435L45.1353 32.1902C45.9395 32.994 46.8165 32.8111 47.092 31.7827C47.3675 30.7544 46.9385 29.2658 46.1349 28.4594L43.5854 25.9128C42.7712 25.1063 41.9042 25.2919 41.628 26.3227Z" fill="#E0E0E0"/>
<path d="M42.4039 25.2235C41.8431 25.0979 41.2555 25.1938 40.7636 25.491C40.2717 25.7883 39.9137 26.264 39.7641 26.819C39.7333 26.9366 39.7127 27.0567 39.7026 27.1778C39.6963 27.2237 39.6928 27.2699 39.6922 27.3161C39.6587 28.2095 39.9232 29.0886 40.4442 29.8151C39.9209 28.4396 39.6484 27.5786 40.1551 26.4924C40.3558 26.0768 40.6788 25.7325 41.0808 25.5057C41.4827 25.2789 41.9444 25.1804 42.4039 25.2235Z" fill="white"/>
<path d="M42.3971 30.9802C42.2913 30.8548 42.2211 30.7032 42.1938 30.5414C42.1664 30.3795 42.183 30.2133 42.2417 30.0601C42.3825 29.6291 42.6228 29.2374 42.9433 28.9167C43.2637 28.596 43.6552 28.3553 44.086 28.2142C44.2383 28.1557 44.4033 28.139 44.5642 28.1657C44.7251 28.1925 44.8759 28.2617 45.001 28.3662L46.3696 29.7365C46.5416 29.9081 46.6781 30.1119 46.7714 30.3363C46.8646 30.5606 46.9127 30.8012 46.913 31.0441C46.9133 31.2871 46.8657 31.5277 46.773 31.7523C46.6803 31.9769 46.5443 32.181 46.3727 32.353C46.2011 32.525 45.9973 32.6615 45.7729 32.7547C45.5486 32.848 45.3081 32.8961 45.0651 32.8964C44.8221 32.8967 44.5815 32.8491 44.3569 32.7564C44.1324 32.6637 43.9282 32.5276 43.7562 32.3561L42.3971 30.9802Z" fill="#F5F5F5"/>
<path d="M40.5101 29.0903C40.3387 28.9186 40.2027 28.7149 40.1099 28.4907C40.0172 28.2666 39.9695 28.0263 39.9696 27.7837C39.9698 27.5411 40.0177 27.3009 40.1106 27.0768C40.2036 26.8527 40.3397 26.6491 40.5113 26.4776C40.683 26.3062 40.8867 26.1702 41.1109 26.0775C41.3351 25.9847 41.5753 25.9371 41.8179 25.9372C42.0605 25.9373 42.3007 25.9852 42.5248 26.0781C42.7489 26.1711 42.9525 26.3072 43.124 26.4789L45.012 28.3744C44.8869 28.2699 44.7361 28.2007 44.5752 28.174C44.4143 28.1473 44.2493 28.164 44.097 28.2224C43.665 28.3613 43.2719 28.6 42.9495 28.9193C42.6271 29.2386 42.3846 29.6294 42.2416 30.06C42.1834 30.2118 42.1665 30.3764 42.1928 30.5368C42.219 30.6973 42.2874 30.8479 42.3909 30.9732L40.5101 29.0903Z" fill="#516EB4"/>
<path opacity="0.4" d="M41.6143 26.5799C41.482 26.7126 41.4075 26.8923 41.4071 27.0798C41.4068 27.2672 41.4806 27.4472 41.6125 27.5804L43.8906 29.868C44.2184 29.5532 44.4603 29.1598 44.5935 28.7253C44.6048 28.683 44.6155 28.6433 44.6261 28.6035L42.6166 26.5849C42.5514 26.5183 42.4736 26.4653 42.3878 26.4289C42.302 26.3925 42.2097 26.3736 42.1165 26.3731C42.0233 26.3726 41.9309 26.3907 41.8447 26.4262C41.7585 26.4617 41.6802 26.5139 41.6143 26.5799Z" fill="white"/>
<path d="M42.3971 30.9802C42.2913 30.8548 42.2211 30.7032 42.1938 30.5414C42.1664 30.3795 42.183 30.2133 42.2417 30.0601C42.3825 29.6291 42.6228 29.2374 42.9433 28.9167C43.2637 28.596 43.6552 28.3553 44.086 28.2142C44.2383 28.1557 44.4033 28.139 44.5642 28.1657C44.7251 28.1925 44.8759 28.2617 45.001 28.3662L46.3696 29.7365C46.5416 29.9081 46.6781 30.1119 46.7714 30.3363C46.8646 30.5606 46.9127 30.8012 46.913 31.0441C46.9133 31.2871 46.8657 31.5277 46.773 31.7523C46.6803 31.9769 46.5443 32.181 46.3727 32.353C46.2011 32.525 45.9973 32.6615 45.7729 32.7547C45.5486 32.848 45.3081 32.8961 45.0651 32.8964C44.8221 32.8967 44.5815 32.8491 44.3569 32.7564C44.1324 32.6637 43.9282 32.5276 43.7562 32.3561L42.3971 30.9802Z" fill="#F5F5F5"/>
<path opacity="0.1" d="M44.0925 28.221C43.6613 28.3606 43.269 28.5999 42.9475 28.9194C42.6261 29.2389 42.3844 29.6296 42.242 30.0599C42.1838 30.2117 42.167 30.3763 42.1932 30.5367C42.2194 30.6972 42.2878 30.8478 42.3913 30.9731L42.2908 30.8716L42.2092 30.7885C42.1052 30.6634 42.0365 30.5128 42.0103 30.3523C41.984 30.1917 42.0011 30.0271 42.0599 29.8753C42.2007 29.4444 42.441 29.0527 42.7614 28.732C43.0819 28.4113 43.4734 28.1706 43.9042 28.0295C44.0564 27.971 44.2215 27.9543 44.3824 27.981C44.5432 28.0077 44.6941 28.0769 44.8192 28.1815L45.0082 28.3705C44.8827 28.2663 44.7316 28.1975 44.5707 28.1712C44.4097 28.1449 44.2446 28.1621 44.0925 28.221Z" fill="black"/>
<path d="M46.8923 31.335C46.8414 31.6729 46.6975 31.9899 46.4768 32.2508C46.2562 32.5117 45.9673 32.7061 45.6426 32.8124C45.3178 32.9186 44.97 32.9326 44.6378 32.8526C44.3055 32.7726 44.0021 32.6019 43.7613 32.3596L42.3972 30.9824C42.291 30.8566 42.2207 30.7046 42.1934 30.5423C42.1662 30.38 42.1831 30.2133 42.2424 30.0598C42.2938 29.8756 42.3689 29.6988 42.4658 29.5339L44.7515 31.8236C45.509 32.583 46.7253 31.9185 46.8923 31.335Z" fill="#E0E0E0"/>
<path d="M46.2573 31.2399C46.1246 31.3717 45.9451 31.4456 45.7581 31.4453C45.571 31.4451 45.3917 31.3708 45.2593 31.2387L42.951 28.9243C43.2661 28.5955 43.6602 28.3528 44.0956 28.2194L44.2202 28.1916L46.2623 30.2375C46.3943 30.3713 46.4679 30.5518 46.467 30.7397C46.4661 30.9276 46.3907 31.1075 46.2573 31.2399Z" fill="white"/>
<path opacity="0.1" d="M40.6868 26.3261C40.7143 26.3039 40.743 26.2831 40.7727 26.2639C40.7923 26.2484 40.8129 26.2344 40.8345 26.2219C40.8577 26.2064 40.8819 26.1924 40.907 26.1801L40.9825 26.1364L41.0246 26.1184C41.1403 26.0624 41.2617 26.019 41.3867 25.9892L41.5237 25.9646C40.9464 26.1321 40.2773 27.3478 41.0287 28.1002C41.2852 28.3552 41.6672 28.7478 42.4615 29.549C42.3671 29.7093 42.2933 29.881 42.242 30.0599C42.1838 30.2117 42.167 30.3762 42.1932 30.5367C42.2195 30.6971 42.2878 30.8477 42.3914 30.9731L40.502 29.0825C40.1561 28.7359 39.9618 28.2663 39.9618 27.7767C39.9617 27.2871 40.1558 26.8174 40.5016 26.4708C40.5447 26.4291 40.5865 26.3924 40.6308 26.3563C40.6485 26.3445 40.6672 26.3344 40.6868 26.3261Z" fill="black"/>
<g style="mix-blend-mode:hard-light" opacity="0.7">
<path d="M56.6615 41.2816C56.6929 41.1634 56.7153 41.0431 56.7287 40.9216C56.7353 40.8967 56.7387 40.8045 56.7384 40.7858C56.7605 40.2702 56.6807 39.7554 56.5036 39.2708C56.3265 38.7862 56.0555 38.3412 55.7062 37.9615L53.1542 35.4141L53.1302 35.3944C52.8603 35.0997 52.5161 34.883 52.1338 34.7669C51.7514 34.6508 51.3448 34.6396 50.9566 34.7345C50.5684 34.8295 50.2129 35.027 49.9272 35.3064C49.6415 35.5858 49.4362 35.9369 49.3327 36.3229C49.3021 36.4397 49.2818 36.559 49.2718 36.6793C49.2645 36.7066 49.2639 36.7783 49.2614 36.8176C49.2158 37.8582 49.585 38.8744 50.288 39.643L52.84 42.1904L52.8615 42.2095C53.1307 42.5055 53.4747 42.7235 53.8574 42.8405C54.24 42.9576 54.6471 42.9694 55.0359 42.8747C55.4247 42.78 55.7807 42.5823 56.0667 42.3024C56.3526 42.0225 56.5579 41.6707 56.6608 41.2841L56.6615 41.2816Z" fill="#FAFAFA"/>
</g>
<path d="M51.2009 35.8197C50.9247 36.8505 51.352 38.336 52.1562 39.1398L54.7082 41.6872C55.51 42.4903 56.3869 42.3074 56.6625 41.279C56.938 40.2507 56.509 38.7621 55.7072 37.9589L53.1552 35.4116C52.3516 34.6052 51.4771 34.7889 51.2009 35.8197Z" fill="#E0E0E0"/>
<path d="M51.9738 34.7227C51.4129 34.5965 50.8249 34.6921 50.3329 34.9895C49.8409 35.2868 49.483 35.763 49.334 36.3182C49.3034 36.435 49.283 36.5543 49.2731 36.6746C49.2658 36.7019 49.2652 36.7737 49.2627 36.8129C49.2284 37.7064 49.493 38.5857 50.0147 39.3119C49.4939 37.9371 49.2183 37.0779 49.7256 35.9892C49.9261 35.5737 50.249 35.2296 50.6509 35.0032C51.0529 34.7768 51.5145 34.6789 51.9738 34.7227Z" fill="white"/>
<path d="M51.9626 40.4782C51.8592 40.3523 51.791 40.2012 51.7649 40.0404C51.7388 39.8796 51.7557 39.7147 51.814 39.5625C51.9549 39.1317 52.1953 38.7401 52.5158 38.4194C52.8362 38.0987 53.2276 37.858 53.6583 37.7166C53.8105 37.6582 53.9756 37.6414 54.1365 37.6682C54.2973 37.6949 54.4481 37.7641 54.5733 37.8686L55.9419 39.239C56.1193 39.4094 56.2609 39.6134 56.3585 39.8392C56.456 40.065 56.5076 40.308 56.51 40.554C56.5125 40.7999 56.4659 41.0439 56.3729 41.2716C56.2799 41.4993 56.1424 41.7062 55.9684 41.8801C55.7945 42.054 55.5876 42.1914 55.3599 42.2844C55.1321 42.3773 54.8881 42.4239 54.6422 42.4214C54.3962 42.4188 54.1532 42.3672 53.9275 42.2696C53.7017 42.172 53.4977 42.0303 53.3274 41.8529L51.9626 40.4782Z" fill="#F5F5F5"/>
<path d="M50.0736 38.5851C49.7273 38.2385 49.5329 37.7685 49.5331 37.2786C49.5334 36.7886 49.7282 36.3188 50.0748 35.9725C50.4214 35.6262 50.8914 35.4318 51.3814 35.432C51.8713 35.4323 52.3412 35.6271 52.6874 35.9738L54.5755 37.8693C54.4503 37.7648 54.2995 37.6956 54.1387 37.6689C53.9778 37.6421 53.8127 37.6589 53.6605 37.7173C53.2298 37.8586 52.8384 38.0994 52.518 38.4201C52.1975 38.7407 51.9571 39.1324 51.8162 39.5632C51.7579 39.7154 51.741 39.8802 51.7671 40.0411C51.7932 40.2019 51.8614 40.353 51.9648 40.4789L50.0736 38.5851Z" fill="#516EB4"/>
<path opacity="0.4" d="M51.1854 36.0768C51.053 36.2095 50.9785 36.3892 50.9782 36.5767C50.9778 36.7641 51.0516 36.9441 51.1835 37.0773L53.4617 39.3649C53.7894 39.05 54.0314 38.6567 54.1646 38.2221C54.1759 38.1799 54.1865 38.1402 54.1972 38.1004L52.1877 36.0818C52.1223 36.0155 52.0445 35.9627 51.9586 35.9265C51.8728 35.8904 51.7807 35.8715 51.6876 35.8711C51.5944 35.8706 51.5021 35.8885 51.4159 35.9238C51.3298 35.9591 51.2514 36.0111 51.1854 36.0768Z" fill="white"/>
<path d="M51.9626 40.4782C51.8592 40.3523 51.791 40.2012 51.7649 40.0404C51.7388 39.8796 51.7557 39.7147 51.814 39.5625C51.9549 39.1317 52.1953 38.7401 52.5158 38.4194C52.8362 38.0987 53.2276 37.858 53.6583 37.7166C53.8105 37.6582 53.9756 37.6414 54.1365 37.6682C54.2973 37.6949 54.4481 37.7641 54.5733 37.8686L55.9419 39.239C56.1193 39.4094 56.2609 39.6134 56.3585 39.8392C56.456 40.065 56.5076 40.308 56.51 40.554C56.5125 40.7999 56.4659 41.0439 56.3729 41.2716C56.2799 41.4993 56.1424 41.7062 55.9684 41.8801C55.7945 42.054 55.5876 42.1914 55.3599 42.2844C55.1321 42.3773 54.8881 42.4239 54.6422 42.4214C54.3962 42.4188 54.1532 42.3672 53.9275 42.2696C53.7017 42.172 53.4977 42.0303 53.3274 41.8529L51.9626 40.4782Z" fill="#F5F5F5"/>
<path opacity="0.1" d="M53.6636 37.7178C53.2329 37.8591 52.8415 38.0999 52.5211 38.4206C52.2006 38.7413 51.9602 39.1329 51.8193 39.5637C51.761 39.7159 51.7441 39.8808 51.7702 40.0416C51.7963 40.2024 51.8645 40.3535 51.9679 40.4794L51.8612 40.3709L51.7796 40.2879C51.6754 40.1629 51.6066 40.0123 51.5803 39.8516C51.554 39.691 51.5713 39.5263 51.6303 39.3747C51.7713 38.9438 52.0117 38.5522 52.3321 38.2315C52.6525 37.9108 53.0439 37.6701 53.4747 37.5288C53.6269 37.4703 53.792 37.4536 53.9528 37.4803C54.1137 37.507 54.2645 37.5762 54.3897 37.6808L54.5786 37.8698C54.4535 37.7653 54.3026 37.6961 54.1418 37.6694C53.9809 37.6426 53.8158 37.6594 53.6636 37.7178Z" fill="black"/>
<path d="M56.4625 40.8345C56.4039 41.2207 56.2232 41.5781 55.947 41.8544C55.6002 42.2009 55.13 42.3955 54.6398 42.3955C54.1496 42.3954 53.6795 42.2007 53.3328 41.8541L51.9631 40.4781C51.8597 40.3521 51.7915 40.2011 51.7654 40.0403C51.7393 39.8794 51.7562 39.7146 51.8144 39.5624C51.8658 39.3782 51.9409 39.2014 52.0378 39.0366L54.3235 41.3262C55.0799 42.0799 56.2962 41.4155 56.4625 40.8345Z" fill="#E0E0E0"/>
<path d="M55.8278 40.7361C55.7623 40.8017 55.6844 40.8537 55.5988 40.8892C55.5131 40.9246 55.4213 40.9428 55.3286 40.9427C55.2358 40.9426 55.1441 40.9242 55.0585 40.8885C54.9729 40.8529 54.8952 40.8007 54.8298 40.7349L52.5215 38.4206C52.8372 38.0925 53.231 37.8499 53.6661 37.7157L53.7901 37.6903L55.8322 39.7363C55.8978 39.8021 55.9498 39.8802 55.9851 39.9662C56.0205 40.0521 56.0385 40.1442 56.038 40.2371C56.0376 40.3301 56.0189 40.422 55.9828 40.5076C55.9467 40.5933 55.894 40.6709 55.8278 40.7361Z" fill="white"/>
<path opacity="0.1" d="M50.2581 35.823C50.2856 35.8009 50.3143 35.7801 50.344 35.7609C50.3635 35.7475 50.3838 35.7316 50.4058 35.7189L50.4782 35.677L50.5563 35.6341L50.5959 35.6154C50.7114 35.5601 50.8326 35.5176 50.9573 35.4886C51.0017 35.476 51.0468 35.4668 51.0925 35.461C50.5152 35.6284 49.8461 36.8441 50.5975 37.5965C50.8533 37.8541 51.2378 38.2473 52.0303 39.0453C51.9333 39.2101 51.8582 39.3869 51.8068 39.5711C51.7486 39.7233 51.7317 39.8881 51.7578 40.049C51.7839 40.2098 51.8521 40.3609 51.9555 40.4868L50.0668 38.5937C49.8952 38.4223 49.7591 38.2187 49.6663 37.9946C49.5735 37.7705 49.5258 37.5303 49.526 37.2877C49.5262 37.0452 49.5743 36.8051 49.6674 36.5811C49.7606 36.3572 49.897 36.1538 50.0689 35.9827C50.1092 35.9422 50.1515 35.9038 50.1956 35.8675L50.2581 35.823Z" fill="black"/>
<g style="mix-blend-mode:hard-light" opacity="0.7">
<path d="M49.6023 22.4616C49.634 22.3443 49.6554 22.2244 49.6664 22.1034C49.6737 22.0761 49.6796 21.9845 49.6793 21.9658C49.7223 20.9242 49.3501 19.9082 48.6446 19.1408L46.0951 16.5941L46.0711 16.5744C45.8017 16.2791 45.4578 16.0617 45.0754 15.945C44.6931 15.8284 44.2864 15.8168 43.8981 15.9116C43.5097 16.0063 43.154 16.2038 42.8683 16.4833C42.5826 16.7629 42.3774 17.1142 42.2742 17.5004C42.2434 17.6181 42.2228 17.7381 42.2127 17.8593C42.2068 17.9052 42.2033 17.9514 42.2022 17.9976C42.1575 19.0375 42.5269 20.0527 43.2295 20.8206L45.7815 23.3679L45.8064 23.3746C46.0756 23.6706 46.4196 23.8886 46.8022 24.0057C47.1849 24.1227 47.592 24.1345 47.9807 24.0398C48.3695 23.9452 48.7256 23.7475 49.0115 23.4676C49.2975 23.1877 49.5027 22.8359 49.6057 22.4492L49.6023 22.4616Z" fill="#FAFAFA"/>
</g>
<path d="M44.1292 16.9882C43.853 18.019 44.2827 19.5052 45.0869 20.3091L47.6365 22.8557C48.4407 23.6596 49.3177 23.4766 49.5939 22.4458C49.8701 21.415 49.4403 19.9288 48.6361 19.125L46.0866 16.5783C45.2698 15.7817 44.4027 15.9674 44.1292 16.9882Z" fill="#E0E0E0"/>
<path d="M44.902 15.899C44.3411 15.7728 43.7532 15.8684 43.2611 16.1657C42.7691 16.4631 42.4112 16.9392 42.2622 17.4945C42.2314 17.6121 42.2108 17.7322 42.2006 17.8534C42.1948 17.8993 42.1913 17.9454 42.1902 17.9917C42.1567 18.885 42.4213 19.7641 42.9422 20.4906C42.4189 19.1152 42.1465 18.2542 42.6538 17.1655C42.8543 16.75 43.1772 16.4059 43.5792 16.1794C43.9811 15.953 44.4427 15.8552 44.902 15.899Z" fill="white"/>
<path d="M44.8956 21.6556C44.7922 21.5296 44.724 21.3786 44.6979 21.2178C44.6718 21.0569 44.6887 20.8921 44.7469 20.7399C44.8876 20.3093 45.1279 19.9179 45.4482 19.5976C45.7686 19.2773 46.16 19.0371 46.5906 18.8965C46.7428 18.8378 46.9078 18.8208 47.0687 18.8471C47.2296 18.8733 47.3807 18.942 47.5063 19.046L48.8742 20.4188C49.0455 20.5908 49.1814 20.7948 49.2739 21.0193C49.3664 21.2437 49.4139 21.4842 49.4135 21.727C49.4131 21.9697 49.3648 22.21 49.2715 22.4342C49.1783 22.6583 49.0418 22.8619 48.8698 23.0333C48.6979 23.2046 48.4938 23.3405 48.2694 23.433C48.0449 23.5255 47.8044 23.573 47.5617 23.5726C47.3189 23.5721 47.0786 23.5239 46.8545 23.4306C46.6303 23.3374 46.4267 23.2009 46.2554 23.0289L44.8956 21.6556Z" fill="#F5F5F5"/>
<path d="M43.0091 19.7657C42.6741 19.4166 42.4892 18.9501 42.4942 18.4663C42.4992 17.9825 42.6936 17.5199 43.0358 17.1779C43.378 16.8358 43.8406 16.6414 44.3244 16.6366C44.8082 16.6317 45.2747 16.8167 45.6236 17.1518L47.5117 19.0474C47.3861 18.9434 47.2351 18.8747 47.0741 18.8484C46.9132 18.8222 46.7482 18.8392 46.596 18.8979C46.1654 19.0385 45.774 19.2787 45.4537 19.599C45.1333 19.9193 44.893 20.3106 44.7524 20.7413C44.6941 20.8934 44.6772 21.0583 44.7033 21.2191C44.7294 21.38 44.7976 21.531 44.901 21.6569L43.0091 19.7657Z" fill="#516EB4"/>
<path opacity="0.4" d="M44.1137 17.2509C43.9816 17.3833 43.9073 17.5626 43.9071 17.7497C43.9068 17.9367 43.9807 18.1163 44.1126 18.2489L46.3907 20.5366C46.7188 20.2219 46.9607 19.8285 47.0936 19.3938C47.1056 19.3491 47.1162 19.3093 47.1269 19.2696L45.1118 17.2521C45.0464 17.1864 44.9687 17.1342 44.8831 17.0986C44.7975 17.0629 44.7057 17.0445 44.613 17.0444C44.5203 17.0443 44.4285 17.0625 44.3428 17.0979C44.2571 17.1333 44.1793 17.1854 44.1137 17.2509Z" fill="white"/>
<path d="M44.8956 21.6556C44.7922 21.5296 44.724 21.3786 44.6979 21.2178C44.6718 21.0569 44.6887 20.8921 44.7469 20.7399C44.8876 20.3093 45.1279 19.9179 45.4482 19.5976C45.7686 19.2773 46.16 19.0371 46.5906 18.8965C46.7428 18.8378 46.9078 18.8208 47.0687 18.8471C47.2296 18.8733 47.3807 18.942 47.5063 19.046L48.8742 20.4188C49.0455 20.5908 49.1814 20.7948 49.2739 21.0193C49.3664 21.2437 49.4139 21.4842 49.4135 21.727C49.4131 21.9697 49.3648 22.21 49.2715 22.4342C49.1783 22.6583 49.0418 22.8619 48.8698 23.0333C48.6979 23.2046 48.4938 23.3405 48.2694 23.433C48.0449 23.5255 47.8044 23.573 47.5617 23.5726C47.3189 23.5721 47.0786 23.5239 46.8545 23.4306C46.6303 23.3374 46.4267 23.2009 46.2554 23.0289L44.8956 21.6556Z" fill="#F5F5F5"/>
<path opacity="0.1" d="M46.5909 18.8967C46.1602 19.0373 45.7688 19.2775 45.4485 19.5978C45.1281 19.9181 44.8879 20.3094 44.7472 20.7401C44.689 20.8922 44.672 21.0571 44.6981 21.2179C44.7242 21.3788 44.7925 21.5298 44.8958 21.6557L44.7891 21.5473L44.7069 21.4667C44.603 21.341 44.5345 21.1899 44.5084 21.029C44.4823 20.8681 44.4995 20.7031 44.5583 20.551C44.6989 20.1204 44.9392 19.729 45.2596 19.4087C45.5799 19.0884 45.9713 18.8482 46.4019 18.7076C46.5541 18.6489 46.7191 18.6319 46.88 18.6582C47.041 18.6844 47.192 18.7531 47.3176 18.8571L47.5065 19.0462C47.3809 18.9422 47.2299 18.8735 47.069 18.8472C46.908 18.8209 46.743 18.838 46.5909 18.8967Z" fill="black"/>
<path d="M49.3902 22.0107C49.3393 22.3486 49.1954 22.6657 48.9747 22.9265C48.7541 23.1874 48.4652 23.3818 48.1405 23.4881C47.8157 23.5944 47.4679 23.6083 47.1356 23.5283C46.8034 23.4484 46.5 23.2777 46.2591 23.0353L44.8944 21.6606C44.791 21.5347 44.7228 21.3837 44.6967 21.2228C44.6706 21.062 44.6875 20.8971 44.7458 20.745C44.7968 20.5615 44.8716 20.3856 44.9685 20.2216L47.2541 22.5112C48.0076 23.2562 49.2239 22.5918 49.3902 22.0107Z" fill="#E0E0E0"/>
<path d="M48.7565 21.9127C48.691 21.9782 48.6132 22.0303 48.5275 22.0657C48.4418 22.1011 48.35 22.1193 48.2573 22.1192C48.1646 22.1191 48.0728 22.1007 47.9872 22.065C47.9016 22.0294 47.8239 21.9772 47.7585 21.9115L45.4502 19.5971C45.7658 19.2697 46.1594 19.028 46.5942 18.8947C46.6352 18.8832 46.6768 18.8739 46.7188 18.8668L48.7609 20.9128C48.8928 21.046 48.9665 21.2262 48.9657 21.4137C48.9649 21.6011 48.8896 21.7806 48.7565 21.9127Z" fill="white"/>
<path opacity="0.1" d="M43.1855 17.0014L43.2714 16.9392L43.3332 16.8972L43.4057 16.8554L43.4812 16.8118L43.5233 16.7938C43.6393 16.7395 43.7603 16.697 43.8848 16.667L44.0224 16.64C43.4445 16.8099 42.776 18.0231 43.5274 18.7755C43.7832 19.0331 44.1652 19.4256 44.9602 20.2243C44.8633 20.3882 44.7884 20.5642 44.7374 20.7476C44.6792 20.8998 44.6623 21.0647 44.6884 21.2255C44.7145 21.3863 44.7827 21.5374 44.8861 21.6633L42.9967 19.7727C42.6508 19.4256 42.4566 18.9556 42.4566 18.4656C42.4567 17.9755 42.651 17.5055 42.997 17.1585C43.0394 17.1193 43.0819 17.0801 43.1262 17.0441L43.1855 17.0014Z" fill="black"/>
<g style="mix-blend-mode:hard-light" opacity="0.7">
<path d="M59.1604 31.9553C59.1915 31.838 59.2138 31.7185 59.2269 31.5978C59.2342 31.5704 59.2376 31.4782 59.2373 31.4595C59.2813 30.4184 58.91 29.4025 58.2051 28.6352L55.6531 26.0878L55.6258 26.0805C55.3564 25.7852 55.0125 25.5678 54.6301 25.4511C54.2478 25.3345 53.8411 25.3229 53.4527 25.4177C53.0644 25.5124 52.7087 25.7099 52.423 25.9895C52.1373 26.269 51.9321 26.6203 51.8289 27.0065C51.7981 27.1242 51.7775 27.2442 51.7674 27.3654C51.7607 27.3903 51.7601 27.462 51.7569 27.5037C51.7116 28.5437 52.0811 29.5591 52.7842 30.3267L55.3362 32.874L55.361 32.8807C55.6303 33.1767 55.9743 33.3947 56.3569 33.5118C56.7395 33.6288 57.1467 33.6406 57.5354 33.546C57.9242 33.4513 58.2803 33.2536 58.5662 32.9737C58.8522 32.6938 59.0574 32.342 59.1604 31.9553Z" fill="#FAFAFA"/>
</g>
<path d="M53.6988 26.496C53.4232 27.5244 53.8498 29.0124 54.654 29.8162L57.206 32.3635C58.0078 33.1667 58.8848 32.9837 59.161 31.9529C59.4372 30.9221 59.0074 29.4359 58.2057 28.6328L55.6537 26.0854C54.8495 25.2816 53.975 25.4652 53.6988 26.496Z" fill="#E0E0E0"/>
<path d="M54.4728 25.3958C53.912 25.2703 53.3243 25.3661 52.8324 25.6634C52.3406 25.9607 51.9825 26.4364 51.833 26.9913C51.8022 27.1089 51.7816 27.229 51.7714 27.3502C51.7648 27.375 51.7642 27.4468 51.761 27.4885C51.7275 28.3818 51.9921 29.261 52.513 29.9875C51.9922 28.6127 51.7173 27.751 52.224 26.6648C52.4247 26.2492 52.7477 25.9049 53.1496 25.6781C53.5516 25.4513 54.0133 25.3528 54.4728 25.3958Z" fill="white"/>
<path d="M54.4619 31.1511C54.3586 31.0257 54.2904 30.8751 54.2642 30.7147C54.2379 30.5543 54.2546 30.3898 54.3126 30.2379C54.4534 29.807 54.6937 29.4153 55.0141 29.0946C55.3346 28.7739 55.7261 28.5332 56.1569 28.3921C56.3091 28.3334 56.4741 28.3164 56.635 28.3426C56.796 28.3689 56.947 28.4376 57.0726 28.5416L58.4405 29.9144C58.7868 30.261 58.9812 30.731 58.981 31.221C58.9807 31.7109 58.7859 32.1807 58.4393 32.527C58.0926 32.8733 57.6227 33.0677 57.1327 33.0675C56.6427 33.0673 56.1729 32.8724 55.8266 32.5258L54.4619 31.1511Z" fill="#F5F5F5"/>
<path d="M52.5721 29.2604C52.2259 28.9138 52.0314 28.4438 52.0317 27.9539C52.0319 27.4639 52.2268 26.9941 52.5734 26.6478C52.92 26.3015 53.39 26.1071 53.8799 26.1073C54.3699 26.1076 54.8397 26.3024 55.186 26.649L57.0747 28.5421C56.9491 28.4381 56.7981 28.3695 56.6371 28.3432C56.4762 28.3169 56.3112 28.334 56.159 28.3926C55.7282 28.5338 55.3367 28.7744 55.0163 29.0951C54.6958 29.4158 54.4555 29.8075 54.3147 30.2385C54.2566 30.39 54.2395 30.5543 54.2653 30.7145C54.2911 30.8748 54.3588 31.0254 54.4615 31.151L52.5721 29.2604Z" fill="#516EB4"/>
<path opacity="0.4" d="M53.6841 26.7524C53.5518 26.8851 53.4773 27.0648 53.4769 27.2523C53.4766 27.4397 53.5504 27.6197 53.6823 27.7529L55.9605 30.0405C56.2879 29.7254 56.5297 29.3321 56.6633 28.8978C56.6746 28.8555 56.6859 28.8133 56.6966 28.7736L54.6871 26.755C54.6217 26.6884 54.5438 26.6354 54.4578 26.5992C54.3718 26.563 54.2795 26.5443 54.1861 26.544C54.0928 26.5438 54.0004 26.5621 53.9142 26.5979C53.8281 26.6336 53.7498 26.6862 53.6841 26.7524Z" fill="white"/>
<path d="M54.4619 31.1511C54.3586 31.0257 54.2904 30.8751 54.2642 30.7147C54.2379 30.5543 54.2546 30.3898 54.3126 30.2379C54.4534 29.807 54.6937 29.4153 55.0141 29.0946C55.3346 28.7739 55.7261 28.5332 56.1569 28.3921C56.3091 28.3334 56.4741 28.3164 56.635 28.3426C56.796 28.3689 56.947 28.4376 57.0726 28.5416L58.4405 29.9144C58.7868 30.261 58.9812 30.731 58.981 31.221C58.9807 31.7109 58.7859 32.1807 58.4393 32.527C58.0926 32.8733 57.6227 33.0677 57.1327 33.0675C56.6427 33.0673 56.1729 32.8724 55.8266 32.5258L54.4619 31.1511Z" fill="#F5F5F5"/>
<path opacity="0.1" d="M56.1621 28.3933C55.7313 28.5345 55.3398 28.7751 55.0194 29.0958C54.6989 29.4166 54.4586 29.8083 54.3178 30.2392C54.2594 30.3904 54.242 30.5544 54.2674 30.7145C54.2927 30.8747 54.3599 31.0252 54.4621 31.1511L54.3548 31.0451L54.2732 30.962C54.1694 30.8368 54.1009 30.6862 54.0747 30.5257C54.0484 30.3652 54.0654 30.2006 54.1239 30.0488C54.2647 29.6179 54.505 29.2262 54.8255 28.9055C55.1459 28.5848 55.5374 28.3441 55.9682 28.2029C56.1204 28.1443 56.2854 28.1272 56.4463 28.1535C56.6073 28.1798 56.7583 28.2484 56.8839 28.3524L57.0728 28.5415C56.9476 28.4386 56.7974 28.3707 56.6374 28.3447C56.4775 28.3187 56.3135 28.3354 56.1621 28.3933Z" fill="black"/>
<path d="M58.9616 31.5075C58.9107 31.8454 58.7668 32.1624 58.5462 32.4233C58.3255 32.6842 58.0366 32.8786 57.7119 32.9849C57.3871 33.0911 57.0393 33.105 56.707 33.0251C56.3748 32.9451 56.0714 32.7744 55.8306 32.532L54.4622 31.1511C54.3589 31.0256 54.2907 30.875 54.2644 30.7146C54.2382 30.5542 54.2549 30.3897 54.3129 30.2379C54.3641 30.0536 54.4392 29.8768 54.5363 29.7121C55.3369 30.5096 56.3115 31.4922 56.8219 32.0017C57.5783 32.7554 58.7926 32.0985 58.9616 31.5075Z" fill="#E0E0E0"/>
<path d="M58.3263 31.4119C58.2608 31.4775 58.183 31.5295 58.0973 31.565C58.0116 31.6004 57.9198 31.6186 57.8271 31.6185C57.7344 31.6184 57.6426 31.6 57.557 31.5643C57.4714 31.5287 57.3937 31.4765 57.3283 31.4107L55.02 29.0964C55.3356 28.769 55.7293 28.5273 56.164 28.394C56.2072 28.3816 56.2492 28.3742 56.2886 28.3661L58.3307 30.4121C58.462 30.5456 58.5353 30.7256 58.5345 30.9129C58.5336 31.1002 58.4588 31.2796 58.3263 31.4119Z" fill="white"/>
<path opacity="0.1" d="M52.7586 26.4885C52.7861 26.4663 52.8148 26.4455 52.8444 26.4263C52.864 26.4108 52.8847 26.3968 52.9063 26.3843L52.9794 26.34C53.0043 26.3249 53.0302 26.3114 53.0568 26.2995C53.0692 26.2917 53.0825 26.2854 53.0964 26.2808C53.2121 26.2248 53.3335 26.1814 53.4585 26.1516C53.5011 26.1417 53.5461 26.1324 53.593 26.1264C53.0157 26.2938 52.3465 27.5095 53.0987 28.2594C53.3544 28.517 53.7389 28.9102 54.5314 29.7082C54.4343 29.873 54.3592 30.0498 54.308 30.234C54.2499 30.3868 54.2335 30.5522 54.2605 30.7134C54.2875 30.8745 54.3569 31.0256 54.4616 31.1511L52.5722 29.2605C52.2263 28.9139 52.0321 28.4442 52.0325 27.9545C52.0329 27.4648 52.2278 26.9954 52.5743 26.6494C52.6143 26.6076 52.6569 26.5684 52.7017 26.5318L52.7586 26.4885Z" fill="black"/>
<g style="mix-blend-mode:hard-light" opacity="0.7">
<path d="M52.1006 13.1372C52.1324 13.019 52.1541 12.8984 52.1653 12.7765C52.172 12.7517 52.1785 12.6576 52.1776 12.6413C52.1975 12.1239 52.1151 11.6076 51.9349 11.1222C51.7548 10.6367 51.4806 10.1916 51.128 9.81238L48.5784 7.2657L48.5511 7.25838C48.2813 6.96385 47.9374 6.7472 47.5553 6.63107C47.1731 6.51494 46.7668 6.50361 46.3788 6.59825C45.9907 6.69289 45.6352 6.89002 45.3495 7.16906C45.0637 7.44809 44.8581 7.79877 44.7543 8.18443C44.7235 8.30206 44.7029 8.42213 44.6927 8.5433C44.6864 8.58914 44.6829 8.63533 44.6823 8.6816C44.6373 9.72213 45.0064 10.7381 45.7089 11.5071L48.2609 14.0544L48.2824 14.0735C48.5516 14.3695 48.8957 14.5875 49.2783 14.7046C49.6609 14.8216 50.068 14.8334 50.4568 14.7387C50.8456 14.644 51.2016 14.4464 51.4876 14.1664C51.7735 13.8865 51.9788 13.5348 52.0817 13.1481L52.1006 13.1372Z" fill="#FAFAFA"/>
</g>
<path d="M46.6258 7.67125C46.3495 8.70205 46.7793 10.1882 47.5835 10.9921L50.1305 13.5381C50.9348 14.3419 51.8117 14.1589 52.0873 13.1306C52.3628 12.1023 51.9338 10.6136 51.1295 9.8098L48.58 7.26312C47.769 6.4548 46.902 6.64044 46.6258 7.67125Z" fill="#E0E0E0"/>
<path d="M47.401 6.57211C46.8402 6.44655 46.2525 6.5424 45.7607 6.83967C45.2688 7.13695 44.9108 7.61267 44.7612 8.16758C44.7304 8.28521 44.7098 8.40529 44.6997 8.52646C44.6933 8.5723 44.6899 8.61849 44.6892 8.66476C44.655 9.55821 44.9196 10.4376 45.4412 11.1637C44.918 9.78826 44.6455 8.92725 45.1522 7.84107C45.3529 7.42547 45.6759 7.08117 46.0778 6.85436C46.4798 6.62755 46.9415 6.52906 47.401 6.57211Z" fill="white"/>
<path d="M47.3949 12.3288C47.2914 12.2034 47.223 12.0528 47.1968 11.8923C47.1706 11.7319 47.1874 11.5674 47.2456 11.4156C47.3864 10.9846 47.6268 10.5929 47.9472 10.2722C48.2676 9.95149 48.6591 9.71081 49.09 9.56967C49.2422 9.51122 49.4073 9.49448 49.5681 9.52121C49.729 9.54793 49.8798 9.61713 50.005 9.72167L51.3735 11.092C51.5492 11.263 51.689 11.4673 51.785 11.6928C51.881 11.9184 51.9312 12.1608 51.9326 12.4059C51.934 12.6511 51.8867 12.894 51.7934 13.1207C51.7 13.3474 51.5626 13.5532 51.3889 13.7263C51.2153 13.8993 51.009 14.0361 50.782 14.1287C50.555 14.2213 50.3119 14.2678 50.0668 14.2655C49.8216 14.2633 49.5794 14.2123 49.3542 14.1156C49.1289 14.0189 48.9251 13.8783 48.7547 13.7021L47.3949 12.3288Z" fill="#F5F5F5"/>
<path d="M45.5087 10.436C45.3372 10.2643 45.2012 10.0606 45.1085 9.83644C45.0157 9.61226 44.9681 9.37201 44.9682 9.1294C44.9683 8.8868 45.0162 8.64659 45.1091 8.4225C45.2021 8.19841 45.3383 7.99481 45.5099 7.82335C45.6815 7.65188 45.8852 7.5159 46.1094 7.42316C46.3336 7.33043 46.5738 7.28276 46.8164 7.28287C47.0591 7.28298 47.2993 7.33088 47.5234 7.42382C47.7474 7.51677 47.951 7.65294 48.1225 7.82457L50.0106 9.72014C49.8854 9.61561 49.7346 9.5464 49.5737 9.51968C49.4129 9.49296 49.2478 9.50969 49.0956 9.56814C48.6647 9.70929 48.2732 9.94997 47.9528 10.2707C47.6324 10.5914 47.392 10.9831 47.2512 11.414C47.193 11.5658 47.1762 11.7304 47.2024 11.8908C47.2286 12.0513 47.297 12.2019 47.4005 12.3272L45.5087 10.436Z" fill="#516EB4"/>
<path opacity="0.4" d="M46.6119 7.92855C46.4795 8.06128 46.405 8.24097 46.4047 8.42841C46.4043 8.61586 46.4781 8.79583 46.61 8.92904L48.8882 11.2167C49.216 10.9018 49.4579 10.5084 49.5911 10.0739C49.6024 10.0317 49.613 9.99192 49.6237 9.95218L47.6142 7.93356C47.549 7.86692 47.4712 7.81389 47.3854 7.77752C47.2995 7.74116 47.2073 7.7222 47.1141 7.72173C47.0208 7.72127 46.9284 7.73931 46.8422 7.77481C46.756 7.81031 46.6777 7.86257 46.6119 7.92855Z" fill="white"/>
<path d="M47.3949 12.3288C47.2914 12.2034 47.223 12.0528 47.1968 11.8923C47.1706 11.7319 47.1874 11.5674 47.2456 11.4156C47.3864 10.9846 47.6268 10.5929 47.9472 10.2722C48.2676 9.95149 48.6591 9.71081 49.09 9.56967C49.2422 9.51122 49.4073 9.49448 49.5681 9.52121C49.729 9.54793 49.8798 9.61713 50.005 9.72167L51.3735 11.092C51.5492 11.263 51.689 11.4673 51.785 11.6928C51.881 11.9184 51.9312 12.1608 51.9326 12.4059C51.934 12.6511 51.8867 12.894 51.7934 13.1207C51.7 13.3474 51.5626 13.5532 51.3889 13.7263C51.2153 13.8993 51.009 14.0361 50.782 14.1287C50.555 14.2213 50.3119 14.2678 50.0668 14.2655C49.8216 14.2633 49.5794 14.2123 49.3542 14.1156C49.1289 14.0189 48.9251 13.8783 48.7547 13.7021L47.3949 12.3288Z" fill="#F5F5F5"/>
<path opacity="0.1" d="M49.0902 9.56984C48.6594 9.71098 48.2679 9.95166 47.9475 10.2724C47.627 10.5931 47.3867 10.9848 47.2459 11.4157C47.1877 11.5675 47.1708 11.7321 47.1971 11.8925C47.2233 12.053 47.2917 12.2036 47.3952 12.3289L47.2878 12.223L47.2063 12.1399C47.1023 12.0148 47.0336 11.8641 47.0073 11.7036C46.9811 11.543 46.9982 11.3784 47.0569 11.2267C47.1977 10.7957 47.4381 10.404 47.7585 10.0833C48.079 9.7626 48.4705 9.52192 48.9013 9.38078C49.0535 9.32233 49.2186 9.30559 49.3795 9.33232C49.5403 9.35904 49.6911 9.42825 49.8163 9.53278L50.0052 9.72184C49.8801 9.6173 49.7293 9.5481 49.5684 9.52138C49.4075 9.49466 49.2425 9.51139 49.0902 9.56984Z" fill="black"/>
<path d="M51.8902 12.6786C51.8315 13.0649 51.6509 13.4223 51.3746 13.6985C51.2029 13.871 50.9988 14.0079 50.7741 14.1014C50.5494 14.1949 50.3084 14.2432 50.0651 14.2435C49.8217 14.2438 49.5806 14.1962 49.3557 14.1032C49.1307 14.0103 48.9263 13.8739 48.7541 13.7019L47.39 12.3247C47.2865 12.1994 47.2181 12.0488 47.1919 11.8883C47.1657 11.7279 47.1825 11.5633 47.2407 11.4115C47.2921 11.2273 47.3672 11.0505 47.4641 10.8857L49.7498 13.1753C50.5055 13.9315 51.7218 13.2671 51.8902 12.6786Z" fill="#E0E0E0"/>
<path d="M51.2554 12.588C51.1227 12.7198 50.9432 12.7937 50.7561 12.7935C50.5691 12.7933 50.3897 12.7189 50.2574 12.5868L47.9491 10.2725C48.2641 9.94361 48.6582 9.70092 49.0937 9.56755L49.2183 9.5397L51.2604 11.5857C51.3924 11.7194 51.466 11.9 51.465 12.0879C51.4641 12.2758 51.3887 12.4556 51.2554 12.588Z" fill="white"/>
<path opacity="0.1" d="M45.6847 7.67473C45.7122 7.65254 45.7409 7.63179 45.7706 7.61255C45.7901 7.59707 45.8108 7.58304 45.8324 7.57055L45.9048 7.52873L45.9804 7.48509L46.0225 7.46709C46.1382 7.41103 46.2596 7.36769 46.3846 7.33782C46.4299 7.32601 46.4759 7.31699 46.5223 7.31082C45.945 7.47826 45.2758 8.69394 46.0273 9.44637C46.2837 9.70144 46.665 10.0965 47.46 10.8951C47.3631 11.06 47.288 11.2368 47.2366 11.421C47.1784 11.5728 47.1615 11.7373 47.1878 11.8978C47.214 12.0582 47.2824 12.2088 47.3859 12.3342L45.4965 10.4436C45.1506 10.097 44.9564 9.62741 44.9563 9.13779C44.9562 8.64818 45.1504 8.17852 45.4962 7.83187C45.5393 7.79018 45.5811 7.75345 45.6253 7.7174C45.6435 7.70109 45.6634 7.68679 45.6847 7.67473Z" fill="black"/>
<g style="mix-blend-mode:hard-light" opacity="0.7">
<path d="M61.6586 22.6307C61.6899 22.5126 61.7124 22.3922 61.7257 22.2707C61.7324 22.2459 61.7358 22.1536 61.7355 22.1349C61.7576 21.6194 61.6778 21.1046 61.5007 20.6199C61.3235 20.1353 61.0526 19.6904 60.7033 19.3106L58.1513 16.7632L58.1273 16.7435C57.8574 16.4488 57.5132 16.2321 57.1308 16.116C56.7484 15.9999 56.3419 15.9887 55.9537 16.0837C55.5655 16.1786 55.21 16.3761 54.9243 16.6555C54.6386 16.9349 54.4333 17.286 54.3298 17.672C54.2992 17.7888 54.2788 17.9081 54.2689 18.0284C54.2616 18.0557 54.261 18.1275 54.2585 18.1667C54.2129 19.2073 54.5821 20.2235 55.2851 20.9922L57.8371 23.5395L57.8619 23.5462C58.1311 23.8422 58.4751 24.0602 58.8578 24.1772C59.2404 24.2943 59.6475 24.3061 60.0363 24.2114C60.4251 24.1167 60.7811 23.919 61.0671 23.6391C61.353 23.3592 61.5583 23.0074 61.6612 22.6208L61.6586 22.6307Z" fill="#FAFAFA"/>
</g>
<path d="M56.1988 17.1689C55.9226 18.1997 56.3498 19.6852 57.154 20.489L59.706 23.0364C60.5078 23.8396 61.3848 23.6566 61.661 22.6258C61.9372 21.595 61.5074 20.1088 60.7057 19.3056L58.1537 16.7583C57.3495 15.9544 56.475 16.1381 56.1988 17.1689Z" fill="#E0E0E0"/>
<path d="M56.9708 16.0714C56.41 15.9452 55.822 16.0407 55.33 16.3381C54.838 16.6355 54.48 17.1116 54.331 17.6668C54.3005 17.7837 54.2801 17.9029 54.2702 18.0232C54.2628 18.0506 54.2623 18.1223 54.2597 18.1615C54.2255 19.055 54.4901 19.9344 55.0117 20.6605C54.4909 19.2857 54.2153 18.4265 54.7227 17.3378C54.9231 16.9224 55.2461 16.5782 55.648 16.3518C56.0499 16.1254 56.5116 16.0275 56.9708 16.0714Z" fill="white"/>
<path d="M56.9605 21.8272C56.8571 21.7012 56.7889 21.5502 56.7628 21.3894C56.7367 21.2285 56.7536 21.0636 56.8118 20.9115C56.9528 20.4806 57.1932 20.089 57.5136 19.7683C57.834 19.4477 58.2254 19.2069 58.6562 19.0656C58.8085 19.0079 58.9734 18.9916 59.1341 19.0183C59.2948 19.045 59.4456 19.1138 59.5712 19.2176L60.9391 20.5904C61.1105 20.7621 61.2465 20.9658 61.3392 21.19C61.432 21.4141 61.4797 21.6544 61.4795 21.897C61.4794 22.1396 61.4315 22.3798 61.3386 22.6039C61.2456 22.828 61.1095 23.0316 60.9378 23.203C60.7662 23.3745 60.5625 23.5105 60.3383 23.6032C60.1141 23.696 59.8739 23.7436 59.6313 23.7435C59.3887 23.7434 59.1485 23.6955 58.9244 23.6026C58.7003 23.5096 58.4967 23.3735 58.3252 23.2018L56.9605 21.8272Z" fill="#F5F5F5"/>
<path d="M55.0712 19.9335C54.7249 19.5869 54.5305 19.1169 54.5307 18.627C54.5309 18.137 54.7258 17.6672 55.0724 17.3209C55.419 16.9746 55.889 16.7802 56.3789 16.7804C56.8689 16.7807 57.3387 16.9755 57.685 17.3221L59.5731 19.2177C59.4475 19.1139 59.2967 19.0451 59.136 19.0184C58.9753 18.9918 58.8104 19.0081 58.6581 19.0657C58.2273 19.207 57.8359 19.4478 57.5155 19.7685C57.1951 20.0891 56.9547 20.4807 56.8137 20.9116C56.7555 21.0638 56.7386 21.2286 56.7647 21.3895C56.7908 21.5503 56.859 21.7013 56.9624 21.8273L55.0712 19.9335Z" fill="#516EB4"/>
<path opacity="0.4" d="M56.1829 17.4257C56.0506 17.5584 55.9761 17.7381 55.9757 17.9255C55.9754 18.113 56.0492 18.2929 56.1811 18.4262L58.4592 20.7138C58.787 20.3989 59.0289 20.0056 59.1621 19.571C59.1734 19.5288 59.1841 19.489 59.1947 19.4493L57.1852 17.4307C57.1199 17.3644 57.042 17.3116 56.9562 17.2754C56.8704 17.2393 56.7783 17.2204 56.6851 17.2199C56.592 17.2195 56.4997 17.2374 56.4135 17.2727C56.3273 17.308 56.249 17.36 56.1829 17.4257Z" fill="white"/>
<path d="M56.9605 21.8272C56.8571 21.7012 56.7889 21.5502 56.7628 21.3894C56.7367 21.2285 56.7536 21.0636 56.8118 20.9115C56.9528 20.4806 57.1932 20.089 57.5136 19.7683C57.834 19.4477 58.2254 19.2069 58.6562 19.0656C58.8085 19.0079 58.9734 18.9916 59.1341 19.0183C59.2948 19.045 59.4456 19.1138 59.5712 19.2176L60.9391 20.5904C61.1105 20.7621 61.2465 20.9658 61.3392 21.19C61.432 21.4141 61.4797 21.6544 61.4795 21.897C61.4794 22.1396 61.4315 22.3798 61.3386 22.6039C61.2456 22.828 61.1095 23.0316 60.9378 23.203C60.7662 23.3745 60.5625 23.5105 60.3383 23.6032C60.1141 23.696 59.8739 23.7436 59.6313 23.7435C59.3887 23.7434 59.1485 23.6955 58.9244 23.6026C58.7003 23.5096 58.4967 23.3735 58.3252 23.2018L56.9605 21.8272Z" fill="#F5F5F5"/>
<path opacity="0.1" d="M58.661 19.0664C58.2303 19.2077 57.8389 19.4485 57.5184 19.7692C57.198 20.0898 56.9576 20.4814 56.8167 20.9123C56.7584 21.0645 56.7415 21.2293 56.7676 21.3902C56.7937 21.551 56.8619 21.702 56.9653 21.828L56.8586 21.7195L56.7764 21.6389C56.6725 21.5132 56.604 21.3622 56.5779 21.2012C56.5517 21.0403 56.5689 20.8753 56.6277 20.7232C56.7687 20.2924 57.0091 19.9008 57.3295 19.5801C57.6499 19.2594 58.0413 19.0187 58.472 18.8774C58.6243 18.8189 58.7894 18.8022 58.9502 18.8289C59.1111 18.8556 59.2619 18.9248 59.387 19.0293L59.576 19.2184C59.4504 19.1146 59.2997 19.0458 59.139 19.0192C58.9783 18.9925 58.8133 19.0088 58.661 19.0664Z" fill="black"/>
<path d="M61.4606 22.1831C61.4019 22.5694 61.2213 22.9267 60.945 23.203C60.5983 23.5495 60.1281 23.7442 59.6379 23.7441C59.1476 23.744 58.6775 23.5493 58.3308 23.2027L56.9611 21.8267C56.8577 21.7008 56.7895 21.5497 56.7634 21.3889C56.7373 21.2281 56.7542 21.0632 56.8125 20.911C56.8638 20.7268 56.9389 20.55 57.0359 20.3852L59.3215 22.6748C60.0779 23.4286 61.2942 22.7641 61.4606 22.1831Z" fill="#E0E0E0"/>
<path d="M60.826 22.0854C60.7605 22.151 60.6827 22.203 60.597 22.2385C60.5113 22.2739 60.4195 22.2921 60.3268 22.292C60.2341 22.2919 60.1423 22.2735 60.0567 22.2378C59.9711 22.2022 59.8934 22.15 59.828 22.0842L57.5103 19.7754C57.8259 19.4472 58.2198 19.2046 58.6549 19.0704L58.7788 19.0451L60.8209 21.0911C60.9525 21.2228 61.0268 21.401 61.0278 21.5872C61.0287 21.7734 60.9562 21.9524 60.826 22.0854Z" fill="white"/>
<path opacity="0.1" d="M55.2556 17.1717C55.2832 17.1495 55.3119 17.1287 55.3415 17.1095C55.3611 17.0961 55.3813 17.0802 55.4034 17.0675L55.4758 17.0257L55.5539 16.9827L55.5935 16.964C55.709 16.9088 55.8302 16.8663 55.9549 16.8373C55.9992 16.8247 56.0444 16.8154 56.0901 16.8096C55.5121 16.9795 54.8436 18.1927 55.5951 18.9451C55.8509 19.2027 56.2353 19.5959 57.0278 20.3939C56.9309 20.5588 56.8558 20.7355 56.8044 20.9197C56.7462 21.0719 56.7292 21.2368 56.7554 21.3976C56.7815 21.5584 56.8497 21.7095 56.9531 21.8354L55.0643 19.9423C54.8927 19.7709 54.7566 19.5673 54.6638 19.3432C54.571 19.1191 54.5234 18.8789 54.5236 18.6364C54.5238 18.3938 54.5718 18.1537 54.665 17.9298C54.7581 17.7058 54.8946 17.5024 55.0665 17.3313C55.1067 17.2908 55.149 17.2524 55.1931 17.2162L55.2556 17.1717Z" fill="black"/>
<path d="M27.877 11.6091C27.1262 11.4497 26.3649 11.3447 25.599 11.295C24.8929 11.2548 24.2152 11.0034 23.6538 10.5734C23.0923 10.1435 22.6729 9.55474 22.45 8.88358L21.231 5.09628L8.86526 9.07642L10.0843 12.8637C10.2969 13.5399 10.3008 14.2644 10.0955 14.9428C9.89011 15.6212 9.485 16.2219 8.93303 16.6665C8.33993 17.1537 7.78278 17.683 7.26594 18.2505C4.94578 20.8113 4.22119 23.4222 4.91394 25.5745L14.1059 54.1327C14.7987 56.285 16.9146 57.9816 20.2885 58.7097C27.0452 60.1631 36.2658 57.1953 40.8907 52.0785C43.2109 49.5176 43.9384 46.9082 43.2449 44.7537L34.0508 16.189C33.3683 14.031 31.2444 12.3394 27.877 11.6091Z" fill="#516EB4"/>
<path opacity="0.7" d="M27.877 11.6091C27.1262 11.4497 26.3649 11.3447 25.599 11.295C24.8929 11.2548 24.2152 11.0034 23.6538 10.5734C23.0923 10.1435 22.6729 9.55474 22.45 8.88358L21.231 5.09628L8.86526 9.07642L10.0843 12.8637C10.2969 13.5399 10.3008 14.2644 10.0955 14.9428C9.89011 15.6212 9.485 16.2219 8.93303 16.6665C8.33993 17.1537 7.78278 17.683 7.26594 18.2505C4.94578 20.8113 4.22119 23.4222 4.91394 25.5745L14.1059 54.1327C14.7987 56.285 16.9146 57.9816 20.2885 58.7097C27.0452 60.1631 36.2658 57.1953 40.8907 52.0785C43.2109 49.5176 43.9384 46.9082 43.2449 44.7537L34.0508 16.189C33.3683 14.031 31.2444 12.3394 27.877 11.6091Z" fill="white"/>
<path d="M31.3967 57.8481C39.4402 55.2591 44.7608 49.4325 43.2807 44.834C41.8006 40.2355 34.0802 38.6064 26.0367 41.1953C17.9932 43.7843 12.6725 49.6109 14.1527 54.2094C15.6328 58.8079 23.3532 60.437 31.3967 57.8481Z" fill="#516EB4"/>
<path opacity="0.5" d="M31.3967 57.8481C39.4402 55.2591 44.7608 49.4325 43.2807 44.834C41.8006 40.2355 34.0802 38.6064 26.0367 41.1953C17.9932 43.7843 12.6725 49.6109 14.1527 54.2094C15.6328 58.8079 23.3532 60.437 31.3967 57.8481Z" fill="white"/>
<path opacity="0.4" d="M23.6941 8.69841C20.5156 8.01382 16.559 8.70682 13.2839 10.3149L12.5079 7.90397L8.86526 9.07642L10.0836 12.8615C10.2971 13.5379 10.3015 14.2629 10.0963 14.9418C9.89099 15.6207 9.48556 16.2218 8.93303 16.6665C8.34154 17.1555 7.78452 17.6847 7.26594 18.2505C7.24183 18.2582 7.23127 18.2931 7.2085 18.3125C4.93515 20.8535 4.22613 23.4376 4.91606 25.5811L14.1031 54.1239C14.7973 56.2806 16.9118 57.9728 20.2857 58.7009C25.141 59.748 31.2733 58.495 36.0602 55.8126C24.4734 60.4394 20.0073 56.3331 18.8377 52.6992L9.90035 24.9322C9.48766 23.6501 9.3398 22.5294 9.95567 21.3467C10.5236 21.6069 11.1194 21.8015 11.7314 21.9265C16.5519 22.963 23.138 20.8431 26.4445 17.1908C29.7509 13.5385 28.516 9.73933 23.6941 8.69841Z" fill="white"/>
<path opacity="0.4" d="M27.877 11.6091C27.1262 11.4496 26.3649 11.3447 25.599 11.2949C24.8929 11.2547 24.2152 11.0033 23.6537 10.5734C23.0923 10.1434 22.6729 9.55466 22.45 8.88351L21.231 5.0962L19.8809 5.53076L21.5126 10.6002C21.8886 11.7684 23.2522 12.5558 24.6206 12.8168C25.989 13.0778 30.2057 13.4936 31.6679 14.9628C33.061 16.36 33.8528 19.7744 35.1226 23.7195L41.6127 43.8834C42.4367 46.4433 42.5615 50.4909 38.5244 54.2478C39.3846 53.6068 40.1839 52.888 40.9123 52.1005C43.2325 49.5396 43.9853 47.0164 43.2559 44.7501L34.0618 16.1854C33.3683 14.0309 31.2444 12.3393 27.877 11.6091Z" fill="white"/>
<path d="M27.1737 9.0489L27.5208 10.1272C28.0146 11.6614 27.5022 13.534 25.842 15.3721C22.5348 19.0223 15.9509 21.1414 11.1246 20.1092C10.0707 19.9084 9.07343 19.4798 8.20242 18.8535C7.50996 18.3555 6.9911 17.6528 6.71888 16.8445L6.3584 15.7245C6.27945 15.4907 6.2313 15.2477 6.21516 15.0014C6.04817 13.6184 6.63249 12.0371 8.02975 10.4941C8.06883 10.4475 8.11139 10.4038 8.15707 10.3636C11.5078 6.78893 17.9921 4.73572 22.7472 5.75702C24.7822 6.19531 26.1901 7.13536 26.8584 8.34735C26.9924 8.5671 27.0983 8.80279 27.1737 9.0489Z" fill="#F0F0F0"/>
<path d="M19.5539 18.1001L18.3215 14.2711C17.834 12.7566 18.8771 14.6824 16.2208 15.5374C13.9173 16.2789 10.158 11.6257 8.16871 10.36C8.12304 10.4002 8.08048 10.4438 8.0414 10.4905C6.64414 12.0335 6.05982 13.6148 6.2268 14.9978C6.24295 15.244 6.2911 15.4871 6.37004 15.7209L6.73053 16.8409C7.00275 17.6492 7.5216 18.3518 8.21407 18.8499C9.08507 19.4762 10.0824 19.9047 11.1362 20.1056C15.9626 21.1378 22.5465 19.0186 25.8536 15.3685C23.3377 17.4264 20.0188 19.5444 19.5539 18.1001Z" fill="#E0E0E0"/>
<path d="M18.6938 18.3818C24.4398 16.5324 28.2322 12.3434 27.1642 9.02556C26.0963 5.7077 20.5725 4.51734 14.8265 6.36681C9.08045 8.21628 5.28808 12.4052 6.356 15.7231C7.42392 19.041 12.9477 20.2313 18.6938 18.3818Z" fill="#455A64"/>
<path d="M26.013 5.44094L26.7057 7.59322C26.7879 7.83711 26.8394 8.09032 26.8588 8.34697C27.023 9.72122 26.4277 11.306 25.0298 12.8469C23.5492 14.4844 21.413 15.8057 19.0813 16.6699C16.1874 17.7562 12.9809 18.1497 10.3095 17.5752C9.2602 17.375 8.26582 16.9529 7.39301 16.337C6.90981 15.9814 6.50958 15.5251 6.21998 14.9997C6.0885 14.7873 5.9849 14.5589 5.91174 14.32L5.20276 12.1173C4.70895 10.5831 5.22552 8.72371 6.87411 6.88693C7.02358 6.72756 7.17304 6.56819 7.33628 6.41406C10.7664 3.04842 16.9905 1.15635 21.5915 2.14984C24.0079 2.67582 25.5244 3.89296 26.013 5.44094Z" fill="#F0F0F0"/>
<path d="M17.517 14.7261C23.263 12.8766 27.0554 8.68767 25.9875 5.3698C24.9196 2.05194 19.3958 0.861577 13.6497 2.71105C7.90369 4.56052 4.11132 8.74947 5.17924 12.0673C6.24716 15.3852 11.771 16.5756 17.517 14.7261Z" fill="#FAFAFA"/>
<path d="M7.38989 16.3307C8.2627 16.9466 9.25708 17.3687 10.3064 17.5689C12.9785 18.1456 16.1842 17.7499 19.0782 16.6636C18.8633 15.8983 19.1001 15.1835 16.2064 15.5344C13.8035 15.8241 10.157 15.9625 7.80074 13.9925C5.6358 12.1811 5.49836 8.9285 7.32737 6.40477C7.16413 6.5589 7.01466 6.71827 6.8652 6.87764C5.21308 8.70346 4.69651 10.5629 5.19385 12.108L5.90282 14.3107C5.97598 14.5496 6.07958 14.778 6.21107 14.9904C6.50199 15.5175 6.90426 15.9748 7.38989 16.3307Z" fill="#E0E0E0"/>
<path d="M33.164 27.862C28.4984 32.9726 19.2274 35.9566 12.4566 34.5271C9.07085 33.8149 6.95192 32.1313 6.2627 29.99L10.8142 44.131C11.5035 46.2723 13.6224 47.9559 17.0082 48.6681C23.7789 50.0976 33.0499 47.1136 37.7156 42.003C40.0502 39.4496 40.7893 36.8461 40.1001 34.7048L35.5485 20.5638C36.2378 22.7051 35.4987 25.3086 33.164 27.862Z" fill="#516EB4"/>
<path d="M32.7282 26.5073C28.0618 31.6156 18.7908 34.5997 12.0208 33.1723C8.63433 32.4579 6.5161 30.7766 5.82688 28.6353L10.3784 42.7763C11.0684 44.9198 13.1866 46.6011 16.5724 47.3134C23.3424 48.7407 32.6134 45.7567 37.2798 40.6483C39.6137 38.0926 40.3535 35.4914 39.6643 33.3501L35.112 19.2069C35.8019 21.3504 35.0622 23.9516 32.7282 26.5073Z" fill="#FAFAFA"/>
<path d="M20.3079 39.7058C20.0105 38.8251 19.5402 38.0127 18.9244 37.3163L18.9188 37.2987C18.2156 36.5043 17.3785 35.9175 16.604 35.7508C15.4743 35.5097 14.9642 36.668 15.052 38.0305C15.0623 38.1675 14.9154 38.2221 14.8526 38.0947C14.0342 36.5441 12.5813 34.8856 11.4188 34.6406C10.6406 34.4774 10.0901 34.7659 9.83564 35.3581C9.62134 35.8722 9.62469 36.604 9.90553 37.469C10.769 40.1517 13.164 42.0391 15.3347 44.1389L17.5845 46.1165L18.7131 44.8584C19.7345 43.4629 21.1757 42.3871 20.3079 39.7058Z" fill="#516EB4"/>
<path d="M13.6387 40.8845L13.7363 39.0462C13.7348 38.9892 13.7519 38.9333 13.7849 38.8869C13.818 38.8405 13.8652 38.8061 13.9196 38.7889C13.9744 38.7716 14.0335 38.7738 14.0869 38.7949C14.1404 38.8159 14.185 38.8547 14.2133 38.9048L16.3897 42.3525L16.4817 40.0008C16.4841 39.947 16.5032 39.8954 16.5364 39.853C16.5697 39.8106 16.6153 39.7797 16.667 39.7646C16.7184 39.7515 16.7727 39.7548 16.8222 39.774C16.8717 39.7932 16.914 39.8273 16.9433 39.8716L18.17 41.7214L20.5268 42.2278L20.5034 42.3128C20.4657 42.4298 20.422 42.5448 20.3724 42.6573L20.3462 42.7189L17.9524 42.2026C17.8873 42.1888 17.8303 42.1498 17.794 42.094L16.9487 40.8204L16.8542 43.2697C16.8519 43.325 16.8317 43.3782 16.7968 43.4213C16.7618 43.4643 16.714 43.495 16.6602 43.5087C16.6068 43.5215 16.5506 43.5167 16.5001 43.4951C16.4495 43.4734 16.4073 43.4361 16.3797 43.3885L14.2886 40.0706L14.167 41.1958C14.1687 41.2348 14.1614 41.2736 14.1456 41.3093C14.1298 41.345 14.106 41.3766 14.076 41.4016C14.0457 41.4277 14.0098 41.4465 13.971 41.4564C13.9323 41.4664 13.8918 41.4672 13.8526 41.459L11.968 41.0521L11.95 41.0337C11.8176 40.8853 11.688 40.7383 11.5644 40.587L11.4148 40.4078L13.6387 40.8845Z" fill="#FAFAFA"/>
<path d="M24.877 37.2389C24.3181 37.4188 23.7492 37.5825 23.1659 37.7316C23.1068 37.7462 23.0444 37.7369 22.9922 37.7057C22.94 37.6744 22.9023 37.6238 22.8873 37.5649C22.8726 37.5058 22.8819 37.4434 22.9132 37.3912C22.9444 37.339 22.995 37.3012 23.054 37.2863C26.9803 36.2813 30.3951 34.5436 32.9382 32.2545C32.9607 32.2342 32.987 32.2185 33.0156 32.2084C33.0442 32.1983 33.0745 32.194 33.1047 32.1956C33.135 32.1971 33.1647 32.2047 33.192 32.2178C33.2194 32.2308 33.2439 32.2491 33.2642 32.2717C33.2845 32.2942 33.3001 32.3205 33.3102 32.3491C33.3203 32.3777 33.3247 32.408 33.3231 32.4383C33.3215 32.4685 33.314 32.4982 33.3009 32.5256C33.2878 32.5529 33.2695 32.5774 33.247 32.5977C31.031 34.5954 28.1602 36.1821 24.877 37.2389Z" fill="#E0E0E0"/>
<path d="M25.6431 39.619C25.0842 39.7989 24.5153 39.9627 23.932 40.1117C23.873 40.1264 23.8105 40.117 23.7583 40.0858C23.7061 40.0546 23.6684 40.0039 23.6534 39.945C23.6387 39.8859 23.648 39.8235 23.6793 39.7713C23.7105 39.7191 23.7611 39.6814 23.8201 39.6664C27.7464 38.6614 31.1612 36.9238 33.7043 34.6346C33.7498 34.5936 33.8097 34.5724 33.8709 34.5757C33.932 34.5789 33.9894 34.6063 34.0303 34.6518C34.0713 34.6973 34.0925 34.7572 34.0892 34.8184C34.086 34.8795 34.0586 34.9369 34.0131 34.9778C31.7971 36.9755 28.9263 38.5622 25.6431 39.619Z" fill="#E0E0E0"/>
<path d="M26.4099 42.0016C25.851 42.1815 25.2821 42.3453 24.6987 42.4944C24.6394 42.5093 24.5766 42.5 24.524 42.4686C24.4715 42.4372 24.4336 42.3862 24.4187 42.3269C24.4038 42.2676 24.413 42.2047 24.4444 42.1522C24.4758 42.0997 24.5268 42.0618 24.5861 42.0468C28.5132 41.0441 31.928 39.3064 34.471 37.0172C34.5163 36.9765 34.5759 36.9554 34.6367 36.9584C34.6976 36.9615 34.7547 36.9886 34.7956 37.0337C34.8162 37.0561 34.8321 37.0824 34.8424 37.111C34.8528 37.1396 34.8573 37.17 34.8559 37.2004C34.8544 37.2308 34.8469 37.2606 34.8339 37.288C34.8208 37.3155 34.8025 37.3401 34.7799 37.3605C32.5624 39.3538 29.6931 40.9449 26.4099 42.0016Z" fill="#E0E0E0"/>
<path d="M55.1473 31.808C55.1473 30.392 54.2122 28.9731 52.3391 27.8925C48.5958 25.7315 42.5252 25.7315 38.7819 27.8925C36.9087 28.9731 35.9736 30.392 35.9736 31.808V56.4201C35.9736 57.836 36.9087 59.252 38.7819 60.3326C42.5252 62.4966 48.5958 62.4966 52.3391 60.3326C54.2122 59.252 55.1473 57.836 55.1473 56.4201V31.808Z" fill="#516EB4"/>
<path opacity="0.4" d="M51.4639 27.4509V60.7785C51.7682 60.65 52.0655 60.5053 52.3544 60.3451C52.9116 60.0304 53.4238 59.6419 53.8773 59.1904V29.051C53.4233 28.5992 52.9112 28.2098 52.3544 27.8932C52.0576 27.7329 51.7607 27.5875 51.4639 27.4509Z" fill="white"/>
<path opacity="0.4" d="M48.9482 61.5948C49.4144 61.4923 49.8751 61.3665 50.3286 61.2178V27.0115C49.8755 26.8614 49.4147 26.7356 48.9482 26.6345V61.5948Z" fill="white"/>
<path opacity="0.1" d="M54.9811 30.7868C54.3865 29.9874 53.626 29.3261 52.7517 28.8484C49.0559 26.714 43.2257 26.5686 39.2331 28.4061V27.658C39.0817 27.7352 38.9362 27.8094 38.7819 27.8925C36.9087 28.9731 35.9736 30.392 35.9736 31.808V35.5543V51.053V56.4201C35.9736 57.836 36.9087 59.252 38.7819 60.3326C42.5252 62.4966 48.5958 62.4966 52.3391 60.3326C52.9741 59.9775 53.5508 59.527 54.049 58.9967C52.2679 60.6621 47.8151 61.5793 44.5289 60.9292C41.2428 60.2791 39.2331 58.1774 39.2331 56.6813V51.807C41.0825 52.8074 43.5018 53.2912 45.8648 53.2912V43.3348C43.4899 43.3348 41.0825 42.9697 39.2331 41.9752V37.5937C43.2257 39.4312 49.0559 39.2857 52.7517 37.1514C53.7244 36.6286 54.5486 35.8677 55.1473 34.9398V31.808C55.1462 31.461 55.0901 31.1163 54.9811 30.7868Z" fill="black"/>
<path opacity="0.1" d="M37.5915 57.1061V28.73C36.5139 29.6591 35.9736 30.7337 35.9736 31.8083V56.4204C35.9736 57.8364 36.9087 59.2523 38.7819 60.3329C39.9162 60.9638 41.1453 61.4069 42.4213 61.645C38.8204 60.6683 37.5915 58.2074 37.5915 57.1061Z" fill="black"/>
<path d="M55.7287 27.4296C55.7287 25.9276 54.7372 24.4225 52.7602 23.2737C48.7883 20.982 42.3496 20.982 38.3777 23.2737C36.3918 24.4196 35.4092 25.9246 35.4092 27.4296V31.9359C35.4092 33.4379 36.4007 34.943 38.3777 36.0918C42.3496 38.3835 48.7883 38.3835 52.7602 36.0918C54.7461 34.9459 55.7287 33.4409 55.7287 31.9359V27.4296Z" fill="#E0E0E0"/>
<mask id="mask0_250_2926" style="mask-type:luminance" maskUnits="userSpaceOnUse" x="35" y="21" width="21" height="17">
<path d="M55.7287 27.4296C55.7287 25.9276 54.7372 24.4225 52.7602 23.2737C48.7883 20.982 42.3496 20.982 38.3777 23.2737C36.3918 24.4196 35.4092 25.9246 35.4092 27.4296V31.9359C35.4092 33.4379 36.4007 34.943 38.3777 36.0918C42.3496 38.3835 48.7883 38.3835 52.7602 36.0918C54.7461 34.9459 55.7287 33.4409 55.7287 31.9359V27.4296Z" fill="white"/>
</mask>
<g mask="url(#mask0_250_2926)">
<g opacity="0.2">
<path d="M55.9727 27.011H55.4858V34.0226H55.9727V27.011Z" fill="black"/>
<path d="M54.8496 28.9048H54.3628V35.955H54.8496V28.9048Z" fill="black"/>
<path d="M53.1524 30.2085H52.6655V37.2944H53.1524V30.2085Z" fill="black"/>
<path d="M51.2173 31.0183H50.7305V38.1428H51.2173V31.0183Z" fill="black"/>
<path d="M49.0884 31.5591H48.6016V38.7221H49.0884V31.5591Z" fill="black"/>
<path d="M46.836 31.8293H46.3491V39.031H46.836V31.8293Z" fill="black"/>
<path d="M44.5464 31.8203H44.0596V39.0576H44.5464V31.8203Z" fill="black"/>
<path d="M42.314 31.5232H41.8271V38.799H42.314V31.5232Z" fill="black"/>
<path d="M40.2222 30.9209H39.7354V38.2353H40.2222V30.9209Z" fill="black"/>
<path d="M38.3252 29.9885H37.8384V37.3416H38.3252V29.9885Z" fill="black"/>
<path d="M36.8199 28.6914H36.333V36.0801H36.8199V28.6914Z" fill="black"/>
<path d="M35.6353 26.5957H35.1484V34.0229H35.6353V26.5957Z" fill="black"/>
</g>
<path opacity="0.1" d="M47.993 37.6295C42.9613 37.6592 40.3045 36.0236 39.5 34.6907C38.8856 33.6754 38.7817 31.8053 38.7817 29.941C38.7817 29.941 38.2147 25.7139 38.3245 25.702C38.4343 25.6901 37.1163 25.4052 36.1397 25.2092C35.6651 25.85 35.4035 26.6235 35.3916 27.4208V31.9359C35.3916 33.438 36.3831 34.943 38.3601 36.0918C40.9784 37.5939 44.6534 38.1045 47.993 37.6295Z" fill="black"/>
</g>
<path d="M45.5588 33.3013C51.1757 33.3013 55.729 30.6725 55.729 27.4296C55.729 24.1867 51.1757 21.5579 45.5588 21.5579C39.942 21.5579 35.3887 24.1867 35.3887 27.4296C35.3887 30.6725 39.942 33.3013 45.5588 33.3013Z" fill="#EBEBEB"/>
<path d="M53.2976 31.2324C56.7055 28.9259 56.5274 25.4587 52.7514 23.2768C50.8159 22.1606 48.2986 21.5907 45.7546 21.564C44.4535 21.7662 43.1977 22.1941 42.0439 22.8286C38.6123 24.7908 38.6123 28.7092 42.0439 30.6714C45.1074 32.4228 49.869 32.6069 53.2976 31.2324Z" fill="#F5F5F5"/>
<path opacity="0.1" d="M39.3342 59.8962C42.7717 61.6239 48.3496 61.6239 51.7871 59.8962C55.2247 58.1685 55.2276 55.3662 51.7871 53.6385C48.3466 51.9109 42.7717 51.9109 39.3342 53.6385C35.8966 55.3662 35.8936 58.1685 39.3342 59.8962Z" fill="black"/>
<path d="M35.9736 38.2769C35.9736 39.6928 36.9087 41.1088 38.7819 42.1894C40.655 43.2699 43.107 43.8102 45.559 43.8102V53.5677C43.107 53.5677 40.652 53.0274 38.7819 51.9469C36.9117 50.8664 35.9736 49.4504 35.9736 48.0344V38.2769Z" fill="white"/>
<path d="M36.1694 29.6828C36.1694 29.6828 39.4764 33.0135 45.8646 32.8383C52.2529 32.6632 54.8118 29.1752 55.1472 28.0887C55.3192 27.4518 55.3306 26.7822 55.1804 26.1398C55.0302 25.4974 54.723 24.9023 54.2863 24.4077C54.7187 24.7864 55.0696 25.249 55.3176 25.7675C55.5656 26.286 55.7056 26.8495 55.729 27.4237V31.9359C55.729 32.3159 55.9249 33.6279 53.8618 35.3259C53.8618 35.3259 55.073 33.9515 55.073 32.6305V29.5136C55.073 29.5136 52.811 33.2955 45.8706 33.2955C38.9302 33.2955 36.5197 30.2498 36.1694 29.6828Z" fill="white"/>
<path d="M24.3281 57.9252C24.286 57.8017 24.2351 57.6813 24.176 57.5649C24.126 57.4654 24.0698 57.3692 24.0078 57.2767C23.7191 56.8583 23.3553 56.4972 22.9348 56.2117V57.3207L21.986 56.7682V55.6672C19.3436 54.414 15.436 54.5061 12.9698 55.9274C12.1334 56.3504 11.4779 57.0613 11.1241 57.9292C11.1241 57.9933 11.0881 58.0534 11.0721 58.1174C11.0245 58.2991 11.0003 58.4861 11 58.6739V60.8719C11.0084 61.3984 11.1805 61.9091 11.4924 62.3332C11.8872 62.8624 12.391 63.3007 12.9698 63.6184C15.6002 65.1358 19.8601 65.1358 22.4824 63.6184C23.7956 62.8577 24.4562 61.8648 24.4562 60.8719V58.6739C24.4554 58.419 24.4121 58.166 24.3281 57.9252Z" fill="#F0F0F0"/>
<path d="M19.836 54.9828C17.5019 54.5384 14.8275 54.8506 12.9698 55.9236C12.1334 56.3466 11.4779 57.0575 11.1241 57.9254C11.1241 57.9895 11.0881 58.0495 11.0721 58.1136C11.0245 58.2953 11.0003 58.4823 11 58.6701V60.8681C11.0084 61.3945 11.1805 61.9053 11.4924 62.3294C11.8872 62.8586 12.391 63.2969 12.9698 63.6146C14.8275 64.6876 17.5019 64.9959 19.836 64.5515V54.9828Z" fill="#EBEBEB"/>
<path d="M12.9736 55.9232C10.5074 57.3485 10.3552 59.6025 12.5212 61.1279L21.9858 55.6629C19.3434 54.4138 15.4399 54.5179 12.9736 55.9232Z" fill="#FAFAFA"/>
<path d="M12.5169 60.5515C12.5169 60.5515 9.90252 58.5497 12.8092 56.0234C10.5031 57.4487 10.407 59.6267 12.5209 61.1281L21.9855 55.6631L12.5169 60.5515Z" fill="white"/>
<path d="M22.9348 56.2119L13.4702 61.6769C16.1126 62.926 20.0202 62.8419 22.4864 61.4166C24.9526 59.9913 25.1008 57.7213 22.9348 56.2119Z" fill="#FAFAFA"/>
<path d="M13.4702 61.6769C16.1126 62.926 20.0202 62.8419 22.4864 61.4166C22.7609 61.26 23.0208 61.0791 23.2631 60.8762C18.4227 63.3024 14.5312 61.5928 14.5312 61.5928L22.9388 56.2119L13.4702 61.6769Z" fill="white"/>
<path d="M21.9871 56.7641L12.5225 62.2531V61.1281L21.9871 55.6631V56.7641Z" fill="#E0E0E0"/>
<path opacity="0.2" d="M13.4713 61.6765L13.4753 62.8015L12.5225 62.253L13.4713 61.6765Z" fill="black"/>
<path d="M24.3491 53.1412C24.3077 53.0161 24.2568 52.8943 24.197 52.7769C24.1449 52.679 24.0874 52.5841 24.0248 52.4926C23.7377 52.0744 23.3752 51.7132 22.9558 51.4276V52.5286L22.003 51.9761V50.8751C19.3606 49.626 15.457 49.7141 12.9908 51.1394C12.1523 51.5597 11.4961 52.2715 11.1451 53.1412C11.1251 53.2053 11.1051 53.2653 11.0891 53.3254C11.0447 53.5076 11.0219 53.6944 11.021 53.8819V56.0839C11.0294 56.6103 11.2015 57.1211 11.5134 57.5452C11.9075 58.0741 12.4115 58.5112 12.9908 58.8264C15.6172 60.3438 19.877 60.3438 22.5034 58.8264C23.8166 58.0697 24.4732 57.0768 24.4732 56.0839V53.8819C24.4733 53.6298 24.4314 53.3795 24.3491 53.1412Z" fill="#F0F0F0"/>
<path d="M19.837 50.1948C17.4989 49.7504 14.8285 50.0667 12.9708 51.1397C12.1323 51.56 11.4761 52.2718 11.1251 53.1415C11.1051 53.2056 11.0851 53.2656 11.069 53.3257C11.0247 53.5079 11.0019 53.6946 11.001 53.8822V56.0842C11.0093 56.6106 11.1815 57.1214 11.4934 57.5455C11.8874 58.0744 12.3915 58.5115 12.9708 58.8267C14.8285 59.8996 17.4989 60.2119 19.837 59.7675V50.1948Z" fill="#EBEBEB"/>
<path d="M12.9707 51.1396C10.5044 52.5609 10.3523 54.815 12.5183 56.3444L21.9829 50.8834C19.3405 49.6263 15.4369 49.7143 12.9707 51.1396Z" fill="#FAFAFA"/>
<path d="M12.5189 55.7681C12.5189 55.7681 9.90452 53.7663 12.8112 51.236C10.5011 52.6653 10.409 54.8392 12.5189 56.3406L21.9835 50.8796L12.5189 55.7681Z" fill="white"/>
<path d="M22.9358 51.4277L13.4712 56.8927C16.1136 58.1418 20.0171 58.0538 22.4834 56.6285C24.9496 55.2032 25.0978 52.9531 22.9358 51.4277Z" fill="#FAFAFA"/>
<path d="M13.4712 56.8927C16.1136 58.1418 20.0171 58.0538 22.4834 56.6285C22.7575 56.4727 23.0174 56.2932 23.2601 56.092C18.4237 58.5142 14.5282 56.8046 14.5282 56.8046L22.9358 51.4277L13.4712 56.8927Z" fill="white"/>
<path d="M21.9822 51.9766L12.5176 57.4696V56.3406L21.9822 50.8796V51.9766Z" fill="#E0E0E0"/>
<path opacity="0.2" d="M13.4704 56.8928V58.0179L12.5176 57.4693L13.4704 56.8928Z" fill="black"/>
<path d="M30.7258 62.2972C30.3255 62.065 30.0732 61.5646 30.0732 60.8519C30.1154 60.0765 30.3397 59.3219 30.7278 58.6493C31.1159 57.9767 31.657 57.4049 32.3073 56.9804C32.5327 56.8167 32.7976 56.716 33.0748 56.6885C33.3521 56.6611 33.6316 56.7079 33.8847 56.8242L36.7593 58.4898C37.4856 58.9097 38.0153 59.601 38.232 60.4115C38.4486 61.222 38.3343 62.0854 37.9144 62.8117C37.4944 63.538 36.8031 64.0677 35.9926 64.2843C35.1821 64.5009 34.3187 64.3867 33.5924 63.9667L30.7258 62.2972Z" fill="#F5F5F5"/>
<path d="M26.7658 60.007C26.377 59.8152 26.0316 59.5455 25.7512 59.2147C25.4708 58.8839 25.2613 58.4991 25.1357 58.084C25.0101 57.669 24.9711 57.2326 25.0211 56.8018C25.0711 56.3711 25.209 55.9552 25.4263 55.5799C25.6436 55.2047 25.9357 54.878 26.2844 54.6203C26.6331 54.3625 27.031 54.1791 27.4535 54.0814C27.876 53.9837 28.314 53.9738 28.7405 54.0524C29.167 54.1309 29.5728 54.2962 29.9327 54.538L33.8843 56.8361C33.6312 56.7198 33.3517 56.673 33.0744 56.7004C32.7972 56.7278 32.5323 56.8286 32.3069 56.9923C31.6566 57.4168 31.1155 57.9885 30.7274 58.6612C30.3393 59.3338 30.115 60.0883 30.0728 60.8638C30.0728 61.5764 30.3211 62.0649 30.7254 62.3091L26.7658 60.007Z" fill="#516EB4"/>
<path opacity="0.4" d="M27.4788 55.3663C27.398 55.5035 27.3452 55.6554 27.3236 55.8131C27.302 55.9709 27.312 56.1314 27.353 56.2852C27.3939 56.4391 27.4651 56.5833 27.5623 56.7094C27.6595 56.8355 27.7808 56.941 27.9192 57.0198L32.7036 59.7943C33.1065 59.1268 33.3325 58.3675 33.3602 57.5883C33.3602 57.5123 33.3602 57.4402 33.3602 57.3721L29.1323 54.9379C28.9958 54.8566 28.8446 54.8031 28.6873 54.7806C28.5301 54.7582 28.3699 54.7671 28.2161 54.8069C28.0623 54.8468 27.918 54.9167 27.7914 55.0128C27.6649 55.1088 27.5586 55.2289 27.4788 55.3663Z" fill="white"/>
<path d="M30.7258 62.2972C30.3255 62.065 30.0732 61.5646 30.0732 60.8519C30.1154 60.0765 30.3397 59.3219 30.7278 58.6493C31.1159 57.9767 31.657 57.4049 32.3073 56.9804C32.5327 56.8167 32.7976 56.716 33.0748 56.6885C33.3521 56.6611 33.6316 56.7079 33.8847 56.8242L36.7593 58.4898C37.4856 58.9097 38.0153 59.601 38.232 60.4115C38.4486 61.222 38.3343 62.0854 37.9144 62.8117C37.4944 63.538 36.8031 64.0677 35.9926 64.2843C35.1821 64.5009 34.3187 64.3867 33.5924 63.9667L30.7258 62.2972Z" fill="#F5F5F5"/>
<path opacity="0.1" d="M32.3072 56.9803C31.6569 57.4049 31.1158 57.9766 30.7277 58.6492C30.3395 59.3219 30.1153 60.0764 30.0731 60.8518C30.0731 61.5645 30.3213 62.0529 30.7257 62.2972L30.5015 62.169L30.3294 62.069C29.929 61.8367 29.6768 61.3363 29.6768 60.6236C29.718 59.848 29.9418 59.0931 30.3301 58.4203C30.7183 57.7475 31.2599 57.176 31.9108 56.7521C32.1362 56.5884 32.4011 56.4877 32.6783 56.4603C32.9556 56.4328 33.2351 56.4797 33.4882 56.596L33.8886 56.8242C33.6349 56.7071 33.3546 56.6599 33.0766 56.6873C32.7986 56.7148 32.533 56.8159 32.3072 56.9803Z" fill="black"/>
<path d="M38.3167 60.8915C38.3922 61.5571 38.2518 62.2294 37.9164 62.8092C37.7086 63.1693 37.432 63.4849 37.1021 63.738C36.7723 63.9911 36.3959 64.1767 35.9943 64.2841C35.5927 64.3916 35.1738 64.4188 34.7617 64.3643C34.3496 64.3098 33.9523 64.1745 33.5924 63.9663L30.7258 62.2968C30.3255 62.0646 30.0732 61.5641 30.0732 60.8514C30.0763 60.5239 30.1221 60.1982 30.2094 59.8826L35.0137 62.6571C36.5832 63.5699 38.3007 61.9284 38.3167 60.8915Z" fill="#EBEBEB"/>
<path d="M37.227 61.0156C37.1482 61.154 37.0427 61.2753 36.9166 61.3725C36.7905 61.4697 36.6463 61.5409 36.4924 61.5819C36.3386 61.6229 36.1781 61.6329 36.0203 61.6112C35.8626 61.5896 35.7107 61.5369 35.5735 61.456L30.7251 58.6535C31.0992 57.9687 31.644 57.3922 32.3065 56.98L32.4987 56.8799L36.7826 59.3581C36.9218 59.4366 37.044 59.542 37.142 59.6683C37.2399 59.7946 37.3117 59.9391 37.3531 60.0935C37.3945 60.2479 37.4047 60.4089 37.383 60.5673C37.3614 60.7256 37.3083 60.8781 37.227 61.0156Z" fill="white"/>
<path opacity="0.1" d="M25.8331 55.3388C25.8691 55.2907 25.9051 55.2427 25.9452 55.1986L26.0292 55.1025L26.1293 54.9984C26.1647 54.9617 26.2022 54.927 26.2414 54.8944L26.2975 54.8463C26.4646 54.7043 26.6457 54.5795 26.838 54.474L27.0502 54.3699C26.1654 54.9024 25.6049 57.2085 27.1783 58.1213C27.7188 58.4336 28.5275 58.922 30.193 59.8749C30.1057 60.1905 30.06 60.5163 30.0569 60.8438C30.0569 61.5564 30.3051 62.0448 30.7095 62.2891L26.7499 59.999C26.0234 59.5787 25.4935 58.8872 25.2766 58.0765C25.0596 57.2657 25.1734 56.402 25.5928 55.6751C25.6409 55.591 25.6969 55.5109 25.753 55.4308L25.8331 55.3388Z" fill="black"/>
<path d="M52.1224 64.1781C52.3504 64.0164 52.5314 63.797 52.6468 63.5423C52.7622 63.2877 52.8078 63.0069 52.779 62.7288C52.7365 61.954 52.5121 61.2001 52.1239 60.5282C51.7358 59.8563 51.1949 59.2852 50.5449 58.8613C49.9284 58.505 49.3679 58.4609 48.9635 58.7052L46.0929 60.3667C45.3661 60.7861 44.8356 61.4771 44.6183 62.2876C44.4009 63.0981 44.5144 63.9618 44.9338 64.6886C45.3532 65.4154 46.0442 65.9459 46.8547 66.1632C47.6653 66.3806 48.5289 66.2671 49.2558 65.8477L52.1224 64.1781Z" fill="#F5F5F5"/>
<path d="M56.0819 61.8884C56.8087 61.469 57.3391 60.778 57.5565 59.9675C57.7738 59.157 57.6603 58.2933 57.2409 57.5665C56.8215 56.8397 56.1305 56.3092 55.32 56.0919C54.5095 55.8745 53.6458 55.988 52.919 56.4075L48.9634 58.7216C49.3637 58.4853 49.9283 58.5214 50.5448 58.8777C51.1948 59.3016 51.7357 59.8727 52.1238 60.5446C52.5119 61.2165 52.7364 61.9704 52.7788 62.7452C52.8077 63.0233 52.762 63.3041 52.6467 63.5587C52.5313 63.8134 52.3503 64.0328 52.1223 64.1945L56.0819 61.8884Z" fill="#516EB4"/>
<path opacity="0.4" d="M55.3735 57.2441C55.4542 57.3815 55.5067 57.5336 55.528 57.6916C55.5494 57.8495 55.539 58.0101 55.4977 58.164C55.4563 58.3179 55.3848 58.462 55.2871 58.5879C55.1895 58.7139 55.0678 58.8192 54.9291 58.8976L50.1488 61.6721C49.7454 61.0048 49.5194 60.2454 49.4922 59.4661C49.4922 59.3941 49.4922 59.322 49.4922 59.2499L53.712 56.7997C53.8498 56.7178 54.0025 56.6642 54.1613 56.6422C54.3201 56.6202 54.4816 56.6302 54.6365 56.6717C54.7913 56.7131 54.9363 56.7851 55.0629 56.8834C55.1895 56.9817 55.2951 57.1043 55.3735 57.2441Z" fill="white"/>
<path d="M52.1224 64.1781C52.3504 64.0164 52.5314 63.797 52.6468 63.5423C52.7622 63.2877 52.8078 63.0069 52.779 62.7288C52.7365 61.954 52.5121 61.2001 52.1239 60.5282C51.7358 59.8563 51.1949 59.2852 50.5449 58.8613C49.9284 58.505 49.3679 58.4609 48.9635 58.7052L46.0929 60.3667C45.3661 60.7861 44.8356 61.4771 44.6183 62.2876C44.4009 63.0981 44.5144 63.9618 44.9338 64.6886C45.3532 65.4154 46.0442 65.9459 46.8547 66.1632C47.6653 66.3806 48.5289 66.2671 49.2558 65.8477L52.1224 64.1781Z" fill="#F5F5F5"/>
<path opacity="0.1" d="M50.5444 58.8616C51.1944 59.2855 51.7353 59.8566 52.1234 60.5285C52.5116 61.2004 52.736 61.9543 52.7785 62.7291C52.8073 63.0072 52.7617 63.288 52.6463 63.5426C52.5309 63.7973 52.3499 64.0167 52.1219 64.1784L52.3501 64.0463L52.5182 63.9462C52.7466 63.7857 52.9279 63.5671 53.0433 63.313C53.1588 63.0588 53.2042 62.7785 53.1748 62.5009C53.1327 61.726 52.9084 60.972 52.5202 60.3C52.1321 59.6281 51.5909 59.0571 50.9408 58.6334C50.715 58.4691 50.4496 58.3677 50.1717 58.3396C49.8939 58.3114 49.6135 58.3576 49.3593 58.4732L48.959 58.7055C49.3674 58.4692 49.9159 58.5053 50.5444 58.8616Z" fill="black"/>
<path d="M44.5312 62.7731C44.4681 63.3536 44.5671 63.9404 44.8172 64.4681C45.0674 64.9958 45.459 65.4438 45.9484 65.7623C46.4379 66.0809 47.0061 66.2575 47.5899 66.2726C48.1737 66.2877 48.7503 66.1407 49.2555 65.8479L52.1221 64.1784C52.3502 64.0166 52.5312 63.7972 52.6466 63.5425C52.7619 63.2879 52.8075 63.0071 52.7787 62.729C52.7742 62.4027 52.7271 62.0783 52.6386 61.7642L47.8342 64.5387C46.2648 65.4475 44.5513 63.81 44.5312 62.7731Z" fill="#EBEBEB"/>
<path d="M45.6245 62.8931C45.703 63.0318 45.8082 63.1535 45.9342 63.2511C46.0602 63.3488 46.2043 63.4203 46.3582 63.4617C46.5121 63.5031 46.6727 63.5134 46.8306 63.4921C46.9885 63.4707 47.1406 63.4182 47.278 63.3375L52.1264 60.535C51.7498 59.8531 51.2055 59.2784 50.545 58.8655C50.4817 58.8282 50.4162 58.7948 50.3488 58.7654L46.0649 61.2436C45.9271 61.3224 45.8063 61.4278 45.7094 61.5536C45.6125 61.6794 45.5416 61.8231 45.5006 61.9765C45.4597 62.1299 45.4495 62.2899 45.4708 62.4472C45.4921 62.6046 45.5443 62.7561 45.6245 62.8931Z" fill="white"/>
<path opacity="0.1" d="M57.0191 57.236L56.907 57.0918L56.8189 56.9958L56.7188 56.8957L56.6107 56.7916L56.5547 56.7435C56.3872 56.6001 56.2046 56.4753 56.0102 56.3712L55.798 56.2671C56.6868 56.8036 57.2473 59.1097 55.6699 60.0185C55.1294 60.3308 54.3247 60.8192 52.6551 61.7761C52.7437 62.0903 52.7908 62.4146 52.7953 62.741C52.8241 63.0191 52.7785 63.2998 52.6631 63.5545C52.5477 63.8092 52.3667 64.0286 52.1387 64.1903L56.0983 61.9002C56.4584 61.6925 56.774 61.4158 57.0271 61.086C57.2802 60.7562 57.4657 60.3797 57.5732 59.9781C57.6807 59.5765 57.7079 59.1577 57.6534 58.7456C57.5988 58.3334 57.4636 57.9361 57.2553 57.5763C57.2073 57.4922 57.1552 57.4081 57.0992 57.3281L57.0191 57.236Z" fill="black"/>
</g>
<defs>
<clipPath id="clip0_250_2926">
<rect width="70" height="70" fill="white"/>
</clipPath>
</defs>
</svg>
