<svg viewBox="0 0 500 500" xmlns="http://www.w3.org/2000/svg"><path d="m422.35 449.17c95.19-54.95 95.19-144 0-199s-249.51-55-344.7 0-95.19 144.06 0 199 249.51 54.96 344.7 0z" fill="#fafafa"/><path d="m101.35 111.4 2.03 1.21 41.6-24.03-2.02-1.21z" fill="#fafafa"/><path d="m142.96 87.37-39.58 22.85v-41.45l39.58-22.83z" fill="#fff"/><path d="m148.81 38.13-49.26 28.44v52.66l49.26-28.44zm-3.81 50.45-41.6 24v-43.81l41.6-24z" fill="#f0f0f0"/><path d="m144.98 88.58-2.02-1.21v-41.43l2.02-1.19z" fill="#e0e0e0"/><path d="m148.81 38.13-2.06-1.18-49.26 28.44 2.06 1.17z" fill="#fafafa"/><path d="m97.49 65.39 2.06 1.17v52.67l-2.06-1.18z" fill="#e0e0e0"/><path d="m141.41 86.14-36.49 21.06v-10.53l9.13-21.07 5.68 5.27-2.05 8.83 12.6-26.95 11.13 12.85z" fill="#f0f0f0"/><path d="m119.38 65.43a6 6 0 0 0 -2.69 4.67c0 1.73 1.2 2.42 2.69 1.56a6 6 0 0 0 2.7-4.67c0-1.72-1.21-2.42-2.7-1.56z" fill="#f0f0f0"/><path d="m41.89 167.96 2.03 1.2 41.6-24.02-2.02-1.21z" fill="#fafafa"/><path d="m83.5 143.93-39.58 22.85v-41.45l39.58-22.83z" fill="#fff"/><path d="m89.35 94.69-49.26 28.44v52.66l49.26-28.44zm-3.83 50.45-41.6 24v-43.81l41.6-24z" fill="#f0f0f0"/><path d="m85.52 145.14-2.02-1.21v-41.43l2.02-1.19z" fill="#e0e0e0"/><path d="m89.35 94.69-2.06-1.18-49.26 28.44 2.06 1.18z" fill="#fafafa"/><path d="m38.03 121.95 2.06 1.18v52.66l-2.06-1.18z" fill="#e0e0e0"/><path d="m81.95 142.69-36.49 21.07v-10.53l9.13-21.07 5.68 5.27-2.05 8.83 12.6-26.95 11.13 12.85z" fill="#f0f0f0"/><path d="m59.92 122a6 6 0 0 0 -2.69 4.67c0 1.73 1.2 2.42 2.69 1.56a5.93 5.93 0 0 0 2.7-4.67c-0-1.73-1.21-2.43-2.7-1.56z" fill="#f0f0f0"/><ellipse cx="227.69" cy="385.8" fill="#ebebeb" rx="148.3" ry="85.62"/><path d="m374.86 386.56c-25-14.32-25-37.52 0-51.83s65.62-14.31 90.65 0 25 37.51 0 51.83-65.62 14.31-90.65 0z" fill="#ebebeb"/><path d="m113.53 437.85a14.72 14.72 0 0 1 -2.33 5.43 25.79 25.79 0 0 1 -8.76 7.77c-15.15 8.75-39.73 8.75-54.88 0a25.79 25.79 0 0 1 -8.76-7.77 14.86 14.86 0 0 1 -2.32-5.43c-1.35-6.58 2.35-13.43 11.09-18.47 15.15-8.76 39.73-8.76 54.88 0 8.72 5.04 12.43 11.89 11.08 18.47z" fill="#ebebeb"/><path d="m453.07 231.91a48.39 48.39 0 0 0 -6.27-3 10.67 10.67 0 0 1 -6.8-9.91v-21.15h-39.35v21.15a10.67 10.67 0 0 1 -6.83 9.87 48.39 48.39 0 0 0 -6.27 3c-9.05 5.27-13.55 12.13-13.55 18.96v105.61c0 6.85 4.52 13.69 13.57 18.92 18.09 10.44 47.43 10.44 65.52 0 9.05-5.23 13.57-12.07 13.57-18.92v-105.61c-.02-6.83-4.54-13.69-13.59-18.92z" fill="#516eb4"/><path d="m466.63 255.29v66.38c-.56 6.42-5.07 12.73-13.55 17.61-9.77 5.63-22.84 8.22-35.64 7.77v-66.37a80.92 80.92 0 0 0 17.09-1.24 57.82 57.82 0 0 0 18.55-6.54c8.48-4.9 12.99-11.19 13.55-17.61z" fill="#f5f5f5"/><g fill="#e0e0e0"><path d="m453.08 323.06a56.53 56.53 0 0 1 -16.22 6.06v4.95a57.35 57.35 0 0 0 16.22-6.07c8.48-4.88 13-11.19 13.55-17.61v-5c-.56 6.47-5.07 12.78-13.55 17.67z"/><path d="m453.08 311.33a56 56 0 0 1 -16.22 6.06v5a57.07 57.07 0 0 0 16.22-6.07c8.48-4.88 13-11.19 13.55-17.61v-4.95c-.56 6.38-5.07 12.69-13.55 17.57z"/><path d="m453.08 299.6a56.25 56.25 0 0 1 -16.22 6.07v4.95a57.35 57.35 0 0 0 16.22-6.06c8.48-4.89 13-11.19 13.55-17.62v-4.94c-.56 6.41-5.07 12.72-13.55 17.6z"/><path d="m453.08 287.88a56.53 56.53 0 0 1 -16.22 6.06v4.95a57.35 57.35 0 0 0 16.22-6.06c8.48-4.88 13-11.19 13.55-17.61v-5c-.56 6.46-5.07 12.78-13.55 17.66z"/></g><path d="m388.92 356.72v-103.11c0-5.68 1.19-10 8-13.44 13.58-6.88 15.31-12.44 15.31-19.42v-22.9h-11.58v21.15a10.67 10.67 0 0 1 -6.83 9.87 48.39 48.39 0 0 0 -6.27 3c-9.05 5.27-13.55 12.13-13.55 18.96v105.61c0 6.85 4.52 13.69 13.57 18.92 13 7.51 31.84 9.59 48.12 6.29-37.69 2.6-46.77-13.38-46.77-24.93z" opacity=".2"/><path d="m453.07 231.91a48.39 48.39 0 0 0 -6.27-3 10.67 10.67 0 0 1 -6.8-9.91v-21.15h-4.3v25.26c0 3.71 3.2 7.24 6.9 9.26s15.46 7.13 18.31 12.72c2.72 5.32 1.83 15.88 1.83 28.43v78.9c0 8.14-3.39 19.92-18.5 27a51.39 51.39 0 0 0 8.87-4c9.05-5.22 13.56-11.79 13.56-19v-105.59c-.03-6.83-4.55-13.69-13.6-18.92z" fill="#fff" opacity=".4"/><path d="m453.08 220.37v8.11c0 4.83-3.18 9.7-9.6 13.41-12.78 7.38-33.5 7.38-46.31 0a22 22 0 0 1 -7.19-6.26 12.22 12.22 0 0 1 -2.38-7.09v-8.23a8.61 8.61 0 0 1 .25-2.19c.8-4.1 3.91-8.08 9.32-11.19a3.67 3.67 0 0 1 .47-.26c12.85-7.12 33.22-7 45.84.26 5.41 3.11 8.55 7.09 9.35 11.15a9.45 9.45 0 0 1 .25 2.29z" fill="#ebebeb"/><path d="m423 239.19v-12.05c0-4.76 1.21-12-7.15-12a23.25 23.25 0 0 1 -18.22-8.46 3.67 3.67 0 0 0 -.47.26c-5.41 3.11-8.52 7.09-9.32 11.19a8.61 8.61 0 0 0 -.25 2.19v8.23a12.22 12.22 0 0 0 2.38 7.09 22 22 0 0 0 7.19 6.26c12.81 7.38 33.53 7.38 46.31 0-9.01 3.55-20.47 1.84-20.47-2.71z" fill="#e0e0e0"/><path d="m397.18 233.67c-12.78-7.38-12.78-19.35 0-26.73s33.52-7.39 46.31 0 12.78 19.35 0 26.73-33.49 7.38-46.31 0z" fill="#455a64"/><path d="m453.08 205.54v10.26a9.32 9.32 0 0 1 -.25 2.28c-.8 4.07-3.94 8-9.35 11.16-5.72 3.31-13 5.12-20.47 5.44-9.25.44-18.75-1.37-25.84-5.47a22.31 22.31 0 0 1 -7.17-6.21 12.48 12.48 0 0 1 -2.13-4.86 8.92 8.92 0 0 1 -.25-2.23v-10.43c0-4.87 3.18-9.7 9.57-13.39.57-.31 1.14-.63 1.75-.92 12.87-6.45 32.36-6.13 44.56.92 6.4 3.72 9.61 8.59 9.58 13.45z" fill="#ebebeb"/><path d="m397.18 218.83c-12.78-7.38-12.78-19.35 0-26.74s33.52-7.38 46.31 0 12.78 19.36 0 26.74-33.49 7.38-46.31 0z" fill="#fafafa"/><path d="m423.07 224.29c0 .94-.07 1.92-.07 2.86v7.54c-9.24.42-18.74-1.39-25.84-5.48a22.43 22.43 0 0 1 -7.16-6.21 12.2 12.2 0 0 1 -2.14-4.85 9.11 9.11 0 0 1 -.27-2.25v-10.4c0 4.8 3.23 9.69 9.62 13.37 7.05 4.07 16.59 5.87 25.86 5.42z" fill="#e0e0e0"/><path d="m446 184.84v18c0 3.79-2.49 7.61-7.53 10.53-10 5.79-26.31 5.79-36.36 0a17.22 17.22 0 0 1 -5.64-4.92 9.61 9.61 0 0 1 -1.88-5.56v-18.22a6.74 6.74 0 0 1 .2-1.72c.63-3.22 3.07-6.22 7.32-8.67a3.24 3.24 0 0 1 .37-.19c10.08-5.59 26.08-5.52 36 .19 4.24 2.45 6.71 5.57 7.33 8.76a7.36 7.36 0 0 1 .19 1.8z" fill="#ebebeb"/><path d="m446 184.85v8.05a7.36 7.36 0 0 1 -.2 1.8c-.62 3.19-3.09 6.31-7.33 8.76a35.69 35.69 0 0 1 -16.07 4.26c-7.27.35-14.73-1.07-20.29-4.29a17.47 17.47 0 0 1 -5.64-4.89 9.64 9.64 0 0 1 -1.68-3.82 6.89 6.89 0 0 1 -.2-1.74v-8.18c0-3.82 2.5-7.61 7.52-10.51.45-.25.89-.5 1.37-.72 10.11-5.07 25.4-4.82 35 .72 5.07 2.92 7.59 6.71 7.52 10.56z" fill="#ebebeb"/><path d="m422.44 211.27v-9.46c0-3.74-1.63-5-5.62-9.43-3.8-4.24-10.76-14-14.3-18.29a3.24 3.24 0 0 0 -.37.19c-4.25 2.45-6.69 5.57-7.32 8.79a6.74 6.74 0 0 0 -.2 1.72v18.12a9.61 9.61 0 0 0 1.88 5.56 17.22 17.22 0 0 0 5.64 4.92c10.05 5.79 26.32 5.79 36.36 0-7.09 2.79-16.07 1.45-16.07-2.12z" fill="#e0e0e0"/><path d="m438.51 174.29c-9.91-5.72-25.91-5.79-36-.2a2.24 2.24 0 0 0 -.37.2c-4.25 2.44-6.69 5.44-7.32 8.66a6.74 6.74 0 0 0 -.2 1.72v17.48a21.84 21.84 0 0 0 4.94 3.81c11.48 6.61 30.06 6.61 41.52 0a21.8 21.8 0 0 0 5-3.83v-17.29a7.36 7.36 0 0 0 -.2-1.8c-.66-3.19-3.13-6.31-7.37-8.75z" opacity=".1"/><path d="m402.16 195.28c-10-5.8-10-15.19 0-21s26.31-5.79 36.35 0 10 15.2 0 21-26.31 5.8-36.35 0z" fill="#fafafa"/><path d="m449.69 183v7.27c0 4.33-2.85 8.69-8.6 12-11.46 6.61-30 6.61-41.52 0a19.86 19.86 0 0 1 -6.44-5.62 10.94 10.94 0 0 1 -2.14-6.35v-7.3a7.37 7.37 0 0 1 .23-2c.71-3.67 3.5-7.24 8.35-10a2.91 2.91 0 0 1 .42-.23c11.52-6.38 29.78-6.3 41.1.23 4.84 2.79 7.66 6.36 8.37 10a8 8 0 0 1 .23 2z" fill="#ebebeb"/><path d="m422.73 199.89v-10.81c0-4.27 1.09-10.77-6.41-10.77a20.85 20.85 0 0 1 -16.32-7.58 2.91 2.91 0 0 0 -.42.23c-4.85 2.79-7.64 6.36-8.35 10a7.37 7.37 0 0 0 -.23 2v7.38a10.94 10.94 0 0 0 2.14 6.35 19.86 19.86 0 0 0 6.44 5.62c11.48 6.61 30.06 6.61 41.52 0-8.1 3.19-18.37 1.69-18.37-2.42z" fill="#e0e0e0"/><path d="m399.58 194.93c-11.46-6.61-11.46-17.35 0-24s30.05-6.62 41.51 0 11.46 17.35 0 24-30.09 6.62-41.51 0z" fill="#455a64"/><path d="m449.69 169.72v9.19a8 8 0 0 1 -.23 2.05c-.71 3.65-3.53 7.21-8.37 10a40.81 40.81 0 0 1 -18.36 4.88c-8.29.4-16.81-1.23-23.16-4.9a20.13 20.13 0 0 1 -6.44-5.59 11 11 0 0 1 -1.91-4.36 7.51 7.51 0 0 1 -.23-2v-9.34c0-4.36 2.85-8.69 8.58-12 .51-.28 1-.57 1.56-.82 11.54-5.79 29-5.5 40 .82 5.71 3.35 8.59 7.71 8.56 12.07z" fill="#ebebeb"/><path d="m399.58 181.63c-11.46-6.62-11.46-17.35 0-24s30.05-6.62 41.51 0 11.46 17.35 0 24-30.09 6.62-41.51 0z" fill="#fafafa"/><path d="m422.79 186.53c0 .84-.07 1.71-.07 2.55v6.77c-8.28.37-16.8-1.24-23.16-4.91a20.18 20.18 0 0 1 -6.43-5.59 11 11 0 0 1 -1.92-4.35 8.15 8.15 0 0 1 -.24-2v-9.32c0 4.31 2.9 8.69 8.62 12 6.33 3.63 14.88 5.25 23.2 4.85z" fill="#e0e0e0"/><path d="m473 175.57a1.63 1.63 0 0 0 -.55-1.14l-18.86-18.82c-3.76-3.76-9.26-6.93-15.77-9.1l-32.59-10.89a5.51 5.51 0 0 0 -4.2.2l-27 15.56a1.53 1.53 0 0 0 -.89 1.29v4.6a1.69 1.69 0 0 0 .55 1.14l18.86 18.82c3.76 3.75 9.26 6.93 15.77 9.1l32.59 10.89a5.55 5.55 0 0 0 4.2-.2l27-15.56a1.53 1.53 0 0 0 .89-1.29z" fill="#ebebeb"/><path d="m473 175.57a1.63 1.63 0 0 0 -.55-1.14l-18.86-18.82c-3.76-3.76-9.26-6.93-15.77-9.1l-32.59-10.89a5.51 5.51 0 0 0 -4.2.2l-27 15.56a1.53 1.53 0 0 0 -.89 1.29v4.6a1.69 1.69 0 0 0 .55 1.14l18.86 18.82c3.76 3.75 9.26 6.93 15.77 9.1l32.59 10.89a5.55 5.55 0 0 0 4.2-.2l27-15.56a1.53 1.53 0 0 0 .89-1.29z" opacity=".1"/><path d="m442.79 148.48a49.82 49.82 0 0 0 -5-2l-32.59-10.89a5.51 5.51 0 0 0 -4.2.2l-27 15.56a1.53 1.53 0 0 0 -.89 1.29v4.6a1.74 1.74 0 0 0 .55 1.14l18.86 18.81c3.77 3.76 9.26 6.94 15.77 9.11l32.59 10.89a6.23 6.23 0 0 0 1.86.29z" opacity=".1"/><path d="m408.34 181.73 32.59 10.89a5.55 5.55 0 0 0 4.2-.2l27-15.56a1.53 1.53 0 0 0 .89-1.29 1.63 1.63 0 0 0 -.55-1.14l-18.86-18.82c-3.76-3.76-9.26-6.93-15.77-9.1l-32.59-10.89a5.51 5.51 0 0 0 -4.2.2l-27 15.56a1.53 1.53 0 0 0 -.89 1.29 1.69 1.69 0 0 0 .55 1.14l18.86 18.81c3.76 3.76 9.26 6.94 15.77 9.11z" fill="#f5f5f5"/><path d="m445.18 148.57v14.14a7.36 7.36 0 0 1 -.19 1.74c-.61 3.08-3 6.1-7.09 8.46a34.5 34.5 0 0 1 -15.54 4.09c-7 .33-14.23-1-19.6-4.15a17 17 0 0 1 -5.45-4.73 9.27 9.27 0 0 1 -1.62-3.69 6.9 6.9 0 0 1 -.19-1.69v-14.21c0-3.69 2.41-7.36 7.26-10.16.43-.24.87-.48 1.32-.7 9.77-4.89 24.56-4.65 33.82.7 4.87 2.82 7.3 6.51 7.28 10.2z" fill="#ebebeb"/><path d="m402.77 158.65c-9.7-5.6-9.7-14.68 0-20.28s25.43-5.6 35.13 0 9.7 14.68 0 20.28-25.43 5.61-35.13 0z" fill="#fafafa"/><path d="m422.41 162.8c0 .71-.06 1.45-.06 2.16v12.09c-7 .31-14.21-1.06-19.6-4.16a17.14 17.14 0 0 1 -5.44-4.73 9.31 9.31 0 0 1 -1.62-3.68 6.66 6.66 0 0 1 -.2-1.71v-14.25c0 3.65 2.45 7.36 7.29 10.15 5.36 3.1 12.59 4.47 19.63 4.13z" fill="#e0e0e0"/><path d="m445.13 148s-16.79-62.62-16.79-62.62a8.49 8.49 0 0 0 -16 0s-16.8 62.62-16.82 62.62c-.26 3.85 2.13 7.75 7.23 10.69 9.7 5.61 25.43 5.61 35.13 0 5.12-2.98 7.51-6.88 7.25-10.69z" fill="#fafafa"/><path d="m420.33 80.83a7.47 7.47 0 0 1 7 4.89l.1.23 8.3 31c2.09 7.83 4.19 15.66 5.77 21.53l1.9 7.09.53 2 .14.5c.24 3.61-2.13 7-6.68 9.66a37.68 37.68 0 0 1 -34 0c-4.55-2.63-6.92-6.06-6.68-9.67 0-.15.09-.31.13-.49l.54-2 1.91-7.09c1.57-5.88 3.67-13.7 5.77-21.53l8.3-31 .09-.27a7.46 7.46 0 0 1 6.95-4.87m0-1.1a8.52 8.52 0 0 0 -8 5.59s-16.86 62.7-16.88 62.7c-.26 3.85 2.13 7.75 7.23 10.69 4.85 2.8 11.21 4.21 17.56 4.21s12.72-1.41 17.57-4.21c5.1-2.94 7.49-6.84 7.23-10.69s-16.79-62.62-16.79-62.62a8.53 8.53 0 0 0 -8-5.61z" fill="#ebebeb"/><path d="m422.32 162.75c-1-.55-12.93-7.83-9.76-32.22 3.3-25.41 7.75-41.09 7.75-47.72v-3.08a8.52 8.52 0 0 0 -8 5.59s-16.77 62.68-16.79 62.68c-.26 3.85 2.13 7.75 7.23 10.69 5.38 3.06 12.56 4.38 19.57 4.06z" fill="#ebebeb"/><path d="m425.63 61.87a5.3 5.3 0 0 0 -10.59 0v23a1.47 1.47 0 0 0 0 .36 2.21 2.21 0 0 0 .35.79 3.64 3.64 0 0 0 1.16 1 7.78 7.78 0 0 0 4.18.89 7.48 7.48 0 0 0 3.3-.88 2.82 2.82 0 0 0 1.51-1.81 1.49 1.49 0 0 0 .05-.36v-23z" fill="#ebebeb"/><path d="m420.78 64.92v.46 22.62a7.86 7.86 0 0 1 -4.17-.89 3.52 3.52 0 0 1 -1.16-1 2.13 2.13 0 0 1 -.35-.79 1.47 1.47 0 0 1 0-.36v-23a2.66 2.66 0 0 0 1.49 2.04 7.91 7.91 0 0 0 4.19.92z" fill="#e0e0e0"/><ellipse cx="420.33" cy="58.74" fill="#455a64" rx="1.78" ry="1.03"/><path d="m419.08 59.23a1.74 1.74 0 0 0 -.14.12.76.76 0 0 0 .14.11 2.78 2.78 0 0 0 2.51 0 .76.76 0 0 0 .14-.11 1.74 1.74 0 0 0 -.14-.12 2.78 2.78 0 0 0 -2.51 0z" fill="#263238"/><ellipse cx="348.53" cy="85.98" fill="#fff" rx="33.18" ry="33.43" transform="matrix(.70710678 -.70710678 .70710678 .70710678 41.29 271.63)"/><path d="m372.8 110.25a34.32 34.32 0 1 1 -.18-48.37 34.24 34.24 0 0 1 .18 48.37zm-47.28-47.25a32.54 32.54 0 1 0 45.84.17 32.46 32.46 0 0 0 -45.84-.17z" fill="#455a64"/><path d="m378.69 118.39-11.69-4.85a18.11 18.11 0 0 0 9.08-9.09l4.86 11.69a1.72 1.72 0 0 1 -2.25 2.25z" fill="#455a64"/><path d="m344 103.22a4.7 4.7 0 0 1 -3.43-1.49l-10.67-11.4a4.7 4.7 0 1 1 6.87-6.43l6.93 7.4 16.39-20.77a4.71 4.71 0 0 1 7.39 5.84l-19.78 25.06a4.74 4.74 0 0 1 -3.5 1.78z" fill="#516eb4"/><path d="m136.82 178.15c-27.85 16.08-72.15 48-72.15 116.65s46.12 123 108.23 145.8c33.22 12.2 85.88 16.87 126-3.66 34.89-17.85 58.39-36.2 71.18-69.53 21.46-55.88 0-99-32.08-122.1s-45.15-31.88-72.49-57.75c-13.88-13.15-34.61-22-56.52-24.41-23.91-2.66-50.99 2.76-72.17 15z" fill="#516eb4"/><path d="m136.82 178.15c-27.85 16.08-72.15 48-72.15 116.65s46.12 123 108.23 145.8c33.22 12.2 85.88 16.87 126-3.66 34.89-17.85 58.39-36.2 71.18-69.53 21.46-55.88 0-99-32.08-122.1s-45.15-31.88-72.49-57.75c-13.88-13.15-34.61-22-56.52-24.41-23.91-2.66-50.99 2.76-72.17 15z" fill="#fff" opacity=".75"/><path d="m144 407.28c-55-44.85-59-116-45.39-159.52 14.22-45.5 57.24-79.69 110.35-84.61a108 108 0 0 0 -11.59-.64c-47.87 7.68-87.28 41.61-100.73 84.63-13.75 44-9.72 116.29 46.07 161.75 23.84 19.43 59.91 36.29 88.42 42.12q5.1.09 10.24-.1c-34.29-4.91-73.77-24.44-97.37-43.63z" fill="#516eb4" opacity=".15"/><path d="m144 407.28c-55-44.85-59-116-45.39-159.52 14.22-45.5 57.24-79.69 110.35-84.61a108 108 0 0 0 -11.59-.64c-47.87 7.68-87.28 41.61-100.73 84.63-13.75 44-9.72 116.29 46.07 161.75 23.84 19.43 59.91 36.29 88.42 42.12q5.1.09 10.24-.1c-34.29-4.91-73.77-24.44-97.37-43.63z" opacity=".05"/><path d="m324.75 273.37c-12.85-2.72-43.52-9.07-51.8-11-12.94-3-14.88-29.53-23.07-58.72-14.61-52.08-31.64-47.05-47.5-46.31-29.26 1.36-59.88 17.36-68.09 38.73s-11.41 54.29-7.13 83.79c4.05 27.86 11.08 41.57 11.08 41.57-25.91-2.25-37.14 17.77-37.14 17.77s25.84-13.5 54.84-2.94c.17.06-.67 7.27-.71 8 2.13 26 35.32 25.29 54.82 29.81 6.52.89 14.74 2.67 17.07 9.67 1.83 11.49-3 25.53 6.7 34.63 3.62 3.39 8.43 5.19 13.21 6.31a30.34 30.34 0 0 0 3.4.63c16.37 2.06 10.06-23.21 5.61-40.87-3.79-15 25-22.16 37.65-23.9s55.36 17.77 69.05 11.72c8.54-3.77 11.88-11.58 8.13-18.76-5.45-10.41-40.63-14.07-40.63-14.07 36.56-30.52 40.62-56.32-5.49-66.06z" fill="#516eb4" opacity=".15"/><path d="m270.31 351.08 15.51-23.71 22.77 18.74-35.26 33.52s-14.91-3.62-16.28-12.26 8.76-14.12 13.26-16.29z" fill="#f0997a"/><path d="m270.31 351.08-1.88 2.73a23.31 23.31 0 0 0 6.51 11.55c5.37 5.12 8 5.14 8 5.14l1.58-1.5s.74.87-1.79 3.15a41.13 41.13 0 0 0 -8.44 9.53c-3.5 5.31-7.34 18.39-8.83 28s-1 16.73-8.51 18.49-13.85-6.18-17-13.14-3.35-16.89-1.49-23.76 7.57-10.69 7.64-19c0-6.09 1.72-11.87 4.63-14.42s8.2-2.57 12-4.09 6.27-3.65 7.58-2.68z" fill="#fafafa"/><path d="m264.65 415.64c-3.47-10-18.93-14.92-27.34-12a32.54 32.54 0 0 0 2.59 11.4c3.19 7 9.56 14.9 17 13.14 5.88-1.35 6.88-5.99 7.75-12.54z" fill="#516eb4"/><path d="m260.34 354.54c-3.41.89-7.32 1.31-9.66 3.37-2.91 2.55-4.58 8.33-4.63 14.42v.77c7.72-1.35 15.95-12.1 14.29-18.56z" fill="#516eb4"/><path d="m282.72 372.15c2.53-2.28 1.79-3.15 1.79-3.15l-1.58 1.5s-2.62 0-8-5.14a23.31 23.31 0 0 1 -6.51-11.55l1.88-2.73c-1.31-1-3.87 1.22-7.65 2.74s-9.08 1.54-12 4.09a13.27 13.27 0 0 0 -3.48 6.2l24.31 4.79s-3.57 10.35-6.23 20.05c-3.27 11.9-2.72 27.09-9.45 31.11-6.48 3.88-17.09-10.43-18.51-22-.4 5.73.33 12.1 2.58 17 3.19 7 9.56 14.9 17 13.14s7-8.85 8.51-18.49 5.33-22.72 8.83-28a41.13 41.13 0 0 1 8.51-9.56z" opacity=".1"/><path d="m248.66 257.8s64-6.2 88.87-2.49c25.39 3.79 21.69 32.13 14.8 44.19-15.53 27.21-50.41 53.59-50.41 53.59s-19.18-5.55-21.92-19.09l10.15-17.64-31.69 5.91-14.13-13.17-7.09-6.43z" fill="#37474f"/><path d="m282.67 334.79s12.57 7.5 18.49 10.15a103.66 103.66 0 0 0 10.1 4l-6.17 22.54-31.6-8.22z" fill="#ffbda7"/><path d="m305.82 346.91c2.24 1 3.11 9 1.59 13.87-1.17 3.76-4.87 9.55-7.2 9.39l-2.24-.58s.07 1.58 3.69 2.25 14.56 3.75 18.72 4.65 12.7 5.52 18.07 6.94 10.46 3.68 19.59.55 15.62-12.5 12.46-20.76-12.08-10.47-19.5-11.37-20.21.37-28.33-1.38a89.69 89.69 0 0 1 -15.81-4.75c-2.48-1.06-3.94 0-3.94 0z" fill="#fafafa"/><path d="m370.5 363.22c-2.49-6.54-8.62-9.28-14.73-10.59 3.72 3.56 2 27-8.18 32.85a25.25 25.25 0 0 0 10.41-1.48c9.18-3.16 15.66-12.52 12.5-20.78z" fill="#516eb4"/><path d="m358 384c7.24-2.49 12.8-8.87 13.24-15.52a19 19 0 0 1 -9.7 10.21c-7.56 3.58-24-.93-31.18-4.67-5.83-3-15.43-5-24.69-9.38-1.63 2.93-3.89 5.66-5.5 5.55l-2.24-.58s.07 1.58 3.69 2.25 14.56 3.75 18.72 4.65 12.7 5.52 18.07 6.94 10.5 3.66 19.59.55z" opacity=".1"/><path d="m289.27 336.27c-15.55-11.44-38.17-29.68-48-33.73l-.77-.3c6.06-11.07 10.45-21 8.13-44.44l-96.12 4.2s.81 37.47 6 49.93c7 16.67 13.24 22.83 29.52 30.49 12.72 6 36.33 8.51 36.33 8.51 4.33 3.47 10.51 6.23 18.28 8 9.81 2.28 28.25 4.95 38.93 7.13 7.63-7.41 9.9-28.17 7.7-29.79z" fill="#37474f"/><path d="m297.75 297.19a228.75 228.75 0 0 0 -15.69 20.63l8.1-1.5c11.54-20.71 14.15-26.85 29.44-35.15 0 0-10.54 2.55-21.85 16.02z" fill="#263238"/><path d="m219.79 344.79a12.38 12.38 0 0 0 1.18 5.86c2.11.22 3.4.31 3.4.31l.09.07a30.41 30.41 0 0 1 -4.67-6.24z" fill="#263238"/><path d="m257.13 312.29c6.52 4.38 11.08 8.13 11.08 8.13l5.52-1s-12.05-8.75-21.21-15.3c-1.25-.9-5.67-4.06-6.8-5 4.1-11.07 3-19.78 3-19.78-.7 6.92-3.59 14-5.94 18.68-3.74-1.69-7-1.84-12.7-1.66-10 .33-38.86 1.37-38.86 1.37s27.44.9 41.56 2.72a28.57 28.57 0 0 1 7.79 1.78c7.43 3.27 13.04 7.69 16.56 10.06z" fill="#263238"/><path d="m228.31 158.68c13 1.66 19 6.17 36.94 16.55 18.14 10.47 22.17 12.15 22.17 12.15l23.74 39.73c-11 5.24-65-18.47-73.31-22z" fill="#37474f"/><path d="m280.13 183.62c.12 1.46.28 3.33.46 5.77 1 12.57 6.29 22.93 13.2 27.17l4.89-9.27-2.07-4.52-9.19-15.39s-1.6-.67-7.29-3.76z" fill="#263238"/><path d="m243 199.93c-1.22-28.54-8-39.73-13.82-41.53 0 0-20.83-7.51-43.39-2.61-6.38 1.38-18 3.85-25.93 6.61-5.12 1.78-10.53 19-11.63 36.06-.89 13.83-.39 25.35 1.33 48.27 1.8 24 2.91 33.31 6 52.8 36.91 7.65 77.22-6.15 95.86-42.21a88.34 88.34 0 0 1 -5.37-25c-.77-11.05-2.64-23.7-3.05-32.39z" fill="#fafafa"/><path d="m184 144.32c-1-7.74-8.25-16.11-11.39-23-3-6.61-4.79-11.71-4.14-17.77.38-3.59 2.87-8.36 5.59-9.26-2.49-13.52 7.82-19.27 13.21-20.3a57.78 57.78 0 0 0 7.47-1.73c2.95-1.08 3.71-3.38 6.13-5.26 4.18-3.23 11-3 13.3 2.28 2.84-3.34 6.46-3.09 10.61-1.84a7.19 7.19 0 0 1 5.13 8.35c5.75-2.89 10.71 1.3 11.08 4.62.27 2.45-.34 4.48 1.16 6.73 1.68 2.54 5.07 2.65 6.19.71.42 3.48-1 6.06-4.78 5.7a7.9 7.9 0 0 1 .68 6.64 7.2 7.2 0 0 1 -6.7 4.65c-.48 1.87-.64 3.61-1.91 5.19a12.37 12.37 0 0 1 -4.59 3.78c-5.79 2.45-12.11 3-18.28 4l-7.32 1.17c-.42.07-2.62.11-2.9.47z" fill="#263238"/><path d="m175.1 134c5.26 3.47 8.48-.3 8.48-.3l-1.58 22.3s12.55 20.81 33.21 22.71c1.69-4.46 1.33-12.77-1.42-17.21l.73-8.35a74.17 74.17 0 0 0 9.16 0c6.06-.56 11.37-5.1 13.38-11.55 2.11-6.74 3.1-17.86 2-26.1a22.15 22.15 0 0 1 0-6.35c.83-5.58 0-8.89-1.27-13.66-6.39-5.64-22.28-8-37 0 1.27 8.58-2.34 15.18-8.68 18.14.19 2.31.21 8.13-3.56 7.85-2.71-.2-2.74-3.62-5.4-6.75s-9.14-4.23-11.87.09c-3.89 6.1-1.94 15.34 3.82 19.18z" fill="#ffbda7"/><path d="m214.47 153.16c-9.51-1.55-16.73-2.92-21.4-10.07a60.53 60.53 0 0 1 -5.25-11.59s.6 8.51 3.46 14.38c2.21 4.53 7.95 8.48 22.88 10.45z" fill="#f0997a"/><path d="m213.38 115.26a2.69 2.69 0 1 1 -2.65-2.84 2.73 2.73 0 0 1 2.65 2.84z" fill="#263238"/><path d="m211.55 106.83-5.67 3.33a3.45 3.45 0 0 1 1.22-4.62 3.21 3.21 0 0 1 4.45 1.29z" fill="#263238"/><path d="m236.48 108.49-6.4-1.75a3.19 3.19 0 0 1 4-2.38 3.48 3.48 0 0 1 2.4 4.13z" fill="#263238"/><path d="m235.5 114.92a2.69 2.69 0 1 1 -2.66-2.84 2.73 2.73 0 0 1 2.66 2.84z" fill="#263238"/><path d="m221.37 136.22a2.23 2.23 0 0 1 -2.23 2.26 2.3 2.3 0 1 1 2.23-2.26z" fill="#b16668"/><path d="m231.7 125.05-9.36 4.17-2.92-18.37c3.48-1.25 7.97 7.15 12.28 14.2z" fill="#f0997a"/><path d="m295.45 156.62c-7.09.67-12.35 5.18-17.72 8.17 7.31 10.28 7.17 27.82 8.31 33.85 1 5.1 2.8 12.73 7.75 17.92 5.38 5.64 14.23 10.55 17.37 10.55 4.71 0 9.74-8 8.82-18.79-.89-10.5-4.09-16.52-11.46-29.34-1.7-2.98-6.16-11.29-13.07-22.36z" fill="#ffbda7"/><path d="m292.38 151.87c-3.14-4.16-7.62-7.81-11.28-11s-7.14-6.34-8.8-6-2.79.4-4.32 2c0 0-3 .06-4.34 1.16a13.86 13.86 0 0 0 -2.1 2.06 19.3 19.3 0 0 1 -5.25-1.8c-3.38-1.58-6.48-3.23-7.66-3.32s-5.56 1.65-6.86 2.25a5.46 5.46 0 0 0 -3 2.85c-1 1.79-1.86 3.05-1.38 3.8s3 1.2 4.72 0a8 8 0 0 0 2.21-2l3.88-.28 5.5 3.18s-9.65-4-11.33-4.54-4.83.7-7.68 2.45-3.21 1.85-3.53 2.51 1.06 2.72 4 2.67 6.25-1.63 7.74-1 8.2 4 10.84 6.11 5.27 4.59 5.87 6.27.6 3.22-2.13 5.05-5.72 3.81-6.59 6.53 0 5 1.4 5.34 3.72-2.94 5.45-4.13 5.73-4.1 8.78-4.66 4.55-.52 7.78-1.51 6.19 3.84 8 8.61c1.48 3.9 19-7.33 19-7.33s-6.06-11.49-8.92-15.27z" fill="#ffbda7"/><path d="m256 146.1-2.21-1.28-2.46-8.82a10.41 10.41 0 0 0 -2.7-1c-1.18-.1-5.56 1.65-6.86 2.25a5.46 5.46 0 0 0 -3 2.85l-.45.78a24.41 24.41 0 0 0 -3.63 1.85l-2 1.21a47.41 47.41 0 0 1 6.91-2.65c2.65-.6 4.64 1.05 5.86 1.4s10.54 3.41 10.54 3.41zm-2.21-1.28s-4.12-1.7-7.44-3l1.94-.14z" fill="#f0997a"/><path d="m246.69 149.28a8.78 8.78 0 0 0 -1 .09 1.55 1.55 0 0 1 -1.61-.73l-1.6-2.67-5 3 1.6 2.67a1.57 1.57 0 0 1 -.12 1.76 7.52 7.52 0 0 0 -.57.86 3.37 3.37 0 0 0 -.28 3.41l8 13.34a3.38 3.38 0 0 0 3.14 1.36 10.68 10.68 0 0 0 8.28-4.94 3.41 3.41 0 0 0 .28-3.42l-8-13.33a3.39 3.39 0 0 0 -3.12-1.4z" fill="#516eb4"/><path d="m250.16 151.21 5 8.38a3.51 3.51 0 0 1 -.39 3.25 10 10 0 0 1 -3.91 3.67l-5-8.38a11.56 11.56 0 0 0 2.06-1.45 8.32 8.32 0 0 0 1.85-2.22 3.48 3.48 0 0 0 .39-3.25z" fill="#f5f5f5"/><path d="m248 169.89-7.79-13a1.9 1.9 0 0 1 0-2.3c1.2-1.89 1-2.73.47-3.61l-1.68-2.92-1.46.88 1.6 2.67a1.57 1.57 0 0 1 -.12 1.76 7.52 7.52 0 0 0 -.57.86 3.37 3.37 0 0 0 -.28 3.41l8 13.34a3.38 3.38 0 0 0 3.14 1.36 10.6 10.6 0 0 0 6.55-2.84c-4.62 3.17-6.98 1.84-7.86.39z" opacity=".2"/><path d="m246.69 149.28a8.78 8.78 0 0 0 -1 .09 1.55 1.55 0 0 1 -1.61-.73l-1.6-2.67-.54.32c1.21 2 1.65 2.76 1.9 3.19a1.76 1.76 0 0 0 1.58.65c.61 0 2.49-.27 3.27.22s1.43 1.87 2.38 3.46l5.95 10a4.26 4.26 0 0 1 -.3 4.81 7 7 0 0 0 .82-1.18 3.31 3.31 0 0 0 .28-3.42l-8-13.33a3.39 3.39 0 0 0 -3.13-1.41z" fill="#fff" opacity=".4"/><path d="m245.82 147.82.61 1a2.39 2.39 0 0 1 -.2 2.42 7.53 7.53 0 0 1 -5.85 3.49 3.18 3.18 0 0 1 -1.38-.25 1.85 1.85 0 0 1 -.84-.71l-.62-1a1.36 1.36 0 0 1 -.13-.3 2.55 2.55 0 0 1 .33-2.11.43.43 0 0 1 0-.07 7.56 7.56 0 0 1 5.81-3.43 2.61 2.61 0 0 1 2 .7 2.47 2.47 0 0 1 .27.26z" fill="#ebebeb"/><path d="m243.44 152.47-.91-1.52c-.36-.6-.75-1.61-1.81-1a3.43 3.43 0 0 1 -2.94.31.43.43 0 0 0 0 .07 2.55 2.55 0 0 0 -.33 2.11 1.36 1.36 0 0 0 .13.3l.62 1a1.85 1.85 0 0 0 .84.71 3.18 3.18 0 0 0 1.38.25 7.53 7.53 0 0 0 5.85-3.49c-.91 1.19-2.49 1.79-2.83 1.26z" fill="#e0e0e0"/><path d="m239.76 153.72c-2.17 0-3.07-1.48-2-3.37a7.53 7.53 0 0 1 5.85-3.5c2.17 0 3.08 1.48 2 3.38a7.55 7.55 0 0 1 -5.85 3.49z" fill="#455a64"/><path d="m244.7 146 .77 1.29a1.23 1.23 0 0 1 .14.31 2.58 2.58 0 0 1 -.34 2.12 6.58 6.58 0 0 1 -2.17 2.23 7.17 7.17 0 0 1 -3.68 1.26 3.3 3.3 0 0 1 -1.37-.24 1.82 1.82 0 0 1 -.64-.46 1.21 1.21 0 0 1 -.2-.26l-.79-1.31a2.42 2.42 0 0 1 .2-2.42l.15-.25a7.6 7.6 0 0 1 5.7-3.24 2.39 2.39 0 0 1 2.23.97z" fill="#ebebeb"/><path d="m238.64 151.85c-2.17 0-3.07-1.48-2-3.38a7.52 7.52 0 0 1 5.85-3.49c2.17 0 3.08 1.47 2 3.37a7.56 7.56 0 0 1 -5.85 3.5z" fill="#fafafa"/><path d="m242.32 150.58.21.37.57 1a7.2 7.2 0 0 1 -3.68 1.26 3.17 3.17 0 0 1 -1.37-.25 1.65 1.65 0 0 1 -.64-.45 1.21 1.21 0 0 1 -.2-.26l-.79-1.31a2.41 2.41 0 0 0 2.22 1 7.09 7.09 0 0 0 3.68-1.36z" fill="#e0e0e0"/><path d="m242.25 143.87 1.36 2.27a1.87 1.87 0 0 1 -.16 1.9 5.92 5.92 0 0 1 -4.59 2.75 2.72 2.72 0 0 1 -1.09-.2 1.39 1.39 0 0 1 -.65-.56l-1.38-2.3a1 1 0 0 1 -.1-.24 1.93 1.93 0 0 1 .27-1.64v-.06a5.94 5.94 0 0 1 4.56-2.69 2 2 0 0 1 1.59.56 1.16 1.16 0 0 1 .19.21z" fill="#ebebeb"/><path d="m242.25 143.87.6 1a.66.66 0 0 1 .11.24 2 2 0 0 1 -.26 1.66 5.27 5.27 0 0 1 -1.71 1.75 5.57 5.57 0 0 1 -2.88 1 2.73 2.73 0 0 1 -1.09-.19 1.3 1.3 0 0 1 -.49-.36.74.74 0 0 1 -.16-.2l-.62-1a1.85 1.85 0 0 1 .16-1.89 2 2 0 0 1 .11-.2 6 6 0 0 1 4.48-2.55 1.88 1.88 0 0 1 1.75.74z" fill="#ebebeb"/><path d="m241.26 149-.71-1.2c-.29-.47-.59-.5-1.43-.77s-2.41-1-3.18-1.23v.06a2 2 0 0 0 -.26 1.66.94.94 0 0 0 .1.23l1.37 2.29a1.39 1.39 0 0 0 .65.56 2.72 2.72 0 0 0 1.09.2 5.92 5.92 0 0 0 4.59-2.75c-.71.88-1.95 1.39-2.22.95z" fill="#e0e0e0"/><path d="m240.5 143.1a5.94 5.94 0 0 0 -4.56 2.69v.06a1.93 1.93 0 0 0 -.27 1.64 1 1 0 0 0 .1.24l1.32 2.2a2.88 2.88 0 0 0 .91.11 6.73 6.73 0 0 0 5.24-3.13 3.13 3.13 0 0 0 .34-.86l-1.3-2.18a1.16 1.16 0 0 0 -.16-.21 2 2 0 0 0 -1.62-.56z" opacity=".1"/><path d="m237.49 148.5c-1.7 0-2.41-1.16-1.58-2.65a5.92 5.92 0 0 1 4.59-2.75c1.7 0 2.41 1.16 1.58 2.65a5.92 5.92 0 0 1 -4.59 2.75z" fill="#fafafa"/><path d="m242.57 143.36.55.92a2.16 2.16 0 0 1 -.18 2.17 6.76 6.76 0 0 1 -5.24 3.13 2.87 2.87 0 0 1 -1.24-.22 1.64 1.64 0 0 1 -.75-.64l-.56-.93a1.31 1.31 0 0 1 -.12-.27 2.31 2.31 0 0 1 .3-1.9.21.21 0 0 1 0-.06 6.77 6.77 0 0 1 5.2-3.07 2.35 2.35 0 0 1 1.82.63 1.08 1.08 0 0 1 .22.24z" fill="#ebebeb"/><path d="m240.44 147.53-.82-1.37c-.32-.54-.67-1.44-1.62-.87a3.06 3.06 0 0 1 -2.63.27.21.21 0 0 0 0 .06 2.31 2.31 0 0 0 -.3 1.9 1.31 1.31 0 0 0 .12.27l.56.93a1.64 1.64 0 0 0 .75.64 2.87 2.87 0 0 0 1.24.22 6.76 6.76 0 0 0 5.24-3.13c-.82 1.01-2.23 1.55-2.54 1.08z" fill="#e0e0e0"/><path d="m237.14 148.65c-1.95 0-2.76-1.33-1.81-3a6.76 6.76 0 0 1 5.24-3.13c2 0 2.76 1.32 1.81 3a6.74 6.74 0 0 1 -5.24 3.13z" fill="#455a64"/><path d="m241.57 141.68.69 1.16a2.39 2.39 0 0 1 .13.28 2.34 2.34 0 0 1 -.31 1.89 5.92 5.92 0 0 1 -2 2 6.44 6.44 0 0 1 -3.29 1.13 3.06 3.06 0 0 1 -1.24-.22 1.61 1.61 0 0 1 -.57-.41 1.3 1.3 0 0 1 -.18-.23l-.7-1.18a2.16 2.16 0 0 1 .17-2.17l.14-.22a6.81 6.81 0 0 1 5.11-2.91 2.17 2.17 0 0 1 2.05.88z" fill="#ebebeb"/><path d="m236.14 147c-1.95 0-2.76-1.33-1.81-3a6.73 6.73 0 0 1 5.24-3.13c2 0 2.76 1.32 1.81 3a6.76 6.76 0 0 1 -5.24 3.13z" fill="#fafafa"/><path d="m239.44 145.84.18.32.51.86a6.47 6.47 0 0 1 -3.29 1.13 3.06 3.06 0 0 1 -1.24-.22 1.61 1.61 0 0 1 -.57-.41 1.08 1.08 0 0 1 -.18-.24l-.7-1.17a2.14 2.14 0 0 0 2 .86 6.41 6.41 0 0 0 3.29-1.13z" fill="#e0e0e0"/><path d="m245 140.66a.28.28 0 0 0 -.16-.1l-3.8-.95a5.94 5.94 0 0 0 -2.68 0l-4.94 1.08a.78.78 0 0 0 -.51.35l-2.23 4a.24.24 0 0 0 0 .23l.35.58a.28.28 0 0 0 .16.1l3.8.95a5.94 5.94 0 0 0 2.68 0l4.93-1.08a.8.8 0 0 0 .52-.35l2.23-4a.24.24 0 0 0 0-.23s-.35-.52-.35-.58z" fill="#ebebeb"/><path d="m245 140.66a.28.28 0 0 0 -.16-.1l-3.8-.95a5.94 5.94 0 0 0 -2.68 0l-4.94 1.08a.78.78 0 0 0 -.51.35l-2.23 4a.24.24 0 0 0 0 .23l.35.58a.28.28 0 0 0 .16.1l3.8.95a5.94 5.94 0 0 0 2.68 0l4.93-1.08a.8.8 0 0 0 .52-.35l2.23-4a.24.24 0 0 0 0-.23s-.35-.52-.35-.58z" opacity=".1"/><path d="m239.09 139.52c-.25 0-.51.07-.78.13l-4.94 1.08a.78.78 0 0 0 -.51.35l-2.23 4a.24.24 0 0 0 0 .23l.35.58a.28.28 0 0 0 .16.1l3.8.95a5.94 5.94 0 0 0 2.68 0l4.93-1.08a.76.76 0 0 0 .26-.11z" opacity=".1"/><path d="m237.25 146.32 4.94-1.09a.74.74 0 0 0 .51-.34l2.23-4a.24.24 0 0 0 0-.23.28.28 0 0 0 -.16-.1l-3.8-.95a5.94 5.94 0 0 0 -2.68 0l-4.94 1.08a.78.78 0 0 0 -.51.35l-2.23 4a.24.24 0 0 0 0 .23.32.32 0 0 0 .16.1l3.8 1a5.94 5.94 0 0 0 2.68-.05z" fill="#f5f5f5"/><path d="m239.4 139.35 1.07 1.79a.94.94 0 0 1 .1.23 2 2 0 0 1 -.25 1.61 5.2 5.2 0 0 1 -1.65 1.69 5.51 5.51 0 0 1 -2.79 1 2.56 2.56 0 0 1 -1-.19 1.43 1.43 0 0 1 -.48-.34 1 1 0 0 1 -.15-.2l-1.08-1.8a1.81 1.81 0 0 1 .15-1.83 1.22 1.22 0 0 1 .12-.19 5.76 5.76 0 0 1 4.32-2.47 1.82 1.82 0 0 1 1.64.7z" fill="#ebebeb"/><path d="m234.8 143.83c-1.64 0-2.33-1.12-1.53-2.56a5.75 5.75 0 0 1 4.44-2.66c1.65 0 2.33 1.13 1.53 2.57a5.75 5.75 0 0 1 -4.44 2.65z" fill="#fafafa"/><path d="m237.6 142.87.15.28.92 1.52a5.54 5.54 0 0 1 -2.79 1 2.56 2.56 0 0 1 -1-.19 1.39 1.39 0 0 1 -.48-.34 1 1 0 0 1 -.15-.2l-1.08-1.8a1.84 1.84 0 0 0 1.69.73 5.44 5.44 0 0 0 2.74-1z" fill="#e0e0e0"/><path d="m239.35 139.28-6.85-6.64a1.28 1.28 0 0 0 -1.44-.11 1.25 1.25 0 0 0 -.58 1.31l2.61 9.17a1.77 1.77 0 0 0 1.72.81 5.75 5.75 0 0 0 4.44-2.65 1.78 1.78 0 0 0 .1-1.89z" fill="#fafafa"/><path d="m237.58 142.87c-.16 0-2.22 0-3.66-3.33s-2.13-5.78-2.63-6.61l-.23-.39a1.23 1.23 0 0 0 -.58 1.3l2.61 9.17a1.77 1.77 0 0 0 1.72.81 5.47 5.47 0 0 0 2.77-.95z" fill="#ebebeb"/><path d="m230.38 129.88a.77.77 0 0 0 -1.06-.27.78.78 0 0 0 -.27 1.07l1.74 2.91a.23.23 0 0 0 .1.07.53.53 0 0 0 .23 0 1.13 1.13 0 0 0 .59-.2 1.09 1.09 0 0 0 .35-.36.45.45 0 0 0 .06-.34v-.05l-1.73-2.91z" fill="#ebebeb"/><path d="m230 130.63v.06l1.71 2.85a1.13 1.13 0 0 1 -.6.2.51.51 0 0 1 -.22 0 .23.23 0 0 1 -.1-.07l-1.74-2.91a.37.37 0 0 0 .36.15 1.13 1.13 0 0 0 .59-.28z" fill="#e0e0e0"/><path d="m229.58 129.7c.12 0 .17.08.11.18a.4.4 0 0 1 -.31.19c-.12 0-.17-.08-.11-.18a.38.38 0 0 1 .31-.19z" fill="#455a64"/><path d="m229.36 130a0 0 0 0 0 0 0 .4.4 0 0 0 .31-.19.42.42 0 0 0 -.31.19z" fill="#263238"/><path d="m259.57 141.74a20 20 0 0 0 -2.07 3.65 5.29 5.29 0 0 0 -.49 1.93 1.42 1.42 0 0 0 .08.42 4.43 4.43 0 0 0 .2.45 5 5 0 0 0 .56.8 14.44 14.44 0 0 0 3.33 2.39c1.2.76 2.35 1.56 3.54 2.27a11.34 11.34 0 0 0 1.8.92 8.65 8.65 0 0 0 2 .3c1.38.1 2.78.07 4.19.09a.92.92 0 0 0 1-1 2.35 2.35 0 0 0 -.85-1.64 8.5 8.5 0 0 0 -3.64-1.94 8.12 8.12 0 0 1 3.92 1.62 2.78 2.78 0 0 1 1.13 2 1.66 1.66 0 0 1 -.38 1.18 1.48 1.48 0 0 1 -1.17.52c-1.4.09-2.82.12-4.25.07a9 9 0 0 1 -2.19-.32 11.78 11.78 0 0 1 -2-1c-1.22-.75-2.37-1.55-3.54-2.32a13.54 13.54 0 0 1 -3.39-2.66 5.32 5.32 0 0 1 -.6-1c-.07-.17-.14-.35-.2-.53a2.18 2.18 0 0 1 -.08-.61 5.6 5.6 0 0 1 .65-2.11 17.84 17.84 0 0 1 2.45-3.48z" fill="#f0997a"/><path d="m267.41 137.67-2.07 2.67c-.34.45-.69.89-1 1.34a1.59 1.59 0 0 0 -.13 1.4 23.82 23.82 0 0 0 1.45 3c.53 1 1.06 2 1.62 2.91a2.14 2.14 0 0 0 1 .92 1.55 1.55 0 0 0 .65.07l.82-.11c1.11-.15 2.23-.32 3.32-.5.56-.09 1-.21 1.21-.53a1.2 1.2 0 0 0 -.17-1.21 2.47 2.47 0 0 0 -1.17-.91 11.49 11.49 0 0 0 -1.55-.58.27.27 0 0 1 -.17-.2 9.67 9.67 0 0 0 -1.51-4.24 7 7 0 0 1 1.26 1.94 10.13 10.13 0 0 1 .73 2.24l-.18-.2a11 11 0 0 1 1.66.51 3.15 3.15 0 0 1 1.5 1.06 1.85 1.85 0 0 1 .26 2 2.32 2.32 0 0 1 -1.71.95c-1.12.23-2.23.39-3.35.56l-.86.13a2.2 2.2 0 0 1 -1-.12 2.92 2.92 0 0 1 -1.46-1.27c-.62-1-1.1-2-1.61-3a18.2 18.2 0 0 1 -1.35-3.18 2.14 2.14 0 0 1 .31-1.83c.36-.47.73-.89 1.12-1.31.79-.91 1.57-1.73 2.38-2.51z" fill="#f0997a"/><path d="m271.37 144.7a5 5 0 0 0 1.57-.72 9.9 9.9 0 0 0 1.41-1.1 7.16 7.16 0 0 0 1.93-3 7.1 7.1 0 0 1 -1.78 3.12 10.65 10.65 0 0 1 -1.37 1.23 5.42 5.42 0 0 1 -1.67.87.22.22 0 0 1 -.12-.43z" fill="#f0997a"/><path d="m256.29 138.32c-3.38-1.58-6.48-3.23-7.66-3.32s-5.56 1.65-6.86 2.25a5.46 5.46 0 0 0 -3 2.85c-1 1.79-1.86 3.05-1.38 3.8s3 1.2 4.72 0a8 8 0 0 0 2.21-2l3.88-.28 5.5 3.18 7.8-4.7a19.3 19.3 0 0 1 -5.21-1.78z" fill="#ffbda7"/><path d="m273.67 149.63a12.79 12.79 0 0 0 9.93 7.92c-4.6-.12-8.85-2.28-11.44-7.63z" fill="#f0997a"/><path d="m162.14 161.68c-10.12 3.19-17.5 5.2-23.65 21.74s-12.54 39-14.09 49.88-1.11 23.61 8.19 26 35.33-45 35.33-45 6.91-35.44-5.78-52.62z" fill="#37474f"/><path d="m176.55 180.29c-2.48 6.69-20.78 22.26-29.5 28.79s-11.93 10.09-15.52 17.08-5.69 19.79-3.82 28.7c1 4.95 12.3 7.33 25.37-1.54s17.5-19.71 24.34-33.32c5.34-10.6 9.34-16.58 12.44-22.05 1.23-2.17 6.59-7.1 11.6-13.77s5.08-12.77 6.32-15.84a34.57 34.57 0 0 1 4.89-8.8 58.77 58.77 0 0 0 3.91-5c2.72-4.38 2.06-6.71 1-7.58 1.81-3.12 2.06-5.46.44-6.95 1.55-2.81.56-5.81-1.15-5.64s-4.72 2.84-4.72 2.84a6 6 0 0 0 -3.71-.83c-1.92.31-7.58 4.06-11.14 5.86s-4.74 5.43-8.06 9.51a16.55 16.55 0 0 0 -1.31-4.93c-1.12-2.47-4.79-3.48-5.07.54a76 76 0 0 1 -3.47 16.1c-2.07 6.77-2.83 16.81-2.83 16.81" fill="#ffbda7"/><path d="m189.86 198a23.36 23.36 0 0 1 2.3-2.95l2.49-2.8c1.66-1.86 3.29-3.75 4.84-5.7a39.34 39.34 0 0 0 4.19-6.16 31.15 31.15 0 0 0 2.56-7c.3-1.2.55-2.42.87-3.64a23.32 23.32 0 0 1 1.33-3.53 31.89 31.89 0 0 1 3.79-6.51 50.22 50.22 0 0 0 4.5-5.92 11.87 11.87 0 0 0 1.36-3.38 3.22 3.22 0 0 0 -.71-3.18l-.19-.16.12-.22a11.27 11.27 0 0 0 1.38-3.39 4.08 4.08 0 0 0 0-1.74 3 3 0 0 0 -.88-1.44l-.18-.17.12-.22a5.74 5.74 0 0 0 .72-2.79 2.51 2.51 0 0 0 -1.11-2.3 1.92 1.92 0 0 0 -1.25.18 9.18 9.18 0 0 0 -1.3.71 22.5 22.5 0 0 0 -2.42 1.82l-.19.16-.23-.13a5.58 5.58 0 0 0 -3.25-.81 10.75 10.75 0 0 0 -3.22 1.32c-2.13 1.14-4.2 2.4-6.33 3.57-.53.3-1.07.59-1.61.86a9.14 9.14 0 0 0 -1.49.94 12.38 12.38 0 0 0 -2.41 2.59c-1.4 1.95-2.65 4.06-4.21 5.95l-.4.47-.06-.62a16.74 16.74 0 0 0 -.53-2.79q-.19-.69-.45-1.35a6.11 6.11 0 0 0 -.6-1.26 3.29 3.29 0 0 0 -2.17-1.46 1.64 1.64 0 0 0 -1.21.28 2 2 0 0 0 -.72 1.07 18.8 18.8 0 0 0 -.39 2.82c-.11 1-.26 1.92-.43 2.87-.34 1.91-.78 3.8-1.26 5.67-.91 3.77-2.32 7.38-3 11.18a113.52 113.52 0 0 0 -1.65 11.47 110.83 110.83 0 0 1 1.45-11.5c.63-3.83 1.95-7.5 2.85-11.24.47-1.87.89-3.75 1.22-5.65.16-1 .31-1.9.41-2.85a18.77 18.77 0 0 1 .39-2.91 2.53 2.53 0 0 1 .87-1.3 2.15 2.15 0 0 1 1.53-.37 3.72 3.72 0 0 1 2.51 1.66 5.75 5.75 0 0 1 .66 1.34 14.2 14.2 0 0 1 .47 1.39 17.61 17.61 0 0 1 .58 2.89l-.46-.14c1.53-1.86 2.74-4 4.16-5.94a12.69 12.69 0 0 1 2.5-2.73 9.76 9.76 0 0 1 1.58-1l1.59-.86c2.11-1.19 4.17-2.46 6.31-3.62a11.46 11.46 0 0 1 3.46-1.42 6.3 6.3 0 0 1 3.7.9h-.42a22 22 0 0 1 2.51-1.89 9.47 9.47 0 0 1 1.41-.75 2.45 2.45 0 0 1 1.75-.18 2.29 2.29 0 0 1 1.2 1.29 4.39 4.39 0 0 1 .33 1.63 6.44 6.44 0 0 1 -.82 3.11l-.06-.39a3.62 3.62 0 0 1 1.05 1.75 4.7 4.7 0 0 1 0 2 11.84 11.84 0 0 1 -1.46 3.58l-.07-.38a3 3 0 0 1 1 1.79 5.42 5.42 0 0 1 -.08 2 12.26 12.26 0 0 1 -1.44 3.53c-1.25 2.23-3.07 4-4.58 6a31.23 31.23 0 0 0 -3.77 6.38 22.82 22.82 0 0 0 -1.33 3.46c-.32 1.2-.58 2.42-.89 3.63a31 31 0 0 1 -2.64 7 36.64 36.64 0 0 1 -4.3 6.15c-1.6 1.93-3.26 3.8-4.95 5.63l-2.54 2.76a21.13 21.13 0 0 0 -2.4 2.94z" fill="#b16668"/><path d="m127.71 254.86a4.53 4.53 0 0 0 1.72 2.31 8.91 8.91 0 0 0 2.62 1.2 16.75 16.75 0 0 0 5.78.37 26.06 26.06 0 0 0 5.72-1.23 35.12 35.12 0 0 0 5.43-2.25 43.87 43.87 0 0 0 9.71-6.75 48.77 48.77 0 0 0 7.8-8.92c4.53-6.53 7.79-13.85 11.47-20.91q2.73-5.33 5.77-10.47c2-3.44 4.14-6.81 6.13-10.26-2 3.47-4 6.86-6 10.32s-3.87 7-5.66 10.52c-3.6 7.09-6.76 14.45-11.25 21.1a50.16 50.16 0 0 1 -7.82 9.08c-.74.68-1.49 1.35-2.28 2l-1.17.94-1.22.89a42.37 42.37 0 0 1 -5 3.31 35.56 35.56 0 0 1 -5.54 2.44 25.67 25.67 0 0 1 -6 1.16 15.15 15.15 0 0 1 -6-.71 7.65 7.65 0 0 1 -2.66-1.51 4.3 4.3 0 0 1 -1.55-2.63z" fill="#f28f8f"/><path d="m195.33 153.23a49.69 49.69 0 0 1 2.68-5.3 14.54 14.54 0 0 1 4.22-4.3 110.2 110.2 0 0 1 9.91-6.4 110.22 110.22 0 0 1 -9.31 7.26 16.78 16.78 0 0 0 -4.16 3.9c-1.15 1.54-2.13 3.27-3.34 4.84z" fill="#f0997a"/><path d="m217.91 139.72a1.78 1.78 0 0 0 -1.46-.28 3.65 3.65 0 0 0 -1.25.83c-.77.69-1.42 1.53-2.18 2.31-1.48 1.55-3.06 3-4.6 4.45a28.79 28.79 0 0 0 -2.22 2.19c-.65.8-1.27 1.68-1.92 2.52-1.27 1.71-2.58 3.4-3.93 5 1-1.88 2.1-3.73 3.26-5.52.57-.91 1.16-1.78 1.81-2.67a24.12 24.12 0 0 1 2.28-2.34c1.57-1.45 3.17-2.85 4.75-4.27a28 28 0 0 1 2.43-2.12 3.88 3.88 0 0 1 1.51-.7 1.75 1.75 0 0 1 1.52.6z" fill="#f0997a"/><path d="m217.57 147a1.67 1.67 0 0 0 -1.19.05 3.52 3.52 0 0 0 -1 .7 18.23 18.23 0 0 0 -1.67 1.83 40.39 40.39 0 0 1 -3.35 3.84c-.6.6-1.22 1.18-1.84 1.75a20.78 20.78 0 0 0 -1.76 1.75c-1.08 1.25-2.1 2.6-3.14 3.95a24 24 0 0 1 2.5-4.47 36.59 36.59 0 0 1 3.49-3.73c1.21-1.17 2.31-2.4 3.49-3.63a13.29 13.29 0 0 1 2-1.7 4.31 4.31 0 0 1 1.21-.56 1.67 1.67 0 0 1 1.26.22z" fill="#f0997a"/><path d="m189.23 151.77c-.75 1.91-1.59 3.73-2.46 5.56a55.36 55.36 0 0 1 -2.89 5.35 33 33 0 0 1 2.18-5.7 27.27 27.27 0 0 1 3.17-5.21z" fill="#f0997a"/><path d="m259.54 107.8a4.56 4.56 0 0 0 -.47 1.56 15.82 15.82 0 0 1 -.45 1.53 16.57 16.57 0 0 1 -1.37 3 18.08 18.08 0 0 1 -1.79 2.56c-.67.81-1.48 1.49-2.14 2.29-.19.22.22.6.45.47a10.31 10.31 0 0 0 2.48-2.23 17 17 0 0 0 1.91-2.69 18.8 18.8 0 0 0 1.37-3c.19-.53.35-1.06.49-1.61a3 3 0 0 0 .15-1.71c-.07-.13-.47-.4-.63-.17z" fill="#e0e0e0"/><path d="m264.27 114.2a28.33 28.33 0 0 0 -1.69 2.43 16.7 16.7 0 0 1 -2.14 2.23 15.09 15.09 0 0 1 -2.24 1.63c-.86.52-1.8.86-2.67 1.35-.36.19.08.72.39.66a10.09 10.09 0 0 0 3-1.22 15.8 15.8 0 0 0 4.78-4.09 13.77 13.77 0 0 0 .89-1.23 2.94 2.94 0 0 0 .6-1.29c.04-.42-.6-.79-.92-.47z" fill="#e0e0e0"/><path d="m289.29 97.12a7.32 7.32 0 0 0 -1.62-6.52c-3.44-4.17-9.51-4-14-1.8a8.73 8.73 0 0 0 -4.76 5.07c-3.2-2.91-7.86-4.41-12-2.63s-6.56 6.36-4.59 10.57a7 7 0 0 0 5.24 4.13c.51.07.2-.62-.14-.69a6.42 6.42 0 0 1 -4.64-4.88 7 7 0 0 1 2.08-6.53c4.08-4 10.35-2.7 14 1.21.24.26.88.37 1-.1.64-4.55 6.55-6.81 10.57-6.78a8.33 8.33 0 0 1 6.08 2.51 6.51 6.51 0 0 1 1.73 6c-.65 2.42-2.58 4.22-4.34 5.87-.42.39.37.79.67.79 5 0 7.64 5.44 6.16 9.76s-6.34 6.27-10.53 5.35a.47.47 0 0 0 -.58.39 12.1 12.1 0 0 1 -.6 3c-.93 1.89-2.58 2.33-4.58 2.2a7.19 7.19 0 0 1 -2.91-1c-.22-.11-.61 0-.6.24a.38.38 0 0 0 .16.24 7.27 7.27 0 0 0 3.53 1.59c2.94.12 4.42-.53 5.52-2.77a8.83 8.83 0 0 0 .57-2.86 10.27 10.27 0 0 0 9.95-3.87 8.88 8.88 0 0 0 -.36-10.42 7.49 7.49 0 0 0 -4.67-2.69 12.11 12.11 0 0 0 3.66-5.38z" fill="#e0e0e0"/><path d="m268.44 121.49a54.78 54.78 0 0 1 -5.62 2.57 30.77 30.77 0 0 1 -5.57 1c-.27 0 0 .48.14.5a14.17 14.17 0 0 0 6.23-.68 10.85 10.85 0 0 0 5.19-2.91c.19-.22-.15-.57-.37-.48z" fill="#e0e0e0"/><path d="m106 408.08h-62l6.41 26.69c.49 3.22 2.86 6.36 7.12 8.83 9.64 5.56 25.26 5.56 34.9 0 4.59-2.65 7-6.09 7.18-9.56z" fill="#37474f"/><path d="m98.42 426.38a26.47 26.47 0 0 0 3.72-2.6l3.49-14.26a25 25 0 0 1 -6.27 5c-13.07 7.55-34 7.74-47.54.62l1.57-6.36-.48-.67h-8.91l6.4 26.68c.49 3.22 2.86 6.36 7.12 8.83 6.87 4 16.76 5.08 25.37 3.4-15.43 1.15-26-5.6-27.61-11.82-.64-2.48-1.74-8-1.74-8 12.92 6.54 32.56 6.28 44.88-.82z" fill="#263238"/><path d="m109.2 400.19a12.9 12.9 0 0 1 -2.07 4.81 23 23 0 0 1 -7.77 6.91c-13.45 7.76-35.27 7.76-48.72 0a23 23 0 0 1 -7.77-6.91 13 13 0 0 1 -2.06-4.81c-1.2-5.84 2.09-11.92 9.84-16.4 13.45-7.77 35.27-7.77 48.72 0 7.74 4.48 11.03 10.56 9.83 16.4z" fill="#455a64"/><path d="m107.13 405a23 23 0 0 1 -7.77 6.91c-13.45 7.76-35.27 7.76-48.72 0a23 23 0 0 1 -7.77-6.91 13 13 0 0 1 -2.06-4.81l1.53 10.5c.7 4.23 3.85 8.34 9.46 11.58 12.82 7.4 33.6 7.4 46.42 0 5.53-3.2 8.68-7.26 9.43-11.43l.08-.54 1.48-10.11a12.9 12.9 0 0 1 -2.08 4.81z" fill="#37474f"/><path d="m95.3 386.13c-11.21-6.48-29.39-6.48-40.59 0-6.35 3.67-9.09 8.61-8.26 13.39.63 3.67 3.39 7.23 8.26 10 11.2 6.48 29.38 6.48 40.59 0 4.86-2.81 7.61-6.37 8.25-10 .84-4.78-1.9-9.72-8.25-13.39z" fill="#263238"/><path d="m48.34 404a19.21 19.21 0 0 0 6.37 5.6c11.2 6.48 29.38 6.48 40.59 0a19.27 19.27 0 0 0 6.36-5.6c-.08-3.88-2.68-7.74-7.8-10.7-10.42-6-27.3-6-37.71 0-5.15 2.92-7.72 6.78-7.81 10.7z" fill="#fafafa"/><path d="m77.15 391.91c-5.15-1.4-6-12.56-3.14-24.33 2.81-11.46 11.79-28.64 13.7-28.26s4.3 19.05 3 31.38c-1.71 14.94-8.41 22.6-13.56 21.21z" fill="#516eb4"/><path d="m77.15 391.91c-5.15-1.4-6-12.56-3.14-24.33 2.81-11.46 11.79-28.64 13.7-28.26s4.3 19.05 3 31.38c-1.71 14.94-8.41 22.6-13.56 21.21z" opacity=".3"/><path d="m79.66 355.83c.92 1.46 1.49 3.93 3.65 3.94 1.74 0 2.65-1.83 4.21-2.25a4.26 4.26 0 0 1 3.46 1l-.06-1.34a5.33 5.33 0 0 0 -3-1 4.29 4.29 0 0 0 -2.5 1.13c-.8.62-1.78 1.56-2.89 1.11s-1.61-2.09-2.25-3.14a4.08 4.08 0 0 0 -1.38-1.42l-.41 1a3 3 0 0 1 1.17.97zm6.11-4.6c.74-.36 1.16-1.09 1.74-1.64a2.48 2.48 0 0 1 2.65-.51h.09q-.07-.6-.15-1.17a3.89 3.89 0 0 0 -.49-.12 3 3 0 0 0 -2.15.47c-.71.51-1.11 1.39-1.86 1.84-1.34.8-2.42-.66-2.82-1.77-.18-.49-.32-1-.48-1.5l-.42.79c.1.35.18.71.29 1 .46 1.53 1.83 3.44 3.6 2.61zm-.17 14.9c-.94.57-1.74 1.53-2.82 1.84-2.65.76-3.27-3.34-5-4.55a3.59 3.59 0 0 0 -2.41-.63l-.3.94a3.36 3.36 0 0 1 1.34 0 3.68 3.68 0 0 1 2.33 2.07c.84 1.52 1.92 3.7 4 3.28a6.76 6.76 0 0 0 2.46-1.39 4.44 4.44 0 0 1 3.6-1 4.89 4.89 0 0 1 2 1.08l.06-1.22a5.08 5.08 0 0 0 -2.46-1.09 4.57 4.57 0 0 0 -2.8.67zm1.61 9a5.22 5.22 0 0 0 -3.51.47c-1.23.6-2.12 1.79-3.41 2.28-2.8 1.06-3.23-3-5.29-4a4.17 4.17 0 0 0 -2.12-.41c0 .32-.09.63-.13.95a3.66 3.66 0 0 1 .81 0 3.75 3.75 0 0 1 2.89 2.24c1 1.85 2.3 3.35 4.57 2.24 1.21-.59 2.08-1.7 3.33-2.23a4 4 0 0 1 4.19.38 6.85 6.85 0 0 1 .78 1c.11-.4.2-.81.3-1.23a4.55 4.55 0 0 0 -2.41-1.69z" fill="#516eb4" opacity=".5"/><path d="m77.15 391.91c5.15 1.39 11.85-6.27 13.52-21.21a88.27 88.27 0 0 0 .33-12.81c-4.2 3.45-8.42 10.51-8.42 10.51a113.79 113.79 0 0 0 -5-11.27 77.34 77.34 0 0 0 -3.58 10.45c-2.88 11.77-2 22.93 3.15 24.33z" opacity=".1"/><path d="m73 398.1c-6.78 4.35-13.1-11.12-16.47-22.8s-1.17-42.2 2.25-43.87c2.42-1.18 15.21 26.17 17.73 39.49 1.77 9.62 1.83 23.72-3.51 27.18z" fill="#516eb4"/><path d="m73 398.1c-6.78 4.35-13.1-11.12-16.47-22.8s-1.17-42.2 2.25-43.87c2.42-1.18 15.21 26.17 17.73 39.49 1.77 9.62 1.83 23.72-3.51 27.18z" opacity=".1"/><path d="m58.32 353c2.13 1 3.82 1.05 5.48-.74s2.69-3.78 5.09-3.51c-.23-.54-.47-1.07-.7-1.59a3.59 3.59 0 0 0 -1.17.12c-2.1.56-3 2.75-4.52 4.13-2.28 2.13-4.7-.67-7.28-.51h-.23l-.06 1.4a6.46 6.46 0 0 1 3.39.7zm18.68 21a6.6 6.6 0 0 0 -1.12-.32 4.07 4.07 0 0 0 -3.19.72c-2.06 1.51-2.15 4.85-5.46 4-2.53-.67-4.42-2.33-7.07-1a9.14 9.14 0 0 0 -2.43 1.83c.13.39.25.78.39 1.16a7.42 7.42 0 0 1 3.29-2c2.86-.74 5 2.15 7.85 1.68 2.32-.39 2.57-2.93 4.18-4.19 1.19-.93 2.47-.7 3.76-.23-.11-.65-.2-1.14-.2-1.65zm-18.56-32.09c.8 1.09 1.91 2.29 3.38 1.54s1.69-2.72 2.7-4c-.18-.36-.37-.71-.55-1.05-1 1.31-1.47 4.16-3.35 4.06-1.47-.08-2-2.26-3.28-2.89a2.21 2.21 0 0 0 -1.23-.24c0 .3-.09.6-.13.9h.29c1.03.06 1.63.93 2.17 1.68zm5.11 23.16c2.67.58 4-2.6 5.19-4.37a7.94 7.94 0 0 1 3.71-3.14l-.54-1.44a5 5 0 0 0 -1.4.52 9.05 9.05 0 0 0 -2.9 2.94c-.81 1.21-1.47 2.82-2.72 3.63-1.44.93-3.11-.52-4.6-.79a7.92 7.92 0 0 0 -4.12.34 6.83 6.83 0 0 0 -1.25.6c0 .66.06 1.32.1 2a6.34 6.34 0 0 1 4.34-1.46c1.57-.01 2.73.86 4.19 1.17z" fill="#516eb4"/><path d="m72.9 358.79a38.33 38.33 0 0 0 -5.49 9s-7.35-10-12.52-14.5c-.28 8.28.13 16.93 1.59 22 3.37 11.71 9.69 27.16 16.52 22.81 5.39-3.46 5.33-17.56 3.51-27.18a84.44 84.44 0 0 0 -3.61-12.13z" opacity=".1"/><path d="m72.48 406.05c-12.39.67-24-6.83-31.48-16.29s-13.38-29-11.68-30.2 21.69 11.12 29.2 20c9.84 11.68 13.96 26.49 13.96 26.49z" fill="#516eb4"/><path d="m72.48 406.05c-12.39.67-24-6.83-31.48-16.29s-13.38-29-11.68-30.2 21.69 11.12 29.2 20c9.84 11.68 13.96 26.49 13.96 26.49z" opacity=".2"/><path d="m45.44 375c.72-1.17.31-2.57.15-3.83a3.5 3.5 0 0 1 .5-2.4c-.47-.34-.93-.67-1.4-1a5 5 0 0 0 -.51 3.35c.21 1.43.56 3.21-1.36 3.48-2.08.28-5-1.58-6.64.48-.8 1-.5 2.28-.53 3.45a3.31 3.31 0 0 1 -.44 1.51c.22.47.45.93.68 1.4a4.29 4.29 0 0 0 .93-2.1c.17-1.44-.39-3.3 1.55-3.61 1.35-.21 2.64.41 4 .5a3.14 3.14 0 0 0 3.07-1.23zm-6.92-10.34a2.4 2.4 0 0 1 .55-.59l-1.07-.67c-.91 1.19-.9 2.83-1.82 4a2.11 2.11 0 0 1 -2.34.67 3.93 3.93 0 0 0 -2.58.08 3.72 3.72 0 0 0 -.52.3c.09.3.18.6.28.9a2.77 2.77 0 0 1 1.3-.36c.94 0 1.81.47 2.75.4a2.42 2.42 0 0 0 1.65-.84c.96-1.09 1.01-2.66 1.8-3.88zm13.73 16.6a6.07 6.07 0 0 0 1.88-3.19 20.76 20.76 0 0 0 .32-2.63l-1.17-1c-.25 1.46-.12 2.92-.87 4.29a3.86 3.86 0 0 1 -3.85 2 4.08 4.08 0 0 0 -3.32 1.06 6.21 6.21 0 0 0 -1.24 3.31c-.26 1.72-.52 3.32-2.12 4.29a5.19 5.19 0 0 1 -.86.41c.29.36.6.71.9 1.07a5 5 0 0 0 1.78-1.32c2.07-2.46.39-7.34 4.79-7.34a5.33 5.33 0 0 0 3.76-.94zm6.66 1.25a6.33 6.33 0 0 1 .94-1.3c-.35-.45-.71-.89-1.08-1.33a8 8 0 0 0 -2 3.89c-.38 1.58-.59 3.3-1.62 4.62s-2.79 1.24-4.21 2a6 6 0 0 0 -2.65 3.08 15.07 15.07 0 0 0 -.66 3.12c.43.37.87.73 1.31 1.08 0-.06 0-.13 0-.19.28-1.76.48-3.55 1.85-4.84s3.12-1.05 4.52-2c2.69-1.87 2.26-5.49 3.6-8.12zm5.37 5.16a9.75 9.75 0 0 0 -1 .93c-2.11 2.32-1.85 5.34-2.63 8.18a5 5 0 0 1 -2.65 3.55c-1.18.49-2.52 0-3.55.94l-.1.12q.91.53 1.86 1a5.91 5.91 0 0 1 1-.12 4.56 4.56 0 0 0 1.93-.46 5.5 5.5 0 0 0 2.36-2.57c1.28-2.67.71-5.9 2.31-8.43a7 7 0 0 1 1.34-1.55c-.24-.53-.55-1.05-.87-1.58z" fill="#516eb4"/><path d="m44.58 367.71c1.16 10.25 6.64 37.86 27.9 38.34 0 0-4.12-14.81-14-26.47-3.15-3.77-8.58-8.16-13.9-11.87z" opacity=".2"/><path d="m72.48 406.05c-9.74-1.42-18.11-7.59-22.41-25.95s-5-26.65-2-28.48c3.41-2.1 16.71 16.41 21 24.55 10.74 20.45 3.41 29.88 3.41 29.88z" fill="#516eb4"/><path d="m54.4 372.12c2.43.77 5.59 1.58 7.41-.82.89-1.17 1.14-2.76 1.76-4l-1.31-1.88c-1.07 1.73-1 4.29-2.92 5.28-1.41.74-3.09.26-4.52-.18a10.52 10.52 0 0 0 -4.47-.67 6.33 6.33 0 0 0 -2.34.82c.11.54.23 1.11.35 1.67a5.74 5.74 0 0 1 1-.46 7.5 7.5 0 0 1 5.04.24zm-2.88-9.5a3.84 3.84 0 0 0 2.27.43c1.47-.3 2.25-1.73 3-2.89a6.49 6.49 0 0 1 .75-1c-.3-.38-.61-.75-.91-1.11l-.19.19c-.92 1.12-1.7 3.39-3.41 3.42a10.55 10.55 0 0 1 -2.43-.66 5.76 5.76 0 0 0 -2.11 0 5.19 5.19 0 0 0 -1.94.74c0 .42.1.87.16 1.32a5.65 5.65 0 0 1 2.62-.8 5.33 5.33 0 0 1 2.19.36zm10.64 20.38c.93-1.36 1.6-2.9 3-3.89 1.6-1.15 3.22-1.08 5-.88-.33-.68-.67-1.37-1-2.07a8.22 8.22 0 0 0 -3.37.21 7.2 7.2 0 0 0 -3.79 2.74c-.84 1.17-1.41 2.61-2.49 3.6-2 1.81-4.67.22-6.88-.22a8 8 0 0 0 -2-.15c.17.64.35 1.27.53 1.88a8.28 8.28 0 0 1 2.57.39c3.32 1.03 6.21 1.64 8.43-1.61zm11.22 3.57a3.32 3.32 0 0 0 -.49.14 7.64 7.64 0 0 0 -3.3 2.48c-1 1.22-1.45 2.7-2.34 4a3.06 3.06 0 0 1 -3.88 1.29 6.57 6.57 0 0 0 -4.28-.32 7.11 7.11 0 0 0 -2.72 1.7c.34.49.68.95 1 1.4a5.85 5.85 0 0 1 2.1-1.22 4.71 4.71 0 0 1 3.35.42 5.26 5.26 0 0 0 6.9-2.1c.84-1.22 1.32-2.67 2.26-3.82a5.47 5.47 0 0 1 2.02-1.54c-.17-.8-.37-1.59-.62-2.41z" fill="#fff" opacity=".2"/><path d="m69.06 376.17c-.78-1.47-1.85-3.28-3.1-5.25-4.22 13-5.57 32 6.52 35.13 0 0 7.33-9.43-3.42-29.88z" opacity=".15"/><path d="m77.52 406.05c12.39.67 24-6.83 31.48-16.29s13.38-29 11.68-30.2-21.69 11.12-29.19 20c-9.85 11.68-13.97 26.49-13.97 26.49z" fill="#516eb4"/><path d="m77.52 406.05c12.39.67 24-6.83 31.48-16.29s13.38-29 11.68-30.2-21.69 11.12-29.19 20c-9.85 11.68-13.97 26.49-13.97 26.49z" opacity=".2"/><path d="m107.66 376.25c1.33-.09 2.62-.71 4-.5 1.94.31 1.38 2.17 1.56 3.61a4.19 4.19 0 0 0 .92 2.1l.69-1.4a3.33 3.33 0 0 1 -.45-1.51c0-1.17.28-2.45-.53-3.45-1.67-2.06-4.55-.2-6.64-.48-1.91-.27-1.57-2.05-1.36-3.48a5 5 0 0 0 -.51-3.35c-.47.32-.93.65-1.4 1a3.45 3.45 0 0 1 .5 2.4c-.15 1.26-.57 2.66.16 3.83a3.13 3.13 0 0 0 3.06 1.23zm5.68-7.68a2.39 2.39 0 0 0 1.64.84c.94.07 1.81-.43 2.75-.4a2.77 2.77 0 0 1 1.3.36c.1-.3.19-.6.29-.9a5.39 5.39 0 0 0 -.52-.3 3.93 3.93 0 0 0 -2.58-.08 2.11 2.11 0 0 1 -2.34-.67c-.92-1.19-.92-2.83-1.83-4l-1.12.68a2.22 2.22 0 0 1 .55.59c.79 1.2.84 2.77 1.86 3.88zm-11.84 13.64c4.4 0 2.72 4.88 4.8 7.34a4.85 4.85 0 0 0 1.78 1.32c.3-.36.6-.71.89-1.07a4.74 4.74 0 0 1 -.85-.41c-1.61-1-1.87-2.57-2.12-4.29a6.22 6.22 0 0 0 -1.24-3.33 4.07 4.07 0 0 0 -3.31-1.06 3.86 3.86 0 0 1 -3.86-2c-.75-1.37-.61-2.83-.87-4.29l-1.17 1a20.76 20.76 0 0 0 .32 2.63 6.07 6.07 0 0 0 1.88 3.19 5.33 5.33 0 0 0 3.75.97zm-6.86 8.44c1.4 1 3.2.8 4.51 2s1.58 3.08 1.86 4.84v.19c.44-.35.88-.71 1.31-1.08a15.07 15.07 0 0 0 -.66-3.12 6 6 0 0 0 -2.64-3.08c-1.43-.8-3.14-.65-4.22-2s-1.24-3-1.61-4.62a8.14 8.14 0 0 0 -2-3.89c-.37.44-.72.88-1.07 1.33a6.29 6.29 0 0 1 .93 1.3c1.38 2.63.95 6.25 3.59 8.13zm-9.84-1.4a6.72 6.72 0 0 1 1.34 1.55c1.6 2.53 1 5.76 2.32 8.43a5.48 5.48 0 0 0 2.35 2.57 4.64 4.64 0 0 0 1.93.46 5.8 5.8 0 0 1 1 .12q.95-.47 1.86-1l-.1-.12c-1-.93-2.36-.45-3.54-.94a5 5 0 0 1 -2.64-3.54c-.77-2.84-.51-5.86-2.63-8.18a8.81 8.81 0 0 0 -1-.93c-.29.54-.59 1.06-.89 1.58z" fill="#516eb4"/><path d="m105.43 367.71c-1.17 10.25-6.65 37.86-27.91 38.34 0 0 4.12-14.81 14-26.47 3.15-3.77 8.58-8.16 13.91-11.87z" opacity=".2"/><path d="m77.52 406.05c9.75-1.42 18.11-7.59 22.41-25.95s4.95-26.65 2-28.48c-3.41-2.1-16.71 16.41-21 24.55-10.73 20.45-3.41 29.88-3.41 29.88z" fill="#516eb4"/><path d="m100.67 371.88a6.23 6.23 0 0 1 1 .46c.11-.56.23-1.13.34-1.67a6.35 6.35 0 0 0 -2.33-.82 10.55 10.55 0 0 0 -4.48.67c-1.43.44-3.1.92-4.51.18-1.88-1-1.86-3.55-2.93-5.28-.44.63-.88 1.26-1.3 1.88.62 1.24.86 2.83 1.75 4 1.82 2.4 5 1.59 7.41.82a7.5 7.5 0 0 1 5.05-.24zm0-9.67a5.65 5.65 0 0 1 2.61.8c.06-.45.12-.9.17-1.32a5.3 5.3 0 0 0 -1.95-.74 5.7 5.7 0 0 0 -2.1 0 10.85 10.85 0 0 1 -2.43.71c-1.72 0-2.5-2.3-3.42-3.42l-.18-.19c-.31.36-.61.73-.92 1.11a5.89 5.89 0 0 1 .75 1c.75 1.16 1.53 2.59 3 2.89a3.79 3.79 0 0 0 2.26-.43 5.35 5.35 0 0 1 2.22-.41zm-4.42 22.4a8.18 8.18 0 0 1 2.56-.39c.18-.61.36-1.24.53-1.88a7.9 7.9 0 0 0 -1.94.15c-2.22.44-4.9 2-6.89.22-1.08-1-1.65-2.43-2.49-3.6a7.2 7.2 0 0 0 -3.72-2.72 8.2 8.2 0 0 0 -3.37-.21c-.37.7-.71 1.39-1 2.07 1.75-.2 3.36-.27 5 .88 1.37 1 2 2.53 3 3.89 2.13 3.23 5.07 2.62 8.33 1.59zm-20.25 4.39a5.59 5.59 0 0 1 2 1.54c.93 1.15 1.42 2.6 2.25 3.82a5.26 5.26 0 0 0 6.9 2.1 4.73 4.73 0 0 1 3.36-.42 5.81 5.81 0 0 1 2.09 1.22c.35-.45.69-.91 1-1.4a7 7 0 0 0 -2.72-1.7 6.58 6.58 0 0 0 -4.28.32 3.06 3.06 0 0 1 -3.88-1.29c-.89-1.25-1.39-2.73-2.34-4a7.52 7.52 0 0 0 -3.3-2.48 3 3 0 0 0 -.49-.14c-.21.84-.42 1.63-.59 2.43z" fill="#fff" opacity=".2"/><path d="m81 376.17c.77-1.47 1.84-3.28 3.1-5.25 4.21 13 5.57 32-6.53 35.13-.05 0-7.37-9.43 3.43-29.88z" opacity=".15"/><path d="m75 408.07c8.22 0 11-11.19 10.13-20.19s-6.51-26.14-10.13-26.14-9.31 17.13-10.13 26.14 1.91 20.19 10.13 20.19z" fill="#516eb4"/><path d="m75 408.07c8.22 0 11-11.19 10.13-20.19s-6.51-26.14-10.13-26.14-9.31 17.13-10.13 26.14 1.91 20.19 10.13 20.19z" fill="#fff" opacity=".3"/><path d="m75 373.46c1.31-.26 2.15-1.33 3.06-2.19a5.29 5.29 0 0 1 2.49-1.27c-.21-.53-.42-1.05-.63-1.55a7.69 7.69 0 0 0 -3.47 2.13 4.85 4.85 0 0 1 -1.72 1.29c-1 .35-1.6-.19-2.26-.84a5.38 5.38 0 0 0 -2.7-1.62h-.08c-.17.42-.34.86-.51 1.3a5.11 5.11 0 0 1 2.82 1.55 3.11 3.11 0 0 0 3 1.2zm-6.13 9.86c2.74 2.15 5-.9 6.75-2.71 1.47-1.51 3-1.82 4.68-.42a10.91 10.91 0 0 0 3.13 2.27 5.59 5.59 0 0 0 .94.23c-.11-.51-.22-1-.34-1.55a9.34 9.34 0 0 1 -3.33-2.23c-2.45-2-4.66-1.16-6.59 1.06-1.12 1.28-2.93 3.48-4.77 2.11-1.08-.81-1.59-2.19-2.72-3-.12.45-.23.9-.33 1.34.97.73 1.51 2.11 2.53 2.9zm3.07 9.86c1.55 2.05 3.49 2.56 5.59.8 1-.86 1.71-2.09 2.82-2.84 1.56-1.06 3.36-.51 5 .12 0-.49 0-1 0-1.46a10.76 10.76 0 0 0 -2.28-.71 4.57 4.57 0 0 0 -3.54.72c-1.17.82-1.88 2.11-3 3a2.81 2.81 0 0 1 -2.38.76c-.94-.35-1.5-1.52-2.19-2.22a6.65 6.65 0 0 0 -3.17-1.81 5.76 5.76 0 0 0 -3.94.39v1.4a5.79 5.79 0 0 1 7.04 1.85zm7.8 8.37a6.48 6.48 0 0 1 -4.64 1.4 3.74 3.74 0 0 1 -2.34-1c-.45-.47-.78-1.05-1.25-1.51a5.42 5.42 0 0 0 -3.09-1.53 6.06 6.06 0 0 0 -2.58.21c.14.51.3 1 .47 1.48a4.26 4.26 0 0 1 4.1.57c1 .73 1.46 1.93 2.51 2.62a6 6 0 0 0 3.2.83 7.36 7.36 0 0 0 3.41-.85c1.18-.62 2-1.69 3.17-2.35a4.77 4.77 0 0 1 .95-.43c.23-.6.43-1.22.61-1.86a5.62 5.62 0 0 0 -1.15.24 11.41 11.41 0 0 0 -3.42 2.18z" fill="#fff" opacity=".2"/></svg>