<svg viewBox="0 0 500 500" xmlns="http://www.w3.org/2000/svg"><ellipse cx="247" cy="366.15" fill="#fafafa" rx="231.26" ry="130.46"/><path d="m470.52 229.29-2.47 1.47-83.94-48.46 2.47-1.47z" fill="#fafafa"/><path d="m386.58 180.83 81.47 47.03v-142.01l-81.47-47.01z" fill="#fff"/><path d="m379.45 185 93.26 53.84v-155.68l-93.26-53.84zm4.66-147.6 83.94 48.46v144.9l-83.94-48.46z" fill="#f0f0f0"/><path d="m384.11 182.3 2.47-1.47v-141.99l-2.47-1.45z" fill="#e0e0e0"/><path d="m468.05 194.19v2.9l-83.94-48.46 2.47-1.47z" fill="#fafafa"/><path d="m468.05 111.26v2.9l-83.94-48.46 2.47-1.48z" fill="#fafafa"/><path d="m379.45 29.32 2.51-1.43 93.25 53.84-2.5 1.43z" fill="#fafafa"/><path d="m475.21 81.73-2.5 1.43v155.67l2.5-1.44z" fill="#e0e0e0"/><path d="m432.15 65.12-2.51-1.45v144.92l2.51-1.43z" fill="#e0e0e0"/><path d="m424.99 61 4.65 2.67v144.92l-4.65-2.69z" fill="#f0f0f0"/><path d="m379.45 63.01v5.37l93.26 53.84v-5.37z" fill="#f0f0f0"/><path d="m379.45 145.93v5.37l93.26 53.84v-5.37z" fill="#f0f0f0"/><path d="m429.64 91.98 2.51-1.45 35.9 20.73v2.9z" fill="#fafafa"/><path d="m429.64 174.89 2.51-1.45 35.9 20.72v2.9z" fill="#fafafa"/><path d="m53.39 406a.55.55 0 0 1 -.23-.39c-2-21.54-20.31-37.13-28.14-43.79-1.26-1.07-2.26-1.92-2.9-2.55-2.87-2.8-4.12-6.48-3.33-9.84a9.09 9.09 0 0 1 6.37-6.43c8.17-2.67 21 7.47 29.19 23.06 11.49 21.86 6.1 38 6 38.14a.53.53 0 0 1 -.37.34l-6.19 1.59a.41.41 0 0 1 -.22 0 .43.43 0 0 1 -.18-.13zm0-39.49c-8-15.15-20.22-25-27.92-22.55a8 8 0 0 0 -5.66 5.71 9.5 9.5 0 0 0 3 8.84c.62.6 1.61 1.44 2.85 2.5 7.86 6.68 26.14 22.23 28.45 43.88l5.3-1.36c.69-2.14 4.45-17.11-6-37z" fill="#516eb4"/><path d="m57.13 405.21h.07a.54.54 0 0 0 .55-.53c.46-25.16-17-49.41-28.68-54.4a.53.53 0 0 0 -.42 1c11.59 4.94 28.46 29.54 28 53.4a.53.53 0 0 0 .48.53z" fill="#516eb4"/><path d="m59.81 404.52a.6.6 0 0 0 .23 0l4.2-1.27a.59.59 0 0 0 .36-.35c.07-.24 7.48-24.29 2-56.67-2.78-16.5-12.4-32.59-22.87-38.27-5-2.72-10-3.06-14.7-1-2.68 1.16-4.35 2.88-5 5.09-1.74 6.13 4.62 15.25 11.36 24.91 4.71 6.76 9.58 13.74 11.81 19.91a.53.53 0 0 0 1-.36c-2.27-6.3-7.18-13.35-11.93-20.16-6.59-9.45-12.81-18.36-11.22-24 .55-1.92 2-3.36 4.37-4.41 4.41-1.92 9-1.59 13.77 1 10.21 5.53 19.6 21.3 22.33 37.5 5.1 30.3-1.12 53.18-1.91 55.9l-3.93 1.18a.54.54 0 0 0 -.35.67.53.53 0 0 0 .48.33z" fill="#516eb4"/><path d="m60.85 389.21a.54.54 0 0 0 .57-.49c3.17-38.93-18.55-70.1-25-75.45a.54.54 0 0 0 -.76.07.53.53 0 0 0 .07.75c6.33 5.27 27.73 36 24.6 74.54a.52.52 0 0 0 .52.58z" fill="#516eb4"/><path d="m23.59 95.25 1.77 1.02 44.17-25.51-1.77-1.02z" fill="#f0f0f0"/><path d="m67.76 69.74-42.4 24.48v-36.75l42.4-24.48z" fill="#fafafa"/><path d="m71.3 28.91-47.71 27.54v42.87l47.71-27.54zm-1.77 41.85-44.17 25.5v-38.79l44.17-25.47z" fill="#ebebeb"/><path d="m69.53 70.76-1.77-1.02v-36.75l1.77-1.02z" fill="#e0e0e0"/><path d="m71.3 28.91-1.77-1.02-47.71 27.54 1.77 1.02z" fill="#f5f5f5"/><path d="m21.82 55.43 1.77 1.02v42.88l-1.77-1.02z" fill="#e0e0e0"/><path d="m59.45 63.56c1.64-1 3-.18 3 1.72a6.6 6.6 0 0 1 -3 5.17c-1.65 1-3 .18-3-1.72a6.6 6.6 0 0 1 3-5.17z" fill="#e0e0e0"/><path d="m35.35 55.8 22.45-13c.63-.36 1.13-.07 1.13.65v.07a2.49 2.49 0 0 1 -1.13 2l-22.45 13c-.63.37-1.13.07-1.13-.65v-.07a2.47 2.47 0 0 1 1.13-2z" fill="#e0e0e0"/><path d="m31.79 66 29.56-17c.62-.36 1.13-.2 1.13.37a2.27 2.27 0 0 1 -1.13 1.63l-29.58 17.07c-.63.36-1.13.19-1.12-.38a2.32 2.32 0 0 1 1.14-1.69z" fill="#f0f0f0"/><path d="m31.79 70.09 29.56-17.09c.62-.36 1.13-.2 1.13.36a2.27 2.27 0 0 1 -1.13 1.68l-29.58 17.1c-.63.37-1.13.2-1.12-.37a2.32 2.32 0 0 1 1.14-1.68z" fill="#f0f0f0"/><path d="m31.79 74.17 29.56-17.07c.62-.36 1.13-.19 1.13.37a2.27 2.27 0 0 1 -1.13 1.67l-29.58 17.08c-.63.36-1.13.19-1.12-.37a2.32 2.32 0 0 1 1.14-1.68z" fill="#f0f0f0"/><path d="m54.14 72.29a1.57 1.57 0 0 1 -.74.19c-.63 0-.57-.64-.55-1.08 0-.21-.27-.51-.42-.25-.38.69-.87 1.33-1.28 2-.25.41-.73 1.34-1.34 1.21-.25-.06-.33-.33-.33-.67a3.33 3.33 0 0 0 .39-1.84c0-.19-.35-.43-.45-.17a6 6 0 0 0 -.38 1.7 11.32 11.32 0 0 1 -.95 1.42c-.21.27-.39.58-.62.83 0 .06-.16.22-.24.24s-.19-.09-.22-.23a1.63 1.63 0 0 1 .1-.61v-.05c0-.2-.26-.5-.37-.25a8.87 8.87 0 0 1 -1.74 2.9l-.11.09c0-.11 0-.23 0-.35a2.69 2.69 0 0 0 -.14-.8c0-.13-.27-.33-.39-.16a14 14 0 0 1 -2 2.72 4.13 4.13 0 0 1 -.41.29c-.14-.08.07-.8.1-.9.08-.33.19-.64.29-1a4 4 0 0 0 .24-.79c0-.24-.38-.61-.46-.29 0 .14-.15.46-.27.86a20.33 20.33 0 0 1 -1.66 2.81 6.39 6.39 0 0 1 -2.31 2.22c-.26.14-.75.35-1 .14s-.26-.57-.27-.83a7.09 7.09 0 0 1 .28-2 12.29 12.29 0 0 0 2.56-1.81 8.78 8.78 0 0 0 1.94-2.14c.26-.48.42-1.26-.22-1.53a1.77 1.77 0 0 0 -1.38.33 6 6 0 0 0 -1.41 1.1 8.13 8.13 0 0 0 -1.76 3.22c-.06.18-.13.43-.2.7a5.5 5.5 0 0 1 -3.26.55c-.06 0-.08.13 0 .14a5.33 5.33 0 0 0 3.18-.3c-.28 1.23-.44 2.86.71 3.18s2.54-1.12 3.16-2a13.48 13.48 0 0 0 1.23-2 .83.83 0 0 1 .11-.15c0 .57.11 1 .67.9s1.09-.91 1.4-1.34.57-.85.84-1.27c.05.51.15 1.1.64 1s.9-1 1.13-1.3.39-.61.56-.93a.62.62 0 0 0 .11.17c.41.44.9 0 1.16-.38s.8-1 1.15-1.57a1 1 0 0 0 .49.55c.63.3 1.23-.22 1.59-.69a13.87 13.87 0 0 0 1.19-1.91.88.88 0 0 0 .44.6 1.46 1.46 0 0 0 1.48-.09c.14-.06-.05-.49-.26-.38zm-13.83 2.47c.29-.15.9-.4.94.09a1.7 1.7 0 0 1 -.4.87 11.45 11.45 0 0 1 -1.72 1.83 14.49 14.49 0 0 1 -2.13 1.63 6.89 6.89 0 0 1 3.31-4.42z" fill="#e0e0e0"/><path d="m23.59 153.86 1.77 1.02 44.17-25.5-1.77-1.03z" fill="#f0f0f0"/><path d="m67.76 128.35-42.4 24.49v-36.76l42.4-24.48z" fill="#fafafa"/><path d="m71.3 87.52-47.71 27.54v42.88l47.71-27.55zm-1.77 41.85-44.17 25.51v-38.8l44.17-25.5z" fill="#ebebeb"/><path d="m69.53 129.38-1.77-1.03v-36.75l1.77-1.02z" fill="#e0e0e0"/><path d="m71.3 87.52-1.77-1.02-47.71 27.54 1.77 1.02z" fill="#f5f5f5"/><path d="m21.82 114.04 1.77 1.02v42.88l-1.77-1.02z" fill="#e0e0e0"/><path d="m59.45 122.18c1.64-1 3-.19 3 1.72a6.6 6.6 0 0 1 -3 5.16c-1.65.95-3 .18-3-1.72a6.58 6.58 0 0 1 3-5.16z" fill="#e0e0e0"/><path d="m35.35 114.41 22.45-13c.63-.36 1.13-.06 1.13.66v.06a2.49 2.49 0 0 1 -1.13 2l-22.45 13c-.63.36-1.13.07-1.13-.66v-.07a2.49 2.49 0 0 1 1.13-1.99z" fill="#e0e0e0"/><path d="m31.79 124.63 29.56-17.07c.62-.36 1.13-.19 1.13.37a2.27 2.27 0 0 1 -1.13 1.67l-29.58 17.08c-.63.36-1.13.19-1.12-.37a2.32 2.32 0 0 1 1.14-1.68z" fill="#f0f0f0"/><path d="m31.79 128.7 29.56-17.06c.62-.36 1.13-.2 1.13.37a2.27 2.27 0 0 1 -1.13 1.67l-29.58 17.08c-.63.36-1.13.19-1.12-.38a2.33 2.33 0 0 1 1.14-1.68z" fill="#f0f0f0"/><path d="m31.79 132.78 29.56-17.06c.62-.36 1.13-.2 1.13.36a2.27 2.27 0 0 1 -1.13 1.68l-29.58 17.07c-.63.36-1.13.2-1.12-.37a2.32 2.32 0 0 1 1.14-1.68z" fill="#f0f0f0"/><path d="m54.14 130.9a1.7 1.7 0 0 1 -.74.2c-.63 0-.57-.65-.55-1.09 0-.2-.27-.51-.42-.25-.38.7-.87 1.34-1.28 2-.25.41-.73 1.34-1.34 1.21-.25-.06-.33-.33-.33-.67a3.33 3.33 0 0 0 .39-1.84c0-.19-.35-.43-.45-.17a6 6 0 0 0 -.42 1.71 11.32 11.32 0 0 1 -.95 1.42c-.21.28-.39.58-.62.84 0 .06-.16.21-.24.23s-.19-.09-.22-.23a1.55 1.55 0 0 1 .1-.6s0 0 0-.05c0-.2-.26-.5-.37-.25a8.87 8.87 0 0 1 -1.7 2.88l-.11.1c0-.12 0-.24 0-.36a2.75 2.75 0 0 0 -.14-.8c0-.13-.27-.33-.39-.16a13.69 13.69 0 0 1 -2 2.72 2.93 2.93 0 0 1 -.36.26c-.14-.08.07-.79.1-.9.08-.32.19-.64.29-.95a4.15 4.15 0 0 0 .24-.78c0-.25-.38-.62-.46-.29 0 .13-.15.45-.27.85a19.76 19.76 0 0 1 -1.66 2.81 6.42 6.42 0 0 1 -2.36 2.26c-.26.14-.75.34-1 .14s-.26-.58-.27-.84a7.19 7.19 0 0 1 .28-2.05 12.29 12.29 0 0 0 2.56-1.81 8.78 8.78 0 0 0 1.94-2.14c.26-.48.42-1.26-.22-1.53-.44-.18-1 .13-1.38.34a6 6 0 0 0 -1.41 1.09 8.13 8.13 0 0 0 -1.76 3.22c-.06.19-.13.43-.2.71a5.5 5.5 0 0 1 -3.26.54c-.06 0-.08.13 0 .14a5.33 5.33 0 0 0 3.18-.3c-.28 1.23-.44 2.87.71 3.18s2.54-1.12 3.16-1.94a13.07 13.07 0 0 0 1.23-2l.11-.15c0 .58.11 1 .67.9s1.09-.9 1.4-1.34.57-.84.84-1.27c.05.51.15 1.1.64 1s.9-.95 1.13-1.3.39-.61.56-.93a.62.62 0 0 0 .11.17c.41.44.9 0 1.16-.38a19.26 19.26 0 0 0 1.15-1.57 1 1 0 0 0 .49.55c.63.3 1.23-.22 1.59-.69a13.3 13.3 0 0 0 1.19-1.91.92.92 0 0 0 .44.61 1.46 1.46 0 0 0 1.48-.1c.14-.12-.05-.54-.26-.44zm-13.83 2.47c.29-.15.9-.4.94.1a1.7 1.7 0 0 1 -.4.86 11 11 0 0 1 -1.72 1.83 14.56 14.56 0 0 1 -2.13 1.64 6.91 6.91 0 0 1 3.31-4.43z" fill="#e0e0e0"/><path d="m23.59 212.47 1.77 1.02 44.17-25.5-1.77-1.02z" fill="#f0f0f0"/><path d="m67.76 186.97-42.4 24.48v-36.76l42.4-24.48z" fill="#fafafa"/><path d="m71.3 146.13-47.71 27.55v42.87l47.71-27.55zm-1.77 41.87-44.17 25.5v-38.8l44.17-25.51z" fill="#ebebeb"/><path d="m69.53 187.99-1.77-1.02v-36.76l1.77-1.02z" fill="#e0e0e0"/><path d="m71.3 146.13-1.77-1.02-47.71 27.55 1.77 1.02z" fill="#f5f5f5"/><path d="m21.82 172.66 1.77 1.02v42.87l-1.77-1.02z" fill="#e0e0e0"/><path d="m59.45 180.79c1.64-.95 3-.18 3 1.72a6.63 6.63 0 0 1 -3 5.17c-1.65.95-3 .18-3-1.73a6.58 6.58 0 0 1 3-5.16z" fill="#e0e0e0"/><path d="m35.35 173 22.45-13c.63-.36 1.13-.07 1.13.65v.06a2.49 2.49 0 0 1 -1.13 2l-22.45 13c-.63.36-1.13.07-1.13-.65v-.06a2.49 2.49 0 0 1 1.13-2z" fill="#e0e0e0"/><path d="m31.79 183.24 29.56-17.06c.62-.36 1.13-.2 1.13.36a2.27 2.27 0 0 1 -1.13 1.68l-29.58 17.07c-.63.36-1.13.2-1.12-.37a2.32 2.32 0 0 1 1.14-1.68z" fill="#f0f0f0"/><path d="m31.79 187.32 29.56-17.07c.62-.36 1.13-.19 1.13.37a2.27 2.27 0 0 1 -1.13 1.67l-29.58 17.08c-.63.36-1.13.19-1.12-.37a2.32 2.32 0 0 1 1.14-1.68z" fill="#f0f0f0"/><path d="m31.79 191.39 29.56-17.06c.62-.36 1.13-.2 1.13.37a2.27 2.27 0 0 1 -1.13 1.67l-29.58 17.08c-.63.36-1.13.19-1.12-.38a2.33 2.33 0 0 1 1.14-1.68z" fill="#f0f0f0"/><path d="m54.14 189.51a1.7 1.7 0 0 1 -.74.2c-.63 0-.57-.65-.55-1.09 0-.2-.27-.51-.42-.24-.38.69-.87 1.33-1.28 2-.25.41-.73 1.34-1.34 1.21-.25-.05-.33-.32-.33-.66a3.39 3.39 0 0 0 .39-1.85c0-.19-.35-.42-.45-.16a5.88 5.88 0 0 0 -.38 1.69 10.63 10.63 0 0 1 -.95 1.42c-.21.28-.39.58-.62.84 0 .06-.16.22-.24.23s-.23-.1-.23-.23a1.58 1.58 0 0 1 .1-.6s0 0 0-.05c0-.2-.26-.5-.37-.25a8.66 8.66 0 0 1 -1.73 2.88l-.11.1c0-.12 0-.24 0-.36a2.75 2.75 0 0 0 -.14-.8c0-.13-.27-.33-.39-.15a14.29 14.29 0 0 1 -2 2.72 3.8 3.8 0 0 1 -.41.28c-.14-.07.07-.79.1-.9.08-.32.19-.63.29-1a4.15 4.15 0 0 0 .24-.78c0-.24-.38-.62-.46-.29 0 .13-.15.46-.27.86a20.22 20.22 0 0 1 -1.66 2.8 6.42 6.42 0 0 1 -2.31 2.23c-.26.14-.75.35-1 .14s-.26-.57-.27-.84a7.07 7.07 0 0 1 .28-2 13.08 13.08 0 0 0 2.56-1.81 9 9 0 0 0 1.94-2.15c.26-.47.42-1.25-.22-1.52-.44-.19-1 .12-1.38.33a6 6 0 0 0 -1.41 1.09 8.1 8.1 0 0 0 -1.8 3.2c-.06.18-.13.42-.2.7a5.5 5.5 0 0 1 -3.26.54c-.06 0-.08.13 0 .14a5.33 5.33 0 0 0 3.18-.3c-.28 1.24-.44 2.87.71 3.19s2.54-1.12 3.16-1.95a13.07 13.07 0 0 0 1.23-2 .76.76 0 0 1 .11-.14c0 .57.11 1 .67.89s1.09-.9 1.4-1.34.57-.84.84-1.27c.05.52.15 1.1.64 1s.9-.95 1.13-1.3.39-.61.56-.92a.57.57 0 0 0 .11.16c.41.44.9 0 1.16-.37.38-.5.8-1 1.15-1.58a1 1 0 0 0 .49.56c.63.29 1.23-.23 1.59-.7a13.3 13.3 0 0 0 1.19-1.91.88.88 0 0 0 .44.61 1.43 1.43 0 0 0 1.48-.1c.18-.08-.01-.5-.22-.4zm-13.83 2.49c.29-.15.9-.4.94.1a1.7 1.7 0 0 1 -.4.86 10.66 10.66 0 0 1 -1.72 1.83 14.56 14.56 0 0 1 -2.13 1.62 6.91 6.91 0 0 1 3.31-4.41z" fill="#e0e0e0"/><path d="m299.22 423 70.68 40.8a8.39 8.39 0 0 0 7.59 0l38.66-22.32c2.09-1.21 2.09-3.17 0-4.38l-70.68-40.81a8.39 8.39 0 0 0 -7.59 0l-38.66 22.33c-2.09 1.21-2.09 3.17 0 4.38z" fill="#e0e0e0"/><path d="m229.38 412.11c17.09 9.87 44.81 9.87 61.9 0s17.09-25.87 0-35.74-44.81-9.87-61.9 0-17.09 25.87 0 35.74z" fill="#e0e0e0"/><path d="m63.1 458.1c29.26 16.89 76.7 16.89 106 0s29.26-44.28 0-61.18-76.7-16.89-106 0-29.26 44.29 0 61.18z" fill="#e0e0e0"/><path d="m442.54 440.07-194.44-112.26c-2.4-1.38-2.4-3.62 0-5l15.71-9.08a9.57 9.57 0 0 1 8.66 0l194.44 112.27c2.39 1.38 2.39 3.61 0 5l-15.71 9.07a9.57 9.57 0 0 1 -8.66 0z" fill="#e6e6e6"/><path d="m205.56 324.95 11.32-15.98-10.3-16.03-11.28-6.51-2.48 3.5-9.35-5.42-19.44 11.23v18.59l-11.82-3.02-10.3 27.93 11.33 6.52-11.33 15.98 10.3 16.03 11.28 6.52 2.47-3.49 9.36 5.4 19.44-11.23v-18.59l11.82 3.02 10.3-27.92z" fill="#516eb4"/><path d="m205.56 324.95 11.32-15.98-10.3-16.03-11.28-6.51-2.48 3.5-9.35-5.42-19.44 11.23v18.59l-11.82-3.02-10.3 27.93 11.33 6.52-11.33 15.98 10.3 16.03 11.28 6.52 2.47-3.49 9.36 5.4 19.44-11.23v-18.59l11.82 3.02 10.3-27.92z" fill="#fff" opacity=".8"/><path d="m192.82 289.93 1.94 1.1v18.59l11.82-16.68-11.28-6.51z" fill="#516eb4" opacity=".5"/><path d="m152.21 311.31 11.28 6.51 11.83 3.02-11.29-6.51z" fill="#516eb4" opacity=".3"/><path d="m164.03 295.74 11.29 6.51v18.59l-11.29-6.51z" fill="#516eb4" opacity=".5"/><path d="m152.21 311.31 11.28 6.51-10.3 27.93-11.28-6.51z" fill="#516eb4" opacity=".5"/><path d="m166.69 349.2-13.5-3.45-11.28 15.99 11.28 6.51z" fill="#516eb4" opacity=".5"/><path d="m141.91 361.74 11.28 6.51 10.3 16.04-11.28-6.52z" fill="#516eb4" opacity=".65"/><path d="m175.32 386.2-9.36-5.4 9.36-13.2z" fill="#516eb4" opacity=".65"/><path d="m216.88 331.48-13.5-3.46 2.18-3.07z" fill="#516eb4" opacity=".5"/><path d="m198.62 328.6 14.28-20.15-7.42-11.55-12.25 17.27-1.88-1.09v-18.05l-14.51 8.37v20.23l-12.86-3.29-8.48 22.99 12.19 3.12 1.88 1.09-14.28 20.15 7.43 11.55 12.24-17.27 1.88 1.08v18.06l14.51-8.37v-20.23l12.87 3.29 8.48-22.99-12.2-3.13z" fill="#fafafa"/><path d="m175 362-12.24 17.27 1.26 2 12.86-18.15zm29.26-6.17-12.87-3.29v20.23l-14.51 8.37v2.17l16.39-9.46v-20.26l12.87 3.29 8.68-23.54-2.08-.54zm-3.72-26.12 14.28-20.14-8.72-13.57-.62.88 7.42 11.55-14.28 20.17zm-7.27-35.74-1.92 1.03v18.06l1.88 1.08zm-25.54 52.52-12.19-3.13-.21.56 14.28 3.65z" fill="#516eb4"/><path d="m175 362-12.24 17.27 1.26 2 12.86-18.15zm29.26-6.17-12.87-3.29v20.23l-14.51 8.37v2.17l16.39-9.46v-20.26l12.87 3.29 8.68-23.54-2.08-.54zm-3.72-26.12 14.28-20.14-8.72-13.57-.62.88 7.42 11.55-14.28 20.17zm-7.27-35.74-1.92 1.03v18.06l1.88 1.08zm-25.54 52.52-12.19-3.13-.21.56 14.28 3.65z" fill="#fff" opacity=".7"/><path d="m191.35 372.74 1.88 1.08v-20.23l-1.88-1.08z" fill="#516eb4" opacity=".35"/><path d="m204.22 355.8 1.88 1.08 8.68-23.54-2.08-.53z" fill="#516eb4" opacity=".35"/><path d="m176.84 363.05-1.88-1.08-12.24 17.27 1.26 1.96z" fill="#516eb4" opacity=".35"/><path d="m212.9 308.45 1.88 1.09-8.68-13.52-.62.88z" fill="#516eb4" opacity=".35"/><path d="m193.23 314.17-1.88-1.09v-18.05l1.88-1.09z" fill="#516eb4" opacity=".35"/><path d="m169.57 347.54-1.88-1.09-12.19-3.12-.21.56z" fill="#516eb4" opacity=".35"/><path d="m184 369.9h.11l-.06 4.72z" fill="#455a64"/><path d="m184.26 355.85v4.74 2.82 4.74h-.14v-4.35-2.81l-.05-5.16z" fill="#455a64"/><path d="m184.48 335.7-.08 6.76-.11 10.31-.48-.12-.06-5.95v-3.43l-.08-7.43.62-.1z" fill="#455a64"/><path d="m185.86 311.66a4.59 4.59 0 0 1 -1.16 2.91l-.07 6.95v3l-.08 7.4h-.93l-.07-6.38-.06-4.92-.05-5.32c-.68 0-1.16-.56-1.16-1.58a4.35 4.35 0 0 1 1.8-3.45c.97-.55 1.78.06 1.78 1.39z" fill="#455a64"/><path d="m189.67 317.92a8.6 8.6 0 0 0 -4.6 2v3.65a17.18 17.18 0 0 1 4-2.36s-.2 1.09.28 1.3a4.24 4.24 0 0 0 3.51-.51c.93-.89.26-4-3.19-4.08zm1.1 2.7c-.23.12-.41 0-.41-.31a1 1 0 0 1 .41-.77c.22-.13.4 0 .4.31a1 1 0 0 1 -.4.77zm-5.83 11.87h-.43c-.31 0-.62 0-.91 0h-.44c-1.27 0-2.2-.42-2.2-1.82a8.17 8.17 0 0 1 2.12-5.29v-3.8c-2.76 2.72-5.08 6.42-5.08 10.29s2.6 3.84 5.22 3.44l.43-.06.86-.15.43-.08c2-.33 3.63-.49 3.63 1.19 0 1.91-1.77 4.08-3.71 6.38v2.22c2.49-2.94 5.35-6.2 5.35-9.53s-2.79-2.97-5.27-2.79zm-.23 21-.43-.09-.46-.1-.43-.11c-1.22-.33-2.23-.86-2.23-2.34 0-1.26.91-2.7 2.16-4.28v-2.19c-1.88 2.29-3.54 4.66-3.54 7 0 2.86 1.89 3.34 3.66 3.63l.43.07.42.07.43.08c1 .22 1.75.57 1.75 1.63 0 1.33-.84 2.54-1.81 3.79v1.52c1.39-1.73 3-3.57 3-6.26-.08-1.66-1.47-2.06-2.95-2.39zm-.17 15.34a2.85 2.85 0 0 1 -.42 0 .5.5 0 0 1 -.13 0 1.31 1.31 0 0 1 -.43-.16c-.58-.3-1-.95-1-2.23a5 5 0 0 1 .9-2.68v-1.54a7.29 7.29 0 0 0 -1.73 4.33c0 1.65.74 2.56 1.8 2.74a3.15 3.15 0 0 0 .44 0h.11l.43-.06a4.34 4.34 0 0 0 1.29-.5 6.44 6.44 0 0 1 -1.26.13z" fill="#455a64"/><path d="m175.32 302.25 19.44-11.22-11.29-6.52-19.44 11.23z" fill="#516eb4" opacity=".2"/><path d="m440.84 430.36 3.72-2.14a4.71 4.71 0 0 0 2.12-3.68v-298.13a4.71 4.71 0 0 0 -2.12-3.68l-171.07-98.73a4.66 4.66 0 0 0 -4.24 0l-3.73 2.15a4.68 4.68 0 0 0 -2.12 3.67v298.1a4.7 4.7 0 0 0 2.12 3.68l171.07 98.76a4.68 4.68 0 0 0 4.25 0z" fill="#516eb4"/><path d="m440.84 430.36 3.72-2.14a4.71 4.71 0 0 0 2.12-3.68v-298.13a4.71 4.71 0 0 0 -2.12-3.68l-171.07-98.73a4.66 4.66 0 0 0 -4.24 0l-3.73 2.15a4.68 4.68 0 0 0 -2.12 3.67v298.1a4.7 4.7 0 0 0 2.12 3.68l171.07 98.76a4.68 4.68 0 0 0 4.25 0z" opacity=".3"/><path d="m263.42 29.45c.15-1.1 1-1.5 2.1-.88l171.07 98.76a4.31 4.31 0 0 1 1.5 1.58l8-4.6a4.39 4.39 0 0 0 -1.5-1.58l-171.09-98.73a4.68 4.68 0 0 0 -4.25 0l-3.73 2.14a4.77 4.77 0 0 0 -2.1 3.31z" fill="#516eb4" opacity=".4"/><path d="m437 430.53a.35.35 0 0 0 .13.05l.22.08h.08l.4.1a4.81 4.81 0 0 0 2.53-.21c.16-.06.32-.14.47-.21l3.72-2.15a4.73 4.73 0 0 0 2.12-3.68v-298.1a4.31 4.31 0 0 0 -.62-2.1l-8 4.6a4.32 4.32 0 0 1 .63 2.1v298.13a1.76 1.76 0 0 1 -.33 1.12 1.1 1.1 0 0 1 -1.13.36z" opacity=".15"/><path d="m315.22 80.68 71.7 41.4 4-2.3v-11.06c0-1.4-.22-3.22-5.6-10.64s-5.53-10-8-13.34-6.9-5.87-10.06-13.74-3.45-20-12.21-25a7.84 7.84 0 0 0 -3.84-1.24 3.94 3.94 0 0 0 -2 .55l-3.66 2.11-.33.19 1.05 1.55c-1.21 2.66-2 5.88-3.39 7.71a5.61 5.61 0 0 1 -4.07 2.42c-2.25.26-4.5-.62-6-.25a4.12 4.12 0 0 0 -1 .42l-4 2.3.27.33a16.14 16.14 0 0 1 -1.56.64c-.48.15-1 .31-1.64.45a13.19 13.19 0 0 0 -4.12 1.46l-3.53 2-.32.19zm65.67 25.21c0-1.44.75-2.17 1.68-1.63a4.5 4.5 0 0 1 1.7 3.59c0 1.44-.77 2.15-1.7 1.62a4.45 4.45 0 0 1 -1.68-3.58zm-36.2-41c0-4.63 2.06-7.3 4.85-6.76a3.59 3.59 0 0 1 5.51-1.68c3.53 2 6.39 8.09 6.39 13.52 0 4.61-2.07 7.3-4.84 6.76-1.11 2.28-3.17 3.05-5.52 1.69-3.54-2.03-6.39-8.08-6.39-13.52zm-19.12 9.11c0-1.45.76-2.17 1.7-1.63a4.47 4.47 0 0 1 1.73 3.55c0 1.43-.76 2.16-1.69 1.62a4.44 4.44 0 0 1 -1.74-3.54z" fill="#455a64"/><path d="m382.94 111.45 7.71-4.45a5.61 5.61 0 0 1 .25 1.72v11.06l-4 2.3-4-2.3z" fill="#37474f" opacity=".5"/><path d="m375 97.65-4-9.2 6.33-3.71c1.86 2.57 2.4 4.65 4.9 8.73z" fill="#37474f" opacity=".5"/><path d="m359 79.25-.52-2.68c1.76-.74 2.93-3.12 2.93-6.59 0-4.61-2.06-9.66-4.85-12.33l5.52-3.19c2.36 5.36 3.23 11.69 5.15 16.5.41 1 .84 1.94 1.28 2.8z" fill="#37474f" opacity=".5"/><path d="m315.22 69.62v11.06l71.7 41.4v-11.08c0-1.4-.21-3.21-5.59-10.64s-5.54-9.94-8-13.34-6.89-5.86-10-13.78-3.45-19.91-12.21-25c-2.43-1.4-4.2-1.51-5.57-.88l-.33.19c-3.3 1.95-4.11 8.58-6.32 11.56a1.25 1.25 0 0 0 -.09.12c-3.16 4.09-7.56 1.46-10 2a4 4 0 0 0 -1.07.43 8.06 8.06 0 0 0 -1.29 1 11.52 11.52 0 0 1 -5.61 2.74 16.05 16.05 0 0 0 -3.68 1.2l-.32.19a2.79 2.79 0 0 0 -1.62 2.83zm61.69 38.57c0-1.44.75-2.18 1.69-1.64a4.51 4.51 0 0 1 1.69 3.59c0 1.44-.76 2.17-1.69 1.63a4.46 4.46 0 0 1 -1.69-3.58zm-32.22-43.29c0-4.63 2.06-7.3 4.85-6.76a5.36 5.36 0 0 1 1.54.61c3.53 2 6.39 8.1 6.39 13.53a10.2 10.2 0 0 1 -.87 4.46c-1.11 2.28-3.17 3.05-5.52 1.69-3.54-2.04-6.39-8.09-6.39-13.53zm-23.09 11.36c0-1.44.76-2.17 1.69-1.63a4.44 4.44 0 0 1 1.71 3.58c0 1.44-.75 2.16-1.69 1.62a4.46 4.46 0 0 1 -1.71-3.57z" fill="#37474f"/><path d="m344.69 64.9c0 5.44 2.85 11.49 6.39 13.53 2.35 1.36 4.41.59 5.52-1.69a4.89 4.89 0 0 1 -1.55-.61c-3.53-2-6.39-8.09-6.39-13.52a10.21 10.21 0 0 1 .88-4.47c-2.79-.54-4.85 2.13-4.85 6.76z" fill="#263238"/><path d="m378.6 111.77c.93.53 1.69-.19 1.69-1.63a4.51 4.51 0 0 0 -1.69-3.59c-.94-.53-1.69.2-1.69 1.64a4.44 4.44 0 0 0 1.69 3.58" fill="#263238"/><path d="m323.29 79.84c.94.54 1.7-.19 1.7-1.62a4.47 4.47 0 0 0 -1.7-3.59c-.93-.54-1.69.2-1.69 1.63a4.47 4.47 0 0 0 1.69 3.58" fill="#263238"/><path d="m425.49 145.22-148.86-85.94a2.8 2.8 0 0 0 -2.55 0l-1.43.83a2.81 2.81 0 0 0 -1.28 2.21v257.38a2.82 2.82 0 0 0 1.28 2.21l148.85 85.94a2.8 2.8 0 0 0 2.55 0l1.44-.83a2.84 2.84 0 0 0 1.27-2.21v-257.38a2.84 2.84 0 0 0 -1.27-2.21z" fill="#f5f5f5"/><path d="m421.81 408a1.71 1.71 0 0 0 .47.12h.24a3.4 3.4 0 0 0 .78 0 1.8 1.8 0 0 0 .47-.12l.28-.14 1.44-.82a2.85 2.85 0 0 0 1.27-2.21v-257.39a2.61 2.61 0 0 0 -.37-1.26l-4 2.3a2.72 2.72 0 0 1 .37 1.25v257.38c.02.7-.39 1.04-.95.89z" fill="#e0e0e0"/><path d="m272.65 60.11 1.43-.83a2.8 2.8 0 0 1 2.55 0l148.86 85.94a2.84 2.84 0 0 1 1.27 2.21v42.44l-4 2.31-151.39-87.41v-42.45a2.81 2.81 0 0 1 1.28-2.21z" fill="#516eb4"/><path d="m272.65 60.11 1.43-.83a2.8 2.8 0 0 1 2.55 0l148.86 85.94a2.84 2.84 0 0 1 1.27 2.21v42.44l-4 2.31-151.39-87.41v-42.45a2.81 2.81 0 0 1 1.28-2.21z" fill="#fff" opacity=".4"/><path d="m271.42 61.93c.16-.52.65-.69 1.22-.35l148.86 85.94a2.6 2.6 0 0 1 .91.95l4-2.29a2.5 2.5 0 0 0 -.9-1l-148.88-85.9a2.78 2.78 0 0 0 -2.54 0l-1.45.83a2.86 2.86 0 0 0 -1.22 1.82z" fill="#516eb4"/><path d="m271.42 61.93c.16-.52.65-.69 1.22-.35l148.86 85.94a2.6 2.6 0 0 1 .91.95l4-2.29a2.5 2.5 0 0 0 -.9-1l-148.88-85.9a2.78 2.78 0 0 0 -2.54 0l-1.45.83a2.86 2.86 0 0 0 -1.22 1.82z" fill="#fff" opacity=".6"/><path d="m426.76 147.43v42.45l-4 2.3v-42.45a2.79 2.79 0 0 0 -.37-1.26l4-2.29a2.54 2.54 0 0 1 .37 1.25z" fill="#516eb4"/><path d="m315.74 181.69 7.61-11.48-5.72-3.3-5 7.69-5.84-16.34a3.88 3.88 0 0 0 2.53-2.33 12 12 0 0 0 .93-5 18.49 18.49 0 0 0 -9.37-16.16l-7.25-4.19v31.92l4.72 2.73v-10.15l3.15 1.82 8 20.73-7.84 12 5.85 3.38 5.16-8 4.86 13.82 6.08 3.51zm-17.38-32.69v-9.63l3.38 2a6.25 6.25 0 0 1 2.89 3.25 10.77 10.77 0 0 1 .75 3.75 3.92 3.92 0 0 1 -.88 2.72q-.87 1-2.79-.12z" fill="#516eb4"/><g fill="#e0e0e0"><path d="m411.44 212.03-65.19-37.64v-13.42l65.19 37.63z"/><path d="m411.44 226.42-65.19-37.64a3.1 3.1 0 0 1 -1.18-2.5c0-1 .53-1.51 1.18-1.14l65.19 37.64a3.13 3.13 0 0 1 1.18 2.5c0 1.01-.53 1.52-1.18 1.14z"/><path d="m411.44 238.69-65.19-37.64a3.13 3.13 0 0 1 -1.18-2.5c0-1 .53-1.52 1.18-1.14l65.19 37.64a3.13 3.13 0 0 1 1.18 2.5c0 1.01-.53 1.51-1.18 1.14z"/><path d="m411.44 251-65.19-37.64a3.1 3.1 0 0 1 -1.18-2.5c0-1 .53-1.51 1.18-1.13l65.19 37.63a3.14 3.14 0 0 1 1.18 2.51c0 .95-.53 1.46-1.18 1.13z"/><path d="m411.44 276.38-125.38-72.38a3.14 3.14 0 0 1 -1.18-2.51c0-1 .53-1.51 1.18-1.13l125.38 72.38a3.13 3.13 0 0 1 1.18 2.5c0 1.01-.53 1.52-1.18 1.14z"/><path d="m411.44 291.74-125.38-72.38a3.14 3.14 0 0 1 -1.18-2.51c0-1 .53-1.51 1.18-1.13l125.38 72.38a3.13 3.13 0 0 1 1.18 2.5c0 1.01-.53 1.52-1.18 1.14z"/><path d="m411.44 307.1-125.38-72.38a3.14 3.14 0 0 1 -1.18-2.51c0-1 .53-1.51 1.18-1.13l125.38 72.38a3.14 3.14 0 0 1 1.18 2.51c0 1.03-.53 1.51-1.18 1.13z"/><path d="m411.44 322.46-125.38-72.38a3.14 3.14 0 0 1 -1.18-2.51c0-1 .53-1.51 1.18-1.13l125.38 72.38a3.14 3.14 0 0 1 1.18 2.51c0 1-.53 1.51-1.18 1.13z"/></g><path d="m411.44 357.25-125.38-72.39a1 1 0 0 1 -.39-.83c0-.33.18-.5.39-.38l125.38 72.35a1 1 0 0 1 .39.83c0 .38-.17.55-.39.42z" fill="#516eb4"/><path d="m294.93 322.54c-4.52-2.62-8.21-10.41-8.21-17.38s3.69-10.51 8.21-7.9 8.21 10.41 8.21 17.38-3.68 10.51-8.21 7.9zm0-24.07c-4.09-2.36-7.42.85-7.42 7.14s3.33 13.35 7.42 15.71 7.42-.84 7.42-7.14-3.35-13.34-7.42-15.71z" fill="#455a64"/><path d="m300.63 313.19c0 4.84-2.55 7.3-5.7 5.48s-5.7-7.22-5.7-12.06 2.56-7.3 5.7-5.48 5.7 7.21 5.7 12.06z" fill="#455a64"/><path d="m351.48 337.01-39.91-23.04v-3.26l39.91 23.04z" fill="#e0e0e0"/><path d="m351.48 344.17-39.91-23.04v-3.26l39.91 23.04z" fill="#e0e0e0"/><path d="m351.48 351.33-39.91-23.04v-3.25l39.91 23.04z" fill="#e0e0e0"/><path d="m408.15 379.77c-.12.64-.68.5-1.08.05a7.14 7.14 0 0 1 -.94-1.71 36.8 36.8 0 0 1 -1.28-3.47 33.91 33.91 0 0 1 -1.28-6.14c0-.45-.08-.89-.13-1.34-.09-.75-.95-1.37-.89-.53 0 .47.08.94.13 1.42a27 27 0 0 1 -.08 5.34 10.94 10.94 0 0 1 -1.51 5c-.36.46-.86.85-1.45.62s-1.28-1.45-1.71-2.48a33 33 0 0 1 -1.28-3.7 6.27 6.27 0 0 0 .37-.68 23.55 23.55 0 0 0 1.71-7.23c.22-2.15.47-5.26-1.11-7.45-3.35-4.64-3.28 6.16-3 8.92a38.55 38.55 0 0 0 1.07 5.8 2.49 2.49 0 0 1 -.55.53c-.54.35-1.18.33-1.84-.43a4.06 4.06 0 0 1 -1-2.34l.06-.62c0-.55-.7-1.32-.8-.78v.14c0 .17 0 .34-.05.51a20.12 20.12 0 0 1 -.76-2.76c-.09-.49-.66-1.06-.81-.65l-.9 2.51a12.56 12.56 0 0 1 -.28-4.43c.08-.64-.75-1.47-.9-.9a9.37 9.37 0 0 1 -1.37 3.37 1.46 1.46 0 0 1 -2.37-.05l-.11-.13c.26-.38.51-.79.74-1.21a6.28 6.28 0 0 0 1.19-4.43c-.32-1.79-1.55-3.15-2.38-2.48-1.29 1-2 4.61-.82 7.52-1 1.26-2.31 2.06-3.92 1.51s-3.4-2.5-4.1-5.36a12.84 12.84 0 0 1 -.38-3.36 8.85 8.85 0 0 0 2.39.73 5.12 5.12 0 0 0 5.55-2.83 5.34 5.34 0 0 0 .31-4.66 4.53 4.53 0 0 0 -3-3c-2.24-.4-4.15 1.52-5.2 4a13.53 13.53 0 0 0 -1 4.12 26.82 26.82 0 0 1 -5.06-3.54c-.47-.4-.53.46-.1.87a28.09 28.09 0 0 0 5.11 3.87 14.62 14.62 0 0 0 .64 4.53c1.07 3.53 3.46 5.79 5.46 6.24 1.64.37 3-.44 4-1.73 1 1.32 2.21 1.69 3.1 1.25a3.17 3.17 0 0 0 1.31-1.58 17.58 17.58 0 0 0 .84 3.38c.15.44.65.82.78.45l.85-2.43a21.19 21.19 0 0 0 1.14 3.09c.12.24.39.47.56.44a5.85 5.85 0 0 0 1.67 2.26 1.65 1.65 0 0 0 2.39-.17c.07.22.12.44.19.65.76 2.3 1.89 5.36 3.51 6 1.82.77 2.79-1.74 3.29-3.81a22.51 22.51 0 0 0 .51-3.45c.29 1.12.63 2.24 1 3.34a16.26 16.26 0 0 0 2 4.25c.8 1 1.77 1.21 2 0 .17-.48-.35-1.29-.43-.85zm-32.94-26c.82-2.09 2.23-3.57 3.92-3.83.83-.13 2 .18 2.65 1.88a4 4 0 0 1 -.66 3.71c-1.65 2.5-4.1 2.6-6.71 1.54a13 13 0 0 1 .8-3.26zm8.52 6.26c.18-.34.56-1.14 1-.64a2.79 2.79 0 0 1 .16 2.29 13.1 13.1 0 0 1 -1.56 3.06 7.25 7.25 0 0 1 .4-4.67zm12.27 10.27a26.35 26.35 0 0 1 -.09-11.72c.21-.76.61-1.32 1.28-.47a5.74 5.74 0 0 1 .85 3.31 26.78 26.78 0 0 1 -.73 6.48 17.19 17.19 0 0 1 -1.07 3.41c-.07-.31-.16-.67-.24-1.01z" fill="#455a64"/><path d="m303.89 86.37s1.43 5.54 1.92 8.51 0 0 0 0a1.92 1.92 0 0 0 .78 1.2l85.91 49.55 1.6.91s0 0 0 0a.12.12 0 0 0 .13 0c.13-.08.19-.28.14-.56 0 0 0 0 0-.06-1.5-8.11-3.71-14.66-11.52-21.16l-12.49-9.36s-3.34-3.15-3.91-6.42l-.78-4.38-1.45-8.56s-.21-2.52-3.32-5.56-8.46-11.23-9.4-16.56c-1.49-8.46-7.6-17.88-13.66-21.05a8 8 0 0 0 -3.65-1 4.23 4.23 0 0 0 -2.19.56l-3.86 2.21-.17.1c0 .5-.74 16.74-3.26 16.8a2.74 2.74 0 0 0 -.43 0 1.72 1.72 0 0 0 -.65.23l-3.89 2.25-.09.05 5.19 11.47c.58 3.26-1.3 3.58-2.23 3.2l-1.73-.69c-2.39-1-4.39-1.93-9-4a4.31 4.31 0 0 0 -4-.11l-4 2.29zm29.84-26.37a3.23 3.23 0 0 1 1.65-2.25c.89-.41 11.84 18.37 10.64 19.32a2.93 2.93 0 0 1 -2.81.36c-.63 2.36-2.5 3.2-5.07 1.85-3.73-2-7.48-7.75-8.4-12.94-.82-4.66.92-7.26 3.99-6.34z" fill="#455a64"/><path d="m382 134 6.26-3.61c3.64 4.78 5.09 9.81 6.17 15.64v.06c0 .28 0 .48-.14.56a.12.12 0 0 1 -.13 0s0 0 0 0l-4.94-3.91z" fill="#37474f" opacity=".5"/><path d="m366.89 110.46-8.82 5.09-3-17.9 7.93-4.59a7.56 7.56 0 0 1 1.25 3l1.45 8.56.78 4.38a7.38 7.38 0 0 0 .41 1.46z" fill="#37474f" opacity=".5"/><path d="m347.34 63a34.33 34.33 0 0 1 4.19 11 27.32 27.32 0 0 0 3.12 7.8l-7.57 4.37-3.77-8.69a2.91 2.91 0 0 0 2.71-.38c.62-.49-2-5.69-4.76-10.57z" fill="#37474f" opacity=".5"/><path d="m301.47 92.07s3.48 3.29 3.69 3.41 1.21.68 1.21.68l86.15 49.53 1.6.91c-.3-.3-5-3.93-5-3.93a30 30 0 0 0 -10.27-15.54l-12.47-9.36s-3.36-3.16-3.93-6.43l-.77-4.37-1.45-8.57s-.21-2.51-3.32-5.55-8.46-11.23-9.41-16.57c-1.49-8.45-7.6-17.87-13.65-21.05-2.29-1.2-4.26-1.33-5.72-.56l-.17.11c-2.27 1.33-3.26 4.91-2.36 10a8.93 8.93 0 0 1 -1.33 6.81 4.87 4.87 0 0 1 -3.55 2.27 2.39 2.39 0 0 0 -1 .21l-.09.05c-1.25.71-.76 2.58-.76 2.58l1.19 6.82.78 4.37v.21c.48 3.07-1.34 3.36-2.24 3-3.37-1.34-5.08-2.16-10.76-4.66a4.31 4.31 0 0 0 -4-.13h-.06c-1.34.92-2.16 2.93-2.31 5.76zm32.26-32.07a6.13 6.13 0 0 1 1.08.46c3.73 1.94 7.49 7.74 8.41 12.94a10 10 0 0 1 0 4c-.63 2.36-2.5 3.2-5.07 1.85-3.73-2-7.48-7.75-8.4-12.94-.83-4.63.91-7.23 3.98-6.31z" fill="#37474f"/><path d="m329.74 66.35c.92 5.19 4.67 11 8.4 12.94 2.57 1.35 4.44.51 5.07-1.85a7.9 7.9 0 0 1 -1.09-.45c-3.73-1.95-7.48-7.75-8.4-12.95a9.82 9.82 0 0 1 0-4c-3.06-.96-4.8 1.64-3.98 6.31z" fill="#263238"/><path d="m333.34 60.23h.34a6.16 6.16 0 0 1 1 .44c3.65 1.9 7.37 7.63 8.28 12.76a9.74 9.74 0 0 1 0 3.89 3.84 3.84 0 0 1 -2.6 1.66c-1.6 0-7.37-5.83-8.27-8.32-.63-1.79-2.11-7.39-.57-9.58a2.05 2.05 0 0 1 1.8-.87m0-.24c-4.4 0-2.37 8.22-1.46 10.77s6.75 8.49 8.47 8.49a4.17 4.17 0 0 0 2.82-1.81 10 10 0 0 0 0-4c-.92-5.2-4.68-11-8.41-12.94a6.13 6.13 0 0 0 -1.08-.46 2.61 2.61 0 0 0 -.39 0z" fill="#263238"/><path d="m394.13 146.61-87.76-50.45-1.21-.67c-.21-.13-3.68-3.42-3.68-3.42l87.68 50.61s5.32 4.11 4.97 3.93z" fill="#263238"/><path d="m304.17 422.67 66.48 38.39a7.88 7.88 0 0 0 7.14 0l36.37-21c2-1.13 2-3 0-4.12l-66.49-38.38a7.86 7.86 0 0 0 -7.13 0l-36.37 21c-1.97 1.13-1.97 2.98 0 4.11z" fill="#f0f0f0"/><path d="m304.16 420.74 66.49 38.39a7.88 7.88 0 0 0 7.14 0l36.37-21c2-1.14 2-3 0-4.12l-66.49-38.39a7.94 7.94 0 0 0 -7.14 0l-36.37 21c-1.97 1.14-1.97 2.98 0 4.12z" fill="#fff"/><path d="m377.79 459.13 32.8-18.94c-10.33 5.29-29.95 16.61-32.85 17.74s-4.61 1.63-10-1.49-59.9-33.58-59.9-33.58l62.82 36.27a7.88 7.88 0 0 0 7.13 0z" fill="#fafafa"/><path d="m394 446.07a1 1 0 0 1 -.89 0l-66.27-38.27c-.26-.14-.27-.37 0-.51a1 1 0 0 1 .89 0l66.27 38.26c.27.15.28.38 0 .52z" fill="#e0e0e0"/><path d="m340.63 410.88a4 4 0 0 0 .66.31l.26.1a7.84 7.84 0 0 0 6-.54l6.25-3.61a4.46 4.46 0 0 0 .18-7.82 4.9 4.9 0 0 0 -.66-.31l-.26-.09a7.86 7.86 0 0 0 -6 .53l-6.25 3.6h-.05a4.52 4.52 0 0 0 -1.81 1.72 4.46 4.46 0 0 0 1.64 6.1z" fill="#fafafa" opacity=".7"/><path d="m354 403.15a7.63 7.63 0 0 0 -6.91.13l-6.25 3.61c-2 1.13-2.07 2.92-.22 4a7.62 7.62 0 0 0 6.91-.13l6.25-3.61c1.98-1.15 2.08-2.93.22-4z" fill="#e0e0e0"/><path d="m355.74 405.21a4.45 4.45 0 0 0 -1.72-5.92 4.9 4.9 0 0 0 -.66-.31l-.26-.09a8.09 8.09 0 0 0 -5.23.16c2.93-.3 4.74-.38 6.58 1.16a4.51 4.51 0 0 1 1.29 5z" fill="#fff"/><path d="m344.61 402.22a1.84 1.84 0 0 1 1.85.19 5.76 5.76 0 0 1 2.61 4.52 1.84 1.84 0 0 1 -.77 1.69l-3.36 1.93a3.7 3.7 0 0 1 -3.7-6.4z" fill="#f5f5f5"/><path d="m349.24 399.56a3.7 3.7 0 1 1 3.7 6.4l-4.64 2.66a1.84 1.84 0 0 0 .77-1.69 5.76 5.76 0 0 0 -2.61-4.52 1.84 1.84 0 0 0 -1.85-.19z" fill="#516eb4"/><path d="m353.52 403a1.41 1.41 0 0 0 -1.93-.52l-5.6 3.22a5.35 5.35 0 0 0 1.85 1.95l.22.12 4.95-2.84a1.42 1.42 0 0 0 .51-1.93z" fill="#fff" opacity=".4"/><path d="m344.61 402.22a1.84 1.84 0 0 1 1.85.19 5.76 5.76 0 0 1 2.61 4.52 1.84 1.84 0 0 1 -.77 1.69l-3.36 1.93a3.7 3.7 0 0 1 -3.7-6.4z" fill="#f5f5f5"/><path d="m349.07 406.93a5.76 5.76 0 0 0 -2.61-4.52 1.84 1.84 0 0 0 -1.85-.19l.26-.15.2-.11a1.81 1.81 0 0 1 1.85.18 5.78 5.78 0 0 1 2.61 4.52 1.84 1.84 0 0 1 -.76 1.69l-.47.27a1.84 1.84 0 0 0 .77-1.69z" opacity=".1"/><path d="m341.6 410.73a3.69 3.69 0 0 1 -.36-6.58l3.37-1.93a1.84 1.84 0 0 1 1.85.19 4.41 4.41 0 0 1 .89.7l-5.61 3.23c-1.84 1.07-1.18 3.76-.14 4.39z" fill="#e0e0e0"/><path d="m342.11 409.55a1.41 1.41 0 0 1 .52-1.93l5.67-3.27a5.41 5.41 0 0 1 .77 2.58 2 2 0 0 1 0 .25l-5 2.89a1.41 1.41 0 0 1 -1.96-.52z" fill="#fff"/><path d="m354.49 401.33a1.54 1.54 0 0 1 .08.19.88.88 0 0 1 .05.15.75.75 0 0 1 0 .16v.17s0 .06 0 .09a3.25 3.25 0 0 1 .06.76 2.46 2.46 0 0 1 0 .28c0-1.21-2-3.13-3.87-2.06l-3.54 2a4.41 4.41 0 0 0 -.89-.7 1.84 1.84 0 0 0 -1.85-.19l4.63-2.66a3.69 3.69 0 0 1 5.05 1.35c.06.1.11.2.16.3s.11.12.12.16z" opacity=".1"/><path d="m317.31 424.46a4.9 4.9 0 0 0 .66.31l.26.1a7.87 7.87 0 0 0 6-.54l6.25-3.61a4.4 4.4 0 0 0 1.8-1.73 4.45 4.45 0 0 0 -1.63-6.09 5 5 0 0 0 -.66-.31l-.26-.09a7.88 7.88 0 0 0 -6 .53l-6.25 3.61h-.05a4.46 4.46 0 0 0 -.18 7.82z" fill="#fafafa" opacity=".7"/><path d="m330.7 416.73a7.68 7.68 0 0 0 -6.92.13l-6.25 3.61c-2 1.14-2.07 2.92-.22 4a7.65 7.65 0 0 0 6.92-.13l6.25-3.61c1.97-1.14 2.07-2.93.22-4z" fill="#e0e0e0"/><path d="m332.42 418.8a4.46 4.46 0 0 0 -1.72-5.93 5 5 0 0 0 -.66-.31l-.26-.09a8.06 8.06 0 0 0 -5.22.16c2.93-.29 4.73-.38 6.57 1.16a4.53 4.53 0 0 1 1.29 5.01z" fill="#fff"/><path d="m321.29 415.81a1.81 1.81 0 0 1 1.85.18 5.78 5.78 0 0 1 2.61 4.52 1.84 1.84 0 0 1 -.76 1.69l-3.37 1.93a3.69 3.69 0 1 1 -3.69-6.4z" fill="#f5f5f5"/><path d="m325.92 413.14a3.7 3.7 0 1 1 3.7 6.4l-4.62 2.66a1.84 1.84 0 0 0 .76-1.69 5.78 5.78 0 0 0 -2.61-4.52 1.81 1.81 0 0 0 -1.85-.18z" fill="#516eb4"/><path d="m330.21 416.57a1.42 1.42 0 0 0 -1.94-.52l-5.6 3.22a5.44 5.44 0 0 0 1.85 2l.23.12 4.94-2.84a1.41 1.41 0 0 0 .52-1.98z" fill="#fff" opacity=".4"/><path d="m321.29 415.81a1.81 1.81 0 0 1 1.85.18 5.78 5.78 0 0 1 2.61 4.52 1.84 1.84 0 0 1 -.76 1.69l-3.37 1.93a3.69 3.69 0 1 1 -3.69-6.4z" fill="#f5f5f5"/><path d="m325.75 420.51a5.78 5.78 0 0 0 -2.61-4.52 1.81 1.81 0 0 0 -1.85-.18l.27-.16.2-.11a1.84 1.84 0 0 1 1.84.18 5.75 5.75 0 0 1 2.61 4.52 1.83 1.83 0 0 1 -.76 1.69l-.46.27a1.84 1.84 0 0 0 .76-1.69z" opacity=".1"/><path d="m318.28 424.31a3.69 3.69 0 0 1 -.35-6.58l3.36-1.92a1.81 1.81 0 0 1 1.85.18 4.2 4.2 0 0 1 .9.7l-5.61 3.24c-1.84 1.07-1.19 3.75-.15 4.38z" fill="#e0e0e0"/><path d="m318.79 423.13a1.42 1.42 0 0 1 .52-1.93l5.67-3.27a5.3 5.3 0 0 1 .77 2.58 2 2 0 0 1 0 .25l-5 2.89a1.42 1.42 0 0 1 -1.96-.52z" fill="#fff"/><path d="m331.18 414.91c0 .06.05.13.08.2s0 .09 0 .14 0 .11.05.16 0 .11 0 .17 0 .06 0 .09a4.87 4.87 0 0 1 .06.76v.27c0-1.21-2-3.12-3.87-2.06l-3.54 2a4.2 4.2 0 0 0 -.9-.7 1.81 1.81 0 0 0 -1.85-.18l4.63-2.67a3.71 3.71 0 0 1 5.06 1.35l.15.31a1.17 1.17 0 0 1 .13.16z" opacity=".1"/><path d="m357.36 420.54a4.39 4.39 0 0 0 .66.31l.26.1a7.84 7.84 0 0 0 6-.54l6.26-3.61a4.45 4.45 0 0 0 -.48-8.13l-.26-.09a7.83 7.83 0 0 0 -6 .53l-6.26 3.61a4.45 4.45 0 0 0 -.18 7.82z" fill="#fafafa" opacity=".7"/><path d="m370.75 412.81a7.65 7.65 0 0 0 -6.92.13l-6.25 3.61c-2 1.13-2.07 2.92-.22 4a7.62 7.62 0 0 0 6.91-.13l6.26-3.61c1.97-1.15 2.06-2.93.22-4z" fill="#e0e0e0"/><path d="m372.47 414.88a4.46 4.46 0 0 0 -1.72-5.93 4.39 4.39 0 0 0 -.66-.31l-.26-.09a8.06 8.06 0 0 0 -5.22.16c2.93-.3 4.73-.38 6.57 1.16a4.53 4.53 0 0 1 1.29 5.01z" fill="#fff"/><path d="m361.34 411.88a1.84 1.84 0 0 1 1.85.19 5.76 5.76 0 0 1 2.61 4.52 1.82 1.82 0 0 1 -.77 1.69l-3.36 1.93a3.69 3.69 0 1 1 -3.69-6.4z" fill="#f5f5f5"/><path d="m366 409.22a3.7 3.7 0 0 1 3.7 6.4l-4.7 2.66a1.82 1.82 0 0 0 .77-1.69 5.76 5.76 0 0 0 -2.61-4.52 1.84 1.84 0 0 0 -1.85-.19z" fill="#516eb4"/><path d="m370.26 412.65a1.42 1.42 0 0 0 -1.94-.52l-5.6 3.22a5.35 5.35 0 0 0 1.85 1.95l.23.12 4.94-2.84a1.42 1.42 0 0 0 .52-1.93z" fill="#fff" opacity=".4"/><path d="m361.34 411.88a1.84 1.84 0 0 1 1.85.19 5.76 5.76 0 0 1 2.61 4.52 1.82 1.82 0 0 1 -.77 1.69l-3.36 1.93a3.69 3.69 0 1 1 -3.69-6.4z" fill="#f5f5f5"/><path d="m365.8 416.59a5.76 5.76 0 0 0 -2.61-4.52 1.84 1.84 0 0 0 -1.85-.19l.27-.15.2-.11a1.8 1.8 0 0 1 1.84.18 5.78 5.78 0 0 1 2.61 4.52 1.84 1.84 0 0 1 -.76 1.69l-.47.27a1.82 1.82 0 0 0 .77-1.69z" opacity=".1"/><path d="m358.33 420.39a3.69 3.69 0 0 1 -.35-6.58l3.36-1.93a1.84 1.84 0 0 1 1.85.19 4.47 4.47 0 0 1 .9.7l-5.61 3.23c-1.85 1.07-1.19 3.76-.15 4.39z" fill="#e0e0e0"/><path d="m358.84 419.21a1.41 1.41 0 0 1 .52-1.93l5.64-3.28a5.3 5.3 0 0 1 .77 2.58v.25l-5 2.89a1.42 1.42 0 0 1 -1.93-.51z" fill="#fff"/><path d="m371.23 411a1.46 1.46 0 0 1 .07.19.88.88 0 0 1 .05.15v.16s0 .11 0 .17 0 .06 0 .09a3.25 3.25 0 0 1 .06.76 2.46 2.46 0 0 1 0 .28c0-1.21-2-3.13-3.87-2.06l-3.53 2a4.47 4.47 0 0 0 -.9-.7 1.84 1.84 0 0 0 -1.85-.19l4.63-2.66a3.69 3.69 0 0 1 5 1.35 3 3 0 0 1 .16.31 1.17 1.17 0 0 1 .18.15z" opacity=".1"/><path d="m334 434.12a4.9 4.9 0 0 0 .66.31 2.24 2.24 0 0 0 .26.1 7.87 7.87 0 0 0 6-.54l6.25-3.61h.05a4.46 4.46 0 0 0 .17-7.82 5 5 0 0 0 -.66-.31l-.26-.09a7.88 7.88 0 0 0 -6 .53l-6.25 3.61a4.46 4.46 0 0 0 -.18 7.82z" fill="#fafafa" opacity=".7"/><path d="m347.43 426.39a7.66 7.66 0 0 0 -6.91.13l-6.26 3.61c-2 1.14-2.06 2.92-.22 4a7.65 7.65 0 0 0 6.96-.13l6.25-3.61c1.93-1.14 2.03-2.93.18-4z" fill="#e0e0e0"/><path d="m349.15 428.46a4.46 4.46 0 0 0 -1.72-5.93 5 5 0 0 0 -.66-.31l-.26-.09a8.06 8.06 0 0 0 -5.22.16c2.93-.29 4.74-.38 6.57 1.17a4.51 4.51 0 0 1 1.29 5z" fill="#fff"/><path d="m338 425.47a1.8 1.8 0 0 1 1.84.18 5.78 5.78 0 0 1 2.61 4.52 1.84 1.84 0 0 1 -.76 1.69l-3.36 1.93a3.7 3.7 0 0 1 -3.7-6.4z" fill="#f5f5f5"/><path d="m342.66 422.8a3.69 3.69 0 1 1 3.69 6.4l-4.63 2.66a1.84 1.84 0 0 0 .76-1.69 5.78 5.78 0 0 0 -2.61-4.52 1.8 1.8 0 0 0 -1.84-.18z" fill="#516eb4"/><path d="m346.94 426.23a1.41 1.41 0 0 0 -1.93-.52l-5.6 3.22a5.33 5.33 0 0 0 1.84 1.95l.23.12 4.94-2.84a1.41 1.41 0 0 0 .52-1.93z" fill="#fff" opacity=".4"/><path d="m338 425.47a1.8 1.8 0 0 1 1.84.18 5.78 5.78 0 0 1 2.61 4.52 1.84 1.84 0 0 1 -.76 1.69l-3.36 1.93a3.7 3.7 0 0 1 -3.7-6.4z" fill="#f5f5f5"/><path d="m342.48 430.17a5.78 5.78 0 0 0 -2.61-4.52 1.8 1.8 0 0 0 -1.84-.18l.26-.16.2-.11a1.86 1.86 0 0 1 1.85.18 5.78 5.78 0 0 1 2.66 4.52 1.83 1.83 0 0 1 -.77 1.69l-.46.27a1.84 1.84 0 0 0 .71-1.69z" opacity=".1"/><path d="m335 434a3.64 3.64 0 0 1 -1.7-1.53 3.69 3.69 0 0 1 1.35-5.05l3.37-1.92a1.8 1.8 0 0 1 1.84.18 4 4 0 0 1 .9.71c-2 1.12-4.36 2.5-5.61 3.23-1.83 1.03-1.15 3.73-.15 4.38z" fill="#e0e0e0"/><path d="m335.53 432.79a1.42 1.42 0 0 1 .51-1.93l5.68-3.27a5.39 5.39 0 0 1 .76 2.58 2.26 2.26 0 0 1 0 .26l-5 2.88a1.41 1.41 0 0 1 -1.95-.52z" fill="#fff"/><path d="m347.91 424.57c0 .06 0 .13.08.2a1.21 1.21 0 0 0 .05.14v.16a1 1 0 0 1 0 .17s0 .06 0 .09a4.9 4.9 0 0 1 .06.77v.27c0-1.21-2-3.12-3.87-2.06-.63.36-1.59.9-3.54 2a4 4 0 0 0 -.9-.71 1.8 1.8 0 0 0 -1.84-.18l4.63-2.67a3.7 3.7 0 0 1 5 1.35 1.77 1.77 0 0 1 .15.31.37.37 0 0 1 .18.16z" opacity=".1"/><path d="m374.09 430.2a4.9 4.9 0 0 0 .66.31l.26.1a7.87 7.87 0 0 0 6-.54l6.25-3.61h.05a4.4 4.4 0 0 0 1.8-1.73 4.44 4.44 0 0 0 -1.63-6.09 5 5 0 0 0 -.66-.31l-.26-.09a7.88 7.88 0 0 0 -6 .53l-6.25 3.61h-.05a4.45 4.45 0 0 0 -.18 7.82z" fill="#fafafa" opacity=".7"/><path d="m387.48 422.47a7.65 7.65 0 0 0 -6.92.13l-6.25 3.61c-2 1.14-2.07 2.92-.22 4a7.65 7.65 0 0 0 6.92-.13l6.25-3.61c1.97-1.14 2.07-2.93.22-4z" fill="#e0e0e0"/><path d="m389.2 424.54a4.46 4.46 0 0 0 -1.72-5.93 5 5 0 0 0 -.66-.31l-.26-.09a8.06 8.06 0 0 0 -5.22.16c2.93-.3 4.73-.38 6.57 1.16a4.53 4.53 0 0 1 1.29 5.01z" fill="#fff"/><path d="m378.07 421.55a1.81 1.81 0 0 1 1.85.18 5.78 5.78 0 0 1 2.61 4.52 1.84 1.84 0 0 1 -.76 1.69l-3.36 1.93a3.7 3.7 0 0 1 -3.7-6.4z" fill="#f5f5f5"/><path d="m382.71 418.88a3.69 3.69 0 1 1 3.69 6.4l-4.63 2.66a1.84 1.84 0 0 0 .76-1.69 5.78 5.78 0 0 0 -2.61-4.52 1.81 1.81 0 0 0 -1.85-.18z" fill="#516eb4"/><path d="m387 422.31a1.41 1.41 0 0 0 -1.93-.52l-5.62 3.21a5.44 5.44 0 0 0 1.85 2l.23.12 4.94-2.84a1.41 1.41 0 0 0 .53-1.97z" fill="#fff" opacity=".4"/><path d="m378.07 421.55a1.81 1.81 0 0 1 1.85.18 5.78 5.78 0 0 1 2.61 4.52 1.84 1.84 0 0 1 -.76 1.69l-3.36 1.93a3.7 3.7 0 0 1 -3.7-6.4z" fill="#f5f5f5"/><path d="m382.53 426.25a5.78 5.78 0 0 0 -2.61-4.52 1.81 1.81 0 0 0 -1.85-.18l.27-.16.2-.11a1.8 1.8 0 0 1 1.84.18 5.76 5.76 0 0 1 2.62 4.54 1.84 1.84 0 0 1 -.77 1.69l-.46.27a1.84 1.84 0 0 0 .76-1.71z" opacity=".1"/><path d="m375.06 430.05a3.64 3.64 0 0 1 -1.7-1.53 3.69 3.69 0 0 1 1.35-5l3.36-1.92a1.81 1.81 0 0 1 1.85.18 4.2 4.2 0 0 1 .9.7l-5.61 3.24c-1.84 1.01-1.21 3.7-.15 4.33z" fill="#e0e0e0"/><path d="m375.58 428.87a1.41 1.41 0 0 1 .51-1.93l5.67-3.27a5.3 5.3 0 0 1 .77 2.58 2 2 0 0 1 0 .25l-5 2.89a1.41 1.41 0 0 1 -1.95-.52z" fill="#fff"/><path d="m388 420.65c0 .06.05.13.08.19s0 .1 0 .15a1 1 0 0 1 .05.16v.17s0 .06 0 .09a4.87 4.87 0 0 1 .06.76v.28c0-1.21-2-3.13-3.87-2.06l-3.54 2a4.2 4.2 0 0 0 -.9-.7 1.81 1.81 0 0 0 -1.85-.18l4.64-2.67a3.7 3.7 0 0 1 5.05 1.35l.15.31a1.17 1.17 0 0 1 .13.15z" opacity=".1"/><path d="m350.78 443.78a5.59 5.59 0 0 0 .65.32l.26.09a7.86 7.86 0 0 0 6-.54l6.25-3.61h.05a4.45 4.45 0 0 0 .18-7.82 6.53 6.53 0 0 0 -.66-.31l-.27-.09a7.88 7.88 0 0 0 -6 .53l-6.24 3.58h-.05a4.46 4.46 0 0 0 -.17 7.82z" fill="#fafafa" opacity=".7"/><path d="m364.16 436.05a7.66 7.66 0 0 0 -6.91.13l-6.25 3.61c-2 1.14-2.07 2.92-.22 4a7.63 7.63 0 0 0 6.91-.13l6.25-3.61c1.97-1.14 2.06-2.93.22-4z" fill="#e0e0e0"/><path d="m365.88 438.12a4.46 4.46 0 0 0 -1.71-5.93 6.53 6.53 0 0 0 -.66-.31l-.27-.09a8.13 8.13 0 0 0 -5.24.21c2.93-.29 4.74-.38 6.58 1.17a4.52 4.52 0 0 1 1.3 4.95z" fill="#fff"/><path d="m354.76 435.13a1.8 1.8 0 0 1 1.84.18 5.75 5.75 0 0 1 2.61 4.52 1.84 1.84 0 0 1 -.76 1.69l-3.36 1.94a3.7 3.7 0 0 1 -3.7-6.41z" fill="#f5f5f5"/><path d="m359.39 432.46a3.7 3.7 0 1 1 3.7 6.4l-4.64 2.66a1.84 1.84 0 0 0 .76-1.69 5.75 5.75 0 0 0 -2.61-4.52 1.8 1.8 0 0 0 -1.84-.18z" fill="#516eb4"/><path d="m363.67 435.89a1.41 1.41 0 0 0 -1.93-.52l-5.6 3.22a5.27 5.27 0 0 0 1.85 2 2.39 2.39 0 0 0 .22.12l4.94-2.84a1.41 1.41 0 0 0 .52-1.98z" fill="#fff" opacity=".4"/><path d="m354.76 435.13a1.8 1.8 0 0 1 1.84.18 5.75 5.75 0 0 1 2.61 4.52 1.84 1.84 0 0 1 -.76 1.69l-3.36 1.94a3.7 3.7 0 0 1 -3.7-6.41z" fill="#f5f5f5"/><path d="m359.21 439.83a5.75 5.75 0 0 0 -2.61-4.52 1.8 1.8 0 0 0 -1.84-.18l.24-.13.2-.11a1.86 1.86 0 0 1 1.85.18 5.78 5.78 0 0 1 2.61 4.52 1.81 1.81 0 0 1 -.77 1.69l-.46.27a1.84 1.84 0 0 0 .78-1.72z" opacity=".1"/><path d="m351.74 443.63a3.7 3.7 0 0 1 -.35-6.58l3.37-1.92a1.8 1.8 0 0 1 1.84.18 4 4 0 0 1 .9.71l-5.61 3.23c-1.84 1.06-1.18 3.75-.15 4.38z" fill="#e0e0e0"/><path d="m352.26 442.45a1.41 1.41 0 0 1 .52-1.93l5.67-3.27a5.39 5.39 0 0 1 .76 2.58 2.26 2.26 0 0 1 0 .26l-5 2.88a1.41 1.41 0 0 1 -1.95-.52z" fill="#fff"/><path d="m364.64 434.23a1.19 1.19 0 0 1 .08.2s0 .09 0 .14 0 .11 0 .16a1.36 1.36 0 0 1 0 .17s0 .06 0 .09a3.29 3.29 0 0 1 .06.77 2.45 2.45 0 0 1 0 .27c0-1.21-2-3.12-3.87-2.06-.63.37-1.59.9-3.54 2a4 4 0 0 0 -.9-.71 1.8 1.8 0 0 0 -1.84-.18l4.63-2.67a3.69 3.69 0 0 1 5.05 1.35 3 3 0 0 1 .16.31s.16.12.17.16z" opacity=".1"/><path d="m390.82 439.86a4.29 4.29 0 0 0 .65.31l.26.1a7.87 7.87 0 0 0 6-.54l6.25-3.61h.05a4.46 4.46 0 0 0 .17-7.82 5.51 5.51 0 0 0 -.65-.31l-.27-.09a7.88 7.88 0 0 0 -6 .53l-6.23 3.57h-.05a4.46 4.46 0 0 0 -.18 7.82z" fill="#fafafa" opacity=".7"/><path d="m404.21 432.13a7.62 7.62 0 0 0 -6.91.13l-6.25 3.61c-2 1.14-2.07 2.92-.23 4a7.65 7.65 0 0 0 6.92-.13l6.25-3.61c2.01-1.13 2.07-2.93.22-4z" fill="#e0e0e0"/><path d="m405.93 434.2a4.45 4.45 0 0 0 -1.72-5.93 5.51 5.51 0 0 0 -.65-.31l-.27-.09a8.06 8.06 0 0 0 -5.22.16c2.93-.29 4.74-.38 6.58 1.16a4.54 4.54 0 0 1 1.28 5.01z" fill="#fff"/><path d="m394.81 431.21a1.8 1.8 0 0 1 1.84.18 5.78 5.78 0 0 1 2.61 4.52 1.84 1.84 0 0 1 -.76 1.69l-3.36 1.93a3.7 3.7 0 1 1 -3.7-6.4z" fill="#f5f5f5"/><path d="m399.44 428.54a3.7 3.7 0 0 1 3.7 6.4l-4.64 2.66a1.84 1.84 0 0 0 .76-1.69 5.78 5.78 0 0 0 -2.61-4.52 1.8 1.8 0 0 0 -1.84-.18z" fill="#516eb4"/><path d="m403.72 432a1.41 1.41 0 0 0 -1.93-.52l-5.6 3.22a5.33 5.33 0 0 0 1.84 1.95l.23.12 4.94-2.84a1.41 1.41 0 0 0 .52-1.93z" fill="#fff" opacity=".4"/><path d="m394.81 431.21a1.8 1.8 0 0 1 1.84.18 5.78 5.78 0 0 1 2.61 4.52 1.84 1.84 0 0 1 -.76 1.69l-3.36 1.93a3.7 3.7 0 1 1 -3.7-6.4z" fill="#f5f5f5"/><path d="m399.26 435.91a5.78 5.78 0 0 0 -2.61-4.52 1.8 1.8 0 0 0 -1.84-.18l.26-.16.2-.11a1.81 1.81 0 0 1 1.85.18 5.78 5.78 0 0 1 2.61 4.52 1.81 1.81 0 0 1 -.77 1.69l-.46.27a1.84 1.84 0 0 0 .76-1.69z" opacity=".1"/><path d="m391.79 439.71a3.7 3.7 0 0 1 -.35-6.58l3.37-1.92a1.8 1.8 0 0 1 1.84.18 4.2 4.2 0 0 1 .9.7l-5.61 3.24c-1.84 1.06-1.18 3.75-.15 4.38z" fill="#e0e0e0"/><path d="m392.31 438.53a1.41 1.41 0 0 1 .52-1.93l5.67-3.27a5.39 5.39 0 0 1 .76 2.58 2 2 0 0 1 0 .25l-5 2.89a1.41 1.41 0 0 1 -1.95-.52z" fill="#fff"/><path d="m404.69 430.31a1.19 1.19 0 0 1 .08.2s0 .09.05.14 0 .11 0 .16a1 1 0 0 1 0 .17s0 .06 0 .09a3.25 3.25 0 0 1 .06.76 2.45 2.45 0 0 1 0 .27c0-1.21-2-3.13-3.87-2.06l-3.54 2a4.2 4.2 0 0 0 -.9-.7 1.8 1.8 0 0 0 -1.84-.18l4.63-2.67a3.69 3.69 0 0 1 5.05 1.35 1.77 1.77 0 0 1 .15.31.37.37 0 0 1 .13.16z" opacity=".1"/><path d="m367.51 453.44a4 4 0 0 0 .66.32l.26.09a7.84 7.84 0 0 0 6-.54l6.25-3.61h.05a4.45 4.45 0 0 0 .18-7.82 6.53 6.53 0 0 0 -.66-.31l-.26-.09a7.91 7.91 0 0 0 -6 .53l-6.25 3.61a4.36 4.36 0 0 0 -1.81 1.73 4.44 4.44 0 0 0 1.63 6.09z" fill="#fafafa" opacity=".7"/><path d="m380.89 445.71a7.66 7.66 0 0 0 -6.91.13l-6.25 3.61c-2 1.14-2.07 2.92-.22 4a7.62 7.62 0 0 0 6.91-.13l6.25-3.61c1.97-1.14 2.07-2.93.22-4z" fill="#e0e0e0"/><path d="m382.62 447.78a4.46 4.46 0 0 0 -1.72-5.93 6.53 6.53 0 0 0 -.66-.31l-.26-.09a8.06 8.06 0 0 0 -5.22.17c2.92-.3 4.73-.39 6.57 1.16a4.51 4.51 0 0 1 1.29 5z" fill="#fff"/><path d="m371.49 444.79a1.81 1.81 0 0 1 1.85.18 5.78 5.78 0 0 1 2.61 4.52 1.82 1.82 0 0 1 -.77 1.69l-3.36 1.94a3.7 3.7 0 0 1 -3.7-6.41z" fill="#f5f5f5"/><path d="m376.12 442.12a3.7 3.7 0 1 1 3.7 6.4l-4.64 2.66a1.82 1.82 0 0 0 .77-1.69 5.78 5.78 0 0 0 -2.61-4.52 1.81 1.81 0 0 0 -1.85-.18z" fill="#516eb4"/><path d="m380.4 445.55a1.41 1.41 0 0 0 -1.93-.52l-5.6 3.22a5.35 5.35 0 0 0 1.85 1.95 2.39 2.39 0 0 0 .22.12l4.95-2.84a1.41 1.41 0 0 0 .51-1.93z" fill="#fff" opacity=".4"/><path d="m371.49 444.79a1.81 1.81 0 0 1 1.85.18 5.78 5.78 0 0 1 2.61 4.52 1.82 1.82 0 0 1 -.77 1.69l-3.36 1.94a3.7 3.7 0 0 1 -3.7-6.41z" fill="#f5f5f5"/><path d="m376 449.49a5.78 5.78 0 0 0 -2.61-4.52 1.81 1.81 0 0 0 -1.85-.18l.26-.16.2-.11a1.86 1.86 0 0 1 1.85.18 5.78 5.78 0 0 1 2.61 4.52 1.83 1.83 0 0 1 -.76 1.69l-.47.27a1.82 1.82 0 0 0 .77-1.69z" opacity=".1"/><path d="m368.48 453.29a3.66 3.66 0 0 1 -1.71-1.53 3.7 3.7 0 0 1 1.35-5.05l3.37-1.92a1.81 1.81 0 0 1 1.85.18 4.83 4.83 0 0 1 .9.71l-5.62 3.23c-1.84 1.09-1.18 3.76-.14 4.38z" fill="#e0e0e0"/><path d="m369 452.12a1.42 1.42 0 0 1 .52-1.94l5.67-3.27a5.41 5.41 0 0 1 .77 2.58v.26l-5 2.88a1.42 1.42 0 0 1 -1.96-.51z" fill="#fff"/><path d="m381.38 443.89c0 .07.05.13.07.2a.58.58 0 0 1 .05.14s0 .11.05.16 0 .12 0 .17 0 .06 0 .09a3.29 3.29 0 0 1 .06.77 2.45 2.45 0 0 1 0 .27c0-1.21-2-3.12-3.87-2.06-.63.37-1.59.9-3.53 2a4.83 4.83 0 0 0 -.9-.71 1.81 1.81 0 0 0 -1.85-.18l4.63-2.67a3.69 3.69 0 0 1 5.05 1.35c.06.1.11.21.16.31z" opacity=".1"/><path d="m298.15 303.66c0-5.59-3.69-11.18-11.07-15.44-14.78-8.53-38.73-8.53-53.5 0-7.38 4.26-11.08 9.85-11.08 15.44v87.79c0 5.59 3.7 11.18 11.08 15.45 14.77 8.53 38.72 8.53 53.5 0 7.38-4.27 11.08-9.86 11.07-15.45z" fill="#516eb4"/><path d="m283.61 286.47v122.18c1.2-.54 2.36-1.12 3.47-1.75a29 29 0 0 0 6-4.56v-109.56a28.69 28.69 0 0 0 -6-4.56 38.8 38.8 0 0 0 -3.47-1.75z" fill="#fff" opacity=".4"/><path d="m273.7 411.87a55 55 0 0 0 5.44-1.49v-125.64a50 50 0 0 0 -5.44-1.49z" fill="#fff" opacity=".4"/><path d="m297.5 299.63a27.28 27.28 0 0 0 -8.8-7.65c-14.58-8.41-37.58-9-53.33-1.74v-2.95c-.6.3-1.21.6-1.79.93-7.38 4.26-11.08 9.85-11.08 15.44v87.79c0 5.59 3.7 11.18 11.08 15.45 14.77 8.53 38.72 8.53 53.5 0a28.12 28.12 0 0 0 6.74-5.28c-7 6.57-24.55 10.19-37.56 7.63s-20.89-10.86-20.89-16.76v-3.16c7.29 4 16.83 5.83 26.16 5.83v-56.36c-9.33 0-18.87-1.44-26.16-5.36v-6.95c15.75 7.24 38.75 6.67 53.33-1.75a25.77 25.77 0 0 0 9.45-8.72v-12.36a13.07 13.07 0 0 0 -.65-4.03z" opacity=".1"/><path d="m228.89 394.16v-102.64c-4.25 3.66-6.39 7.9-6.39 6.67v87.81c0 11.06 3.7 16.65 11.08 20.92a47.72 47.72 0 0 0 14.42 5.15c-14.27-3.85-19.11-13.56-19.11-17.91z" opacity=".1"/><path d="m300.45 286.39c0-5.93-3.92-11.86-11.75-16.38-15.7-9.01-41.07-9.01-56.7-.01-7.83 4.52-11.75 10.45-11.75 16.38v17.78c0 5.93 3.92 11.85 11.75 16.38 15.67 9 41.07 9 56.74 0 7.83-4.53 11.75-10.45 11.75-16.38v-17.77z" fill="#e0e0e0"/><path d="m269.93 326.63c-19.85.11-30.33-6.33-33.51-11.6-2.42-4-2.84-11.38-2.84-18.7 0 0-2.24-16.68-1.8-16.73.27 0-4.76-1.12-8.62-1.94a15.05 15.05 0 0 0 -2.95 8.73v17.78c0 5.93 3.92 11.85 11.75 16.38 10.3 5.94 24.79 7.95 37.97 6.08z" opacity=".1"/><g opacity=".1"><path d="m256.33 327.11c-.64 0-1.28-.05-1.92-.11v-23.29h1.92z"/><path d="m239.27 323.82c-.66-.23-1.29-.48-1.93-.73v-22.93h1.93z"/><path d="m247.52 326c-.63-.13-1.3-.19-1.92-.33v-23.14h1.92z"/><path d="m229.87 319.21v-22.72h1.92v23.95c-.68-.44-1.3-.81-1.92-1.23z"/><path d="m221.17 309.13a13.92 13.92 0 0 1 -1-5v-17.74a13.8 13.8 0 0 1 .45-3.3h.51z"/><path d="m223.92 313.85v-22.48h1.93v24.63a23.57 23.57 0 0 1 -1.93-2.15z"/><path d="m265.36 327.05c-.64.05-1.28.08-1.93.11v-23.41h1.93z"/><path d="m282.65 323.4c-.62.24-1.29.41-1.92.63v-23.49h1.92z"/><path d="m274.25 325.84c-.63.13-1.29.21-1.93.33v-23.49h1.93z"/><path d="m288.36 320.71v-23.36h1.93v22.18c-.53.34-1 .69-1.59 1z"/><path d="m295.06 315.73v-23.52h1.94v21.33a22.63 22.63 0 0 1 -1.94 2.19z"/><path d="m299.48 284.74h.83a13.12 13.12 0 0 1 .14 1.65v17.78a13.93 13.93 0 0 1 -1 5z"/></g><path d="m232 302.76c15.67 9.05 41.07 9.05 56.74 0s15.67-23.71 0-32.75-41.11-9.01-56.74-.01-15.71 23.72 0 32.76z" fill="#f5f5f5"/><path d="m290.85 301.39c13.45-9.1 12.75-22.78-2.15-31.38-7.64-4.41-17.59-6.66-27.6-6.77a44.76 44.76 0 0 0 -14.64 5c-13.54 7.75-13.54 23.2 0 30.95 12.09 6.9 30.86 7.62 44.39 2.2z" fill="#fafafa"/><path d="m235.76 405.17c13.57 6.82 35.57 6.82 49.14 0s13.57-17.87 0-24.69-35.57-6.82-49.14 0-13.57 17.87 0 24.69z" opacity=".1"/><path d="m222.5 318.84c0 5.59 3.7 11.18 11.08 15.44s17.07 6.4 26.75 6.4v55.89c-9.68 0-19.36-2.14-26.75-6.4s-11.08-9.85-11.08-15.44z" fill="#fff"/><path d="m233.58 352.23a45.3 45.3 0 0 0 11.16 4.43v-4.53a45.32 45.32 0 0 1 -11.16-4.44c-7.38-4.26-11.08-9.85-11.08-15.44v4.53c0 5.59 3.7 11.22 11.08 15.45z" fill="#e0e0e0"/><path d="m244.74 376.75a45.3 45.3 0 0 1 -11.16-4.43c-7.38-4.27-11.08-9.86-11.08-15.45v4.54c0 5.59 3.7 11.18 11.08 15.44a44.92 44.92 0 0 0 11.16 4.43z" fill="#e0e0e0"/><path d="m233.58 364.54a44.92 44.92 0 0 0 11.16 4.46v-4.53a45.7 45.7 0 0 1 -11.16-4.47c-7.38-4.27-11.08-9.86-11.08-15.45v4.54c0 5.6 3.7 11.18 11.08 15.45z" fill="#e0e0e0"/><path d="m223.27 295.28s13.06 13.13 38.26 12.45 35.29-14.45 36.62-18.72.49-9.82-3.4-14.53a16.76 16.76 0 0 1 5.7 11.91v17.78c0 1.5.77 6.67-7.36 13.37 0 0 4.77-5.42 4.77-10.64v-12.29s-8.92 14.93-36.33 14.93-36.87-12.02-38.26-14.26z" fill="#fff"/><path d="m221.78 434.8c6.35-3.66 16.65-3.66 23 0a9 9 0 0 1 4.53 5.14c6.07 3.68 6 9.5-.26 13.11s-16.65 3.66-23 0c-2.51-1.45-4-3.26-4.54-5.14-6.07-3.68-5.99-9.49.27-13.11z" fill="#e0e0e0"/><path d="m225 441.35v4.35c0 2 1.3 3.93 3.9 5.43 5.19 3 13.61 3 18.8 0a9 9 0 0 0 2.92-2.54 5 5 0 0 0 1-2.89v-4.35a4.67 4.67 0 0 0 -.14-1.1c0-.12-.07-.24-.11-.36a7.62 7.62 0 0 0 -3.65-4c-4.87-2.82-12.6-3-17.82-.52v2.17l-1.88 1.1v-2.14a8.14 8.14 0 0 0 -2.12 2.1q-.18.28-.33.57a4.55 4.55 0 0 0 -.3.72 4.35 4.35 0 0 0 -.27 1.46z" fill="#f0f0f0"/><path d="m234.1 434.06c4.62-.87 9.9-.25 13.57 1.87a7.62 7.62 0 0 1 3.65 4c0 .12.08.24.11.36a4.67 4.67 0 0 1 .14 1.1v4.35a5 5 0 0 1 -1 2.89 9 9 0 0 1 -2.92 2.54c-3.67 2.12-8.95 2.73-13.57 1.85z" fill="#ebebeb"/><path d="m247.67 435.93c4.88 2.81 5.17 7.27.89 10.28l-18.71-10.8c5.23-2.47 12.94-2.3 17.82.52z" fill="#fafafa"/><path d="m238.27 433.68v.88a18.26 18.26 0 0 1 9 2.13c2.15 1.24 3.37 2.84 3.45 4.5a5 5 0 0 1 -2.18 4l-16.64-9.61a20.6 20.6 0 0 1 6.41-1v-.88m0 0a20.13 20.13 0 0 0 -8.42 1.73l18.71 10.8c4.28-3 4-7.47-.89-10.28a19.22 19.22 0 0 0 -9.4-2.25z" fill="#ebebeb"/><path d="m248.57 445.07s5.17-4-.58-8.95c4.56 2.82 4.76 7.15.57 10.09l-18.71-10.8z" fill="#fff"/><path d="m228 436.5 18.71 10.8c-5.22 2.47-12.94 2.3-17.82-.52s-5.2-7.27-.89-10.28z" fill="#fafafa"/><path d="m228 437.55 16.64 9.61a20.54 20.54 0 0 1 -6.4 1 18.24 18.24 0 0 1 -9-2.13c-2.15-1.24-3.38-2.84-3.46-4.5a5 5 0 0 1 2.18-4m.04-1.03c-4.28 3-4 7.47.89 10.28a19.23 19.23 0 0 0 9.41 2.25 20.11 20.11 0 0 0 8.41-1.73z" fill="#ebebeb"/><path d="m246.68 447.3c-5.22 2.47-12.94 2.3-17.82-.52a11.54 11.54 0 0 1 -1.54-1.06c9.57 4.79 17.27 1.41 17.27 1.41l-16.59-10.63z" fill="#fff"/><path d="m229.85 437.58 18.72 10.86-.01-2.23-18.71-10.8z" fill="#e0e0e0"/><path d="m246.68 447.3v2.22l1.89-1.08z" opacity=".2"/><path d="m217.83 433.92v4.35c0 2 1.3 3.92 3.9 5.42 5.19 3 13.61 3 18.81 0a9 9 0 0 0 2.92-2.53 5 5 0 0 0 1-2.89v-4.35a4.54 4.54 0 0 0 -.14-1.1 3 3 0 0 0 -.11-.37 7.63 7.63 0 0 0 -3.64-4c-4.88-2.81-12.6-3-17.82-.52v2.18l-1.88 1.09v-2.18a8 8 0 0 0 -2.12 2.11 4.65 4.65 0 0 0 -.34.56 5.5 5.5 0 0 0 -.3.72 4.68 4.68 0 0 0 -.28 1.51z" fill="#f0f0f0"/><path d="m227 426.63c4.62-.88 9.91-.26 13.58 1.86a7.63 7.63 0 0 1 3.64 4 3 3 0 0 1 .11.37 4.54 4.54 0 0 1 .14 1.1v4.35a5 5 0 0 1 -1 2.89 9 9 0 0 1 -2.92 2.53c-3.68 2.12-9 2.74-13.58 1.86z" fill="#ebebeb"/><path d="m240.54 428.49c4.87 2.82 5.17 7.27.89 10.29l-18.71-10.78c5.22-2.49 12.94-2.32 17.82.49z" fill="#fafafa"/><path d="m231.13 427.13a18.13 18.13 0 0 1 9 2.13c2.15 1.24 3.38 2.84 3.45 4.5a4.92 4.92 0 0 1 -2.17 4l-16.64-9.61a20.25 20.25 0 0 1 6.4-1m0-.89a20 20 0 0 0 -8.41 1.74l18.71 10.8c4.28-3 4-7.47-.89-10.29a19.23 19.23 0 0 0 -9.41-2.25z" fill="#ebebeb"/><path d="m241.43 437.64s5.17-4-.58-8.95c4.57 2.82 4.76 7.14.58 10.09l-18.71-10.78z" fill="#fff"/><path d="m220.84 429.06 18.71 10.81c-5.23 2.47-13 2.3-17.82-.52s-5.17-7.27-.89-10.29z" fill="#fafafa"/><path d="m220.9 430.12 16.64 9.6a20.36 20.36 0 0 1 -6.41 1 18.26 18.26 0 0 1 -9-2.13c-2.15-1.24-3.38-2.84-3.45-4.51a5 5 0 0 1 2.18-4m-.06-1.06c-4.28 3-4 7.47.89 10.29a19.22 19.22 0 0 0 9.4 2.25 20.13 20.13 0 0 0 8.42-1.73z" fill="#ebebeb"/><path d="m239.55 439.87c-5.23 2.47-13 2.3-17.82-.52a10.18 10.18 0 0 1 -1.54-1.07c9.57 4.8 17.26 1.42 17.26 1.42l-16.61-10.64z" fill="#fff"/><path d="m222.72 430.15 18.71 10.86v-2.23l-18.71-10.8z" fill="#e0e0e0"/><path d="m239.55 439.87v2.22l1.88-1.08z" opacity=".2"/><path d="m277.62 446.64c-5.95 3.44-5.95 9 0 12.44s15.6 3.44 21.55 0 5.95-9 0-12.44-15.6-3.44-21.55 0z" fill="#e0e0e0"/><path d="m275.09 447v4.35c0 2 1.3 3.92 3.9 5.42 5.19 3 13.61 3 18.81 0a9 9 0 0 0 2.92-2.53 5 5 0 0 0 1-2.89v-4.35a4.61 4.61 0 0 0 -.14-1.1c0-.12-.06-.24-.1-.37a7.7 7.7 0 0 0 -3.65-4c-4.88-2.81-12.6-3-17.82-.51v2.17l-1.88 1.09v-2.18a8 8 0 0 0 -2.13 2.1 5.7 5.7 0 0 0 -.34.57 4.87 4.87 0 0 0 -.3.71 4.68 4.68 0 0 0 -.27 1.52z" fill="#f0f0f0"/><path d="m284.22 439.66c4.62-.88 9.91-.25 13.58 1.86a7.7 7.7 0 0 1 3.65 4c0 .13.07.25.1.37a4.61 4.61 0 0 1 .14 1.1v4.35a5 5 0 0 1 -1 2.89 9 9 0 0 1 -2.92 2.53c-3.68 2.13-9 2.74-13.58 1.86z" fill="#ebebeb"/><path d="m297.8 441.52c4.87 2.82 5.17 7.28.89 10.29l-18.69-10.81c5.2-2.46 12.92-2.29 17.8.52z" fill="#fafafa"/><path d="m288.4 440.16a18.18 18.18 0 0 1 9 2.13c2.15 1.24 3.37 2.84 3.45 4.5a5 5 0 0 1 -2.18 4l-16.67-9.64a20.56 20.56 0 0 1 6.41-1m0-.88a20 20 0 0 0 -8.41 1.73l18.71 10.8c4.28-3 4-7.47-.89-10.29a19.34 19.34 0 0 0 -9.41-2.24z" fill="#ebebeb"/><path d="m298.69 450.67s5.17-4-.57-8.95c4.56 2.82 4.75 7.14.57 10.09l-18.69-10.81z" fill="#fff"/><path d="m278.1 442.09 18.71 10.81c-5.23 2.47-12.94 2.3-17.82-.52s-5.17-7.27-.89-10.29z" fill="#fafafa"/><path d="m278.16 443.15 16.64 9.6a20.31 20.31 0 0 1 -6.41 1 18.26 18.26 0 0 1 -9-2.13c-2.15-1.24-3.37-2.84-3.45-4.51a5 5 0 0 1 2.18-4m-.06-1.06c-4.28 3-4 7.48.89 10.29a19.22 19.22 0 0 0 9.4 2.25 20.13 20.13 0 0 0 8.42-1.73l-18.67-10.77z" fill="#ebebeb"/><path d="m296.81 452.9c-5.23 2.47-12.94 2.3-17.82-.52a10.93 10.93 0 0 1 -1.54-1.06c9.57 4.79 17.27 1.41 17.27 1.41l-16.62-10.64z" fill="#fff"/><path d="m279.98 443.18 18.71 10.86v-2.23l-18.71-10.8z" fill="#e0e0e0"/><path d="m296.81 452.9v2.22l1.88-1.08z" opacity=".2"/><path d="m138.55 118.36c11 2.22 15 5.41 21.17 15.72 4.56 7.62 7.32 12.56 14.75 23.3l23.23 2.52-4.7 16.78s-14.31.45-22.41 1.09c-6.06.48-7.45 0-11.22-4.54-7.8-9.37-17.17-22.71-17.17-22.71z" fill="#e0e0e0"/><path d="m138.55 118.36c11 2.22 15 5.41 21.17 15.72 4.56 7.62 7.32 12.56 14.75 23.3l23.23 2.52-4.7 16.78s-14.31.45-22.41 1.09c-6.06.48-7.45 0-11.22-4.54-7.8-9.37-17.17-22.71-17.17-22.71z" opacity=".02"/><path d="m160.42 187.52 3.18 93s-28.48-7-54-2.69-31.6 10.31-31.6 10.31l16.46-143.87 58.89 1.78s7.07 9.66 7.07 41.47z" fill="#ebebeb"/><path d="m83.13 434.33c-.27 5.91-1.31 8.95-3.9 12.14a11.94 11.94 0 0 1 -12.09 3.53c-4.57-1.23-9.33-4.65-10.39-9.61s-.07-9.77 1-13.61z" fill="#263238"/><path d="m67.8 338.08c3.31-16.05 7-23.23 7.69-26.88 0 0 4.86-37.91 7.06-70.17 1.06-15.53.68-26 10.83-44l59 14.5c.72 8.27 6.27 64.56 3.54 113.1-2.24 39.84-5.16 52.84-5.46 59.49-.17 3.78-.09 6.28.07 11.53.07 2.12.25 3.86 1.48 5.2a36.7 36.7 0 0 0 6.69 5.3c4.59 3 6.7 4.67 11.95 6.54a12.38 12.38 0 0 1 2.92 1.3 3.27 3.27 0 0 1 1.57 2.54c0 1.42-1.3 2.54-2.62 3.24-4.75 2.52-10.69 2-15.88.5s-10-4-15.25-5.51c-3.62-1-7.45-1.51-10.77-3.2a5.38 5.38 0 0 1 -2.59-2.31 5.5 5.5 0 0 1 -.25-2.82c.4-4.16.84-5.47.73-9.66-.1-4-.71-11.33-1-15.31-.27-3.35-4.52-27.35-3.88-42.19a92.22 92.22 0 0 0 -.47-13.6l-5.25-52.73c-2.4 8.81-11.29 34.33-14.06 46-3.4 14.24-5.23 31.47-12.3 57.54-2 7.34-5.68 16.19-6.59 20.63-.39 5.63-2.46 20.38-5.17 26.59-4.11 9.42-16.68 9.12-17.74.94-.89-6.95 3.79-25.14 4-29.7s-2.05-38.16 1.75-56.86z" fill="#c8856a"/><path d="m64.15 400.23c-1 5.87-1.88 10.32-2.55 13.72-1.9 5.8-2.64 8.6-3.71 12.37-1.76 6.16-1.42 11.68.47 15 2.81 4.91 14.16 10 20.13 3.66 4.88-5.15 4.68-7.61 4.67-15.26 0-2.4 0-4.57 0-6.62.15-6.84.27-8.17 1.39-12.51.64-2.48 0-6.26.56-8.89.56-2.86.8-4.11-.17-4.56 0 0-.5 3.66-1.12 6.31-.57 2.43-1 4.88-1.57 7.31-.66 3-1.22 6-2.15 8.95-.1.32-.27.71-.63.75s-.72-.46-.74-.87a1.78 1.78 0 0 0 -.47-1.35 6 6 0 0 0 -1.62-.91 16.36 16.36 0 0 0 -3.59-.87 17 17 0 0 0 -5.32-.21 3.12 3.12 0 0 0 -1.45.57c-.38.3-.51.72-.84 1a.79.79 0 0 1 -1 .16.83.83 0 0 1 -.23-.51 9.64 9.64 0 0 1 -.06-2.08c.15-3.83.43-7.59 1-11.4a51.27 51.27 0 0 0 .91-9.07 11.13 11.13 0 0 0 -1.91 5.31z" fill="#37474f"/><path d="m124.42 410.42 60.19 12.1a4 4 0 0 1 -.47 3.88c-2.2 2.57-9.61 6-18.77 5s-14.15-4.76-17.53-7.11a25.56 25.56 0 0 0 -5.67-3.19c-2.18-.9-5.39-.94-7.71-1.24a44.06 44.06 0 0 1 -6.07-1.59 13 13 0 0 1 -4-2 13.91 13.91 0 0 1 -.27-3.16c.03-.79.16-1.92.3-2.69z" fill="#263238"/><path d="m138.27 405c-1.88-2-4.4-3.09-6.94-4.17-2.15-.93-2.74-1.78-2.81-4.07 0-.2-1.75-.07-2 .2a2.77 2.77 0 0 0 -.75 2c-.15 1.72-.37 2.52-.67 4.3-.67 3.95-1.63 5.2-1 9.84 2.69 3.31 11 4.89 15.47 5.44 7 .86 12.59 6.48 17.84 8.16 9.64 3.08 19.09 1.43 22.75-.35 4.24-2.06 6.62-5.45 3.14-7.91-2.13-1.5-14.2-7.48-16.37-8.61-1.72-.91-3.36-2-5-2.94a3 3 0 0 0 -.9-.39 2.86 2.86 0 0 0 -1.16.12 33.84 33.84 0 0 0 -6.17 2.05 2.76 2.76 0 0 0 -1.63 1.4c-.37 1.18 2.08 3.26.6 3.64-1.33.35-3.61-1.32-4.66-1.86-3.46-1.79-7-3.81-9.54-6.69a.86.86 0 0 0 -.2-.16z" fill="#37474f"/><path d="m152.28 194.11.62 6c5.69 33.17 6.22 77.13 5.61 90.49-1.78 39.38-6.86 108.83-6.86 108.83s-1.57 3.86-12.77 4.75c-8.62.69-13.63-2.24-13.63-2.24s-4-47.08-4.63-58.45a112.66 112.66 0 0 1 .31-14.59 94.49 94.49 0 0 0 -.22-18.19l-3-33.63s-11.16 46.58-12.24 52.25c-5.39 28.44-18.47 81.16-18.47 81.16s-9.11 2.4-17.31.95-10.05-4.34-10.05-4.34 5.07-59.29 6.35-70.78c1.72-15.36 3.31-22.51 4.47-28.8 1.37-7.4 2-35.3 3-51.53.64-11.07 1.08-19.48 2.43-27.61 2.8-17 11.06-27.22 14.19-33.48l.49-3.35c9.26 7.45 44.37 12.05 61.71 2.56z" fill="#455a64"/><path d="m117.7 277.09 8.74-31.74s11.35-2.17 16.93-8.31c0 0-1.26 7.75-13 11.71l-8.26 27.73-1.55 32.6z" fill="#37474f"/><path d="m96.3 61.66c-.23-10.25 19.73-21.46 38.46-9s11.93 24.49 10.63 28.15l1.27 49-63.45 1.49s3-44.17 2.83-51.38.32-18.03 10.26-18.26z" fill="#263238"/><path d="m104.53 115.43-15.39 4.1c-3.07 1 .39 19.13-.47 39.83-.87 21.25-6.91 55.64-6.91 55.64s14.41 6 40.25 5.59c25.51-.42 33.13-8.38 33.13-8.38l-3.43-25.1-1.71-19.75s9.17-12.84 4.07-25.46-22.71-29-22.71-29l-7.91.39z" fill="#516eb4"/><path d="m104.53 115.43-15.39 4.1c-3.07 1 .39 19.13-.47 39.83-.87 21.25-6.91 55.64-6.91 55.64s14.41 6 40.25 5.59c25.51-.42 33.13-8.38 33.13-8.38l-3.43-25.1-1.71-19.75s9.17-12.84 4.07-25.46-22.71-29-22.71-29l-7.91.39z" fill="#fff" opacity=".7"/><path d="m103 165.82a17.13 17.13 0 0 0 15.09 7.43 17 17 0 0 0 13.55-8.25s-1.77 10.65-14.54 10.89-14.1-10.07-14.1-10.07z" fill="#516eb4" opacity=".3"/><path d="m122.83 113.91c6.36 5.31 16.26 12.45 22.13 20.12 11.86 15.52 14.44 29.8 15.38 47.84.19-27 3.49-42.15-29-70-5.8-5-8.1-6.08-8.1-6.08z" fill="#e0e0e0"/><path d="m101.44 110.35c.47 6.67 7.5 23.38 8.15 41.58s-9.41 136.42-9.41 136.42-19.27 2.44-33.46-5.64c0 0 5-42.89 16-90.55 2.83-12.36-2.34-27.69-3.38-44.35a70.31 70.31 0 0 1 3.47-26.74s10.32-3.45 13.47-5.28a16.62 16.62 0 0 0 5.16-5.44z" fill="#f0f0f0"/><path d="m100.67 113.58c.45 2.15 1.17 4.75 2 7.76 2.21 8.07 5.25 19.11 5.66 30.64.6 17-8.32 123.48-9.31 135.22-1.14.1-3.16.24-5.73.24-7 0-16.91-1-25.22-5.43.77-6.23 5.89-46.15 15.84-89.57 1.85-8.08.39-17.35-1.16-27.16-.89-5.66-1.82-11.51-2.19-17.54a70.72 70.72 0 0 1 3.2-25.67c2.26-.77 10.3-3.55 13.12-5.19a15.06 15.06 0 0 0 3.79-3.3m.77-3.23a16.62 16.62 0 0 1 -5.2 5.44c-3.15 1.83-13.47 5.28-13.47 5.28a70.31 70.31 0 0 0 -3.47 26.74c1 16.66 6.21 32 3.38 44.35-10.92 47.66-16 90.55-16 90.55 8.85 5 19.67 6 26.57 6a59.9 59.9 0 0 0 6.89-.35s10-118.21 9.41-136.42-7.68-34.91-8.15-41.58z" fill="#ebebeb"/><path d="m135.37 64.83c1.88 1.41 4.36 5.81 4 13.22-.19 2.24 1.25 4.58 1.34 8.76.36 15.81-2.4 18.66-6.64 20.62a22.41 22.41 0 0 1 -9.55 2l.5 7.64c2.72 4.49 2.63 7 2.18 12.81-14.16-4.06-25.14-13.76-25.15-13.79l-.53-17.84s-1.34-.37-1.34-.36a5.65 5.65 0 0 1 -7 0c-3.22-2.36-5.41-8.29-2.65-11.69s7.81-2.09 9.66.83 6.26 2 4.83-2.47c2-1 4.48-3.11 2.45-11.33-.46-2.11.23-5.77 2.2-7.59 3.28-3 9.8-2.51 13.56 1.11 5.04-4.24 8.25-4.83 12.14-1.92z" fill="#c8856a"/><path d="m135 73.55-5.2-1a2.54 2.54 0 0 1 3-2.14 2.79 2.79 0 0 1 2.2 3.14z" fill="#263238"/><path d="m111.71 76 5-1.87a2.54 2.54 0 0 0 -3.33-1.59 2.77 2.77 0 0 0 -1.67 3.46z" fill="#263238"/><path d="m118.51 93.92 7.4 2.3a3.71 3.71 0 0 1 -4.72 2.62 4.08 4.08 0 0 1 -2.68-4.92z" fill="#af6152"/><path d="m122.89 99a3.46 3.46 0 0 0 -3.58-3.31 2.83 2.83 0 0 0 -.83.14 4 4 0 0 0 2.71 3.06 3.66 3.66 0 0 0 1.7.11z" fill="#ffa8a7"/><path d="m123.12 77.62 1.51 14.07 6.97-2.12z" fill="#af6152"/><path d="m124.57 109.4c-5.08-.17-16.54-2.93-19.33-9.61 0 0 .5 4.8 6.81 8.38 5 2.83 12.67 3.44 12.67 3.44z" fill="#af6152"/><path d="m118.88 81.24a2.24 2.24 0 1 1 -2.12-2.37 2.25 2.25 0 0 1 2.12 2.37z" fill="#263238"/><path d="m135.49 80.19a2.25 2.25 0 1 1 -1.78-2.63 2.24 2.24 0 0 1 1.78 2.63z" fill="#263238"/><path d="m92 117.66c2.54-1.13 5.42-4.31 6.91-6.08s2-3 3-3v3.19s8.08 18.33 8 34.38c.18 11-1 23.93-1 23.93-3.31-7.78-11-20.58-11-20.58l4.2-10.07c-2.52-9.96-8.27-16.43-10.11-21.77z" fill="#e0e0e0"/><path d="m103.4 172.75a.86.86 0 1 0 -.86 1.5l.75.43a.4.4 0 0 0 .43 0 1.35 1.35 0 0 0 .61-1.06.45.45 0 0 0 -.18-.4l-.75-.43z" fill="#455a64"/><path d="m104.33 173.58a.45.45 0 0 0 -.18-.4l-.75-.43a.84.84 0 0 0 -.84 0c.23-.09.59.12 1 .36s.62.55.29 1.18c-.24.46-.52.41-.65.35l.08.05a.4.4 0 0 0 .43 0 1.35 1.35 0 0 0 .62-1.11z" fill="#37474f"/><path d="m107 172.7a2.69 2.69 0 1 0 -2.69 4.65 1.33 1.33 0 0 0 1.34-.14 4.17 4.17 0 0 0 1.9-3.28 1.34 1.34 0 0 0 -.55-1.23z" fill="#516eb4"/><path d="m105.61 172.83a4.19 4.19 0 0 0 -1.9 3.29 1.35 1.35 0 0 0 .55 1.23l16.59 9.58a1.33 1.33 0 0 0 1.34-.13 4.19 4.19 0 0 0 1.9-3.29 1.35 1.35 0 0 0 -.55-1.23l-16.54-9.58a1.33 1.33 0 0 0 -1.39.13z" fill="#516eb4"/><path d="m105.61 172.83a4.19 4.19 0 0 0 -1.9 3.29 1.35 1.35 0 0 0 .55 1.23l16.59 9.58a1.33 1.33 0 0 0 1.34-.13 4.19 4.19 0 0 0 1.9-3.29 1.35 1.35 0 0 0 -.55-1.23l-16.54-9.58a1.33 1.33 0 0 0 -1.39.13z" fill="#fff" opacity=".2"/><path d="m125.13 184.05a4.29 4.29 0 0 1 -1.95 3.38 1.39 1.39 0 0 1 -1.38.14l-1.28-.74a1.37 1.37 0 0 1 -.57-1.26 4.32 4.32 0 0 1 2-3.38 1.39 1.39 0 0 1 1.38-.14l1.28.74a1.37 1.37 0 0 1 .52 1.26z" fill="#516eb4"/><path d="m125.13 184.05a4.29 4.29 0 0 1 -1.95 3.38 1.39 1.39 0 0 1 -1.38.14l-1.28-.74a1.37 1.37 0 0 1 -.57-1.26 4.32 4.32 0 0 1 2-3.38 1.39 1.39 0 0 1 1.38-.14l1.28.74a1.37 1.37 0 0 1 .52 1.26z" fill="#fff" opacity=".35"/><path d="m121.23 186.3a4.32 4.32 0 0 1 2-3.38 1.19 1.19 0 0 1 1.95 1.13 4.29 4.29 0 0 1 -1.95 3.38 1.39 1.39 0 0 1 -1.38.14 1.37 1.37 0 0 1 -.62-1.27z" fill="#516eb4"/><path d="m121.23 186.3a4.32 4.32 0 0 1 2-3.38 1.19 1.19 0 0 1 1.95 1.13 4.29 4.29 0 0 1 -1.95 3.38 1.39 1.39 0 0 1 -1.38.14 1.37 1.37 0 0 1 -.62-1.27z" opacity=".15"/><path d="m137.24 196.06a1.17 1.17 0 0 1 -.5-1.09 3.75 3.75 0 0 1 1.69-2.93 1.21 1.21 0 0 1 1.2-.12l.62.6a1.22 1.22 0 0 1 .32.91 3.46 3.46 0 0 1 -1.56 2.7 1.21 1.21 0 0 1 -.94.17z" fill="#516eb4"/><path d="m137.24 196.06a1.17 1.17 0 0 1 -.5-1.09 3.75 3.75 0 0 1 1.69-2.93 1.21 1.21 0 0 1 1.2-.12l.62.6a1.22 1.22 0 0 1 .32.91 3.46 3.46 0 0 1 -1.56 2.7 1.21 1.21 0 0 1 -.94.17z" opacity=".15"/><path d="m136.74 195a3.75 3.75 0 0 1 1.69-2.93 1.21 1.21 0 0 1 1.2-.12l-15-8.64a1.18 1.18 0 0 0 -1.2.11 3.75 3.75 0 0 0 -1.69 2.93 1.21 1.21 0 0 0 .49 1.1l15 8.64a1.17 1.17 0 0 1 -.49-1.09z" fill="#516eb4"/><path d="m140.31 192.6a1.05 1.05 0 0 0 -1.08.1 3.35 3.35 0 0 0 -1.51 2.63 1.06 1.06 0 0 0 .44 1c1 .55 3.85 1.6 5.27 1.43a.51.51 0 0 0 .22-.07 1.25 1.25 0 0 0 .56-1 .46.46 0 0 0 0-.21c-.58-1.35-2.96-3.33-3.9-3.88z" fill="#516eb4"/><path d="m123.47 183.39a2.74 2.74 0 0 0 -.48.36l15 8.65a3.75 3.75 0 0 1 .48-.36h.09l-15-8.64zm-1-1.44h-.15l-14.76-8.53c-1.93-1.12-2.73-1.09-3.51-.64.77-.28 2.53.75 2.76.88l14.89 8.6.18-.11 1.28.73a2.49 2.49 0 0 1 .59-.23zm21.64 15.15-.23-.46s0-.35-.92-1.34a15.77 15.77 0 0 0 -3.75-2.6 2.47 2.47 0 0 0 -.55.44 21.46 21.46 0 0 1 4 2.59 8.66 8.66 0 0 1 1.36 1.45s.1-.05.11-.08z" fill="#fff" opacity=".2"/><path d="m143.49 197.36.62.36c.27.15 1 .4 1.15.18s-.47-.75-.74-.91l-.62-.35s-.15 0-.32.29-.09.43-.09.43z" fill="#455a64"/><path d="m145.2 197.63a.29.29 0 0 0 -.18.13.31.31 0 0 0 0 .23c.13 0 .23 0 .27-.09s-.02-.16-.09-.27z" fill="#263238"/><path d="m62.48 191.51c-.33-6.09 1-23.15 2.37-39.16 1.9-22 5.9-25.12 17.31-29.44 9.44 5.13 11.26 14.94 7.74 37l-3 25.66c6.13 1.3 14.46 3 21.49 1a10.21 10.21 0 0 0 3.89-2.1 7.23 7.23 0 0 1 2.27-1.19l1.51.89c1 .09 2.07.25 3.06.29 2.28.09 5.48 0 7.77.13 5 .3 8.75.6 13.31 2.59.86.38 1.94 1.05 3 1.67.82.46 0 1.39-.51 1.71a5.62 5.62 0 0 1 -2.1.78 11.62 11.62 0 0 1 -3-.08 1.4 1.4 0 0 0 -.79.1 1 1 0 0 0 -.41.64 6.48 6.48 0 0 0 -.06.76 4.16 4.16 0 0 1 -1.88 3.17c-.45.28-.94.47-1.4.74a4.72 4.72 0 0 0 -1.36 1.42c-.5.65-1 1.33-1.5 2-1.77 2.18-2.56 2.3-6.25 3.21s-6.36-.37-11.6 0-24.11 3.43-32.63 3.67c-15.86.35-16.64-4.52-17.23-15.46z" fill="#c8856a"/><path d="m86.86 185.55c-6.39-1.19-13.23-.92-17.25 2 6.59-7.06 17.51-4.15 17.51-4.15z" fill="#f28f8f"/><path d="m82.77 121.07c-8.19 2.25-15.22 6.88-17 14.87s-3.77 31.44-4.13 43.29 0 21.51 2.4 24.43 4.95 4.06 11.66 4.05 20.62-1.41 20.62-1.41-2.55-12.3 1.76-18.94l-9.92-2.18s3.52-29.58 4.32-36.61.52-19.52-9.71-27.5z" fill="#e0e0e0"/><path d="m222.25 135.63-52.15 12.11-20.47 58.17.99 1.31 49.69-12.49 22.93-57.78z" fill="#516eb4"/><path d="m171.09 149.06-20.47 58.16-.99-1.31 20.47-58.17z" opacity=".35"/><path d="m223.24 136.95-52.15 12.11-20.47 58.16 49.69-12.49z" opacity=".25"/><path d="m206.76 147.5s.28-.88.64-2-2.66-.83-6.73.56l-9.36 1.74c-4.06 1.39-7.86 2.34-8.21 3.42l-.64 2z" opacity=".1"/><path d="m210.75 138.77c.22-.67-.94-.66-2.59-.41l-3 .66s1.5-2.77-5.54-1.68c-7.75 1.2-8.33 4.94-8.33 4.94a35.06 35.06 0 0 1 -3.77.91c-2.58.54-2.92 1-3.2 1.67l-.51 1.23 26.58-6.16s.14-.48.36-1.16z" fill="#37474f"/><path d="m207.63 142.31c-2.48.81-3.53 1.23-4.07 2.89-.62 1.91-.8 2.71-.8 2.71l-13.9 3.77s1-2.79 1.32-3.72-1.47-1.15-3.9-.34l.82-2.32 21.56-5.4z" fill="#37474f"/><path d="m207.44 147.61.64-2c.35-1.08-2.66-.83-6.72.56l-9.36 1.83c-4.07 1.39-7.87 2.34-8.22 3.42l-.64 1.95z" fill="#37474f"/><path d="m215.91 163.7c1.78-2 1.67-2.26 1-3.45a6.79 6.79 0 0 0 -5.15-3.45c-1.88-.16-3.78-.42-4.81 0s-.44 2.53 2 3.37c3.75 1.31 3.61 2.36 3.61 2.36a50.26 50.26 0 0 0 -4.96-1.53c-1.42-.25-4.11.13-5.77.19s-2.23 2.13.45 3.18l-3 .13c-2.13.09-3 1.11-1.48 2.6a3.08 3.08 0 0 0 1.81.93s-2.23-.26-2.36.47c-.38 2.11.93 2.83 5.27 4.66 3.42 1.44 4.67 3.43 4.42 4.92l-.34.86s1.48-.93 3.14-1.81c1.22-.65 2.28-1.41 2-3.23 0 0 2.44.33 2.77-1.16a7.83 7.83 0 0 0 -.21-3.32 2.68 2.68 0 0 0 1.64-2.35 4.33 4.33 0 0 0 -.58-2.77z" fill="#c8856a"/><path d="m202.28 164.4a14 14 0 0 1 2.74 0 9.13 9.13 0 0 1 2.53 1.14 32.84 32.84 0 0 1 4.43 3.09 31 31 0 0 1 -4.83-2.4 14.58 14.58 0 0 0 -2.28-1.23c-.79-.2-1.73-.33-2.59-.6z" fill="#af6152"/><path d="m199.57 168.06a5.9 5.9 0 0 1 2.94.26 15.14 15.14 0 0 1 2.69 1.21 27.47 27.47 0 0 1 4.78 3.33c-1.8-.77-3.48-1.71-5.17-2.64a15.35 15.35 0 0 0 -5.24-2.16z" fill="#af6152"/><path d="m167.68 93h10.94a35.18 35.18 0 1 0 -4.2-10.94l-8.1 7.34a2 2 0 0 0 1.36 3.6zm29.61-48.14a32.24 32.24 0 0 1 22.36-.3l3.44 1.44a32.42 32.42 0 0 1 -26.38 59.19l-3.35-1.59a32.41 32.41 0 0 1 3.93-58.73z" fill="#455a64"/><path d="m197.29 44.85a32.24 32.24 0 0 1 22.36-.3l3.44 1.45a32.42 32.42 0 0 1 -26.38 59.19l-3.35-1.59a32.41 32.41 0 0 1 3.93-58.73z" fill="#fff"/><path d="m202.92 81.13v11.98h11.99v-11.98h11.98v-11.99h-11.98v-11.98h-11.99v11.98h-11.98v11.99z" fill="#516eb4"/></svg>