<svg height="2666.6667" viewBox="0 0 4000 2666.6667" width="4000" xmlns="http://www.w3.org/2000/svg"><g transform="matrix(.13333333 0 0 -.13333333 0 2666.6667)"><path d="m0 0h30000v20000h-30000z" fill="#fff"/><path d="m4602.93 11789.2c1312.09 451.4 1769.79 6771.4 7597.87 3611.4 1255-680.5 2809-546.6 4477.5-412.7 1413 113.3 2908.2 226.7 4373.6-154.4 2935.2-763.4 3002.7-2965.4 2631.6-3758.1-405.5-866.2 1211.5-1901.8 2867.6-2613 2597.8-1115.7 687.5-5036.6-1766.6-5055.4-2454.1-18.7-20484.14 37.3-20484.14 37.3s-4906.419 6552.7 302.57 8344.9" fill="#d3e4fe"/><path d="m18511 9682.7h5468v3856.3h-5468z" fill="#b2cbfd"/><path d="m18700.3 9883.2h5089.4v3455.4h-5089.4z" fill="#fff"/><path d="m23977.3 9682.7h36.2v3856.3h-36.2z" fill="#466aa5"/><g fill="#d6716b"><path d="m21601.6 12147.4c125.2 92.4 304.1 36.5 354.7-110.6 7.2-20.8 14.2-42.9 21-66.1 2-6.9 10.5-9.1 15.7-4.2l1.5 1.4c36.2 33 57.3 79.4 57.3 128.4l-45.7 411.6c-5.3 47.8 32.1 89.5 80.1 89.5h98.6c48 0 85.3-41.7 80.1-89.4l-45.8-414.2c0-49.6 21.2-97 58.6-129.5l.6-.6c5.3-4.7 13.5-2.2 15.5 4.5 7 24.2 14.3 47 21.7 68.6 50.6 147.1 229.4 203 354.6 110.6 511.2-377 497.9-983.8 437.6-1331.9-24.7-142.9-173.9-227.6-309.3-175.8l-331.5 126.7c-65.3 25-115.8 78.2-137.1 144.7-96.6 301.5-111.3 562.3-90.3 773.4 3.7 37.2-6.6 74.4-28.5 104.6l-.1.2c-39.5 54.6-68.7 68.9-79.6 68.7-13.1-.3-44.9-23.2-83.3-101.7-12.6-25.7-17.3-54.4-14.7-82.7 19.5-209.3 3.6-466.4-91.4-762.8-21.3-66.4-71.9-119.5-137-144.4l-331.5-126.7c-135.3-51.8-284.5 32.7-309.3 175.5-60.3 348-73.7 955.1 437.5 1332.2"/><path d="m19131.5 11447h1038.2c28.1 0 51.1-23 51.1-51.1s-23-51.2-51.1-51.2h-1038.2c-28.1 0-51.1 23.1-51.1 51.2s23 51.1 51.1 51.1"/><path d="m19131.5 11235.3h1038.2c28.1 0 51.1-23.1 51.1-51.2s-23-51.1-51.1-51.1h-1038.2c-28.1 0-51.1 23-51.1 51.1s23 51.2 51.1 51.2"/><path d="m19131.5 10999.9h1038.2c28.1 0 51.1-23 51.1-51.2 0-28.1-23-51.1-51.1-51.1h-1038.2c-28.1 0-51.1 23-51.1 51.1 0 28.2 23 51.2 51.1 51.2"/><path d="m19131.5 10764.5h1038.2c28.1 0 51.1-23 51.1-51.2 0-28.1-23-51.1-51.1-51.1h-1038.2c-28.1 0-51.1 23-51.1 51.1 0 28.2 23 51.2 51.1 51.2"/><path d="m19131.5 12559.6h1038.2c28.1 0 51.1-23 51.1-51.2 0-28.1-23-51.1-51.1-51.1h-1038.2c-28.1 0-51.1 23-51.1 51.1 0 28.2 23 51.2 51.1 51.2"/><path d="m19131.5 12347.8h1038.2c28.1 0 51.1-23 51.1-51.1s-23-51.2-51.1-51.2h-1038.2c-28.1 0-51.1 23.1-51.1 51.2s23 51.1 51.1 51.1"/><path d="m19131.5 12112.4h1038.2c28.1 0 51.1-23 51.1-51.1s-23-51.1-51.1-51.1h-1038.2c-28.1 0-51.1 23-51.1 51.1s23 51.1 51.1 51.1"/><path d="m19131.5 11877.1h1038.2c28.1 0 51.1-23.1 51.1-51.2s-23-51.1-51.1-51.1h-1038.2c-28.1 0-51.1 23-51.1 51.1s23 51.2 51.1 51.2"/><path d="m20431.2 12149.2h256.6c42.3 0 76.9 34.6 76.9 76.9v256.6c0 42.3-34.6 76.9-76.9 76.9h-256.6c-42.3 0-76.9-34.6-76.9-76.9v-256.6c0-42.3 34.6-76.9 76.9-76.9"/><path d="m20431.2 11036.7h256.6c42.3 0 76.9 34.6 76.9 76.8v256.6c0 42.3-34.6 76.9-76.9 76.9h-256.6c-42.3 0-76.9-34.6-76.9-76.9v-256.6c0-42.2 34.6-76.8 76.9-76.8"/></g><path d="m20681.9 11259.3-75.4-165.4-182.6 288.5 194.8-163.9z" fill="#fff"/><path d="m20681.9 12375.6-75.4-165.4-182.6 288.5 194.8-163.9z" fill="#fff"/><path d="m19410.9 13131.3h3668.1c24.7 0 44.6 19.9 44.6 44.5s-19.9 44.6-44.6 44.6h-3668.1c-24.6 0-44.5-20-44.5-44.6s19.9-44.5 44.5-44.5" fill="#d6716b"/><path d="m10734.8 3423.2h6076.5v10582.9h-6076.5z" fill="#deedff"/><path d="m11168.9 3423.2h5208.3v10131.4h-5208.3z" fill="#b2cbfd"/><path d="m18746.2 5446.8h7511.3c50.4 0 91.6 41.2 91.6 91.6v2696.1h-7184.2c-280.7 0-510.3-229.6-510.3-510.3v-2185.8c0-50.4 41.2-91.6 91.6-91.6" fill="#a8d29f"/><path d="m18220.4 5619.3h7615.1c276.6 0 503-226.4 503-503v-1172.4c0-276.7-226.4-503-503-503h-7615.1c-276.7 0-503 226.3-503 503v1172.4c0 276.6 226.3 503 503 503" fill="#a8d29f"/><path d="m25296.8 5579.5h590v2250.9c0 222.3 181.9 404.1 404.1 404.1h55.9c13.6 0 24.8-11.1 24.8-24.7v-2669-509.1-1552.1c0-21.3-17.4-38.7-38.7-38.7h-1707.9c-21.2 0-38.6 17.4-38.6 38.7v1389.5c0 390.7 319.7 710.4 710.4 710.4" fill="#66a357"/><path d="m24590 8215.4s563.1 54.1 758.3-270c195.3-324 0-1543 165.2-1759s360.4-347.2 352.9-601.8l-1211-12.9s-1064.7-38.3-1057-605.6c7.8-567.2 0-1548.4 0-1548.4h-609.4s-27.4 2518 589.4 2665.9c1352.6 324.3 1011.6 2131.8 1011.6 2131.8" fill="#82b378"/><path d="m18621.6 5709 33-1.2v2107.6c0 231.2 187.4 418.7 418.7 418.7h1291.8s266.1-879.9 300.8-1177.1c34.8-297.1 1053.1-308.5 1192-674.2 138.8-365.7 162-777.1 162-777.1h-516.9s-20.2-6.8-54.7-21.8c-203.5-88.3-904.1-462.7-894.2-1424.4v-711.6h-2557.3s-405.1 2089 624.8 2261.1" fill="#82b378"/><path d="m22992.1 6611.5s-106.3 32.4-143.6 13.2c-37.2-19.2-137.3-79.2-128.8-124.8 8.6-45.6 185.7-73.8 292-2.9 106.4 70.8-19.6 114.5-19.6 114.5" fill="#e49963"/><path d="m23346.5 3585.5c0-29.9-14.8-50.5-39.9-64.3l-.3-.2c-46.4-25.5-120.4-5.9-209-2-11.3.4-129-49.9-295.5-64.2-189.9-16.2-259.9 41.9-271 68.3-9.5 22.5 72 47.9 163 77 4.4 1.4 8.8 2.9 13.3 4.3 12.1 3.8 24.3 7.8 36.4 11.8 108.4 36 215.1 78.7 241.7 188.4 28.3 116.4-56.6 441.1-56.6 441.1l300.9 32.5s29-339.5 47.9-445.2c10.2-56.5 35.8-101.4 50.8-149.8 1-3.4 2-6.8 3-10.2 7.7-28.4 15.4-57.4 15.3-87.5" fill="#d38957"/><path d="m23346.5 3585.5c0-29.9-14.8-50.5-39.9-64.3l-.3-.2c-67.2-43.2-186.6 16.9-381-72.7-8.3-3.9-73.6.6-118.9 1.2-59 .9-144-4.5-164-1.2-91.7 14.7-105.4 60-111.6 74.8-9.5 22.5 72 47.9 163 77 25.6-9.9 147.3-52.1 291.4-24.8 126.6 23.8 252.5 86.8 343 107.9 1-3.4 2-6.8 3-10.2 7.7-28.4 15.4-57.4 15.3-87.5" fill="#2f5791"/><path d="m23316.2 3532.6-44.4-82.9h-96.4v60.7z" fill="#2f5791"/><path d="m24901.1 6479.3-974 92.9s-1490.8-6.8-1629.6-203.6c0 0-266.2-184.5 34.7-947.1 300.8-762.5 654.2-1524.7 654.2-1524.7s90-24.6 213.4-15c48.8 3.8 114.5 20.5 114.5 20.5s-67.9 1138-218.4 1580.7c-150.4 442.8-196.7 356.7 69.5 332.1 266.1-24.6 1122.4-221.4 1515.9-172.2 393.4 49.2 219.8 836.4 219.8 836.4" fill="#2c3a64"/><path d="m23534.3 3585.5c-.1-29.9-14.9-50.5-39.9-64.3l-.4-.2c-46.4-25.5-122.4 30.4-468.9-51.6-185.4-43.9-295.4 27.3-306.6 53.7-9.4 22.5 72 47.9 163.1 77 4.4 1.4 8.8 2.9 13.2 4.3 12.2 3.8 24.4 7.8 36.5 11.8 108.3 36 215 78.7 241.7 188.4 28.2 116.4-56.7 441.1-56.7 441.1l300.9 32.5s29-339.5 47.9-445.2c10.2-56.5 35.8-101.4 50.8-149.8 1.1-3.4 2.1-6.8 3-10.2 7.7-28.4 15.4-57.4 15.4-87.5" fill="#e49963"/><path d="m20206.3 3585.5c-.1-29.9-14.8-50.5-39.9-64.3l-.4-.2c-46.3-25.5-127.7-28-216.3-24.2-11.3.5-21.5.8-30.6.8-2.4 0-4.8 0-7.1-.1-1.9 0-3.7-.1-5.5-.1-87.6-2.1-78.4-28.3-244.9-42.6-189.9-16.2-259.9 41.9-271.1 68.3-9.4 22.5 72.1 47.9 163.1 77 4.4 1.4 8.8 2.9 13.3 4.3 12.1 3.8 24.3 7.8 36.4 11.8 108.4 36 215.1 78.7 241.7 188.4 28.3 116.4-56.6 441.1-56.6 441.1l300.9 32.5s29-339.5 47.9-445.2c10.2-56.5 35.8-101.4 50.7-149.8 1.1-3.4 2.1-6.8 3.1-10.2 7.7-28.4 15.4-57.4 15.3-87.5" fill="#e49963"/><path d="m20206.3 3585.5c-.1-29.9-14.8-50.5-39.9-64.3l-.4-.2c-49.3-22.8-129.4-26.1-216.1-23.6-11.4.3-21.6.3-30.8.2-2.4 0-4.8 0-7.1-.1-1.9 0-3.7-.1-5.5-.1-87.6-2.1-78.4-28.3-244.9-42.6-189.9-16.2-259.9 41.9-271.1 68.3-9.4 22.5 72.1 47.9 163.1 77 25.6-9.9 147.3-52.1 291.3-24.8 126.7 23.8 252.6 86.8 343 107.9 1.1-3.4 2.1-6.8 3.1-10.2 7.7-28.4 15.4-57.4 15.3-87.5" fill="#c65447"/><path d="m18253.9 3969.6c-16.7-83.6-135.8-69.6-268.9-37.1s-101.4-6.1-290.8 14.8c-189.4 21-246.8 91.6-252.6 119.8-5.1 25 88.4 33.8 188.8 45.3 12.6 1.4 25.3 3 38 4.6 113.3 14.2 196.3 87.3 299.3 147.4 97.5 56.9 243 288.6 243 288.6l259.7-20.5s-136.3-207-189-297.1c-31-52.9-29.4-122.9-25.5-177 2-29.3 3.9-59.4-2-88.8" fill="#e49963"/><path d="m17985 3932.5c-133.1 32.5-101.4-6.1-290.8 14.8-189.4 21-246.8 91.6-252.6 119.8-5.1 25 88.4 33.8 188.8 45.3l.9-1.9s113.6-80.5 271.3-84.3c128.5-3.1 264.6 33.7 353.3 32.2 2-29.3 3.9-59.4-2-88.8-16.7-83.6-135.8-69.6-268.9-37.1" fill="#c65447"/><path d="m18831.8 7784.5s-61.8 151.6-129.9 157.8-284.7 40.2-300.2 9.3c-15.4-31 0-142.3 46.5-182.6 46.4-40.2 334.1-105.2 334.1-105.2z" fill="#e49963"/><path d="m19249.3 5630.4 559.8-1506.5s86-8.3 168.4 15.5c75.9 21.8 162.8 79.3 162.8 79.3s-138.8 1446.4-393.4 1747.3-497.6-335.6-497.6-335.6" fill="#365da4"/><path d="m21642.6 6311.6c-114.7-45.9-241.8-50.5-359.4-12.9-430.2 137.5-1502.3 461.2-1787 369.3-358.8-115.7-1435.9-2258.6-1435.9-2258.6s24.3-32.3 90.7-57.2c61.7-23.2 211.1-21.7 211.1-21.7s972 833.2 1087.8 1076.2c115.7 243 162 474.4 277.7 451.3s1492.8-567 1805.2-243 230.7 745 230.7 745z" fill="#466aa5"/><path d="m20480.4 8770c-25.7 53.1-54.4 147.3-68.4 315.2 2.1-16.7 31.1-228.5 112.5-348.3 334.5-219.7 975.7-953 963-1092 0 0 225.8 383.1 229.7 385.4 0 0 416.6 529.7-77.1 833.2-251 154.2-249.7 352.2-239.2 524.1 10.6 172-68.4 912.2-571.1 718.5 0 0-80.7 35.8-116.8 30.4 0 0 29.5-5.6 44.5-21.1-58.3 3.4-141.6-.9-211.2-40.4-184.2-104.7-349.2-1044.2-65.9-1305" fill="#b74b42"/><path d="m20544.3 8725.9c-1.7-.7 161.5-85.5 284.3-51.9 115.4 31.5 190.9 181.2 189.3 181.5-48.9 9.8-63 77-62 365.7l-22.1-4.4-371.7-73.5s8.5-117 8.7-227.2c.3-92.5-5.3-180.3-26.5-190.2" fill="#e49963"/><path d="m20562.1 9143.3s8.5-117 8.7-227.2c208 5.9 318 195.6 363 300.7z" fill="#d68d5d"/><path d="m20972.2 9257.3s109 172.2 135.2 319.5c18.6 105.1-34.9 494.8-426.5 438.7 0 0-113.8-11.2-220.7-83.4-85-57.4-207.7-181.4-70.5-521.5l35.6-114.9z" fill="#b74b42"/><path d="m20492.7 9038.9s492.1-8.1 492.4 298.4 64.1 511.9-250.1 530.1c-314.2 18.1-375.3-98.8-400.3-201.1-25-102.2 30-617.4 158-627.4" fill="#e49963"/><path d="m20957.3 9810.3s-336.1 229.8-442.4 70.9c-32.2 27.6-89.7 47.6-165.6-44.4-114.1-138.3-12.6-382.7-12.6-382.7 46.9-5.5 57.9 155.2 82.4 233.3 18.5 58.8 80.3 118.9 109.5 144.9 43-96.7 161.1-328.4 323.8-370.2 206.8-53.2 296.5 2.2 296.5 2.2s-158.6 126-191.6 346" fill="#b74b42"/><path d="m21640.1 7402.1c48.5 203.5-116.6 598.4-288.9 925.4-156.4 296.3-318.7 536.7-333.3 528.1-412.5-244.8-449.7-41.3-449.7-41.3s-374.7-49.8-480.7-232.4c-146.8-252.5-306.6-1010.3-463.6-999.1-72 5.2-797.2 277.8-797.2 277.8s-120.8-113.2-97.7-252.1c0 0 358.1-239.8 660.9-392.8 160.1-80.9 304.9-137.5 372.9-121.5 138 32.5 353.4 352.3 469.8 540.5l.8 1.3c148.6-841.1-53.4-1032.7 48.9-1121.4 108-93.7 262.3 44.6 601.7-102.5 222.7-96.6 531.7-236.3 739.7-260.6 109-12.8 190.4 6.2 217 79.9 77.1 214.1-293.2 782.7-200.6 1170.7" fill="#699dee"/><path d="m20602.1 9224.7s-9.2-38.9-106.1-32.9c0 0-81.3 5-78.8 47.8 0 0 78.8 30.5 184.9-14.9" fill="#fff"/><path d="m21840.7 6231.4c-26.6-73.7-108-92.7-217-79.9-144 62.8-765.9 303.7-759 466.9 10.4 241.8 119.6 249.5 42.5 547.8-62 239.6 512.7 685 604.3 781.8 172.4-327 177.1-342.4 128.6-545.9-92.6-388 277.7-956.6 200.6-1170.7" fill="#3b76ca"/><path d="m20232.6 7634.7c-116.4-188.2-331.8-508-469.8-540.5-68-16-212.8 40.6-372.9 121.5 116.8-30.1 230.4-29.3 340.7-18.6 119.6 11.5 154.3 158.1 343.4 378 122.5 142.6 152.6 106.7 158.6 59.6" fill="#3b76ca"/><path d="m20808.8 7172s-104.2 81-202.5 61.7c-98.4-19.3-146.6-86.8-142.7-117.6 3.8-30.9 55.9-117.7 131.1-125.4s289.3 46.3 289.3 46.3z" fill="#e49963"/><path d="m21017.9 8855.5s401.1-24.7 539.9-218.3c195.4-272.6 664.5-1485.1 442.3-1640.1-250.2-174.5-1220.2 5.2-1220.2 5.2s-29.6 138.2 11.5 205.1c41.2 66.8 709.8 174.8 740.7 205.7 30.8 30.9-385.8 601.8-385.8 694.3 0 92.6-128.4 748.1-128.4 748.1" fill="#699dee"/><path d="m25037.3 6410.1-913.5 77.2s-1490.8-6.5-1629.6-197.1c0 0-225.3-141.1 75.6-879.7 300.9-738.5 605.6-1551.3 605.6-1551.3s67.5-9.3 149.2-2.6c102.7 8.3 136.9 41.7 136.9 41.7s-21.2 1010.6-171.7 1439.4c-150.4 428.9-208.2 385.2 57.9 361.4 266.2-23.9 1014.5-210.5 1530.3-111.7 389.5 74.5 159.3 822.7 159.3 822.7" fill="#35488b"/><path d="m22718.5 3523.1c6.1-14.3 19-57.1 102.6-73.3h295.5c101.8 46.3 182.8 51.5 246.5 52.6 56.6.8 99.4-1.6 130.9 18.6l.4.2c1.4.9 3 1.7 4.4 2.6 22.4 13.8 35.4 33.6 35.5 61.7 0 30-7.7 59.1-15.4 87.5-.9 3.4-1.9 6.9-3 10.2-90.5-21-216.3-84.1-343-107.9-144-27.3-265.8 14.9-291.3 24.8-91.1-29.1-172.6-54.5-163.1-77" fill="#365da4"/><path d="m23503.9 3532.5-44.3-82.9h-96.5v60.7z" fill="#365da4"/><path d="m23328.2 7087.5c65.7 93.1 69.6 1266.8 108.2 1444.3 38.5 177.4 371.6 282.5 371.6 282.5s-61.7-598.1-133.9-1142c-58.3-440-65.2-859.1-110.1-883.2-100.2-54-388.9-272.4-519.4-253.8l-78.8 70.1c-14.9 13.1-11.4 36.8 6.2 45.8 140.1 71.3 307.4 367 356.2 436.3" fill="#ee9849"/><path d="m23786.2 10075c62.3 50.1 152.8 43.8 211.1 40.4-15 15.5-44.5 21.1-44.5 21.1 36.1 5.4 116.8-30.4 116.8-30.4s305.5 156.4 446.9-244.8c0 0-24.3 30.3-57.8 64.7 81.8-230.8-.9-579.9-258.5-642-167.5-40.4-1053.1 277.7-414 791" fill="#163560"/><path d="m23784.1 8725.9c-1.7-.7 161.5-85.5 284.3-51.9 115.4 31.5 190.9 181.2 189.3 181.5-48.9 9.8-63 77-62 365.7l-22.1-4.4-371.7-73.5s8.5-117 8.7-227.2c.3-92.5-5.3-180.3-26.5-190.2" fill="#e49963"/><path d="m23801.9 9143.3s8.5-117 8.7-227.2c208 5.9 318 195.6 363 300.7z" fill="#d68d5d"/><path d="m24212 9257.3s109 172.2 135.2 319.5c18.6 105.1-34.9 494.8-426.5 438.7 0 0-113.8-11.2-220.7-83.4-85-57.4-207.7-181.4-70.5-521.5l35.6-114.9z" fill="#163560"/><path d="m23732.5 9038.9s492.1-8.1 492.4 298.4 64.1 511.9-250.1 530.1c-314.2 18.1-375.3-98.8-400.3-201.1-25-102.2 30-617.4 158-627.4" fill="#e49963"/><path d="m23612.1 8360.2c8.6 35-65 61.2-83.1 30.1-33.8-58.3-40.5-131.7-54-190.3-38.6-167.1 0-396 0-396z" fill="#e58638"/><path d="m23589.1 9836.8c75.9 92 133.4 72 165.6 44.4 106.3 158.9 442.4-70.9 442.4-70.9 32.9-220 191.6-346 191.6-346s-89.7-55.4-296.5-2.2c-162.7 41.8-280.8 273.5-323.8 370.2-29.2-26-91-86.1-109.5-144.9-24.5-78.1-35.5-238.8-82.4-233.3 0 0-101.5 244.4 12.6 382.7" fill="#163560"/><path d="m23841.9 9224.7s-9.2-38.9-106.1-32.9c0 0-81.3 5-78.8 47.8 0 0 78.8 30.5 184.9-14.9" fill="#fff"/><path d="m23453.8 7740s62.4-893-120.4-1094.5l374.8 236.5z" fill="#e58638"/><path d="m23444.9 7783.4c199.5-961.4 32.6-1109 136.2-1203.5l92.6-40.5c108-93.7 110.7 19.8 450.1-127.3 161.7-70.2 369-163 550.1-218 68.2-20.6 132.6-35.9 189.6-42.6 109.1-12.8 190.4 6.2 217 79.9 77.1 214.1-293.2 782.7-200.6 1170.7.8 3.3 1.5 6.7 2.2 10 6.7 33.9 8 72.9 4.5 115.6-17.3 216.5-154 531.1-295.6 799.8-156.4 296.3-318.7 536.7-333.3 528.1-412.5-244.8-449.7-41.3-449.7-41.3s-431.1-703-363.1-1030.9" fill="#ee9849"/><path d="m23640.9 6552.9c108-93.7 143.5 6.3 482.9-140.8 161.7-70.2 369-163 550.1-218 92.5-16.1 161.4-30.3 189.6-42.6 109.1-12.8 190.4 6.2 217 79.9 77.1 214.1-293.2 782.7-200.6 1170.7.8 3.3 1.5 6.7 2.2 10 8 38.3 9.1 76.6 4.5 115.6-19.5 164.5-140.5 343-277.5 602.9-91.6-96.8-780 15.4-617.2-941.2 49.9-293.3-308.2-408.9-351-636.5" fill="#e58638"/><path d="m23674.3 6504s-151.7 36-221.2 7.7c-69.4-28.3-208.3-100.3-195.4-138.8 12.9-38.6 177.4-59.2 246.9-20.6 69.4 38.6 120.8-10.3 205.7 18s-36 133.7-36 133.7" fill="#e49963"/><path d="m24257.7 8855.6s559.6-7.5 659.9-277.6c100.3-270 69.5-1218.9-77.1-1504.4-146.6-285.4-979.8-671.2-1072.4-686.6s-150.4 127.3-146.6 142.7c3.9 15.5 875.7 721.4 871.8 794.7s-235.6 1531.2-235.6 1531.2" fill="#ee9849"/><path d="m9322.04 9056.2s114.31 133.4 7.05 218.1c0 0-78.35 47.4-142.23 43.6 0 0 90.52-151.8 61.24-166.9-29.3-15.1-88.68 176.4-88.68 176.4s-178.3 17.3-235.66-10.3c0 0 152.43-124.7 120.33-132.1-32.11-7.5-196.74 115-196.74 115s-165.94-28.3-157.09-129.5 66.02-132.5 91.16-129.8c25.12 2.7 172.13 58.8 175.33 38.2 3.21-20.6-85.29-87.9-147.25-91 0 0 116.99-129 194.75-91.8 77.75 37.2 84.39 96.3 132.85 118.4 48.47 22.1 89.85 22.1 69.84-.5s-107.73-44.5-135.45-93.6c-27.72-49-52.59-82.1 27.86-70 80.44 12.2 211.21 71 216.95 138.4s5.74 67.4 5.74 67.4" fill="#82b378"/><path d="m8771.79 9167.8s450.71 17.3 550.25-111.6c0 0 22.01-65.9 89.75-125.9l10.56-28.8s-78.1 82.3-106.05 87.3c0 0 43.7 159.7-544.51 179" fill="#82b378"/><path d="m9411.79 8930.3s96.74-71.6 103.46-199.4l-17.55-1.6s-30.9 132.2-86.75 183.9.84 17.1.84 17.1" fill="#82b378"/><path d="m9721.71 9223.9s-181.84 101.9-96.98 240.1c0 0 67.89 84.8 140.62 106.7 0 0-38.79-206.1 0-211 38.8-4.8 26.67 232.8 26.67 232.8s191.54 92.1 266.68 84.8c0 0-118.78-201.2-79.99-196.4 38.79 4.9 172.09 208.6 172.09 208.6s196.4 36.3 228-80.1c31.5-116.3-19.4-174.5-48.5-181.8s-215.8-4.8-211-29.1c4.9-24.2 131-63 201.3-41.2 0 0-77.6-191.5-179.4-181.9-101.9 9.7-133.4 72.8-196.43 77.6-63.04 4.9-109.11-12.1-77.59-29.1 31.52-16.9 138.22-5.5 189.12-48.8s92.1-70-2.4-89.4c-94.58-19.4-264.31-7.2-298.25 65.5s-33.94 72.7-33.94 72.7" fill="#a8d29f"/><path d="m10289.1 9573.1s-509.2-164.9-567.39-349.2c0 0 2.43-82.4-48.49-176.9v-36.4s53.34 123.6 82.43 140.6c0 0-113.95 160 533.45 421.9" fill="#82b378"/><path d="m9673.22 9047s-78.52-119.3-33.76-264.4l20.21 5.4s-19.61 159.9 21.47 240.3-7.92 18.7-7.92 18.7" fill="#82b378"/><path d="m9432.42 9364.4s239.69 134.2 127.84 316.4c0 0-89.49 111.8-185.37 140.6 0 0 51.14-271.7 0-278-51.14-6.4-35.15 306.8-35.15 306.8s-252.49 121.4-351.56 111.8c0 0 156.6-265.2 105.46-258.8-51.13 6.4-226.91 274.8-226.91 274.8s-258.87 47.9-300.42-105.5 25.57-230.1 63.92-239.7c38.35-9.5 284.44-6.3 278.05-38.3-6.4-32-172.59-83.1-265.27-54.3 0 0 102.27-252.5 236.51-239.7 134.23 12.7 175.77 95.8 258.87 102.2 83.09 6.4 143.82-16 102.27-38.3-41.55-22.4-182.17-7.3-249.29-64.4-67.11-57.1-121.44-92.2 3.2-117.8s348.36-9.6 393.11 86.3c44.74 95.9 44.74 95.9 44.74 95.9" fill="#a8d29f"/><path d="m8684.56 9824.6s671.15-217.3 747.86-460.2c0 0-3.2-108.7 63.92-233.3v-48s-70.31 163-108.66 185.4c0 0 150.21 210.9-703.12 556.1" fill="#82b378"/><path d="m9496.34 9131.1s103.5-157.2 44.49-348.5l-26.63 7.1s25.85 210.8-28.3 316.7c-54.15 106 10.44 24.7 10.44 24.7" fill="#82b378"/><path d="m9440.49 8367.7c-259.31 0-469.53 210.2-469.53 469.5h939.06c0-259.3-210.21-469.5-469.53-469.5" fill="#f1a34f"/><path d="m9324.96 8371.3c19.09-2.4 38.57-3.6 58.34-3.6 259.3 0 469.5 210.2 469.5 469.5h-116.65c0-239.6-179.4-437.2-411.19-465.9" fill="#ffb973"/><path d="m8964.48 8343.8h952.03c0 32-25.93 57.9-57.93 57.9h-836.17c-31.99 0-57.93-25.9-57.93-57.9" fill="#f1a34f"/><path d="m8960.28 8822.8h965.19v14.4h-965.19z" fill="#d86713"/><path d="m7728.98 8463.6s109.67 36.5 162.65 25.5c52.96-10.9 217.35-87.7 221.01-104.1 3.65-16.4 0-28.3 0-28.3h-383.66s-85.77 16.7-100.38 67.3c-14.61 50.5 100.38 39.6 100.38 39.6" fill="#ffb27d"/><path d="m6297.55 3629.4c2.94-31.4 20.36-51.6 47.99-63.7l.42-.1c51.1-22.4 136.77-17.3 229.37-4.9 11.86 1.6 22.52 2.9 32.08 3.8 2.5.2 5.01.4 7.45.5 1.95.2 3.89.3 5.76.5 92.19 6.1 84.97-22.3 261.16-21.5 200.83 1.1 268.75 68.7 277.97 97.6 7.74 24.4-80.19 43.4-178.51 65.3-4.76 1-9.51 2.1-14.34 3.1-13.08 2.9-26.26 6-39.34 9-117.2 27.5-233.26 62.2-271.64 174.8-40.71 119.4-31.07 473.8-31.07 473.8h-355.68s93.36-391.5 83.59-504.3c-5.31-60.3-34.13-77.4-45.23-129.6-.81-3.7-1.54-7.3-2.19-11-5.39-30.5-10.73-61.8-7.79-93.3" fill="#ad7041"/><path d="m5883.68 7459.7c30.02-168.6 72.84-342.7 110.04-523.8 59.76-291.2 104.86-600.6 58.69-933.7-5.9-42.9-9.11-90.2-9.81-141.1-8.97-588.8 254.12-1655.8 254.12-1655.8s71.45-30.8 191.2-24.9c61.65 3.1 156.27 42.8 156.27 42.8s24.89 661.6 26.39 1551.3c1.08 644.9 127.7 1494 153.28 1993 15.49 301.9-18.13 704.2-18.13 704.2s-524.4 421.7-712.77 205.9c-186.09-213.2-321.6-587.5-209.28-1217.9" fill="#415da5"/><path d="m6052.41 6002.2c-5.9-42.9-9.11-90.2-9.81-141.1 392.73 569 479.58 1809.8 479.58 1809.8l-431.36-209.3s-47.3-232.7-97.1-525.7c59.76-291.2 104.86-600.6 58.69-933.7" fill="#355493"/><path d="m5162.95 3629.4c2.93-31.4 20.36-51.6 47.99-63.7l.42-.1c51.1-22.4 136.77-17.3 229.36-4.9 11.86 1.6 22.52 2.9 32.08 3.8 2.51.2 5.02.4 7.45.5 1.95.2 3.9.3 5.76.5 92.2 6.1 84.98-22.3 261.16-21.5 200.83 1.1 268.75 68.7 277.97 97.6 7.75 24.4-80.19 43.4-178.51 65.3-4.75 1-9.5 2.1-14.34 3.1-13.08 2.9-26.25 6-39.34 9-117.2 27.5-233.26 62.2-271.64 174.8-40.71 119.4 17.46 468.3 17.46 468.3l-329.5 27.6s20.44-397.6 10.66-510.4c-5.31-60.3-35.9-93.4-47.01-145.6-.81-3.7-1.53-7.3-2.18-11-5.4-30.5-10.73-61.8-7.79-93.3" fill="#ad7041"/><path d="m5209.4 4175.2s84.7-40.1 145.69-52.3 187.68 11.6 187.68 11.6c22.85 256.2 75.95 656.9 179.12 1108.9 117.5 514.7 292.32 1122.9 536.06 1698.9 52.06 123 266.75 705.2 303.17 852.2 110.17 443.9-.43 396.1-.43 396.1l-962.9 113s-118.63-61-173.26-687.9c-16.35-187.7-18.36-998.4-43-1152-23.33-145.6-50.65-266.6-82.69-345.2-178.88-439.1-89.44-1943.3-89.44-1943.3" fill="#415da5"/><path d="m5162.95 3629.4c2.93-31.4 20.36-51.6 47.99-63.7l.42-.1c54-19.3 138.37-15.2 229.15-4.3 11.88 1.4 22.56 2.4 32.29 3.2 2.51.2 5.02.4 7.45.5 1.95.2 3.9.3 5.76.5 92.2 6.1 84.98-22.3 261.16-21.5 200.83 1.1 268.75 68.7 277.97 97.6 7.75 24.4-80.19 43.4-178.51 65.3-25.86-12.8-149.62-68.8-303.41-53.8-135.23 12.9-273.3 67.1-370.3 80.6-.81-3.7-1.53-7.3-2.18-11-5.4-30.5-10.73-61.8-7.79-93.3" fill="#b84c42"/><path d="m6297.55 3629.4c2.94-31.4 20.36-51.6 47.99-63.7l.42-.1c54-19.3 138.38-15.2 229.16-4.3 11.87 1.4 22.55 2.4 32.29 3.2 2.5.2 5.01.4 7.45.5 1.95.2 3.89.3 5.76.5 92.19 6.1 84.97-22.3 261.16-21.5 200.83 1.1 268.75 68.7 277.97 97.6 7.74 24.4-80.19 43.4-178.51 65.3-25.87-12.8-149.63-68.8-303.41-53.8-135.23 12.9-273.31 67.1-370.3 80.6-.81-3.7-1.54-7.3-2.19-11-5.39-30.5-10.73-61.8-7.79-93.3" fill="#b84c42"/><path d="m6682.75 11186.8c32.53 265.6-50.43 690.6-580.57 622.7s-697.2-588.9-590.29-820.6c106.92-231.6-153.91-287.5-235.8-536.6-70.34-214-94.85-479.7-208.69-599-366.99-384.5 352.35-975.7 785.99-851 789.88 227.1 891.62 261 863.58 881.6-14.37 318-261.76 441.2-104.68 533.2 379.44 222.2-3.13 168.7 70.46 769.7" fill="#2b478b"/><path d="m5903.75 10491.2 145.76-377.3 315.56-15.4 157.14 235.4c-178.27 135.1-170.73 393.8-161.98 484.1 2 20.4 3.98 32.2 3.98 32.2l-394.44 120.1c-4.77-104.3-10.6-185.9-16.86-249.7-22.05-224-49.16-229.4-49.16-229.4" fill="#ffb27d"/><path d="m6523.39 10504.8c-20.28 0-364.55 70.1-945.96-78.6 0 0 318.41-1458.9 210.24-1733.9-108.17-274.9-149.28-519-149.28-519l1173.47-14.5s-16.41 943.8 37.68 1277.8c54.08 334-326.15 1068.2-326.15 1068.2" fill="#ffb27d"/><path d="m5658.25 8877.6c-17.16-193.1-197.58-634.4-158.55-728.4 40.9-98.7 97.73-148.7 222.05-177.3 85.71-19.7 203.44-29.2 370.13-37.5 353.53-17.6 732.37 26.8 783.92 194.9 24.71 80.7 15.19 392.8 2.1 536.9-27.08 298.1 29.67 726 37.97 1002.8 6.83 231-132.46 756.5-132.46 756.5s-62.83 39.6-260.02 79.3c0 0-20.74-272.9-163.19-296.4-246.29-40.7-444.77 184.9-502.74 275.8 0 0-282.88-71.4-365.89-166.1-78.63-89.6 28.94-753.5 52.85-817.1 20.65-54.7 40.16-108 57.16-161.6 44.96-141.4 72.45-285 56.67-461.8" fill="#7a97f3"/><path d="m4651.04 8462.7s-109.67 36.1-162.64 25.3c-52.97-10.9-217.36-86.9-221.01-103.2s0-28.1 0-28.1h383.65s85.77 16.6 100.39 66.7c14.61 50.1-100.39 39.3-100.39 39.3" fill="#ffb27d"/><path d="m5952.91 10695.6c143.91 96.5 324.8 101.3 407.32 97.4 2 20.4 3.98 32.2 3.98 32.2l-394.44 120.1c-4.77-104.3-10.6-185.9-16.86-249.7" fill="#e8945b"/><path d="m6467.2 10823.4s-472.2-94.9-526.73 200.1-152.2 481.4 146.98 554.4c299.19 73 378.74-28.6 420.88-122.7 42.15-94 80.29-599.6-41.13-631.8" fill="#ffb27d"/><path d="m5849.04 11558.4c79.91 89.9 195.18 107.4 279.21 105.9-50.65 61.4 153.08 196 386.02-33.5 100.36-98.9 85.2-293.4 31.44-406.1 0 0-82.55 241.7-232.8 294.4-33.45 11.7-65.2 31.3-94.36 54.6-18.3-46-55.11-111-129.14-191.9-155.3-169.8-125.03-513.1-125.03-513.1s-254.97 532.6-115.34 689.7" fill="#2b478b"/><path d="m6320.08 10968.5s12.63-35 101.53-19.1c0 0 74.64 13.3 67.77 52.6 0 0-76.14 19.7-169.3-33.5" fill="#fff"/><path d="m5024.55 9169c178.64 689.3 276.62 1082.9 422.98 1202 129.43 105.3 408.54 115 408.54 115 4.33-82.9.42-166.1-9.74-248.5l343.35-654.3s175.92-348.1 238.44-728.8c47.21 378.1 94.09 728.8 94.09 728.8s44.28 223.7 58.23 428.4c-41.38 159.7-37.06 326.3-56.48 493.2l21.6-1.2c67.8-4.8 279.18-26.3 386.94-114.8 146.36-120.1 179.19-647.8 422.98-1212.6 0 0 295.4-496.7 389.44-693.8 0 0-17.62-26.9-52.85-47.2-34.15-19.7-77.25-27.5-77.25-27.5s-532.89 524.7-567.9 607.7c-11.52 27.3-76 123-156.03 263.8 0 0-21.24-749.8 25.31-1073.4 9.86-68.5-22.97-136.1-83.23-170.1-329.11-185.9-1315.04-692.3-1498.51-200.5-20.57 55.2 339.74 991.8 290.42 1194.6-15.78 64.8-36.6 212.8-57.63 383.9-112.9-216.5-219.03-368.6-234.14-404.1-35.02-82.2-567.9-602.4-567.9-602.4s-43.1 7.8-77.25 27.3c-35.24 20.1-52.85 46.8-52.85 46.8 94.04 195.3 389.44 687.7 389.44 687.7" fill="#e9f2ff"/><path d="m5874.65 10488 315.03-904.8-314.99 297.9 23.82 92.6s-72.4-6.5-101.78 12.5-97.79 481.5-97.79 481.5 64.1 10.8 85.36 13.2c22.67 2.6 90.35 7.1 90.35 7.1" fill="#b2cbfd"/><path d="m6523.96 10504.8s66.32-715.2-1.75-921.6c0 0 194.94 308.7 158.42 372.6l-70.65 46.6s136.4 17.7 110.83 96.1-135.17 396.2-135.17 396.2z" fill="#b2cbfd"/><path d="m10113.4 3427.1h-7512.01v2467l7512.01 24.6z" fill="#699ff0"/><path d="m2601.39 7246.6h7512.01v645.098h-7512.01z" fill="#699ff0"/><path d="m2429.48 7891.7h7841.52c114.7 0 207.7 93 207.7 207.7v49.6c0 114.7-93 207.7-207.7 207.7h-7841.52c-114.71 0-207.7-93-207.7-207.7v-49.6c0-114.7 92.99-207.7 207.7-207.7" fill="#466aa5"/><path d="m5696.56 9600.5 216.62 13.4c14.58.9 25.68 13.4 24.77 28l-5.96 96.9c-.9 14.6-13.45 25.7-28.03 24.8l-216.61-13.4c-14.59-.9-25.68-13.4-24.78-28l5.97-96.9c.89-14.6 13.44-25.7 28.02-24.8" fill="#2b478b"/><path d="m5834.08 9637.9 70.57 4.4-5.82 94.6-70.58-4.4z" fill="#e9f2ff"/><path d="m5705.26 9701.2 87.85 5.4c6.5.4 11.49 6.1 11.09 12.6s-6.05 11.5-12.55 11.1l-87.85-5.4c-6.5-.4-11.49-6.1-11.09-12.6s6.05-11.5 12.55-11.1" fill="#e9f2ff"/><path d="m5699.95 9668.1 102.49 6.3c2.48.2 4.38 2.3 4.22 4.8-.15 2.5-2.3 4.4-4.78 4.2l-102.48-6.3c-2.48-.1-4.38-2.3-4.23-4.8.15-2.4 2.31-4.4 4.78-4.2" fill="#e9f2ff"/><path d="m5700.85 9653.5 102.48 6.3c2.49.1 4.39 2.3 4.23 4.8-.15 2.4-2.3 4.3-4.78 4.2l-102.48-6.3c-2.48-.2-4.38-2.3-4.23-4.8.16-2.5 2.31-4.4 4.78-4.2" fill="#e9f2ff"/><path d="m6384.91 8821.3c0 18.8-15.23 34-34.02 34s-34.02-15.2-34.02-34 15.23-34 34.02-34 34.02 15.2 34.02 34" fill="#2b478b"/><path d="m6384.91 8607.8c0 18.8-15.23 34.1-34.02 34.1s-34.02-15.3-34.02-34.1c0-18.7 15.23-34 34.02-34s34.02 15.3 34.02 34" fill="#2b478b"/><path d="m2701.13 5894.4v467c61.12-158.8 125.66-314.4 192.53-466.4z" fill="#b7d2fb"/><path d="m2893.66 5895c-66.87 152-131.41 307.6-192.53 466.4v885.2h2709.96c-7.06-303.9-13.51-682.8-29.56-782.9-23.33-145.6-50.65-266.6-82.69-345.2-22.92-56.3-41.42-130-56.29-215.8zm2999.51 9.9c51.47 176.9 108.9 357.9 172.69 539.4 3.59-53.1 5.57-106.7 5.56-160.9-.02-91.9-5.75-185.6-19.01-281.2-4.15-30.2-6.97-62.6-8.52-96.8zm779.27 2.5c10.8 426.5 66.29 920.5 108.01 1339.2h3233.15v-1327.9z" fill="#b3cffb"/><path d="m6071.75 5905.4c226.03 360.4 344.36 944.4 401.99 1341.2h306.71c-41.72-418.7-97.21-912.7-108.01-1339.2l-315.07-1z" fill="#a4c2f2"/><path d="m6043.89 5905.4c1.55 34.2 4.37 66.6 8.52 96.8 13.26 95.6 18.99 189.3 19.01 281.2.01 54.2-1.97 107.8-5.56 160.9 58.59 166.6 122.54 333.6 192.09 498 20.5 48.4 66.22 168.1 116.33 304.3h99.46c-57.63-396.8-175.96-980.8-401.99-1341.2z" fill="#a3c1f0"/><path d="m5242.55 5902.7c14.87 85.8 33.37 159.5 56.29 215.8 32.04 78.6 59.36 199.6 82.69 345.2 16.05 100.1 22.5 479 29.56 782.9h963.19c-50.11-136.2-95.83-255.9-116.33-304.3-69.55-164.4-133.5-331.4-192.09-498-63.79-181.5-121.22-362.5-172.69-539.4z" fill="#a4c2f2"/><path d="m2701.13 5894.1v.3l192.53.6 2348.89 7.7 650.62 2.2 150.72.5h27.86l285.62 1z" fill="#a8c8fa"/><path d="m3341.59 9475.3 240.74-1118.6h-938.29l-209.88 1118.6z" fill="#699ff0"/><path d="m3309.33 9439.7 217.45-1010.3h-847.49l-189.57 1010.3z" fill="#fff"/><path d="m2600.83 9358.6h645.08c11.88 0 21.6-9.8 21.6-21.6 0-11.9-9.72-21.6-21.6-21.6h-645.08c-11.88 0-21.6 9.7-21.6 21.6 0 11.8 9.72 21.6 21.6 21.6" fill="#699ff0"/><path d="m2633.75 9256.7h645.08c11.88 0 21.6-9.7 21.6-21.6s-9.72-21.6-21.6-21.6h-645.08c-11.87 0-21.6 9.7-21.6 21.6s9.73 21.6 21.6 21.6" fill="#699ff0"/><path d="m2654.34 9159h645.06c11.89 0 21.61-9.8 21.61-21.6 0-11.9-9.72-21.6-21.61-21.6h-645.06c-11.89 0-21.61 9.7-21.61 21.6 0 11.8 9.72 21.6 21.61 21.6" fill="#699ff0"/><path d="m2684.17 8957.4h645.07c11.89 0 21.61-9.7 21.61-21.6 0-11.8-9.72-21.6-21.61-21.6h-645.07c-11.88 0-21.61 9.8-21.61 21.6 0 11.9 9.73 21.6 21.61 21.6" fill="#699ff0"/><path d="m2717.09 8855.6h645.07c11.89 0 21.61-9.7 21.61-21.6s-9.72-21.6-21.61-21.6h-645.07c-11.88 0-21.61 9.7-21.61 21.6s9.73 21.6 21.61 21.6" fill="#699ff0"/><path d="m2737.67 8757.9h645.07c11.88 0 21.61-9.8 21.61-21.7 0-11.8-9.73-21.6-21.61-21.6h-645.07c-11.89 0-21.61 9.8-21.61 21.6 0 11.9 9.72 21.7 21.61 21.7" fill="#699ff0"/><path d="m3740.9 8852 139.67-462.9-25.61-7.8-139.67 463z" fill="#a53d38"/><path d="m3862.7 8433.7c47.96 0 87.47-33.6 93.53-77h-187.06c6.05 43.4 45.57 77 93.53 77" fill="#b64c41"/><path d="m3740.12 8369.1c35.79 0 71.39 6 74.22 6.5l-1.04 6c-35.77-6.1-130.97-15.3-141.63 14.6-4.74 13.3-.31 35.7 5.82 66.7 11.15 56.3 28 141.5 8.2 260.4-15.51 93-3.99 121.2 8.41 128.4 12.97 7.6 30.43-6.3 30.61-6.4l3.87 4.8c-.86.7-21.02 16.6-37.59 6.9-20.47-11.9-24.31-57.3-11.4-134.8 19.63-117.7 2.91-202.2-8.15-258.1-6.33-32-10.89-55.1-5.6-69.9 7.07-19.9 40.76-25.1 74.28-25.1" fill="#b64c41"/><path d="m12525.3 4080.2s-131.3-121.6-105.7-208.1c25.6-86.4 144.1-144 160.1-249.7 16-105.6 80-163.2 137.7-163.2h274.7s42.4 74.3-60 96.7c-102.5 22.4-141.1 146.6-134.7 261.8 6.4 115.3-9.6 268.9-9.6 268.9l-217.7 51.2z" fill="#2c3a64"/><path d="m14161.2 3463.6c2.1-1.1 5-2 8.6-3h734.9c-6.4 26-30 75.5-116 89.5-114.8 18.6-313.6 85.3-358 232-1.4 4.7-2.7 9.6-3.8 14.5-35.2 156.8-291.3-48.1-291.3-48.1s-.8-6.2-1.9-16.9c-5.9-57.5-21.1-243.7 27.5-268" fill="#2c3a64"/><path d="m14758.2 7659.4s-38.9-485.3-84.6-1068.7c-62.1-792.4-136.9-1765.8-144.3-1950.2-12.7-320.2-64-832.4-64-832.4s-121.6-121.7-365-70.4c0 0-216.8 731.2-278.8 1504.8-.9 12.7-1.9 25.5-2.9 38.2-57.6 787.6-147.2 2445.9-147.2 2445.9z" fill="#35488b"/><path d="m14758.2 7659.4s-38.9-485.3-84.6-1068.7l-852.1-1348.2c-.9 12.7-1.9 25.5-2.9 38.2-57.6 787.6-147.2 2445.9-147.2 2445.9z" fill="#2c3a64"/><path d="m14580.6 7601.8s-701.1-1757.6-1162.1-2583.6c-461-825.9-605.1-1056.4-605.1-1056.4s-264.1 105.6-288.1 177.7c0 0 176.3 1594.5 485 1983.2 174.4 219.7 379.4 878.8 389 1109.3s62.4 686.7 62.4 686.7z" fill="#35488b"/><path d="m14365.8 10856c-261.3-82.4-713.3 140.1-713.3 140.1s203.8 152.9 226.6 470.2c.4 4.4.7 8.7.9 13.1 1.3 23.6 1.6 48 .8 73.3l71.5-57.5 267.6-215.8s-13.7-106.4-19.2-283.7c42.4-23.2 76.4-48.9 102.1-71.8 42.5-37.7 63-67.9 63-67.9" fill="#f4ac75"/><path d="m13362.6 11029.9s690.5 109 1145.4-192.2c0 0 309-2020.3 39.9-2211.5s-1185.3 0-1185.3 0z" fill="#f4ac75"/><path d="m14284 6452.7h-1247.7s145 2129.1 186.4 2647.3c33.6 420.4 104.7 1428.3 130.4 1794.2 6 85.3 9.5 135.7 9.5 135.7l297.9 50.8 511.6-663.1s80.9-1768.3 77.9-2047c-2.8-278.7 32.3-1364.7 34-1547.3 1.6-182.5 0-370.6 0-370.6" fill="#e9f2ff"/><path d="m14172.1 10417.6 111.9-3964.9h587.8s-27.2 2607.7-29.2 2847.3 63.9 1271.7-119.5 1431.8c-153.4 133.9-522.4 263.9-522.4 263.9z" fill="#e9f2ff"/><path d="m14204.5 11087.2s167.6-115.4 161.3-156.9c-6.3-41.4-29.3-107-29.3-107l-102.5 20.8 86.5-60.8s-98.1-286.1-148.4-365.7z" fill="#e9f2ff"/><path d="m13036.3 6452.7 193.1 2705.6c327.7 20.2 695.4 98.5 695.4 98.5s22.5 72.5 25.5 120.6c2.8 46-22.3 97.2-22.3 97.2s-514.9 88.4-665.2 150.5l11.3 159c34 76.2 79.9 174.5 123.5 266.5 12.1 2.7 24.8 4 38.2 4 261.9 0 752.1-499.9 697.8-955.3-130.4-1094.3-685.7-2314.4-1097.3-2646.6" fill="#deeaff"/><path d="m13879.1 11466.3c-1.1 8.1-3.7 12.1-3.7 12.1l4.6 1 72.3 15.8 267.6-215.8s-11.5-100.5-19.8-284.2c-.7 1-275.8 153.2-321 471.1" fill="#c97c47"/><path d="m14329 11213.8s-466 13-453.4 303.1c12.6 290-39 487 259 491 298 3.9 351-109.3 370.3-207.1s-54.4-582.9-175.9-587" fill="#f4ac75"/><path d="m13875.4 11478.4s60.6-16 108.7 48.1c48 64.1 128.1 310.7 233.8 326.7 105.8 16.1 245.1-62.4 290.1-17.6 65.5 65.4 150 172.4 150 172.4s-524.4 373.8-733.7 200.8-282.6-426-48.9-730.4" fill="#2c3a64"/><path d="m14504.7 10442.6c-9.9 179.6-107.9 472.3-108.8 475.1l28-12.4c3.5-11.7 81.4-278.8 91.5-462.3z" fill="#2c3a64"/><path d="m13826.1 9906.2c-9.9 10.2-249.7 240.9-198.6 402.5 20 63 56.7 87.8 95.6 106.1 36.3 13.3 121.1 27.1 164.9-.5 79.9-50.3 120.2-189.2 132-420.3l-9.7-.5c-14.1 274.1-84.8 373.3-137.5 395.7-66.4 28.1-182.8 16.5-219.5-89.7-25.2-73.1 24.3-175.4 70.2-245.6 51.1-78 106.6-147.1 107.2-147.7z" fill="#2c3a64"/><path d="m13851 9881.3c-9.2-9.2-24.2-9.2-33.4 0l-16.5 16.4c-9.1 9.2-9.1 24.2 0 33.4 9.2 9.2 24.3 9.2 33.5 0l16.4-16.4c9.2-9.2 9.2-24.2 0-33.4" fill="#b64c41"/><path d="m14016 9949.9c-13 0-23.6 10.6-23.6 23.6v23.2c0 13 10.6 23.6 23.6 23.6s23.7-10.6 23.7-23.6v-23.2c0-13-10.7-23.6-23.7-23.6" fill="#b64c41"/><path d="m14443.9 10442.6c0 35.4 28.7 64.1 64.1 64.1 35.3 0 64-28.7 64-64.1s-28.7-64.1-64-64.1c-35.4 0-64.1 28.7-64.1 64.1" fill="#2c3a64"/><path d="m14477.8 10442.6c0 18 14.6 32.6 32.6 32.6s32.5-14.6 32.5-32.6-14.5-32.6-32.5-32.6-32.6 14.6-32.6 32.6" fill="#d6716b"/><path d="m14217.6 6452.7c-.4 4-40.8 403.4-29.1 750.5 4.9 146.7.7 319.1-3.3 485.8-5.7 237.9-18.5 466.9.7 616.3 32.9 255.6 26.3 1417.3 12.8 1543.2-13.1 122.8-.5 257.4 11.6 298 12.4 41.4-40.7 268-41.3 270.3l6.2 1.6c2.5-9.5 59.8-232.6 46.9-275.7-12.1-40.2-30-171.6-17-293.5 13.5-126 39.4-1287.5 6.4-1543.4-19.1-148.8-25.6-379-19.9-616.6 4-166.8 8.2-339.4 3.3-486.2-11.7-346.7 47.2-746.3 47.6-750.3z" fill="#b2cbfd"/><path d="m15250.8 9642s157.9-271.8-7.7-343.3c-165.5-71.5-183.4 3.9-183.4 3.9z" fill="#e9f2ff"/><path d="m13928 9474.6s25.1-51.2 22.3-97.2c-3-48.1-25.5-120.6-25.5-120.6s-974.6-207.5-1164-34.1c-203.4 186.2 173.9 1585.2 335.4 1722.1 69.6 59 216.3 95 351.7 116.5 74.7 11.9 145.9 19.4 198.9 24 54.5 4.7 89.9 6.3 89.9 6.3l-22-81.3-85.4-315.9-99.7-368.4s-297.9-613.2-307.5-670.9c-9.6-57.6 705.9-180.5 705.9-180.5" fill="#e9f2ff"/><path d="m14063.7 10515.6s-248.3 108.1-426.9 206.6l77.9 288.1z" fill="#deeaff"/><path d="m13636.8 10722.2c-.1.1-.2.1-.3.2-116.6 64.4-176.3 184.9-188.6 338.9 74.7 11.9 145.9 19.4 198.9 24 8.5-2.8 13.7-4.6 13.7-4.6l54.2-70.4z" fill="#deeaff"/><path d="m14172.1 10417.6-387.1 738.2s-144.4-29.3-192.9-74.7c0 0 24.6-222 43.9-271.2 0 0 74.7 8.6 85.4 2.2 0 0-36.3-55.5-47-61.9 0 0 336.5-156.9 497.7-332.6" fill="#e9f2ff"/><path d="m13724.2 10389.2c-26.5 58.5-259.6 556.4-200.2 683.1l22.8 2.8c-45-96 116.6-528.8 186.8-683.9z" fill="#2c3a64"/><path d="m14269 9927.1c-17.1 0-31.1 13.9-31.1 31.1s14 31.1 31.1 31.1c17.2 0 31.1-13.9 31.1-31.1s-13.9-31.1-31.1-31.1" fill="#cddefe"/><path d="m14269 8186.1c-17.1 0-31.1 13.9-31.1 31.1s14 31.1 31.1 31.1c17.2 0 31.1-13.9 31.1-31.1s-13.9-31.1-31.1-31.1" fill="#cddefe"/><path d="m14284.7 8981.8c-17.1 0-31.1 13.9-31.1 31.1 0 17.1 14 31 31.1 31 17.2 0 31.1-13.9 31.1-31 0-17.2-13.9-31.1-31.1-31.1" fill="#cddefe"/><path d="m14255.9 7449.2c-1.5 3.5-2.3 7.4-2.3 11.5 0 3.5.6 6.8 1.7 9.9z" fill="#cddefe"/><path d="m14284.7 7429.7c-13.1 0-24.3 8-28.8 19.5l-.6 21.4c4.1 12.3 15.7 21.2 29.4 21.2 17.2 0 31.1-13.9 31.1-31.1 0-17.1-13.9-31-31.1-31" fill="#cddefe"/><path d="m13909.8 10917.7s107.8-53 281.9-20.2l-19.6-479.9z" fill="#7a97f3"/><path d="m14590.4 10349.9 1008-90.3-615.1-1092.7-948.8 54.5z" fill="#35488b"/><path d="m14683.3 10354.9s.4 154.5 85.8 143.8c85.3-10.7 111.1-165.8 111.1-165.8z" fill="#b2cbfd"/><path d="m15591.8 10273.4-1008 90.3-555.9-1128.5 6.9-14 555.8 1128.5 1008.1-90.3z" fill="#7a97f3"/><path d="m14769.1 10498.7s142.4-69.9 92.1-294c-50.4-224.1-113.1-347-76.5-479.5l679-62.4s-73.8 176.2 8.2 354.6c82 178.3 23.7 382.1-51.5 399.9z" fill="#e9f2ff"/><path d="m15108.2 9370.3s-103.2 124.1-81.9 213.8c21.4 89.7 98.3 110.4 145.2 78.7 47-31.7 115.4-104.3 102.6-159.9-12.9-55.5-113.9-158.4-165.9-132.6" fill="#f4ac75"/><path d="m13876.5 9444.2s174.9 76.8 255 54.4c80-22.4 188.1-38.4 196.5-67.3 8.5-28.8-57.6-135.5-155.9-140.9s-271.3-51.3-312.9 0c-41.7 51.3 17.3 153.8 17.3 153.8" fill="#f4ac75"/><path d="m1170.71 3417.7h27658.59c11.4 0 20.7 9.3 20.7 20.7s-9.3 20.8-20.7 20.8h-27658.59c-11.39 0-20.71-9.4-20.71-20.8s9.32-20.7 20.71-20.7" fill="#283250"/><path d="m11168.9 11102.3c33.8 0 61.1 27.4 61.1 61.1v697.2c0 33.8-27.3 61.2-61.1 61.2s-61.1-27.4-61.1-61.2v-697.2c0-33.7 27.3-61.1 61.1-61.1" fill="#466aa5"/><path d="m11168.9 5099.2c33.8 0 61.1 27.4 61.1 61.1v697.2c0 33.8-27.3 61.2-61.1 61.2s-61.1-27.4-61.1-61.2v-697.2c0-33.7 27.3-61.1 61.1-61.1" fill="#466aa5"/><path d="m15873.4 9231c0-103.3 83.7-187.1 187-187.1s187.1 83.8 187.1 187.1c0 103.2-83.8 187-187.1 187s-187-83.8-187-187" fill="#699ff0"/><path d="m15872.5 7494.7c0-103.3 83.7-187.1 187-187.1s187 83.8 187 187.1-83.7 187-187 187-187-83.7-187-187" fill="#699ff0"/><path d="m16059.5 7501.8c40.3 0 73 32.7 73 73v1620.2c0 40.2-32.7 72.9-73 72.9s-73-32.7-73-72.9v-1620.2c0-40.3 32.7-73 73-73" fill="#466aa5"/></g></svg>