<svg fill="none" height="24" viewBox="0 0 24 24" width="24" xmlns="http://www.w3.org/2000/svg" xmlns:xlink="http://www.w3.org/1999/xlink"><clipPath id="a"><path d="m0 0h24v24h-24z"/></clipPath><g clip-path="url(#a)"><path d="m23 16c-.1548 0-.3075-.036-.446-.105l-2-1c-.2374-.1186-.4179-.3265-.5019-.5782-.0841-.2517-.0646-.5264.0539-.7638.1186-.2374.3265-.4179.5782-.5019.2517-.0841.5264-.0647.7638.0539l2 1c.2019.1006.3638.2665.4595.4707.0957.2043.1195.4349.0676.6544s-.1764.415-.3535.5547c-.177.1398-.3961.2156-.6216.2152zm-1.553-9.1 2-1c.2374-.11855.4179-.32654.5019-.57822.0841-.25167.0647-.52641-.0539-.76378-.1185-.23737-.3265-.41792-.5782-.50194-.2517-.08401-.5264-.06461-.7638.05394l-2 1c-.2374.11855-.4179.32654-.5019.57822-.0841.25167-.0646.52641.0539.76378.1186.23737.3265.41792.5782.50194.2517.08401.5264.06461.7638-.05394zm2.553 3.1c0-.26522-.1054-.51957-.2929-.70711-.1875-.18753-.4419-.29289-.7071-.29289h-2c-.2652 0-.5196.10536-.7071.29289-.1875.18754-.2929.44189-.2929.70711 0 .2652.1054.5196.2929.7071s.4419.2929.7071.2929h2c.2652 0 .5196-.1054.7071-.2929s.2929-.4419.2929-.7071zm-6 9v-18c0-.265216-.1054-.51957-.2929-.707107-.1875-.187536-.4419-.292893-.7071-.292893s-.5196.105357-.7071.292893c-.1875.187537-.2929.441891-.2929.707107 0 2.949-2.583 4-5 4h-7c-1.06087 0-2.07828.42143-2.82843 1.17157-.750143.75015-1.17157 1.76756-1.17157 2.82843v2c0 1.0609.421427 2.0783 1.17157 2.8284.75015.7502 1.76756 1.1716 2.82843 1.1716h7c2.417 0 5 1.051 5 4 0 .2652.1054.5196.2929.7071s.4419.2929.7071.2929.5196-.1054.7071-.2929.2929-.4419.2929-.7071zm-9.814-2h-4.186c-.46559-.0019-.92937-.0579-1.382-.167l2.5 5.582c.20996.4718.55219.8726.98524 1.1539s.93836.4311 1.45476.4311c.41085-.0005.81504-.1039 1.17572-.3007.36067-.1967.66638-.4806.88926-.8257.22287-.3452.35583-.7406.38672-1.1503.0309-.4097-.04115-.8206-.2097-1.1953z" fill="#000"/></g></svg>