<svg fill="none" height="300" viewBox="0 0 300 300" width="300" xmlns="http://www.w3.org/2000/svg"><path d="m150 288.246c74.416 0 134.742-34.83 134.742-77.796 0-42.965-60.326-77.796-134.742-77.796-74.4161 0-134.7422 34.831-134.7422 77.796 0 42.966 60.3261 77.796 134.7422 77.796z" fill="#f5f5f5"/><path d="m59.1959 198.03-5.49 3.192s2.772-8.844 1.236-17.736c-.372-2.084-1.1289-4.08-2.232-5.886-.432-.9-3.738-6.444-.828-9s9.75 2.526 9.438 16.2c-.1478 4.482-.8614 8.927-2.124 13.23z" fill="#516eb4"/><path d="m59.1959 198.03-5.49 3.192s2.772-8.844 1.236-17.736c-.372-2.084-1.1289-4.08-2.232-5.886-.432-.9-3.738-6.444-.828-9s9.75 2.526 9.438 16.2c-.1478 4.482-.8614 8.927-2.124 13.23z" fill="#000" opacity=".3"/><path d="m56.6457 199.8h-.09c-.0311-.011-.0597-.029-.0841-.051-.0245-.023-.0442-.05-.0581-.08-.014-.03-.0218-.063-.0232-.096-.0013-.033.004-.066.0154-.097 0-.06 2.064-5.742 1.956-14.886s-4.848-13.902-4.896-13.95c-.0469-.048-.0731-.113-.0731-.18s.0262-.132.0731-.18c.0235-.024.0515-.043.0824-.056s.0641-.02.0976-.02c.0336 0 .0668.007.0977.02s.0589.032.0823.056c.048.048 4.938 5.004 5.046 14.304s-1.968 15-1.986 15.066c-.0216.045-.0557.083-.0982.11-.0425.026-.0916.04-.1418.04z" fill="#fff"/><path d="m54.9419 200.52-9.066 5.334s-4.152-.6-3.84-4.518 2.004-4.83-.096-6.546-2.646-1.8-2.544-3.516 1.2-2.4 1.764-3.084 2.016-2.064.972-4.092-2.46-3.99-.354-4.92c1.254-.558 3.36.138 4.764 1.626s2.55 2.55 3.876 2.892 4.086.378 3.996 2.658-.69 3.072-.132 4.086c1.044 1.908 5.496 2.94.66 10.08z" fill="#516eb4"/><path d="m51.2459 202.95c-.0331-.002-.0655-.011-.0952-.026s-.0562-.035-.0779-.06c-.0218-.025-.0383-.055-.0488-.086-.0104-.032-.0146-.065-.0121-.098 0-.132.978-13.416-8.238-22.128-.0238-.023-.0427-.05-.0556-.081-.0129-.03-.0196-.063-.0196-.096s.0067-.066.0196-.096c.0129-.031.0318-.058.0556-.081.0482-.047.1127-.073.18-.073.0672 0 .1318.026.18.073 9.396 8.88 8.4 22.398 8.4 22.536-.0104.066-.0463.126-.1001.167-.0538.04-.1212.058-.1879.049z" fill="#fff"/><path d="m49.6258 191.364c-.0674-.006-.1297-.038-.1735-.09s-.0655-.118-.0605-.186c.0697-1.113.3691-2.199.8792-3.19.5101-.992 1.22-1.866 2.0848-2.57.0553-.038.1231-.053.1892-.042.066.012.1252.048.1648.102.0199.027.0342.057.0423.089.008.033.0096.066.0045.099-.005.033-.0165.065-.0338.093-.0173.029-.0401.053-.067.073-.8024.665-1.4606 1.487-1.9342 2.416-.4735.928-.7525 1.944-.8198 2.984-.009.065-.0426.125-.0939.166s-.1164.061-.1821.056z" fill="#fff"/><path d="m50.2918 193.668c-.0354.001-.0705-.006-.1027-.021-.0322-.014-.0607-.036-.0833-.063 0 0-2.304-2.46-7.488-1.752-.0333.006-.0674.005-.1002-.003-.0329-.008-.0638-.022-.0908-.042-.027-.021-.0496-.046-.0663-.076-.0167-.029-.0271-.061-.0307-.095-.0087-.067.0091-.134.0494-.188.0404-.054.1001-.09.1666-.1 5.466-.75 7.836 1.8 7.938 1.92.0237.023.0426.05.0556.081.0129.03.0195.063.0195.096s-.0066.066-.0195.096c-.013.031-.0319.058-.0556.081-.0248.025-.055.044-.0883.056-.0333.011-.0688.015-.1037.01z" fill="#fff"/><path d="m261.666 223.2-90.546-52.254c-1.616-.931-3.448-1.422-5.313-1.422s-3.697.491-5.313 1.422l-32.004 18.48c-.526.305-.962.742-1.265 1.269-.304.526-.463 1.123-.463 1.731s.159 1.205.463 1.731c.303.527.739.964 1.265 1.269l90.546 52.278c1.616.932 3.448 1.422 5.313 1.422s3.697-.49 5.313-1.422l32.004-18.48c.531-.303.973-.741 1.28-1.27s.469-1.13.469-1.742-.162-1.212-.469-1.741-.749-.968-1.28-1.271z" fill="#e0e0e0"/><path d="m88.6558 247.224c15.9262 0 28.8362-7.454 28.8362-16.65 0-9.195-12.91-16.65-28.8362-16.65-15.9257 0-28.836 7.455-28.836 16.65 0 9.196 12.9103 16.65 28.836 16.65z" fill="#e0e0e0"/><path d="m221.952 242.148-73.032-42.162c-5.148-2.97-9.33-10.956-9.33-17.826v-156.36c0-6.87 4.2-10.026 9.33-7.056l73.032 42.156c5.148 3 9.324 10.95 9.324 17.82v156.378c0 6.87-4.176 10.026-9.324 7.05z" fill="#455a64"/><path d="m230.358 55.998-73.026-42.162c-2.202-1.272-4.23-1.422-5.826-.642-.197.0983-.387.2085-.57.33l-8.178 4.758c1.644-.984 3.798-.912 6.162.45l73.032 42.168c5.148 3 9.324 10.95 9.324 17.82v156.378c0 3.63-1.164 6.228-3 7.422l8.076-4.704c2.058-1.092 3.366-3.774 3.366-7.62v-156.396c-.03-6.846-4.206-14.832-9.36-17.802z" fill="#37474f"/><path d="m231.276 78.72v156.378c0 3.63-1.164 6.228-3 7.422l8.076-4.704c2.058-1.092 3.366-3.774 3.366-7.62v-156.396l-8.4 4.884z" fill="#263238"/><path d="m239.688 85.962-8.412 4.854v3.792l8.412-4.854z" fill="#37474f"/><path d="m236.004 111.192c-.75.432-1.362 0-1.362-1.032v-8.16c.008-.51.136-1.011.372-1.464.237-.452.576-.8424.99-1.14.75-.432 1.362.03 1.362 1.032v8.172c-.01.508-.139 1.007-.375 1.457-.237.449-.574.838-.987 1.135z" fill="#37474f"/><path d="m234.642 110.16v-8.16c.008-.51.135-1.011.372-1.464.236-.452.575-.8423.99-1.14.124-.0853.268-.1372.419-.1509.15-.0137.301.0114.439.0729l-1.014-.528c-.14-.0713-.297-.1029-.453-.0912-.157.0116-.307.066-.435.1572-.415.2977-.754.6882-.99 1.1404-.237.4526-.364.9536-.372 1.4636v8.16c-.023.206.009.414.091.605.082.19.212.356.377.481l1.068.558c-.172-.124-.309-.292-.395-.486-.087-.193-.12-.407-.097-.618z" fill="#455a64"/><path d="m236.004 130.932c-.75.432-1.362 0-1.362-1.032v-8.154c.009-.51.136-1.011.373-1.463.236-.452.575-.843.989-1.141.75-.432 1.362.03 1.362 1.032v8.154c-.008.51-.135 1.012-.372 1.464-.236.452-.575.842-.99 1.14z" fill="#37474f"/><path d="m234.642 129.9v-8.154c.008-.51.136-1.011.373-1.463.236-.452.575-.843.989-1.141.124-.085.268-.137.419-.151.15-.013.301.012.439.073l-1.014-.528c-.141-.068-.297-.098-.453-.086-.156.011-.306.064-.435.152-.414.298-.753.689-.99 1.141-.236.452-.364.953-.372 1.463v8.154c-.023.206.009.414.091.605.082.19.212.356.377.481l1.068.558c-.172-.124-.309-.292-.395-.485-.087-.194-.12-.408-.097-.619z" fill="#455a64"/><path d="m219.408 65.292-71.766-41.442c-.301-.1738-.643-.2653-.99-.2653-.348.0001-.69.0917-.991.2656s-.551.4241-.724.7252c-.174.3012-.265.6428-.265.9905v156.6c0 5.232 3.702 11.652 8.232 14.262l70.026 40.434c.331.192.708.293 1.091.294.383 0 .759-.101 1.091-.293.331-.191.607-.467.798-.799s.291-.709.29-1.092v-157.914c0-4.314-3.054-9.606-6.792-11.766z" fill="#516eb4"/><path d="m219.408 65.292-71.766-41.442c-.301-.1738-.643-.2653-.99-.2653-.348.0001-.69.0917-.991.2656s-.551.4241-.724.7252c-.174.3012-.265.6428-.265.9905v156.6c0 5.232 3.702 11.652 8.232 14.262l70.026 40.434c.331.192.708.293 1.091.294.383 0 .759-.101 1.091-.293.331-.191.607-.467.798-.799s.291-.709.29-1.092v-157.914c0-4.314-3.054-9.606-6.792-11.766z" fill="#fff" opacity=".5"/><path d="m169.098 34.668 1.116 4.686 23.784 13.716 4.11-2.19z" fill="#455a64"/><path d="m176.088 39.192c0 .78-.54 1.092-1.2.708-.352-.2328-.644-.5454-.853-.9124-.208-.3669-.327-.778-.347-1.1996 0-.774.54-1.092 1.2-.702.351.2325.642.5443.851.9101.208.3658.328.7754.349 1.1959z" fill="#263238"/><path d="m192.12 49.098c-.13.0008-.259-.0323-.372-.096l-12.15-6.786c-.088-.0489-.165-.1145-.227-.1931s-.108-.1687-.135-.2651c-.027-.0963-.035-.1972-.024-.2967.012-.0995.043-.1957.092-.2831.049-.0875.114-.1645.193-.2266s.169-.1081.265-.1354.197-.0354.297-.0237c.099.0117.195.0428.283.0917l12.15 6.792c.149.0802.268.2084.335.3639.068.1556.082.3294.039.4935-.043.1642-.14.3091-.275.4115-.136.1024-.301.1563-.471.1531z" fill="#263238"/><path d="m209.4 88.746v164.268c0 3-1.098 4.998-2.778 5.652h-.042l-7.122 3.906.036-6.342.792-170.358 7.524-3.852c1.006 2.102 1.549 4.3959 1.59 6.726z" fill="#e0e0e0"/><path d="m199.086 263.208.048-6.96.792-170.58 8.058-4.116.156.336c1.028 2.1431 1.584 4.4816 1.632 6.858v164.268c0 3-1.122 5.25-3 6zm1.56-177.09-.786 170.136-.036 5.724 6.654-3.642c1.62-.63 2.568-2.616 2.568-5.322v-164.268c-.043-2.1424-.523-4.2534-1.41-6.204z" fill="#e0e0e0"/><path d="m207.81 82.044-7.524 3.852-80.544-46.86-5.4-3.126 7.434-4.2.21-.126c1.2-.714 2.736-.666 4.446.324l76.236 44.016c2.076 1.188 3.912 3.468 5.142 6.12z" fill="#e0e0e0"/><path d="m200.274 86.304-.168-.096-86.472-50.304 8.166-4.626c1.344-.81 3.054-.696 4.8.318l76.272 44.004c2.04 1.2 3.96 3.462 5.268 6.276l.15.312zm-85.2-50.4 85.2 49.566 7.032-3.6c-1.236-2.538-3-4.578-4.8-5.64l-76.23-44.004c-1.47-.846-2.868-.984-3.96-.396l-.33.204z" fill="#e0e0e0"/><path d="m202.026 92.892v164.154c0 2.586-.822 4.446-2.142 5.316l-.426.234c-1.146.54-2.58.42-4.14-.48l-36.852-21.276-17.22-9.942-22.17-12.798c-3.708-2.142-6.714-7.89-6.714-12.828v-164.142c0-2.502.768-4.314 2.004-5.22.21-.1579.44-.287.684-.384 1.122-.48 2.514-.336 4.026.534l76.242 44.016c1.974 1.134 3.744 3.3 4.968 5.82 1.094 2.1732 1.688 4.5635 1.74 6.996z" fill="#fafafa"/><path d="m119.076 217.134c15.69 9.36 56.502 33.714 76.704 45.882.602.359 1.288.553 1.989.561s1.391-.17 2.001-.516c.61-.345 1.117-.847 1.47-1.452.353-.606.54-1.294.54-1.995v-168.792c-.001-1.9202-.503-3.8068-1.458-5.4728-.954-1.666-2.328-3.0536-3.984-4.0252l-77.628-45.498c-.603-.3606-1.292-.5542-1.995-.5612-.703-.0069-1.395.1732-2.006.5218-.61.3486-1.117.8532-1.468 1.4621-.352.6089-.535 1.3003-.531 2.0033v166.71c.003 2.254.591 4.469 1.707 6.427 1.116 1.959 2.721 3.594 4.659 4.745z" fill="#fafafa"/><path d="m118.8 217.656c12.592 7.512 25.192 15.032 37.8 22.56 7.356 4.4 14.71 8.8 22.062 13.2l9.858 5.91 4.386 2.64c1.338.804 2.76 1.968 4.344 2.178.646.079 1.302.02 1.925-.173.622-.192 1.197-.514 1.686-.944s.883-.958 1.154-1.55c.271-.593.413-1.236.419-1.887 0-.294 0-.6 0-.882v-155.508c0-4.056 0-8.106 0-12.156.012-2.0971-.53-4.1602-1.571-5.9808-1.041-1.8205-2.544-3.334-4.357-4.3872-1.77-1.05-3.552-2.082-5.328-3.126l-25.428-14.898-30.21-17.652c-5.448-3.192-10.86-6.444-16.338-9.6-.713-.4389-1.531-.6767-2.368-.6884-.836-.0116-1.661.2034-2.385.6223-.725.4188-1.323 1.0259-1.73 1.7569-.408.731-.61 1.5586-.585 2.3952v4.002 148.77 13.254c-.041 2.429.552 4.827 1.721 6.957 1.169 2.129 2.874 3.917 4.945 5.187.66.402 1.26-.636.6-1.038-4.074-2.502-6.048-6.726-6.048-11.4v-153c0-4.2 0-8.4 0-12.6-.032-.5468.059-1.0937.267-1.6004.208-.5068.527-.9605.933-1.3276 1.344-1.14 2.958-.906 4.356-.09l6 3.522 25.692 15.078 29.49 17.28c5.268 3.09 10.548 6.15 15.798 9.258 1.649.968 3.01 2.3586 3.943 4.0282.932 1.6697 1.402 3.5579 1.361 5.4698v167.19 1.086c.003.619-.161 1.228-.477 1.761-.315.533-.769.971-1.314 1.266-.544.295-1.159.436-1.778.41-.618-.027-1.218-.222-1.735-.563-6.198-3.654-12.336-7.416-18.504-11.112-14.256-8.548-28.538-17.084-42.846-25.608l-15.138-9.066c-.14-.08-.306-.1-.461-.058-.156.043-.288.146-.367.286-.08.14-.1.306-.058.461.043.155.146.287.286.367z" fill="#ebebeb"/><path d="m123.156 60.36c0 1.278-.9 1.8-2.004 1.158-.582-.381-1.067-.8932-1.415-1.4955-.348-.6024-.55-1.278-.589-1.9725 0-1.278.9-1.8 2.004-1.158.583.3799 1.068.8919 1.416 1.4945.349.6025.55 1.2786.588 1.9735z" fill="#516eb4"/><path d="m121.152 61.518c-1.632-.948-2.958.054-2.958 2.238v.672l5.916 3.42v-.648c0-2.208-1.326-4.74-2.958-5.682z" fill="#516eb4"/><path d="m196.35 81.324-77.64-45.498c-.603-.3606-1.292-.5542-1.995-.5612-.703-.0069-1.395.1732-2.006.5218-.61.3486-1.117.8532-1.468 1.4621-.352.6089-.535 1.3003-.531 2.0033v7.32l89.034 51.402v-7.152c.004-1.9155-.491-3.799-1.437-5.4646-.946-1.6657-2.31-3.0559-3.957-4.0334z" fill="#ebebeb"/><path d="m174.962 152.684c9.775-5.644 9.775-23.942.001-40.87-9.773-16.9292-25.62-26.0778-35.395-20.4346-9.774 5.6433-9.775 23.9416-.001 40.8706 9.774 16.928 25.621 26.077 35.395 20.434z" fill="#455a64"/><path d="m146.172 108.93s-1.632.822-.312 4.65-1.662 5.742-2.442 4.236c0 0 .054 2.4 3 2.4.771.057 1.537-.154 2.169-.598.633-.444 1.092-1.094 1.299-1.838 0 0 1.062 1.158 1.062 4.422s-3.12 15.534 7.8 15.534 10.698-9.294 10.698-9.294 2.796.054 2.796-4.128c0 0-4.248 2.64-4.248-3.258s.972-13.356-3.528-13.356c0 0 1.548-3.204-1.53-5.25s-12.336.75-12.336.75-2.778-1.668-4.77.3c-2.43 2.412.342 5.43.342 5.43z" fill="#263238"/><path d="m151.464 126.102-.378 6.552-.744 12.9-.084.186c-2.148-1.971-4.129-4.116-5.922-6.414-.736-.948-1.45-1.918-2.142-2.91.6-2.4 1.146-4.548 1.584-6 1.116-3.66 5.088-4.236 6.846-4.308.516-.024.84-.006.84-.006z" fill="#ffa8a7"/><path d="m167.634 154.326c-.766-.034-1.527-.122-2.28-.264-2.855-.576-5.59-1.635-8.088-3.132-2.518-1.471-4.867-3.211-7.008-5.19-2.148-1.971-4.129-4.116-5.922-6.414-.093-.667-.093-1.343 0-2.01.48-3.492 4.416-8.226 6.216-10.242.552-.6.9-.972.9-.972l3-.078 6.738.372 3.096.846c.18.054.339.161.456.308s.186.326.198.514l.546 7.914.228 3.258-.36 1.26-1.392 4.92c-.152.55-.176 1.128-.073 1.689.104.561.334 1.091.673 1.551.24.33.516.72.792 1.164.918 1.417 1.682 2.927 2.28 4.506z" fill="#516eb4"/><path d="m161.196 126.39-8.586 5.562c-.073.055-.162.083-.253.081s-.178-.036-.248-.094c-.069-.059-.117-.139-.135-.228s-.005-.182.036-.263l2.436-5.4v-8.952h6.738z" fill="#ffa8a7"/><path d="m154.458 125.244c1.377-.509 2.636-1.294 3.699-2.306 1.064-1.012 1.91-2.23 2.487-3.58v-2.262h-6.186z" fill="#f28f8f"/><path d="m152.892 106.05s-6.162.366-5.4 10.896c.348 4.872 1.494 7.392 5.244 7.2 4.248-.21 10.278-3.126 9.882-11.46s-9.726-6.636-9.726-6.636z" fill="#ffa8a7"/><path d="m161.196 117.096s-1.692.444-1.692-1.974c0 0-7.5-.51-9.162-7.956 0 0 .744-2.232 5.43-2.232s8.628 4.146 7.428 9.84z" fill="#263238"/><path d="m152.004 114.834v3.618l-2.118-.648z" fill="#f28f8f"/><path d="m155.196 115.2c0 .146-.044.289-.125.41s-.196.216-.331.272-.283.07-.426.042c-.143-.029-.275-.099-.378-.202s-.174-.235-.202-.378c-.029-.143-.014-.292.042-.426.056-.135.15-.25.272-.332.121-.081.264-.124.41-.124.097 0 .193.019.282.056.09.037.171.092.24.16.068.069.122.15.16.24.037.089.056.185.056.282z" fill="#263238"/><path d="m150.342 114.702c0 .146-.044.289-.125.41s-.196.216-.331.272-.283.07-.426.042c-.143-.029-.275-.099-.378-.202s-.174-.235-.202-.378c-.029-.143-.014-.292.042-.426.056-.135.15-.251.272-.332.121-.081.264-.124.41-.124.195 0 .383.078.522.216.138.139.216.326.216.522z" fill="#263238"/><path d="m148.71 113.166 1.44-.858s-.552-.6-1.104-.228c-.16.126-.277.297-.337.491s-.06.401.001.595z" fill="#263238"/><path d="m152.19 119.652c.849.064 1.694-.16 2.4-.636 0 0 .162 1.254-.888 1.494-.313.056-.635 0-.911-.156-.276-.157-.489-.405-.601-.702z" fill="#f28f8f"/><path d="m160.596 117.366c-.028-.618.087-1.234.336-1.8.121-.353.344-.662.641-.887.297-.226.654-.357 1.027-.379 1.89-.054 2.148 1.77 2.118 2.4-.066 1.704-1.446 3.54-4.008 3.6z" fill="#ffa8a7"/><path d="m173.352 153.468c-1.823.693-3.773.986-5.718.858-.766-.034-1.528-.122-2.28-.264v-4.2-9.324c-.636-1.147-1.161-2.353-1.566-3.6-1.962-6.114.498-9.6.498-9.6 1.795.441 3.503 1.181 5.052 2.19 1.126.746 2.017 1.797 2.568 3.03 1.74 3.918 1.848 9.642 1.446 20.91z" fill="#ffa8a7"/><path d="m160.8 141.774c-.882 1.074-2.075 1.848-3.414 2.217-1.34.368-2.761.313-4.068-.159 0 0 4.668 3.402 7.482-2.058z" fill="#000" opacity=".2"/><g fill="#516eb4"><path d="m193.254 100.254c0 .528-.366.744-.828.48-.242-.158-.443-.371-.586-.621-.144-.2502-.227-.5308-.242-.819 0-.528.372-.738.828-.474.242.1553.444.3666.588.6161s.227.53.24.8179z"/><path d="m193.254 104.004c0 .528-.366.744-.828.48-.241-.158-.442-.371-.586-.621s-.227-.531-.242-.819c0-.528.372-.744.828-.474.242.155.444.367.588.616.144.25.227.53.24.818z"/><path d="m193.254 107.754c0 .528-.366.744-.828.48-.241-.158-.442-.371-.586-.621s-.227-.531-.242-.819c0-.528.372-.744.828-.474.242.155.444.367.588.616.144.25.227.53.24.818z"/><path d="m195.54 232.062c-.052 0-.104-.013-.15-.036l-76.554-44.226c-.035-.019-.065-.045-.089-.076s-.042-.067-.052-.105-.012-.078-.007-.117c.006-.039.019-.076.04-.11.04-.068.105-.118.181-.139s.157-.012.227.025l76.554 44.202c.068.04.117.105.139.181.021.076.012.157-.025.227-.025.05-.062.092-.109.123-.046.031-.1.048-.155.051z"/><path d="m195.54 224.304c-.053 0-.105-.014-.15-.042l-76.554-44.196c-.069-.041-.118-.108-.139-.185-.02-.077-.009-.16.031-.229.019-.034.045-.064.076-.089.031-.024.067-.041.105-.051s.078-.013.117-.007c.039.005.076.019.11.039l76.554 44.202c.069.039.12.104.141.18.021.077.012.159-.027.228-.028.045-.067.083-.113.109s-.098.04-.151.041z"/><path d="m195.54 216.546c-.053-.003-.104-.017-.15-.042l-76.554-44.202c-.06-.044-.102-.108-.117-.181-.015-.072-.003-.148.034-.212.037-.065.097-.113.168-.135.071-.023.147-.019.215.012l76.554 44.214c.068.041.118.107.14.184.021.077.012.16-.026.23-.03.042-.069.076-.115.099-.047.023-.098.035-.149.033z"/></g><path d="m151.329 81.189v-4.3637l1.492.8579c.287.1649.532.3686.734.6111.202.2411.356.5036.462.7874.107.2832.16.5697.16.8595 0 .2897-.054.5143-.162.6736-.109.1593-.266.2416-.471.247-.205.0061-.452-.0744-.743-.2414l-.951-.5468v-.7393l.822.4724c.154.0885.281.1308.38.1271.101-.0045.176-.0472.226-.1283.05-.0818.075-.1944.075-.3379 0-.1448-.025-.2858-.075-.4227-.05-.1377-.125-.2654-.226-.3831-.101-.1191-.229-.2233-.384-.3125l-.539-.31v3.6094zm3.353 1.9272v-3.2727l.763.4385v.571l.03.017c.051-.1734.138-.2769.26-.3106.122-.035.262-.0069.421.0844.04.0227.082.0499.128.0818.045.0319.085.0627.12.0925v.8053c-.037-.034-.088-.0747-.153-.1222-.066-.0474-.125-.0867-.18-.1179-.115-.0665-.219-.0968-.31-.091-.09.0052-.161.0437-.214.1155-.052.0726-.078.1756-.078.3091v1.8516zm3.279 1.9481c-.287-.1649-.535-.3778-.745-.6387-.208-.2617-.369-.5515-.482-.8695-.113-.3194-.17-.6467-.17-.9819 0-.3381.057-.601.17-.7887.113-.1891.274-.2942.482-.3152.21-.0217.458.0499.745.2148s.534.3782.742.6399c.21.2609.371.5511.484.8704.114.318.17.646.17.9841 0 .3352-.056.5974-.17.7865-.113.1878-.274.2925-.484.3142-.208.021-.455-.0509-.742-.2159zm.003-.701c.131.0751.24.0951.327.0601.088-.0364.154-.1164.198-.2401.046-.1229.068-.2796.068-.4699 0-.1904-.022-.3732-.068-.5485-.044-.1747-.11-.3304-.198-.4673-.087-.1369-.196-.2429-.327-.3179-.131-.0758-.242-.0961-.332-.0612-.089.0357-.156.1151-.201.238-.045.1237-.067.2807-.067.471 0 .1904.022.3729.067.5475.045.1753.112.3318.201.4694.09.1369.201.2432.332.3189zm3.431-.6619v.6818l-1.751-1.0065v-.6818zm-1.35 2.4966v-3.5092c0-.2372.04-.411.12-.5212.081-.1096.192-.163.332-.1605.141.0026.3.0552.479.1578.12.0694.231.1434.33.222.101.0794.176.1417.226.1871l-.141.6011c-.031-.0291-.069-.0617-.114-.0978-.045-.0354-.09-.0666-.137-.0935-.116-.0665-.196-.0816-.242-.0453-.046.0349-.068.1077-.068.2185v3.4922zm1.831 1.0524v-3.2727l.787.4523v3.2727zm.395-3.4674c-.117-.0672-.217-.1697-.301-.3073-.083-.1383-.124-.2707-.124-.3971 0-.125.041-.2085.124-.2506.084-.0428.184-.0306.301.0367.117.0672.217.17.299.3083.084.1377.126.269.126.394 0 .1264-.042.211-.126.2538-.082.042-.182.0294-.299-.0378zm1.809.3706v4.3637l-.787-.4523v-4.3637zm1.924 5.5331c-.292-.1678-.544-.3804-.754-.6378-.21-.2581-.371-.5454-.484-.8619-.113-.318-.17-.6495-.17-.9947 0-.3367.057-.5996.17-.7887.113-.1892.273-.2956.478-.3195.207-.0231.45.0453.728.2052.187.1076.362.2426.523.4049.163.1616.304.346.425.5531.122.2079.217.4357.284.6834.068.2463.102.5087.102.7871v.2493l-2.396-1.377v-.5625l1.655.9513c0-.1307-.024-.2606-.074-.3898-.049-.1292-.117-.2473-.205-.3544-.086-.1077-.186-.1945-.301-.2604-.119-.0686-.225-.0975-.318-.0867-.091.0101-.162.0536-.214.1304-.052.0754-.078.1774-.079.3059v.5348c0 .1619.025.3167.077.4643.053.1484.128.2821.224.4012.096.1192.21.2166.341.2923.088.0503.168.0821.241.0954.072.0134.134.0065.186-.0206s.091-.074.118-.1408l.728.4737c-.037.1804-.112.313-.227.3978-.113.084-.26.1163-.44.0967-.178-.0202-.384-.0976-.618-.232z" fill="#455a64"/><path d="m140.143 151.264 1.194.686 1.151 3.167.049.029 1.15-1.845 1.195.686-1.84 2.704v2.057l-1.059-.608v-2.057zm6.219 9.477c-.383-.22-.714-.503-.993-.851-.278-.349-.492-.736-.643-1.16-.151-.425-.227-.862-.227-1.309 0-.451.076-.801.227-1.051.151-.253.365-.393.643-.421.279-.029.61.067.993.287.382.22.712.504.99.853.279.348.494.735.645 1.16.151.424.227.862.227 1.312 0 .447-.076.797-.227 1.049-.151.251-.366.39-.645.419-.278.028-.608-.068-.99-.288zm.005-.934c.174.1.319.126.435.08.117-.049.205-.155.264-.32.061-.164.091-.373.091-.627s-.03-.498-.091-.731c-.059-.233-.147-.441-.264-.623-.116-.183-.261-.324-.435-.424-.176-.101-.324-.128-.444-.082-.118.048-.208.154-.268.318-.059.164-.089.374-.089.628 0 .253.03.497.089.729.06.234.15.443.268.626.12.183.268.325.444.426zm4.965 1.848v-2.506l1.049.603v4.364l-1.007-.579v-.793l-.039-.022c-.086.206-.228.33-.427.371-.197.042-.437-.018-.721-.182-.253-.145-.476-.339-.668-.582s-.342-.518-.45-.825c-.107-.305-.161-.629-.163-.971v-2.778l1.049.603v2.562c.002.259.062.497.18.714.118.218.277.384.475.498.127.073.245.108.355.104s.199-.054.266-.148c.069-.093.103-.237.101-.433zm1.889 2.943v-4.364l1.017.585v.761l.039.023c.069-.231.185-.369.348-.414.162-.047.349-.009.561.113.053.03.109.066.17.109.061.042.114.083.16.123v1.074c-.049-.046-.117-.1-.204-.163s-.167-.116-.239-.157c-.154-.089-.292-.13-.414-.122-.12.007-.215.058-.286.154-.069.097-.103.234-.103.412v2.469zm3.887-.288v2.522l-1.049-.603v-4.363l1 .574v.77l.044.026c.084-.206.224-.326.421-.361.197-.036.436.027.717.188.263.151.492.349.687.594.196.245.348.521.456.83.108.306.163.629.163.968v2.779l-1.05-.603v-2.563c.002-.266-.057-.508-.177-.727-.12-.22-.285-.391-.495-.512-.141-.081-.266-.117-.374-.11-.107.009-.191.063-.252.163-.059.098-.089.241-.091.428zm4.344 5.101c-.241-.138-.456-.31-.645-.515-.189-.207-.338-.438-.448-.693-.109-.255-.163-.527-.163-.815 0-.242.039-.424.116-.544s.182-.193.315-.217c.133-.023.284-.012.454.034.17.047.349.114.536.2.221.1.398.178.532.232.135.053.233.073.294.061.06-.013.091-.065.091-.158v-.017c0-.18-.05-.348-.148-.503-.097-.154-.235-.282-.414-.385-.189-.109-.339-.147-.451-.114-.111.03-.185.107-.221.23l-.971-.649c.05-.236.146-.41.291-.52.144-.112.331-.155.559-.128.23.027.496.126.798.3.21.121.411.265.604.432.193.168.365.355.514.56.151.206.27.428.357.666.088.235.131.483.131.742v2.943l-.995-.571v-.606l-.03-.017c-.06.102-.142.175-.243.221-.102.044-.225.054-.367.031-.143-.026-.308-.092-.496-.2zm.301-.662c.154.089.291.132.409.13.118-.004.211-.048.278-.13.067-.083.101-.201.101-.354v-.463c-.033.006-.078.002-.135-.01-.056-.013-.119-.031-.19-.055-.071-.025-.141-.052-.212-.079-.07-.029-.134-.055-.192-.079-.123-.05-.231-.079-.323-.086s-.163.013-.214.061c-.051.047-.076.127-.076.241 0 .164.051.32.155.467.105.145.238.264.399.357zm2.644 2.272v-4.363l1 .574v.77l.044.026c.079-.211.211-.337.395-.379.183-.042.403.011.66.158.259.149.48.351.662.605.182.253.304.523.365.812l.039.023c.077-.206.217-.326.419-.359.204-.035.444.028.722.187.353.203.639.498.859.884.222.385.333.814.333 1.287v2.935l-1.047-.602v-2.696c0-.242-.056-.456-.168-.641-.111-.186-.251-.327-.418-.423-.191-.109-.339-.125-.446-.046-.107.077-.16.229-.16.456v2.665l-1.017-.585v-2.721c0-.214-.054-.415-.161-.603-.105-.188-.243-.331-.416-.43-.116-.067-.222-.093-.315-.079-.092.013-.165.065-.219.155-.055.088-.082.213-.082.374v2.619zm8.051 4.712c-.389-.223-.724-.507-1.005-.85-.279-.344-.494-.727-.646-1.149-.151-.424-.226-.866-.226-1.326 0-.449.075-.8.226-1.052.152-.252.364-.394.638-.426.276-.031.6.06.971.274.249.143.482.323.697.539.217.216.406.462.566.738.163.277.289.581.38.911.09.329.135.678.135 1.05v.332l-3.194-1.836v-.75l2.207 1.268c0-.174-.033-.347-.099-.519-.066-.173-.157-.33-.273-.473-.115-.144-.249-.259-.402-.347-.159-.092-.3-.13-.424-.116-.121.014-.216.072-.285.174-.069.101-.105.237-.106.408v.713c0 .216.034.422.103.619.071.198.17.376.298.535s.28.289.456.39c.117.067.223.109.32.127s.18.009.249-.027c.069-.037.121-.099.158-.188l.97.631c-.049.241-.15.418-.303.531-.151.112-.346.155-.586.129-.238-.027-.513-.13-.825-.31z" fill="#455a64"/><path d="m84.2399 217.092s1.944-.426 1.854 1.854c-.096 2.4 1.674 5.634-2.676 6.798-2.3577.66-4.5372 1.841-6.378 3.456-1.584 1.242-5.862 2.46-9.084 1.02-5.922-2.652 2.136-5.856 2.136-5.856z" fill="#263238"/><path d="m107.172 217.122s1.2-.948 1.848 3.966 5.94 17.328-2.442 17.328c-4.302 0-4.68-6.696-4.662-11.262s-.162-8.934.432-9.696 4.824-.336 4.824-.336z" fill="#263238"/><path d="m88.6497 176.184c-.3547 1.804-.5555 3.634-.6 5.472 0 2.316.402 8.58 0 12.642s-2.7 19.656-2.862 20.706c-.0618.82-.0215 1.644.1199 2.454.0305.195.0068.394-.0683.576s-.1989.34-.3576.456c-1.278.954-4.5001 3.372-5.574 4.248-1.356 1.11-5.316 6.276-9.21 1.638 0 0 8.58-5.796 9-8.322s-1.302-24.414-1.8-27-.6-18.18-.6-18.18z" fill="#ffa8a7"/><path d="m106.05 174v4.8c0 .507.042 1.012.126 1.512.426 2.556 1.8 11.322 1.95 18.33.168 8.304.054 15.696-.3 18.798s1.494 9.078 1.656 9.99c.366 2.058.054 3.372-3 3.402-1.92 0-3.204-.36-3.366-3.33s-.498-8.676-.498-8.676-4.1461-19.494-4.8721-22.74-4.44-18.828-4.68-20.4z" fill="#ffa8a7"/><path d="m79.1997 89.844s-1.8.924-.342 5.214-1.872 6.432-2.742 4.746c0 0 .06 2.724 3.36 2.724s3.894-2.736 3.894-2.736 1.2 1.302 1.2 4.962-3.492 17.4 8.736 17.4c12.2283 0 12.0003-10.416 12.0003-10.416s3.138.054 3.138-4.632c0 0-4.764 2.958-4.764-3.654s1.086-15-3.9603-15c0 0 1.7343-3.6-1.716-5.892-3.45-2.292-13.8.828-13.8.828s-3.114-1.866-5.346.342c-2.718 2.724.342 6.114.342 6.114z" fill="#263238"/><path d="m85.1637 109.098c-2.6184.065-5.1525.939-7.254 2.502-3.564 2.64-9.822 7.2-9.822 7.2s-7.038-9.138-8.448-12l-4.542 3.336s6.846 17.964 11.832 17.964c3.714 0 14.586-8.202 14.586-8.202z" fill="#ffa8a7"/><path d="m60.3959 108.108c.4901-1.284.5219-2.697.09-4.002-.204-.666.36-2.586 0-2.868s-1.704-.258-2.07 2.358c-.6781-.958-1.1594-2.041-1.416-3.186-.366-1.8-.678-4.158-2.628-2.766s-4.344 4.422-2.496 7.41c1.8 2.886 3.198 5.07 3.198 5.07z" fill="#ffa8a7"/><path d="m103.356 140.886s1.434 3.156 2.274 9.84.42 23.292.42 23.292c-4.929 2.119-10.2351 3.221-15.6001 3.24-5.1759.039-10.2136-1.669-14.298-4.848 0 0 .156.702.156-11.346s2.586-19.2 2.586-19.2z" fill="#263238"/><path d="m96.0779 109.422 3.468.954c.2094.057.3959.178.5331.345.138.168.22.375.235.591l.864 12.522-1.9621 6.966c-.173.615-.2046 1.261-.0924 1.889.1122.629.3653 1.224.7404 1.741 1.4441 1.995 2.6181 4.172 3.4921 6.474 0 0-4.0441 5.118-13.3621 5.118-6.456 0-11.088-4.146-11.088-4.146.9222-2.744 1.5753-5.571 1.95-8.442.0871-1.62-.1016-3.243-.558-4.8 0 0-3.816-1.8-3.114-6.912s7.98-12.6 7.98-12.6l3.36-.09z" fill="#516eb4"/><path d="m96.078 109.422-9.6 6.24c-.0822.051-.1783.074-.2745.066-.0963-.007-.1877-.045-.261-.108-.0734-.062-.125-.147-.1474-.24-.0223-.094-.0143-.193.0229-.282l2.736-6.09v-10.008h7.554z" fill="#ffa8a7"/><path d="m88.5239 108.138c1.5434-.572 2.9542-1.452 4.1466-2.587 1.1924-1.134 2.1415-2.5 2.7894-4.013v-2.538h-6.936z" fill="#f28f8f"/><path d="m86.7596 86.6159s-6.906.402-6.054 12.216c.396 5.4601 1.674 8.2921 5.88 8.0821 4.764-.234 11.532-3.51 11.088-12.8521-.444-9.342-10.914-7.446-10.914-7.446z" fill="#ffa8a7"/><path d="m96.0777 98.9999s-1.896.498-1.896-2.214c0 0-8.4-.57-10.272-8.922 0 0 .828-2.502 6.084-2.502s9.672 4.644 8.298 11.034z" fill="#263238"/><path d="m85.77 96.462v4.062l-2.376-.732z" fill="#f28f8f"/><path d="m88.5238 97.7219c.4573 0 .828-.3707.828-.828s-.3707-.828-.828-.828-.828.3707-.828.828.3707.828.828.828z" fill="#263238"/><path d="m83.9099 96.318c0 .1638-.0486.3238-.1395.46-.091.1362-.2203.2423-.3716.305-.1513.0626-.3178.079-.4784.0471-.1606-.032-.3082-.1108-.424-.2266s-.1946-.2634-.2266-.424c-.0319-.1606-.0155-.3271.0471-.4784.0627-.1513.1688-.2806.305-.3716.1362-.0909.2962-.1395.46-.1395.2196 0 .4302.0872.5855.2425s.2425.3659.2425.5855z" fill="#263238"/><path d="m82.0739 94.5959 1.614-.966s-.6-.642-1.236-.258c-.1784.1427-.3098.3357-.3772.5539-.0674.2183-.0677.4517-.0008.6701z" fill="#263238"/><path d="m85.9736 101.868c.9431.069 1.8817-.183 2.664-.714 0 0 .186 1.404-.99 1.674-.3468.057-.7025-.008-1.0074-.183s-.5402-.449-.6666-.777z" fill="#f28f8f"/><path d="m95.3999 99.306c-.0285-.6875.0986-1.3726.372-2.004.1325-.3939.3777-.7403.7051-.9963.3274-.2559.7227-.4102 1.1369-.4437 2.118-.06 2.4001 1.986 2.4001 2.712-.0721 1.908-1.6201 3.972-4.5001 4.05z" fill="#ffa8a7"/><path d="m99.6 110.4s-3.468 4.092 1.596 13.446 5.478 10.134 5.478 10.134-3.462 10.128-4.8 15.342l5.178 2.826s5.484-11.472 6.786-13.974 1.344-4.434 0-7.854-5.334-11.934-6.378-14.4-4.374-4.572-7.86-5.52z" fill="#ffa8a7"/><path d="m101.874 149.31s-1.344-.036-2.844 1.878c-.426.546-2.322 1.2-2.4 1.62s.774 1.542 3.126.336c-.3944 1.11-1.0063 2.13-1.8 3-1.254 1.326-3 2.94-.75 3.738s6.114 1.02 7.5-2.208c1.344-3.114 2.316-5.532 2.316-5.532z" fill="#ffa8a7"/><path d="m95.5978 126.678s-3.204 4.2-8.4 2.31c.006.012 5.28 3.816 8.4-2.31z" fill="#000" opacity=".2"/></svg>