<svg width="300" height="300" viewBox="0 0 300 300" fill="none" xmlns="http://www.w3.org/2000/svg">
<path d="M150 288.246C224.416 288.246 284.742 253.416 284.742 210.45C284.742 167.485 224.416 132.654 150 132.654C75.5839 132.654 15.2578 167.485 15.2578 210.45C15.2578 253.416 75.5839 288.246 150 288.246Z" fill="#F5F5F5"/>
<path d="M59.1959 198.03L53.7059 201.222C53.7059 201.222 56.4779 192.378 54.9419 183.486C54.5699 181.402 53.813 179.406 52.7099 177.6C52.2779 176.7 48.9719 171.156 51.8819 168.6C54.7919 166.044 61.6319 171.126 61.3199 184.8C61.1721 189.282 60.4585 193.727 59.1959 198.03Z" fill="#516EB4"/>
<path opacity="0.3" d="M59.1959 198.03L53.7059 201.222C53.7059 201.222 56.4779 192.378 54.9419 183.486C54.5699 181.402 53.813 179.406 52.7099 177.6C52.2779 176.7 48.9719 171.156 51.8819 168.6C54.7919 166.044 61.6319 171.126 61.3199 184.8C61.1721 189.282 60.4585 193.727 59.1959 198.03Z" fill="black"/>
<path d="M56.6457 199.8H56.5557C56.5246 199.789 56.496 199.771 56.4716 199.749C56.4471 199.726 56.4274 199.699 56.4135 199.669C56.3995 199.639 56.3917 199.606 56.3903 199.573C56.389 199.54 56.3943 199.507 56.4057 199.476C56.4057 199.416 58.4697 193.734 58.3617 184.59C58.2537 175.446 53.5137 170.688 53.4657 170.64C53.4188 170.592 53.3926 170.527 53.3926 170.46C53.3926 170.393 53.4188 170.328 53.4657 170.28C53.4892 170.256 53.5172 170.237 53.5481 170.224C53.579 170.211 53.6122 170.204 53.6457 170.204C53.6793 170.204 53.7125 170.211 53.7434 170.224C53.7743 170.237 53.8023 170.256 53.8257 170.28C53.8737 170.328 58.7637 175.284 58.8717 184.584C58.9797 193.884 56.9037 199.584 56.8857 199.65C56.8641 199.695 56.83 199.733 56.7875 199.76C56.745 199.786 56.6959 199.8 56.6457 199.8Z" fill="white"/>
<path d="M54.9419 200.52L45.8759 205.854C45.8759 205.854 41.7239 205.254 42.0359 201.336C42.3479 197.418 44.0399 196.506 41.9399 194.79C39.8399 193.074 39.2939 192.99 39.3959 191.274C39.4979 189.558 40.5959 188.874 41.1599 188.19C41.7239 187.506 43.1759 186.126 42.1319 184.098C41.0879 182.07 39.6719 180.108 41.7779 179.178C43.0319 178.62 45.1379 179.316 46.5419 180.804C47.9459 182.292 49.0919 183.354 50.4179 183.696C51.7439 184.038 54.5039 184.074 54.4139 186.354C54.3239 188.634 53.7239 189.426 54.2819 190.44C55.3259 192.348 59.7779 193.38 54.9419 200.52Z" fill="#516EB4"/>
<path d="M51.2459 202.95C51.2128 202.948 51.1804 202.939 51.1507 202.924C51.121 202.909 51.0945 202.889 51.0728 202.864C51.051 202.839 51.0345 202.809 51.024 202.778C51.0136 202.746 51.0094 202.713 51.0119 202.68C51.0119 202.548 51.9899 189.264 42.7739 180.552C42.7501 180.529 42.7312 180.502 42.7183 180.471C42.7054 180.441 42.6987 180.408 42.6987 180.375C42.6987 180.342 42.7054 180.309 42.7183 180.279C42.7312 180.248 42.7501 180.221 42.7739 180.198C42.8221 180.151 42.8866 180.125 42.9539 180.125C43.0211 180.125 43.0857 180.151 43.1339 180.198C52.5299 189.078 51.5339 202.596 51.5339 202.734C51.5235 202.8 51.4876 202.86 51.4338 202.901C51.38 202.941 51.3126 202.959 51.2459 202.95Z" fill="white"/>
<path d="M49.6258 191.364C49.5584 191.358 49.4961 191.326 49.4523 191.274C49.4085 191.222 49.3868 191.156 49.3918 191.088C49.4615 189.975 49.7609 188.889 50.271 187.898C50.7811 186.906 51.491 186.032 52.3558 185.328C52.4111 185.29 52.4789 185.275 52.545 185.286C52.611 185.298 52.6702 185.334 52.7098 185.388C52.7297 185.415 52.744 185.445 52.7521 185.477C52.7601 185.51 52.7617 185.543 52.7566 185.576C52.7516 185.609 52.7401 185.641 52.7228 185.669C52.7055 185.698 52.6827 185.722 52.6558 185.742C51.8534 186.407 51.1952 187.229 50.7216 188.158C50.2481 189.086 49.9691 190.102 49.9018 191.142C49.8928 191.207 49.8592 191.267 49.8079 191.308C49.7566 191.349 49.6915 191.369 49.6258 191.364Z" fill="white"/>
<path d="M50.2918 193.668C50.2564 193.669 50.2213 193.662 50.1891 193.647C50.1569 193.633 50.1284 193.611 50.1058 193.584C50.1058 193.584 47.8018 191.124 42.6178 191.832C42.5845 191.838 42.5504 191.837 42.5176 191.829C42.4847 191.821 42.4538 191.807 42.4268 191.787C42.3998 191.766 42.3772 191.741 42.3605 191.711C42.3438 191.682 42.3334 191.65 42.3298 191.616C42.3211 191.549 42.3389 191.482 42.3792 191.428C42.4196 191.374 42.4793 191.338 42.5458 191.328C48.0118 190.578 50.3818 193.128 50.4838 193.248C50.5075 193.271 50.5264 193.298 50.5394 193.329C50.5523 193.359 50.5589 193.392 50.5589 193.425C50.5589 193.458 50.5523 193.491 50.5394 193.521C50.5264 193.552 50.5075 193.579 50.4838 193.602C50.459 193.627 50.4288 193.646 50.3955 193.658C50.3622 193.669 50.3267 193.673 50.2918 193.668Z" fill="white"/>
<path d="M261.666 223.2L171.12 170.946C169.504 170.015 167.672 169.524 165.807 169.524C163.942 169.524 162.11 170.015 160.494 170.946L128.49 189.426C127.964 189.731 127.528 190.168 127.225 190.695C126.921 191.221 126.762 191.818 126.762 192.426C126.762 193.034 126.921 193.631 127.225 194.157C127.528 194.684 127.964 195.121 128.49 195.426L219.036 247.704C220.652 248.636 222.484 249.126 224.349 249.126C226.214 249.126 228.046 248.636 229.662 247.704L261.666 229.224C262.197 228.921 262.639 228.483 262.946 227.954C263.253 227.425 263.415 226.824 263.415 226.212C263.415 225.6 263.253 225 262.946 224.471C262.639 223.942 262.197 223.503 261.666 223.2Z" fill="#E0E0E0"/>
<path d="M88.6558 247.224C104.582 247.224 117.492 239.77 117.492 230.574C117.492 221.379 104.582 213.924 88.6558 213.924C72.7301 213.924 59.8198 221.379 59.8198 230.574C59.8198 239.77 72.7301 247.224 88.6558 247.224Z" fill="#E0E0E0"/>
<path d="M221.952 242.148L148.92 199.986C143.772 197.016 139.59 189.03 139.59 182.16V25.8C139.59 18.93 143.79 15.774 148.92 18.744L221.952 60.9C227.1 63.9 231.276 71.85 231.276 78.72V235.098C231.276 241.968 227.1 245.124 221.952 242.148Z" fill="#455A64"/>
<path d="M230.358 55.998L157.332 13.836C155.13 12.564 153.102 12.414 151.506 13.194C151.309 13.2923 151.119 13.4025 150.936 13.524L142.758 18.282C144.402 17.298 146.556 17.37 148.92 18.732L221.952 60.9C227.1 63.9 231.276 71.85 231.276 78.72V235.098C231.276 238.728 230.112 241.326 228.276 242.52L236.352 237.816C238.41 236.724 239.718 234.042 239.718 230.196V73.8C239.688 66.954 235.512 58.968 230.358 55.998Z" fill="#37474F"/>
<path d="M231.276 78.72V235.098C231.276 238.728 230.112 241.326 228.276 242.52L236.352 237.816C238.41 236.724 239.718 234.042 239.718 230.196V73.8L231.318 78.684L231.276 78.72Z" fill="#263238"/>
<path d="M239.688 85.962L231.276 90.816V94.608L239.688 89.754V85.962Z" fill="#37474F"/>
<path d="M236.004 111.192C235.254 111.624 234.642 111.192 234.642 110.16V102C234.65 101.49 234.778 100.989 235.014 100.536C235.251 100.084 235.59 99.6936 236.004 99.396C236.754 98.964 237.366 99.426 237.366 100.428V108.6C237.356 109.108 237.227 109.607 236.991 110.057C236.754 110.506 236.417 110.895 236.004 111.192Z" fill="#37474F"/>
<path d="M234.642 110.16V102C234.65 101.49 234.777 100.989 235.014 100.536C235.25 100.084 235.589 99.6937 236.004 99.396C236.128 99.3107 236.272 99.2588 236.423 99.2451C236.573 99.2314 236.724 99.2565 236.862 99.318L235.848 98.79C235.708 98.7187 235.551 98.6871 235.395 98.6988C235.238 98.7104 235.088 98.7648 234.96 98.856C234.545 99.1537 234.206 99.5442 233.97 99.9964C233.733 100.449 233.606 100.95 233.598 101.46V109.62C233.575 109.826 233.607 110.034 233.689 110.225C233.771 110.415 233.901 110.581 234.066 110.706L235.134 111.264C234.962 111.14 234.825 110.972 234.739 110.778C234.652 110.585 234.619 110.371 234.642 110.16Z" fill="#455A64"/>
<path d="M236.004 130.932C235.254 131.364 234.642 130.932 234.642 129.9V121.746C234.651 121.236 234.778 120.735 235.015 120.283C235.251 119.831 235.59 119.44 236.004 119.142C236.754 118.71 237.366 119.172 237.366 120.174V128.328C237.358 128.838 237.231 129.34 236.994 129.792C236.758 130.244 236.419 130.634 236.004 130.932Z" fill="#37474F"/>
<path d="M234.642 129.9V121.746C234.65 121.236 234.778 120.735 235.015 120.283C235.251 119.831 235.59 119.44 236.004 119.142C236.128 119.057 236.272 119.005 236.423 118.991C236.573 118.978 236.724 119.003 236.862 119.064L235.848 118.536C235.707 118.468 235.551 118.438 235.395 118.45C235.239 118.461 235.089 118.514 234.96 118.602C234.546 118.9 234.207 119.291 233.97 119.743C233.734 120.195 233.606 120.696 233.598 121.206V129.36C233.575 129.566 233.607 129.774 233.689 129.965C233.771 130.155 233.901 130.321 234.066 130.446L235.134 131.004C234.962 130.88 234.825 130.712 234.739 130.519C234.652 130.325 234.619 130.111 234.642 129.9Z" fill="#455A64"/>
<path d="M219.408 65.292L147.642 23.85C147.341 23.6762 146.999 23.5847 146.652 23.5847C146.304 23.5848 145.962 23.6764 145.661 23.8503C145.36 24.0242 145.11 24.2744 144.937 24.5755C144.763 24.8767 144.672 25.2183 144.672 25.566V182.166C144.672 187.398 148.374 193.818 152.904 196.428L222.93 236.862C223.261 237.054 223.638 237.155 224.021 237.156C224.404 237.156 224.78 237.055 225.112 236.863C225.443 236.672 225.719 236.396 225.91 236.064C226.101 235.732 226.201 235.355 226.2 234.972V77.058C226.2 72.744 223.146 67.452 219.408 65.292Z" fill="#516EB4"/>
<path opacity="0.5" d="M219.408 65.292L147.642 23.85C147.341 23.6762 146.999 23.5847 146.652 23.5847C146.304 23.5848 145.962 23.6764 145.661 23.8503C145.36 24.0242 145.11 24.2744 144.937 24.5755C144.763 24.8767 144.672 25.2183 144.672 25.566V182.166C144.672 187.398 148.374 193.818 152.904 196.428L222.93 236.862C223.261 237.054 223.638 237.155 224.021 237.156C224.404 237.156 224.78 237.055 225.112 236.863C225.443 236.672 225.719 236.396 225.91 236.064C226.101 235.732 226.201 235.355 226.2 234.972V77.058C226.2 72.744 223.146 67.452 219.408 65.292Z" fill="white"/>
<path d="M169.098 34.668L170.214 39.354L193.998 53.07L198.108 50.88L169.098 34.668Z" fill="#455A64"/>
<path d="M176.088 39.192C176.088 39.972 175.548 40.284 174.888 39.9C174.536 39.6672 174.244 39.3546 174.035 38.9876C173.827 38.6207 173.708 38.2096 173.688 37.788C173.688 37.014 174.228 36.696 174.888 37.086C175.239 37.3185 175.53 37.6303 175.739 37.9961C175.947 38.3619 176.067 38.7715 176.088 39.192Z" fill="#263238"/>
<path d="M192.12 49.098C191.99 49.0988 191.861 49.0657 191.748 49.002L179.598 42.216C179.51 42.1671 179.433 42.1015 179.371 42.0229C179.309 41.9443 179.263 41.8542 179.236 41.7578C179.209 41.6615 179.201 41.5606 179.212 41.4611C179.224 41.3616 179.255 41.2654 179.304 41.178C179.353 41.0905 179.418 41.0135 179.497 40.9514C179.576 40.8893 179.666 40.8433 179.762 40.816C179.858 40.7887 179.959 40.7806 180.059 40.7923C180.158 40.804 180.254 40.8351 180.342 40.884L192.492 47.676C192.641 47.7562 192.76 47.8844 192.827 48.0399C192.895 48.1955 192.909 48.3693 192.866 48.5334C192.823 48.6976 192.726 48.8425 192.591 48.9449C192.455 49.0473 192.29 49.1012 192.12 49.098Z" fill="#263238"/>
<path d="M209.4 88.746V253.014C209.4 256.014 208.302 258.012 206.622 258.666H206.58L199.458 262.572L199.494 256.23L200.286 85.872L207.81 82.02C208.816 84.122 209.359 86.4159 209.4 88.746Z" fill="#E0E0E0"/>
<path d="M199.086 263.208L199.134 256.248L199.926 85.668L207.984 81.552L208.14 81.888C209.168 84.0311 209.724 86.3696 209.772 88.746V253.014C209.772 256.014 208.65 258.264 206.772 259.014L199.086 263.208ZM200.646 86.118L199.86 256.254L199.824 261.978L206.478 258.336C208.098 257.706 209.046 255.72 209.046 253.014V88.746C209.003 86.6036 208.523 84.4926 207.636 82.542L200.646 86.118Z" fill="#E0E0E0"/>
<path d="M207.81 82.044L200.286 85.896L119.742 39.036L114.342 35.91L121.776 31.71L121.986 31.584C123.186 30.87 124.722 30.918 126.432 31.908L202.668 75.924C204.744 77.112 206.58 79.392 207.81 82.044Z" fill="#E0E0E0"/>
<path d="M200.274 86.304L200.106 86.208L113.634 35.904L121.8 31.278C123.144 30.468 124.854 30.582 126.6 31.596L202.872 75.6C204.912 76.8 206.832 79.062 208.14 81.876L208.29 82.188L200.274 86.304ZM115.074 35.904L200.274 85.47L207.306 81.87C206.07 79.332 204.306 77.292 202.506 76.23L126.276 32.226C124.806 31.38 123.408 31.242 122.316 31.83L121.986 32.034L115.074 35.904Z" fill="#E0E0E0"/>
<path d="M202.026 92.892V257.046C202.026 259.632 201.204 261.492 199.884 262.362L199.458 262.596C198.312 263.136 196.878 263.016 195.318 262.116L158.466 240.84L141.246 230.898L119.076 218.1C115.368 215.958 112.362 210.21 112.362 205.272V41.13C112.362 38.628 113.13 36.816 114.366 35.91C114.576 35.7521 114.806 35.623 115.05 35.526C116.172 35.046 117.564 35.19 119.076 36.06L195.318 80.076C197.292 81.21 199.062 83.376 200.286 85.896C201.38 88.0692 201.974 90.4595 202.026 92.892Z" fill="#FAFAFA"/>
<path d="M119.076 217.134C134.766 226.494 175.578 250.848 195.78 263.016C196.382 263.375 197.068 263.569 197.769 263.577C198.47 263.585 199.16 263.407 199.77 263.061C200.38 262.716 200.887 262.214 201.24 261.609C201.593 261.003 201.78 260.315 201.78 259.614V90.822C201.779 88.9018 201.277 87.0152 200.322 85.3492C199.368 83.6832 197.994 82.2956 196.338 81.324L118.71 35.826C118.107 35.4654 117.418 35.2718 116.715 35.2648C116.012 35.2579 115.32 35.438 114.709 35.7866C114.099 36.1352 113.592 36.6398 113.241 37.2487C112.889 37.8576 112.706 38.549 112.71 39.252V205.962C112.713 208.216 113.301 210.431 114.417 212.389C115.533 214.348 117.138 215.983 119.076 217.134Z" fill="#FAFAFA"/>
<path d="M118.8 217.656C131.392 225.168 143.992 232.688 156.6 240.216C163.956 244.616 171.31 249.016 178.662 253.416L188.52 259.326L192.906 261.966C194.244 262.77 195.666 263.934 197.25 264.144C197.896 264.223 198.552 264.164 199.175 263.971C199.797 263.779 200.372 263.457 200.861 263.027C201.35 262.597 201.744 262.069 202.015 261.477C202.286 260.884 202.428 260.241 202.434 259.59C202.434 259.296 202.434 258.99 202.434 258.708V103.2C202.434 99.144 202.434 95.094 202.434 91.044C202.446 88.9469 201.904 86.8838 200.863 85.0632C199.822 83.2427 198.319 81.7292 196.506 80.676C194.736 79.626 192.954 78.594 191.178 77.55L165.75 62.652L135.54 45C130.092 41.808 124.68 38.556 119.202 35.4C118.489 34.9611 117.671 34.7233 116.834 34.7116C115.998 34.7 115.173 34.915 114.449 35.3339C113.724 35.7527 113.126 36.3598 112.719 37.0908C112.311 37.8218 112.109 38.6494 112.134 39.486C112.134 40.818 112.134 42.156 112.134 43.488V192.258C112.134 196.682 112.134 201.1 112.134 205.512C112.093 207.941 112.686 210.339 113.855 212.469C115.024 214.598 116.729 216.386 118.8 217.656C119.46 218.058 120.06 217.02 119.4 216.618C115.326 214.116 113.352 209.892 113.352 205.218V52.218C113.352 48.018 113.352 43.818 113.352 39.618C113.32 39.0712 113.411 38.5243 113.619 38.0176C113.827 37.5108 114.146 37.0571 114.552 36.69C115.896 35.55 117.51 35.784 118.908 36.6L124.908 40.122L150.6 55.2L180.09 72.48C185.358 75.57 190.638 78.63 195.888 81.738C197.537 82.706 198.898 84.0966 199.831 85.7662C200.763 87.4359 201.233 89.3241 201.192 91.236V258.426C201.192 258.786 201.192 259.152 201.192 259.512C201.195 260.131 201.031 260.74 200.715 261.273C200.4 261.806 199.946 262.244 199.401 262.539C198.857 262.834 198.242 262.975 197.623 262.949C197.005 262.922 196.405 262.727 195.888 262.386C189.69 258.732 183.552 254.97 177.384 251.274C163.128 242.726 148.846 234.19 134.538 225.666L119.4 216.6C119.26 216.52 119.094 216.5 118.939 216.542C118.783 216.585 118.651 216.688 118.572 216.828C118.492 216.968 118.472 217.134 118.514 217.289C118.557 217.444 118.66 217.576 118.8 217.656Z" fill="#EBEBEB"/>
<path d="M123.156 60.36C123.156 61.638 122.256 62.16 121.152 61.518C120.57 61.137 120.085 60.6248 119.737 60.0225C119.389 59.4201 119.187 58.7445 119.148 58.05C119.148 56.772 120.048 56.25 121.152 56.892C121.735 57.2719 122.22 57.7839 122.568 58.3865C122.917 58.989 123.118 59.6651 123.156 60.36Z" fill="#516EB4"/>
<path d="M121.152 61.518C119.52 60.57 118.194 61.572 118.194 63.756V64.428L124.11 67.848V67.2C124.11 64.992 122.784 62.46 121.152 61.518Z" fill="#516EB4"/>
<path d="M196.35 81.324L118.71 35.826C118.107 35.4654 117.418 35.2718 116.715 35.2648C116.012 35.2579 115.32 35.438 114.709 35.7866C114.099 36.1352 113.592 36.6398 113.241 37.2487C112.889 37.8576 112.706 38.549 112.71 39.252V46.572L201.744 97.974V90.822C201.748 88.9065 201.253 87.023 200.307 85.3574C199.361 83.6917 197.997 82.3015 196.35 81.324Z" fill="#EBEBEB"/>
<path d="M174.962 152.684C184.737 147.04 184.737 128.742 174.963 111.814C165.19 94.8848 149.343 85.7362 139.568 91.3794C129.794 97.0227 129.793 115.321 139.567 132.25C149.341 149.178 165.188 158.327 174.962 152.684Z" fill="#455A64"/>
<path d="M146.172 108.93C146.172 108.93 144.54 109.752 145.86 113.58C147.18 117.408 144.198 119.322 143.418 117.816C143.418 117.816 143.472 120.216 146.418 120.216C147.189 120.273 147.955 120.062 148.587 119.618C149.22 119.174 149.679 118.524 149.886 117.78C149.886 117.78 150.948 118.938 150.948 122.202C150.948 125.466 147.828 137.736 158.748 137.736C169.668 137.736 169.446 128.442 169.446 128.442C169.446 128.442 172.242 128.496 172.242 124.314C172.242 124.314 167.994 126.954 167.994 121.056C167.994 115.158 168.966 107.7 164.466 107.7C164.466 107.7 166.014 104.496 162.936 102.45C159.858 100.404 150.6 103.2 150.6 103.2C150.6 103.2 147.822 101.532 145.83 103.5C143.4 105.912 146.172 108.93 146.172 108.93Z" fill="#263238"/>
<path d="M151.464 126.102L151.086 132.654L150.342 145.554L150.258 145.74C148.11 143.769 146.129 141.624 144.336 139.326C143.6 138.378 142.886 137.408 142.194 136.416C142.794 134.016 143.34 131.868 143.778 130.416C144.894 126.756 148.866 126.18 150.624 126.108C151.14 126.084 151.464 126.102 151.464 126.102Z" fill="#FFA8A7"/>
<path d="M167.634 154.326C166.868 154.292 166.107 154.204 165.354 154.062C162.499 153.486 159.764 152.427 157.266 150.93C154.748 149.459 152.399 147.719 150.258 145.74C148.11 143.769 146.129 141.624 144.336 139.326C144.243 138.659 144.243 137.983 144.336 137.316C144.816 133.824 148.752 129.09 150.552 127.074C151.104 126.474 151.452 126.102 151.452 126.102L154.452 126.024L161.19 126.396L164.286 127.242C164.466 127.296 164.625 127.403 164.742 127.55C164.859 127.697 164.928 127.876 164.94 128.064L165.486 135.978L165.714 139.236L165.354 140.496L163.962 145.416C163.81 145.966 163.786 146.544 163.889 147.105C163.993 147.666 164.223 148.196 164.562 148.656C164.802 148.986 165.078 149.376 165.354 149.82C166.272 151.237 167.036 152.747 167.634 154.326Z" fill="#516EB4"/>
<path d="M161.196 126.39L152.61 131.952C152.537 132.007 152.448 132.035 152.357 132.033C152.266 132.031 152.179 131.997 152.109 131.939C152.04 131.88 151.992 131.8 151.974 131.711C151.956 131.622 151.969 131.529 152.01 131.448L154.446 126.048V117.096H161.184L161.196 126.39Z" fill="#FFA8A7"/>
<path d="M154.458 125.244C155.835 124.735 157.094 123.95 158.157 122.938C159.221 121.926 160.067 120.708 160.644 119.358V117.096H154.458V125.244Z" fill="#F28F8F"/>
<path d="M152.892 106.05C152.892 106.05 146.73 106.416 147.492 116.946C147.84 121.818 148.986 124.338 152.736 124.146C156.984 123.936 163.014 121.02 162.618 112.686C162.222 104.352 152.892 106.05 152.892 106.05Z" fill="#FFA8A7"/>
<path d="M161.196 117.096C161.196 117.096 159.504 117.54 159.504 115.122C159.504 115.122 152.004 114.612 150.342 107.166C150.342 107.166 151.086 104.934 155.772 104.934C160.458 104.934 164.4 109.08 163.2 114.774L161.196 117.096Z" fill="#263238"/>
<path d="M152.004 114.834V118.452L149.886 117.804L152.004 114.834Z" fill="#F28F8F"/>
<path d="M155.196 115.2C155.196 115.346 155.152 115.489 155.071 115.61C154.99 115.731 154.875 115.826 154.74 115.882C154.605 115.938 154.457 115.952 154.314 115.924C154.171 115.895 154.039 115.825 153.936 115.722C153.833 115.619 153.762 115.487 153.734 115.344C153.705 115.201 153.72 115.052 153.776 114.918C153.832 114.783 153.926 114.668 154.048 114.586C154.169 114.505 154.312 114.462 154.458 114.462C154.555 114.462 154.651 114.481 154.74 114.518C154.83 114.555 154.911 114.61 154.98 114.678C155.048 114.747 155.102 114.828 155.14 114.918C155.177 115.007 155.196 115.103 155.196 115.2Z" fill="#263238"/>
<path d="M150.342 114.702C150.342 114.848 150.298 114.991 150.217 115.112C150.136 115.233 150.021 115.328 149.886 115.384C149.751 115.44 149.603 115.454 149.46 115.426C149.317 115.397 149.185 115.327 149.082 115.224C148.979 115.121 148.908 114.989 148.88 114.846C148.851 114.703 148.866 114.554 148.922 114.42C148.978 114.285 149.072 114.169 149.194 114.088C149.315 114.007 149.458 113.964 149.604 113.964C149.799 113.964 149.987 114.042 150.126 114.18C150.264 114.319 150.342 114.506 150.342 114.702Z" fill="#263238"/>
<path d="M148.71 113.166L150.15 112.308C150.15 112.308 149.598 111.708 149.046 112.08C148.886 112.206 148.769 112.377 148.709 112.571C148.649 112.765 148.649 112.972 148.71 113.166Z" fill="#263238"/>
<path d="M152.19 119.652C153.039 119.716 153.884 119.492 154.59 119.016C154.59 119.016 154.752 120.27 153.702 120.51C153.389 120.566 153.067 120.51 152.791 120.354C152.515 120.197 152.302 119.949 152.19 119.652Z" fill="#F28F8F"/>
<path d="M160.596 117.366C160.568 116.748 160.683 116.132 160.932 115.566C161.053 115.213 161.276 114.904 161.573 114.679C161.87 114.453 162.227 114.322 162.6 114.3C164.49 114.246 164.748 116.07 164.718 116.7C164.652 118.404 163.272 120.24 160.71 120.3L160.596 117.366Z" fill="#FFA8A7"/>
<path d="M173.352 153.468C171.529 154.161 169.579 154.454 167.634 154.326C166.868 154.292 166.106 154.204 165.354 154.062V149.862V140.538C164.718 139.391 164.193 138.185 163.788 136.938C161.826 130.824 164.286 127.338 164.286 127.338C166.081 127.779 167.789 128.519 169.338 129.528C170.464 130.274 171.355 131.325 171.906 132.558C173.646 136.476 173.754 142.2 173.352 153.468Z" fill="#FFA8A7"/>
<path opacity="0.2" d="M160.8 141.774C159.918 142.848 158.725 143.622 157.386 143.991C156.046 144.359 154.625 144.304 153.318 143.832C153.318 143.832 157.986 147.234 160.8 141.774Z" fill="black"/>
<path d="M193.254 100.254C193.254 100.782 192.888 100.998 192.426 100.734C192.184 100.576 191.983 100.363 191.84 100.113C191.696 99.8628 191.613 99.5822 191.598 99.294C191.598 98.766 191.97 98.556 192.426 98.82C192.668 98.9753 192.87 99.1866 193.014 99.4361C193.158 99.6856 193.241 99.9661 193.254 100.254Z" fill="#516EB4"/>
<path d="M193.254 104.004C193.254 104.532 192.888 104.748 192.426 104.484C192.185 104.326 191.984 104.113 191.84 103.863C191.696 103.613 191.613 103.332 191.598 103.044C191.598 102.516 191.97 102.3 192.426 102.57C192.668 102.725 192.87 102.937 193.014 103.186C193.158 103.436 193.241 103.716 193.254 104.004Z" fill="#516EB4"/>
<path d="M193.254 107.754C193.254 108.282 192.888 108.498 192.426 108.234C192.185 108.076 191.984 107.863 191.84 107.613C191.696 107.363 191.613 107.082 191.598 106.794C191.598 106.266 191.97 106.05 192.426 106.32C192.668 106.475 192.87 106.687 193.014 106.936C193.158 107.186 193.241 107.466 193.254 107.754Z" fill="#516EB4"/>
<path d="M195.54 232.062C195.488 232.062 195.436 232.049 195.39 232.026L118.836 187.8C118.801 187.781 118.771 187.755 118.747 187.724C118.723 187.693 118.705 187.657 118.695 187.619C118.685 187.581 118.683 187.541 118.688 187.502C118.694 187.463 118.707 187.426 118.728 187.392C118.768 187.324 118.833 187.274 118.909 187.253C118.985 187.232 119.066 187.241 119.136 187.278L195.69 231.48C195.758 231.52 195.807 231.585 195.829 231.661C195.85 231.737 195.841 231.818 195.804 231.888C195.779 231.938 195.742 231.98 195.695 232.011C195.649 232.042 195.595 232.059 195.54 232.062Z" fill="#516EB4"/>
<path d="M195.54 224.304C195.487 224.304 195.435 224.29 195.39 224.262L118.836 180.066C118.767 180.025 118.718 179.958 118.697 179.881C118.677 179.804 118.688 179.721 118.728 179.652C118.747 179.618 118.773 179.588 118.804 179.563C118.835 179.539 118.871 179.522 118.909 179.512C118.947 179.502 118.987 179.499 119.026 179.505C119.065 179.51 119.102 179.524 119.136 179.544L195.69 223.746C195.759 223.785 195.81 223.85 195.831 223.926C195.852 224.003 195.843 224.085 195.804 224.154C195.776 224.199 195.737 224.237 195.691 224.263C195.645 224.289 195.593 224.303 195.54 224.304Z" fill="#516EB4"/>
<path d="M195.54 216.546C195.487 216.543 195.436 216.529 195.39 216.504L118.836 172.302C118.776 172.258 118.734 172.194 118.719 172.121C118.704 172.049 118.716 171.973 118.753 171.909C118.79 171.844 118.85 171.796 118.921 171.774C118.992 171.751 119.068 171.755 119.136 171.786L195.69 216C195.758 216.041 195.808 216.107 195.83 216.184C195.851 216.261 195.842 216.344 195.804 216.414C195.774 216.456 195.735 216.49 195.689 216.513C195.642 216.536 195.591 216.548 195.54 216.546Z" fill="#516EB4"/>
<path d="M151.329 81.189V76.8253L152.821 77.6832C153.108 77.8481 153.353 78.0518 153.555 78.2943C153.757 78.5354 153.911 78.7979 154.017 79.0817C154.124 79.3649 154.177 79.6514 154.177 79.9412C154.177 80.2309 154.123 80.4555 154.015 80.6148C153.906 80.7741 153.749 80.8564 153.544 80.8618C153.339 80.8679 153.092 80.7874 152.801 80.6204L151.85 80.0736V79.3343L152.672 79.8067C152.826 79.8952 152.953 79.9375 153.052 79.9338C153.153 79.9293 153.228 79.8866 153.278 79.8055C153.328 79.7237 153.353 79.6111 153.353 79.4676C153.353 79.3228 153.328 79.1818 153.278 79.0449C153.228 78.9072 153.153 78.7795 153.052 78.6618C152.951 78.5427 152.823 78.4385 152.668 78.3493L152.129 78.0393V81.6487L151.329 81.189ZM154.682 83.1162V79.8435L155.445 80.282V80.853L155.475 80.87C155.526 80.6966 155.613 80.5931 155.735 80.5594C155.857 80.5244 155.997 80.5525 156.156 80.6438C156.196 80.6665 156.238 80.6937 156.284 80.7256C156.329 80.7575 156.369 80.7883 156.404 80.8181V81.6234C156.367 81.5894 156.316 81.5487 156.251 81.5012C156.185 81.4538 156.126 81.4145 156.071 81.3833C155.956 81.3168 155.852 81.2865 155.761 81.2923C155.671 81.2975 155.6 81.336 155.547 81.4078C155.495 81.4804 155.469 81.5834 155.469 81.7169V83.5685L154.682 83.1162ZM157.961 85.0643C157.674 84.8994 157.426 84.6865 157.216 84.4256C157.008 84.1639 156.847 83.8741 156.734 83.5561C156.621 83.2367 156.564 82.9094 156.564 82.5742C156.564 82.2361 156.621 81.9732 156.734 81.7855C156.847 81.5964 157.008 81.4913 157.216 81.4703C157.426 81.4486 157.674 81.5202 157.961 81.6851C158.248 81.85 158.495 82.0633 158.703 82.325C158.913 82.5859 159.074 82.8761 159.187 83.1954C159.301 83.5134 159.357 83.8414 159.357 84.1795C159.357 84.5147 159.301 84.7769 159.187 84.966C159.074 85.1538 158.913 85.2585 158.703 85.2802C158.495 85.3012 158.248 85.2293 157.961 85.0643ZM157.964 84.3633C158.095 84.4384 158.204 84.4584 158.291 84.4234C158.379 84.387 158.445 84.307 158.489 84.1833C158.535 84.0604 158.557 83.9037 158.557 83.7134C158.557 83.523 158.535 83.3402 158.489 83.1649C158.445 82.9902 158.379 82.8345 158.291 82.6976C158.204 82.5607 158.095 82.4547 157.964 82.3797C157.833 82.3039 157.722 82.2836 157.632 82.3185C157.543 82.3542 157.476 82.4336 157.431 82.5565C157.386 82.6802 157.364 82.8372 157.364 83.0275C157.364 83.2179 157.386 83.4004 157.431 83.575C157.476 83.7503 157.543 83.9068 157.632 84.0444C157.722 84.1813 157.833 84.2876 157.964 84.3633ZM161.395 83.7014V84.3832L159.644 83.3767V82.6949L161.395 83.7014ZM160.045 86.198V82.6888C160.045 82.4516 160.085 82.2778 160.165 82.1676C160.246 82.058 160.357 82.0046 160.497 82.0071C160.638 82.0097 160.797 82.0623 160.976 82.1649C161.096 82.2343 161.207 82.3083 161.306 82.3869C161.407 82.4663 161.482 82.5286 161.532 82.574L161.391 83.1751C161.36 83.146 161.322 83.1134 161.277 83.0773C161.232 83.0419 161.187 83.0107 161.14 82.9838C161.024 82.9173 160.944 82.9022 160.898 82.9385C160.852 82.9734 160.83 83.0462 160.83 83.157V86.6492L160.045 86.198ZM161.876 87.2504V83.9777L162.663 84.43V87.7027L161.876 87.2504ZM162.271 83.783C162.154 83.7158 162.054 83.6133 161.97 83.4757C161.887 83.3374 161.846 83.205 161.846 83.0786C161.846 82.9536 161.887 82.8701 161.97 82.828C162.054 82.7852 162.154 82.7974 162.271 82.8647C162.388 82.9319 162.488 83.0347 162.57 83.173C162.654 83.3107 162.696 83.442 162.696 83.567C162.696 83.6934 162.654 83.778 162.57 83.8208C162.488 83.8628 162.388 83.8502 162.271 83.783ZM164.08 84.1536V88.5173L163.293 88.065V83.7013L164.08 84.1536ZM166.004 89.6867C165.712 89.5189 165.46 89.3063 165.25 89.0489C165.04 88.7908 164.879 88.5035 164.766 88.187C164.653 87.869 164.596 87.5375 164.596 87.1923C164.596 86.8556 164.653 86.5927 164.766 86.4036C164.879 86.2144 165.039 86.108 165.244 86.0841C165.451 86.061 165.694 86.1294 165.972 86.2893C166.159 86.3969 166.334 86.5319 166.495 86.6942C166.658 86.8558 166.799 87.0402 166.92 87.2473C167.042 87.4552 167.137 87.683 167.204 87.9307C167.272 88.177 167.306 88.4394 167.306 88.7178V88.9671L164.91 87.5901V87.0276L166.565 87.9789C166.565 87.8482 166.541 87.7183 166.491 87.5891C166.442 87.4599 166.374 87.3418 166.286 87.2347C166.2 87.127 166.1 87.0402 165.985 86.9743C165.866 86.9057 165.76 86.8768 165.667 86.8876C165.576 86.8977 165.505 86.9412 165.453 87.018C165.401 87.0934 165.375 87.1954 165.374 87.3239V87.8587C165.374 88.0206 165.399 88.1754 165.451 88.323C165.504 88.4714 165.579 88.6051 165.675 88.7242C165.771 88.8434 165.885 88.9408 166.016 89.0165C166.104 89.0668 166.184 89.0986 166.257 89.1119C166.329 89.1253 166.391 89.1184 166.443 89.0913C166.495 89.0642 166.534 89.0173 166.561 88.9505L167.289 89.4242C167.252 89.6046 167.177 89.7372 167.062 89.822C166.949 89.906 166.802 89.9383 166.622 89.9187C166.444 89.8985 166.238 89.8211 166.004 89.6867Z" fill="#455A64"/>
<path d="M140.143 151.264L141.337 151.95L142.488 155.117L142.537 155.146L143.687 153.301L144.882 153.987L143.042 156.691V158.748L141.983 158.14V156.083L140.143 151.264ZM146.362 160.741C145.979 160.521 145.648 160.238 145.369 159.89C145.091 159.541 144.877 159.154 144.726 158.73C144.575 158.305 144.499 157.868 144.499 157.421C144.499 156.97 144.575 156.62 144.726 156.37C144.877 156.117 145.091 155.977 145.369 155.949C145.648 155.92 145.979 156.016 146.362 156.236C146.744 156.456 147.074 156.74 147.352 157.089C147.631 157.437 147.846 157.824 147.997 158.249C148.148 158.673 148.224 159.111 148.224 159.561C148.224 160.008 148.148 160.358 147.997 160.61C147.846 160.861 147.631 161 147.352 161.029C147.074 161.057 146.744 160.961 146.362 160.741ZM146.367 159.807C146.541 159.907 146.686 159.933 146.802 159.887C146.919 159.838 147.007 159.732 147.066 159.567C147.127 159.403 147.157 159.194 147.157 158.94C147.157 158.686 147.127 158.442 147.066 158.209C147.007 157.976 146.919 157.768 146.802 157.586C146.686 157.403 146.541 157.262 146.367 157.162C146.191 157.061 146.043 157.034 145.923 157.08C145.805 157.128 145.715 157.234 145.655 157.398C145.596 157.562 145.566 157.772 145.566 158.026C145.566 158.279 145.596 158.523 145.655 158.755C145.715 158.989 145.805 159.198 145.923 159.381C146.043 159.564 146.191 159.706 146.367 159.807ZM151.332 161.655V159.149L152.381 159.752V164.116L151.374 163.537V162.744L151.335 162.722C151.249 162.928 151.107 163.052 150.908 163.093C150.711 163.135 150.471 163.075 150.187 162.911C149.934 162.766 149.711 162.572 149.519 162.329C149.327 162.086 149.177 161.811 149.069 161.504C148.962 161.199 148.908 160.875 148.906 160.533V157.755L149.955 158.358V160.92C149.957 161.179 150.017 161.417 150.135 161.634C150.253 161.852 150.412 162.018 150.61 162.132C150.737 162.205 150.855 162.24 150.965 162.236C151.075 162.232 151.164 162.182 151.231 162.088C151.3 161.995 151.334 161.851 151.332 161.655ZM153.221 164.598V160.234L154.238 160.819V161.58L154.277 161.603C154.346 161.372 154.462 161.234 154.625 161.189C154.787 161.142 154.974 161.18 155.186 161.302C155.239 161.332 155.295 161.368 155.356 161.411C155.417 161.453 155.47 161.494 155.516 161.534V162.608C155.467 162.562 155.399 162.508 155.312 162.445C155.225 162.382 155.145 162.329 155.073 162.288C154.919 162.199 154.781 162.158 154.659 162.166C154.539 162.173 154.444 162.224 154.373 162.32C154.304 162.417 154.27 162.554 154.27 162.732V165.201L153.221 164.598ZM157.108 164.31V166.832L156.059 166.229V161.866L157.059 162.44V163.21L157.103 163.236C157.187 163.03 157.327 162.91 157.524 162.875C157.721 162.839 157.96 162.902 158.241 163.063C158.504 163.214 158.733 163.412 158.928 163.657C159.124 163.902 159.276 164.178 159.384 164.487C159.492 164.793 159.547 165.116 159.547 165.455V168.234L158.497 167.631V165.068C158.499 164.802 158.44 164.56 158.32 164.341C158.2 164.121 158.035 163.95 157.825 163.829C157.684 163.748 157.559 163.712 157.451 163.719C157.344 163.728 157.26 163.782 157.199 163.882C157.14 163.98 157.11 164.123 157.108 164.31ZM161.452 169.411C161.211 169.273 160.996 169.101 160.807 168.896C160.618 168.689 160.469 168.458 160.359 168.203C160.25 167.948 160.196 167.676 160.196 167.388C160.196 167.146 160.235 166.964 160.312 166.844C160.389 166.724 160.494 166.651 160.627 166.627C160.76 166.604 160.911 166.615 161.081 166.661C161.251 166.708 161.43 166.775 161.617 166.861C161.838 166.961 162.015 167.039 162.149 167.093C162.284 167.146 162.382 167.166 162.443 167.154C162.503 167.141 162.534 167.089 162.534 166.996V166.979C162.534 166.799 162.484 166.631 162.386 166.476C162.289 166.322 162.151 166.194 161.972 166.091C161.783 165.982 161.633 165.944 161.521 165.977C161.41 166.007 161.336 166.084 161.3 166.207L160.329 165.558C160.379 165.322 160.475 165.148 160.62 165.038C160.764 164.926 160.951 164.883 161.179 164.91C161.409 164.937 161.675 165.036 161.977 165.21C162.187 165.331 162.388 165.475 162.581 165.642C162.774 165.81 162.946 165.997 163.095 166.202C163.246 166.408 163.365 166.63 163.452 166.868C163.54 167.103 163.583 167.351 163.583 167.61V170.553L162.588 169.982V169.376L162.558 169.359C162.498 169.461 162.416 169.534 162.315 169.58C162.213 169.624 162.09 169.634 161.948 169.611C161.805 169.585 161.64 169.519 161.452 169.411ZM161.753 168.749C161.907 168.838 162.044 168.881 162.162 168.879C162.28 168.875 162.373 168.831 162.44 168.749C162.507 168.666 162.541 168.548 162.541 168.395V167.932C162.508 167.938 162.463 167.934 162.406 167.922C162.35 167.909 162.287 167.891 162.216 167.867C162.145 167.842 162.075 167.815 162.004 167.788C161.934 167.759 161.87 167.733 161.812 167.709C161.689 167.659 161.581 167.63 161.489 167.623C161.397 167.616 161.326 167.636 161.275 167.684C161.224 167.731 161.199 167.811 161.199 167.925C161.199 168.089 161.25 168.245 161.354 168.392C161.459 168.537 161.592 168.656 161.753 168.749ZM164.397 171.021V166.658L165.397 167.232V168.002L165.441 168.028C165.52 167.817 165.652 167.691 165.836 167.649C166.019 167.607 166.239 167.66 166.496 167.807C166.755 167.956 166.976 168.158 167.158 168.412C167.34 168.665 167.462 168.935 167.523 169.224L167.562 169.247C167.639 169.041 167.779 168.921 167.981 168.888C168.185 168.853 168.425 168.916 168.703 169.075C169.056 169.278 169.342 169.573 169.562 169.959C169.784 170.344 169.895 170.773 169.895 171.246V174.181L168.848 173.579V170.883C168.848 170.641 168.792 170.427 168.68 170.242C168.569 170.056 168.429 169.915 168.262 169.819C168.071 169.71 167.923 169.694 167.816 169.773C167.709 169.85 167.656 170.002 167.656 170.229V172.894L166.639 172.309V169.588C166.639 169.374 166.585 169.173 166.478 168.985C166.373 168.797 166.235 168.654 166.062 168.555C165.946 168.488 165.84 168.462 165.747 168.476C165.655 168.489 165.582 168.541 165.528 168.631C165.473 168.719 165.446 168.844 165.446 169.005V171.624L164.397 171.021ZM172.448 175.733C172.059 175.51 171.724 175.226 171.443 174.883C171.164 174.539 170.949 174.156 170.797 173.734C170.646 173.31 170.571 172.868 170.571 172.408C170.571 171.959 170.646 171.608 170.797 171.356C170.949 171.104 171.161 170.962 171.435 170.93C171.711 170.899 172.035 170.99 172.406 171.204C172.655 171.347 172.888 171.527 173.103 171.743C173.32 171.959 173.509 172.205 173.669 172.481C173.832 172.758 173.958 173.062 174.049 173.392C174.139 173.721 174.184 174.07 174.184 174.442V174.774L170.99 172.938V172.188L173.197 173.456C173.197 173.282 173.164 173.109 173.098 172.937C173.032 172.764 172.941 172.607 172.825 172.464C172.71 172.32 172.576 172.205 172.423 172.117C172.264 172.025 172.123 171.987 171.999 172.001C171.878 172.015 171.783 172.073 171.714 172.175C171.645 172.276 171.609 172.412 171.608 172.583V173.296C171.608 173.512 171.642 173.718 171.711 173.915C171.782 174.113 171.881 174.291 172.009 174.45C172.137 174.609 172.289 174.739 172.465 174.84C172.582 174.907 172.688 174.949 172.785 174.967C172.882 174.985 172.965 174.976 173.034 174.94C173.103 174.903 173.155 174.841 173.192 174.752L174.162 175.383C174.113 175.624 174.012 175.801 173.859 175.914C173.708 176.026 173.513 176.069 173.273 176.043C173.035 176.016 172.76 175.913 172.448 175.733Z" fill="#455A64"/>
<path d="M84.2399 217.092C84.2399 217.092 86.1839 216.666 86.0939 218.946C85.9979 221.346 87.7679 224.58 83.4179 225.744C81.0602 226.404 78.8807 227.585 77.0399 229.2C75.4559 230.442 71.1779 231.66 67.9559 230.22C62.0339 227.568 70.0919 224.364 70.0919 224.364L84.2399 217.092Z" fill="#263238"/>
<path d="M107.172 217.122C107.172 217.122 108.372 216.174 109.02 221.088C109.668 226.002 114.96 238.416 106.578 238.416C102.276 238.416 101.898 231.72 101.916 227.154C101.934 222.588 101.754 218.22 102.348 217.458C102.942 216.696 107.172 217.122 107.172 217.122Z" fill="#263238"/>
<path d="M88.6497 176.184C88.295 177.988 88.0942 179.818 88.0497 181.656C88.0497 183.972 88.4517 190.236 88.0497 194.298C87.6477 198.36 85.3497 213.954 85.1877 215.004C85.1259 215.824 85.1662 216.648 85.3076 217.458C85.3381 217.653 85.3144 217.852 85.2393 218.034C85.1642 218.216 85.0404 218.374 84.8817 218.49C83.6037 219.444 80.3816 221.862 79.3077 222.738C77.9517 223.848 73.9917 229.014 70.0977 224.376C70.0977 224.376 78.6777 218.58 79.0977 216.054C79.5177 213.528 77.7957 191.64 77.2977 189.054C76.7997 186.468 76.6977 170.874 76.6977 170.874L88.6497 176.184Z" fill="#FFA8A7"/>
<path d="M106.05 174V178.8C106.05 179.307 106.092 179.812 106.176 180.312C106.602 182.868 107.976 191.634 108.126 198.642C108.294 206.946 108.18 214.338 107.826 217.44C107.472 220.542 109.32 226.518 109.482 227.43C109.848 229.488 109.536 230.802 106.482 230.832C104.562 230.832 103.278 230.472 103.116 227.502C102.954 224.532 102.618 218.826 102.618 218.826C102.618 218.826 98.4719 199.332 97.7459 196.086C97.0199 192.84 93.3059 177.258 93.0659 175.686L106.05 174Z" fill="#FFA8A7"/>
<path d="M79.1997 89.844C79.1997 89.844 77.3997 90.768 78.8577 95.058C80.3157 99.348 76.9857 101.49 76.1157 99.804C76.1157 99.804 76.1757 102.528 79.4757 102.528C82.7757 102.528 83.3697 99.792 83.3697 99.792C83.3697 99.792 84.5697 101.094 84.5697 104.754C84.5697 108.414 81.0777 122.154 93.3057 122.154C105.534 122.154 105.306 111.738 105.306 111.738C105.306 111.738 108.444 111.792 108.444 107.106C108.444 107.106 103.68 110.064 103.68 103.452C103.68 96.84 104.766 88.452 99.7197 88.452C99.7197 88.452 101.454 84.852 98.0037 82.56C94.5537 80.268 84.2037 83.388 84.2037 83.388C84.2037 83.388 81.0897 81.522 78.8577 83.73C76.1397 86.454 79.1997 89.844 79.1997 89.844Z" fill="#263238"/>
<path d="M85.1637 109.098C82.5453 109.163 80.0112 110.037 77.9097 111.6C74.3457 114.24 68.0877 118.8 68.0877 118.8C68.0877 118.8 61.0497 109.662 59.6397 106.8L55.0977 110.136C55.0977 110.136 61.9437 128.1 66.9297 128.1C70.6437 128.1 81.5157 119.898 81.5157 119.898L85.1637 109.098Z" fill="#FFA8A7"/>
<path d="M60.3959 108.108C60.886 106.824 60.9178 105.411 60.4859 104.106C60.2819 103.44 60.8459 101.52 60.4859 101.238C60.1259 100.956 58.7819 100.98 58.4159 103.596C57.7378 102.638 57.2565 101.555 56.9999 100.41C56.6339 98.61 56.3219 96.252 54.3719 97.644C52.4219 99.036 50.0279 102.066 51.8759 105.054C53.6759 107.94 55.0739 110.124 55.0739 110.124L60.3959 108.108Z" fill="#FFA8A7"/>
<path d="M103.356 140.886C103.356 140.886 104.79 144.042 105.63 150.726C106.47 157.41 106.05 174.018 106.05 174.018C101.121 176.137 95.8149 177.239 90.4499 177.258C85.274 177.297 80.2363 175.589 76.1519 172.41C76.1519 172.41 76.3079 173.112 76.3079 161.064C76.3079 149.016 78.8939 141.864 78.8939 141.864L103.356 140.886Z" fill="#263238"/>
<path d="M96.0779 109.422L99.5459 110.376C99.7553 110.433 99.9418 110.554 100.079 110.721C100.217 110.889 100.299 111.096 100.314 111.312L101.178 123.834L99.2159 130.8C99.0429 131.415 99.0113 132.061 99.1235 132.689C99.2357 133.318 99.4888 133.913 99.8639 134.43C101.308 136.425 102.482 138.602 103.356 140.904C103.356 140.904 99.3119 146.022 89.9939 146.022C83.5379 146.022 78.9059 141.876 78.9059 141.876C79.8281 139.132 80.4812 136.305 80.8559 133.434C80.943 131.814 80.7543 130.191 80.2979 128.634C80.2979 128.634 76.4819 126.834 77.1839 121.722C77.8859 116.61 85.1639 109.122 85.1639 109.122L88.5239 109.032L96.0779 109.422Z" fill="#516EB4"/>
<path d="M96.078 109.422L86.478 115.662C86.3958 115.713 86.2997 115.736 86.2035 115.728C86.1072 115.721 86.0158 115.683 85.9425 115.62C85.8691 115.558 85.8175 115.473 85.7951 115.38C85.7728 115.286 85.7808 115.187 85.818 115.098L88.554 109.008V99H96.108L96.078 109.422Z" fill="#FFA8A7"/>
<path d="M88.5239 108.138C90.0673 107.566 91.4781 106.686 92.6705 105.551C93.8629 104.417 94.812 103.051 95.4599 101.538V99H88.5239V108.138Z" fill="#F28F8F"/>
<path d="M86.7596 86.6159C86.7596 86.6159 79.8536 87.0179 80.7056 98.8319C81.1016 104.292 82.3796 107.124 86.5856 106.914C91.3496 106.68 98.1176 103.404 97.6736 94.0619C97.2296 84.7199 86.7596 86.6159 86.7596 86.6159Z" fill="#FFA8A7"/>
<path d="M96.0777 98.9999C96.0777 98.9999 94.1817 99.4979 94.1817 96.7859C94.1817 96.7859 85.7817 96.2159 83.9097 87.8639C83.9097 87.8639 84.7377 85.3619 89.9937 85.3619C95.2497 85.3619 99.6657 90.0059 98.2917 96.3959L96.0777 98.9999Z" fill="#263238"/>
<path d="M85.77 96.462V100.524L83.394 99.792L85.77 96.462Z" fill="#F28F8F"/>
<path d="M88.5238 97.7219C88.9811 97.7219 89.3518 97.3512 89.3518 96.8939C89.3518 96.4366 88.9811 96.0659 88.5238 96.0659C88.0665 96.0659 87.6958 96.4366 87.6958 96.8939C87.6958 97.3512 88.0665 97.7219 88.5238 97.7219Z" fill="#263238"/>
<path d="M83.9099 96.318C83.9099 96.4818 83.8613 96.6418 83.7704 96.778C83.6794 96.9142 83.5501 97.0203 83.3988 97.083C83.2475 97.1456 83.081 97.162 82.9204 97.1301C82.7598 97.0981 82.6122 97.0193 82.4964 96.9035C82.3806 96.7877 82.3018 96.6401 82.2698 96.4795C82.2379 96.3189 82.2543 96.1524 82.3169 96.0011C82.3796 95.8498 82.4857 95.7205 82.6219 95.6295C82.7581 95.5386 82.9181 95.49 83.0819 95.49C83.3015 95.49 83.5121 95.5772 83.6674 95.7325C83.8227 95.8878 83.9099 96.0984 83.9099 96.318Z" fill="#263238"/>
<path d="M82.0739 94.5959L83.6879 93.6299C83.6879 93.6299 83.0879 92.9879 82.4519 93.3719C82.2735 93.5146 82.1421 93.7076 82.0747 93.9258C82.0073 94.1441 82.007 94.3775 82.0739 94.5959Z" fill="#263238"/>
<path d="M85.9736 101.868C86.9167 101.937 87.8553 101.685 88.6376 101.154C88.6376 101.154 88.8236 102.558 87.6476 102.828C87.3008 102.885 86.9451 102.82 86.6402 102.645C86.3353 102.47 86.1 102.196 85.9736 101.868Z" fill="#F28F8F"/>
<path d="M95.3999 99.306C95.3714 98.6185 95.4985 97.9334 95.7719 97.302C95.9044 96.9081 96.1496 96.5617 96.477 96.3057C96.8044 96.0498 97.1997 95.8955 97.6139 95.862C99.7319 95.802 100.014 97.848 100.014 98.574C99.9419 100.482 98.3939 102.546 95.5139 102.624L95.3999 99.306Z" fill="#FFA8A7"/>
<path d="M99.6 110.4C99.6 110.4 96.132 114.492 101.196 123.846C106.26 133.2 106.674 133.98 106.674 133.98C106.674 133.98 103.212 144.108 101.874 149.322L107.052 152.148C107.052 152.148 112.536 140.676 113.838 138.174C115.14 135.672 115.182 133.74 113.838 130.32C112.494 126.9 108.504 118.386 107.46 115.92C106.416 113.454 103.086 111.348 99.6 110.4Z" fill="#FFA8A7"/>
<path d="M101.874 149.31C101.874 149.31 100.53 149.274 99.03 151.188C98.604 151.734 96.708 152.388 96.63 152.808C96.552 153.228 97.404 154.35 99.756 153.144C99.3616 154.254 98.7497 155.274 97.956 156.144C96.702 157.47 94.956 159.084 97.206 159.882C99.456 160.68 103.32 160.902 104.706 157.674C106.05 154.56 107.022 152.142 107.022 152.142L101.874 149.31Z" fill="#FFA8A7"/>
<path opacity="0.2" d="M95.5978 126.678C95.5978 126.678 92.3938 130.878 87.1978 128.988C87.2038 129 92.4778 132.804 95.5978 126.678Z" fill="black"/>
</svg>
