<svg fill="none" height="24" viewBox="0 0 24 24" width="24" xmlns="http://www.w3.org/2000/svg" xmlns:xlink="http://www.w3.org/1999/xlink"><clipPath id="a"><path d="m0 0h24v24h-24z"/></clipPath><g clip-path="url(#a)" fill="#000"><path d="m7.42383 21c.38766.8914 1.02723 1.6502 1.84015 2.1831s1.76382.8168 2.73582.8168c.9721 0 1.923-.2839 2.7359-.8168s1.4525-1.2917 1.8401-2.1831z"/><path d="m22.3918 12.5487-1.736-5.72301c-.5559-2.00166-1.7646-3.76023-3.4341-4.9965-1.6695-1.236276-3.7042-1.8793867-5.781-1.82722628-2.07674.05216038-4.07657.79660228-5.68192 2.11512628-1.60536 1.31853-2.72423 3.13556-3.17897 5.1626l-1.348 5.53701c-.17917.7357-.18888 1.5026-.02839 2.2426.16048.7401.48697 1.434.95481 2.0295.46784.5954 1.06483 1.0768 1.74589 1.4078.68107.3311 1.42843.5031 2.18569.5031h11.51699c.7807 0 1.5506-.1828 2.248-.5338s1.3029-.8604 1.768-1.4875c.4652-.627.777-1.3543.9105-2.1235.1335-.7693.0851-1.5591-.1415-2.3062z"/></g></svg>