<svg fill="none" height="300" viewBox="0 0 300 300" width="300" xmlns="http://www.w3.org/2000/svg"><path d="m46.5958 148.914c-57.108 32.97-57.102 86.4 0 119.4 57.1022 33 149.6942 32.97 206.8022 0s57.102-86.4 0-119.4-149.694-32.97-206.8022 0z" fill="#fafafa"/><path d="m277.146 219.486h-.096l-2.754-.708c-.038-.011-.073-.031-.102-.058s-.052-.061-.066-.098c0-.072-2.4-7.248 2.688-16.98 3.654-6.948 9.384-11.442 12.984-10.242.685.19 1.307.556 1.805 1.063.499.507.855 1.135 1.033 1.823.152.796.095 1.617-.165 2.385-.259.767-.713 1.455-1.317 1.995-.288.282-.732.66-1.296 1.14-3.486 2.964-11.646 9.9-12.528 19.494-.003.035-.014.068-.031.099-.018.03-.042.055-.071.075-.027.008-.056.012-.084.012zm-2.604-1.146 2.358.6c1.032-9.636 9.174-16.56 12.672-19.536.552-.474.996-.846 1.266-1.116.547-.482.958-1.097 1.195-1.786s.29-1.428.155-2.144c-.156-.61-.472-1.167-.915-1.614s-.997-.768-1.605-.93c-3.426-1.11-8.886 3.294-12.426 10.038-4.656 8.862-2.982 15.528-2.7 16.488z" fill="#516eb4"/><path d="m275.58 219.084h-.03c-.031.001-.062-.005-.091-.016s-.056-.029-.078-.05c-.023-.022-.04-.048-.053-.077-.012-.029-.018-.06-.018-.091-.204-11.202 7.548-21.996 12.768-24.222.03-.017.062-.028.096-.032s.069 0 .101.011c.033.01.062.028.088.051.025.023.045.051.058.083.013.031.02.065.019.099-.001.035-.009.068-.024.099s-.036.058-.062.08-.057.038-.09.047c-5.16 2.202-12.672 13.152-12.48 23.778.001.058-.02.114-.057.158-.038.044-.09.073-.147.082z" fill="#516eb4"/><path d="m274.392 218.778c-.036.006-.072.006-.108 0l-1.866-.564c-.038-.01-.072-.03-.101-.057-.028-.028-.049-.061-.061-.099-.03-.108-3.33-10.8-.9-25.23 1.242-7.344 5.52-14.508 10.2-17.034.978-.588 2.081-.936 3.219-1.014s2.278.115 3.327.564c.519.181.99.48 1.374.874.384.393.671.871.84 1.394.774 2.724-2.058 6.786-5.058 11.088-2.1 3-4.266 6.114-5.256 8.862-.008.032-.024.062-.044.088-.021.026-.047.047-.076.063-.03.015-.062.024-.095.027-.033.002-.067-.003-.098-.014s-.06-.029-.084-.052-.043-.05-.056-.081-.019-.064-.019-.097c.001-.033.008-.066.022-.096 1.014-2.802 3.198-5.94 5.316-9 2.934-4.2 5.7-8.172 4.992-10.686-.15-.455-.404-.869-.741-1.209-.338-.341-.749-.598-1.203-.753-.983-.42-2.052-.6-3.119-.523-1.066.076-2.099.405-3.013.961-4.542 2.46-8.724 9.48-9.936 16.692-2.274 13.494.498 23.682.846 24.888l1.746.528c.061.019.111.061.142.117.03.056.037.122.02.183-.014.047-.041.089-.079.121-.037.031-.082.052-.131.059z" fill="#516eb4"/><path d="m273.93 211.956c-.063.003-.125-.018-.173-.059-.048-.042-.079-.1-.085-.163-1.41-17.328 8.262-31.2 11.118-33.6.024-.024.052-.044.083-.056.031-.013.065-.019.099-.018.033.001.067.01.097.024.03.015.057.036.079.062.021.026.037.056.047.089.009.032.011.066.006.1-.005.033-.017.065-.035.093-.018.029-.042.053-.07.072-2.82 2.346-12.342 16.044-10.95 33.186.005.032.004.065-.005.096-.008.032-.023.061-.043.087-.02.025-.046.046-.075.061s-.06.024-.093.026z" fill="#516eb4"/><path d="m234.66 260.58-53.4-30.852c-3.678-2.124-9.324-2.508-12.6-.708s-2.946 5.106.786 7.26l53.64 30.978c-1.104.636-.966 1.752.306 2.484l6.186 3.57c.653.363 1.383.568 2.13.599.746.032 1.49-.112 2.172-.419l11.574-6.684c1.104-.636.966-1.746-.312-2.484l-6.18-3.6c-.655-.363-1.385-.568-2.134-.598-.748-.03-1.492.115-2.174.424z" fill="#e0e0e0"/><path d="m57.042 260.562c-9.264 5.346-24.276 5.346-33.534 0s-9.258-14.016 0-19.362 24.27-5.346 33.534 0 9.258 14.016 0 19.362z" fill="#e0e0e0"/><path d="m156.648 258.282c-12.948 7.47-33.936 7.47-46.878 0-12.9422-7.47-12.9482-19.596 0-27.066 12.948-7.47 33.93-7.476 46.878 0s12.942 19.584 0 27.066z" fill="#e0e0e0"/><path d="m86.5558 256.704c-3.384 1.956-8.874 1.956-12.258 0s-3.384-5.124 0-7.074 8.874-1.956 12.258 0 3.384 5.118 0 7.074z" fill="#e0e0e0"/><path d="m96.0001 268.764c-3.384 1.956-8.874 1.956-12.258 0s-3.384-5.124 0-7.074 8.874-1.956 12.258 0 3.36 5.118 0 7.074z" fill="#e0e0e0"/><path d="m274.326 243.924c-13.59 7.854-35.634 7.854-49.2 0s-13.596-20.574 0-28.428 35.634-7.848 49.2 0 13.596 20.58 0 28.428z" fill="#e0e0e0"/><path d="m124.08 20.784-95.9279 55.32c-.5238.3396-.9599.7981-1.2727 1.3382s-.4935 1.1466-.5273 1.7698v159.984c.0333.622.2139 1.227.5268 1.765.313.538.7493.994 1.2732 1.331l.366.21c.5578.283 1.1744.431 1.8.431.6255 0 1.2421-.148 1.8-.431l95.9339-55.392c.524-.34.96-.798 1.273-1.338.312-.54.493-1.147.527-1.77v-159.912c-.033-.6225-.214-1.2283-.527-1.7675-.313-.5393-.749-.9966-1.273-1.3345l-.366-.21c-.559-.2821-1.177-.4286-1.804-.4276-.626.0011-1.244.1496-1.802.4336z" fill="#516eb4"/><path d="m124.08 20.784-95.9279 55.32c-.5238.3396-.9599.7981-1.2727 1.3382s-.4935 1.1466-.5273 1.7698v159.984c.0333.622.2139 1.227.5268 1.765.313.538.7493.994 1.2732 1.331l.366.21c.5578.283 1.1744.431 1.8.431.6255 0 1.2421-.148 1.8-.431l95.9339-55.392c.524-.34.96-.798 1.273-1.338.312-.54.493-1.147.527-1.77v-159.912c-.033-.6225-.214-1.2283-.527-1.7675-.313-.5393-.749-.9966-1.273-1.3345l-.366-.21c-.559-.2821-1.177-.4286-1.804-.4276-.626.0011-1.244.1496-1.802.4336z" fill="#000" opacity=".45"/><path d="m129.84 184.128c0 1.572-1.11 2.58-2.484 3.366l-94.5541 54.6c-1.368.792-2.484.15-2.484-1.434v-158.4c.0032-.8643.2331-1.7126.6669-2.4602.4338-.7475 1.0563-1.3682 1.8051-1.7998l94.5661-54.6c.252-.1453.537-.2218.828-.2218s.576.0765.828.2218.461.3543.606.6061c.145.2517.222.5372.222.8279z" fill="#516eb4"/><path d="m129.84 184.128c0 1.572-1.11 2.58-2.484 3.366l-94.5541 54.6c-1.368.792-2.484.15-2.484-1.434v-158.4c.0032-.8643.2331-1.7126.6669-2.4602.4338-.7475 1.0563-1.3682 1.8051-1.7998l94.5661-54.6c.252-.1453.537-.2218.828-.2218s.576.0765.828.2218.461.3543.606.6061c.145.2517.222.5372.222.8279z" fill="#000" opacity=".3"/><path d="m129.84 24.09v.702c-.001-.2902-.078-.5749-.224-.8258s-.355-.4591-.607-.6037c-.251-.1446-.536-.2206-.826-.2204-.291.0003-.576.0768-.827.2219l-94.5659 54.636c-.7511.4271-1.3729 1.0489-1.8 1.8v.054l-4.098-2.364c.3102-.5576.7559-1.0281 1.296-1.368l95.8919-55.338c.559-.2807 1.175-.4269 1.8-.4269s1.242.1462 1.8.4269l.366.21c.522.3383.956.7951 1.268 1.3331s.492 1.142.526 1.7629z" fill="#516eb4"/><path d="m129.84 24.09v.702c-.001-.2902-.078-.5749-.224-.8258s-.355-.4591-.607-.6037c-.251-.1446-.536-.2206-.826-.2204-.291.0003-.576.0768-.827.2219l-94.5659 54.636c-.7511.4271-1.3729 1.0489-1.8 1.8v.054l-4.098-2.364c.3102-.5576.7559-1.0281 1.296-1.368l95.8919-55.338c.559-.2807 1.175-.4269 1.8-.4269s1.242.1462 1.8.4269l.366.21c.522.3383.956.7951 1.268 1.3331s.492 1.142.526 1.7629z" fill="#000" opacity=".2"/><path d="m127.5 176.862c0 1.626-1.14 2.658-2.556 3.468l-89.3997 51.6c-1.41.816-2.556.156-2.556-1.476v-139.056c.0057-.8944.2465-1.7716.6983-2.5435s1.0987-1.4115 1.8757-1.8545l89.3997-51.6c.259-.1496.553-.2283.852-.2283s.593.0788.852.2284.475.3647.624.6238c.15.2591.228.553.228.8521v139.986z" fill="#000" opacity=".25"/><path d="m35.304 88.9321 89.052-51.414c.237-.1183.497-.1798.762-.1798s.525.0615.762.1798l.858.498c.222.1444.407.3392.539.5686.133.2294.209.4869.223.7514v139.7999c-.015.264-.092.522-.224.751s-.317.424-.538.569l-89.046 51.384c-.2358.121-.497.184-.762.184s-.5263-.063-.762-.184l-.864-.498c-.2221-.144-.4069-.339-.5393-.569-.1324-.229-.2087-.486-.2227-.751v-139.7699c.014-.2645.0903-.522.2227-.7514s.3172-.4242.5393-.5686z" fill="#f5f5f5"/><path d="m37.5119 231.924c-.0913.035-.1857.061-.2821.078h-.15c-.1534.018-.3085.018-.462 0-.0964-.016-.1909-.042-.2819-.078l-.1681-.084-.858-.492c-.2224-.144-.4074-.339-.5399-.568-.1325-.23-.2086-.487-.222-.752v-139.8c.0046-.2655.0813-.5247.222-.75l2.4 1.374c-.1363.2272-.2127.4853-.222.75v139.8c-.018.414.252.624.564.522z" fill="#e0e0e0"/><path d="m126.738 38.0161-.858-.498c-.237-.1183-.497-.1798-.762-.1798s-.525.0615-.762.1798l-89.052 51.414c-.2221.1444-.4069.3392-.5393.5686s-.2087.4869-.2227.7514v9.6l2.4 1.3859 90.6-52.2899v-9.6c-.017-.2704-.099-.5327-.239-.7647-.14-.2319-.334-.4265-.565-.5673z" fill="#516eb4"/><path d="m126.738 38.0161-.858-.498c-.237-.1183-.497-.1798-.762-.1798s-.525.0615-.762.1798l-89.052 51.414c-.2221.1444-.4069.3392-.5393.5686s-.2087.4869-.2227.7514v9.6l2.4 1.3859 90.6-52.2899v-9.6c-.017-.2704-.099-.5327-.239-.7647-.14-.2319-.334-.4265-.565-.5673z" fill="#fff" opacity=".4"/><path d="m127.47 39.102c-.09-.306-.384-.408-.732-.21l-89.046 51.414c-.2315.1469-.4183.3544-.54.6l-2.4-1.374c.1262-.2346.3125-.4313.54-.57l89.064-51.444c.235-.121.495-.1842.759-.1842s.524.0632.759.1842l.864.492c.189.1237.351.2841.477.4717s.212.3985.255.6203z" fill="#516eb4"/><path d="m127.47 39.102c-.09-.306-.384-.408-.732-.21l-89.046 51.414c-.2315.1469-.4183.3544-.54.6l-2.4-1.374c.1262-.2346.3125-.4313.54-.57l89.064-51.444c.235-.121.495-.1842.759-.1842s.524.0632.759.1842l.864.492c.189.1237.351.2841.477.4717s.212.3985.255.6203z" fill="#fff" opacity=".6"/><path d="m34.5479 90.252v9.6l2.4 1.38v-9.6c.0093-.2647.0857-.5228.222-.75l-2.4-1.374c-.1397.2235-.2164.4806-.222.744z" fill="#516eb4"/><path d="m106.902 43.956v7.644c-.051 1.0422-.35 2.0572-.872 2.9608-.521.9037-1.251 1.6699-2.128 2.2352l-14.8141 8.55c-.732.426-1.152 1.272-1.59 2.16-.2989.6693-.6842 1.2967-1.146 1.866-1.152 1.308-3.66 2.67-5.4 3.234-.5872.1887-1.1894.3272-1.8.414-.222.036-.468.066-.726.096-1.614.216-3.63.492-4.8 1.2l-17.34 10.008c-.4562.2791-.9774.4342-1.512.45-.353.0051-.7009-.0839-1.008-.258-.3721-.2456-.6711-.587-.8654-.9883-.1943-.4012-.2767-.8475-.2386-1.2917v-7.668c.0486-1.0428.3464-2.0587.8683-2.9627.522-.904 1.253-1.6698 2.1317-2.2333l5.82-3.366c.0262-.0145.0546-.0246.084-.03.1378-.0603.2932-.0666.4355-.0177.1422.0489.2609.1494.3325.2817.0748.1279.0997.2789.0698.4241-.03.1451-.1125.274-.2318.3619-.019.0231-.0412.0433-.066.06l-5.826 3.36c-.689.4574-1.2637 1.067-1.6798 1.7816-.4161.7147-.6625 1.5154-.7202 2.3404v7.632c-.029.2244-.0001.4524.0839.6624.084.2101.2204.3951.3961.5376.2123.0799.4414.1047.6659.0722s.4372-.1214.6181-.2582l17.334-10.014c1.392-.804 3.54-1.098 5.262-1.326.258 0 .498-.066.72-.102.5356-.076 1.0636-.1985 1.578-.366 1.578-.498 3.912-1.8 4.878-2.862.3851-.4944.7075-1.0345.96-1.608.504-1.014 1.026-2.07 2.082-2.676l14.8201-8.55c.689-.4574 1.264-1.067 1.68-1.7817.416-.7146.662-1.5153.72-2.3403v-7.632c.069-.2259.059-.4685-.028-.688-.087-.2196-.246-.4032-.451-.5209-.204-.1176-.443-.1624-.676-.1271-.234.0354-.448.1489-.609.322l-5.0461 2.916c-.1686-.3789-.38-.7372-.63-1.068l5.0581-2.922c.354-.2717.78-.4321 1.225-.4609.445-.0289.889.0752 1.274.299.386.2237.697.557.893.9576s.268.8504.208 1.2923z" fill="#000" opacity=".25"/><path d="m96.09 44.094c.2506-.1172.5281-.1651.8035-.1388.2754.0264.5387.1261.7625.2888.6412.4167 1.1749.979 1.5576 1.6411s.6035 1.4053.6444 2.1689c.029.2748-.0165.5523-.1315.8035-.1151.2512-.2955.4669-.5225.6245l-35.154 20.298-3.114-5.4z" fill="#37474f"/><path d="m62.5019 67.11 36.72-21.204c-.3708-.6776-.9102-1.248-1.566-1.656-.072-.042-.138-.066-.21-.102l-36.15 20.874z" fill="#455a64"/><path d="m62.5018 64.548c-1.2-.702-2.202-.132-2.202 1.272.041.7644.2618 1.5084.6444 2.1715.3826.663.9163 1.2265 1.5576 1.6445 1.2.702 2.202.132 2.202-1.272-.041-.7644-.2618-1.5084-.6444-2.1715s-.9163-1.2265-1.5576-1.6445z" fill="#263238"/><path d="m107.526 44.502v7.656c-.054 1.0415-.354 2.0554-.876 2.9586-.521.9032-1.249 1.6699-2.124 2.2374l-14.8201 8.55c-.732.42-1.152 1.266-1.59 2.154-.2974.672-.6828 1.3015-1.146 1.872-1.152 1.308-3.66 2.67-5.4 3.234-.5866.1896-1.189.3262-1.8.408-.222.042-.468.072-.726.102-1.614.216-3.6.492-4.8 1.2l-17.364 9.984c-.4563.279-.9775.4341-1.512.45-.353.0051-.7009-.084-1.008-.258-.3726-.2466-.6718-.589-.8661-.9913s-.2765-.8496-.2379-1.2947v-7.65c.0481-1.0429.3456-2.059.8676-2.9631s1.2533-1.6698 2.1324-2.2329l5.82-3.366h.084c.1392-.0796.3043-.1006.4591-.0584.1547.0422.2863.1441.3659.2834.0795.1392.1005.3044.0583.4591s-.1441.2863-.2833.3659c-.0176.0229-.0402.0413-.066.054l-5.826 3.366c-.689.4574-1.2637 1.067-1.6798 1.7816-.4161.7147-.6625 1.5154-.7202 2.3404v7.65c-.0687.2259-.0588.4684.0281.688s.2457.4032.4504.5208c.2047.1177.4433.1625.6768.1271.2334-.0354.448-.1489.6087-.3219l17.34-10.014c1.392-.798 3.54-1.092 5.262-1.32.258 0 .498-.072.72-.102.5374-.0766 1.0674-.1991 1.584-.366 1.572-.498 3.906-1.77 4.872-2.868.3882-.4901.7109-1.0286.96-1.602.504-1.02 1.026-2.07 2.082-2.676l14.8201-8.556c.688-.4568 1.262-1.0654 1.678-1.779s.663-1.5131.722-2.337v-7.686c.066-.2247.054-.4651-.033-.6825s-.244-.3992-.447-.5162c-.203-.1171-.439-.1625-.671-.129s-.446.144-.607.3137l-5.0521 2.916c-.1578-.3801-.3591-.7405-.6-1.074l5.0581-2.916c.353-.2748.78-.4378 1.226-.4682s.891.0733 1.278.2977.698.5593.893.9617c.196.4024.266.854.203 1.2968z" fill="#455a64"/><path d="m47.9161 100.278c1.38-.8 2.428-.978 3.144-.534.72.438 1.074 1.416 1.074 2.928.0037 1.047-.1833 2.086-.552 3.066-.3704.973-.9244 1.865-1.632 2.628l2.286 4.128c.0315.068.0478.141.048.216-.0024.141-.0395.279-.108.402-.0547.12-.1447.221-.258.288l-1.404.816c-.224.124-.386.148-.486.072-.0949-.066-.1713-.154-.222-.258l-2.166-3.888-2.202 1.272v5.136c-.0019.174-.0473.346-.132.498-.0677.146-.1761.269-.312.354l-1.344.798c-.0448.034-.0996.053-.156.053-.0563 0-.1111-.019-.156-.053-.0479-.042-.0849-.095-.1079-.155-.023-.059-.0313-.124-.0241-.187v-14.262c.002-.174.0474-.346.132-.498.0678-.146.1761-.268.312-.354zm-2.478 8.4 2.4-1.38c.5852-.33 1.0959-.777 1.5-1.314.4001-.587.5981-1.288.564-1.998 0-.822-.186-1.266-.564-1.332-.5355-.017-1.0619.141-1.5.45l-2.4 1.386z" fill="#516eb4"/><path d="m56.2561 112.536-1.956 4.344c-.0818.197-.1953.38-.336.54-.1167.116-.2477.217-.39.3l-1.272.738c-.0444.033-.098.05-.153.05-.0551 0-.1087-.017-.153-.05-.0464-.049-.0816-.108-.1034-.172-.0217-.064-.0294-.133-.0226-.2.001-.119.0234-.237.066-.348l3-6.636-2.844-3.054c-.0489-.081-.0719-.175-.066-.27.0003-.178.0435-.353.126-.51.0655-.145.1718-.268.306-.354l1.248-.714c.1198-.072.2521-.121.39-.144.0636-.006.1278.004.1865.029.0588.025.1102.065.1495.115l1.872 2.01 1.848-4.158c.0858-.196.2012-.378.342-.54.1166-.116.2477-.217.39-.3l1.272-.732c.043-.036.0971-.055.153-.055.0558 0 .1099.019.153.055.0469.048.0825.105.1043.169.0218.063.0292.13.0217.197-.0011.119-.0234.237-.066.348l-2.88 6.444 2.946 3.132c.0488.081.0718.175.066.27-.0004.178-.0436.353-.126.51-.064.146-.1707.27-.306.354l-1.272.696c-.1186.075-.2514.124-.39.144-.0674.011-.1365.003-.1999-.022-.0634-.026-.1187-.068-.1601-.122z" fill="#516eb4"/><g fill="#455a64"><path d="m87.792 78.936c.378-.222.666-.252.858-.096.1146.1286.2002.2804.2509.445s.0654.3382.0431.509c.0034.3261-.0473.6505-.15.96-.0961.2881-.2469.555-.444.786l.6 1.368c.0062.0216.0062.0444 0 .066.0014.0439-.0089.0874-.03.126-.0119.0347-.0352.0643-.066.084l-.39.222c-.06.036-.102.042-.132 0-.0257-.0234-.0462-.0521-.06-.084l-.6-1.284-.6.348v1.614c-.0004.0521-.0127.1034-.036.15-.0167.0453-.0485.0834-.09.108l-.366.21c-.036 0-.06 0-.084 0-.013-.0146-.023-.0317-.0291-.0503-.0062-.0186-.0086-.0382-.0069-.0577v-4.512c.0004-.0521.0127-.1034.036-.15.0147-.0446.0444-.0827.084-.108zm-.678 2.586.654-.378c.1672-.0898.3094-.2197.414-.378.1089-.1807.163-.3891.156-.6 0-.258-.054-.402-.156-.432-.1458-.0178-.2932.0185-.414.102l-.654.378z"/><path d="m92.004 76.5c.0128-.0102.0287-.0158.045-.0158.0164 0 .0322.0056.045.0158.0135.0155.0237.0337.0299.0533s.0083.0403.0061.0607v4.506c-.0005.054-.0128.1072-.036.156-.0182.0428-.0498.0786-.09.102l-.366.21c-.0112.011-.0263.0172-.042.0172s-.0308-.0062-.042-.0172c-.0133-.0144-.0234-.0315-.0296-.0501-.0063-.0186-.0084-.0384-.0064-.0579v-1.842l-1.368.792v1.842c-.0004.0521-.0127.1034-.036.15-.0167.0453-.0485.0834-.09.108l-.366.21c-.0122.0088-.0269.0135-.042.0135s-.0298-.0047-.042-.0135c-.0137-.0166-.0239-.0358-.0301-.0564-.0061-.0206-.0082-.0422-.0059-.0636v-4.506c.0004-.0521.0127-.1034.036-.15.0147-.0446.0444-.0827.084-.108l.366-.21c.0128-.0102.0287-.0158.045-.0158.0164 0 .0322.0056.045.0158.013.0146.0229.0317.0291.0503s.0086.0382.0069.0577v1.8l1.368-.792v-1.8c.0005-.054.0128-.1072.036-.156.02-.0416.0486-.0784.084-.108z"/><path d="m94.9498 78.816c.0118-.0097.0267-.0151.042-.0151.0154 0 .0302.0054.042.0151.0131.0146.023.0317.0291.0503.0062.0186.0086.0382.0069.0577v.498c-.0005.054-.0128.1072-.036.156-.0181.041-.0472.0763-.084.102l-1.992 1.152c-.0122.0088-.0269.0135-.042.0135-.015 0-.0297-.0047-.042-.0135-.0261-.032-.039-.0728-.036-.114v-4.518c.0006-.054.0128-.1072.036-.156.0163-.0421.0458-.0779.084-.102l1.95-1.128c.0122-.0114.0283-.0177.045-.0177s.0328.0063.045.0177c.0134.0144.0235.0315.0297.0501.0062.0187.0084.0384.0063.0579v.498c-.0004.0521-.0127.1034-.036.15-.0167.0453-.0485.0834-.09.108l-1.458.846v1.11l1.35-.774c.0123-.0088.027-.0135.042-.0135.0151 0 .0298.0047.042.0135.0261.032.039.0728.036.114v.498c-.0004.0521-.0127.1034-.036.15-.0166.0436-.0458.0812-.084.108l-1.362.786v1.158z"/><path d="m98.0821 72.99c.0128-.0102.0287-.0158.045-.0158.0164 0 .0323.0056.045.0158.0135.0155.0237.0337.0299.0533s.0083.0403.0061.0607v2.862c.0001.2781-.0281.5555-.084.828-.052.255-.1346.5028-.2459.738-.1074.2181-.2447.42-.4081.6-.1595.1858-.3504.3422-.564.462-.1706.1114-.3667.1774-.57.192-.0745.0036-.1491-.0079-.2192-.0336-.07-.0258-.1342-.0654-.1887-.1164-.1198-.1298-.2027-.2893-.2401-.462-.0575-.2396-.0837-.4856-.0779-.732v-2.862c.0005-.054.0128-.1072.036-.156.0181-.041.0472-.0763.084-.102l.366-.216c.0131-.0093.0288-.0143.0449-.0143.0162 0 .0319.005.045.0143.0135.0155.0237.0337.0299.0533s.0083.0403.0061.0607v2.826c-.0028.1554.0134.3105.048.462.0217.0935.0696.1788.138.246.0308.0252.0663.044.1044.0553s.0781.015.1177.0107c.0978-.0153.1917-.05.2759-.102.1014-.0616.1942-.1362.276-.222.0903-.0914.1652-.1968.222-.312.0642-.1318.1125-.2708.144-.414.0356-.1716.0517-.3467.0481-.522v-2.826c.0004-.0521.0127-.1034.0359-.15.0186-.0442.0499-.0818.09-.108z"/><path d="m100.38 74.16.858-2.802c0-.03.03-.078.06-.144.025-.0653.072-.1203.132-.156l.312-.18c.012-.0088.027-.0135.042-.0135s.03.0047.042.0135c.013.0155.024.0337.03.0533s.008.0403.006.0607v4.506c-.001.054-.013.1072-.036.156-.018.041-.047.0763-.084.102l-.366.216c-.013.0102-.029.0158-.045.0158s-.032-.0056-.045-.0158c-.013-.0155-.024-.0336-.03-.0532s-.008-.0403-.006-.0608v-2.73l-.6 1.914c-.019.0512-.041.1013-.066.15-.02.0499-.056.0919-.102.12l-.234.138c-.016.0117-.035.018-.054.018s-.038-.0063-.054-.018c-.024-.023-.044-.0492-.06-.078l-.6-1.23v2.724c.0003.0541-.012.1075-.036.156-.0182.0444-.0496.0821-.09.108l-.366.21c-.036 0-.06 0-.084 0-.0135-.0155-.0237-.0336-.0298-.0532-.0062-.0197-.0083-.0403-.0062-.0608v-4.506c.0011-.0539.0133-.107.036-.156.0163-.0421.0458-.0779.084-.102l.306-.18c.066-.036.108-.036.138 0l.06.078z"/><path d="m104.064 69.54c.048-.03.084-.03.108 0 .029.0438.049.0926.06.144l1.11 3.768c.003.0158.003.0322 0 .048 0 .0521-.013.1034-.036.15-.017.0436-.046.0812-.084.108l-.33.186c-.06.036-.102.036-.126 0-.025-.0243-.042-.0557-.048-.09l-.198-.66-1.428.828-.198.888c-.01.0499-.026.0982-.048.144-.027.0563-.071.1025-.126.132l-.33.186c-.012.0098-.027.0151-.042.0151s-.03-.0053-.042-.0151c-.013-.0146-.023-.0317-.029-.0503-.006-.0185-.009-.0382-.007-.0577-.003-.0178-.003-.0361 0-.054l1.11-5.052c.012-.0739.033-.1463.06-.216.023-.0503.06-.0922.108-.12zm.246 2.922-.498-1.704-.498 2.28z"/><path d="m107.55 67.524c.012-.0088.027-.0135.042-.0135s.03.0047.042.0135c.03 0 .036.06.036.114v.492c.003.0544-.01.1085-.036.156-.016.0438-.046.0815-.084.108l-.816.468v3.822c0 .0541-.012.1075-.036.156-.018.0426-.047.0798-.084.108l-.366.21c-.013.0102-.029.0158-.045.0158s-.032-.0056-.045-.0158c-.014-.0155-.024-.0336-.03-.0532-.006-.0197-.008-.0403-.006-.0608v-3.822l-.816.474c-.012.0088-.027.0135-.042.0135s-.03-.0047-.042-.0135c-.026-.032-.039-.0728-.036-.114v-.498c0-.0521.013-.1034.036-.15.017-.0435.046-.0812.084-.108z"/><path d="m107.952 69.114c.01-.2665.045-.5315.102-.792.053-.2567.136-.5063.246-.744.108-.2304.245-.4462.408-.642.169-.1952.373-.3579.6-.48.177-.1197.386-.1844.6-.186.076-.0015.151.0126.222.0415.07.0289.133.072.186.1265.123.1273.21.2846.252.456.063.2228.097.4526.102.684v.288.66.3c-.01.2665-.044.5316-.102.792-.053.2567-.135.5064-.246.744-.108.2286-.245.4424-.408.636-.171.1934-.374.3558-.6.48-.179.1167-.386.1811-.6.186-.075.002-.15-.0113-.22-.0392-.071-.0278-.134-.0696-.188-.1228-.119-.1287-.204-.2856-.246-.456-.062-.223-.096-.4527-.102-.684 0-.084 0-.18 0-.288v-.666c-.006-.108-.006-.204-.006-.294zm2.058-1.152c.01-.1179-.004-.2367-.041-.3491s-.097-.2161-.175-.3049c-.126-.108-.294-.102-.51 0-.227.1438-.405.353-.51.6-.133.2818-.204.5886-.21.9v.6.6c-.01.1175.004.2357.04.348.036.1122.094.2162.17.306.073.056.163.0863.255.0863s.182-.0303.255-.0863c.229-.1416.407-.3515.51-.6.138-.278.212-.5836.216-.894 0-.18 0-.378 0-.6s.006-.432 0-.606z"/><path d="m113.322 68.202c.013-.0093.029-.0143.045-.0143s.032.005.045.0143c.026.032.039.0728.036.114v.498c0 .0521-.013.1034-.036.15-.017.0453-.048.0834-.09.108l-1.98 1.146c-.013.0102-.029.0158-.045.0158s-.032-.0056-.045-.0158c-.013-.0155-.024-.0336-.03-.0532s-.008-.0403-.006-.0608v-4.506c.001-.054.013-.1072.036-.156.018-.0428.05-.0786.09-.102l.366-.216c.012-.0088.027-.0135.042-.0135s.03.0047.042.0135c.014.0155.024.0337.03.0533s.008.0403.006.0607v3.822z"/><path d="m113.724 65.784c.008-.2663.04-.5314.096-.792.056-.2559.138-.5053.246-.744.11-.2293.247-.4448.408-.642.172-.1933.375-.3574.6-.486.179-.1154.387-.1778.6-.18.076-.0023.151.0115.222.0404.07.029.134.0725.186.1276.12.1289.207.2855.252.456.06.2211.092.4489.096.678v.294.33.33.3c-.008.2663-.041.5314-.096.792-.053.2548-.136.5024-.246.738-.107.2327-.246.449-.414.642-.169.1952-.373.3579-.6.48-.179.1167-.387.1811-.6.186-.152-.0005-.297-.0584-.408-.162-.119-.1316-.203-.2902-.246-.462-.06-.2212-.092-.4489-.096-.678 0-.084 0-.18 0-.288s0-.216 0-.33 0-.228 0-.336-.006-.204 0-.294zm2.052-1.152c.01-.1175-.004-.2357-.04-.348-.036-.1122-.094-.2162-.17-.306-.126-.114-.3-.108-.51 0-.227.1437-.405.353-.51.6-.133.2818-.204.5885-.21.9v.6.6c-.01.1175.004.2357.04.348.036.1122.093.2162.17.306.132.108.3.102.51 0 .223-.1316.401-.3284.51-.564.133-.2797.204-.5845.21-.894 0-.18 0-.378 0-.6s.024-.474.024-.642z"/><path d="m116.874 63.948c.004-.2749.038-.5487.102-.816.056-.2593.143-.5111.258-.75.115-.2178.259-.4196.426-.6.172-.1911.375-.3515.6-.474.192-.1318.416-.2086.648-.222.149-.0044.295.0469.408.144.103.0867.178.2013.216.33.035.1154.057.234.066.354.005.0538-.005.1079-.03.156-.022.0402-.053.0751-.09.102l-.366.21c-.036 0-.06 0-.078 0-.021-.0119-.038-.031-.048-.054-.013-.0332-.029-.0654-.048-.096-.027-.0511-.069-.0929-.12-.12-.067-.0397-.144-.0585-.222-.054-.12.0054-.237.0449-.336.114-.236.1428-.426.3512-.546.6-.139.2735-.213.5753-.216.882v.6.564c0 .378.078.6.216.714s.318.078.546-.054c.114-.0618.217-.1408.306-.234.097-.0941.179-.2011.246-.318.071-.1344.124-.2776.156-.426.038-.1754.056-.3545.054-.534v-.06l-.552.324c-.012.0088-.027.0135-.042.0135s-.029-.0047-.042-.0135c-.026-.032-.039-.0728-.036-.114v-.498c.001-.0521.013-.1034.036-.15.017-.0435.046-.0812.084-.108l1.044-.6h.084c.013.0146.023.0317.029.0503.007.0186.009.0382.007.0577v.732c.003.2763-.025.552-.084.822-.056.2613-.142.515-.258.756-.113.2353-.258.4534-.432.648-.172.1955-.374.3616-.6.492-.181.1142-.386.1841-.6.204-.076.0057-.152-.0042-.224-.0289-.073-.0248-.139-.0639-.196-.1151-.124-.1268-.213-.284-.258-.456-.063-.2348-.095-.4768-.096-.72 0-.084 0-.18 0-.288s0-.216 0-.324 0-.222 0-.33-.018-.222-.012-.312z"/><path d="m122.484 58.902c.012-.0088.027-.0135.042-.0135s.03.0047.042.0135c.014.0155.024.0337.03.0533s.008.0403.006.0607c.003.0219.003.0441 0 .066l-1.074 3.534v1.53c0 .0541-.012.1075-.036.156-.018.0426-.047.0798-.084.108l-.366.21c-.012.0098-.026.0151-.042.0151-.015 0-.03-.0053-.042-.0151-.013-.0144-.023-.0315-.029-.0501-.007-.0186-.009-.0384-.007-.0579v-1.512l-1.074-2.286c-.003-.0199-.003-.0401 0-.06.001-.054.013-.1072.036-.156.018-.0428.05-.0786.09-.102l.336-.198c.06-.036.108-.036.138 0 .025.0176.044.0429.054.072l.696 1.53.738-2.4c.014-.0456.032-.0898.054-.132.027-.0627.073-.1151.132-.15z"/></g><path d="m106.356 77.4 15.444-8.928c.246-.144.45-.03.45.258v.6c-.009.157-.054.3097-.132.4461s-.187.2528-.318.3399l-15.462 8.934c-.252.144-.45 0-.45-.264v-.6c.009-.1591.056-.3137.137-.4507.082-.1369.195-.2519.331-.3353z" fill="#516eb4"/><path d="m106.356 84.528 15.444-8.928c.246-.144.45 0 .45.258v.6c-.009.1561-.054.308-.132.4434-.078.1355-.187.2507-.318.3366l-15.444 8.922c-.252.144-.45.03-.45-.258v-.6c.009-.1554.054-.3066.132-.4411.078-.1346.187-.2486.318-.3329z" fill="#516eb4"/><path d="m109.548 79.104 12.252-7.104c.246-.15.45-.03.45.258v.6c-.009.1569-.054.3096-.132.446s-.187.2528-.318.34l-12.27 7.08c-.252.144-.456.03-.456-.258v-.6c.015-.1551.065-.3048.147-.437.082-.1323.194-.2436.327-.325z" fill="#516eb4"/><path d="m43.2002 132.408v.792c0 .438.306.6.684.396l77.2378-44.598c.201-.132.368-.3094.488-.5179.12-.2084.189-.442.202-.6821v-.798c0-.438-.312-.6-.69-.396l-77.2318 44.616c-.2003.13-.3672.305-.4871.511-.1199.207-.1894.439-.2029.677z" fill="#e0e0e0"/><path d="m43.2002 137.556v.81c0 .438.306.6.684.396l77.2378-44.604c.202-.131.37-.3081.49-.5168.12-.2086.189-.4428.2-.6832v-.798c0-.438-.312-.6-.69-.396l-77.2318 44.604c-.2007.129-.3678.305-.4877.511-.12.207-.1893.439-.2023.677z" fill="#e0e0e0"/><path d="m43.2002 142.704v.804c0 .438.306.6.684.396l77.2378-44.598c.202-.1313.369-.3086.489-.5171.12-.2086.189-.4426.201-.6829v-.81c0-.438-.312-.6-.69-.396l-77.2318 44.61c-.2004.131-.3673.307-.4872.515-.1198.207-.1893.44-.2028.679z" fill="#e0e0e0"/><path d="m43.2002 152.718v.81c0 .438.306.6.684.396l77.2438-44.604c.202-.131.37-.308.49-.517.12-.208.189-.443.2-.683v-.81c0-.438-.312-.6-.69-.396l-77.2378 44.616c-.2007.129-.3678.305-.4877.511-.12.207-.1893.439-.2023.677z" fill="#e0e0e0"/><path d="m43.2002 157.866v.804c0 .438.306.6.684.396l77.2378-44.598c.202-.131.369-.309.489-.517.12-.209.189-.443.201-.683v-.81c0-.438-.312-.6-.69-.402l-77.2318 44.616c-.2004.131-.3673.307-.4872.515-.1198.207-.1893.44-.2028.679z" fill="#e0e0e0"/><path d="m43.2002 163.008v.792c0 .438.306.6.684.396l77.2378-44.598c.201-.132.368-.309.488-.518.12-.208.189-.442.202-.682v-.798c0-.438-.312-.6-.69-.396l-77.2318 44.616c-.2007.129-.3678.305-.4877.511-.12.207-.1893.439-.2023.677z" fill="#e0e0e0"/><path d="m43.2002 173.022v.81c0 .438.306.6.684.396l77.2378-44.598c.202-.131.369-.309.489-.517.12-.209.189-.443.201-.683v-.816c0-.438-.312-.6-.69-.396l-77.2318 44.616c-.2003.13-.3672.305-.4871.511-.1199.207-.1894.439-.2029.677z" fill="#e0e0e0"/><path d="m43.2002 178.2v.81c0 .438.306.6.684.396l77.2378-44.604c.202-.131.37-.308.49-.517.12-.208.189-.443.2-.683v-.81c0-.438-.312-.6-.69-.396l-77.2318 44.604c-.2023.131-.3704.308-.4904.516-.12.209-.1884.444-.1996.684z" fill="#e0e0e0"/><path d="m43.2002 183.318v.804c0 .438.306.6.684.396l77.2438-44.598c.202-.131.37-.308.49-.517.12-.208.189-.443.2-.683v-.81c0-.438-.312-.6-.69-.396l-77.2378 44.61c-.2004.131-.3673.307-.4872.515-.1198.207-.1893.44-.2028.679z" fill="#e0e0e0"/><path d="m43.2002 218.076v.81c0 .438.306.6.684.396l77.2378-44.604c.202-.131.37-.308.49-.517.12-.208.189-.443.2-.683v-.798c0-.438-.312-.6-.69-.396l-77.2318 44.604c-.2007.129-.3678.305-.4877.511-.12.207-.1893.439-.2023.677z" fill="#e0e0e0"/><path d="m87.5999 249c-.0458-.136-.1019-.269-.168-.396-.054-.102-.114-.21-.18-.312-.324-.458-.731-.851-1.2-1.158v1.2l-1.038-.6v-1.2c-2.88-1.368-7.14-1.272-9.828.282-.9022.467-1.6068 1.242-1.986 2.184 0 .072-.042.138-.06.204-.0475.196-.0717.398-.072.6v2.4c.0071.573.1939 1.129.534 1.59.4298.58.9805 1.059 1.614 1.404 2.862 1.656 7.506 1.656 10.374 0 1.428-.828 2.148-1.914 2.148-3v-2.4c-.0028-.272-.0494-.541-.138-.798z" fill="#f0f0f0"/><path d="m82.7219 245.808c-2.544-.486-5.46-.144-7.482 1.026-.9192.452-1.6439 1.222-2.04 2.166 0 .072-.042.138-.06.204-.0475.197-.0717.398-.072.6v2.4c.0071.573.1939 1.129.534 1.59.4298.58.9805 1.059 1.614 1.404 2.022 1.17 4.938 1.506 7.482 1.02z" fill="#e6e6e6"/><path d="m75.24 246.834c-2.694 1.554-2.856 4.014-.492 5.676l10.32-5.958c-2.868-1.362-7.14-1.272-9.828.282z" fill="#f5f5f5"/><path d="m74.7417 251.88s-2.85-2.184.318-4.938c-2.514 1.554-2.622 3.942-.312 5.568l10.32-5.958z" fill="#fff"/><path d="m86.1056 247.152-10.32 5.958c2.88 1.362 7.14 1.266 9.828-.288s2.85-4.008.492-5.67z" fill="#f5f5f5"/><path d="m75.7856 253.11c2.88 1.362 7.14 1.266 9.828-.288.3006-.172.584-.373.8461-.6-5.2741 2.646-9.5221.78-9.5221.78l9.168-5.862z" fill="#fff"/><path d="m85.0677 247.752-10.326 5.988.006-1.23 10.32-5.958z" fill="#e0e0e0"/><path d="m75.7857 253.11v1.224l-1.044-.594z" fill="#000" opacity=".2"/><path d="m97.0437 261.408c-.0436-.136-.0978-.268-.162-.396-.0553-.108-.1174-.212-.186-.312-.3163-.456-.7128-.85-1.17-1.164v1.2l-1.038-.6v-1.2c-2.88-1.362-7.14-1.266-9.828.288-.9134.461-1.6294 1.237-2.016 2.184 0 .072-.042.138-.054.204-.0523.196-.0785.397-.078.6v2.4c.01.572.1965 1.128.534 1.59.4305.577.9812 1.054 1.614 1.398 2.868 1.65 7.512 1.65 10.374 0 1.434-.828 2.148-1.914 2.148-3v-2.4c-.0011-.27-.0478-.538-.138-.792z" fill="#f0f0f0"/><path d="m92.1477 258.198c-2.55-.486-5.466-.144-7.488 1.026-.9134.461-1.6294 1.237-2.016 2.184 0 .072-.042.138-.054.204-.0523.196-.0785.397-.078.6v2.4c.01.572.1965 1.128.534 1.59.4305.577.9812 1.054 1.614 1.398 2.028 1.2 4.938 1.506 7.488 1.02z" fill="#e6e6e6"/><path d="m84.6598 259.2c-2.688 1.554-2.856 4.014-.492 5.676l10.32-5.958c-2.88-1.344-7.14-1.248-9.828.282z" fill="#f5f5f5"/><path d="m84.168 264.27s-2.856-2.19.318-4.938c-2.52 1.554-2.628 3.942-.318 5.568l10.32-5.958z" fill="#fff"/><path d="m95.5257 259.536-10.326 5.964c2.88 1.362 7.14 1.266 9.828-.288s2.862-4.008.498-5.676z" fill="#f5f5f5"/><path d="m85.1997 265.5c2.88 1.362 7.14 1.266 9.828-.288.3016-.174.5867-.375.852-.6-5.28 2.646-9.528.78-9.528.78l9.168-5.868z" fill="#fff"/><path d="m94.488 260.136-10.32 5.994v-1.23l10.32-5.958z" fill="#e0e0e0"/><path d="m85.206 265.5v1.224l-1.038-.594z" fill="#000" opacity=".2"/><path d="m21.3721 217.524c0-2.79 1.842-5.586 5.532-7.716 7.386-4.26 19.356-4.26 26.736 0 3.69 2.13 5.538 4.926 5.538 7.716v32.136c0 2.796-1.848 5.586-5.538 7.722-7.38 4.26-19.35 4.26-26.736 0-3.69-2.136-5.532-4.926-5.532-7.722z" fill="#516eb4"/><path d="m28.6378 208.932v49.32c-.6-.27-1.2-.552-1.734-.87-1.0948-.626-2.1033-1.393-3-2.28v-43.014c.8951-.889 1.9038-1.656 3-2.28.552-.318 1.134-.606 1.734-.876z" fill="#fff" opacity=".4"/><path d="m33.5998 259.866c-.9186-.202-1.8258-.452-2.718-.75v-51.048c.882-.288 1.8-.54 2.718-.744z" fill="#fff" opacity=".4"/><path d="m21.6961 215.514c1.173-1.576 2.6733-2.88 4.398-3.822 7.29-4.2 18.78-4.494 26.652-.87v-1.482c.3.156.6.3.894.468 3.69 2.13 5.538 4.926 5.538 7.716v7.392 14.172 10.572c0 2.796-1.848 5.586-5.538 7.722-7.38 4.26-19.35 4.26-26.736 0-1.2505-.703-2.3857-1.593-3.366-2.64 3.516 3.282 12.264 5.094 18.768 3.81s10.44-5.4 10.44-8.4v-2.862c-3.642 1.974-8.4 2.916-13.074 2.916v-14.406c4.662 0 9.432-.72 13.074-2.682v-4.2c-7.872 3.6-19.362 3.336-26.652-.87-1.9177-1.031-3.5423-2.532-4.722-4.362v-6.162c.0045-.683.1138-1.361.324-2.01z" fill="#000" opacity=".1"/><path d="m55.9859 251.016v-39.558c2.124 1.83 3.192 3.948 3.192 6.066v32.136c0 2.796-1.848 5.586-5.538 7.722-2.2448 1.243-4.6763 2.115-7.2 2.58 7.122-1.92 9.546-6.762 9.546-8.946z" fill="#000" opacity=".1"/><path d="m52.5541 256.518c-6.786 3.408-17.778 3.408-24.558 0s-6.78-8.934 0-12.342 17.772-3.408 24.558 0 6.78 8.934 0 12.342z" fill="#000" opacity=".1"/><path d="m59.178 225.846c0 2.796-1.848 5.586-5.538 7.722s-8.526 3.192-13.368 3.192v14.172c4.842 0 9.678-1.068 13.368-3.198s5.538-4.926 5.538-7.716z" fill="#fff"/><path d="m20.2261 208.89c0-2.958 1.956-5.922 5.868-8.184 7.8-4.518 20.526-4.518 28.356 0 3.918 2.262 5.874 5.226 5.874 8.184v8.91c0 2.958-1.956 5.922-5.874 8.184-7.8 4.518-20.526 4.518-28.356 0-3.894-2.28-5.868-5.244-5.868-8.184z" fill="#e0e0e0"/><path d="m35.4717 229.008c9.924.054 15.162-3.168 16.752-5.796 1.2-2.004 1.416-5.694 1.416-9.348 0 0 1.122-8.334.9-8.364s2.4-.558 4.308-.972c.9347 1.265 1.4508 2.79 1.476 4.362v8.91c0 2.958-1.956 5.922-5.874 8.184-5.148 2.952-12.39 3.96-18.978 3.024z" fill="#000" opacity=".1"/><g fill="#000" opacity=".1"><path d="m50.7959 227.634c.33-.12.648-.24.966-.372v-11.484h-.966z"/><path d="m46.6738 228.75c.324-.06.642-.132.96-.204v-11.586h-.96z"/><path d="m58.4639 222.654v-11.274h-.96v12.324c.3423-.329.663-.68.96-1.05z"/><path d="m42.27 229.296.96-.066v-11.676h-.96z"/><path d="m55.4942 225.306v-11.364h-.96v11.97c.336-.192.666-.396.96-.606z"/><path d="m59.8442 220.29c.3108-.8.4735-1.65.48-2.508v-8.892c-.0027-.554-.0712-1.106-.204-1.644h-.276z"/><path d="m33.3179 228.636.96.192v-11.796h-.96z"/><path d="m20.2261 217.8c.0035.858.1663 1.709.48 2.508v-12.24h-.426c-.0357.273-.0538.547-.054.822z"/><path d="m21.9541 222.486c.297.385.6198.75.966 1.092v-11.778h-.966z"/><path d="m25.3022 225.48c.258.162.516.324.792.486l.168.09v-11.688h-.96z"/><path d="m29.1182 227.4.96.354v-11.754h-.96z"/><path d="m37.7578 229.26.966.06v-11.748h-.966z"/></g><path d="m54.4497 217.08c-7.8 4.518-20.526 4.518-28.356 0s-7.8-11.85 0-16.374 20.526-4.518 28.356 0 7.83 11.85 0 16.374z" fill="#ebebeb"/><path d="m25.0196 216.39c-6.72-4.548-6.372-11.4 1.074-15.684 3.816-2.202 8.79-3.324 13.8-3.378 2.5603.396 5.0328 1.233 7.308 2.472 6.768 3.87 6.768 11.598 0 15.468-6.042 3.474-15.402 3.834-22.182 1.122z" fill="#f5f5f5"/><path d="m58.7999 213.336s-6.534 6.564-19.128 6.222-17.64-7.2-18.3-9.354c-.3401-1.256-.363-2.577-.0666-3.844s.9027-2.441 1.7646-3.416c-.8531.746-1.5453 1.658-2.0343 2.68s-.7645 2.134-.8097 3.266v8.91c0 .75-.39 3.33 3.678 6.678 0 0-2.4-2.706-2.4-5.316v-6.162s4.458 7.458 18.156 7.458 18.438-6 19.14-7.122z" fill="#fff"/><path d="m232.026 252.54c.876.504 1.416 1.59 1.416 3.126 0 3.078-2.16 6.822-4.83 8.358-1.332.768-2.538.846-3.408.342l-52.758-30.462c-1.568-.904-2.711-2.395-3.18-4.143s-.224-3.61.681-5.178c.905-1.567 2.395-2.711 4.143-3.18 1.748-.468 3.61-.223 5.178.681z" fill="#516eb4"/><path d="m232.026 252.54c.876.504 1.416 1.59 1.416 3.126 0 3.078-2.16 6.822-4.83 8.358-1.332.768-2.538.846-3.408.342l-52.758-30.462c-1.568-.904-2.711-2.395-3.18-4.143s-.224-3.61.681-5.178c.905-1.567 2.395-2.711 4.143-3.18 1.748-.468 3.61-.223 5.178.681z" fill="#fff" opacity=".7"/><path d="m221.076 248.58c.343.246.615.578.789.962.174.385.243.808.201 1.228-.064 1.173-.403 2.314-.99 3.331-.587 1.018-1.405 1.883-2.388 2.525-.936.534-1.8.6-2.4.234l-42.6-24.6c-.995-.686-1.694-1.721-1.959-2.9s-.075-2.414.531-3.459c.606-1.046 1.583-1.824 2.738-2.18 1.154-.356 2.401-.263 3.49.259z" fill="#516eb4"/><path d="m171.93 225.726c.617-1.056 1.614-1.836 2.787-2.182 1.173-.345 2.434-.23 3.525.322-.775-.18-1.589-.077-2.295.292-.706.368-1.256.977-1.551 1.716-.296.74-.316 1.56-.059 2.313.258.754.777 1.389 1.463 1.793l44.256 25.554c-.392.426-.842.793-1.338 1.092-.936.534-1.8.6-2.4.234l-42.6-24.6c-1.101-.631-1.908-1.673-2.243-2.898-.335-1.224-.171-2.532.455-3.636z" fill="#000" opacity=".1"/><path d="m221.076 248.58c-1.32-.756-3.456.48-4.8 2.766s-1.32 4.752 0 5.514 3.456-.474 4.8-2.76 1.32-4.758 0-5.52z" fill="#516eb4"/><path d="m221.076 248.58c-1.32-.756-3.456.48-4.8 2.766s-1.32 4.752 0 5.514 3.456-.474 4.8-2.76 1.32-4.758 0-5.52z" fill="#fff" opacity=".3"/><path d="m221.076 248.58c.342.245.614.576.788.96.173.383.243.805.202 1.224-.042-.168-1.008-2.958-3.6-.96-2.79 2.142-3.108 5.4-2.7 6.54-.732-1.062-.558-3.096.546-4.998 1.308-2.286 3.444-3.546 4.764-2.766z" fill="#fff" opacity=".5"/><path d="m176.334 223.416c-.6-.336-.666-.852-.162-1.11.327-.113.676-.154 1.021-.12.344.034.678.143.977.318l55.098 31.8c.117.44.176.894.174 1.35 0 .228 0 .462-.042.702z" fill="#fff" opacity=".4"/><path d="m174.216 223.71v-.03c.106-.091.237-.148.376-.164s.28.01.404.074l58.248 33.63c-.066.333-.153.661-.258.984l-58.686-33.894c-.054-.026-.1-.065-.135-.114-.035-.048-.058-.105-.066-.164-.009-.059-.002-.119.018-.175.021-.057.054-.107.099-.147z" fill="#fff" opacity=".4"/><path d="m227.88 252.12c.667-.415 1.429-.653 2.214-.69l1.932 1.11c.223.124.425.282.6.468.281.651.418 1.355.402 2.064 0 3.042-1.986 6.684-4.536 8.49l.462.27-.072.042c-.076.056-.156.106-.24.15-.511.298-1.072.501-1.656.6-.343.06-.695.06-1.038 0-.251-.046-.493-.136-.714-.264l-1.932-1.116-.378-.222-6.84-3.948-43.608-25.2c-1.358-.783-2.404-2.009-2.964-3.473-.56-1.463-.599-3.075-.11-4.564.488-1.489 1.474-2.764 2.793-3.612 1.318-.847 2.888-1.215 4.445-1.041-2.622-.126-5.106 2.16-5.832 4.956v.06c-.197.814-.123 1.669.209 2.438.332.768.905 1.408 1.633 1.822l50.31 29.046c.492-2.904 2.508-5.994 4.92-7.386z" fill="#516eb4" opacity=".2"/><path d="m169.632 225.204c-1.434 4.074 1.2 6.432 2.97 7.458l55.074 31.8-.114.036c-.387.128-.793.189-1.2.18h-.06-.222-.078c-.173-.029-.342-.078-.504-.144h-.054l-.228-.114-1.932-1.116-.378-.222-6.84-3.948-43.608-25.2c-1.472-.843-2.578-2.205-3.1-3.819-.523-1.614-.425-3.365.274-4.911z" fill="#000" opacity=".1"/><path d="m240.6 256.362c1.002.6 1.62 1.8 1.62 3.6 0 3.522-2.472 7.8-5.526 9.57-1.524.882-2.904.966-3.906.39l-7.434-4.296c-1.002-.6-1.62-1.8-1.62-3.6 0-3.522 2.472-7.8 5.526-9.57 1.524-.882 2.904-.966 3.906-.384z" fill="#e0e0e0"/><path d="m226.422 255.03c-1.95 3.336-1.884 5.73-1.308 6.78.444.798 6.084 4.152 7.32 4.86 0 0 2.592 2.004 2.646 1.938s-.276.912-.516 1.644c-.608.064-1.222-.06-1.758-.354l-7.434-4.296c-1.002-.6-1.62-1.8-1.62-3.6.129-2.548 1.064-4.989 2.67-6.972z" fill="#000" opacity=".1"/><g fill="#000" opacity=".2"><path d="m225 257.274c-.054.114-.114.222-.168.336l8.364 4.8.186-.324z"/><path d="m224.346 258.87c-.042.12-.096.234-.132.354l8.34 4.8.186-.324z"/><path d="m223.914 260.472c0 .138-.048.264-.066.402l8.304 4.8.186-.324z"/><path d="m223.758 262.068c0 .162.03.3.042.456l8.244 4.758.186-.324z"/><path d="m224.646 264.966c.2.255.446.471.726.636l7.428 4.296c.19.101.391.177.6.228l.036-.072z"/><path d="m224.118 264.042 8.208 4.74.192-.324-8.568-4.944c.044.18.1.356.168.528z"/><path d="m225.906 255.762c-.066.102-.138.204-.204.312l8.4 4.842.186-.324z"/><path d="m231.276 251.748c-.182.029-.363.069-.54.12l8.4 4.836.186-.324z"/><path d="m229.62 252.3c-.114.054-.222.09-.342.156l-.06.042 8.4 4.836.186-.324z"/><path d="m233.184 252.072c-.282-.159-.592-.265-.912-.312l8.532 4.926.066-.12c-.08-.073-.164-.141-.252-.204z"/><path d="m228.21 253.2c-.102.078-.198.174-.294.264l8.4 4.848.192-.324z"/><path d="m226.98 254.4-.246.294 8.4 4.848.186-.324z"/></g><path d="m231.186 266.322c0-3.528 2.478-7.8 5.526-9.57s5.526-.336 5.526 3.186-2.472 7.8-5.526 9.57-5.526.336-5.526-3.186z" fill="#ebebeb"/><path d="m237.156 256.518c2.844-1.38 5.082.072 5.082 3.42-.062 1.874-.595 3.702-1.548 5.316-.633.789-1.401 1.46-2.268 1.98-2.622 1.53-5.232.03-5.214-3 .006-2.724 1.716-5.958 3.948-7.716z" fill="#f5f5f5"/><path d="m234.312 264.516c.045-.833.286-1.644.703-2.366.417-.723.998-1.336 1.697-1.792 1.326-.768 2.4-.144 2.4 1.386-.045.833-.286 1.643-.703 2.366-.417.722-.998 1.336-1.697 1.792-1.326.762-2.4.144-2.4-1.386z" fill="#455a64"/><path d="m231.6 268.512s-.948-3.48 1.626-7.662 5.874-4.548 6.72-4.356c.49.131.94.381 1.311.727.37.346.65.779.813 1.259-.088-.433-.262-.844-.513-1.208-.25-.364-.572-.674-.945-.91l-7.434-4.29c-.252-.15-1.05-.786-2.97-.06.758-.155 1.545-.076 2.256.228l6.51 3.756s-3.384.054-6.054 4.674-1.56 7.392-1.32 7.842z" fill="#fff"/><path d="m205.53 244.746c-1.003 1.618-1.502 3.498-1.434 5.4l-22.488-12.978c-.062-1.902.439-3.781 1.44-5.4.492-.876 1.097-1.683 1.8-2.4l22.482 13.032c-.698.702-1.302 1.49-1.8 2.346z" fill="#000" opacity=".1"/><path d="m205.8 245.286c-.989 1.6-1.472 3.461-1.386 5.34l-22.482-12.978c-.086-1.881.397-3.744 1.386-5.346.495-.852 1.1-1.635 1.8-2.328l22.482 12.984c-.705.689-1.31 1.473-1.8 2.328z" fill="#fafafa"/><path d="m183 236.562c-.035.063-.044.137-.025.207.019.069.065.129.127.165l20.022 11.562c.063.035.137.044.207.025.069-.019.129-.065.165-.127.035-.062.043-.135.024-.204s-.064-.127-.126-.162l-20.022-11.562c-.031-.018-.065-.03-.1-.036-.035-.005-.072-.003-.106.006-.035.009-.067.025-.096.047-.028.021-.052.048-.07.079z" fill="#e0e0e0"/><path d="m183.528 234.816c-.034.062-.043.135-.024.204.019.068.065.127.126.162l20.022 11.562c.031.018.065.029.1.034.035.004.071.002.105-.007.035-.009.067-.025.095-.047.028-.021.052-.048.069-.079.018-.031.03-.065.034-.1.005-.035.002-.071-.007-.105s-.025-.066-.046-.095c-.022-.028-.049-.051-.08-.069l-20.022-11.562c-.063-.035-.137-.044-.206-.025-.07.019-.129.065-.166.127z" fill="#e0e0e0"/><path d="m184.368 233.19c-.034.062-.043.135-.024.204s.064.127.126.162l20.022 11.562c.062.036.136.045.205.027.069-.019.128-.064.164-.126s.046-.136.027-.205c-.018-.069-.064-.128-.126-.164l-20.022-11.562c-.063-.035-.137-.044-.207-.025-.069.019-.128.065-.165.127z" fill="#516eb4"/><path d="m185.214 231.63c-.018.031-.03.065-.035.1-.006.035-.004.071.005.106s.025.067.047.096c.021.028.048.052.079.07l20.028 11.562c.062.035.136.043.204.024.069-.019.127-.064.162-.126.019-.03.032-.064.037-.099.006-.035.004-.071-.005-.105s-.025-.066-.047-.094-.05-.051-.081-.068l-20.022-11.562c-.031-.018-.065-.03-.1-.036-.035-.005-.071-.003-.106.006s-.067.025-.096.047c-.028.021-.052.048-.07.079z" fill="#455a64"/><path d="m240.612 225.72-2.034-.864 1.926-.66z" fill="#263238"/><path d="m221.148 230.508s22.8-11.946 23.184-10.38c.082.313.096.641.042.96l.06-.09-.264 3c-.993.912-2.229 1.516-3.558 1.74 0-.138-.072-1.02-.108-1.524-.706.334-1.377.735-2.004 1.2-1.446 1.086-2.31 2.886-3.786 5.004-1.08 1.542-3.108 2.352-6.15 2.964-3.27.66-6.216.186-7.086-.66-.678-.672-.438-1.998-.33-2.214z" fill="#263238"/><path d="m221.754 229.8c.21-.246.996-1.2 2.07-2.292 1.016-1.083 2.088-2.112 3.21-3.084.961-.916 1.859-1.897 2.688-2.934 1.127-1.492 2.088-3.101 2.868-4.8.324-.822.558-1.8.36-4.836-.27-4.248-.438-5.202-.636-8.436l11.82-.786c-.222 1.8-.726 4.35-.978 6.798-.318 3.096-1.32 3.45.06 6.468.402.894.978 1.734 1.08 2.706.162 1.584-.996 3-2.334 3.876-1.11.708-2.4 1.056-3.492 1.8-1.09.842-2.02 1.873-2.748 3.042-.732 1.056-1.296 2.292-2.364 3.066-1.132.757-2.402 1.281-3.738 1.542-1.672.397-3.388.583-5.106.552-2.442-.078-4.314-.882-2.76-2.682z" fill="#c8856a"/><path d="m230.628 224.562c-.564-.282-1.183-.44-1.813-.461-.631-.022-1.259.092-1.841.335-1.644 1.47-3 2.772-3.966 3.684-1.164 1.104-2.184 2.112-2.07 3.294.174 1.86 7.392 2.01 11.31 0 1.213-.498 2.183-1.453 2.7-2.658 0 0-.738-2.556-4.32-4.194zm13.284-7.464c-.345-.57-.662-1.157-.948-1.758-1.356.84-3.6 4.488-2.268 7.956.711-.181 1.378-.506 1.96-.953.582-.448 1.066-1.01 1.424-1.651.313-.554.463-1.185.433-1.821s-.238-1.25-.601-1.773z" fill="#37474f"/><path d="m263.058 218.184c-.6 1.074.552 6.312.6 9.03.06 2.466.066 6.888 1.074 9.234 1.2 2.778 3.408 5.928 6.822 2.886 2.13-1.878 3.246-4.134 3.246-7.734 0-2.472-1.308-5.766-2.454-8.694-1.338-3.414-1.89-5.256-1.89-5.256z" fill="#263238"/><path d="m269.4 201c.72 5.694.726 8.958.978 12.6.188 1.916.488 3.819.9 5.7.504 2.34 1.5 5.478 1.986 6.96.69 2.07 1.2 3.366.6 5.814-.053.195-.125.384-.216.564-.942 2.064-3.6 3.804-4.53 3.654-.172.238-.405.425-.674.541-.27.116-.565.157-.856.119-.101-.006-.201-.018-.3-.036-.106-.022-.21-.05-.312-.084-.373-.146-.711-.369-.992-.654-.281-.286-.499-.627-.64-1.002-.069-.165-.129-.333-.18-.504-.599-1.923-.897-3.926-.882-5.94-.036-1.338-.24-3.666-.54-5.802s-1.908-7.974-2.79-11.172c-.732-2.652-2.154-8.094-2.154-8.094z" fill="#c8856a"/><path d="m274.026 228.978c-2.274-.696-8.832-.102-9.6 2.886.192 2.724.48 4.464 2.52 6.66 2.706 2.91 5.646-.732 6.708-3s.792-5.124.372-6.546z" fill="#37474f"/><path d="m261.288 125.694c2.292 5.604 4.464 11.772 4.8 23.64.474 15.654 1.2 21.306 1.362 23.19.258 3.216 1.644 6.126 3.138 15.354s.702 26.172.702 26.172c-1.61 1.418-3.596 2.341-5.718 2.658-3.258.48-4.692-.798-4.692-.798s-6.174-24.972-7.734-30.51-6.222-23.7-6.222-23.7l-1.842 15.3s1.842 4.8 1.308 13.014-3.432 23.544-3.432 23.544-1.74 1.326-5.256 1.152-4.926-1.392-4.926-1.392-3.156-30.432-3.684-39.654-1.8-33.516 1.554-47.97z" fill="#455a64"/><path d="m233.16 140.658c1.608 3.732 6.822 6.114 9.078 6.516l3.444 14.4-.6 15.414 1.842-15.282-3.924-17.568s-6.204-.09-9.84-3.48zm21-3.06c.45 1.476.864 2.964 1.302 4.452s.864 2.97 1.326 4.47c-.079-1.563-.28-3.118-.6-4.65-.292-1.536-.663-3.056-1.11-4.554-.446-1.499-.977-2.971-1.59-4.41-.597-1.451-1.35-2.833-2.244-4.122.552 1.464 1.05 2.922 1.53 4.392s.954 2.94 1.386 4.422zm2.46-3.036c.552.876 1.08 1.764 1.614 2.652l1.578 2.712c-.166-1.051-.464-2.078-.888-3.054-.417-.978-.908-1.923-1.47-2.826-.563-.898-1.186-1.756-1.866-2.568-.676-.819-1.427-1.572-2.244-2.25.516.936 1.068 1.8 1.626 2.7s1.11 1.752 1.65 2.634zm.084 42.27c-1.164-4.728-2.07-9.522-3-14.328s-1.764-9.6-2.712-14.4c.57 4.86 1.2 9.708 1.962 14.544s1.614 9.66 2.772 14.43 2.43 9.474 3.702 14.196 2.592 9.426 3.978 14.118c-1.016-4.8-2.092-9.57-3.228-14.31-1.104-4.764-2.286-9.528-3.474-14.25zm-24.246-14.724.228-12.774c-.486 4.266-.786 8.466-.99 12.75s-.366 8.508-.186 12.81c.336 4.278.852 8.496 1.392 12.726s1.152 8.442 1.842 12.648c-.312-4.252-.672-8.498-1.08-12.738l-.6-6.354c-.204-2.112-.426-4.236-.564-6.342s-.102-4.2-.096-6.348.036-4.248.054-6.378z" fill="#37474f"/><path d="m200.016 91.71c-.654-.132-.774.492-.366.954.972 1.092 2.76 1.014 3.6 1.464.198.138 2.586 2.274 2.658 2.934-.672-.288-2.718-1.374-3.402-1.626-.198-.072-.762-.174-2.496-.474-.295-.0761-.602-.1004-.906-.072-.204.066-.42.51-.03.942.684.768 1.932.726 2.892 1.098.474.174 1.932.792 2.4 1.728-1.428-.396-2.346-.336-4.53-.114-.252 0-.3.162-.282.33.023.1401.078.2726.163.3865.085.1138.195.2056.323.2675.6.312 1.488.174 2.454.294.992.1735 1.927.585 2.724 1.2.305.214.561.49.75.81.212.413.401.837.564 1.272.406.835 1.053 1.53 1.857 1.996.804.465 1.728.679 2.655.614.121-.003.239-.038.342-.102.074-.08.128-.175.158-.279.03-.105.036-.214.016-.321-.102-2.1-1.14-4.014-1.908-5.97-.258-.642-2.25-5.436-2.352-5.598-.048-.072-5.088-1.356-5.244-1.374-.498-.042-1.41-.234-2.04-.36z" fill="#af6152"/><path d="m231.81 99.744c-.924 1.476-4.962 8.328-4.962 8.328s-8.244-4.002-10.266-5.178c-2.202-1.294-3.93-3.2635-4.926-5.616-1.122-2.496-1.524-2.622-2.724-3.39-.744-.48-2.4-1.8-2.478-1.872-.266-.1611-.562-.2672-.87-.312-.156-.048-.822-.198-.984-.234-.93-.21-1.512-.288-2.436-.498-.283-.0702-.572-.1144-.864-.132-.065-.0046-.129.01-.186.042-.096.066-.096.21-.072.33.077.2781.21.5372.392.7613.182.224.408.4081.664.5407.515.263 1.058.4644 1.62.6.342.102.534.126 1.2.324.274.096.518.2614.708.48 1.009.9453 1.912 1.9975 2.694 3.138-1.197-.2801-2.296-.8793-3.18-1.734-.816-.81-1.566.252-.792 1.554.882 1.5 2.208 1.698 3.33 3.714s-.492 3.99 2.13 5.61c1.559 1.022 3.039 2.159 4.428 3.402 2.28 1.932 8.352 6.306 9.864 7.362 3.204 2.244 5.178 2.004 9.474-3.33 5.682-7.05 6.42-7.89 6.42-7.89v-12.486c-3.732.6-5.142 1.614-8.184 6.486z" fill="#c8856a"/><path d="m208.344 97.038c.676.271 1.314.6301 1.896 1.068.216.186.144-.474-.78-1.164s-1.698-.6-1.908-.93z" fill="#af6152"/><path d="m239.676 92.64c-3.792.564-5.73 1.758-8.886 7.17-1.53 2.499-2.932 5.074-4.2 7.716l-10.59-5.478c-.151 2.668-1.093 5.231-2.706 7.362 0 0 7.992 6 10.998 8.01s5.4 1.626 7.65-.954 7.98-9.822 7.98-9.822z" fill="#e0e0e0"/><path d="m261.342 98.94c.042-2.208.078-4.416 0-6.6-.015-.7065-.069-1.4115-.162-2.112-.348-2.4-1.494-3.72-3.186-5.478-.287-.3204-.607-.61-.954-.864-.708-.474-2.046-.924-2.844-.402v15.456z" fill="#263238"/><path d="m264.552 133.71c-1.278-5.4-2.922-8.802-2.826-9.978.408-5.112 2.22-11.736 2.874-14.676 1.416-6.396-1.53-12.39-2.946-13.77l-3.384-1.05c-1.104-.348-2.904-.708-4.602-1.068-3.768-.804-5.352-.87-6.786-.828-.708 0-4.068.366-4.068.366-1.02.162-2.88.366-2.886.372-1.91 1.5108-3.548 3.3371-4.842 5.4-1.848 2.814-2.946 5.202-3.678 11.46-.924 7.968-2.052 16.872-2.442 22.452 6.336 4.536 26.694 5.706 35.586 1.32z" fill="#516eb4"/><path d="m264.552 133.71c-1.278-5.4-2.922-8.802-2.826-9.978.408-5.112 2.22-11.736 2.874-14.676 1.416-6.396-1.53-12.39-2.946-13.77l-3.384-1.05c-1.104-.348-2.904-.708-4.602-1.068-3.768-.804-5.352-.87-6.786-.828-.708 0-4.068.366-4.068.366-1.02.162-2.88.366-2.886.372-1.91 1.5108-3.548 3.3371-4.842 5.4-1.848 2.814-2.946 5.202-3.678 11.46-.924 7.968-2.052 16.872-2.442 22.452 6.336 4.536 26.694 5.706 35.586 1.32z" fill="#000" opacity=".25"/><path d="m238.932 74.76c-1.35-3.756.93-9.57 6-10.986s14.49 1.242 16.398 7.566-1.05 9.3-3 12-4.38 5.766-4.38 5.766z" fill="#263238"/><path d="m255.732 90.858c.042-1.368.21-5.328.21-5.328 0 .42 2.202 2.124 4.278.186s2.478-4.2 1.56-5.814c-1.014-1.764-3.702-1.992-5.088.516-.864.864-2.604-.138-1.674-2.634.054-1.8-2.922-1.098-1.914-6.846-4.734-4.026-11.4-3.114-13.038-.084-.539 1.0797-.748 2.2943-.6 3.492.06 1.668-.312 2.55-.516 3.768-.738 4.476.792 8.094 2.358 9.6.569.5275 1.239.9361 1.968 1.2019s1.504.3835 2.28.3461c0 0 0 .522-.042 1.422 0 0-.438 1.236-1.386 1.434-.636.132-2.232.408-2.232.408s-2.448 3.222 3.348 4.26c9.234 1.656 13.518-2.712 13.518-2.712s-.378-.156-1.8-.6c-1.362-.474-1.278-1.248-1.23-2.616z" fill="#c8856a"/><path d="m245.532 89.25c4.044.078 7.8-1.014 8.928-3.882-.012.7929-.236 1.5682-.648 2.2456-.413.6773-.999 1.2319-1.698 1.6064-2.31 1.308-6.6 1.452-6.6 1.452z" fill="#af6152"/><path d="m248.508 81.882-3.552 1.098c.062.2379.17.4609.32.6558.15.195.337.3578.551.4787.214.121.45.1976.694.2253.244.0278.491.0061.727-.0638.48-.1573.88-.4951 1.115-.9419s.287-.9676.145-1.4521z" fill="#af6152"/><path d="m248.28 82.704c-.473-.017-.937.1304-1.313.417-.377.2866-.642.6948-.751 1.155.336.1007.695.1007 1.032 0 .338-.1098.639-.3117.869-.583s.38-.6013.433-.953c-.089-.0208-.179-.0329-.27-.036z" fill="#f0997a"/><path d="m240.132 74.016 2.4-.906c-.049-.159-.13-.3062-.239-.4322-.108-.126-.242-.228-.392-.2997-.15-.0716-.313-.1113-.479-.1165-.167-.0052-.332.0243-.486.0864-.323.122-.586.363-.735.6735-.15.3104-.175.6664-.069.9945z" fill="#263238"/><path d="m251.028 75.348-2.214-1.308c.078-.1479.186-.2784.316-.3835.13-.1052.28-.1828.441-.2283.161-.0454.329-.0577.495-.0361.166.0217.326.0767.47.1619.296.1789.513.4649.604.7987.092.3339.052.6902-.112.9953z" fill="#263238"/><path d="m248.058 76.62c.001.1922.059.3798.167.539s.261.2828.439.3553c.178.0724.373.0905.562.0518.188-.0387.361-.1323.496-.2691s.226-.3105.263-.4993c.036-.1888.015-.3841-.059-.5612-.075-.1772-.2-.3282-.361-.434-.16-.1058-.349-.1617-.541-.1605-.128.0008-.254.0267-.371.0763-.118.0495-.225.1218-.314.2126-.09.0908-.161.1984-.209.3167-.048.1182-.073.2447-.072.3724z" fill="#263238"/><path d="m240.78 75.978c.001.1922.059.3798.167.539s.26.2828.438.3553c.178.0724.374.0905.562.0518.189-.0387.361-.1323.496-.2691.135-.1367.227-.3105.263-.4993.037-.1888.016-.3841-.059-.5612-.074-.1772-.2-.3282-.36-.434-.161-.1058-.349-.1617-.541-.1605-.128.0008-.254.0267-.372.0763-.117.0495-.224.1218-.314.2126-.089.0908-.16.1984-.208.3167-.049.1182-.073.2447-.072.3724z" fill="#263238"/><path d="m242.136 79.398 3.534 1.368.336-6.618z" fill="#af6152"/><path d="m255.714 91.638c-.24 3.762-4.056 6.468-5.748 15.954s1.974 54.456 1.974 54.456 10.626-.258 15.12-6.39c0 0 .414-12.702-1.356-20.514s-3.54-9.456-3.072-12.876 3.246-13.488 2.61-19.134-3.432-8.124-3.432-8.124z" fill="#f0f0f0"/><path d="m245.49 90.828s0 .972-1.734 2.076c-1.884 1.2-7.77 5.58-9.066 15.552s-2.4 30.474-3.042 53.334c-1.795-.657-3.403-1.74-4.686-3.156 0 0 1.302-26.574 2.7-40.89s2.166-16.764 4.59-20.304c1.346-2.0476 3.209-3.7034 5.4-4.8z" fill="#f0f0f0"/><path d="m214.59 146.094c-.018-.027-.034-.055-.048-.084l-17.556-40.518c-.354-.726-.234-1.686.462-2.706.826-1.069 1.891-1.928 3.111-2.508 1.22-.5795 2.559-.8632 3.909-.828 1.248.096 2.088.6 2.448 1.326l21.48 38.652s0 .054.042.078l.072.138c.449.9.713 1.88.778 2.883.065 1.004-.072 2.01-.401 2.96s-.844 1.825-1.516 2.573-1.486 1.355-2.395 1.784c-1.85.876-3.97.989-5.903.315-1.933-.673-3.523-2.079-4.429-3.915z" fill="#516eb4"/><path d="m204.468 99.45c2.49.192 3.378 1.998 1.986 4.038-.824 1.07-1.89 1.93-3.11 2.51s-2.56.863-3.91.826c-2.484-.198-3.372-2.004-1.986-4.038.825-1.069 1.891-1.928 3.111-2.508 1.22-.5795 2.559-.8632 3.909-.828z" fill="#000" opacity=".25"/><path d="m223.158 139.734-18.414-34.56c.663-.46 1.241-1.03 1.71-1.686.69-1.014.828-1.962.468-2.694l21.474 38.634s0 .054.042.078l.072.138c.449.9.713 1.88.778 2.883.065 1.004-.072 2.01-.401 2.96s-.844 1.825-1.516 2.573-1.486 1.355-2.395 1.784c1.884-1.578.582-5.562-1.818-10.11z" fill="#000" opacity=".1"/><path d="m192.528 89.31c.499-.6474 1.143-1.1676 1.882-1.518.738-.3504 1.549-.521 2.366-.498.295-.0074.587.063.846.2042.259.1411.476.348.63.5998l6.696 13.614c.105.273.134.569.086.857-.049.288-.174.558-.362.781-.5.646-1.145 1.166-1.883 1.516s-1.548.522-2.365.5c-.295.007-.587-.063-.846-.204s-.476-.348-.63-.6l-6.702-13.614c-.105-.2731-.134-.5695-.084-.8577.049-.2883.176-.5579.366-.7803z" fill="#e0e0e0"/><path d="m201.942 95.58-2.49-5.058c-1.784 1.432-3.598 2.766-5.442 4.002l2.454 4.98c1.866-1.224 3.696-2.538 5.478-3.924z" fill="#000" opacity=".25"/><path d="m214.752 30.78-6.756-3.864c-5.112-2.946-12.186-2.52-20.004 1.98-15.6 9-28.284 30.966-28.284 49.008 0 9 3.162 15.354 8.292 18.312l6.732 3.852c2.245 1.271 4.788 1.921 7.368 1.884 3.804 0 8.094-1.242 12.636-3.864 15.6-9 28.29-30.96 28.29-49.002 0-9.012-3.162-15.348-8.274-18.306zm-36.126 25.338c4.956-8.58 11.472-15.492 18.36-19.47 3.6-2.088 7.116-3.21 10.158-3.258.521-.0131 1.042.009 1.56.066 2.154 2.706 3.33 6.81 3.33 12.036 0 7.95-2.73 17.052-7.686 25.638s-11.472 15.498-18.348 19.47c-3.696 2.136-7.284 3.264-10.386 3.264-.445.0006-.89-.0234-1.332-.072-.396-.5031-.751-1.0367-1.062-1.596-1.476-2.622-2.268-6.15-2.268-10.434-.012-7.962 2.718-17.058 7.674-25.644z" fill="#455a64"/><path d="m167.1 51.6 10.632 6.102c.288-.534.6-1.062.894-1.596 1.523-2.645 3.233-5.1775 5.118-7.578l-10.662-6.108c-2.233 2.8971-4.234 5.9667-5.982 9.18zm12.9-16.734c-1.32 1.2-2.594 2.488-3.822 3.864l10.698 6.15c1.239-1.3356 2.549-2.6034 3.924-3.798z" fill="#fff" opacity=".1"/><path d="m174.696 100.044-6.696-3.828c-5.118-2.958-8.286-9.288-8.286-18.312 0-.348 0-.696 0-1.044l6.738 3.852v1.044c-.006 8.994 3.15 15.324 8.244 18.288z" fill="#37474f"/><path d="m215.55 37.518c-.78-1.1315-1.795-2.0805-2.977-2.7818-1.182-.7012-2.502-1.138-3.869-1.2802 2.154 2.706 3.33 6.81 3.33 12.036 0 7.95-2.73 17.052-7.686 25.638s-11.472 15.498-18.348 19.47c-3.696 2.136-7.284 3.264-10.386 3.264-.445.0006-.889-.0234-1.332-.072.864 1.1058 1.962 2.0068 3.215 2.6385 1.253.6318 2.63.9785 4.033 1.0155h.6c3.102 0 6.696-1.128 10.392-3.264 6.882-3.972 13.398-10.884 18.36-19.47s7.68-17.688 7.68-25.638c-.03-4.92-1.08-8.874-3.012-11.556z" fill="#263238"/><path d="m194.736 32.754c-15.6 9-28.29 30.96-28.29 49.002s12.666 25.356 28.29 16.332 28.29-30.96 28.29-49.002-12.666-25.35-28.29-16.332zm-2.244 61.446c-3.702 2.136-7.29 3.264-10.392 3.264-1.828.0456-3.631-.4244-5.203-1.3561-1.573-.9316-2.851-2.2874-3.689-3.9119-1.476-2.622-2.268-6.156-2.268-10.434 0-7.95 2.73-17.052 7.686-25.638s11.472-15.498 18.36-19.47c3.6-2.088 7.116-3.21 10.164-3.258h.222c6.99 0 11.16 5.874 11.16 15.702 0 7.95-2.724 17.058-7.68 25.638s-11.478 15.486-18.36 19.464z" fill="#37474f"/><path d="m173.31 56.466c-2.608 5.0847-4.54 10.4884-5.748 16.074-.583 2.7899-.904 5.6283-.96 8.478-.073 2.8451.24 5.6869.93 8.448.66 2.7686 1.942 5.3501 3.75 7.548 1.848 2.1712 4.334 3.704 7.104 4.38 2.781.64 5.676.596 8.436-.126 2.775-.682 5.439-1.7526 7.914-3.18-2.454 1.4783-5.104 2.603-7.872 3.342-2.787.748-5.714.812-8.532.186-2.824-.676-5.365-2.2207-7.266-4.416-1.851-2.2221-3.172-4.836-3.864-7.644-.678-2.7993-.974-5.6773-.882-8.556.077-2.8657.421-5.7179 1.026-8.52.599-2.7968 1.401-5.5461 2.4-8.226 1.026-2.6671 2.217-5.2681 3.564-7.788z" fill="#455a64"/><path d="m207.372 33.384c1.421-.0235 2.832.2355 4.152.762 1.32.5516 2.499 1.3922 3.45 2.46.941 1.0761 1.694 2.3033 2.226 3.63.554 1.3181.957 2.6949 1.2 4.104.449 2.8136.529 5.6736.24 8.508-.278 2.827-.815 5.6226-1.602 8.352-.766 2.7395-1.743 5.4155-2.922 8.004-1.166 2.5908-2.501 5.1023-3.996 7.518-2.959 4.8705-6.614 9.283-10.848 13.098-2.142 1.889-4.474 3.5499-6.96 4.956-2.493 1.4482-5.227 2.4359-8.07 2.916-1.443.225-2.913.2067-4.35-.054-1.448-.2797-2.816-.8804-4.002-1.758-.589-.438-1.126-.9412-1.602-1.5-.484-.5542-.908-1.1575-1.266-1.8-.717-1.2558-1.258-2.6045-1.608-4.008-.668-2.7814-.908-5.6482-.714-8.502.164-2.8361.604-5.6494 1.314-8.4.711-2.7426 1.632-5.4265 2.754-8.028 1.113-2.601 2.402-5.1229 3.858-7.548-2.773 4.9181-4.853 10.1961-6.18 15.684-.669 2.7285-1.071 5.5157-1.2 8.322-.148 2.7913.127 5.589.816 8.298.353 1.3368.888 2.6188 1.59 3.81.68 1.1827 1.592 2.2154 2.682 3.036 1.095.8034 2.356 1.3509 3.69 1.602 1.353.228 2.734.228 4.086 0 2.739-.4782 5.369-1.4456 7.764-2.856 2.425-1.3887 4.699-3.0255 6.786-4.884 4.185-3.7215 7.804-8.0351 10.74-12.804 2.987-4.76 5.326-9.8973 6.954-15.276.817-2.6843 1.385-5.4378 1.698-8.226.329-2.7928.292-5.6165-.108-8.4-.197-1.3839-.551-2.7407-1.056-4.044-.491-1.3089-1.199-2.5259-2.094-3.6-.909-1.0665-2.045-1.9171-3.324-2.49-1.294-.5626-2.687-.8624-4.098-.882z" fill="#455a64"/><path d="m210.63 33.864c-1.055-.3256-2.154-.4875-3.258-.48h-.228c-3.042.048-6.552 1.2-10.158 3.258-6.888 3.978-13.404 10.89-18.36 19.47s-7.686 17.688-7.686 25.644c0 4.284.792 7.8 2.268 10.434.631 1.1412 1.464 2.1578 2.46 3 1.052.329 2.149.4929 3.252.486 3.102 0 6.69-1.128 10.392-3.264 6.882-3.972 13.404-10.89 18.354-19.47s7.686-17.688 7.686-25.638c0-6.228-1.692-10.884-4.722-13.44z" fill="#fff" opacity=".3"/><path d="m261.936 95.736c-4.584 1.602-7.38 7.662-7.38 7.662l-9.882 14.628s-11.808 5.796-15.738 7.302c-1.68.642-4.518-.312-6.804-.264-.6 0-1.14.048-1.668.09l1.638 2.94c.894.666-1.122 1.764-3.684 2.28-2.682.534-5.61.234-6.486 1.8-.42.744.042 1.044 1.122 1.2-.09.426.066.93 1.29 1.272.521.783 1.297 1.362 2.196 1.638 1.752.33 5.244.492 7.8-.6s4.29-2.622 6.972-3.426 11.904-3.33 15.378-4.686 4.602-1.944 6-3.696 10.122-12.48 12.33-16.848c2.502-5.028 1.452-9.45-3.084-11.292z" fill="#c8856a"/><path d="m261.654 95.286c-2.778 1.2-4.008 1.8-7.422 7.062s-9.792 15.39-9.792 15.39l-10.674 5.148c1.107 1.183 1.894 2.628 2.286 4.2.402 1.459.421 2.996.054 4.464 0 0 11.604-3.27 14.166-4.032s3.03-2.07 6.552-6.21c3.238-3.902 6.163-8.053 8.748-12.414 1.908-3.222 3.162-10.698-3.918-13.608z" fill="#e0e0e0"/><path d="m252.138 36.51c-1.755 3.2557-2.201 7.0584-1.248 10.632l.516 1.584c1.334 3.4048 3.899 6.1836 7.186 7.7847 3.288 1.601 7.057 1.9072 10.56.8578 3.503-1.0495 6.483-3.3779 8.348-6.5229 1.866-3.145 2.48-6.8765 1.722-10.4536l-.438-1.608c-.902-2.696-2.574-5.069-4.809-6.8266-2.234-1.7575-4.934-2.8229-7.767-3.0646s-5.674.3506-8.174 1.7041-4.55 3.409-5.896 5.9131z" fill="#fff"/><path d="m251.064 35.898c-1.774 3.2879-2.329 7.0974-1.566 10.7548.763 3.6575 2.795 6.9273 5.736 9.2312l-.6 4.872c-.024.1838.009.3706.093.5356.085.165.217.3006.38.3889s.349.1252.534.1059c.184-.0194.358-.0942.499-.2144l3.744-3.186c2.854.9747 5.928 1.113 8.858.3986s5.595-2.2518 7.68-4.4309c2.086-2.1791 3.504-4.909 4.089-7.8678.585-2.9589.312-6.0232-.787-8.8318-1.1-2.8087-2.979-5.2444-5.417-7.02s-5.333-2.8172-8.343-3.0017c-3.011-.1846-6.011.4955-8.648 1.9599-2.637 1.4645-4.8 3.6524-6.234 6.3057zm20.85-5.298c3.253 1.7582 5.713 4.6919 6.876 8.202l.438 1.608c.752 3.5779.132 7.3078-1.739 10.4493-1.87 3.1414-4.853 5.4648-8.357 6.5089-3.504 1.044-7.272.7324-10.557-.873s-5.846-4.3872-7.175-7.7932l-.516-1.59c-.722-2.7485-.625-5.6484.28-8.3423.905-2.694 2.578-5.0645 4.813-6.8195s4.935-2.8179 7.767-3.0579c2.831-.2399 5.672.3537 8.17 1.7077z" fill="#455a64"/><path d="m262.878 51.516c-.296.0001-.588-.0605-.86-.1782-.271-.1176-.516-.2898-.718-.5058l-4.902-5.232c-.392-.4185-.602-.9757-.583-1.549.018-.5733.264-1.1157.682-1.508.419-.3923.976-.6022 1.549-.5836.574.0185 1.116.2641 1.508.6826l3.186 3.402 7.53-9.54c.365-.4207.879-.6846 1.433-.7367.555-.0522 1.108.1114 1.545.4566.438.3453.725.8457.803 1.3974.078.5516-.06 1.112-.385 1.5647l-9.066 11.508c-.193.2446-.436.4447-.714.5866-.278.1418-.582.2221-.894.2354z" fill="#516eb4"/><path d="m111.894 230.4c.648-6.918.108-9.828.912-20.628.102-2.772.264-5.736.504-8.4.816-8.862 2.28-11.868 2.442-13.578 0 0 .066-10.638 1.038-30.042.456-9.126 3.234-11.844 5.502-16.656l27.438.48c1.362 12.09 1.122 34.512.798 46.836-.168 6.282-3.342 37.482-3.408 38.256-.24 2.736 0 3.822 1.068 4.998 2.274 2.454 5.586 4.8 8.448 6.972-.444 1.068-3.93.972-5.646.12-2.241-1.167-4.378-2.522-6.39-4.05-2.352-1.758-5.37-3.186-5.358-5.802-.01-.158-.034-.314-.072-.468 0-1.524-3.324-21.702-3.528-26.922-.174-4.494.534-12.102.534-12.102l-2.34-15.486s-1.608 8.04-3.6 15.678c-1.632 6.216-4.482 14.4-6.336 22.08-1.8 8.82-4.326 15.084-4.8 19.506-.144 1.056-1.578 11.4-2.136 13.8s-5.886 2.34-6.15-1.758c-.192-2.736.954-11.514 1.08-12.834z" fill="#ffbda7"/><path d="m161.52 241.536c.15 0 .36 1.584-.45 2.25-.93.768-3.66 2.028-7.242 1.548s-5.526-1.566-6.948-2.748-3.426-2.838-5.052-3.198c-1.506-.336-3.138-1.008-3.6-1.464s-.39-2.472-.39-2.472z" fill="#263238"/><path d="m139.134 227.7s-.27 0-.372.474-.246 2.166-.492 3.078c-.382 1.6-.514 3.25-.39 4.89.186 1.038 2.64 1.77 4.2 2.364 1.839.794 3.548 1.86 5.07 3.162 2.215 1.6 4.825 2.565 7.548 2.79 3.6.078 5.892-.846 6.6-2.088.9-1.542.21-2.442-3.876-4.32-.774-.354-3.492-1.944-4.416-2.52-.98-.603-1.909-1.285-2.778-2.04-.435-.377-.85-.778-1.242-1.2-.405-.38-.752-.816-1.032-1.296-.042-.108-.072-.234-.114-.342-.114-.304-.202-.617-.264-.936-.06-.33-.096-.816-.42-1.014-.464-.192-.972-.254-1.47-.18-.532.032-1.061.1-1.584.204-.6.126-1.302.174-1.668.726-.24.441-.36.938-.348 1.44v.702c0 .102.042.282-.102.24s-.288-.39-.336-.51c-.114-.264-.186-.54-.306-.798-.133-.303-.303-.589-.504-.852-.189-.239-.404-.457-.642-.648-.242-.134-.477-.282-.702-.444-.207-.25-.333-.558-.36-.882z" fill="#37474f"/><path d="m158.106 238.362c-5.178.312-6.828 3.402-7.068 5.322 1.176.443 2.412.704 3.666.774 3.6.078 6.042-.846 6.768-2.088.846-1.452.288-2.628-3.366-4.008z" fill="#fafafa"/><path d="m150.354 238.362c-.059-.002-.116-.023-.162-.06-.023-.022-.042-.048-.054-.078-.013-.029-.02-.061-.02-.093s.007-.064.02-.093c.012-.03.031-.056.054-.078.615-.605 1.349-1.075 2.157-1.378.807-.304 1.668-.436 2.529-.386.033.003.064.012.093.028.029.015.054.036.075.061.02.025.036.054.045.085.01.031.013.064.009.096-.002.033-.012.065-.028.093-.015.029-.037.055-.063.075s-.055.035-.087.043-.065.01-.098.005c-.779-.038-1.557.083-2.288.357-.73.273-1.397.693-1.96 1.233-.026.033-.06.058-.099.074s-.081.021-.123.016z" fill="#f0f0f0"/><path d="m148.134 237.084c-.057.001-.113-.02-.156-.06-.025-.019-.047-.044-.063-.072s-.026-.059-.029-.091c-.004-.032-.001-.065.009-.096.01-.03.026-.059.047-.083.615-.606 1.351-1.077 2.159-1.381s1.671-.434 2.533-.383c.066.008.127.041.168.092.042.052.061.118.054.184-.01.065-.045.124-.097.164-.053.04-.119.059-.185.052-.777-.04-1.555.079-2.285.352-.73.272-1.396.692-1.957 1.232-.024.029-.054.051-.089.067-.034.015-.071.023-.109.023z" fill="#f0f0f0"/><path d="m146.082 235.626c-.057.001-.112-.019-.156-.054-.026-.02-.048-.045-.064-.073-.016-.029-.026-.061-.029-.093-.004-.033 0-.066.01-.097.009-.031.026-.06.047-.085.616-.605 1.352-1.074 2.16-1.376.808-.303 1.671-.433 2.532-.382.032.003.064.012.093.028.028.015.054.036.074.061.021.025.036.054.046.085.009.031.012.064.009.096-.004.033-.014.065-.03.094s-.038.054-.065.074c-.026.02-.056.035-.088.043-.033.008-.066.01-.099.005-.777-.038-1.555.083-2.284.356-.729.272-1.395.69-1.958 1.228-.024.029-.055.051-.089.067-.034.015-.071.023-.109.023z" fill="#f0f0f0"/><path d="m144.072 234.174c-.056 0-.111-.019-.156-.054-.026-.02-.047-.045-.064-.073-.016-.029-.026-.061-.029-.093-.003-.033 0-.066.01-.097s.026-.06.047-.085c1.002-1.2 3.246-1.992 5.118-1.8.066.008.126.041.168.092.042.052.061.118.054.184-.009.064-.043.123-.094.162-.052.039-.117.057-.182.048-1.692-.186-3.786.534-4.674 1.602-.02.034-.049.063-.084.083-.034.02-.074.031-.114.031z" fill="#f0f0f0"/><path d="m118.59 246.864c-.192 2.37-.6 3.936-1.494 5.31s-2.532 1.8-4.2 1.344-3.744-1.56-4.2-3.6-.684-3.462-.264-5.652z" fill="#263238"/><path d="m111.966 229.578c-.678.036-.942 3.216-1.398 6.396-.486 3.414-1.56 4.8-1.992 7.602-.492 3.192 0 4.632 1.14 6.6s5.166 3.924 7.2 1.2c1.686-2.232 1.8-4.74 1.71-7.938-.031-2.703.095-5.406.378-8.094.18-2.4.774-4.8.186-5.076-.054.354-.108.798-.162 1.14-.031.434-.113.863-.246 1.278-.072.174-.228.36-.282.066-.03-.199-.03-.401 0-.6.114-.882-.342-.96-.6-1.032-1.04-.221-2.091-.385-3.15-.492-.516-.042-2.316-.15-2.55.132-.158.283-.245.6-.252.924-.066.48-.186.834-.198.678 0-.342.06-1.242.072-1.458s.054-.486.06-.696.066-.408.084-.63z" fill="#37474f"/><path d="m108.354 245.4c-.15 1.716.272 3.433 1.2 4.884 1.116 1.956 5.496 3.936 7.56 1.2 1.026-1.362 1.326-3 1.494-4.644-1.188-2.136-8.316-3.198-10.254-1.44z" fill="#fafafa"/><path d="m117.168 243.36c-.029-.005-.058-.015-.084-.03-1.978-.784-4.131-1.025-6.234-.696-.031.007-.064.008-.096.002-.031-.005-.062-.017-.089-.034-.028-.017-.051-.04-.07-.066-.018-.027-.032-.056-.039-.088s-.008-.064-.002-.096c.005-.032.017-.062.034-.09.018-.027.04-.05.067-.069.026-.019.056-.032.087-.039 2.226-.367 4.51-.112 6.6.738.03.014.056.034.077.058.022.024.038.053.049.083.011.031.015.063.013.096-.002.032-.01.064-.025.093-.027.05-.07.09-.122.115-.051.025-.109.033-.166.023z" fill="#f0f0f0"/><path d="m111.049 240.252c-.057-.006-.11-.031-.15-.071s-.065-.093-.071-.149c-.006-.057.008-.114.04-.161.031-.047.078-.082.133-.099 3.072-.948 6.432.6 6.558.684.029.015.054.036.075.061s.037.054.046.086c.01.031.013.064.009.096-.003.033-.013.064-.028.093-.035.056-.09.096-.153.114s-.131.011-.189-.018c-.03 0-3.306-1.536-6.162-.648-.035.013-.072.017-.108.012z" fill="#f0f0f0"/><path d="m111.198 238.008c-.047-.006-.091-.025-.128-.054-.037-.03-.065-.069-.082-.114-.01-.031-.014-.063-.012-.096.002-.032.011-.063.026-.092.014-.029.034-.055.059-.076.024-.022.053-.038.083-.048 3.384-1.11 6.57.6 6.684.666.029.017.053.039.073.065s.034.056.041.088c.008.032.01.065.005.098-.006.032-.017.063-.035.091-.037.056-.096.095-.162.108-.066.014-.135.001-.192-.036 0 0-3.102-1.65-6.252-.6-.035.006-.072.006-.108 0z" fill="#f0f0f0"/><path d="m111.408 235.8c-.046-.005-.09-.023-.127-.052-.037-.028-.066-.067-.083-.11-.011-.031-.016-.063-.014-.096s.01-.064.025-.094c.015-.029.035-.055.06-.076s.054-.037.085-.046c3.168-1.092 6.6.66 6.726.732.028.017.053.039.073.065.019.026.033.056.041.088s.009.065.004.098c-.005.032-.017.063-.034.091-.035.056-.09.096-.154.112-.064.015-.131.005-.188-.028-.03 0-3.36-1.71-6.3-.696-.036.013-.075.017-.114.012z" fill="#ebebeb"/><path d="m118.128 141.822c-.648 5.172-2.058 9.174-2.676 25.314s-.216 17.502-.318 19.446-1.338 5.4-2.544 15c-.722 6.174-.849 12.402-.378 18.6 0 0 .678 1.554 4.446 1.95 3.474.366 5.22-.876 5.22-.876s5.286-16.2 6.72-21.936 5.202-21.528 5.202-21.528l1.704 11.874s-1.164 5.274-.264 13.698c.506 4.9 1.307 9.765 2.4 14.568 1.796.672 3.693 1.035 5.61 1.074 1.707.032 3.391-.399 4.872-1.248 0 0 3.192-22.458 3.378-31.986s-.78-32.49-1.5-43.95z" fill="#37474f"/><path d="m112.855 220.872c.161.123.331.233.51.33-.672-15.084 1.578-21.3 3-27.042l.378-1.578c1.056-4.494.72-7.2.846-14.598.036-2.232.078-4.536.144-6.984.084-2.868.228-5.832.528-8.766 5.4-.528 6.69-5.7 8.292-12.228.216-.888.444-1.8.69-2.76l-.48-.114c-.246.948-.468 1.872-.69 2.766-1.608 6.54-2.784 11.286-7.764 11.844.72-6.66 2.256-13.092 5.712-17.7l-.402-.282c-5.16 6.84-6.126 17.64-6.402 27.24-.066 2.454-.108 4.764-.144 6.99-.126 7.386.21 10.062-.834 14.502l-.378 1.578c-1.392 5.73-3.63 11.868-3.006 26.802zm24.39-59.88-3.456 16.8 1.704 11.874.258-11.4 2.328-11.328c.06 1.128.12 2.284.18 3.468.492 9.756.786 17.25.216 19.56-1.56 6.348-1.2 10.38-.6 17.688.066.744.132 1.518.198 2.334.342 4.128.816 5.808 1.08 8.466l.504.126c-.264-2.652-.744-4.416-1.092-8.634-.066-.81-.132-1.59-.198-2.334-.6-7.26-.966-11.262.6-17.532.6-2.4.318-9.432-.204-19.698-.096-1.86-.186-3.666-.27-5.4l.486-2.04c2.4-.51 6.198-2.208 6.948-5.364-2.351 2.207-5.458 3.429-8.682 3.414z" fill="#263238"/><path d="m184.698 112.848c-.442-.21-.939-.279-1.422-.198-.766.167-1.518.392-2.25.672-1.146.33-3 .882-4.2.564-.24-.066-.714-.27-.318-.498.53-.268 1.036-.581 1.512-.936.239-.177.438-.403.584-.663.146-.259.235-.547.262-.843.018-.179-.031-.359-.138-.504-.168-.192-.324-.132-.51-.048-.194.083-.395.151-.6.204l-1.218.402c-2.436.786-4.92 1.8-6.69 3.708-.252.282-1.926 2.562-2.964 3.828-.876 1.2-6.546 6.966-6.546 6.966s-2.808-3.498-4.8-6.03c-2.856-3.6-4.434-5.634-5.868-6.978-1.293-1.273-3.022-2.006-4.836-2.052l.432 15.144s8.562 8.292 9.678 9.3c4.2 3.798 5.958 3.522 8.208 1.764 2.4-1.896 3.852-4.434 6.09-9 1.83-3.75 2.286-4.638 2.934-5.778.552-.978 2.022-.996 2.808-1.062 1.083-.05 2.154-.252 3.18-.6.912-.267 1.786-.652 2.598-1.146.419-.203.791-.492 1.092-.846.126-.362.277-.715.45-1.056.264-.36.696-.6.918-.978.143-.324.243-.665.3-1.014.144-.546.552-.786 1.008-1.056.233-.106.438-.264.6-.462.216-.408 0-.648-.294-.804z" fill="#ffbda7"/><path d="m144.264 109.8c3.21.444 4.686 1.32 6.744 3.78s7.14 9 7.14 9 .264 2.592-2.664 5.4c-2.772 2.694-4.746 3.06-4.746 3.06l-6.138-5.424z" fill="#37474f"/><path d="m160.2 125.49-.636-.798c-1.578 1.716-2.532 4.5-1.698 6.804.019-2.22.849-4.356 2.334-6.006z" fill="#f0997a"/><path d="m175.272 114.6c-.85 1.214-2.025 2.165-3.39 2.742.777.08 1.556-.123 2.196-.57.34-.258.622-.585.828-.959.205-.375.33-.788.366-1.213z" fill="#f0997a"/><path d="m127.416 107.88 10.644.72 6.204 1.2s4.026 2.07 5.4 9.666c.792 4.308.918 29.262.918 29.262-3.114 8.076-29.952 7.266-33.846.36 0 0 .798-5.43 1.098-10.686s-.33-13.2-.33-13.2c.947-1.535 1.751-3.154 2.4-4.836 2.682-6.654-.09-11.4-.09-11.4z" fill="#fafafa"/><path d="m127.434 108.312 10.566.702 6.108 1.2c.444.264 3.894 2.508 5.148 9.336.75 4.098.9 27.516.912 29.106-1.356 3.312-7.566 5.448-15.858 5.448s-15.27-2.088-17.118-5.094c.132-.918.81-5.844 1.086-10.578.129-4.365.021-8.733-.324-13.086.924-1.528 1.713-3.134 2.358-4.8 2.232-5.532.81-9.744.156-11.202l6.96-1.044m0-.432-7.584 1.14s2.772 4.728.09 11.4c-.65 1.682-1.453 3.301-2.4 4.836 0 0 .636 7.914.33 13.2s-1.098 10.686-1.098 10.686c1.974 3.504 9.864 5.442 17.562 5.442 7.464 0 14.754-1.8 16.284-5.802 0 0-.126-24.954-.918-29.262-1.392-7.596-5.4-9.666-5.4-9.666l-6.204-1.2-10.644-.708z" fill="#e0e0e0"/><path d="m128.76 103.518c.084-1.248-3.474-3.564-5.214-7.716-2.316-5.526.078-9.408 2.31-9.864 1.074-7.866 13.92-7.398 17.652-3.312 2.526 1.878 4.314 7.8 2.4 10.668z" fill="#37474f"/><path d="m127.572 99.81c-1.2.306-2.4-.6-3-1.464-1.2-1.548-.924-3.57-.036-4.326.35-.3668.818-.5986 1.321-.6546.504-.056 1.011.0675 1.433.3486 1.116.744 1.2 1.446 1.632 2.262s1.8.444 1.278-2.28c2.562-2.142 2.4-6.636 2.46-7.8 2.256-1.974 5.712-1.008 6.558.216.936-1.38 2.322-1.914 3.81-1.068s2.574 3.132 2.934 8.874c.372 5.85-.954 9.954-2.322 10.896-1.032.72-2.604.816-4.8.858l-.264 3.042s3.198 3.048-1.458 3.834c-1.607.25-3.25.086-4.776-.477s-2.882-1.506-3.942-2.739l.708-10.602s-.198.726-1.536 1.08z" fill="#ffbda7"/><path d="m137.04 93.204c-.042.1219-.107.2343-.193.3306-.086.0964-.189.1748-.306.2306-.116.0558-.242.088-.37.0947-.129.0066-.258-.0124-.379-.0559-.19-.0619-.358-.1794-.481-.3373s-.195-.349-.209-.5487c-.013-.1996.034-.3987.135-.5716.1-.1728.251-.3115.431-.3982s.382-.1175.58-.0882c.198.0292.383.117.531.2521.147.1351.251.3113.298.5059.046.1946.033.3987-.037.586z" fill="#263238"/><path d="m142.596 88.89 1.746 1.506c-.093.118-.209.2159-.341.288-.132.072-.277.1167-.427.1312-.149.0146-.3-.0012-.444-.0464-.143-.0453-.276-.119-.39-.2168-.235-.2043-.381-.4918-.408-.8019s.068-.6185.264-.8601z" fill="#263238"/><path d="m142.2 92.946c.061.1795.174.3371.323.4531.15.116.331.1853.52.1992.189.014.378-.028.544-.1207.165-.0927.3-.232.386-.4006.087-.1686.122-.359.102-.5475-.021-.1885-.097-.3667-.218-.5124-.121-.1458-.283-.2526-.464-.3072-.182-.0546-.376-.0546-.557.0001-.248.0798-.454.2548-.574.4865-.119.2317-.141.5013-.062.7495z" fill="#263238"/><path d="m134.226 90.672 1.86-1.62c.109.1169.194.2544.25.4046.055.1502.08.3099.073.4698-.008.1599-.047.3168-.116.4613-.068.1445-.165.2738-.285.3803-.253.2153-.579.3254-.91.3076-.332-.0179-.644-.1623-.872-.4036z" fill="#263238"/><path d="m137.628 98.82 2.22.48c-.023.1469-.075.2876-.155.4134-.079.1259-.183.2342-.305.3186-.122.084-.261.143-.407.171-.145.029-.296.028-.441-.003-.3-.069-.562-.2509-.732-.5078-.17-.2568-.234-.5691-.18-.8722z" fill="#b16668"/><path d="m138.936 100.2c-.11-.2839-.289-.5361-.52-.734-.232-.1978-.509-.3353-.806-.4.008.2653.103.5204.271.7256.169.2052.4.3484.659.4084.131.024.265.024.396 0z" fill="#f28f8f"/><path d="m139.02 91.374.93 5.652 2.982-1.398z" fill="#f0997a"/><path d="m138.828 105.642c-2.028-.186-4.584-.564-6-1.65-1.98-1.494-2.274-2.28-2.652-3.366-.026.847.169 1.686.567 2.434.398.749.984 1.38 1.701 1.832 2.31 1.584 6.288 2.088 6.288 2.088z" fill="#f0997a"/><path d="m121.242 108.948c-3.84.75-5.094 1.44-8.1 4.494s-10.65 11.958-10.65 11.958-.354 6.066 8.226 7.128l8.364-7.356c1.671-1.946 2.828-4.279 3.366-6.786.714-4.02.63-7.554-1.206-9.438z" fill="#37474f"/><path d="m123.6 116.628c2.058-1.986 3.6-2.952 4.104-3.948.9-1.8.648-2.862.822-5.886v-.24c0-.342.042-.69.066-1.038l.102-1.488.102-1.5.072-1.098c-.186-.036-1.41-.678-1.8-.636-.261.03-.511.12-.733.261-.221.141-.408.331-.545.555-.126.24-.12.546-.294.75-.318.384-.972.192-1.386.462-.522.33-.408 1.14-.768 1.644-.258.36-1.11.48-1.476.732-.611.324-1.071.876-1.278 1.536-.9 2.316-1.59 4.674-2.49 5.664-1.16 1.204-2.441 2.286-3.822 3.228-1.836 1.38-3.126 1.944-7.8 5.28-2.31 1.656-3.702 2.616-5.256 4.998-1.2 1.836-1.3498 4.578-1.2 6.768-.005.433.135.855.396 1.2.64.464 1.384.763 2.166.87 1.945.301 3.935.056 5.748-.708 1.639-.853 3.095-2.019 4.284-3.432 1.842-2.214 3.642-4.422 5.466-7.002s3.468-4.986 5.52-6.972z" fill="#ffbda7"/><path d="m127.698 103.944c.171.15.296.346.36.564.405 1.524.581 3.099.522 4.674.117.908-.015 1.831-.38 2.671-.366.84-.951 1.565-1.696 2.099.64-.604 1.128-1.352 1.422-2.181s.387-1.717.27-2.589c0-1.332 0-2.664-.144-3.984-.005-.442-.127-.874-.354-1.254z" fill="#f0997a"/><path d="m128.49 107.634.402-6.204s-.162 1.17-.45 2.646c-.096.492-.408.342-.408.342z" fill="#f0997a"/><path d="m199.086 143.178c.023-.213-.012-.429-.101-.624-.088-.195-.228-.363-.403-.486l-2.622-1.506c-.193-.088-.406-.123-.616-.102-.211.021-.413.098-.584.222l-27.174 15.69c-.504.328-.923.771-1.222 1.293-.3.521-.471 1.106-.5 1.707v42.534c-.024.214.01.431.099.627.088.196.228.365.405.489.288.162 2.334 1.344 2.628 1.506.193.087.406.121.617.099s.412-.1.583-.225l27.204-15.708c.502-.329.919-.773 1.218-1.294.298-.522.469-1.106.498-1.706z" fill="#263238"/><path d="m168.48 203.4v-42.546c.028-.6.198-1.185.496-1.707.299-.521.717-.965 1.22-1.293l27.204-15.654c.948-.546 1.716-.102 1.716.99v42.54c-.029.6-.2 1.184-.498 1.706-.299.521-.716.965-1.218 1.294l-27.174 15.684c-.978.516-1.746.072-1.746-1.014z" fill="#455a64"/><path d="m198.6 142.068c-.193-.088-.405-.123-.616-.102-.211.022-.412.098-.584.222l-27.174 15.69c-.505.317-.918.759-1.2 1.284l-2.628-1.506c.286-.522.698-.964 1.2-1.284l27.168-15.684c.171-.125.372-.203.583-.225s.424.012.617.099z" fill="#37474f"/><path d="m187.506 162.306c-.266-.267-.471-.588-.6-.942-1.14-2.4-1.86-5.172-2.88-7.68l-4.248 2.454c1.119 2.627 2.026 5.34 2.712 8.112.156.6.294 1.2.408 1.8.153.841.187 1.699.102 2.55-.084.894-.342 1.848-.402 2.724s.15 1.764.774 1.686 1.254-.996 1.8-1.734c1.02-1.452 2.4-2.28 3.276-3.888.467-.834.725-1.769.75-2.724.033-.347-.018-.698-.148-1.021-.131-.324-.337-.612-.602-.839-.294-.204-.648-.276-.942-.498z" fill="#f5f5f5"/><path d="m187.644 170.238c-.501.475-.89 1.055-1.14 1.698-.1.314-.108.65-.024.969.084.318.256.607.498.831.648.678 1.8 1.2 2.928-.048s1.2-4.068 1.242-5.37c.054-1.758-.81-2.802-1.914-.51-.413.877-.942 1.694-1.572 2.43z" fill="#516eb4"/><path d="m187.644 170.238c-.501.475-.89 1.055-1.14 1.698-.1.314-.108.65-.024.969.084.318.256.607.498.831.648.678 1.8 1.2 2.928-.048s1.2-4.068 1.242-5.37c.054-1.758-.81-2.802-1.914-.51-.413.877-.942 1.694-1.572 2.43z" fill="#fff" opacity=".5"/><path d="m179.67 195.36c0 .114-.036.234-.048.354l2.016-1.164c.161-3.674.634-7.327 1.416-10.92.336-1.566.792-3.282 1.728-4.548.648-.882 1.536-1.8 1.464-.222-.057.534-.178 1.06-.36 1.566-1.416 4.566-2.592 9.156-3.522 13.704l1.944-1.122c.882-3.966 1.926-7.95 3.138-11.922.504-1.662 1.056-3.414.972-4.884.007-.169-.037-.336-.126-.48-.114-.132-.306-.096-.474-.078-.333.027-.666-.032-.97-.17-.303-.139-.566-.353-.764-.622-.33-.366-.738-1.248-1.332-1.008-.276.114-.564.648-.87.768s-.63-.144-.996-.06c-.534.126-1.092 1.278-.9 1.854.087.182.196.353.324.51.312.516.234 1.446.132 2.304-.642 5.304-1.968 10.788-2.772 16.14z" fill="#f5f5f5"/><path d="m149.61 187.41-.216-.366 20.856-12.042.21.372z" fill="#455a64"/><path d="m150.276 187.2c.001.153-.043.304-.128.432-.084.128-.204.228-.346.287-.141.06-.297.076-.447.047-.151-.029-.289-.103-.398-.211s-.183-.245-.214-.396c-.03-.15-.015-.306.043-.448.059-.142.158-.263.285-.348.128-.085.278-.131.431-.131.204 0 .4.081.545.225.145.143.227.339.229.543z" fill="#455a64"/><path d="m149.502 189.33c-.417 0-.824-.124-1.17-.355s-.616-.56-.776-.945c-.159-.385-.201-.808-.12-1.217.082-.408.282-.784.577-1.078.294-.295.67-.495 1.078-.577.409-.081.832-.039 1.217.12.385.16.714.43.945.776s.355.753.355 1.17c0 .559-.222 1.094-.617 1.489s-.93.617-1.489.617zm0-3.78c-.333.004-.657.106-.931.294-.275.188-.487.454-.611.763-.123.309-.152.647-.083.973.069.325.234.623.472.855.239.232.541.387.869.447.327.06.665.022.97-.111.305-.132.565-.352.745-.632.18-.279.273-.606.267-.939-.003-.22-.05-.437-.137-.639s-.213-.385-.37-.538c-.158-.153-.344-.274-.549-.355-.204-.081-.422-.121-.642-.118z" fill="#516eb4"/><path d="m149.502 191.154c-.777 0-1.537-.23-2.184-.662-.646-.432-1.15-1.046-1.447-1.764-.298-.718-.375-1.508-.224-2.271.152-.762.526-1.462 1.076-2.012.549-.55 1.25-.924 2.012-1.075.762-.152 1.553-.074 2.271.223.718.298 1.332.801 1.763 1.448.432.646.663 1.406.663 2.183 0 .516-.102 1.027-.299 1.504-.198.477-.487.91-.852 1.275s-.798.654-1.275.852c-.477.197-.988.299-1.504.299zm0-7.428c-.695-.001-1.374.204-1.952.59-.577.385-1.027.934-1.293 1.576-.265.642-.333 1.348-.196 2.029s.473 1.306.966 1.795c.493.49 1.12.822 1.802.954.681.132 1.387.059 2.027-.211.64-.269 1.186-.723 1.567-1.304.382-.58.583-1.26.577-1.955-.008-.923-.38-1.806-1.035-2.456-.655-.651-1.54-1.016-2.463-1.018z" fill="#516eb4"/><path d="m149.502 192.984c-1.14.001-2.254-.336-3.202-.968s-1.687-1.531-2.124-2.584c-.437-1.052-.552-2.21-.33-3.328.221-1.118.769-2.145 1.575-2.951.805-.806 1.831-1.355 2.949-1.578 1.117-.223 2.276-.109 3.329.327s1.953 1.174 2.586 2.121c.633.948.971 2.062.971 3.201-.002 1.526-.608 2.989-1.687 4.069-1.078 1.08-2.541 1.688-4.067 1.691zm0-11.088c-1.054 0-2.084.312-2.96.898-.876.585-1.559 1.418-1.963 2.391-.403.974-.508 2.045-.303 3.078.206 1.034.713 1.983 1.458 2.728.746.746 1.695 1.253 2.728 1.459 1.034.205 2.105.1 3.079-.304.973-.403 1.805-1.086 2.391-1.962.585-.876.898-1.906.898-2.96-.002-1.413-.564-2.767-1.562-3.766-.999-.999-2.354-1.56-3.766-1.562z" fill="#516eb4"/><path d="m102.408 168.378c.023-.213-.01-.428-.098-.623s-.226-.363-.4-.487l-2.6281-1.506c-.1928-.088-.4054-.123-.6162-.102s-.4122.098-.5838.222l-27.174 15.684c-.5023.329-.9195.773-1.2178 1.294-.2982.522-.4689 1.106-.4982 1.706v42.54c-.0228.213.0119.429.1005.624.0887.195.228.363.4035.486l2.628 1.506c.1928.088.4054.123.6161.102.2108-.021.4122-.098.5839-.222l27.1741-15.69c.503-.328.921-.772 1.22-1.293.298-.522.468-1.107.496-1.707z" fill="#263238"/><path d="m71.8018 228.6v-42.54c.0278-.6.198-1.185.4963-1.707.2984-.521.7164-.965 1.2197-1.293l27.1742-15.66c.948-.546 1.716-.102 1.716.996v42.534c-.028.6-.198 1.185-.497 1.707-.298.521-.716.965-1.219 1.293l-27.1742 15.69c-.918.504-1.716.06-1.716-1.02z" fill="#455a64"/><path d="m101.91 167.268c-.192-.089-.405-.125-.615-.105-.211.02-.413.096-.585.219l-27.174 15.69c-.5019.32-.9147.762-1.2 1.284l-2.628-1.506c.2859-.52.6987-.96 1.2-1.278l27.174-15.69c.1711-.125.3722-.203.583-.225s.4237.012.617.099z" fill="#37474f"/><path d="m98.1541 184.374c-.366-2.07-2.004-3.6-4.35-.366s-3.996 9-6.264 10.524c-1.434.978-3.474-1.632-5.262-2.286s-4.098.102-5.562 6.144-1.248 8.358-.186 9.282c1.476 1.284 3.546.24 5.202-.048s.234 2.634.912 4.302 2.34 1.374 3.336-.798c.198-.438.384-.87.546-1.278.534-1.314 1.518-1.974 2.112-1.386.1379.141.2863.271.444.39 1.242.942 3.102-1.8 3-4.014s-.18-3.786.708-4.8 3.312-1.674 4.578-4.44 1.158-9.15.786-11.226zm-15.036 15.6c-.1148.606-.3319 1.189-.642 1.722-.24.478-.519.936-.834 1.368-.5042.653-1.2114 1.12-2.01 1.326-.2796.099-.5845.099-.864 0-1.086-.51-.366-4.152.084-5.814.1759-.682.4423-1.338.792-1.95.0914-.15.2024-.287.33-.408.1754-.158.3866-.272.6155-.33.2289-.059.4686-.061.6985-.006.3391.038.6496.208.864.474.1556.258.2728.537.348.828l.414 1.278c.1905.488.2605 1.015.204 1.536zm2.4 9.204c-.1596.387-.4596.7-.84.876-.152.014-.3052-.003-.4499-.052s-.2776-.127-.3901-.23c-.1192-.176-.1684-.39-.138-.6.0577-.297.1762-.579.348-.828.336-.54.66-1.032.96-1.626.24-.456.45-.798.738-.648.654.33.234 2.232-.234 3.132zm5.274-2.844c-.288.366-.6.756-.912.756s-.384-.246-.492-.516c-.1083-.264-.1849-.54-.228-.822-.0819-.396-.0819-.804 0-1.2.354-1.404 1.158-.714 1.596-.516s.636 1.548.03 2.322zm6.03-16.974c-.0572 1.167-.2037 2.329-.438 3.474-.0612.406-.1889.799-.378 1.164-.0745.164-.1907.306-.3371.411-.1463.105-.3176.171-.4969.189-.6437.014-1.2748-.18-1.8-.552-.3194-.188-.5897-.45-.7889-.763-.1992-.312-.3215-.668-.3571-1.037.0456-.583.1982-1.152.45-1.68.258-.66.456-1.362.756-2.01.2082-.496.5285-.938.936-1.29.1318-.106.2879-.179.4543-.21.1665-.031.3381-.021.4997.03.1954.061.3843.142.564.24.2131.08.404.21.5564.379s.262.373.3196.593c.0667.358.0849.723.054 1.086z" fill="#f5f5f5"/><path d="m81.2817 210.234c-.828-.48-1.008.168-2.214.306s-1.47-.762-2.4-.6-1.974 3.174-.714 3.828 1.65.63 1.662 1.758-.15 7.746-.15 7.746l3.384-1.956s0-6.096 0-6.87.294-1.332.528-2.322c.108-.624.336-1.644-.096-1.89z" fill="#f5f5f5"/><path d="m93.1499 202.572c.828-1.44.744-.702 2.154-1.716.816-.6.87-1.452 1.8-2.4s2.532.6 1.272 2.712-1.548 3.354-1.566 4.506.144 6.306.144 6.306l-3.354 1.95s0-6.108 0-6.9c.0223-.794-.0831-1.586-.312-2.346-.144-.444-.57-1.368-.138-2.112z" fill="#f5f5f5"/><path d="m87.1379 188.832c-1.746 1.008-2.73.774-2.958 1.356s-.09 1.026.18 1.2c.6.372 1.992-.12 2.766-.462.893-.418 1.6637-1.058 2.238-1.86.432-.726.408-1.674.168-1.92-.48.006-.774.75-2.394 1.686z" fill="#f5f5f5"/><path d="m87.1379 184.908c-1.746 1.008-2.73.774-2.958 1.356s-.09 1.02.18 1.2c.6.378 1.992-.12 2.766-.456.8917-.42 1.6619-1.06 2.238-1.86.432-.732.408-1.68.168-1.926-.48 0-.774.75-2.394 1.686z" fill="#f5f5f5"/><path d="m87.1379 180.978c-1.746 1.008-2.73.774-2.958 1.356s-.09 1.026.18 1.2c.6.372 1.992-.12 2.766-.462.893-.418 1.6637-1.058 2.238-1.86.432-.726.408-1.674.168-1.92-.48.006-.774.75-2.394 1.686z" fill="#f5f5f5"/><path d="m98.4001 201.162c1.26-2.106-.312-3.666-1.272-2.712s-1.014 1.8-1.8 2.4c-1.41 1.014-1.326.276-2.154 1.716-.432.744 0 1.668.138 2.112.2289.76.3342 1.552.312 2.346v.87c.6.15 1.29-.294 1.8-.738s.972-.864 1.446-1.32v-.174c-.012-1.146.276-2.394 1.53-4.5z" fill="#516eb4"/><path d="m98.4001 201.162c1.26-2.106-.312-3.666-1.272-2.712s-1.014 1.8-1.8 2.4c-1.41 1.014-1.326.276-2.154 1.716-.432.744 0 1.668.138 2.112.2289.76.3342 1.552.312 2.346v.87c.6.15 1.29-.294 1.8-.738s.972-.864 1.446-1.32v-.174c-.012-1.146.276-2.394 1.53-4.5z" fill="#fff" opacity=".5"/><path d="m85.4217 178.146h-.432v-10.272c.0014-.559.1495-1.109.4296-1.593.28-.484.6822-.887 1.1664-1.167l31.5303-18.204.216.372-31.5362 18.204c-.4195.244-.7673.595-1.0085 1.016s-.3673.899-.3656 1.384z" fill="#455a64"/><path d="m118.998 147.096c0 .153-.046.303-.131.43s-.206.226-.347.285c-.142.059-.297.074-.447.044s-.288-.103-.397-.212c-.108-.108-.182-.246-.211-.396-.03-.15-.015-.306.044-.447.058-.142.157-.263.285-.348.127-.085.277-.13.43-.13.205 0 .402.082.547.227s.227.342.227.547z" fill="#455a64"/><path d="m118.2 149.202c-.417 0-.824-.124-1.17-.355-.347-.231-.617-.56-.776-.945s-.201-.808-.12-1.217c.081-.408.282-.784.577-1.078.294-.295.669-.495 1.078-.577.408-.081.832-.039 1.217.12.384.16.713.43.945.776.231.346.355.753.355 1.17 0 .559-.222 1.094-.617 1.489s-.931.617-1.489.617zm0-3.786c-.333-.001-.658.096-.935.28s-.494.446-.622.753-.162.645-.098.971.224.626.459.862c.234.235.534.396.86.461.326.066.664.033.971-.094.308-.127.57-.343.755-.619s.284-.601.284-.934c-.002-.444-.179-.87-.492-1.184-.313-.315-.738-.493-1.182-.496z" fill="#516eb4"/><path d="m118.2 151.026c-.777 0-1.537-.23-2.183-.662-.647-.432-1.15-1.046-1.448-1.764-.297-.718-.375-1.508-.223-2.271.151-.762.525-1.462 1.075-2.012s1.25-.924 2.012-1.075c.763-.152 1.553-.074 2.271.223.718.298 1.332.801 1.764 1.448.432.646.662 1.406.662 2.183-.002 1.042-.416 2.041-1.153 2.777-.736.737-1.735 1.151-2.777 1.153zm0-7.434c-.693 0-1.37.206-1.947.591-.576.385-1.025.932-1.29 1.572s-.335 1.345-.2 2.025c.136.679.469 1.304.959 1.794s1.115.823 1.794.959c.68.135 1.385.065 2.025-.2s1.187-.714 1.572-1.29c.386-.577.591-1.254.591-1.947-.002-.929-.371-1.819-1.028-2.476s-1.547-1.026-2.476-1.028z" fill="#516eb4"/><path d="m118.2 152.85c-1.14.001-2.254-.336-3.202-.968-.948-.633-1.688-1.532-2.124-2.585-.437-1.053-.552-2.211-.33-3.329.223-1.118.771-2.145 1.577-2.951s1.833-1.355 2.951-1.577 2.276-.107 3.329.33c1.053.436 1.952 1.176 2.585 2.124.632.948.969 2.062.968 3.202-.003 1.525-.61 2.987-1.689 4.065-1.078 1.079-2.54 1.686-4.065 1.689zm0-11.082c-1.054 0-2.084.312-2.96.898-.876.585-1.559 1.417-1.962 2.391-.404.974-.509 2.045-.304 3.078.206 1.034.713 1.983 1.459 2.728.745.746 1.694 1.253 2.728 1.459 1.033.205 2.104.1 3.078-.304.974-.403 1.806-1.086 2.391-1.962.586-.876.898-1.906.898-2.96-.002-1.413-.563-2.767-1.562-3.766s-2.353-1.56-3.766-1.562z" fill="#516eb4"/><path d="m96.8282 95.646c.0228-.2132-.0119-.4286-.1006-.6238-.0886-.1952-.2279-.3631-.4034-.4862l-2.622-1.506c-.1928-.0877-.4054-.1228-.6162-.1017-.2107.0211-.4122.0976-.5838.2217l-27.186 15.69c-.5033.328-.9213.772-1.2197 1.293-.2983.522-.4684 1.107-.4963 1.707v42.534c-.0239.214.0102.431.0989.627s.2286.365.4051.489l2.628 1.506c.1933.087.4062.121.617.099s.4119-.1.583-.225l27.174-15.684c.5022-.329.9195-.773 1.2177-1.294.2982-.522.469-1.106.4983-1.706z" fill="#263238"/><path d="m66.2222 155.856v-42.534c.0278-.6.198-1.185.4963-1.707.2984-.521.7164-.965 1.2197-1.293l27.174-15.69c.948-.546 1.716-.102 1.716.99v42.54c-.0293.6-.2001 1.184-.4983 1.706-.2982.521-.7155.965-1.2177 1.294l-27.174 15.684c-.948.552-1.716.108-1.716-.99z" fill="#455a64"/><path d="m96.3241 94.5362c-.1929-.0877-.4054-.1228-.6162-.1017-.2108.021-.4122.0975-.5838.2217l-27.174 15.6898c-.5047.317-.9183.759-1.2 1.284l-2.628-1.506c.2857-.522.6984-.964 1.2-1.284l27.168-15.6838c.171-.1251.3722-.2027.583-.2248.2108-.0222.4236.0119.617.0988z" fill="#37474f"/><path d="m79.7044 111.882c.3837-.215.7318-.488 1.032-.81.4357-.397.9294-.724 1.464-.972.2871-.103.5579-.246.804-.426.3086-.245.5209-.592.6-.978.06-.36-.054-.69.108-1.038.0596-.144.1578-.268.2839-.359s.275-.146.4301-.157c.096 0 .186.042.288.042.0887-.006.1748-.033.251-.079s.1403-.109.187-.185c.1232-.178.1995-.385.222-.6.0132-.201-.0009-.403-.042-.6-.0008-.135-.0473-.266-.132-.372-.108-.102-.288-.03-.45.084s-.324.282-.486.39-.444.204-.504 0 .144-.6 0-.828c-.0246-.033-.0581-.057-.0964-.071-.0384-.014-.0799-.016-.1196-.007-.295.096-.5653.256-.792.468-.3927.301-.8197.555-1.272.756-.246.108-.498.192-.75.33-.1227.065-.2391.142-.348.228-.4201.336-.7072.81-.81 1.338-.0241.215-.0241.433 0 .648.0076.462-.051.923-.174 1.368-.084.312-.198.6-.258.93-.102.66.09 1.098.564.9z" fill="#f5f5f5"/><path d="m78.5583 118.278c.3974-.068.7619-.264 1.038-.558.4434-.392.9102-.757 1.398-1.092.3394-.232.6659-.482.978-.75.313-.257.5461-.599.672-.984.108-.372.054-.75.18-1.116s.348-.42.528-.6c.1033-.106.2422-.17.39-.18.1704-.028.3256-.115.438-.246.1402-.174.2351-.38.276-.6.0351-.198.0351-.402 0-.6-.0097-.149-.0641-.291-.156-.408-.102-.102-.27-.072-.426 0-.178.119-.3465.251-.504.396-.168.132-.432.27-.51.15s0-.396-.126-.6c-.066-.096-.102-.222-.222-.222-.216 0-.462.216-.702.39-.402.3-.804.558-1.2.816-.294.186-.6.39-.9.6-.1609.111-.3151.231-.462.36-.3561.32-.6106.737-.732 1.2-.0909.291-.1335.595-.126.9.0099.402-.0222.804-.096 1.2-.048.33-.096.672-.15 1.032-.108.57.036.936.414.912z" fill="#f5f5f5"/><path d="m77.64 125.256c.234.21.6.108 1.05-.294s.906-.816 1.338-1.2.75-.714 1.152-1.074c.3187-.27.5729-.609.744-.99.1184-.392.2027-.793.252-1.2.0362-.276.1531-.535.336-.744.1103-.189.2884-.328.498-.39.1613-.041.3098-.121.432-.234.1596-.169.275-.375.336-.6.045-.216.045-.438 0-.654-.0203-.158-.0825-.307-.18-.432-.0514-.052-.1189-.086-.1917-.096-.0729-.01-.1469.005-.2103.042-.1969.104-.3754.24-.528.402-.168.162-.408.336-.516.3s-.126-.168-.264-.348-.084-.36-.234-.372-.402.168-.6.312c-.39.282-.768.57-1.134.876s-.69.6-1.05.876c-.192.156-.39.318-.6.492-.3078.265-.5328.613-.648 1.002-.1873.354-.2764.752-.258 1.152.021.358.021.716 0 1.074 0 .366 0 .732-.054 1.14-.048.504.03.942.33.96z" fill="#516eb4"/><path d="m77.0104 131.4c-.042.48 0 .894.204 1.02.18.384.57.408 1.062-.048.4482-.42.8728-.865 1.272-1.332.426-.48.864-.966 1.326-1.398.3302-.282.6066-.622.816-1.002.1829-.397.2946-.824.33-1.26-.0028-.293.0481-.584.15-.858.1169-.269.3313-.483.6-.6.1531-.048.2971-.121.426-.216.1836-.161.3204-.368.396-.6.0658-.224.0761-.461.03-.69-.033-.17-.1048-.33-.21-.468-.0421-.056-.1002-.098-.1666-.121-.0663-.022-.1379-.024-.2054-.005-.2151.091-.4046.233-.552.414-.1451.177-.3197.327-.516.444-.0694.037-.1502.047-.2267.029-.0764-.019-.1432-.066-.1873-.131-.12-.138-.054-.486-.246-.522s-.336.114-.51.24c-.3798.282-.7369.593-1.068.93-.39.39-.786.798-1.2 1.152-.234.198-.468.408-.696.6-.2502.228-.4433.512-.564.828-.2686.42-.4026.912-.384 1.41.03.312.042.63.066.924.059.417.0771.839.054 1.26z" fill="#516eb4"/><path d="m77.0104 131.4c-.042.48 0 .894.204 1.02.18.384.57.408 1.062-.048.4482-.42.8728-.865 1.272-1.332.426-.48.864-.966 1.326-1.398.3302-.282.6066-.622.816-1.002.1829-.397.2946-.824.33-1.26-.0028-.293.0481-.584.15-.858.1169-.269.3313-.483.6-.6.1531-.048.2971-.121.426-.216.1836-.161.3204-.368.396-.6.0658-.224.0761-.461.03-.69-.033-.17-.1048-.33-.21-.468-.0421-.056-.1002-.098-.1666-.121-.0663-.022-.1379-.024-.2054-.005-.2151.091-.4046.233-.552.414-.1451.177-.3197.327-.516.444-.0694.037-.1502.047-.2267.029-.0764-.019-.1432-.066-.1873-.131-.12-.138-.054-.486-.246-.522s-.336.114-.51.24c-.3798.282-.7369.593-1.068.93-.39.39-.786.798-1.2 1.152-.234.198-.468.408-.696.6-.2502.228-.4433.512-.564.828-.2686.42-.4026.912-.384 1.41.03.312.042.63.066.924.059.417.0771.839.054 1.26z" fill="#fff" opacity=".5"/><path d="m78.2882 119.91c-.3041.267-.5267.614-.642 1.002-.1873.354-.2764.752-.258 1.152.021.358.021.716 0 1.074 0 .366 0 .732-.054 1.14-.06.54 0 .96.318.978.234.21.6.108 1.05-.294s.906-.816 1.338-1.2.75-.714 1.152-1.074c.3187-.27.5729-.609.744-.99.1184-.392.2027-.793.252-1.2.0362-.276.1531-.535.336-.744.1103-.189.2884-.328.498-.39.1613-.041.3098-.121.432-.234.1596-.169.275-.375.336-.6.045-.216.045-.438 0-.654-.0203-.158-.0825-.307-.18-.432-.0514-.052-.1189-.086-.1917-.096-.0729-.01-.1469.005-.2103.042-.197.104-.3754.24-.528.402-.168.162-.408.336-.516.3s-.126-.168-.264-.348-.084-.36-.234-.372-.402.168-.6.312c-.39.282-.768.57-1.134.876s-.69.6-1.05.876c-.204.138-.402.3-.594.474z" fill="#fff" opacity=".5"/><path d="m81.1321 136.494c.3386-.296.6371-.635.888-1.008.248-.401.3866-.861.402-1.332 0-.39-.15-.6-.036-.978.0572-.176.1486-.34.2691-.481.1204-.141.2675-.257.4329-.341.1465-.051.2873-.117.42-.198.2085-.15.3674-.359.456-.6.0835-.243.096-.506.036-.756-.0423-.179-.1221-.346-.234-.492-.0337-.061-.0834-.111-.1436-.146-.0603-.035-.1288-.053-.1984-.052-.2426.066-.4547.215-.6.42-.1628.211-.3391.412-.528.6-.156.138-.402.306-.552.138s-.042-.6-.258-.666c-.12-.036-.276.06-.414.156-.3747.288-.7113.623-1.002.996-.4219.498-.8706.973-1.344 1.422-.27.252-.546.492-.81.756-.1903.198-.3537.42-.486.66-.3305.492-.5099 1.07-.516 1.662.0369.263.089.523.156.78.1162.442.1648.899.144 1.356-.0322.355.0004.713.096 1.056.174.504.528.708 1.068.21.4405-.449.842-.935 1.2-1.452.4704-.611.9902-1.183 1.554-1.71z" fill="#f5f5f5"/><path d="m86.0702 135.816c-.0541-.19-.1415-.369-.258-.528-.084-.12-.18-.252-.318-.258s-.414.186-.6.42-.342.516-.528.744-.546.54-.702.384 0-.72-.27-.822c-.0564-.011-.1144-.008-.1696.008-.0551.015-.1059.044-.1484.082-.3667.297-.6828.652-.936 1.05-.4488.606-.9465 1.174-1.488 1.698-.306.294-.6.57-.924.888-.1451.153-.2794.315-.402.486-.4309.544-.6599 1.22-.648 1.914.048.22.1268.432.234.63.1838.468.2696.968.252 1.47 0 .36-.054.75 0 1.092.066.738.486 1.014 1.08.468.4367-.482.8209-1.009 1.146-1.572.4806-.744 1.042-1.432 1.674-2.052.3528-.308.6743-.649.96-1.02.3116-.402.4805-.896.48-1.404-.048-.396-.33-.63-.228-1.092.0584-.218.1595-.422.2976-.6.138-.178.3102-.327.5064-.438.144-.072.282-.102.42-.18.2311-.14.4118-.35.516-.6.0939-.245.1127-.512.054-.768z" fill="#f5f5f5"/><path d="m95.7424 120.192-.216-.372 29.5376-17.052.216.366z" fill="#455a64"/><path d="m125.172 103.722c.428 0 .774-.347.774-.774s-.346-.774-.774-.774c-.427 0-.774.347-.774.774s.347.774.774.774z" fill="#455a64"/><path d="m125.172 105.054c-.416 0-.823-.124-1.17-.355-.346-.231-.616-.56-.775-.945-.16-.385-.201-.808-.12-1.217.081-.408.282-.784.576-1.078.295-.295.67-.495 1.079-.577.408-.081.832-.039 1.216.12.385.16.714.43.945.776.232.346.355.753.355 1.17 0 .559-.221 1.094-.616 1.489s-.931.617-1.49.617zm0-3.78c-.332 0-.657.099-.934.284-.276.184-.491.447-.618.754-.127.308-.16.646-.095.972s.226.625.462.86c.235.235.535.394.861.458.327.065.665.03.971-.098.307-.128.569-.344.753-.621s.282-.602.28-.935c0-.22-.043-.439-.128-.642-.084-.204-.208-.388-.364-.544-.156-.155-.341-.279-.545-.362-.204-.084-.422-.127-.643-.126z" fill="#516eb4"/><path d="m125.172 106.878c-.777 0-1.537-.23-2.183-.662s-1.15-1.046-1.448-1.764c-.297-.718-.375-1.508-.223-2.271.151-.762.526-1.462 1.075-2.012.55-.5496 1.25-.9239 2.012-1.0755.763-.1516 1.553-.0738 2.271.2236.718.2975 1.332.8009 1.764 1.4479.432.646.662 1.406.662 2.183 0 .516-.101 1.027-.299 1.504-.197.477-.487.91-.852 1.275s-.798.654-1.275.852c-.477.197-.988.299-1.504.299zm0-7.428c-.693 0-1.371.2056-1.947.591-.577.385-1.026.933-1.291 1.573-.265.641-.334 1.346-.198 2.026s.47 1.304.961 1.794c.49.49 1.115.823 1.795.957.68.135 1.385.065 2.025-.201.64-.267 1.187-.717 1.572-1.294.384-.577.588-1.255.587-1.948-.001-.928-.371-1.818-1.028-2.474-.657-.6557-1.548-1.024-2.476-1.024z" fill="#516eb4"/><path d="m125.172 108.708c-1.139 0-2.253-.338-3.2-.971s-1.685-1.532-2.121-2.585c-.436-1.052-.55-2.21-.328-3.328.222-1.117.771-2.1434 1.576-2.9489.806-.8056 1.832-1.3542 2.949-1.5764 1.118-.2223 2.276-.1082 3.328.3277 1.053.436 1.952 1.1743 2.585 2.1215.633.9471.971 2.0611.971 3.2001-.001 1.527-.609 2.991-1.689 4.071s-2.544 1.687-4.071 1.689zm0-11.088c-1.054 0-2.084.3125-2.96.8979-.876.5855-1.559 1.4176-1.962 2.3911-.404.974-.509 2.045-.304 3.078.206 1.034.714 1.983 1.459 2.728.745.746 1.694 1.253 2.728 1.459 1.033.205 2.104.1 3.078-.304.974-.403 1.806-1.086 2.391-1.962.586-.876.898-1.906.898-2.96-.003-1.412-.565-2.765-1.564-3.764-.998-.9985-2.352-1.5608-3.764-1.564z" fill="#516eb4"/></svg>