<svg fill="none" height="300" viewBox="0 0 300 300" width="300" xmlns="http://www.w3.org/2000/svg"><path d="m248.556 270.666c54.426-31.422 54.426-82.374 0-113.802s-142.68-31.422-197.1122 0c-54.43198 31.422-54.42598 82.38 0 113.802 54.4262 31.422 142.6802 31.428 197.1122 0z" fill="#f5f5f5"/><path d="m229.392 53.688-.576-3.468-3.474.582.582 3.468-3.468.582.582 3.468 3.468-.582.582 3.474 3.468-.582-.576-3.468 3.468-.582-.582-3.474z" fill="#e0e0e0"/><path d="m232.53 131.844.876-3.408-3.408-.876-.876 3.408-3.402-.876-.876 3.408 3.402.876-.876 3.402 3.408.876.876-3.402 3.408.876.876-3.408z" fill="#e0e0e0"/><path d="m171.678 32.076 1.086-3.348-3.342-1.086-1.092 3.342-3.342-1.086-1.092 3.342 3.348 1.092-1.092 3.342 3.342 1.086 1.092-3.342 3.342 1.092 1.092-3.348z" fill="#e0e0e0"/><path d="m144.528 76.026.582-3.468 3.468.582-.582 3.468 3.468.582-.582 3.468-3.468-.582-.582 3.474-3.468-.582.582-3.474-3.468-.582.582-3.468z" fill="#e0e0e0"/><path d="m77.9939 30.408-.96-3.384 3.384-.96.96 3.384 3.384-.96.96 3.384-3.384.96.96 3.378-3.384.96-.96-3.384-3.384.96-.96-3.378z" fill="#e0e0e0"/><path d="m24.072 149.214-1.092-3.342 3.342-1.098 1.092 3.348 3.348-1.098 1.092 3.342-3.342 1.098 1.092 3.342-3.342 1.092-1.092-3.342-3.342 1.098-1.098-3.348z" fill="#e0e0e0"/><g fill="#ebebeb"><path d="m187.2 67.2c.006-.3487.115-.688.313-.9751s.476-.5093.8-.6386c.324-.1294.679-.1602 1.021-.0886.341.0717.653.2426.898.4913s.41.5641.476.9066.029.6968-.106 1.0185c-.134.3217-.361.5964-.652.7895-.29.1932-.631.2963-.98.2964-.472-.0079-.922-.201-1.253-.5377s-.517-.7901-.517-1.2623z"/><path d="m116.544 48.888c.006-.3488.115-.688.313-.9751s.476-.5093.8-.6386c.324-.1294.679-.1602 1.021-.0886.341.0717.653.2426.898.4913s.41.5641.476.9066.029.6968-.106 1.0185c-.134.3217-.361.5963-.652.7895-.29.1932-.631.2963-.98.2964-.235 0-.467-.0467-.684-.1376-.217-.0908-.413-.2238-.578-.3914-.165-.1675-.295-.3662-.382-.5845-.087-.2182-.13-.4516-.126-.6865z"/><path d="m23.928 119.244c-.0059-.358.0953-.711.2908-1.011.1955-.301.4763-.536.8064-.676s.6945-.178 1.0464-.11c.3519.069.6754.241.9289.494.2536.254.4256.577.4941.929s.0303.717-.1096 1.047c-.14.33-.3753.611-.6759.806-.3005.196-.6526.297-1.0111.291-.4695 0-.9197-.186-1.2516-.518s-.5184-.783-.5184-1.252z"/><path d="m128.73 106.578c.006-.349.114-.688.313-.975.198-.287.476-.509.8-.639.324-.129.679-.16 1.02-.088.341.071.654.242.899.491.244.249.41.564.476.907.066.342.029.696-.106 1.018s-.362.596-.652.79c-.29.193-.631.296-.98.296-.235 0-.468-.047-.685-.138-.216-.09-.413-.223-.578-.391-.164-.168-.294-.366-.381-.584-.087-.219-.13-.452-.126-.687z"/><path d="m216.468 22.152c-.006-.3572.095-.7081.289-1.0081.194-.2999.473-.5353.801-.6761.328-.1409.691-.1808 1.042-.1148.352.066.675.2351.93.4856.255.2504.429.5711.501.921.072.35.038.7135-.097 1.0441-.136.3307-.366.6136-.663.8127-.297.1992-.646.3055-1.003.3056-.235.004-.468-.0389-.687-.126-.218-.0872-.416-.2169-.584-.3817s-.301-.3612-.391-.578c-.091-.2167-.138-.4493-.138-.6843z"/><path d="m26.364 36.222c0-.356.1056-.704.3034-1s.4789-.5267.8078-.663c.3289-.1362.6908-.1719 1.04-.1024.3492.0694.6699.2409.9216.4926.2518.2517.4232.5725.4926.9216.0695.3492.0339.7111-.1024 1.04-.1362.3289-.3669.6101-.6629.8078-.2961.1978-.6441.3034-1.0001.3034-.2375.0041-.4734-.0397-.6936-.1287-.2202-.0891-.4202-.2215-.5882-.3895-.168-.1679-.3004-.368-.3894-.5882s-.1328-.4561-.1288-.6936z"/><path d="m270.09 39.036c0-.356.106-.704.303-1 .198-.296.479-.5268.808-.663s.691-.1719 1.04-.1024c.349.0694.67.2409.922.4926s.423.5725.493.9216c.069.3492.033.7111-.103 1.04s-.367.61-.663.8078-.644.3034-1 .3034c-.237.0041-.473-.0397-.694-.1288-.22-.089-.42-.2214-.588-.3894-.168-.1679-.3-.368-.389-.5882s-.133-.4561-.129-.6936z"/><path d="m282.276 108c.006-.347.114-.685.311-.972.197-.286.473-.509.796-.639.322-.13.675-.162 1.016-.093.34.069.653.237.898.483.246.245.414.558.483.899.07.34.037.693-.093 1.016-.13.322-.353.598-.639.795s-.624.305-.972.311c-.237.004-.473-.04-.693-.129-.221-.089-.421-.221-.589-.389s-.3-.368-.389-.588c-.089-.221-.133-.457-.129-.694z"/><path d="m276.732 160.05c-.006-.357.095-.708.289-1.008s.473-.535.801-.676c.329-.141.691-.181 1.043-.115.351.066.674.235.929.486.255.25.429.571.501.921s.038.713-.097 1.044c-.135.33-.366.613-.663.812-.296.2-.646.306-1.003.306-.472 0-.925-.185-1.262-.517-.337-.331-.53-.781-.538-1.253z"/><path d="m233.532 99.546c.006-.3487.114-.6879.313-.9751.198-.2871.476-.5092.8-.6386s.679-.1602 1.02-.0886c.341.0717.654.2426.899.4913.244.2487.41.5641.476.9066.065.3425.029.6968-.106 1.0184-.135.322-.362.596-.652.79-.29.193-.631.296-.98.296-.472-.008-.923-.201-1.254-.538-.331-.336-.516-.79-.516-1.262z"/></g><path d="m232.29 174.726c0-.078 0-.156 0-.24s0 0 0-.042c-.01-.173-.032-.346-.066-.516 0-.036 0-.072-.03-.108v-.084c-.051-.195-.118-.385-.198-.57-.013-.043-.029-.085-.048-.126-.082-.175-.175-.345-.276-.51l-.09-.156c-.108-.156-.222-.312-.348-.468l-.138-.174c-.114-.132-.24-.258-.372-.384l-.042-.042c-.066-.06-.12-.126-.192-.186s-.324-.27-.504-.408l-.204-.162c-.258-.186-.534-.36-.828-.534l-5.748-3.318-.894-.516c-.282-.162-.57-.312-.876-.456-4.53-2.13-11.208-1.98-15.432.456l-35.31 20.4-1.368.792-5.4 3.114-2.64 1.524-19.14 11.052-7.038 4.062c-.636.372-1.272.768-1.908 1.2-6.666 4.458-13.23 11.868-20.736 18.714-1.8 1.632-3.6 3.228-5.532 4.746-1.524 1.2-3.096 2.4-4.716 3.474l-9.0898 6.114-5.73 3.846-8.4 5.61-12.354 7.11-.144.09c-.4374.249-.8156.59-1.1087.999s-.4942.877-.5893 1.371v.114.138c-.009.138-.009.276 0 .414.0012.583.1484 1.157.4283 1.669.2799.511.6834.945 1.1739 1.26.4904.316 1.0521.504 1.6337.546.5816.043 1.1647-.06 1.6961-.301l.168-.096 12.3-7.14h.03s11.9579-5.958 27.0598-13.44c15.102-7.482 38.514-8.436 48.714-14.328l63.756-36.84c2.652-1.53 5.064-2.934 7.152-4.128.282-.168.546-.336.792-.51 1.722-1.2 2.586-2.712 2.586-4.2z" fill="#e0e0e0"/><path d="m277.092 192.48-.036-.276c0-.16-.024-.322-.072-.486l-.072-.342c0-.126-.06-.252-.096-.378s-.072-.258-.114-.39-.048-.12-.066-.186c-.201-.559-.458-1.095-.768-1.602.003-.016.003-.032 0-.048-1.091-1.769-2.791-3.078-4.779-3.684-1.988-.605-4.129-.464-6.021.396l-.402.234-116.256 67.086s-1.524.816-3.066 1.71c-4.05 2.34-3.48 7.854-6.852 9.816-1.89 1.104-2.796 1.614-5.244 3.03l-17.4 10.068-.144.09c-.438.254-.815.6-1.105 1.015-.29.414-.486.887-.575 1.385v.108c-.002.046-.002.092 0 .138-.019.139-.029.28-.03.42.002.925.37 1.812 1.025 2.465.655.654 1.542 1.021 2.467 1.021.499 0 .993-.108 1.446-.318l.162-.09 23.4-13.512c.714-.408 2.058-.354 3.696-.264l1.722.084c2.4.09 5.106 0 7.332-1.29l117.234-67.77.174-.108.18-.108c.639-.37 1.227-.819 1.752-1.338.263-.257.508-.531.732-.822.229-.29.44-.595.63-.912.782-1.314 1.196-2.815 1.2-4.344-.012-.27-.03-.534-.054-.798z" fill="#e0e0e0"/><path d="m66.6541 232.944-40.386-23.316c-4.308-2.484-4.308-6.516 0-9l31.056-17.934c4.302-2.484 11.28-2.484 15.6 0l40.3859 23.316c4.302 2.49 4.302 6.516 0 9l-31.0559 17.934c-4.32 2.484-11.298 2.484-15.6 0z" fill="#e0e0e0"/><path d="m265.65 179.898c-1.226-.002-2.438.262-3.552.774l-.402.228-116.202 67.086s-1.518.822-3.06 1.71c-4.056 2.34-3.486 7.854-6.858 9.816-1.89 1.104-2.796 1.614-5.244 3.03l3.216 6.186 5.958-3.438c1.896-1.098 8.304 1.098 12.75-1.476l117.306-67.722.354-.216c1.636-.938 2.917-2.391 3.642-4.133.725-1.741.854-3.674.368-5.496-.487-1.823-1.562-3.433-3.059-4.581-1.496-1.149-3.331-1.77-5.217-1.768z" fill="#516eb4"/><path d="m265.65 179.898c-1.226-.002-2.438.262-3.552.774l-.402.228-116.202 67.086s-1.518.822-3.06 1.71c-4.056 2.34-3.486 7.854-6.858 9.816-1.89 1.104-2.796 1.614-5.244 3.03l3.216 6.186 5.958-3.438c1.896-1.098 8.304 1.098 12.75-1.476l117.306-67.722.354-.216c1.636-.938 2.917-2.391 3.642-4.133.725-1.741.854-3.674.368-5.496-.487-1.823-1.562-3.433-3.059-4.581-1.496-1.149-3.331-1.77-5.217-1.768z" fill="#fff" opacity=".8"/><path d="m270.708 191.31-10.2-5.886-117.306 67.722v.828l10.2 5.892 117.306-67.728z" fill="#e0e0e0"/><path d="m143.202 253.146 10.2 5.892v.828l-10.2-5.892z" fill="#000" opacity=".1"/><path d="m143.202 253.146 10.2 5.892 117.306-67.728-10.2-5.886z" fill="#fafafa"/><path d="m216.36 216.708-2.61-1.506-1.47-.852c-.018-.011-.038-.017-.059-.02s-.042-.001-.062.004c-.02.006-.039.015-.055.028-.017.013-.03.03-.04.048-.02.037-.025.08-.014.12.012.04.038.075.074.096l4.08 2.352.252.15 1.47.846c.025.009.053.009.078 0 .027-.001.055-.008.079-.022.024-.013.044-.033.059-.056.01-.018.017-.038.02-.059s.001-.042-.004-.062c-.006-.02-.016-.039-.029-.055s-.029-.03-.047-.04zm-54.36 31.398-2.634-1.506-1.47-.852c-.037-.021-.08-.026-.121-.015-.04.012-.075.038-.095.075-.021.037-.026.08-.015.12.011.041.038.075.075.096l4.08 2.352.252.15 1.47.846c.025.008.052.008.078 0 .027-.001.055-.008.079-.022.024-.013.044-.033.059-.056.01-.018.017-.038.02-.059.003-.02.001-.042-.004-.062-.006-.02-.016-.039-.029-.055s-.029-.03-.047-.04zm39-24.564c-.037-.02-.08-.025-.12-.013-.04.011-.075.037-.096.073-.02.036-.024.078-.013.117.011.04.037.073.073.093l1.47.852.546.312 1.47.852c.026.006.052.006.078 0 .027-.001.055-.008.079-.022.024-.013.044-.033.059-.056.01-.018.017-.038.02-.059s.001-.042-.004-.062c-.006-.02-.016-.039-.029-.055s-.029-.03-.047-.04zm-11.832 8.862-2.61-1.506-1.47-.846c-.036-.02-.079-.026-.119-.016s-.075.035-.097.07c-.011.018-.018.038-.02.059-.003.02-.002.042.004.062s.015.039.028.055.029.03.048.04l4.08 2.358.252.15 1.47.846c.026.005.052.005.078 0 .028.001.055-.006.079-.02.025-.014.045-.034.059-.058.02-.037.024-.08.013-.12s-.037-.075-.073-.096zm54.636-31.248-2.862-1.656-1.464-.846c-.036-.02-.079-.026-.119-.016s-.075.035-.097.07c-.011.018-.018.038-.02.059-.003.02-.002.042.004.062s.015.039.028.055.029.03.048.04l5.802 3.354c.025.006.052.006.078 0 .028.001.055-.006.079-.02.025-.014.045-.034.059-.058.019-.036.024-.078.013-.117-.012-.04-.038-.073-.073-.093zm-69.996 38.082c-.018-.01-.038-.017-.059-.019-.021-.003-.042-.001-.062.004-.02.006-.038.015-.055.028-.016.013-.03.029-.04.047s-.017.038-.02.059c-.002.02 0 .041.005.061.006.02.015.039.028.056.013.016.029.03.047.04l1.47.846 2.904 1.674 1.47.852c.026.006.052.006.078 0 .027-.001.055-.008.079-.022.024-.013.044-.033.059-.056.01-.018.017-.038.02-.059s.001-.042-.004-.062c-.006-.02-.016-.039-.029-.055s-.029-.03-.047-.04zm87.42-43.722-4.08-2.358-.294-.168-1.47-.846c-.018-.011-.038-.017-.059-.02s-.042-.001-.062.004c-.02.006-.039.015-.055.028-.017.013-.03.03-.04.048-.011.018-.017.037-.02.057-.003.021-.001.041.004.061.006.02.016.038.029.054s.029.029.047.038l1.758 1.02 2.616 1.506 1.47.846c.025.009.053.009.078 0 .027-.001.053-.008.076-.022.023-.013.042-.033.056-.056.014-.033.016-.071.006-.105-.01-.035-.031-.066-.06-.087zm-31.272 13.344-.294-.168-1.47-.846c-.018-.012-.037-.02-.058-.023-.021-.004-.042-.003-.062.002-.021.005-.04.014-.056.027-.017.013-.03.029-.04.048-.011.018-.018.038-.02.059-.003.02-.002.042.004.062s.015.039.028.055.029.03.048.04l1.764 1.014 2.61 1.506 1.47.852c.036.021.08.026.12.015.041-.012.075-.038.096-.075s.026-.08.015-.12c-.012-.041-.039-.075-.075-.096zm-77.4 41.664c-.036-.02-.079-.026-.119-.016s-.075.035-.097.07c-.011.018-.018.038-.02.059-.003.02-.002.042.004.062s.015.039.028.055.029.03.048.04l5.22 3c.026.005.052.005.078 0 .027-.001.055-.008.079-.022.024-.013.044-.033.059-.056.02-.037.024-.08.013-.12s-.037-.075-.073-.096zm13.596-7.854c-.018-.01-.038-.017-.059-.019-.021-.003-.042-.001-.062.004-.02.006-.038.015-.055.028-.016.013-.03.029-.04.047s-.017.038-.02.059c-.002.02 0 .041.005.061.006.02.015.039.028.056.013.016.029.03.047.04l5.22 3c.025.008.052.008.078 0 .027-.001.055-.008.079-.022.024-.013.044-.033.059-.056.01-.018.017-.038.02-.059s.001-.042-.004-.062c-.006-.02-.016-.039-.029-.055s-.029-.03-.047-.04zm67.992-39.27c-.018-.011-.038-.017-.059-.02s-.042-.001-.062.004c-.02.006-.039.015-.055.028-.017.013-.03.03-.04.048-.02.036-.026.079-.016.119s.035.075.07.097l5.226 3c.025.009.053.009.078 0 .027-.001.055-.008.079-.022.024-.013.044-.033.059-.056.02-.037.024-.08.013-.12s-.037-.075-.073-.096zm13.59-7.8c-.018-.01-.037-.017-.058-.02-.02-.003-.04-.001-.06.005-.02.005-.038.015-.054.028s-.029.029-.038.047c-.02.035-.026.077-.016.116s.035.073.07.094l5.226 3c.025.006.052.006.078 0 .028.001.055-.006.079-.02.025-.014.045-.034.059-.058.019-.036.024-.078.013-.117-.012-.04-.038-.073-.073-.093zm-27.186 15.702c-.018-.012-.037-.02-.058-.023-.021-.004-.042-.003-.062.002-.021.005-.04.014-.056.027-.017.013-.03.029-.04.048-.02.036-.026.079-.016.119s.035.075.07.097l5.226 3c.025.008.052.008.078 0 .027-.001.055-.008.079-.022.024-.013.044-.033.059-.056.01-.018.017-.038.02-.059.003-.02.001-.042-.004-.062-.006-.02-.016-.039-.029-.055s-.029-.03-.047-.04zm-13.596 7.848c-.036-.02-.079-.026-.119-.016s-.075.035-.097.07c-.011.018-.018.038-.02.059-.003.02-.002.042.004.062s.015.039.028.055.029.03.048.04l5.22 3c.026.006.052.006.078 0 .027-.001.055-.008.079-.022.024-.013.044-.033.059-.056.02-.037.024-.08.013-.12s-.037-.075-.073-.096zm-27.192 15.672c-.018-.01-.038-.017-.059-.019-.021-.003-.042-.001-.062.004-.02.006-.038.015-.055.028-.016.013-.03.029-.04.047s-.017.038-.02.059c-.002.02 0 .041.005.061.006.02.015.039.028.056.013.016.029.03.047.04l5.22 3c.026.005.052.005.078 0 .027-.001.055-.008.079-.022.024-.013.044-.033.059-.056.01-.018.017-.038.02-.059.003-.02.001-.042-.004-.062-.006-.02-.016-.039-.029-.055s-.029-.03-.047-.04zm13.596-7.848c-.018-.011-.038-.017-.059-.02s-.042-.001-.062.004c-.02.006-.039.015-.055.028-.017.013-.03.03-.04.048-.011.018-.017.037-.02.057-.003.021-.001.041.004.061.006.02.016.038.029.054s.029.029.047.038l5.22 3c.026.005.052.005.078 0 .028.001.055-.006.079-.02.025-.014.045-.034.059-.058.01-.018.017-.037.02-.057.002-.021.001-.041-.005-.061-.005-.02-.015-.038-.028-.054s-.029-.029-.047-.038z" fill="#455a64"/><path d="m165.456 250.446c-.086-.05-.179-.086-.276-.108-.096-.015-.193-.015-.288 0-.1.006-.199.024-.294.054-.099.031-.194.073-.282.126l-.054.03-.096-.702h-.042c-.018-.012-.039-.018-.06-.018-.022 0-.042.006-.06.018l-.996.6c-.042 0-.036.042 0 .066h.042c.018.012.038.018.06.018.021 0 .042-.006.06-.018l.804-.462.096.69c.01.002.02.002.03 0h.036c.018.012.038.018.06.018.021 0 .042-.006.06-.018l.234-.138c.126-.072.264-.118.408-.138.14-.009.28.024.402.096.054.029.102.07.138.12.013.019.023.04.028.063s.006.046.002.069c-.015.048-.042.092-.078.126-.048.048-.103.088-.162.12-.052.031-.106.057-.162.078l-.18.06c-.068.009-.136.009-.204 0-.072 0-.144-.014-.21-.042-.028-.005-.056-.005-.084 0h-.054-.036c-.003.005-.004.01-.004.015s.001.01.004.015v.03c.067.038.14.062.216.072.09.009.18.009.27 0 .211-.016.417-.079.6-.186.08-.045.152-.102.216-.168.048-.05.081-.112.096-.18.009-.063-.006-.127-.042-.18-.057-.055-.125-.097-.198-.126zm1.68-.732c-.061-.077-.136-.14-.222-.186-.097-.056-.202-.097-.312-.12-.106-.025-.215-.035-.324-.03-.108.006-.214.024-.318.054-.1.03-.197.07-.288.12-.076.037-.144.091-.198.156-.021.03-.039.062-.054.096l-.546-.378.762-.444c.042 0 .042-.048 0-.066h-.042c-.017-.011-.037-.017-.057-.017-.021 0-.04.006-.057.017l-.87.498c-.036 0-.036.042 0 .072l.792.546c.018.012.038.018.06.018.021 0 .042-.006.06-.018h.048c.012-.006.022-.014.031-.025.008-.01.014-.022.017-.035-.002-.026-.002-.052 0-.078.012-.033.031-.063.054-.09.036-.047.083-.085.138-.108.066-.042.139-.073.216-.09.076-.023.154-.037.234-.042.078-.009.156-.009.234 0 .08.015.157.044.228.084.062.035.118.082.162.138.028.04.043.089.042.138-.006.051-.027.099-.06.138-.044.051-.097.094-.156.126-.051.031-.105.055-.162.072-.06.023-.122.037-.186.042-.068.009-.136.009-.204 0-.074-.007-.146-.023-.216-.048h-.078-.048l-.048.03s-.03 0-.03.03c.071.038.148.064.228.078.197.051.403.051.6 0 .106-.025.207-.068.3-.126.081-.041.154-.096.216-.162.047-.051.077-.117.084-.186.015-.069.004-.142-.03-.204z" fill="#000"/><path d="m172.494 238.83c-.085-.052-.178-.089-.276-.108-.096-.015-.193-.015-.288 0-.1.006-.199.024-.294.054-.099.031-.193.073-.282.126l-.054.03-.096-.702h-.042c-.018-.012-.039-.018-.06-.018s-.042.006-.06.018l-.996.6c-.042 0-.036.048 0 .072h.042c.018.012.039.018.06.018s.042-.006.06-.018l.804-.468.096.696h.036c.018.012.039.018.06.018s.042-.006.06-.018l.234-.138c.125-.074.264-.121.408-.138.141-.012.282.021.402.096.056.027.103.068.138.12.013.018.022.038.028.06.005.022.005.044.002.066-.013.05-.04.096-.078.132-.048.048-.103.088-.162.12-.052.031-.106.057-.162.078-.058.024-.118.042-.18.054-.068.009-.136.009-.204 0-.072-.003-.143-.017-.21-.042-.028-.005-.056-.005-.084 0h-.054-.036c-.003.005-.004.01-.004.015s.001.01.004.015v.03c.068.036.14.06.216.072.09.009.18.009.27 0 .102-.007.202-.025.3-.054.106-.034.208-.078.306-.132.08-.045.153-.102.216-.168.048-.05.081-.112.096-.18.009-.063-.006-.127-.042-.18-.05-.052-.109-.095-.174-.126zm1.692-.798c-.053-.062-.116-.115-.186-.156-.086-.049-.179-.086-.276-.108-.105-.031-.214-.048-.324-.048-.115-.003-.23.009-.342.036-.118.027-.231.071-.336.132l-.09.06-.066.054-.168-.552h-.06c-.008-.004-.018-.006-.027-.006s-.019.002-.027.006h-.054s-.036.03 0 .048 0 0 0 .036l.21.726c.008.027.018.053.03.078.015.034.033.066.054.096l.09.102c.041.036.085.068.132.096.086.045.176.081.27.108.106.028.214.044.324.048.117 0 .233-.012.348-.036.115-.029.226-.073.33-.132.091-.044.169-.11.228-.192.042-.058.065-.127.066-.198-.019-.078-.064-.148-.126-.198zm-.216.366c-.043.048-.094.088-.15.12-.067.037-.137.067-.21.09-.081.018-.163.03-.246.036-.084.012-.169.012-.252 0-.084-.017-.165-.048-.24-.09-.064-.035-.119-.085-.162-.144-.028-.043-.042-.093-.042-.144.008-.051.031-.099.066-.138.042-.051.092-.094.15-.126.066-.036.137-.064.21-.084.078-.024.159-.036.24-.036.083-.012.168-.012.252 0 .086.018.169.049.246.09.061.037.116.083.162.138.028.045.041.097.036.15.005.048-.005.096-.03.138z" fill="#000"/><path d="m192.762 234.684c-.086-.052-.179-.09-.276-.114-.098-.012-.196-.012-.294 0-.098.006-.194.024-.288.054-.099.031-.193.073-.282.126h-.054l-.096-.708h-.036c-.019-.012-.041-.018-.063-.018s-.044.006-.063.018l-.99.57c-.044.024-.044.048 0 .072h.042c.018.009.037.014.057.014s.039-.005.057-.014l.804-.468.102.69h.03.036c.019.009.039.014.06.014s.041-.005.06-.014l.234-.138c.124-.075.264-.122.408-.138.141-.012.282.021.402.096.056.027.104.068.138.12.009.02.013.041.013.063s-.004.043-.013.063c-.01.049-.035.093-.072.126-.05.049-.107.091-.168.126l-.156.078c-.06.024-.122.042-.186.054h-.198c-.074-.002-.147-.017-.216-.042-.025-.008-.052-.008-.078 0h-.054-.036c-.003.005-.004.01-.004.015s.001.01.004.015c.069.033.141.057.216.072.09.012.181.012.27 0 .102-.007.202-.025.3-.054.108-.03.21-.074.306-.132.081-.043.154-.1.216-.168.047-.049.08-.109.096-.174.006-.063-.009-.126-.042-.18-.06-.021-.123-.029-.186-.024zm1.128-.12-.924-1.314-.03-.036-.048-.03h-.042c-.018-.012-.039-.018-.06-.018s-.042.006-.06.018l-1.032.6c-.036 0-.036.042 0 .066h.036c.018.012.039.018.06.018s.042-.006.06-.018l.906-.522.942 1.332h.054.054l.06-.03s0 0 0-.042z" fill="#000"/><path d="m199.638 223.158c-.087-.047-.18-.084-.276-.108-.096-.015-.193-.015-.288 0-.1.006-.199.024-.294.054-.099.031-.194.073-.282.126l-.054.03-.096-.702h-.042c-.018-.012-.039-.018-.06-.018-.022 0-.043.006-.06.018l-.996.6c-.042 0-.042.042 0 .066h.042c.017.011.036.017.057.017.02 0 .04-.006.057-.017l.81-.462.096.69c.01.002.02.002.03 0h.036c.017.012.038.018.06.018.021 0 .042-.006.06-.018l.234-.132c.123-.078.263-.125.408-.138.14-.015.281.017.402.09.054.029.102.07.138.12.013.019.023.04.028.063s.006.046.002.069c-.015.048-.042.092-.078.126-.048.048-.103.088-.162.12-.052.031-.106.057-.162.078l-.18.06c-.068.009-.137.009-.204 0-.074.001-.148-.014-.216-.042-.026-.005-.053-.005-.078 0h-.054-.036c-.003.005-.004.01-.004.015s.001.01.004.015v.03c.066.038.14.062.216.072.089.009.18.009.27 0 .211-.016.416-.079.6-.186.08-.045.152-.102.216-.168.048-.05.081-.112.096-.18.009-.063-.006-.127-.042-.18-.057-.055-.125-.097-.198-.126zm1.8-.768c-.048-.07-.111-.128-.186-.168-.115-.064-.242-.105-.372-.12-.133-.021-.269-.021-.402 0 .013-.03.02-.063.02-.096s-.007-.066-.02-.096c-.039-.078-.102-.141-.18-.18-.082-.043-.168-.076-.258-.096-.094-.012-.189-.012-.282 0-.098.006-.195.024-.288.054-.091.03-.177.07-.258.12-.076.039-.145.09-.204.15-.047.044-.081.1-.096.162-.021.052-.021.11 0 .162.041.064.099.116.168.15.095.054.198.09.306.108.109.015.22.015.33 0-.024.033-.039.07-.045.11-.006.039-.003.08.009.118.041.095.115.172.21.216.089.051.187.087.288.108.105.012.212.012.318 0 .106-.01.21-.033.312-.066.103-.029.202-.071.294-.126.081-.045.156-.102.222-.168.052-.051.09-.115.108-.186.021-.049.027-.103.018-.156zm-1.584 0c-.066.022-.135.036-.204.042-.066.009-.133.009-.198 0-.059-.01-.116-.03-.168-.06-.047-.021-.085-.057-.108-.102-.008-.017-.011-.035-.011-.054s.003-.037.011-.054c.014-.045.039-.086.072-.12.043-.042.092-.078.144-.108.06-.035.125-.063.192-.084.064-.02.131-.034.198-.042.066-.006.132-.006.198 0 .061.01.12.03.174.06.042.024.077.06.102.102.015.037.015.077 0 .114-.015.043-.04.082-.072.114-.041.042-.088.078-.138.108-.057.03-.118.052-.18.066zm1.29.336c-.05.048-.104.09-.162.126-.072.038-.146.07-.222.096-.076.023-.155.037-.234.042-.078.012-.157.012-.234 0-.07-.011-.137-.036-.198-.072-.053-.027-.097-.069-.126-.12-.015-.043-.015-.089 0-.132.017-.05.045-.096.084-.132.046-.051.101-.094.162-.126.07-.041.144-.073.222-.096.076-.025.154-.041.234-.048.075-.009.152-.009.228 0 .07.016.139.04.204.072.051.029.095.07.126.12.009.021.013.043.013.066s-.004.045-.013.066c-.016.045-.04.085-.072.12z" fill="#000"/><path d="m219.84 219.048c-.087-.047-.18-.084-.276-.108-.096-.015-.193-.015-.288 0-.1.006-.199.024-.294.054-.099.031-.194.073-.282.126h-.054l-.096-.702h-.036c-.019-.012-.041-.018-.063-.018-.023 0-.044.006-.063.018l-.99.6c-.042 0-.042.042 0 .066h.042c.017.011.036.017.057.017.02 0 .04-.006.057-.017l.81-.462.096.69c.01.002.02.002.03 0h.036c.017.012.038.018.06.018.021 0 .042-.006.06-.018l.234-.132c.123-.078.263-.125.408-.138.14-.015.281.017.402.09.054.029.102.07.138.12.017.042.017.09 0 .132-.01.049-.035.093-.072.126-.048.048-.103.088-.162.12l-.162.078-.186.06c-.066.009-.133.009-.198 0-.074.001-.148-.014-.216-.042-.026-.005-.053-.005-.078 0h-.054-.036c-.003.005-.004.01-.004.015s.001.01.004.015c.066.038.14.062.216.072.089.009.18.009.27 0 .101-.007.202-.025.3-.054.106-.033.209-.077.306-.132.08-.045.152-.102.216-.168.048-.05.081-.112.096-.18.009-.063-.006-.127-.042-.18-.058-.032-.121-.054-.186-.066zm1.284-.192-.228-.762c-.009-.027-.019-.053-.03-.078l-.048-.084c-.025-.035-.053-.067-.084-.096l-.132-.096c-.081-.047-.168-.081-.258-.102-.104-.029-.211-.045-.318-.048-.113 0-.226.012-.336.036-.118.024-.232.067-.336.126-.088.047-.164.112-.222.192-.04.058-.059.128-.054.198.005.067.033.13.078.18.05.061.111.112.18.15.084.045.172.081.264.108.213.048.434.048.648 0 .119-.023.233-.068.336-.132.054-.03.104-.066.15-.108l.174.6h.054c.019.006.04.006.06 0l.054-.03s.036-.03.03-.042.012 0 .018-.012zm-.552-.6c-.043.049-.093.09-.15.12-.066.039-.136.067-.21.084-.077.018-.155.03-.234.036-.082.009-.165.009-.246 0-.081-.017-.158-.048-.228-.09-.059-.033-.11-.078-.15-.132-.031-.039-.046-.088-.042-.138.003-.05.022-.099.054-.138.04-.05.092-.091.15-.12.065-.039.136-.067.21-.084.077-.024.158-.036.24-.036.081-.008.164-.008.246 0 .078.017.153.048.222.09.061.029.114.072.156.126.028.042.041.093.036.144-.006.048-.025.094-.054.132z" fill="#000"/><path d="m228.642 206.796c-.023-.075-.067-.141-.126-.192-.075-.071-.157-.133-.246-.186-.138-.084-.288-.174-.444-.258-.103-.055-.209-.103-.318-.144-.111-.037-.226-.061-.342-.072-.117-.018-.237-.018-.354 0-.127.027-.249.076-.36.144-.098.046-.183.116-.246.204-.02.031-.033.065-.04.101-.006.036-.005.073.004.109.024.077.07.146.132.198.077.067.159.127.246.18.144.09.294.174.444.258.101.056.208.102.318.138.11.041.225.068.342.078.118.012.236.012.354 0 .127-.027.249-.076.36-.144.094-.049.175-.121.234-.21.021-.029.036-.062.043-.097.007-.036.007-.072-.001-.107zm-.432.324c-.155.088-.333.127-.51.114-.194-.022-.382-.083-.552-.18l-.216-.126-.204-.12c-.141-.062-.253-.176-.312-.318-.03-.102.036-.204.192-.294.154-.089.333-.127.51-.108.194.018.382.078.552.174l.21.12.21.126c.139.065.249.178.312.318.03.102-.036.204-.192.294zm-1.566.504.246-.144c.036 0 .036-.048 0-.066h-.042c-.018-.012-.039-.018-.06-.018s-.042.006-.06.018l-.24.138-1.2-.672c-.017-.011-.037-.017-.057-.017s-.04.006-.057.017l-.108.06c-.048.03-.066.054-.054.084l.348 1.14c-.003.014-.003.028 0 .042h.042c.018.012.039.018.06.018s.042-.006.06-.018l.876-.504.426.24c.017.011.037.017.057.017s.04-.006.057-.017l.054-.03c.036 0 .036-.042 0-.066zm-1.05.42-.312-1.02 1.038.6z" fill="#000"/><path d="m248.712 202.92-1.746-1.008c-.018-.012-.039-.018-.06-.018-.022 0-.042.006-.06.018l-.048.03h-.03l-.126.6v.036h.06.066c.054 0 .084 0 .09-.042l.108-.492 1.59.918c.018.012.038.018.06.018.021 0 .042-.006.06-.018l.048-.03c.03.036.03.012-.012-.012zm-1.608.444.24-.138c.036-.024.036-.048 0-.072h-.042c-.019-.009-.039-.014-.06-.014s-.042.005-.06.014l-.24.144-1.17-.678c-.018-.009-.037-.014-.057-.014s-.04.005-.057.014l-.108.066c-.048 0-.066.054-.054.084l.348 1.134c-.005.016-.005.032 0 .048h.042c.018.012.038.018.06.018.021 0 .042-.006.06-.018l.882-.51.42.246c.017.01.037.015.057.015s.039-.005.057-.015l.054-.03c.036 0 .036-.048 0-.066zm-1.056.426-.312-1.02 1.038.6z" fill="#000"/><path d="m256.08 191.112h-.042c-.019-.009-.039-.014-.06-.014s-.041.005-.06.014l-.894.516v-.726c.008-.094-.006-.189-.042-.276-.05-.091-.128-.165-.222-.21-.075-.041-.153-.075-.234-.102-.088-.026-.178-.04-.27-.042-.099-.002-.198.008-.294.03-.108.026-.211.069-.306.126-.083.043-.155.104-.21.18-.035.053-.052.116-.048.18.009.062.037.121.078.168.043.05.093.092.15.126.016.01.035.015.054.015s.038-.005.054-.015l.054-.03c.003-.005.004-.01.004-.015s-.001-.01-.004-.015c.004-.006.007-.013.007-.021s-.003-.015-.007-.021c-.042-.024-.078-.058-.105-.099-.027-.04-.045-.087-.051-.135 0-.078.06-.156.186-.228.118-.07.253-.107.39-.108.135-.003.268.033.384.102l.102.072c.027.024.049.052.066.084.014.033.024.067.03.102.003.048.003.096 0 .144v.798c-.004.022-.004.044 0 .066l.036.036h.042c.017.011.037.017.057.017s.04-.006.057-.017l1.092-.63c.042-.024.042-.048.006-.072zm-2.166.768.24-.138c.044-.024.044-.048 0-.072h-.042c-.017-.011-.037-.017-.057-.017s-.04.006-.057.017l-.246.138-1.152-.696c-.018-.012-.039-.018-.06-.018s-.042.006-.06.018l-.108.06c-.042.03-.066.054-.054.084l.348 1.14c.005.017.016.032.03.042l.042.03c.018.009.037.014.057.014s.039-.005.057-.014l.882-.51.42.24c.018.012.039.018.06.018s.042-.006.06-.018h.048c.036-.024.036-.048 0-.072zm-1.056.426-.312-1.02 1.038.6z" fill="#000"/><path d="m263.934 190.446-80.646 46.554c.054-.053.096-.116.123-.187.027-.07.038-.146.033-.221-.014-.23-.082-.454-.198-.654-.115-.2-.276-.371-.468-.498-.065-.043-.138-.07-.215-.081-.077-.01-.155-.003-.229.021l80.658-46.554c.107-.062.225-.102.348-.118s.247-.008.367.024c.119.032.231.087.33.163.098.075.18.169.242.276s.102.225.118.348.008.247-.024.367c-.032.119-.087.231-.163.33-.075.098-.169.18-.276.242z" fill="#455a64"/><path d="m183.444 236.58c.005.075-.007.151-.034.221-.026.071-.068.134-.122.187l-.066.036-58.032 33.492c-.143.087-.307.132-.474.132-.207-.001-.409-.069-.573-.196-.164-.126-.282-.303-.335-.504-.053-.2-.039-.412.04-.603.08-.192.22-.352.4-.455l58.02-33.486.066-.036c.073-.024.152-.031.229-.021.076.011.15.038.215.081.192.127.353.298.468.498.116.2.183.424.198.654z" fill="#516eb4"/><path d="m274.2 188.46c-.001-1.811-.579-3.574-1.65-5.034-.468 5.91-6.294 8.55-15.756 14.136s-102.384 59.358-107.436 62.304-4.5-1.74-14.058 3.948l-3.3 1.986 1.536 2.952 5.958-3.438c1.896-1.098 8.304 1.098 12.75-1.476l117.318-67.746.354-.216c1.304-.75 2.386-1.83 3.138-3.132.753-1.303 1.148-2.78 1.146-4.284z" fill="#516eb4" opacity=".2"/><path d="m135.972 260.712c1.325-.923 2.507-2.035 3.51-3.3.446-.667.809-1.387 1.08-2.142.287-.772.692-1.494 1.2-2.142 2.214-2.49 5.226-3.924 7.95-5.634l16.698-9.93c11.136-6.6 22.332-13.116 33.498-19.68s22.404-13.002 33.642-19.434l16.872-9.63c2.814-1.608 5.628-3.222 8.508-4.716 1.434-.767 2.926-1.419 4.464-1.95.777-.243 1.586-.366 2.4-.366.815.047 1.614.251 2.352.6-.746-.314-1.544-.483-2.352-.498-.803.027-1.597.178-2.352.45-1.507.574-2.968 1.264-4.368 2.064-2.826 1.572-5.586 3.264-8.346 4.95l-16.698 9.936c-11.142 6.6-22.338 13.122-33.504 19.68s-22.41 13.002-33.648 19.434l-16.878 9.624-4.2 2.4c-1.39.796-2.663 1.781-3.78 2.928-1.104 1.158-1.374 2.868-2.4 4.2-1.059 1.221-2.287 2.284-3.648 3.156z" fill="#fff" opacity=".4"/><path d="m132 262.656c-.224-.156-.484-.254-.755-.284-.271-.031-.546.007-.799.11l-17.544 10.134-.144.084c-.669.381-1.192.972-1.489 1.682s-.35 1.498-.151 2.241c.199.744.639 1.4 1.25 1.867.612.467 1.361.718 2.13.714.499-.001.991-.107 1.446-.312l.162-.096 17.436-10.068c.288-.181.521-.438.672-.743.152-.305.216-.646.186-.985-.028-.862-.26-1.706-.677-2.461-.418-.755-1.008-1.4-1.723-1.883z" fill="#fafafa"/><path d="m131.004 262.986c.243.011.479.085.684.216.615.429 1.121.996 1.477 1.655.356.66.553 1.394.575 2.143 0 .6-.168 1.038-.474 1.2l-17.466 10.056-.138.078c-.436.193-.913.274-1.387.236-.475-.039-.933-.195-1.332-.454-.399-.26-.728-.616-.955-1.034-.227-.419-.346-.888-.346-1.364.003-.505.139-1 .394-1.436s.62-.797 1.058-1.048l.132-.078 17.52-10.122c.081-.035.169-.051.258-.048zm0-.63c-.192-.003-.381.041-.552.126l-17.544 10.134-.144.084c-.664.384-1.183.976-1.476 1.684-.294.709-.345 1.494-.147 2.235s.635 1.395 1.243 1.863c.608.467 1.353.721 2.12.722.498-.001.991-.107 1.446-.312l.162-.096 17.436-10.068c.287-.182.518-.439.669-.744.15-.305.213-.645.183-.984-.029-.854-.258-1.689-.668-2.439-.411-.749-.992-1.391-1.696-1.875-.303-.185-.648-.289-1.002-.3z" fill="#e0e0e0"/><path d="m133.572 268.716c.281-.184.506-.441.652-.743s.207-.639.176-.973c-.007-.335-.049-.669-.126-.996-2.4 1.344-14.322 8.112-17.256 9.774-3.6 2.028-5.616 1.506-5.91-.696-.099.505-.086 1.026.041 1.525.126.5.362.965.689 1.362.328.397.74.717 1.206.935.466.219.975.332 1.49.33.499-.001.991-.107 1.446-.312l.162-.096 17.436-10.068z" fill="#000" opacity=".1"/><path d="m228.6 169.8c0-1.704-1.128-3.408-3.378-4.71l-6.642-3.834c-4.506-2.604-11.808-2.604-16.314 0l-70.908 40.908c-10.2 5.886-19.932 19.404-32.8862 28.122-12.954 8.718-23.214 15.6-23.214 15.6v4.17l3.276 1.974s11.964-5.964 27.0662-13.446c15.102-7.482 38.508-8.436 48.708-14.322l70.902-40.932c2.25-1.302 3.378-3 3.378-4.71z" fill="#516eb4"/><path d="m228.6 169.8c0-1.704-1.128-3.408-3.378-4.71l-6.642-3.834c-4.506-2.604-11.808-2.604-16.314 0l-70.908 40.908c-10.2 5.886-19.932 19.404-32.8862 28.122-12.954 8.718-23.214 15.6-23.214 15.6v4.17l3.276 1.974s11.964-5.964 27.0662-13.446c15.102-7.482 38.508-8.436 48.708-14.322l70.902-40.932c2.25-1.302 3.378-3 3.378-4.71z" fill="#fff" opacity=".6"/><path d="m105.6 234.402c15.102-7.476 38.508-13.098 48.708-18.99l70.902-40.932c2.25-1.296 3.378-3 3.378-4.704s-1.128-3.408-3.378-4.71l-6.642-3.834c-4.506-2.604-11.808-2.604-16.314 0l-70.896 40.932c-10.2 5.886-19.932 19.404-32.8862 28.122-12.954 8.718-23.214 15.6-23.214 15.6l3.342 1.914s11.898-5.916 27.0002-13.398z" fill="#516eb4"/><path d="m105.6 234.402c15.102-7.476 38.508-13.098 48.708-18.99l70.902-40.932c2.25-1.296 3.378-3 3.378-4.704s-1.128-3.408-3.378-4.71l-6.642-3.834c-4.506-2.604-11.808-2.604-16.314 0l-70.896 40.932c-10.2 5.886-19.932 19.404-32.8862 28.122-12.954 8.718-23.214 15.6-23.214 15.6l3.342 1.914s11.898-5.916 27.0002-13.398z" fill="#fff" opacity=".8"/><path d="m207.264 184.488-17.88 10.116-35.652 20.4c-2.988 1.615-6.086 3.019-9.27 4.2-3.186 1.2-6.408 2.358-9.642 3.48-6.462 2.25-12.972 4.398-19.35 6.948-3.18 1.284-6.36 2.592-9.438 4.14l-9.1684 4.638c-6.084 3.126-12.192 6.222-18.264 9.39 6.198-2.922 12.36-5.91 18.54-8.862l9.2404-4.476c3.072-1.476 6.252-2.73 9.438-3.954 6.396-2.4 12.888-4.566 19.374-6.762 3.24-1.11 6.48-2.232 9.696-3.438 3.247-1.179 6.409-2.583 9.462-4.2l17.772-10.308c5.916-3.45 11.856-6.858 17.748-10.344l17.73-10.434c5.88-3.516 11.778-6.996 17.64-10.542-6.036 3.3-11.994 6.672-17.976 10.008z" fill="#fff"/><path d="m187.464 173.808c.362-.01.722.072 1.044.24l15.132 8.736c.204.12.246.222.246.24s-.042.12-.246.24l-27.882 16.098c-.322.168-.682.25-1.044.24-.365.01-.726-.072-1.05-.24l-15.132-8.736c-.204-.12-.246-.222-.246-.24s.042-.126.246-.24l27.882-16.098c.324-.168.685-.25 1.05-.24zm0-.63c-.474-.009-.943.102-1.362.324l-27.882 16.098c-.75.432-.75 1.134 0 1.572l15.132 8.736c.421.214.886.325 1.359.325.472 0 .938-.111 1.359-.325l27.882-16.098c.165-.055.309-.16.411-.301s.156-.311.156-.485-.054-.344-.156-.485-.246-.246-.411-.301l-15.132-8.736c-.417-.222-.884-.334-1.356-.324z" fill="#516eb4"/><path d="m195.42 180.078c0-.798-.528-1.596-1.584-2.208-1.186-.6-2.496-.913-3.825-.913s-2.639.313-3.825.913c-1.056.6-1.584 1.41-1.584 2.208v1.476c0 .798.528 1.596 1.584 2.208 1.186.6 2.496.913 3.825.913s2.639-.313 3.825-.913c1.056-.6 1.584-1.41 1.584-2.208z" fill="#516eb4"/><path d="m195.42 180.078c0-.798-.528-1.596-1.584-2.208-1.186-.6-2.496-.913-3.825-.913s-2.639.313-3.825.913c-1.056.6-1.584 1.41-1.584 2.208v1.476c0 .798.528 1.596 1.584 2.208 1.186.6 2.496.913 3.825.913s2.639-.313 3.825-.913c1.056-.6 1.584-1.41 1.584-2.208z" fill="#000" opacity=".2"/><path d="m186.186 177.87c-1.056.6-1.584 1.41-1.584 2.208s.528 1.602 1.584 2.208c1.184.606 2.495.921 3.825.921s2.641-.315 3.825-.921c1.056-.6 1.584-1.41 1.584-2.208s-.528-1.596-1.584-2.208c-1.186-.6-2.496-.913-3.825-.913s-2.639.313-3.825.913z" fill="#516eb4"/><path d="m186.306 188.106-13.332 7.698c-.252.128-.531.194-.813.194-.283 0-.561-.066-.813-.194l-5.676-3.276 13.32-7.698c.253-.129.532-.196.816-.196.283 0 .563.067.816.196z" fill="#455a64"/><path d="m186.648 187.914-.342.192-5.706-3.276c-.253-.129-.533-.196-.816-.196-.284 0-.563.067-.816.196l-13.32 7.698-.342-.198c-.456-.258-.456-.678 0-.942l13.662-7.896c.254-.124.533-.189.816-.189s.562.065.816.189l6 3.48c.1.028.189.087.254.169.064.081.102.181.107.285.006.104-.022.207-.078.294-.056.088-.138.156-.235.194z" fill="#516eb4"/><path d="m174 192.192.66.378c.318.186.426.396.318.6-.172.296-.429.535-.738.684-.36.212-.757.355-1.17.42-.368.057-.743-.011-1.068-.192l-.252-.15c-.09-.048-.054-.12.096-.21s.276-.108.366-.054l.318.18c.185.095.4.117.6.06.251-.062.492-.161.714-.294.199-.101.373-.244.51-.42.096-.136.066-.25-.09-.342l-.714-.414c-.135-.088-.29-.142-.45-.156-.18.02-.352.081-.504.18l-.996.6c-.078.048-.186.03-.324-.048s-.162-.138-.084-.186l.816-.474v-.318c.005-.112-.022-.223-.077-.321-.055-.097-.137-.177-.235-.231l-.066-.042c-.162-.101-.345-.164-.534-.186-.169-.008-.337.036-.48.126l-1.344.78c-.054.019-.112.024-.169.014-.057-.009-.11-.033-.155-.068-.138-.078-.162-.138-.084-.186l1.344-.774c.282-.178.608-.273.942-.276.334.018.659.121.942.3l.096.06c.117.071.218.168.294.282.08.115.124.25.126.39v.144c.22-.091.458-.13.696-.114.247.038.484.126.696.258z" fill="#f0f0f0"/><path d="m175.53 192.06-2.448-1.416c-.36-.204-.552-.396-.6-.57s.138-.354.468-.546l1.464-.846c.078-.048.186-.03.318.048s.168.144.09.186l-1.422.846c-.168.096-.24.192-.216.282s.156.204.378.336l.702.402 1.2-.516c.232-.096.432-.168.6-.216.159-.055.324-.093.492-.114.343-.053.695.02.99.204l.672.384c.318.186.42.39.318.6-.176.294-.432.531-.738.684-.36.212-.757.353-1.17.414-.374.081-.764.023-1.098-.162zm.528-.234c.091.049.191.08.294.09.103.011.207 0 .306-.03.253-.061.496-.16.72-.294.198-.101.373-.244.51-.42.023-.026.04-.057.049-.092.008-.034.008-.07-.001-.104s-.026-.065-.05-.091c-.025-.025-.055-.044-.088-.055l-.798-.45c-.142-.076-.304-.103-.462-.078-.231.039-.455.11-.666.21l-1.2.516z" fill="#f0f0f0"/><path d="m179.67 190.002.492.282c.09.054.06.126-.108.222-.053.043-.117.071-.184.083-.067.011-.136.005-.2-.017l-.498-.288c-.09-.054-.054-.126.108-.222s.294-.114.39-.06z" fill="#f0f0f0"/><path d="m178.536 188.286-.684-.396c-.36-.204-.546-.396-.57-.57s.138-.354.468-.546l1.35-.78c.078-.048.18-.03.318.048s.168.144.09.186l-1.35.78c-.168.096-.24.192-.21.282s.15.204.372.336l.708.408 1.14-.42c.349-.154.715-.265 1.092-.33.2-.029.404-.017.6.036.128.045.253.101.372.168l.6.348c.318.186.426.396.318.6-.171.298-.428.536-.738.684-.359.211-.754.354-1.164.42-.368.061-.745-.007-1.068-.192l-.258-.15c-.09-.048-.054-.12.102-.21s.276-.108.366-.054l.312.18c.184.098.4.12.6.06.252-.061.495-.158.72-.288.198-.105.372-.25.51-.426.096-.138.06-.252-.09-.342l-.714-.414c-.133-.075-.288-.101-.438-.072-.236.044-.467.11-.69.198l-1.368.51c-.107.043-.221.063-.336.06-.126-.018-.248-.056-.36-.114z" fill="#f0f0f0"/><path d="m76.9318 246c-.2239-.156-.4834-.254-.7549-.284-.2714-.031-.5461.007-.7991.11l-12.444 7.2-.144.084c-.6668.382-1.1886.975-1.484 1.684-.2954.71-.348 1.497-.1495 2.24s.6369 1.399 1.2471 1.867c.6101.467 1.3577.72 2.1264.719.4994 0 .9928-.108 1.446-.318l.162-.09 12.336-7.128c.2807-.19.5037-.453.6445-.761s.1939-.649.1535-.985c-.0221-.856-.2454-1.695-.652-2.448-.4065-.754-.9848-1.401-1.688-1.89z" fill="#fafafa"/><path d="m75.9296 246.306c.243.011.4789.085.684.216.6109.426 1.1143.988 1.4705 1.642.3561.654.5552 1.382.5815 2.126 0 .6-.168 1.038-.474 1.2l-12.336 7.128-.138.078c-.6698.296-1.4279.324-2.1175.077s-1.258-.749-1.5877-1.403-.3956-1.41-.1839-2.111c.2116-.702.6846-1.295 1.3211-1.657l.132-.078 12.42-7.2c.0823-.032.1698-.048.258-.048m0-.63c-.1914-.003-.3807.041-.552.126l-12.444 7.2-.144.084c-.6668.382-1.1886.975-1.484 1.684-.2955.71-.348 1.497-.1495 2.24s.6369 1.399 1.2471 1.867c.6101.467 1.3577.72 2.1264.719.4994 0 .9928-.108 1.446-.318l.162-.09 12.336-7.128c.2807-.19.5037-.453.6445-.761s.1939-.649.1535-.985c-.0285-.854-.2573-1.689-.668-2.439-.4106-.749-.9915-1.391-1.696-1.875-.302-.186-.6475-.289-1.002-.3z" fill="#e0e0e0"/><path d="m78.4979 252.036c.2807-.19.5037-.453.6444-.761.1408-.308.194-.649.1536-.985-.0068-.334-.0491-.665-.126-.99-2.4 1.344-9.222 5.166-12.15 6.828-3.6 2.028-5.616 1.506-5.916-.696-.095.505-.0779 1.024.0502 1.522.128.497.3638.96.6907 1.356.3268.396.7368.716 1.2008.936s.9707.335 1.4843.338c.4994 0 .9928-.108 1.446-.318l.162-.09 12.336-7.128z" fill="#000" opacity=".1"/><path d="m228.6 169.932v8.676c0 1.704-1.122 3.402-3.378 4.71l-7.146 4.134v-8.844l7.146-4.128c2.178-1.254 3.294-2.88 3.378-4.548z" fill="#516eb4"/><path d="m228.6 169.932v8.676c0 1.704-1.122 3.402-3.378 4.71l-7.146 4.134v-8.844l7.146-4.128c2.178-1.254 3.294-2.88 3.378-4.548z" fill="#000" opacity=".2"/><path d="m218.052 178.614 7.158-4.134c4.5-2.598 4.5-6.816 0-9.414l-6.642-3.834c-4.506-2.604-11.808-2.604-16.314 0l-7.146 4.128z" fill="#516eb4"/><path d="m215.67 173.922-12.75-7.362c-.072-.042-.158-.053-.239-.032-.081.022-.15.074-.193.146-.041.072-.052.157-.031.237.021.079.073.148.145.189l12.756 7.362c.047.029.101.043.156.042.076.011.153-.007.217-.049.064-.043.109-.107.129-.181.019-.075.01-.153-.025-.221-.035-.069-.093-.121-.165-.149zm-7.968-6.822 7.656 4.416c.047.029.101.043.156.042.076.011.153-.007.217-.049.064-.043.109-.107.129-.181.019-.075.01-.153-.025-.221s-.093-.121-.165-.149l-7.65-4.398c-.072-.042-.158-.053-.239-.032-.081.022-.15.074-.193.146-.041.072-.052.157-.031.237.021.079.073.148.145.189z" fill="#000" opacity=".2"/><path d="m57.1503 159.84c-.336-11.166-2.172-18.684-5.028-23.736.534 2.238-2.448 11.4-3.942 15.75-.2327.662-.2257 1.386.0199 2.043.2456.658.7141 1.209 1.3241 1.557z" fill="#516eb4"/><path d="m57.1503 159.84c-.336-11.166-2.172-18.684-5.028-23.736.534 2.238-2.448 11.4-3.942 15.75-.2327.662-.2257 1.386.0199 2.043.2456.658.7141 1.209 1.3241 1.557z" fill="#fff" opacity=".3"/><path d="m99.5641 71.31c-4.284-2.472-37.062-14.634-51.702-20.022-2.1965-.8086-4.544-1.1241-6.876-.924-2.332.2002-4.5915.9109-6.618 2.082l-7.308 4.2c-2.7574 1.5927-5.0465 3.8836-6.637 6.6422s-2.4262 5.8875-2.423 9.0718v18c-.0056 1.6378.3711 3.2544 1.1003 4.721.7291 1.4666 1.7905 2.7428 3.0997 3.727 10.536 7.86 20.67 17.844 25.14 25.23 4.386 7.26 6.522 16.458 8.46 37.44 1.476 16.002 3.318 37.8 4.146 47.682.1369 1.634.6674 3.211 1.5462 4.595.8787 1.384 2.0795 2.536 3.4998 3.355l13.152 7.596c1.5463.889 3.2985 1.356 5.082 1.356 1.7834 0 3.5356-.467 5.082-1.356l12.6899-7.326c1.536-.887 2.814-2.161 3.705-3.694.892-1.534 1.367-3.274 1.377-5.048.246-46.602 2.88-88.494-6.5159-137.328z" fill="#516eb4"/><path d="m69.7922 219.882c-1.1088-.58-2.0482-1.438-2.7265-2.489-.6783-1.052-1.0723-2.262-1.1435-3.511-.138-2.904-3.78-51.156-5.508-63.456-1.674-11.886-3.162-13.11-8.82-16.392 1.8 6.264 3.048 14.67 4.23 27.462 1.476 16.002 3.318 37.8 4.146 47.682.137 1.634.6675 3.211 1.5462 4.595s2.0795 2.536 3.4998 3.355l4.8 2.76z" fill="#455a64"/><path d="m47.8621 51.288c-2.1965-.8086-4.544-1.1241-6.876-.924-2.332.2002-4.5915.9109-6.618 2.082l-7.308 4.2c-2.7574 1.5927-5.0465 3.8836-6.637 6.6422s-2.4262 5.8875-2.423 9.0718v18c-.0056 1.6378.3711 3.2544 1.1003 4.721.7291 1.4666 1.7905 2.7428 3.0997 3.727 2.01 1.494 3.996 3.072 5.934 4.686-2.3117-2.321-3.6066-5.466-3.6-8.742v-20.28c-.0004-2.6769.705-5.3066 2.0449-7.624s3.267-4.2407 5.5871-5.576l12.726-7.308c1.2506-.7206 2.6445-1.157 4.0827-1.2783 1.4383-.1213 2.8856.0754 4.2393.5763l.816.3z" fill="#000" opacity=".2"/><path d="m115.584 94.152-.684-11.208c-.018-.8257-.24-1.6341-.647-2.3533-.406-.7192-.983-1.3268-1.681-1.7687-.912-.522-11.736-6.762-13.0081-7.512-.4805-.2782-1.0144-.4514-1.5667-.5083-.5522-.0569-1.1103.0039-1.6373.1783-11.472 3.568-22.712 10.148-33.72 19.74-2.184 1.908-3.714 6.138-3.492 9.348.156 2.298.186 2.754.174 2.52.102 1.554.288 4.2.6 8.64 1.488 21.828 7.764 37.764 15.6 42.324 2.19 1.278 10.8959 6.306 13.1459 7.596 1.4078.854 3.0262 1.298 4.6727 1.281 1.6466-.017 3.2555-.494 4.6454-1.377 11.7121-6.78 19.6141-36.732 17.5981-66.9z" fill="#455a64"/><path d="m72.1981 107.604c.6 9-.696-10.152.762 11.16 2.052 30.138 13.242 49.074 24.99 42.288 11.7479-6.786 19.6499-36.732 17.6339-66.9l-.684-11.208c-.216-3.21-2.706-5.298-5.49-4.428-11.4719 3.568-22.7119 10.148-33.7199 19.74-2.184 1.908-3.69 6.144-3.492 9.348z" fill="#516eb4"/><path d="m72.1981 107.604c.6 9-.696-10.152.762 11.16 2.052 30.138 13.242 49.074 24.99 42.288 11.7479-6.786 19.6499-36.732 17.6339-66.9l-.684-11.208c-.216-3.21-2.706-5.298-5.49-4.428-11.4719 3.568-22.7119 10.148-33.7199 19.74-2.184 1.908-3.69 6.144-3.492 9.348z" fill="#fff" opacity=".6"/><path d="m105.408 119.94-19.608 11.322c-1.434.822-2.694 0-2.82-1.83l-1.752-25.71c-.126-1.842.93-4.002 2.364-4.8l19.608-11.322c1.428-.828 2.694 0 2.82 1.8l1.752 25.71c.132 1.842-.93 4.002-2.364 4.83z" fill="#516eb4"/><path d="m85.7523 127.584-1.722-25.23 19.2297-11.1 1.722 25.224z" fill="#455a64"/><path d="m90.4082 113.19.084 1.242c.0466.586-.1195 1.17-.468 1.644-.372.493-.8444.902-1.386 1.2-.4147.29-.9171.428-1.422.39-.38-.072-.59-.408-.63-1.008l-.036-.48c0-.168.108-.318.324-.45s.336-.114.36.054l.042.6c0 .3.156.45.402.45.3237-.034.6345-.145.906-.324.3428-.186.648-.434.9-.732.1087-.114.1938-.249.2504-.396.0567-.147.0837-.304.0796-.462l-.09-1.356c0-.336-.084-.534-.18-.6s-.3 0-.6.174l-1.482.864c-.12.066-.186 0-.204-.288s.036-.414.15-.48l1.2-.702.366-.756c.2517-.454.3877-.963.396-1.482v-.126c.0118-.258-.0597-.512-.204-.726-.108-.108-.288-.09-.534.054l-1.98 1.146c-.12.066-.186 0-.204-.282s.036-.42.15-.486l1.986-1.146c.486-.282.846-.342 1.074-.168.2809.334.4227.764.396 1.2v.186c.0093.279-.0231.558-.096.828-.0799.34-.1966.67-.348.984l-.168.348c.1094-.057.2338-.079.3562-.063.1225.016.2369.069.3278.153.1925.296.2909.643.282.996z" fill="#f0f0f0"/><path d="m91.8001 113.676-.312-4.62c-.0653-.558.0046-1.124.204-1.65.2142-.454.57-.827 1.014-1.062l2.154-1.242c.114-.066.18.03.198.282s-.03.42-.144.486l-2.154 1.248c-.2294.12-.4083.318-.504.558-.0937.319-.1223.654-.084.984l.09 1.326 1.566-.6c.2337-.087.4721-.161.714-.222.1719-.038.3501-.038.522 0 .336.042.522.378.564 1.002l.084 1.26c.0478.586-.1208 1.168-.474 1.638-.3678.505-.8381.926-1.38 1.236-.4156.288-.9179.424-1.422.384-.384-.084-.594-.402-.636-1.008zm.696-.282c0 .3.15.45.396.444.3257-.024.6397-.132.912-.312.3396-.193.644-.443.9-.738.1094-.115.195-.251.2516-.399s.0833-.306.0784-.465l-.102-1.458c0-.246-.108-.396-.276-.426-.2661-.02-.533.029-.774.144l-1.566.6z" fill="#f0f0f0"/><path d="m97.5123 110.94.06.936c0 .174-.102.33-.342.474s-.372.114-.384-.06l-.066-.93c0-.174.108-.336.348-.474s.372-.12.384.054z" fill="#f0f0f0"/><path d="m98.5982 106.284-.09-1.284c-.0598-.559.0122-1.124.21-1.65.2124-.456.5687-.829 1.014-1.062l1.9858-1.146c.114-.066.174.03.192.288s0 .42-.144.486l-1.9858 1.146c-.2265.122-.4028.319-.498.558-.0979.318-.1286.653-.09.984l.09 1.338 1.4038-.402c.397-.173.829-.247 1.26-.216.101.024.193.074.269.144.076.071.132.159.163.258.061.195.097.396.108.6l.078 1.146c.042.587-.126 1.17-.474 1.644-.366.506-.837.927-1.38 1.236-.415.288-.9177.424-1.4218.384-.384-.066-.6-.402-.636-1.002v-.486c0-.168.096-.318.324-.444s.348-.12.36.048l.042.6c0 .308.132.458.396.45.3248-.027.6388-.134.9118-.312.34-.193.644-.443.9-.738.11-.115.195-.251.252-.399.056-.148.083-.306.078-.465l-.096-1.35c0-.24-.102-.378-.258-.402-.267-.015-.535.026-.786.12l-1.6858.492c-.162.048-.276.036-.336-.03-.1036-.159-.1578-.345-.156-.534z" fill="#f0f0f0"/><path d="m103.632 148.002c-.102-1.47-.672-2.514-1.512-3l-2.442-1.416c-.4449-.228-.9431-.331-1.4417-.298-.4987.033-.9791.2-1.3903.484-2.208 1.278-3.84 4.608-3.648 7.44.102 1.488.684 2.538 1.536 3 .408.234 2.01 1.17 2.436 1.41.4427.222.937.321 1.4311.286s.9696-.202 1.3769-.484c2.214-1.26 3.822-4.59 3.654-7.422z" fill="#516eb4"/><path d="m103.632 148.002c-.102-1.47-.672-2.514-1.512-3l-2.442-1.416c-.4449-.228-.9431-.331-1.4417-.298-.4987.033-.9791.2-1.3903.484-2.208 1.278-3.84 4.608-3.648 7.44.102 1.488.684 2.538 1.536 3 .408.234 2.01 1.17 2.436 1.41.4427.222.937.321 1.4311.286s.9696-.202 1.3769-.484c2.214-1.26 3.822-4.59 3.654-7.422z" fill="#fff" opacity=".2"/><path d="m103.632 148.002c.192 2.832-1.44 6.162-3.654 7.44s-4.152 0-4.35-2.826 1.446-6.162 3.654-7.44 4.152-.012 4.35 2.826z" fill="#fff" opacity=".2"/><path d="m111.222 131.4-.402-5.886-2.436-1.404-6.564 3.786.528 7.8 2.436 1.404c2.271-1.754 4.422-3.658 6.438-5.7z" fill="#516eb4"/><path d="m111.222 131.4-.402-5.886-2.436-1.404-6.564 3.786.528 7.8 2.436 1.404c2.271-1.754 4.422-3.658 6.438-5.7z" fill="#000" opacity=".2"/><path d="m101.82 127.872 2.43 1.404.534 7.776-2.436-1.404z" fill="#000" opacity=".2"/><path d="m110.82 125.49.402 5.886c-2.017 2.033-4.168 3.93-6.438 5.676l-.534-7.8z" fill="#516eb4"/><path d="m103.386 138.096-.546-8.004-2.43-1.404-8.6522 4.998.54 7.992 2.436 1.404c3.0571-1.342 5.9582-3.014 8.6522-4.986z" fill="#516eb4"/><path d="m103.386 138.096-.546-8.004-2.43-1.404-8.6522 4.998.54 7.992 2.436 1.404c3.0571-1.342 5.9582-3.014 8.6522-4.986z" fill="#000" opacity=".2"/><path d="m94.1878 135.09-2.43-1.404.54 7.992 2.436 1.404z" fill="#000" opacity=".2"/><path d="m94.2002 135.09 8.6518-4.998.546 8.004c-2.693 1.972-5.5947 3.644-8.6518 4.986z" fill="#516eb4"/><path d="m93.3058 143.676-.528-7.8-2.436-1.404-6.564 3.792.402 5.886 2.4 1.404c2.2968-.41 4.549-1.039 6.726-1.878z" fill="#516eb4"/><path d="m86.2078 139.698-2.43-1.404.402 5.886 2.43 1.404z" fill="#000" opacity=".2"/><path d="m93.3058 143.676-.528-7.8-2.436-1.404-6.564 3.792.402 5.886 2.4 1.404c2.2968-.41 4.549-1.039 6.726-1.878z" fill="#000" opacity=".2"/><path d="m86.208 139.698 6.57-3.792.528 7.8c-2.1663.847-4.4084 1.486-6.696 1.908z" fill="#516eb4"/><path d="m82.9741 220.908-4.56-65.658 4.458 2.586s-10.176-7.836-12.672-34.236c-1.68-17.748-3.264-22.128-6.15-25.308-2.286-2.514-31.752-24.942-44.01-34.242-1.3348 2.567-2.0344 5.4167-2.04 8.31v18c-.0056 1.6378.3711 3.2544 1.1003 4.721.7291 1.4666 1.7905 2.7428 3.0997 3.727 10.536 7.86 20.67 17.844 25.14 25.23 4.386 7.26 6.522 16.458 8.46 37.44 1.476 16.002 3.318 37.8 4.146 47.682.1369 1.634.6674 3.211 1.5462 4.595.8787 1.384 2.0795 2.536 3.4998 3.355l13.152 7.596c1.5463.889 3.2985 1.356 5.082 1.356 1.7834 0 3.5356-.467 5.082-1.356-.6043.16-1.2365.186-1.8517.074-.6151-.112-1.1981-.358-1.7073-.72-.5093-.363-.9324-.833-1.2392-1.378s-.4898-1.151-.5358-1.774z" fill="#000" opacity=".2"/><path d="m153.564 164.022-2.964-5.622 2.4-6.948v-4.254l-7.368 4.254v4.254l3.168 5.49c.049.083.122.15.21.192z" fill="#516eb4"/><path d="m153.564 164.022-2.964-5.622 2.4-6.948v-4.254l-7.368 4.254v4.254l3.168 5.49c.049.083.122.15.21.192z" fill="#000" opacity=".2"/><path d="m153.81 163.8c-.031.001-.062-.007-.088-.023-.027-.016-.048-.039-.062-.067l-3.312-5.736-9.132 5.28c-.107.06-.217.114-.33.162-.163.063-.336.098-.51.102-.124.004-.247-.021-.36-.073-.112-.052-.211-.13-.288-.227-.199-.284-.296-.626-.276-.972v-30.36c.016-.629.18-1.246.48-1.8l.138-.24c.338-.628.834-1.158 1.44-1.536l27.6-15.96c.252-.159.542-.25.84-.264.206 0 .405.074.561.209.156.134.259.319.291.523.033.184.049.371.048.558v30.354c-.037.714-.243 1.41-.601 2.029-.358.62-.857 1.146-1.457 1.535l-11.454 6.642-3.378 9.744c-.01.033-.029.062-.056.084-.027.021-.06.034-.094.036z" fill="#fafafa"/><path d="m169.95 112.386c.102 0 .426 0 .564.51.024.157.036.315.036.474v30.354c-.04.661-.234 1.304-.565 1.878-.331.573-.791 1.062-1.343 1.428l-11.358 6.6-.192.114-.072.21-3.24 9.366-3-5.238-.3-.522-.522.3-8.862 5.124c-.095.054-.193.102-.294.144-.128.051-.264.079-.402.084-.54 0-.6-.6-.6-.972v-30.36c.018-.541.153-1.071.396-1.554l.186-.33c.31-.582.767-1.072 1.326-1.422l27.6-15.96c.208-.131.445-.207.69-.222m0-.6c-.351.012-.693.118-.99.306l-27.6 15.96c-.655.403-1.191.972-1.554 1.65-.398.659-.621 1.409-.648 2.178v30.36c0 .996.498 1.572 1.2 1.572.205-.005.408-.046.6-.12-.141.059-.285.111-.432.156.283-.075.555-.186.81-.33l8.85-5.124 3.162 5.478c.043.072.103.131.176.172s.155.062.238.062c.098-.001.193-.032.272-.089.08-.057.14-.137.172-.229l3.342-9.642 11.358-6.6c.643-.42 1.178-.985 1.562-1.65.383-.665.605-1.411.646-2.178v-30.324c-.003-.371-.062-.739-.174-1.092.043.152.077.306.102.462-.049-.267-.19-.508-.398-.683-.208-.174-.47-.27-.742-.271z" fill="#516eb4"/><path d="m171.09 112.74c-.258-.936-1.11-1.236-2.13-.648l-27.6 15.96c-.655.403-1.191.972-1.554 1.65-.398.659-.621 1.409-.648 2.178v30.36c0 1.26.792 1.848 1.836 1.452-.141.059-.286.111-.432.156-.15.042-.3.078-.456.108-.487.089-.984.109-1.476.06-.155-.013-.31-.035-.462-.066-.132-.023-.263-.055-.39-.096-.29-.074-.569-.187-.828-.336l-1.8-1.044c-.642-.419-1.177-.983-1.561-1.647-.383-.664-.605-1.409-.647-2.175v-30.36c.027-.769.25-1.519.648-2.178.196-.345.434-.666.708-.954l.198-.198.21-.186c.114-.092.234-.176.36-.252.026-.022.055-.042.084-.06l17.484-10.104 10.104-5.85c.026-.018.054-.032.084-.042.3-.163.621-.282.954-.354.288-.067.581-.109.876-.126h.6c.295.017.588.059.876.126.362.077.711.211 1.032.396l1.8 1.038c.233.141.45.306.648.492.066.066.138.132.204.204.201.216.384.449.546.696.109.169.209.343.3.522.132.264.243.539.33.822.042.15.076.302.102.456z" fill="#516eb4"/><path d="m141 163.686c-.142.059-.286.111-.432.156-.15.042-.3.078-.456.108-.487.086-.984.106-1.476.06-.155-.013-.31-.035-.462-.066-.132-.023-.263-.055-.39-.096-.29-.074-.569-.187-.828-.336l-1.8-1.044c-.642-.419-1.177-.983-1.561-1.647-.383-.664-.605-1.409-.647-2.175v-30.36c.026-.769.249-1.519.648-2.178l6.21 3.6c-.399.659-.622 1.409-.648 2.178v30.36c-.006 1.248.786 1.836 1.842 1.44z" fill="#000" opacity=".2"/><path d="m171.09 112.74c-.258-.936-1.11-1.236-2.13-.648l-27.6 15.96c-.655.403-1.191.972-1.554 1.65l-6.21-3.6c.194-.347.43-.669.702-.96l.198-.198.21-.186c.139-.113.288-.216.444-.306l17.484-10.11 10.104-5.85c.026-.018.054-.032.084-.042.301-.159.622-.278.954-.354.288-.067.581-.109.876-.126h.6c.295.017.588.059.876.126.361.083.708.216 1.032.396l1.8 1.038c.234.138.452.303.648.492.066.066.138.132.204.204.204.213.387.446.546.696.109.169.209.343.3.522.132.264.243.539.33.822.043.156.077.314.102.474z" fill="#fff" opacity=".3"/><path d="m149.85 139.368c0 .258-.03.6-.036 1.056s0 .9 0 1.374v1.368c0 .444 0 .792.036 1.032.019.39.083.777.192 1.152.077.305.242.58.474.792.229.187.521.279.816.258.44-.043.862-.194 1.23-.438.444-.246.849-.558 1.2-.924.295-.307.557-.645.78-1.008.19-.316.345-.652.462-1.002.099-.291.181-.588.246-.888.047-.271.127-.535.24-.786.115-.202.286-.367.492-.474l2.826-1.626c.048-.037.107-.057.168-.057s.12.02.168.057c.05.045.088.101.112.164.024.062.033.129.026.196-.022 1.046-.204 2.082-.54 3.072-.348 1.074-.825 2.102-1.422 3.06-.603.989-1.316 1.906-2.124 2.736-.777.817-1.666 1.52-2.64 2.088-.837.529-1.782.864-2.766.978-.728.08-1.462-.09-2.082-.48-.603-.428-1.06-1.031-1.308-1.728-.327-.862-.505-1.773-.528-2.694 0-.768-.042-1.602-.042-2.508s0-1.77.042-2.61c.038-1.117.212-2.225.516-3.3.318-1.13.763-2.221 1.326-3.252.572-1.043 1.271-2.01 2.082-2.88.808-.878 1.745-1.629 2.778-2.226.807-.494 1.704-.821 2.64-.96.72-.111 1.458-.014 2.124.282.621.297 1.122.796 1.422 1.416.37.762.555 1.601.54 2.448-.005.184-.052.365-.138.528-.072.156-.189.288-.336.378l-2.826 1.638c-.24.144-.408.174-.492.102-.124-.146-.206-.322-.24-.51-.06-.208-.142-.409-.246-.6-.104-.199-.265-.362-.462-.468-.245-.108-.515-.146-.78-.108-.427.074-.835.233-1.2.468-.458.26-.873.59-1.23.978-.64.724-1.084 1.6-1.29 2.544-.107.447-.177.903-.21 1.362z" fill="#455a64"/><path d="m163.8 123.534c.329-.199.691-.339 1.068-.414.315-.074.646-.051.948.066.287.123.528.333.69.6.199.369.306.781.312 1.2v.762.792c-.027.521-.126 1.036-.294 1.53-.162.49-.386.958-.666 1.392-.27.423-.588.814-.948 1.164-.337.323-.71.606-1.11.846-.345.203-.72.351-1.11.438-.316.075-.647.05-.948-.072-.288-.117-.527-.329-.678-.6-.194-.37-.291-.783-.282-1.2-.013-.254-.013-.508 0-.762 0-.366 0-.6 0-.786.013-.527.114-1.048.3-1.542.183-.494.418-.966.702-1.41.266-.426.585-.817.948-1.164.32-.323.679-.605 1.068-.84zm0 2.184c-.193.114-.344.286-.432.492-.113.318-.17.653-.168.99-.011.216-.011.432 0 .648-.011.2-.011.4 0 .6 0 .462.09.738.192.822s.246.078.432-.03c.187-.11.338-.273.432-.468.1-.314.149-.642.144-.972 0-.162 0-.378 0-.648s0-.474 0-.6c.011-.277-.056-.551-.192-.792-.084-.15-.228-.15-.408-.042z" fill="#455a64"/><path d="m202.308 135.882-3-5.628 2.4-6.954v-4.254l-7.368 4.254v4.26l3.168 5.484c.047.088.123.156.216.192z" fill="#516eb4"/><path d="m202.308 135.882-3-5.628 2.4-6.954v-4.254l-7.368 4.254v4.26l3.168 5.484c.047.088.123.156.216.192z" fill="#000" opacity=".2"/><path d="m202.553 135.648c-.03.001-.06-.007-.086-.021-.026-.015-.048-.037-.064-.063l-3.311-5.736-9.132 5.28c-.107.061-.217.115-.331.162-.161.068-.334.104-.509.108-.125.004-.249-.022-.361-.075-.113-.053-.211-.132-.288-.231-.198-.284-.296-.626-.276-.972v-30.36c.016-.629.181-1.246.48-1.8l.138-.24c.336-.631.833-1.161 1.44-1.536l27.6-15.966c.255-.1541.543-.2427.84-.258.206.0002.404.0734.56.2064s.26.3172.292.5196c.034.1821.05.3669.048.552v30.354c-.032.72-.236 1.423-.594 2.049s-.859 1.157-1.464 1.551l-11.454 6.636-3.378 9.75c-.013.028-.035.051-.061.067-.027.016-.058.024-.089.023z" fill="#fafafa"/><path d="m218.694 84.246c.102 0 .426 0 .564.51.023.1569.035.3154.036.474v30.354c-.04.662-.233 1.306-.564 1.881-.332.574-.792 1.064-1.344 1.431l-11.358 6.6-.192.108-.072.21-3.252 9.384-3-5.238-.3-.522-.522.306-8.856 5.124c-.096.054-.198.102-.294.144-.128.051-.264.079-.402.084-.54 0-.6-.6-.6-.978v-30.36c.019-.538.154-1.066.396-1.548l.186-.33c.308-.585.768-1.076 1.332-1.422l27.6-15.96c.207-.1307.445-.207.69-.222m0-.6c-.351.0128-.692.1161-.99.3l-27.6 15.96c-.655.403-1.191.972-1.554 1.65-.399.659-.622 1.409-.648 2.178v30.36c0 .996.498 1.578 1.2 1.578.206-.005.409-.048.6-.126-.142.059-.286.111-.432.156.283-.075.555-.186.81-.33l8.868-5.13 3.162 5.478c.045.079.113.142.193.184.081.041.172.058.263.05.09-.009.176-.044.247-.1.072-.057.125-.132.155-.218l3.324-9.666 11.358-6.6c.643-.42 1.178-.985 1.561-1.65.384-.665.605-1.411.647-2.178v-30.372c-.003-.3706-.062-.7388-.174-1.092.042.152.076.3062.102.462-.049-.2664-.19-.5071-.399-.6804-.208-.1732-.47-.2679-.741-.2676z" fill="#516eb4"/><path d="m219.834 84.6c-.258-.936-1.11-1.236-2.13-.648l-27.6 15.96c-.655.403-1.191.972-1.554 1.65-.399.659-.622 1.409-.648 2.178v30.36c0 1.26.792 1.848 1.836 1.452-.142.059-.286.111-.432.156-.15.042-.3.078-.456.108-.487.089-.984.109-1.476.06-.156-.013-.31-.035-.462-.066-.133-.023-.263-.055-.39-.096-.29-.074-.569-.187-.828-.336l-1.8-1.044c-.643-.419-1.177-.983-1.561-1.647-.383-.664-.605-1.409-.647-2.175v-30.372c.026-.7694.249-1.5192.648-2.178.196-.3454.434-.6658.708-.954.066-.066.132-.138.198-.198l.21-.186c.12-.088.24-.172.36-.252l.084-.06 17.484-10.104 10.104-5.85.084-.042c.299-.1626.62-.2818.954-.354.287-.0667.581-.1089.876-.126h.6c.295.0171.588.0593.876.126.362.0772.71.2109 1.032.396l1.8 1.038c.232.1406.45.3055.648.492l.204.204c.201.2163.383.4491.546.696.109.1685.209.3428.3.522.132.2644.242.5393.33.822.042.154.076.3102.102.468z" fill="#516eb4"/><path d="m189.732 135.54c-.142.059-.286.111-.432.156-.15.042-.3.078-.456.108-.487.086-.984.106-1.476.06-.155-.013-.31-.035-.462-.066-.132-.023-.263-.055-.39-.096-.29-.074-.569-.187-.828-.336l-1.8-1.044c-.643-.419-1.177-.983-1.561-1.647-.383-.664-.605-1.409-.647-2.175v-30.36c.026-.7694.249-1.5192.648-2.178l6.21 3.6c-.399.659-.622 1.409-.648 2.178v30.36c.006 1.248.798 1.836 1.842 1.44z" fill="#000" opacity=".2"/><path d="m219.834 84.6c-.258-.936-1.11-1.236-2.13-.648l-27.6 15.96c-.655.403-1.191.972-1.554 1.65l-6.21-3.6c.194-.3471.43-.6694.702-.96.066-.066.132-.138.198-.198l.21-.186c.14-.1134.288-.2157.444-.306l17.484-10.11 10.104-5.85.084-.042c.301-.1589.622-.278.954-.354.288-.0667.581-.1089.876-.126h.6c.295.0171.588.0593.876.126.361.0827.708.216 1.032.396l1.8 1.038c.234.1382.452.3033.648.492l.204.204c.205.2132.388.4464.546.696.109.1685.209.3428.3.522.132.2644.243.5394.33.822.043.1559.077.3142.102.474z" fill="#fff" opacity=".3"/><path d="m206.472 99.036c.059-.0429.13-.066.204-.066.073 0 .144.0231.204.066.062.0549.11.1238.14.201s.042.1605.034.243v3.048c-.006.227-.066.449-.174.648-.09.189-.232.349-.408.462l-6.444 3.72v3.942l6-3.474c.059-.044.13-.067.204-.067.073 0 .145.023.204.067.061.055.109.124.14.201.03.077.041.161.034.243v3.048c-.006.227-.066.449-.174.648-.09.189-.232.349-.408.462l-6 3.474v6.204c-.005.227-.065.449-.174.648-.089.192-.23.355-.408.468l-2.826 1.626c-.059.044-.131.068-.204.068-.074 0-.145-.024-.204-.068-.062-.056-.11-.126-.141-.204-.03-.079-.041-.163-.033-.246v-18.564c.004-.225.064-.445.174-.642.088-.192.229-.354.408-.468z" fill="#455a64"/><path d="m211.62 95.916c.332-.1935.692-.3333 1.068-.414.316-.0688.646-.0438.948.072.288.1208.53.3312.69.6.201.3682.308.7804.312 1.2v.762.786c-.028.5225-.125 1.039-.288 1.536-.168.489-.393.957-.672 1.392-.267.426-.585.817-.948 1.164-.334.325-.707.607-1.11.84-.343.209-.718.359-1.11.444-.316.069-.646.044-.948-.072-.285-.122-.522-.333-.678-.6-.191-.371-.288-.783-.282-1.2 0-.144 0-.396 0-.762s0-.63 0-.792c.015-.526.119-1.0447.306-1.536.183-.4925.416-.965.696-1.41.27-.4232.588-.8138.948-1.164.322-.3225.68-.6065 1.068-.846zm0 2.184c-.193.1166-.344.2908-.432.498-.119.3253-.184.6678-.192 1.014v.648.6c-.019.287.048.573.192.822.1.084.244.072.432-.036.187-.107.337-.268.432-.462.129-.333.194-.687.192-1.044.011-.2158.011-.4321 0-.648.011-.1998.011-.4001 0-.6.017-.2773-.05-.5533-.192-.792-.1-.108-.244-.108-.432 0z" fill="#455a64"/><path d="m272.832 71.028-17.4-10.032c-.837-.422-1.762-.6418-2.7-.6418s-1.863.2198-2.7.6418l-.312.186c-.785.5113-1.439 1.2004-1.908 2.0114s-.74 1.7211-.792 2.6566v20.064c.052.9355.323 1.8456.792 2.6566s1.123 1.5001 1.908 2.0114l17.37 10.032c.837.422 1.762.642 2.7.642s1.863-.22 2.7-.642l.312-.186c.784-.5116 1.437-1.2009 1.905-2.0119.468-.8111.738-1.721.789-2.6561v-20.064c-.047-.9324-.313-1.8406-.776-2.6514-.462-.8109-1.109-1.5016-1.888-2.0166z" fill="#516eb4"/><path d="m272.832 71.028-17.4-10.032c-.837-.422-1.762-.6418-2.7-.6418s-1.863.2198-2.7.6418l-.312.186c-.785.5113-1.439 1.2004-1.908 2.0114s-.74 1.7211-.792 2.6566v20.064c.052.9355.323 1.8456.792 2.6566s1.123 1.5001 1.908 2.0114l17.37 10.032c.837.422 1.762.642 2.7.642s1.863-.22 2.7-.642l.312-.186c.784-.5116 1.437-1.2009 1.905-2.0119.468-.8111.738-1.721.789-2.6561v-20.064c-.047-.9324-.313-1.8406-.776-2.6514-.462-.8109-1.109-1.5016-1.888-2.0166z" fill="#fff" opacity=".7"/><path d="m267.126 74.328-17.37-10.032c-1.488-.858-2.7-.162-2.7 1.554v20.064c.052.9355.323 1.8456.792 2.6566.47.811 1.123 1.5001 1.908 2.0114l17.37 10.032c1.488.858 2.7.162 2.7-1.56v-20.058c-.051-.9355-.322-1.8458-.791-2.6569-.47-.8111-1.123-1.5001-1.909-2.0111z" fill="#516eb4"/><path d="m267.126 74.328-17.37-10.032c-1.488-.858-2.7-.162-2.7 1.554v20.064c.052.9355.323 1.8456.792 2.6566.47.811 1.123 1.5001 1.908 2.0114l17.37 10.032c1.488.858 2.7.162 2.7-1.56v-20.058c-.051-.9355-.322-1.8458-.791-2.6569-.47-.8111-1.123-1.5001-1.909-2.0111z" fill="#fff" opacity=".55"/><path d="m275.526 95.76c-.051.9351-.321 1.845-.789 2.6561-.468.811-1.121 1.5003-1.905 2.0119l-.312.186c-.761.38-1.593.596-2.443.634-.85.037-1.698-.105-2.489-.418 1.266.48 2.238-.24 2.238-1.8v-20.034c-.035-.9388-.307-1.8534-.792-2.658l5.706-3.3c.483.8051.753 1.7197.786 2.658z" fill="#516eb4"/><path d="m275.526 95.76c-.051.9351-.321 1.845-.789 2.6561-.468.811-1.121 1.5003-1.905 2.0119l-.312.186c-.761.38-1.593.596-2.443.634-.85.037-1.698-.105-2.489-.418 1.266.48 2.238-.24 2.238-1.8v-20.034c-.035-.9388-.307-1.8534-.792-2.658l5.706-3.3c.483.8051.753 1.7197.786 2.658z" fill="#fff" opacity=".4"/><path d="m250.8 83.922c.162.474.528.81.81.756s.324-.3.288-.6l.882-.168-.282 1.32c-.01.081-.001.1632.026.2401.027.077.072.1467.13.2039l.054.042c.019.0157.042.0257.066.0291.024.0033.049-.0002.072-.0102.022-.0099.041-.026.055-.0463s.022-.044.023-.0686l.384-1.8.828-.156-.462 2.178c-.011.0811-.003.1636.024.2408.028.0772.073.1469.132.2032l.054.042c.019.014.041.0227.065.0251.023.0025.047-.0014.068-.0112.022-.0098.04-.0252.054-.0445.013-.0193.021-.0419.023-.0654l.6-2.676.6-.108 2.97 3.996v.906l-1.662 1.2c-.09.066-.09.246 0 .414.036.0725.089.1345.156.18.023.0143.05.0219.078.0219s.054-.0076.078-.0219l1.356-.984v1.278l-1.176.762c-.084.06-.09.246 0 .408.038.0729.094.1349.162.18.022.0145.048.0222.075.0222s.053-.0077.075-.0222l.822-.6v1.356c-.216 0-.372.186-.372.516.005.2228.061.4413.165.6382.105.1969.253.3667.435.4958.33.186.6 0 .6-.45-.012-.3493-.143-.684-.372-.948v-1.356l.822 1.542c.035.0692.087.1288.15.174.024.0149.052.0227.081.0227s.057-.0078.081-.0227c.084-.066.078-.252 0-.414l-1.128-2.118v-1.224l1.356 2.544c.037.0696.091.1292.156.174.023.0166.05.0255.078.0255s.055-.0089.078-.0255c.084-.066.084-.252 0-.414l-1.662-3.12v-.906l2.97-.6.6.792.6 3.33c.022.1372.098.2601.21.342h.054c.114 0 .186-.09.156-.264l-.462-2.718.828 1.116.384 2.256c.01.069.035.135.072.1939.037.059.086.1094.144.1481h.048c.12 0 .192-.09.162-.264l-.282-1.644.882 1.2c-.022.3442.08.6848.288.96.282.378.642.462.81.174.07-.2018.086-.418.049-.6281-.038-.2101-.129-.407-.265-.5719-.216-.288-.48-.402-.666-.318l-.882-1.2 1.104.222c.12 0 .186-.096.156-.27-.011-.0778-.042-.1516-.089-.2146-.047-.0629-.109-.1129-.181-.1454l-1.518-.306-.906-1.068 1.8.366c.12 0 .186-.096.15-.27-.009-.0786-.039-.1534-.086-.2167s-.111-.1128-.184-.1433l-2.232-.45-.6-.786v-4.572l.6-.108 2.232 2.13.06.042c.019.0139.04.0226.063.0253s.047-.0006.068-.0097.04-.0237.054-.0422c.013-.0186.022-.0404.025-.0634.014-.0806.007-.1634-.019-.241-.026-.0775-.071-.1473-.131-.203l-1.8-1.746.828-.156 1.518 1.446.054.042c.019.0155.041.0255.065.0291s.048.0006.07-.0086c.023-.0093.042-.0245.056-.044.014-.0194.023-.0424.025-.0665.011-.0819.002-.1652-.025-.2433s-.072-.1489-.131-.2067l-1.104-1.05.882-.168c.186.3.45.486.666.444s.378-.48.216-.954-.528-.81-.81-.756-.324.3-.288.6l-.882.168.282-1.314c.01-.0824.001-.1662-.027-.2444s-.074-.1486-.135-.2056c-.114-.108-.234-.084-.264.06l-.384 1.8-.828.156.462-2.178c.01-.0819.001-.1649-.026-.2429-.027-.0779-.072-.1487-.13-.2071-.12-.108-.234-.078-.264.06l-.6 2.67-.6.114-2.97-4.002v-.9l1.662-1.2c.09-.06.09-.246 0-.408s-.222-.252-.312-.186l-1.356.978v-1.272l1.128-.816c.084-.06.09-.246 0-.408s-.228-.246-.312-.186l-.822.6v-1.362c.216 0 .372-.186.372-.516-.004-.222-.06-.4401-.164-.6362-.105-.1961-.254-.3646-.436-.4918-.324-.186-.6 0-.6.45.012.3476.143.6804.372.942v1.362l-.75-1.5c-.084-.162-.228-.24-.312-.174s-.078.252 0 .414l1.128 2.118v1.272l-1.356-2.55c-.09-.162-.228-.234-.312-.168s-.084.252 0 .414l1.662 3.12v.9l-2.97.57-.6-.786-.6-3.33c-.008-.0786-.037-.1537-.084-.2179-.046-.0642-.108-.1152-.18-.1481-.12 0-.186.09-.156.264l.462 2.718-.828-1.116-.384-2.256c-.01-.0791-.04-.1544-.087-.2185s-.11-.1149-.183-.1475c-.114 0-.186.09-.156.264l.282 1.644-.882-1.2c.023-.3443-.079-.6853-.288-.96-.282-.384-.648-.462-.81-.18-.07.2018-.086.4181-.049.6282.038.2101.129.407.265.5718.216.294.48.408.66.318l.888 1.2-1.104-.222c-.12 0-.186.102-.156.276.025.1346.1.2547.21.336h.06l1.518.306.828 1.116-1.8-.366c-.12 0-.186.096-.15.27.009.0676.033.1325.069.1904s.084.1075.141.1456c.02.0057.04.0057.06 0l2.232.45.6.792v4.638l-.6.114-2.232-2.13c-.12-.114-.24-.09-.27.048-.013.0807-.007.1633.02.2408.026.0774.07.1472.13.2032l1.8 1.74-.828.162-1.518-1.446c-.114-.114-.234-.09-.27.042-.011.082-.003.1655.024.2436.027.0782.073.1489.132.2064l1.104 1.056-.888.168c-.18-.3-.444-.486-.66-.444s-.324.45-.162.918zm7.86-1.848v-3.882l2.52 3.396zm.216.636 2.526-.486v3.882zm-.216.378 2.52 3.396-2.52.486zm-.438-.258v3.888l-2.52-3.402zm-.222-.63-2.526.486v-3.882zm.216-.378-2.52-3.402 2.52-.48z" fill="#fff"/><path d="m272.832 116.508-17.4-10.032c-.837-.422-1.762-.642-2.7-.642s-1.863.22-2.7.642l-.312.186c-.785.511-1.439 1.2-1.908 2.011s-.741 1.721-.792 2.657v20.07c.054.936.326 1.846.795 2.658.469.811 1.121 1.502 1.905 2.016l17.37 10.026c.837.422 1.762.642 2.7.642s1.863-.22 2.7-.642l.312-.18c.783-.515 1.434-1.205 1.902-2.017s.739-1.722.792-2.657v-20.046c-.043-.937-.307-1.85-.77-2.665-.463-.816-1.112-1.51-1.894-2.027z" fill="#516eb4"/><path d="m272.832 116.508-17.4-10.032c-.837-.422-1.762-.642-2.7-.642s-1.863.22-2.7.642l-.312.186c-.785.511-1.439 1.2-1.908 2.011s-.741 1.721-.792 2.657v20.07c.054.936.326 1.846.795 2.658.469.811 1.121 1.502 1.905 2.016l17.37 10.026c.837.422 1.762.642 2.7.642s1.863-.22 2.7-.642l.312-.18c.783-.515 1.434-1.205 1.902-2.017s.739-1.722.792-2.657v-20.046c-.043-.937-.307-1.85-.77-2.665-.463-.816-1.112-1.51-1.894-2.027z" fill="#fff" opacity=".7"/><path d="m247.056 111.33c0-1.722 1.2-2.4 2.7-1.56l17.37 10.032c.785.511 1.439 1.2 1.908 2.011s.74 1.722.792 2.657v20.064c0 1.716-1.2 2.4-2.7 1.554l-17.37-10.026c-.784-.514-1.436-1.205-1.905-2.016-.469-.812-.741-1.722-.795-2.658z" fill="#516eb4"/><path d="m247.056 111.33c0-1.722 1.2-2.4 2.7-1.56l17.37 10.032c.785.511 1.439 1.2 1.908 2.011s.74 1.722.792 2.657v20.064c0 1.716-1.2 2.4-2.7 1.554l-17.37-10.026c-.784-.514-1.436-1.205-1.905-2.016-.469-.812-.741-1.722-.795-2.658z" fill="#fff" opacity=".55"/><path d="m275.526 141.234c-.053.935-.324 1.845-.792 2.657s-1.119 1.502-1.902 2.017l-.312.18c-.76.384-1.593.602-2.443.639s-1.699-.107-2.489-.423c1.272.48 2.238-.234 2.238-1.8v-20.034c-.034-.937-.307-1.85-.792-2.652l5.706-3.3c.483.805.753 1.72.786 2.658z" fill="#516eb4"/><path d="m275.526 141.234c-.053.935-.324 1.845-.792 2.657s-1.119 1.502-1.902 2.017l-.312.18c-.76.384-1.593.602-2.443.639s-1.699-.107-2.489-.423c1.272.48 2.238-.234 2.238-1.8v-20.034c-.034-.937-.307-1.85-.792-2.652l5.706-3.3c.483.805.753 1.72.786 2.658z" fill="#fff" opacity=".4"/><path d="m258.438 123.114c-1.992-1.152-3.6.072-3.6 2.73s1.62 5.754 3.6 6.906 3.6-.072 3.6-2.73-1.602-5.754-3.6-6.906zm0-1.362c.174.096.318 0 .318-.24v-4.302c-.003-.118-.033-.233-.089-.337-.055-.104-.133-.194-.229-.263-.174-.096-.312 0-.312.24v4.302c.002.117.032.232.086.337.054.104.131.194.226.263zm3.504 3.954c.033.022.071.034.111.034.039 0 .078-.012.111-.034l2.28-1.728c.126-.09.126-.36 0-.6s-.318-.348-.444-.258l-2.28 1.728c-.126.09-.126.36 0 .6.047.106.125.195.222.258zm4.68 6.528-3.222-1.866c-.174-.102-.318 0-.318.24.003.118.033.233.088.337.056.105.134.194.23.263l3.228 1.866c.174.102.312 0 .312-.24-.003-.118-.033-.234-.088-.338s-.134-.194-.23-.262zm-4.458 2.22c-.12-.24-.324-.354-.444-.258s-.126.36 0 .6l2.28 4.362c.049.101.126.186.222.246.032.023.071.035.111.035s.078-.012.111-.035c.126-.09.126-.354 0-.6zm-3.726-.342c-.174-.102-.312 0-.312.24v4.302c0 .118.029.233.083.338.054.104.133.194.229.262.174.102.318 0 .318-.234v-4.308c-.003-.118-.033-.233-.089-.337-.055-.104-.133-.194-.229-.263zm-3.72-3.96-2.28 1.728c-.126.09-.126.354 0 .6.048.102.125.188.222.246.032.023.071.035.111.035s.078-.012.111-.035l2.28-1.722c.126-.096.126-.36 0-.6s-.324-.342-.444-.252zm-.918-4.896c-.003-.118-.033-.233-.089-.337-.055-.104-.133-.194-.229-.263l-3.228-1.86c-.174-.102-.312 0-.312.24.002.117.031.233.085.337s.132.194.227.263l3.228 1.86c.18.096.318-.012.318-.24zm.912-3.846c.048.103.125.191.222.252.032.023.071.035.111.035s.078-.012.111-.035c.126-.09.126-.36 0-.6l-2.28-4.362c-.126-.234-.324-.348-.444-.258s-.126.36 0 .6z" fill="#fff"/></svg>