<svg fill="none" height="300" viewBox="0 0 300 300" width="300" xmlns="http://www.w3.org/2000/svg" xmlns:xlink="http://www.w3.org/1999/xlink"><mask id="a" height="34" maskUnits="userSpaceOnUse" width="42" x="186" y="164"><path d="m227.622 176.472c0-3.036-2.004-6.078-6-8.4-8.028-4.632-21.042-4.632-29.07 0-4.014 2.316-6 5.358-6 8.4v9.108c0 3.036 2.004 6.078 6 8.4 8.028 4.632 21.042 4.632 29.07 0 4.014-2.316 6-5.358 6-8.4z" fill="#fff"/></mask><path d="m150 289.56c74.184 0 134.322-36.802 134.322-82.2s-60.138-82.2-134.322-82.2c-74.1838 0-134.3218 36.802-134.3218 82.2s60.138 82.2 134.3218 82.2z" fill="#f0f0f0"/><g fill="#e0e0e0"><path d="m259.842 219.21 4.716-2.724c.157-.053.293-.154.389-.289.097-.134.148-.296.148-.461 0-.166-.051-.327-.148-.461-.096-.135-.232-.236-.389-.289l-48.6-28.05c-.403-.204-.848-.31-1.299-.31s-.896.106-1.299.31l-4.716 2.724c-.157.053-.293.154-.389.289-.097.134-.149.296-.149.461 0 .166.052.327.149.461.096.135.232.236.389.289l48.6 28.05c.403.204.848.31 1.299.31s.896-.106 1.299-.31z"/><path d="m92.8139 236.91c18.8451 0 34.1221-8.819 34.1221-19.698s-15.277-19.698-34.1221-19.698-34.122 8.819-34.122 19.698 15.2769 19.698 34.122 19.698z"/><path d="m51.6301 233.16c9.7158 0 17.592-4.548 17.592-10.158s-7.8762-10.158-17.592-10.158-17.592 4.548-17.592 10.158 7.8762 10.158 17.592 10.158z"/><path d="m164.418 221.418c25.131 0 45.504-11.761 45.504-26.268s-20.373-26.268-45.504-26.268-45.504 11.761-45.504 26.268 20.373 26.268 45.504 26.268z"/><path d="m207.066 250.398c13.616 0 24.654-6.372 24.654-14.232s-11.038-14.232-24.654-14.232-24.654 6.372-24.654 14.232 11.038 14.232 24.654 14.232z"/><path d="m145.08 249.654c-4.8-2.778-12.6-2.778-17.436 0-1.902 1.104-3.042 2.472-3.438 3.894-4.602 2.79-4.536 7.2.204 9.936s12.6 2.778 17.43 0c1.908-1.098 3.042-2.466 3.444-3.894 4.596-2.79 4.536-7.194-.204-9.936z"/><path d="m182.706 256.038-4.308-2.484-5.934-3.426c-1.272-.647-2.68-.984-4.107-.984s-2.834.337-4.107.984c-2.262 1.308-2.25 3.432 0 4.74l5.946 3.42 4.302 2.49c1.273.647 2.68.984 4.107.984s2.835-.337 4.107-.984c2.28-1.314 2.268-3.438-.006-4.74z"/><path d="m236.238 240.036 4.314-2.484 5.934-3.432c1.274-.643 2.681-.979 4.107-.979 1.427 0 2.834.336 4.107.979 2.262 1.314 2.25 3.438 0 4.746l-5.946 3.42-4.32 2.514c-1.272.647-2.679.984-4.107.984-1.427 0-2.834-.337-4.107-.984-2.262-1.338-2.256-3.462.018-4.764z"/></g><path d="m209.4 50.25 3.93 2.268c-.019-.1734-.029-.3476-.03-.522v-1.134c0-2.028 1.422-2.85 3.18-1.836.751.4583 1.396 1.0721 1.89 1.8.288-2.544 2.286-3.498 4.716-2.094 1.392.9036 2.549 2.1239 3.378 3.561.83 1.4371 1.306 3.0501 1.392 4.707v1.704c.018.68-.12 1.3551-.402 1.974l3.27 1.884c.513.3343.94.7853 1.246 1.316.305.5308.481 1.1264.512 1.738 0 1.122-.786 1.578-1.758 1.014l-21.324-12.312c-.513-.3334-.94-.7832-1.247-1.3128-.306-.5297-.483-1.1242-.517-1.7352.018-1.128.81-1.584 1.764-1.02z" fill="#ebebeb"/><path d="m235.404 39.81 2.196.834v-4.8c0-3.786 3-4.692 6.3-2.802 3.276 1.896 5.934 6.504 5.934 10.29v.708c.463-.1419.951-.1773 1.429-.1035.478.0737.933.2548 1.331.5295 1.244.812 2.279 1.9054 3.021 3.1917.742 1.2864 1.171 2.7294 1.251 4.2123v.33l3 1.746c.817.5322 1.497 1.2487 1.986 2.0918.488.8431.772 1.7893.828 2.7622 0 1.8-1.26 2.52-2.814 1.62l-24.462-14.112c-.819-.5353-1.5-1.2557-1.989-2.1031-.489-.8475-.771-1.798-.825-2.7749 0-1.794 1.26-2.52 2.814-1.62z" fill="#ebebeb"/><path d="m263.124 207c-1.8-9.87 1.056-20.076 4.386-25.77s9.186-10.356 13.962-9.468c4.452.828 4.8 6.456.204 10.89s-12.726 12.924-14.94 18.72c-1.476 3.858-2.316 6.378-2.316 6.378z" fill="#516eb4"/><path d="m263.124 207c-1.8-9.87 1.056-20.076 4.386-25.77s9.186-10.356 13.962-9.468c4.452.828 4.8 6.456.204 10.89s-12.726 12.924-14.94 18.72c-1.476 3.858-2.316 6.378-2.316 6.378z" fill="#000" opacity=".15"/><path d="m263.604 204.78c.062-.014.118-.048.159-.097s.065-.109.069-.173c.666-13.8 9.912-26.262 16.044-29.622.061-.039.105-.101.123-.171.018-.071.009-.146-.026-.21s-.093-.112-.162-.135c-.07-.023-.145-.019-.211.012-6.252 3.42-15.672 16.104-16.35 30.096-.004.077.024.152.075.209.052.058.124.092.201.097z" fill="#fff"/><path d="m263.316 213.738c.306-2.298 3-4.962 6.906-8.61 4.338-4.032 10.2-6.456 11.244-9.252 1.23-3.36-1.8-5.916-6.684-4.572s-12.6 9.372-12.486 19.752z" fill="#516eb4"/><path d="m262.536 212.934c.055-.012.106-.04.145-.081.04-.04.066-.091.077-.147 2.4-12.078 10.596-17.4 14.574-18.51.074-.021.137-.07.174-.137.038-.067.048-.146.027-.22s-.07-.137-.137-.174c-.067-.038-.146-.048-.22-.027-4.404 1.236-12.51 6.6-15 18.954-.014.075.002.154.044.217.043.064.109.109.184.125.043.011.089.011.132 0z" fill="#fff"/><path d="m43.3682 200.436s-.984-8.442-5.202-15-10.008-10.602-15.366-11.016-9.72 4.56-3.948 7.944 15.99 6.834 20.748 19.548z" fill="#516eb4"/><path d="m43.3682 200.436s-.984-8.442-5.202-15-10.008-10.602-15.366-11.016-9.72 4.56-3.948 7.944 15.99 6.834 20.748 19.548z" fill="#000" opacity=".15"/><path d="m41.784 198.246h.054c.0357-.014.0683-.035.0958-.061.0275-.027.0495-.059.0646-.094s.023-.073.0233-.111c.0002-.039-.0071-.077-.0217-.112-5.724-13.98-16.566-19.8-21.498-20.916-.0383-.014-.0791-.019-.1196-.015-.0406.003-.0799.015-.1155.034-.0356.02-.0666.047-.091.08-.0245.032-.0417.069-.0507.109-.0089.04-.0094.081-.0013.121s.0245.077.0482.11.0541.061.0892.082c.0352.02.0743.033.1147.037 4.8 1.098 15.456 6.816 21.09 20.574.0262.06.0722.108.1301.138.058.029.1244.038.1879.024z" fill="#fff"/><path d="m35.0162 217.8c.4317 1.181 1.2209 2.197 2.2577 2.908 1.0367.711 2.2694 1.081 3.5263 1.058.9574.041 1.8939-.288 2.616-.918 1.296-1.248 1.092-3.342 1.734-5.022.864-2.262 3.18-3.774 3.474-6.276.0643-.509.0251-1.026-.1151-1.52s-.3786-.954-.7009-1.354c-.3511-.372-.728-.719-1.128-1.038-.438-.39-.924-.72-1.38-1.08-.6561-.457-1.1815-1.078-1.524-1.8-.426-1.038-.192-2.208-.318-3.318-.1386-1.115-.6401-2.154-1.4273-2.957-.7871-.802-1.8162-1.323-2.9287-1.483-1.12-.173-2.2509-.265-3.384-.276-1.68 0-3.438.654-5.112.294s-3.162-1.056-4.86-1.2c-.8916-.122-1.7993-.04-2.6546.239-.8554.28-1.6361.75-2.2834 1.375-.3707.36-.6472.805-.8052 1.297s-.1926 1.015-.1008 1.523c.282 1.098 1.314 1.8 2.28 2.4s2.022 1.23 2.4 2.292c.804 2.142-1.512 4.578-.6 6.684.2191.431.5236.813.895 1.122.3713.309.8017.54 1.265.678.75.27 1.536.402 2.31.6.3759.054.7544.088 1.134.102 1.126-.061 2.2409.249 3.174.882 1.44 1.074 1.566 3.114 2.256 4.788z" fill="#516eb4"/><path d="m39.252 204.222c-.0219-.039-.0527-.072-.0901-.096-5.5139-5.76-13.1039-7.752-15.5999-7.932-.0681-.003-.1349.02-.1863.064-.0515.045-.0836.108-.0897.176-.0033.067.0199.134.0648.184s.1078.081.1752.086c2.358.168 9.39 1.998 14.736 7.236-1.9067-.338-3.8627-.278-5.7451.176-1.8823.455-3.6504 1.293-5.1929 2.464-.024.023-.043.051-.056.082s-.0197.064-.0197.098.0067.067.0197.098.032.059.056.082c.0269.032.0612.057.0999.072.0386.016.0805.022.1221.018.0514-.008.0993-.031.138-.066 1.5832-1.196 3.4093-2.031 5.3498-2.446 1.9405-.414 3.9483-.399 5.8822.046 3.2258 3.404 5.2416 7.775 5.736 12.438.0088.063.0407.121.0894.162s.1109.062.1746.06c.0674-.008.1292-.041.1719-.094.0426-.053.0628-.12.0561-.188-.5125-4.772-2.5833-9.243-5.892-12.72z" fill="#fff"/><path d="m263.532 212.4v-89.49c-.079-1.442-.497-2.845-1.22-4.096-.722-1.251-1.728-2.314-2.938-3.104l-42.402-24.51c-2.298-1.326-4.164-.252-4.164 2.4v89.538c.08 1.443.498 2.847 1.222 4.098.723 1.25 1.731 2.313 2.942 3.102l42.402 24.462c2.298 1.35 4.158.276 4.158-2.4z" fill="#e0e0e0"/><path d="m261.6 213.552v-89.514c-.078-1.443-.495-2.847-1.217-4.098-.723-1.251-1.73-2.314-2.941-3.102l-42.402-24.486c-2.298-1.326-4.164-.252-4.164 2.4v89.514c.08 1.443.498 2.847 1.222 4.098.723 1.25 1.731 2.313 2.942 3.102l42.36 24.486c2.322 1.326 4.2.252 4.2-2.4z" fill="#f5f5f5"/><path d="m257.4 116.838-38.238-22.08c11.358 7.338 34.2 20.55 37.056 22.8s4.332 3.72 4.332 10.98 1.05 80.082 1.05 80.082v-84.6c-.085-1.443-.51-2.846-1.24-4.094-.729-1.248-1.744-2.306-2.96-3.088z" fill="#fafafa"/><path d="m234.756 108.036c.15.101.274.237.361.395.088.159.137.336.143.517v89.226c0 .342-.222.486-.504.33-.148-.103-.271-.239-.357-.397-.087-.158-.135-.335-.141-.515v-89.226c0-.366.222-.486.498-.33z" fill="#e0e0e0"/><path d="m230.4 182.484c.001-.284-.024-.567-.072-.846 0-.066-.042-.276-.054-.318-.532-2.373-1.984-4.439-4.038-5.742l-7.284-4.2-.066-.03c-.785-.503-1.692-.785-2.624-.817s-1.856.187-2.674.635-1.5 1.108-1.975 1.911-.726 1.718-.725 2.651c.002.284.028.567.078.846.015.107.035.213.06.318.527 2.371 1.973 4.436 4.02 5.742l7.29 4.2.06.03c.786.505 1.693.788 2.626.821s1.858-.187 2.677-.635 1.502-1.109 1.977-1.912c.476-.804.726-1.72.724-2.654z" fill="#fafafa" opacity=".7"/><path d="m214.758 173.472c0 2.49 1.866 5.58 4.164 6.906l7.284 4.2c2.298 1.326 4.164.384 4.164-2.106s-1.866-5.58-4.164-6.906l-7.284-4.2c-2.322-1.32-4.164-.366-4.164 2.106z" fill="#e0e0e0"/><path d="m215.844 170.532c-1.34.054-2.608.625-3.537 1.592s-1.449 2.257-1.449 3.598c.002.284.028.567.078.846.014.107.034.213.06.318.464 2.034 1.591 3.855 3.204 5.178-2.01-2.784-3.144-4.56-2.658-7.32.201-1.058.721-2.028 1.49-2.781s1.75-1.253 2.812-1.431z" fill="#fff"/><path d="m219.306 183.51c-.309-.221-.554-.521-.71-.867-.156-.347-.218-.729-.178-1.107.057-1.055.362-2.083.891-2.998.528-.915 1.265-1.693 2.151-2.27.307-.224.669-.362 1.048-.4.378-.038.76.025 1.106.184l3.912 2.268c.99.574 1.711 1.517 2.005 2.623.294 1.105.137 2.282-.436 3.272-.574.99-1.517 1.711-2.623 2.005-1.105.295-2.282.138-3.272-.436z" fill="#f5f5f5"/><path d="m213.912 180.39c-.966-.584-1.664-1.524-1.945-2.618-.281-1.093-.122-2.253.442-3.231.565-.977 1.49-1.694 2.578-1.998 1.087-.303 2.25-.168 3.239.377l5.4 3.132c-.346-.159-.728-.222-1.106-.184-.379.038-.741.176-1.048.4-.886.577-1.623 1.355-2.151 2.27-.529.915-.834 1.943-.891 2.998-.039.378.022.76.178 1.107.156.346.401.646.71.867z" fill="#516eb4"/><path d="m214.884 174.066c-.218.378-.277.827-.165 1.249.113.422.388.782.765 1.001l6.516 3.78c.549-.907.857-1.94.894-3 0-.108 0-.204 0-.3l-5.748-3.336c-.188-.11-.396-.182-.612-.211-.216-.03-.435-.016-.646.041-.21.056-.408.154-.58.287s-.316.299-.424.489z" fill="#fff" opacity=".4"/><path d="m219.306 183.51c-.309-.221-.554-.521-.71-.867-.156-.347-.218-.729-.178-1.107.057-1.055.362-2.083.891-2.998.528-.915 1.265-1.693 2.151-2.27.307-.224.669-.362 1.048-.4.378-.038.76.025 1.106.184l3.912 2.268c.99.574 1.711 1.517 2.005 2.623.294 1.105.137 2.282-.436 3.272-.574.99-1.517 1.711-2.623 2.005-1.105.295-2.282.138-3.272-.436z" fill="#f5f5f5"/><path d="m221.46 176.268c-.886.577-1.623 1.355-2.151 2.27-.529.915-.834 1.943-.891 2.998-.039.378.022.76.178 1.107.156.346.401.646.71.867l-.306-.18-.234-.132c-.31-.221-.556-.52-.712-.867s-.217-.729-.176-1.107c.057-1.055.362-2.083.891-2.998.528-.915 1.265-1.693 2.151-2.27.307-.224.669-.362 1.048-.4.378-.038.76.025 1.106.184l.54.312c-.346-.159-.728-.222-1.106-.184-.379.038-.741.176-1.048.4z" fill="#000" opacity=".1"/><path d="m229.65 181.596c.089.792-.044 1.594-.384 2.315-.339.721-.873 1.334-1.541 1.769-.667.436-1.443.677-2.24.698-.797.02-1.584-.181-2.273-.582l-3.906-2.274c-.309-.221-.554-.521-.71-.867-.156-.347-.218-.729-.178-1.107.004-.444.067-.886.186-1.314l6.534 3.78c2.148 1.224 4.488-1.014 4.512-2.418z" fill="#e0e0e0"/><path d="m228.162 181.758c-.108.187-.252.352-.424.483-.171.132-.367.228-.576.284s-.427.07-.642.041c-.214-.029-.421-.099-.608-.208l-6.6-3.822c.513-.928 1.255-1.711 2.154-2.274.085-.051.174-.097.264-.138l5.838 3.378c.378.22.653.582.764 1.005s.05.873-.17 1.251z" fill="#fff"/><path d="m212.64 174.048c.048-.066.102-.126.156-.192l.114-.132c.042-.048.09-.09.138-.138l.144-.144.084-.066c.227-.194.474-.363.738-.504l.294-.144c-1.2.732-1.974 3.87.174 5.112.732.426 1.83 1.08 4.104 2.4-.119.428-.182.87-.186 1.314-.039.378.022.76.178 1.107.156.346.401.646.71.867l-5.4-3.12c-.989-.573-1.711-1.515-2.007-2.62-.295-1.104-.141-2.281.429-3.272.072-.114.144-.228.222-.336z" fill="#000" opacity=".1"/><path d="m257.676 198.108c-.001-.283-.023-.566-.066-.846 0-.066-.048-.276-.06-.318-.529-2.373-1.98-4.438-4.032-5.742l-7.29-4.2-.066-.03c-.785-.503-1.692-.785-2.624-.817s-1.856.187-2.674.635-1.5 1.108-1.975 1.911-.726 1.718-.725 2.651c.002.284.028.567.078.846 0 .06.042.222.06.318.526 2.371 1.972 4.436 4.02 5.742l7.29 4.2h.06c.786.505 1.693.788 2.626.821s1.857-.187 2.676-.635 1.503-1.109 1.978-1.912c.475-.804.726-1.72.724-2.654z" fill="#fafafa" opacity=".7"/><path d="m242.07 189.096c0 2.49 1.86 5.586 4.158 6.912l7.29 4.2c2.292 1.326 4.158.384 4.158-2.106s-1.866-5.58-4.158-6.906l-7.29-4.2c-2.298-1.326-4.158-.396-4.158 2.1z" fill="#e0e0e0"/><path d="m243.15 186.156c-1.34.056-2.606.627-3.535 1.594s-1.449 2.255-1.451 3.596c.002.284.028.567.078.846 0 .06.042.222.06.318.464 2.034 1.591 3.855 3.204 5.178-2.004-2.784-3.144-4.56-2.658-7.314.201-1.058.721-2.029 1.49-2.783s1.75-1.255 2.812-1.435z" fill="#fff"/><path d="m246.6 199.134c-.309-.22-.553-.519-.709-.864-.156-.346-.218-.727-.179-1.104.057-1.056.362-2.084.891-3.001.528-.916 1.265-1.695 2.151-2.273.308-.224.669-.362 1.048-.4.378-.038.76.025 1.106.184l3.912 2.268c.49.283.92.66 1.264 1.11.344.449.597.961.743 1.508s.184 1.117.109 1.679c-.074.561-.258 1.102-.541 1.592s-.66.92-1.11 1.264c-.449.344-.961.597-1.508.743s-1.117.184-1.679.109c-.561-.074-1.102-.258-1.592-.541z" fill="#f5f5f5"/><path d="m241.2 196.014c-.99-.572-1.712-1.514-2.007-2.618-.296-1.105-.14-2.281.432-3.271s1.514-1.712 2.618-2.007c1.105-.296 2.281-.14 3.271.432l5.4 3.126c-.346-.159-.728-.222-1.106-.184-.379.038-.741.176-1.048.4-.886.578-1.623 1.357-2.151 2.273-.529.917-.834 1.945-.891 3.001-.039.377.023.758.179 1.104.156.345.4.644.709.864z" fill="#516eb4"/><path d="m242.19 189.69c-.109.187-.18.394-.208.608-.029.215-.015.433.041.642s.152.405.284.576c.131.172.295.316.483.424l6.516 3.786c.547-.908.855-1.94.894-3 0-.102 0-.204 0-.3l-5.748-3.336c-.188-.111-.395-.183-.611-.212-.216-.03-.435-.017-.646.039-.21.056-.407.153-.58.286-.173.132-.317.298-.425.487z" fill="#fff" opacity=".4"/><path d="m246.6 199.134c-.309-.22-.553-.519-.709-.864-.156-.346-.218-.727-.179-1.104.057-1.056.362-2.084.891-3.001.528-.916 1.265-1.695 2.151-2.273.308-.224.669-.362 1.048-.4.378-.038.76.025 1.106.184l3.912 2.268c.49.283.92.66 1.264 1.11.344.449.597.961.743 1.508s.184 1.117.109 1.679c-.074.561-.258 1.102-.541 1.592s-.66.92-1.11 1.264c-.449.344-.961.597-1.508.743s-1.117.184-1.679.109c-.561-.074-1.102-.258-1.592-.541z" fill="#f5f5f5"/><path d="m248.766 191.892c-.886.578-1.623 1.357-2.151 2.273-.529.917-.834 1.945-.891 3.001-.039.377.023.758.179 1.104.156.345.4.644.709.864l-.306-.174-.234-.138c-.31-.22-.555-.518-.711-.864-.156-.345-.217-.727-.177-1.104.057-1.056.362-2.084.891-3.001.528-.916 1.265-1.695 2.151-2.273.307-.224.669-.362 1.048-.4.378-.038.76.025 1.106.184l.54.312c-.346-.159-.728-.222-1.106-.184-.379.038-.741.176-1.048.4z" fill="#000" opacity=".1"/><path d="m256.956 197.22c.089.792-.043 1.594-.383 2.315s-.874 1.334-1.541 1.769c-.668.436-1.444.678-2.241.698s-1.584-.181-2.273-.582l-3.918-2.286c-.309-.22-.553-.519-.709-.864-.156-.346-.218-.727-.179-1.104.004-.446.067-.89.186-1.32 2.286 1.314 5.076 2.934 6.534 3.78 2.16 1.242 4.5-.996 4.524-2.406z" fill="#e0e0e0"/><path d="m255.468 197.4c-.108.187-.252.352-.424.483-.171.132-.367.228-.576.284s-.427.07-.642.041c-.214-.029-.421-.099-.608-.208l-6.6-3.822c.514-.928 1.255-1.711 2.154-2.274.09-.054.18-.096.264-.138l5.838 3.378c.377.222.651.583.762 1.006.111.422.051.872-.168 1.25z" fill="#fff"/><path d="m239.946 189.678c.049-.067.101-.131.156-.192.035-.047.073-.091.114-.132l.138-.144c.047-.049.097-.095.15-.138.028-.029.061-.053.096-.072.227-.196.474-.367.738-.51.09-.048.186-.096.288-.138-1.2.726-1.974 3.87.174 5.106.732.426 1.836 1.08 4.104 2.4-.119.43-.182.874-.186 1.32-.039.377.023.758.179 1.104.156.345.4.644.709.864l-5.4-3.12c-.989-.573-1.711-1.516-2.005-2.621-.295-1.104-.139-2.281.433-3.271.066-.116.138-.228.216-.336z" fill="#000" opacity=".1"/><path d="m230.4 159.96c.001-.286-.024-.571-.072-.852 0-.06-.042-.276-.054-.312-.262-1.176-.754-2.29-1.447-3.276s-1.573-1.826-2.591-2.472l-7.284-4.2h-.066c-.785-.503-1.692-.785-2.624-.817s-1.856.187-2.674.635-1.5 1.108-1.975 1.911-.726 1.718-.725 2.651c.002.284.028.567.078.846.014.107.034.213.06.318.527 2.372 1.973 4.439 4.02 5.748l7.29 4.2h.06c.786.505 1.693.788 2.626.821s1.858-.187 2.677-.635 1.502-1.109 1.977-1.912c.476-.804.726-1.72.724-2.654z" fill="#fafafa" opacity=".7"/><path d="m214.758 150.948c0 2.484 1.866 5.58 4.164 6.906l7.284 4.2c2.298 1.326 4.164.384 4.164-2.1s-1.866-5.58-4.164-6.912l-7.284-4.2c-2.322-1.326-4.164-.384-4.164 2.106z" fill="#e0e0e0"/><path d="m215.844 148.002c-1.34.056-2.606.627-3.535 1.594s-1.449 2.255-1.451 3.596c.002.284.028.567.078.846.013.107.033.213.06.318.464 2.034 1.591 3.855 3.204 5.178-2.01-2.784-3.144-4.56-2.658-7.314.201-1.058.721-2.029 1.49-2.783s1.75-1.255 2.812-1.435z" fill="#fff"/><path d="m219.306 160.98c-.314-.219-.564-.518-.723-.866-.159-.349-.223-.733-.183-1.114.057-1.056.362-2.084.891-3.001.528-.916 1.266-1.695 2.151-2.273.308-.224.67-.361 1.049-.398.378-.037.76.028 1.105.188l3.912 2.262c.492.283.922.66 1.268 1.109s.599.962.747 1.51c.147.547.185 1.118.112 1.68-.074.563-.257 1.105-.54 1.596s-.659.922-1.109 1.268c-.449.345-.962.599-1.51.746-.547.148-1.118.186-1.68.113-.562-.074-1.104-.257-1.596-.54z" fill="#f5f5f5"/><path d="m213.912 157.86c-.49-.283-.92-.66-1.264-1.11-.345-.449-.597-.961-.743-1.508-.147-.547-.184-1.117-.11-1.679.075-.561.259-1.102.542-1.592s.66-.92 1.109-1.264c.45-.344.962-.597 1.509-.743s1.117-.184 1.678-.109c.562.074 1.103.258 1.593.541l5.4 3.132c-.345-.16-.727-.225-1.106-.188-.378.037-.74.174-1.048.398-.89.574-1.632 1.349-2.166 2.264-.533.914-.844 1.941-.906 2.998-.04.377.022.758.178 1.104s.401.644.71.864z" fill="#516eb4"/><path d="m214.884 151.536c-.218.379-.278.829-.165 1.252.112.422.387.783.765 1.004l6.516 3.78c.548-.908.856-1.94.894-3 0-.102 0-.198 0-.294l-5.748-3.336c-.187-.111-.395-.183-.61-.213-.216-.031-.435-.018-.645.038-.211.055-.408.151-.581.283s-.318.298-.426.486z" fill="#fff" opacity=".4"/><path d="m219.306 160.98c-.314-.219-.564-.518-.723-.866-.159-.349-.223-.733-.183-1.114.057-1.056.362-2.084.891-3.001.528-.916 1.266-1.695 2.151-2.273.308-.224.67-.361 1.049-.398.378-.037.76.028 1.105.188l3.912 2.262c.492.283.922.66 1.268 1.109s.599.962.747 1.51c.147.547.185 1.118.112 1.68-.074.563-.257 1.105-.54 1.596s-.659.922-1.109 1.268c-.449.345-.962.599-1.51.746-.547.148-1.118.186-1.68.113-.562-.074-1.104-.257-1.596-.54z" fill="#f5f5f5"/><path d="m221.46 153.738c-.887.575-1.627 1.351-2.159 2.265-.531.915-.84 1.941-.901 2.997-.039.377.022.758.178 1.104s.401.644.71.864l-.288-.168-.234-.138c-.31-.219-.556-.517-.712-.863s-.217-.728-.176-1.105c.057-1.056.362-2.084.891-3.001.528-.916 1.265-1.695 2.151-2.273.308-.224.67-.361 1.048-.398.379-.037.761.028 1.106.188l.54.312c-.346-.159-.728-.223-1.106-.185-.379.038-.741.176-1.048.401z" fill="#000" opacity=".1"/><path d="m229.65 159.066c.089.792-.044 1.594-.383 2.315-.34.721-.874 1.334-1.542 1.769-.667.436-1.443.677-2.24.698-.797.02-1.584-.181-2.273-.582l-3.906-2.28c-.315-.219-.566-.52-.725-.869s-.222-.735-.181-1.117c.004-.446.067-.89.186-1.32l6.534 3.78c2.166 1.254 4.506-.978 4.53-2.394z" fill="#e0e0e0"/><path d="m228.162 159.234c-.219.377-.579.652-1.001.765-.422.112-.871.053-1.249-.165l-6.6-3.822c.512-.931 1.253-1.716 2.154-2.28l.264-.138 5.838 3.378c.378.222.653.584.765 1.008.111.424.05.875-.171 1.254z" fill="#fff"/><path d="m212.64 151.524c.049-.067.101-.131.156-.192.035-.047.073-.091.114-.132.043-.049.089-.095.138-.138l.144-.144.084-.066c.227-.196.474-.367.738-.51l.294-.138c-1.2.726-1.974 3.87.174 5.112.732.42 1.83 1.074 4.104 2.4-.116.418-.178.85-.186 1.284-.039.377.022.758.178 1.104s.401.644.71.864l-5.4-3.12c-.989-.572-1.71-1.513-2.006-2.617-.296-1.103-.142-2.279.428-3.269.072-.12.144-.228.222-.336.033-.037.069-.071.108-.102z" fill="#000" opacity=".1"/><path d="m257.676 175.584c-.001-.285-.023-.57-.066-.852 0-.06-.048-.27-.06-.312-.261-1.175-.752-2.287-1.444-3.273-.692-.985-1.571-1.824-2.588-2.469l-7.29-4.2-.066-.03c-.786-.501-1.693-.782-2.625-.812-.932-.031-1.855.189-2.672.638-.818.448-1.5 1.108-1.975 1.91s-.726 1.718-.726 2.65c.002.282.028.563.078.84 0 .066.042.228.06.318.526 2.373 1.972 4.44 4.02 5.748l7.29 4.2.06.03c.786.505 1.693.788 2.626.821s1.857-.187 2.676-.635 1.503-1.109 1.978-1.912c.475-.804.726-1.72.724-2.654z" fill="#fafafa" opacity=".7"/><path d="m242.07 166.572c0 2.49 1.86 5.58 4.158 6.906l7.29 4.2c2.292 1.326 4.158.384 4.158-2.1s-1.866-5.58-4.158-6.906l-7.29-4.2c-2.298-1.332-4.158-.39-4.158 2.1z" fill="#e0e0e0"/><path d="m243.15 163.632c-1.34.054-2.608.625-3.537 1.592s-1.448 2.257-1.449 3.598c.002.282.028.563.078.84 0 .066.042.228.06.318.462 2.034 1.59 3.856 3.204 5.178-2.004-2.784-3.144-4.554-2.658-7.314.201-1.057.721-2.028 1.49-2.781s1.751-1.253 2.812-1.431z" fill="#fff"/><path d="m246.6 176.61c-.309-.221-.554-.521-.71-.867-.156-.347-.217-.729-.178-1.107.058-1.056.363-2.084.892-3 .528-.916 1.265-1.695 2.15-2.274.308-.224.67-.361 1.049-.398.378-.037.76.028 1.105.188l3.912 2.262c.503.277.945.651 1.302 1.101.356.45.619.967.773 1.52.154.552.196 1.13.124 1.7-.072.569-.257 1.118-.544 1.615s-.67.932-1.127 1.279-.979.599-1.535.742-1.135.174-1.703.09c-.567-.084-1.113-.28-1.604-.577z" fill="#f5f5f5"/><path d="m241.2 173.484c-.99-.572-1.712-1.514-2.007-2.618-.296-1.105-.14-2.281.432-3.271s1.514-1.712 2.618-2.007c1.105-.296 2.281-.14 3.271.432l5.4 3.132c-.345-.16-.727-.225-1.106-.188-.378.037-.74.174-1.048.398-.886.579-1.622 1.358-2.151 2.274-.528.916-.834 1.944-.891 3-.039.378.022.76.178 1.107.156.346.401.646.71.867z" fill="#516eb4"/><path d="m242.19 167.16c-.218.379-.278.829-.165 1.252.112.422.387.783.765 1.004l6.516 3.78c.549-.908.856-1.94.894-3 0-.102 0-.198 0-.294l-5.748-3.336c-.187-.11-.395-.182-.61-.212-.215-.029-.434-.016-.644.039-.211.055-.408.151-.581.283s-.318.296-.427.484z" fill="#fff" opacity=".4"/><path d="m246.6 176.61c-.309-.221-.554-.521-.71-.867-.156-.347-.217-.729-.178-1.107.058-1.056.363-2.084.892-3 .528-.916 1.265-1.695 2.15-2.274.308-.224.67-.361 1.049-.398.378-.037.76.028 1.105.188l3.912 2.262c.503.277.945.651 1.302 1.101.356.45.619.967.773 1.52.154.552.196 1.13.124 1.7-.072.569-.257 1.118-.544 1.615s-.67.932-1.127 1.279-.979.599-1.535.742-1.135.174-1.703.09c-.567-.084-1.113-.28-1.604-.577z" fill="#f5f5f5"/><path d="m248.766 169.362c-.885.579-1.622 1.358-2.151 2.274-.528.916-.833 1.944-.891 3-.039.378.022.76.178 1.107.156.346.401.646.71.867l-.306-.18-.234-.138c-.31-.219-.556-.517-.713-.863-.156-.346-.216-.728-.175-1.105.058-1.056.363-2.084.891-3 .529-.916 1.266-1.695 2.151-2.274.308-.224.67-.361 1.048-.398.379-.037.761.028 1.106.188l.54.312c-.345-.16-.727-.225-1.106-.188-.378.037-.74.174-1.048.398z" fill="#000" opacity=".1"/><path d="m256.956 174.696c.101.906-.09 1.821-.546 2.61-.572.99-1.514 1.713-2.619 2.009s-2.282.141-3.273-.431l-3.918-2.274c-.309-.221-.554-.521-.71-.867-.156-.347-.217-.729-.178-1.107.005-.446.067-.89.186-1.32l6.534 3.78c2.16 1.242 4.5-.99 4.524-2.4z" fill="#e0e0e0"/><path d="m255.468 174.858c-.108.187-.252.352-.424.483-.171.132-.367.228-.576.284s-.427.07-.642.041c-.214-.029-.421-.099-.608-.208l-6.6-3.822c.513-.93 1.255-1.715 2.154-2.28l.264-.132 5.838 3.378c.188.109.352.253.484.426.131.172.227.369.283.578.055.21.068.429.038.643-.029.215-.101.422-.211.609z" fill="#fff"/><path d="m239.946 167.148c.049-.067.101-.131.156-.192.036-.042.072-.09.114-.132l.138-.138.15-.144.078-.066c.227-.194.475-.363.738-.504.093-.055.189-.103.288-.144-1.2.726-1.974 3.87.174 5.112.732.426 1.836 1.08 4.104 2.4-.119.43-.181.874-.186 1.32-.039.378.022.76.178 1.107.156.346.401.646.71.867l-5.4-3.126c-.49-.283-.92-.659-1.264-1.108-.345-.449-.597-.962-.743-1.509s-.183-1.117-.108-1.678.259-1.102.543-1.591c.067-.116.139-.228.216-.336z" fill="#000" opacity=".1"/><path d="m230.4 137.43c.001-.284-.024-.567-.072-.846 0-.066-.042-.276-.054-.318-.532-2.373-1.984-4.439-4.038-5.742l-7.284-4.2-.066-.03c-.785-.503-1.692-.785-2.624-.817s-1.856.187-2.674.635-1.5 1.108-1.975 1.911-.726 1.718-.725 2.651c.002.284.028.567.078.846.015.107.035.213.06.318.527 2.371 1.973 4.436 4.02 5.742l7.29 4.2h.06c.786.505 1.693.788 2.626.821s1.858-.187 2.677-.635 1.502-1.109 1.977-1.912c.476-.804.726-1.72.724-2.654z" fill="#fafafa" opacity=".7"/><path d="m214.758 128.4c0 2.49 1.866 5.58 4.164 6.906l7.284 4.2c2.298 1.326 4.164.384 4.164-2.106s-1.866-5.58-4.164-6.906l-7.284-4.2c-2.322-1.302-4.164-.36-4.164 2.106z" fill="#e0e0e0"/><path d="m215.844 125.478c-1.34.054-2.608.625-3.537 1.592s-1.449 2.257-1.449 3.598c.002.284.028.567.078.846.014.107.034.213.06.318.464 2.034 1.591 3.855 3.204 5.178-2.01-2.784-3.144-4.56-2.658-7.32.201-1.058.721-2.028 1.49-2.781s1.75-1.253 2.812-1.431z" fill="#fff"/><path d="m219.306 138.456c-.309-.221-.554-.521-.71-.867-.156-.347-.218-.729-.178-1.107.057-1.055.362-2.083.891-2.998.528-.915 1.265-1.693 2.151-2.27.307-.224.669-.362 1.048-.4.378-.038.76.025 1.106.184l3.912 2.268c.49.284.919.662 1.263 1.112s.597.963.742 1.511c.146.547.182 1.118.107 1.679-.074.562-.259 1.103-.543 1.593s-.662.919-1.112 1.264c-.45.344-.963.596-1.511.741-.547.146-1.118.183-1.679.108-.562-.075-1.103-.26-1.593-.544z" fill="#f5f5f5"/><path d="m213.912 135.336c-.966-.584-1.664-1.524-1.945-2.618-.281-1.093-.122-2.253.442-3.231.565-.977 1.49-1.694 2.578-1.998 1.087-.303 2.25-.168 3.239.377l5.4 3.132c-.346-.159-.728-.222-1.106-.184-.379.038-.741.176-1.048.4-.886.577-1.623 1.355-2.151 2.27-.529.915-.834 1.943-.891 2.998-.039.378.022.76.178 1.107.156.346.401.646.71.867z" fill="#516eb4"/><path d="m214.884 129c-.218.378-.277.827-.165 1.249.113.422.388.782.765 1.001l6.516 3.78c.549-.907.857-1.94.894-3 0-.108 0-.204 0-.3l-5.76-3.33c-.187-.109-.394-.179-.608-.208-.215-.029-.433-.015-.642.041s-.405.152-.576.284c-.172.131-.316.296-.424.483z" fill="#fff" opacity=".4"/><path d="m219.306 138.456c-.309-.221-.554-.521-.71-.867-.156-.347-.218-.729-.178-1.107.057-1.055.362-2.083.891-2.998.528-.915 1.265-1.693 2.151-2.27.307-.224.669-.362 1.048-.4.378-.038.76.025 1.106.184l3.912 2.268c.49.284.919.662 1.263 1.112s.597.963.742 1.511c.146.547.182 1.118.107 1.679-.074.562-.259 1.103-.543 1.593s-.662.919-1.112 1.264c-.45.344-.963.596-1.511.741-.547.146-1.118.183-1.679.108-.562-.075-1.103-.26-1.593-.544z" fill="#f5f5f5"/><path d="m221.46 131.214c-.886.577-1.623 1.355-2.151 2.27-.529.915-.834 1.943-.891 2.998-.039.378.022.76.178 1.107.156.346.401.646.71.867l-.306-.18-.234-.132c-.31-.221-.556-.52-.712-.867s-.217-.729-.176-1.107c.057-1.055.362-2.083.891-2.998.528-.915 1.265-1.693 2.151-2.27.307-.224.669-.362 1.048-.4.378-.038.76.025 1.106.184l.54.312c-.346-.159-.728-.222-1.106-.184-.379.038-.741.176-1.048.4z" fill="#000" opacity=".1"/><path d="m229.65 136.542c.089.792-.044 1.594-.384 2.315-.339.721-.873 1.334-1.541 1.769-.667.436-1.443.677-2.24.698-.797.02-1.584-.181-2.273-.582l-3.906-2.274c-.309-.221-.554-.521-.71-.867-.156-.347-.218-.729-.178-1.107.004-.444.067-.886.186-1.314l6.534 3.78c2.148 1.224 4.488-1.008 4.512-2.418z" fill="#e0e0e0"/><path d="m228.162 136.704c-.108.187-.252.352-.424.483-.171.132-.367.228-.576.284s-.427.07-.642.041c-.214-.029-.421-.099-.608-.208l-6.6-3.822c.513-.928 1.255-1.711 2.154-2.274.085-.051.174-.097.264-.138l5.838 3.378c.378.22.653.582.764 1.005s.05.873-.17 1.251z" fill="#fff"/><path d="m212.64 129 .156-.192.114-.132.138-.138.144-.144.084-.066c.228-.192.476-.361.738-.504l.294-.144c-1.2.732-1.974 3.87.174 5.112.732.426 1.83 1.08 4.104 2.4-.119.428-.182.87-.186 1.314-.039.378.022.76.178 1.107.156.346.401.646.71.867l-5.4-3.12c-.989-.573-1.711-1.516-2.007-2.62-.295-1.104-.141-2.281.429-3.272.072-.114.144-.228.222-.336z" fill="#000" opacity=".1"/><path d="m257.676 153.054c-.001-.283-.023-.566-.066-.846 0-.066-.048-.276-.06-.318-.529-2.373-1.98-4.438-4.032-5.742l-7.29-4.2h-.066c-.785-.503-1.692-.785-2.624-.817s-1.856.187-2.674.635-1.5 1.108-1.975 1.911-.726 1.718-.725 2.651c.002.284.028.567.078.846 0 .06.042.222.06.318.526 2.371 1.972 4.437 4.02 5.742l7.29 4.2h.06c.786.505 1.693.788 2.626.821s1.857-.187 2.676-.635 1.503-1.109 1.978-1.912c.475-.804.726-1.72.724-2.654z" fill="#fafafa" opacity=".7"/><path d="m242.07 144.048c0 2.484 1.86 5.58 4.158 6.906l7.29 4.2c2.292 1.326 4.158.384 4.158-2.106s-1.866-5.58-4.158-6.906l-7.29-4.2c-2.298-1.326-4.158-.384-4.158 2.106z" fill="#e0e0e0"/><path d="m243.15 141.102c-1.34.056-2.606.627-3.535 1.594s-1.449 2.255-1.451 3.596c.002.284.028.567.078.846 0 .06.042.222.06.318.464 2.034 1.591 3.855 3.204 5.178-2.004-2.784-3.144-4.56-2.658-7.314.201-1.058.721-2.029 1.49-2.783s1.75-1.255 2.812-1.435z" fill="#fff"/><path d="m246.6 154.08c-.309-.22-.553-.519-.709-.864-.156-.346-.218-.727-.179-1.104.057-1.056.362-2.084.891-3.001.528-.916 1.265-1.695 2.151-2.273.308-.224.669-.362 1.048-.4.378-.038.76.025 1.106.184l3.912 2.268c.99.572 1.712 1.514 2.007 2.618.296 1.105.14 2.281-.432 3.271s-1.514 1.712-2.618 2.007c-1.105.296-2.281.14-3.271-.432z" fill="#f5f5f5"/><path d="m241.2 150.96c-.99-.572-1.712-1.514-2.007-2.618-.296-1.105-.14-2.281.432-3.271s1.514-1.712 2.618-2.007c1.105-.296 2.281-.14 3.271.432l5.4 3.126c-.346-.159-.728-.222-1.106-.184-.379.038-.741.176-1.048.4-.886.578-1.623 1.357-2.151 2.273-.529.917-.834 1.945-.891 3.001-.04.377.021.757.176 1.103.155.345.398.644.706.865z" fill="#516eb4"/><path d="m242.19 144.636c-.218.379-.278.829-.165 1.252.112.422.387.783.765 1.004l6.516 3.78c.548-.908.855-1.94.894-3 0-.102 0-.204 0-.3l-5.748-3.336c-.188-.111-.395-.183-.611-.212-.216-.03-.435-.017-.645.039-.211.056-.408.153-.581.286-.172.132-.317.298-.425.487z" fill="#fff" opacity=".4"/><path d="m246.6 154.08c-.309-.22-.553-.519-.709-.864-.156-.346-.218-.727-.179-1.104.057-1.056.362-2.084.891-3.001.528-.916 1.265-1.695 2.151-2.273.308-.224.669-.362 1.048-.4.378-.038.76.025 1.106.184l3.912 2.268c.99.572 1.712 1.514 2.007 2.618.296 1.105.14 2.281-.432 3.271s-1.514 1.712-2.618 2.007c-1.105.296-2.281.14-3.271-.432z" fill="#f5f5f5"/><path d="m248.766 146.838c-.886.578-1.623 1.357-2.151 2.273-.529.917-.834 1.945-.891 3.001-.04.376.02.756.174 1.102.153.345.396.644.702.866l-.306-.174-.234-.138c-.309-.22-.555-.518-.711-.864-.156-.345-.217-.727-.177-1.104.057-1.056.362-2.084.891-3.001.528-.916 1.265-1.695 2.151-2.273.308-.224.669-.362 1.048-.4.378-.038.76.025 1.106.184l.54.312c-.344-.156-.724-.219-1.1-.181s-.736.175-1.042.397z" fill="#000" opacity=".1"/><path d="m256.956 152.166c.089.792-.043 1.594-.383 2.315s-.874 1.334-1.541 1.769c-.668.436-1.444.677-2.241.698-.797.02-1.584-.181-2.273-.582l-3.918-2.286c-.309-.22-.553-.519-.709-.864-.156-.346-.218-.727-.179-1.104.004-.446.067-.89.186-1.32 2.286 1.314 5.076 2.94 6.534 3.78 2.16 1.242 4.5-.972 4.524-2.406z" fill="#e0e0e0"/><path d="m255.468 152.334c-.108.187-.252.352-.424.483-.171.132-.367.228-.576.284s-.427.07-.642.041c-.214-.029-.421-.099-.608-.208l-6.6-3.822c.514-.928 1.255-1.711 2.154-2.274.09-.054.18-.096.264-.138l5.838 3.378c.377.222.651.583.762 1.006.111.422.051.872-.168 1.25z" fill="#fff"/><path d="m239.946 144.6c.049-.067.101-.131.156-.192.035-.047.073-.091.114-.132l.138-.144c.047-.049.097-.095.15-.138.023-.025.05-.047.078-.066.227-.196.474-.367.738-.51.09-.048.186-.096.288-.138-1.2.726-1.974 3.87.174 5.106.732.426 1.836 1.08 4.104 2.4-.119.43-.182.874-.186 1.32-.038.379.024.762.183 1.109.158.347.405.645.717.865l-5.4-3.12c-.989-.572-1.71-1.514-2.005-2.617-.295-1.104-.139-2.28.433-3.269.065-.118.137-.233.216-.342z" fill="#000" opacity=".1"/><path d="m230.4 114.906c0-.286-.024-.571-.072-.852 0-.06-.042-.276-.054-.312-.267-1.178-.765-2.292-1.464-3.277-.699-.986-1.586-1.823-2.61-2.465l-7.284-4.2h-.066c-.786-.501-1.692-.781-2.623-.812-.932-.031-1.854.188-2.672.636-.817.448-1.499 1.107-1.975 1.908-.475.802-.727 1.716-.728 2.648.002.284.028.567.078.846.013.107.034.213.06.318.527 2.372 1.972 4.439 4.02 5.748l7.29 4.2.06.03c.786.505 1.693.788 2.626.821s1.857-.187 2.676-.635 1.503-1.109 1.978-1.912c.475-.804.726-1.72.724-2.654z" fill="#fafafa" opacity=".7"/><path d="m214.758 105.894c0 2.49 1.866 5.58 4.164 6.906l7.278 4.2c2.298 1.326 4.164.384 4.164-2.1s-1.866-5.58-4.164-6.906l-7.284-4.2c-2.316-1.332-4.158-.39-4.158 2.1z" fill="#e0e0e0"/><path d="m215.844 102.948c-1.34.056-2.606.627-3.535 1.594s-1.449 2.255-1.451 3.596c.002.284.028.567.078.846.013.107.033.213.06.318.462 2.034 1.59 3.856 3.204 5.178-2.01-2.784-3.144-4.56-2.658-7.314.201-1.058.721-2.029 1.49-2.783s1.75-1.255 2.812-1.435z" fill="#fff"/><path d="m219.306 115.926c-.309-.22-.554-.518-.71-.864s-.218-.727-.178-1.104c.057-1.056.362-2.084.891-3.001.528-.916 1.265-1.695 2.151-2.273.308-.224.67-.361 1.048-.398.379-.037.761.028 1.106.188l3.912 2.262c.499.279.938.655 1.29 1.106.353.45.612.966.763 1.518.152.551.192 1.127.118 1.695-.073.567-.259 1.114-.546 1.609-.286.495-.669.928-1.124 1.273-.456.346-.976.598-1.53.741s-1.13.174-1.696.092-1.111-.276-1.601-.57z" fill="#f5f5f5"/><path d="m213.912 112.8c-.49-.283-.92-.66-1.264-1.11-.345-.449-.597-.961-.743-1.508-.147-.547-.184-1.117-.11-1.679.075-.561.259-1.102.542-1.592s.66-.92 1.109-1.264c.45-.344.962-.597 1.509-.743s1.117-.184 1.678-.109c.562.074 1.103.258 1.593.541l5.4 3.132c-.345-.16-.727-.225-1.106-.188-.378.037-.74.174-1.048.398-.886.578-1.623 1.357-2.151 2.273-.529.917-.834 1.945-.891 3.001-.04.377.022.758.178 1.104s.401.644.71.864z" fill="#516eb4"/><path d="m214.884 106.482c-.218.379-.278.829-.165 1.252.112.422.387.783.765 1.004l6.516 3.78c.548-.908.856-1.94.894-3 0-.102 0-.198 0-.294l-5.748-3.336c-.187-.111-.395-.183-.61-.213-.216-.031-.435-.018-.645.038-.211.055-.408.151-.581.283s-.318.298-.426.486z" fill="#fff" opacity=".4"/><path d="m219.306 115.926c-.309-.22-.554-.518-.71-.864s-.218-.727-.178-1.104c.057-1.056.362-2.084.891-3.001.528-.916 1.265-1.695 2.151-2.273.308-.224.67-.361 1.048-.398.379-.037.761.028 1.106.188l3.912 2.262c.499.279.938.655 1.29 1.106.353.45.612.966.763 1.518.152.551.192 1.127.118 1.695-.073.567-.259 1.114-.546 1.609-.286.495-.669.928-1.124 1.273-.456.346-.976.598-1.53.741s-1.13.174-1.696.092-1.111-.276-1.601-.57z" fill="#f5f5f5"/><path d="m221.46 108.684c-.886.578-1.623 1.357-2.151 2.273-.529.917-.834 1.945-.891 3.001-.039.377.022.758.178 1.104s.401.644.71.864l-.306-.174-.234-.138c-.31-.219-.556-.517-.712-.863s-.217-.728-.176-1.105c.057-1.056.362-2.084.891-3.001.528-.916 1.265-1.695 2.151-2.273.308-.224.67-.361 1.048-.398.379-.037.761.028 1.106.188l.54.312c-.345-.16-.727-.225-1.106-.188-.378.037-.74.174-1.048.398z" fill="#000" opacity=".1"/><path d="m229.65 114c.101.906-.09 1.821-.546 2.61-.283.492-.66.924-1.11 1.271-.45.346-.964.6-1.512.748-.549.148-1.121.186-1.684.112-.563-.073-1.106-.257-1.598-.541l-3.906-2.28c-.309-.22-.554-.518-.71-.864s-.217-.727-.178-1.104c.005-.446.067-.89.186-1.32l6.534 3.78c2.16 1.248 4.5-.984 4.524-2.412z" fill="#e0e0e0"/><path d="m228.162 114.18c-.219.377-.579.652-1.001.765-.422.112-.871.053-1.249-.165l-6.6-3.822c.512-.931 1.253-1.716 2.154-2.28l.264-.138 5.838 3.378c.378.222.653.584.765 1.008.111.424.05.875-.171 1.254z" fill="#fff"/><path d="m212.64 106.47c.049-.067.101-.131.156-.192.035-.047.073-.091.114-.132l.138-.138.144-.144.084-.066c.227-.196.474-.367.738-.51.095-.054.193-.102.294-.144-1.2.726-1.974 3.87.174 5.112.732.42 1.83 1.08 4.104 2.4-.119.43-.181.874-.186 1.32-.039.377.022.758.178 1.104s.401.644.71.864l-5.4-3.12c-.989-.572-1.71-1.513-2.006-2.617-.296-1.103-.142-2.279.428-3.269.072-.12.144-.228.222-.336.031-.048.067-.092.108-.132z" fill="#000" opacity=".1"/><path d="m257.676 130.53c-.001-.285-.023-.57-.066-.852 0-.06-.048-.27-.06-.312-.261-1.175-.752-2.287-1.444-3.273-.692-.985-1.571-1.824-2.588-2.469l-7.29-4.2-.066-.03c-.786-.501-1.693-.782-2.625-.812-.932-.031-1.855.189-2.672.638-.818.448-1.5 1.108-1.975 1.91s-.726 1.718-.726 2.65c.002.282.028.563.078.84 0 .066.042.228.06.318.526 2.373 1.972 4.44 4.02 5.748l7.29 4.2h.06c.786.505 1.693.788 2.626.821s1.857-.187 2.676-.635 1.503-1.109 1.978-1.912c.475-.804.726-1.72.724-2.654z" fill="#fafafa" opacity=".7"/><path d="m242.07 121.518c0 2.49 1.86 5.58 4.158 6.906l7.29 4.2c2.292 1.326 4.158.384 4.158-2.106s-1.866-5.58-4.158-6.906l-7.29-4.2c-2.298-1.326-4.158-.384-4.158 2.106z" fill="#e0e0e0"/><path d="m243.15 118.578c-1.34.054-2.608.625-3.537 1.592s-1.448 2.257-1.449 3.598c.002.282.028.563.078.84 0 .066.042.228.06.318.462 2.034 1.59 3.856 3.204 5.178-2.004-2.784-3.144-4.554-2.658-7.314.201-1.057.721-2.028 1.49-2.781s1.751-1.253 2.812-1.431z" fill="#fff"/><path d="m246.6 131.556c-.309-.221-.554-.521-.71-.867-.156-.347-.217-.729-.178-1.107.058-1.056.363-2.084.892-3 .528-.916 1.265-1.695 2.15-2.274.309-.222.671-.358 1.049-.395s.76.027 1.105.185l3.912 2.268c.49.283.92.66 1.264 1.11.345.449.597.961.743 1.508.147.547.184 1.117.11 1.679-.075.561-.258 1.102-.542 1.592-.283.49-.66.92-1.109 1.264-.45.344-.962.597-1.509.743s-1.117.184-1.678.109c-.562-.074-1.103-.258-1.593-.541z" fill="#f5f5f5"/><path d="m241.2 128.43c-.99-.572-1.712-1.514-2.007-2.618-.296-1.105-.14-2.281.432-3.271s1.514-1.712 2.618-2.007c1.105-.296 2.281-.14 3.271.432l5.4 3.132c-.346-.158-.727-.222-1.105-.185-.379.037-.741.173-1.049.395-.886.579-1.622 1.358-2.151 2.274-.528.916-.834 1.944-.891 3-.039.378.022.76.178 1.107.156.346.401.646.71.867z" fill="#516eb4"/><path d="m242.19 122.106c-.218.379-.278.829-.165 1.252.112.422.387.783.765 1.004l6.516 3.78c.549-.908.856-1.94.894-3 0-.102 0-.198 0-.294l-5.748-3.336c-.187-.11-.395-.182-.61-.212-.215-.029-.434-.016-.644.039-.211.055-.408.151-.581.283s-.318.296-.427.484z" fill="#fff" opacity=".4"/><path d="m246.6 131.556c-.309-.221-.554-.521-.71-.867-.156-.347-.217-.729-.178-1.107.058-1.056.363-2.084.892-3 .528-.916 1.265-1.695 2.15-2.274.309-.222.671-.358 1.049-.395s.76.027 1.105.185l3.912 2.268c.49.283.92.66 1.264 1.11.345.449.597.961.743 1.508.147.547.184 1.117.11 1.679-.075.561-.258 1.102-.542 1.592-.283.49-.66.92-1.109 1.264-.45.344-.962.597-1.509.743s-1.117.184-1.678.109c-.562-.074-1.103-.258-1.593-.541z" fill="#f5f5f5"/><path d="m248.766 124.308c-.885.579-1.622 1.358-2.151 2.274-.528.916-.833 1.944-.891 3-.039.378.022.76.178 1.107.156.346.401.646.71.867l-.306-.18-.234-.132c-.31-.221-.556-.52-.712-.867s-.216-.729-.176-1.107c.058-1.056.363-2.084.891-3 .529-.916 1.266-1.695 2.151-2.274.308-.224.67-.361 1.049-.398.378-.037.76.028 1.105.188l.54.312c-.346-.158-.727-.222-1.105-.185s-.74.173-1.049.395z" fill="#000" opacity=".1"/><path d="m256.956 129.642c.101.906-.09 1.821-.546 2.61-.572.99-1.514 1.713-2.619 2.009s-2.282.141-3.273-.431l-3.918-2.274c-.309-.221-.554-.521-.71-.867-.156-.347-.217-.729-.178-1.107.005-.446.067-.89.186-1.32l6.534 3.78c2.16 1.242 4.5-.99 4.524-2.4z" fill="#e0e0e0"/><path d="m255.468 129.804c-.108.187-.252.352-.424.483-.171.132-.367.228-.576.284s-.427.07-.642.041c-.214-.029-.421-.099-.608-.208l-6.618-3.804c.513-.93 1.255-1.715 2.154-2.28l.264-.132 5.838 3.378c.376.217.651.574.766.993.114.419.059.866-.154 1.245z" fill="#fff"/><path d="m239.946 122.094c.049-.067.101-.131.156-.192.036-.042.072-.09.114-.132l.138-.138.15-.144.078-.066c.227-.194.475-.363.738-.504.093-.055.189-.103.288-.144-1.2.732-1.974 3.87.174 5.112.732.426 1.836 1.08 4.104 2.4-.119.43-.181.874-.186 1.32-.039.378.022.76.178 1.107.156.346.401.646.71.867l-5.4-3.126c-.49-.283-.92-.659-1.264-1.108-.345-.449-.597-.962-.743-1.509s-.183-1.117-.108-1.678.259-1.101.543-1.591c.067-.116.139-.228.216-.336z" fill="#000" opacity=".1"/><path d="m192.63 96.78c-1.735-.9949-3.54-1.8631-5.4-2.598-1.719-.6635-3.2-1.8282-4.249-3.3431-1.05-1.5149-1.62-3.3101-1.637-5.1529v-10.368h-33.852v10.368c-.012 1.847-.581 3.6474-1.632 5.1662s-2.536 2.6855-4.26 3.3478c-1.86.7349-3.665 1.6031-5.4 2.598-7.8 4.5-11.682 10.398-11.682 16.29v78.18c0 5.892 3.894 11.79 11.682 16.29 15.6 9 40.842 9 56.4 0 7.8-4.5 11.688-10.392 11.688-16.29v-78.198c.03-5.898-3.888-11.79-11.658-16.29z" fill="#516eb4"/><path d="m192.63 96.78c-1.735-.9949-3.54-1.8631-5.4-2.598-1.719-.6635-3.2-1.8282-4.249-3.3431-1.05-1.5149-1.62-3.3101-1.637-5.1529v-10.368h-33.852v10.368c-.012 1.847-.581 3.6474-1.632 5.1662s-2.536 2.6855-4.26 3.3478c-1.86.7349-3.665 1.6031-5.4 2.598-7.8 4.5-11.682 10.398-11.682 16.29v78.18c0 5.892 3.894 11.79 11.682 16.29 15.6 9 40.842 9 56.4 0 7.8-4.5 11.688-10.392 11.688-16.29v-78.198c.03-5.898-3.888-11.79-11.658-16.29z" fill="#fff" opacity=".7"/><path d="m164.442 214.29c22.019 0 39.87-10.205 39.87-22.794s-17.851-22.794-39.87-22.794c-22.02 0-39.87 10.205-39.87 22.794s17.85 22.794 39.87 22.794z" fill="#516eb4"/><path d="m164.442 214.29c22.019 0 39.87-10.205 39.87-22.794s-17.851-22.794-39.87-22.794c-22.02 0-39.87 10.205-39.87 22.794s17.85 22.794 39.87 22.794z" fill="#fff" opacity=".5"/><path d="m184.578 86.22c-7.338-4.236-17.706-5.676-27.114-4.302v-6.6h-9.972v10.362c-.01 1.8482-.578 3.6503-1.629 5.1704-1.052 1.5202-2.537 2.6876-4.263 3.3496-1.858.7407-3.662 1.6087-5.4 2.598-.066 0-.12.078-.192.108-7.668 4.488-11.49 10.332-11.49 16.2v78.138c0 5.904 3.894 11.79 11.682 16.29 11.208 6.474 27.42 8.262 41.436 5.43-32.436 2.226-40.236-11.526-40.236-21.474v-76.014c0-3.51.528-6.408 3-8.85 1.201 1.099 2.524 2.057 3.942 2.856 11.13 6.42 29.16 6.42 40.278 0s11.088-16.83-.042-23.262z" fill="#fff" opacity=".4"/><path d="m192.63 96.78c-1.735-.9949-3.54-1.8631-5.4-2.598-1.719-.6635-3.2-1.8282-4.249-3.3431-1.05-1.5149-1.62-3.3101-1.637-5.1529v-10.368h-3.696v13.878c0 3.198 2.754 6.24 5.94 7.98s13.314 6.138 15.768 10.95c2.34 4.578 1.578 13.68 1.578 24.48v55.2c0 7.008-2.922 17.148-15.936 23.244 2.645-.903 5.202-2.048 7.638-3.42 7.8-4.5 11.682-10.158 11.682-16.362v-78.198c0-5.898-3.918-11.79-11.688-16.29z" fill="#fff" opacity=".4"/><path d="m192.93 89.868v2.952c0 4.2-2.766 8.436-8.352 11.67-11.118 6.414-29.142 6.414-40.29 0-2.454-1.34-4.585-3.199-6.246-5.448-1.32-1.7883-2.046-3.9455-2.076-6.168v-3.066c-.009-.643.066-1.2844.222-1.908.69-3.564 3.402-7.02 8.1-9.732.134-.0845.275-.1587.42-.222 11.166-6.192 28.89-6.108 39.87.222 4.698 2.712 7.44 6.168 8.13 9.708.157.6521.232 1.3213.222 1.992z" fill="#f0f0f0"/><path d="m166.8 106.236v-10.482c0-4.146 1.05 1.464-6.222 1.464-6.306 0-11.916-14.544-15.84-19.272-.146.0633-.286.1375-.42.222-4.698 2.712-7.41 6.168-8.1 9.732-.157.6236-.231 1.265-.222 1.908v3.066c.03 2.2225.756 4.3797 2.076 6.168 1.66 2.249 3.792 4.108 6.246 5.448 11.148 6.414 29.172 6.414 40.29 0-7.884 3.096-17.808 5.7-17.808 1.746z" fill="#e0e0e0"/><path d="m164.442 106.248c15.73 0 28.482-7.3631 28.482-16.446s-12.752-16.446-28.482-16.446-28.482 7.3631-28.482 16.446 12.752 16.446 28.482 16.446z" fill="#455a64"/><path d="m192.93 79.992v5.892c.009.6706-.066 1.3398-.222 1.992-.69 3.54-3.432 6.996-8.13 9.702-4.98 2.88-11.334 4.452-17.808 4.734-8.046.384-16.314-1.2-22.482-4.758-2.443-1.3343-4.573-3.1755-6.246-5.4-.915-1.268-1.543-2.7194-1.842-4.254-.157-.6318-.231-1.2812-.222-1.932v-6.03c0-4.2 2.766-8.4 8.322-11.64.498-.276.996-.552 1.524-.804 11.196-5.61 28.146-5.334 38.766.804 5.574 3.234 8.364 7.464 8.34 11.694z" fill="#f0f0f0"/><path d="m164.442 96.24c15.73 0 28.482-7.3631 28.482-16.446s-12.752-16.446-28.482-16.446-28.482 7.3631-28.482 16.446 12.752 16.446 28.482 16.446z" fill="#fafafa"/><path d="m138.042 92.136c1.673 2.2245 3.803 4.0657 6.246 5.4 6.168 3.564 14.436 5.142 22.482 4.758.078-2.07 1.236-3.654-6.222-5.094-6.192-1.2-15.348-3.768-19.62-10.536-3.924-6.222-1.668-14.4 4.884-19.2-.528.252-1.026.528-1.524.804-5.556 3.21-8.322 7.41-8.322 11.64v6.03c-.009.6508.065 1.3002.222 1.932.301 1.5398.934 2.9955 1.854 4.266z" fill="#e0e0e0"/><path d="m192.768 141.318c-15.654 8.952-41.034 8.952-56.688 0-7.83-4.47-11.742-10.338-11.742-16.2v38.712c0 5.862 3.912 11.73 11.742 16.2 15.654 8.952 41.034 8.952 56.688 0 7.83-4.47 11.742-10.338 11.742-16.2v-38.712c0 5.862-3.912 11.73-11.742 16.2z" fill="#516eb4"/><path d="m192.768 137.61c-15.654 8.946-41.034 8.946-56.688 0-7.83-4.476-11.742-10.338-11.742-16.2v38.712c0 5.868 3.912 11.73 11.742 16.2 15.654 8.946 41.034 8.946 56.688 0 7.83-4.476 11.742-10.338 11.742-16.2v-38.718c0 5.868-3.912 11.73-11.742 16.206z" fill="#fafafa"/><path d="m151.422 160.434c-.035-2.422-.553-4.813-1.524-7.032v-.048c-1.11-2.532-2.718-4.656-4.506-5.688-2.61-1.5-4.8.966-5.67 4.416-.084.348-.492.366-.546 0-.792-4.5-3.072-9.774-5.76-11.31-1.8-1.026-3.396-.75-4.5.516-.942 1.104-1.518 2.922-1.512 5.292 0 7.344 4.434 13.938 8.142 20.88l4.002 6.702 3.804-2.22c3.648-2.646 8.082-4.164 8.07-11.508z" fill="#516eb4"/><path d="m133.938 158.034 1.71-4.482c.041-.143.128-.268.247-.356.12-.089.264-.137.413-.136.15.001.294.053.41.148s.196.227.226.374l2.646 10.29 2.106-5.76c.049-.132.137-.244.253-.323.117-.079.255-.119.395-.115.138.009.27.06.377.147.108.087.186.206.223.339l1.566 5.568 5.442 3.138-.126.192c-.187.26-.387.511-.6.75l-.114.132-5.526-3.192c-.151-.086-.261-.229-.306-.396l-1.08-3.834-2.19 6c-.05.136-.143.251-.264.33s-.264.117-.408.108c-.143-.011-.279-.068-.387-.162s-.183-.22-.213-.36l-2.538-9.9-1.2 2.694c-.027.098-.076.189-.144.265s-.152.135-.246.173c-.096.041-.2.058-.304.052-.105-.006-.206-.036-.296-.088l-4.35-2.514-.03-.06c-.21-.474-.414-.942-.6-1.416l-.228-.564z" fill="#fafafa"/><path d="m164.724 157.962c-1.53 0-3.072-.048-4.638-.144-.158-.011-.306-.084-.41-.203-.105-.119-.158-.275-.148-.433.011-.158.084-.306.203-.41.119-.105.275-.158.433-.148 10.542.642 20.4-.942 28.536-4.59.072-.032.15-.05.229-.052.079-.003.157.011.231.039s.142.07.199.125c.058.054.104.119.136.191s.05.15.052.229c.003.079-.011.157-.039.231s-.07.142-.125.199c-.054.057-.119.104-.191.136-7.092 3.186-15.48 4.83-24.468 4.83z" fill="#e0e0e0"/><path d="m164.724 164.478c-1.53 0-3.072-.048-4.638-.144-.158-.011-.306-.084-.41-.203-.105-.119-.158-.275-.148-.433.011-.158.084-.306.203-.41.119-.105.275-.158.433-.148 10.542.642 20.4-.942 28.536-4.59.146-.065.311-.07.46-.013s.27.17.335.316.07.311.013.46-.17.27-.316.335c-7.092 3.186-15.48 4.83-24.468 4.83z" fill="#e0e0e0"/><path d="m164.724 171c-1.53 0-3.072-.048-4.638-.144-.159-.01-.308-.083-.413-.203s-.159-.277-.148-.436c.01-.159.083-.308.203-.413s.277-.158.436-.148c10.542.648 20.4-.936 28.536-4.584.145-.065.309-.07.458-.014.148.057.268.169.334.314.033.072.051.15.054.229s-.01.158-.038.233c-.028.074-.07.142-.124.199-.055.058-.12.105-.192.137-7.092 3.174-15.48 4.83-24.468 4.83z" fill="#e0e0e0"/><path d="m143.016 253.506c-.063-.185-.139-.366-.228-.54-.075-.149-.159-.293-.252-.432-.433-.627-.978-1.168-1.608-1.596v1.662l-1.422-.828v-1.65c-3.96-1.878-9.816-1.74-13.512.39-1.254.634-2.236 1.699-2.766 3 0 .096-.054.186-.078.282-.071.272-.108.553-.108.834v3.294c.013.789.27 1.554.738 2.19.592.793 1.347 1.45 2.214 1.926 3.942 2.274 10.326 2.274 14.256 0 1.968-1.14 2.958-2.628 2.958-4.116v-3.294c-.001-.382-.066-.761-.192-1.122z" fill="#f0f0f0"/><path d="m136.284 249.096c-3.498-.666-7.506-.198-10.29 1.41-1.254.634-2.236 1.699-2.766 3 0 .096-.054.186-.078.282-.071.272-.108.553-.108.834v3.294c.013.789.27 1.554.738 2.19.592.793 1.347 1.45 2.214 1.926 2.784 1.608 6.792 2.07 10.29 1.404z" fill="#ebebeb"/><path d="m126 250.506c-3.696 2.136-3.924 5.514-.678 7.8l14.184-8.19c-3.96-1.872-9.81-1.716-13.506.39z" fill="#fafafa"/><path d="m125.316 257.442s-3.918-3 .438-6.786c-3.456 2.136-3.6 5.4-.432 7.65l14.184-8.19z" fill="#fff"/><path d="m140.928 250.938-14.184 8.19c3.96 1.872 9.816 1.746 13.512-.39s3.918-5.538.672-7.8z" fill="#fafafa"/><path d="m126.744 259.128c3.96 1.872 9.816 1.746 13.512-.39.411-.235.801-.506 1.164-.81-7.254 3.636-13.086 1.074-13.086 1.074l12.6-8.064z" fill="#fff"/><path d="m139.506 251.766-14.184 8.226v-1.686l14.184-8.19z" fill="#e0e0e0"/><path d="m126.744 259.128.006 1.686-1.428-.822z" fill="#000" opacity=".2"/><path d="m147 248.226c-.062-.188-.138-.37-.228-.546-.078-.147-.164-.289-.258-.426-.43-.627-.974-1.168-1.602-1.596v1.65l-1.428-.828v-1.65c-3.96-1.872-9.81-1.74-13.506.396-1.257.63-2.24 1.697-2.766 3-.03.096-.06.186-.084.276-.067.273-.101.553-.102.834v3.3c.012.789.27 1.554.738 2.19.59.793 1.346 1.448 2.214 1.92 3.936 2.274 10.32 2.274 14.256 0 1.968-1.134 2.952-2.622 2.952-4.11v-3.3c0-.378-.063-.753-.186-1.11z" fill="#f0f0f0"/><path d="m140.238 243.81c-3.504-.666-7.506-.192-10.29 1.416-1.256.63-2.24 1.697-2.766 3-.03.096-.06.186-.084.276-.066.273-.101.553-.102.834v3.3c.013.789.271 1.554.738 2.19.591.793 1.346 1.448 2.214 1.92 2.784 1.608 6.786 2.076 10.29 1.41z" fill="#ebebeb"/><path d="m129.948 245.226c-3.696 2.13-3.924 5.508-.678 7.8l14.184-8.184c-3.96-1.884-9.81-1.752-13.506.384z" fill="#fafafa"/><path d="m129.27 252.162s-3.918-3 .438-6.792c-3.462 2.142-3.6 5.4-.438 7.65l14.184-8.184z" fill="#fff"/><path d="m144.882 245.658-14.184 8.19c3.96 1.872 9.81 1.74 13.506-.396s3.918-5.508.678-7.794z" fill="#fafafa"/><path d="m130.698 253.848c3.96 1.872 9.81 1.74 13.506-.396.411-.233.8-.502 1.164-.804-7.248 3.63-13.086 1.068-13.086 1.068l12.6-8.058z" fill="#fff"/><path d="m143.454 246.48-14.184 8.232v-1.692l14.184-8.184z" fill="#e0e0e0"/><path d="m130.698 253.848v1.686l-1.428-.822z" fill="#000" opacity=".2"/><path d="m171.936 257.028c-.6-.348-.978-1.098-.978-2.166.063-1.162.399-2.293.981-3.301s1.393-1.865 2.367-2.501c.338-.245.735-.396 1.15-.437.416-.042.835.029 1.214.203l4.308 2.496c1.088.629 1.882 1.665 2.207 2.88s.153 2.509-.476 3.597-1.665 1.882-2.88 2.207-2.509.153-3.597-.476z" fill="#f5f5f5"/><path d="m166.002 253.596c-.583-.288-1.101-.692-1.521-1.187-.42-.496-.734-1.073-.922-1.695s-.247-1.276-.172-1.921c.075-.646.282-1.269.607-1.832.326-.562.764-1.051 1.286-1.438.523-.386 1.119-.661 1.752-.807.634-.147 1.29-.162 1.929-.044s1.247.366 1.787.728l5.922 3.444c-.38-.174-.798-.245-1.214-.203-.415.041-.812.192-1.15.437-.975.636-1.786 1.493-2.367 2.501-.582 1.008-.918 2.139-.981 3.301 0 1.068.372 1.8.978 2.166z" fill="#516eb4"/><path d="m167.07 246.642c-.121.206-.2.433-.233.67-.032.236-.017.477.044.707.062.231.168.447.314.636s.328.347.535.465l7.17 4.158c.604-1 .943-2.138.984-3.306 0-.114 0-.222 0-.324l-6.336-3.648c-.204-.122-.431-.202-.667-.236-.235-.033-.476-.02-.706.04-.23.059-.447.164-.636.308-.19.144-.349.324-.469.53z" fill="#fff" opacity=".4"/><path d="m171.936 257.028c-.6-.348-.978-1.098-.978-2.166.063-1.162.399-2.293.981-3.301s1.393-1.865 2.367-2.501c.338-.245.735-.396 1.15-.437.416-.042.835.029 1.214.203l4.308 2.496c1.088.629 1.882 1.665 2.207 2.88s.153 2.509-.476 3.597-1.665 1.882-2.88 2.207-2.509.153-3.597-.476z" fill="#f5f5f5"/><path d="m174.306 249.06c-.975.636-1.786 1.493-2.367 2.501-.582 1.008-.918 2.139-.981 3.301 0 1.068.372 1.8.978 2.166l-.336-.192-.258-.15c-.6-.348-.978-1.098-.978-2.166.062-1.162.397-2.294.979-3.302s1.393-1.865 2.369-2.5c.338-.245.735-.396 1.15-.437.416-.042.834.029 1.214.203l.6.342c-.38-.175-.8-.246-1.217-.205s-.815.193-1.153.439z" fill="#000" opacity=".1"/><path d="m183.312 254.922c.113.998-.097 2.005-.6 2.874-.311.54-.726 1.013-1.22 1.392s-1.059.657-1.661.818c-.601.161-1.229.202-1.847.12-.617-.081-1.213-.284-1.752-.596l-4.296-2.502c-.6-.348-.978-1.098-.978-2.166.005-.491.073-.979.204-1.452l7.2 4.158c2.352 1.368 4.926-1.092 4.95-2.646z" fill="#ebebeb"/><path d="m181.68 255.108c-.118.207-.276.389-.465.535s-.405.252-.636.314c-.23.061-.471.076-.707.044-.237-.033-.464-.112-.67-.233l-7.266-4.2c.561-1.026 1.377-1.89 2.37-2.508l.288-.15 6.42 3.714c.209.118.392.276.539.465.146.189.254.406.316.637s.077.473.045.71c-.033.237-.112.466-.234.672z" fill="#fff"/><path d="m164.604 246.6c.054-.072.108-.144.168-.21l.126-.144.15-.156c.053-.055.109-.107.168-.156l.084-.072c.25-.213.522-.4.81-.558l.318-.156c-1.326.798-2.166 4.254.192 5.622.81.468 2.022 1.2 4.518 2.628-.131.473-.2.961-.204 1.452 0 1.068.372 1.8.978 2.166l-5.934-3.432c-1.089-.63-1.883-1.666-2.208-2.881s-.155-2.51.474-3.599c.072-.126.156-.246.24-.366z" fill="#000" opacity=".1"/><path d="m247.506 240.978c.342-.242.613-.571.786-.953.173-.381.241-.802.198-1.219-.064-1.161-.4-2.291-.982-3.298-.581-1.007-1.392-1.863-2.366-2.498-.924-.534-1.764-.6-2.37-.234l-4.302 2.49c-1.089.629-1.884 1.664-2.21 2.879-.326 1.214-.156 2.509.473 3.598.628 1.089 1.664 1.884 2.879 2.21 1.214.326 2.509.156 3.598-.473z" fill="#f5f5f5"/><path d="m253.44 237.546c1.089-.629 1.884-1.664 2.21-2.879.326-1.214.156-2.509-.473-3.598s-1.664-1.884-2.879-2.21c-1.214-.326-2.509-.156-3.598.473l-5.928 3.468c.6-.354 1.446-.3 2.37.234.974.635 1.785 1.491 2.366 2.498.582 1.007.918 2.137.982 3.298.043.417-.025.837-.198 1.219s-.444.711-.786.953z" fill="#516eb4"/><path d="m252.378 230.586c.121.206.2.434.232.671.031.236.016.477-.046.708-.062.23-.169.446-.316.635-.146.189-.328.346-.536.464l-7.164 4.158c-.605-1-.943-2.138-.984-3.306 0-.108 0-.216 0-.324l6.324-3.672c.206-.123.435-.203.673-.236s.48-.018.712.044.45.17.639.317c.19.148.348.332.466.541z" fill="#fff" opacity=".4"/><path d="m247.506 240.978c.342-.242.613-.571.786-.953.173-.381.241-.802.198-1.219-.064-1.161-.4-2.291-.982-3.298-.581-1.007-1.392-1.863-2.366-2.498-.924-.534-1.764-.6-2.37-.234l-4.302 2.49c-1.089.629-1.884 1.664-2.21 2.879-.326 1.214-.156 2.509.473 3.598.628 1.089 1.664 1.884 2.879 2.21 1.214.326 2.509.156 3.598-.473z" fill="#f5f5f5"/><path d="m245.142 233.01c.974.635 1.785 1.491 2.366 2.498.582 1.007.918 2.137.982 3.298.043.417-.025.838-.198 1.219-.173.382-.444.711-.786.953l.342-.198.252-.15c.342-.241.614-.568.787-.949s.241-.801.197-1.217c-.063-1.161-.399-2.291-.981-3.298s-1.393-1.863-2.367-2.498c-.338-.246-.736-.398-1.152-.44-.417-.042-.837.027-1.218.2l-.6.348c.612-.354 1.434-.3 2.376.234z" fill="#000" opacity=".1"/><path d="m236.13 238.872c-.095.87.054 1.749.428 2.54.375.791.962 1.462 1.696 1.94.733.477 1.585.742 2.46.765.875.022 1.739-.198 2.496-.637l4.296-2.502c.342-.242.613-.571.786-.953.173-.381.241-.802.198-1.219-.007-.489-.077-.975-.21-1.446l-7.2 4.158c-2.352 1.362-4.92-1.092-4.95-2.646z" fill="#ebebeb"/><path d="m237.768 239.052c.118.208.275.39.464.537.189.146.405.253.636.315.23.062.471.077.708.046.236-.032.464-.111.67-.232l7.266-4.2c-.564-1.022-1.38-1.883-2.37-2.502-.095-.056-.193-.106-.294-.15l-6.42 3.714c-.206.118-.388.276-.533.464-.145.189-.251.404-.313.634-.061.23-.076.47-.044.706s.11.463.23.668z" fill="#fff"/><path d="m254.844 230.574-.168-.216-.132-.144-.15-.15-.162-.156-.084-.072c-.251-.215-.525-.402-.816-.558l-.318-.156c1.332.804 2.172 4.26-.192 5.622-.81.468-2.016 1.2-4.518 2.634.132.471.203.957.21 1.446.043.417-.025.838-.198 1.219-.173.382-.444.711-.786.953l5.934-3.432c.539-.311 1.012-.726 1.392-1.22.379-.495.657-1.059.818-1.661.161-.601.202-1.229.12-1.847-.081-.617-.284-1.213-.596-1.752-.072-.126-.15-.252-.234-.372z" fill="#000" opacity=".1"/><path d="m226.446 185.322c0-2.862-1.89-5.73-5.676-7.914-7.566-4.368-19.836-4.368-27.402 0-3.786 2.184-5.676 5.052-5.676 7.914v49.746c0 2.862 1.89 5.724 5.676 7.908 7.566 4.374 19.836 4.374 27.402 0 3.786-2.184 5.676-5.046 5.676-7.908z" fill="#516eb4"/><path d="m219 176.514v67.362c.615-.26 1.216-.552 1.8-.876 1.126-.636 2.161-1.421 3.078-2.334v-60.918c-.918-.913-1.953-1.7-3.078-2.34-.6-.324-1.2-.618-1.8-.894z" fill="#fff" opacity=".4"/><path d="m213.918 245.526c.942-.207 1.873-.461 2.79-.762v-69.138c-.916-.303-1.847-.558-2.79-.762z" fill="#fff" opacity=".4"/><path d="m226.11 183.258c-1.202-1.616-2.739-2.952-4.506-3.918-7.47-4.314-19.254-4.608-27.324-.894v-1.512c-.306.156-.6.306-.912.474-3.786 2.184-5.676 5.052-5.676 7.914v7.572 31.326 10.848c0 2.862 1.89 5.724 5.676 7.908 7.566 4.374 19.836 4.374 27.402 0 1.283-.718 2.449-1.628 3.456-2.7-3.6 3.366-12.6 5.22-19.242 3.906s-10.704-5.562-10.704-8.586v-9.852c3.738 2.022 8.628 3 13.404 3v-20.124c-4.8 0-9.666-.738-13.404-2.748v-8.856c8.07 3.714 19.854 3.42 27.324-.894 1.966-1.057 3.632-2.595 4.842-4.47v-6.33c-.002-.701-.116-1.398-.336-2.064z" fill="#000" opacity=".1"/><path d="m190.962 236.454v-57.354c-2.178 1.878-3.27 4.05-3.27 6.222v49.746c0 2.862 1.89 5.724 5.676 7.908 2.293 1.275 4.777 2.171 7.356 2.652-7.278-1.974-9.762-6.948-9.762-9.174z" fill="#000" opacity=".1"/><path d="m227.622 176.472c0-3.036-2.004-6.078-6-8.4-8.028-4.632-21.042-4.632-29.07 0-4.014 2.316-6 5.358-6 8.4v9.108c0 3.036 2.004 6.078 6 8.4 8.028 4.632 21.042 4.632 29.07 0 4.014-2.316 6-5.358 6-8.4z" fill="#e0e0e0"/><g fill="#000" mask="url(#a)"><g opacity=".2"><path d="m228.114 175.626h-.984v14.172h.984z"/><path d="m225.846 179.454h-.984v14.25h.984z"/><path d="m222.414 182.088h-.984v14.322h.984z"/><path d="m218.502 183.726h-.984v14.4h.984z"/><path d="m214.2 184.818h-.984v14.478h.984z"/><path d="m209.646 185.364h-.984v14.556h.984z"/><path d="m205.02 185.346h-.984v14.628h.984z"/><path d="m200.508 184.746h-.984v14.706h.984z"/><path d="m196.278 183.528h-.984v14.784h.984z"/><path d="m192.444 181.644h-.984v14.862h.984z"/><path d="m189.402 179.022h-.984v14.934h.984z"/><path d="m187.008 174.786h-.984v15.012h.984z"/></g><path d="m211.986 197.088c-10.17.06-15.54-3.246-17.166-5.94-1.242-2.052-1.452-5.832-1.452-9.6 0 0-1.146-8.544-.924-8.568s-2.442-.6-4.416-.996c-.959 1.295-1.488 2.859-1.512 4.47v9.126c0 3.036 2.004 6.078 6 8.4 5.292 3.036 12.72 4.068 19.47 3.108z" opacity=".1"/></g><path d="m207.066 188.34c11.353 0 20.556-5.313 20.556-11.868s-9.203-11.868-20.556-11.868-20.556 5.313-20.556 11.868 9.203 11.868 20.556 11.868z" fill="#ebebeb"/><path d="m222.708 184.158c6.888-4.662 6.528-11.67-1.104-16.08-3.912-2.256-9-3.408-14.142-3.462-2.63.409-5.168 1.274-7.5 2.556-6.936 3.966-6.936 11.886 0 15.852 6.192 3.54 15.816 3.912 22.746 1.134z" fill="#f5f5f5"/><path d="m194.484 242.094c6.948 3.492 18.222 3.492 25.17 0s6.954-9.156 0-12.648-18.222-3.492-25.17 0-6.954 9.156 0 12.648z" fill="#000" opacity=".1"/><path d="m187.692 198.396c0 2.862 1.89 5.724 5.676 7.908s8.742 3.276 13.698 3.276v19.722c-4.956 0-9.918-1.092-13.698-3.276s-5.676-5.046-5.676-7.908z" fill="#fff"/><path d="m188.088 181.026s6.684 6.732 19.596 6.378 18.084-7.404 18.762-9.6c.348-1.287.371-2.641.067-3.939-.304-1.299-.925-2.501-1.807-3.501.874.765 1.583 1.7 2.084 2.748.502 1.048.784 2.187.832 3.348v9.12c0 .768.396 3.42-3.774 6.852 0 0 2.448-2.778 2.448-5.448v-6.3s-4.572 7.644-18.6 7.644-18.9-6.156-19.608-7.302z" fill="#fff"/><path d="m101.928 198.846c-.09-2.262 1.716-24.564 1.716-24.564l-10.8002 7.152c1.14 13.05 1.8779 17.136 1.9199 19.314-.0503.181-.0706.37-.06.558 0 2.58 3.204 3.972 5.7003 5.694 2.132 1.524 4.388 2.866 6.744 4.014 1.8.828 5.49.906 5.946-.156-3.036-2.112-7.452-5.274-9.864-7.686-1.17-1.152-1.23-2.064-1.302-4.326z" fill="#ffa8a7"/><path d="m118.248 213.636c.156 0 .39 1.56-.456 2.226-.978.768-3.84 2.028-7.62 1.578s-5.832-1.512-7.35-2.67-3.6363-2.784-5.3463-3.126c-1.59-.318-3.318-.978-3.822-1.422s-.438-2.442-.438-2.442z" fill="#455a64"/><path d="m94.722 200.118c-.1379-.004-.2728.04-.3821.124-.1093.085-.1862.204-.2179.338-.12.552-.246 2.148-.492 3.048-.392 1.58-.5177 3.215-.372 4.836.204 1.02 2.796 1.728 4.452 2.304 1.9278.766 3.734 1.807 5.364 3.09 1.8 1.338 5.52 2.73 7.986 2.712 2.916 0 6.204-.882 6.954-2.112.93-1.53.204-2.4-4.122-4.236-.822-.348-3.696-1.902-4.68-2.466-2.652-1.518-5.274-3.636-6.498-6.33-.096-.336-.309-.628-.6-.822-.269-.105-.563-.13-.846-.072-.717.092-1.4179.284-2.082.57-.6.252-1.404.546-1.392 1.2.0168.238.0736.471.168.69.048.138.09.324-.042.402s-.294 0-.408-.102c-.4217-.392-.811-.817-1.164-1.272-.2011-.239-.4308-.453-.684-.636-.2537-.133-.5-.279-.738-.438-.252-.216-.192-.51-.204-.828z" fill="#516eb4"/><path d="m94.722 200.118c-.1379-.004-.2728.04-.3821.124-.1093.085-.1862.204-.2179.338-.12.552-.246 2.148-.492 3.048-.392 1.58-.5177 3.215-.372 4.836.204 1.02 2.796 1.728 4.452 2.304 1.9278.766 3.734 1.807 5.364 3.09 1.8 1.338 5.52 2.73 7.986 2.712 2.916 0 6.204-.882 6.954-2.112.93-1.53.204-2.4-4.122-4.236-.822-.348-3.696-1.902-4.68-2.466-2.652-1.518-5.274-3.636-6.498-6.33-.096-.336-.309-.628-.6-.822-.269-.105-.563-.13-.846-.072-.717.092-1.4179.284-2.082.57-.6.252-1.404.546-1.392 1.2.0168.238.0736.471.168.69.048.138.09.324-.042.402s-.294 0-.408-.102c-.4217-.392-.811-.817-1.164-1.272-.2011-.239-.4308-.453-.684-.636-.2537-.133-.5-.279-.738-.438-.252-.216-.192-.51-.204-.828z" fill="#fff" opacity=".9"/><path d="m103.104 213.858c-.75-.564-1.554-1.116-2.358-1.602 0 0 5.088 2.82 7.146 1.542 1.32-.828.69-1.83.66-2.148s3.234-1.692 4.524-1.83c.354.18.654.324.846.408 4.326 1.8 5.052 2.706 4.122 4.236-.75 1.23-3.132 2.196-6.9 2.196-2.466-.006-6.258-1.464-8.04-2.802z" fill="#516eb4"/><path d="m103.104 213.858c-.75-.564-1.554-1.116-2.358-1.602 0 0 5.088 2.82 7.146 1.542 1.32-.828.69-1.83.66-2.148s3.234-1.692 4.524-1.83c.354.18.654.324.846.408 4.326 1.8 5.052 2.706 4.122 4.236-.75 1.23-3.132 2.196-6.9 2.196-2.466-.006-6.258-1.464-8.04-2.802z" fill="#fff" opacity=".8"/><path d="m108.198 210.708c2.688.984 1.542 1.44.786 1.542s-5.28-2.316-8.04-4.308c-2.88-2.076-4.698-4.35-5.766-5.112-.402-.282-.828-.63-1.2-.96.072-.54.132-1.032.186-1.29.0317-.134.1086-.253.2179-.338.1093-.084.2443-.128.3821-.124 0 .318-.048.6.216.852.238.159.4843.305.738.438.2532.183.4829.397.684.636.353.455.7423.88 1.164 1.272 2.31 2.718 7.938 6.414 10.632 7.392z" fill="#516eb4"/><path d="m108.792 211.884c-.06-.001-.119-.02-.168-.054-.027-.019-.049-.043-.066-.071-.016-.028-.026-.059-.03-.092-.003-.032 0-.065.011-.096.01-.031.027-.059.049-.083.659-.614 1.435-1.089 2.281-1.398.846-.31 1.745-.446 2.645-.402.067.005.13.036.175.086s.068.117.065.184c-.012.067-.049.127-.104.167-.054.04-.123.058-.19.049-1.639-.078-3.241.496-4.458 1.596-.025.032-.057.059-.093.079-.036.019-.076.031-.117.035z" fill="#fafafa"/><path d="m106.446 210.6c-.06 0-.119-.019-.168-.054-.027-.019-.049-.043-.066-.071-.016-.028-.027-.059-.03-.092-.003-.032 0-.065.01-.096.011-.031.028-.059.05-.083.658-.615 1.434-1.091 2.28-1.4s1.746-.445 2.646-.4c.033.001.066.008.096.022.031.014.058.034.08.058.023.025.04.054.051.086.011.031.015.065.013.098-.011.068-.047.128-.103.169-.055.04-.124.057-.191.047-1.638-.076-3.24.498-4.458 1.596-.024.034-.055.063-.092.084-.036.02-.077.033-.118.036z" fill="#fafafa"/><path d="m104.1 209.322c-.06 0-.119-.018-.168-.054-.027-.019-.049-.043-.066-.071-.016-.028-.026-.059-.03-.092-.003-.032 0-.065.011-.096.01-.031.027-.059.049-.083.661-.609 1.438-1.08 2.284-1.384s1.744-.435 2.642-.386c.034.001.067.008.097.023.031.014.058.034.08.06.022.025.039.055.049.087.009.033.012.067.008.1s-.015.065-.032.094c-.017.028-.04.053-.067.073-.027.019-.057.033-.09.041-.032.007-.066.008-.099.002-1.638-.076-3.24.498-4.458 1.596-.027.029-.059.052-.095.067-.037.016-.076.023-.115.023z" fill="#fafafa"/><path d="m101.928 207.9c-.06 0-.119-.018-.168-.054-.026-.019-.049-.043-.065-.071-.017-.028-.027-.059-.031-.091s-.001-.065.008-.096.025-.059.046-.084c.663-.609 1.44-1.079 2.287-1.383s1.746-.435 2.645-.387c.033.002.065.01.095.024.029.014.056.034.078.059.022.024.038.053.049.084.01.031.014.064.012.097-.01.068-.047.128-.102.169-.055.04-.124.057-.192.047-1.638-.074-3.239.499-4.458 1.596-.026.029-.057.052-.092.067-.036.016-.074.023-.112.023z" fill="#fafafa"/><path d="m99.7981 206.478c-.0604 0-.1193-.018-.168-.054-.0264-.019-.0485-.043-.0651-.071-.0165-.028-.0271-.059-.031-.091-.004-.032-.0012-.065.0081-.096s.025-.059.046-.084c1.0439-1.2 3.4019-1.992 5.3999-1.8.033.002.065.01.095.024.029.014.056.034.078.059.022.024.038.053.049.084.01.031.015.064.012.097-.01.068-.047.128-.102.169-.055.04-.124.057-.192.047-1.8-.174-3.978.552-4.908 1.614-.026.034-.0598.06-.0984.078-.0387.018-.0811.026-.1235.024z" fill="#fafafa"/><path d="m80.9998 182.226-10.95-.204c.162 7.314 1.326 15.426 1.512 22.278.036 1.296 0 10.032.456 12.69.732 3.99 5.466 3.45 5.718 1.062s-.306-12.6-.288-13.644c-.042-4.398 2.016-11.82 3.102-19.716.072-.384.45-2.088.45-2.466z" fill="#ffa8a7"/><path d="m80.0218 219.714c.108 2.346-.12 3.924-.882 5.4s-2.43 2.04-4.2 1.8-4.14-1.134-4.866-3.114c-.6426-1.775-.8484-3.679-.6-5.55z" fill="#455a64"/><path d="m71.2261 203.466c-.714.114-.6 3.264-.642 6.438-.072 3.396-1.02 4.89-1.116 7.68-.102 3.186.234 4.578 1.662 6.366s5.928 3.27 7.746.348c1.482-2.4 1.278-4.848.774-7.974-.4967-2.641-.8472-5.307-1.05-7.986-.12-2.4-.198-4.668-.846-4.872v1.134c0 .342.06 1.548-.342 1.596-.0612-.29-.0953-.585-.102-.882.0066-.137-.015-.273-.0635-.401s-.1229-.245-.2185-.343c-.2455-.168-.5367-.256-.834-.252-.72-.06-1.44-.108-2.166-.102-.3587 0-.7172.018-1.074.054-.3086.022-.612.091-.9.204-.0799.031-.1523.078-.2124.139-.06.061-.1062.135-.1356.215-.0241.119-.0241.241 0 .36.0298.217.0298.437 0 .654 0 .096-.072.216-.18.204s-.126-.102-.138-.18c-.042-.378 0-.66-.054-1.104 0-.204 0-.486 0-.69s-.102-.408-.108-.606z" fill="#516eb4"/><path d="m71.2261 203.466c-.714.114-.6 3.264-.642 6.438-.072 3.396-1.02 4.89-1.116 7.68-.102 3.186.234 4.578 1.662 6.366s5.928 3.27 7.746.348c1.482-2.4 1.278-4.848.774-7.974-.4967-2.641-.8472-5.307-1.05-7.986-.12-2.4-.198-4.668-.846-4.872v1.134c0 .342.06 1.548-.342 1.596-.0612-.29-.0953-.585-.102-.882.0066-.137-.015-.273-.0635-.401s-.1229-.245-.2185-.343c-.2455-.168-.5367-.256-.834-.252-.72-.06-1.44-.108-2.166-.102-.3587 0-.7172.018-1.074.054-.3086.022-.612.091-.9.204-.0799.031-.1523.078-.2124.139-.06.061-.1062.135-.1356.215-.0241.119-.0241.241 0 .36.0298.217.0298.437 0 .654 0 .096-.072.216-.18.204s-.126-.102-.138-.18c-.042-.378 0-.66-.054-1.104 0-.204 0-.486 0-.69s-.102-.408-.108-.606z" fill="#fff" opacity=".9"/><path d="m69.5339 216.672c0 .462-.108 3.504.852 3.966s1.314-1.914 1.314-1.914 2.22-.846 5.694.174c-.114.504.6 2.064 1.452 1.638s.846-3.9.846-3.942c.474 3 .6 5.4-.816 7.704-1.8 2.922-6.324 1.446-7.746-.348s-1.764-3.18-1.662-6.366c.012-.318.036-.618.066-.912z" fill="#516eb4"/><path d="m69.5339 216.672c0 .462-.108 3.504.852 3.966s1.314-1.914 1.314-1.914 2.22-.846 5.694.174c-.114.504.6 2.064 1.452 1.638s.846-3.9.846-3.942c.474 3 .6 5.4-.816 7.704-1.8 2.922-6.324 1.446-7.746-.348s-1.764-3.18-1.662-6.366c.012-.318.036-.618.066-.912z" fill="#fff" opacity=".8"/><path d="m71.9997 218.898c.114 1.14-1.164.87-1.398-.732s.312-5.502 0-8.262c.066-3.174-.072-6.324.642-6.438-.003.038-.003.076 0 .114l.078 1.602c.0003.228.0123.457.036.684.24 2.322.378 6.84.39 9 .0073 1.348.0914 2.694.252 4.032z" fill="#516eb4"/><path d="m77.0036 218.898c.1634-1.344.2436-2.696.2401-4.05 0-2.124.15-6.6.39-8.928.0892-.434.1235-.877.102-1.32 0-.318 0-.726 0-1.062v-.072c.474.156.642 1.41.744 3 0 .918 0 2.058-.096 3.444-.318 2.76.234 6.684 0 8.286s-1.4881 1.842-1.3801.702z" fill="#516eb4"/><path d="m77.4781 219c-.0337.006-.0682.006-.102 0-1.8162-.57-3.7637-.57-5.58 0-.0656.022-.1369.019-.2008-.007-.0639-.027-.1161-.075-.1472-.137-.0112-.031-.016-.063-.0141-.096.0018-.033.0103-.064.0249-.094.0146-.029.035-.055.06-.076s.054-.037.0852-.046c1.9415-.622 4.0286-.622 5.97 0 .0315.01.0605.026.0853.048.0249.022.0449.048.059.078s.0219.063.0229.096c.0009.033-.0049.065-.0172.096-.0248.043-.0607.079-.104.103s-.0923.036-.142.035z" fill="#fafafa"/><path d="m77.8017 216.456c-.0297.006-.0602.006-.09 0-2.0439-.578-4.208-.578-6.252 0-.0654.019-.1354.014-.1972-.015-.0617-.029-.111-.079-.1388-.141-.011-.031-.0152-.064-.0126-.097.0027-.033.0123-.065.0281-.094.0159-.029.0377-.054.064-.074.0262-.019.0564-.034.0885-.041 2.1565-.619 4.4436-.619 6.6 0 .0318.009.0615.024.0871.045s.0467.046.0619.076c.0152.029.0242.061.0265.094.0022.033-.0024.066-.0135.097-.0236.046-.0598.085-.1044.111-.0446.027-.0957.04-.1476.039z" fill="#fafafa"/><path d="m71.3999 214.068c-.0502.001-.0996-.012-.143-.038-.0433-.025-.0789-.062-.103-.106-.0135-.029-.0209-.061-.0215-.094-.0007-.032.0054-.064.0178-.094s.0309-.057.0542-.079c.0234-.023.0512-.04.0815-.051 3.108-1.284 6.45-.09 6.6-.036.0313.009.0602.025.085.046s.0449.047.059.077c.0141.029.022.061.023.094.001.032-.0047.065-.017.095-.031.062-.0836.11-.1478.135-.0641.026-.1353.027-.2002.003 0 0-3.276-1.17-6.168 0-.0347.027-.0762.044-.12.048z" fill="#fafafa"/><path d="m71.3158 211.842c-.0487.001-.0968-.012-.139-.036-.0423-.024-.0772-.059-.101-.102-.0157-.029-.0249-.061-.027-.094s.0031-.066.015-.097c.012-.031.0306-.059.0544-.082s.0524-.04.0836-.051c2.1457-.887 4.5513-.911 6.714-.066.0305.011.0582.028.0815.051.0232.022.0414.049.0533.08.0119.03.0173.062.0158.094-.0015.033-.0099.064-.0246.093-.0342.06-.089.105-.1542.127-.0653.022-.1363.02-.1998-.007-2.0197-.768-4.2549-.744-6.258.066-.0366.014-.075.022-.114.024z" fill="#fafafa"/><path d="m71.2558 209.334c-.0481.001-.0955-.011-.1376-.034s-.0774-.057-.1024-.098c-.0159-.029-.0254-.06-.0279-.093-.0024-.033.0022-.066.0136-.097.0114-.03.0293-.058.0525-.081.0231-.024.051-.042.0818-.053 3.192-1.434 6.63-.066 6.774 0 .0309.011.0593.027.0833.049.024.023.0431.049.0561.079s.0196.063.0194.095c-.0003.033-.0074.065-.0208.095-.0332.061-.0877.107-.153.131-.0653.023-.1368.021-.201-.005-.036 0-3.36-1.332-6.318 0-.0386.013-.0796.017-.12.012z" fill="#ebebeb"/><path d="m75.5581 106.608c-1.7811 4.105-2.9398 8.453-3.438 12.9-1.242 16.2-1.872 39.666-1.872 39.666-.138 1.692-1.2 5.532-1.932 12.972-.852 8.79 1.512 38.322 1.512 38.322s5.262 3.132 9.354-.438c0 0 4.752-40.956 5.856-49.692.966-7.632 3.654-24.138 3.654-24.138l2.07 25.248s-.294 6.864-.09 11.298c.24 5.16 2.76 30.6 2.76 30.6s7.1999 2.442 10.4579-1.026c0 0 .762-36.468.876-42.678.21-12.186-.426-34.896-.858-47.268z" fill="#516eb4"/><path d="m75.5581 106.608c-1.7811 4.105-2.9398 8.453-3.438 12.9-1.242 16.2-1.872 39.666-1.872 39.666-.138 1.692-1.2 5.532-1.932 12.972-.852 8.79 1.512 38.322 1.512 38.322s5.262 3.132 9.354-.438c0 0 4.752-40.956 5.856-49.692.966-7.632 3.654-24.138 3.654-24.138l2.07 25.248s-.294 6.864-.09 11.298c.24 5.16 2.76 30.6 2.76 30.6s7.1999 2.442 10.4579-1.026c0 0 .762-36.468.876-42.678.21-12.186-.426-34.896-.858-47.268z" fill="#fff" opacity=".2"/><path d="m88.6919 136.2 1.128-7.764s6.564-.876 9.534-3.672c-.8504 1.332-1.9838 2.46-3.3194 3.304-1.3357.844-2.8409 1.383-4.4086 1.58l-1.164 7.026-.078 21.846z" fill="#000" opacity=".2"/><path d="m109.734 108.864-5.124 6.336s-3.57-5.91-3.42-5.91 4.512-7.164 4.512-7.164z" fill="#ffa8a7"/><path d="m93.3237 68.76c4.02-.066 8.4843-.174 12.3663 4.446 3 3.6 11.172 14.712 12.81 17.562 1.854 3.216 2.112 4.524.66 6.93-1.38 2.292-10.164 12.396-10.164 12.396-1.92-1.5-3.312-3.756-4.392-6.468l5.13-8.568-9.8523-14.55z" fill="#516eb4"/><path d="m93.3237 68.76c4.02-.066 8.4843-.174 12.3663 4.446 3 3.6 11.172 14.712 12.81 17.562 1.854 3.216 2.112 4.524.66 6.93-1.38 2.292-10.164 12.396-10.164 12.396-1.92-1.5-3.312-3.756-4.392-6.468l5.13-8.568-9.8523-14.55z" fill="#000" opacity=".4"/><path d="m93.0659 68.58c6.264-.534 9.0001.354 11.4001 2.886 1.68 1.8 11.928 15.474 11.928 15.474s-.432 2.7-8.046 6.756l-8.316-9.732z" fill="#516eb4"/><path d="m93.0659 68.58c6.264-.534 9.0001.354 11.4001 2.886 1.68 1.8 11.928 15.474 11.928 15.474s-.432 2.7-8.046 6.756l-8.316-9.732z" fill="#fff" opacity=".2"/><path d="m83.3037 68.868c-1.41.342-6.45.342-9.78 1.524-1.8.648-2.208 2.898-2.43 5.478-.474 5.532.39 15.9.39 15.9l-.084 26.43c4.578 3.336 23.4 5.034 33.0303-2.004 0 0-1.2-31.488-1.2-36.39s-2.724-10.8-10.2423-11.226z" fill="#516eb4"/><path d="m83.3037 68.868c-1.41.342-6.45.342-9.78 1.524-1.8.648-2.208 2.898-2.43 5.478-.474 5.532.39 15.9.39 15.9l-.084 26.43c4.578 3.336 23.4 5.034 33.0303-2.004 0 0-1.2-31.488-1.2-36.39s-2.724-10.8-10.2423-11.226z" fill="#fff" opacity=".55"/><path d="m92.3998 70.284c-1.674 1.356-6.144 1.746-9.246.492 2.9133 3.2409 6.088 6.237 9.492 8.958.918-2.274 1.014-6.198-.246-9.45z" fill="#455a64"/><path d="m84.8521 48c-.0012 1.7461.5155 3.4534 1.4849 4.9057.9694 1.4524 2.3477 2.5845 3.9607 3.2533s3.3881.8441 5.1008.5037c1.7126-.3404 3.2858-1.1811 4.5205-2.4158 1.235-1.2347 2.075-2.8079 2.416-4.5205.34-1.7126.165-3.4878-.504-5.1007-.669-1.613-1.801-2.9914-3.2532-3.9608-1.4524-.9693-3.1596-1.4861-4.9057-1.4849-2.3388.0016-4.5812.9313-6.235 2.5851-1.6537 1.6537-2.5835 3.8962-2.585 6.2349z" fill="#263238"/><path d="m78.4199 54.252s1.434 6.714 2.004 7.8c.3835.6807 1.0123 1.1893 1.758 1.422l-.102-4.728z" fill="#263238"/><path d="m80.2137 44.628c-.499-.0584-1.0048-.0023-1.4789.1641-.4741.1663-.904.4385-1.2571.7959-1.2 1.2-.522 4.974.942 8.664l2.694.306z" fill="#263238"/><path d="m81.9241 54.564c-.54.324-1.314-.714-1.98-1.416s-2.838-1.644-3.924.636.96 5.4 2.67 5.946c2.952.924 3.39-.966 3.39-.966l.222 10.968c2.04 2.616 6.942 7.344 10.362 10.002 1.008-2.55 1.008-7.2-.756-10.608v-3.24c1.315.2081 2.6485.2765 3.978.204 2.172-.336 3.534-2.046 4.1999-4.398 1.056-3.768 1.458-6.816.558-14.232-.9779-8.13-10.4399-8.214-15.5459-5.004s-3.174 12.108-3.174 12.108z" fill="#ffa8a7"/><path d="m100.47 43.83c-1.7999 1.452-2.9399 2.226-6.3899 2.346-2.3527.0796-4.6924-.3802-6.84-1.344-.1258.8244-.479 1.5974-1.02 2.232-.6767.696-1.4953 1.2383-2.4 1.59-.186 1.458-.18 3.336-.27 4.8-.03.492 0 3.084-1.2 2.346-.3887-.342-.7333-.731-1.026-1.158-.4232-.5273-.8759-1.0301-1.356-1.506-.93-.846.27-8.52.27-8.52-.3217-.6756-.4325-1.4325-.318-2.1719.1145-.7395.449-1.4274.96-1.9741 1.278-1.404 3.06-3.12 8.85-2.436 4.128.492 8.616 1.8 12.2459 0 .48 2.088-.228 4.758-1.506 5.796z" fill="#263238"/><path d="m80.2201 45.222-3.264-1.752c.1044-.2198.2523-.4161.4348-.577.1824-.161.3956-.2834.6267-.3596.231-.0763.4751-.1049.7176-.0842.2424.0207.4781.0904.6929.2048.4361.2448.7615.6478.909 1.1258.1474.4779.1055.9943-.117 1.4422z" fill="#263238"/><path d="m91.896 65.886s-4.842-.978-6.534-1.878c-.9961-.5178-1.8119-1.3253-2.34-2.316.2561.9921.7091 1.9225 1.332 2.736 1.236 1.578 7.542 2.748 7.542 2.748z" fill="#f28f8f"/><path d="m90.8878 53.322c.0024.1245-.0197.2483-.0652.3642-.0454.1159-.1133.2218-.1996.3115-.0864.0897-.1896.1615-.3037.2113s-.237.0767-.3615.079c-.194.0084-.3862-.0416-.5516-.1434s-.2965-.2509-.3764-.428c-.0798-.177-.1048-.374-.0717-.5654s.1228-.3685.2575-.5084c.1347-.14.3083-.2363.4983-.2767.19-.0403.3878-.0228.5677.0503.18.0731.3339.1984.442.3598.108.1615.1653.3516.1642.5458z" fill="#263238"/><path d="m89.9577 49.8-2.154 1.2c-.1522-.2951-.1848-.6376-.0909-.9561s.3069-.5885.5949-.7539c.1412-.0778.2966-.1263.4569-.1427.1604-.0164.3224-.0003.4764.0473s.2968.1258.4199.2298c.1232.104.2241.2317.2968.3756z" fill="#263238"/><path d="m90.1919 59.4 3.516 1.32c-.076.2375-.1994.4572-.3629.6456-.1634.1885-.3633.3417-.5877.4506-.2245.1088-.4686.171-.7178.1826-.2491.0117-.498-.0274-.7316-.1148-.4694-.1915-.8472-.5563-1.0549-1.0188-.2078-.4624-.2297-.9871-.0611-1.4652z" fill="#f28f8f"/><path d="m99.7678 50.592-1.968-1.512c.0933-.1309.212-.2417.349-.3258s.2894-.1399.4484-.164c.1589-.024.3211-.0159.4768.0239.1558.0398.3019.1105.4298.2079.2619.2054.4352.5033.4843.8324.0489.3292-.0297.6647-.2203.9376z" fill="#263238"/><path d="m98.9998 53.208c-.0071.1775-.0662.349-.1699.4932-.1038.1441-.2476.2546-.4137.3177-.166.0631-.3469.076-.5202.0371s-.3314-.1279-.4545-.256c-.1232-.128-.2059-.2894-.2381-.4641-.0321-.1747-.0122-.355.0573-.5184.0695-.1635.1855-.3029.3337-.401.1481-.098.3217-.1504.4994-.1505.1213.0023.241.0286.3522.0772s.2118.1186.2959.2061.1502.1907.1945.3037c.0442.113.0657.2336.0634.355z" fill="#263238"/><path d="m94.1577 51.822.342 6.33 3.306-1.128z" fill="#f28f8f"/><path d="m81.5221 69.564c-1.278.276-1.626 5.688-1.32 12.246.054 1.086.126 1.938.108 2.4l-.732-.03c0-.39-.036-1.23-.102-2.292-.33-5.184-.366-12.72 1.896-13.062.2981-.0737.6055-.102.912-.084v.774z" fill="#516eb4"/><path d="m81.5221 69.564c-1.278.276-1.626 5.688-1.32 12.246.054 1.086.126 1.938.108 2.4l-.732-.03c0-.39-.036-1.23-.102-2.292-.33-5.184-.366-12.72 1.896-13.062.2981-.0737.6055-.102.912-.084v.774z" fill="#000" opacity=".2"/><path d="m78.5278 101.346h-.06v-.51c.6047-.041 1.1863-.248 1.68-.6-.5284-.3475-1-.7745-1.398-1.266-.822-1.062-2.628-8.676-2.07-10.452.468-1.488 1.926-4.764 3.228-4.8h.036c1.296 0 3 3.096 3.6 4.53.708 1.722-.444 9.456-1.2 10.59-.357.5213-.7897.9864-1.284 1.38.5205.317 1.1187.483 1.728.48l.06.504c-.7938.011-1.5731-.214-2.238-.648-.6078.451-1.3283.725-2.082.792zm1.434-17.166c-.768 0-2.136 2.466-2.766 4.464-.51 1.626 1.2 9 1.992 9.984.4066.4972.8933.923 1.44 1.26.5135-.3832.9613-.8472 1.326-1.374.678-1.05 1.8-8.538 1.134-10.122-.798-1.92-2.352-4.212-3.126-4.212z" fill="#455a64"/><path d="m83.5981 100.872c.0058.148-.0325.295-.1099.421-.0775.127-.1907.227-.3254.289-.1346.063-.2846.083-.4311.06s-.2828-.089-.3918-.19c-.1089-.1-.1856-.231-.2204-.375-.0347-.144-.026-.295.0252-.434.0512-.14.1424-.26.2623-.348.1199-.087.2629-.137.4111-.143.0985-.004.1968.011.2893.045.0926.034.1775.086.2499.153.0725.067.131.148.1723.237.0413.09.0646.186.0685.285z" fill="#263238"/><path d="m79.2299 101.058c.007.15-.0305.298-.1079.426-.0773.128-.191.231-.3266.294-.1356.064-.287.085-.435.063-.148-.023-.2859-.089-.3963-.19s-.1883-.233-.2238-.378c-.0355-.146-.027-.299.0244-.439.0514-.141.1434-.263.2643-.351.1209-.089.2653-.139.4149-.145.099-.005.198.01.2912.044.0933.033.1789.085.252.152s.1322.148.1739.238c.0416.09.0651.187.0689.286z" fill="#263238"/><path d="m83.6758 91.554-.426-.03c-.0221-.0015-.0436-.0074-.0634-.0173s-.0375-.0235-.052-.0403c-.0145-.0167-.0255-.0361-.0325-.0571s-.0097-.0432-.0081-.0653c.1153-.9687.0707-1.9498-.132-2.904-.762-1.842-2.328-4.158-3-4.134s-2.046 2.472-2.64 4.374c-.1275.9674-.089 1.9495.114 2.904.0034.0221.0024.0446-.0031.0663-.0054.0217-.0151.0421-.0285.06-.0134.0178-.0303.0329-.0496.0442-.0193.0112-.0406.0186-.0628.0215l-.426.066c-.0221.0034-.0446.0023-.0663-.0031s-.0421-.0152-.0599-.0286c-.0179-.0134-.0329-.0302-.0442-.0495s-.0186-.0406-.0216-.0628c-.234-1.59-.264-2.682-.084-3.246.318-1.02 1.8-4.848 3.342-4.908s3.342 3.6 3.75 4.608c.2647 1.0588.3278 2.1579.186 3.24-.0006.0237-.0062.0471-.0165.0684-.0102.0214-.0249.0404-.0431.0557-.0181.0153-.0393.0266-.0621.0332-.0228.0065-.0468.0081-.0703.0047z" fill="#516eb4"/><path d="m83.6758 91.554-.426-.03c-.0221-.0015-.0436-.0074-.0634-.0173s-.0375-.0235-.052-.0403c-.0145-.0167-.0255-.0361-.0325-.0571s-.0097-.0432-.0081-.0653c.1153-.9687.0707-1.9498-.132-2.904-.762-1.842-2.328-4.158-3-4.134s-2.046 2.472-2.64 4.374c-.1275.9674-.089 1.9495.114 2.904.0034.0221.0024.0446-.0031.0663-.0054.0217-.0151.0421-.0285.06-.0134.0178-.0303.0329-.0496.0442-.0193.0112-.0406.0186-.0628.0215l-.426.066c-.0221.0034-.0446.0023-.0663-.0031s-.0421-.0152-.0599-.0286c-.0179-.0134-.0329-.0302-.0442-.0495s-.0186-.0406-.0216-.0628c-.234-1.59-.264-2.682-.084-3.246.318-1.02 1.8-4.848 3.342-4.908s3.342 3.6 3.75 4.608c.2647 1.0588.3278 2.1579.186 3.24-.0006.0237-.0062.0471-.0165.0684-.0102.0214-.0249.0404-.0431.0557-.0181.0153-.0393.0266-.0621.0332-.0228.0065-.0468.0081-.0703.0047z" fill="#000" opacity=".2"/><path d="m91.896 67.992c1.158.156 4.71 1.914 6.396 7.2s1.584 13.56 1.53 15.876-.21 4.05-.21 4.05h-.828s.12-2.946.15-4.428c.12-6.504-.288-12.048-1.578-15.402-1.536-3.996-3.324-5.274-5.46-6.294z" fill="#516eb4"/><path d="m91.896 67.992c1.158.156 4.71 1.914 6.396 7.2s1.584 13.56 1.53 15.876-.21 4.05-.21 4.05h-.828s.12-2.946.15-4.428c.12-6.504-.288-12.048-1.578-15.402-1.536-3.996-3.324-5.274-5.46-6.294z" fill="#000" opacity=".2"/><path d="m96.0659 95.502c0 .5934.176 1.1734.5056 1.6667.3297.4934.7982.8779 1.3464 1.105.5481.227 1.1513.2864 1.7333.1707.5818-.1158 1.1168-.4015 1.5358-.8211.42-.4195.706-.9541.821-1.536.116-.582.057-1.1852-.17-1.7333-.228-.5482-.612-1.0168-1.105-1.3464-.494-.3296-1.0737-.5056-1.6671-.5056-.7956 0-1.5587.3161-2.1213.8787s-.8787 1.3257-.8787 2.1213z" fill="#455a64"/><path d="m99.054 97.2c.9377 0 1.698-.7602 1.698-1.698s-.7603-1.698-1.698-1.698c-.9378 0-1.698.7602-1.698 1.698s.7602 1.698 1.698 1.698z" fill="#37474f"/><path d="m73.5119 70.284c-3.66.756-4.902 1.62-6.714 4.554s-8.682 23.652-8.682 23.652l-21.186 3.804c-1.572.18-3.978-.786-6.954-.876-3.384-.108-5.4-2.34-5.4-.372 0 1.59 3.552 3 3.552 3-1.9766.402-3.9839.635-6 .696-2.004.03-3.738 1.314-3.354 2.76.2954 1.415 1.0404 2.697 2.124 3.654 2.952 2.346 9.438 1.08 15.228-.33 4.458-1.086 15.564-1.674 21.282-2.496 6.6-.714 7.716-1.704 9.954-5.946 1.56-3 6.654-18.186 6.654-18.186.984-7.17.492-11.118-.504-13.914z" fill="#ffa8a7"/><path d="m74.5437 70.08c-2.52.18-5.754-.27-8.862 6.36s-7.842 21.57-7.842 21.57l-14.556 3.144s1.14 5.802 1.068 8.496c0 0 15-1.068 18.228-1.602s2.91-1.122 5.55-6.21 6.414-16.908 6.414-16.908 1.986-8.418 0-14.85z" fill="#516eb4"/><path d="m74.5437 70.08c-2.52.18-5.754-.27-8.862 6.36s-7.842 21.57-7.842 21.57l-14.556 3.144s1.14 5.802 1.068 8.496c0 0 15-1.068 18.228-1.602s2.91-1.122 5.55-6.21 6.414-16.908 6.414-16.908 1.986-8.418 0-14.85z" fill="#000" opacity=".4"/><path d="m75.8461 69.78c-1.758.132-5.94-.09-8.16 2.916-2.016 2.73-8.334 17.958-8.334 17.958s2.94 4.692 11.598 6.036c0 0 3.072-8.064 4.476-11.508s1.896-10.89.42-15.402z" fill="#516eb4"/><path d="m75.8461 69.78c-1.758.132-5.94-.09-8.16 2.916-2.016 2.73-8.334 17.958-8.334 17.958s2.94 4.692 11.598 6.036c0 0 3.072-8.064 4.476-11.508s1.896-10.89.42-15.402z" fill="#fff" opacity=".2"/><path d="m42.5581 71.49c-5.766-2.526-14.556-1.548-19.632 2.19-2.532 1.866-3.66 4.068-3.432 6.12l9.414 84.324h.036c.396 1.872 1.938 3.6 4.608 4.758 5.772 2.526 14.562 1.542 19.632-2.19 2.346-1.728 3.474-3.744 3.45-5.658h.036l-9.414-84.33c-.228-2.052-1.812-3.954-4.698-5.214z" fill="#516eb4"/><path d="m42.5581 71.49c-5.766-2.526-14.556-1.548-19.632 2.19-2.532 1.866-3.66 4.068-3.432 6.12l9.414 84.324h.036c.396 1.872 1.938 3.6 4.608 4.758 5.772 2.526 14.562 1.542 19.632-2.19 2.346-1.728 3.474-3.744 3.45-5.658h.036l-9.414-84.33c-.228-2.052-1.812-3.954-4.698-5.214z" fill="#fff" opacity=".7"/><path d="m24.192 85.014c-5.772-2.526-6.336-7.614-1.266-11.334s13.866-4.716 19.632-2.19 6.342 7.596 1.242 11.31-13.836 4.74-19.608 2.214z" fill="#516eb4"/><path d="m24.192 85.014c-5.772-2.526-6.336-7.614-1.266-11.334s13.866-4.716 19.632-2.19 6.342 7.596 1.242 11.31-13.836 4.74-19.608 2.214z" fill="#fff" opacity=".8"/><path d="m40.0318 226.944c-5.766-2.526-6.336-7.602-1.26-11.334s13.86-4.716 19.632-2.196 6.336 7.602 1.26 11.334-13.86 4.716-19.632 2.196z" fill="#516eb4"/><path d="m40.0318 226.944c-5.766-2.526-6.336-7.602-1.26-11.334s13.86-4.716 19.632-2.196 6.336 7.602 1.26 11.334-13.86 4.716-19.632 2.196z" fill="#fff" opacity=".7"/><path d="m48.0898 212.196c-3.3434.338-6.5479 1.512-9.318 3.414-5.076 3.732-4.506 8.808 1.26 11.334 3.1245 1.239 6.5093 1.676 9.846 1.272z" fill="#516eb4"/><path d="m49.9363 226.549c7.6667-.856 13.4812-5.138 12.9871-9.564-.4942-4.426-7.1098-7.32-14.7765-6.464-7.6667.855-13.4812 5.137-12.9871 9.563.4941 4.427 7.1098 7.321 14.7765 6.465z" fill="#516eb4"/><path d="m49.9363 226.549c7.6667-.856 13.4812-5.138 12.9871-9.564-.4942-4.426-7.1098-7.32-14.7765-6.464-7.6667.855-13.4812 5.137-12.9871 9.563.4941 4.427 7.1098 7.321 14.7765 6.465z" fill="#fff" opacity=".8"/><path d="m47.4002 162.222c0-.744-.516-1.452-1.554-1.902-1.0713-.402-2.2224-.546-3.3598-.42s-2.229.519-3.1862 1.146c-.3554.209-.6489.508-.8503.868-.2013.359-.3034.766-.2957 1.178l6.246 55.962c.0835.403.2726.776.5477 1.082.2752.306.6266.533 1.0183.658 1.0718.401 2.2232.544 3.3606.417 1.1373-.127 2.2287-.521 3.1854-1.149.912-.672 1.26-1.47 1.098-2.202z" fill="#516eb4"/><path d="m47.4002 162.222c0-.744-.516-1.452-1.554-1.902-1.0713-.402-2.2224-.546-3.3598-.42s-2.229.519-3.1862 1.146c-.3554.209-.6489.508-.8503.868-.2013.359-.3034.766-.2957 1.178l6.246 55.962c.0835.403.2726.776.5477 1.082.2752.306.6266.533 1.0183.658 1.0718.401 2.2232.544 3.3606.417 1.1373-.127 2.2287-.521 3.1854-1.149.912-.672 1.26-1.47 1.098-2.202z" fill="#fff" opacity=".7"/><g fill="#fff" opacity=".3"><path d="m46.2959 160.554c-.1427-.088-.291-.166-.444-.234-.1684-.07-.3407-.13-.516-.18l6.72 60.21c.156-.096.318-.18.462-.288.1342-.101.2624-.209.384-.324z"/><path d="m44.4479 159.936c-.465-.064-.9349-.086-1.404-.066l6.834 61.248c.222-.042.444-.09.66-.15h.084c.21-.06.414-.126.6-.204z"/></g><path d="m46.8961 219.438c-.648-.882-.84-4.416-1.26-8.172-.216-1.938-5.04-45.144-5.652-50.634-.2352.122-.4617.261-.678.414-.3554.209-.6489.508-.8503.868-.2014.359-.3035.766-.2957 1.178l6.24 55.962c.0835.403.2725.776.5477 1.082.2751.306.6265.533 1.0183.658 1.0718.401 2.2231.544 3.3605.417s2.2288-.521 3.1855-1.149l.186-.15c.39-.402.6-.678.6-.678-1.26 1.134-5.436 1.512-6.402.204z" fill="#516eb4"/><path d="m45.8521 160.32c-1.0714-.402-2.2225-.546-3.3598-.42-1.1374.126-2.229.519-3.1862 1.146-.3554.209-.6489.508-.8503.868-.2014.359-.3035.766-.2957 1.178l.792 7.086c3.1135.27 6.2498-.079 9.228-1.026l-.78-6.93c0-.744-.51-1.422-1.548-1.902z" fill="#516eb4"/><g fill="#fff" opacity=".3"><path d="m46.2959 160.554c-.1427-.088-.291-.166-.444-.234-.1684-.07-.3407-.13-.516-.18l1.056 9.498c.3-.066.6-.138.894-.222z"/><path d="m44.1779 170.046c.462-.06.918-.138 1.374-.228l-1.104-9.882c-.465-.064-.9349-.086-1.404-.066z"/></g><path d="m39.9841 160.632c-.2352.122-.4617.261-.678.414-.3554.209-.6489.508-.8503.868-.2014.359-.3035.766-.2957 1.178l.792 7.086c.7001.064 1.403.092 2.106.084-.3-2.724-.702-6.294-1.074-9.63z" fill="#000" opacity=".05"/><path d="m46.1399 150.888c0-.75-.516-1.452-1.554-1.902-1.0714-.402-2.2225-.546-3.3599-.42-1.1373.126-2.2289.519-3.1861 1.146-.3545.208-.6474.507-.8488.865-.2013.359-.3039.764-.2972 1.175l1.266 11.34c.0839.402.2731.774.5483 1.079.2751.305.6264.531 1.0177.655 1.0718.401 2.2231.544 3.3605.417s2.2287-.521 3.1855-1.149c.912-.672 1.26-1.47 1.098-2.196z" fill="#516eb4"/><path d="m46.1399 150.888c0-.75-.516-1.452-1.554-1.902-1.0714-.402-2.2225-.546-3.3599-.42-1.1373.126-2.2289.519-3.1861 1.146-.3545.208-.6474.507-.8488.865-.2013.359-.3039.764-.2972 1.175l1.266 11.34c.0839.402.2731.774.5483 1.079.2751.305.6264.531 1.0177.655 1.0718.401 2.2231.544 3.3605.417s2.2287-.521 3.1855-1.149c.912-.672 1.26-1.47 1.098-2.196z" fill="#fff" opacity=".5"/><path d="m46.1399 150.888c0-.75-.516-1.452-1.554-1.902-1.0714-.402-2.2225-.546-3.3599-.42-1.1373.126-2.2289.519-3.1861 1.146-.3545.208-.6474.507-.8488.865-.2013.359-.3039.764-.2972 1.175l1.266 11.34c.0839.402.2731.774.5483 1.079.2751.305.6264.531 1.0177.655 1.0718.401 2.2231.544 3.3605.417s2.2287-.521 3.1855-1.149c.912-.672 1.26-1.47 1.098-2.196z" fill="#000" opacity=".05"/><g fill="#fff" opacity=".3"><path d="m45.8103 164.4c.1596-.087.3139-.183.462-.288.1356-.099.2639-.207.384-.324l-1.2-10.764-.906.102z"/><path d="m45.0001 164.778-1.2-10.992-1.386.156 1.254 11.214c.454-.087.8996-.214 1.332-.378z"/></g><path d="m39.7261 164.826c.2438.108.4968.195.756.258-.528-4.728-1.2-11.016-1.482-13.254-.2365.122-.4632.263-.678.42-.3545.208-.6474.507-.8488.865-.2013.359-.3039.764-.2972 1.175l.984 8.802c.0839.402.2731.774.5483 1.079s.6264.531 1.0177.655z" fill="#000" opacity=".1"/><path d="m32.8139 147.426c-4.2 3.114-3.756 7.344 1.05 9.45s12.132 1.284 16.362-1.8 3.774-7.368-1.026-9.474-12.156-1.284-16.386 1.824z" fill="#263238"/><path d="m32.7002 146.4c-4.2 3.114-3.756 7.338 1.05 9.444s12.132 1.29 16.362-1.8 3.762-7.344-1.05-9.45-12.132-1.29-16.362 1.806z" fill="#37474f"/><path d="m44.9458 76.962c-.18-1.572-1.482-3-3.876-3.966-4.8-1.89-12.108-1.074-16.356 1.8-2.13 1.446-3.084 3.144-2.91 4.716l7.938 71.1c.192 1.71 1.512 3.294 3.912 4.344 4.8 2.106 12.132 1.284 16.362-1.8 2.112-1.56 3.054-3.396 2.862-5.106z" fill="#516eb4"/><path d="m24.1919 85.014c5.772 2.526 14.562 1.542 19.608-2.214.5814-.4268 1.1217-.9069 1.614-1.434l-.492-4.428c-.18-1.572-1.482-3-3.876-3.966-4.8-1.89-12.108-1.074-16.356 1.8-2.13 1.446-3.084 3.144-2.91 4.716l.498 4.428c.6004.4279 1.2415.7957 1.914 1.098z" fill="#516eb4"/><path d="m24.1919 85.014c5.772 2.526 14.562 1.542 19.608-2.214.5814-.4268 1.1217-.9069 1.614-1.434l-.492-4.428c-.18-1.572-1.482-3-3.876-3.966-4.8-1.89-12.108-1.074-16.356 1.8-2.13 1.446-3.084 3.144-2.91 4.716l.498 4.428c.6004.4279 1.2415.7957 1.914 1.098z" fill="#fff" opacity=".2"/><path d="m32.6102 145.608c-2.112 1.554-3.048 3.39-2.862 5.1s1.512 3.294 3.912 4.344c4.8 2.106 12.132 1.284 16.362-1.8 2.112-1.56 3.054-3.396 2.862-5.106s-1.506-3.288-3.912-4.344-5.748-4.14-8.706-3.81-5.538 4.056-7.656 5.616z" fill="#455a64"/><path d="m33.1198 151.2c.15-2.34 2.934-3.816 4.308-6.966 1.332-3.048 2.568-4.128 4.086-4.236-.4122-.07-.8316-.086-1.248-.048-2.964.33-5.538 4.08-7.656 5.64s-3.048 3.39-2.862 5.1 1.512 3.294 3.912 4.344c4.8 2.106 12.126 1.32 16.398-1.854-10.872 5.094-17.094.498-16.938-1.98z" fill="#000" opacity=".2"/><path d="m32.6102 145.608c-2.112 1.554-3.048 3.39-2.862 5.1s1.512 3.294 3.912 4.344c4.8 2.106 12.132 1.284 16.362-1.8 2.112-1.56 3.054-3.396 2.862-5.106s-1.506-3.288-3.912-4.344-5.748-4.14-8.706-3.81-5.538 4.056-7.656 5.616z" fill="#516eb4"/><path d="m48.4681 154.116c.5386-.28 1.056-.599 1.548-.954.5494-.399 1.0544-.855 1.506-1.362l-8.4-75-3.27.366z" fill="#fff" opacity=".3"/><path d="m45.3121 155.4c.588-.176 1.158-.376 1.71-.6l-8.502-76.17-1.752.198z" fill="#fff" opacity=".3"/><path d="m48.3719 154.2c-7.914 2.82-13.458-1.932-13.866-5.616s-6.372-57.102-7.506-67.326l-4.35-4.458c-.6148.7877-.9161 1.7752-.846 2.772l7.938 71.1c.192 1.71 1.512 3.294 3.912 4.344 4.23 1.818 10.422 1.446 14.718-.816z" fill="#000" opacity=".1"/><path d="m24.7142 74.826c-4.254 2.898-3.822 6.786.96 8.676s12.108 1.074 16.362-1.8 3.822-6.786-.966-8.682-12.108-1.098-16.356 1.806z" fill="#516eb4"/><path d="m24.7142 74.826c-4.254 2.898-3.822 6.786.96 8.676s12.108 1.074 16.362-1.8 3.822-6.786-.966-8.682-12.108-1.098-16.356 1.806z" fill="#fff" opacity=".3"/><path d="m39.4741 69.918c-.114-1.026-.906-1.974-2.352-2.604-2.88-1.266-7.278-.774-9.816 1.092-1.266.936-1.8 2.034-1.716 3.06l.846 7.56c.114 1.026.906 1.974 2.346 2.604 2.886 1.266 7.284.774 9.816-1.092 1.272-.936 1.836-2.034 1.722-3.06z" fill="#516eb4"/><path d="m39.4741 69.918c-.114-1.026-.906-1.974-2.352-2.604-2.88-1.266-7.278-.774-9.816 1.092-1.266.936-1.8 2.034-1.716 3.06l.846 7.56c.114 1.026.906 1.974 2.346 2.604 2.886 1.266 7.284.774 9.816-1.092 1.272-.936 1.836-2.034 1.722-3.06z" fill="#fff" opacity=".7"/><path d="m38.232 80.76c.12-.078.258-.138.366-.222.3263-.2394.626-.5129.894-.816l-1.2-10.8-1.356.15z" fill="#fff" opacity=".4"/><path d="m36.516 81.6c.3236-.1178.6401-.254.948-.408l-1.272-11.4-.984.108z" fill="#fff" opacity=".4"/><path d="m28.9559 78.966c-.12-1.08-.21-1.902-.654-5.886l-1.8-3.972c-.3177.3013-.5656.6686-.7263 1.076-.1606.4073-.2302.8449-.2037 1.282l.846 7.56c.114 1.026.906 1.974 2.346 2.604 2.886 1.266 7.284.774 9.816-1.092.3262-.2394.6259-.5129.894-.816-4.074 2.994-10.26 1.554-10.518-.756z" fill="#516eb4"/><path d="m27.306 68.4c-2.532 1.872-2.25 4.41.636 5.67s7.278.774 9.816-1.098 2.25-4.404-.636-5.664-7.278-.768-9.816 1.092z" fill="#516eb4"/><path d="m27.306 68.4c-2.532 1.872-2.25 4.41.636 5.67s7.278.774 9.816-1.098 2.25-4.404-.636-5.664-7.278-.768-9.816 1.092z" fill="#fff" opacity=".8"/><path d="m33.8518 61.542c-.7575-.2824-1.5709-.3829-2.3744-.2932-.8036.0896-1.5748.3668-2.2516.8092-.2514.1472-.459.3588-.6013.613-.1424.2542-.2144.5417-.2087.833l.846 7.554c.0633.279.1984.5366.3921.7471.1937.2106.4392.3667.7119.4529.7584.2839 1.5729.3851 2.3777.2955.8048-.0897 1.5771-.3677 2.2544-.8115.2502-.148.4566-.3599.5979-.614s.2124-.5413.206-.832l-.8399-7.554c-.0643-.2794-.2006-.5372-.3953-.7477-.1948-.2105-.4411-.3665-.7148-.4523z" fill="#516eb4"/><path d="m33.8518 61.542c-.7575-.2824-1.5709-.3829-2.3744-.2932-.8036.0896-1.5748.3668-2.2516.8092-.2514.1472-.459.3588-.6013.613-.1424.2542-.2144.5417-.2087.833l.846 7.554c.0633.279.1984.5366.3921.7471.1937.2106.4392.3667.7119.4529.7584.2839 1.5729.3851 2.3777.2955.8048-.0897 1.5771-.3677 2.2544-.8115.2502-.148.4566-.3599.5979-.614s.2124-.5413.206-.832l-.8399-7.554c-.0643-.2794-.2006-.5372-.3953-.7477-.1948-.2105-.4411-.3665-.7148-.4523z" fill="#fff" opacity=".7"/><path d="m34.1282 72.234c.3079-.1176.6001-.2728.87-.462.054-.042.09-.084.144-.132l-.942-8.304-1.062.12z" fill="#fff" opacity=".4"/><path d="m32.7418 72.6c.2587-.0324.5152-.0805.768-.144l-.936-8.4-.774.09z" fill="#fff" opacity=".4"/><path d="m35.5382 71.214c-.517.447-1.1519.7357-1.8286.8314-.6767.0958-1.3667-.0054-1.9874-.2914-1.2-.6-1.2-1.428-1.32-2.736s-.372-3.324-.66-5.886l-.864-.732c-.156.1432-.2783.3191-.3582.5152-.0798.1961-.1153.4074-.1038.6188l.846 7.554c.0632.279.1984.5366.392.7471.1937.2106.4392.3667.712.4529.7583.2839 1.5729.3851 2.3776.2955.8048-.0897 1.5771-.3677 2.2544-.8115.2096-.1548.3921-.3434.54-.558z" fill="#516eb4"/><path d="m29.226 62.058c-1.2.882-1.062 2.076.3 2.676.7578.283 1.5716.3832 2.3754.2925s1.5749-.3698 2.2506-.8145c1.2-.876 1.062-2.076-.3-2.67-.7576-.2824-1.571-.3829-2.3745-.2932-.8036.0896-1.5748.3668-2.2515.8092z" fill="#516eb4"/><path d="m29.226 62.058c-1.2.882-1.062 2.076.3 2.676.7578.283 1.5716.3832 2.3754.2925s1.5749-.3698 2.2506-.8145c1.2-.876 1.062-2.076-.3-2.67-.7576-.2824-1.571-.3829-2.3745-.2932-.8036.0896-1.5748.3668-2.2515.8092z" fill="#fff" opacity=".8"/><path d="m31.1998 62.802c-.086-.3522-.1382-.7119-.156-1.074l-.42-3.852c-.168-1.596-.39-3.456-.6-5.448l-.582-6.228-1.122-11.736c-.15-1.596-.282-2.928-.366-3.858-.048-.468-.084-.834-.108-1.08s0-.39.048-.396c.042 0 .102.126.132.372s.078.6.138 1.08c.114.93.288 2.256.486 3.846.408 3.18.948 7.422 1.488 11.67.264 2.118.528 4.242.78 6.234s.444 3.846.6 5.442.336 2.922.444 3.852c.0626.3565.0907.7181.084 1.08-.049.0621-.1099.1138-.1791.1523s-.1452.0628-.2239.0718c-.0786.0089-.1582.0022-.2343-.0198-.076-.022-.1469-.0588-.2087-.1083z" fill="#455a64"/><path d="m41.5382 73.2c4.062 2.268 3.12 5.652-.474 8.244s-10.536 3.216-12.99 2.736c4.59.9 10.368-.06 13.962-2.508 4.104-2.796 3.834-6.51-.498-8.472z" fill="#fff" opacity=".5"/><path d="m51.6001 167.688c-5.178 2.88-12.834 3.474-18.048 1.2-2.664-1.2-4.2-2.892-4.608-4.764h-.042l-9.408-84.324c.228 2.058 1.8 3.96 4.698 5.22l8.664 77.58c.474 4.29 6.96 8.322 18.744 5.088z" fill="#516eb4"/><path d="m30.4082 86.4c4.8.246 9.96-1.014 13.416-3.558 5.07-3.738 4.506-8.814-1.266-11.334-.5139-.2306-1.0408-.4309-1.578-.6 3.042 1.104 6.27 3.918 5.244 7.602s-7.002 7.704-15.816 7.89z" fill="#fff" opacity=".3"/><path d="m47.256 76.698 9.414 84.324h-.042c.03 1.914-1.092 3.93-3.444 5.658l-.336.228c3.762-3.306 2.766-6.228 2.25-10.8l-8.514-76.308c.5398-.9395.7746-2.0234.672-3.102z" fill="#fff" opacity=".4"/><path d="m37.1219 67.314c-.084-.042-.18-.06-.27-.096 1.434.738 2.802 2.4 1.542 4.26s-6.414 4.242-11.766 1.8c.393.337.8364.6103 1.314.81 2.886 1.26 7.278.774 9.816-1.098s2.25-4.416-.636-5.676z" fill="#fff" opacity=".3"/><path d="m33.8518 61.542c-.2927-.1205-.5989-.2051-.9119-.252.912.3 1.866 1.11 1.53 2.016-.288.78-2.178 2.238-5.172 1.302.0738.0458.1499.0879.2279.126.7578.283 1.5717.3832 2.3755.2925s1.5749-.3698 2.2505-.8145c1.194-.876 1.062-2.076-.3-2.67z" fill="#fff" opacity=".3"/><path d="m58.2003 211.8c-.426-.186-.876-.348-1.338-.498 8.724 2.97 5.496 10.704-2.064 13.386-7.704 2.73-15.492.528-17.58-.966.7883.66 1.6698 1.2 2.616 1.602 5.772 2.526 14.562 1.548 19.632-2.19s4.524-8.832-1.266-11.334z" fill="#fff" opacity=".4"/></svg>