<svg fill="none" height="125" viewBox="0 0 125 125" width="125" xmlns="http://www.w3.org/2000/svg" xmlns:xlink="http://www.w3.org/1999/xlink"><clipPath id="a"><path d="m0 0h125v125h-125z"/></clipPath><g clip-path="url(#a)"><path d="m77.8832 81.2935c-.2734.1487-.5737.2192-.8716.2192-.4736 0-.9424-.1831-1.2939-.5344l-12.6807-12.6804c-.3467-.3467-.5371-.8155-.5371-1.2967 0 .4812-.1905.95-.5371 1.2967l-12.6807 12.6804c-.3516.3513-.8203.5344-1.294.5344-.2978 0-.5981-.0705-.8716-.2192l-31.6136-17.1348v34.5914c-.0002.0634.003.1264.0093.1887.0027.0266.0078.0525.0115.0786.0046.032.0083.064.0146.0955.0079.04.0186.0786.0289.1172.0048.018.0085.0361.0139.0539.0119.0396.0263.0776.0407.116.0064.0171.0118.0344.0188.0515.0142.0344.0306.0676.0467.1011.01.0205.019.041.0298.0615.0146.0271.0307.0535.0466.0796.0151.0251.0295.0505.0456.0754.0135.0205.0286.0396.043.0591.0208.0291.0413.0576.0637.0854.0125.0154.0264.0296.0393.0445.0259.03.0518.0599.0796.0879.0147.015.0303.028.0454.042.0279.026.0552.052.0848.077.0285.024.0588.045.0886.067.0176.013.0339.026.052.039.0525.035.1069.068.1631.098l45.1602 24.411c.272.147.5713.22.8709.22.2995 0 .5991-.073.8706-.22l45.1605-24.411c.056-.03.11-.063.163-.098.018-.013.034-.026.052-.039.03-.022.06-.044.088-.067.03-.025.057-.051.085-.077.015-.014.031-.027.045-.042.028-.028.054-.0579.08-.0879.013-.0149.027-.0291.039-.0445.023-.0275.043-.0561.064-.0854.014-.0195.029-.0386.043-.0591.016-.0249.03-.05.046-.0754.015-.0264.032-.0525.046-.0796.011-.0205.02-.041.03-.0615.016-.0335.032-.0667.047-.1011.007-.0171.012-.0344.018-.0515.015-.0381.029-.0764.041-.116.006-.0176.009-.0359.014-.0539.01-.0386.021-.0772.029-.1172.006-.0315.01-.0635.015-.0955.003-.0261.009-.052.011-.0786.006-.0625.01-.1255.009-.1887v-34.5914z" fill="#e2ae83"/><path d="m61.5404 16.124c.5078-.2732.8569-.7739.9399-1.3452.0122-.0876.0196-.1755.0196-.2637 0 .0882.0073.1761.0195.2613.083.5713.4321 1.0695.9399 1.3452l45.1657 24.4141c.276.1492.574.2197.872.2197-.298 0-.596.0735-.872.2222l-45.1657 24.4141c-.5078.2737-.8569.7739-.9399 1.3452-.0122.0882-.0195.176-.0195.2637 0-.0877-.0074-.1755-.0196-.2637-.083-.5713-.4321-1.0715-.9399-1.3452l-45.1661-24.4141c-.2417-.1292-.5005-.2026-.7593-.2197.2588-.0171.5176-.0901.7593-.2198z" fill="#c48d69"/><path d="m123.867 25.9793c.083.5713-.105 1.1472-.513 1.5573l-12.558 12.6788c-.352.3562-.823.5417-1.299.5417-.298 0-.596-.0705-.872-.2197l-45.1658-24.4141c-.5078-.2757-.8569-.7739-.9399-1.3452-.0122-.0855-.0195-.1731-.0195-.2613 0-.0024 0-.0024 0-.0048 0-.4808.1904-.95.5371-1.2938l12.6807-12.680888c.5712-.5737316 1.4526-.700441 2.1655-.314698l45.0439 24.414086c.508.273.855.7713.94 1.3426z" fill="#d39c72"/><path d="m123.354 53.9785c.408.4102.596.9866.513 1.5579-.085.5689-.432 1.0667-.94 1.3428l-45.0439 24.4141c-.2735.1487-.5737.2192-.8716.2192-.4736 0-.9424-.1831-1.2939-.5344l-12.6807-12.6804c-.3467-.3467-.5371-.8155-.5371-1.2967 0-.0876.0073-.1755.0195-.2636.083-.5713.4321-1.0716.9399-1.3453l45.1658-24.4141c.276-.1487.574-.2221.872-.2221.476 0 .947.188 1.299.5422z" fill="#f2c397"/><path d="m123.355 53.9785-12.559-12.6804c-.352-.3542-.823-.5422-1.299-.5422-.298 0-.596.0734-.872.2221l-4.768 2.5791c.276-.1486.574-.2221.872-.2221.476 0 .947.188 1.298.5422l12.559 12.6804c.408.4102.596.9866.513 1.5579-.086.5689-.432 1.0667-.94 1.3428l4.768-2.5791c.508-.2761.855-.7739.94-1.3428.083-.5713-.105-1.1477-.512-1.5579z" fill="#e2ae83"/><path d="m62.4998 14.5105v.0049c0 .0882-.0073.1761-.0195.2637-.083.5713-.4321 1.072-.9399 1.3452l-45.1661 24.4141c-.2417.1297-.5005.2027-.7593.2198-.0513-.0025-.105-.0025-.1563 0-.4614-.0096-.913-.1951-1.2548-.5394l-12.55866-12.6811c-.40772-.4102-.59571-.9861-.5127-1.5574.08545-.5689.43213-1.0671.93994-1.3428l45.04402-24.41409c.7129-.385743 1.5943-.2565921 2.1655.314698l12.6807 12.680892c.3467.347.5347.8133.5371 1.2915z" fill="#e2ae83"/><path d="m62.4803 66.7374c.0122.0881.0195.176.0195.2636 0 .4812-.1904.95-.5371 1.2967l-12.6807 12.6804c-.3515.3513-.8203.5344-1.2939.5344-.2979 0-.5981-.0705-.8716-.2192l-45.04402-24.4141c-.50781-.2761-.85449-.7739-.93994-1.3428-.08301-.5713.10498-1.1477.5127-1.5579l12.55866-12.6804c.3418-.3442.7934-.5298 1.2548-.5398.0147.0024.0293.0024.044.0024.0366 0 .0732 0 .1123-.0024.2588.0171.5176.0906.7593.2197l45.1661 24.4141c.5078.2737.8569.774.9399 1.3453z" fill="#ffd2a6"/><path d="m15.615 40.7584c-.0391.0025-.0757.0025-.1123.0025-.0147 0-.0293 0-.044-.0025.0513-.0024.105-.0024.1563 0z" fill="#e2ae83"/><path d="m108.968 64.4453c-.024.0459-.049.063-.074.0401l-6.722 3.6435v34.5891c0 .063-.003.126-.009.188-.003.027-.008.053-.012.079-.005.032-.008.064-.015.095-.007.04-.018.079-.028.118-.005.018-.009.036-.014.054-.012.039-.027.077-.041.116-.006.017-.012.034-.019.051-.014.034-.03.068-.046.101-.01.021-.019.041-.03.062-.015.027-.031.053-.047.079-.015.026-.029.051-.046.076-.013.02-.028.039-.042.059-.021.029-.042.057-.064.085-.013.016-.027.03-.04.045-.026.03-.051.059-.079.087-.015.015-.03.028-.045.042-.028.026-.055.053-.085.077-.029.024-.059.045-.089.067-.017.013-.034.027-.052.039-.012.008-.025.015-.036.023l7.198-3.892c.056-.03.111-.063.163-.098.018-.013.035-.027.052-.039.03-.022.061-.044.089-.068.03-.024.057-.05.085-.077.015-.013.03-.027.045-.042.028-.028.054-.0571.079-.0872.013-.0149.027-.029.04-.0444.022-.0276.043-.0561.063-.0854.015-.0196.03-.0386.043-.0591.017-.0249.031-.0501.046-.0755.016-.0263.032-.0525.047-.0796.01-.0205.02-.041.03-.0615.016-.0334.032-.0666.046-.1011.007-.017.013-.0344.019-.0515.014-.0381.029-.0764.041-.1159.005-.0176.009-.0359.014-.054.01-.0386.021-.0771.028-.1172.007-.0315.01-.0635.015-.0954.004-.0262.009-.052.012-.0786.006-.0625.009-.1255.009-.1888v-34.5911z" fill="#d39c72"/><path d="m61.9628 68.2979-12.6807 12.6804c-.3516.3513-.8203.5344-1.294.5344-.2978 0-.5981-.0705-.8716-.2192l-31.6136-17.1348v34.5914c-.0002.0634.003.1264.0093.1887.0027.0266.0078.0525.0115.0786.0046.032.0083.064.0146.0955.0079.04.0186.0786.0289.1172.0048.018.0085.0361.0139.0539.0119.0396.0263.0776.0407.116.0064.0171.0118.0344.0188.0515.0142.0344.0306.0676.0467.1011.01.0205.019.041.0298.0615.0146.0271.0307.0535.0466.0796.0151.0251.0295.0505.0456.0754.0135.0205.0286.0396.043.0591.0208.0291.0413.0576.0637.0854.0125.0154.0264.0296.0393.0445.0259.03.0518.0599.0796.0879.0147.015.0303.028.0454.042.0279.026.0552.052.0848.077.0285.024.0588.045.0886.067.0176.013.0339.026.052.039.0525.035.1069.068.1631.098l45.1602 24.411c.272.147.5713.22.8709.22v-57.9988c0 .4812-.1905.95-.5371 1.2967z" fill="#f2c397"/></g></svg>