<svg fill="none" height="24" viewBox="0 0 24 24" width="24" xmlns="http://www.w3.org/2000/svg"><g fill="#000"><path d="m22.5468 17.3906c.5178 0 .9375-.4197.9375-.9375v-4.3125c0-1.5508-1.2617-2.81249-2.8125-2.81249h-1.8281v-3.70312c0-2.06775-1.6822-3.74999-3.75-3.74999h-2.2281c-.3627-1.113236-1.3999-1.875-2.5856-1.875h-1.20066c-1.18574 0-2.22285.761764-2.58562 1.875h-2.2281c-2.06775 0-3.749995 1.68224-3.749995 3.74999v14.62501c0 2.0677 1.682245 3.75 3.749995 3.75h4.12499c.51778 0 .9375-.4198.9375-.9375 0-.5178-.41972-.9375-.9375-.9375h-4.12499c-1.03388 0-1.875-.8412-1.875-1.875v-14.62501c0-1.03387.84112-1.875 1.875-1.875h.09375v2.76562c0 .51778.41972.9375.9375.9375h8.85933c.5178 0 .9375-.41972.9375-.9375v-2.76562c1.0339 0 1.875.84113 1.875 1.875v3.70312h-3.0472c-1.5506 0-2.8121 1.26159-2.8121 2.81219v9.0475c0 1.5507 1.2616 2.8122 2.8129 2.8122l6.7495-.0035c1.5508 0 2.8125-1.2616 2.8125-2.8121 0-.5178-.4197-.9375-.9375-.9375-.5177 0-.9375.4197-.9375.9375 0 .5167-.4205.9371-.9379.9371l-6.7496.0035c-.5169 0-.9374-.4205-.9374-.9372v-9.0475c0-.5168.4204-.9372.9371-.9372h6.7503c.517 0 .9375.4206.9375.9375v4.3125c0 .5178.4198.9375.9375.9375zm-9.3281-11.81249h-6.98434v-1.82812h.98438c.43017 0 .80517-.29278.90951-.71011l.13116-.52471c.09422-.37692.43139-.64017.81993-.64017h1.20066c.3885 0 .7257.26325.8199.64017l.1312.52471c.1043.41733.4793.71011.9095.71011h1.0781z"/><path d="m18.7969 13.0781h-3c-.5178 0-.9375.4197-.9375.9375s.4197.9375.9375.9375h3c.5177 0 .9375-.4197.9375-.9375s-.4197-.9375-.9375-.9375z"/><path d="m18.7969 16.3594h-3c-.5178 0-.9375.4197-.9375.9375s.4197.9375.9375.9375h3c.5177 0 .9375-.4197.9375-.9375s-.4197-.9375-.9375-.9375z"/></g></svg>