<svg fill="none" height="24" viewBox="0 0 24 24" width="24" xmlns="http://www.w3.org/2000/svg" xmlns:xlink="http://www.w3.org/1999/xlink"><clipPath id="a"><path d="m0 0h24v24h-24z"/></clipPath><g clip-path="url(#a)"><path d="m14 7v-6.54c.9251.349335 1.7653.89131 2.465 1.59l3.484 3.486c.6995.69888 1.2419 1.5389 1.591 2.464h-6.54c-.2652 0-.5196-.10536-.7071-.29289-.1875-.18754-.2929-.44189-.2929-.70711zm8 3.485v8.515c-.0016 1.3256-.5289 2.5964-1.4662 3.5338-.9374.9373-2.2082 1.4646-3.5338 1.4662h-10c-1.32559-.0016-2.59644-.5289-3.53378-1.4662-.93734-.9374-1.46463-2.2082-1.46622-3.5338v-14c.00159-1.3256.52888-2.59644 1.46622-3.53378.93734-.937338 2.20819-1.46463214 3.53378-1.46622h4.515c.163 0 .324.013.485.024v6.976c0 .79565.3161 1.55871.8787 2.12132s1.3257.87868 2.1213.87868h6.976c.011.161.024.322.024.485zm-8 8.515c0-.2652-.1054-.5196-.2929-.7071s-.4419-.2929-.7071-.2929h-5c-.26522 0-.51957.1054-.70711.2929-.18753.1875-.29289.4419-.29289.7071s.10536.5196.29289.7071c.18754.1875.44189.2929.70711.2929h5c.2652 0 .5196-.1054.7071-.2929s.2929-.4419.2929-.7071zm3-4c0-.2652-.1054-.5196-.2929-.7071s-.4419-.2929-.7071-.2929h-8c-.26522 0-.51957.1054-.70711.2929-.18753.1875-.29289.4419-.29289.7071s.10536.5196.29289.7071c.18754.1875.44189.2929.70711.2929h8c.2652 0 .5196-.1054.7071-.2929s.2929-.4419.2929-.7071z" fill="#000"/><path d="m14.4115 17.6562h6.8489c1.2387 0 2.2396.9998 2.2396 2.229v1.3645c0 1.2291-1.0009 2.2289-2.2396 2.2289h-6.8489c-1.2388 0-2.2396-.9998-2.2396-2.2289v-1.3645c0-1.2292 1.0008-2.229 2.2396-2.229z" fill="#d9d9d9" stroke="#000"/><g fill="#000"><path d="m14.1855 21.7045v-2.6332h1.1411c.2218 0 .4066.0427.5544.1281.1479.0854.2576.1957.3291.3309.0739.1352.1109.2764.1109.4235 0 .1494-.037.2918-.1109.427-.0715.1352-.1812.2467-.3291.3345-.1478.0854-.3326.1281-.5544.1281h-.5222v.8611zm1.1375-2.0959h-.5186v.701h.5186c.1264 0 .2206-.0368.2826-.1103s.093-.1542.093-.242-.031-.1672-.093-.2384c-.062-.0735-.1562-.1103-.2826-.1103z"/><path d="m16.6552 21.7045v-2.6332h1.048c.217 0 .4078.0379.5723.1139.1646.0735.3005.1731.4078.2989.1097.1257.192.2668.2468.4234.0549.1566.0823.3167.0823.4804s-.0274.3238-.0823.4804c-.0548.1565-.1371.2977-.2468.4234-.1073.1257-.2432.2266-.4078.3025-.1645.0735-.3553.1103-.5723.1103zm1.0194-2.0923h-.4006v1.5443h.4006c.1645 0 .2993-.038.4042-.1139.1073-.0759.186-.172.2361-.2882.05-.1186.0751-.2432.0751-.3736 0-.1258-.0251-.2479-.0751-.3665-.0501-.1187-.1288-.2147-.2361-.2883-.1049-.0759-.2397-.1138-.4042-.1138z"/><path d="m19.3658 21.7045v-2.6332h1.8815v.5337h-1.2627v.6299h1.1017v.5124h-1.1017v.9572z"/></g></g></svg>