<svg viewBox="0 0 766.58 857.39" xmlns="http://www.w3.org/2000/svg" xmlns:xlink="http://www.w3.org/1999/xlink"><linearGradient id="a" gradientUnits="userSpaceOnUse" x1="129.02" x2="459.63" y1="470.85" y2="470.85"><stop offset=".04" stop-color="#7da6ff"/><stop offset=".21" stop-color="#76a0fb"/><stop offset=".46" stop-color="#618ef0"/><stop offset=".77" stop-color="#4072dd"/><stop offset=".97" stop-color="#275ccf"/></linearGradient><linearGradient id="b" gradientUnits="userSpaceOnUse" x1="505.84" x2="643.22" y1="491.55" y2="729.5"><stop offset=".04" stop-color="#e29439"/><stop offset=".83" stop-color="#e17500"/></linearGradient><ellipse cx="383.29" cy="388.97" fill="#dee8ff" rx="351.78" ry="417.62" transform="matrix(.73668749 -.67623335 .67623335 .73668749 -162.11 361.57)"/><circle cx="588.78" cy="253.17" fill="#3834b5" r="94.76" transform="matrix(.70710678 -.70710678 .70710678 .70710678 -6.57 490.49)"/><path d="m459.63 315.89c0-66.95-74-121.23-165.3-121.23s-165.33 54.28-165.33 121.23v299.47h.62a90.62 90.62 0 0 0 -.62 10.45c0 67 74 121.23 165.31 121.23s165.3-54.27 165.3-121.23a89.66 89.66 0 0 0 -1.26-15s1.28-289.81 1.28-294.92z" fill="url(#a)"/><ellipse cx="294.33" cy="661.86" fill="#335cba" rx="128.34" ry="60.47"/><path d="m216.74 632-24.3-6c-17.9-4.39-32.55-23.93-32.55-43.43v-231.44c0-19.5 14.65-31.87 32.55-27.48l24.3 6c17.91 4.35 32.56 23.89 32.56 43.35v231.52c0 19.48-14.65 31.87-32.56 27.48z" fill="#fcfeff" opacity=".27"/><ellipse cx="297.87" cy="208.87" fill="#2f6ad6" rx="91.54" ry="46.83"/><path d="m389.42 208.87c0 25.86-41 46.83-91.55 46.83l-18.22-.93c53.09-11.15 81.06-37.16 79.09-80.88 18.82 8.58 30.68 21.11 30.68 34.98z" fill="#2b60c2"/><ellipse cx="297.87" cy="202" fill="#6094f5" rx="82.79" ry="42.17"/><path d="m215.08 148.26h165.58v53.73h-165.58z" fill="#6094f5"/><path d="m297.87 244.17c45.73 0 82.79-18.88 82.79-42.17v-53.74c-17.99 45.89-43.91 80.3-82.79 95.91z" fill="#4c87f5"/><ellipse cx="297.87" cy="148.26" fill="#85b0ff" rx="82.79" ry="42.17"/><g fill="#b8d1ff"><ellipse cx="299.2" cy="144.94" rx="50.5" ry="25.72"/><path d="m224.85 212.56a3.56 3.56 0 0 1 -3.55-3.56v-30.32a3.56 3.56 0 0 1 3.55-3.55 3.56 3.56 0 0 1 3.55 3.55v30.32a3.56 3.56 0 0 1 -3.55 3.56z"/><path d="m241.88 223.53a3.56 3.56 0 0 1 -3.55-3.54v-30.34a3.56 3.56 0 0 1 3.55-3.55 3.56 3.56 0 0 1 3.55 3.55v30.35a3.56 3.56 0 0 1 -3.55 3.53z"/><path d="m259.62 230.21a3.56 3.56 0 0 1 -3.55-3.55v-30.33a3.56 3.56 0 0 1 3.55-3.55 3.56 3.56 0 0 1 3.54 3.55v30.33a3.56 3.56 0 0 1 -3.54 3.55z"/><path d="m279.65 235.27a3.56 3.56 0 0 1 -3.55-3.55v-30.34a3.56 3.56 0 0 1 3.55-3.54 3.56 3.56 0 0 1 3.55 3.54v30.34a3.56 3.56 0 0 1 -3.55 3.55z"/><path d="m372.22 212.56a3.56 3.56 0 0 0 3.55-3.55v-30.33a3.56 3.56 0 0 0 -3.55-3.55 3.56 3.56 0 0 0 -3.54 3.55v30.32a3.56 3.56 0 0 0 3.54 3.56z"/><path d="m355.19 223.53a3.55 3.55 0 0 0 3.55-3.54v-30.34a3.56 3.56 0 0 0 -3.55-3.55 3.56 3.56 0 0 0 -3.54 3.55v30.35a3.55 3.55 0 0 0 3.54 3.53z"/><path d="m337.46 230.21a3.56 3.56 0 0 0 3.54-3.55v-30.33a3.56 3.56 0 0 0 -3.54-3.55 3.56 3.56 0 0 0 -3.55 3.55v30.33a3.56 3.56 0 0 0 3.55 3.55z"/><path d="m317.42 235.27a3.56 3.56 0 0 0 3.55-3.55v-30.34a3.56 3.56 0 0 0 -3.55-3.54 3.56 3.56 0 0 0 -3.55 3.54v30.34a3.56 3.56 0 0 0 3.55 3.55z"/><path d="m299.2 237.83a3.56 3.56 0 0 1 -3.55-3.54v-30.29a3.56 3.56 0 0 1 3.55-3.54 3.56 3.56 0 0 1 3.55 3.54v30.34a3.56 3.56 0 0 1 -3.55 3.49z"/></g><path d="m447.84 798.7-.8-.91-8.74-9.89-1.14-1.3-.08.07c-4.36-4-11.09-5.71-19.44-4.32-18.34 3-37.5 19.95-42.8 37.77-2.41 8.11-1.52 15 1.88 19.83l-.08.07 10.68 12.09c4.35 4.23 11.24 6.1 19.83 4.68 18.33-3.05 37.49-20 42.79-37.77 2.56-8.41 1.56-15.48-2.1-20.32z" fill="#dee8ff"/><path d="m724.63 666-208.55 128.06a42.16 42.16 0 0 0 -3.86-2.12l-85.08-10.83v38.41s35.86 23.82 74.55 11.48c17.93 2.27 33.3-2.83 44.27-14.35l187.78-117.76a44.93 44.93 0 0 0 9.76-5.35c17.18-12.42-.81-38.64-18.87-27.54z" fill="#dee8ff"/><path d="m739 620.4c0-60.07-42.17-133.11-94.19-163.15-24.81-14.25-47.31-16.25-64.12-7.92a45.57 45.57 0 0 0 -5.24 3.05l-208.19 119.18 149.82 230.77 188.4-118.1c20.52-8.13 33.52-30.46 33.52-63.83z" fill="url(#b)"/><ellipse cx="438.02" cy="690.78" fill="#ed9845" rx="79.74" ry="138.11" transform="matrix(.8660254 -.5 .5 .8660254 -286.72 311.57)"/><ellipse cx="420.7" cy="701.65" fill="#aa5509" rx="65.73" ry="113.65" transform="matrix(.86759192 -.49727684 .49727684 .86759192 -293.21 302.11)"/><ellipse cx="643" cy="564.67" fill="#aa5509" opacity=".37" rx="65.73" ry="113.65" transform="matrix(.86759192 -.49727684 .49727684 .86759192 -195.66 394.52)"/><path d="m431.16 603.4c-25.27-14.59-47.89-14.58-63.1-2.77 11 .16 23.26 3.8 36.27 11.31 45.8 26.44 82.93 90.75 82.93 143.64 0 23.7-7.47 41.06-19.83 50.65 27.62.41 46.66-21.32 46.66-59.19 0-52.88-37.09-117.19-82.93-143.64z" fill="#ffa664"/><path d="m431.16 794.92c-45.8-26.44-82.93-90.75-82.93-143.64 0-23.7 7.47-41.06 19.83-50.65-27.62-.41-46.66 21.32-46.66 59.19 0 52.88 37.13 117.19 82.93 143.64 25.27 14.59 47.89 14.58 63.1 2.77-10.96-.16-23.26-3.8-36.27-11.31z" fill="#d37b33"/><path d="m578.09 506.63-110 66a17.53 17.53 0 0 1 -24-6 17.53 17.53 0 0 1 6-24l110-66.05a17.53 17.53 0 0 1 24 6 17.53 17.53 0 0 1 -6 24.05z" fill="#ffe0c9" opacity=".18"/><ellipse cx="441.27" cy="781.11" fill="#cfdeff" rx="25.22" ry="40.36" transform="matrix(.07358632 -.99728885 .99728885 .07358632 -370.22 1163.64)"/><path d="m433.7 733.91h16.14v80.72h-16.14z" fill="#cfdeff" transform="matrix(.07358632 -.99728885 .99728885 .07358632 -362.92 1157.83)"/><ellipse cx="442.24" cy="767.94" fill="#fff" rx="25.22" ry="40.36" transform="matrix(.07358632 -.99728885 .99728885 .07358632 -356.19 1152.41)"/><g fill="#cfdeff"><ellipse cx="442.36" cy="766.22" rx="18.45" ry="29.52" transform="matrix(.07358632 -.99728885 .99728885 .07358632 -354.36 1150.95)"/><ellipse cx="396.76" cy="824.66" rx="40.36" ry="25.22" transform="matrix(.7497647 -.66170453 .66170453 .7497647 -446.39 468.88)"/><path d="m351.86 811.46h80.72v16.14h-80.72z" transform="matrix(.7497647 -.66170453 .66170453 .7497647 -444.14 464.61)"/></g><ellipse cx="388.03" cy="814.77" fill="#fff" rx="40.36" ry="25.22" transform="matrix(.7497647 -.66170453 .66170453 .7497647 -442.03 460.62)"/><ellipse cx="386.88" cy="813.47" fill="#cfdeff" rx="29.52" ry="18.45" transform="matrix(.7497647 -.66170453 .66170453 .7497647 -441.46 459.54)"/><ellipse cx="402.4" cy="717.75" fill="#cfdeff" rx="25.22" ry="40.36" transform="matrix(.67327065 -.73939612 .73939612 .67327065 -399.22 532.04)"/><path d="m398.95 672.32h16.14v80.72h-16.14z" fill="#cfdeff" transform="matrix(.67327065 -.73939612 .73939612 .67327065 -393.97 533.82)"/><ellipse cx="411.29" cy="707.99" fill="#fff" rx="25.22" ry="40.36" transform="matrix(.67327065 -.73939612 .73939612 .67327065 -389.11 535.42)"/><ellipse cx="412.45" cy="706.72" fill="#cfdeff" rx="18.45" ry="29.52" transform="matrix(.67327065 -.73939612 .73939612 .67327065 -387.78 535.86)"/><path d="m334.87 821.53v-1.21l-.26-13.2v-1.73h-.1c-.76-5.86-4.77-11.53-12-15.88-16-9.53-41.51-9-57.07 1.13-7.09 4.63-10.87 10.46-11.39 16.34h-.11l.3 14.92v1.21h.05c.58 6 4.62 11.92 12.1 16.39 15.95 9.53 41.5 9 57.06-1.13 7.3-4.76 11.1-10.8 11.45-16.85z" fill="#dee8ff"/><ellipse cx="281.84" cy="821.62" fill="#cfdeff" rx="40.36" ry="25.22" transform="matrix(.99980552 -.01972094 .01972094 .99980552 -16.15 5.72)"/><path d="m241.34 806.7h80.72v16.14h-80.72z" fill="#cfdeff" transform="matrix(1 -.02 .02 1 -16.04 5.72)"/><ellipse cx="281.58" cy="808.43" fill="#fff" rx="40.36" ry="25.22" transform="matrix(.99980552 -.01972094 .01972094 .99980552 -15.89 5.71)"/><ellipse cx="281.54" cy="806.7" fill="#cfdeff" rx="29.52" ry="18.45" transform="matrix(.99980552 -.01972094 .01972094 .99980552 -15.86 5.71)"/><path d="m300.75 808.73-41.09 1.27a4 4 0 0 1 -4.1-3.85 4 4 0 0 1 3.85-4.1l41.1-1.27a4 4 0 0 1 4.09 3.85 4 4 0 0 1 -3.85 4.1z" fill="#adc7ff"/><circle cx="576.32" cy="253.17" fill="#5488fd" r="94.76" transform="matrix(.70710678 -.70710678 .70710678 .70710678 -10.22 481.67)"/><path d="m572.43 311a16.39 16.39 0 0 1 -16.35-16.35v-87.86a16.39 16.39 0 0 1 16.35-16.35 16.39 16.39 0 0 1 16.35 16.35v87.83a16.39 16.39 0 0 1 -16.35 16.38z" fill="#fff"/><rect fill="#fff" height="120.54" rx="9.64" transform="matrix(0 1 -1 0 823.14 -321.73)" width="32.7" x="556.09" y="190.44"/></svg>