<svg fill="none" height="70" viewBox="0 0 70 70" width="70" xmlns="http://www.w3.org/2000/svg" xmlns:xlink="http://www.w3.org/1999/xlink"><clipPath id="a"><path d="m0 0h70v70h-70z"/></clipPath><g clip-path="url(#a)"><path d="m57.5179 64.0532c12.6994-7.3318 12.6994-19.2206 0-26.5538s-33.292-7.3318-45.9928 0c-12.70083 7.3318-12.69943 19.222 0 26.5538 12.6994 7.3318 33.292 7.3332 45.9928 0z" fill="#f5f5f5"/><path d="m20 64c6.6274 0 12-2.9102 12-6.5 0-3.5899-5.3726-6.5-12-6.5s-12 2.9101-12 6.5c0 3.5898 5.3726 6.5 12 6.5z" fill="#e0e0e0"/><path d="m59.0322 62.7902.5861-.2216c.0984-.0439.1851-.1103.2531-.1939.068-.0835.1154-.1818.1384-.2871l6.9596-42.9738c.0113-.1071-.0026-.2154-.0408-.3161s-.0994-.1911-.1789-.2638l-22.3541-18.224823c-.0868-.063657-.1874-.10582-.2936-.123026-.1063-.017206-.2151-.008964-.3175.024047l-.5879.222838c-.0983.043506-.185.109609-.253.192931-.068.083323-.1154.181514-.1382.28659l-6.9589 42.969443c-.0114.1071.0025.2155.0406.3162.0382.1008.0995.1911.1791.2638l22.3533 18.2291c.0871.0637.188.1059.2944.1232.1065.0172.2156.009.3183-.024z" fill="#516eb4"/><path d="m59.0322 62.7902.5861-.2216c.0984-.0439.1851-.1103.2531-.1939.068-.0835.1154-.1818.1384-.2871l6.9596-42.9738c.0113-.1071-.0026-.2154-.0408-.3161s-.0994-.1911-.1789-.2638l-22.3541-18.224823c-.0868-.063657-.1874-.10582-.2936-.123026-.1063-.017206-.2151-.008964-.3175.024047l-.5879.222838c-.0983.043506-.185.109609-.253.192931-.068.083323-.1154.181514-.1382.28659l-6.9589 42.969443c-.0114.1071.0025.2155.0406.3162.0382.1008.0995.1911.1791.2638l22.3533 18.2291c.0871.0637.188.1059.2944.1232.1065.0172.2156.009.3183-.024z" fill="#000" opacity=".3"/><path d="m42.8169.859626c.0473-.155057.1792-.192874.3233-.077826l22.3533 18.2292c.0813.0707.143.1612.1793.2627l1.2606-.4763c-.0368-.1013-.0985-.1916-.1794-.2628l-22.3569-18.225255c-.087-.06371-.1879-.105912-.2944-.123156s-.2155-.009038-.3182.023944l-.5876.221396c-.0901.040369-.1705.09941-.236.173213s-.1146.160683-.144.254884z" fill="#516eb4" opacity=".4"/><path d="m58.4747 62.7251c.0051.0046.0111.0081.0175.0103l.0299.0166.0115.0019.0553.0237c.1184.0426.2461.0525.3696.0288.0245-.0049.0494-.0127.0727-.0193l.5864-.223c.0982-.0441.1848-.1106.2527-.1941.068-.0835.1155-.1818.1388-.2869l6.9588-42.9695c.0141-.1074.0002-.2166-.0403-.3171l-1.2606.4763c.041.1004.0554.2098.0418.3174l-6.9595 42.9738c-.0064.0581-.0324.1123-.0737.1537-.0232.0202-.0516.0333-.0819.0378-.0304.0046-.0614.0003-.0894-.0123z" fill="#000" opacity=".15"/><path d="m49.0878 9.45355 9.3687 7.64135.6302-.2382.2582-1.5942c.0327-.2018.0435-.4693-.5588-1.6644-.6023-1.1952-.5637-1.5706-.8418-2.1097-.278-.5391-.8575-1.0072-1.1293-2.21535-.2718-1.20819-.0304-2.96343-1.1764-3.88864-.1484-.1337-.3293-.22623-.5246-.26838-.1015-.01623-.2054-.00498-.3011.03259l-.5768.2187-.052.01969.1151.24793c-.2365.35518-.4255.80089-.6686 1.03222-.0822.08664-.1824.15425-.2935.19809-.1111.04385-.2304.06287-.3497.05573-.3303-.01504-.6341-.19442-.859-.1761-.0527.00556-.1045.01807-.1539.0372l-.6303.23815.0312.05388c-.0789.02277-.1589.04141-.2398.05583-.0727.01042-.1514.02134-.2469.02658-.2142.0029-.4264.04153-.6279.11428l-.5556.20588-.0505.01992zm8.8774 5.16685c.0336-.2075.1588-.2953.2802-.1957.0678.0743.1175.1632.1455.2598.0279.0966.0333.1983.0158.2974-.0336.2075-.1612.2919-.2829.1938-.0674-.0741-.1168-.1627-.1444-.2591-.0275-.0963-.0323-.1977-.0142-.2962zm-4.2609-6.75495c.1081-.66739.4673-1.00416.8569-.8612.0395-.07154.0951-.13287.1626-.17908.0674-.04621.1446-.07601.2256-.08704.081-.01104.1634-.00298.2407.02351.0773.0265.1474.0707.2046.12908.4621.37069.7322 1.31529.6054 2.098-.1076.6645-.4688 1.00393-.8554.86143-.2133.30275-.5282.36565-.8352.11474-.4629-.37525-.7324-1.31385-.6054-2.098zm-2.9687.86682c.0338-.20901.1602-.29505.2831-.19527.0682.07313.1186.16094.1475.25667.0289.09572.0354.1968.019.29543-.0334.20613-.16.29361-.2814.19406-.0686-.07265-.1195-.16018-.1487-.25574-.0291-.09556-.0358-.19657-.0195-.29515z" fill="#455a64"/><path d="m58.1304 15.4698 1.2152-.4615c.0119.0843.0105.1699-.0041.2538l-.2582 1.5942-.6302.2382-.5229-.4249z" fill="#37474f" opacity=".5"/><path d="m57.3089 13.2953-.3618-1.4195.999-.387c.2081.4139.2374.7263.5025 1.3728z" fill="#37474f" opacity=".5"/><path d="m55.4322 10.2695-.0124-.39849c.271-.06558.4952-.38133.5762-.88151.1076-.66451-.0715-1.44052-.4113-1.89052l.8702-.33096c.215.8277.1927 1.76045.3571 2.4986.0358.15372.0758.29925.1192.43349z" fill="#37474f" opacity=".5"/><path d="m49.3465 7.8594-.2582 1.59424 9.3688 7.64136.2586-1.5971c.0327-.2018.0447-.4676-.5574-1.6642-.602-1.1966-.5665-1.5622-.8417-2.1097-.2753-.5475-.8564-1.0055-1.1198-2.21972s-.0325-2.95045-1.1764-3.88864c-.3176-.25853-.5702-.3157-.7823-.25687l-.052.01968c-.5212.20405-.7928 1.14082-1.1809 1.51878-.0055.00474-.0108.00982-.0158.0152-.5509.51578-1.1238.03397-1.4881.05484-.0563.00434-.1116.0168-.1643.03701-.0734.03083-.1435.06904-.2093.11403-.261.16664-.5629.258-.8726.264-.189.00638-.3765.03562-.5584.08706l-.0506.01992c-.0824.02248-.1557.07032-.2095.13674-.0537.06641-.0853.14806-.0901.23337zm7.9919 6.9997c.0336-.2075.159-.2967.2819-.1969.0673.0745.1168.1634.1444.2599.0277.0966.033.1982.0154.297-.0336.2076-.1602.2951-.2816.1955-.0677-.074-.1173-.1626-.1451-.259-.0277-.0963-.0329-.1978-.015-.2965zm-3.6338-6.99211c.1081-.66739.4674-1.00417.857-.8612.0752.03028.1453.07207.2077.12388.4621.37069.732 1.31673.6052 2.09944-.0287.22214-.1071.43495-.2295.62257-.2132.30272-.5281.36562-.8351.11475-.4627-.37669-.7322-1.3153-.6053-2.09944zm-3.5934 1.09847c.0336-.20757.1602-.29506.2816-.19551.0684.07369.1188.16228.147.25877.0283.09649.0337.19823.0159.29719-.0336.20757-.1585.29384-.2814.19406-.068-.07363-.1182-.16198-.1465-.25817-.0283-.09618-.034-.19759-.0166-.29634z" fill="#37474f"/><path d="m53.7039 7.86692c-.127.78414.1426 1.72275.6052 2.09944.307.25094.6219.18794.8351-.11475-.0763-.0291-.147-.07108-.2092-.12411-.4621-.37069-.7322-1.3153-.6054-2.098.0291-.22269.1081-.43592.2312-.62378-.3896-.14297-.7488.19381-.8569.8612z" fill="#263238"/><path d="m57.4977 15.4145c.1217.0981.2481.012.2817-.1955.0176-.0989.0123-.2005-.0154-.297-.0277-.0966-.0771-.1855-.1444-.26-.1231-.0983-.2483-.0106-.2819.197-.0181.0986-.0131.2001.0147.2965s.0775.1851.1453.259z" fill="#263238"/><path d="m50.2708 9.52103c.1229.09978.2495.0123.2828-.19383.0179-.09901.0127-.20082-.0153-.29748-.028-.09665-.0779-.18552-.1459-.25968-.1214-.09955-.2483-.01062-.2816.1955-.0178.09866-.0126.20009.0151.29643.0278.09633.0773.18498.1449.25906z" fill="#263238"/><path d="m63.4761 21.3308-19.4511-15.86271c-.0522-.03832-.1128-.06369-.1767-.07404s-.1293-.00538-.1909.01451l-.2255.08626c-.0594.02605-.1117.06579-.1528.11596-.041.05018-.0696.10937-.0833.17272l-6.0083 37.0999c-.0068.0644.0017.1296.0248.1901.0231.0606.0601.1148.1081.1583l19.4498 15.8626c.0521.0383.1127.0636.1766.074.0639.0103.1293.0054.1909-.0145l.227-.086c.0589-.0266.1108-.0665.1515-.1167.0408-.0502.0692-.1091.0831-.1723l6.0083-37.0999c.0067-.0642-.0017-.1292-.0245-.1896-.0228-.0605-.0595-.1148-.107-.1586z" fill="#f5f5f5"/><path d="m56.8114 59.1232c.0202.0125.0421.022.065.0283l.0346.0056c.0366.0103.0743.0164.1124.0182.0237.0011.0474-.0011.0706-.0063l.0436-.0137.2267-.0846c.0588-.0266.1107-.0666.1514-.1167.0407-.0502.0692-.1091.0832-.1722l6.0085-37.1013c.0084-.0644.0002-.1299-.0239-.1903l-.6302.2382c.0232.06.0315.1248.0241.1888l-6.0083 37.0999c-.0134.1014-.0805.1408-.1577.1061z" fill="#e0e0e0"/><path d="m43.4319 5.49482.2255-.08626c.0616-.01989.127-.02486.1909-.01451s.1245.03572.1767.07404l19.4511 15.86271c.0475.0438.0842.0981.107.1586.0228.0604.0312.1254.0245.1896l-.9907 6.1175-.6305.2396-19.7816-16.1337.991-6.1189c.0137-.06335.0423-.12254.0833-.17272.0411-.05017.0934-.08991.1528-.11596z" fill="#516eb4"/><path d="m43.4319 5.49482.2255-.08626c.0616-.01989.127-.02486.1909-.01451s.1245.03572.1767.07404l19.4511 15.86271c.0475.0438.0842.0981.107.1586.0228.0604.0312.1254.0245.1896l-.9907 6.1175-.6305.2396-19.7816-16.1337.991-6.1189c.0137-.06335.0423-.12254.0833-.17272.0411-.05017.0934-.08991.1528-.11596z" fill="#fff" opacity=".4"/><path d="m43.2112 5.72898c.0352-.07122.1098-.08429.1841-.02197l19.4511 15.86279c.0493.0425.0869.0969.109.1581l.6301-.2367c-.0197-.0637-.0565-.1208-.1064-.1651l-19.455-15.85749c-.0519-.03825-.1122-.06359-.1759-.0739s-.1289-.0053-.1902.01461l-.2284.08579c-.05.02272-.095.05507-.1325.0952-.0374.04012-.0666.08725-.0859.13867z" fill="#516eb4"/><path d="m43.2112 5.72898c.0352-.07122.1098-.08429.1841-.02197l19.4511 15.86279c.0493.0425.0869.0969.109.1581l.6301-.2367c-.0197-.0637-.0565-.1208-.1064-.1651l-19.455-15.85749c-.0519-.03825-.1122-.06359-.1759-.0739s-.1289-.0053-.1902.01461l-.2284.08579c-.05.02272-.095.05507-.1325.0952-.0374.04012-.0666.08725-.0859.13867z" fill="#fff" opacity=".6"/><path d="m63.6071 21.6789-.991 6.119-.6302.2381.9909-6.1189c.0073-.0644-.0009-.1297-.0239-.1903l.63-.2367c.0244.0598.0327.1249.0242.1888z" fill="#516eb4"/><path d="m46.8045 24.0254 1.3649-1.4771-.7475-.6092-.9002.9918-.4604-2.4917c.0865-.0108.1692-.0414.2419-.0894s.1333-.1121.1772-.1874c.1326-.2124.2181-.4508.2508-.699.0785-.4729.0298-.9582-.1413-1.406-.171-.4478-.4583-.842-.8321-1.1421l-.9473-.7732-.7451 4.6011.6166.5037.237-1.4631.4116.3359.6692 3.1749-1.4102 1.5467.7643.6237.9305-1.0327.378 2.1056.7944.6478zm-1.7421-5.1178.2248-1.3881.4405.3672c.174.1321.2949.3223.3407.536.0401.1833.047.3723.0206.558-.0145.1434-.0824.2761-.1904.3715-.0992.0826-.2323.0551-.3994-.0824z" fill="#516eb4"/><g fill="#e0e0e0"><path d="m59.8909 30.6328-8.5181-6.9474.3132-1.9344 8.5184 6.9459z"/><path d="m59.5556 32.7074-8.5181-6.9473c-.0474-.0516-.0821-.1135-.1015-.1808-.0194-.0674-.0229-.1383-.0102-.2071.0233-.1442.1116-.2053.1967-.1368l8.5181 6.9474c.047.0517.0816.1137.101.1809.0193.0673.023.1381.0107.207-.0236.1456-.1119.2067-.1967.1367z"/><path d="m59.2688 34.4758-8.5181-6.9473c-.0471-.0518-.0816-.1137-.101-.181s-.023-.1381-.0107-.207c.0233-.1441.1119-.2067.1967-.1367l8.5181 6.9474c.0471.0517.0816.1137.101.1809.0194.0673.0231.1381.0107.207-.0235.1456-.1116.2053-.1967.1367z"/><path d="m58.981 36.2502-8.5181-6.9474c-.0474-.0516-.0821-.1135-.1015-.1808s-.0229-.1382-.0102-.2071c.0233-.1441.1116-.2053.1964-.1353l8.5184 6.9459c.0471.0521.0817.1142.101.1817.0194.0675.0229.1386.0105.2077-.0222.1369-.1105.1981-.1965.1353z"/><path d="m58.3893 39.9087-16.3832-13.36c-.0472-.0521-.0818-.1142-.1011-.1817s-.0229-.1386-.0104-.2077c.0233-.1441.1116-.2053.1965-.1353l16.3831 13.36c.0471.0518.0817.1137.1011.181.0193.0672.023.138.0107.2069-.0236.1456-.1119.2067-.1967.1368z"/><path d="m58.0304 42.1223-16.3832-13.36c-.0472-.052-.0817-.1142-.1011-.1817-.0193-.0675-.0229-.1386-.0104-.2077.0233-.1441.1116-.2053.1965-.1353l16.3832 13.36c.047.0518.0816.1137.101.181.0193.0672.023.138.0107.2069-.0236.1456-.1119.2068-.1967.1368z"/><path d="m57.672 44.3369-16.3832-13.36c-.0472-.052-.0817-.1142-.1011-.1817-.0193-.0675-.0229-.1386-.0104-.2077.0233-.1441.1116-.2053.1965-.1353l16.3832 13.36c.0471.0521.0817.1142.101.1817.0194.0675.0229.1386.0105.2077-.0241.1485-.1117.2053-.1965.1353z"/><path d="m57.3136 46.5508-16.3832-13.36c-.0472-.0521-.0817-.1142-.1011-.1817-.0193-.0676-.0229-.1386-.0104-.2077.0233-.1441.1116-.2053.1965-.1353l16.3832 13.36c.0471.052.0817.1142.101.1817.0194.0675.0229.1385.0105.2076-.0234.1442-.1117.2053-.1965.1354z"/></g><path d="m56.5014 51.5657-16.3829-13.3615c-.016-.0169-.0277-.0375-.0341-.0599s-.0073-.046-.0028-.0688c.0077-.0476.0377-.0679.0651-.0457l16.3839 13.3557c.016.017.0277.0375.0341.0599s.0073.046.0028.0689c-.0089.0547-.0374.0753-.0661.0514z" fill="#516eb4"/><path d="m40.5176 43.8427c-.5904-.4832-.9404-1.6922-.7777-2.6969s.7772-1.4288 1.3678-.9471c.5906.4818.9404 1.6922.7777 2.6969s-.7758 1.4291-1.3678.9471zm.5619-3.4695c-.5345-.4357-1.0894-.0507-1.2363.8559-.1468.9067.1684 2.0021.7029 2.4378.5344.4356 1.0891.0521 1.2362-.856s-.1715-2.0011-.7028-2.4377z" fill="#455a64"/><path d="m41.5572 42.6276c-.113.6977-.538.9928-.9496.6569-.4115-.3359-.653-1.1738-.5401-1.8715.113-.6976.5395-.9925.9496-.6568.4101.3356.6533 1.1723.5401 1.8714z" fill="#455a64"/><path d="m48.3308 47.2485-5.215-4.2527.0761-.4699 5.215 4.2527z" fill="#e0e0e0"/><path d="m48.1638 48.28-5.215-4.2527.0761-.4699 5.215 4.2527z" fill="#e0e0e0"/><path d="m47.9965 49.3125-5.2149-4.2527.0758-.4685 5.215 4.2528z" fill="#e0e0e0"/><path d="m55.5011 54.7349c-.0323.0895-.1097.0562-.1569-.018-.044-.0847-.0761-.175-.0956-.2684-.0433-.1749-.0779-.3518-.1035-.5301-.0419-.303-.0557-.6093-.0411-.9149.0105-.0649.0092-.1302.0125-.1962.0045-.1102-.105-.2197-.1159-.0972-.011.0678-.0104.1374-.0144.2077-.0199.2599-.0656.5171-.1362.7679-.0545.2521-.1692.4873-.3344.6855-.0626.0579-.1438.1024-.2235.0555-.0796-.0469-.1506-.2389-.1886-.3974-.0438-.1856-.0766-.3737-.0981-.5632.0249-.0284.048-.0582.0692-.0894.1906-.31.3308-.6483.4153-1.0022.0819-.3048.1905-.7473.0139-1.0998-.3746-.7471-.6166.8113-.6407 1.2157-.0157.2871-.0094.5749.0189.861-.0271.0258-.0581.0472-.0917.0636-.086.0378-.1778.02-.2552-.105-.0677-.1075-.0991-.2339-.0895-.3606l.0231-.088c.0129-.0792-.0701-.2066-.0971-.1311-.0012.0072-.0021.013-.0033.0202-.0039.0245-.0079.049-.0191.0724-.0249-.1373-.0399-.2762-.0451-.4156-.0015-.0728-.0704-.1682-.1016-.1126l-.1883.3408c-.0174-.2171.0039-.4355.0631-.6451.0264-.0904-.0738-.2294-.1088-.1508-.0615.1679-.1553.322-.2761.4538-.0244.0234-.054.0407-.0864.0505-.0324.0097-.0666.0116-.0999.0055-.0332-.0061-.0645-.02-.0914-.0406-.0268-.0207-.0483-.0473-.0628-.0779l-.0128-.0213c.0464-.0487.092-.102.1349-.1572.1654-.1616.2636-.3798.275-.6107-.0044-.2655-.1499-.4903-.2852-.4131-.2093.114-.3959.6178-.2937 1.0648-.1736.1583-.3811.2431-.6003.1262-.2193-.1169-.4318-.4397-.4659-.8683-.0139-.1648-.0059-.3306.0237-.4932.1009.0689.2112.1231.3274.161.1549.0553.3237.058.4803.0077.1565-.0503.2921-.1509.3858-.2861.0742-.0919.1266-.1994.1532-.3146.0266-.1151.0267-.2347.0003-.3499-.0148-.1069-.0556-.2087-.1188-.2962-.0632-.0876-.1468-.1584-.2436-.2062-.3136-.11-.6337.1222-.843.4552-.1096.1763-.1907.3689-.2403.5705-.239-.1839-.4561-.3947-.6467-.6284-.0584-.0686-.0872.0539-.0348.1231.1889.2496.4057.4768.6463.6771-.0395.2206-.0441.446-.0135.6679.0718.5338.3636.9154.6414 1.0269.2277.0917.4427.0066.6169-.156.1133.2137.2791.2952.4177.2526.095-.0389.1744-.1082.2257-.1972-.0028.1699.0114.3397.0422.5068.0113.067.0745.1334.1019.0831l.1793-.3304c.0184.1595.0492.3173.0921.472.0117.0374.0453.0769.0705.0765.0321.135.0966.2602.188.3647.0203.0257.0456.047.0744.0626s.0604.0251.0931.0281c.0326.0029.0654-.0009.0966-.0111.0311-.0102.0598-.0266.0843-.0483.005.0334.0071.0663.0122.0982.0559.3492.1474.8167.3659.9468.2444.1534.4428-.1857.5632-.4724.0638-.1576.1153-.3199.1541-.4854.0156.1682.0385.3376.0661.5048.0308.2277.0945.4498.1891.6593.092.1628.2269.2157.2883.0467.0357-.0653-.0203-.1942-.0421-.1326zm-4.1412-4.5167c.167-.2821.4048-.4625.6544-.4606.1227.0007.2841.0727.3381.3329.0147.0948.0058.1918-.0259.2824s-.0852.172-.1558.237c-.2962.3218-.6517.279-1.0032.0653.0441-.1581.1084-.3097.1914-.4512zm1.082 1.1012c.0338-.0448.1073-.1512.159-.0689.0189.0546.026.1127.0208.1702-.0053.0576-.0227.1133-.0512.1637-.0805.1473-.1802.2833-.2963.4046-.0194-.2336.0392-.4671.1667-.6638zm1.5289 1.7668c-.0412-.5762.0478-1.1543.2606-1.6914.048-.1047.1187-.1761.1955-.0379.0652.1572.0809.3305.0452.4969-.0478.315-.1339.623-.2565.9171-.0615.1632-.1399.3195-.2338.4665-.0029-.0463-.0074-.1003-.011-.1512z" fill="#455a64"/><path d="m47.3215 10.009s.0768.8319.0781 1.2715c.0025.0722.0327.1407.0845.1912l11.2267 9.1478.2094.1685c.0025.0023.0056.0037.0089.0043.0034.0005.0068.0001.0098-.0013.0207-.0085.034-.0359.0333-.0774 0 0 0 0 .0014-.0087-.0269-1.204-.1926-2.1997-1.1666-3.319l-1.5819-1.6407s-.4079-.5321-.4137-1.0167l-.0102-.6496-.0092-1.2677s.0286-.3681-.3487-.8789c-.3774-.5108-.9573-1.8163-.9684-2.60651-.0173-1.25424-.6781-2.75472-1.4776-3.35312-.1469-.11556-.3193-.19421-.5028-.22935-.1103-.02014-.2239-.0099-.3288.0296l-.6079.22845-.0269.01045c-.0117.07207-.4974 2.3957-.8621 2.34552-.0203-.00496-.0411-.00832-.062-.01003-.0339-.00076-.0676.00536-.099.01797l-.6133.23352-.0141.00511.4803 1.77449c.0075.4835-.2709.4857-.3961.4092l-.2333-.1398c-.3211-.2-.5877-.3807-1.2039-.78671-.0797-.06326-.1736-.10625-.2735-.12527-.1-.01903-.2031-.01352-.3005.01604l-.63.23671zm4.9169-3.10452c.024-.06631.0625-.12641.1127-.17587.0503-.04947.111-.08703.1777-.10994.1378-.03832 1.2778 2.92433 1.0826 3.03325-.0644.03286-.1361.04884-.2084.04644s-.1429-.02309-.205-.06014c-.1459.32547-.4351.40288-.774.14831-.491-.37536-.8973-1.29173-.9087-2.06132-.0095-.69085.302-1.02501.7231-.82073z" fill="#455a64"/><path d="m57.469 18.6981.9866-.3742c.4131.774.5047 1.5328.5242 2.3984 0 0-.0011.0072-.0014.0087-.0065.0403-.0112.0692-.0332.0774-.0031.0014-.0065.0018-.0098.0013-.0034-.0006-.0065-.0021-.009-.0043l-.6208-.6789z" fill="#37474f" opacity=".5"/><path d="m55.8406 14.9525-1.3902.5278-.0146-2.6502 1.2502-.4765c.0698.144.1074.3016.1102.4616l.0092 1.2677.0102.6496c.0007.074.0091.1477.025.22z" fill="#37474f" opacity=".5"/><path d="m54.1298 7.65463c.2118.53696.3292 1.10646.3472 1.6834.027.41046.1172.81427.2676 1.19717l-1.1931.4532-.3406-1.34064c.0608.03407.129.05266.1987.05414s.1386-.0142.2008-.04565c.1008-.05616-.1555-.86687-.4394-1.63473z" fill="#37474f" opacity=".5"/><path d="m46.8393 10.7744s.4249.5554.4523.5776c.0275.0222.1586.1263.1586.1263l11.2618 9.1506.2094.1685c-.0363-.0503-.629-.6832-.629-.6832-.1-.9242-.4914-1.7927-1.1176-2.4798l-1.579-1.6403s-.4106-.5339-.4164-1.0185l-.009-.6479-.0089-1.2692s.0283-.3667-.349-.8775-.9573-1.8162-.9696-2.60814c-.0175-1.25281-.6783-2.75328-1.4762-3.35289-.3021-.22643-.583-.29116-.8114-.21425l-.0271.01189c-.3582.13872-.5845.63165-.5736 1.38635.0079.17383-.019.34749-.0793.51074-.0602.16326-.1525.31281-.2714.43984-.0698.08041-.1568.14411-.2546.1864-.0977.04229-.2037.06209-.3101.05794-.0496-.00847-.1004-.0061-.149.00692l-.0142.00511c-.1967.07316-.1698.35415-.1698.35415l.0124 1.01084.0104.6481c-.0017.0101-.0033.0202-.0049.0303-.0025.4537-.2716.453-.3929.3801-.4545-.2718-.6819-.4299-1.4422-.9229-.0795-.0636-.1731-.1071-.273-.12662-.0999-.01953-.203-.01454-.3006.01455l-.0086-.0014c-.2147.10137-.3798.37187-.4675.77637zm5.3988-3.86966c.0511.0258.0996.05644.1449.09152.4924.36671.899 1.29052.9102 2.06155.008.19652-.0237.39263-.0934.57658-.1459.32547-.435.40291-.774.14831-.491-.37536-.8973-1.29173-.9087-2.06132-.0116-.68676.2999-1.02092.721-.81664z" fill="#37474f"/><path d="m51.5154 7.7265c.0115.76959.4164 1.69461.9088 2.06132.3389.25458.6281.17716.774-.14831-.0511-.02641-.1001-.0566-.1466-.09031-.4922-.36816-.8973-1.29173-.9085-2.06276-.0088-.19656.023-.39283.0933-.57658-.4186-.20981-.7301.12435-.721.81664z" fill="#263238"/><path d="m52.177 6.9285.049.00794c.0471.0249.0919.05394.1339.08677.4817.35908.8842 1.27187.8956 2.03257.0078.19111-.0231.38182-.0908.56072-.0528.05674-.1169.1019-.188.13264-.0712.03074-.148.04639-.2255.04595-.2307-.03735-.9263-1.01241-.9979-1.39234-.049-.27272-.1316-1.11448.1415-1.39421.0356-.03662.0801-.06351.129-.07811.049-.0146.1009-.01641.1508-.00528m.0056-.03459c-.6343-.10271-.5335 1.12954-.4619 1.51835s.7748 1.38136 1.0227 1.42151c.0842.00029.1676-.0169.2448-.05048.0773-.03357.1467-.08281.204-.14459.0696-.18394.1014-.38006.0933-.57658-.0112-.77102-.4178-1.69484-.9102-2.06155-.0452-.03507-.0938-.06572-.1449-.09152-.0185-.00443-.0373-.00747-.0562-.0091z" fill="#263238"/><path d="m58.9231 20.7989-11.4724-9.3208-.1588-.1248c-.0272-.0236-.4506-.5789-.4506-.5789l11.4572 9.342s.6709.7166.6246.6825z" fill="#263238"/><path d="m9.53239 19.7431 1.66271 6.2055 6.2107-1.6641-1.6627-6.2055 6.2054-1.6628-1.6641-6.2106-6.2055 1.6627-1.6627-6.20545-6.21071 1.66414 1.66275 6.20551-6.20548 1.6627 1.66414 6.2107z" fill="#516eb4"/><path d="m56.7932 51.554-.3347.1624c-.088.0377-.1805.0523-.2719.0429-.0915-.0095-.1801-.0428-.2604-.0978l-16.5292-13.6942c-.067-.0582-.1198-.1396-.1527-.2351-.0328-.0954-.0444-.2014-.0335-.3063l3.6656-22.4519c.0266-.1103.0724-.2118.1338-.2967s.1369-.1509.2205-.1928l.3347-.1625c.0881-.0369.1805-.051.2718-.0416.0914.0094.18.0423.2605.0966l16.5292 13.6942c.0672.0588.1201.1407.1529.2368s.0443.2027.0332.3081l-3.6657 22.4519c-.0269.1096-.0728.2104-.1342.2947s-.1366.1497-.2199.1913z" fill="#f0f0f0"/><path d="m55.9078 51.6604-16.5293-13.6941c-.067-.0583-.1198-.1396-.1526-.2351-.0329-.0955-.0445-.2015-.0336-.3064l3.6657-22.4519c.004-.0419.0169-.0818.0374-.1153.0204-.0335.0474-.0593.0781-.0746.0308-.0152.0639-.0193.0959-.0117.0319.0075.0614.0264.0851.0545l16.5292 13.6941c.0672.0589.1201.1408.1529.2369s.0443.2026.0332.308l-3.6657 22.4519c-.0284.1885-.1629.2542-.2963.1437z" fill="#fff"/><path d="m56.0273 51.7773c.0315.0015.063-.0063.0921-.0229.0351-.0207.0657-.0525.0889-.0925.0231-.0399.038-.0866.0433-.1356l3.6654-22.4484c.0138-.1182.0018-.2381-.0347-.3462-.0366-.1081-.0961-.2-.172-.2654l-16.5267-13.6906c-.0341-.0315-.0738-.0519-.1158-.0595-.0419-.0076-.0849-.0021-.1254.016-.0351.0207-.0657.0526-.0889.0925-.0231.04-.038.0867-.0432.1356l-3.6657 22.4519c-.0133.1177-.0009.2369.0356.3443s.0958.1988.1713.2639l16.5292 13.6941c.0437.0364.0941.058.1466.0628zm-12.997-36.9335c.0346.0041.0678.0189.0968.043l16.5292 13.6941c.0565.0501.1015.1187.1307.1989s.0415.1693.0357.2587l-3.6656 22.4519c-.002.029-.0099.057-.0229.0812s-.0306.0437-.0511.0566c-.0254.0097-.052.0116-.0778.0055-.0257-.0061-.0498-.0201-.0702-.0408l-16.5294-13.6906c-.059-.0526-.1055-.1251-.1346-.2099-.029-.0847-.0396-.1786-.0306-.2718l3.6656-22.4519c.0032-.0281.0115-.055.0244-.0784.0128-.0234.0298-.0426.0494-.056.017-.0042.0343-.0033.0507.0026z" fill="#e0e0e0"/><path d="m55.9429 51.6865c.1581.0894.3379.0986.5043.026l.3348-.1624c.0832-.0417.1585-.1071.2199-.1914.0613-.0843.1073-.1851.1341-.2947l3.6657-22.4519c.014-.1035.0026-.2092-.0326-.3022l-.933.4529c.0333.0937.0438.199.03.302l-3.663 22.4521c-.0041.0365-.0151.0713-.032.1015-.0168.0302-.0391.0548-.0648.0715-.0257.0168-.0541.0252-.0826.0247-.0285-.0006-.0562-.0103-.0808-.0281z" fill="#e0e0e0"/><path d="m43.9708 39.1933 1.996-12.2416 1.0918-.5242-1.9959 12.2382z" fill="#516eb4"/><path d="m43.9708 39.1933 1.996-12.2416 1.0918-.5242-1.9959 12.2382z" fill="#000" opacity=".2"/><path d="m43.97 39.1934-2.5713-2.1319 1.9959-12.2382 2.5715 2.1285z" fill="#516eb4"/><path d="m43.3954 24.8234 1.092-.5277 2.5713 2.1319-1.0918.5242z" fill="#516eb4"/><path d="m43.3954 24.8234 1.092-.5277 2.5713 2.1319-1.0918.5242z" fill="#fff" opacity=".25"/><path d="m43.3951 24.823 2.5684 2.0834 1.0948-.4791-1.0635.5981c-.0345.3609-1.9228 11.8068-2.0243 12.1677.0189-.3686 1.8686-11.8441 1.9478-12.1889z" fill="#fff" opacity=".3"/><path d="m48.7896 43.1882 1.6048-9.8337 1.0919-.5276-1.6048 9.8337z" fill="#516eb4"/><path d="m48.7896 43.1882 1.6048-9.8337 1.0919-.5276-1.6048 9.8337z" fill="#fff" opacity=".1"/><path d="m48.7895 43.1883-2.5713-2.1319 1.6046-9.8302 2.5715 2.1284z" fill="#516eb4"/><path d="m48.7895 43.1883-2.5713-2.1319 1.6046-9.8302 2.5715 2.1284z" fill="#fff" opacity=".3"/><path d="m47.8236 31.2259 1.092-.5276 2.5715 2.1285-1.092.5276z" fill="#516eb4"/><path d="m47.8236 31.2259 1.092-.5276 2.5715 2.1285-1.092.5276z" fill="#fff" opacity=".55"/><path d="m50.352 33.3871-2.5302-2.1505 2.5685 2.0833c.3456-.1653 1.0949-.4825 1.0949-.4825s-.7045.3817-1.0586.5569c-.0485.3706-1.5546 9.4287-1.6381 9.8044.0415-.3916 1.4951-9.4698 1.5635-9.8116z" fill="#fff" opacity=".3"/><path d="m53.6114 47.1802 1.347-8.2512 1.0919-.5276-1.3469 8.2512z" fill="#516eb4"/><path d="m53.6114 47.1802 1.347-8.2512 1.0919-.5276-1.3469 8.2512z" fill="#000" opacity=".45"/><path d="m53.6121 47.1801-2.5714-2.1285 1.3471-8.2546 2.5713 2.1319z" fill="#516eb4"/><path d="m53.6121 47.1801-2.5714-2.1285 1.3471-8.2546 2.5713 2.1319z" fill="#000" opacity=".3"/><path d="m52.3878 36.7972 1.0918-.5242 2.5714 2.1285-1.0919.5276z" fill="#516eb4"/><path d="m52.3878 36.7972 1.0918-.5242 2.5714 2.1285-1.0919.5276z" fill="#000" opacity=".15"/><path d="m52.3872 36.7969 2.5685 2.0833 1.0948-.4791-1.0601.5845s-1.2979 7.974-1.3788 8.1944c-.007-.2284 1.2961-8.1986 1.2961-8.1986z" fill="#fff" opacity=".3"/><path d="m21.7476 56.6772.5408-.2584-.5313-.15z" fill="#263238"/><path d="m27.0964 57.6901s-6.3543-2.8716-6.4372-2.4552c-.0177.0841-.0177.1711 0 .2552l-.0176-.0239.1133.7977c.2835.2311.6273.3761.9907.418 0-.0383 0-.2744.0096-.4084.1943.0817.3802.1821.5551.2999.4069.2696.6669.7386 1.0977 1.2858.319.3973.8758.5855 1.7118.7084.8982.1324 1.6911-.0335 1.9144-.2696.1867-.1947.1005-.5456.0622-.6079z" fill="#263238"/><path d="m26.9273 57.5483c-.0607-.0638-.2872-.3191-.5919-.5839-.268-.2377-.5807-.5377-.9158-.7817-.1614-.1125-.3135-.2379-.4546-.375-.1129-.1181-.2194-.2422-.3191-.3717-.3014-.4016-.5572-.8356-.7626-1.2938-.1153-.2149-.2037-.4431-.2632-.6796-.0457-.2485-.0692-.5005-.0702-.753 0-1.1375.0255-1.3178.0367-2.1825l-2.6978.0702c.0862.4786.2154 1.1359.2585 1.6815.0654.8296.0861 1.0131-.2457 1.8379-.0989.2425-.2441.4786-.2585.737-.0223.4244.3191.7977.6876 1.0019.3191.1739.6701.2505.9732.4355.3069.2099.5738.4731.7881.777.2138.2712.3829.5935.6844.7865.3187.1873.671.3103 1.037.3621.4603.084.9292.1102 1.3959.0782.6669-.0463 1.1615-.2856.718-.7466z" fill="#b16668"/><path d="m26.5655 57.0838c-.2728-.2313-.6605-.56-1.1295-.9317-.1614-.0568-.333-.0788-.5035-.0645s-.336.0645-.4857.1475c-.9572.4786-1.1167 1.1821-1.1167 1.1821.1581.3166.4343.5583.769.6733 1.0912.4786 3.0535.343 3.0758-.1596.0128-.3127-.2776-.5599-.6094-.8471zm-5.5981-3.1461c-.0696.1634-.1474.3231-.233.4787-.0915.1428-.1402.3089-.1402.4786 0 .1696.0487.3357.1402.4786.1068.168.2468.3124.4114.4244.1646.1119.3504.189.5459.2265.3111-.9365-.3383-1.881-.7243-2.0868z" fill="#37474f"/><path d="m15.7775 54.7882c.1755.2856-.0463 1.3593 0 2.1234.0383.6956.2265 1.9065.0191 2.5925-.2473.812-.753 1.7549-1.7022.9875-.5887-.4786-.9269-1.0864-1.0115-2.0867-.059-.6956.2122-1.656.4435-2.5063.2712-.9955.3749-1.5268.3749-1.5268z" fill="#263238"/><path d="m13.8709 49.6479c-.0686 1.6209.1228 2.76.134 3.7986-.004.4712-.0542.9409-.15 1.4023-.1388.6621-.3749 1.5826-.4786 2.0118-.1372.5998-.2425.9779-.0319 1.6512.0173.0556.0408.1092.0702.1595.2935.5552 1.0434.9732 1.2763.9062.0495.0617.1155.1081.1903.1338.0749.0257.1555.0297.2325.0114.0271-.0036.0539-.01.0797-.0192.0273-.0088.0539-.0195.0798-.0319.0983-.0523.1846-.1246.2533-.2122.0687-.0877.1183-.1887.1455-.2967.0158-.0481.0286-.0971.0383-.1468.108-.5671.1348-1.1467.0798-1.7214 0-.4499 0-.887.0383-1.4948.0383-.6079.1324-2.4697.3478-3.3822.1595-.6381.3589-1.4358.5695-2.2893z" fill="#b16668"/><path d="m13.2359 57.6422c.5903-.2568 2.3053-.2919 2.5781.5281 0 .7706.0128 1.2938-.4786 1.9655-.6604.8918-1.5203-.0543-1.8506-.6541-.3302-.5999-.3302-1.4247-.2489-1.8395z" fill="#37474f"/><path d="m16.1077 28.4709c-.836 1.471-1.5092 2.7122-1.7262 6.5921-.2457 4.3824-.209 6.0512-.2313 6.5808-.0223.5297-.3685 1.4981-.6637 4.1033-.2951 2.6052.016 8.9181.016 8.9181s.209.4259 1.2236.5217c.9365.0893 1.4853-.233 1.4853-.233s1.4885-8.2958 1.8538-9.8577c.3654-1.5619 1.4358-6.7213 1.4358-6.7213l.3526 4.9186s-.2967 1.4358-.0271 3.7251c.2696 2.2894.9572 6.6112.9572 6.6112s.3989.3956 1.6225.3717c1.3018-.0255 1.573-.3797 1.573-.3797s.292-9.2993.3191-11.8902.1723-9.3185-.6381-13.1601z" fill="#455a64"/><path d="m20.3766 33.3992-.8742 4.976.3525 4.9185v-4.9728l.7786-4.0825c.6381-.1452 2.0899-.8838 2.4967-1.9511-.9891.9939-2.7536 1.1119-2.7536 1.1119zm-2.953-2.9338c.1165-.418.2377-.8328.3733-1.2508-.2359.3729-.4306.7704-.5807 1.1854-.1546.4112-.2856.8309-.3925 1.2571-.1037.426-.1898.8567-.2504 1.2906-.0676.4333-.1002.8713-.0973 1.3098.1084-.4259.2105-.8487.319-1.2763.1085-.4275.201-.8439.3095-1.2635s.2058-.8296.3191-1.2523zm-.6381-.3191c.1451-.2537.2919-.5089.4259-.7785-.2231.2008-.4271.4219-.6094.6604-.182.2369-.3477.4858-.4962.7451-.1472.2603-.2736.5318-.3781.812-.1082.2787-.179.5706-.2106.8679l.4116-.7817c.1388-.2553.2776-.5122.4228-.7642.1452-.2521.292-.4978.4355-.761zm-.6525 16.6316c-.2564 1.3465-.4957 2.6967-.718 4.0507.3287-1.3327.6398-2.6685.9333-4.0076.2984-1.3401.5775-2.677.8567-4.0267s.4404-2.7121.5855-4.0777c.1452-1.3657.2585-2.7313.3526-4.0985-.2026 1.356-.3845 2.7121-.5695 4.0729-.1851 1.3609-.3797 2.7122-.6382 4.0523-.2584 1.3401-.5488 2.6882-.8024 4.0346zm6.9749-6.6781c.0239.5934.0558 1.1917.0415 1.7788-.0144.5871.0111 1.723-.024 2.318 0 0-.0351 3.5019.0702 4.8292.1596-1.1854.1835-5.9395.2345-7.1408 0-1.2077-.0909-2.3931-.1898-3.5864s-.2409-2.3787-.4196-3.5609l.201 3.5752c.0335.5951.0686 1.1902.0862 1.7869z" fill="#37474f"/><path d="m16.7137 13.7507c-.0112.0559-.1787.1596-.225.2186-.1006.1033-.1904.2166-.268.3382-.1498.2632-.2299.5603-.2329.8631.0077.4668.1363.9235.3733 1.3257.2353.4002.5048.7792.8057 1.1327l.7498.9349c.0394.0742.1037.1322.1816.1637s.1644.0346.2443.0086c.3909-.059.7818-.1244 1.1694-.1962.3611-.0557.7159-.1465 1.0594-.2712.5684-.2291 1.054-.6252 1.3927-1.1359.1596-.2297.3606-.5552.3893-.8376.0127-.1276-.0479-.2377-.016-.3701.0671-.1609.1488-.3152.2441-.4611.1804-.3617.264-.7641.2425-1.1678-.0766-.8296-.5887-1.9048-2.1106-2.2127-1.2747-.2569-3.6917.0191-3.9996 1.6671z" fill="#263238"/><path d="m35.7637 22.0339c-.137-.0726-.2927-.102-.4467-.0845-.2432.0398-.4832.0974-.718.1723-.3669.0845-.9572.2233-1.3241.1068-.075-.0239-.2218-.0941-.0941-.1595.1712-.0736.3357-.1623.4913-.2648.0775-.0508.1433-.1174.1931-.1955.0498-.0782.0824-.1659.0957-.2576.0084-.0561-.0053-.1134-.0383-.1595-.0494-.0623-.1005-.0447-.1595-.0224-.0632.0215-.1277.0391-.1931.0527l-.402.1021c-.7785.2026-1.5762.4786-2.1601 1.0402-.0846.0829-.2744.3509-1.1423.8519-.8312.4786-2.9642 1.6799-2.9642 1.6799s-1.5602-1.9846-2.1043-2.6802c-.9572-1.2364-1.2427-1.5858-2.5637-1.8139l.3956 4.1272s2.0549 2.3707 2.776 2.9322c.9875.7738 1.2555.6972 2.0532.2218 1.045-.619 1.4645-1.0099 2.2957-1.715 1.0099-.8567 1.3673-1.1455 1.6991-1.3864s.836-.2457 1.0832-.2537c.3426-.0008.6835-.0486 1.0131-.1419.2907-.07.5712-.1772.8344-.3191.1339-.0564.2549-.1395.3557-.2441.0468-.1095.1-.216.1596-.3191.0893-.1085.2281-.1723.3047-.2887.0486-.0983.0845-.2023.1069-.3095.0542-.1596.1866-.2346.335-.3095.0752-.0293.1428-.0751.1978-.1341.075-.0989.0096-.1754-.0797-.2281z" fill="#b16668"/><path d="m26.9036 24.8975c-.7419.4275-1.0498 1.0114-1.0785 1.5315-.2999-1.1454.8966-1.7644.8966-1.7644z" fill="#9a4a4d"/><path d="m32.766 22.4326c-.2865.3656-.671.6423-1.1088.7977.2429.0367.491-.0136.7004-.142.1111-.0736.2052-.1702.2756-.2833.0705-.1132.1158-.2402.1328-.3724z" fill="#9a4a4d"/><path d="m15.281 30.4765c-.4882-.3957.1101-.5616.2839-2.969.0463-.6206-.3573-2.5398-.3573-2.5398s.9157-1.3417.5456-4.3378l1.9304-.4643 2.8908-.043 1.6623.2791c.5776.5471 1.0933 1.1559 1.538 1.8156.7977 1.1694.7322 2.6722-.1372 3.6023-.0295.7181-.0162 1.4372.0399 2.1537.1084 1.0003.6652 1.9735.0845 2.4681-1.7006 1.4422-6.1788 1.5427-8.4809.0351z" fill="#516eb4"/><path d="m15.281 30.4765c-.4882-.3957.1101-.5616.2839-2.969.0463-.6206-.3573-2.5398-.3573-2.5398s.9157-1.3417.5456-4.3378l1.9304-.4643 2.8908-.043 1.6623.2791c.5776.5471 1.0933 1.1559 1.538 1.8156.7977 1.1694.7322 2.6722-.1372 3.6023-.0295.7181-.0162 1.4372.0399 2.1537.1084 1.0003.6652 1.9735.0845 2.4681-1.7006 1.4422-6.1788 1.5427-8.4809.0351z" fill="#fff" opacity=".6"/><path d="m17.3249 18.0071c-.1576.022-.3181.0043-.4672-.0514-.149-.0557-.2818-.1477-.3863-.2676-.4499-.4786-.4914-.9796-.2824-1.3082.1723-.2712.5951-.4435.8934-.2617.2983.1819.3286.3574.4419.5712s.4292.0478.3191-.8392c.6158-.2856.5169-1.3018.8503-1.7166.5217-.6493 1.3816-.4786 1.6624-.3286.1701-.1174.3688-.1864.5751-.1996.2062-.0132.4122.0298.5959.1246.4164.2185.6924.678.8391 2.2558.15 1.6081 0 2.4345-.4786 2.8717-.3712.3355-.8557.5179-1.356.5105l.0223.7482s1.6464 1.5619-.4786 1.4087c-.4696-.0396-.9255-.1782-1.3377-.4067s-.7713-.5417-1.0538-.919v-2.4441s-.043.1946-.3589.252z" fill="#b16668"/><path d="m20.8092 17.7215c-.0272.1213-.1005.2272-.2044.2954-.104.0682-.2303.0933-.3524.07-.0604-.0111-.118-.0341-.1694-.0676-.0515-.0335-.0958-.0769-.1304-.1276-.0345-.0508-.0587-.1079-.071-.168-.0124-.0602-.0127-.1222-.0009-.1824z" fill="#9a4a4d"/><path d="m19.8774 17.6927c.0134.0967.0567.1867.124.2574s.1551.1185.251.1367c.0554.0095.112.0095.1675 0-.0208-.1237-.0893-.2342-.1907-.3079-.1015-.0737-.2278-.1046-.3518-.0862z" fill="#f28f8f"/><path d="m21.9227 14.9838-.6126-.1994c.0256-.0803.0819-.1471.1567-.1859.0747-.0389.1617-.0466.2421-.0215.0815.0267.1494.0841.1893.1601.0399.0759.0487.1644.0245.2467z" fill="#263238"/><path d="m19.6601 14.8068-.6079.3191c-.0239-.0377-.0397-.0799-.0463-.124-.0065-.0441-.0038-.0892.0081-.1322.0118-.0429.0326-.083.0609-.1174.0283-.0345.0635-.0627.1034-.0827.0827-.0424.1785-.0519.2679-.0264.0895.0255.1659.0839.2139.1636z" fill="#263238"/><path d="m19.4097 15.9554c0 .05.0148.0988.0426.1402.0277.0415.0672.0738.1134.0929.0461.019.0969.0239.1458.014.0489-.0098.0939-.034.129-.0694.0352-.0354.0591-.0805.0687-.1295.0095-.049.0043-.0997-.015-.1457-.0194-.0461-.0519-.0853-.0936-.1128-.0416-.0275-.0905-.042-.1405-.0417-.033 0-.0657.0065-.0962.0192s-.0582.0313-.0814.0547c-.0233.0234-.0417.0512-.0542.0818s-.0188.0633-.0186.0963z" fill="#263238"/><path d="m21.6832 16.1311c.1392 0 .2521-.1129.2521-.2521s-.1129-.252-.2521-.252-.252.1128-.252.252.1128.2521.252.2521z" fill="#263238"/><path d="m22.6945 15.1498-.1212-.0096c-.4027-.0354-.8085-.0046-1.2013.0909-.3765.1277-.5042.2585-.7163.2696-.2122.0112-.3813-.11-.7977-.2026-.4287-.0594-.8639-.0529-1.2907.0192l-.1276.0191c-.0431.0139-.0799.0428-.1036.0814s-.0328.0845-.0256.1292c.022.0893.0703.1699.1388.2313.0216.0284.0383.0602.0494.0942.0486.2206.1159.4368.201.6461.0469.0856.1079.1627.1803.2281.0285.0236.0583.0454.0894.0654l.051.0287c.0472.025.0969.0448.1484.0591h.0255l.0383.0095.0415.008c.0427.007.0859.0112.1292.0128h.1228c.5281-.0224.7339-.2712.8472-.5249.1132-.2537.0574-.603.3015-.6126h.0239.0208c.1834.0319.1834.3542.319.5807.05.0909.1141.1733.1899.2441l.0431.0383.0239.0175.0239.016.0224.0143.0239.0144.0175.0096h.0144c.0681.0339.1406.058.2154.0718h.0191c.086.0134.1732.0177.2601.0127.1558.0076.3098-.0358.4388-.1236.1289-.0878.2258-.2152.2759-.363.0549-.2166.0906-.4376.1069-.6604.0057-.0322.0194-.0623.0399-.0878.0569-.0698.0903-.1558.0957-.2457-.0037-.0426-.0206-.083-.0483-.1156-.0278-.0326-.065-.0558-.1065-.0662zm-2.4728 1.0354c-.0187.1307-.074.2535-.1595.3541-.073.0745-.1609.1327-.258.1709-.097.0383-.201.0556-.3052.0509-.107.0099-.2148-.0059-.3144-.0461-.0997-.0403-.1882-.1038-.2583-.1853l-.0192-.0239-.0175-.0239-.0144-.0223-.0127-.0208c-.0043-.0045-.0076-.01-.0096-.0159l-.0096-.0144c-.0036-.0088-.0078-.0173-.0127-.0255-.0128-.024-.0224-.0479-.0319-.0702 0-.0144-.0112-.0287-.016-.0415s-.016-.0495-.0223-.0702v-.0128c-.0007-.0042-.0007-.0085 0-.0127-.0527-.1707-.1245-.5089-.0383-.5903.0861-.0814.3191-.1707.7163-.1595h.0415c.0609.0043.1216.0117.1818.0223l.0718.0128c.0603.0124.12.0278.1787.0462l.0543.0192.0606.0239h.0112l.0223.0096c.047.0197.0894.049.1244.0861.0766.1197.067.3446.0367.5393zm2.2894-.1739c-.0055.115-.0387.227-.0967.3264-.0581.0995-.1393.1834-.2368.2447-.0898.045-.1883.07-.2887.0734-.1125.0154-.2271.0022-.3331-.0385-.106-.0408-.2-.1076-.2732-.1944l-.0111-.0144-.0144-.0191v-.0096l-.0159-.0255c-.0065-.0103-.0124-.021-.0176-.0319l-.0096-.0144s0 0 0-.0096v-.0127-.0096c-.019-.0411-.0345-.0838-.0462-.1276-.0543-.1915-.091-.4148-.024-.5233s.3494-.2393.627-.2856c.0638-.0096.1245-.0159.1803-.0207h.1595.0495c.031.0024.0619.0067.0925.0127h.0208.0143.0223.0272l.043.0144c.0362.0126.0702.0309.1005.0542.083.0942.0575.4372.0304.6111z" fill="#37474f"/><path d="m21.5365 16.911-.8981.3829-.1931-1.1343c.0335-.1691.067-.343.2138-.3574z" fill="#9a4a4d"/><path d="m18.4673 15.4688-1.3848.6509c.0764.0496.1479.1062.2138.1691l1.2077-.5377z" fill="#37474f"/><path d="m20.5553 19.3744c-.8296-.0304-1.9432-.3191-2.2335-.8456.1595.5664.7514.8599 1.2172.9891.3323.093.6735.1508 1.0179.1723z" fill="#9a4a4d"/><path d="m20.6162 24.5067c.5297-.351.7977-.4786 1.0354-.5409.2377-.0622 1.0944-.3605 1.4183-.4243.2058-.0399.2744.2808 0 .4882-.2074.1595-.7355.3573-.9684.469s-.7052.6254-.7052.6254z" fill="#9a4a4d"/><path d="m13.4161 22.2364c.5536-1.0402 1.4693-1.3768 2.3372-1.6065.4403 1.1247.0638 3.489.0638 3.489l-.6732 2.5734s3.0184-.2936 3.3742-.4946c.3557-.201 1.3289-1.1407 1.6528-1.4215.4419-.3813.6493-.319.8647-.276.7003.1356.8535.201.9987.3.0419.0321.0753.0741.097.1223.0217.0481.0311.1009.0274.1537.1867.0319.4674.0382.4898.3414.0119.0804.0119.1621 0 .2425.0467.0108.0884.0372.118.0749.1484.1835-.1467.7866-.319.9285-.0761.0476-.1615.0781-.2505.0894s-.1793.0031-.2648-.024c-.1899-.0335-.0926-.2201-.0926-.2201h-.2664c-.5919.3749-.6557 1.1662-1.4231 1.3082-.315.016-.628.0608-.9348.134-1.6608.4706-4.4032 1.9798-5.8726 2.0437-1.4262.0574-1.3528-.6845-1.3369-1.5396.0144-.7578.8567-5.1833 1.4103-6.2187z" fill="#b16668"/><path d="m15.2174 26.4036-.0734.2887c-.6541.1356-1.4518.9397-1.6225 1.2763.1452-.5408.544-1.3178 1.6959-1.565z" fill="#9a4a4d"/><path d="m22.1588 25.0761-.8312-.2026.8185.0878c.0112.0372.0155.0761.0127.1148z" fill="#9a4a4d"/><path d="m22.6501 25.66-.9572-.1595.9572.0558c.0035.0345.0035.0692 0 .1037z" fill="#9a4a4d"/><path d="m21.7629 26.3685c.0594-.0451.1044-.1067.1292-.1771.1121.0057.2245.0057.3366 0 .0443-.0074.0881-.0181.1308-.0319.0537-.0153.1029-.0432.1436-.0814-.0335.0473-.0801.0839-.134.1053-.0467.0211-.0961.0356-.1468.0431l-.0606.1149c.0357.0044.0694.0187.0973.0414.0387.0337.0664.0782.0798.1277-.0226-.0426-.0548-.0792-.0941-.1069-.038-.024-.0831-.0342-.1277-.0287-.1086.0084-.2095.0594-.2808.1419h-.2664c.0676-.0451.132-.0947.1931-.1483z" fill="#9a4a4d"/><path d="m34.2597 2.61736c-1.7071-.76218-3.6381-.85575-5.4109-.26219-1.7728.59357-3.2582 1.831-4.1622 3.46743-.904 1.63642-1.1607 3.55258-.7194 5.3693.4413 1.8167 1.5485 3.4015 3.1025 4.4408l-.1211 2.3124c-.005.0876.0167.1746.0622.2495.0455.075.1126.1344.1925.1704.08.036.169.047.2553.0314.0862-.0156.1658-.057.2281-.1187l1.6472-1.6301c1.8114.4725 3.7341.2467 5.3867-.6326 1.6525-.8793 2.914-2.3478 3.5341-4.1141.6201-1.7662.5534-3.70105-.1869-5.42039-.7402-1.71934-2.0999-3.09748-3.8091-3.86087zm-5.8716 13.07894c-1.2409-.5581-2.2883-1.4717-3.0098-2.6251-.7215-1.1535-1.0847-2.4951-1.0436-3.85503.0411-1.35994.4846-2.67713 1.2745-3.78493s1.8905-1.95643 3.1628-2.43854c1.2723-.4821 2.659-.57601 3.9847-.26984 1.3256.30617 2.5307.99865 3.4627 1.98984.932.9912 1.5491 2.23656 1.7732 3.57853.2241 1.34198.0451 2.72027-.5144 3.96047-.7489 1.662-2.1272 2.9585-3.8318 3.6044-1.7047.646-3.5961.5885-5.2583-.1598z" fill="#455a64"/><path d="m36.9487 13.2244c2.0944-3.1671 1.2248-7.43233-1.9422-9.52674-3.167-2.09442-7.4323-1.22488-9.5267 1.94216-2.0944 3.16705-1.2249 7.43228 1.9421 9.52668 3.1671 2.0945 7.4323 1.2249 9.5268-1.9421z" fill="#fff"/><path d="m30.1137 5.07075c.216-.06443.4357-.11598.6579-.1544.2364-.03661.4756-.05301.7148-.049.2558.00708.5103.0389.7599.09502.2806.06417.5539.1569.8155.27675.3548.15467.682.36617.9687.62618.2525.2302.456.50891.5984.81948.1305.29323.1954.61146.1901.9324-.0071.34434-.085.68353-.229.9964-.1261.29737-.307.56837-.5332.79889-.1909.18796-.4087.34646-.6463.47028-.2166.1079-.4453.18945-.6812.24285l-.6569.1521c-.1873.0405-.3714.0944-.551.1613-.1512.0526-.2808.1537-.3687.2875l-.5823.8895-1.1105-.5005.3722-1.11883c.0529-.1989.169-.37523.3309-.50244.1624-.11823.3428-.20959.5342-.27057.2088-.06554.4219-.11649.6378-.15246.2267-.04084.4501-.09821.6684-.17165.2144-.07137.4168-.17484.6001-.30688.1945-.14494.3467-.33932.4407-.56294.0667-.13997.1014-.2931.1013-.44818 0-.15508-.0347-.30819-.1016-.44812-.0694-.1425-.166-.27007-.2843-.37556-.1312-.11874-.2806-.21574-.4424-.2873-.2118-.10111-.4377-.16954-.67-.20297-.1739-.0227-.3496-.02727-.5244-.01364-.1487.01272-.2862.02499-.3863.04586-.0887.01967-.1811.01246-.2656-.02071-.0715-.02748-.1334-.07524-.1782-.1374-.0447-.06216-.0704-.13602-.0737-.21254zm-1.9183 7.56975c.059-.1327.1438-.2524.2494-.3522.1-.0974.2192-.1729.35-.2216.1304-.0486.2687-.0721.4078-.0692.1488.0037.2953.0379.4303.1005.1343.0584.2547.1446.3535.2527.0944.103.1692.2224.2206.3523.0623.1653.083.3434.0603.5185-.0227.1752-.0881.3421-.1904.4861-.1023.1439-.2385.2605-.3965.3395s-.3329.1179-.5095.1134c-.1461-.0044-.2898-.0383-.4225-.0997-.1359-.06-.2586-.1461-.3613-.2535-.0962-.1002-.1708-.2189-.2194-.349-.0502-.1287-.0733-.2664-.0679-.4045.0007-.1436.0292-.2857.0841-.4184z" fill="#516eb4"/></g></svg>