<svg width="70" height="70" viewBox="0 0 70 70" fill="none" xmlns="http://www.w3.org/2000/svg">
<g clip-path="url(#clip0_250_5544)">
<path d="M57.5179 64.0532C70.2173 56.7214 70.2173 44.8326 57.5179 37.4994C44.8185 30.1662 24.2259 30.1676 11.5251 37.4994C-1.17573 44.8312 -1.17433 56.7214 11.5251 64.0532C24.2245 71.385 44.8171 71.3864 57.5179 64.0532Z" fill="#F5F5F5"/>
<path d="M20 64C26.6274 64 32 61.0898 32 57.5C32 53.9101 26.6274 51 20 51C13.3726 51 8 53.9101 8 57.5C8 61.0898 13.3726 64 20 64Z" fill="#E0E0E0"/>
<path d="M59.0322 62.7902L59.6183 62.5686C59.7167 62.5247 59.8034 62.4583 59.8714 62.3747C59.9394 62.2912 59.9868 62.1929 60.0098 62.0876L66.9694 19.1138C66.9807 19.0067 66.9668 18.8984 66.9286 18.7977C66.8904 18.697 66.8292 18.6066 66.7497 18.5339L44.3956 0.309077C44.3088 0.24542 44.2082 0.203257 44.102 0.186051C43.9957 0.168845 43.8869 0.177087 43.7845 0.210098L43.1966 0.432936C43.0983 0.476442 43.0116 0.542545 42.9436 0.625867C42.8756 0.70919 42.8282 0.807381 42.8054 0.912457L35.8465 43.8819C35.8351 43.989 35.849 44.0974 35.8871 44.1981C35.9253 44.2989 35.9866 44.3892 36.0662 44.4619L58.4195 62.691C58.5066 62.7547 58.6075 62.7969 58.7139 62.8142C58.8204 62.8314 58.9295 62.8232 59.0322 62.7902Z" fill="#516EB4"/>
<path opacity="0.3" d="M59.0322 62.7902L59.6183 62.5686C59.7167 62.5247 59.8034 62.4583 59.8714 62.3747C59.9394 62.2912 59.9868 62.1929 60.0098 62.0876L66.9694 19.1138C66.9807 19.0067 66.9668 18.8984 66.9286 18.7977C66.8904 18.697 66.8292 18.6066 66.7497 18.5339L44.3956 0.309077C44.3088 0.24542 44.2082 0.203257 44.102 0.186051C43.9957 0.168845 43.8869 0.177087 43.7845 0.210098L43.1966 0.432936C43.0983 0.476442 43.0116 0.542545 42.9436 0.625867C42.8756 0.70919 42.8282 0.807381 42.8054 0.912457L35.8465 43.8819C35.8351 43.989 35.849 44.0974 35.8871 44.1981C35.9253 44.2989 35.9866 44.3892 36.0662 44.4619L58.4195 62.691C58.5066 62.7547 58.6075 62.7969 58.7139 62.8142C58.8204 62.8314 58.9295 62.8232 59.0322 62.7902Z" fill="black"/>
<path opacity="0.4" d="M42.8169 0.859626C42.8642 0.704569 42.9961 0.666752 43.1402 0.7818L65.4935 19.011C65.5748 19.0817 65.6365 19.1722 65.6728 19.2737L66.9334 18.7974C66.8966 18.6961 66.8349 18.6058 66.754 18.5346L44.3971 0.309345C44.3101 0.245635 44.2092 0.203433 44.1027 0.186189C43.9962 0.168945 43.8872 0.177151 43.7845 0.210133L43.1969 0.431529C43.1068 0.471898 43.0264 0.530939 42.9609 0.604742C42.8954 0.678545 42.8463 0.765425 42.8169 0.859626Z" fill="#516EB4"/>
<path opacity="0.15" d="M58.4747 62.7251C58.4798 62.7297 58.4858 62.7332 58.4922 62.7354L58.5221 62.752L58.5336 62.7539L58.5889 62.7776C58.7073 62.8202 58.835 62.8301 58.9585 62.8064C58.983 62.8015 59.0079 62.7937 59.0312 62.7871L59.6176 62.5641C59.7158 62.52 59.8024 62.4535 59.8703 62.37C59.9383 62.2865 59.9858 62.1882 60.0091 62.0831L66.9679 19.1136C66.982 19.0062 66.9681 18.897 66.9276 18.7965L65.667 19.2728C65.708 19.3732 65.7224 19.4826 65.7088 19.5902L58.7493 62.564C58.7429 62.6221 58.7169 62.6763 58.6756 62.7177C58.6524 62.7379 58.624 62.751 58.5937 62.7555C58.5633 62.7601 58.5323 62.7558 58.5043 62.7432L58.4747 62.7251Z" fill="black"/>
<path d="M49.0878 9.45355L58.4565 17.0949L59.0867 16.8567L59.3449 15.2625C59.3776 15.0607 59.3884 14.7932 58.7861 13.5981C58.1838 12.4029 58.2224 12.0275 57.9443 11.4884C57.6663 10.9493 57.0868 10.4812 56.815 9.27305C56.5432 8.06486 56.7846 6.30962 55.6386 5.38441C55.4902 5.25071 55.3093 5.15818 55.114 5.11603C55.0125 5.0998 54.9086 5.11105 54.8129 5.14862L54.2361 5.36732L54.1841 5.38701L54.2992 5.63494C54.0627 5.99012 53.8737 6.43583 53.6306 6.66716C53.5484 6.7538 53.4482 6.82141 53.3371 6.86525C53.226 6.9091 53.1067 6.92812 52.9874 6.92098C52.6571 6.90594 52.3533 6.72656 52.1284 6.74488C52.0757 6.75044 52.0239 6.76295 51.9745 6.78208L51.3442 7.02023L51.3754 7.07411C51.2965 7.09688 51.2165 7.11552 51.1356 7.12994C51.0629 7.14036 50.9842 7.15128 50.8887 7.15652C50.6745 7.15942 50.4623 7.19805 50.2608 7.2708L49.7052 7.47668L49.6547 7.4966L49.0878 9.45355ZM57.9652 14.6204C57.9988 14.4129 58.124 14.3251 58.2454 14.4247C58.3132 14.499 58.3629 14.5879 58.3909 14.6845C58.4188 14.7811 58.4242 14.8828 58.4067 14.9819C58.3731 15.1894 58.2455 15.2738 58.1238 15.1757C58.0564 15.1016 58.007 15.013 57.9794 14.9166C57.9519 14.8203 57.9471 14.7189 57.9652 14.6204ZM53.7043 7.86545C53.8124 7.19806 54.1716 6.86129 54.5612 7.00425C54.6007 6.93271 54.6563 6.87138 54.7238 6.82517C54.7912 6.77896 54.8684 6.74916 54.9494 6.73813C55.0304 6.72709 55.1128 6.73515 55.1901 6.76164C55.2674 6.78814 55.3375 6.83234 55.3947 6.89072C55.8568 7.26141 56.1269 8.20601 56.0001 8.98872C55.8925 9.65322 55.5313 9.99265 55.1447 9.85015C54.9314 10.1529 54.6165 10.2158 54.3095 9.96489C53.8466 9.58964 53.5771 8.65104 53.7041 7.86689L53.7043 7.86545ZM50.7356 8.73227C50.7694 8.52326 50.8958 8.43722 51.0187 8.537C51.0869 8.61013 51.1373 8.69794 51.1662 8.79367C51.1951 8.88939 51.2016 8.99047 51.1852 9.0891C51.1518 9.29523 51.0252 9.38271 50.9038 9.28316C50.8352 9.21051 50.7843 9.12298 50.7551 9.02742C50.726 8.93186 50.7193 8.83085 50.7356 8.73227Z" fill="#455A64"/>
<path opacity="0.5" d="M58.1304 15.4698L59.3456 15.0083C59.3575 15.0926 59.3561 15.1782 59.3415 15.2621L59.0833 16.8563L58.4531 17.0945L57.9302 16.6696L58.1304 15.4698Z" fill="#37474F"/>
<path opacity="0.5" d="M57.3089 13.2953L56.9471 11.8758L57.9461 11.4888C58.1542 11.9027 58.1835 12.2151 58.4486 12.8616L57.3089 13.2953Z" fill="#37474F"/>
<path opacity="0.5" d="M55.4322 10.2695L55.4198 9.87101C55.6908 9.80543 55.915 9.48968 55.996 8.9895C56.1036 8.32499 55.9245 7.54898 55.5847 7.09898L56.4549 6.76802C56.6699 7.59572 56.6476 8.52847 56.812 9.26662C56.8478 9.42034 56.8878 9.56587 56.9312 9.70011L55.4322 10.2695Z" fill="#37474F"/>
<path d="M49.3465 7.8594L49.0883 9.45364L58.4571 17.095L58.7157 15.4979C58.7484 15.2961 58.7604 15.0303 58.1583 13.8337C57.5563 12.6371 57.5918 12.2715 57.3166 11.724C57.0413 11.1765 56.4602 10.7185 56.1968 9.50428C55.9334 8.29006 56.1643 6.55383 55.0204 5.61564C54.7028 5.35711 54.4502 5.29994 54.2381 5.35877L54.1861 5.37845C53.6649 5.5825 53.3933 6.51927 53.0052 6.89723C52.9997 6.90197 52.9944 6.90705 52.9894 6.91243C52.4385 7.42821 51.8656 6.9464 51.5013 6.96727C51.445 6.97161 51.3897 6.98407 51.337 7.00428C51.2636 7.03511 51.1935 7.07332 51.1277 7.11831C50.8667 7.28495 50.5648 7.37631 50.2551 7.38231C50.0661 7.38869 49.8786 7.41793 49.6967 7.46937L49.6461 7.48929C49.5637 7.51177 49.4904 7.55961 49.4366 7.62603C49.3829 7.69244 49.3513 7.77409 49.3465 7.8594ZM57.3384 14.8591C57.372 14.6516 57.4974 14.5624 57.6203 14.6622C57.6876 14.7367 57.7371 14.8256 57.7647 14.9221C57.7924 15.0187 57.7977 15.1203 57.7801 15.2191C57.7465 15.4267 57.6199 15.5142 57.4985 15.4146C57.4308 15.3406 57.3812 15.252 57.3534 15.1556C57.3257 15.0593 57.3205 14.9578 57.3384 14.8591ZM53.7046 7.86699C53.8127 7.1996 54.172 6.86282 54.5616 7.00579C54.6368 7.03607 54.7069 7.07786 54.7693 7.12967C55.2314 7.50036 55.5013 8.4464 55.3745 9.22911C55.3458 9.45125 55.2674 9.66406 55.145 9.85168C54.9318 10.1544 54.6169 10.2173 54.3099 9.96643C53.8472 9.58974 53.5777 8.65113 53.7046 7.86699ZM50.1112 8.96546C50.1448 8.75789 50.2714 8.6704 50.3928 8.76995C50.4612 8.84364 50.5116 8.93223 50.5398 9.02872C50.5681 9.12521 50.5735 9.22695 50.5557 9.32591C50.5221 9.53348 50.3972 9.61975 50.2743 9.51997C50.2063 9.44634 50.1561 9.35799 50.1278 9.2618C50.0995 9.16562 50.0938 9.06421 50.1112 8.96546Z" fill="#37474F"/>
<path d="M53.7039 7.86692C53.5769 8.65106 53.8465 9.58967 54.3091 9.96636C54.6161 10.2173 54.931 10.1543 55.1442 9.85161C55.0679 9.82251 54.9972 9.78053 54.935 9.7275C54.4729 9.35681 54.2028 8.4122 54.3296 7.6295C54.3587 7.40681 54.4377 7.19358 54.5608 7.00572C54.1712 6.86275 53.812 7.19953 53.7039 7.86692Z" fill="#263238"/>
<path d="M57.4977 15.4145C57.6194 15.5126 57.7458 15.4265 57.7794 15.219C57.797 15.1201 57.7917 15.0185 57.764 14.922C57.7363 14.8254 57.6869 14.7365 57.6196 14.662C57.4965 14.5637 57.3713 14.6514 57.3377 14.859C57.3196 14.9576 57.3246 15.0591 57.3524 15.1555C57.3802 15.2519 57.4299 15.3406 57.4977 15.4145Z" fill="#263238"/>
<path d="M50.2708 9.52103C50.3937 9.62081 50.5203 9.53333 50.5536 9.3272C50.5715 9.22819 50.5663 9.12638 50.5383 9.02972C50.5103 8.93307 50.4604 8.8442 50.3924 8.77004C50.271 8.67049 50.1441 8.75942 50.1108 8.96554C50.093 9.0642 50.0982 9.16563 50.1259 9.26197C50.1537 9.3583 50.2032 9.44695 50.2708 9.52103Z" fill="#263238"/>
<path d="M63.4761 21.3308L44.025 5.46809C43.9728 5.42977 43.9122 5.4044 43.8483 5.39405C43.7844 5.3837 43.719 5.38867 43.6574 5.40856L43.4319 5.49482C43.3725 5.52087 43.3202 5.56061 43.2791 5.61078C43.2381 5.66096 43.2095 5.72015 43.1958 5.7835L37.1875 42.8834C37.1807 42.9478 37.1892 43.013 37.2123 43.0735C37.2354 43.1341 37.2724 43.1883 37.3204 43.2318L56.7702 59.0944C56.8223 59.1327 56.8829 59.158 56.9468 59.1684C57.0107 59.1787 57.0761 59.1738 57.1377 59.1539L57.3647 59.0679C57.4236 59.0413 57.4755 59.0014 57.5162 58.9512C57.557 58.901 57.5854 58.8421 57.5993 58.7789L63.6076 21.679C63.6143 21.6148 63.6059 21.5498 63.5831 21.4894C63.5603 21.4289 63.5236 21.3746 63.4761 21.3308Z" fill="#F5F5F5"/>
<path d="M56.8114 59.1232C56.8316 59.1357 56.8535 59.1452 56.8764 59.1515L56.911 59.1571C56.9476 59.1674 56.9853 59.1735 57.0234 59.1753C57.0471 59.1764 57.0708 59.1742 57.094 59.169L57.1376 59.1553L57.3643 59.0707C57.4231 59.0441 57.475 59.0041 57.5157 58.954C57.5564 58.9038 57.5849 58.8449 57.5989 58.7818L63.6074 21.6805C63.6158 21.6161 63.6076 21.5506 63.5835 21.4902L62.9533 21.7284C62.9765 21.7884 62.9848 21.8532 62.9774 21.9172L56.9691 59.0171C56.9557 59.1185 56.8886 59.1579 56.8114 59.1232Z" fill="#E0E0E0"/>
<path d="M43.4319 5.49482L43.6574 5.40856C43.719 5.38867 43.7844 5.3837 43.8483 5.39405C43.9122 5.4044 43.9728 5.42977 44.025 5.46809L63.4761 21.3308C63.5236 21.3746 63.5603 21.4289 63.5831 21.4894C63.6059 21.5498 63.6143 21.6148 63.6076 21.679L62.6169 27.7965L61.9864 28.0361L42.2048 11.9024L43.1958 5.7835C43.2095 5.72015 43.2381 5.66096 43.2791 5.61078C43.3202 5.56061 43.3725 5.52087 43.4319 5.49482Z" fill="#516EB4"/>
<path opacity="0.4" d="M43.4319 5.49482L43.6574 5.40856C43.719 5.38867 43.7844 5.3837 43.8483 5.39405C43.9122 5.4044 43.9728 5.42977 44.025 5.46809L63.4761 21.3308C63.5236 21.3746 63.5603 21.4289 63.5831 21.4894C63.6059 21.5498 63.6143 21.6148 63.6076 21.679L62.6169 27.7965L61.9864 28.0361L42.2048 11.9024L43.1958 5.7835C43.2095 5.72015 43.2381 5.66096 43.2791 5.61078C43.3202 5.56061 43.3725 5.52087 43.4319 5.49482Z" fill="white"/>
<path d="M43.2112 5.72898C43.2464 5.65776 43.321 5.64469 43.3953 5.70701L62.8464 21.5698C62.8957 21.6123 62.9333 21.6667 62.9554 21.7279L63.5855 21.4912C63.5658 21.4275 63.529 21.3704 63.4791 21.3261L44.0241 5.46861C43.9722 5.43036 43.9119 5.40502 43.8482 5.39471C43.7845 5.3844 43.7193 5.38941 43.658 5.40932L43.4296 5.49511C43.3796 5.51783 43.3346 5.55018 43.2971 5.59031C43.2597 5.63043 43.2305 5.67756 43.2112 5.72898Z" fill="#516EB4"/>
<path opacity="0.6" d="M43.2112 5.72898C43.2464 5.65776 43.321 5.64469 43.3953 5.70701L62.8464 21.5698C62.8957 21.6123 62.9333 21.6667 62.9554 21.7279L63.5855 21.4912C63.5658 21.4275 63.529 21.3704 63.4791 21.3261L44.0241 5.46861C43.9722 5.43036 43.9119 5.40502 43.8482 5.39471C43.7845 5.3844 43.7193 5.38941 43.658 5.40932L43.4296 5.49511C43.3796 5.51783 43.3346 5.55018 43.2971 5.59031C43.2597 5.63043 43.2305 5.67756 43.2112 5.72898Z" fill="white"/>
<path d="M63.6071 21.6789L62.6161 27.7979L61.9859 28.036L62.9768 21.9171C62.9841 21.8527 62.9759 21.7874 62.9529 21.7268L63.5829 21.4901C63.6073 21.5499 63.6156 21.615 63.6071 21.6789Z" fill="#516EB4"/>
<path d="M46.8045 24.0254L48.1694 22.5483L47.4219 21.9391L46.5217 22.9309L46.0613 20.4392C46.1478 20.4284 46.2305 20.3978 46.3032 20.3498C46.3759 20.3018 46.4365 20.2377 46.4804 20.1624C46.613 19.95 46.6985 19.7116 46.7312 19.4634C46.8097 18.9905 46.761 18.5052 46.5899 18.0574C46.4189 17.6096 46.1316 17.2154 45.7578 16.9153L44.8105 16.1421L44.0654 20.7432L44.682 21.2469L44.919 19.7838L45.3306 20.1197L45.9998 23.2946L44.5896 24.8413L45.3539 25.465L46.2844 24.4323L46.6624 26.5379L47.4568 27.1857L46.8045 24.0254ZM45.0624 18.9076L45.2872 17.5195L45.7277 17.8867C45.9017 18.0188 46.0226 18.209 46.0684 18.4227C46.1085 18.606 46.1154 18.795 46.089 18.9807C46.0745 19.1241 46.0066 19.2568 45.8986 19.3522C45.7994 19.4348 45.6663 19.4073 45.4992 19.2698L45.0624 18.9076Z" fill="#516EB4"/>
<path d="M59.8909 30.6328L51.3728 23.6854L51.686 21.751L60.2044 28.6969L59.8909 30.6328Z" fill="#E0E0E0"/>
<path d="M59.5556 32.7074L51.0375 25.7601C50.9901 25.7085 50.9554 25.6466 50.936 25.5793C50.9166 25.5119 50.9131 25.441 50.9258 25.3722C50.9491 25.228 51.0374 25.1669 51.1225 25.2354L59.6406 32.1828C59.6876 32.2345 59.7222 32.2965 59.7416 32.3637C59.7609 32.431 59.7646 32.5018 59.7523 32.5707C59.7287 32.7163 59.6404 32.7774 59.5556 32.7074Z" fill="#E0E0E0"/>
<path d="M59.2688 34.4758L50.7507 27.5285C50.7036 27.4767 50.6691 27.4148 50.6497 27.3475C50.6303 27.2802 50.6267 27.2094 50.639 27.1405C50.6623 26.9964 50.7509 26.9338 50.8357 27.0038L59.3538 33.9512C59.4009 34.0029 59.4354 34.0649 59.4548 34.1321C59.4742 34.1994 59.4779 34.2702 59.4655 34.3391C59.442 34.4847 59.3539 34.5444 59.2688 34.4758Z" fill="#E0E0E0"/>
<path d="M58.981 36.2502L50.4629 29.3028C50.4155 29.2512 50.3808 29.1893 50.3614 29.122C50.342 29.0547 50.3385 28.9838 50.3512 28.9149C50.3745 28.7708 50.4628 28.7096 50.5476 28.7796L59.066 35.7255C59.1131 35.7776 59.1477 35.8397 59.167 35.9072C59.1864 35.9747 59.1899 36.0458 59.1775 36.1149C59.1553 36.2518 59.067 36.313 58.981 36.2502Z" fill="#E0E0E0"/>
<path d="M58.3893 39.9087L42.0061 26.5487C41.9589 26.4966 41.9243 26.4345 41.905 26.367C41.8857 26.2995 41.8821 26.2284 41.8946 26.1593C41.9179 26.0152 42.0062 25.954 42.0911 26.024L58.4742 39.384C58.5213 39.4358 58.5559 39.4977 58.5753 39.565C58.5946 39.6322 58.5983 39.703 58.586 39.7719C58.5624 39.9175 58.4741 39.9786 58.3893 39.9087Z" fill="#E0E0E0"/>
<path d="M58.0304 42.1223L41.6472 28.7623C41.6 28.7103 41.5655 28.6481 41.5461 28.5806C41.5268 28.5131 41.5232 28.442 41.5357 28.3729C41.559 28.2288 41.6473 28.1676 41.7322 28.2376L58.1154 41.5976C58.1624 41.6494 58.197 41.7113 58.2164 41.7786C58.2357 41.8458 58.2394 41.9166 58.2271 41.9855C58.2035 42.1311 58.1152 42.1923 58.0304 42.1223Z" fill="#E0E0E0"/>
<path d="M57.672 44.3369L41.2888 30.9769C41.2416 30.9249 41.2071 30.8627 41.1877 30.7952C41.1684 30.7277 41.1648 30.6566 41.1773 30.5875C41.2006 30.4434 41.2889 30.3822 41.3738 30.4522L57.757 43.8122C57.8041 43.8643 57.8387 43.9264 57.858 43.9939C57.8774 44.0614 57.8809 44.1325 57.8685 44.2016C57.8444 44.3501 57.7568 44.4069 57.672 44.3369Z" fill="#E0E0E0"/>
<path d="M57.3136 46.5508L40.9304 33.1908C40.8832 33.1387 40.8487 33.0766 40.8293 33.0091C40.81 32.9415 40.8064 32.8705 40.8189 32.8014C40.8422 32.6573 40.9305 32.5961 41.0154 32.6661L57.3986 46.0261C57.4457 46.0781 57.4803 46.1403 57.4996 46.2078C57.519 46.2753 57.5225 46.3463 57.5101 46.4154C57.4867 46.5596 57.3984 46.6207 57.3136 46.5508Z" fill="#E0E0E0"/>
<path d="M56.5014 51.5657L40.1185 38.2042C40.1025 38.1873 40.0908 38.1667 40.0844 38.1443C40.078 38.1219 40.0771 38.0983 40.0816 38.0755C40.0893 38.0279 40.1193 38.0076 40.1467 38.0298L56.5306 51.3855C56.5466 51.4025 56.5583 51.423 56.5647 51.4454C56.5711 51.4678 56.572 51.4914 56.5675 51.5143C56.5586 51.569 56.5301 51.5896 56.5014 51.5657Z" fill="#516EB4"/>
<path d="M40.5176 43.8427C39.9272 43.3595 39.5772 42.1505 39.7399 41.1458C39.9026 40.1411 40.5171 39.717 41.1077 40.1987C41.6983 40.6805 42.0481 41.8909 41.8854 42.8956C41.7227 43.9003 41.1096 44.3247 40.5176 43.8427ZM41.0795 40.3732C40.545 39.9375 39.9901 40.3225 39.8432 41.2291C39.6964 42.1358 40.0116 43.2312 40.5461 43.6669C41.0805 44.1025 41.6352 43.719 41.7823 42.8109C41.9294 41.9028 41.6108 40.8098 41.0795 40.3732Z" fill="#455A64"/>
<path d="M41.5572 42.6276C41.4442 43.3253 41.0192 43.6204 40.6076 43.2845C40.1961 42.9486 39.9546 42.1107 40.0675 41.413C40.1805 40.7154 40.607 40.4205 41.0171 40.7562C41.4272 41.0918 41.6704 41.9285 41.5572 42.6276Z" fill="#455A64"/>
<path d="M48.3308 47.2485L43.1158 42.9958L43.1919 42.5259L48.4069 46.7786L48.3308 47.2485Z" fill="#E0E0E0"/>
<path d="M48.1638 48.28L42.9488 44.0273L43.0249 43.5574L48.2399 47.8101L48.1638 48.28Z" fill="#E0E0E0"/>
<path d="M47.9965 49.3125L42.7816 45.0598L42.8574 44.5913L48.0724 48.8441L47.9965 49.3125Z" fill="#E0E0E0"/>
<path d="M55.5011 54.7349C55.4688 54.8244 55.3914 54.7911 55.3442 54.7169C55.3002 54.6322 55.2681 54.5419 55.2486 54.4485C55.2053 54.2736 55.1707 54.0967 55.1451 53.9184C55.1032 53.6154 55.0894 53.3091 55.104 53.0035C55.1145 52.9386 55.1132 52.8733 55.1165 52.8073C55.121 52.6971 55.0115 52.5876 55.0006 52.7101C54.9896 52.7779 54.9902 52.8475 54.9862 52.9178C54.9663 53.1777 54.9206 53.4349 54.85 53.6857C54.7955 53.9378 54.6808 54.173 54.5156 54.3712C54.453 54.4291 54.3718 54.4736 54.2921 54.4267C54.2125 54.3798 54.1415 54.1878 54.1035 54.0293C54.0597 53.8437 54.0269 53.6556 54.0054 53.4661C54.0303 53.4377 54.0534 53.4079 54.0746 53.3767C54.2652 53.0667 54.4054 52.7284 54.4899 52.3745C54.5718 52.0697 54.6804 51.6272 54.5038 51.2747C54.1292 50.5276 53.8872 52.086 53.8631 52.4904C53.8474 52.7775 53.8537 53.0653 53.882 53.3514C53.8549 53.3772 53.8239 53.3986 53.7903 53.415C53.7043 53.4528 53.6125 53.435 53.5351 53.31C53.4674 53.2025 53.436 53.0761 53.4456 52.9494L53.4687 52.8614C53.4816 52.7822 53.3986 52.6548 53.3716 52.7303C53.3704 52.7375 53.3695 52.7433 53.3683 52.7505C53.3644 52.775 53.3604 52.7995 53.3492 52.8229C53.3243 52.6856 53.3093 52.5467 53.3041 52.4073C53.3026 52.3345 53.2337 52.2391 53.2025 52.2947L53.0142 52.6355C52.9968 52.4184 53.0181 52.2 53.0773 51.9904C53.1037 51.9 53.0035 51.761 52.9685 51.8396C52.907 52.0075 52.8132 52.1616 52.6924 52.2934C52.668 52.3168 52.6384 52.3341 52.606 52.3439C52.5736 52.3536 52.5394 52.3555 52.5061 52.3494C52.4729 52.3433 52.4416 52.3294 52.4147 52.3088C52.3879 52.2881 52.3664 52.2615 52.3519 52.2309L52.3391 52.2096C52.3855 52.1609 52.4311 52.1076 52.474 52.0524C52.6394 51.8908 52.7376 51.6726 52.749 51.4417C52.7446 51.1762 52.5991 50.9514 52.4638 51.0286C52.2545 51.1426 52.0679 51.6464 52.1701 52.0934C51.9965 52.2517 51.789 52.3365 51.5698 52.2196C51.3505 52.1027 51.138 51.7799 51.1039 51.3513C51.09 51.1865 51.098 51.0207 51.1276 50.8581C51.2285 50.927 51.3388 50.9812 51.455 51.0191C51.6099 51.0744 51.7787 51.0771 51.9353 51.0268C52.0918 50.9765 52.2274 50.8759 52.3211 50.7407C52.3953 50.6488 52.4477 50.5413 52.4743 50.4261C52.5009 50.311 52.501 50.1914 52.4746 50.0762C52.4598 49.9693 52.419 49.8675 52.3558 49.78C52.2926 49.6924 52.209 49.6216 52.1122 49.5738C51.7986 49.4638 51.4785 49.696 51.2692 50.029C51.1596 50.2053 51.0785 50.3979 51.0289 50.5995C50.7899 50.4156 50.5728 50.2048 50.3822 49.9711C50.3238 49.9025 50.295 50.025 50.3474 50.0942C50.5363 50.3438 50.7531 50.571 50.9937 50.7713C50.9542 50.9919 50.9496 51.2173 50.9802 51.4392C51.052 51.973 51.3438 52.3546 51.6216 52.4661C51.8493 52.5578 52.0643 52.4727 52.2385 52.3101C52.3518 52.5238 52.5176 52.6053 52.6562 52.5627C52.7512 52.5238 52.8306 52.4545 52.8819 52.3655C52.8791 52.5354 52.8933 52.7052 52.9241 52.8723C52.9354 52.9393 52.9986 53.0057 53.026 52.9554L53.2053 52.625C53.2237 52.7845 53.2545 52.9423 53.2974 53.097C53.3091 53.1344 53.3427 53.1739 53.3679 53.1735C53.4 53.3085 53.4645 53.4337 53.5559 53.5382C53.5762 53.5639 53.6015 53.5852 53.6303 53.6008C53.6591 53.6164 53.6907 53.6259 53.7234 53.6289C53.756 53.6318 53.7888 53.628 53.82 53.6178C53.8511 53.6076 53.8798 53.5912 53.9043 53.5695C53.9093 53.6029 53.9114 53.6358 53.9165 53.6677C53.9724 54.0169 54.0639 54.4844 54.2824 54.6145C54.5268 54.7679 54.7252 54.4288 54.8456 54.1421C54.9094 53.9845 54.9609 53.8222 54.9997 53.6567C55.0153 53.8249 55.0382 53.9943 55.0658 54.1615C55.0966 54.3892 55.1603 54.6113 55.2549 54.8208C55.3469 54.9836 55.4818 55.0365 55.5432 54.8675C55.5789 54.8022 55.5229 54.6733 55.5011 54.7349ZM51.3599 50.2182C51.5269 49.9361 51.7647 49.7557 52.0143 49.7576C52.137 49.7583 52.2984 49.8303 52.3524 50.0905C52.3671 50.1853 52.3582 50.2823 52.3265 50.3729C52.2948 50.4635 52.2413 50.5449 52.1707 50.6099C51.8745 50.9317 51.519 50.8889 51.1675 50.6752C51.2116 50.5171 51.2759 50.3655 51.3589 50.224L51.3599 50.2182ZM52.4419 51.3194C52.4757 51.2746 52.5492 51.1682 52.6009 51.2505C52.6198 51.3051 52.6269 51.3632 52.6217 51.4207C52.6164 51.4783 52.599 51.534 52.5705 51.5844C52.49 51.7317 52.3903 51.8677 52.2742 51.989C52.2548 51.7554 52.3134 51.5219 52.4409 51.3252L52.4419 51.3194ZM53.9708 53.0862C53.9296 52.51 54.0186 51.9319 54.2314 51.3948C54.2794 51.2901 54.3501 51.2187 54.4269 51.3569C54.4921 51.5141 54.5078 51.6874 54.4721 51.8538C54.4243 52.1688 54.3382 52.4768 54.2156 52.7709C54.1541 52.9341 54.0757 53.0904 53.9818 53.2374C53.9789 53.1911 53.9744 53.1371 53.9708 53.0862Z" fill="#455A64"/>
<path d="M47.3215 10.009C47.3215 10.009 47.3983 10.8409 47.3996 11.2805C47.4021 11.3527 47.4323 11.4212 47.4841 11.4717L58.7108 20.6195L58.9202 20.788C58.9227 20.7903 58.9258 20.7917 58.9291 20.7923C58.9325 20.7928 58.9359 20.7924 58.9389 20.791C58.9596 20.7825 58.9729 20.7551 58.9722 20.7136C58.9722 20.7136 58.9722 20.7136 58.9736 20.7049C58.9467 19.5009 58.781 18.5052 57.807 17.3859L56.2251 15.7452C56.2251 15.7452 55.8172 15.2131 55.8114 14.7285L55.8012 14.0789L55.792 12.8112C55.792 12.8112 55.8206 12.4431 55.4433 11.9323C55.0659 11.4215 54.486 10.116 54.4749 9.32579C54.4576 8.07155 53.7968 6.57107 52.9973 5.97267C52.8504 5.85711 52.678 5.77846 52.4945 5.74332C52.3842 5.72318 52.2706 5.73342 52.1657 5.77292L51.5578 6.00137L51.5309 6.01182C51.5192 6.08389 51.0335 8.40752 50.6688 8.35734C50.6485 8.35238 50.6277 8.34902 50.6068 8.34731C50.5729 8.34655 50.5392 8.35267 50.5078 8.36528L49.8945 8.5988L49.8804 8.60391L50.3607 10.3784C50.3682 10.8619 50.0898 10.8641 49.9646 10.7876L49.7313 10.6478C49.4102 10.4478 49.1436 10.2671 48.5274 9.86109C48.4477 9.79783 48.3538 9.75484 48.2539 9.73582C48.1539 9.71679 48.0508 9.7223 47.9534 9.75186L47.3234 9.98857L47.3215 10.009ZM52.2384 6.90448C52.2624 6.83817 52.3009 6.77807 52.3511 6.72861C52.4014 6.67914 52.4621 6.64158 52.5288 6.61867C52.6666 6.58035 53.8066 9.543 53.6114 9.65192C53.547 9.68478 53.4753 9.70076 53.403 9.69836C53.3307 9.69596 53.2601 9.67527 53.198 9.63822C53.0521 9.96369 52.7629 10.0411 52.424 9.78653C51.933 9.41117 51.5267 8.4948 51.5153 7.72521C51.5058 7.03436 51.8173 6.7002 52.2384 6.90448Z" fill="#455A64"/>
<path opacity="0.5" d="M57.469 18.6981L58.4556 18.3239C58.8687 19.0979 58.9603 19.8567 58.9798 20.7223C58.9798 20.7223 58.9787 20.7295 58.9784 20.731C58.9719 20.7713 58.9672 20.8002 58.9452 20.8084C58.9421 20.8098 58.9387 20.8102 58.9354 20.8097C58.932 20.8091 58.9289 20.8076 58.9264 20.8054L58.3056 20.1265L57.469 18.6981Z" fill="#37474F"/>
<path opacity="0.5" d="M55.8406 14.9525L54.4504 15.4803L54.4358 12.8301L55.686 12.3536C55.7558 12.4976 55.7934 12.6552 55.7962 12.8152L55.8054 14.0829L55.8156 14.7325C55.8163 14.8065 55.8247 14.8802 55.8406 14.9525Z" fill="#37474F"/>
<path opacity="0.5" d="M54.1298 7.65463C54.3416 8.19159 54.459 8.76109 54.477 9.33803C54.504 9.74849 54.5942 10.1523 54.7446 10.5352L53.5515 10.9884L53.2109 9.64776C53.2717 9.68183 53.3399 9.70042 53.4096 9.7019C53.4793 9.70338 53.5482 9.6877 53.6104 9.65625C53.7112 9.60009 53.4549 8.78938 53.171 8.02152L54.1298 7.65463Z" fill="#37474F"/>
<path d="M46.8393 10.7744C46.8393 10.7744 47.2642 11.3298 47.2916 11.352C47.3191 11.3742 47.4502 11.4783 47.4502 11.4783L58.712 20.6289L58.9214 20.7974C58.8851 20.7471 58.2924 20.1142 58.2924 20.1142C58.1924 19.19 57.801 18.3215 57.1748 17.6344L55.5958 15.9941C55.5958 15.9941 55.1852 15.4602 55.1794 14.9756L55.1704 14.3277L55.1615 13.0585C55.1615 13.0585 55.1898 12.6918 54.8125 12.181C54.4352 11.6702 53.8552 10.3648 53.8429 9.57286C53.8254 8.32005 53.1646 6.81958 52.3667 6.21997C52.0646 5.99354 51.7837 5.92881 51.5553 6.00572L51.5282 6.01761C51.17 6.15633 50.9437 6.64926 50.9546 7.40396C50.9625 7.57779 50.9356 7.75145 50.8753 7.9147C50.8151 8.07796 50.7228 8.22751 50.6039 8.35454C50.5341 8.43495 50.4471 8.49865 50.3493 8.54094C50.2516 8.58323 50.1456 8.60303 50.0392 8.59888C49.9896 8.59041 49.9388 8.59278 49.8902 8.6058L49.876 8.61091C49.6793 8.68407 49.7062 8.96506 49.7062 8.96506L49.7186 9.9759L49.729 10.624C49.7273 10.6341 49.7257 10.6442 49.7241 10.6543C49.7216 11.108 49.4525 11.1073 49.3312 11.0344C48.8767 10.7626 48.6493 10.6045 47.889 10.1115C47.8095 10.0479 47.7159 10.0044 47.616 9.98488C47.5161 9.96535 47.413 9.97034 47.3154 9.99943L47.3068 9.99803C47.0921 10.0994 46.927 10.3699 46.8393 10.7744ZM52.2381 6.90474C52.2892 6.93054 52.3377 6.96118 52.383 6.99626C52.8754 7.36297 53.282 8.28678 53.2932 9.05781C53.3012 9.25433 53.2695 9.45044 53.1998 9.63439C53.0539 9.95986 52.7648 10.0373 52.4258 9.7827C51.9348 9.40734 51.5285 8.49097 51.5171 7.72138C51.5055 7.03462 51.817 6.70046 52.2381 6.90474Z" fill="#37474F"/>
<path d="M51.5154 7.7265C51.5269 8.49609 51.9318 9.42111 52.4242 9.78782C52.7631 10.0424 53.0523 9.96498 53.1982 9.63951C53.1471 9.6131 53.0981 9.58291 53.0516 9.5492C52.5594 9.18104 52.1543 8.25747 52.1431 7.48644C52.1343 7.28988 52.1661 7.09361 52.2364 6.90986C51.8178 6.70005 51.5063 7.03421 51.5154 7.7265Z" fill="#263238"/>
<path d="M52.177 6.9285L52.226 6.93644C52.2731 6.96134 52.3179 6.99038 52.3599 7.02321C52.8416 7.38229 53.2441 8.29508 53.2555 9.05578C53.2633 9.24689 53.2324 9.4376 53.1647 9.6165C53.1119 9.67324 53.0478 9.7184 52.9767 9.74914C52.9055 9.77988 52.8287 9.79553 52.7512 9.79509C52.5205 9.75774 51.8249 8.78268 51.7533 8.40275C51.7043 8.13003 51.6217 7.28827 51.8948 7.00854C51.9304 6.97192 51.9749 6.94503 52.0238 6.93043C52.0728 6.91583 52.1247 6.91402 52.1746 6.92515M52.1802 6.89056C51.5459 6.78785 51.6467 8.0201 51.7183 8.40891C51.7899 8.79772 52.4931 9.79027 52.741 9.83042C52.8252 9.83071 52.9086 9.81352 52.9858 9.77994C53.0631 9.74637 53.1325 9.69713 53.1898 9.63535C53.2594 9.45141 53.2912 9.25529 53.2831 9.05877C53.2719 8.28775 52.8653 7.36393 52.3729 6.99722C52.3277 6.96215 52.2791 6.9315 52.228 6.9057C52.2095 6.90127 52.1907 6.89823 52.1718 6.8966L52.1802 6.89056Z" fill="#263238"/>
<path d="M58.9231 20.7989L47.4507 11.4781L47.2919 11.3533C47.2647 11.3297 46.8413 10.7744 46.8413 10.7744L58.2985 20.1164C58.2985 20.1164 58.9694 20.833 58.9231 20.7989Z" fill="#263238"/>
<path d="M9.53239 19.7431L11.1951 25.9486L17.4058 24.2845L15.7431 18.079L21.9485 16.4162L20.2844 10.2056L14.0789 11.8683L12.4162 5.66285L6.20549 7.32699L7.86824 13.5325L1.66276 15.1952L3.3269 21.4059L9.53239 19.7431Z" fill="#516EB4"/>
<path d="M56.7932 51.554L56.4585 51.7164C56.3705 51.7541 56.278 51.7687 56.1866 51.7593C56.0951 51.7498 56.0065 51.7165 55.9262 51.6615L39.397 37.9673C39.33 37.9091 39.2772 37.8277 39.2443 37.7322C39.2115 37.6368 39.1999 37.5308 39.2108 37.4259L42.8764 14.974C42.903 14.8637 42.9488 14.7622 43.0102 14.6773C43.0716 14.5924 43.1471 14.5264 43.2307 14.4845L43.5654 14.322C43.6535 14.2851 43.7459 14.271 43.8372 14.2804C43.9286 14.2898 44.0172 14.3227 44.0977 14.377L60.6269 28.0712C60.6941 28.13 60.747 28.2119 60.7798 28.308C60.8126 28.4041 60.8241 28.5107 60.813 28.6161L57.1473 51.068C57.1204 51.1776 57.0745 51.2784 57.0131 51.3627C56.9517 51.447 56.8765 51.5124 56.7932 51.554Z" fill="#F0F0F0"/>
<path d="M55.9078 51.6604L39.3785 37.9663C39.3115 37.908 39.2587 37.8267 39.2259 37.7312C39.193 37.6357 39.1814 37.5297 39.1923 37.4248L42.858 14.9729C42.862 14.931 42.8749 14.8911 42.8954 14.8576C42.9158 14.8241 42.9428 14.7983 42.9735 14.783C43.0043 14.7678 43.0374 14.7637 43.0694 14.7713C43.1013 14.7788 43.1308 14.7977 43.1545 14.8258L59.6837 28.5199C59.7509 28.5788 59.8038 28.6607 59.8366 28.7568C59.8694 28.8529 59.8809 28.9594 59.8698 29.0648L56.2041 51.5167C56.1757 51.7052 56.0412 51.7709 55.9078 51.6604Z" fill="white"/>
<path d="M56.0273 51.7773C56.0588 51.7788 56.0903 51.771 56.1194 51.7544C56.1545 51.7337 56.1851 51.7019 56.2083 51.6619C56.2314 51.622 56.2463 51.5753 56.2516 51.5263L59.917 29.0779C59.9308 28.9597 59.9188 28.8398 59.8823 28.7317C59.8457 28.6236 59.7862 28.5317 59.7103 28.4663L43.1836 14.7757C43.1495 14.7442 43.1098 14.7238 43.0678 14.7162C43.0259 14.7086 42.9829 14.7141 42.9424 14.7322C42.9073 14.7529 42.8767 14.7848 42.8535 14.8247C42.8304 14.8647 42.8155 14.9114 42.8103 14.9603L39.1446 37.4122C39.1313 37.5299 39.1437 37.6491 39.1802 37.7565C39.2167 37.8639 39.276 37.9553 39.3515 38.0204L55.8807 51.7145C55.9244 51.7509 55.9748 51.7725 56.0273 51.7773ZM43.0303 14.8438C43.0649 14.8479 43.0981 14.8627 43.1271 14.8868L59.6563 28.5809C59.7128 28.631 59.7578 28.6996 59.787 28.7798C59.8162 28.86 59.8285 28.9491 59.8227 29.0385L56.1571 51.4904C56.1551 51.5194 56.1472 51.5474 56.1342 51.5716C56.1212 51.5958 56.1036 51.6153 56.0831 51.6282C56.0577 51.6379 56.0311 51.6398 56.0053 51.6337C55.9796 51.6276 55.9555 51.6136 55.9351 51.5929L39.4057 37.9023C39.3467 37.8497 39.3002 37.7772 39.2711 37.6924C39.2421 37.6077 39.2315 37.5138 39.2405 37.4206L42.9061 14.9687C42.9093 14.9406 42.9176 14.9137 42.9305 14.8903C42.9433 14.8669 42.9603 14.8477 42.9799 14.8343C42.9969 14.8301 43.0142 14.831 43.0306 14.8369L43.0303 14.8438Z" fill="#E0E0E0"/>
<path d="M55.9429 51.6865C56.101 51.7759 56.2808 51.7851 56.4472 51.7125L56.782 51.5501C56.8652 51.5084 56.9405 51.443 57.0019 51.3587C57.0632 51.2744 57.1092 51.1736 57.136 51.064L60.8017 28.6121C60.8157 28.5086 60.8043 28.4029 60.7691 28.3099L59.8361 28.7628C59.8694 28.8565 59.8799 28.9618 59.8661 29.0648L56.2031 51.5169C56.199 51.5534 56.188 51.5882 56.1711 51.6184C56.1543 51.6486 56.132 51.6732 56.1063 51.6899C56.0806 51.7067 56.0522 51.7151 56.0237 51.7146C55.9952 51.714 55.9675 51.7043 55.9429 51.6865Z" fill="#E0E0E0"/>
<path d="M43.9708 39.1933L45.9668 26.9517L47.0586 26.4275L45.0627 38.6657L43.9708 39.1933Z" fill="#516EB4"/>
<path opacity="0.2" d="M43.9708 39.1933L45.9668 26.9517L47.0586 26.4275L45.0627 38.6657L43.9708 39.1933Z" fill="black"/>
<path d="M43.97 39.1934L41.3987 37.0615L43.3946 24.8233L45.9661 26.9518L43.97 39.1934Z" fill="#516EB4"/>
<path d="M43.3954 24.8234L44.4874 24.2957L47.0587 26.4276L45.9669 26.9518L43.3954 24.8234Z" fill="#516EB4"/>
<path opacity="0.25" d="M43.3954 24.8234L44.4874 24.2957L47.0587 26.4276L45.9669 26.9518L43.3954 24.8234Z" fill="white"/>
<path opacity="0.3" d="M43.3951 24.823L45.9635 26.9064L47.0583 26.4273L45.9948 27.0254C45.9603 27.3863 44.072 38.8322 43.9705 39.1931C43.9894 38.8245 45.8391 27.349 45.9183 27.0042L43.3951 24.823Z" fill="white"/>
<path d="M48.7896 43.1882L50.3944 33.3545L51.4863 32.8269L49.8815 42.6606L48.7896 43.1882Z" fill="#516EB4"/>
<path opacity="0.1" d="M48.7896 43.1882L50.3944 33.3545L51.4863 32.8269L49.8815 42.6606L48.7896 43.1882Z" fill="white"/>
<path d="M48.7895 43.1883L46.2182 41.0564L47.8228 31.2262L50.3943 33.3546L48.7895 43.1883Z" fill="#516EB4"/>
<path opacity="0.3" d="M48.7895 43.1883L46.2182 41.0564L47.8228 31.2262L50.3943 33.3546L48.7895 43.1883Z" fill="white"/>
<path d="M47.8236 31.2259L48.9156 30.6983L51.4871 32.8268L50.3951 33.3544L47.8236 31.2259Z" fill="#516EB4"/>
<path opacity="0.55" d="M47.8236 31.2259L48.9156 30.6983L51.4871 32.8268L50.3951 33.3544L47.8236 31.2259Z" fill="white"/>
<path opacity="0.3" d="M50.352 33.3871L47.8218 31.2366L50.3903 33.3199C50.7359 33.1546 51.4852 32.8374 51.4852 32.8374C51.4852 32.8374 50.7807 33.2191 50.4266 33.3943C50.3781 33.7649 48.872 42.823 48.7885 43.1987C48.83 42.8071 50.2836 33.7289 50.352 33.3871Z" fill="white"/>
<path d="M53.6114 47.1802L54.9584 38.929L56.0503 38.4014L54.7034 46.6526L53.6114 47.1802Z" fill="#516EB4"/>
<path opacity="0.45" d="M53.6114 47.1802L54.9584 38.929L56.0503 38.4014L54.7034 46.6526L53.6114 47.1802Z" fill="black"/>
<path d="M53.6121 47.1801L51.0407 45.0516L52.3878 36.797L54.9591 38.9289L53.6121 47.1801Z" fill="#516EB4"/>
<path opacity="0.3" d="M53.6121 47.1801L51.0407 45.0516L52.3878 36.797L54.9591 38.9289L53.6121 47.1801Z" fill="black"/>
<path d="M52.3878 36.7972L53.4796 36.273L56.051 38.4015L54.9591 38.9291L52.3878 36.7972Z" fill="#516EB4"/>
<path opacity="0.15" d="M52.3878 36.7972L53.4796 36.273L56.051 38.4015L54.9591 38.9291L52.3878 36.7972Z" fill="black"/>
<path opacity="0.3" d="M52.3872 36.7969L54.9557 38.8802L56.0505 38.4011L54.9904 38.9856C54.9904 38.9856 53.6925 46.9596 53.6116 47.18C53.6046 46.9516 54.9077 38.9814 54.9077 38.9814L52.3872 36.7969Z" fill="white"/>
<path d="M21.7476 56.6772L22.2884 56.4188L21.7571 56.2688L21.7476 56.6772Z" fill="#263238"/>
<path d="M27.0964 57.6901C27.0964 57.6901 20.7421 54.8185 20.6592 55.2349C20.6415 55.319 20.6415 55.406 20.6592 55.4901L20.6416 55.4662L20.7549 56.2639C21.0384 56.495 21.3822 56.64 21.7456 56.6819C21.7456 56.6436 21.7456 56.4075 21.7552 56.2735C21.9495 56.3552 22.1354 56.4556 22.3103 56.5734C22.7172 56.843 22.9772 57.312 23.408 57.8592C23.727 58.2565 24.2838 58.4447 25.1198 58.5676C26.018 58.7 26.8109 58.5341 27.0342 58.298C27.2209 58.1033 27.1347 57.7524 27.0964 57.6901Z" fill="#263238"/>
<path d="M26.9273 57.5483C26.8666 57.4845 26.6401 57.2292 26.3354 56.9644C26.0674 56.7267 25.7547 56.4267 25.4196 56.1827C25.2582 56.0702 25.1061 55.9448 24.965 55.8077C24.8521 55.6896 24.7456 55.5655 24.6459 55.436C24.3445 55.0344 24.0887 54.6004 23.8833 54.1422C23.768 53.9273 23.6796 53.6991 23.6201 53.4626C23.5744 53.2141 23.5509 52.9621 23.5499 52.7096C23.5499 51.5721 23.5754 51.3918 23.5866 50.5271L20.8888 50.5973C20.975 51.0759 21.1042 51.7332 21.1473 52.2788C21.2127 53.1084 21.2334 53.2919 20.9016 54.1167C20.8027 54.3592 20.6575 54.5953 20.6431 54.8537C20.6208 55.2781 20.9622 55.6514 21.3307 55.8556C21.6498 56.0295 22.0008 56.1061 22.3039 56.2911C22.6108 56.501 22.8777 56.7642 23.092 57.0681C23.3058 57.3393 23.4749 57.6616 23.7764 57.8546C24.0951 58.0419 24.4474 58.1649 24.8134 58.2167C25.2737 58.3007 25.7426 58.3269 26.2093 58.2949C26.8762 58.2486 27.3708 58.0093 26.9273 57.5483Z" fill="#B16668"/>
<path d="M26.5655 57.0838C26.2927 56.8525 25.905 56.5238 25.436 56.1521C25.2746 56.0953 25.103 56.0733 24.9325 56.0876C24.762 56.1019 24.5965 56.1521 24.4468 56.2351C23.4896 56.7137 23.3301 57.4172 23.3301 57.4172C23.4882 57.7338 23.7644 57.9755 24.0991 58.0905C25.1903 58.5691 27.1526 58.4335 27.1749 57.9309C27.1877 57.6182 26.8973 57.371 26.5655 57.0838ZM20.9674 53.9377C20.8978 54.1011 20.82 54.2608 20.7344 54.4164C20.6429 54.5592 20.5942 54.7253 20.5942 54.895C20.5942 55.0646 20.6429 55.2307 20.7344 55.3736C20.8412 55.5416 20.9812 55.686 21.1458 55.798C21.3104 55.9099 21.4962 55.987 21.6917 56.0245C22.0028 55.088 21.3534 54.1435 20.9674 53.9377Z" fill="#37474F"/>
<path d="M15.7775 54.7882C15.953 55.0738 15.7312 56.1475 15.7775 56.9116C15.8158 57.6072 16.004 58.8181 15.7966 59.5041C15.5493 60.3161 15.0436 61.259 14.0944 60.4916C13.5057 60.013 13.1675 59.4052 13.0829 58.4049C13.0239 57.7093 13.2951 56.7489 13.5264 55.8986C13.7976 54.9031 13.9013 54.3718 13.9013 54.3718L15.7775 54.7882Z" fill="#263238"/>
<path d="M13.8709 49.6479C13.8023 51.2688 13.9937 52.4079 14.0049 53.4465C14.0009 53.9177 13.9507 54.3874 13.8549 54.8488C13.7161 55.5109 13.48 56.4314 13.3763 56.8606C13.2391 57.4604 13.1338 57.8385 13.3444 58.5118C13.3617 58.5674 13.3852 58.621 13.4146 58.6713C13.7081 59.2265 14.458 59.6445 14.6909 59.5775C14.7404 59.6392 14.8064 59.6856 14.8812 59.7113C14.9561 59.737 15.0367 59.741 15.1137 59.7227C15.1408 59.7191 15.1676 59.7127 15.1934 59.7035C15.2207 59.6947 15.2473 59.684 15.2732 59.6716C15.3715 59.6193 15.4578 59.547 15.5265 59.4594C15.5952 59.3717 15.6448 59.2707 15.672 59.1627C15.6878 59.1146 15.7006 59.0656 15.7103 59.0159C15.8183 58.4488 15.8451 57.8692 15.7901 57.2945C15.7901 56.8446 15.7901 56.4075 15.8284 55.7997C15.8667 55.1918 15.9608 53.33 16.1762 52.4175C16.3357 51.7794 16.5351 50.9817 16.7457 50.1282L13.8709 49.6479Z" fill="#B16668"/>
<path d="M13.2359 57.6422C13.8262 57.3854 15.5412 57.3503 15.814 58.1703C15.814 58.9409 15.8268 59.4641 15.3354 60.1358C14.675 61.0276 13.8151 60.0815 13.4848 59.4817C13.1546 58.8818 13.1546 58.057 13.2359 57.6422Z" fill="#37474F"/>
<path d="M16.1077 28.4709C15.2717 29.9419 14.5985 31.1831 14.3815 35.063C14.1358 39.4454 14.1725 41.1142 14.1502 41.6438C14.1279 42.1735 13.7817 43.1419 13.4865 45.7471C13.1914 48.3523 13.5025 54.6652 13.5025 54.6652C13.5025 54.6652 13.7115 55.0911 14.7261 55.1869C15.6626 55.2762 16.2114 54.9539 16.2114 54.9539C16.2114 54.9539 17.6999 46.6581 18.0652 45.0962C18.4306 43.5343 19.501 38.3749 19.501 38.3749L19.8536 43.2935C19.8536 43.2935 19.5569 44.7293 19.8265 47.0186C20.0961 49.308 20.7837 53.6298 20.7837 53.6298C20.7837 53.6298 21.1826 54.0254 22.4062 54.0015C23.708 53.976 23.9792 53.6218 23.9792 53.6218C23.9792 53.6218 24.2712 44.3225 24.2983 41.7316C24.3254 39.1407 24.4706 32.4131 23.6602 28.5715L16.1077 28.4709Z" fill="#455A64"/>
<path d="M20.3766 33.3992L19.5024 38.3752L19.8549 43.2937V38.3209L20.6335 34.2384C21.2716 34.0932 22.7234 33.3546 23.1302 32.2873C22.1411 33.2812 20.3766 33.3992 20.3766 33.3992ZM17.4236 30.4654C17.5401 30.0474 17.6613 29.6326 17.7969 29.2146C17.561 29.5875 17.3663 29.985 17.2162 30.4C17.0616 30.8112 16.9306 31.2309 16.8237 31.6571C16.72 32.0831 16.6339 32.5138 16.5733 32.9477C16.5057 33.381 16.4731 33.819 16.476 34.2575C16.5844 33.8316 16.6865 33.4088 16.795 32.9812C16.9035 32.5537 16.996 32.1373 17.1045 31.7177C17.213 31.2981 17.3103 30.8881 17.4236 30.4654ZM16.7855 30.1463C16.9306 29.8926 17.0774 29.6374 17.2114 29.3678C16.9883 29.5686 16.7843 29.7897 16.602 30.0282C16.42 30.2651 16.2543 30.514 16.1058 30.7733C15.9586 31.0336 15.8322 31.3051 15.7277 31.5853C15.6195 31.864 15.5487 32.1559 15.5171 32.4532L15.9287 31.6715C16.0675 31.4162 16.2063 31.1593 16.3515 30.9073C16.4967 30.6552 16.6435 30.4095 16.787 30.1463H16.7855ZM16.133 46.7779C15.8766 48.1244 15.6373 49.4746 15.415 50.8286C15.7437 49.4959 16.0548 48.1601 16.3483 46.821C16.6467 45.4809 16.9258 44.144 17.205 42.7943C17.4842 41.4446 17.6454 40.0822 17.7905 38.7166C17.9357 37.3509 18.049 35.9853 18.1431 34.6181C17.9405 35.9741 17.7586 37.3302 17.5736 38.691C17.3885 40.0519 17.1939 41.4032 16.9354 42.7433C16.677 44.0834 16.3866 45.4315 16.133 46.7779ZM23.1079 40.0998C23.1318 40.6932 23.1637 41.2915 23.1494 41.8786C23.135 42.4657 23.1605 43.6016 23.1254 44.1966C23.1254 44.1966 23.0903 47.6985 23.1956 49.0258C23.3552 47.8404 23.3791 43.0863 23.4301 41.885C23.4301 40.6773 23.3392 39.4919 23.2403 38.2986C23.1414 37.1053 22.9994 35.9199 22.8207 34.7377L23.0217 38.3129C23.0552 38.908 23.0903 39.5031 23.1079 40.0998Z" fill="#37474F"/>
<path d="M16.7137 13.7507C16.7025 13.8066 16.535 13.9103 16.4887 13.9693C16.3881 14.0726 16.2983 14.1859 16.2207 14.3075C16.0709 14.5707 15.9908 14.8678 15.9878 15.1706C15.9955 15.6374 16.1241 16.0941 16.3611 16.4963C16.5964 16.8965 16.8659 17.2755 17.1668 17.629L17.9166 18.5639C17.956 18.6381 18.0203 18.6961 18.0982 18.7276C18.1761 18.7591 18.2626 18.7622 18.3425 18.7362C18.7334 18.6772 19.1243 18.6118 19.5119 18.54C19.873 18.4843 20.2278 18.3935 20.5713 18.2688C21.1397 18.0397 21.6253 17.6436 21.964 17.1329C22.1236 16.9032 22.3246 16.5777 22.3533 16.2953C22.366 16.1677 22.3054 16.0576 22.3373 15.9252C22.4044 15.7643 22.4861 15.61 22.5814 15.4641C22.7618 15.1024 22.8454 14.7 22.8239 14.2963C22.7473 13.4667 22.2352 12.3915 20.7133 12.0836C19.4386 11.8267 17.0216 12.1027 16.7137 13.7507Z" fill="#263238"/>
<path d="M35.7637 22.0339C35.6267 21.9613 35.471 21.9319 35.317 21.9494C35.0738 21.9892 34.8338 22.0468 34.599 22.1217C34.2321 22.2062 33.6418 22.345 33.2749 22.2285C33.1999 22.2046 33.0531 22.1344 33.1808 22.069C33.352 21.9954 33.5165 21.9067 33.6721 21.8042C33.7496 21.7534 33.8154 21.6868 33.8652 21.6087C33.915 21.5305 33.9476 21.4428 33.9609 21.3511C33.9693 21.295 33.9556 21.2377 33.9226 21.1916C33.8732 21.1293 33.8221 21.1469 33.7631 21.1692C33.6999 21.1907 33.6354 21.2083 33.57 21.2219L33.168 21.324C32.3895 21.5266 31.5918 21.8026 31.0079 22.3642C30.9233 22.4471 30.7335 22.7151 29.8656 23.2161C29.0344 23.6947 26.9014 24.896 26.9014 24.896C26.9014 24.896 25.3412 22.9114 24.7971 22.2158C23.8399 20.9794 23.5544 20.63 22.2334 20.4019L22.629 24.5291C22.629 24.5291 24.6839 26.8998 25.405 27.4613C26.3925 28.2351 26.6605 28.1585 27.4582 27.6831C28.5032 27.0641 28.9227 26.6732 29.7539 25.9681C30.7638 25.1114 31.1212 24.8226 31.453 24.5817C31.7848 24.3408 32.289 24.336 32.5362 24.328C32.8788 24.3272 33.2197 24.2794 33.5493 24.1861C33.84 24.1161 34.1205 24.0089 34.3837 23.867C34.5176 23.8106 34.6386 23.7275 34.7394 23.6229C34.7862 23.5134 34.8394 23.4069 34.899 23.3038C34.9883 23.1953 35.1271 23.1315 35.2037 23.0151C35.2523 22.9168 35.2882 22.8128 35.3106 22.7056C35.3648 22.546 35.4972 22.471 35.6456 22.3961C35.7208 22.3668 35.7884 22.321 35.8434 22.262C35.9184 22.1631 35.853 22.0866 35.7637 22.0339Z" fill="#B16668"/>
<path d="M26.9036 24.8975C26.1617 25.325 25.8538 25.9089 25.8251 26.429C25.5252 25.2836 26.7217 24.6646 26.7217 24.6646L26.9036 24.8975Z" fill="#9A4A4D"/>
<path d="M32.766 22.4326C32.4795 22.7982 32.095 23.0749 31.6572 23.2303C31.9001 23.267 32.1482 23.2167 32.3576 23.0883C32.4687 23.0147 32.5628 22.9181 32.6332 22.805C32.7037 22.6918 32.749 22.5648 32.766 22.4326Z" fill="#9A4A4D"/>
<path d="M15.281 30.4765C14.7928 30.0808 15.3911 29.9149 15.5649 27.5075C15.6112 26.8869 15.2076 24.9677 15.2076 24.9677C15.2076 24.9677 16.1233 23.626 15.7532 20.6299L17.6836 20.1656L20.5744 20.1226L22.2367 20.4017C22.8143 20.9488 23.33 21.5576 23.7747 22.2173C24.5724 23.3867 24.5069 24.8895 23.6375 25.8196C23.608 26.5377 23.6213 27.2568 23.6774 27.9733C23.7858 28.9736 24.3426 29.9468 23.7619 30.4414C22.0613 31.8836 17.5831 31.9841 15.281 30.4765Z" fill="#516EB4"/>
<path opacity="0.6" d="M15.281 30.4765C14.7928 30.0808 15.3911 29.9149 15.5649 27.5075C15.6112 26.8869 15.2076 24.9677 15.2076 24.9677C15.2076 24.9677 16.1233 23.626 15.7532 20.6299L17.6836 20.1656L20.5744 20.1226L22.2367 20.4017C22.8143 20.9488 23.33 21.5576 23.7747 22.2173C24.5724 23.3867 24.5069 24.8895 23.6375 25.8196C23.608 26.5377 23.6213 27.2568 23.6774 27.9733C23.7858 28.9736 24.3426 29.9468 23.7619 30.4414C22.0613 31.8836 17.5831 31.9841 15.281 30.4765Z" fill="white"/>
<path d="M17.3249 18.0071C17.1673 18.0291 17.0068 18.0114 16.8577 17.9557C16.7087 17.9 16.5759 17.808 16.4714 17.6881C16.0215 17.2095 15.98 16.7085 16.189 16.3799C16.3613 16.1087 16.7841 15.9364 17.0824 16.1182C17.3807 16.3001 17.411 16.4756 17.5243 16.6894C17.6376 16.9032 17.9535 16.7372 17.8434 15.8502C18.4592 15.5646 18.3603 14.5484 18.6937 14.1336C19.2154 13.4843 20.0753 13.655 20.3561 13.805C20.5262 13.6876 20.7249 13.6186 20.9312 13.6054C21.1374 13.5922 21.3434 13.6352 21.5271 13.73C21.9435 13.9485 22.2195 14.408 22.3662 15.9858C22.5162 17.5939 22.3662 18.4203 21.8876 18.8575C21.5164 19.193 21.0319 19.3754 20.5316 19.368L20.5539 20.1162C20.5539 20.1162 22.2003 21.6781 20.0753 21.5249C19.6057 21.4853 19.1498 21.3467 18.7376 21.1182C18.3254 20.8897 17.9663 20.5765 17.6838 20.1992V17.7551C17.6838 17.7551 17.6408 17.9497 17.3249 18.0071Z" fill="#B16668"/>
<path d="M20.8092 17.7215C20.782 17.8428 20.7087 17.9487 20.6048 18.0169C20.5008 18.0851 20.3745 18.1102 20.2524 18.0869C20.192 18.0758 20.1344 18.0528 20.083 18.0193C20.0315 17.9858 19.9872 17.9424 19.9526 17.8917C19.9181 17.8409 19.8939 17.7838 19.8816 17.7237C19.8692 17.6635 19.8689 17.6015 19.8807 17.5413L20.8092 17.7215Z" fill="#9A4A4D"/>
<path d="M19.8774 17.6927C19.8908 17.7894 19.9341 17.8794 20.0014 17.9501C20.0687 18.0208 20.1565 18.0686 20.2524 18.0868C20.3078 18.0963 20.3644 18.0963 20.4199 18.0868C20.3991 17.9631 20.3306 17.8526 20.2292 17.7789C20.1277 17.7052 20.0014 17.6743 19.8774 17.6927Z" fill="#F28F8F"/>
<path d="M21.9227 14.9838L21.3101 14.7844C21.3357 14.7041 21.392 14.6373 21.4668 14.5985C21.5415 14.5596 21.6285 14.5519 21.7089 14.577C21.7904 14.6037 21.8583 14.6611 21.8982 14.7371C21.9381 14.813 21.9469 14.9015 21.9227 14.9838Z" fill="#263238"/>
<path d="M19.6601 14.8068L19.0522 15.1259C19.0283 15.0882 19.0125 15.046 19.0059 15.0019C18.9994 14.9578 19.0021 14.9127 19.014 14.8697C19.0258 14.8268 19.0466 14.7867 19.0749 14.7523C19.1032 14.7178 19.1384 14.6896 19.1783 14.6696C19.261 14.6272 19.3568 14.6177 19.4462 14.6432C19.5357 14.6687 19.6121 14.7271 19.6601 14.8068Z" fill="#263238"/>
<path d="M19.4097 15.9554C19.4097 16.0054 19.4245 16.0542 19.4523 16.0956C19.48 16.1371 19.5195 16.1694 19.5657 16.1885C19.6118 16.2075 19.6626 16.2124 19.7115 16.2025C19.7604 16.1927 19.8054 16.1685 19.8405 16.1331C19.8757 16.0977 19.8996 16.0526 19.9092 16.0036C19.9187 15.9546 19.9135 15.9039 19.8942 15.8579C19.8748 15.8118 19.8423 15.7726 19.8006 15.7451C19.759 15.7176 19.7101 15.7031 19.6601 15.7034C19.6271 15.7034 19.5944 15.7099 19.5639 15.7226C19.5334 15.7353 19.5057 15.7539 19.4825 15.7773C19.4592 15.8007 19.4408 15.8285 19.4283 15.8591C19.4158 15.8897 19.4095 15.9224 19.4097 15.9554Z" fill="#263238"/>
<path d="M21.6832 16.1311C21.8224 16.1311 21.9353 16.0182 21.9353 15.879C21.9353 15.7398 21.8224 15.627 21.6832 15.627C21.544 15.627 21.4312 15.7398 21.4312 15.879C21.4312 16.0182 21.544 16.1311 21.6832 16.1311Z" fill="#263238"/>
<path d="M22.6945 15.1498L22.5733 15.1402C22.1706 15.1048 21.7648 15.1356 21.372 15.2311C20.9955 15.3588 20.8678 15.4896 20.6557 15.5007C20.4435 15.5119 20.2744 15.3907 19.858 15.2981C19.4293 15.2387 18.9941 15.2452 18.5673 15.3173L18.4397 15.3364C18.3966 15.3503 18.3598 15.3792 18.3361 15.4178C18.3124 15.4564 18.3033 15.5023 18.3105 15.547C18.3325 15.6363 18.3808 15.7169 18.4493 15.7783C18.4709 15.8067 18.4876 15.8385 18.4987 15.8725C18.5473 16.0931 18.6146 16.3093 18.6997 16.5186C18.7466 16.6042 18.8076 16.6813 18.88 16.7467C18.9085 16.7703 18.9383 16.7921 18.9694 16.8121L19.0204 16.8408C19.0676 16.8658 19.1173 16.8856 19.1688 16.8999H19.1943L19.2326 16.9094L19.2741 16.9174C19.3168 16.9244 19.36 16.9286 19.4033 16.9302H19.5261C20.0542 16.9078 20.26 16.659 20.3733 16.4053C20.4865 16.1516 20.4307 15.8023 20.6748 15.7927H20.6987H20.7195C20.9029 15.8246 20.9029 16.1469 21.0385 16.3734C21.0885 16.4643 21.1526 16.5467 21.2284 16.6175L21.2715 16.6558L21.2954 16.6733L21.3193 16.6893L21.3417 16.7036L21.3656 16.718L21.3831 16.7276H21.3975C21.4656 16.7615 21.5381 16.7856 21.6129 16.7994H21.632C21.718 16.8128 21.8052 16.8171 21.8921 16.8121C22.0479 16.8197 22.2019 16.7763 22.3309 16.6885C22.4598 16.6007 22.5567 16.4733 22.6068 16.3255C22.6617 16.1089 22.6974 15.8879 22.7137 15.6651C22.7194 15.6329 22.7331 15.6028 22.7536 15.5773C22.8105 15.5075 22.8439 15.4215 22.8493 15.3316C22.8456 15.289 22.8287 15.2486 22.801 15.216C22.7732 15.1834 22.736 15.1602 22.6945 15.1498ZM20.2217 16.1852C20.203 16.3159 20.1477 16.4387 20.0622 16.5393C19.9892 16.6138 19.9013 16.672 19.8042 16.7102C19.7072 16.7485 19.6032 16.7658 19.499 16.7611C19.392 16.771 19.2842 16.7552 19.1846 16.715C19.0849 16.6747 18.9964 16.6112 18.9263 16.5297L18.9071 16.5058L18.8896 16.4819L18.8752 16.4596L18.8625 16.4388C18.8582 16.4343 18.8549 16.4288 18.8529 16.4229L18.8433 16.4085C18.8397 16.3997 18.8355 16.3912 18.8306 16.383C18.8178 16.359 18.8082 16.3351 18.7987 16.3128C18.7987 16.2984 18.7875 16.2841 18.7827 16.2713C18.7779 16.2585 18.7667 16.2218 18.7604 16.2011V16.1883C18.7597 16.1841 18.7597 16.1798 18.7604 16.1756C18.7077 16.0049 18.6359 15.6667 18.7221 15.5853C18.8082 15.5039 19.0412 15.4146 19.4384 15.4258H19.4799C19.5408 15.4301 19.6015 15.4375 19.6617 15.4481L19.7335 15.4609C19.7938 15.4733 19.8535 15.4887 19.9122 15.5071L19.9665 15.5263L20.0271 15.5502H20.0383L20.0606 15.5598C20.1076 15.5795 20.15 15.6088 20.185 15.6459C20.2616 15.7656 20.252 15.9905 20.2217 16.1852ZM22.5111 16.0113C22.5056 16.1263 22.4724 16.2383 22.4144 16.3377C22.3563 16.4372 22.2751 16.5211 22.1776 16.5824C22.0878 16.6274 21.9893 16.6524 21.8889 16.6558C21.7764 16.6712 21.6618 16.658 21.5558 16.6173C21.4498 16.5765 21.3558 16.5097 21.2826 16.4229L21.2715 16.4085L21.2571 16.3894V16.3798L21.2412 16.3543C21.2347 16.344 21.2288 16.3333 21.2236 16.3224L21.214 16.308C21.214 16.308 21.214 16.308 21.214 16.2984V16.2857V16.2761C21.195 16.235 21.1795 16.1923 21.1678 16.1485C21.1135 15.957 21.0768 15.7337 21.1438 15.6252C21.2108 15.5167 21.4932 15.3859 21.7708 15.3396C21.8346 15.33 21.8953 15.3237 21.9511 15.3189H22.1106H22.1601C22.1911 15.3213 22.222 15.3256 22.2526 15.3316H22.2734H22.2877H22.31H22.3372L22.3802 15.346C22.4164 15.3586 22.4504 15.3769 22.4807 15.4002C22.5637 15.4944 22.5382 15.8374 22.5111 16.0113Z" fill="#37474F"/>
<path d="M21.5365 16.911L20.6384 17.2939L20.4453 16.1596C20.4788 15.9905 20.5123 15.8166 20.6591 15.8022L21.5365 16.911Z" fill="#9A4A4D"/>
<path d="M18.4673 15.4688L17.0825 16.1197C17.1589 16.1693 17.2304 16.2259 17.2963 16.2888L18.504 15.7511L18.4673 15.4688Z" fill="#37474F"/>
<path d="M20.5553 19.3744C19.7257 19.344 18.6121 19.0553 18.3218 18.5288C18.4813 19.0952 19.0732 19.3887 19.539 19.5179C19.8713 19.6109 20.2125 19.6687 20.5569 19.6902L20.5553 19.3744Z" fill="#9A4A4D"/>
<path d="M20.6162 24.5067C21.1459 24.1557 21.4139 24.0281 21.6516 23.9658C21.8893 23.9036 22.746 23.6053 23.0699 23.5415C23.2757 23.5016 23.3443 23.8223 23.0699 24.0297C22.8625 24.1892 22.3344 24.387 22.1015 24.4987C21.8686 24.6104 21.3963 25.1241 21.3963 25.1241L20.6162 24.5067Z" fill="#9A4A4D"/>
<path d="M13.4161 22.2364C13.9697 21.1962 14.8854 20.8596 15.7533 20.6299C16.1936 21.7546 15.8171 24.1189 15.8171 24.1189L15.1439 26.6923C15.1439 26.6923 18.1623 26.3987 18.5181 26.1977C18.8738 25.9967 19.847 25.057 20.1709 24.7762C20.6128 24.3949 20.8202 24.4572 21.0356 24.5002C21.7359 24.6358 21.8891 24.7012 22.0343 24.8002C22.0762 24.8323 22.1096 24.8743 22.1313 24.9225C22.153 24.9706 22.1624 25.0234 22.1587 25.0762C22.3454 25.1081 22.6261 25.1144 22.6485 25.4176C22.6604 25.498 22.6604 25.5797 22.6485 25.6601C22.6952 25.6709 22.7369 25.6973 22.7665 25.735C22.9149 25.9185 22.6198 26.5216 22.4475 26.6635C22.3714 26.7111 22.286 26.7416 22.197 26.7529C22.108 26.7642 22.0177 26.756 21.9322 26.7289C21.7423 26.6954 21.8396 26.5088 21.8396 26.5088H21.5732C20.9813 26.8837 20.9175 27.675 20.1501 27.817C19.8351 27.833 19.5221 27.8778 19.2153 27.951C17.5545 28.4216 14.8121 29.9308 13.3427 29.9947C11.9165 30.0521 11.9899 29.3102 12.0058 28.4551C12.0202 27.6973 12.8625 23.2718 13.4161 22.2364Z" fill="#B16668"/>
<path d="M15.2174 26.4036L15.144 26.6923C14.4899 26.8279 13.6922 27.632 13.5215 27.9686C13.6667 27.4278 14.0655 26.6508 15.2174 26.4036Z" fill="#9A4A4D"/>
<path d="M22.1588 25.0761L21.3276 24.8735L22.1461 24.9613C22.1573 24.9985 22.1616 25.0374 22.1588 25.0761Z" fill="#9A4A4D"/>
<path d="M22.6501 25.66L21.6929 25.5005L22.6501 25.5563C22.6536 25.5908 22.6536 25.6255 22.6501 25.66Z" fill="#9A4A4D"/>
<path d="M21.7629 26.3685C21.8223 26.3234 21.8673 26.2618 21.8921 26.1914C22.0042 26.1971 22.1166 26.1971 22.2287 26.1914C22.273 26.184 22.3168 26.1733 22.3595 26.1595C22.4132 26.1442 22.4624 26.1163 22.5031 26.0781C22.4696 26.1254 22.423 26.162 22.3691 26.1834C22.3224 26.2045 22.273 26.219 22.2223 26.2265L22.1617 26.3414C22.1974 26.3458 22.2311 26.3601 22.259 26.3828C22.2977 26.4165 22.3254 26.461 22.3388 26.5105C22.3162 26.4679 22.284 26.4313 22.2447 26.4036C22.2067 26.3796 22.1616 26.3694 22.117 26.3749C22.0084 26.3833 21.9075 26.4343 21.8362 26.5168H21.5698C21.6374 26.4717 21.7018 26.4221 21.7629 26.3685Z" fill="#9A4A4D"/>
<path d="M34.2597 2.61736C32.5526 1.85518 30.6216 1.76161 28.8488 2.35517C27.076 2.94874 25.5906 4.18617 24.6866 5.8226C23.7826 7.45902 23.5259 9.37518 23.9672 11.1919C24.4085 13.0086 25.5157 14.5934 27.0697 15.6327L26.9486 17.9451C26.9436 18.0327 26.9653 18.1197 27.0108 18.1946C27.0563 18.2696 27.1234 18.329 27.2033 18.365C27.2833 18.401 27.3723 18.412 27.4586 18.3964C27.5448 18.3808 27.6244 18.3394 27.6867 18.2777L29.3339 16.6476C31.1453 17.1201 33.068 16.8943 34.7206 16.015C36.3731 15.1357 37.6346 13.6672 38.2547 11.9009C38.8748 10.1347 38.8081 8.19985 38.0678 6.48051C37.3276 4.76117 35.9679 3.38303 34.2587 2.61964L34.2597 2.61736ZM28.3881 15.6963C27.1472 15.1382 26.0998 14.2246 25.3783 13.0712C24.6568 11.9177 24.2936 10.5761 24.3347 9.21617C24.3758 7.85623 24.8193 6.53904 25.6092 5.43124C26.3991 4.32344 27.4997 3.47481 28.772 2.9927C30.0443 2.5106 31.431 2.41669 32.7567 2.72286C34.0823 3.02903 35.2874 3.72151 36.2194 4.7127C37.1514 5.7039 37.7685 6.94926 37.9926 8.29123C38.2167 9.63321 38.0377 11.0115 37.4782 12.2517C36.7293 13.9137 35.351 15.2102 33.6464 15.8561C31.9417 16.5021 30.0503 16.4446 28.3881 15.6963Z" fill="#455A64"/>
<path d="M36.9487 13.2244C39.0431 10.0573 38.1735 5.79207 35.0065 3.69766C31.8395 1.60324 27.5742 2.47278 25.4798 5.63982C23.3854 8.80687 24.2549 13.0721 27.4219 15.1665C30.589 17.261 34.8542 16.3914 36.9487 13.2244Z" fill="white"/>
<path d="M30.1137 5.07075C30.3297 5.00632 30.5494 4.95477 30.7716 4.91635C31.008 4.87974 31.2472 4.86334 31.4864 4.86735C31.7422 4.87443 31.9967 4.90625 32.2463 4.96237C32.5269 5.02654 32.8002 5.11927 33.0618 5.23912C33.4166 5.39379 33.7438 5.60529 34.0305 5.8653C34.283 6.0955 34.4865 6.37421 34.6289 6.68478C34.7594 6.97801 34.8243 7.29624 34.819 7.61718C34.8119 7.96152 34.734 8.30071 34.59 8.61358C34.4639 8.91095 34.283 9.18195 34.0568 9.41247C33.8659 9.60043 33.6481 9.75893 33.4105 9.88275C33.1939 9.99065 32.9652 10.0722 32.7293 10.1256L32.0724 10.2777C31.8851 10.3182 31.701 10.3721 31.5214 10.439C31.3702 10.4916 31.2406 10.5927 31.1527 10.7265L30.5704 11.616L29.4599 11.1155L29.8321 9.99667C29.885 9.79777 30.0011 9.62144 30.163 9.49423C30.3254 9.376 30.5058 9.28464 30.6972 9.22366C30.906 9.15812 31.1191 9.10717 31.335 9.0712C31.5617 9.03036 31.7851 8.97299 32.0034 8.89955C32.2178 8.82818 32.4202 8.72471 32.6035 8.59267C32.798 8.44773 32.9502 8.25335 33.0442 8.02973C33.1109 7.88976 33.1456 7.73663 33.1455 7.58155C33.1455 7.42647 33.1108 7.27336 33.0439 7.13343C32.9745 6.99093 32.8779 6.86336 32.7596 6.75787C32.6284 6.63913 32.479 6.54213 32.3172 6.47057C32.1054 6.36946 31.8795 6.30103 31.6472 6.2676C31.4733 6.2449 31.2976 6.24033 31.1228 6.25396C30.9741 6.26668 30.8366 6.27895 30.7365 6.29982C30.6478 6.31949 30.5554 6.31228 30.4709 6.27911C30.3994 6.25163 30.3375 6.20387 30.2927 6.14171C30.248 6.07955 30.2223 6.00569 30.219 5.92917L30.1137 5.07075ZM28.1954 12.6405C28.2544 12.5078 28.3392 12.3881 28.4448 12.2883C28.5448 12.1909 28.664 12.1154 28.7948 12.0667C28.9252 12.0181 29.0635 11.9946 29.2026 11.9975C29.3514 12.0012 29.4979 12.0354 29.6329 12.098C29.7672 12.1564 29.8876 12.2426 29.9864 12.3507C30.0808 12.4537 30.1556 12.5731 30.207 12.703C30.2693 12.8683 30.29 13.0464 30.2673 13.2215C30.2446 13.3967 30.1792 13.5636 30.0769 13.7076C29.9746 13.8515 29.8384 13.9681 29.6804 14.0471C29.5224 14.1261 29.3475 14.165 29.1709 14.1605C29.0248 14.1561 28.8811 14.1222 28.7484 14.0608C28.6125 14.0008 28.4898 13.9147 28.3871 13.8073C28.2909 13.7071 28.2163 13.5884 28.1677 13.4583C28.1175 13.3296 28.0944 13.1919 28.0998 13.0538C28.1005 12.9102 28.129 12.7681 28.1839 12.6354L28.1954 12.6405Z" fill="#516EB4"/>
</g>
<defs>
<clipPath id="clip0_250_5544">
<rect width="70" height="70" fill="white"/>
</clipPath>
</defs>
</svg>
