<svg fill="none" height="26" viewBox="0 0 26 26" width="26" xmlns="http://www.w3.org/2000/svg" xmlns:xlink="http://www.w3.org/1999/xlink"><clipPath id="a"><path d="m0 0h26v26h-26z"/></clipPath><g clip-path="url(#a)"><path d="m20.5833 1.0835h-15.16663c-1.43606.00172-2.81282.57295-3.82827 1.5884-1.015445 1.01545-1.58667982 2.3922-1.5884 3.82826v8.66664c.00172018 1.4361.572955 2.8128 1.5884 3.8283 1.01545 1.0154 2.39221 1.5867 3.82827 1.5884h6.50003v2.1667h-4.33337c-.28731 0-.56286.1141-.76603.3173-.20316.2031-.3173.4787-.3173.766s.11414.5629.3173.766c.20317.2032.47872.3173.76603.3173h10.83337c.2873 0 .5628-.1141.766-.3173.2032-.2031.3173-.4787.3173-.766s-.1141-.5629-.3173-.766c-.2032-.2032-.4787-.3173-.766-.3173h-4.3334v-2.1667h6.5c1.4361-.0017 2.8128-.573 3.8283-1.5884 1.0154-1.0155 1.5867-2.3922 1.5884-3.8283v-8.66664c-.0017-1.43606-.573-2.81281-1.5884-3.82826-1.0155-1.01545-2.3922-1.58668-3.8283-1.5884zm3.25 14.0833c0 .862-.3424 1.6886-.9519 2.2981s-1.4361.9519-2.2981.9519h-15.16663c-.86196 0-1.68861-.3424-2.2981-.9519s-.9519-1.4361-.9519-2.2981v-8.66664c0-.86195.34241-1.6886.9519-2.29809.60949-.6095 1.43614-.95191 2.2981-.95191h15.16663c.862 0 1.6886.34241 2.2981.95191.6095.60949.9519 1.43614.9519 2.29809zm-2.1666-4.3333c0 .2873-.1142.5629-.3173.766-.2032.2032-.4787.3173-.7661.3173h-3.212l-1.8417 2.7679c-.0993.1488-.2338.2707-.3917.3548-.1578.0842-.334.1279-.5129.1273-.0227 0-.0455 0-.0672 0-.1895-.0116-.3726-.0729-.531-.1777s-.2865-.2493-.3714-.4192l-2.4147-4.83274-1.131 1.69754c-.099.1484-.23304.27-.39027.3541s-.33279.1281-.5111.128h-3.79166c-.28732 0-.56287-.1141-.76604-.3173-.20316-.2031-.3173-.4787-.3173-.766s.11414-.5629.3173-.766c.20317-.2032.47872-.31734.76604-.31734h3.21208l1.84165-2.76791c.1043-.15973.2494-.28866.4202-.37342.1709-.08477.3613-.12229.5516-.10867.1895.01168.3726.07297.531.17774.1584.10476.2865.24932.3714.41918l2.4147 4.83062 1.131-1.6976c.0992-.1479.2334-.26913.3906-.35284s.3327-.12736.5108-.1271h3.7916c.2874 0 .5629.11414.7661.31734.2031.2031.3173.4787.3173.766z" fill="#000"/></g></svg>