<svg fill="none" height="24" viewBox="0 0 24 24" width="24" xmlns="http://www.w3.org/2000/svg" xmlns:xlink="http://www.w3.org/1999/xlink"><clipPath id="a"><path d="m0 0h24v24h-24z"/></clipPath><g clip-path="url(#a)"><path d="m8 0c-1.3256.00158786-2.59644.528882-3.53378 1.46622-.93734.93734-1.46463 2.20818-1.46622 3.53378v18c.00014.1819.04989.3603.14388.516.094.1557.22868.2829.38956.3677.16087.0849.34185.1243.52344.1139.18159-.0103.35692-.07.50712-.1726l2.106-1.439 2.106 1.439c.16639.1139.36334.1749.565.1749s.39861-.061.565-.1749l2.1-1.439 2.1 1.439c.1665.1142.3636.1753.5655.1753s.399-.0611.5655-.1753l2.1-1.438 2.1 1.437c.1501.1023.3253.1617.5066.172.1814.0102.3621-.0291.5228-.1139.1606-.0847.2952-.2115.3892-.367.094-.1554.144-.3335.1444-.5151v-18c-.0016-1.3256-.5289-2.59644-1.4662-3.53378-.9374-.937338-2.2082-1.46463214-3.5338-1.46622zm6 14h-6c-.26522 0-.51957-.1054-.70711-.2929-.18753-.1875-.29289-.4419-.29289-.7071s.10536-.5196.29289-.7071c.18754-.1875.44189-.2929.70711-.2929h6c.2652 0 .5196.1054.7071.2929s.2929.4419.2929.7071-.1054.5196-.2929.7071-.4419.2929-.7071.2929zm3-5c0 .26522-.1054.51957-.2929.70711-.1875.18753-.4419.29289-.7071.29289h-8c-.26522 0-.51957-.10536-.70711-.29289-.18753-.18754-.29289-.44189-.29289-.70711s.10536-.51957.29289-.70711c.18754-.18753.44189-.29289.70711-.29289h8c.2652 0 .5196.10536.7071.29289.1875.18754.2929.44189.2929.70711z" fill="#000"/></g></svg>