<svg fill="none" height="26" viewBox="0 0 26 26" width="26" xmlns="http://www.w3.org/2000/svg" xmlns:xlink="http://www.w3.org/1999/xlink"><clipPath id="a"><path d="m0 0h26v26h-26z"/></clipPath><g clip-path="url(#a)" fill="#000"><path d="m17.3333 0h-8.66663c-1.43606.00172018-2.81282.572955-3.82827 1.5884-1.01544 1.01545-1.58668 2.39221-1.5884 3.82827v19.50003c.00015.197.05404.3903.15587.559s.24774.3064.42202.3983c.17428.092.37034.1346.56706.1234.19673-.0112.38667-.0758.54938-.187l2.2815-1.5589 2.2815 1.5589c.18026.1235.39362.1895.61207.1895.2185 0 .4318-.066.6121-.1895l2.275-1.5589 2.275 1.5589c.1804.1237.3939.1899.6126.1899s.4323-.0662.6127-.1899l2.275-1.5578 2.275 1.5567c.1626.1108.3523.1752.5488.1863.1964.0111.3922-.0315.5663-.1233.1741-.0917.3198-.2292.4217-.3976.1018-.1683.1559-.3613.1564-.558v-19.50003c-.0017-1.43606-.573-2.81282-1.5884-3.82827-1.0155-1.015445-2.3922-1.58667982-3.8283-1.5884zm3.25 22.8583-1.1916-.8146c-.1805-.1239-.3943-.1903-.6132-.1903s-.4327.0664-.6132.1903l-2.275 1.5589-2.275-1.5589c-.1803-.1237-.3939-.1899-.6126-.1899s-.4323.0662-.6126.1899l-2.275 1.5589-2.27502-1.5589c-.18014-.1232-.3933-.1891-.61154-.1891s-.4314.0659-.61154.1891l-1.20033.8146v-17.44163c0-.86196.34241-1.68861.9519-2.2981s1.43614-.9519 2.2981-.9519h8.66663c.862 0 1.6886.34241 2.2981.9519s.9519 1.43614.9519 2.2981z"/><path d="m17.3335 8.66675h-8.66667c-.59831 0-1.08333.48502-1.08333 1.08333 0 .59832.48502 1.08332 1.08333 1.08332h8.66667c.5983 0 1.0833-.485 1.0833-1.08332 0-.59831-.485-1.08333-1.0833-1.08333z"/><path d="m15.1668 13h-6.49997c-.59831 0-1.08333.485-1.08333 1.0833s.48502 1.0834 1.08333 1.0834h6.49997c.5983 0 1.0834-.4851 1.0834-1.0834s-.4851-1.0833-1.0834-1.0833z"/></g></svg>