<svg height="512" viewBox="0 0 24 24" width="512" xmlns="http://www.w3.org/2000/svg"><path d="m12 2a10.032 10.032 0 0 1 7.122 3h-3.122a1 1 0 0 0 -1 1 1 1 0 0 0 1 1h4.143a1.858 1.858 0 0 0 1.857-1.857v-4.143a1 1 0 0 0 -1-1 1 1 0 0 0 -1 1v2.078a11.981 11.981 0 0 0 -19.95 7.822 1.007 1.007 0 0 0 1 1.1.982.982 0 0 0 .989-.878 10.014 10.014 0 0 1 9.961-9.122z"/><path d="m22.951 12a.982.982 0 0 0 -.989.878 9.986 9.986 0 0 1 -17.084 6.122h3.122a1 1 0 0 0 1-1 1 1 0 0 0 -1-1h-4.143a1.856 1.856 0 0 0 -1.857 1.857v4.143a1 1 0 0 0 1 1 1 1 0 0 0 1-1v-2.078a11.981 11.981 0 0 0 19.95-7.822 1.007 1.007 0 0 0 -1-1.1z"/></svg>