<svg fill="none" height="26" viewBox="0 0 26 26" width="26" xmlns="http://www.w3.org/2000/svg"><path d="m7.70891 5.80654 1.33414-1.33414m1.21915 3.44623 1.33-1.33m.8552 3.30821 1.33-1.33m.7225 3.46146 1.33-1.33m.5878 3.33 1.0821-1m1 3 1.5-1.5m.5 3.5 1.5-1.5m-.6833 7.7685 3.0298-3.0232c.7819-.7801.7834-2.0465.0032-2.8284l-16.39085-16.42744c-.78018-.78192-2.04651-.78333-2.82843-.00316l-3.02986 3.02311c-.78192.78018-.78334 2.04651-.00316 2.82843l16.3908 16.42746c.7802.7819 2.0465.7833 2.8285.0032z" stroke="#000" stroke-linecap="round" stroke-width="2"/></svg>