<svg fill="none" height="24" viewBox="0 0 24 24" width="24" xmlns="http://www.w3.org/2000/svg"><path d="m1.60731 18c.82716 1.4356 2.66151 1.9288 4.09711 1.1017.00098-.0006.00192-.0012.0029-.0017l.44499-.257c.84.7186 1.80553 1.276 2.84798 1.644v.513c0 1.6568 1.34311 3 3.00001 3 1.6568 0 3-1.3432 3-3v-.513c1.0426-.3686 2.0082-.9266 2.848-1.646l.447.258c1.4359.8284 3.2716.3359 4.1-1.1.8284-1.436.3359-3.2716-1.1-4.1l-.444-.256c.1999-1.0876.1999-2.2025 0-3.29l.444-.256c1.4359-.82845 1.9284-2.66408 1.1-4.10005-.8284-1.43592-2.6641-1.92843-4.1-1.10001l-.445.25701c-.8409-.71779-1.807-1.27411-2.85-1.64095v-.513c0-1.65684-1.3432-3-3-3-1.6569 0-3.00001 1.34316-3.00001 3v.513c-1.04259.36858-2.00817.92658-2.84798 1.64602l-.447-.25899c-1.43597-.82847-3.27159-.33595-4.10002 1.09997-.828419 1.43592-.33595 3.27159 1.10002 4.1l.444.256c-.19988 1.0875-.19988 2.2024 0 3.29l-.444.256c-1.43199.8306-1.922861 2.6627-1.098 4.098zm10.39299-9.99998c2.2091 0 4 1.79086 4 3.99998 0 2.2091-1.7909 4-4 4-2.20913 0-3.99999-1.7909-3.99999-4 0-2.20912 1.79086-3.99998 3.99999-3.99998z" fill="#000"/></svg>