<svg fill="none" height="26" viewBox="0 0 26 26" width="26" xmlns="http://www.w3.org/2000/svg" xmlns:xlink="http://www.w3.org/1999/xlink"><clipPath id="a"><path d="m0 0h26v26h-26z"/></clipPath><g clip-path="url(#a)" fill="#000"><path d="m12.9998 8.66675c-.857 0-1.6948.25414-2.4074.7303-.71264.47615-1.26806 1.15295-1.59604 1.94475s-.41379 1.6631-.24659 2.5037.57991 1.6127 1.18594 2.2187c.60599.606 1.37819 1.0187 2.21869 1.186.8406.1672 1.7119.0813 2.5037-.2466.7918-.328 1.4686-.8834 1.9448-1.596.4761-.7127.7303-1.5505.7303-2.4075 0-1.1493-.4566-2.2515-1.2692-3.06415-.8127-.81266-1.9149-1.2692-3.0642-1.2692zm0 6.49995c-.4285 0-.8474-.127-1.2037-.3651s-.634-.5765-.798-.9724-.2069-.8315-.1233-1.2518.29-.8064.593-1.1094.6891-.5094 1.1093-.593c.4203-.0836.856-.0406 1.2519.1233.3959.164.7343.4417.9724.798.238.3564.3651.7753.3651 1.2038 0 .5746-.2283 1.1257-.6346 1.532-.4063.4064-.9574.6346-1.5321.6346z"/><path d="m23.0686 15.0583-.481-.2773c.2166-1.1782.2166-2.386 0-3.5642l.481-.2773c.3699-.2134.6941-.4976.9542-.8363.2601-.33867.4509-.72528.5615-1.13773.1107-.41245.139-.84265.0834-1.26605s-.194-.8317-.4074-1.20159-.4976-.69412-.8363-.95419-.7253-.45088-1.1378-.56154c-.4124-.11066-.8426-.13899-1.266-.08339-.4234.05561-.8317.19406-1.2016.40746l-.4821.27841c-.9105-.77792-1.9568-1.38098-3.0864-1.77883v-.55575c0-.86195-.3424-1.6886-.9519-2.298097-.6095-.609493-1.4361-.951903-2.2981-.951903-.8619 0-1.6886.34241-2.2981.951903-.6095.609497-.95189 1.436147-.95189 2.298097v.55575c-1.1295.39928-2.1755 1.00382-3.08534 1.78317l-.48425-.28059c-.74702-.43097-1.63466-.54754-2.46763-.32406-.83298.22348-1.54306.7687-1.97403 1.51573-.43098.74703-.54755 1.63466-.32407 2.46764.22348.83297.76871 1.54306 1.51573 1.97406l.481.2773c-.21654 1.1782-.21654 2.386 0 3.5642l-.481.2773c-.74702.431-1.29225 1.1411-1.51573 1.974-.22348.833-.10691 1.7206.32407 2.4677.43097.747 1.14105 1.2922 1.97403 1.5157.83297.2235 1.72061.1069 2.46763-.3241l.48209-.2784c.91083.7781 1.95756 1.3811 3.0875 1.7789v.5557c0 .862.34239 1.6886.95189 2.2981s1.4362.9519 2.2981.9519c.862 0 1.6886-.3424 2.2981-.9519s.9519-1.4361.9519-2.2981v-.5557c1.1295-.3993 2.1755-1.0039 3.0853-1.7832l.4843.2795c.747.431 1.6347.5475 2.4676.3241.833-.2235 1.5431-.7688 1.9741-1.5158.4309-.747.5475-1.6346.324-2.4676s-.7687-1.5431-1.5157-1.974zm-2.7603-4.0906c.3668 1.3293.3668 2.7331 0 4.0625-.0641.2313-.0495.4774.0415.6996s.2532.4078.4611.5278l1.1744.6782c.2489.1436.4306.3803.5051.6579s.0356.5735-.1081.8224c-.1436.249-.3803.4307-.6579.5051-.2777.0745-.5735.0356-.8225-.108l-1.1765-.6804c-.2081-.1205-.4504-.1684-.6887-.136s-.4591.1431-.6275.3148c-.9643.9844-2.1791 1.6867-3.5133 2.0312-.2328.0599-.4392.1956-.5865.3856-.1473.1901-.2272.4237-.227.6642v1.3574c0 .2873-.1142.5629-.3173.766-.2032.2032-.4788.3173-.7661.3173s-.5628-.1141-.766-.3173c-.2032-.2031-.3173-.4787-.3173-.766v-1.3563c.0001-.2405-.0798-.4741-.2271-.6642s-.3536-.3257-.5865-.3856c-1.33428-.3459-2.54872-1.0498-3.51216-2.0356-.16843-.1716-.3892-.2824-.62751-.3147-.23832-.0324-.48062.0154-.68874.136l-1.17433.6792c-.12325.0723-.25958.1195-.40113.1388-.14156.0194-.28554.0105-.42366-.026-.13813-.0365-.26767-.1-.38116-.1868s-.20869-.1951-.28013-.3189c-.07144-.1237-.11769-.2603-.13611-.402-.01841-.1417-.00862-.2856.02881-.4235s.10177-.267.1893-.3799c.08754-.1129.19654-.2074.32074-.278l1.17434-.6782c.20794-.1199.37015-.3056.46113-.5278.09098-.2221.10559-.4682.04153-.6996-.36686-1.3293-.36686-2.7332 0-4.0625.06291-.2309.0476-.4761-.04353-.6973-.09113-.2213-.25296-.40616-.46022-.52577l-1.17433-.67816c-.24896-.14366-.43066-.38034-.50512-.65796s-.03558-.57346.10808-.82242.38033-.43066.65796-.50511c.27762-.07446.57345-.03559.82241.10807l1.1765.68033c.20755.12081.44935.16923.68741.13766s.45888-.14135.62776-.31207c.96426-.98438 2.17905-1.68673 3.51326-2.03125.2336-.06006.4405-.19635.5878-.38729.1474-.19094.2269-.4256.2258-.6668v-1.35633c0-.28732.1141-.56287.3173-.76603.2031-.20317.4787-.3173.766-.3173s.5629.11413.766.3173c.2032.20316.3173.47871.3173.76603v1.35633c-.0001.24046.0798.47412.2271.66417.1473.19006.3536.32571.5865.38558 1.3347.34575 2.5495 1.04963 3.5133 2.03559.1684.17167.3892.28241.6275.31478.2383.03236.4806-.0155.6887-.13603l1.1744-.67925c.1232-.07226.2595-.11942.4011-.13878.1415-.01935.2855-.01051.4237.026.1381.03652.2676.1.3811.18678.1135.08679.2087.19516.2801.31889.0715.12373.1177.26037.1361.40204.0185.14168.0087.2856-.0288.42348-.0374.13788-.1017.26699-.1893.37991-.0875.11291-.1965.2074-.3207.27801l-1.1743.67817c-.2069.11993-.3683.30493-.459.52613-.0907.2213-.1057.4663-.0426.697z"/></g></svg>