<svg fill="none" height="300" viewBox="0 0 300 300" width="300" xmlns="http://www.w3.org/2000/svg"><path d="m150 286.032c74.028 0 134.04-32.636 134.04-72.894s-60.012-72.894-134.04-72.894c-74.0283 0-134.04 32.636-134.04 72.894s60.0117 72.894 134.04 72.894z" fill="#f5f5f5"/><path d="m150 209.322c11.154 0 20.196-5.222 20.196-11.664s-9.042-11.664-20.196-11.664-20.196 5.222-20.196 11.664 9.042 11.664 20.196 11.664z" fill="#e0e0e0"/><path d="m225.318 240.492c17.632 0 31.926-8.252 31.926-18.432s-14.294-18.432-31.926-18.432-31.926 8.252-31.926 18.432 14.294 18.432 31.926 18.432z" fill="#e0e0e0"/><path d="m68.6521 242.484c17.6322 0 31.9259-8.252 31.9259-18.432s-14.2937-18.432-31.9259-18.432c-17.6323 0-31.926 8.252-31.926 18.432s14.2937 18.432 31.926 18.432z" fill="#e0e0e0"/><path d="m273 208.962-6.03-2.466c-.758-5.212-1.194-10.466-1.308-15.732 0-9.852 6.138-21.9 13.926-19.884s-2.196 13.038-3.816 21.552-2.772 16.53-2.772 16.53z" fill="#516eb4"/><path d="m273 208.962-6.03-2.466c-.758-5.212-1.194-10.466-1.308-15.732 0-9.852 6.138-21.9 13.926-19.884s-2.196 13.038-3.816 21.552-2.772 16.53-2.772 16.53z" fill="#000" opacity=".3"/><path d="m270.078 208.2c.066-.009.126-.044.166-.096.041-.053.059-.12.05-.186-2.874-21.6 6.84-33.6 6.936-33.702.043-.052.064-.118.057-.185-.006-.067-.038-.129-.09-.172s-.118-.064-.185-.057c-.067.006-.129.038-.172.09-.096.12-9.954 12.264-7.05 34.092.004.033.015.065.032.094s.04.054.067.075c.026.02.057.034.09.042.032.009.066.01.099.005z" fill="#fff"/><path d="m276.096 210.402-3.15-1.428c-.943-4.853-.8-9.855.42-14.646 2.022-7.764 8.754-12.552 12.144-11.76 4.146.966 4.548 4.8 3.336 7.47-1.446 3.162-11.418 11.724-12.75 20.364z" fill="#516eb4"/><path d="m276.096 210.402-3.15-1.428c-.943-4.853-.8-9.855.42-14.646 2.022-7.764 8.754-12.552 12.144-11.76 4.146.966 4.548 4.8 3.336 7.47-1.446 3.162-11.418 11.724-12.75 20.364z" fill="#000" opacity=".1"/><path d="m274.458 209.904c.068-.008.129-.041.172-.094s.063-.12.056-.188c-1.416-13.704 10.542-24.24 10.668-24.342.046-.049.071-.113.071-.18s-.025-.131-.071-.18c-.023-.024-.051-.043-.082-.056s-.064-.02-.098-.02c-.033 0-.066.007-.097.02s-.059.032-.083.056c-.126.108-12.276 10.8-10.842 24.78.015.067.055.126.112.164s.127.052.194.04z" fill="#fff"/><path d="m33.6002 203.442 4.14-2.364s1.98-10.926.498-20.322c-2.088-13.2-11.082-17.766-14.346-16.452s-4.032 5.226 1.866 12.858c3.48 4.5 7.956 14.022 7.842 26.28z" fill="#516eb4"/><path d="m33.6002 203.442 4.14-2.364s1.98-10.926.498-20.322c-2.088-13.2-11.082-17.766-14.346-16.452s-4.032 5.226 1.866 12.858c3.48 4.5 7.956 14.022 7.842 26.28z" fill="#000" opacity=".15"/><path d="m35.1003 198.198h-.042c-.038-.005-.0746-.018-.1076-.037-.0331-.02-.0619-.045-.0848-.076s-.0395-.066-.0487-.103-.0109-.076-.0049-.114c1.704-12.366-3.264-25.914-8.856-31.374-.0347-.025-.0636-.058-.0847-.095-.0211-.038-.0339-.079-.0375-.122-.0037-.043.0019-.086.0164-.126.0145-.041.0374-.078.0674-.108.0299-.031.0661-.055.1062-.071.04-.015.0829-.022.1258-.02.0429.003.0848.014.1228.034s.0713.048.0976.082c5.688 5.532 10.758 19.332 9.03 31.872-.0102.072-.0463.138-.1015.186-.0552.047-.1257.073-.1985.072z" fill="#fff"/><path d="m22.1281 210.072c-.654.372-1.998-.444-2.514-.792-.8851-.61-1.5997-1.436-2.076-2.4-.5319-1.088-.7123-2.315-.516-3.51.1039-.632.2523-1.255.444-1.866l.522-1.8c.2057-.577.2954-1.188.264-1.8-.156-1.242-1.26-2.106-2.256-2.856-1.11-.828-2.256-1.92-2.25-3.414.0774-1.157.54-2.256 1.314-3.12.708-.906 1.554-1.704 2.202-2.658.5079-.669.7687-1.494.738-2.334-.0687-.511-.2402-1.003-.504-1.446-.607-.923-1.1368-1.894-1.584-2.904-.366-1.044-.312-2.34.504-3.09.3631-.271.7768-.467 1.2168-.577.44-.109.8973-.129 1.3452-.059.852.101 1.6714.387 2.4.84 2.37 1.314 3.72 4.122 6.234 5.136.9954.31 2.0094.557 3.036.738.5153.096 1.0048.298 1.4368.595s.797.681 1.0712 1.127c.924 1.842-.786 4.11-.138 6.066.6 1.728 2.256 2.4 3.198 3.954.3862.687.5418 1.48.444 2.262-.0837 1.323-.407 2.62-.954 3.828-.6155 1.201-1.3194 2.354-2.106 3.45-.036.042-11.37 6.558-11.472 6.63z" fill="#516eb4"/><path d="m28.8423 206.496c-.0394-.001-.0781-.011-.1139-.027-.0358-.017-.068-.04-.0948-.069-.0267-.029-.0475-.063-.0611-.1s-.0198-.077-.0182-.116c.486-11.7-5.028-24.6-9.036-28.38-.0546-.055-.0852-.129-.0852-.207 0-.077.0306-.152.0852-.207.0561-.055.1315-.086.21-.086.0786 0 .154.031.21.086 4.062 3.81 9.696 16.95 9.198 28.824-.0031.076-.0354.148-.0902.2-.0548.053-.1278.082-.2038.082z" fill="#fff"/><path d="m27.09 192.666h-.09c-2.7723-.762-5.6188-1.223-8.49-1.374-.0796 0-.1559-.032-.2122-.088-.0562-.056-.0878-.132-.0878-.212s.0316-.156.0878-.212c.0563-.056.1326-.088.2122-.088 2.9221.152 5.8191.621 8.64 1.398.037.011.0715.029.1015.054.03.024.055.054.0734.088.0183.034.0298.071.0338.11.004.038.0003.077-.0107.114-.0175.057-.0514.107-.0973.144s-.1018.06-.1607.066z" fill="#fff"/><path d="m241.098 218.256-5.592-.642-1.446-11.268 6.834 2.028z" fill="#b16668"/><path d="m228.846 227.448c-.081.222-.114.459-.098.694.017.236.083.465.194.674.6.696 2.148 1.512 4.26 1.662 2.022.144 3.822-.126 5.004-.876.514-.266.954-.655 1.28-1.132.327-.478.53-1.029.592-1.604.114-1.146 0-2.256.534-3.138s1.308-1.74 1.482-2.184c.207-.766.207-1.574 0-2.34z" fill="#263238"/><path d="m234.372 217.416c-.018.435-.097.865-.234 1.278-.309.888-.724 1.737-1.236 2.526-.251.419-.532.82-.84 1.2-.6.726-1.368 1.326-2.016 2.022-.687.656-1.128 1.529-1.248 2.472-.084 1.584 2.436 2.124 3.762 2.358 1.43.25 2.898.176 4.296-.216.734-.191 1.397-.59 1.91-1.149s.854-1.253.982-2.001c.078-.444.048-.894.102-1.332.175-1.012.597-1.964 1.23-2.772.367-.467.683-.972.942-1.506.414-.978.084-2.082-.18-3.054-.228-.846-.504-1.8-.804-1.734 0 .438 0 .498-.294.792s-.408.942-.828 1.272c.134-.366.232-.744.294-1.128.026-.154-.006-.312-.09-.444-.139-.125-.306-.215-.486-.264-.624-.209-1.267-.356-1.92-.438-.891-.102-1.791-.102-2.682 0-.186.033-.354.131-.474.276-.108.159-.166.347-.168.54-.03.228-.006.882-.018 1.302z" fill="#455a64"/><path d="m232.686 221.556c.6-.444 2.718-.45 3.438-.372.734.063 1.44.31 2.052.72.089.064.199.094.309.085.109-.009.212-.056.291-.133.045-.045.08-.099.103-.159.022-.06.032-.124.027-.188-.004-.064-.023-.126-.053-.182-.031-.056-.074-.105-.125-.143-.673-.496-1.471-.794-2.304-.858-1.04-.076-2.085-.016-3.108.18 0 0-.804.522-.63 1.05z" fill="#f5f5f5"/><path d="m231.33 223.2c.744-.438 3-.378 3.726-.3.72.074 1.407.337 1.992.762.09.063.199.092.309.083.109-.008.212-.055.291-.131.046-.045.081-.099.103-.159.023-.06.032-.124.027-.188-.004-.064-.022-.126-.053-.182s-.074-.105-.125-.143c-.984-.51-2.058-.824-3.162-.924-1.8-.126-2.238.234-2.238.234-.206.083-.392.211-.542.376-.151.164-.263.359-.328.572z" fill="#f5f5f5"/><path d="m237.132 218.628c-1.015-.116-2.043-.053-3.036.186-.312.174-.522.672-.318.798.907-.245 1.847-.338 2.784-.276.665.067 1.314.245 1.92.528.156.072.336.162.492.252.05.032.107.053.166.061.058.008.118.003.175-.014s.11-.046.154-.085c.045-.039.081-.088.105-.142.043-.088.051-.19.023-.284-.027-.094-.089-.175-.173-.226-.698-.427-1.48-.699-2.292-.798z" fill="#f5f5f5"/><path d="m220.248 213.132-5.316-1.482v-10.746l6.594.288z" fill="#b16668"/><path d="m203.7 218.886c-.15.463-.122.966.078 1.41.198.408 2.352 1.626 5.256 1.428 2.151-.154 4.222-.879 6-2.1 1.104-.732 2.256-.87 3.696-.948s3.324-.804 3.642-1.476c.162-.602.145-1.238-.048-1.83z" fill="#263238"/><path d="m215.4 209.826-.228-.048c-.126-.03-.258-.03-.384 0-.14.046-.264.129-.36.24-.283.365-.531.757-.738 1.17-.6.99-1.89 1.8-3.282 2.562-.948.51-1.878.906-2.856 1.344s-2.328.726-3.108 1.254c-1.14.768-1.29 2.694 0 3.456 1.116.66 4.068 1.374 7.158.498 1.68-.48 3.552-2.274 5.76-2.448 1.404-.114 4.062-.504 4.968-1.572.336-.474-.114-1.974-.48-3.27-.402-1.416-.78-3.6-1.248-3.498.004.101-.016.202-.059.294s-.107.172-.187.234c-.174.18-.408.294-.6.456-.328.322-.592.703-.78 1.122-.076.187-.217.34-.396.432-.24.084-.414-.06-.6-.156-.264-.121-.562-.142-.84-.06.029-.281.079-.56.15-.834.027-.086.027-.178 0-.264-.034-.087-.098-.159-.18-.204-.514-.353-1.097-.594-1.71-.708z" fill="#455a64"/><path d="m211.74 212.964c.1-.194.248-.36.429-.481.182-.122.391-.196.609-.215.636-.12 1.764.354 2.466.93.067.053.119.123.153.201.034.079.048.165.041.25-.007.086-.035.168-.081.24-.047.072-.11.131-.185.173-.095.053-.203.076-.311.064s-.209-.057-.289-.13c-.775-.698-1.79-1.068-2.832-1.032z" fill="#f5f5f5"/><path d="m209.754 214.074c.139-.197.323-.357.537-.468.215-.11.452-.168.693-.168.986.043 1.934.398 2.706 1.014.063.053.113.12.144.196.032.075.045.158.038.24s-.034.161-.078.23c-.045.069-.105.127-.176.168-.094.056-.203.08-.311.068-.109-.012-.21-.059-.289-.134-.425-.422-.938-.744-1.503-.942-.564-.198-1.166-.268-1.761-.204z" fill="#f5f5f5"/><path d="m207.6 215.07c.158-.181.354-.326.574-.424.219-.099.458-.148.698-.146.95.058 1.857.415 2.592 1.02.063.053.113.121.144.197.032.076.045.159.038.242-.007.082-.034.161-.078.231s-.105.128-.176.17c-.093.056-.203.08-.311.068s-.21-.059-.289-.134c-.401-.437-.898-.775-1.452-.987-.554-.213-1.149-.294-1.74-.237z" fill="#f5f5f5"/><path d="m239.874 143.022c.366 11.082.39 35.082.39 35.082.114 1.38.234 3.828.336 8.796.15 7.2.498 24.978.498 24.978s-3.438 1.614-6.6.3c0 0-4.392-24.996-5.292-32.124-.786-6.222-2.292-20.814-2.292-20.814l-2.076 18.522s0 4.8-.282 9.036c-.234 3.3-3.438 20.298-3.438 20.298-2.093.556-4.303.483-6.354-.21 0 0-.288-26.094-.348-29.124-.066-3.444.822-40.68.822-40.68z" fill="#455a64"/><path d="m226.926 159.24-.792-6.282c-2.558-.654-4.977-1.764-7.14-3.276 0 0 1.524 2.04 6 4.2l1.008 5.7-1.14 18.18z" fill="#37474f"/><path d="m214.956 111.924c-1.62 2.124-9.954 13.56-9.954 13.56l-7.698-5.964c-1.8-1.41-2.334-3.258-3.462-4.536s-2.364-1.584-3.63-2.652-1.752-1.878-2.184-.966.966 2.502 1.2 2.886 1.68 1.302-.228 1.2-5.58-2.28-6.468-2.682-.912.696-.492 1.416.21 2.724.702 4.014 1.356 2.082 3.114 2.952c1.638.816 5.622 1.326 6.918 2.142 2.844 2.916 8.208 8.358 9.564 9.366 1.866 1.386 3.672 2.664 6.528-.084s11.13-13.53 11.13-13.53l1.71-10.254c-2.808-.102-4.794.57-6.75 3.132z" fill="#b16668"/><path d="m205.002 125.484c1.056.78 2.154 2.532 2.256 3.318-.012-.745-.179-1.479-.488-2.156-.31-.678-.757-1.284-1.312-1.78z" fill="#9a4a4d"/><path d="m222.366 108.54s-3.96-.048-5.7 1.17-3.03 3-5.856 7.11c-2.478 3.6-3.678 5.328-3.678 5.328 1.622 2.399 3.984 4.203 6.726 5.136l7.392-9.156z" fill="#37474f"/><path d="m230.028 108.348c2.244.216 5.4.24 7.62.468 1.542.636 4.518 3.228 4.296 5.076-.828 6.906-2.502 18.228-2.502 18.228l.552 12c-3.09 3.084-17.55 4.29-25.002-.642 0 0 .24-21.552.756-25.2.918-6.534 1.722-8.958 5.094-9.534s9.186-.396 9.186-.396z" fill="#516eb4"/><path d="m242.736 112.098c1.62 2.124 9.96 13.56 9.96 13.56l7.704-5.964c1.8-1.416 2.334-3.264 3.462-4.536s2.364-1.584 3.63-2.652 1.752-1.878 2.184-.972-.966 2.508-1.2 2.892-1.68 1.302.228 1.2 5.574-2.286 6.468-2.688.906.696.492 1.416-.216 2.73-.702 4.02-1.356 2.076-3.114 2.952c-1.638.816-5.622 1.326-6.918 2.142-2.844 2.91-8.208 8.358-9.564 9.36-1.866 1.386-3.672 2.664-6.528-.078s-9.384-11.28-9.384-11.28l-3.456-12.504c2.802-.102 4.788.57 6.738 3.132z" fill="#b16668"/><path d="m252.696 125.658c-1.056.78-2.154 2.532-2.256 3.318.011-.746.177-1.481.487-2.16.31-.678.757-1.285 1.313-1.782z" fill="#9a4a4d"/><path d="m235.602 108.666s3.558-.222 5.43 1.2c1.686 1.296 3 3 5.856 7.11 2.478 3.6 3.678 5.328 3.678 5.328-1.626 2.399-3.989 4.202-6.732 5.136l-5.034-6.204c-2.622-3.324-5.22-8.382-3.198-12.57z" fill="#37474f"/><path d="m230.586 92.1c.012 1.3765-.385 2.7255-1.14 3.8766s-1.834 2.0525-3.101 2.5902-2.666.6875-4.018.4306-2.598-.9091-3.58-1.874-1.655-2.1993-1.935-3.547-.155-2.7483.361-4.0245c.516-1.2763 1.398-2.3709 2.536-3.1456 1.138-.7746 2.48-1.1944 3.857-1.2063.914-.0079 1.82.1643 2.668.5067.847.3425 1.619.8486 2.271 1.4893s1.171 1.4036 1.528 2.245.545 1.745.553 2.659z" fill="#263238"/><path d="m235.704 97.0079s-1.086 5.3101-1.53 6.1801c-.296.54-.788.946-1.374 1.134l.042-3.732z" fill="#263238"/><path d="m234.222 89.43c.394-.0505.793-.0103 1.169.1176.375.128.716.3402.997.6204.936.942.444 3.9179-.684 6.8399l-2.124.264z" fill="#263238"/><path d="m232.944 97.278c.426.252 1.026-.6 1.548-1.128s2.226-1.32 3.102.474-.72 4.272-2.064 4.704c-2.322.756-2.688-.738-2.688-.738l-.096 8.652c-2.856 3.738-10.89 3.492-7.578-.408v-2.556c-1.034.173-2.084.236-3.132.186-1.716-.246-2.802-1.59-3.342-3.438-.858-2.964-1.2-5.364-.54-11.226.72-6.42 8.178-6.552 12.228-4.05s2.562 9.528 2.562 9.528z" fill="#b16668"/><path d="m232.95 97.992c.21 0 1.014-1.356 1.542-1.842.726-.678-.27-6.72-.27-6.72.249-.5362.331-1.135.234-1.7184-.096-.5833-.366-1.1241-.774-1.5516-1.014-1.098-2.43-2.436-6.99-1.86-3.258.414-6.792 1.464-9.666.084-.256.9356-.227 1.9262.083 2.8454.31.9191.887 1.7249 1.657 2.3146 0 0 1.044.66 3.774.966 2.517.1656 5.044.0953 7.548-.21.792-.114.966.648 1.41 2.742.39 1.83.732 4.944 1.452 4.95z" fill="#263238"/><path d="m234.222 89.898 2.562-1.404c-.083-.1734-.201-.328-.346-.4544s-.314-.222-.497-.281c-.183-.0589-.376-.08-.567-.0619-.192.0181-.377.0751-.546.1673-.343.1959-.598.5167-.711.8955-.113.3789-.075.7866.105 1.1385z" fill="#263238"/><path d="m225.15 106.278s3.816-.804 5.142-1.524c.782-.416 1.419-1.058 1.83-1.842-.194.782-.543 1.516-1.026 2.16-.966 1.26-5.934 2.22-5.934 2.22z" fill="#9a4a4d"/><path d="m224.844 96.666c-.002.1022.017.2036.055.2985s.094.1814.165.2545c.072.073.157.1312.251.1712s.195.061.297.0618c.159.006.317-.036.452-.1205.136-.0845.243-.2077.307-.3536.065-.1459.084-.3078.056-.4648-.028-.1571-.103-.3021-.214-.4162-.112-.1142-.255-.1923-.412-.2242-.156-.0319-.318-.0162-.466.045-.147.0613-.273.1654-.36.2987-.088.1334-.133.29-.131.4496z" fill="#263238"/><path d="m227.118 94.0319-1.704-.774c-.099.2331-.105.4954-.015.7323.089.2369.267.4302.495.5397.113.05.234.0767.358.0786.123.0019.245-.0211.36-.0676.114-.0465.218-.1155.305-.2029.087-.0875.155-.1916.201-.3061z" fill="#263238"/><path d="m219.828 93.09-1.482 1.164c.07.1009.16.1863.264.2509.105.0646.222.1069.343.1243.122.0175.246.0097.364-.0229.119-.0325.229-.0892.325-.1663.196-.1593.325-.3875.36-.6382.034-.2508-.028-.5053-.174-.7118z" fill="#263238"/><path d="m218.934 96.4799c.007.1433.056.2814.141.397.085.1157.202.2039.336.2536.135.0497.281.0588.421.0262.139-.0327.266-.1057.365-.2099.099-.1043.164-.2352.189-.3765s.008-.2868-.05-.4183c-.057-.1316-.151-.2434-.272-.3217-.12-.0782-.261-.1194-.404-.1184-.098.0024-.195.0241-.285.0641-.09.0399-.171.0972-.238.1686-.068.0714-.12.1555-.155.2474s-.051.1897-.048.2879z" fill="#263238"/><path d="m222.906 95.8619-.432 4.5901-2.37-.9121z" fill="#9a4a4d"/><path d="m224.208 102.174c-.001.146.041.289.121.412.081.122.196.217.33.274.135.057.284.072.427.045.144-.028.276-.098.38-.201s.174-.234.203-.378c.029-.143.015-.292-.041-.427-.055-.135-.15-.251-.271-.332-.122-.082-.265-.125-.411-.125-.195 0-.381.077-.52.214-.138.137-.216.323-.218.518z" fill="#9a4a4d"/><path d="m242.94 53.292c1.144.2548 2.247.6688 3.276 1.23.984.5297 1.866 1.2307 2.604 2.07.71.8131 1.234 1.7714 1.536 2.808.315 1.0988.34 2.2607.072 3.372-.178.8821-.529 1.7202-1.032 2.466-.453.6416-.996 1.2136-1.614 1.698-.605.4692-1.249.8848-1.926 1.242l-1.908 1.008c-.576.3005-1.122.6541-1.632 1.056-.461.3496-.814.8215-1.02 1.362-.104.241-.272.4486-.486.6-.103.0786-.222.1329-.349.1588-.127.026-.258.023-.383-.0088l-2.808-.6c-.135-.0284-.263-.0834-.376-.1617s-.21-.1783-.284-.2943c-.079-.1086-.131-.2343-.151-.3667-.021-.1324-.011-.2678.031-.3953.233-.8729.642-1.6893 1.2-2.4.502-.6273 1.083-1.1878 1.728-1.668.622-.4556 1.283-.8571 1.974-1.2.684-.342 1.32-.672 1.908-.996.537-.2841 1.042-.6261 1.506-1.02.404-.3402.684-.8042.798-1.32.103-.4505.096-.9194-.021-1.3666-.117-.4473-.34-.8595-.651-1.2014-.776-.8479-1.813-1.4118-2.946-1.602-2.096-.468-3.868.238-5.316 2.118-.139.2058-.317.383-.522.522-.112.0567-.233.0907-.358.0999-.125.0093-.25-.0063-.368-.0459l-3-.666c-.106-.0204-.207-.0617-.296-.1214-.09-.0598-.167-.1368-.226-.2266-.066-.0919-.11-.1972-.129-.3082-.02-.111-.015-.225.015-.3338.252-.9222.726-1.7687 1.38-2.466.734-.8104 1.605-1.4847 2.574-1.992 1.061-.5573 2.206-.9383 3.39-1.128 1.263-.2222 2.557-.1957 3.81.078zm-3.168 21.324c.131.0281.256.0831.365.1616.11.0785.202.1787.271.2944.073.112.124.2378.148.3698.023.132.02.2675-.01.3982l-.72 3.252c-.061.2596-.22.4855-.444.63s-.495.1961-.756.144l-3.18-.702c-.131-.0281-.255-.0825-.364-.1598-.11-.0774-.202-.1761-.272-.2902-.075-.1116-.126-.2374-.15-.3696s-.02-.2678.012-.3984l.72-3.258c.06-.2596.219-.4856.443-.63.224-.1445.495-.1961.757-.144z" fill="#516eb4"/><path d="m252.372 83.886c.793-.1308 1.602-.147 2.4-.048.767.0872 1.513.3107 2.202.66.658.3366 1.235.8115 1.692 1.392.484.6223.797 1.361.906 2.142.124.6077.124 1.2343 0 1.842-.125.5288-.327 1.0363-.6 1.506-.268.4529-.573.8824-.912 1.284l-.966 1.14c-.291.341-.552.7064-.78 1.092-.203.3429-.307.7355-.3 1.134-.001.1872-.055.3703-.156.528-.046.0755-.108.1399-.182.1886-.073.0488-.157.0807-.244.0934l-1.962.324c-.19.0298-.383-.0154-.54-.126-.077-.0502-.141-.1175-.188-.1966-.047-.079-.075-.1678-.082-.2594-.082-.6149-.035-1.2402.138-1.836.155-.5346.384-1.0453.678-1.518.281-.4525.6-.88.954-1.278.354-.396.672-.768.972-1.128.27-.3199.506-.6679.702-1.038.172-.3213.233-.6904.174-1.05-.049-.3161-.174-.6155-.364-.8727-.19-.2571-.44-.4641-.728-.6033-.711-.3473-1.519-.4446-2.292-.276-.7.1032-1.35.4195-1.864.9058-.513.4864-.864 1.1192-1.004 1.8122-.038.1693-.107.33-.204.474-.116.1276-.278.2051-.45.216l-2.088.342c-.148.0244-.3-.0077-.426-.09-.066-.0425-.121-.0989-.163-.1653-.041-.0663-.068-.141-.077-.2187-.073-.6554.016-1.3186.258-1.932.26-.7092.647-1.3657 1.14-1.938.538-.628 1.174-1.165 1.884-1.59.757-.4616 1.596-.7714 2.472-.912zm3.426 14.514c.092-.0154.186-.0122.277.0094.09.0217.176.0613.251.1166.075.0534.139.1212.187.1995s.081.1655.095.2565l.372 2.268c.015.092.012.186-.01.277-.021.091-.061.176-.116.251-.053.076-.12.14-.199.188-.078.049-.166.081-.257.094l-2.22.366c-.091.015-.184.012-.274-.01s-.174-.061-.248-.116c-.077-.052-.142-.119-.192-.198-.049-.078-.082-.166-.096-.258l-.372-2.274c-.028-.1869.02-.3771.133-.5289.112-.1519.28-.2529.467-.2811z" fill="#516eb4"/><path d="m252.372 83.886c.793-.1308 1.602-.147 2.4-.048.767.0872 1.513.3107 2.202.66.658.3366 1.235.8115 1.692 1.392.484.6223.797 1.361.906 2.142.124.6077.124 1.2343 0 1.842-.125.5288-.327 1.0363-.6 1.506-.268.4529-.573.8824-.912 1.284l-.966 1.14c-.291.341-.552.7064-.78 1.092-.203.3429-.307.7355-.3 1.134-.001.1872-.055.3703-.156.528-.046.0755-.108.1399-.182.1886-.073.0488-.157.0807-.244.0934l-1.962.324c-.19.0298-.383-.0154-.54-.126-.077-.0502-.141-.1175-.188-.1966-.047-.079-.075-.1678-.082-.2594-.082-.6149-.035-1.2402.138-1.836.155-.5346.384-1.0453.678-1.518.281-.4525.6-.88.954-1.278.354-.396.672-.768.972-1.128.27-.3199.506-.6679.702-1.038.172-.3213.233-.6904.174-1.05-.049-.3161-.174-.6155-.364-.8727-.19-.2571-.44-.4641-.728-.6033-.711-.3473-1.519-.4446-2.292-.276-.7.1032-1.35.4195-1.864.9058-.513.4864-.864 1.1192-1.004 1.8122-.038.1693-.107.33-.204.474-.116.1276-.278.2051-.45.216l-2.088.342c-.148.0244-.3-.0077-.426-.09-.066-.0425-.121-.0989-.163-.1653-.041-.0663-.068-.141-.077-.2187-.073-.6554.016-1.3186.258-1.932.26-.7092.647-1.3657 1.14-1.938.538-.628 1.174-1.165 1.884-1.59.757-.4616 1.596-.7714 2.472-.912zm3.426 14.514c.092-.0154.186-.0122.277.0094.09.0217.176.0613.251.1166.075.0534.139.1212.187.1995s.081.1655.095.2565l.372 2.268c.015.092.012.186-.01.277-.021.091-.061.176-.116.251-.053.076-.12.14-.199.188-.078.049-.166.081-.257.094l-2.22.366c-.091.015-.184.012-.274-.01s-.174-.061-.248-.116c-.077-.052-.142-.119-.192-.198-.049-.078-.082-.166-.096-.258l-.372-2.274c-.028-.1869.02-.3771.133-.5289.112-.1519.28-.2529.467-.2811z" fill="#000" opacity=".2"/><path d="m272.831 90.3239c.179.13.299.3244.336.5418s-.012.4407-.138.6222l-1.584 2.22c-.129.1782-.324.2987-.541.3357-.218.037-.441-.0124-.623-.1377l-2.172-1.542c-.089-.0627-.165-.1428-.223-.2356-.057-.0928-.096-.1964-.113-.3044-.031-.2102.018-.4246.138-.6l1.584-2.226c.129-.1789.323-.2997.54-.336.212-.0317.427.0199.6.144zm9.168-15.054c.784.5526 1.483 1.2154 2.076 1.968.574.7162 1.015 1.5289 1.302 2.4.276.8325.368 1.7146.27 2.586-.112.9279-.464 1.8107-1.02 2.562-.414.6075-.944 1.1275-1.56 1.53-.547.3397-1.141.5965-1.764.762-.603.1611-1.219.2695-1.842.324l-1.764.15c-.526.0484-1.048.1407-1.56.276-.457.1209-.872.366-1.2.708-.157.1531-.351.2627-.564.318-.103.0245-.21.0259-.314.0041-.103-.0218-.201-.0662-.286-.1301l-1.92-1.362c-.183-.1319-.308-.3298-.348-.552-.022-.1048-.021-.2135.005-.3175.026-.1041.076-.2008.145-.2825.447-.5855 1.008-1.0735 1.65-1.434.578-.3167 1.196-.5549 1.836-.708.615-.1486 1.241-.2449 1.872-.288.6-.036 1.2-.084 1.752-.138.496-.0427.985-.1413 1.458-.294.413-.1256.772-.3853 1.02-.738.224-.3055.369-.6609.423-1.0353.054-.3743.016-.7563-.111-1.1127-.312-.8842-.912-1.6383-1.704-2.142-1.428-1.02-2.988-1.054-4.68-.102-.17.109-.359.1863-.558.228-.103.0073-.206-.0059-.304-.0388-.098-.033-.188-.085-.266-.1532l-2.04-1.452c-.148-.101-.251-.256-.288-.432-.017-.09-.015-.1827.007-.2718.022-.089.063-.1723.119-.2442.476-.6137 1.093-1.1019 1.8-1.422.812-.3754 1.683-.6049 2.574-.678.976-.0796 1.959-.0026 2.91.228 1.034.2333 2.011.6697 2.874 1.284z" fill="#516eb4"/><path d="m272.831 90.3239c.179.13.299.3244.336.5418s-.012.4407-.138.6222l-1.584 2.22c-.129.1782-.324.2987-.541.3357-.218.037-.441-.0124-.623-.1377l-2.172-1.542c-.089-.0627-.165-.1428-.223-.2356-.057-.0928-.096-.1964-.113-.3044-.031-.2102.018-.4246.138-.6l1.584-2.226c.129-.1789.323-.2997.54-.336.212-.0317.427.0199.6.144zm9.168-15.054c.784.5526 1.483 1.2154 2.076 1.968.574.7162 1.015 1.5289 1.302 2.4.276.8325.368 1.7146.27 2.586-.112.9279-.464 1.8107-1.02 2.562-.414.6075-.944 1.1275-1.56 1.53-.547.3397-1.141.5965-1.764.762-.603.1611-1.219.2695-1.842.324l-1.764.15c-.526.0484-1.048.1407-1.56.276-.457.1209-.872.366-1.2.708-.157.1531-.351.2627-.564.318-.103.0245-.21.0259-.314.0041-.103-.0218-.201-.0662-.286-.1301l-1.92-1.362c-.183-.1319-.308-.3298-.348-.552-.022-.1048-.021-.2135.005-.3175.026-.1041.076-.2008.145-.2825.447-.5855 1.008-1.0735 1.65-1.434.578-.3167 1.196-.5549 1.836-.708.615-.1486 1.241-.2449 1.872-.288.6-.036 1.2-.084 1.752-.138.496-.0427.985-.1413 1.458-.294.413-.1256.772-.3853 1.02-.738.224-.3055.369-.6609.423-1.0353.054-.3743.016-.7563-.111-1.1127-.312-.8842-.912-1.6383-1.704-2.142-1.428-1.02-2.988-1.054-4.68-.102-.17.109-.359.1863-.558.228-.103.0073-.206-.0059-.304-.0388-.098-.033-.188-.085-.266-.1532l-2.04-1.452c-.148-.101-.251-.256-.288-.432-.017-.09-.015-.1827.007-.2718.022-.089.063-.1723.119-.2442.476-.6137 1.093-1.1019 1.8-1.422.812-.3754 1.683-.6049 2.574-.678.976-.0796 1.959-.0026 2.91.228 1.034.2333 2.011.6697 2.874 1.284z" fill="#fff" opacity=".6"/><path d="m79.4878 209.112c-.06-1.8 1.236-19.392 1.236-19.392l-8.568 6.216c1.758 10.488 2.136 12.966 2.166 14.682-.0363.143-.0524.29-.048.438 0 2.04 2.31 3.138 4.104 4.5 1.5248 1.192 3.1487 2.252 4.854 3.168 1.302.654 3.954.714 4.278-.126-2.184-1.668-5.358-4.164-7.098-6.066-.828-.912-.858-1.632-.924-3.42z" fill="#ffa8a7"/><path d="m91.2359 220.8c.0971.28.1143.582.0497.871s-.2086.555-.4157.767c-1.5736 1.135-3.5321 1.6-5.448 1.296-2.724-.354-4.2-1.128-5.286-2.04s-2.616-2.196-3.852-2.466c-.9826-.187-1.9173-.571-2.748-1.128-.366-.354-.318-1.926-.318-1.926z" fill="#263238"/><path d="m74.3038 210.12c-.1009.003-.1976.041-.2732.108s-.1255.158-.1408.258c-.084.432-.174 1.692-.354 2.4-.2785 1.252-.3675 2.538-.264 3.816.15.81 2.01 1.368 3.204 1.8 1.4041.611 2.707 1.433 3.864 2.436 1.6696 1.249 3.6625 1.992 5.742 2.142 2.1 0 4.464-.696 5.01-1.668.666-1.2.144-1.902-2.97-3.348-.6-.27-2.658-1.5-3.366-1.944-1.908-1.2-3.798-2.874-4.68-4.998-.0711-.26-.2275-.488-.444-.648-.189-.082-.3986-.102-.6-.06-.5201.076-1.0258.23-1.5.456-.414.198-1.008.432-1.002.966.0127.185.0532.367.12.54.036.114.066.258 0 .324s-.21 0-.294-.084c-.3054-.312-.5843-.65-.834-1.008-.1476-.184-.3145-.35-.498-.498-.1836-.104-.36-.22-.528-.348-.228-.162-.18-.39-.192-.642z" fill="#455a64"/><path d="m80.3401 220.968c-.546-.444-1.122-.882-1.698-1.266 0 0 3.66 2.226 5.136 1.2.2739-.174.4743-.442.5628-.755.0886-.312.0591-.645-.0828-.937 0-.252 2.328-1.338 3.252-1.446.258.144.474.258.6.318 3.114 1.446 3.636 2.142 2.97 3.348-.546.972-2.256 1.734-4.968 1.734-1.764.036-4.512-1.164-5.772-2.196z" fill="#37474f"/><path d="m83.9998 218.484c1.938.774 1.11 1.134.57 1.2s-3.798-1.8-5.79-3.396-3.378-3.438-4.146-4.038c-.288-.222-.6-.498-.876-.756.054-.426.096-.816.132-1.02.0154-.1.0652-.191.1408-.258.0757-.067.1723-.105.2732-.108 0 .252-.036.486.156.672.168.128.3444.244.528.348.1835.147.3505.314.498.498.2497.358.5287.696.834 1.008 2.1591 2.427 4.7669 4.413 7.68 5.85z" fill="#263238"/><g fill="#f5f5f5"><path d="m84.4319 219.414c-.0444-.002-.0868-.019-.12-.048-.0195-.015-.0358-.034-.0479-.056-.0121-.021-.0198-.045-.0226-.07-.0028-.024-.0006-.049.0063-.073.007-.024.0186-.046.0342-.065.4563-.474 1.009-.844 1.6207-1.087.6117-.242 1.2682-.35 1.9253-.317.0515.006.0986.032.1311.072.0326.041.048.092.0429.144-.006.05-.0314.095-.0707.127-.0393.031-.0893.046-.1393.041-.5932-.025-1.1851.075-1.7378.292s-1.0541.546-1.4722.968c-.0183.022-.0412.04-.0671.052-.0259.013-.0542.02-.0829.02z"/><path d="m82.7461 218.4c-.0458.002-.0906-.013-.126-.042-.0342-.037-.0532-.085-.0532-.135s.019-.098.0532-.135c.4573-.472 1.0103-.841 1.6218-1.082.6116-.241 1.2676-.349 1.9242-.316.0509.005.0975.031.1296.071.032.04.0469.091.0414.142-.0056.051-.0312.097-.0711.13-.04.032-.091.046-.142.041-.5934-.026-1.1856.073-1.7386.29-.5529.217-1.0541.547-1.4713.97-.0205.024-.0465.042-.0758.054-.0293.011-.061.016-.0922.012z"/><path d="m81.0539 217.386c-.0437.001-.0862-.014-.12-.042-.0356-.036-.0555-.084-.0555-.135s.0199-.099.0555-.135c.4576-.472 1.0106-.841 1.6221-1.082s1.2674-.349 1.9239-.316c.0252.002.0498.009.0722.021.0225.012.0424.028.0586.048.0161.019.0283.042.0357.066s.01.05.0075.075c-.0023.025-.0095.05-.0213.072-.0118.023-.0279.043-.0474.059-.0196.016-.0421.028-.0664.036-.0242.007-.0497.009-.0749.007-.5934-.026-1.1857.073-1.7386.29s-1.0542.547-1.4714.97c-.0223.025-.0504.044-.0818.055-.0314.012-.0651.016-.0982.011z"/><path d="m79.4881 216.264c-.0437 0-.0862-.014-.12-.042-.0183-.017-.0329-.038-.0429-.062-.01-.023-.0151-.048-.0151-.073s.0051-.05.0151-.074c.01-.023.0246-.044.0429-.061.4569-.473 1.0098-.842 1.6215-1.083.6116-.242 1.2679-.349 1.9245-.315.0499.006.0955.031.1269.071.0314.039.0462.089.0411.139-.006.05-.0314.095-.0707.127-.0392.031-.0893.046-.1393.041-.5931-.024-1.1846.076-1.7372.293-.5525.217-1.054.546-1.4728.967-.0204.026-.0471.046-.0776.059-.0304.012-.0636.017-.0964.013z"/><path d="m77.9582 215.142c-.0433-.002-.085-.017-.12-.042-.0356-.036-.0555-.084-.0555-.135s.0199-.099.0555-.135c.4948-.515 1.1006-.91 1.7712-1.156.6707-.245 1.3885-.334 2.0988-.26.0254.001.0502.008.0728.02.0225.011.0424.027.0583.047s.0274.043.0337.068c.0064.024.0075.05.0032.075-.006.05-.0314.095-.0707.127-.0393.031-.0893.046-.1393.041-.6457-.064-1.2974.017-1.9077.237-.6103.221-1.1639.574-1.6203 1.035-.021.027-.0486.048-.08.062-.0315.014-.0659.019-.1.016z"/></g><path d="m63.3482 197.73-8.6461-.156c.126 5.772 1.044 12.174 1.2 17.586 0 1.02 0 7.92.36 10.02.6 3.15 4.3201 2.724 4.5181.84s-.2401-9.942-.2281-10.8c-.036-3.468 1.59-9.33 2.448-15.564.036-.282.3061-1.626.3481-1.926z" fill="#ffa8a7"/><path d="m62.1841 227.328c.1606 1.444-.0458 2.905-.6 4.248-.2744.533-.7171.961-1.2596 1.217-.5424.256-1.1542.326-1.7404.199-1.278-.186-2.964-.87-3.48-2.4-.4886-1.409-.6607-2.909-.504-4.392z" fill="#263238"/><path d="m55.8779 214.5c-.51.09-.414 2.58-.462 5.082-.054 2.688-.732 3.864-.798 6.066-.078 2.52.168 3.6 1.2 5.028s4.254 2.58 5.556.276c1.062-1.878.918-3.828.552-6.3s-.654-4.344-.75-6.3-.138-3.69-.6-3.852v.9c0 .27.042 1.2-.246 1.26-.0444-.232-.0705-.466-.078-.702.0133-.218-.0576-.433-.198-.6-.1736-.128-.3844-.195-.6-.192-.514-.058-1.0308-.086-1.548-.084-.258 0-.522 0-.774.042-.2217.017-.4389.072-.642.162-.0599.026-.1137.063-.1581.111-.0445.047-.0785.104-.0999.165-.0181.095-.0181.193 0 .288.021.171.021.345 0 .516 0 .078-.054.174-.132.162s-.09-.084-.096-.144c-.036-.3 0-.522-.036-.87 0-.162 0-.384 0-.546s-.084-.306-.09-.468z" fill="#455a64"/><path d="m54.66 224.928c0 .366-.078 2.772.6 3.132s.942-1.512.942-1.512 1.59-.666 4.086.138c-.084.396.408 1.632 1.038 1.296s.6-3.078.6-3.114c.342 2.4.45 4.26-.6 6.084-1.302 2.304-4.536 1.14-5.556-.276s-1.266-2.508-1.2-5.028c.03-.252.072-.486.09-.72z" fill="#37474f"/><path d="m56.3998 226.686c.078.9-.834.69-1.002-.6s.228-4.344 0-6.528c.048-2.502-.048-4.992.462-5.082-.0029.03-.0029.06 0 .09l.06 1.266c-.0118.18-.0118.36 0 .54.168 1.836.27 5.4.276 7.092.0106 1.077.0787 2.152.204 3.222z" fill="#263238"/><path d="m60 226.686c.1175-1.062.1756-2.13.174-3.198 0-1.68.108-5.202.276-7.05.065-.342.0912-.69.078-1.038 0-.252 0-.6 0-.84 0 0 0-.036 0-.06.336.126.456 1.116.528 2.364 0 .726 0 1.626-.066 2.718-.228 2.184.168 5.28 0 6.546s-1.05 1.458-.99.558z" fill="#263238"/><path d="m60.3542 226.752h-.066c-1.2965-.448-2.7056-.448-4.002 0-.0237.009-.0488.013-.0741.013-.0254-.001-.0503-.007-.0734-.017s-.044-.025-.0614-.043c-.0174-.019-.0311-.04-.0401-.064-.0091-.024-.0134-.049-.0127-.074s.0063-.05.0166-.074c.0103-.023.0251-.044.0435-.061.0183-.017.04-.031.0636-.04 1.3832-.494 2.8948-.494 4.278 0 .0236.009.0452.022.0635.039s.0329.038.043.061.0154.048.0157.073c.0002.025-.0046.05-.0142.073-.0147.035-.0399.065-.0721.085-.0322.021-.0698.031-.1079.029z" fill="#f5f5f5"/><path d="m60.6 224.76c-.0216.005-.0443.005-.066 0-1.4576-.453-3.0183-.453-4.476 0-.024.008-.0494.012-.0749.011-.0254-.002-.0503-.008-.0732-.02-.0229-.011-.0433-.026-.0601-.045-.0168-.02-.0297-.042-.0378-.066-.0084-.024-.0119-.049-.0104-.074s.0081-.049.0193-.072c.0112-.022.0268-.042.0459-.058s.0413-.029.0652-.036c1.5399-.491 3.1941-.491 4.734 0 .0422.016.0775.046.0999.085.0223.039.0302.084.0224.128-.0079.045-.031.085-.0654.114s-.0779.045-.1229.045z" fill="#f5f5f5"/><path d="m55.9798 222.876c-.0367-.001-.0724-.012-.1032-.032-.0307-.02-.0552-.049-.0708-.082-.0203-.046-.0216-.099-.0037-.146.018-.047.0538-.085.0997-.106 1.5157-.596 3.1989-.607 4.722-.03.0236.009.0452.022.0635.039s.0329.038.043.061.0155.048.0157.073c.0003.025-.0046.05-.0142.073-.0187.047-.055.084-.1009.104-.046.02-.0981.022-.1451.004 0 0-2.352-.924-4.422 0-.0245.02-.0532.034-.084.042z" fill="#f5f5f5"/><path d="m55.9379 221.112c-.0362 0-.0718-.01-.1026-.029s-.0555-.046-.0714-.079c-.0207-.046-.0229-.097-.0061-.144s.0513-.086.0961-.108c.7522-.343 1.5677-.525 2.3943-.534s1.646.154 2.4057.48c.0227.01.0432.025.0601.043.0169.019.03.04.0384.064.0084.023.012.048.0105.073s-.0079.05-.019.072c-.0103.023-.0251.043-.0434.06-.0184.017-.04.03-.0635.038-.0235.009-.0485.012-.0734.011-.0249-.002-.0493-.008-.0717-.019-.7128-.295-1.4781-.443-2.2495-.433-.7715.009-1.533.175-2.2385.487-.0209.01-.0432.016-.066.018z" fill="#f5f5f5"/><path d="m55.8961 219.138c-.044.001-.0868-.014-.1214-.041s-.0588-.065-.0687-.108c-.0098-.043-.0046-.088.0147-.127.0193-.04.0515-.071.0914-.09 2.286-1.128 4.752-.048 4.854 0 .0238.009.0455.023.0636.041.018.018.0321.039.0411.063.0091.024.013.05.0115.075-.0015.026-.0084.05-.0202.073-.021.046-.0592.082-.1064.1-.0471.018-.0995.016-.1456-.004 0 0-2.4-1.05-4.524 0-.0278.014-.059.02-.09.018z" fill="#f5f5f5"/><path d="m57.5458 141.6c-3.048 8.442-2.514 13.74-1.992 22.59.48 8.112 1.242 15.258 1.242 15.258-.12 1.44-2.124 4.248-2.4 10.608-.0884 4.478.112 8.958.6 13.41 0 0 3.99 1.458 7.362 0 0 0 3.45-15.234 4.392-22.68.816-6.498 2.244-14.802 2.244-14.802l3 14.772c-.5864 1.985-.8874 4.044-.894 6.114 0 3.474 1.614 13.134 1.614 13.134s4.47 1.446 7.302-1.068c0 0 1.122-13.902 1.518-19.2.528-7.068-.24-26.442-1.938-36.36z" fill="#455a64"/><path d="m69.0298 165.96 1.248-11.112s5.586-.744 8.118-3.126c-.7264 1.136-1.6945 2.098-2.8354 2.816-1.1409.719-2.4263 1.177-3.7646 1.342l-1.8 10.344 2.04 14.508z" fill="#37474f"/><path d="m82.8419 133.362c-2.718-2.796-7.6261-9.12-7.6261-9.12l-2.772-9.6c.6196.032 1.2405.032 1.86 0 3 .198 3.882.456 5.748 2.496 1.482 1.626 7.1341 9.342 9.0961 11.94l5.214-6.642c1.254-1.89 1.05-4.008 1.698-5.55s1.698-2.22 2.538-3.6 1.038-2.304 1.7281-1.59c.69.714-.108 2.634-.21 3.072s-1.1581 1.74.6 1.062c1.758-.678 4.47-3.888 5.166-4.542s1.068.36.912 1.164.6 2.616.324 3.942c-.172 1.334-.835 2.555-1.86 3.426-1.266 1.272-4.362 2.838-5.5742 4.512-1.212 1.674-3.798 6.876-5.4 10.008-2.01 3.984-3.72 5.298-6 3.954s-4.4399-3.894-5.4419-4.932z" fill="#ffa8a7"/><path d="m73.326 114.54c1.5342-.153 3.0829.052 4.524.6 1.626.732 2.73 2.304 4.32 4.434s4.428 5.856 4.428 5.856-.768 3.234-5.832 6.138l-8.268-8.514z" fill="#37474f"/><path d="m89.1478 129.072c-.989.933-1.6517 2.159-1.89 3.498 0 0-.6-1.926 1.446-4.092z" fill="#f28f8f"/><path d="m79.3138 131.586c3.69-3.036 2.472-6.99 1.128-9.654-2.694-5.322-5.496-7.416-6.666-7.398l-7.338.072c-3.504.48-6.216.24-7.062.438-2.16.51-2.208 2.286-2.292 4.584-.09 2.52-1.38 2.094-.726 6.258.7714 1.548 1.4486 3.141 2.028 4.77.396 1.44 1.512 3.732.918 6.06-.228.9-.84 1.8-1.758 4.266-1.0408 2.772-1.8144 5.637-2.31 8.556 0 0 2.142-.498 4.578-3.09 0 0 3.33 4.458 11.34 4.008 8.31-.468 9.042-4.8 9.042-4.8l-1.272-7.8c.192-3.15.276-4.29.39-6.27z" fill="#516eb4"/><path d="m74.5202 130.8s-3 2.4-6.522 1.248c-.9811-.294-1.8706-.835-2.5837-1.57s-1.2262-1.64-1.4903-2.63c0 0-.3 3.99 4.128 5.274 1.1845.359 2.4532.328 3.6182-.091 1.165-.418 2.1643-1.2 2.8498-2.231z" fill="#000" opacity=".1"/><path d="m53.5138 111.108c-1.086-.792-6.936 7.038-4.2 9s5.652-3.6 5.064-6.228-.864-2.772-.864-2.772z" fill="#37474f"/><path d="m48.204 107.22c1.464-2.028 2.46-3.558 3.798-5.298.756-.99 1.242-1.692 1.968-2.706.504-.696.798-1.284 1.362-1.506.6296-.2772 1.1923-.6864 1.65-1.2.2802-.3247.5387-.6674.774-1.026.8457-1.1711 1.8561-2.2139 3-3.096 1.2-.93 2.514-1.65 3.738-2.538.726-.528 1.506-1.398.6-2.184-.2816-.2273-.6159-.38-.972-.444-2.184-.438-4.074.348-6.198.93-.9236.2518-1.8263.5747-2.7.966-.4338.1761-.8384.4168-1.2.714-.5025.525-.9087 1.1343-1.2 1.8-.93 1.71-2.892 3.234-4.266 4.572-1.614 1.572-3.054 3-4.896 4.746-1.656 1.56-3.282 3-4.8 4.704-1.254 1.404-.768 2.484-.6 2.85 1.08 2.124 2.256 2.874 3.672 4.2.468.432.942.858 1.416 1.284 1.836 1.656 3.672 3.204 5.58 4.8 2.04 1.68 2.88 2.496 4.698 4.128 1.1472 1.054 2.1033 2.298 2.826 3.678 3.15.522 6.246-4.296 3.546-9.93-.4441-.911-1.1158-1.692-1.95-2.268-3.324-2.37-9.846-7.176-9.846-7.176z" fill="#ffa8a7"/><path d="m48.2039 107.22c-.9827 1.248-2.303 2.187-3.804 2.706 0 0 2.01.48 4.71-2.034z" fill="#f28f8f"/><path d="m59.6279 114.996c-.738-.51-2.532-1.596-6.114-3.888 0 0 .552 1.158-.318 4.068s-2.706 4.752-3.858 4.962c0 0 2.004 1.584 3.852 3.372s3.366 3.054 4.434 5.13c0 0 2.64-.678 3.24-5.154.42-3.138.168-6.822-1.236-8.49z" fill="#455a64"/><path d="m79.6678 100.584c.5275-1.1147.7598-2.3462.6747-3.5765-.0851-1.2302-.4848-2.418-1.1607-3.4495-2.274-3.234-6.108-4.8-10.344-4.752h-1.314c-5.718.096-10.914 5.004-11.016 10.53 0 3.888 0 7.482 2.142 10.134 1.974 2.466 5.052 3.276 7.65 3.672 4.968.756 10.548.18 12.804-3.204 0 0-3 .6-2.622-2.508.054-.492-.414-1.032-1.236-1.59.5758-.997 1.2534-1.932 2.022-2.79.846-.846 1.824-1.32 2.4-2.466z" fill="#263238"/><path d="m78.186 103.422c-.03 5.79-1.884 7.248-2.814 7.68s-2.754.204-4.524-.054l.06 3.474s2.07 2.094 1.95 3.69-3.168 1.8-5.478.306c-1.2724-.843-2.4267-1.852-3.432-3-.1918-.222-.3-.505-.306-.798l-.144-8.166s-.948 1.038-2.676-.102c-.3733-.228-.695-.532-.9449-.891-.2498-.359-.4222-.766-.5063-1.195-.084-.43-.0779-.872.018-1.299s.2796-.829.5392-1.181c.2442-.237.5374-.418.859-.53s.6638-.152 1.0025-.117.6656.144.9577.319.5423.412.7328.694c.528.984.48 1.68 1.2 1.566s.75-.894.798-1.452 0-.738.072-1.47c1.71-.366 3.48-2.7481 3.678-4.4881 1.1585.5698 2.4352.8576 3.726.84 1.914-.132 2.904-.516 3.846-1.896.2245.3158.4042.661.534 1.026.2666.7389.4674 1.4998.6 2.274.2138 1.5801.298 3.1761.252 4.7701z" fill="#ffa8a7"/><path d="m70.8477 111.048c-1.866-.216-5.712-1.248-6.336-2.748.2522.761.7318 1.427 1.374 1.908 1.164.96 4.98 1.998 4.98 1.998z" fill="#f28f8f"/><path d="m72.7259 107.928c.0036.151-.0378.299-.1188.427-.081.127-.198.228-.3362.288-.1382.061-.2913.079-.4399.053s-.2861-.096-.3949-.201c-.1088-.104-.1841-.239-.2164-.386-.0322-.148-.0199-.302.0353-.442.0553-.141.1511-.261.2751-.347.1241-.086.2709-.134.4218-.136.2011-.003.3953.073.5403.212.145.14.229.331.2337.532z" fill="#b16668"/><path d="m71.7482 102.228c.0098.106-.0014.214-.0332.316-.0319.102-.0835.197-.1522.279-.0686.082-.1527.149-.2476.199-.0948.049-.1985.079-.305.088-.1641.017-.3297-.014-.4755-.092-.1458-.077-.2653-.196-.3429-.342-.0777-.145-.1102-.311-.0932-.475.0171-.164.0827-.319.1886-.446.1059-.126.2472-.218.4058-.264.1585-.046.3271-.043.4841.008s.2953.147.397.277c.1018.13.1624.287.1741.452z" fill="#263238"/><path d="m77.1599 101.886c.0149.196-.0479.389-.1749.538-.1269.15-.3078.243-.5031.26-.0985.012-.1983.003-.2929-.027-.0945-.03-.1814-.08-.2549-.147-.0735-.066-.1317-.148-.1707-.239-.0391-.091-.058-.19-.0555-.289-.0099-.097-.0003-.195.0283-.289.0286-.093.0756-.18.1383-.255.0626-.075.1395-.136.2263-.181s.1817-.071.2791-.079c.1969-.008.3892.062.5352.194.146.133.2339.317.2448.514z" fill="#263238"/><path d="m73.4219 101.136.576 4.836 2.478-1.032z" fill="#f28f8f"/><path d="m68.856 100.14 1.44-1.368c.1793.1994.2749.4603.2671.7284s-.1185.5226-.3091.7116c-.095.09-.2074.16-.3302.205-.1228.046-.2535.066-.3843.059-.1307-.007-.2587-.04-.3763-.098-.1175-.058-.222-.139-.3072-.238z" fill="#263238"/><path d="m76.0619 98.328 1.596 1.2c-.0735.1084-.1683.2005-.2787.2709-.1105.0703-.2341.1173-.3633.1381-.1293.0208-.2614.0149-.3883-.0172-.1269-.0322-.2459-.09-.3497-.1698-.209-.1659-.3474-.4047-.3875-.6685s.0212-.533.1715-.7535z" fill="#263238"/><path d="m53.058 54.378c1.1505-.2194 2.3266-.2719 3.492-.156 1.1138.0977 2.201.3944 3.21.876.9681.4621 1.824 1.1296 2.508 1.956.7213.8845 1.2009 1.9408 1.392 3.066.1799.8829.1799 1.7931 0 2.676-.1613.7685-.4363 1.5086-.816 2.196-.3685.6689-.7962 1.3034-1.278 1.896-.48.6-.936 1.152-1.362 1.686-.4074.5026-.7689 1.0407-1.08 1.608-.2859.5036-.4252 1.0773-.402 1.656.0035.2691-.0648.5342-.198.768-.0628.1105-.1491.206-.2527.2796-.1037.0736-.2222.1235-.3473.1464l-2.826.534c-.1342.0267-.2724.0261-.4065-.0017-.134-.0278-.261-.0824-.3735-.1603-.117-.067-.216-.1617-.2881-.2756-.0722-.114-.1154-.2439-.1259-.3784-.1377-.8877-.0928-1.7942.132-2.664.2134-.775.5259-1.5191.93-2.214.3907-.6618.8384-1.2881 1.338-1.872.498-.6.948-1.14 1.362-1.668.3806-.4742.7104-.987.984-1.53.2353-.4712.3091-1.0067.21-1.524-.0797-.4559-.2694-.8855-.5528-1.2515-.2833-.3659-.6517-.6572-1.0732-.8485-1.0454-.4751-2.2196-.587-3.336-.318-2.104.4-3.454 1.748-4.05 4.044-.0524.242-.1458.4733-.276.684-.1664.1923-.4008.3127-.654.336l-3 .57c-.2072.0369-.4207-.0037-.6-.114-.0942-.0623-.1744-.1435-.2353-.2386-.061-.095-.1014-.2018-.1187-.3134-.1296-.9465-.0266-1.9103.3-2.808.3397-1.0369.8597-2.0058 1.536-2.862.7584-.9375 1.6618-1.7478 2.676-2.4 1.0931-.6882 2.3097-1.1569 3.582-1.38zm5.478 20.85c.2668-.0461.5411.0132.765.1654.2239.1523.3798.3855.435.6506l.6 3.276c.0274.1313.0271.2669-.0008.398-.0279.1312-.0828.2552-.1612.364-.0737.1116-.169.2073-.2803.2815s-.2363.1254-.3677.1505l-3.198.6c-.1322.0275-.2688.0273-.4009-.0006-.1322-.0279-.2572-.0828-.3671-.1614-.1116-.0737-.2073-.169-.2815-.2803s-.1254-.2363-.1505-.3677l-.6-3.276c-.0251-.1318-.0231-.2673.0058-.3983.0289-.1309.0841-.2547.1622-.3637.0719-.1133.1666-.2103.2782-.2847.1117-.0744.2376-.1246.3698-.1473z" fill="#516eb4"/><path d="m83.5498 67.896c.7075.3923 1.3543.8855 1.92 1.464.5498.542.9952 1.1807 1.314 1.884.3057.6726.4633 1.4031.462 2.142-.0008.7875-.2076 1.5611-.6 2.244-.294.5472-.6913 1.0321-1.17 1.428-.4288.3329-.9038.6017-1.41.798-.492.1922-1 .3408-1.518.444l-1.464.288c-.4392.0844-.8692.211-1.284.378-.3734.1385-.6999.3798-.942.696-.118.1452-.2737.2553-.45.318-.0829.031-.1716.0433-.2597.0361-.0882-.0073-.1737-.034-.2503-.0781l-1.734-.972c-.1686-.0923-.2938-.2476-.348-.432-.0295-.0876-.0384-.1809-.0259-.2725s.046-.179.0979-.2555c.3195-.5305.7442-.9899 1.248-1.35.4566-.319.9527-.5771 1.476-.768.5018-.1786 1.0175-.315 1.542-.408.522-.09 1.008-.18 1.464-.276.4115-.086.8135-.2126 1.2-.378.3336-.1472.6112-.3974.792-.714.1576-.2785.2453-.5909.2558-.9107.0104-.3197-.0568-.6372-.1958-.9253-.3427-.7146-.9153-1.2935-1.626-1.644-.6122-.3538-1.3187-.5102-2.023-.448-.7044.0623-1.3724.3402-1.913.796-.1338.1087-.2863.192-.45.246-.1718.0285-.348-.0102-.492-.108l-1.848-1.032c-.1308-.0736-.2293-.1935-.276-.336-.0234-.0746-.0307-.1533-.0213-.2308.0093-.0776.0349-.1523.0753-.2192.3502-.5578.8298-1.0229 1.398-1.356.6468-.3904 1.3578-.6626 2.1-.804.8123-.1593 1.6452-.1856 2.466-.078.8759.1153 1.7213.3984 2.49.834zm-6.324 13.47c.0814.0451.1531.1061.2108.1792s.1002.157.1252.2468c.0265.0884.0349.1813.0246.2731s-.0391.1805-.0846.2609l-1.122 2.01c-.0911.1635-.2432.2844-.4231.3361s-.3729.0301-.5369-.0601l-1.962-1.098c-.0826-.0429-.1549-.1032-.2119-.1767-.057-.0736-.0973-.1587-.1181-.2493-.0286-.0879-.0385-.1808-.0292-.2727.0093-.092.0376-.1809.0832-.2613l1.122-2.01c.0455-.0806.1066-.1513.1797-.2079.0732-.0567.1569-.0982.2463-.1221.0882-.028.1814-.0372.2734-.0268.092.0103.1807.0399.2606.0868z" fill="#516eb4"/><path d="m83.5498 67.896c.7075.3923 1.3543.8855 1.92 1.464.5498.542.9952 1.1807 1.314 1.884.3057.6726.4633 1.4031.462 2.142-.0008.7875-.2076 1.5611-.6 2.244-.294.5472-.6913 1.0321-1.17 1.428-.4288.3329-.9038.6017-1.41.798-.492.1922-1 .3408-1.518.444l-1.464.288c-.4392.0844-.8692.211-1.284.378-.3734.1385-.6999.3798-.942.696-.118.1452-.2737.2553-.45.318-.0829.031-.1716.0433-.2597.0361-.0882-.0073-.1737-.034-.2503-.0781l-1.734-.972c-.1686-.0923-.2938-.2476-.348-.432-.0295-.0876-.0384-.1809-.0259-.2725s.046-.179.0979-.2555c.3195-.5305.7442-.9899 1.248-1.35.4566-.319.9527-.5771 1.476-.768.5018-.1786 1.0175-.315 1.542-.408.522-.09 1.008-.18 1.464-.276.4115-.086.8135-.2126 1.2-.378.3336-.1472.6112-.3974.792-.714.1576-.2785.2453-.5909.2558-.9107.0104-.3197-.0568-.6372-.1958-.9253-.3427-.7146-.9153-1.2935-1.626-1.644-.6122-.3538-1.3187-.5102-2.023-.448-.7044.0623-1.3724.3402-1.913.796-.1338.1087-.2863.192-.45.246-.1718.0285-.348-.0102-.492-.108l-1.848-1.032c-.1308-.0736-.2293-.1935-.276-.336-.0234-.0746-.0307-.1533-.0213-.2308.0093-.0776.0349-.1523.0753-.2192.3502-.5578.8298-1.0229 1.398-1.356.6468-.3904 1.3578-.6626 2.1-.804.8123-.1593 1.6452-.1856 2.466-.078.8759.1153 1.7213.3984 2.49.834zm-6.324 13.47c.0814.0451.1531.1061.2108.1792s.1002.157.1252.2468c.0265.0884.0349.1813.0246.2731s-.0391.1805-.0846.2609l-1.122 2.01c-.0911.1635-.2432.2844-.4231.3361s-.3729.0301-.5369-.0601l-1.962-1.098c-.0826-.0429-.1549-.1032-.2119-.1767-.057-.0736-.0973-.1587-.1181-.2493-.0286-.0879-.0385-.1808-.0292-.2727.0093-.092.0376-.1809.0832-.2613l1.122-2.01c.0455-.0806.1066-.1513.1797-.2079.0732-.0567.1569-.0982.2463-.1221.0882-.028.1814-.0372.2734-.0268.092.0103.1807.0399.2606.0868z" fill="#000" opacity=".2"/><path d="m41.286 89.928c.0799-.0755.1742-.1341.2773-.1722.1031-.0382.2129-.0551.3227-.0498.1126.0016.2237.0258.3268.0711.1031.0454.196.111.2732.1929l1.848 2.004c.076.0818.1351.1778.1739.2825.0387.1047.0564.216.0519.3275-.0044.1116-.0309.2212-.0779.3224-.047.1013-.1136.1922-.1959.2676l-1.956 1.8c-.0818.0761-.1778.1352-.2824.1739-.1047.0388-.2161.0565-.3276.052-.1116-.0045-.2211-.031-.3224-.078s-.1922-.1135-.2676-.1959l-1.848-2.004c-.0768-.0813-.1366-.1772-.1758-.282-.0392-.1047-.0571-.2163-.0526-.328.0044-.1118.0312-.2216.0787-.3229.0474-.1013.1146-.1921.1977-.2671zm-12.84-12.09c.7016-.6557 1.4937-1.2073 2.352-1.638.815-.4119 1.6967-.676 2.604-.78.8709-.0961 1.7524-.0061 2.586.264.8856.3023 1.6775.8295 2.298 1.53.5192.5276.9272 1.1539 1.2 1.842.22.6036.3494 1.2365.384 1.878.0342.6246.0141 1.251-.06 1.872-.078.6-.15 1.2-.216 1.758-.0651.5254-.0832 1.0555-.054 1.584.0199.4751.1738.9348.444 1.326.1163.1794.1825.3865.192.6.0052.1052-.0137.2102-.0553.3069s-.1048.1826-.1847.2511l-1.728 1.602c-.1639.1486-.3789.2282-.6.222-.1097.0041-.2188-.0183-.318-.0653s-.1857-.1172-.252-.2047c-.4801-.5581-.8433-1.2069-1.068-1.908-.1879-.6296-.2928-1.2811-.312-1.938-.0188-.6339.0174-1.2682.108-1.896.09-.6.162-1.2.222-1.74.0537-.4965.0537-.9974 0-1.494-.0392-.4277-.2185-.8305-.51-1.146-.2537-.2811-.572-.4962-.9274-.6269s-.7373-.1729-1.1126-.1231c-.9258.1198-1.7863.5416-2.448 1.2-1.288 1.2-1.642 2.722-1.062 4.566.0711.1921.1077.3952.108.6-.0149.101-.0496.1981-.1021.2856s-.1218.1638-.2039.2244l-1.842 1.704c-.1288.1244-.3011.1933-.48.192-.0917-.0015-.1819-.0226-.2647-.062-.0828-.0393-.1562-.0959-.2153-.166-.5101-.5901-.8666-1.297-1.038-2.058-.2036-.8707-.2504-1.7708-.138-2.658.1232-.9725.4028-1.9187.828-2.802.4528-.9477 1.0867-1.7976 1.866-2.502z" fill="#516eb4"/><path d="m41.286 89.928c.0799-.0755.1742-.1341.2773-.1722.1031-.0382.2129-.0551.3227-.0498.1126.0016.2237.0258.3268.0711.1031.0454.196.111.2732.1929l1.848 2.004c.076.0818.1351.1778.1739.2825.0387.1047.0564.216.0519.3275-.0044.1116-.0309.2212-.0779.3224-.047.1013-.1136.1922-.1959.2676l-1.956 1.8c-.0818.0761-.1778.1352-.2824.1739-.1047.0388-.2161.0565-.3276.052-.1116-.0045-.2211-.031-.3224-.078s-.1922-.1135-.2676-.1959l-1.848-2.004c-.0768-.0813-.1366-.1772-.1758-.282-.0392-.1047-.0571-.2163-.0526-.328.0044-.1118.0312-.2216.0787-.3229.0474-.1013.1146-.1921.1977-.2671zm-12.84-12.09c.7016-.6557 1.4937-1.2073 2.352-1.638.815-.4119 1.6967-.676 2.604-.78.8709-.0961 1.7524-.0061 2.586.264.8856.3023 1.6775.8295 2.298 1.53.5192.5276.9272 1.1539 1.2 1.842.22.6036.3494 1.2365.384 1.878.0342.6246.0141 1.251-.06 1.872-.078.6-.15 1.2-.216 1.758-.0651.5254-.0832 1.0555-.054 1.584.0199.4751.1738.9348.444 1.326.1163.1794.1825.3865.192.6.0052.1052-.0137.2102-.0553.3069s-.1048.1826-.1847.2511l-1.728 1.602c-.1639.1486-.3789.2282-.6.222-.1097.0041-.2188-.0183-.318-.0653s-.1857-.1172-.252-.2047c-.4801-.5581-.8433-1.2069-1.068-1.908-.1879-.6296-.2928-1.2811-.312-1.938-.0188-.6339.0174-1.2682.108-1.896.09-.6.162-1.2.222-1.74.0537-.4965.0537-.9974 0-1.494-.0392-.4277-.2185-.8305-.51-1.146-.2537-.2811-.572-.4962-.9274-.6269s-.7373-.1729-1.1126-.1231c-.9258.1198-1.7863.5416-2.448 1.2-1.288 1.2-1.642 2.722-1.062 4.566.0711.1921.1077.3952.108.6-.0149.101-.0496.1981-.1021.2856s-.1218.1638-.2039.2244l-1.842 1.704c-.1288.1244-.3011.1933-.48.192-.0917-.0015-.1819-.0226-.2647-.062-.0828-.0393-.1562-.0959-.2153-.166-.5101-.5901-.8666-1.297-1.038-2.058-.2036-.8707-.2504-1.7708-.138-2.658.1232-.9725.4028-1.9187.828-2.802.4528-.9477 1.0867-1.7976 1.866-2.502z" fill="#fff" opacity=".6"/><path d="m163.464 131.79c-1.71-.978-8.91-5.142-11.358-6.558-.486-.276-.792-.456-.816-.474-1.217-.679-2.639-.892-4.002-.6-1.17.237-2.29.674-3.312 1.29-.168.096-.336.21-.498.318-2.766 1.746-5.142 4.494-7.122 8.274-2.016 3.682-3.098 7.802-3.15 12 0 3.976 1.06 6.766 3.18 8.37.215.16.439.306.672.438 1.986 1.128 11.946 6.9 12.168 7.026h.054c-.245-.134-.48-.287-.702-.456-2.124-1.6-3.184-4.388-3.18-8.364.052-4.198 1.134-8.318 3.15-12 2.092-4 4.63-6.866 7.614-8.598 2.84-1.64 5.292-1.854 7.356-.642z" fill="#516eb4"/><path d="m163.518 131.826c-2.064-1.2-4.516-.988-7.356.636-2.772 1.6-5.162 4.2-7.17 7.8l-12.192-7.062c1.884-3.366 4.11-5.844 6.672-7.458.162-.102.33-.222.498-.318 1.021-.617 2.142-1.052 3.312-1.284 1.362-.295 2.786-.082 4.002.6l.816.474c2.448 1.41 9.648 5.574 11.358 6.552z" fill="#000" opacity=".4"/><path d="m149.28 161.856h-.054c-.222-.126-10.2-5.898-12.168-7.026-.233-.132-.457-.278-.672-.438-2.12-1.6-3.18-4.388-3.18-8.364.051-4.198 1.133-8.319 3.15-12 .144-.282.294-.558.45-.822l12.186 7.038c-.15.264-.3.54-.444.816-2.016 3.682-3.098 7.802-3.15 12 0 3.976 1.06 6.764 3.18 8.364.223.161.458.305.702.432z" fill="#000" opacity=".3"/><path d="m158.148 28.8299c5.916-3.42 10.952-4.874 15.108-4.362 1.691.2021 3.324.745 4.8 1.596-.041-.0218-.081-.0458-.12-.072-1.428-.804-10.032-5.766-12-6.924-1.501-.8774-3.169-1.4332-4.896-1.632-4.16-.508-9.198.944-15.114 4.356-9.2 5.308-16.6 13.108-22.2 23.4s-8.37 20.798-8.31 31.518l12.186 7.038c-.084-10.728 2.686-21.236 8.31-31.524s13.036-18.086 22.236-23.394z" fill="#516eb4"/><path d="m177.96 25.998c-1.454-.81-3.052-1.3296-4.704-1.53-4.152-.512-9.188.942-15.108 4.362-9.2 5.304-16.6 13.104-22.2 23.4-.234.426-.462.858-.684 1.284l-12.216-7.05c.222-.426.45-.858.684-1.284 5.624-10.284 13.024-18.084 22.2-23.4 5.924-3.416 10.962-4.868 15.114-4.356 1.728.2008 3.395.7586 4.896 1.638 1.986 1.17 10.59 6.138 12.018 6.936z" fill="#000" opacity=".2"/><path d="m135.234 53.502c-5.164 9.876-7.706 19.954-7.626 30.234l-12.186-7.038c-.076-10.284 2.466-20.362 7.626-30.234z" fill="#000" opacity=".3"/><path d="m166.428 48.7739c-2.212-1.176-5.166-.716-8.862 1.38-.125 2.199-.578 4.367-1.344 6.432-.924 2.488-3.612 7.62-8.064 15.396-4.612 8.04-7.948 15.718-10.008 23.034-2.043 7.2231-3.081 14.6931-3.084 22.2001l.06 3.738 8.316 4.8 3.876 2.238-.066-3.744v-.048c.013-7.482 1.051-14.927 3.084-22.128 2.06-7.3161 5.398-14.9921 10.014-23.0281 4.448-7.776 7.134-12.91 8.058-15.402.923-2.4636 1.394-5.0733 1.392-7.704 0-3.58-1.124-5.968-3.372-7.164z" fill="#516eb4"/><path d="m167.214 66.3359c-1.376 2.864-3.664 7.092-6.864 12.684-4.62 8.04-7.958 15.718-10.014 23.0341-2.035 7.206-3.073 14.658-3.084 22.146v.096l.066 3.744-3.876-2.232-8.316-4.8-.06-3.744c.003-7.507 1.041-14.977 3.084-22.2001 2.06-7.316 5.396-14.994 10.008-23.034 3.2-5.6 5.492-9.826 6.876-12.678z" fill="#000" opacity=".3"/><path d="m169.8 55.9379c.001 2.6223-.468 5.2236-1.386 7.68-.258.702-.66 1.608-1.2 2.718l-12.18-7.032c.532-1.112.932-2.018 1.2-2.718.766-2.065 1.219-4.233 1.344-6.432 3.696-2.096 6.65-2.556 8.862-1.38s3.332 3.564 3.36 7.164z" fill="#000" opacity=".4"/><path d="m144.102 74.208-16.494 9.528c-.084-10.728 2.686-21.236 8.31-31.524s13.024-18.088 22.2-23.4c5.916-3.42 10.952-4.874 15.108-4.362s7.482 2.79 9.978 6.834c2.5 4.044 3.75 9.088 3.75 15.132-.025 3.509-.427 7.0051-1.2 10.428-.935 4.0945-2.197 8.1074-3.774 12-1.008 2.544-3.422 7.24-7.242 14.088-3.652 6.528-5.94 10.97-6.864 13.326-1.026 2.7966-1.787 5.683-2.274 8.622-.727 4.392-1.128 8.832-1.2 13.284l-17.058 9.852-.066-3.744c.003-7.507 1.041-14.977 3.084-22.2 2.06-7.316 5.398-14.992 10.014-23.028 4.448-7.776 7.134-12.91 8.058-15.402.914-2.4651 1.378-5.0747 1.368-7.704 0-3.6-1.122-5.988-3.366-7.164s-5.256-.684-9.036 1.476c-3.864 2.232-7.034 5.58-9.51 10.044-2.422 4.2419-3.724 9.03-3.786 13.914z" fill="#516eb4"/><path d="m156.132 132.498c3.06-1.772 5.672-1.882 7.836-.33s3.246 4.314 3.246 8.286c-.066 4.22-1.168 8.36-3.21 12.054-2.136 4.06-4.718 6.964-7.746 8.712s-5.6 1.82-7.716.216c-2.12-1.6-3.18-4.39-3.18-8.37.052-4.197 1.134-8.318 3.15-12 2.1-3.992 4.64-6.848 7.62-8.568z" fill="#516eb4"/></svg>