<svg fill="none" height="24" viewBox="0 0 24 24" width="24" xmlns="http://www.w3.org/2000/svg" xmlns:xlink="http://www.w3.org/1999/xlink"><clipPath id="a"><path d="m0 0h24v24h-24z"/></clipPath><g clip-path="url(#a)"><path d="m.00003757 11.9859c-.01020617 2.5644 2.06039243 4.6515 4.62482243 4.6617 1.18101.0047 2.31947-.4408 3.18358-1.2459l6.91946 3.1242c-.0481.2587-.0744.5209-.0789.7841-.0081 2.582 2.0784 4.6818 4.6605 4.69s4.6818-2.0784 4.69-4.6605c.0082-2.582-2.0783-4.6818-4.6604-4.69-1.5427-.0049-2.9885.7516-3.8641 2.0217l-6.50099-2.9354c.46176-1.115.46354-2.3674.00501-3.4838l6.49208-2.95035c1.4618 2.11432 4.3609 2.64317 6.4752 1.1813 2.1144-1.46188 2.6432-4.36091 1.1813-6.47524-1.4619-2.11432-4.361-2.64317-6.4753-1.181294-1.2591.870614-2.0097 2.304684-2.0073 3.835524.0042.26349.031.52609.0799.78503l-6.90147 3.13612c-1.86985-1.7558-4.809-1.66333-6.5648.20651-.812609.86547-1.26299327 2.0092-1.25859243 3.1963z" fill="#000"/></g></svg>