<svg fill="none" height="24" viewBox="0 0 24 24" width="24" xmlns="http://www.w3.org/2000/svg" xmlns:xlink="http://www.w3.org/1999/xlink"><clipPath id="a"><path d="m0 0h24v24h-24z"/></clipPath><g clip-path="url(#a)" fill="#000"><path d="m8.00192 21h-4.59098c-.22566-.0006-.40847-.1833-.40899-.409v-17.18202c.00057-.22565.18333-.40846.40899-.40898h4.59098c.82842 0 1.5-.67158 1.5-1.5 0-.828422-.67158-1.5-1.5-1.5h-4.59098c-1.88185.00220312-3.40678375 1.52719-3.40898688 3.40898v17.18202c.00220313 1.8818 1.52713688 3.4068 3.40898688 3.409h4.59098c.82842 0 1.5-.6716 1.5-1.5s-.67158-1.5-1.5-1.5z"/><path d="m22.684 8.81813-3.882-3.879c-.586-.58571-1.5359-.58547-2.1216.00051-.5857.58599-.5854 1.53581.0006 2.12152l3.4119 3.41104-13.59095.0279c-.82842 0-1.5.6716-1.5 1.5 0 .8285.67158 1.5 1.5 1.5l13.64605-.0249-3.467 3.467c-.5645.6063-.5305 1.5555.0758 2.1199.5763.5365 1.4693.5361 2.0452-.0009l3.879-3.879c1.7573-1.7574 1.7573-4.6066 0-6.36398v-.00005z"/></g></svg>