<svg fill="none" height="100" viewBox="0 0 100 100" width="100" xmlns="http://www.w3.org/2000/svg" xmlns:xlink="http://www.w3.org/1999/xlink"><clipPath id="a"><path d="m0 0h100v100h-100z"/></clipPath><g clip-path="url(#a)"><path d="m50 100c-8.8949-.002-17.6282-2.3768-25.2992-6.8795-7.671-4.5026-14.0021-10.9701-18.34009-18.7354-4.33804-7.7653-6.52604-16.5473-6.3383436-25.4402.1876966-8.8929 2.7442936-17.5747 7.4061236-25.15 4.66181-7.5754 11.26011-13.77 19.11431-17.94498 7.8541-4.17498 16.6799-6.179166 25.5669-5.8058575s17.5136 3.1105975 24.99 7.9295475c7.4763 4.81899 13.5319 11.54509 17.542 19.48469.2663.4903.4315 1.029.4858 1.5844.0542.5553-.0037 1.1158-.1702 1.6483-.1665.5326-.4382 1.0262-.7991 1.4517s-.8036.7742-1.3018 1.0254-1.0418.3998-1.5985.437c-.5567.0371-1.1152-.0379-1.6424-.2207-.5271-.1828-1.0122-.4696-1.4264-.8434s-.7492-.827-.9849-1.3327c-4.223-8.3616-11.1405-15.0562-19.6358-19.0033-8.4953-3.94705-18.0729-4.9163-27.1867-2.75127-9.1139 2.16507-17.2323 7.33797-23.0449 14.68397-5.8127 7.346-8.9803 16.4364-8.9917 25.8039-.0114 9.3674 3.1341 18.4655 8.9288 25.8256s13.9006 12.5528 23.0091 14.74c9.1086 2.1873 18.6885 1.2413 27.1934-2.6851s15.4386-10.6041 19.6819-18.9554c.5208-.9502 1.3912-1.6601 2.4266-1.9792 1.0355-.3191 2.1545-.2224 3.1198.2697.9653.4922 1.7009 1.341 2.0508 2.3664.35 1.0254.2867 2.1468-.1764 3.1264-4.1647 8.2434-10.5391 15.1665-18.4113 19.9963-7.8722 4.8297-16.9322 7.3757-26.1678 7.3537z" fill="#f9feff"/></g></svg>