<svg fill="none" height="300" viewBox="0 0 300 300" width="300" xmlns="http://www.w3.org/2000/svg"><path d="m149.717 299.983c78.77 0 142.626-36.867 142.626-82.344 0-45.478-63.856-82.345-142.626-82.345-78.7704 0-142.62618 36.867-142.62618 82.345 0 45.477 63.85578 82.344 142.62618 82.344z" fill="#fafafa"/><path d="m281.923 229.157c-1.001 1.308-1.894 2.695-2.672 4.147-1.494 2.79-4.643 13.18-5.493 16.205h-.564c.478-3.205 4.03-13.911 5.642-16.701.801-1.385 1.698-2.713 2.684-3.974 1-1.397 2.203-2.636 3.571-3.676.099-.068.13.161.086.217-1.06 1.277-2.244 2.455-3.254 3.782z" fill="#516eb4"/><path d="m282.984 227.681c1.157-.251 2.244-.753 3.185-1.472s1.712-1.637 2.258-2.687c1.748-2.982 3.589-5.462 3.552-6.249s-4.16 1.24-6.751 3.856-2.517 4.637-2.244 6.552z" fill="#516eb4"/><path d="m283.498 230.496c-.099-.62 1.339-1.816 4.147-2.424 2.809-.608 6.528-.322 6.72.068.192.391-3.316 2.567-6.311 2.877-2.994.31-4.469.037-4.556-.521z" fill="#516eb4"/><path d="m277.088 216.678c.471-.192 2.69 3.998 2.821 7.439.111 3.006-.199 4.655-.707 5.077-.003.039-.003.079 0 .118.098.54.144 1.088.136 1.636.058 1.102-.211 2.195-.775 3.143-.037.056-.08-.037-.074-.068.081-.973.291-1.928.31-2.907.01-.622-.029-1.244-.118-1.86-.719-.285-1.785-1.984-2.219-4.897-.459-3.236.161-7.489.626-7.681z" fill="#516eb4"/><path d="m278.582 237.08c-.162-.583 1.159-1.941 3.886-2.821 2.728-.88 6.466-.961 6.696-.583.229.378-3.044 2.877-5.995 3.478s-4.445.496-4.587-.074z" fill="#516eb4"/><path d="m279.394 231.947c.217-.353.54-.626.923-.782.436-.214.891-.388 1.358-.52.999-.267 2.024-.423 3.056-.465.112 0 .143.235.044.266-.949.292-1.916.484-2.877.738-.446.117-.882.272-1.302.465-.192.093-.39.192-.576.304-.186.111-.372.266-.564.229-.081-.018-.087-.18-.062-.235z" fill="#516eb4"/><path d="m278.166 236.869c.357-.162.729-.291 1.11-.385.377-.092.765-.131 1.153-.117.093 0 .124.186.031.217-.701.216-1.395.471-2.071.756-.319.139-.628.3-.924.483-.26.145-.475.36-.619.62-.118.205-.354.168-.335-.086.111-.788 1.072-1.216 1.655-1.488z" fill="#516eb4"/><path d="m276.003 240.694-.459.297c-.862-.266-2.759-2.48-3.565-5.108-.948-3.1-.62-5.821-.316-6.137s3.056 2.479 4.03 6.025c.477 1.596.583 3.28.31 4.923z" fill="#516eb4"/><g fill="#fff" opacity=".65"><path d="m281.923 229.157c-1.001 1.308-1.894 2.695-2.672 4.147-1.494 2.79-4.643 13.18-5.493 16.205h-.564c.478-3.205 4.03-13.911 5.642-16.701.801-1.385 1.698-2.713 2.684-3.974 1-1.397 2.203-2.636 3.571-3.676.099-.068.13.161.086.217-1.06 1.277-2.244 2.455-3.254 3.782z"/><path d="m282.984 227.681c1.157-.251 2.244-.753 3.185-1.472s1.712-1.637 2.258-2.687c1.748-2.982 3.589-5.462 3.552-6.249-.037-.788-4.16 1.24-6.751 3.856s-2.517 4.637-2.244 6.552z"/><path d="m283.498 230.496c-.099-.62 1.339-1.816 4.147-2.424 2.809-.608 6.528-.322 6.72.068.192.391-3.316 2.567-6.311 2.877-2.994.31-4.469.037-4.556-.521z"/><path d="m277.087 216.678c.471-.192 2.69 3.998 2.821 7.439.111 3.006-.199 4.655-.707 5.077-.003.039-.003.079 0 .118.098.54.144 1.088.136 1.636.058 1.102-.211 2.195-.775 3.143-.037.056-.08-.037-.074-.068.081-.973.291-1.928.31-2.907.01-.622-.029-1.244-.118-1.86-.719-.285-1.785-1.984-2.219-4.897-.459-3.236.161-7.489.626-7.681z"/><path d="m278.581 237.08c-.162-.583 1.159-1.941 3.886-2.821 2.728-.88 6.466-.961 6.696-.583.229.378-3.044 2.877-5.995 3.478s-4.445.496-4.587-.074z"/><path d="m279.394 231.947c.217-.353.54-.626.923-.782.436-.214.891-.388 1.358-.52.999-.267 2.024-.423 3.056-.465.112 0 .143.235.044.266-.949.292-1.916.484-2.877.738-.446.117-.882.272-1.302.465-.192.093-.39.192-.576.304-.186.111-.372.266-.564.229-.081-.018-.087-.18-.062-.235z"/><path d="m278.166 236.869c.357-.162.729-.291 1.11-.385.377-.092.765-.131 1.153-.117.093 0 .124.186.031.217-.701.216-1.395.471-2.071.756-.319.139-.628.3-.924.483-.26.145-.475.36-.619.62-.118.205-.354.168-.335-.086.111-.788 1.072-1.216 1.655-1.488z"/><path d="m276.003 240.694-.459.297c-.862-.266-2.759-2.48-3.565-5.108-.948-3.1-.62-5.821-.316-6.137s3.056 2.479 4.03 6.025c.477 1.596.583 3.28.31 4.923z"/></g><g fill="#516eb4"><path d="m285.953 245.349c.824.409 1.728.63 2.647.65.92.019 1.832-.165 2.672-.538 2.48-.961 4.829-1.575 5.183-2.071.353-.496-3.1-1.27-5.964-.936-2.864.335-3.782 1.6-4.538 2.895z"/><path d="m282.934 244.934c-.478-.18.415-2.43 2.077-3.887 1.661-1.457 3.477-2.003 3.75-1.916s-1.289 3.168-2.641 4.234c-1.351 1.067-2.876 1.687-3.186 1.569z"/><path d="m278.092 246.744c-.57-.087-.086-2.771 1.42-4.767 1.507-1.996 3.41-3.013 3.72-2.982s-.719 3.794-1.978 5.275c-1.258 1.482-2.771 2.53-3.162 2.474z"/><path d="m280.603 247.798c0-.577 2.702-.62 4.959.452 2.256 1.073 3.626 2.747 3.657 3.069s-3.019.434-5.579-.893c-1.711-.905-3.019-2.238-3.037-2.628z"/><path d="m287.974 244.996c-2.234.197-4.443.612-6.596 1.24l.273-.174c.457-.307.893-.647 1.301-1.017.437-.329.793-.753 1.042-1.239.031-.087-.093-.081-.136-.056-.492.312-.954.666-1.383 1.06-.397.31-.812.62-1.24.88-.576.391-1.19.725-1.804 1.066-.62.186-1.202.379-1.797.589.295-.268.563-.565.799-.886.124-.18.248-.366.36-.552.112-.145.189-.315.223-.496 0-.093-.136-.062-.18-.031-.292.263-.556.556-.787.874-.259.291-.532.568-.818.831-.304.272-.63.518-.974.738l-.341.179c-.527.23-1.711.775-2.535 1.16v.663c.812-.434 1.643-.831 2.48-1.184.836-.353 1.791-.738 2.361-.936h1.135c.416.009.831.052 1.24.13.465.087.905.248 1.357.347.075 0 .267-.074.162-.155-.388-.264-.824-.45-1.284-.545-.42-.107-.85-.173-1.283-.199.44-.142.88-.279 1.327-.409 2.343-.657 4.767-1.041 7.092-1.767.117-.018.117-.124.006-.111z"/><path d="m17.5557 229.157c1.0008 1.31 1.8943 2.699 2.6719 4.153 1.5002 2.79 4.6432 13.18 5.4987 16.205h.5641c-.4711-3.205-4.0295-13.911-5.6413-16.701-.8011-1.385-1.698-2.713-2.6843-3.974-.9982-1.403-2.2019-2.649-3.5707-3.694-.0992-.068-.124.161-.0806.217 1.0539 1.289 2.2317 2.467 3.2422 3.794z"/><path d="m16.4956 227.681c-1.1571-.251-2.2447-.754-3.1854-1.473-.9407-.718-1.7115-1.636-2.2575-2.687-1.74817-2.981-3.58934-5.461-3.55215-6.248.0372-.788 4.15965 1.24 6.75095 3.856s2.5169 4.637 2.2441 6.552z"/><path d="m15.987 230.496c.0992-.62-1.3452-1.817-4.1473-2.424-2.80204-.608-6.53398-.341-6.74475.068-.21078.409 3.31659 2.567 6.31085 2.876 2.9942.31 4.4882.038 4.5812-.52z"/><path d="m22.3912 216.678c-.4649-.193-2.6905 3.998-2.8206 7.439-.1116 3.006.1983 4.655.7067 5.077v.118c-.1032.539-.151 1.087-.1426 1.636-.058 1.102.2117 2.195.7749 3.143.0372.056.0806-.037.0744-.068-.0806-.973-.2914-1.928-.31-2.907-.0071-.622.0323-1.244.1178-1.86.7191-.285 1.7854-1.984 2.2193-4.898.4588-3.236-.155-7.488-.6199-7.68z"/><path d="m20.8972 237.079c.1612-.582-1.1592-1.94-3.8869-2.82s-6.4658-.961-6.6952-.583 3.0438 2.877 5.9947 3.478c2.9508.601 4.4448.496 4.5874-.075z"/><path d="m20.0852 231.946c-.2141-.352-.5358-.625-.9174-.781-.438-.214-.8944-.388-1.3639-.52-.9986-.267-2.0235-.423-3.0562-.465-.1116 0-.1426.235-.0434.266.9485.292 1.9218.484 2.8764.738.4467.117.8823.272 1.3019.465.1922.093.3905.192.5765.304.186.111.372.266.5641.229.0868-.019.0868-.18.062-.236z"/><path d="m21.3127 236.869c-.3572-.162-.7287-.291-1.1096-.385-.3771-.092-.7651-.131-1.1531-.117-.093 0-.1178.185 0 .216.7026.217 1.3936.47 2.0706.757.321.139.6318.3.9298.483.261.144.4759.359.62.62.1178.205.3533.168.3347-.087-.1178-.787-1.1034-1.215-1.6924-1.487z"/><path d="m23.4768 240.694.4587.297c.8617-.266 2.7587-2.48 3.5646-5.108.9485-3.1.6199-5.821.3161-6.137-.3037-.316-3.0562 2.479-4.0233 6.025-.4819 1.595-.5901 3.279-.3161 4.923z"/></g><g fill="#fff" opacity=".65"><path d="m17.5567 229.157c1.0007 1.31 1.8942 2.699 2.6718 4.153 1.5003 2.79 4.6433 13.18 5.4988 16.205h.5641c-.4712-3.205-4.0295-13.911-5.6413-16.701-.8011-1.385-1.698-2.713-2.6843-3.974-.9982-1.403-2.2019-2.649-3.5707-3.694-.0992-.068-.124.161-.0806.217 1.0538 1.289 2.2317 2.467 3.2422 3.794z"/><path d="m16.4966 227.681c-1.1571-.251-2.2447-.754-3.1854-1.473-.9408-.718-1.7115-1.636-2.2575-2.687-1.74819-2.981-3.58936-5.461-3.55217-6.248.0372-.788 4.15967 1.24 6.75097 3.856s2.5169 4.637 2.2441 6.552z"/><path d="m15.988 230.496c.0992-.62-1.3452-1.817-4.1473-2.424-2.80206-.608-6.534-.341-6.74477.068-.21078.409 3.31659 2.567 6.31087 2.876 2.9942.31 4.4882.038 4.5812-.52z"/><path d="m22.3912 216.678c-.4649-.193-2.6905 3.998-2.8206 7.439-.1116 3.006.1983 4.655.7067 5.077v.118c-.1032.539-.151 1.087-.1426 1.636-.058 1.102.2117 2.195.7749 3.143.0372.056.0806-.037.0744-.068-.0806-.973-.2914-1.928-.31-2.907-.0071-.622.0323-1.244.1178-1.86.7191-.285 1.7854-1.984 2.2193-4.898.4588-3.236-.155-7.488-.6199-7.68z"/><path d="m20.8972 237.079c.1612-.582-1.1592-1.94-3.8869-2.82s-6.4658-.961-6.6952-.583 3.0438 2.877 5.9947 3.478c2.9508.601 4.4448.496 4.5874-.075z"/><path d="m20.0862 231.946c-.2142-.352-.5358-.625-.9175-.781-.4379-.214-.8944-.388-1.3638-.52-.9987-.267-2.0235-.423-3.0562-.465-.1116 0-.1426.235-.0434.266.9485.292 1.9217.484 2.8764.738.4467.117.8823.272 1.3019.465.1921.093.3905.192.5765.304.186.111.3719.266.5641.229.0868-.019.0868-.18.062-.236z"/><path d="m21.3137 236.869c-.3572-.162-.7287-.291-1.1096-.385-.3771-.092-.7652-.131-1.1531-.117-.093 0-.1178.185 0 .216.7025.217 1.3936.47 2.0705.757.3211.139.6319.3.9299.483.261.144.4759.359.6199.62.1178.205.3534.168.3348-.087-.1178-.787-1.1035-1.215-1.6924-1.487z"/><path d="m23.4768 240.694.4587.297c.8617-.266 2.7587-2.48 3.5646-5.108.9485-3.1.6199-5.821.3161-6.137-.3037-.316-3.0562 2.479-4.0233 6.025-.4819 1.595-.5901 3.279-.3161 4.923z"/></g><path d="m13.5328 245.349c-.824.408-1.7278.63-2.6471.649-.91924.019-1.83149-.164-2.67188-.537-2.51069-.961-4.8354-1.575-5.18876-2.071s3.09962-1.271 5.96367-.936c2.86407.335 3.78157 1.6 4.54407 2.895z" fill="#516eb4"/><path d="m16.5453 244.934c.4773-.18-.4153-2.43-2.0767-3.887s-3.4778-2.003-3.7196-1.916 1.2895 3.168 2.6409 4.234c1.3514 1.067 2.864 1.686 3.1554 1.569z" fill="#516eb4"/><path d="m21.3872 246.744c.5765-.087.093-2.771-1.4196-4.767s-3.4096-3.013-3.7195-2.982c-.31.031.7191 3.794 1.9775 5.275 1.2585 1.482 2.7959 2.53 3.1616 2.474z" fill="#516eb4"/><path d="m18.876 247.798c.031-.577-2.7029-.62-4.9594.452-2.2565 1.073-3.6266 2.747-3.6576 3.069s3.0191.434 5.5793-.893c1.711-.905 3.0191-2.238 3.0377-2.628z" fill="#516eb4"/><path d="m11.505 244.996c2.2339.196 4.4432.612 6.596 1.24l-.2727-.174c-.4545-.293-.8874-.619-1.2957-.973-.4398-.328-.7983-.752-1.0477-1.24 0-.087.093-.081.1364-.056.4923.31.955.665 1.3825 1.06.3967.31.8121.62 1.2398.88.5827.391 1.1965.726 1.804 1.067.6199.186 1.2026.378 1.7978.589-.2954-.269-.5633-.566-.7997-.887-.124-.18-.248-.366-.3596-.552-.1127-.145-.1892-.315-.2232-.496 0-.092.1364-.061.1798-.03.2925.262.5564.555.7873.874.2666.285.5269.57.8183.83.3053.27.6307.517.9733.738l.3409.18c.5332.229 1.7172.775 2.5355 1.159v.663c-.8121-.434-1.6428-.83-2.4797-1.184-.8369-.353-1.7853-.744-2.4053-.942-.3781 0-.7563 0-1.1344 0-.4162.009-.8309.053-1.2399.13-.4587.087-.8989.248-1.3576.347-.0682 0-.2666-.074-.155-.155.3866-.266.8231-.452 1.2833-.545.4184-.107.846-.173 1.277-.199-.4401-.142-.8803-.278-1.3266-.409-2.3434-.657-4.7611-1.041-7.0858-1.766-.0806-.056-.0806-.162.031-.149z" fill="#516eb4"/><path d="m148.551 276.178c24.001 0 43.457-11.232 43.457-25.088s-19.456-25.089-43.457-25.089c-24 0-43.456 11.233-43.456 25.089s19.456 25.088 43.456 25.088z" fill="#e0e0e0"/><path d="m246.537 289.023c22.141 0 40.09-10.364 40.09-23.148 0-12.785-17.949-23.148-40.09-23.148-22.142 0-40.091 10.363-40.091 23.148 0 12.784 17.949 23.148 40.091 23.148z" fill="#e0e0e0"/><path d="m51.6383 289.023c22.1414 0 40.0905-10.364 40.0905-23.148 0-12.785-17.9491-23.148-40.0905-23.148-22.1413 0-40.0904 10.363-40.0904 23.148 0 12.784 17.9491 23.148 40.0904 23.148z" fill="#e0e0e0"/><path d="m271.922 227.632c-2.479-.881-3.719-.974-5.381-3.1-1.928-2.48-6.707-9.993-10.16-15.002s-11.314-10.644-13.855-12.374c2.43-7.668 4.339-19.552 4.339-19.552l-5.982-14.407-9.38-9.398s-2.783 5.771-5.281 18.033c-2.914 14.364-2.914 15.951-3.373 25.238-.235 5.151 2.226 7.401 9.814 13.384 8.152 6.434 13.669 10.817 21.337 17.017 3.342 2.696 5.512 4.407 7.235 6.893 1.172 1.68 1.686 4.457 1.829 6.819.142 2.362.142 3.565.08 6.361-.049 2.368-.415 3.099-.688 5.164-.18 1.333 1.19 2.442 3.385 2.033 3.242-.62 4.928-1.624 5.988-3.013 1.55-2.033 1.581-3.763 1.507-5.622-.099-2.648-.509-2.641-.261-6.615.089-1.823.373-3.631.85-5.393.923-3.205.564-5.567-2.003-6.466z" fill="#ffbda7"/><path d="m268.078 226.045.8.477s.837 1.668.781 5.356c-.049 2.97.056 6.342.13 10.173.056 2.728-.13 4.34-2.547 5.487-2.548 1.24-4.098.179-4.098.179s-.49 2.703-.812 4.836c-.323 2.132 1.506 3.05 4.19 2.48 3.181-.682 5.437-1.959 6.652-5.394.961-2.721.062-6.385.068-8.189.001-2.313.282-4.617.837-6.863.62-2.399 1.048-4.593-.223-5.932s-2.269-1.42-3.502-1.916c-1.234-.496-1.897-1.072-2.276-.694z" fill="#263238"/><path d="m243.381 196.983 16.831-43.872-29.924.409s-2.188 7.011-4.073 16.422c-1.661 8.294-3.068 16.521-3.068 16.521-.825 7.47-1.811 12.875.942 16.626 2.752 3.751 8.828 8.152 14.016 12.163 5.189 4.011 17.488 13.75 17.488 13.75s2.654-.447 5.58-3.23 3.174-4.668 3.174-4.668-3.72-6.112-6.311-10.365-9.001-10.905-14.655-13.756z" fill="#455a64"/><path d="m243.381 196.983 3.273-8.543-1.86-3.719-6.726-10.304s-5.623-1.289-7.743-8.158c-.515 5.549 4.575 9.454 4.575 9.454l-6.726 31.616c2.944 2.61 6.614 5.332 9.919 7.898 2.653 2.052 7.172 5.579 10.954 8.586.358-2.654.249-5.35-.323-7.966l5.58-9.95c-3.057-3.409-7.154-6.999-10.923-8.914z" fill="#37474f"/><path d="m225.353 273.45c2.089-2.046 3.881-3.335 5.071-4.742 3.292-3.893 5.009-6.199 4.079-13.174-.335-2.516-.682-4.122-1.469-8.883-.831-4.959-2.523-14.085-3.831-21.078-2.238-11.983-1.445-12.584.514-20.519 2.877-11.686 5.325-18.325 8.853-30.847-7.681-5.431-7.693-11.413-6.497-20.204 4.426 1.86 9.745 2.145 14.395 2.22 4.649.074 9.298.093 13.681-1.432 8.115 17.085 5.89 19.881-1.859 37.034-3.819 8.462-12.963 24.226-12.963 24.226 1.395 7.371 1.562 11.041.88 19.138-.372 4.432-1.333 12.95-1.14 18.734-.04 1.899.515 3.763 1.587 5.331 1.649 2.61 2.083 4.457 1.308 5.883-.936 1.736-2.753 2.244-4.396 3.974-2.913 3.099-3.632 6.714-8.592 8.635-5.765 2.263-14.072.068-9.621-4.296z" fill="#ffbda7"/><path d="m227.691 271.312c-.489 1.202 3.36 3.347 7.21 1.37 3.85-1.978 6.274-5.635 7.947-7.111 1.674-1.475 4.34-4.959 3.819-6.298l-.297-.49s.161-.322 1.016 1.147c.856 1.469 2.089 3.719.769 5.641s-2.895 2.288-4.575 3.968-2.976 4.829-5.387 6.788c-2.412 1.959-6.54 3.099-10.334 2.331-3.794-.769-3.993-2.319-3.918-3.243.111-1.394 1.742-2.653 3.75-4.103z" fill="#263238"/><path d="m234.807 186.196 3.261-11.779s-11.333-3.806-6.572-20.637l30.773.174s2.48 6.819 3.218 11.518c.62 3.887 1.01 6.955-.62 12.504-1.631 5.548-6.726 15.151-6.726 15.151-4.675 9.497-12.244 22.726-12.244 22.726.839 4.324 1.197 8.728 1.066 13.13-.303 6.646-1.593 22.113-1.593 22.113-1.67 1.133-3.583 1.859-5.585 2.117-2.001.258-4.036.043-5.939-.629-2.48-12.399-5.114-27.395-5.927-31.691-.812-4.296-1.004-6.249.472-12.219 1.549-6.224 6.416-22.478 6.416-22.478z" fill="#455a64"/><path d="m239.81 117.385c-3.18.359-4.495.409-7.532 2.306-3.038 1.897-17.91 24.474-17.91 24.474 1.797.96 3.887 1.221 5.865.732 3.539-.769 10.538-5.356 10.538-5.356z" fill="#f0997a"/><path d="m240.547 116.982c-3.409.124-6.05.669-8.474 2.585-2.424 1.915-9.187 12.076-9.187 12.076l5.009 9.726 3.527-1.971s9.032-20.488 9.125-22.416z" fill="#516eb4"/><path d="m230.932 147.178c0-1.122-1.054-5.877-.936-8.288-1.407-1.86-3.013-4.476-1.99-7.762.924-2.963 2.257-4.866 6.131-8.548 3.149-2.995 5.462-5.735 6.615-5.58 1.345.155 4.606-.719 4.606-.719l9.162-1.184c-.08 1.469 1.748 1.717 3.038 1.389 1.438-.366 2.802.403 4.885.793 1.519.292 3.354 9.002 1.525 14.184-1.544 4.34-3.552 11.097-3.893 14.878 1.81 4.619 4.897 10.539 3.719 12.281 0 0-6.087 4.749-19.769 4.556-13.682-.192-15.963-3.459-15.963-3.459-.973-1.76 1.482-8.084 2.87-12.541z" fill="#f0f0f0"/><path d="m237.51 138.89c1.953 2.318 9.342 5.455 14.556 1.159-1.339 5.139-12.808 5.269-14.556-1.159z" fill="#e0e0e0"/><path d="m237.887 114.483c2.41 1.071 5.119 1.264 7.656.546 2.408.033 4.812-.175 7.179-.62 0 0 3.595.583 5.963-.564 2.369-1.147 2.592-4.538 2.592-4.538s1.184 2.17-.546 3.72c3.36.62 4.736-2.914 3.943-5.226-1.079-3.143-2.728-3.887-2.48-7.731.248-3.8433.223-7.3707-3.316-8.6291-.258-.5669-.482-1.1486-.67-1.742-.319-.5833-.704-1.1282-1.147-1.6242-.963-1.0613-2.128-1.9191-3.428-2.5231-2.914-1.3886-6.199-1.4196-9.33-1.3266-3.899.1116-8.158 1.3886-10.371 4.8416-.436.6697-.711 1.4312-.804 2.2249-.092.7938 0 1.5981.271 2.3501.502 1.2027 1.488 2.2441 1.785 3.5336.415 1.7916-1.382 3.4468-2.393 4.6928-1.568 1.934-3.416 6.305.818 9.807-.289-.514-.441-1.093-.441-1.683s.152-1.169.441-1.683c.019 2.312.236 4.116 4.278 6.174z" fill="#37474f"/><path d="m235.885 96.6358c.155-.8617.378-1.6924.619-2.5293 1.674-4.4511 4.024-4.2775 5.611-3.0128.484.4041 1.066.6741 1.687.7829s1.26.0526 1.853-.163c.607-.2369 1.258-.3412 1.909-.306.651.0353 1.288.2094 1.866.5106 1.928.8245 3.155 2.6222 3.18 5.1329 0 0-.05 2.7525-.05 3.3349-.017.326.032.653.144.959.113.307.287.587.511.825.225.237.495.426.795.555.3.13.623.196.95.197.294-.447.688-.819 1.151-1.087.464-.268.983-.423 1.517-.455.534-.031 1.068.063 1.56.275.491.211.926.535 1.27.944 1.277 1.693.273 4.396-1.859 5.803-2.555 1.699-3.72.211-3.72.211l-.291 5.25v.155c-.075 1.432-.124 2.152 1.456 2.48-2.436 5.022-6.056 9.373-14.01 8.939-8.871-.477-.105-8.561-.105-8.561s1.661-.266 1.711-1.649l.105-2.157c-1.678.298-3.406.082-4.959-.62-2.015-1.017-3.757-3.1-3.385-10.687.054-1.718.216-3.4301.484-5.1272z" fill="#ffbda7"/><path d="m245.27 106.276-3.552.75c.038.237.123.464.251.667.128.204.296.379.493.516.198.136.421.232.656.28.236.048.478.048.714 0 .479-.112.897-.404 1.165-.817s.366-.913.273-1.396z" fill="#b16668"/><path d="m245.153 107.379c-.201-.118-.425-.19-.657-.211-.377-.03-.753.08-1.054.309-.302.228-.509.56-.583.931.311.118.649.144.974.075.292-.064.565-.198.795-.39s.41-.437.525-.714z" fill="#f28f8f"/><path d="m237.522 96.8342 2.126-.9919c-.055-.1446-.139-.2764-.247-.387-.107-.1106-.237-.1978-.38-.256s-.297-.0862-.452-.0822c-.154.0039-.306.0398-.446.1053-.289.1386-.514.384-.626.6846s-.103.6329.025.9272z" fill="#263238"/><path d="m246.684 96.8714 2.132.9795c.071-.1356.114-.2843.126-.4369.012-.1527-.007-.3063-.056-.4513-.05-.145-.128-.2784-.231-.3922-.102-.1137-.227-.2054-.366-.2694-.29-.1282-.617-.1405-.916-.0344s-.545.3224-.689.6047z" fill="#263238"/><path d="m243.361 98.229-1.525 6.354-3.298-1.891z" fill="#f0997a"/><path d="m243.763 113.132c6.299-.775 7.781-2.38 8.816-4.246 0 0-.304 2.758-2.653 3.98-2.48 1.277-6.231 1.742-6.231 1.742z" fill="#f0997a"/><path d="m247.725 100.765c-.18.551-.378-.391-1.004-.62-.626-.2298-1.469.291-1.24-.2608.064-.1343.154-.2546.266-.3537.111-.0991.24-.1751.381-.2235.141-.0485.29-.0685.439-.0588.148.0097.293.0489.427.1153.141.0415.273.1112.387.2049.114.0936.208.2093.276.3401.068.1305.11.2735.121.4215.012.147-.006.295-.053.435z" fill="#263238"/><path d="m237.422 99.6362c.056.5828.453-.3038 1.116-.4091.664-.1054 1.37.5889 1.296 0-.035-.1455-.098-.2826-.187-.4034-.088-.1208-.199-.2227-.327-.3s-.271-.1284-.419-.1503c-.147-.0218-.298-.014-.443.023-.152.0063-.301.0443-.438.1116-.136.0673-.257.1624-.354.2792-.098.1167-.17.2526-.212.3988s-.052.2995-.032.4502z" fill="#263238"/><path d="m262.455 117.496c3.335.986 5.48 1.928 6.311 5.883.794 3.751.961 14.203.186 19.54-.775 5.338-1.432 8.189-2.362 8.828-.93.638-7.736-7.824-7.582-7.985.155-.161-.619-13.018-.619-13.018s-.255-11.401 4.066-13.248z" fill="#ffbda7"/><path d="m258.444 127.923c1.402 1.561 2.693 3.218 3.863 4.96 2.758 4.06 3.856 6.478 3.967 9.261l-7.681-7.588c-.13-2.151-.229-3.837-.229-3.837s-.025-1.134.08-2.796z" fill="#f0997a"/><path d="m262.462 117.267c2.703.62 5.108 1.295 6.199 4.724 1.091 3.428 1.079 13.458.583 17.767-2.207-3.137-6.546-3.416-6.546-3.416l-4.619-6.299s.155-3.57.564-5.994 1.42-5.679 3.819-6.782z" fill="#516eb4"/><path d="m264.651 136.714c-.628-.184-1.271-.309-1.922-.372l-4.619-6.299c0-.471.075-1.19.149-2.293 1.465 1.627 2.818 3.352 4.048 5.164.848 1.224 1.631 2.492 2.344 3.8z" fill="#000" opacity=".15"/><path d="m231.986 112.295s.285-.161.341-.8c.056-.638-.031-1.072 0-1.779.031-.706.285-1.897.93-2.052s1.042 1.308 1.128 2.511c-.018 1.156.333 2.288 1.005 3.23.874 1.314 1.643 3.025.899 4.593z" fill="#f0997a"/><path d="m227.511 110.138c.184-1.196.269-2.405.254-3.614.096-.927.317-1.836.657-2.703.341-.949.577-2.182.905-2.319.329-.136.912.205.918.949 0 0 .415-.564.756-1.147s.564-1.302 1.085-1.4508.818.6758.657 1.2708-.285.936-.285.936.527.211.124 1.283c-.167.442-.392.859-.67 1.24-.046.659-.219 1.303-.508 1.897-.13.709-.338 1.401-.62 2.065.382.66.63 1.389.732 2.144.037.961-.106 1.191 1.053 2.294.782.744 2.09 1.575 2.846 2.61s1.277 2.145.434 3.577-1.5 2.48-2.288 3.961c-.589 1.129-1.159 2.616-3.595 7.966-1.86 4.154-2.034 4.668-2.976 6.2-1.314 2.12-2.814 4.86-6.354 6.453s-7.675 1.271-7.259-1.754c.489-3.621 1.438-6.485 2.975-8.481 1.252-1.631 2.637-3.155 4.141-4.556 1.687-1.705 2.982-3.453 5.047-5.871 2.064-2.418 3.428-4.693 3.39-5.474-.187-1.44-.549-2.851-1.078-4.203-.496-1.531-.732-1.469-.341-3.273z" fill="#ffbda7"/><path d="m236.283 118.005c-.224.697-.554 1.356-.979 1.952-.36.62-.726 1.284-1.073 1.928-.347.645-.7 1.296-1.029 1.959-.328.664-.682 1.606-.998 2.269.378-.62.763-1.562 1.122-2.207.36-.645.707-1.289 1.066-1.928l1.06-1.94.527-.967c.176-.33.28-.694.304-1.066z" fill="#f0997a"/><path d="m230.245 102.451c-.048.33-.125.656-.23.973-.099.31-.217.62-.341.924v.043.068c.031.172.052.346.062.521.013.18.013.36 0 .539-.031.356-.121.703-.266 1.029l-.037.087.037.062c.064.122.12.249.167.378.044.13.087.267.118.403.036.139.063.28.081.422 0 .142 0 .285.031.434.083-.288.115-.588.093-.887-.006-.152-.027-.304-.062-.452-.035-.15-.08-.297-.137-.44v.142c.194-.352.314-.74.354-1.141.023-.205.023-.413 0-.619-.008-.21-.041-.419-.1-.62v.105c.114-.324.197-.658.248-.998.042-.324.036-.652-.018-.973z" fill="#f0997a"/><path d="m232.458 102.06c-.099.162-.211.315-.335.459-.126.136-.261.264-.403.384h-.031v.056c-.084.388-.219.764-.403 1.116-.174.347-.411.658-.7.917l-.093.081.031.118c.053.203.089.41.105.62.013.227.013.454 0 .682-.017.228-.046.456-.087.682 0 .229-.093.452-.148.688.12-.198.224-.405.31-.62.087-.225.154-.457.198-.695.046-.239.066-.482.062-.725.006-.25-.021-.5-.081-.744l-.062.199c.173-.14.325-.303.453-.484.134-.174.246-.363.335-.564.089-.2.162-.408.217-.62.053-.203.088-.411.105-.62l-.043.081c.137-.147.258-.31.359-.484.092-.166.163-.343.211-.527z" fill="#f0997a"/><path d="m230.586 109.815c.027.438.156.862.378 1.24.216.37.488.705.806.992-.098-.189-.205-.374-.322-.552-.106-.179-.217-.353-.317-.533-.204-.371-.386-.754-.545-1.147z" fill="#f0997a"/><path d="m234.465 114.465c.282.711.409 1.474.372 2.238-.027.374-.104.743-.229 1.097-.135.363-.292.717-.471 1.06.306-.263.558-.583.744-.942.19-.368.304-.771.334-1.184.032-.409-.018-.821-.147-1.21s-.334-.75-.603-1.059z" fill="#f0997a"/><path d="m247.633 120.447c.4-1.038 1.037-1.967 1.86-2.715 1.011-1.079 3.174-4.606 3.515-5.115.341-.508.725-2.355 1.048-3.577.322-1.221.62-2.014 1.86-1.717 0-.074 0-.254.068-.669.111-.961.421-1.283.855-1.42.205-.045.416-.045.62 0 .045-.347.192-.672.422-.936.428-.459.849-.471 1.066-.26.217.21.192.83.254 2.281.085 1.087.085 2.18 0 3.267.228.412.326.883.279 1.351-.421 1.836-1.004 3.63-1.742 5.363-.359.787-2.672 4.482-3.248 5.839-.701 1.507.471 3.54 2.225 5.983 1.755 2.442 3.645 5.182 5.369 7.439 1.425 1.838 2.692 3.794 3.788 5.846 1.177 2.169 1.649 5.579 1.239 9.032-.341 2.969-4.122 2.659-7.296.577-3.174-2.083-4.767-4.142-5.827-6.342-1.345-2.817-2.455-5.741-3.317-8.741-1.86-6.051-2.387-7.904-2.678-9.126-.508-2.38-.973-4.5-.36-6.36z" fill="#ffbda7"/><path d="m257.75 116.281c-.44.825-.948 1.612-1.426 2.418-.477.806-.961 1.612-1.413 2.43-.245.41-.453.842-.62 1.289-.121.47-.121.963 0 1.432.252.915.647 1.783 1.172 2.573.502.8 1.053 1.556 1.599 2.319l1.643 2.281c1.097 1.519 2.207 3.025 3.378 4.488-1.115-1.506-2.182-3.044-3.26-4.575l-1.618-2.3c-.546-.762-1.091-1.519-1.581-2.312-.513-.762-.904-1.598-1.159-2.48-.112-.443-.112-.908 0-1.351.159-.428.352-.842.576-1.24.868-1.711 1.86-3.304 2.709-4.972z" fill="#f0997a"/><path d="m255.903 107.323c.05.075.086.159.104.247s.018.179.001.268c-.024.181-.057.361-.099.539l-.198 1.091c-.124.719-.23 1.451-.335 2.176-.05.353-.081.744-.149 1.079s-.223.682-.347 1.023l-.818 2.052c.406-.62.771-1.266 1.091-1.935.164-.339.305-.689.421-1.047.047-.184.08-.37.099-.558l.081-.552c.093-.731.186-1.469.254-2.207.037-.366.062-.731.087-1.097 0-.186 0-.372 0-.564.01-.095-.003-.191-.036-.28s-.087-.17-.156-.235z" fill="#f0997a"/><path d="m257.459 105.215c.23.081.254.323.236.534-.019.21-.05.434-.081.651-.049.442-.093.882-.13 1.32-.062.88-.08 1.761-.136 2.628-.109.852-.328 1.685-.651 2.48-.285.825-.62 1.643-.936 2.48.447-.763.844-1.554 1.19-2.368.401-.805.661-1.674.769-2.567.074-.892.068-1.767.074-2.647 0-.438 0-.878 0-1.32 0-.217 0-.44 0-.664-.004-.117-.029-.232-.074-.341-.027-.048-.064-.09-.109-.123-.045-.032-.097-.053-.152-.063z" fill="#f0997a"/><path d="m259.213 109.567c-.118.459-.217.918-.347 1.358s-.279.874-.453 1.302c-.375.862-.704 1.743-.985 2.641.266-.397.508-.8.731-1.24.229-.417.436-.845.62-1.283.177-.445.308-.906.391-1.377.074-.463.088-.934.043-1.401z" fill="#f0997a"/><path d="m250.696 135.883c-.756-2.542-1.512-5.083-2.231-7.637-.358-1.274-.652-2.565-.881-3.869-.275-1.292-.234-2.632.118-3.905l-.08.043h.061v-.062c.221-.63.553-1.216.98-1.729.415-.521.924-.974 1.333-1.519.824-1.079 1.556-2.213 2.294-3.348l.545-.849c.087-.149.18-.279.273-.434.078-.154.144-.314.198-.477.223-.651.372-1.308.533-1.966.145-.653.323-1.298.533-1.934.094-.309.291-.576.558-.756.29-.136.619-.158.924-.062h.087v-.087c.015-.504.102-1.003.26-1.481.091-.226.267-.406.49-.503.226-.09.474-.111.713-.062h.074v-.074c.042-.311.169-.605.366-.849.089-.126.205-.229.341-.301s.286-.112.44-.115c.071.008.138.035.194.079s.098.102.122.169c.054.148.086.302.093.459 0 .322 0 .651.037.98l.075 1.959c.047.65.047 1.302 0 1.952.275.513.353 1.108.217 1.674-.124.57-.292 1.135-.465 1.699-.347 1.116-.719 2.231-1.178 3.316.477-1.078.862-2.188 1.24-3.304.18-.558.353-1.122.49-1.699.154-.586.079-1.209-.211-1.741v.037c.064-.655.078-1.314.043-1.972l-.068-1.965c0-.328 0-.651 0-.985-.009-.17-.042-.337-.099-.496-.034-.089-.091-.166-.165-.224s-.163-.094-.257-.105c-.174-.001-.347.04-.502.12-.156.08-.289.196-.39.339-.221.263-.363.583-.409.923l.086-.062c-.267-.058-.546-.034-.799.069-.256.109-.458.313-.565.57-.104.243-.173.5-.204.762l-.081.769.093-.068c-.343-.108-.715-.084-1.041.068-.295.202-.513.497-.62.837-.218.643-.4 1.296-.546 1.959-.167.62-.322 1.308-.539 1.94-.053.154-.117.303-.192.447-.081.136-.18.285-.267.421l-.545.856c-.726 1.134-1.451 2.275-2.263 3.341-.397.54-.899.992-1.32 1.531-.441.526-.779 1.13-.998 1.78l.086-.05h-.062v.062c-.353 1.297-.39 2.66-.105 3.974.235 1.308.545 2.603.905 3.88.682 2.616 1.494 5.146 2.281 7.675z" fill="#f0997a"/><path d="m129.223 135.84c-.8 8.059-1.723 26.588-1.469 40.226.167 9.027.688 15.015 1.432 25.262.682 9.411 2.387 30.377 1.469 32.931-.917 2.554 9.522 5.901 10.607-2.852l.167-1.289c1.06-6.677 3.174-20.991 4.011-27.947 1.073-8.945-.973-14.059-.973-14.059l7.011-29.335 6.063-30.321z" fill="#ffa8a7"/><path d="m113.713 247.569c-.193 0-.453 2.12.619 3.006 1.24 1.017 4.774 2.672 9.429 1.996 4.656-.675 5.952-1.63 7.793-3.217s3.533-3.682 5.449-4.68c1.085-.565 4.959-.992 5.914-2.176.539-.682.31-2.864.31-2.864z" fill="#263238"/><path d="m141.429 230.118c.161.054.304.151.414.281.109.13.181.288.206.456.155.738.341 2.902.669 4.117.468 1.831.606 3.73.41 5.61-.236 1.389-4.278 2.306-6.311 3.1-2.034.793-3.565 2.665-5.654 4.444-2.422 2.007-5.437 3.162-8.58 3.286-3.595 0-7.668-1.072-8.617-2.728-.39-.837-1.37-2.547 3.931-5.102.998-.483 4.085-2.355 5.281-3.136 1.322-.832 2.554-1.798 3.677-2.883.789-.729 1.492-1.547 2.095-2.436.274-.516.483-1.063.62-1.631.191-.581.348-1.173.471-1.773.011-.171.057-.339.136-.491.079-.153.189-.287.323-.395.219-.092.462-.114.694-.062 1.22.127 2.425.376 3.596.744.487.1.924.365 1.24.75.174.301.261.644.254.992-.008.345.007.691.043 1.035.011.124.061.241.143.335.186.186.471.031.62-.112.516-.544.989-1.129 1.413-1.748.248-.316 1.376-.533 1.686-.781s.812-.335 1.066-.62z" fill="#37474f"/><path d="m131.176 248.139c.917-.781 1.488-1.277 2.312-2.114 0 0-5.511 3.986-8.059 2.294-1.649-1.091-.892-2.48-.861-2.895.031-.416-4.024-2.226-5.58-2.393-.44.254-.806.452-1.035.564-5.3 2.554-4.612 3.874-3.93 5.102.948 1.655 3.905 2.913 8.555 2.839 3.155-.185 6.168-1.375 8.598-3.397z" fill="#455a64"/><path d="m124.977 244.159c-3.298 1.376-1.86 1.971-.942 2.095.917.124 5.579-2.653 8.939-5.399 3.509-2.864 6.565-5.883 7.867-6.937.49-.391 1.011-.874 1.475-1.321-.099-.731-.179-1.394-.254-1.742-.025-.168-.096-.326-.206-.456-.109-.13-.252-.227-.414-.281l-.167 1.289c-.483.192-.978.353-1.482.484-.494.165-.926.476-1.239.892-.425.619-.897 1.204-1.414 1.749-2.889 3.738-8.865 8.245-12.163 9.627z" fill="#263238"/><path d="m124.264 245.758c.075.001.147-.025.204-.074.034-.028.062-.062.082-.1s.033-.08.037-.123c.004-.044-.001-.087-.013-.129-.013-.041-.034-.08-.062-.113-.796-.799-1.754-1.418-2.81-1.816-1.055-.398-2.184-.565-3.309-.49-.086.011-.165.055-.218.124-.054.068-.078.155-.067.242.004.043.018.084.039.122s.049.071.083.098c.034.026.074.046.115.057.042.011.086.014.129.008 1.016-.056 2.033.099 2.986.457.953.357 1.821.909 2.55 1.62.03.037.069.067.113.088.044.02.092.03.141.029z" fill="#f0f0f0"/><path d="m127.14 244.084c.075 0 .148-.026.205-.074.034-.027.062-.061.083-.099s.034-.08.039-.123.001-.087-.012-.129c-.012-.041-.033-.08-.06-.114-.777-.816-1.719-1.457-2.764-1.878-1.045-.422-2.168-.614-3.293-.564-.086.009-.165.052-.22.119-.054.068-.08.154-.071.24.003.043.016.085.036.123s.048.072.082.099c.033.027.072.047.113.059.042.012.085.016.128.011 1.017-.034 2.029.145 2.973.525.943.38 1.797.953 2.507 1.681.03.039.069.071.113.092.044.022.092.033.141.032z" fill="#f0f0f0"/><path d="m129.788 242.181c.077 0 .151-.026.211-.074.065-.057.106-.138.112-.225.007-.087-.02-.173-.075-.24-.795-.798-1.752-1.417-2.807-1.815-1.054-.398-2.181-.565-3.306-.491-.086.011-.164.055-.218.124-.053.068-.077.155-.067.242.005.043.018.084.039.122s.049.071.084.098c.034.026.073.046.115.057.041.011.085.014.128.008 1.015-.057 2.031.099 2.983.456.952.358 1.819.91 2.547 1.621.03.038.068.068.113.089.044.02.092.03.141.028z" fill="#f0f0f0"/><path d="m132.131 240.464c.076.005.152-.019.211-.068.034-.026.063-.059.084-.096.021-.038.035-.079.04-.122.006-.042.002-.086-.01-.127-.012-.042-.032-.08-.059-.114-.76-.831-1.69-1.489-2.726-1.932s-2.154-.659-3.281-.634c-.086.008-.166.049-.223.115s-.086.151-.08.238c.002.044.013.086.032.125s.046.074.079.103c.033.028.072.049.113.062.042.014.086.018.129.014 1.018-.014 2.028.185 2.965.583s1.781.987 2.478 1.729c.029.038.067.069.109.091.043.021.091.033.139.033z" fill="#f0f0f0"/><path d="m134.66 238.449c.061.001.122-.015.174-.047.053-.032.096-.078.123-.133.028-.055.04-.116.034-.178-.005-.061-.028-.119-.065-.168-1.24-1.656-4.135-2.796-6.577-2.586-.043.004-.085.016-.124.036-.038.02-.073.047-.1.08-.028.034-.049.072-.063.113-.013.041-.018.085-.014.128s.016.085.036.124c.02.038.047.072.08.1s.071.049.113.062c.041.013.084.018.128.015 2.2-.193 4.891.855 6 2.324.031.039.069.071.113.093.044.023.092.035.142.037z" fill="#f0f0f0"/><path d="m167.001 132.802c3.1 6.54 4.848 12.46 4.959 20.42.112 7.96-1.277 35.373-1.239 38.175.037 2.802 1.822 8.94 2.219 15.498.316 5.313-1.544 21.648-.905 30.054.146 1.357.216 2.721.211 4.086-3.931 2.578-8.679 1.556-8.679 1.556s-.403-1.935-1.011-4.693c-1.078-5.325-2.889-14.748-4.104-19.689-2.442-9.919-3.391-18.158-4.24-23.049-.769-4.389-5.802-25.888-8.245-40.915-10.539-5.381-10.061-16.477-10.061-16.477z" fill="#ffa8a7"/><path d="m162.476 258.597c.105 3.161.545 5.263 1.624 7.135 1.078 1.872 3.168 2.511 5.319 2.015s4.922-1.86 5.579-4.575.62-4.575.186-7.507z" fill="#263238"/><path d="m172.047 236.955c.744.261 1.122 4.34 1.525 8.599.441 4.556 1.24 5.945 1.606 9.683.453 4.265.118 5.685-1.432 8.22-1.55 2.536-6.894 4.959-9.404 1.19-2.052-3.056-1.996-5.908-1.699-10.154.262-3.368.332-6.748.211-10.123-.099-3.193-1.066-6.131-.298-6.466.54 1.829.868 3.719 1.302 3.595.267-.043.323-.489.285-1.32-.046-.363.049-.729.267-1.023.275-.241.621-.384.986-.409.874-.155 2.07-.391 2.95-.453.521-.031.23-.049.744-.062.515-.012 1.482-.142 1.934.106.267.149.286.421.348.719.062.297.124.719.204 1.017.037.117.192.371.316.359s.279-.558.267-.793c-.012-.236 0-.62 0-.918 0-.297-.043-1.017-.112-1.767z" fill="#37474f"/><path d="m175.029 253.768c.074.62.403 4.457-.719 5.164-1.122.706-1.798-2.449-1.798-2.449s-2.79-.924-6.925.769c.199.663-.483 2.82-1.599 2.337-1.116-.484-1.37-4.674-1.37-4.736-.267 4.073-.267 6.819 1.723 9.788 2.511 3.72 7.848 1.352 9.404-1.19s1.86-3.955 1.432-8.22c-.049-.422-.08-1.073-.148-1.463z" fill="#455a64"/><path d="m172.184 256.756c0 1.537 1.37 1.041 1.631-1.116.396-3.236-.341-6.354-.242-10.086-.403-4.253-.62-8.506-1.525-8.599 0 .738.056 2.313.056 2.313 0 .316.031 1.109.031 1.109.198 3.181.942 6.906.737 10.173-.179 2.877-.669 4.668-.688 6.206z" fill="#263238"/><path d="m166.065 257.227c-.254-1.519-.731-1.959-.967-4.835-.235-2.877-1.091-7.923-1.618-11.023-.143-.967-.917-3.434-.924-3.465-.558.254-.682 1.915-.291 3.837s.62 3.1.88 4.96c.67 3.682.688 7.575 1.135 9.701.446 2.127 2.039 2.325 1.785.825z" fill="#263238"/><path d="m165.712 257.295c.043-.006.085-.018.124-.037 2.148-.942 4.55-1.132 6.819-.539.043.022.091.034.139.035.048.002.097-.007.141-.027.044-.019.084-.048.116-.084s.055-.079.069-.126c.013-.046.016-.095.009-.143-.008-.047-.026-.093-.053-.133s-.063-.073-.105-.098c-.041-.025-.088-.04-.136-.044-2.419-.646-4.986-.44-7.272.582-.038.019-.072.045-.101.077-.028.032-.05.069-.064.109-.014.041-.019.083-.016.126.002.043.014.084.033.122.028.054.071.099.124.131.052.032.112.049.173.049z" fill="#f0f0f0"/><path d="m164.9 254.214c.035.007.071.007.106 0 .037 0 3.998-1.723 7.941-.713.041.011.085.014.127.008.043-.006.084-.02.121-.042s.069-.051.095-.086c.025-.034.043-.074.054-.115.02-.084.007-.173-.037-.247s-.115-.128-.199-.15c-4.172-1.066-8.208.676-8.369.75-.039.017-.074.042-.103.073s-.051.068-.066.107c-.015.04-.022.082-.021.125.001.042.011.084.029.123.03.057.077.104.135.134.057.03.123.042.187.033z" fill="#f0f0f0"/><path d="m173.455 250.991c.072-.008.139-.039.191-.089s.086-.116.095-.187c.01-.072-.004-.144-.04-.207-.036-.062-.092-.111-.159-.137-3.912-1.432-9.15.291-9.299.378-.038.018-.073.044-.101.076s-.049.07-.063.11c-.013.041-.018.084-.014.126.003.043.016.084.036.122.038.076.105.135.186.162.081.028.17.023.248-.014.037 0 5.157-1.686 8.803-.347.038.011.078.013.117.007z" fill="#f0f0f0"/><path d="m172.885 248.219c.061-.006.12-.028.169-.066.049-.037.087-.087.11-.144.03-.081.028-.17-.007-.249s-.099-.141-.179-.173c-4.309-1.655-8.822.62-8.983.707-.064.048-.109.118-.125.197s-.003.162.038.231c.041.07.105.122.182.147s.16.021.234-.011c0 0 4.407-2.201 8.418-.657.045.018.095.025.143.018z" fill="#f0f0f0"/><path d="m172.699 244.853c.06-.005.118-.027.166-.063s.085-.085.107-.141c.016-.04.024-.082.024-.125-.001-.042-.009-.085-.026-.124s-.041-.074-.072-.104c-.03-.03-.066-.053-.106-.069-4.029-1.624-8.871.694-9.038.787-.069.045-.118.115-.138.194-.021.08-.01.164.029.236.039.073.103.128.181.155.077.027.162.024.238-.008.043 0 4.742-2.269 8.486-.763.047.02.098.029.149.025z" fill="#ebebeb"/><path d="m160.821 232.368c1.649 1.593 9.59 1.277 11.487-1.24 0 0 .229-7.284.682-15.138.347-6.014.514-11.413-.856-18.765-1.37-7.353-.291-15.796.236-24.109.62-9.839 2.43-25.027-2.437-35.59l-2.69-5.375-38.02 3.72s-.874 7.928-1.86 25.937c-.985 18.009 2.957 62.278 2.957 62.278s.974 1.63 5.58 1.977c4.606.348 6.726-1.184 6.726-1.184s3.099-19.695 3.496-24.09-.155-10.607-1.097-12.653l3.819-17.977s4.339 21.12 4.773 23.879 1.86 14.029 3.354 20.259 3.85 18.071 3.85 18.071z" fill="#455a64"/><path d="m148.844 170.152-3.026-15.144c-4.244-1.061-8.021-3.493-10.743-6.919.304 4.414 6.441 8.599 8.599 9.188l2.913 13.179-1.531 17.68z" fill="#37474f"/><path d="m166.097 135.982c.916 1.177 1.688 2.459 2.3 3.819.62 1.351 1.14 2.745 1.556 4.172.41 1.425.729 2.874.954 4.34.239 1.463.363 2.943.372 4.426-.434-1.426-.799-2.846-1.171-4.259s-.751-2.827-1.166-4.216c-.415-1.388-.837-2.789-1.308-4.165-.471-1.377-.986-2.728-1.537-4.117z" fill="#37474f"/><path d="m166.276 140.942c.54 1.243.926 2.549 1.147 3.887.261 1.326.428 2.659.564 3.998.137 1.339.193 2.684.186 4.036.018 1.351-.08 2.701-.291 4.035-.211-1.339-.372-2.665-.527-3.992-.155-1.326-.285-2.653-.415-3.98-.13-1.326-.23-2.653-.329-3.986s-.192-2.659-.335-3.998z" fill="#37474f"/><path d="m168.942 194.943c-.354.267-.713.558-1.036.849-.322.292-.812.62-1.24.974-.674.529-1.436.938-2.25 1.209-.945.285-1.936.388-2.92.303-.683-.05-1.359-.176-2.015-.378-.458-.13-.929-.211-1.394-.341-.031 0-.069.05-.044.068.449.376.933.708 1.445.992.624.332 1.28.6 1.959.8 1.299.332 2.666.289 3.942-.124.969-.276 1.872-.747 2.654-1.382.388-.33.7-.741.914-1.203s.325-.966.325-1.476c.007-.148-.136-.44-.34-.291z" fill="#37474f"/><path d="m158.069 92.8604c.13-1.6118.849-3.2236.434-4.7796-.416-1.556-1.811-2.5665-2.616-3.9303-1.736-2.9322-.478-6.6518-.713-10.049-.211-2.9756-1.86-6.038-4.712-7.0051-.878-.2111-1.745-.4677-2.597-.7687-1.86-.8555-2.889-3.019-4.811-3.7195l-1.308-1.0043c-3.137 0-4.848.5269-6.738 1.7792-1.891 1.2522-3.329 3.3847-3.193 5.6475.099 1.6738 1.035 3.2732.837 4.9594-.143 1.2398-.868 2.2751-1.494 3.329-1.327 2.2379-2.288 4.9593-1.407 7.439.496 1.3825 1.556 2.5727 1.711 4.0357.155 1.4631-.546 2.7091-1.061 4.0048-.725 1.8597-1.097 3.9799-.198 5.7405.374.6817.841 1.3077 1.389 1.86 1.047 1.153 2.163 2.318 3.614 2.876 1.86.725 4.011.298 5.914-.372 1.903-.669 3.757-1.568 5.765-1.779 2.009-.211 3.906.242 5.865.205 1.959-.038 4.122-.732 5.009-2.4801.886-1.7482.155-3.9923.31-5.9885z" fill="#263238"/><path d="m141.945 60.8723c-1.972-.9857-5.784 2.5788-5.071 5.2011s7.209-4.0543 5.071-5.2011z" fill="#516eb4"/><path d="m88.0609 149.819c.6285.123 1.28.043 1.8598-.23.2385-.119.4666-.258.6819-.415.037-.031.0823-.05.1302-.056.0554.001.1092.019.155.05.3715.185.7764.293 1.1906.319.4143.025.8294-.032 1.2209-.17l3.0996-.831c.5784-.14 1.1381-.348 1.6676-.62.5287-.262.9495-.701 1.1902-1.24.1303-.322.1303-.682 0-1.004-.0953-.195-.2355-.365-.4091-.496-.5489-.385-1.1914-.614-1.8598-.663-1.9158-.249-3.8628.056-5.6103.88-.6509.304-1.2771.657-1.897.998-.5091.398-.9117.915-1.1716 1.506-.1795.314-.387.611-.62.887-.1487.167-.4959.304-.4835.564s.1922.298.3658.366c.1577.067.3218.119.4897.155z" fill="#f28f8f"/><path d="m97.1495 149.621c1.3515-.49 2.6719-.397 4.0725-.521.67-.042 1.333-.156 1.978-.341.14-.05.286-.08.434-.087.116.008.23.029.341.062.975.174 1.977.117 2.926-.167.792-.287 1.518-.732 2.132-1.308.813-.676 1.488-1.934 2.313-2.598 2.994-2.442 5.87-4.6 8.679-7.247.826-.756 1.63-1.525 2.411-2.306 5.282-5.145 6.77-6.602 7.439-7.848 4.303-7.768 8.128-16.502 8.128-16.502l3.025-18.3564c-6.156.7501-9.919.7377-13.887 10.8234-2.361 6.032-3.998 10.8-7.724 19.014-8.511 10.538-14.711 18.17-15.529 18.659-1.283.775-4.4262.75-7.1724 1.296-1.4444.285-2.8579.533-4.3395.694-.4303-.002-.8567.082-1.2547.246-.3979.164-.7595.405-1.0638.709l-2.4797 2.101c-.7129.62-1.5498.974-2.2875 1.538-.1008.067-.1855.156-.248.26-.5269 1.073 1.6862 1.141 2.1945 1.054.6441-.141 1.2686-.359 1.8598-.651.8706-.397 1.701-.876 2.4797-1.432.8074-.586 1.7937-.873 2.7897-.812l2.1635.161c.1302 0 .3038.081.2604.205s-.0558.068-.093.093c-1.1976.77-2.4537 1.446-3.7568 2.021-.2161.071-.4075.202-.5517.378-.248.378.0372.893.3968 1.172 1.3204 1.004 2.988.186 4.3642-.31z" fill="#ffa8a7"/><path d="m140.587 92.2961c-2.262.248-5.703.3658-7.718 1.959-2.014 1.5932-3.285 2.7153-5.579 8.0589-2.294 5.344-7.811 19.497-7.811 19.497l-7.117 8.629c1.48.848 2.904 1.788 4.265 2.815l3.435-2.555-2.083 4.228s1.698 1.755 2.039 2.976c0 0 7.774-7.731 8.568-8.592 1.023-1.066 1.9-2.263 2.61-3.559.892-1.63 7.073-14.816 7.073-14.816z" fill="#516eb4"/><path d="m140.587 92.2961c-2.262.248-5.703.3658-7.718 1.959-2.014 1.5932-3.285 2.7153-5.579 8.0589-2.294 5.344-7.811 19.497-7.811 19.497l-7.117 8.629c1.48.848 2.904 1.788 4.265 2.815l3.435-2.555-2.083 4.228s1.698 1.755 2.039 2.976c0 0 7.774-7.731 8.568-8.592 1.023-1.066 1.9-2.263 2.61-3.559.892-1.63 7.073-14.816 7.073-14.816z" fill="#000" opacity=".3"/><path d="m174.491 141.562c-.881.526-1.773 1.035-2.66 1.5-.452-1.904-1.087-3.76-1.897-5.542l-2.69-5.375-38.02 3.719s-.31 2.815-.775 8.909c-1.838-.892-3.584-1.962-5.214-3.193 6.671-14.289 6.851-25.628 6.851-32.62h32.087s.675 5.932 1.5 12.33c.824 6.398 10.818 20.272 10.818 20.272z" fill="#516eb4"/><path d="m166.029 126.851c-2.479-5.084-2.374-7.762-1.531-11.828.62-2.908 1.364-5.406 1.631-7.613.812-6.683-3.143-16.7381-4.52-16.1678-1.543.6757-6.075.1302-6.199.1178-3.099-.1488-5.052.0992-9.578.465v-.031l-4.723.6199c-2.313 1.5615-4.419 3.409-6.268 5.4987-3.515 3.8314-4.339 6.7884-4.705 11.0344-.192 2.207.707 8.059.583 15.449-.106 6.472-1.86 8.059-1.767 15.169 8.301 6.609 34.164 5.71 40.915-2.337.75-1.587.012-2.548-3.838-10.377z" fill="#fafafa"/><path d="m144.183 92.1038c-3.484 1.6738-10.061 5.5793-12.324 9.8502.837-3.4588 7.774-9.5465 7.774-9.5465 1.52-.4758 3.008-1.0452 4.457-1.7047z" fill="#516eb4"/><path d="m155.044 90.5416.081 1.3701c-.788 5.2448-1.015 10.5583-.676 15.8513.447 7.334 4.216 35.677 6.869 42.012 0 0 10.322-1.686 13.173-8.207-2.913-4.606-3.862-6.491-6.236-12.033-2.337-5.449-2.858-7.551-2.573-13.391.23-4.668 2.213-10.693.112-18.5972-1.283-4.854-2.418-6.565-2.418-6.565-1.543.5269-5.542.1116-8.332-.4402z" fill="#516eb4"/><path d="m154.499 82.6688c.439-1.1231 1.054-2.1693 1.822-3.0996.825-.8369 1.941-1.2894 2.908-1.9279l3.099-2.052c3.763-2.1821 3.404-7.1725 2.387-9.7452-2.263-5.7405-8.617-7.7118-12.51-7.7924-7.383-.1612-11.512 2.4797-12.151 6.2984-2.095.1798-3.099 1.432-4.128 3.1368-1.563 2.6347-1.457 7.0547-.651 9.9188.942 3.391 3.149 5.3933 4.86 6.8191 1.432 1.2027 2.802 2.0086 3.75 3.2609-.006.031 9.523-2.6967 10.614-4.8169z" fill="#37474f"/><path d="m142.1 82.8238c-1.079.2356-2.25-.4649-3.1-1.3142-1.407-1.4382-2.021-3.2422-1.308-5.04.471-1.2026 2.294-2.0519 3.472-1.3018s1.295 1.4444 1.767 2.3433c.471.8989 2.213 1.587 1.859-2.0334-.057-.8147-.226-1.6177-.502-2.3867 2.759-1.0662 4.414-4.2092 3.986-7.2345 1.011-1.5684 7.793-1.7978 9.473-.8865s3.322 2.6409 4.184 9.9188c.775 6.4968-.39 9.9188-1.891 11.0099-1.14.8245-2.696 1.463-5.145 2.2255l.236 3.8125s-3.329 7.7429-13.744 12.8513c-.335-2.939.682-9.981 2.802-12.6591l-.688-10.2969s-.161.7129-1.401.9918z" fill="#ffa8a7"/><path d="m151.839 73.0787c.192.5517-.273.6571-.818.8493-.546.1922-.98.3905-1.172-.155-.089-.263-.07-.5502.052-.7993.122-.2492.338-.4402.6-.5316s.549-.0758.8.0434c.25.1192.443.3323.538.5932z" fill="#263238"/><path d="m159.117 72.7501c-.068.5766-.533.4712-1.109.3968-.577-.0744-1.048-.0806-.98-.6571.046-.2668.194-.5054.411-.6666.218-.1611.489-.2323.758-.1988.268.0335.514.1691.685.3787.172.2096.256.4771.235.747z" fill="#263238"/><path d="m159.309 70.2704-2.288-1.184c.071-.1526.171-.2894.295-.4021.125-.1126.271-.1988.43-.2533s.327-.0762.494-.0637c.168.0125.331.0589.48.1363.305.1639.536.4381.645.7665.11.3284.09.6863-.056 1.0003z" fill="#263238"/><path d="m150.494 69.7063-2.195 1.6304c-.114-.1393-.197-.3002-.247-.473-.049-.1728-.062-.3539-.039-.532.023-.1782.083-.3497.174-.5042.092-.1544.215-.2885.36-.394.299-.2071.666-.2941 1.026-.2436.361.0506.69.2349.921.5164z" fill="#263238"/><path d="m151.573 78.9493 4.079.8555c-.061.2841-.181.5524-.351.7878-.17.2355-.388.4329-.639.5798-.25.1469-.529.2401-.817.2736-.289.0335-.581.0066-.859-.079-.253-.0633-.491-.1766-.7-.3332-.208-.1565-.384-.3531-.515-.5783-.132-.2252-.217-.4745-.251-.7331s-.016-.5215.053-.7731z" fill="#b16668"/><path d="m152.317 79.718c-.255-.0011-.507.0473-.744.1426.061.3627.227.6994.479.9675.251.2681.577.4557.935.5389.429.1079.88.0928 1.302-.0434-.093-.4539-.341-.8618-.7-1.1544s-.808-.452-1.272-.4512z" fill="#f28f8f"/><path d="m153.897 71.6405.453 6.1125 3.521-2.3372z" fill="#f28f8f"/><path d="m154.35 77.7529 3.725-.4216-.204-1.9155z" fill="#b16668"/><path d="m158.138 85.2291c-1.556 0-5.326.9423-8.059 1.4631-2.734.5207-4.011-1.0973-4.96-2.4363 1.011 2.0085 1.779 2.616 2.536 3.05 1.673.9609 3.298 1.1716 7.259.7935 1.673-.4478 3.279-1.1126 4.78-1.9776.564-.3533-.013-.8927-1.556-.8927z" fill="#f28f8f"/><path d="m163.374 90.9758c1.563-1.68 3.887-3.0376 5.617-4.7424 3.488-3.578 6.773-7.349 9.838-11.295l1.469-20.7861 8.165 4.6433s.62 10.3031.868 16.8867c.217 5.164.266 5.2384-1.947 8.2636-1.984 2.7153-17.544 19.1371-20.389 24.7471-.688 1.352-1.903-.719-2.145-1.128-1.909-3.323-4.092-8.8649-1.476-16.5892z" fill="#ffa8a7"/><path d="m187.055 40.3156c.072.0043.143.0189.211.0434.214.0936.388.2607.49.4712.068.1302.111.2665.173.3905.032.0634.069.1237.112.1798.068.0868.124.1798.186.2728 1.035 1.4473 2.176 2.815 3.416 4.0915.375.2908.778.5441 1.202.7563.1.5223.024 1.063-.217 1.5374-.292.5488-.636 1.0678-1.029 1.5498 0 0-4.017-3.2546-4.891-6.0691l-.037-.1053c-.124-.4154-.242-.8307-.335-1.2399-.061-.1733-.092-.3556-.093-.5393.024-.2257.063-.4494.118-.6695.032-.193.12-.3721.254-.5146.121-.107.279-.1626.44-.155z" fill="#f28f8f"/><path d="m191.6 49.6083s-2.97-3.8125-4.073-5.4491c-1.104-1.6366-2.102-3.0996-2.126-4.5006-.044-1.9528-1.414-4.1907-2.784-3.2546-.378.7067-.248 1.8039-.378 3.2422-.22 1.1514-.57 2.2744-1.042 3.3475-.731 2.0768-1.06 2.2752-1.047 4.2775.012 2.0024.465 2.8083.149 6.8192l8.22 5.8521c-.143-4.3395-.31-4.5131.985-6.3047.785-1.2966 1.485-2.6426 2.096-4.0295z" fill="#ffa8a7"/><path d="m209.169 34.3707 1.482.4277c4.42-4.2465 8.121-16.9859 6.664-22.9372l-1.481-.4277-7.439 7.1539s.155.6199.347 1.7048l1.171-1.1221c.056.2418.174.7687.31 1.5498l4.873-4.6742c-.026 1.5485-.2 3.091-.521 4.606-.556 2.752-1.468 5.4196-2.715 7.9351-.411.8222-.888 1.61-1.426 2.3557-.459.6199-.855 1.0662-1.085 1.3266-.062.6757-.118 1.3824-.18 2.1016z" fill="#516eb4"/><path d="m209.851 19.0151s.155.62.347 1.7048l6.255-6.0008c.199 2.129.056 4.2762-.422 6.3604-.555 2.7519-1.468 5.4195-2.715 7.935-.411.8223-.888 1.6101-1.426 2.3557-.459.6199-.855 1.0663-1.085 1.3266-.037.6758-.093 1.3825-.155 2.1016 4.42-4.2465 8.121-16.9859 6.664-22.9372z" fill="#516eb4"/><path d="m209.851 19.0151s.155.62.347 1.7048l6.255-6.0008c.199 2.129.056 4.2762-.422 6.3604-.555 2.7519-1.468 5.4195-2.715 7.935-.411.8223-.888 1.6101-1.426 2.3557-.459.6199-.855 1.0663-1.085 1.3266-.037.6758-.093 1.3825-.155 2.1016 4.42-4.2465 8.121-16.9859 6.664-22.9372z" fill="#fff" opacity=".4"/><path d="m217.314 11.8612-7.47 7.1601-1.482-.4339 7.47-7.1539z" fill="#516eb4"/><path d="m217.314 11.8612-7.47 7.1601-1.482-.4339 7.47-7.1539z" fill="#fff" opacity=".6"/><path d="m199.678 59.8806c-.279-1.1469.192-2.4797 1.494-3.7196 2.604-2.4797 7.513-3.7195 10.973-2.6966 1.624.4773 2.64 1.3452 2.988 2.3991.003.0205.003.0414 0 .062.018.0505.032.1023.043.1549l.366 1.4817c0 .0557 0 .1053.031.1549.002.0206.002.0414 0 .062.18 1.0973-.316 2.3371-1.538 3.5088-2.597 2.4797-7.513 3.7195-10.972 2.6967-1.73-.5084-2.765-1.4693-3.05-2.6099z" fill="#516eb4"/><path d="m199.678 59.8806c-.279-1.1469.192-2.4797 1.494-3.7196 2.604-2.4797 7.513-3.7195 10.973-2.6966 1.624.4773 2.64 1.3452 2.988 2.3991.003.0205.003.0414 0 .062.018.0505.032.1023.043.1549l.366 1.4817c0 .0557 0 .1053.031.1549.002.0206.002.0414 0 .062.18 1.0973-.316 2.3371-1.538 3.5088-2.597 2.4797-7.513 3.7195-10.972 2.6967-1.73-.5084-2.765-1.4693-3.05-2.6099z" fill="#000" opacity=".3"/><path d="m207.885 64.1455c-1.59.2959-3.226.2388-4.792-.1674-.527-.1517-1.031-.3727-1.5-.6571l-1.445-5.8893c.283-.469.627-.8984 1.023-1.277 1.196-1.0871 2.616-1.8977 4.16-2.3743z" fill="#516eb4" opacity=".7"/><path d="m210.91 53.2039c.419.0569.833.1418 1.24.2541 1.624.4774 2.641 1.3453 2.988 2.3991.004.0205.004.0415 0 .062.018.0506.033.1024.043.155l.366 1.4816c0 .0558 0 .1054.031.155.003.0206.003.0414 0 .062.18 1.0973-.316 2.3371-1.537 3.5088-.302.2889-.625.5541-.967.7935z" fill="#000" opacity=".2"/><path d="m215.002 57.6612c.049-.1295.091-.262.124-.3968 0-.0372 0-.0681 0-.1053.025-.1101.042-.2221.049-.3348.003-.0351.003-.0703 0-.1054.013-.1361.013-.273 0-.4091-.008-.136-.029-.2709-.062-.403.003-.0392.003-.0786 0-.1178-.025-.0907-.056-.1797-.093-.2665l-.056-.1364c-.038-.0852-.082-.168-.13-.248l-.068-.1178c-.075-.115-.158-.2247-.248-.3285l-.093-.0992c-.068-.0769-.14-.1494-.217-.217l-.149-.124-.105-.093-.167-.1178-.093-.062c-2.127-1.5002-4.731-1.5374-7.44-.8678-2.709.6695-5.027 1.9093-6.199 4.234-.012.0261-.026.051-.043.0744-.028.0666-.061.1308-.099.1922l-.056.1426c-.019.0552-.042.1091-.068.1612-.038.1115-.069.2169-.1.3223-.007.0359-.017.0712-.031.1054-.029.137-.05.2757-.062.4154-.003.0412-.003.0827 0 .1239-.006.0971-.006.1944 0 .2914v.1364c0 .0434.031.1984.05.2976v.0991c.07.2693.181.5264.329.7626l.049.0805c.068.093.137.1922.217.2852.017.0256.038.0486.062.0682.094.1124.198.2161.31.31.129.1151.265.2208.409.3161.13.0868.273.1674.422.248l.099.0496.422.1922.111.0434c.18.0743.372.1363.577.1983 3.459 1.0043 8.375-.1983 10.972-2.6904.149-.1488.285-.2976.416-.4402l.086-.1054c.099-.1099.19-.2258.273-.3471l.075-.1054c.089-.128.172-.2604.248-.3968v-.0434c.081-.1485.153-.3017.217-.4587.018-.0118.04-.0162.062-.0124z" fill="#516eb4"/><path d="m215.002 57.6612c.049-.1295.091-.262.124-.3968 0-.0372 0-.0681 0-.1053.025-.1101.042-.2221.049-.3348.003-.0351.003-.0703 0-.1054.013-.1361.013-.273 0-.4091-.008-.136-.029-.2709-.062-.403.003-.0392.003-.0786 0-.1178-.025-.0907-.056-.1797-.093-.2665l-.056-.1364c-.038-.0852-.082-.168-.13-.248l-.068-.1178c-.075-.115-.158-.2247-.248-.3285l-.093-.0992c-.068-.0769-.14-.1494-.217-.217l-.149-.124-.105-.093-.167-.1178-.093-.062c-2.127-1.5002-4.731-1.5374-7.44-.8678-2.709.6695-5.027 1.9093-6.199 4.234-.012.0261-.026.051-.043.0744-.028.0666-.061.1308-.099.1922l-.056.1426c-.019.0552-.042.1091-.068.1612-.038.1115-.069.2169-.1.3223-.007.0359-.017.0712-.031.1054-.029.137-.05.2757-.062.4154-.003.0412-.003.0827 0 .1239-.006.0971-.006.1944 0 .2914v.1364c0 .0434.031.1984.05.2976v.0991c.07.2693.181.5264.329.7626l.049.0805c.068.093.137.1922.217.2852.017.0256.038.0486.062.0682.094.1124.198.2161.31.31.129.1151.265.2208.409.3161.13.0868.273.1674.422.248l.099.0496.422.1922.111.0434c.18.0743.372.1363.577.1983 3.459 1.0043 8.375-.1983 10.972-2.6904.149-.1488.285-.2976.416-.4402l.086-.1054c.099-.1099.19-.2258.273-.3471l.075-.1054c.089-.128.172-.2604.248-.3968v-.0434c.081-.1485.153-.3017.217-.4587.018-.0118.04-.0162.062-.0124z" fill="#fff" opacity=".8"/><path d="m203.472 56.6755-.558-2.2752c.892-.5077 1.847-.8974 2.839-1.1592l.949 3.8559.8 5.3562c-1.593.296-3.231.2389-4.799-.1674-.204-.062-.396-.124-.576-.1984l-.112-.0434-.421-.1922-.1-.0496-.291-.1673z" fill="#fff" opacity=".3"/><path d="m209.348 56.0121-.812-3.3166c1.814-.2144 3.645.2252 5.164 1.2399l.093.062.167.1178.106.0929c.049.0434.105.0806.149.124.077.0676.149.1401.217.217l.093.0992c.09.1038.172.2136.248.3286l.068.1177c.048.0801.091.1629.13.248l.056.1364c.036.0868.067.1759.093.2666.003.0392.003.0785 0 .1177.033.1321.054.267.062.403.012.1361.012.273 0 .4091.003.0351.003.0704 0 .1054-.008.1128-.024.2247-.05.3348v.1054c-.033.1347-.074.2673-.124.3967-.003.0123-.003.025 0 .0372-.063.157-.136.3102-.217.4588v.0434c-.076.1363-.159.2687-.248.3967l-.074.1054c-.084.1213-.175.2373-.273.3472l-.087.1053c-.13.1426-.266.2914-.415.4402-.305.2836-.628.5466-.967.7873z" fill="#516eb4" opacity=".15"/><path d="m202.058 54.7724c-.057-.3893-.01-.7867.137-1.1517.147-.3649.389-.6842.7-.9251.827-.7151 1.813-1.2239 2.876-1.4847 1.062-.2607 2.171-.266 3.236-.0155.365.0704.708.2284.998.4606.291.2322.521.5315.67.8723v.0372c.002.0267.002.0537 0 .0805l.316 1.2895v.0868c.039.3717-.014.7474-.153 1.0942-.14.3468-.362.6543-.647.8957-.831.7126-1.817 1.2198-2.88 1.4804s-2.173.2674-3.239.0198c-.391-.075-.755-.2538-1.054-.5177s-.521-.6032-.644-.9825c-.031-.1178-.279-1.1282-.316-1.2398z" fill="#516eb4"/><path d="m202.058 54.7724c-.057-.3893-.01-.7867.137-1.1517.147-.3649.389-.6842.7-.9251.827-.7151 1.813-1.2239 2.876-1.4847 1.062-.2607 2.171-.266 3.236-.0155.365.0704.708.2284.998.4606.291.2322.521.5315.67.8723v.0372c.002.0267.002.0537 0 .0805l.316 1.2895v.0868c.039.3717-.014.7474-.153 1.0942-.14.3468-.362.6543-.647.8957-.831.7126-1.817 1.2198-2.88 1.4804s-2.173.2674-3.239.0198c-.391-.075-.755-.2538-1.054-.5177s-.521-.6032-.644-.9825c-.031-.1178-.279-1.1282-.316-1.2398z" fill="#000" opacity=".3"/><path d="m206.745 57.5806c-.887.1637-1.799.1319-2.672-.093-.292-.0826-.571-.2035-.831-.3596l-.924-3.7195c.157-.2647.351-.5049.577-.7129.666-.6054 1.458-1.0562 2.318-1.3205z" fill="#516eb4" opacity=".7"/><path d="m208.326 51.0527c.231.0278.459.0755.682.1426.365.0703.708.2284.998.4606.291.2322.521.5315.67.8723v.0372c.002.0267.002.0537 0 .0805l.316 1.2895v.0868c.039.3717-.014.7473-.153 1.0942-.139.3468-.362.6543-.647.8957-.17.1582-.35.3053-.539.4402z" fill="#000" opacity=".2"/><path d="m202.034 54.6236c-.31-1.6614 3.199-5.6165 3.199-5.6165s4.959 1.8598 5.443 3.4964c0 .0681.037.1363.049.2045.003.0123.003.025 0 .0372.027.3705-.037.7419-.186 1.0822-.149.3402-.379.639-.669.8706-.83.7139-1.817 1.2218-2.88 1.4825s-2.173.2668-3.239.0177c-.364-.0702-.706-.2284-.996-.4606-.289-.2323-.518-.5317-.665-.8722 0 0 0 0 0-.0372s-.044-.1364-.056-.2046z" fill="#516eb4"/><path d="m202.034 54.6236c-.31-1.6614 3.199-5.6165 3.199-5.6165s4.959 1.8598 5.443 3.4964c0 .0681.037.1363.049.2045.003.0123.003.025 0 .0372.027.3705-.037.7419-.186 1.0822-.149.3402-.379.639-.669.8706-.83.7139-1.817 1.2218-2.88 1.4825s-2.173.2668-3.239.0177c-.364-.0702-.706-.2284-.996-.4606-.289-.2323-.518-.5317-.665-.8722 0 0 0 0 0-.0372s-.044-.1364-.056-.2046z" fill="#fff" opacity=".8"/><path d="m203.757 56.198c-.261-.0722-.513-.1763-.75-.3099-.489-2.0396 2.226-6.8874 2.226-6.8874s.818 5.7467 1.196 7.2965c-.887.165-1.799.1311-2.672-.0992z" fill="#fff" opacity=".3"/><path d="m210.675 52.4972c0 .0682.037.1364.05.2046.003.0122.003.025 0 .0372.026.3705-.038.7419-.187 1.0821-.149.3403-.378.6391-.669.8707-.194.177-.401.3387-.62.4835-.334-1.3638-4.048-6.1992-4.048-6.1992s4.972 1.9031 5.474 3.5211z" fill="#516eb4" opacity=".15"/><path d="m184.086 26.8757c-.539-2.1945.372-4.7362 2.858-7.1229 4.959-4.761 14.357-7.0671 20.972-5.1454 3.304.9609 5.294 2.7959 5.827 4.9594l.62 2.6161c.54 2.1945-.372 4.7362-2.858 7.1229-4.959 4.761-14.357 7.0671-20.972 5.1454-3.304-.9609-5.294-2.7959-5.827-4.9594-.087-.4154-.514-2.1573-.62-2.6161z" fill="#516eb4"/><path d="m184.086 26.8757c-.539-2.1945.372-4.7362 2.858-7.1229 4.959-4.761 14.357-7.0671 20.972-5.1454 3.304.9609 5.294 2.7959 5.827 4.9594l.62 2.6161c.54 2.1945-.372 4.7362-2.858 7.1229-4.959 4.761-14.357 7.0671-20.972 5.1454-3.304-.9609-5.294-2.7959-5.827-4.9594-.087-.4154-.514-2.1573-.62-2.6161z" fill="#000" opacity=".3"/><path d="m186.077 20.6765 3.292 13.4152c-2.592-1.0291-4.166-2.6719-4.637-4.5875-.112-.4339-.54-2.1759-.62-2.616-.478-1.9094.142-4.0915 1.965-6.2117z" fill="#516eb4" opacity=".7"/><path d="m201.661 34.4327c-2.876.7328-5.864.9199-8.809.5517l-4.098-16.7007c2.438-1.6907 5.171-2.9083 8.059-3.5894z" fill="#516eb4" opacity=".7"/><path d="m206.937 14.3781c.328.0743.657.1549.979.2479 3.304.9609 5.294 2.7959 5.827 4.9594l.62 2.6161c.54 2.1945-.372 4.7362-2.858 7.1229-.241.2294-.496.4526-.756.6695z" fill="#000" opacity=".2"/><path d="m201.018 31.8142c8.19-2.01 13.888-7.4725 12.728-12.2007-1.161-4.7282-8.74-6.9318-16.93-4.9217-8.19 2.01-13.888 7.4725-12.727 12.2007 1.16 4.7283 8.74 6.9318 16.929 4.9217z" fill="#516eb4"/><path d="m201.018 31.8142c8.19-2.01 13.888-7.4725 12.728-12.2007-1.161-4.7282-8.74-6.9318-16.93-4.9217-8.19 2.01-13.888 7.4725-12.727 12.2007 1.16 4.7283 8.74 6.9318 16.929 4.9217z" fill="#000" opacity=".15"/><path d="m185.605 26.5223c.112.4436.303.8635.564 1.2399.167-1.3701 1.023-2.8393 2.479-4.2527 2.607-2.3267 5.769-3.9428 9.181-4.6928 3.72-.9051 7.359-.9361 10.291-.0806 1.965.5703 3.397 1.4754 4.185 2.6099.054-.4579.027-.9218-.081-1.3701-.421-1.7234-2.108-3.0996-4.742-3.8621-3.391-.7726-6.915-.7434-10.292.0852-3.377.8287-6.514 2.434-9.162 4.6882-1.983 1.9156-2.845 3.9117-2.423 5.6351z" fill="#516eb4"/><path d="m203.559 15.5249c1.328.0489 2.645.2571 3.924.6199 2.634.7687 4.339 2.1388 4.742 3.8622.108.4482.135.9121.081 1.37-.788-1.1345-2.22-2.0396-4.185-2.6099-1.276-.3659-2.591-.5741-3.918-.6199z" fill="#000" opacity=".1"/><path d="m197.445 18.9283c-2.924.7174-5.66 2.0557-8.021 3.9241l-.62-2.6222c2.357-1.8565 5.087-3.1843 8.003-3.8932z" fill="#fff" opacity=".2"/><path d="m214.389 22.2325c.539 2.1946-.372 4.7363-2.858 7.123-4.96 4.761-14.358 7.0671-20.972 5.1453-3.304-.9608-5.294-2.7958-5.828-4.9594 3.379 13.7314 13.161 23.4146 21.003 21.5114 7.843-1.9032 12.033-15.0393 8.679-28.8017z" fill="#516eb4"/><path d="m214.389 22.2325c.539 2.1946-.372 4.7363-2.858 7.123-4.96 4.761-14.358 7.0671-20.972 5.1453-3.304-.9608-5.294-2.7958-5.828-4.9594 3.379 13.7314 13.161 23.4146 21.003 21.5114 7.843-1.9032 12.033-15.0393 8.679-28.8017z" fill="#fff" opacity=".7"/><path d="m205.733 51.0528c-3.471.8493-7.333-.5827-10.848-3.639 4.655 3.7196 11.351 1.3887 12.752-5.2259.547-3.319.547-6.7052 0-10.0242 1.417-.7582 2.726-1.7027 3.893-2.8082 2.479-2.3867 3.397-4.9594 2.858-7.123 3.378 13.7624-.825 26.8799-8.655 28.8203z" fill="#516eb4" opacity=".2"/><path d="m213.136 36.8999c-.005-2.8111-.277-5.6154-.812-8.3751 1.86-2.1326 2.542-4.3395 2.064-6.2923 3.342 13.4958-.669 26.3406-8.207 28.6653 4.259-1.432 6.918-8.0156 6.955-13.9979z" fill="#516eb4" opacity=".35"/><path d="m190.558 34.5007c3.775 1.0973 8.449.8183 12.696-.5145 1.389 8.7781-.229 12.3303-4.798 11.2826-3.813-.8803-6.819-6.038-8.847-11.0842.304.1302.62.2232.949.3161z" fill="#fff" opacity=".3"/><path d="m186.17 27.7746c.787 1.1283 2.219 2.0334 4.184 2.6037 3.381.8535 6.924.8257 10.291-.0806 3.72-.9113 6.956-2.5727 9.163-4.6928 1.475-1.4135 2.331-2.8827 2.479-4.2465-.787-1.1345-2.219-2.0396-4.184-2.6099-2.932-.8555-6.59-.8245-10.291.0806-3.406.753-6.561 2.369-9.162 4.6928-1.457 1.4135-2.313 2.8827-2.48 4.2527z" fill="#516eb4"/><path d="m186.17 27.7746c.787 1.1283 2.219 2.0334 4.184 2.6037 3.381.8535 6.924.8257 10.291-.0806 3.72-.9113 6.956-2.5727 9.163-4.6928 1.475-1.4135 2.331-2.8827 2.479-4.2465-.787-1.1345-2.219-2.0396-4.184-2.6099-2.932-.8555-6.59-.8245-10.291.0806-3.406.753-6.561 2.369-9.162 4.6928-1.457 1.4135-2.313 2.8827-2.48 4.2527z" fill="#fff" opacity=".7"/><path d="m194.012 30.9735c-1.239-.0652-2.466-.2732-3.658-.6199-1.965-.5703-3.397-1.4754-4.184-2.6037.167-1.37 1.023-2.8393 2.48-4.2527.719-.6934 1.504-1.3162 2.343-1.8597.685 3.2068 1.697 6.3352 3.019 9.336z" fill="#516eb4" opacity=".1"/><path d="m187.85 24.396c.582 2.0074 1.305 3.9712 2.163 5.8769-1.514-.3929-2.861-1.2622-3.843-2.4797.217-1.2719.801-2.4527 1.68-3.3972z" fill="#516eb4" opacity=".15"/><path d="m183.474 42.4545 7.439-7.154 1.481.4278s.143.6199.459 1.5994l-6.255 5.9947c.525 1.3815 1.51 2.5397 2.79 3.2794.237.1359.484.256.737.3595 1.542.2649 3.128-.0438 4.458-.8679.415-.2631.815-.5509 1.196-.8617l1.482.4278c.291.3595.62.7129.936 1.06-1.008.967-2.256 1.6488-3.614 1.9756-1.358.3267-2.779.2868-4.117-.1158l-1.487-.4277c-1.344-.3827-2.561-1.1153-3.528-2.1228-.968-1.0075-1.65-2.2538-1.977-3.6115z" fill="#516eb4"/><path d="m192.419 35.7222-7.464 7.1601-1.481-.4277 7.464-7.1602z" fill="#516eb4"/><path d="m192.419 35.7222-7.464 7.1601-1.481-.4277 7.464-7.1602z" fill="#fff" opacity=".6"/><path d="m184.955 42.876c.336 1.3554 1.022 2.5987 1.99 3.6053s2.184 1.741 3.525 2.1297 2.761.4179 4.117.0849c1.356-.3331 2.601-1.0168 3.61-1.9826-.329-.3471-.62-.7005-.936-1.0601-.382.3109-.781.5986-1.197.8617-.565.3438-1.18.5989-1.822.7563-1.641.3899-3.368.1394-4.83-.7005-1.279-.7396-2.264-1.8978-2.789-3.2794l6.255-5.9946c-.316-.9795-.459-1.5994-.459-1.5994z" fill="#516eb4"/><path d="m184.955 42.876c.336 1.3554 1.022 2.5987 1.99 3.6053s2.184 1.741 3.525 2.1297 2.761.4179 4.117.0849c1.356-.3331 2.601-1.0168 3.61-1.9826-.329-.3471-.62-.7005-.936-1.0601-.382.3109-.781.5986-1.197.8617-.565.3438-1.18.5989-1.822.7563-1.641.3899-3.368.1394-4.83-.7005-1.279-.7396-2.264-1.8978-2.789-3.2794l6.255-5.9946c-.316-.9795-.459-1.5994-.459-1.5994z" fill="#fff" opacity=".4"/><path d="m186.763 40.9727c.044.998-.08 1.9341.763 3.1864.675 1.0042 2.058 2.8268 3.025 4.0915-.176.3788-.464.6946-.825.9051-.905.3967-1.896-1.0725-1.896-1.0725-.431.3383-.959.5295-1.507.5455-.62.0372-1.302-.1178-1.438-.8307-.137-.7129.924-1.4878.924-1.4878-1.513.7935-2.48-.248-1.978-1.0973s2.219-3.3476 2.932-4.2402z" fill="#000" opacity=".2"/><path d="m186.733 48.1887c-.574.4941-1.044 1.098-1.381 1.7761-.338.6781-.536 1.4169-.584 2.1728-.118-2.0333.136-2.7524 1.512-4.4696z" fill="#f28f8f"/><path d="m192.473 44.9464c-.341-.4154-.688-.7067-1.091-.6199.459-.6881-.167-1.4754-.62-1.9342-.134-.1638-.312-.2855-.513-.3503-.201-.0649-.417-.0703-.621-.0154.123-.1938.206-.411.241-.6381.036-.2271.025-.4591-.034-.6815-.058-.2224-.161-.4303-.304-.6107-.142-.1805-.32-.3295-.523-.4379-.459-.3409-1.079-.1549-1.649.5208-.85 1.1093-1.632 2.2686-2.343 3.4716-.441.571-.776 1.2152-.992 1.9031-.186.8865.818 1.0725 1.332.9237.271-.0713.53-.182.769-.3286-.378.4836-.905 1.0353-.849 1.5809.056.5455.793.8988 1.519.6571.72-.2444 1.375-.6493 1.915-1.1841l-.198.2294c-.707.8493.248 1.5808.948 1.432.695-.2026 1.314-.6059 1.78-1.1592.619-.6634 1.029-1.0973 1.605-.8617.1-.3223.119-.6644.054-.9955-.065-.3312-.211-.641-.426-.9015z" fill="#ffa8a7"/><path d="m185.493 54.9769c.517.209 1.063.3386 1.618.3843.4.0286.8-.0585 1.151-.2508.352-.1924.641-.4819.833-.834-.279.4344-.479.9151-.589 1.4196 0 0-.236.4091-1.097.3596-.862-.0496-1.916-1.0787-1.916-1.0787z" fill="#f28f8f"/><path d="m161.607 91.2424c.503-.0496 1.24-1.1035 2.895-2.0458 2.44-1.6036 4.661-3.5165 6.609-5.6909 1.661-1.9217 7.489-8.5797 7.489-8.5797l.65-8.6293c1.994.7813 4.104 1.2234 6.243 1.308 0 0 .942 4.1597.942 4.0357s.434-4.3891.434-4.3891c.845-.2881 1.649-.684 2.393-1.1778 0 0 .484 11.9893.496 13.6383.013 1.649-.552 2.2503-2.591 4.9222-2.04 2.6719-17.736 20.148-19.069 22.801s-1.81 3.478-1.959 4.339c-2.814 1.99-8.233-12.3176-4.532-20.5316z" fill="#516eb4"/><path d="m161.607 91.2424c.503-.0496 1.24-1.1035 2.895-2.0458 2.44-1.6036 4.661-3.5165 6.609-5.6909 1.661-1.9217 7.489-8.5797 7.489-8.5797l.65-8.6293c1.994.7813 4.104 1.2234 6.243 1.308 0 0 .942 4.1597.942 4.0357s.434-4.3891.434-4.3891c.845-.2881 1.649-.684 2.393-1.1778 0 0 .484 11.9893.496 13.6383.013 1.649-.552 2.2503-2.591 4.9222-2.04 2.6719-17.736 20.148-19.069 22.801s-1.81 3.478-1.959 4.339c-2.814 1.99-8.233-12.3176-4.532-20.5316z" fill="#000" opacity=".3"/><path d="m66.5042 156.719-21.4618 4.128 5.6227 34.939s-5.1329 5.121-7.9784 10.936c-2.0643 4.221-8.8401 19.682-9.9932 22.317-.6203 1.37-1.3349 2.696-2.1387 3.968-.4463.725-1.1159 1.103-1.2398 1.928-.62 3.657 2.1387 9.298 4.5874 12.156.6494.792 1.4423 1.455 2.3371 1.953.9121.503 1.966.686 2.9942.521.3072-.033.6018-.14.8588-.312.2569-.172.4685-.403.6167-.674.1335-.436.1335-.903 0-1.339-.3938-1.612-.6939-3.245-.8989-4.891-.2604-3.521 1.6924-7.067 3.8373-9.851 2.8393-3.682 20.9286-29.18 21.9577-30.928 1.5436-2.622 3.2918-4.848 3.2298-13.353-.0434-8.635-1.3142-27.165-2.3309-31.498z" fill="#b16668"/><path d="m68.6611 157.859s.9919 6.82 1.711 20.941c.5703 11.209 1.1531 14.68-4.5068 23.954-3.9613 6.485-21.2944 29.137-23.1108 31.399 0 0-6.7634-1.388-9.9684-6.323 0 0 3.5212-9.528 6.9246-17.104 3.4034-7.575 6.8811-13.501 6.8811-13.501l-9.3794-32.726z" fill="#455a64"/><path d="m35.7078 230.62-.6199-.18c2.3433-7.439 12.0947-28.64 16.3226-32.72l.4525.441c-4.0791 3.936-13.9111 25.231-16.1552 32.459z" fill="#37474f"/><path d="m34.386 223.423c1.1655 2.306 7.9722 7.91 11.0471 7.278l-3.3538 4.426c-2.8331.217-7.9475-3.72-9.6398-6.615z" fill="#37474f"/><path d="m66.3183 161.647-29.1054 2.852 9.3794 32.732s-2.7276 4.68-5.4367 10.365c0 0 1.432 5.139 1.5002 5.368.2232.763-1.6862 3.962-.1054 13.409.3038 1.817 1.0477 4.439 1.4941 6.131 3.3103-4.339 10.3775-13.477 15.6282-20.835 1.2399-1.674 2.4363-3.366 2.4363-3.366-.0024-3.084-.2095-6.163-.6199-9.219-.5517-3.719-3.2794-21.697-3.2794-21.697 1.6314-1.045 3.0562-2.381 4.2031-3.943.961-1.254 1.6111-2.717 1.897-4.271.8304-2.463 1.5013-4.977 2.0085-7.526z" fill="#37474f"/><path d="m26.2284 237.495c-.5021-.112-.9546 1.649-1.0228 2.213s.8989 2.901 1.587 4.141 1.8597 2.783 2.3867 4.711c.4835 1.811.3781 5.233 1.9341 7.768 1.5561 2.536 5.4802 5.232 10.6813 5.183 1.5932 0 3.5026-.781 3.9303-1.271.2406-.233.4273-.516.5473-.829.1199-.312.1701-.647.1471-.981z" fill="#263238"/><path d="m30.512 249.62c-.3297-1.775-1.0219-3.463-2.0333-4.959-1.1221-1.934-2.8827-4.451-2.7401-6.701.5332-1.448 1.5011-2.695 2.7711-3.571 1.5498-1.203 1.8102-2.697 2.7276-2.424l-.3657.589c.638 1.084 1.355 2.12 2.1449 3.1.1791.213.3064.465.372.736s.0677.554.0062.826c-.1547.925-.0539 1.874.2913 2.746.1115-.577.2775-1.141.496-1.686.0942-.259.2474-.493.4476-.682.2001-.189.4417-.33.7054-.409 1.0167-.391 2.4797.198 3.2608.514 1.1593.478 2.5293.881 3.0997 1.761.4525.744-.248 1.86-.5642 2.535-.8741 1.86-.1054 4.048.5642 5.865.7191 1.953 1.8597 4.705 3.2794 6.28 1.4196 1.574 2.4797 2.343 1.4878 4.271-.3711.615-.9172 1.105-1.5684 1.407-.6398.309-1.3314.496-2.0396.552-2.9181.304-5.8476-.46-8.245-2.151-1.1015-.856-2.0011-1.944-2.6346-3.187-.8431-1.388-1.1035-3.124-1.4631-5.412z" fill="#37474f"/><path d="m43.654 252.33c.351.647.7664 1.258 1.2398 1.822 1.4135 1.593 2.4797 2.343 1.4878 4.271-.3703.613-.9139 1.103-1.5622 1.408-.6422.308-1.3357.495-2.0457.551-2.9181.304-5.8474-.46-8.245-2.151-.9083-.686-1.6693-1.549-2.2379-2.535-.124-2.17 6.4844-4.693 11.3632-3.366z" fill="#455a64"/><path d="m61.3229 253.91c-.186-3.62-.1612-6.484-.248-9.788-.1116-4.46-.2149-8.915-.31-13.366-.0992-4.546-.1942-9.111-.2851-13.694-.0744-3.639-.9857-6.819-1.0601-10.483-1.5002-15.132-5.4615-30.661-5.4615-30.661 2.656-1.408 4.9924-3.35 6.8625-5.704 4.9594-5.988 5.164-11.27 5.164-11.27l-2.5975-.341-28.3119-.663c-.2108 4.519-.7997 10.836-.5394 16.738.527 12.064 11.1587 34.027 11.1587 34.027-.2232 1.649-1.9094 8.586-.5642 14.823 2.1202 9.838 3.422 20.408 4.2155 25.752.7935 5.343 1.5684 8.325 1.4011 9.367-.1302.774-.5518 2.021-.2108 2.585.4649.756 1.1654 1.072 2.1759 2.107 1.1693 1.198 2.4115 2.322 3.7196 3.367 1.1657.905 2.4932 1.581 3.9117 1.99 1.7296.533 3.7567.898 5.4801.359.6199-.192 1.9838-.62 2.0581-1.24-.0076-.488-.2029-.954-.5455-1.302-1.8598-2.479-2.1325-2.733-3.9613-5.281-2.3805-3.342-1.9218-4.873-2.0519-7.322z" fill="#b16668"/><path d="m32.4091 156.768c-.0558 5.115-.4339 8.636-.2727 12.355.2737 4.894 1.1056 9.74 2.4797 14.445 1.4382 5.238 9.119 26.966 9.6584 28.814-.5704 4.042-1.1903 7.625.4525 16.378 2.3619 12.609 5.1206 23.768 5.1206 23.768s7.6251 1.116 11.7352-1.382c0 0 .4711-35.776 0-44.065-.4216-7.203-5.4926-30.754-5.4926-30.754s10.9975-4.804 11.6174-17.519z" fill="#455a64"/><path d="m47.5039 209.753c-.3906-1.432-1.5002-4.959-2.9075-9.466-2.3681-7.532-5.5793-17.854-6.7137-22.46-1.3267-5.486-1.4259-16.986-1.4259-17.103h-.6199c0 .111.0992 11.679 1.4444 17.24 1.1159 4.624 4.2217 14.531 6.72 22.497 1.3514 4.302 2.5169 8.021 2.9013 9.441.4339 1.612.3161 3.1.1549 5.152-.4138 4.366-.2512 8.768.4836 13.092.9609 6.125 3.5583 18.183 5.0028 24.797l.6633.044c-1.4382-6.54-4.0667-18.753-5.0338-24.909-.7272-4.279-.8877-8.635-.4773-12.956.1735-2.058.2665-3.664-.1922-5.369z" fill="#000" opacity=".2"/><path d="m48.5957 247.228c2.4797 1.171 10.9603.929 13.0184-1.457v5.517c-2.1697 1.903-8.6231 2.691-11.9025 1.339z" fill="#37474f"/><path d="m49.8473 265.546c-.1983.162-.2107 1.339.062 1.91.2728.57 1.1345 1.19 2.4797 1.971 1.3453.781 3.2422 1.24 4.4945 3.038.8927 1.283 2.6161 4.097 5.5297 5.641s6.8192 2.306 10.3589 1.048c3.5398-1.259 3.8622-2.79 3.7754-4.117z" fill="#263238"/><path d="m63.8883 260.178c.1181.631.3955 1.222.8059 1.717 1.1159 1.767 2.9757 3.372 4.5255 4.817 1.6541 1.498 3.4084 2.881 5.2507 4.141 1.5064 1.047 2.5169 2.17 2.4797 3.155-.1426 3.056-3.8807 4.55-7.7614 4.594-2.307.03-4.5772-.579-6.5588-1.761-1.1579-.758-2.184-1.7-3.0377-2.789-1.7915-2.257-2.1511-3.447-4.2588-4.619-1.7854-.992-3.763-1.165-5.536-3.633-.6943-1.667.0558-3.502.2604-5.219.0362-.778.0197-1.556-.0496-2.331-.0171-.22.0437-.438.1719-.618.1281-.179.3153-.307.5286-.362 0 .155.0744.757.0744.757.3274.475.7832.847 1.3143 1.072.936.434 1.7791 0 2.4115.75.252.363.4601.754.6199 1.166.2594.556.6046 1.069 1.0229 1.518-.1489-.517-.2526-1.045-.31-1.58 0-.856-.093-1.432.3596-1.749.6794-.4 1.4008-.724 2.1511-.967 1.057-.397 2.1581-.666 3.2794-.799.7811-.137 1.4444-.118 1.928.539.3285.446.2913 1.494.3161 2.126.001.026.0052.051.0124.075z" fill="#37474f"/><path d="m72.313 269.266c.7253.552 1.4568 1.085 2.1574 1.574 1.5064 1.048 2.5169 2.17 2.4797 3.156-.1488 3.056-3.8808 4.55-7.7677 4.594-2.3048.029-4.5728-.581-6.5526-1.761-.2679-.168-.5266-.35-.7749-.546-.2604-2.182 4.0605-7.079 10.4581-7.017z" fill="#455a64"/><path d="m80.8872 112.183c-12.2001 11.085-13.1796 12.641-15.7646 17.023-5.35-1.667-14.6178-12.578-9.7886-16.899 2.493-.466 4.9406-1.148 7.3151-2.039 4.8292-3.211 11.0408-7.439 14.6984-10.5761 1.3576-3.0996 5.8892-16.6264 6.6827-21.2572.1155-.7785-.0636-1.5721-.5021-2.2255-1.2399-1.9466-1.432-4.0358-2.0706-6.0381-.4959-1.5622-1.2398-2.2627-.936-2.5293.3954-.2689.8757-.3833 1.3499-.3216s.9093.2953 1.2228.6564c.5455.5083 1.556 2.5541 2.0271 2.957.4711.403.6571-2.6161.3162-5.7591-.1922-1.7916-.4526-3.2174.1921-4.3023.31-.5145.8493-.7191 1.2399-.4277.1379.1159.2498.2595.3285.4215.0009-.2115.0589-.4188.1681-.6.1091-.1812.2653-.3294.4519-.429.6881-.3968 1.1158.062 1.3514.6571.1984.4959.31.7935.31.7935.3243-.0479.6553.0155.939.1799.2837.1643.5034.42.6232.7252.1054.217.2913.8121.2913.8121.4102-.0739.833.014 1.1797.2452.3468.2311.5905.5876.6801.9946.3348.9237.4959 2.8145.7501 4.4015.2145 1.1565.2935 2.334.2356 3.5088.0369 1.1947-.084 2.389-.3596 3.5521-.9485 3.1492-1.7978 3.2918-2.3991 7.5135-.9547 6.6332-1.9155 14.3388-3.7195 20.8545-.6075 2.182-3.4406 5.052-6.813 8.108z" fill="#b16668"/><path d="m86.4912 71.8635c2.0892 1.1717 2.5665 4.5875 2.1449 6.8688 1.2275-2.6037 1.1531-5.4925-2.1449-6.8688z" fill="#9a4a4d"/><path d="m55.1544 111.935c1.7482-.248 6.4844-1.438 7.4887-2.027s14.469-10.2905 14.469-10.2905l5.7405-16.3846s1.0353 1.6242 4.3023 2.1821c3.267.558 4.0915 0 4.0915 0s-1.3762 9.1377-2.0582 13.1486c-.6819 4.0114-1.2398 5.9944-2.3309 7.5754-2.1375 2.707-4.5221 5.21-7.1229 7.476-3.4468 3.137-13.7871 12.455-14.407 17.191-3.5708-1.24-7.7863-4.594-10.3032-9.696-2.1945-4.519-1.7977-7.674.1302-9.175z" fill="#263238"/><path d="m65.2275 130.087c-.7625-6.1-2.9632-11.444-5.009-14.457-1.3514-2.002-2.6099-3.484-5.071-3.719-2.8227-.181-5.6566-.066-8.4557.341-3.3662.396-9.4911 1.791-9.4911 1.791s-4.575 1.159-8.6789 2.405c-3.1492.955-5.195 8.307-4.1845 12.988 1.8598 8.679 6.1993 15.058 8.0962 26.136-.5145 7.941-.4339 11.413-.4339 11.413s5.6599 3.639 18.7775 1.915c17.5128-2.306 18.3373-8.276 18.3373-8.276-.4897-12.423-2.7586-21.592-3.8869-30.537z" fill="#37474f"/><path d="m28.5348 116.473c-6.6394 1.476-8.7658 3.317-10.39 7.545s-4.1349 14.543-5.4863 20.78c-1.1654 5.343-1.6118 10.148-.2542 12.398l11.7166-5.158 4.823-16.304s3.6452-13.973-.4091-19.261z" fill="#263238"/><path d="m24.3692 143.967c-.9113 1.358-2.0024 1.909-4.3705 3.1-2.2069 1.103-4.7672 2.163-6.0505 4.63.3286-2.256 1.5313-3.397 4.2713-5.04 2.7401-1.642 6.7758-3.608 6.7758-3.608z" fill="#000"/><path d="m24.3691 143.967c-.9113 1.358-2.0024 1.909-4.3705 3.1-2.2069 1.103-4.7672 2.163-6.0505 4.63-1.1282 2.17-2.3681 3.986-1.5436 5.524.5704 1.054 3.7196 1.643 6.6766 1.364s4.8974-2.784 7.8235-4.96c2.4796-1.89 3.8187-3.099 3.8187-3.099z" fill="#263238"/><path d="m28.3981 145.901c-1.1282-.961-1.4072-2.015-3.0314-2.771s-2.5975-.62-4.3395-1.351c-1.7419-.732-3.0996-1.03-4.3022-.521-1.2027.508-.9609 1.202 0 1.717s2.6533 1.153 3.8373 1.86c1.1841.706 2.3061 1.097 2.4239 2.51.1493 2.248.1783 4.501.0868 6.751-.1116 2.393-.4216 4.34-.2232 4.594s1.2399.273 1.742-1.103c.5021-1.377.9299-6.262.9299-6.262s.7315 3.311 1.1097 5.58c.3781 2.269.6199 4.042.7005 4.531.0806.49 1.7048 0 1.8597-1.785.155-1.785-.6199-6.881-.6199-6.881s1.5498 2.232 2.5479 3.682c.9981 1.451 2.2441 3.435 2.6409 3.912.3967.477 1.3638-.502.9981-1.86-.3658-1.358-2.4053-4.6-2.4053-4.6s2.3247 2.065 2.7152 2.251c.3906.186 1.5188-.081 1.0043-1.575-.3472-.998-1.0477-1.593-2.9322-3.422-1.8846-1.829-1.928-2.647-2.5355-3.503-.8431-1.134-1.3887-1.053-2.207-1.754z" fill="#b16668"/><path d="m24.1953 147.048c1.773.62 3.3848-.285 3.5832-.732-.0124 1.191-2.3061 2.065-3.5832.732z" fill="#9a4a4d"/><path d="m36.1477 155.473c-.1464.139-.3406.216-.5425.216s-.3961-.077-.5424-.216c-.4587-.329-1.6242-1.432-2.1511-1.947-.527-.514-2.3433-2.331-2.3433-2.331l1.7419 2.709s2.3248 2.065 2.7153 2.251c.1185.042.245.058.3703.045.1253-.012.2463-.053.3539-.118s.1992-.154.2681-.259c.0688-.106.1132-.225.1298-.35z" fill="#9a4a4d"/><path d="m55.5139 92.414c.8802-3.2856-1.1345-7.1291-3.0997-8.7657-2.8392-2.3681-6.7447-2.9508-12.2931-1.7048-4.2154.9485-8.1272 3.3414-8.2325 7.6933-3.236 1.5498-1.9962 6.9183-.7563 9.1501 2.5168 4.5811 4.885 7.0551 5.3437 9.5341z" fill="#263238"/><path d="m56.2519 105.432c-.5766 2.406-1.9218 4.21-4.1783 4.656-1.1882.172-2.3898.234-3.5894.186l.2294 3.019c1.0167 2.443.248 6.298.248 6.298-5.1392-2.764-8.9145-1.983-11.9956-5.145l-.7873-10.204s-1.3204 1.593-3.6823.248c-.9447-.603-1.6459-1.52-1.9794-2.59-.3336-1.07-.278-2.2229.1568-3.2558 1.0291-2.3743 3.3476-1.5126 4.0853-.8431.7377.6696 1.6056 1.959 2.1821 1.7482.328-.1114.6228-.303.8578-.5575.2349-.2544.4025-.5635.4875-.8993.4703-1.4595.6535-2.9963.5393-4.5254.652-.3653 1.2352-.8415 1.7234-1.4073.8618-.9694 1.3536-2.2121 1.3886-3.5087 4.8416-1.711 9.3981-2.0148 12.2249-.5704 1.2399 1.9466 1.9342 7.3337 2.2503 10.0056.3748 2.4397.3203 4.9257-.1611 7.3457z" fill="#b16668"/><path d="m44.87 93.2075-1.8598 1.6056c-.1327-.1171-.2387-.2613-.3111-.4228-.0723-.1615-.1092-.3366-.1083-.5136.001-.1769.0398-.3516.1139-.5123s.1818-.3037.3157-.4194c.134-.1156.2911-.2012.4609-.2511s.3483-.0628.5236-.0379c.1752.0248.343.0869.4922.182.1493.0952.2764.2211.3729.3695z" fill="#263238"/><path d="m46.3462 102.742 4.1039.812c-.1398.542-.4812 1.011-.9546 1.311-.4735.299-1.0433.407-1.5933.301-.2661-.048-.5195-.15-.7443-.3s-.4163-.345-.5623-.573c-.146-.227-.2436-.483-.2865-.75-.0429-.266-.0303-.539.0371-.801z" fill="#9a4a4d"/><path d="m54.1499 93.4245-2.2007-1.1592c.154-.2867.4146-.5012.7254-.5975s.647-.0665.936.0829c.1457.0741.2752.1763.3812.3007.1061.1244.1864.2685.2366.4241.0501.1555.069.3194.0555.4823-.0134.1629-.059.3215-.134.4667z" fill="#263238"/><path d="m48.7139 94.6891 1.0538 7.0299 3.8684-1.32c-1.2529-2.2062-2.925-4.1458-4.9222-5.7099z" fill="#9a4a4d"/><path d="m48.4905 110.268c-2.5231 0-6.8688-.943-8.276-2.238-1.4072-1.296-2.3805-4.048-2.3805-4.048s.4587 3.248 1.5684 4.748c1.1097 1.501 3.1864 2.325 4.8044 2.635 1.4581.226 2.9274.373 4.4015.44z" fill="#9a4a4d"/><path d="m43.7725 96.927c-.001.2096.0609.4146.1776.5886s.2829.3091.4772.3877c.1942.0785.4075.0971.6124.0532s.3919-.1483.5369-.2995c.145-.1513.2413-.3426.2764-.5492.0352-.2065.0076-.4189-.0792-.6096s-.2288-.3511-.4076-.4603-.3863-.1622-.5956-.1523c-.2697.0081-.5254.1218-.712.3166-.1867.1947-.2894.4551-.2861.7248z" fill="#263238"/><path d="m52.2097 95.8173c.0027.2088.0677.4119.1866.5835.119.1715.2864.3036.481.3793.1945.0757.4072.0916.6108.0456s.3888-.1518.5319-.3037c.1431-.152.2376-.3433.2712-.5493.0337-.206.005-.4174-.0823-.607-.0872-.1896-.2292-.3488-.4076-.4572-.1783-.1084-.385-.1611-.5936-.1512-.1354.0032-.2688.0332-.3925.0884s-.2352.1344-.3281.233c-.0928.0986-.1652.2147-.2128.3415s-.0696.2618-.0646.3971z" fill="#263238"/><path d="m46.376 103.802c.2549-.129.5332-.205.8183-.223.4465-.024.8875.107 1.2481.372.3605.264.6183.645.7294 1.078-.3908.167-.8221.214-1.2398.137-.3605-.06-.6972-.22-.972-.461-.2749-.241-.4772-.554-.584-.903z" fill="#ffa8a7"/><path d="m46.1905 116.864c-.9175-.62-7.5631-2.337-9.4042-4.78l-.0744-.986s-.341 0-.7687.726c-.4278.725-1.742 3.037-1.742 3.037 1.0433 1.873 2.5865 3.418 4.4572 4.464 2.1072 1.202 4.4751 1.875 6.8998 1.959-.0038-.876.1669-1.745.5021-2.554.3782-.738 1.8598.682 2.9013.861-1.3949-.83-1.7978-2.058-2.7711-2.727zm6.1992-1.5c-.3543-1.19-.7935-2.352-1.3142-3.478l-1.5498-1.6h-1.0291l.2294 3.026v1.983c0 .98.3657 3.323.217 4.34.5021-.484.8245-2.554 1.587-2.331s1.68 2.337 1.68 2.337c.5242-1.369.583-2.872.1673-4.277z" fill="#263238"/><path d="m274.516 190.095s1.016-3.434 1.053-3.949c.038-.514-.787-2.479-.905-2.833-.117-.353 1.575-1.053 2.542.093.883.983 1.392 2.245 1.438 3.565l4.222-1.339c.344-.1.713-.059 1.027.113.313.172.546.461.647.804.083.246.1.51.049.765s-.169.491-.341.686c.28-.01.555.076.78.242.226.167.388.405.46.676.094.298.083.619-.029.911-.113.291-.321.536-.591.694.304.228.522.551.62.918.057.318.01.646-.133.935-.142.29-.374.527-.66.676.219.266.385.571.49.899.085.391.015.8-.197 1.14-.212.339-.549.582-.938.677l-7.024 2.207z" fill="#e0e0e0"/><path d="m270.424 191.155 2.926 9.181 3.044-.967-2.926-9.187zm3.397 7.291c-.012-.087-.007-.175.015-.26s.061-.164.114-.234.119-.129.195-.172c.076-.044.159-.073.246-.084.087-.014.175-.009.26.012.084.022.164.06.234.112.07.053.128.119.172.194.045.076.073.159.084.246.022.09.024.184.007.276-.017.091-.053.178-.106.255-.052.077-.12.142-.199.191s-.168.081-.26.094-.186.007-.275-.019c-.09-.025-.173-.069-.245-.128s-.13-.133-.172-.216-.065-.174-.07-.267z" fill="#e0e0e0"/><path d="m24.1031 201.242-3.6823-.788c-.087-.02-.1627-.073-.2108-.149-.0238-.036-.04-.076-.0474-.119-.0075-.043-.0061-.086.004-.129l2.4363-11.127c.0088-.043.0262-.084.051-.12.0249-.037.0567-.067.0937-.091s.0784-.04.1217-.047c.0433-.008.0876-.006.1304.004l3.6823.806c.0431.008.0839.026.1201.051.0363.024.0671.056.0908.093s.0398.079.0472.122.0061.088-.0039.13l-2.4363 11.109c-.0162.077-.0595.146-.1221.194s-.1403.071-.2189.067zm-.9236-11.86-2.2876 10.452 3.0315.664 2.2875-10.471zm-3.7196 9.498-8.4557-1.86c-.5549-.086-1.05335-.387-1.38666-.839s-.47443-1.017-.39256-1.573c.06792-.305.17415-.601.31616-.88-.32426-.226-.58322-.534-.75082-.892-.16759-.358-.23791-.754-.20387-1.148.07282-.354.21389-.691.41535-.991-.28943-.23-.50978-.535-.63669-.882-.12691-.346-.15544-.722-.08242-1.084.05321-.296.17979-.574.36821-.809.18841-.235.43266-.419.71046-.536-.27995-.463-.36887-1.016-.24797-1.543.10737-.503.40832-.942.83765-1.224.42936-.282.95246-.384 1.45606-.283l4.7052 1.029c.0018-1.489.4869-2.938 1.3825-4.128.3344-.468.8175-.808 1.3703-.966s1.1428-.123 1.6735.098c.5765.254.5641.62.5393.737-.0248.118-.0868.335-.1674.62-.2844.873-.4796 1.772-.5827 2.685.0682.415 1.0291 2.895 1.6552 4.463.0156.065.0156.133 0 .198l-2.0953 9.56c-.0162.077-.0596.145-.1222.193-.0625.048-.1402.072-.2188.067zm.1674-14.37c.0643-1.014.2731-2.014.6199-2.97l.1364-.496c-.2706-.149-.5781-.218-.8865-.198-.289 0-.5739.069-.8307.201-.2567.133-.4778.326-.6447.562-.8845 1.195-1.3231 2.662-1.2399 4.147.0038.051-.005.101-.0256.148-.0205.046-.0522.087-.0921.118-.039.033-.0848.057-.1342.07-.0493.013-.1009.014-.151.005l-5.0834-1.141c-.3294-.058-.6684.016-.9434.207-.275.19-.46397.481-.5258.81-.05691.242-.04967.494.02101.732s.20229.454.38199.625c.0483.046.0818.106.0962.171.0143.065.0089.133-.0157.195-.0229.062-.0643.116-.1186.153-.0544.038-.119.058-.1851.058-.25272.02-.49109.125-.67588.299-.18479.173-.30499.405-.34081.656-.05778.286-.01844.584.11179.845.13024.262.34393.473.60732.599.05174.022.09641.059.12918.104.03277.046.05241.1.05679.156.00842.058.00136.116-.02045.169-.02181.054-.05757.1-.10353.135-.25463.258-.42161.59-.47734.949-.00903.293.06694.582.21875.833.1518.251.37294.452.63678.58.0542.011.1049.036.1471.071.0423.036.0748.082.0946.134.02.051.0271.107.0206.162s-.0263.108-.0578.154c-.2025.298-.3456.633-.42151.986-.03737.381.07391.762.31071 1.064.2367.301.5807.499.9601.554l8.1334 1.779 1.9962-9.132c-.3038-.682-1.587-3.905-1.68-4.494z" fill="#e0e0e0"/><g fill="#516eb4" opacity=".35"><path d="m195.122 10.5902c-.498-1.30719-.912-2.6448-1.24-4.00467-.358-1.35382-.631-2.72857-.819-4.11629.496 1.30821.91 2.64564 1.24 4.00471.355 1.35451.628 2.72907.819 4.11625z"/><path d="m182.395 17.7194c-.682-.5579-1.327-1.153-1.959-1.7482-.632-.5951-1.24-1.2398-1.86-1.8597-.62-.62-1.24-1.2399-1.798-1.9094s-1.165-1.3081-1.711-1.9962c.682.558 1.327 1.1531 1.966 1.7482.638.5951 1.239 1.2399 1.859 1.8598s1.209 1.2398 1.792 1.9094c.583.6695 1.172 1.308 1.711 1.9961z"/><path d="m179.661 31.6863c-1.352-.279-2.691-.62-4.03-.9485-1.339-.3286-2.659-.7067-3.992-1.0601s-2.647-.7563-3.967-1.1655c-1.321-.4091-2.629-.8183-3.931-1.2832 1.352.279 2.691.6199 4.03.9423 1.339.3223 2.659.7129 3.992 1.0663 1.333.3533 2.647.7563 3.968 1.1654 1.32.4092 2.628.8121 3.93 1.2833z"/><path d="m179.736 43.8616c-1.023.3595-2.052.6695-3.1.9733-1.048.3037-2.077.5827-3.1.8554-1.022.2728-2.095.5208-3.149.7502-1.054.2293-2.114.4587-3.18.6199 1.023-.3596 2.058-.6695 3.1-.9733 1.041-.3038 2.076-.5827 3.099-.8555s2.096-.5269 3.149-.7501c1.054-.2232 2.121-.4463 3.181-.6199z"/><path d="m187.119 53.1356c-.806.9299-1.655 1.8164-2.48 2.7029-.824.8865-1.717 1.7482-2.591 2.6099s-1.761 1.7048-2.666 2.5355-1.81 1.6552-2.752 2.4425c.806-.9237 1.655-1.8102 2.48-2.6967.824-.8865 1.717-1.7482 2.591-2.6099s1.76-1.7048 2.666-2.5355c.905-.8307 1.81-1.6552 2.752-2.4487z"/><path d="m196.034 61.765c-.168.9547-.385 1.8598-.62 2.8269-.236.967-.471 1.8597-.726 2.7958-.254.9361-.533 1.8598-.83 2.7711-.298.9113-.62 1.8598-.949 2.7276.168-.9484.385-1.8597.62-2.8268.236-.9671.471-1.8598.725-2.7959.255-.936.534-1.8597.831-2.7648.298-.9051.601-1.8288.949-2.7339z"/><path d="m210.521 67.927c.364.7829.652 1.5987.861 2.4363.223.8355.362 1.6911.416 2.5541-.371-.7802-.66-1.5967-.862-2.4363-.223-.8355-.362-1.6911-.415-2.5541z"/><path d="m220.595 55.7827c.694.5765 1.357 1.1903 2.014 1.8102.658.6199 1.296 1.2398 1.928 1.8598.633.6199 1.24 1.2956 1.86 1.9713s1.203 1.3453 1.761 2.0582c-.701-.5828-1.358-1.1903-2.015-1.8102s-1.296-1.2399-1.928-1.897-1.24-1.2956-1.86-1.9651-1.202-1.3143-1.76-2.0272z"/><path d="m223.439 43.223c1.24.2356 2.4.527 3.59.8183 1.19.2914 2.374.6199 3.558.9423s2.362.6695 3.528 1.0415c1.165.3719 2.343.7377 3.496 1.1592-1.209-.2355-2.399-.5269-3.589-.8183-1.191-.2913-2.375-.6199-3.559-.9423-1.184-.3223-2.356-.6695-3.527-1.0414-1.172-.372-2.337-.7377-3.497-1.1593z"/><path d="m223.391 31.9714c1.159-.3968 2.337-.7439 3.515-1.0849 1.177-.3409 2.368-.6571 3.552-.9671 1.184-.3099 2.38-.6199 3.577-.8616 1.196-.2418 2.393-.527 3.608-.744-1.166.3968-2.344.744-3.521 1.0849-1.178.341-2.362.6571-3.553.9671-1.19.31-2.374.6199-3.577.8617-1.202.2418-2.393.5269-3.601.7439z"/><path d="m220.111 19.9076c.8-.9174 1.637-1.7977 2.48-2.6718s1.699-1.7296 2.56-2.5851c.862-.8555 1.742-1.6862 2.641-2.4797s1.792-1.6366 2.722-2.4177c-.8.9175-1.637 1.7978-2.48 2.6719s-1.705 1.7296-2.567 2.5789c-.861.8492-1.742 1.6923-2.634 2.4796-.893.7873-1.786 1.6428-2.722 2.4239z"/><path d="m209.485 11.1606c.149-.8741.341-1.73584.54-2.59133.198-.85549.434-1.71099.663-2.56028.229-.8493.484-1.6924.762-2.52929.279-.8369.552-1.6738.881-2.4797-.143.87409-.341 1.72959-.54 2.59128-.198.8617-.427 1.70479-.663 2.55409-.235.84929-.483 1.69239-.762 2.52929-.279.83689-.552 1.66144-.881 2.48594z"/></g><path d="m208.661 157.624c0 2.008-.056 3.936-2.951 4.389 3.062-.044 2.833 1.86 2.982 4.296.08-2.412.291-4.147 2.678-4.259-2.467-.409-2.405-1.55-2.709-4.426z" fill="#455a64"/><path d="m178.6 114.775c0 2.008-.05 3.936-2.945 4.383 3.056-.038 2.827 1.859 2.976 4.302.08-2.412.291-4.147 2.678-4.259-2.467-.409-2.399-1.55-2.709-4.426z" fill="#455a64"/><path d="m82.5864 130.446c0 1.562-.0434 3.1-2.3061 3.422 2.3929-.031 2.2131 1.476 2.3247 3.36.0682-1.86.2294-3.242 2.0953-3.329-1.9093-.316-1.8597-1.209-2.1139-3.453z" fill="#455a64"/><path d="m115.957 93.6538c0 1.5684-.037 3.0996-2.3 3.4282 2.393-.0372 2.207 1.4692 2.325 3.354.068-1.86.229-3.2362 2.095-3.323-1.928-.3224-1.878-1.2151-2.12-3.4592z" fill="#516eb4"/><path d="m113.149 166.191c0 1.86-.05 3.614-2.71 4.03 2.815-.038 2.598 1.729 2.734 3.949.081-2.22.273-3.807 2.48-3.912-2.281-.378-2.219-1.42-2.504-4.067z" fill="#455a64"/><path d="m186.889 178.683c0 2.231-.056 4.382-3.28 4.885 3.404-.05 3.15 2.101 3.317 4.792.087-2.691.329-4.625 2.982-4.749-2.746-.453-2.672-1.754-3.019-4.928z" fill="#516eb4"/><path d="m198.785 94.2242c0 2.1822-.056 4.2775-3.199 4.7611 3.323-.0434 3.1 2.0517 3.23 4.6737.093-2.622.322-4.5064 2.907-4.6303-2.678-.4402-2.591-1.68-2.938-4.8045z" fill="#516eb4"/><path d="m87.8067 179.495c0 2.411-.062 4.736-3.546 5.275 3.6824-.049 3.4034 2.269 3.5832 5.177.0992-2.908.7439-5.09 3.6142-5.226-2.9695-.49-3.2918-1.767-3.6514-5.226z" fill="#516eb4"/><path d="m186.833 139.999c0 2.176-.434 4.34-3.583 4.854 3.323-.043 3.453 1.959 3.62 4.588.087-2.629.806-4.65 3.398-4.774-2.679-.44-3.1-1.543-3.435-4.668z" fill="#ebebeb"/><path d="m108.624 69.6504c.031 2.7958-.075 5.4863-4.11 6.1124 4.265-.0558 3.942 2.6285 4.153 5.9947.112-3.3662.409-5.7777 3.72-5.9389-3.404-.5889-3.311-2.1883-3.763-6.1682z" fill="#ebebeb"/><path d="m212.585 112.946c0 2.182-.05 4.277-3.199 4.767 3.323-.043 3.099 2.052 3.236 4.674.087-2.622.316-4.506 2.907-4.63-2.678-.447-2.603-1.687-2.944-4.811z" fill="#e0e0e0"/><path d="m205.839 195.898c0 2.182-.055 4.277-3.198 4.767 3.322-.043 3.099 2.052 3.236 4.674.086-2.622.316-4.507 2.907-4.631-2.678-.446-2.61-1.686-2.945-4.81z" fill="#e0e0e0"/><path d="m105.524 122.344c0-2.071-.05-3.918-3.038-4.377 3.156.038 2.92-2.095 3.1-4.587.087 2.48.465 4.631 2.926 4.749-2.573.396-2.666 1.233-2.988 4.215z" fill="#e0e0e0"/><path d="m104.08 214.155c0-2.48-.068-4.737-3.683-5.301 3.819.05 3.534-2.535 3.72-5.579.099 3.019.564 5.579 3.54 5.747-3.081.539-3.193 1.543-3.577 5.133z" fill="#e0e0e0"/><path d="m257.744 73.3699c.034-.0751.082-.1427.141-.1991.06-.0564.13-.1004.207-.1295.151-.062.32-.062.471 0l2.659 1.1655c.151.0657.269.1883.329.3409.031.0756.048.1568.048.2387s-.017.163-.048.2387l-.936 2.1325c-.033.0745-.081.1418-.139.1981-.059.0562-.129.1002-.205.1296s-.157.0435-.238.0415c-.082-.002-.162-.02-.237-.053l-2.653-1.1593c-.075-.0332-.143-.0811-.199-.1406-.056-.0596-.1-.1298-.129-.2066-.034-.074-.051-.1543-.051-.2355 0-.0813.017-.1616.051-.2356zm5.028-11.4934c.03-.0758.076-.1443.135-.2009.059-.0567.129-.1002.206-.1277.076-.0315.157-.0478.239-.0478s.163.0163.238.0478l2.654 1.1655c.075.0303.144.0764.201.1352.056.0587.1.1289.127.2057.032.0756.048.1568.048.2387s-.016.163-.048.2387l-3.974 9.0881c-.065.1503-.188.2684-.34.3285-.076.0316-.157.0478-.239.0478s-.163-.0162-.239-.0478l-2.659-1.1654c-.075-.033-.142-.0803-.198-.1392-.057-.059-.101-.1285-.13-.2045s-.043-.157-.041-.2385c.002-.0814.02-.1617.053-.2361z" fill="#516eb4"/><path d="m257.745 73.3699c.034-.0751.081-.1427.141-.1991s.13-.1004.207-.1295c.151-.062.32-.062.471 0l2.659 1.1655c.151.0657.269.1883.329.3409.031.0756.048.1568.048.2387s-.017.163-.048.2387l-.936 2.1325c-.033.0745-.081.1418-.139.1981-.059.0562-.129.1002-.205.1296s-.157.0435-.238.0415c-.082-.002-.162-.02-.237-.053l-2.653-1.1593c-.075-.0332-.143-.0811-.199-.1406-.056-.0596-.1-.1298-.129-.2066-.034-.074-.051-.1543-.051-.2355 0-.0813.017-.1616.051-.2356zm5.028-11.4934c.03-.0758.076-.1443.135-.2009.059-.0567.129-.1002.206-.1277.076-.0315.157-.0478.239-.0478s.163.0163.238.0478l2.654 1.1655c.075.0303.144.0764.201.1352.056.0587.1.1289.127.2057.032.0756.048.1568.048.2387s-.016.163-.048.2387l-3.974 9.0881c-.065.1503-.188.2684-.341.3285-.075.0316-.156.0478-.238.0478s-.163-.0162-.239-.0478l-2.659-1.1654c-.075-.033-.142-.0803-.198-.1392-.057-.059-.101-.1285-.13-.2045s-.043-.157-.042-.2385c.002-.0814.021-.1617.054-.2361z" fill="#fff" opacity=".5"/><path d="m263.726 79.377c.11-.1222.264-.1958.428-.2046.08-.0088.162-.0006.238.0239.077.0246.148.065.208.1187l2.195 1.9032c.123.1073.199.2587.211.4215.008.0817-.001.1642-.026.2422-.026.078-.068.1497-.123.2104l-1.525 1.7605c-.11.1222-.264.1958-.428.2046-.08.01-.162.0025-.239-.0221-.077-.0247-.147-.0658-.207-.1205l-2.195-1.9031c-.123-.1073-.198-.2588-.21-.4216-.007-.0815.003-.1634.029-.2411.025-.0777.066-.1495.119-.2114zm8.221-9.4724c.051-.0632.115-.1147.188-.151.072-.0364.152-.0568.233-.0598.081-.0071.163.0018.241.0263.077.0244.149.0639.212.1163l2.194 1.9031c.122.1099.196.2637.205.4278.01.0803.003.1619-.022.239-.024.0772-.066.1479-.121.2073l-6.515 7.5011c-.108.1241-.261.2003-.424.2119-.164.0116-.326-.0423-.45-.1499l-2.195-1.9032c-.061-.0538-.112-.1194-.148-.1928s-.057-.1532-.063-.2349c-.008-.0807.002-.1622.027-.2391.026-.0769.067-.1475.122-.2073z" fill="#516eb4"/><path d="m263.727 79.377c.11-.1222.264-.1958.428-.2046.08-.0088.162-.0006.238.0239.077.0246.148.065.208.1187l2.195 1.9032c.123.1073.199.2587.211.4215.008.0817-.001.1642-.026.2422-.026.078-.068.1497-.123.2104l-1.525 1.7605c-.11.1222-.264.1958-.428.2046-.08.01-.162.0025-.239-.0221-.077-.0247-.148-.0658-.207-.1205l-2.195-1.9031c-.123-.1073-.198-.2588-.21-.4216-.007-.0815.003-.1634.029-.2411.025-.0777.066-.1495.119-.2114zm8.221-9.4724c.051-.0632.115-.1147.188-.151.072-.0364.152-.0568.233-.0598.081-.0071.163.0018.241.0263.077.0244.149.0639.212.1163l2.194 1.9031c.122.1099.196.2637.205.4278.01.0803.003.1619-.022.239-.024.0772-.066.1479-.121.2073l-6.515 7.5011c-.108.1241-.261.2003-.424.2119-.164.0116-.326-.0423-.45-.1499l-2.195-1.9032c-.061-.0538-.112-.1194-.148-.1928s-.057-.1532-.063-.2349c-.008-.0807.002-.1622.027-.2391.026-.0769.067-.1475.122-.2073z" fill="#fff" opacity=".2"/><path d="m127.047 48.0087c-.039-.0716-.064-.1503-.072-.2315-.009-.0812-.002-.1633.021-.2416.023-.0784.061-.1514.113-.2149.051-.0635.115-.1162.186-.1551l2.561-1.3763c.145-.0761.314-.0918.471-.0434.156.0472.288.1541.366.2976l1.103 2.0458c.039.0727.062.1523.07.2343.007.0819-.002.1645-.027.243-.047.1563-.154.2878-.297.3657l-2.554 1.3763c-.145.0762-.315.0918-.471.0434-.079-.0227-.152-.0606-.216-.1117-.064-.051-.117-.1142-.156-.1859zm-5.945-11.0533c-.076-.1451-.092-.3145-.043-.4711.021-.0787.058-.152.109-.2151s.116-.1145.188-.1507l2.555-1.3762c.145-.0762.314-.0918.471-.0434.078.0226.152.0606.215.1116.064.0511.117.1143.157.186l4.699 8.7347c.039.072.063.1509.071.2324.009.0814.001.1637-.023.2421-.023.0784-.062.1513-.114.2146-.052.0632-.116.1156-.189.154l-2.554 1.3762c-.145.0762-.314.0918-.471.0434-.078-.0226-.152-.0606-.215-.1116-.064-.0511-.117-.1143-.157-.186z" fill="#516eb4"/><path d="m127.047 48.0087c-.039-.0716-.064-.1503-.072-.2315-.009-.0812-.002-.1633.021-.2416.023-.0784.061-.1514.113-.2149.051-.0635.115-.1162.186-.1551l2.561-1.3763c.145-.0761.314-.0918.471-.0434.156.0472.288.1541.366.2976l1.103 2.0458c.039.0727.062.1523.07.2343.007.0819-.002.1645-.027.243-.047.1563-.154.2878-.297.3657l-2.554 1.3763c-.145.0762-.315.0918-.471.0434-.079-.0227-.152-.0606-.216-.1117-.064-.051-.117-.1142-.156-.1859zm-5.945-11.0533c-.076-.1451-.092-.3145-.043-.4711.021-.0787.058-.152.109-.2151s.116-.1145.188-.1507l2.555-1.3762c.145-.0762.314-.0918.471-.0434.078.0226.152.0606.215.1116.064.0511.117.1143.157.186l4.699 8.7347c.039.072.063.1509.071.2324.009.0814.001.1637-.023.2421-.023.0784-.062.1513-.114.2146-.052.0632-.116.1156-.189.154l-2.554 1.3762c-.145.0762-.314.0918-.471.0434-.078-.0226-.152-.0606-.215-.1116-.064-.0511-.117-.1143-.157-.186z" fill="#fff" opacity=".5"/><path d="m135.863 46.8805c-.014-.0805-.011-.1629.01-.2419.02-.079.057-.1529.107-.2169.049-.0664.11-.1225.18-.165.07-.0426.148-.0708.229-.083l2.871-.4153c.081-.0105.163-.005.241.0163.079.0213.153.0579.217.1077.131.0974.218.2421.242.4029l.335 2.2999c.014.0805.01.1629-.01.2419s-.057.1529-.108.2169c-.048.0664-.109.1225-.179.165-.071.0426-.149.0708-.23.083l-2.87.4153c-.081.0105-.163.005-.242-.0163s-.152-.0579-.217-.1077c-.067-.0458-.124-.1054-.167-.1748-.043-.0695-.07-.1472-.081-.2281zm-1.798-12.3985c-.011-.0809-.005-.163.016-.2417.021-.0788.058-.1525.108-.2171.046-.0674.105-.1244.175-.1672.069-.0427.147-.0703.228-.0807l2.87-.4154c.081-.0105.163-.005.242.0163.078.0213.152.0579.217.1077.067.0458.124.1054.167.1749.043.0694.07.1472.081.2281l1.45 9.801c.011.0808.005.163-.016.2417s-.058.1524-.108.217c-.046.0675-.105.1245-.175.1672-.069.0428-.147.0703-.228.0808l-2.87.4153c-.081.0105-.163.005-.242-.0163-.078-.0213-.152-.0578-.217-.1077-.067-.0458-.124-.1054-.167-.1748-.043-.0695-.07-.1472-.081-.2281z" fill="#516eb4"/><path d="m135.864 46.8805c-.014-.0805-.011-.1629.01-.2419.02-.079.057-.1529.107-.2169.049-.0664.11-.1225.18-.165.07-.0426.148-.0708.229-.083l2.871-.4153c.081-.0105.163-.005.241.0163.079.0213.153.0579.217.1077.131.0974.218.2421.242.4029l.335 2.2999c.014.0805.01.1629-.01.2419-.021.079-.057.1529-.108.2169-.048.0664-.109.1225-.18.165-.07.0426-.148.0708-.229.083l-2.87.4153c-.081.0105-.163.005-.242-.0163s-.152-.0579-.217-.1077c-.067-.0458-.124-.1054-.167-.1748-.043-.0695-.07-.1472-.081-.2281zm-1.798-12.3985c-.011-.0809-.005-.163.016-.2417.021-.0788.058-.1525.108-.2171.046-.0674.105-.1244.175-.1672.069-.0427.147-.0703.228-.0807l2.87-.4154c.081-.0105.163-.005.242.0163.078.0213.152.0579.217.1077.067.0458.124.1054.167.1749.043.0694.07.1472.081.2281l1.45 9.801c.011.0808.005.163-.016.2417s-.058.1524-.108.217c-.046.0675-.105.1245-.175.1672-.069.0428-.147.0703-.228.0808l-2.87.4153c-.081.0105-.163.005-.242-.0163-.078-.0213-.152-.0578-.217-.1077-.067-.0458-.124-.1054-.167-.1748-.043-.0695-.07-.1472-.081-.2281z" fill="#fff" opacity=".2"/><path d="m28.6147 75.3784c.0519.0681.0892.1462.1095.2294.0203.0833.0231.1698.0082.2542-.0105.0849-.0385.1668-.0822.2404-.0438.0737-.1023.1374-.1719.1873l-2.4797 1.804c-.0686.0509-.1469.0871-.2301.1063s-.1695.021-.2535.0053c-.085-.0106-.1668-.0386-.2405-.0823-.0736-.0438-.1373-.1023-.1872-.1719l-1.3948-1.9652c-.052-.0681-.0893-.1462-.1096-.2294s-.0231-.1697-.0082-.2541c.0112-.0855.0402-.1677.085-.2413.0449-.0737.1046-.1372.1753-.1865l2.4797-1.8039c.1413-.0976.3146-.1372.4842-.1107.1695.0265.3225.1172.4271.2532zm-3.0997-4.1845c.052.0681.0893.1462.1096.2295.0203.0832.0231.1697.0082.2541-.0105.0849-.0385.1668-.0823.2405-.0437.0736-.1022.1373-.1718.1872l-2.4797 1.804c-.0686.0509-.147.0871-.2302.1063s-.1694.021-.2534.0053c-.085-.0105-.1669-.0386-.2405-.0823-.0736-.0438-.1374-.1023-.1872-.1719l-6.1683-8.3876c-.0509-.0685-.0871-.1469-.1063-.2301s-.021-.1695-.0053-.2534c.0106-.085.0386-.1669.0823-.2405.0438-.0736.1023-.1374.1719-.1873l2.4797-1.8039c.1432-.0982.3194-.1356.4902-.1043.1707.0314.3221.129.4211.2716z" fill="#516eb4"/><path d="m28.6147 75.3784c.0519.0681.0892.1462.1095.2294.0203.0833.0231.1698.0082.2542-.0105.0849-.0385.1668-.0822.2404-.0438.0737-.1023.1374-.1719.1873l-2.4797 1.804c-.0686.0509-.1469.0871-.2301.1063s-.1695.021-.2535.0053c-.085-.0106-.1668-.0386-.2405-.0823-.0736-.0438-.1373-.1023-.1872-.1719l-1.3948-1.9652c-.052-.0681-.0893-.1462-.1096-.2294s-.0231-.1697-.0082-.2541c.0112-.0855.0402-.1677.085-.2413.0449-.0737.1046-.1372.1753-.1865l2.4797-1.8039c.1413-.0976.3146-.1372.4842-.1107.1695.0265.3225.1172.4271.2532zm-3.0997-4.1845c.052.0681.0893.1462.1096.2295.0203.0832.0231.1697.0082.2541-.0105.0849-.0385.1668-.0823.2405-.0437.0736-.1022.1373-.1718.1872l-2.4797 1.804c-.0686.0509-.147.0871-.2302.1063s-.1694.021-.2534.0053c-.085-.0105-.1669-.0386-.2405-.0823-.0736-.0438-.1374-.1023-.1872-.1719l-6.1683-8.3876c-.0509-.0685-.0871-.1469-.1063-.2301s-.021-.1695-.0053-.2534c.0106-.085.0386-.1669.0823-.2405.0438-.0736.1023-.1374.1719-.1873l2.4797-1.8039c.1432-.0982.3194-.1356.4902-.1043.1707.0314.3221.129.4211.2716z" fill="#fff" opacity=".6"/><path d="m25.205 83.115c.0728.046.1353.1067.1833.1782.048.0716.0806.1523.0957.2371.0184.0841.019.171.0019.2553-.017.0843-.0515.1642-.1011.2344l-1.6924 2.5293c-.046.0728-.1067.1353-.1783.1833-.0715.048-.1522.0806-.237.0957-.0836.0192-.1703.0209-.2546.0049s-.1644-.0493-.2352-.0979l-2.0271-1.3576c-.0728-.0461-.1352-.1068-.1833-.1783-.048-.0715-.0806-.1523-.0957-.2371-.0165-.0841-.0163-.1707.0008-.2547.017-.0841.0504-.1639.0984-.235l1.6862-2.5293c.0461-.0728.1068-.1352.1783-.1832.0715-.0481.1522-.0807.2371-.0958.084-.0183.1709-.019.2553-.0019.0843.0171.1641.0515.2344.1011zm-4.3394-2.8827c.0716.0467.1329.1077.1798.1792.0469.0714.0786.1519.0929.2362.0193.0836.021.1703.0049.2546-.016.0843-.0493.1643-.0978.2351l-1.6924 2.5355c-.0981.1416-.2473.2395-.4162.2731-.1689.0335-.3442.0001-.4889-.0933l-8.67896-5.7715c-.07235-.0474-.134-.1094-.18097-.182-.04698-.0725-.07824-.1542-.0918-.2396-.01835-.0826-.01956-.1682-.00357-.2514.01599-.0831.04886-.1621.09656-.2321l1.70484-2.5355c.0466-.0717.1076-.1329.1791-.1798.0715-.047.1519-.0786.2362-.093.0836-.0192.1703-.0209.2546-.0049s.1644.0494.2351.0979z" fill="#516eb4"/><path d="m25.205 83.115c.0728.046.1353.1067.1833.1782.048.0716.0806.1523.0957.2371.0184.0841.019.171.0019.2553-.017.0843-.0515.1642-.1011.2344l-1.6924 2.5293c-.046.0728-.1067.1353-.1783.1833-.0715.048-.1522.0806-.237.0957-.0836.0192-.1703.0209-.2546.0049s-.1644-.0493-.2352-.0979l-2.0271-1.3576c-.0728-.0461-.1352-.1068-.1833-.1783-.048-.0715-.0806-.1523-.0957-.2371-.0165-.0841-.0163-.1707.0008-.2547.017-.0841.0504-.1639.0984-.235l1.6862-2.5293c.0461-.0728.1068-.1352.1783-.1832.0715-.0481.1522-.0807.2371-.0958.084-.0183.1709-.019.2553-.0019.0843.0171.1641.0515.2344.1011zm-4.3394-2.8827c.0716.0467.1329.1077.1798.1792.0469.0714.0786.1519.0929.2362.0193.0836.021.1703.0049.2546-.016.0843-.0493.1643-.0978.2351l-1.6924 2.5355c-.0981.1416-.2473.2395-.4162.2731-.1689.0335-.3442.0001-.4889-.0933l-8.67896-5.7715c-.07235-.0474-.134-.1094-.18097-.182-.04698-.0725-.07824-.1542-.0918-.2396-.01835-.0826-.01956-.1682-.00357-.2514.01599-.0831.04886-.1621.09656-.2321l1.70484-2.5355c.0466-.0717.1076-.1329.1791-.1798.0715-.047.1519-.0786.2362-.093.0836-.0192.1703-.0209.2546-.0049s.1644.0494.2351.0979z" fill="#fff" opacity=".2"/><path d="m261.906 16.9074 6.607 2.5671c-2.449 6.3031-6.683 9.0196-8.901 8.3583l-.408-.1586-1.287-.5001c-1.375-.5272-2.485-1.5766-3.088-2.9186-.298-.6621-.461-1.3766-.48-2.1019s.107-1.4469.371-2.1228c.266-.6767.662-1.2943 1.167-1.8175.505-.5233 1.109-.9419 1.776-1.2319.667-.2901 1.386-.4459 2.114-.4586s1.451.118 2.129.3846z" fill="#a5d2d5" fill-opacity=".5"/><path d="m281.433 16.9642-1.145 2.9462c-.444 1.1416-1.11 2.1837-1.96 3.066s-1.867 1.5874-2.992 2.0745l-5.611 2.4391c-3.205 1.3891-6.819 1.5138-10.115.3491 2.221.6551 6.454-2.0614 8.901-8.3583l2.538-6.5333c.534-1.3738 1.593-2.479 2.943-3.0723 1.351-.59334 2.883-.62628 4.259-.09157 1.376.53467 2.484 1.59327 3.08 2.94277.595 1.3496.63 2.8795.096 4.2534" fill="#516eb4" fill-opacity=".5"/><path d="m280.809 38.1419-6.607-2.5671c2.448-6.3 6.682-9.0165 8.901-8.3583.134.052.271.1053.405.1574l1.29.5013c1.376.532 2.486 1.5863 3.086 2.9322.441 1.0001.574 2.1081.383 3.1833-.191 1.0751-.698 2.0689-1.456 2.855s-1.734 1.329-2.803 1.5598c-1.068.2308-2.182.139-3.199-.2636z" fill="#a5d1d4" fill-opacity=".5"/><path d="m261.281 38.085 1.14-2.9338c.444-1.1412 1.11-2.1831 1.96-3.0656.849-.8824 1.865-1.588 2.99-2.076l5.611-2.4392c3.205-1.3938 6.822-1.5214 10.121-.3572-2.227-.6469-6.454 2.0614-8.902 8.3614l-2.538 6.5334c-.534 1.3738-1.593 2.4789-2.943 3.0723-1.351.5933-2.883.6262-4.259.0915s-2.484-1.5933-3.08-2.9428c-.595-1.3495-.63-2.8795-.096-4.2533" fill="#516eb4" fill-opacity=".5"/><path d="m46.2032 38.3061 6.5343-2.7466c2.6204 6.2338 1.4649 11.1294-.5895 12.1957l-.4037.1697-1.273.5351c-1.3548.5765-2.8824.5938-4.2486.048-.6743-.269-1.2882-.6694-1.8058-1.1778-.5175-.5085-.9285-1.1149-1.209-1.7838-.2792-.6713-.4233-1.391-.4239-2.1182s.1422-1.4476.4204-2.12c.2781-.6723.6862-1.2835 1.2007-1.7987.5146-.5151 1.1256-.924 1.7981-1.2034z" fill="#a5d2d5" fill-opacity=".5"/><path d="m60.2821 24.7744 1.2248 2.9139c.4742 1.1294.7194 2.3418.7214 3.5671.0021 1.2252-.239 2.439-.7094 3.5712l-2.3384 5.6535c-1.3385 3.2261-3.8501 5.8277-7.0292 7.2813 2.0517-1.0724 3.2072-5.968.5895-12.1957l-2.7161-6.4615c-.5711-1.3588-.5782-2.8891-.0196-4.2544s1.637-2.4538 2.9981-3.0259c1.361-.5721 2.8932-.581 4.2595-.0248s2.4547 1.632 3.0258 2.9907" fill="#516eb4" fill-opacity=".5"/><path d="m74.5524 40.4337-6.5343 2.7466c-2.6191-6.2307-1.4635-11.1263.5895-12.1957.1325-.0557.2681-.1127.4007-.1684l1.276-.5364c1.359-.5738 2.8895-.5871 4.2569-.0369 1.012.4126 1.8779 1.1166 2.4878 2.0225.6098.9058.9361 1.9727.9373 3.0649s-.3227 2.1606-.9306 3.0692c-.6078.9087-1.4722 1.6168-2.4833 2.0342z" fill="#a5d1d4" fill-opacity=".5"/><path d="m60.4747 53.9657-1.2197-2.9016c-.4739-1.1291-.7192-2.3411-.7218-3.5661-.0026-1.2249.2376-2.4385.7067-3.5709l2.3385-5.6535c1.3358-3.2301 3.8474-5.8358 7.0284-7.2918-2.051 1.083-3.2073 5.968-.5882 12.1988l2.716 6.4615c.5712 1.3587.5782 2.8891.0196 4.2544-.5585 1.3653-1.637 2.4537-2.998 3.0259-1.3611.5721-2.8933.581-4.2596.0248s-2.4547-1.632-3.0258-2.9907" fill="#516eb4" fill-opacity=".5"/></svg>