<svg viewBox="0 0 2270.86 1634.52" xmlns="http://www.w3.org/2000/svg"><path d="m826.11 1795.91c-103.11 0-200.41-37.83-280.66-109-168.65-149.51-239.82-427.49-127.84-671.21 54.74-118.81 130.93-228.3 245.47-293.7a500.83 500.83 0 0 1 71.92-33.66c105-39.64 217.34-45 303.87-72.47 98.39-29.94 165.85-82.42 217.09-176.22 286-523.88 1227.05-271.2 1062.11 465.58-35.57 158.84 67.84 238.57 165.76 329.15 56.52 52.31 111.23 108.24 136.29 185.1a293.42 293.42 0 0 1 14.18 85.52c2.63 127.56-68.59 236.78-167.9 276-46.1 18.22-76.8 15.5-125.22 15.48z" fill="#ebf3fa" transform="translate(-363.5 -162.13)"/><path d="m1828.16 976.2v658.11h-9.9l-127.47-.05-45.27-.03-63.61-.01h-11.18l-11.16-.01-52.14-.02h-3.36l-123.95-.05-29.72-.01-27.26-.01-14.92-.01-17.41-.01-44.17-.01-13.01-.01-30.63-.01-92.65-.04-66.1-.02-234.51-.09-32.07-.01-36.43-.02h-3.94l-127.12-.04h-4.43l-84.08-.04-24.04-.01-8.91-.01v-657.59z" fill="#071e42"/><g transform="translate(-363.5 -162.13)"><path d="m1407.76 1796.14-303-.12h-3.94-127.11c-3.61-45.9-7.27-92.16-10.78-136.23-9.62-120.82-18.08-225.26-21-261.08-.69-8.58-1.07-13.22-1.07-13.22l127.14-7.79 210.88-58.81s1.68 14.25 4 35.32c4.27 39.32 10.68 102.41 12.31 140.94 2.5 59.16 55.93 228.36 101.4 284.74a148.81 148.81 0 0 1 11.17 16.25z" fill="#1c468a"/><path d="m1227.63 705s-123.66 59.66-195 37.53c0 0 17.55-22.14 48.26-38.61-2.46-14.31-4.38-26.73-5.48-37.26-3-24.3-3-38.07-3-38.07l47.71-37.53 45.25-35.91c-3.55 100.98 62.26 149.85 62.26 149.85z" fill="#ffb27d"/><path d="m1166.21 593.76s-31.26 57-90.76 72.9c-3-24.3-3-38.07-3-38.07l47.71-37.53z" fill="#ed985f"/><path d="m1050.68 626.94s118 19.3 129-53.22 33.76-118.88-41.09-134.27-93.75 10.12-103.42 33.44-14.89 147.16 15.51 154.05z" fill="#ffb27d"/><path d="m1222.6 430.77c1.07-1.23 3.54-2.22 9-2.52a22.22 22.22 0 0 0 -10.27-2.89c-1.15-7.65-5.22-21.17-18.37-24.46 0 0 7.07 3.77 8 11.89-15.24-15.65-47.89-27-138.3-19.9-119.15 9.4-79.88 85.69-64.45 94.79s54.25-15.84 83-13.56 33.26 45.9 44 49.51c6 2 10.7-1.7 23.89-7.66s9.66 13.22 5.85 27.43 14.32 33 14.32 33l18.31-19.73c18.32-19.73 35.58-103.28 27.25-121.09-.75-1.58-1.48-3.21-2.23-4.81z" fill="#a9453d"/><path d="m1432.64 1186.54c-1.19-28.44-65.54-335.62-121.05-419.91-35.79-54.34-110.09-91.48-110.09-91.48-4.93-3.77-35.93 13.48-64.45 27.24-26 12.68-41.74 12.4-66.42 7.54 0 0-26.74 16.76-35 23.23-31.9 24.89-62.81 64.8-77.33 121.5-12.06 48.06-19.2 135-23 225.17-1.92 41-3.29 82.09-3.84 121.23v1.35c-.27 4.06-.27 8.11-.27 12.14-1.37 100.17 0 179.82 1.92 181.17a11.16 11.16 0 0 0 7.4 3c26.87-.55 105 14.31 171.1 7.56 55.94-5.41 105.3-21.59 158.21-44.83 7.14-3.23 23.31-11.86 23-19.43-.28-8.63-1.1-20.79-2.2-36.45-.62-8.86-1.35-18.79-2-29.67-2.87-43.86-5.78-103.21-4.07-170.66 23.8 34.58 41.55 59.3 43.33 63.13 6.19 13.26-3.57 219.6-3.57 219.6 12.6 24.65 61.43 27.87 61.43 27.87s48.09-200.84 46.9-229.3z" fill="#1c468a"/><path d="m1027.66 541.12s46.87 7.73 101.32-12l5.29 60s-12.92 20.72-36.34 31.45c-26.31 12.06-56.78 17.47-66.63-12.54-5.16-15.72-3.64-66.91-3.64-66.91z" fill="#d2e4ff"/><path d="m1128.31 593.38-.72-2.23c.55-.18 28.73-22.84 40.22-50.44 3.09-7.44 6.25-19.27 2.43-20.47-18.43-5.79-47.17 17.19-43.94 13.55l.49-3.41c1.55-.83 26.32-17.41 45.7-11.32 4.44 1.4.77 15.53-2.6 23.64-5 12-6.81 15.41-15.13 26.51-10.38 13.79-26.31 24.13-26.45 24.17z" fill="#d2e4ff"/><path d="m1142.15 537.26c2-21.12 22.59-28.15 29.34-21.6 3.64 3.53 4.39 12.8 4.53 16.57.92 26.39-23.7 26.3-23.7 26.3s-10.86-14-10.17-21.27z" fill="#ffb27d"/><path d="m1919.66 304.5a57.14 57.14 0 0 0 21-2.34c18.48-5.75 52.63-21.1 105.65 8.76 48.94 27.57 101.1 196.39 122.43 212.82s50.11 23.84 46.91 57.46-41.58 56-16 77.32-7.32 99.09-79.9 97.53-255.83-83.05-254.28-122.82 12.24-42.26 33-73.52-58.71-78.22-54.15-141.65c4.14-57.42 46.81-115.59 75.34-113.56z" fill="#a9453d"/><path d="m2127.05 1124c-37.32-83.69-55.18-107.36-55.8-133.7-.5-20.82 9.77-43.29 29.72-98.38a205.45 205.45 0 0 0 9.93-39.83c15.78-106.22-45.64-221-83.82-228.86-10.62-2.81-28.63-41.17-28.4-103l-4.78.94-80.39 15.92s1.83 25.3 1.88 49.13c.06 19.86-1.14 38.68-5.64 41.05-5.79.53-9.2.87-9.2.87s-67 93.08-72.66 179.65 53.67 124.18-.45 297.18c-55.25 176.74 320.23 65.32 299.61 19.03z" fill="#ffb27d"/><path d="m1913.51 537.14s1.83 25.3 1.88 49.13c45-1.27 68.76-42.3 78.51-65z" fill="#e8945b"/><path d="m1898.49 559.71s106.43 1.75 106.5-64.54 13.86-110.71-54.09-114.64-81.18 21.36-86.58 43.48 6.49 133.53 34.17 135.7z" fill="#ffb27d"/><path d="m1999 392.88s-64.39-52.88-99.34-17.88c-7.29-4.16-18.31-4.63-32.18 12.18-24.67 29.91-2.72 82.77-2.72 82.77-9-44.77 2.53-56.08 11.93-66.84 5.14-5.88 15.31-10.92 23-14.13 9.21 23.16 37.53 85.36 83.1 106.43a249.06 249.06 0 0 1 -37-46.05c9 8.93 19.26 16 30.46 18.85 44.72 11.5 55.83-20.24 55.83-20.24s-25.98-7.52-33.08-55.09z" fill="#a9453d"/><path d="m2150.9 1200.47c-4.26 13.4-18.89 19.51-54.26 15.85-21.61-2.25-31.25-38.47-35.55-69.38-13 44.22-31.17 69-54.67 74.24-34.29 7.64-207.26 28.67-218.58-53.56-12.46-90.44-8.72-395.9-8.18-418.73 1.45-61.5 14-100.11 85.81-115.66 8-1.73 19.24-3 35.08-5 0 0 9.35-1.1 9.2-.87-2.92 5.24-45 64.93-41.93 80.19 3.2 16 142.13 1.59 151.72-7.19s6.55-77.41 6.55-77.41 122.51 4.58 135.73 31.24c58.92 118.79-10.7 509.79-9.68 530.31.35 6.71-.01 12.11-1.24 15.97z" fill="#071e42"/><path d="m1866.1 483.3s56.35 9.35 107-5l1 54.78s-88 55.1-100.31 10.08c-4.05-14.58-7.69-59.86-7.69-59.86z" fill="#d2e4ff"/><path d="m1968.36 536.49-.51-2.07c.51-.12 27.52-18.87 39.71-43.16 3.29-6.54 6.91-17.06 3.53-18.4-16.34-6.44-43.88 12.56-40.72 9.46l.67-3.06c1.45-.66 25-14.09 42.16-7.32 3.94 1.55-.3 14.13-3.88 21.26-5.32 10.6-7.16 13.54-15.42 23.07-10.3 11.88-25.41 20.19-25.54 20.22z" fill="#d2e4ff"/><path d="m1989.77 478.43c3.17-19 22.3-24.07 28-17.7 3.07 3.43 3.16 11.89 3 15.32-.86 24-23.18 22.32-23.18 22.32s-8.91-13.37-7.82-19.94z" fill="#ffb27d"/><path d="m1635.49 306.48c-6.23-12.22-52.84-96-141.32-53.18-124.84 60.4-134.59 220.21-177.57 246.63-76.51 47 3.61 183.66 79 186.88s153.43-112.93 153.43-112.93l46.65-142.33 36.58-2.57 7.33-23.64c22.89-56.67 10.66-84.17-4.1-98.86z" fill="#071e42"/><path d="m1687.53 1052.75c-47.89-.55-178.2-3-209.52-13.48-38.58-12.87-47.43-50.63-47.43-54.66 0-.87 3.16-18.59 8.18-46 10-21 15-33.69 15.31-47.07a76.39 76.39 0 0 0 -2.82-21.15c-4.15-16.13-12.74-37.33-25.44-72.46a194.65 194.65 0 0 1 -9.46-37.88c-15-101.06 43.43-210.3 79.75-217.72 10.1-2.68 27.22-39.19 27-98l4.56.9 76.46 15.14s-1.73 24.06-1.78 46.73c0 18.88 1.08 36.8 5.38 39.06 5.49.49 8.75.83 8.75.83l.22.28c14.56.94 53.22 4.39 58.33 14.83l-14.13 42.9-4.1 12.49c10.83 23.24 20.9 50.15 25.9 77.33a206.76 206.76 0 0 1 2.89 23 164.44 164.44 0 0 1 .17 18.78c-3.06 70.05-47.14 112.4.26 263.93 6.8 21.79 6.76 38.94 1.52 52.22z" fill="#ffb27d"/><path d="m1604.13 460.35s-1.74 24.07-1.79 46.74c-42.79-1.21-69.69-28.65-79-50.28z" fill="#e8945b"/><path d="m1614.05 487.5s-101.24 1.67-101.31-61.4-13.19-105.32 51.45-109.1 77.23 20.32 82.37 41.37-6.17 127.07-32.51 129.13z" fill="#ffb27d"/><path d="m1694.44 1341.72s91.54-221.35 86.72-382.11c-.54-18.13.38-66.1-2-85.82.18-111.41-74.93-300.31-106.1-317.39-16.21-8.88-65.67-10.47-65.38-10.25 0 0 12.1 22.56 23.43 49a35.64 35.64 0 0 1 -23.13 48.3l-1.27.35c-10.44 2.82-22.16 1.6-33.9-1.84-28.67-8.41-51.15-30.78-60.5-59.16-9.87-30-12.9-42.44-12.9-42.44l-52.64 9.57s-37.2 7.9-54.8 34.4c-23.34 35.13-92.09 215.27-119.78 390.86-7.61 48.5 422.25 366.53 422.25 366.53z" fill="#a9453d"/><path d="m1644.83 413.73s-53.63 8.9-101.84-4.81l-.9 52.15s83.71 52.44 95.47 9.59c3.8-13.83 7.27-56.93 7.27-56.93z" fill="#b6d7ff"/><path d="m1547.5 464.35.48-2c-.48-.12-26.19-18-37.8-41.08-3.13-6.23-8-25.09-4.74-26.36 15.55-6.13 43.15 20.8 40.14 17.85l-.63-2.91c-1.38-.63-23.16-21.38-39.51-14.94-3.76 1.48-.34 21.42 3.07 28.21 5.07 10.09 6.82 12.89 14.68 22 9.81 11.29 24.18 19.2 24.31 19.23z" fill="#b6d7ff"/><path d="m1527.12 409.09c-3-18.1-21.23-22.91-26.65-16.85-2.93 3.27-3 11.32-2.89 14.59.82 22.83 22.06 21.24 22.06 21.24s8.52-12.74 7.48-18.98z" fill="#ffb27d"/><path d="m1647.92 317.66c-16.81-20.37-29.21-14.06-35.49-7.82 1.8-4.19 2.75-6.71 2.75-6.71-22.35-37.63-98.18 14.22-98.18 14.22-7.23 48.36-42.11 76.06-42.11 76.06s19.72 12.19 65.19.5c18.49-4.76 34.37-20.66 46.69-37.86-16.72 36.34-48.55 64.57-48.55 64.57 50.82-23.49 71.22-94.16 73.26-101.64 6.18 5.55 18.36 17.61 22.07 29.43 5 16.06 7.32 49.12 17 48-.04-.01 20.84-50.3-2.63-78.75z" fill="#071e42"/><path d="m1781.16 1050.66s-56.12 66.57-127.58 38.72c0 0-15.38-37.18-15.59-64.59 0-3.37-.07-6.64-.12-9.75-.38-30.86-1.42-48.18-1.42-48.18h.07c3.25-1.35 109.24-44.87 109.15-41.25-1.81 83.45 35.49 125.05 35.49 125.05z" fill="#ffb27d"/><path d="m1735 945.49c-10.22 19-45.29 56-97.16 69.55-.38-30.86-1.42-48.18-1.42-48.18h.07c2.96-.8 101.58-26.95 98.51-21.37z" fill="#ed975d"/><path d="m1614.25 963.65s119.2 28 135.51-46.48 42.68-121-32.74-142.1-96.48 4.14-108 27.68-25.36 151.69 5.23 160.9z" fill="#ffb27d"/><path d="m1745.68 937.47c1.63 1 27.28 8.92 75.85-87.84 7.62-15.19 12.82-48-5-77.08s-80.79-51.87-133.15-61.8-64.94 19.53-77.27 49.14c-12.94 31.08-50.33 56.67-50.33 56.67 45.16 25.23 99.54-10.85 118.38-4.92s25.5 35.63 26.91 45.15 5.81 21 34 7.24c22.64-11 4 35.26.21 43.31.03 0-3.19 21.43 10.4 30.13z" fill="#2a4e96"/><path d="m1550 1325.74c.71 39.48 3 83.86 6.1 128.94l.57 8c2 27.93 4.12 55.92 6.59 83.21 1 10.94 2 21.76 3.13 32.38l.17 1.43c.08 4 .57 8.3 1 12.23 10.06 102.23 20.6 183 22.56 184.23a11.42 11.42 0 0 0 7.85 2c26.81-3.36 106.79 2.72 172.28-11.53 55.26-11.66 102.84-33.75 153.26-63.55 6.69-4 21.94-14.43 20.7-22.26-1.22-8.61-31-446-43-489.51-22.46-80.85-83.32-151.72-124.71-175.94-5.41-3-34.51 15.49-61.24 32.64-24.68 15.82-50.67 20.2-75.94 18l-22.25 24.6c-26.93 31.31-55.61 73-63.44 132.25-.59 4.38-1.1 9-1.52 14-2.23 24.14-2.76 54.67-2.11 88.88z" fill="#2a4e96"/><path d="m1595.71 880.5s54 9.8 109.41-6.94l2 60.24s-14 20-38 29.42c-26.93 10.61-64.52 9.53-72.14-16.54-4.62-15.92-1.27-66.18-1.27-66.18z" fill="#d2e4ff"/><path d="m1701 937.69-.61-2.26c.57-.15 29.94-21.25 42.91-48.18 3.5-7.26 7.3-18.89 3.55-20.3-18.09-6.79-48 14.59-44.61 11.13l.68-3.38c1.58-.74 27.22-15.94 46.24-8.8 4.36 1.63-.08 15.54-3.89 23.45-5.66 11.76-7.64 15-16.55 25.65-11.16 13.24-27.62 22.66-27.72 22.69z" fill="#d2e4ff"/><path d="m1717.83 882.41c3.15-21 24.09-26.87 30.48-20 3.44 3.72 3.69 13 3.61 16.8-.52 26.4-25.09 25-25.09 25s-10.08-14.57-9-21.8z" fill="#ffb27d"/><path d="m709.57 943.85s56.12 66.58 127.59 38.72c0 0 15.37-37.18 15.59-64.59 0-3.37.06-6.64.12-9.75.38-30.86 1.42-48.18 1.42-48.18h-.07c-3.22-1.37-109.22-44.89-109.16-41.27 1.82 83.47-35.49 125.07-35.49 125.07z" fill="#ffb27d"/><path d="m755.7 838.68c10.22 19 45.29 56 97.17 69.55.38-30.86 1.42-48.18 1.42-48.18h-.07c-2.94-.8-101.56-26.95-98.52-21.37z" fill="#ed975d"/><path d="m876.49 856.84s-119.2 28-135.51-46.47-42.68-121.06 32.74-142.11 96.47 4.14 108 27.69 25.35 151.68-5.23 160.89z" fill="#ffb27d"/><path d="m745.05 830.66c-1.62 1.05-27.27 8.93-75.84-87.84-7.63-15.19-12.82-48.05 4.95-77.08s85.94-86.52 133.16-61.8c44.91 23.51 81.51 26.52 81.51 26.52 21.74 67.5-53.46 68.44-72.3 74.37s-25.53 35.63-26.91 45.17-3.58 17.43-27.28 8.93-10.71 33.57-6.92 41.62c0-.02 3.22 21.45-10.37 30.11z" fill="#071e42"/><path d="m901.9 1585.25s-2.67 33.23-6.88 86.16c-2.73 34.41-6.11 77.17-9.84 124.53-63.52 0-78.76.66-109.3-3.06a408.26 408.26 0 0 1 -109.14-29 421.17 421.17 0 0 1 -40.5-19.66c-2.69-47.38-5-88.81-6.7-119.63-2-35.59-3.12-57-3.12-57l157.4 9.74z" fill="#2b478b"/><path d="m855.24 1600.39s-10.5 26.34-28.16 69.41c-13.43 32.75-31 75.2-51.2 123.08-80.76-9.81-160.65-44.1-230.43-106 1.61-29 5.13-67.42 8.43-100.37 3.87-38.43 7.45-69.43 7.45-69.43l212.49 60.19z" fill="#2b478b"/><path d="m940.77 1218.94c-.71 39.47-3 83.85-6.1 128.93l-.57 8c-2 27.93-4.12 55.92-6.58 83.21-1 10.94-2 21.76-3.14 32.38l-.17 1.44c-.08 4-.56 8.29-1 12.22-10.06 102.23-20.6 183-22.55 184.24a11.49 11.49 0 0 1 -7.85 2c-26.81-3.36-106.81 2.72-172.29-11.53-55.26-11.66-102.84-33.75-153.26-63.55-6.69-4-22-14.43-20.71-22.26 1.22-8.61 27.18-432 38.75-475.65 31.12-117.37 104.82-170.18 146.21-194.37a222.86 222.86 0 0 0 44 37.24c24.69 15.82 47.11 10.65 72.39 8.44l25.8 34.15c26.94 31.31 55.62 73 63.45 132.25.59 4.38 1.09 9 1.51 14 2.2 24.08 2.72 54.64 2.11 88.86z" fill="#a9453d"/><path d="m894.51 773.15s-54.62 9.63-110.07-7.1l-2 60.23s14 20 38 29.43c26.93 10.6 64.52 9.53 72.13-16.55 4.64-15.92 1.94-66.01 1.94-66.01z" fill="#d2e4ff"/><path d="m788.61 830.18.6-2.27c-.56-.15-29.93-21.25-42.91-48.18-3.5-7.26-7.29-18.89-3.54-20.3 18.08-6.79 48 14.59 44.61 11.14l-.68-3.39c-1.59-.74-27.23-15.94-46.24-8.8-4.36 1.64.07 15.55 3.88 23.45 5.67 11.76 7.64 15 16.56 25.65 11.11 13.24 27.58 22.66 27.72 22.7z" fill="#d2e4ff"/><path d="m771.74 774.89c-3.15-21-24.1-26.87-30.48-20-3.44 3.73-3.69 13-3.62 16.8.52 26.4 25.1 25 25.1 25s10.08-14.57 9-21.8z" fill="#ffb27d"/><path d="m1028.77 956.47c2.53-4.89 31.7-56.76 114.8-21 0 0-42.47-14.17-57.76.23 0 0 37.69-8.93 56.67 8.61s13.67 62.78 7.74 75.7-37.85 48.49-53.66 45.34c-6-1.19-12-4.46-17.15-8.06a215.21 215.21 0 0 1 1.74 24.79c1 82.37-63.47 132-87.69 111.71-15.53-13-34.8 14.88-34.8 14.88l-106.43-220.52s124.91-101.02 176.54-31.68z" fill="#071e42"/><path d="m826.11 1795.91c-85.74 0-164.88-26.13-232.21-71.45 35.52-107.22 126.06-374 153.67-393.06 19-13.12 63.14-17.79 102-19.19 37.95-1.38 70.95.35 70.95.35s28.29 0 64.43 4.13l1.2.14h.18c40.74 4.68 91 14.46 122 34.93 27.35 18 124 383.78 139.84 444.3z" fill="#f99746"/><path d="m986.21 1316.71c-13.19-21.71-22.54-72.49-18.09-140.28l-8.41 14.2-100.41 13.49s.32 31.37-1.43 60.77c-1.38 23-4.13 36.74-9.08 49.52-.36 0-.37.07-.06.11-1.53 2.6-34.09 58.92 9.13 69.25 117.36 28 127.9-62.5 128.34-66.88.37-.05.4-.11.01-.18z" fill="#ffb27d"/><path d="m859.29 1204.12s.32 31.36-1.43 60.77c55.6 1.88 88.08-46.94 101.84-74.26z" fill="#ed975d"/><path d="m830.75 1214.28s128.63 27.84 144.73-52.53 43.55-130.9-37.89-152.07-103.59 6.32-115.49 31.81-24.39 163.51 8.65 172.79z" fill="#ffb27d"/><path d="m810 1119.21s61.42 11.24 124.28-7.73l2.28 68.29s-15.91 22.66-43.08 33.36c-30.54 12-73.15 10.81-81.79-18.76-5.26-18.05-1.69-75.16-1.69-75.16z" fill="#d2e4ff"/><path d="m929.56 1184.19-.68-2.57c.64-.17 33.94-24.09 48.65-54.62 4-8.23 8.27-21.42 4-23-20.5-7.69-54.46 16.55-50.58 12.62l.77-3.83c1.8-.85 30.87-18.08 52.42-10 5 1.85-.08 17.62-4.4 26.59-6.42 13.33-8.66 17-18.77 29.07-12.58 15.02-31.25 25.7-31.41 25.74z" fill="#d2e4ff"/><path d="m834.84 997.56c24.76-20.21 38.78-11.9 45.78-2.95 78.26-24.72 112.28 41.66 112.28 41.66-2.85 59.4 32.16 100.73 32.16 100.73s-26.42 9.84-77.86-14.91c-15.72-7.56-28.16-22.27-37.89-39 14.62 41.15 39.21 73.6 39.21 73.6-58.81-42.84-66.87-138.11-67.56-148.15-9.29 5.51-27.88 17.78-35.62 31.9-10.51 19.19-21.8 60.75-33.79 56.87 0-.05-13.85-69.45 23.29-99.75z" fill="#071e42"/><path d="m1276.5 1006.32c0 1 3.16 42.89 2.16 77.34-.17 6.09-.47 11.88-1 17h128c-5.61-9.62-11.24-24.19-15.49-43.09a280.67 280.67 0 0 1 -5-29.94 358.83 358.83 0 0 1 -2.28-42.33z" fill="#ffb27d"/><path d="m1353.14 772c-12.66-3-27.41-3.77-44.57-1.31 0 0-49.1.71-80.94 39.5-17.58 21.42 10.4 176.22-14.16 224.29-2.19 4.28 12.31 6.07 18.25 6.07 0 0 8.69-3.32 10.41-8.12 0 0-1.72 7.54-4 9.94 0 0 47.79 4.53 71.65-13.51 13-9.81 27.17-32.81 36.34-56.27l36.13 2.54c.39 15.55-5.18 33.33-22.55 51.9 0 0 44.58 4.37 59.66-8 0 0-3 6-5.71 8.72 0 0 49.84 1.79 70.41-13.75s7.4-270.48-130.92-242z" fill="#071e42"/><path d="m1276.5 1006.32s2.28 31.59 2.35 61.36c56.18-1.59 85.87-52.83 98-81.24z" fill="#ed975d"/><path d="m1257.74 1034.5s132.91 2.19 133-80.6 17.31-138.27-67.55-143.17-101.38 26.67-108.13 54.27 8.1 166.8 42.68 169.5z" fill="#ffb27d"/><path d="m1271.68 816.59s-27.18 21.68-33.81 42.77-9.6 64.48-22.25 63c0 0-27.42-66 3.39-103.37 32.67-39.6 52.67-2.4 52.67-2.4z" fill="#071e42"/><path d="m1566.5 1796.2h-92.65-66.09l-234.51-.09h-32.08c3-29.57 7.73-57.93 14.78-81 21.44-70.22 34.21-112.61 39.11-128.93q1-3.25 1.54-5.13c.51-1.72.77-2.57.77-2.57s101.78 25.54 210.3 9.38a405 405 0 0 0 46.68-9.68q9.62-2.61 19.12-5.76l1.19 2.54c9.36 20 71.15 152.81 89.15 212.35.89 2.77 1.78 5.77 2.69 8.89z" fill="#031530"/><path d="m1610.14 1796.22c-19.35-20.73-35-45.38-38.61-57.22-7.24-24.06-55.93-193.5-65.86-240.84-1.79-8.6-2.81-13.62-2.81-13.62a.64.64 0 0 0 -.07.16v.1c0 .12-.11.26-.18.44l-.25.59c-.07.17-.14.36-.23.56s-.1.23-.15.36c-5 11.89-22.24 53.66-25.75 64.21a21.45 21.45 0 0 0 -1.38 4.89c-.75 5.81-1.09 12.42-1.3 16.12v.3s-147.23 74.31-276.11 6.06c0 0-.4-3.19-1.11-9-.74-6.17-1.85-15.32-3.19-26.77-5.47-46.68-15-131.67-21.34-210.13-1.74-21.43-3.25-42.38-4.37-61.92s0 0 0 0c-3-51.81-3.32-93.73 1.74-108.76 7.5-22.27 68.49-36.25 92.78-41 5-5.28 4.42-15.3 2.41-24.5a10.84 10.84 0 0 1 13.27-12.86l1.11.27c15.37 3.64 42.06 2.77 70.6-6.61a173.16 173.16 0 0 0 43.85-21.42 6.69 6.69 0 0 1 10.39 4.74c2.23 18.06 7.68 51 17.64 51 13.71-.08 107.32 11.41 114.18 23 2.39 4 26.72 59.09 57.44 132a.94.94 0 0 1 .06.2c.57 1.35 1.15 2.73 1.74 4.11 58.25 137.53 173.5 375.85 173.5 419.56 0 23-25.78 72.39-54.15 106z" fill="#d2e4ff"/><path d="m1502.87 1484.55s-27.14 64.74-28 70.77c-.38 2.72-.71 6.45-1 9.74a133.7 133.7 0 0 1 -45.12 23.73c-45.9 13.91-65.84-74.07-63.1-118s67.7-169.14 89.35-171.79 47.87 185.55 47.87 185.55z" fill="#b6dbff"/><path d="m1505.66 1498.15c-1.78-8.58-2.79-13.6-2.79-13.6a69.84 69.84 0 0 1 2.79 13.6z" fill="#e58638"/><path d="m1316.55 1611.26c-83.78 0-117.4-28.32-120-30.28l-5.42-39.46c.8.59 113.22 68.1 287.19 3.45l-3.68 29.89c-66.86 24.87-114.58 36.4-158.09 36.4z" fill="#a9453d"/><path d="m1768.06 1690.29c0 23-25.78 72.39-54.15 106h-27.26c5.37-145.85-91.34-521.42-93.83-529.63.57 1.35 1.15 2.73 1.74 4.11 58.25 137.49 173.5 375.81 173.5 419.52z" fill="#b6dbff"/><path d="m1421.14 1111.4s-70.09 44.39-123.12 33.88c0 0-12.73-8 4.83-16.13 16.49-7.57 54.84-30 46.42-52.1a172.8 172.8 0 0 0 43.83-21.42 6.7 6.7 0 0 1 10.4 4.74c2.22 18.05 7.68 51.03 17.64 51.03z" fill="#b6dbff"/><path d="m1218.84 949.73s68.55 4.79 127.56-18.21l7.36 65.5s-99 76-119 23.48c-6.4-16.95-15.92-70.77-15.92-70.77z" fill="#eef6ff"/><path d="m1347.35 1001.79-.84-2.42c.59-.21 30.81-25.73 42.64-56.2 3.19-8.22 6.33-21.23 2.13-22.44-20.3-5.85-51.12 20-47.68 16l.4-3.73c1.67-1 28.32-19.72 49.66-13.57 4.9 1.41 1.26 17-2.22 25.91-5.17 13.3-7 17-15.85 29.38-10.94 15.34-28.08 27.02-28.24 27.07z" fill="#eef6ff"/><path d="m1366.39 929.82c1.63-23.13 24-31.36 31.51-24.38 4.07 3.77 5.14 13.88 5.38 18 1.7 28.83-25.21 29.37-25.21 29.37s-12.25-15.01-11.68-22.99z" fill="#ffb27d"/><path d="m1266.63 819.87s25.92 101.72 96.39 134.29c0 0-70.47-62.49-76.45-129.64s-19.94-4.65-19.94-4.65z" fill="#071e42"/><path d="m1262.66 808.7s36.39 97.13 92.24 111.5 80.07-.61 80.07-.61-42.84-34-51.73-93.43c0 0-93.13-63.69-120.58-17.46z" fill="#071e42"/><path d="m2080.82 781.64s-104.82 6.09-107.7 123.08 129.36 401.08 129.36 401.08l252.16-28.15s-77.93-540.52-273.82-496.01z" fill="#1c468a"/><path d="m2290.79 1796.48-236.5-.09h-45.27-64.14c-4.78-16.58-4-37.27 4-62.77 14.74-47.12 22.65-90 26.06-129.52.45-5 .81-10 1.1-14.91 8-133.58-34-226.59-28.46-308.19 4.8-70.83 70.45-125.39 86.83-137.94 2.35-1.81 3.68-2.74 3.68-2.74s6.58-1.33 13.81-2c4.4-2.32 6.18-18.3 6.71-37 .15-5.2.21-10.61.19-16 0-11-.35-22.3-.76-32.13l-.09-2c-.67-15.73-1.5-27.29-1.5-27.29l75.21-14.9 9.23-1.82 6.57-1.3 9.43-1.86 6-1.19v.06c-.1 28.29 2.86 52.65 7.3 72.32 6.53 28.94 16.25 47.77 24.19 54.13a12.1 12.1 0 0 0 3.16 1.92 6.1 6.1 0 0 0 .85.29c31.52 6.46 75.73 71.28 96.41 152.82 10.62 41.88 15 88.16 8.35 133.2a256.75 256.75 0 0 1 -12.42 49.77c-2.78 7.68-5.4 14.84-7.88 21.56-.45 1.21-.89 2.41-1.32 3.58-14.27 38.62-23.24 61.85-26.53 80.66a1 1 0 0 0 0 .15 90.8 90.8 0 0 0 -1.22 10c-.16 2.28-.22 4.52-.17 6.74a2.81 2.81 0 0 0 0 .29c.78 32.91 23.09 62.48 69.74 167.08 4.9 11.04-8.35 25.12-32.56 39.08z" fill="#ffb27d"/><path d="m2056.43 1023.87s2.29 31.61 2.36 61.39c56.21-1.58 85.93-52.86 98.1-81.29z" fill="#ed975d"/><path d="m2037.66 1052.07s133 2.19 133.1-80.66 17.32-138.37-67.6-143.27-101.45 26.69-108.16 54.34 8.06 166.88 42.66 169.59z" fill="#ffb27d"/><path d="m2466.4 1781a220.27 220.27 0 0 1 -59.69 14.45c-10.18-17.89-21-37.24-31.64-56.68-29.64-54.32-57.23-109.17-62.41-133.77-3.91-18.51-13.48-55.56-24.67-97.07-1.69-6.28-3.41-12.66-5.16-19.09q-2.16-7.95-4.35-16c-21-77-43.46-156-43.46-156l-5.81-25.14-4-17.43-32.39-140.3-1.14-4.91 2.7.29c1.33.16 3.13.37 5.3.65 18.39 2.31 64.27 9 93.74 21.32 12.44 5.19 21.92 11.39 25.24 18.66 11 24.2 22 63.13 32.48 108.11 15.78 67.74 30.38 149.22 42 214.85 10.79 60.86 19 108.11 23.31 118.12 5.64 13.15 16.75 54.25 30.21 102 1.32 4.73 2.68 9.54 4.06 14.38 5.02 17.56 10.28 35.77 15.68 53.56z" fill="#d9935c"/><path d="m2341.18 1796.5c-22.68-68.4-87.61-206.23-87.61-206.23h-.05c-6.29 2.09-12.65 4-19 5.72a405 405 0 0 1 -46.77 9.72c-108.59 16.16-210.44-9.4-210.44-9.4s-.76 2.56-2.32 7.72c-4.89 16.33-17.67 58.76-39.13 129-5.63 18.41-9.74 40.19-12.73 63.26z" fill="#a9453d"/><path d="m2373 1284.34a.94.94 0 0 0 -.06-.19c-30.75-73-55.1-128.09-57.48-132.13-6.87-11.58-100.54-23.08-114.26-23-10 0-15.43-33-17.65-51.06a6.7 6.7 0 0 0 -10.41-4.75 173 173 0 0 1 -43.87 21.44c-29.26 9.61-56.58 10.29-71.76 6.34a10.85 10.85 0 0 0 -13.28 12.87c2 9.2 2.54 19.22-2.42 24.51-24.3 4.73-85.33 18.72-92.84 41-17.3 51.35-16.23 103.7-5.82 148.88 6.33 107.49 34.12 268.07 34.12 268.07 129 68.3 276.31-6.07 276.31-6.07s.16-3.29.44-7.27c.24-3.3.57-7 1-9.75.85-6 28-70.83 28-70.83s1 5 2.8 13.62c9.94 47.38 44 203 64.87 217 12.11 8.1 50.81 8.23 87.16-1.7 37.8-10.32 73-31.55 73-66.08-.04-44.11-80.17-243.96-137.85-380.9z" fill="#f99746"/><path d="m2283 1502.42s-27.15 64.79-28 70.83c-.39 2.72-.72 6.45-1 9.75a133.81 133.81 0 0 1 -45.16 23.74c-45.93 13.92-65.89-74.12-63.14-118s67.7-169.3 89.33-171.91 47.97 185.59 47.97 185.59z" fill="#e58033"/><path d="m2285.76 1516c-1.79-8.59-2.8-13.62-2.8-13.62a69.34 69.34 0 0 1 2.8 13.62z" fill="#e58638"/><path d="m2510.81 1665.3c0 34.53-35.22 55.76-73 66.08 52.1-62.05-61.9-437.46-64.81-447 57.68 136.9 137.81 336.75 137.81 380.92z" fill="#e58033"/><path d="m2201.18 1129s-70.14 44.42-123.21 33.9c0 0-12.74-8 4.83-16.14 16.5-7.58 54.88-30 46.45-52.13a173 173 0 0 0 43.87-21.44 6.7 6.7 0 0 1 10.41 4.75c2.22 18.06 7.68 51.06 17.65 51.06z" fill="#e58033"/><path d="m1993.36 870.05s24.57-51.95 89.45 56.12c8.25 13.74 43.39 25.36 55.84 21.17 60.92-20.48 43.92 60.84 43.92 60.84s5.88-208.86-45.23-212.7-143.98 74.57-143.98 74.57z" fill="#1c468a"/><path d="m2056.43 829.77s-28.51 18.44-69.89 81.7c0 0-2.55-58.15 21.73-72.85s48.16-8.85 48.16-8.85z" fill="#1c468a"/><path d="m1997.33 955s69.51 23.53 127.5 0l8.17 64.61s-99 66.8-119.41 15.2c-6.59-16.64-16.26-79.81-16.26-79.81z" fill="#d2e4ff"/><path d="m2126.73 1024.43-.87-2.38c.59-.21 30.09-25.83 41.37-56.1 3-8.16 6-21.06 1.79-22.2-20.13-5.5-50.23 20.49-46.89 16.42l.39-3.7c1.64-1 27.71-19.87 48.88-14.08 4.86 1.32 1.47 16.73-1.84 25.62-4.93 13.21-6.73 16.92-15.26 29.24-10.64 15.36-27.42 27.13-27.57 27.18z" fill="#d2e4ff"/><path d="m2138.66 957.14c1.3-22.88 23.25-31.31 30.8-24.51 4.08 3.66 5.27 13.64 5.57 17.71 2.07 28.46-24.52 29.35-24.52 29.35s-12.3-14.69-11.85-22.55z" fill="#ffb27d"/><path d="m1944.25 1171.28s-60.68-10.58-112.23 23.79-59 203.55-85 220.74-137.49 62.12-111.49 129.54-19.27 97.83-3.91 144.06 395.46 91.25 424.84 58.2 53.32-143 37.39-172.64-86-55.67-60.52-85.62c71.38-83.83 44.67-326.43-89.08-318.07z" fill="#a9453d"/><path d="m2068.7 1656.79c-19.11 17.82-44 33.84-76.32 46.41-121.17 47.15-184.59-51.84-213.18-122 15.68-12.27 31.45-16.76 40.58-19.21 1.84-.5 3.71-1 5.58-1.44a47.9 47.9 0 0 0 34.32-32.63c6.9-23 11.39-57.76 8.06-101.14l6.13.73 102.73 12.71s0 32.07 2.12 62.08c.91 12.86 2.2 25.35 4 34.81a20.69 20.69 0 0 0 18.49 16.68.22.22 0 0 0 .07.08 643.24 643.24 0 0 1 67.42 102.92z" fill="#ffb27d"/><path d="m1654.31 1796.24c10-37.51 47.75-172 75.27-198.69 26.56-25.74 88.24-35.23 90.16-35.52s1 3.3 2.73 8.66c5.51 17.38 18.45 56.56 28.67 75.42 2.45 4.55 4.75 7.9 6.75 9.5 5.32 4.2 38.55 7.6 75.91 8.69 3 .09 6 .16 9 .21 50.74 1 105.45-2.42 106.86-13.71 2.52-20.06-46.59-94.07-48.43-96.87l-.06-.09c59.6 3.44 92.56 21.14 92.56 21.14 56.53 57.17 80.62 138.94 88 221.47z" fill="#071e42"/><path d="m1976.61 1440.28s0 32 2.12 62.07c-56.79 2.52-90.5-47-104.86-74.78z" fill="#ed985f"/><path d="m1997.6 1467.34s-133.93 11.94-140.09-71.59-27.58-138.23 57.68-149.38 104.23 19.49 113.07 46.87 4.02 168.84-30.66 174.1z" fill="#ffb27d"/><path d="m2030.83 1367.59s-66 15.12-134.85-5.66l-2.51 74.79s12.34 15.57 42.1 27.3c33.44 13.16 71.6 12.65 84-18.73 10.01-25.56 11.26-77.7 11.26-77.7z" fill="#d2e4ff"/><path d="m1901.15 1441.56.75-2.82c-.7-.18-37.17-26.37-53.28-59.81-4.34-9-9-23.46-4.4-25.21 22.45-8.43 59.64 18.12 55.39 13.82l-.84-4.2c-2-.92-33.81-19.79-57.41-10.93-5.42 2 .09 19.31 4.81 29.12 7 14.6 9.49 18.65 20.56 31.84 13.8 16.45 34.27 28.14 34.42 28.19z" fill="#d2e4ff"/><path d="m1880.2 1372.91c-3.91-26-29.92-33.36-37.84-24.79-4.27 4.63-4.58 16.17-4.49 20.86.65 32.78 31.16 31 31.16 31s12.52-18.09 11.17-27.07z" fill="#ffb27d"/><path d="m2020.9 1247.08c-22.55-23.62-37.82-17-46-8.78-76.22-35-119.13 28-119.13 28-4.62 60.58-45.35 98.05-45.35 98.05s25.54 13.33 80.83-5.25c16.89-5.68 31.37-19 43.36-34.81-20 39.88-49.07 69.67-49.07 69.67 65-36 85.28-131.57 87.25-141.66 13.43-.63 38.25 7.3 51.77 39.62 8.62 20.62 7.37 59.17 7.37 59.17s22.79-68.58-11.03-104.01z" fill="#a9453d"/></g></svg>