<svg width="70" height="70" viewBox="0 0 70 70" fill="none" xmlns="http://www.w3.org/2000/svg">
<path d="M35 70C54.33 70 70 60.9429 70 49.7704C70 38.5979 54.33 29.5408 35 29.5408C15.67 29.5408 0 38.5979 0 49.7704C0 60.9429 15.67 70 35 70Z" fill="#F5F5F5"/>
<path d="M26.7121 55.8977C34.2856 55.8977 40.4252 52.1916 40.4252 47.62C40.4252 43.0483 34.2856 39.3423 26.7121 39.3423C19.1386 39.3423 12.999 43.0483 12.999 47.62C12.999 52.1916 19.1386 55.8977 26.7121 55.8977Z" fill="#E0E0E0"/>
<path d="M10.06 59.8573C13.4068 59.8573 16.12 58.2194 16.12 56.199C16.12 54.1786 13.4068 52.5408 10.06 52.5408C6.71315 52.5408 4 54.1786 4 56.199C4 58.2194 6.71315 59.8573 10.06 59.8573Z" fill="#E0E0E0"/>
<path d="M49 61C55.0751 61 60 58.0899 60 54.5C60 50.9101 55.0751 48 49 48C42.9249 48 38 50.9101 38 54.5C38 58.0899 42.9249 61 49 61Z" fill="#E0E0E0"/>
<path d="M23.86 59.0762L22.8386 58.4609L21.433 57.6097C21.1315 57.4498 20.7983 57.3665 20.4603 57.3665C20.1223 57.3665 19.7891 57.4498 19.4877 57.6097C18.9526 57.9285 18.9541 58.4609 19.4877 58.7845L20.8948 59.6309L21.9132 60.2478C22.2146 60.4077 22.5478 60.491 22.8858 60.491C23.2238 60.491 23.5571 60.4077 23.8585 60.2478C24.4012 59.9242 24.3982 59.3998 23.86 59.0762Z" fill="#E0E0E0"/>
<path d="M13.8865 61.971L14.9064 61.3573L16.312 60.5077C16.6134 60.3477 16.9466 60.2644 17.2846 60.2644C17.6226 60.2644 17.9559 60.3477 18.2573 60.5077C18.7939 60.8265 18.7909 61.3589 18.2573 61.6824L16.8486 62.5289L15.8302 63.1457C15.5288 63.3057 15.1956 63.389 14.8576 63.389C14.5196 63.389 14.1864 63.3057 13.885 63.1457C13.3453 62.8206 13.3468 62.2945 13.8865 61.971Z" fill="#E0E0E0"/>
<path d="M14.8736 24.2739C11.9714 26.0249 7.35596 29.505 7.35596 36.9803C7.35596 44.4556 12.1608 50.3797 18.6316 52.8641C22.0932 54.1934 27.5749 54.6977 31.759 52.4644C35.3942 50.5209 37.8422 48.5205 39.175 44.8901C41.4108 38.8028 39.175 34.1108 35.8326 31.5897C32.4903 29.0686 31.1277 28.117 28.2799 25.297C26.8349 23.8669 24.6727 22.9043 22.3913 22.6384C19.7842 22.3628 17.1592 22.9339 14.8736 24.2739Z" fill="#516EB4"/>
<path opacity="0.75" d="M14.8736 24.2739C11.9714 26.0249 7.35596 29.505 7.35596 36.9803C7.35596 44.4556 12.1608 50.3797 18.6316 52.8641C22.0932 54.1934 27.5749 54.6977 31.759 52.4644C35.3942 50.5209 37.8422 48.5205 39.175 44.8901C41.4108 38.8028 39.175 34.1108 35.8326 31.5897C32.4903 29.0686 31.1277 28.117 28.2799 25.297C26.8349 23.8669 24.6727 22.9043 22.3913 22.6384C19.7842 22.3628 17.1592 22.9339 14.8736 24.2739Z" fill="white"/>
<path d="M15.6262 49.2339C9.89189 44.3493 9.48856 36.5825 10.8914 31.8557C12.3732 26.9051 16.8537 23.1757 22.388 22.6385C21.9867 22.593 21.5834 22.5698 21.1798 22.5688C16.1926 23.4049 12.0874 27.1013 10.6863 31.7897C9.25183 36.5843 9.67269 44.4575 15.4859 49.4099C17.969 51.5258 21.7269 53.363 24.6975 53.9937C25.0482 54.001 25.4042 53.9974 25.7654 53.9827C22.1934 53.451 18.0794 51.3241 15.6262 49.2339Z" fill="#516EB4"/>
<path opacity="0.05" d="M15.6262 49.2339C9.89189 44.3493 9.48856 36.5825 10.8914 31.8557C12.3732 26.9051 16.8537 23.1757 22.388 22.6385C21.9867 22.593 21.5834 22.5698 21.1798 22.5688C16.1926 23.4049 12.0874 27.1013 10.6863 31.7897C9.25183 36.5843 9.67269 44.4575 15.4859 49.4099C17.969 51.5258 21.7269 53.363 24.6975 53.9937C25.0482 54.001 25.4042 53.9974 25.7654 53.9827C22.1934 53.451 18.0794 51.3241 15.6262 49.2339Z" fill="black"/>
<path d="M55.6243 53.3506C55.7781 53.6714 55.8482 54.029 55.8275 54.3873C55.811 54.7018 55.6309 55.1078 55.7119 55.8162C55.7928 56.5247 55.9482 56.7475 56.0192 57.2486C56.0625 57.4776 56.0614 57.7133 56.016 57.9419C55.9705 58.1704 55.8817 58.3871 55.7548 58.5791C55.4755 59.0559 54.8558 59.4326 53.6363 59.3877C52.6448 59.3497 52.2515 58.821 52.23 58.2145L55.6243 53.3506Z" fill="#263238"/>
<path d="M55.3332 51.8801C55.3622 52.012 55.3815 52.146 55.3911 52.281C55.4291 52.5194 55.4969 52.7492 55.5563 52.9842C55.5707 53.0452 55.5839 53.1074 55.596 53.1708C55.6918 53.6425 55.596 54.1332 55.596 54.617C55.6043 55.1889 55.7613 55.747 55.8819 56.3034C56.1033 57.3055 56.1397 57.9777 55.3002 58.6723C54.8573 59.0386 54.3731 59.0507 53.8129 59.0662C53.3866 59.0783 52.8297 58.9487 52.5768 58.7535C52.2182 58.477 52.2215 58.2455 52.2199 58.1556C52.1868 57.0896 52.5504 55.8507 52.6281 54.7881C52.6572 54.5011 52.6633 54.2121 52.6462 53.9241C52.6115 53.5786 52.4942 53.2226 52.4579 52.8667C52.4317 52.7348 52.448 52.5975 52.5041 52.4762C52.561 52.4088 52.6309 52.3548 52.7093 52.3178C52.7876 52.2809 52.8726 52.2618 52.9586 52.262C53.4048 52.2009 53.852 52.1537 54.3004 52.1203C54.353 52.1095 54.4071 52.1098 54.4596 52.1211C54.512 52.1323 54.5619 52.1544 54.6061 52.1859C54.6937 52.2671 54.6954 52.4054 54.7185 52.5315C54.7416 52.6576 54.8276 52.7889 54.9416 52.7665C54.978 52.7547 55.0104 52.7321 55.0347 52.7014C55.0591 52.6707 55.0744 52.6333 55.0788 52.5937C55.0903 52.5142 55.1217 51.9026 55.1184 51.8179C55.125 51.8058 55.2837 51.7782 55.3332 51.8801Z" fill="#37474F"/>
<path d="M40.5045 55.4155C40.436 55.6049 40.4395 55.8145 40.5144 56.0012C40.5854 56.174 41.42 56.7166 42.5751 56.6837C43.4324 56.6577 44.2673 56.3916 44.9927 55.9131C45.4439 55.628 45.9049 55.59 46.48 55.5796C47.0551 55.5693 47.7194 55.355 47.9144 55.0837C47.9891 54.821 47.9891 54.5413 47.9144 54.2786L40.5045 55.4155Z" fill="#263238"/>
<path d="M44.6817 51.8474C44.6365 51.933 44.5962 52.0212 44.561 52.1118C44.4199 52.4398 44.2016 52.7252 43.9265 52.9411C43.528 53.2293 43.1001 53.4704 42.6507 53.6599C42.3681 53.793 42.069 53.8327 41.7815 53.9364C41.4567 54.0444 41.1437 54.1881 40.8478 54.3649C40.3818 54.6638 40.2926 55.4621 40.7966 55.8007C41.2295 56.0927 42.388 56.4383 43.629 56.1273C44.3049 55.9545 45.0766 55.2409 45.9558 55.2063C46.516 55.1856 47.5769 55.0664 47.952 54.6379C48.0908 53.9986 47.9405 53.8172 47.8149 53.2729C47.7488 52.966 47.7139 52.6527 47.7108 52.3381C47.7108 52.174 47.8149 51.6988 47.4827 51.647L47.4497 52.0029C47.4497 52.0029 47.3869 52.1239 47.0415 52.1878C46.9291 52.2085 46.8415 52.3606 46.7804 52.5023C46.7341 52.6094 46.6845 52.7476 46.5722 52.7459C46.5337 52.7408 46.4973 52.725 46.4667 52.7001C46.4362 52.6751 46.4127 52.642 46.3986 52.6042C46.3722 52.5281 46.3506 52.4501 46.3342 52.3709C46.2899 52.2466 46.2203 52.1338 46.1301 52.0404C46.0399 51.947 45.9314 51.8752 45.812 51.8301C45.6133 51.7605 45.4076 51.7153 45.1989 51.6954C45.0337 51.6694 44.9097 51.5986 44.7676 51.7385C44.7353 51.7715 44.7065 51.808 44.6817 51.8474Z" fill="#37474F"/>
<path d="M53.4596 24.5439C53.8859 28.905 54.0578 30.9784 54.6031 39.6798C55.0431 41.3162 55.3228 42.9951 55.4377 44.6906C55.5566 46.802 55.8442 53.1692 55.8442 53.1692C55.8442 53.1692 54.2164 54.5687 52.3293 53.9208C52.3293 53.9208 50.6238 44.5662 50.0289 41.653C49.4588 38.8522 49.0209 35.7887 49.0209 35.7887L48.6127 39.6937C48.6127 39.6937 48.6887 41.4319 48.6359 44.0288C48.6078 45.4111 47.9748 52.9307 47.9748 52.9307C47.9748 52.9307 45.6828 54.0003 44.141 52.618C44.141 52.618 44.0286 40.4332 44.0055 39.1753C43.979 37.7429 44.2154 23.3206 44.2154 23.3206L53.4596 24.5439Z" fill="#455A64"/>
<path d="M49.0214 35.7749L47.8547 29.3819C47.8547 29.3819 46.0485 29.2177 45.0454 28.1724C45.0454 28.1724 45.2222 29.2091 47.4928 29.8225L48.6198 35.7162L48.6066 39.6902L49.0214 35.7749Z" fill="#263238"/>
<path d="M55.7914 52.0133C55.0977 52.6435 54.205 52.9822 53.2861 52.9636C53.2861 52.9636 54.8428 52.7217 55.7748 51.647L55.7914 52.0133Z" fill="#37474F"/>
<path d="M48.0425 52.0322C48.0425 52.0322 46.4511 52.6128 45.106 52.1687C45.106 52.1687 46.1437 52.8979 48.0194 52.2983L48.0425 52.0322Z" fill="#37474F"/>
<path d="M46.1718 11.3709C44.273 11.3502 43.9078 12.323 43.1295 13.3649C42.485 14.2288 39.9104 17.529 39.9104 17.529C39.9104 17.529 39.6113 17.1316 38.904 16.3817C38.3621 15.7559 37.8619 15.092 37.4068 14.3947L35.0073 14.8301C35.0073 14.8301 35.4502 15.8944 36.3293 17.6309C37.2085 19.3674 38.2017 20.7065 38.7371 21.2767C39.5038 22.0905 40.4028 21.6223 41.2159 20.8776C42.0289 20.1329 45.1125 17.2923 45.1125 17.2923L46.1718 11.3709Z" fill="#FFA8A7"/>
<path d="M46.7142 11.3224C46.0532 11.2067 45.0385 11.1894 44.2833 11.8045C43.5281 12.4196 42.7101 13.6205 42.2689 14.2425C41.8277 14.8645 40.6031 16.4282 40.4081 16.6615C40.2131 16.8947 39.8645 16.8844 39.6777 17.2351L39.9107 17.522C39.9107 17.522 40.461 17.8485 40.6379 19.1444C40.7378 19.9587 40.6194 20.786 40.2958 21.534L39.914 21.6705C39.914 21.6705 40.0148 22.0161 40.5965 21.8433C41.1782 21.6705 41.3583 21.0226 41.9466 20.5785C42.5349 20.1345 46.2697 16.5716 46.2697 16.5716L46.7142 11.3224Z" fill="#516EB4"/>
<path opacity="0.2" d="M46.7142 11.3224C46.0532 11.2067 45.0385 11.1894 44.2833 11.8045C43.5281 12.4196 42.7101 13.6205 42.2689 14.2425C41.8277 14.8645 40.6031 16.4282 40.4081 16.6615C40.2131 16.8947 39.8645 16.8844 39.6777 17.2351L39.9107 17.522C39.9107 17.522 40.461 17.8485 40.6379 19.1444C40.7378 19.9587 40.6194 20.786 40.2958 21.534L39.914 21.6705C39.914 21.6705 40.0148 22.0161 40.5965 21.8433C41.1782 21.6705 41.3583 21.0226 41.9466 20.5785C42.5349 20.1345 46.2697 16.5716 46.2697 16.5716L46.7142 11.3224Z" fill="black"/>
<path opacity="0.2" d="M39.9106 17.5291C40.1678 17.5365 40.4186 17.6145 40.6378 17.7554C41.003 17.9904 41.1699 18.4258 41.3401 18.7921C41.4789 19.0876 41.6706 19.2534 41.5334 19.4608C41.3963 19.6681 41.2426 19.4003 41.1484 19.0893C41.0542 18.7783 40.8014 17.8366 39.9106 17.5291Z" fill="black"/>
<path d="M37.9132 11.7145C37.787 11.9833 37.7225 12.2791 37.7248 12.5785C37.748 12.9551 37.9496 13.0743 38.3346 13.318C38.5966 13.4987 38.8382 13.7097 39.0551 13.9469L38.3214 14.5845C38.3214 14.5845 37.9777 14.0368 37.7166 14.3167C37.5199 14.5275 37.2423 14.8765 37.0374 15.0596C36.8325 15.2428 36.3136 15.2601 36.3136 15.2601C36.2178 15.3282 36.1076 15.3711 35.9926 15.3853C35.8775 15.3994 35.7609 15.3843 35.6526 15.3413C35.2659 15.2031 35.1089 14.3858 35.1568 13.8501C35.2047 13.3145 37.12 11.2584 37.5315 11.3638C37.943 11.4692 37.9132 11.7145 37.9132 11.7145Z" fill="#F28F8F"/>
<path d="M38.8726 14.9889C39.0079 15.1766 39.2002 15.3106 39.4179 15.369C39.7286 15.4191 40.0475 15.3172 40.1086 15.1703C40.1698 15.0235 40.0756 14.8697 39.9203 14.7228C39.8064 14.6078 39.7014 14.4836 39.6063 14.3513L38.8726 14.9889Z" fill="#FFA8A7"/>
<path d="M40.5896 13.7932C40.5946 13.7167 40.5946 13.64 40.5896 13.5634C40.5839 13.4914 40.6 13.4193 40.6356 13.3573C40.6711 13.2953 40.7244 13.2465 40.7879 13.2179L41.1366 13.0572L40.6408 11.8701L40.2938 12.0308C40.2318 12.0596 40.1629 12.0677 40.0964 12.0541C40.0299 12.0405 39.969 12.0058 39.922 11.9548C39.8705 11.9011 39.8153 11.8514 39.7567 11.8062C39.4907 11.6006 39.2345 11.5557 39.0379 11.6473L36.098 12.9984C35.8997 13.0883 35.7593 13.3164 35.7229 13.6602C35.7026 14.0346 35.7668 14.4088 35.9104 14.7524C36.0539 15.0961 36.2727 15.3997 36.5492 15.6386C36.8152 15.8425 37.0714 15.8891 37.268 15.7976L40.2079 14.4464C40.4128 14.3634 40.5532 14.1354 40.5896 13.7932Z" fill="#516EB4"/>
<path opacity="0.7" d="M40.593 13.7882C40.6017 13.712 40.6044 13.6351 40.6013 13.5584C40.5956 13.4864 40.6117 13.4143 40.6473 13.3523C40.6829 13.2903 40.7361 13.2415 40.7996 13.2129L41.1483 13.0522L40.6525 11.8651L40.3055 12.0258C40.2435 12.0545 40.1747 12.0626 40.1081 12.049C40.0416 12.0355 39.9807 12.0008 39.9337 11.9498C39.8822 11.896 39.827 11.8464 39.7684 11.8012C39.5024 11.5973 39.2462 11.5507 39.0496 11.6422L36.1097 12.9934C35.9114 13.085 35.7792 13.3113 35.7346 13.6552C35.7143 14.0296 35.7786 14.4038 35.9221 14.7474C36.0656 15.0911 36.2844 15.3947 36.5609 15.6336C36.8269 15.8375 37.0814 15.8841 37.2797 15.7925L40.2196 14.4414C40.4179 14.3584 40.5583 14.1303 40.593 13.7882Z" fill="white"/>
<path d="M37.2669 15.8148C37.6897 15.6205 37.7692 14.837 37.4445 14.0647C37.1198 13.2925 36.5139 12.824 36.0912 13.0183C35.6684 13.2126 35.5889 13.9961 35.9136 14.7684C36.2382 15.5406 36.8442 16.0092 37.2669 15.8148Z" fill="#516EB4"/>
<path opacity="0.05" d="M35.7266 13.6655C35.796 12.9743 36.2801 12.7601 36.809 13.1678C37.0844 13.4077 37.3025 13.7114 37.4459 14.0548C37.5894 14.3983 37.6542 14.772 37.6352 15.1462C37.5658 15.8374 37.0816 16.0533 36.5545 15.6438C36.2793 15.4037 36.0613 15.0999 35.9176 14.7566C35.774 14.4133 35.7086 14.0397 35.7266 13.6655Z" fill="black"/>
<path d="M39.7537 12.9983C39.3141 13.1538 39.5388 13.4544 38.7969 13.8363C38.0549 14.2182 37.6517 13.6635 36.9262 13.724C36.2007 13.7845 36.0173 14.0972 35.9793 14.3892C35.9413 14.6812 36.5213 15.6246 37.1361 15.5365L40.1106 14.2026C40.1899 14.168 40.3023 13.9883 40.3007 13.6842C40.0557 13.5192 39.8649 13.2799 39.7537 12.9983Z" fill="#455A64"/>
<path d="M40.8248 13.3474C40.8462 12.9882 40.7564 12.6314 40.5687 12.3297L40.7901 12.2278L40.6431 11.8822L40.3307 12.0256L40.296 12.0429C40.2341 12.0716 40.1652 12.0797 40.0987 12.0661C40.0322 12.0525 39.9713 12.0179 39.9242 11.9669C39.8723 11.9131 39.8171 11.8628 39.759 11.8166C39.4946 11.6161 39.2434 11.5729 39.0467 11.6628L36.1069 13.014C35.9086 13.1055 35.7681 13.3319 35.7334 13.674C35.7026 14.2228 35.8538 14.7659 36.1614 15.2118C35.6095 14.1094 35.9548 13.6222 36.2887 13.4684L39.1558 12.15C39.2072 12.1201 39.2642 12.1018 39.3228 12.0965C39.3815 12.0911 39.4406 12.0988 39.4962 12.1189C39.4767 12.1776 39.4639 12.2385 39.4582 12.3004C39.444 12.5683 39.4905 12.8359 39.5939 13.0815C39.6973 13.3271 39.8546 13.5437 40.0531 13.7137C40.4233 13.9988 40.7736 13.8381 40.8248 13.3474Z" fill="#516EB4"/>
<path opacity="0.4" d="M40.5902 13.7934C40.5952 13.7169 40.5952 13.6401 40.5902 13.5636C40.5845 13.4915 40.6006 13.4194 40.6362 13.3574C40.6717 13.2955 40.725 13.2467 40.7885 13.218L41.1372 13.0573L41.0826 12.9277L40.6265 13.1506C40.5722 13.1856 40.5272 13.2343 40.4957 13.2923C40.4642 13.3503 40.4473 13.4157 40.4464 13.4824C40.4348 13.6206 40.4365 14.0439 40.3109 14.2046C40.1853 14.3653 39.559 14.6158 39.1971 14.7834L37.3413 15.6422C37.1725 15.7194 36.9854 15.7416 36.8044 15.7058C36.6234 15.6701 36.4569 15.578 36.3267 15.4418C36.3957 15.5214 36.4721 15.5938 36.5547 15.6577C36.8208 15.8616 37.067 15.91 37.2752 15.815L40.2151 14.4638C40.4134 14.3636 40.5538 14.1355 40.5902 13.7934Z" fill="white"/>
<path d="M40.8262 13.6964L40.7271 13.7431C40.6392 13.7738 40.5451 13.7794 40.4545 13.7593C40.3638 13.7393 40.2799 13.6943 40.2115 13.6291C40.0134 13.4586 39.8563 13.242 39.753 12.9965C39.6497 12.751 39.6029 12.4835 39.6166 12.2157C39.6257 12.1092 39.6567 12.0061 39.7075 11.9133C39.7474 11.8376 39.8093 11.777 39.8843 11.7405L39.9867 11.6921C40.0085 11.6826 40.0312 11.6757 40.0545 11.6714C40.1336 11.6588 40.2144 11.6642 40.2914 11.6872C40.3684 11.7101 40.4398 11.7501 40.5007 11.8044L40.5139 11.8165C40.7081 11.987 40.8617 12.2023 40.9627 12.4455C41.0636 12.6887 41.1091 12.9531 41.0956 13.2178C41.0925 13.3015 41.0726 13.3836 41.037 13.4587C41.0014 13.5337 40.9509 13.6001 40.889 13.6532C40.8697 13.67 40.8486 13.6845 40.8262 13.6964Z" fill="#F0F0F0"/>
<path d="M39.8909 13.0314L40.2412 12.8707C40.3817 12.8068 40.2082 12.9295 40.1008 12.6755C40.0082 12.4543 40.4131 12.0327 40.5139 11.8219L40.5007 11.8098C40.4398 11.7555 40.3684 11.7155 40.2914 11.6926C40.2144 11.6696 40.1336 11.6642 40.0545 11.6768C40.0312 11.681 40.0085 11.688 39.9867 11.6975L39.8843 11.7459C39.8093 11.7824 39.7474 11.8429 39.7075 11.9187C39.6567 12.0114 39.6257 12.1146 39.6166 12.221C39.6029 12.4889 39.6497 12.7563 39.753 13.0018C39.8563 13.2473 40.0134 13.464 40.2115 13.6344C39.9917 13.396 39.757 13.0936 39.8909 13.0314Z" fill="#E0E0E0"/>
<path d="M39.7208 12.1689C39.772 11.68 40.1207 11.5193 40.5008 11.8113C40.6992 11.9813 40.8564 12.198 40.9595 12.4436C41.0626 12.6892 41.1087 12.9569 41.094 13.2247C41.0428 13.7136 40.6941 13.8743 40.314 13.5823C40.1159 13.412 39.959 13.1953 39.8559 12.9497C39.7528 12.7042 39.7065 12.4367 39.7208 12.1689Z" fill="#455A64"/>
<path d="M41.1567 13.5444L40.9584 13.6359C40.9365 13.647 40.9131 13.6546 40.889 13.6584C40.8097 13.6706 40.7289 13.6649 40.6519 13.6416C40.5749 13.6184 40.5036 13.5782 40.4428 13.5236C40.2636 13.3756 40.1194 13.1864 40.0214 12.9707C39.8913 12.7041 39.8342 12.4052 39.8562 12.1068C39.8653 11.9998 39.8963 11.8961 39.9471 11.8027C39.9752 11.751 40.0142 11.7067 40.0611 11.6731C40.0799 11.6578 40.1004 11.645 40.1222 11.6351L40.3255 11.5418C40.4127 11.5114 40.5061 11.5057 40.5962 11.5255C40.6862 11.5452 40.7696 11.5896 40.8378 11.6541L40.8873 11.6956C41.0708 11.8669 41.215 12.0791 41.3094 12.3166C41.4038 12.5541 41.4459 12.8107 41.4327 13.0675C41.4324 13.1657 41.4066 13.262 41.358 13.346C41.3094 13.43 41.2398 13.4986 41.1567 13.5444Z" fill="#516EB4"/>
<path opacity="0.7" d="M41.1567 13.5444L40.9584 13.6359C40.9365 13.647 40.9131 13.6546 40.889 13.6584C40.8097 13.6706 40.7289 13.6649 40.6519 13.6416C40.5749 13.6184 40.5036 13.5782 40.4428 13.5236C40.2636 13.3756 40.1194 13.1864 40.0214 12.9707C39.8913 12.7041 39.8342 12.4052 39.8562 12.1068C39.8653 11.9998 39.8963 11.8961 39.9471 11.8027C39.9752 11.751 40.0142 11.7067 40.0611 11.6731C40.0799 11.6578 40.1004 11.645 40.1222 11.6351L40.3255 11.5418C40.4127 11.5114 40.5061 11.5057 40.5962 11.5255C40.6862 11.5452 40.7696 11.5896 40.8378 11.6541L40.8873 11.6956C41.0708 11.8669 41.215 12.0791 41.3094 12.3166C41.4038 12.5541 41.4459 12.8107 41.4327 13.0675C41.4324 13.1657 41.4066 13.262 41.358 13.346C41.3094 13.43 41.2398 13.4986 41.1567 13.5444Z" fill="white"/>
<path d="M39.9407 11.8061C39.89 11.8995 39.859 12.0032 39.8498 12.1102C39.8278 12.4086 39.885 12.7075 40.0151 12.9741C40.0861 12.9447 40.1572 12.962 40.0944 12.6786C40.0432 12.4419 39.9952 12.0808 40.1588 11.8268C40.24 11.7139 40.3596 11.638 40.4928 11.6148C40.626 11.5917 40.7627 11.623 40.8744 11.7024L40.8248 11.6609C40.7566 11.5964 40.6732 11.552 40.5832 11.5323C40.4932 11.5126 40.3998 11.5182 40.3125 11.5486L40.1093 11.6419C40.0874 11.6519 40.0669 11.6646 40.0481 11.6799C40.004 11.7133 39.9673 11.7564 39.9407 11.8061Z" fill="#516EB4"/>
<path d="M40.0561 12.0137C40.1074 11.5247 40.4561 11.364 40.8361 11.6543C41.0345 11.8244 41.1918 12.0411 41.2952 12.2866C41.3985 12.5322 41.4451 12.7998 41.431 13.0677C41.3798 13.5566 41.0295 13.7173 40.6494 13.4271C40.4515 13.2566 40.2947 13.0398 40.1916 12.7943C40.0886 12.5488 40.0422 12.2814 40.0561 12.0137Z" fill="#516EB4"/>
<path opacity="0.8" d="M40.0561 12.0137C40.1074 11.5247 40.4561 11.364 40.8361 11.6543C41.0345 11.8244 41.1918 12.0411 41.2952 12.2866C41.3985 12.5322 41.4451 12.7998 41.431 13.0677C41.3798 13.5566 41.0295 13.7173 40.6494 13.4271C40.4515 13.2566 40.2947 13.0398 40.1916 12.7943C40.0886 12.5488 40.0422 12.2814 40.0561 12.0137Z" fill="white"/>
<path d="M40.1521 12.0894C40.1968 11.6678 40.4975 11.5296 40.8231 11.7801C40.9929 11.9258 41.1276 12.1112 41.2163 12.3213C41.305 12.5313 41.3452 12.7603 41.3337 12.9896C41.2907 13.4095 40.99 13.5477 40.6628 13.2972C40.4934 13.1515 40.359 12.9664 40.2703 12.7567C40.1816 12.547 40.1412 12.3185 40.1521 12.0894Z" fill="#516EB4"/>
<path opacity="0.7" d="M40.1521 12.0894C40.1968 11.6678 40.4975 11.5296 40.8231 11.7801C40.9929 11.9258 41.1276 12.1112 41.2163 12.3213C41.305 12.5313 41.3452 12.7603 41.3337 12.9896C41.2907 13.4095 40.99 13.5477 40.6628 13.2972C40.4934 13.1515 40.359 12.9664 40.2703 12.7567C40.1816 12.547 40.1412 12.3185 40.1521 12.0894Z" fill="white"/>
<path d="M40.3587 11.9947C40.3084 11.9547 40.2527 11.9227 40.1934 11.8997C40.1705 11.9606 40.1554 12.0246 40.1488 12.0897C40.1376 12.319 40.1779 12.5479 40.2666 12.7579C40.3553 12.968 40.4898 13.1534 40.6594 13.2992C40.7097 13.3389 40.7654 13.3704 40.8247 13.3925C40.848 13.3322 40.863 13.2688 40.8693 13.2042C40.8808 12.9748 40.8406 12.7459 40.7519 12.5358C40.6632 12.3257 40.5285 12.1403 40.3587 11.9947Z" fill="#516EB4"/>
<path d="M37.5345 15.0442L38.0302 14.8196L38.526 14.595L38.6698 14.5276C38.4284 14.2851 38.2395 13.9914 38.1158 13.6663C37.9921 13.3411 37.9364 12.992 37.9526 12.6425C37.9873 12.2969 38.1261 12.0706 38.3227 11.9807L37.0238 12.5768C36.8272 12.6684 36.6933 12.8947 36.6537 13.2386C36.6373 13.5877 36.6928 13.9365 36.8162 14.2614C36.9396 14.5862 37.1282 14.8797 37.3692 15.1219L37.5345 15.0442Z" fill="#516EB4"/>
<path d="M38.0681 12.5853C38.1028 12.2398 38.2416 12.0134 38.4382 11.9236L37.1393 12.5197C36.9427 12.6113 36.8088 12.8376 36.7692 13.1815C36.7506 13.5582 36.8166 13.9342 36.9617 14.2795C37.1069 14.6248 37.3273 14.9298 37.6054 15.1702L38.9042 14.5741C38.6262 14.3337 38.4058 14.0287 38.2606 13.6834C38.1154 13.3381 38.0495 12.9621 38.0681 12.5853Z" fill="#FAFAFA"/>
<path d="M38.2285 14.5723C38.2227 14.5745 38.2162 14.5745 38.2104 14.5723C38.0048 14.3319 37.846 14.052 37.7427 13.7481C37.7416 13.745 37.7411 13.7418 37.7412 13.7385C37.7413 13.7353 37.7421 13.7321 37.7434 13.7291C37.7447 13.7261 37.7465 13.7234 37.7488 13.7212C37.7511 13.719 37.7538 13.7173 37.7567 13.7161C37.7597 13.715 37.7628 13.7145 37.7659 13.7146C37.769 13.7147 37.7721 13.7155 37.7749 13.7169C37.7778 13.7182 37.7803 13.7202 37.7825 13.7226C37.7846 13.725 37.7862 13.7278 37.7873 13.7308C37.8872 14.0294 38.0428 14.3043 38.2451 14.5395C38.2473 14.5417 38.249 14.5444 38.2502 14.5474C38.2514 14.5503 38.252 14.5535 38.252 14.5567C38.252 14.56 38.2514 14.5632 38.2502 14.5661C38.249 14.5691 38.2473 14.5718 38.2451 14.574C38.2423 14.575 38.2395 14.5754 38.2366 14.5751C38.2338 14.5748 38.231 14.5738 38.2285 14.5723Z" fill="#E0E0E0"/>
<path d="M38.0087 14.6726C38.0034 14.6748 37.9975 14.6748 37.9922 14.6726C37.7866 14.4316 37.6278 14.1511 37.5245 13.8467C37.5228 13.8407 37.5231 13.8343 37.5256 13.8286C37.528 13.8229 37.5323 13.8183 37.5377 13.8156C37.5437 13.8133 37.5502 13.8134 37.5561 13.816C37.5619 13.8186 37.5666 13.8234 37.5691 13.8294C37.669 14.1285 37.8246 14.4039 38.0269 14.6398C38.029 14.6419 38.0308 14.6444 38.0319 14.6473C38.0331 14.6501 38.0337 14.6531 38.0337 14.6562C38.0337 14.6593 38.0331 14.6623 38.0319 14.6652C38.0308 14.668 38.029 14.6705 38.0269 14.6726C38.024 14.674 38.0209 14.6747 38.0178 14.6747C38.0147 14.6747 38.0116 14.674 38.0087 14.6726Z" fill="#E0E0E0"/>
<path d="M37.7903 14.7781C37.7877 14.7792 37.7849 14.7798 37.7821 14.7798C37.7792 14.7798 37.7764 14.7792 37.7738 14.7781C37.5676 14.5375 37.4087 14.2569 37.3061 13.9522C37.3038 13.9488 37.3024 13.945 37.3019 13.9409C37.3015 13.9368 37.302 13.9327 37.3035 13.9289C37.305 13.925 37.3074 13.9217 37.3104 13.9191C37.3135 13.9166 37.3171 13.9149 37.321 13.9142C37.3267 13.9119 37.333 13.9121 37.3386 13.9147C37.3442 13.9173 37.3485 13.9221 37.3508 13.928C37.4511 14.2268 37.6067 14.5022 37.8085 14.7383C37.8107 14.7406 37.8125 14.7433 37.8136 14.7463C37.8148 14.7492 37.8155 14.7524 37.8155 14.7556C37.8155 14.7588 37.8148 14.762 37.8136 14.765C37.8125 14.768 37.8107 14.7707 37.8085 14.7729C37.8032 14.7768 37.7968 14.7786 37.7903 14.7781Z" fill="#E0E0E0"/>
<path d="M40.2729 12.7704C40.4406 12.7081 40.6194 12.6857 40.7964 12.7049C40.9733 12.724 41.1439 12.7842 41.2959 12.8809C41.5371 13.0382 41.6363 13.4269 41.3967 13.5876C41.1934 13.7259 40.8712 13.5634 40.7819 13.3786C40.5506 13.2428 40.3709 13.0281 40.2729 12.7704Z" fill="#37474F"/>
<path d="M40.6938 12.7843C40.8366 12.7584 40.9835 12.7792 41.1145 12.8438C41.2455 12.9084 41.3543 13.0137 41.4259 13.1454C41.5201 13.3441 41.4507 13.5618 41.2904 13.5393C41.1301 13.5169 41.1665 13.3786 41.1813 13.313C41.2084 13.2313 41.2084 13.1424 41.1813 13.0607C41.0888 12.8776 40.9401 12.805 40.6938 12.7843Z" fill="#455A64"/>
<path d="M35.0075 14.8301C34.9086 14.505 34.853 14.1672 34.8422 13.8263C34.8205 13.6971 34.8258 13.5646 34.8577 13.4379C34.8897 13.3111 34.9475 13.1931 35.0273 13.0919C35.1612 12.9399 35.2207 12.6047 35.3198 12.4682C35.4096 12.3781 35.5263 12.3232 35.6503 12.3127C35.6178 12.1639 35.627 12.0086 35.6768 11.8651C35.7117 11.7901 35.7634 11.725 35.8276 11.6754C35.8918 11.6258 35.9664 11.593 36.0453 11.5801C36.1565 11.5551 36.2704 11.5452 36.384 11.5507C36.4542 11.4116 36.5655 11.3001 36.7013 11.2328C36.9244 11.1239 37.3458 10.9114 37.6185 10.7991C37.7018 10.7569 37.7968 10.7477 37.8861 10.7731C37.9754 10.7985 38.0529 10.8568 38.1043 10.9373C38.3026 11.1271 38.4876 11.3315 38.6579 11.5489C38.7686 11.7217 39.0496 12.1623 38.8232 12.3489C38.6364 12.4993 38.4811 12.387 38.1787 12.0932C38.0198 11.9362 37.8509 11.7907 37.673 11.6578L37.3689 11.7062C37.3689 11.7062 37.9473 12.1364 38.0928 12.2885C38.2647 12.4916 38.4201 12.7095 38.5571 12.9399C38.6364 13.0833 38.7719 13.2509 38.6133 13.4168C38.4547 13.5826 38.2035 13.5066 37.9804 13.3079C37.8553 13.1385 37.7147 12.9823 37.5606 12.8414C37.2926 12.6382 37.0051 12.4645 36.703 12.323C36.589 12.3109 37.1607 12.7671 37.4003 13.0263C37.6001 13.2608 37.767 13.5237 37.8961 13.8073C37.9919 14.0232 38.0614 14.1528 37.9639 14.2306C37.9166 14.272 37.8616 14.3028 37.8024 14.3211C37.7432 14.3393 37.6811 14.3447 37.6199 14.3367C37.5586 14.3288 37.4996 14.3077 37.4465 14.2749C37.3934 14.2421 37.3473 14.1982 37.3111 14.1459C37.007 13.7917 36.936 13.6276 36.741 13.4738C36.4795 13.2894 36.1901 13.1527 35.885 13.0695C35.6966 13.0366 35.652 13.2422 35.7726 13.3183C35.8932 13.3943 36.0238 13.4911 36.1262 13.5636C36.2287 13.6362 36.4683 13.7952 36.5972 13.8902C36.7906 14.0319 36.8699 14.1805 36.784 14.3412C36.698 14.5018 36.4353 14.4984 36.2469 14.412C36.0585 14.3256 35.2835 13.8936 35.2835 13.8936C35.2835 13.8936 35.2488 14.8336 35.4884 15.1429C35.7676 15.5023 36.2089 15.3157 36.2089 15.3157C36.106 15.374 35.9926 15.4094 35.876 15.4195C35.7594 15.4296 35.642 15.4142 35.5313 15.3744C35.4089 15.3337 35.2976 15.2632 35.2065 15.1685C35.1154 15.0739 35.0472 14.9579 35.0075 14.8301Z" fill="#FFA8A7"/>
<path d="M39.911 17.5291C39.911 17.5291 40.4795 17.7744 40.6381 18.8336C40.7968 19.8928 40.6844 20.964 40.2928 21.5342C40.186 21.6331 40.0597 21.7063 39.923 21.7486C39.7862 21.791 39.6423 21.8016 39.5012 21.7796C39.2173 21.7277 38.9621 21.5669 38.7856 21.3286C38.7856 21.3286 39.4748 21.5014 39.9209 20.4647C40.3671 19.428 40.0631 18.1424 39.911 17.5291Z" fill="#455A64"/>
<path d="M53.6633 25.3869C53.6633 25.3869 53.7608 26.1749 53.6369 26.377C53.513 26.5792 51.2027 27.2185 48.1984 26.9075C45.1941 26.5964 44.2853 25.774 44.1795 25.5908C44.0737 25.4077 44.0936 24.9809 44.1795 24.5161L53.6633 25.3869Z" fill="#516EB4"/>
<path opacity="0.2" d="M53.6633 25.3869C53.6633 25.3869 53.7608 26.1749 53.6369 26.377C53.513 26.5792 51.2027 27.2185 48.1984 26.9075C45.1941 26.5964 44.2853 25.774 44.1795 25.5908C44.0737 25.4077 44.0936 24.9809 44.1795 24.5161L53.6633 25.3869Z" fill="black"/>
<path d="M44.097 15.2396C44.2276 12.5424 45.267 11.4539 46.7097 11.3208L49.9552 11.0928C50.6493 11.2828 52.8174 11.8271 53.756 12.1295C54.6947 12.4319 54.7112 14.6418 54.4914 16.1035C54.2716 17.5653 53.8073 18.6953 53.6784 21.1558C53.7164 23.4918 54.2848 24.7221 53.7329 25.3424C51.7152 26.6797 46.2602 26.2374 44.1284 24.8948C43.6773 24.6616 44.1416 22.8871 44.097 21.4495C44.0326 18.9804 44.0574 16.1692 44.097 15.2396Z" fill="#516EB4"/>
<path d="M51.2838 11.4398C50.8211 11.3206 50.1932 11.1564 49.9618 11.0942L47.8053 11.2463C47.1872 11.6351 46.3626 12.5595 47.3508 13.0674C48.339 13.5754 49.9684 13.0916 50.608 12.4264C50.9864 12.0307 51.2029 11.7318 51.2838 11.4398Z" fill="#455A64"/>
<path d="M44.9543 3.80277C44.6866 3.92026 44.5429 4.27447 44.5346 4.57857C44.5284 4.81321 44.5925 5.044 44.718 5.23861C44.9063 5.48851 45.1674 5.66745 45.4617 5.74833C45.5895 5.77878 45.7141 5.82278 45.8335 5.87964C45.9807 5.99011 46.1184 6.11383 46.245 6.2494C46.4433 6.41009 46.6416 6.57597 46.8448 6.73147C47.2496 7.04521 47.6717 7.33369 48.109 7.5954C48.5278 7.84591 48.9649 8.06141 49.4162 8.23989C49.897 8.4265 50.3019 8.26235 50.8059 8.31073L50.7365 9.76731C50.7365 9.76731 50.9018 9.4321 51.1017 9.03297C51.267 8.6874 51.971 6.94054 51.971 6.94054C52.2453 6.2494 52.5973 5.53235 52.5543 4.76518C52.5212 4.14661 52.4006 3.59888 51.9495 3.33625C51.9131 2.62264 51.7561 2.27362 51.2769 1.89004C50.9235 1.63741 50.5171 1.4774 50.092 1.42352C49.6124 1.36527 49.1271 1.38333 48.6527 1.47708C47.9438 1.59457 47.2332 1.78464 46.516 1.74663C46.1319 1.70354 45.7436 1.72866 45.3675 1.82092C45.1277 1.90084 44.9195 2.06031 44.7743 2.27514C44.629 2.48998 44.5548 2.74846 44.5627 3.01141C44.5627 3.29305 44.7709 3.74229 44.9543 3.80277Z" fill="#455A64"/>
<path d="M49.5649 3.64213C49.5649 3.66632 49.8607 3.85638 50.363 3.90476C50.7022 3.95211 51.0473 3.90871 51.3661 3.77863C51.5056 3.70273 51.6547 3.64804 51.809 3.61621C51.885 3.65768 51.766 3.76653 51.7198 3.808C51.5579 3.95096 51.3741 4.06429 51.1761 4.14321C51.0159 4.20739 50.8498 4.25372 50.6803 4.28143C50.6109 4.29353 50.5696 4.35055 50.6308 4.40411C50.6907 4.45439 50.7655 4.48127 50.8423 4.48014C50.9414 4.48014 51.0389 4.49741 51.1381 4.49741C51.3341 4.49684 51.5295 4.47542 51.7214 4.43348C51.7429 4.43348 51.7743 4.43348 51.7826 4.44903C51.7873 4.46121 51.7873 4.47487 51.7826 4.48705C51.7428 4.55063 51.685 4.59958 51.6173 4.627C51.3992 4.73067 51.1596 4.77387 50.9381 4.8689C50.9121 4.87616 50.8879 4.88917 50.867 4.90705C50.8462 4.92494 50.8293 4.94728 50.8175 4.97257C50.812 4.99979 50.8129 5.02798 50.8201 5.05475C50.8273 5.08153 50.8406 5.10609 50.8588 5.12635C50.8959 5.16557 50.9286 5.20905 50.9563 5.25594C50.9701 5.28669 50.9761 5.32062 50.9738 5.3545C50.9715 5.38838 50.9609 5.42107 50.9431 5.44946C50.9137 5.48824 50.8798 5.52307 50.8423 5.55313C50.7657 5.62878 50.703 5.71836 50.6572 5.81749C50.6047 5.91814 50.5621 6.02407 50.5299 6.13369C50.5299 6.13369 49.1071 5.10216 49.5649 3.64213Z" fill="#E0E0E0"/>
<path d="M49.5648 3.64203C49.5648 4.09473 49.9796 4.89645 50.5943 5.45627C50.4995 5.96078 50.4878 6.47851 50.5596 6.98715C50.5768 7.09575 50.6144 7.19971 50.6703 7.29298C50.698 7.3403 50.7356 7.38045 50.7802 7.41038C50.8249 7.44031 50.8754 7.45925 50.9281 7.46576C51.0686 7.47786 51.1264 7.38801 51.171 7.27224C51.2327 7.12365 51.3045 6.97987 51.3859 6.84201C51.4193 6.77821 51.4616 6.71998 51.5115 6.66922C51.7263 6.46188 52.3625 6.20789 52.6567 6.91631C52.9508 7.62472 52.4005 8.61997 51.8866 8.77029C51.0041 9.02774 50.8108 8.3988 50.8108 8.3988L50.8273 11.4536C50.5794 12.2294 49.2078 12.9811 48.1023 12.8359C46.9968 12.6908 47.3487 11.9875 47.7982 11.5158L47.7404 10.4584C47.3481 10.4998 46.9523 10.4853 46.5638 10.4152C46.1044 10.3219 45.7276 9.87266 45.5376 9.14178C45.1757 7.74913 45.2352 5.7742 45.4054 4.89991C45.5756 4.02561 46.0185 3.46406 46.2663 3.33447C46.2581 3.52108 46.4052 3.97378 47.2959 4.10164C48.2411 4.23814 48.8889 3.93404 49.5648 3.64203Z" fill="#FFA8A7"/>
<path d="M47.7402 10.4584C48.5566 10.3823 49.2192 10.2648 49.6786 10.0108C50.0092 9.82424 50.3066 9.24541 50.3942 9.03979C50.3942 9.03979 50.3711 9.83288 49.9199 10.2718C49.2787 10.8938 47.7634 10.8938 47.7634 10.8938L47.7402 10.4584Z" fill="#F28F8F"/>
<path d="M48.1602 6.56567C48.1605 6.62632 48.1779 6.68552 48.2102 6.7359C48.2425 6.78629 48.2882 6.82564 48.3417 6.84906C48.3952 6.87248 48.4541 6.87894 48.5111 6.86763C48.5681 6.85632 48.6207 6.82774 48.6622 6.78544C48.7038 6.74315 48.7326 6.68901 48.7449 6.62976C48.7573 6.57051 48.7528 6.50876 48.7318 6.45219C48.7109 6.39563 48.6745 6.34675 48.6273 6.31162C48.58 6.2765 48.5238 6.25669 48.4659 6.25466C48.386 6.25373 48.3089 6.28593 48.2516 6.34421C48.1944 6.40249 48.1615 6.48211 48.1602 6.56567Z" fill="#263238"/>
<path d="M48.2773 5.55486L48.9912 5.86587C49.029 5.76369 49.0275 5.65024 48.9872 5.54916C48.9468 5.44808 48.8707 5.36718 48.7748 5.32332C48.7277 5.30317 48.6772 5.29319 48.6263 5.29399C48.5754 5.29479 48.5252 5.30636 48.4788 5.328C48.4323 5.34963 48.3905 5.38089 48.3558 5.41988C48.3212 5.45887 48.2945 5.50478 48.2773 5.55486Z" fill="#263238"/>
<path d="M48.4196 8.26416L47.4512 8.67884C47.4744 8.747 47.5106 8.80954 47.5576 8.86272C47.6045 8.9159 47.6612 8.95861 47.7244 8.9883C47.7875 9.01799 47.8557 9.03405 47.9249 9.0355C47.9941 9.03696 48.0628 9.02378 48.1271 8.99677C48.2568 8.93765 48.3596 8.82843 48.4141 8.69191C48.4686 8.5554 48.4706 8.40215 48.4196 8.26416Z" fill="#F28F8F"/>
<path d="M45.5934 5.84865L46.3007 5.56183C46.284 5.51365 46.2583 5.46948 46.2249 5.43198C46.1915 5.39448 46.1512 5.36442 46.1065 5.3436C46.0617 5.32279 46.0134 5.31164 45.9644 5.31084C45.9154 5.31004 45.8668 5.31959 45.8214 5.33893C45.7276 5.37628 45.6513 5.45037 45.6087 5.5455C45.5661 5.64064 45.5606 5.74936 45.5934 5.84865Z" fill="#263238"/>
<path d="M45.7759 6.5C45.7762 6.56114 45.7938 6.62082 45.8264 6.67158C45.859 6.72234 45.9052 6.76193 45.9592 6.78539C46.0132 6.80886 46.0726 6.81516 46.13 6.80352C46.1874 6.79187 46.2402 6.76279 46.2819 6.71992C46.3236 6.67704 46.3523 6.62227 46.3644 6.56245C46.3764 6.50262 46.3714 6.4404 46.3498 6.38357C46.3283 6.32673 46.2912 6.2778 46.2432 6.24288C46.1952 6.20797 46.1384 6.18862 46.0799 6.18726C46 6.1868 45.9232 6.21944 45.8662 6.27804C45.8092 6.33664 45.7768 6.41644 45.7759 6.5Z" fill="#263238"/>
<path d="M47.349 7.94951L46.2583 7.73353L47.2878 5.91064L47.349 7.94951Z" fill="#F28F8F"/>
<path d="M45.4353 16.3988C45.166 16.0187 44.8867 15.661 44.6801 15.5867C44.4736 15.5124 44.1745 16.0169 44.3232 16.3694C44.3232 16.3694 45.1858 16.5612 45.4353 16.3988Z" fill="#F28F8F"/>
<path d="M43.1168 16.9343L47.9322 16.06L48.0496 15.9961L48.0066 16.0929C47.9915 16.1276 47.9686 16.158 47.9398 16.1814C47.911 16.2049 47.8772 16.2207 47.8413 16.2276L43.0688 17.0916L43.1168 16.9343Z" fill="#E0E0E0"/>
<path d="M43.1236 16.8965C43.0873 17.1142 43.0228 17.5479 42.3123 17.7379C41.6017 17.928 40.9208 17.458 40.9902 17.0036L43.1236 16.8965Z" fill="#EBEBEB"/>
<path d="M42.5777 17.3907C42.0621 17.5911 41.4127 17.5496 41.1284 17.3008C40.8442 17.052 41.0276 16.6425 41.5383 16.4369C42.0489 16.2313 42.7149 16.2883 42.9991 16.5371C43.0469 16.5821 43.0832 16.6388 43.1048 16.7022C43.1265 16.7655 43.1327 16.8335 43.123 16.8999C43.0933 17.0779 42.8999 17.2662 42.5777 17.3907Z" fill="#F5F5F5"/>
<path d="M48.0627 15.8563C48.0441 15.8032 48.0082 15.7587 47.9614 15.7306C47.9145 15.7025 47.8597 15.6925 47.8065 15.7025L42.8489 16.601C42.6986 16.6286 42.6358 16.7254 42.7085 16.817C42.7629 16.8674 42.8278 16.9041 42.898 16.9242C42.9682 16.9443 43.0419 16.9472 43.1133 16.9327L47.9503 16.0567C47.9713 16.0532 47.9913 16.0449 48.0088 16.0324C48.0264 16.0199 48.041 16.0034 48.0518 15.9843C48.0625 15.9651 48.0691 15.9437 48.071 15.9215C48.0728 15.8994 48.07 15.8771 48.0627 15.8563Z" fill="#F5F5F5"/>
<path opacity="0.1" d="M41.1714 16.6649C41.2785 16.5633 41.403 16.4835 41.5382 16.4299C42.034 16.2226 42.7148 16.2813 42.9991 16.5301C43.0124 16.5414 43.0246 16.5542 43.0354 16.5681L47.8112 15.7042C47.8644 15.6942 47.9192 15.7042 47.9661 15.7323C48.0129 15.7605 48.0488 15.8049 48.0674 15.858C48.0772 15.8876 48.0772 15.9199 48.0674 15.9496C48.0442 15.7526 47.8873 15.7923 47.6559 15.8286C47.4245 15.8649 42.9759 16.6701 42.9759 16.6701C42.7488 16.4798 42.4615 16.386 42.1712 16.4074C41.768 16.423 41.3449 16.5284 41.1714 16.6649Z" fill="white"/>
<path opacity="0.1" d="M41.1768 16.8914C41.2159 16.8114 41.2784 16.7466 41.3553 16.7065C41.2942 16.9657 41.5833 17.1316 41.9965 17.1592C42.4691 17.1886 42.9582 16.9605 42.9731 16.7083C42.9882 16.741 42.9982 16.776 43.0029 16.8119C43.0293 17.1731 42.284 17.5031 41.7436 17.4409C41.2033 17.3787 41.0744 17.1212 41.1768 16.8914Z" fill="black"/>
<path d="M56.0841 20.7616C56.056 19.8216 55.6859 14.9318 55.4611 14.0074C55.2364 13.083 54.9009 12.5111 53.5541 12.0566C53.5541 12.0566 51.9792 13.5737 52.3478 16.3192L52.8898 19.6609C52.8898 19.6609 52.4552 19.6609 51.186 19.5054C49.8442 19.3499 48.3024 19.2359 48.0628 18.8143C47.9933 18.2009 47.8496 17.489 47.7868 17.1935C47.7814 17.1471 47.7715 17.1013 47.757 17.057C47.7233 16.9671 47.6708 16.8863 47.6034 16.8203C47.2993 16.5387 47.182 16.6009 46.7242 16.5629C46.2665 16.5249 45.6699 16.4281 45.1411 16.3676C44.6123 16.3072 44.3677 16.3054 44.2388 16.4281C44.2119 16.4604 44.1921 16.4986 44.181 16.5399C44.1698 16.5812 44.1676 16.6245 44.1744 16.6668C44.1812 16.7091 44.1969 16.7493 44.2203 16.7845C44.2437 16.8197 44.2743 16.8491 44.3099 16.8704L43.7397 16.9741C43.782 17.1077 43.8532 17.2293 43.9478 17.3294C44.0424 17.4295 44.1578 17.5054 44.2851 17.5512L44.7808 17.7585C44.5677 18.0868 44.6255 18.3996 44.88 18.5827C44.8431 18.6322 44.8162 18.689 44.8009 18.7496C44.7856 18.8103 44.7823 18.8735 44.7911 18.9356C44.7999 18.9976 44.8207 19.0572 44.8521 19.1106C44.8836 19.164 44.9251 19.2101 44.9742 19.2462C45.1291 19.3699 45.2951 19.4775 45.4699 19.5676C45.5377 20.1533 45.6996 20.3434 45.8385 20.5058C46.1475 20.8687 46.4796 20.9862 46.9622 21.0743C47.4447 21.1624 49.0311 21.6497 50.5581 22.0937C51.5975 22.3961 53.5326 23.051 54.8976 22.9041C56.2626 22.7572 56.1122 21.6998 56.0841 20.7616Z" fill="#FFA8A7"/>
<path d="M44.8779 18.5793C45.0101 18.6761 45.848 18.9595 45.8942 19.0027C45.9405 19.0459 45.9322 19.1409 45.7174 19.0424C45.5026 18.9439 45.0333 18.8057 44.8779 18.5793Z" fill="#F28F8F"/>
<path d="M45.5841 18.1698C45.7907 18.2338 46.2451 18.3426 46.2583 18.258C46.2716 18.1733 45.9064 18.1284 45.7923 18.0973C45.4435 18.0132 45.1024 17.8976 44.7727 17.7517C44.7547 17.7807 44.7382 17.8107 44.7231 17.8416C45.0553 17.985 45.4469 18.1267 45.5841 18.1698Z" fill="#F28F8F"/>
<path d="M46.6429 17.5791C46.6627 17.5013 46.3884 17.4771 46.2545 17.4443C46.1207 17.4115 44.602 17.0054 44.3079 16.8672L44.1724 16.8914L45.4101 17.2992C45.6861 17.389 45.8232 17.4287 46.1719 17.5186C46.5206 17.6084 46.6247 17.6568 46.6429 17.5791Z" fill="#F28F8F"/>
<path d="M53.2883 11.9807C54.293 12.1414 54.8962 12.5233 55.1771 12.9639C55.4581 13.4045 55.5803 14.0593 55.7605 15.4243C55.9406 16.7893 56.243 21.0208 56.1835 21.7033C56.124 22.3858 55.929 22.9958 54.7392 22.9128C54.7392 22.9128 55.1094 20.7357 52.89 19.6524L52.5595 19.6334C52.5177 19.4283 52.5177 19.2164 52.5595 19.0113C52.624 18.6105 52.1216 16.1742 52.1216 16.1742C51.988 15.4285 52.024 14.6604 52.2266 13.932C52.4293 13.2035 52.793 12.5351 53.2883 11.9807Z" fill="#516EB4"/>
<path opacity="0.2" d="M53.2883 11.9807C54.293 12.1414 54.8962 12.5233 55.1771 12.9639C55.4581 13.4045 55.5803 14.0593 55.7605 15.4243C55.9406 16.7893 56.243 21.0208 56.1835 21.7033C56.124 22.3858 55.929 22.9958 54.7392 22.9128C54.7392 22.9128 55.1094 20.7357 52.89 19.6524L52.5595 19.6334C52.5177 19.4283 52.5177 19.2164 52.5595 19.0113C52.624 18.6105 52.1216 16.1742 52.1216 16.1742C51.988 15.4285 52.024 14.6604 52.2266 13.932C52.4293 13.2035 52.793 12.5351 53.2883 11.9807Z" fill="black"/>
<path opacity="0.2" d="M52.5571 19.642C52.5571 19.642 53.4197 19.3742 54.1138 19.5919C54.8079 19.8096 55.145 19.6765 55.2127 19.8459C55.2805 20.0152 55.0475 20.1914 54.5203 19.9668C53.9932 19.7422 53.7023 19.5832 52.5571 19.642Z" fill="black"/>
<path d="M52.8901 19.6611L52.5596 19.6421C52.5596 19.6421 53.5874 20.817 53.7163 21.7034C53.8452 22.5898 53.7081 22.868 53.7081 22.868L53.4982 22.8386C53.4982 22.8386 53.3412 23.0114 53.8436 23.0857C54.346 23.16 54.6814 23.1617 54.7624 23.0857C54.8434 23.0097 54.883 22.8265 54.8962 22.3946C54.9095 21.9626 54.5079 20.0844 52.8901 19.6611Z" fill="#455A64"/>
<g opacity="0.1">
<path d="M33.6253 34.9266C32.4363 34.4829 29.4412 34.0098 28.6433 33.8265C27.4 33.5166 27.2159 30.8451 26.4268 27.9115C25.0239 22.6749 23.3843 23.181 21.8674 23.2562C19.0529 23.3918 16.1086 24.9998 15.3195 27.1487C14.5304 29.2976 14.2235 32.6072 14.6338 35.572C15.0231 38.3736 15.7 39.7506 15.7 39.7506C15.0046 39.6709 14.3018 39.7959 13.6706 40.1114C13.0395 40.427 12.5052 40.9205 12.1279 41.5364C12.1279 41.5364 14.6128 40.1796 17.401 41.2412C17.1081 43.7733 17.501 46.8372 19.5228 47.8273C20.5119 48.3132 22.1866 47.8584 23.7613 47.2057C23.6543 49.4059 25.706 50.088 26.4864 50.1907C28.0646 50.3979 27.4526 47.8566 27.0247 46.0818C26.6617 44.5746 30.2812 42.9483 31.4999 42.7722C32.7187 42.5962 35.2246 45.2182 35.8629 43.8724C36.161 43.2435 36.0067 42.4422 35.6454 41.7198C35.1193 40.6728 33.9164 40.0091 33.9164 40.0091C36.3591 38.6413 36.8344 36.1257 33.6253 34.9266Z" fill="black"/>
</g>
<path d="M17.8538 42.5064C20.5053 42.7228 29.8554 39.9872 31.7949 33.81C31.7949 33.81 28.7507 32.2478 26.008 32.1488C23.2654 32.0498 19.0392 34.0154 17.9415 37.6274C17.4719 39.2124 17.4415 40.9041 17.8538 42.5064Z" fill="#516EB4"/>
<path opacity="0.35" d="M17.8538 42.5064C20.5053 42.7228 29.8554 39.9872 31.7949 33.81C31.7949 33.81 28.7507 32.2478 26.008 32.1488C23.2654 32.0498 19.0392 34.0154 17.9415 37.6274C17.4719 39.2124 17.4415 40.9041 17.8538 42.5064Z" fill="black"/>
<path d="M26.3162 33.0457L17.6464 34.4556C17.6464 34.4556 17.436 35.3871 17.4991 37.1509C17.564 38.9478 17.799 43.4968 18.2234 44.5932C18.6477 45.6897 18.9721 46.7935 21.4114 46.5863L23.1825 41.9933L23.2194 38.8983C23.7598 38.729 24.2874 38.5175 24.7976 38.2657C24.7976 38.2657 27.2719 38.4802 28.7379 38.2657C30.2039 38.0512 31.8786 37.0152 31.8786 37.0152L33.9075 34.3896C32.3433 33.6324 26.3162 33.0457 26.3162 33.0457Z" fill="#37474F"/>
<path d="M28.4765 37.831C27.5682 37.93 26.3161 37.9465 25.5147 37.6587C25.9303 36.1918 25.6638 35.3264 25.6638 35.3264C25.6094 35.772 25.548 36.8574 24.8922 37.6403C24.7554 37.7118 23.5612 38.2967 23.2964 38.0327C22.9079 37.4518 22.3371 37.0314 21.6831 36.8446C22.4985 37.4661 23.0439 38.128 23.2193 38.8981C23.2193 38.8981 24.0961 38.5864 24.7975 38.2656C26.0626 38.381 27.3347 38.389 28.601 38.2894L30.9403 36.7566C30.9403 36.7566 30.0215 36.553 28.4765 37.831Z" fill="#263238"/>
<path d="M23.1916 41.2488C22.4337 41.4505 21.7372 41.8505 21.168 42.4113C21.168 42.4113 21.4345 41.06 23.1916 40.6768V41.2488Z" fill="#263238"/>
<path d="M27.2633 40.3796C26.2252 42.1985 25.9411 42.6532 25.3589 43.1208C24.9538 43.4453 24.3523 43.8542 24.6995 44.8681C24.9187 45.5154 24.6873 46.0654 24.6802 46.742C24.6588 47.1091 24.7204 47.4764 24.8599 47.814C24.9994 48.1516 25.213 48.4502 25.4834 48.6855C25.8068 49.0303 26.1917 49.3057 26.6162 49.4959C27.0231 49.6683 27.2633 49.639 27.4632 49.5326C27.5782 49.4624 27.6732 49.3612 27.7382 49.2397C27.8033 49.1181 27.8361 48.9806 27.8332 48.8414C27.8004 48.4469 27.7227 48.0578 27.6017 47.6826C27.4173 47.1012 27.2812 46.5044 27.1949 45.8986C27.1348 45.5462 27.1688 45.1833 27.2931 44.8498C27.628 44.0559 29.4413 42.0518 29.4413 42.0518L27.2633 40.3796Z" fill="#F0F0F0"/>
<path d="M26.616 49.5031C26.1915 49.3129 25.8066 49.0375 25.4832 48.6927C25.17 48.4153 24.9338 48.055 24.7993 47.6494C24.9407 47.4069 25.1463 47.2125 25.3913 47.0898C25.6363 46.967 25.91 46.9213 26.1794 46.9582C26.6699 47.0352 27.1375 47.227 27.5472 47.5193C27.5647 47.5761 27.5823 47.6329 27.6016 47.6898C27.7225 48.065 27.8002 48.4541 27.833 48.8486C27.8359 48.9878 27.8031 49.1253 27.7381 49.2469C27.673 49.3684 27.578 49.4695 27.463 49.5398C27.2631 49.6462 27.0229 49.6755 26.616 49.5031Z" fill="#516EB4"/>
<path d="M24.7608 45.11C24.7457 45.0303 24.7252 44.9519 24.6995 44.8753C24.3487 43.8558 24.9537 43.4525 25.3588 43.1279L25.4623 43.0417C25.5469 43.2256 25.5958 43.4251 25.6063 43.6288C25.6168 43.8325 25.5887 44.0363 25.5235 44.2286C25.4583 44.4209 25.3573 44.5977 25.2264 44.749C25.0955 44.9003 24.9373 45.0229 24.7608 45.11Z" fill="#516EB4"/>
<path opacity="0.1" d="M27.2948 48.5022C27.3106 47.5396 26.5232 45.5538 26.4618 45.0331C26.4004 44.5124 27.2246 43.5938 27.2246 43.5938C26.9339 43.4711 26.6868 43.257 26.5175 42.9811C26.3482 42.7052 26.265 42.3811 26.2794 42.0536C26.5267 41.6704 26.8283 41.1479 27.2632 40.387L29.4412 42.0591C29.4412 42.0591 27.628 44.0632 27.293 44.8571C27.1687 45.1906 27.1347 45.5535 27.1948 45.9059C27.2811 46.5117 27.4172 47.1086 27.6017 47.6899C27.7226 48.0652 27.8003 48.4542 27.8331 48.8487C27.836 48.9879 27.8032 49.1255 27.7381 49.247C27.6731 49.3685 27.5781 49.4697 27.4631 49.5399C27.2632 49.6463 27.023 49.6756 26.6161 49.5033L26.5933 49.4923C26.9511 49.5473 27.2807 49.3639 27.2948 48.5022Z" fill="black"/>
<path d="M32.14 34.0156C35.0317 34.1513 35.6876 35.9372 35.1773 37.25C34.6266 38.6655 32.2908 40.3395 30.9353 41.5166C29.6885 42.602 27.998 43.781 27.998 43.781C27.998 43.781 26.3146 42.9339 26.29 41.8081C27.4702 39.7582 28.4066 37.6827 30.9423 36.7567L32.14 34.0156Z" fill="#37474F"/>
<path d="M27.6089 40.3963C29.5712 39.8792 30.0639 39.7234 30.6654 39.276C31.0793 38.9624 31.6211 38.4765 32.4558 39.1164C32.9819 39.5235 33.5571 39.4483 34.1779 39.6353C34.5202 39.7197 34.8388 39.8869 35.1081 40.1235C35.3773 40.3601 35.5897 40.6595 35.728 40.9977C35.9517 41.4205 36.0935 41.8853 36.1454 42.3655C36.1875 42.822 36.0893 43.0549 35.9367 43.2236C35.839 43.3189 35.7187 43.3851 35.5883 43.4154C35.4579 43.4457 35.322 43.439 35.1949 43.3959C34.8434 43.2493 34.5096 43.0597 34.2007 42.8312C33.7204 42.4809 33.2123 42.1742 32.682 41.9144C32.3773 41.7522 32.0355 41.6818 31.6948 41.7109C30.8706 41.8191 28.5137 43.0585 28.5137 43.0585L27.6089 40.3963Z" fill="#F0F0F0"/>
<path d="M36.145 42.3654C36.0931 41.8852 35.9513 41.4204 35.7276 40.9975C35.5629 40.6045 35.3007 40.2646 34.9683 40.0129C34.7055 40.0849 34.4683 40.2352 34.2855 40.4455C34.1028 40.6557 33.9824 40.9169 33.939 41.1974C33.868 41.7107 33.9094 42.2342 34.06 42.7284L34.2003 42.8311C34.5093 43.0596 34.843 43.2492 35.1946 43.3958C35.3217 43.4389 35.4575 43.4456 35.5879 43.4153C35.7183 43.385 35.8386 43.3188 35.9363 43.2234C36.0889 43.0548 36.1871 42.8219 36.145 42.3654Z" fill="#516EB4"/>
<path d="M32.6517 39.2448C32.5835 39.2067 32.5179 39.1638 32.4553 39.1164C31.6206 38.4765 31.0787 38.9624 30.6649 39.276L30.5562 39.3548C30.7003 39.4921 30.8691 39.5983 31.0527 39.6671C31.2362 39.736 31.431 39.7661 31.6258 39.7559C31.8206 39.7457 32.0115 39.6953 32.1876 39.6075C32.3637 39.5198 32.5214 39.3965 32.6517 39.2448Z" fill="#516EB4"/>
<path opacity="0.1" d="M35.0319 42.7633C34.1551 42.5048 32.554 41.1443 32.0946 40.9297C31.6351 40.7152 30.5567 41.28 30.5567 41.28C30.5276 40.9534 30.4024 40.6444 30.1982 40.3954C29.9941 40.1465 29.721 39.97 29.4168 39.8901C28.9942 40.0277 28.4296 40.1817 27.6089 40.398L28.5137 43.0585C28.5137 43.0585 30.8706 41.819 31.6948 41.7108C32.0355 41.6817 32.3773 41.7522 32.682 41.9144C33.2123 42.1741 33.7204 42.4808 34.2007 42.8311C34.5096 43.0597 34.8434 43.2492 35.1949 43.3958C35.322 43.4389 35.4579 43.4457 35.5883 43.4154C35.7187 43.3851 35.839 43.3188 35.9367 43.2235C36.0893 43.0548 36.1875 42.8219 36.1454 42.3654C36.1446 42.3569 36.1446 42.3483 36.1454 42.3397C36.084 42.7119 35.8192 42.987 35.0319 42.7633Z" fill="black"/>
<path d="M19.0459 45.4621C19.2458 46.4907 20.3734 46.9454 22.7285 46.3514C25.0835 45.7573 30.2847 42.3965 30.2847 42.3965C30.2847 42.3965 30.4039 40.4694 29.3763 39.8772C29.3763 39.8772 28.1313 40.0899 25.9147 40.6913C25.187 40.8893 23.4106 40.9865 22.3847 41.5915C22.3847 41.5915 20.7662 42.886 20.2997 43.5516C19.5229 44.6609 19.0459 45.4621 19.0459 45.4621Z" fill="#37474F"/>
<path d="M24.5662 21.4263C24.6313 21.5545 24.6724 21.6946 24.6872 21.8389C24.71 21.9741 24.71 22.1125 24.6872 22.2478C24.776 22.2468 24.8625 22.2772 24.9327 22.3339C25.0446 22.4225 25.1332 22.5392 25.1905 22.6731C25.2783 22.8779 25.2883 23.11 25.2185 23.3222C25.32 23.3812 25.4084 23.4618 25.4782 23.5587C25.548 23.6557 25.5975 23.7669 25.6236 23.8851C25.6535 24.0462 25.6444 24.2126 25.5973 24.3692C25.5501 24.5258 25.4664 24.6675 25.3536 24.7817C25.4353 24.8697 25.4978 24.9753 25.5366 25.0911C25.5754 25.2069 25.5896 25.3302 25.5783 25.4523C25.5669 25.5744 25.5303 25.6925 25.4709 25.7984C25.4115 25.9042 25.3307 25.9952 25.2343 26.0652C25.174 26.0967 25.1227 26.1441 25.0853 26.2027C25.0309 26.3145 25.1081 26.4429 25.1344 26.5694C25.1487 26.68 25.1382 26.7925 25.1038 26.8981C25.0694 27.0038 25.0121 27.0996 24.9362 27.1781C24.7848 27.3319 24.6496 27.5021 24.5329 27.686C24.4768 27.7793 24.4517 27.8894 24.4615 27.9991C24.4713 28.1088 24.5155 28.2121 24.5872 28.2929C24.415 28.1839 24.2739 28.0287 24.1784 27.8435C24.0829 27.6582 24.0367 27.4495 24.0444 27.2392C24.052 27.0289 24.1134 26.8246 24.2222 26.6475C24.3309 26.4704 24.483 26.3269 24.6626 26.232C24.5395 26.039 24.4548 25.822 24.4136 25.594C24.3948 25.4794 24.4087 25.3616 24.4536 25.2552C24.4985 25.1489 24.5725 25.0588 24.6661 24.9962C24.4452 24.9394 24.254 24.6515 24.1734 24.4462C24.0858 24.2234 24.0698 23.977 24.1278 23.7439C23.9747 23.6953 23.8456 23.5867 23.7674 23.4407C23.6893 23.2948 23.6682 23.1228 23.7087 22.961C23.5075 22.8232 23.3656 22.6087 23.3132 22.3632C23.2608 22.1177 23.302 21.8606 23.4281 21.6464C23.479 21.5712 23.5123 21.485 23.5614 21.4098C23.6448 21.3006 23.7442 21.2059 23.856 21.1293C23.9223 21.0658 24.0054 21.0249 24.0945 21.012C24.1917 21.017 24.2834 21.061 24.3505 21.1348C24.4379 21.2183 24.5108 21.3169 24.5662 21.4263Z" fill="#37474F"/>
<path d="M18.5339 24.0889C17.5799 24.4153 17.4467 24.9268 17.4098 25.5557C17.3555 26.4523 17.4642 27.1271 17.5554 27.9081C17.6466 28.6892 18.0201 31.456 18.0201 31.456C17.6588 32.481 17.4677 33.7479 17.394 35.1836C22.0463 36.4212 25.543 34.4502 26.0393 33.4087C26.0393 33.4087 25.8499 32.7157 25.6447 32.1363C25.7908 30.2649 25.7791 28.3838 25.6096 26.5147C25.3852 24.7196 24.9082 23.7515 24.1366 23.5553C23.9171 23.5233 23.6952 23.5129 23.4738 23.5242L20.668 23.6324C19.9448 23.7161 19.2304 23.8689 18.5339 24.0889Z" fill="#455A64"/>
<path d="M22.4531 23.1168C23.522 23.8215 24.3188 24.898 24.703 26.1568C25.1256 27.5521 24.8591 30.6434 24.9993 31.0358C25.1396 31.4281 24.9625 33.027 26.1199 34.2829C27.1528 35.4032 27.649 35.6013 27.977 35.7754C28.5153 36.0633 28.7801 35.9166 29.2729 35.2767C29.9182 34.4388 30.3057 34.0153 31.1054 33.6871L31.7945 33.8099C31.7945 33.8099 31.6823 33.3075 31.0107 33.1077C29.9112 32.7813 28.1471 32.2881 27.642 31.628L28.5925 29.58C28.5925 29.58 27.5052 26.815 26.8494 25.2785C25.8393 22.9114 25.0555 22.5282 24.0559 22.552C23.0564 22.5759 22.4601 22.6162 22.4601 22.6162L22.4531 23.1168Z" fill="#516EB4"/>
<path opacity="0.1" d="M26.5545 29.3858L26.2949 26.4412L27.0157 29.395L26.5545 29.3858Z" fill="black"/>
<path d="M22.4531 23.1168V22.2312C22.7038 22.2821 22.951 22.35 23.1931 22.4347C23.4594 22.5385 23.7103 22.6811 23.9384 22.8583C24.4294 23.236 25.2185 24.4406 25.4676 25.4344C25.7166 26.4281 25.6727 28.5935 25.4868 29.7487C25.301 30.9038 25.2028 32.3871 25.2028 32.3871C25.1202 32.2081 25.0556 32.0207 25.0099 31.8279C24.9524 31.5683 24.9171 31.3038 24.9047 31.0376C24.8468 30.4106 24.938 27.6181 24.5154 26.2228C24.0927 24.8275 23.358 23.6944 22.4531 23.1168Z" fill="#EBEBEB"/>
<path d="M20.2876 22.3761C19.1863 22.0295 18.3902 21.1476 18.0202 19.7394C17.4608 17.6107 18.7216 16.4501 19.3126 16.3419C19.3126 16.3419 19.5616 15.317 20.7926 14.6917C21.3334 14.4344 21.9248 14.3148 22.5183 14.3429C23.1118 14.3709 23.6905 14.5458 24.2069 14.8531C24.7589 15.1515 25.2137 15.6149 25.5133 16.1842C25.8259 16.8421 25.9132 17.5922 25.7605 18.3093C25.6176 18.7863 25.3191 19.1958 24.9171 19.4662C24.517 19.7335 24.0799 19.9345 23.6212 20.0621C23.3388 20.152 23.0547 20.2308 22.7724 20.3225C22.6233 20.3581 22.4782 20.4097 22.3393 20.4765C22.2505 20.5485 22.1688 20.6296 22.0955 20.7185L20.6926 22.0992C20.5892 22.2037 20.4086 22.3761 20.2876 22.3761Z" fill="#37474F"/>
<path d="M20.0872 19.7139C20.076 19.7257 20.0637 19.7362 20.0503 19.7451C19.8487 19.879 19.8557 19.5141 19.661 19.2702C19.6078 19.2076 19.5416 19.1585 19.4674 19.1268C19.3932 19.095 19.3131 19.0813 19.2332 19.0869C19.1029 19.0813 18.974 19.1161 18.8626 19.1868C18.7512 19.2576 18.6623 19.3613 18.6071 19.4847C18.5595 19.6116 18.5366 19.7471 18.5399 19.8834C18.5431 20.0196 18.5724 20.1538 18.626 20.278C18.6796 20.4022 18.7564 20.514 18.852 20.6067C18.9475 20.6994 19.0598 20.7711 19.1823 20.8177C19.3313 20.8753 19.4943 20.8803 19.6462 20.8319C19.7982 20.7836 19.9309 20.6846 20.024 20.55L20.1871 23.7807C20.1871 23.7807 20.7132 25.0862 22.1161 25.2604C23.5189 25.4345 23.4628 24.2611 22.9929 23.6817V22.6898C23.3412 22.6974 23.6886 22.6479 24.0222 22.5431C24.3533 22.4206 24.647 22.2075 24.8724 21.926C25.0979 21.6444 25.247 21.3047 25.3041 20.9424C25.4006 20.418 25.2498 19.9505 25.255 19.4206C25.2846 19.0547 25.2899 18.6871 25.2708 18.3205C25.2754 18.1452 25.2262 17.973 25.1305 17.8291C25.026 17.7195 24.8931 17.6443 24.7482 17.6127C24.5591 17.5763 24.3661 17.5683 24.1748 17.5889C23.6645 17.6219 23.056 17.8382 22.5492 17.7722C22.0784 17.7093 21.6313 17.5198 21.2516 17.2222C21.2412 17.6026 21.1571 17.9769 21.0043 18.3223C20.9207 18.4852 20.8036 18.6266 20.6614 18.7363C20.5191 18.846 20.3553 18.9213 20.1819 18.9567C20.2223 19.1532 20.2168 19.3569 20.1661 19.5507C20.1526 19.611 20.1256 19.6669 20.0872 19.7139Z" fill="#FFA8A7"/>
<path d="M22.4407 19.1657C22.4581 19.206 22.4678 19.2494 22.4691 19.2935C22.4705 19.3376 22.4635 19.3815 22.4486 19.4228C22.4337 19.4641 22.4112 19.5019 22.3823 19.5341C22.3534 19.5663 22.3187 19.5922 22.2803 19.6104C22.2418 19.6286 22.2003 19.6386 22.1581 19.64C22.116 19.6415 22.0739 19.6342 22.0344 19.6186C21.9949 19.603 21.9588 19.5794 21.928 19.5493C21.8972 19.5191 21.8724 19.4828 21.855 19.4426C21.7779 19.2593 21.8936 19.1621 22.0567 19.0851C22.2198 19.0081 22.3636 18.9897 22.4407 19.1657Z" fill="#263238"/>
<path d="M24.0926 19.0485C24.0749 19.0912 24.0658 19.1373 24.0659 19.1839C24.066 19.2304 24.0754 19.2765 24.0933 19.3191C24.1113 19.3617 24.1375 19.3999 24.1703 19.4314C24.2031 19.4629 24.2418 19.487 24.2839 19.5021C24.326 19.5172 24.3707 19.523 24.4151 19.5192C24.4595 19.5154 24.5026 19.502 24.5418 19.4799C24.581 19.4577 24.6154 19.4274 24.6428 19.3907C24.6702 19.354 24.6901 19.3118 24.7011 19.2667C24.7608 19.0833 24.6363 18.9898 24.4679 18.9293C24.2996 18.8688 24.1523 18.867 24.0926 19.0485Z" fill="#263238"/>
<path d="M22.3832 18.5972L21.6572 18.8924C21.6213 18.7887 21.6252 18.6745 21.668 18.5737C21.7108 18.4728 21.7893 18.3933 21.8869 18.3515C21.9348 18.3322 21.986 18.3232 22.0373 18.3252C22.0887 18.3272 22.1391 18.3401 22.1855 18.363C22.2319 18.386 22.2734 18.4186 22.3073 18.4589C22.3413 18.4992 22.3671 18.5462 22.3832 18.5972Z" fill="#263238"/>
<path d="M24.7611 18.6763L24.0176 18.4086C24.0318 18.3571 24.056 18.3091 24.0887 18.2677C24.1213 18.2263 24.1616 18.1922 24.2073 18.1677C24.2529 18.1431 24.3029 18.1286 24.3541 18.1249C24.4053 18.1213 24.4567 18.1286 24.5051 18.1464C24.6046 18.1836 24.6867 18.2593 24.7343 18.3579C24.7819 18.4565 24.7915 18.5705 24.7611 18.6763Z" fill="#263238"/>
<path d="M23.1685 18.823L23.2737 20.5263L24.1733 20.1578L23.1685 18.823Z" fill="#F28F8F"/>
<path opacity="0.15" d="M23.7667 19.7467C23.3669 19.9686 23.2739 20.526 23.2739 20.526L24.1735 20.1593L23.8386 19.7156C23.8137 19.7236 23.7897 19.734 23.7667 19.7467Z" fill="black"/>
<path d="M21.9058 20.0017C21.976 20.2492 21.7656 20.5334 21.4341 20.6379C21.1027 20.7424 20.7783 20.6251 20.7064 20.3775C20.6345 20.13 20.8467 19.844 21.1781 19.7413C21.5095 19.6386 21.8339 19.7541 21.9058 20.0017Z" fill="#F28F8F"/>
<path d="M25.9007 20.0551C25.8709 20.3118 25.5692 20.4841 25.2255 20.4401C24.8818 20.3961 24.6293 20.1522 24.6591 19.89C24.6889 19.6279 24.9923 19.4628 25.3343 19.5068C25.6762 19.5508 25.9305 19.7984 25.9007 20.0551Z" fill="#F28F8F"/>
<path d="M22.9954 22.6918C22.9954 22.6918 21.9204 22.6221 21.1173 22.1106C20.784 21.8707 20.526 21.5333 20.3755 21.1406C20.4475 21.4838 20.5899 21.8066 20.7928 22.0867C21.5609 22.976 22.9954 23.0328 22.9954 23.0328V22.6918Z" fill="#F28F8F"/>
<path d="M27.216 20.6584L24.1262 21.4945C24.0052 21.5421 23.9753 21.2965 24.1262 21.2451L27.2125 20.0698L27.216 20.6584Z" fill="#516EB4"/>
<path d="M26.6984 20.4382L24.1276 21.3257C24.089 21.3403 24.0838 21.4338 24.1276 21.4247C24.2171 21.4027 26.758 20.6583 26.758 20.6583L26.6984 20.4382Z" fill="#F28F8F"/>
<path opacity="0.2" d="M26.4863 20.3484L27.2123 20.0715V20.6583L26.6687 20.8068C26.5625 20.6784 26.4986 20.5177 26.4863 20.3484Z" fill="black"/>
<path d="M26.7617 20.2109C26.7617 20.3701 26.8069 20.5257 26.8915 20.6581C26.976 20.7905 27.0963 20.8937 27.2369 20.9546C27.3776 21.0155 27.5324 21.0314 27.6817 21.0004C27.8311 20.9693 27.9682 20.8927 28.0759 20.7801C28.1836 20.6675 28.2569 20.5241 28.2866 20.368C28.3163 20.2118 28.301 20.05 28.2428 19.9029C28.1845 19.7558 28.0858 19.6301 27.9592 19.5417C27.8326 19.4532 27.6838 19.406 27.5315 19.406C27.3275 19.4065 27.132 19.4914 26.9877 19.6423C26.8434 19.7931 26.7622 19.9976 26.7617 20.2109Z" fill="#516EB4"/>
<path d="M27.0825 20.2108C27.0825 20.3037 27.1088 20.3944 27.1582 20.4716C27.2075 20.5488 27.2776 20.609 27.3596 20.6445C27.4417 20.68 27.5319 20.6893 27.619 20.6712C27.7061 20.6531 27.7861 20.6084 27.8489 20.5427C27.9117 20.4771 27.9544 20.3935 27.9717 20.3024C27.9891 20.2114 27.9802 20.117 27.9462 20.0312C27.9122 19.9454 27.8547 19.8721 27.7808 19.8206C27.707 19.769 27.6202 19.7415 27.5314 19.7415C27.4724 19.7412 27.4139 19.7532 27.3594 19.7767C27.3048 19.8002 27.2552 19.8348 27.2135 19.8784C27.1718 19.922 27.1387 19.9739 27.1162 20.0309C27.0937 20.088 27.0823 20.1491 27.0825 20.2108Z" fill="#F28F8F"/>
<path d="M24.1824 21.3842C24.0978 21.3091 23.9899 21.2688 23.879 21.2706C23.8148 21.2707 23.7517 21.2871 23.6949 21.3182C23.6555 21.3345 23.6192 21.3581 23.5879 21.3879C23.5879 21.3879 23.5791 21.4117 23.5879 21.4172C23.5981 21.4209 23.6092 21.4209 23.6194 21.4172H23.6685C23.6999 21.4118 23.7315 21.4081 23.7632 21.4062H23.8158H23.8649H23.8842C23.9212 21.4131 23.9571 21.4248 23.9912 21.4411C24.0245 21.4558 24.0549 21.4769 24.0806 21.5034C24.0986 21.5261 24.115 21.5499 24.1297 21.5749C24.1446 21.5951 24.1647 21.6103 24.1876 21.6189C24.1974 21.6239 24.2081 21.6267 24.219 21.6269C24.2299 21.6272 24.2407 21.625 24.2507 21.6205C24.2607 21.6159 24.2697 21.6092 24.2769 21.6007C24.2842 21.5922 24.2896 21.5822 24.2928 21.5713C24.2936 21.5499 24.29 21.5287 24.2823 21.5089C24.2589 21.4597 24.2247 21.4169 24.1824 21.3842Z" fill="#B16668"/>
<path d="M17.2992 17.5981L16.3084 17.2662L16.7451 16.7033L14.7109 16.1459L15.4404 15.495L13.2256 14.7598L14.6197 15.6344L13.7359 16.3329L16.1103 16.9087L15.6666 17.5797L17.2992 17.5981Z" fill="#F28F8F"/>
<path d="M17.5414 16.2652L16.8488 15.7921L17.1258 15.4822L16.498 14.9432L16.961 14.67L16.6471 13.8926L17.1486 14.7012L16.8295 14.9249L17.4993 15.4584L17.1714 15.8104L17.5414 16.2652Z" fill="#F28F8F"/>
<path d="M17.5797 18.5039L16.631 19.6205L16.1119 19.0705L15.2404 19.8057L14.7056 19.1053L13.2764 19.7929L14.8599 18.5919L15.4824 19.2135L16.2084 18.6066L16.6503 19.1438L17.5797 18.5039Z" fill="#F28F8F"/>
<path d="M20.3451 14.2024C20.5934 13.887 20.8792 13.606 21.1956 13.3663C21.6101 13.0719 22.1143 12.9484 22.6107 13.0197C22.8565 13.0581 23.0906 13.1545 23.2954 13.3016C23.5002 13.4487 23.6702 13.6426 23.7927 13.8687C23.9163 14.136 23.9773 14.4302 23.9706 14.7271C23.9639 15.0239 23.8897 15.3148 23.7541 15.5757C23.4123 16.2181 22.8977 16.7415 22.2741 17.081C21.5726 17.5064 20.8414 17.9153 20.0277 18.0656C19.391 18.2036 18.7281 18.0954 18.1619 17.7613C17.6814 17.4477 17.5621 16.63 17.8936 16.1587C18.111 15.8489 18.4723 15.6949 18.7984 15.5152C19.2609 15.2603 19.6822 14.9312 20.047 14.5397C20.1487 14.4297 20.2469 14.3161 20.3451 14.2024Z" fill="#516EB4"/>
<path opacity="0.1" d="M17.8941 16.1587C18.1116 15.8489 18.4728 15.6948 18.799 15.5151C18.8516 15.4876 18.9024 15.4565 18.9551 15.4253C18.1379 16.0377 18.4027 16.6794 19.0024 16.949C19.6021 17.2185 20.9156 17.081 22.2729 16.0762C23.9651 14.8221 23.5723 13.5661 23.2023 13.2434C23.4506 13.3908 23.6552 13.6072 23.7932 13.8686C23.9169 14.1359 23.9778 14.4302 23.9711 14.727C23.9644 15.0239 23.8902 15.3148 23.7546 15.5757C23.4129 16.2181 22.8982 16.7415 22.2746 17.081C21.5732 17.5064 20.8419 17.9152 20.0283 18.0656C19.3916 18.2036 18.7286 18.0954 18.1624 17.7612C17.6819 17.4477 17.5715 16.6299 17.8941 16.1587Z" fill="black"/>
<path d="M19.5455 14.9412C19.6604 14.8571 19.7886 14.795 19.9243 14.7579L20.3715 14.5415L20.5328 14.9082C20.5541 14.97 20.5592 15.0366 20.5474 15.1011C20.5357 15.1656 20.5076 15.2256 20.4661 15.2749C20.3594 15.4159 20.2222 15.5285 20.0659 15.6034C19.9095 15.6782 19.7384 15.7134 19.5666 15.7058C19.5048 15.706 19.444 15.6892 19.3904 15.657C19.3368 15.6248 19.2923 15.5784 19.2614 15.5224L19.1001 15.1557L19.5455 14.9412Z" fill="#37474F"/>
<path d="M20.3046 14.9063C20.1982 15.0472 20.0613 15.1596 19.9052 15.2345C19.7492 15.3094 19.5784 15.3446 19.4068 15.3372C19.0912 15.306 18.9842 15.0622 19.1666 14.7871C19.2732 14.6459 19.4103 14.5331 19.5667 14.4579C19.723 14.3827 19.8942 14.3472 20.0662 14.3544C20.3765 14.3929 20.487 14.6368 20.3046 14.9063Z" fill="#455A64"/>
<path d="M29.2076 30.0842C29.5583 29.998 29.7652 30.4271 29.6986 31.1146C29.6319 31.8022 29.1725 33.0564 28.1747 32.6695C27.1769 32.2826 29.2076 30.0842 29.2076 30.0842Z" fill="#F28F8F"/>
<path d="M25.9058 28.7347C25.9706 28.5716 26.1565 28.4322 26.4634 28.3479C27.2829 28.1717 28.1356 28.3096 28.8658 28.7366C29.1324 28.9199 29.2709 29.1033 29.2849 29.2866C29.2323 30.4271 28.8483 31.6959 28.3608 32.3541L28.3503 32.367C28.351 32.37 28.351 32.3731 28.3503 32.3761C28.2574 32.4934 28.1364 32.5826 27.9996 32.6347C27.6952 32.7394 27.3716 32.7674 27.0549 32.7164C26.7383 32.6654 26.4377 32.5369 26.1776 32.3413C26.0582 32.2465 25.9655 32.1198 25.9093 31.9746C25.9093 31.9746 25.9093 31.9746 25.9093 31.9654C25.9103 31.9594 25.9103 31.9532 25.9093 31.9471C25.6357 31.166 25.6357 29.8349 25.9093 28.7329L25.9058 28.7347Z" fill="#F5F5F5"/>
<path d="M26.4637 28.3481C25.7623 28.5425 25.6834 29.032 26.3024 29.4482C27.0326 29.8752 27.8853 30.0131 28.7048 29.8369C29.4063 29.6426 29.4852 29.1549 28.8661 28.746C28.137 28.3159 27.2842 28.1747 26.4637 28.3481Z" fill="#FAFAFA"/>
<path d="M26.6672 28.5756C26.1025 28.6856 26.0569 29.0046 26.5619 29.2888C27.1626 29.5854 27.8325 29.6942 28.4909 29.6024C29.0556 29.4905 29.1029 29.1715 28.5961 28.8891C27.9958 28.5914 27.3256 28.4824 26.6672 28.5756Z" fill="#E6E6E6"/>
<path d="M26.6038 29.0118C26.5033 29.0292 26.4058 29.0619 26.3145 29.109C26.3874 29.183 26.4708 29.2448 26.5617 29.2923C27.1624 29.5888 27.8322 29.6977 28.4907 29.6058C28.5913 29.5882 28.6889 29.5549 28.78 29.5068C28.7066 29.4334 28.6233 29.3716 28.5328 29.3235C27.9322 29.0263 27.2621 28.9181 26.6038 29.0118Z" fill="#516EB4"/>
<path d="M27.7626 27.9116C27.5593 27.7807 27.4073 27.5782 27.3341 27.3406C27.2608 27.103 27.271 26.8458 27.3628 26.6153C27.5767 26.0964 28.0169 25.7334 27.7696 25.374C27.7696 25.374 28.2957 25.616 28.1958 26.1643C28.0607 26.8959 27.4908 27.0444 27.7626 27.9116Z" fill="#FAFAFA"/>
<path d="M28.0367 27.9116C28.0367 27.9116 27.8946 27.4587 28.0788 27.1433C28.2629 26.828 28.5312 26.6483 28.5189 26.3018C28.6025 26.4 28.6583 26.5207 28.68 26.6502C28.7017 26.7798 28.6884 26.9131 28.6417 27.0352C28.4663 27.4275 28.0928 27.4862 28.0367 27.9116Z" fill="#FAFAFA"/>
<path d="M16.8699 32.7412C16.5858 31.2744 16.6455 30.9077 16.3684 27.6807C16.179 25.5024 17.5749 24.3583 18.9988 23.5222C20.7068 25.6179 19.3179 28.2601 19.3179 28.2601L19.8177 31.4082C19.8177 31.4082 24.2736 31.3385 24.6401 31.0782C24.9417 30.8637 25.3415 29.9231 25.7098 29.9487C25.6904 30.1982 25.6851 30.4486 25.694 30.6986C25.6817 30.8563 26.4744 31.0488 27.281 31.036C28.0877 31.0232 29.3345 30.4346 29.1153 31.4027C28.968 32.0536 28.7961 32.523 28.2578 32.8329C27.281 33.3921 26.2446 33.2454 25.2363 33.3316C24.228 33.4178 21.4784 33.8817 19.8002 33.8817C18.2553 33.8927 17.1014 33.9037 16.8699 32.7412Z" fill="#FFA8A7"/>
<path d="M20.119 22.6899C18.767 23.4234 17.5272 24.0798 17.0432 24.65C16.6557 25.1047 16.1787 25.5832 16.1787 27.1894C16.1787 28.2107 16.2348 32.1051 16.6118 33.6746C16.703 34.0541 16.9468 34.177 17.3133 34.287C17.2993 35.1543 16.9485 35.3266 16.9906 37.8844C17.0397 41.0161 16.8468 41.7348 17.1134 42.118C17.2014 42.2343 17.3126 42.3293 17.4391 42.3964C17.5657 42.4635 17.7046 42.5011 17.8464 42.5067L17.7534 41.5441C17.9586 40.7594 18.774 39.8334 21.9726 39.6409C23.5245 39.5492 24.4837 39.6978 24.6609 39.5566C25.2799 39.0597 24.6837 33.3977 24.6837 33.3977C24.5244 33.2551 24.3824 33.0925 24.261 32.9137C23.8577 32.2793 23.6841 31.3992 23.9717 31.214L24.1699 31.1902C24.0423 29.8691 23.5885 28.6054 22.8529 27.5231C21.6464 25.7776 20.1208 24.8737 20.119 22.6899Z" fill="#516EB4"/>
<path opacity="0.1" d="M19.5962 34.23L24.7693 34.2428C24.7202 33.6671 24.6904 33.3994 24.6904 33.3994L19.5962 34.23Z" fill="black"/>
<path d="M20.9817 24.8148C20.3329 23.9292 20.1312 22.6751 20.1312 22.6751L20.1154 22.3542C19.7414 22.4991 19.3903 22.7019 19.0738 22.9556C18.6354 23.3352 18.7231 23.7037 19.0913 24.6608C19.4543 25.5776 20.9011 27.1599 21.8796 28.0015C22.8581 28.8431 24.0786 30.4474 24.1768 31.19C24.2645 31.1772 24.3521 31.1644 24.4311 31.146C24.0961 27.3616 21.6323 25.7004 20.9817 24.8148Z" fill="#EBEBEB"/>
<path opacity="0.1" d="M23.979 31.2119C23.979 31.2119 20.1597 31.2504 20.0001 31.276C19.8405 31.3017 19.5161 28.2581 19.5161 28.2581C19.5161 28.2581 20.1001 30.5536 20.2631 30.7847C20.4262 31.0157 23.979 31.2119 23.979 31.2119Z" fill="black"/>
<path d="M18.5283 21.5198C18.4889 21.6595 18.4747 21.8056 18.4862 21.9507C18.4884 22.0872 18.5127 22.2223 18.5581 22.3504C18.4711 22.3687 18.3922 22.4163 18.3336 22.4861C18.2163 22.6252 18.1439 22.7995 18.1266 22.9841C18.1093 23.1687 18.148 23.3543 18.2372 23.5147C18.1489 23.5929 18.0772 23.6896 18.0267 23.7985C17.9763 23.9075 17.9482 24.0263 17.9443 24.1472C17.9449 24.3114 17.9846 24.4729 18.0599 24.617C18.1353 24.7611 18.2438 24.8832 18.3757 24.9723C18.31 25.0751 18.2666 25.1918 18.2488 25.314C18.231 25.4363 18.2391 25.5612 18.2726 25.6798C18.306 25.7984 18.364 25.9079 18.4425 26.0004C18.5209 26.093 18.6179 26.1664 18.7264 26.2155C18.7927 26.2345 18.8531 26.2711 18.9018 26.3218C18.9754 26.4208 18.9246 26.562 18.9211 26.6885C18.9294 26.7984 18.9613 26.9049 19.0145 27.0002C19.0676 27.0954 19.1406 27.1769 19.228 27.2386C19.4046 27.3589 19.5686 27.4984 19.7172 27.6548C19.7895 27.7351 19.8345 27.838 19.8452 27.9477C19.856 28.0573 19.832 28.1677 19.7768 28.2617C19.9241 28.1199 20.0326 27.9397 20.0912 27.7396C20.1498 27.5395 20.1564 27.3267 20.1103 27.1231C20.0643 26.9194 19.9672 26.7323 19.8291 26.5808C19.691 26.4294 19.5168 26.3191 19.3244 26.2613C19.4102 26.0465 19.4531 25.8156 19.4507 25.5829C19.4481 25.4665 19.4126 25.3535 19.3486 25.2582C19.2846 25.1629 19.195 25.0895 19.0912 25.0475C19.2981 24.9485 19.4419 24.6276 19.4735 24.4094C19.5188 24.173 19.4886 23.9276 19.3875 23.7109C19.5304 23.6336 19.6387 23.5009 19.6891 23.3412C19.7396 23.1815 19.7283 23.0075 19.6576 22.8564C20.0083 22.5062 20.0679 21.8058 19.719 21.4538C19.6558 21.3896 19.5997 21.2851 19.5436 21.2209C19.4651 21.1186 19.3709 21.0306 19.2648 20.9606C19.1916 20.9125 19.1054 20.8906 19.0193 20.8982C18.9228 20.9147 18.7545 21.1146 18.6966 21.1953C18.6229 21.2924 18.5659 21.4022 18.5283 21.5198Z" fill="#37474F"/>
<path d="M15.3808 42.9449C15.3808 42.1224 14.8609 41.3014 13.8227 40.675C11.7448 39.4205 8.37866 39.4205 6.30074 40.675C5.26254 41.3014 4.74268 42.1224 4.74268 42.9449V55.5854C4.74268 56.4063 5.26254 57.2288 6.30074 57.8553C8.37866 59.1098 11.7448 59.1098 13.8227 57.8553C14.8609 57.2288 15.3808 56.4063 15.3808 55.5854V42.9449Z" fill="#516EB4"/>
<path opacity="0.4" d="M13.333 40.4167V58.1103C13.4999 58.034 13.6628 57.9484 13.8209 57.8537C14.1294 57.6698 14.4134 57.4441 14.6654 57.1826V41.3508C14.4133 41.0898 14.1293 40.8647 13.8209 40.6813C13.6626 40.5846 13.4998 40.4962 13.333 40.4167Z" fill="white"/>
<path opacity="0.4" d="M11.9399 58.5853C12.1977 58.5273 12.4522 58.4544 12.7022 58.367V40.1633C12.452 40.0761 12.1975 40.0026 11.9399 39.9434V58.5853Z" fill="white"/>
<path opacity="0.1" d="M15.2858 42.352C14.9552 41.8909 14.5329 41.5102 14.0479 41.2362C11.999 39.9993 8.76546 39.9148 6.55033 40.9796V40.538C6.46648 40.5827 6.37959 40.6257 6.29879 40.6751C5.26059 41.3016 4.74072 42.1225 4.74072 42.945V45.1176V53.067V55.5855C4.74072 56.4064 5.26059 57.2289 6.29879 57.8554C8.37671 59.1099 11.7429 59.1099 13.8208 57.8554C14.173 57.6489 14.4928 57.3871 14.769 57.0791C13.7796 58.0451 11.3175 58.5775 9.48809 58.1949C7.65866 57.8123 6.55033 56.6009 6.55033 55.7306V53.4989C7.57634 54.0808 8.91792 54.3565 10.229 54.3565V48.5862C8.91792 48.5862 7.57634 48.3742 6.55033 47.7972V46.2956C8.76546 47.3604 11.999 47.2759 14.0479 46.039C14.5878 45.7352 15.0456 45.2938 15.3788 44.7558V42.945C15.3779 42.7434 15.3465 42.5433 15.2858 42.352Z" fill="black"/>
<path opacity="0.1" d="M5.64019 55.984V41.1597C5.04258 41.6984 4.74072 42.3217 4.74072 42.945V55.5855C4.74072 56.4064 5.26059 57.2289 6.29879 57.8554C6.92862 58.2208 7.61072 58.4775 8.31878 58.6157C6.32013 58.0498 5.64019 56.6216 5.64019 55.984Z" fill="black"/>
<path d="M15.7009 40.4056C15.7009 39.5337 15.1506 38.6618 14.0483 37.9971C11.8454 36.6676 8.27495 36.6676 6.07202 37.9971C4.96979 38.6618 4.41943 39.5337 4.41943 40.4056V43.0198C4.41943 43.8901 4.96979 44.7621 6.07202 45.4268C8.27495 46.7562 11.8454 46.7562 14.0483 45.4268C15.1506 44.7621 15.7009 43.8901 15.7009 43.0198V40.4056Z" fill="#E0E0E0"/>
<mask id="mask0_251_6649" style="mask-type:luminance" maskUnits="userSpaceOnUse" x="4" y="37" width="12" height="10">
<path d="M15.7009 40.4056C15.7009 39.5337 15.1506 38.6618 14.0483 37.9971C11.8454 36.6676 8.27495 36.6676 6.07202 37.9971C4.96979 38.6618 4.41943 39.5337 4.41943 40.4056V43.0198C4.41943 43.8901 4.96979 44.7621 6.07202 45.4268C8.27495 46.7562 11.8454 46.7562 14.0483 45.4268C15.1506 44.7621 15.7009 43.8901 15.7009 43.0198V40.4056Z" fill="white"/>
</mask>
<g mask="url(#mask0_251_6649)">
<g opacity="0.2">
<path d="M15.8363 40.1633H15.5649V44.2297H15.8363V40.1633Z" fill="black"/>
<path d="M15.2142 41.2617H14.9429V45.3504H15.2142V41.2617Z" fill="black"/>
<path d="M14.2723 42.0156H14.001V46.1266H14.2723V42.0156Z" fill="black"/>
<path d="M13.1991 42.4858H12.9277V46.6175H13.1991V42.4858Z" fill="black"/>
<path d="M12.0175 42.7998H11.7461V46.9538H12.0175V42.7998Z" fill="black"/>
<path d="M10.7675 42.9578H10.4961V47.1341H10.7675V42.9578Z" fill="black"/>
<path d="M9.4989 42.9529H9.22754V47.1515H9.4989V42.9529Z" fill="black"/>
<path d="M8.25965 42.7791H7.98828V47H8.25965V42.7791Z" fill="black"/>
<path d="M7.09949 42.4302H6.82812V46.6718H7.09949V42.4302Z" fill="black"/>
<path d="M6.04871 41.8896H5.77734V46.1536H6.04871V41.8896Z" fill="black"/>
<path d="M5.21375 41.1372H4.94238V45.4235H5.21375V41.1372Z" fill="black"/>
<path d="M4.55506 39.9211H4.28369V44.2298H4.55506V39.9211Z" fill="black"/>
</g>
<path opacity="0.1" d="M11.4166 46.3227C8.62364 46.3371 7.1479 45.3902 6.70427 44.6171C6.3643 44.0289 6.30484 42.9434 6.30484 41.8674C6.30484 41.8674 5.99079 39.4159 6.05177 39.4079C6.08988 39.4079 5.3825 39.2485 4.83215 39.1226C4.5694 39.4946 4.42442 39.9433 4.41748 40.4057V43.0199C4.41748 43.8903 4.96783 44.7622 6.07006 45.4269C7.51836 46.3004 9.55665 46.5969 11.4166 46.3227Z" fill="black"/>
</g>
<path d="M10.0602 43.8104C13.1755 43.8104 15.7009 42.286 15.7009 40.4055C15.7009 38.5251 13.1755 37.0007 10.0602 37.0007C6.94488 37.0007 4.41943 38.5251 4.41943 40.4055C4.41943 42.286 6.94488 43.8104 10.0602 43.8104Z" fill="#EBEBEB"/>
<path d="M14.3517 42.6102C16.2421 41.2728 16.1445 39.2628 14.0468 37.9971C12.9796 37.3483 11.574 37.0184 10.1669 37.0024C9.44538 37.1203 8.74899 37.3685 8.10876 37.7357C6.20463 38.8738 6.20463 41.1469 8.10876 42.285C9.81013 43.302 12.4491 43.4072 14.3517 42.6102Z" fill="#F5F5F5"/>
<path opacity="0.1" d="M6.60519 57.6098C8.51237 58.6124 11.6071 58.6124 13.5143 57.6098C15.4215 56.6072 15.4215 54.9829 13.5143 53.9802C11.6071 52.9776 8.51237 52.9776 6.60519 53.9802C4.69801 54.9829 4.69801 56.5992 6.60519 57.6098Z" fill="black"/>
<path d="M4.74072 45.6548C4.74072 46.4757 5.26059 47.2982 6.29879 47.9247C7.33699 48.5511 8.69838 48.8651 10.0598 48.8651V54.5239C8.69838 54.5239 7.33699 54.2051 6.29879 53.5834C5.26059 52.9617 4.74072 52.1344 4.74072 51.3135V45.6548Z" fill="white"/>
<path d="M4.85059 41.7128C4.85059 41.7128 6.68001 43.6432 10.2291 43.5428C13.7782 43.4423 15.1914 41.4179 15.3789 40.7899C15.4737 40.4205 15.4795 40.0322 15.396 39.6598C15.3125 39.2874 15.1422 38.9424 14.9002 38.6555C15.1407 38.8755 15.3357 39.1445 15.4733 39.446C15.6109 39.7475 15.6883 40.0751 15.7006 40.4089V43.0231C15.7006 43.2431 15.8089 44.0034 14.6655 44.9885C14.6655 44.9885 15.3363 44.1915 15.3363 43.4248V41.614C15.3363 41.614 14.0816 43.809 10.2291 43.809C6.37663 43.809 5.0442 42.0412 4.85059 41.7128Z" fill="white"/>
<path d="M21.3092 59.3218C21.2279 59.2622 21.1634 59.181 21.1224 59.0865C21.0814 58.992 21.0653 58.8878 21.0759 58.7846C21.0911 58.4972 21.1707 58.2176 21.3085 57.9683C21.4462 57.7191 21.6381 57.5073 21.8687 57.35C21.9488 57.2889 22.0431 57.2514 22.1417 57.2413C22.2404 57.2312 22.3398 57.2489 22.4297 57.2926L23.4496 57.9095C23.6998 58.0693 23.8803 58.3251 23.9526 58.6222C24.0249 58.9192 23.9833 59.2341 23.8367 59.4995C23.6901 59.765 23.45 59.96 23.1678 60.0429C22.8855 60.1258 22.5835 60.0902 22.326 59.9435L21.3092 59.3218Z" fill="#F5F5F5"/>
<path d="M19.9037 58.4723C19.7668 58.4007 19.6454 58.3007 19.5469 58.1783C19.4483 58.056 19.3747 57.9139 19.3305 57.7607C19.2864 57.6075 19.2726 57.4465 19.29 57.2876C19.3075 57.1287 19.3558 56.9752 19.432 56.8364C19.5082 56.6977 19.6107 56.5767 19.7333 56.4809C19.8558 56.3851 19.9957 56.3164 20.1445 56.2792C20.2933 56.2419 20.4478 56.2368 20.5985 56.2642C20.7493 56.2915 20.8931 56.3508 21.0212 56.4383L22.4252 57.2911C22.3354 57.2474 22.2359 57.2297 22.1372 57.2398C22.0386 57.2499 21.9443 57.2874 21.8642 57.3485C21.6336 57.5058 21.4417 57.7176 21.304 57.9668C21.1663 58.2161 21.0866 58.4957 21.0715 58.7831C21.0609 58.8863 21.0769 58.9906 21.1179 59.085C21.1589 59.1795 21.2234 59.2608 21.3047 59.3203L19.9037 58.4723Z" fill="#516EB4"/>
<path opacity="0.4" d="M20.1554 56.7491C20.1269 56.7999 20.1081 56.856 20.1003 56.9144C20.0925 56.9727 20.0958 57.032 20.1099 57.089C20.1241 57.146 20.1489 57.1996 20.1828 57.2465C20.2168 57.2935 20.2593 57.333 20.3079 57.3628L22.0047 58.3926C22.1486 58.145 22.2289 57.8628 22.2379 57.5732C22.2379 57.5461 22.2379 57.519 22.2379 57.4935L20.7409 56.585C20.6921 56.5555 20.6383 56.5364 20.5825 56.5287C20.5267 56.5211 20.47 56.5249 20.4156 56.5402C20.3612 56.5554 20.3103 56.5817 20.2656 56.6176C20.221 56.6534 20.1836 56.6981 20.1554 56.7491Z" fill="white"/>
<path d="M21.3092 59.3218C21.2279 59.2622 21.1634 59.181 21.1224 59.0865C21.0814 58.992 21.0653 58.8878 21.0759 58.7846C21.0911 58.4972 21.1707 58.2176 21.3085 57.9683C21.4462 57.7191 21.6381 57.5073 21.8687 57.35C21.9488 57.2889 22.0431 57.2514 22.1417 57.2413C22.2404 57.2312 22.3398 57.2489 22.4297 57.2926L23.4496 57.9095C23.6998 58.0693 23.8803 58.3251 23.9526 58.6222C24.0249 58.9192 23.9833 59.2341 23.8367 59.4995C23.6901 59.765 23.45 59.96 23.1678 60.0429C22.8855 60.1258 22.5835 60.0902 22.326 59.9435L21.3092 59.3218Z" fill="#F5F5F5"/>
<path opacity="0.1" d="M21.8691 57.3483C21.6386 57.5056 21.4466 57.7174 21.3089 57.9666C21.1712 58.2159 21.0915 58.4955 21.0764 58.7829C21.0658 58.8861 21.0818 58.9903 21.1228 59.0848C21.1639 59.1793 21.2284 59.2605 21.3096 59.3201L21.2288 59.2723L21.1679 59.2356C21.0872 59.1755 21.0233 59.0941 20.9826 58.9998C20.9419 58.9054 20.9258 58.8014 20.9361 58.6984C20.9513 58.411 21.0309 58.1314 21.1687 57.8821C21.3064 57.6329 21.4983 57.4211 21.7289 57.2638C21.809 57.2029 21.9032 57.1654 22.0018 57.155C22.1003 57.1447 22.1998 57.1619 22.2899 57.2048L22.4302 57.2909C22.3403 57.2472 22.2408 57.2295 22.1422 57.2396C22.0435 57.2497 21.9492 57.2872 21.8691 57.3483Z" fill="black"/>
<path d="M24.003 58.8006C24.0252 59.016 23.9899 59.2336 23.901 59.4293C23.8121 59.625 23.6732 59.7912 23.4995 59.9094C23.3259 60.0276 23.1243 60.0932 22.9172 60.0989C22.71 60.1046 22.5054 60.0503 22.326 59.9419L21.3092 59.3219C21.2279 59.2623 21.1634 59.1811 21.1224 59.0866C21.0814 58.9921 21.0653 58.8878 21.0759 58.7847C21.0775 58.6634 21.0939 58.5429 21.1247 58.426L22.8276 59.4558C23.3871 59.7937 23.9969 59.1848 24.003 58.8006Z" fill="#EBEBEB"/>
<path d="M23.6128 58.8451C23.5843 58.8959 23.5465 58.9403 23.5016 58.9759C23.4567 59.0114 23.4055 59.0373 23.351 59.0521C23.2964 59.0669 23.2397 59.0703 23.1839 59.0621C23.1281 59.054 23.0744 59.0344 23.0259 59.0045L21.3047 57.9636C21.438 57.7103 21.6312 57.4968 21.8657 57.3435L21.9343 57.3069L23.4588 58.2266C23.5082 58.2563 23.5514 58.2959 23.5859 58.3432C23.6204 58.3905 23.6456 58.4445 23.6599 58.5021C23.6742 58.5597 23.6774 58.6197 23.6694 58.6786C23.6613 58.7374 23.6421 58.7941 23.6128 58.8451Z" fill="white"/>
<path opacity="0.1" d="M19.5715 56.746C19.5835 56.7275 19.5967 56.7099 19.6111 56.6934C19.6218 56.6806 19.6309 56.6679 19.6416 56.6567L19.6782 56.6185L19.7163 56.5802L19.7361 56.5627C19.7957 56.5093 19.8606 56.4628 19.9297 56.424C19.9557 56.4097 19.9801 56.3969 20.006 56.3857C19.6904 56.5834 19.4907 57.4394 20.0502 57.7773C20.2423 57.8937 20.5289 58.0722 21.1173 58.4293C21.0865 58.5462 21.0701 58.6667 21.0686 58.7879C21.058 58.8911 21.074 58.9953 21.115 59.0898C21.156 59.1843 21.2205 59.2656 21.3018 59.3251L19.8962 58.4755C19.7683 58.3984 19.6563 58.2957 19.5664 58.1733C19.4765 58.0509 19.4105 57.9111 19.3723 57.7621C19.3341 57.613 19.3243 57.4575 19.3436 57.3045C19.3629 57.1515 19.4108 57.004 19.4846 56.8703C19.5029 56.8384 19.5212 56.8082 19.541 56.7795L19.5715 56.746Z" fill="black"/>
<path d="M16.5545 62.1177C16.6354 62.0578 16.6996 61.9765 16.7406 61.8821C16.7816 61.7878 16.7979 61.6837 16.7877 61.5806C16.7726 61.293 16.6927 61.0132 16.5547 60.7639C16.4167 60.5147 16.2244 60.3029 15.9935 60.1459C15.9137 60.0848 15.8197 60.0473 15.7212 60.0372C15.6228 60.0271 15.5236 60.0448 15.434 60.0886L14.4141 60.7054C14.1755 60.8704 14.0061 61.1242 13.9403 61.4151C13.8745 61.7061 13.9173 62.0124 14.06 62.2715C14.2027 62.5307 14.4345 62.7232 14.7082 62.8098C14.9819 62.8964 15.2769 62.8707 15.5331 62.7378L16.5545 62.1177Z" fill="#F5F5F5"/>
<path d="M17.9602 61.2666C18.0918 61.1916 18.2078 61.0898 18.3012 60.9673C18.3946 60.8447 18.4636 60.7038 18.5042 60.553C18.5447 60.4021 18.556 60.2443 18.5373 60.0888C18.5187 59.9333 18.4704 59.7832 18.3955 59.6475C18.3205 59.5118 18.2203 59.3932 18.1008 59.2985C17.9813 59.2039 17.8449 59.1353 17.6997 59.0966C17.5544 59.0579 17.4032 59.0501 17.255 59.0734C17.1068 59.0968 16.9645 59.1509 16.8366 59.2327L15.4341 60.087C15.5237 60.0433 15.6229 60.0256 15.7213 60.0357C15.8198 60.0458 15.9138 60.0833 15.9936 60.1444C16.2245 60.3014 16.4168 60.5131 16.5548 60.7624C16.6928 61.0117 16.7727 61.2915 16.7879 61.579C16.798 61.6822 16.7817 61.7862 16.7407 61.8806C16.6998 61.975 16.6355 62.0563 16.5546 62.1162L17.9602 61.2666Z" fill="#516EB4"/>
<path opacity="0.4" d="M17.7085 59.5451C17.7654 59.6478 17.7813 59.7698 17.7528 59.8847C17.7242 59.9995 17.6535 60.098 17.556 60.1588L15.8577 61.1885C15.7151 60.9404 15.6354 60.6584 15.626 60.3692C15.626 60.3421 15.626 60.315 15.626 60.2895L17.1231 59.3793C17.2219 59.3208 17.3387 59.3055 17.4483 59.3365C17.5579 59.3675 17.6514 59.4425 17.7085 59.5451Z" fill="white"/>
<path d="M16.5545 62.1177C16.6354 62.0578 16.6996 61.9765 16.7406 61.8821C16.7816 61.7878 16.7979 61.6837 16.7877 61.5806C16.7726 61.293 16.6927 61.0132 16.5547 60.7639C16.4167 60.5147 16.2244 60.3029 15.9935 60.1459C15.9137 60.0848 15.8197 60.0473 15.7212 60.0372C15.6228 60.0271 15.5236 60.0448 15.434 60.0886L14.4141 60.7054C14.1755 60.8704 14.0061 61.1242 13.9403 61.4151C13.8745 61.7061 13.9173 62.0124 14.06 62.2715C14.2027 62.5307 14.4345 62.7232 14.7082 62.8098C14.9819 62.8964 15.2769 62.8707 15.5331 62.7378L16.5545 62.1177Z" fill="#F5F5F5"/>
<path opacity="0.1" d="M15.9902 60.1442C16.2211 60.3012 16.4134 60.5129 16.5514 60.7622C16.6894 61.0114 16.7693 61.2912 16.7844 61.5788C16.7946 61.6819 16.7783 61.786 16.7373 61.8804C16.6963 61.9748 16.6321 62.0561 16.5512 62.116L16.632 62.0666L16.693 62.0299C16.7736 61.9702 16.8376 61.8891 16.8783 61.795C16.919 61.7008 16.935 61.5971 16.9247 61.4943C16.9097 61.2069 16.8301 60.9272 16.6923 60.6779C16.5546 60.4287 16.3626 60.2169 16.1319 60.0597C16.0518 59.9988 15.9576 59.9613 15.8591 59.9509C15.7605 59.9406 15.6611 59.9578 15.5709 60.0007L15.4307 60.0868C15.5203 60.0431 15.6195 60.0253 15.7179 60.0354C15.8164 60.0455 15.9104 60.0831 15.9902 60.1442Z" fill="black"/>
<path d="M13.8561 61.5948C13.8295 61.8417 13.8797 62.091 13.9994 62.3057C14.1483 62.5753 14.3935 62.772 14.681 62.8527C14.9686 62.9334 15.275 62.8915 15.533 62.7361L16.5499 62.116C16.6308 62.0561 16.695 61.9748 16.736 61.8805C16.777 61.7861 16.7933 61.682 16.7831 61.5789C16.7818 61.4575 16.7649 61.3369 16.7328 61.2202L15.0315 62.2499C14.4765 62.5879 13.8667 61.9806 13.8561 61.5948Z" fill="#EBEBEB"/>
<path d="M14.248 61.6411C14.2765 61.6919 14.3143 61.7363 14.3593 61.7719C14.4042 61.8074 14.4554 61.8333 14.5099 61.8481C14.5644 61.8629 14.6212 61.8663 14.677 61.8581C14.7327 61.85 14.7864 61.8304 14.835 61.8005L16.5562 60.7596C16.4208 60.5075 16.2261 60.2957 15.9906 60.1443C15.9683 60.1308 15.9454 60.1186 15.922 60.1077L14.3974 61.0274C14.2998 61.0881 14.2292 61.1868 14.2012 61.3019C14.1732 61.417 14.19 61.539 14.248 61.6411Z" fill="white"/>
<path opacity="0.1" d="M18.2923 59.5401L18.2527 59.4875L18.2222 59.4525L18.1856 59.4142L18.1475 59.376L18.1246 59.3632C18.0659 59.3095 18.0014 59.263 17.9326 59.2245C17.9084 59.2102 17.8835 59.1974 17.8579 59.1863C18.1734 59.3839 18.3716 60.2399 17.8121 60.5778C17.62 60.6942 17.3349 60.8711 16.745 61.2298C16.777 61.3465 16.7939 61.4671 16.7953 61.5885C16.8054 61.6916 16.7891 61.7957 16.7481 61.89C16.7072 61.9844 16.6429 62.0657 16.562 62.1256L17.9676 61.2744C18.2254 61.1187 18.4136 60.8624 18.4908 60.5617C18.568 60.261 18.5278 59.9406 18.3792 59.6709C18.3617 59.6394 18.3424 59.609 18.3213 59.58C18.3125 59.5661 18.3028 59.5528 18.2923 59.5401Z" fill="black"/>
</svg>
