<svg fill="none" height="70" viewBox="0 0 70 70" width="70" xmlns="http://www.w3.org/2000/svg" xmlns:xlink="http://www.w3.org/1999/xlink"><mask id="a" height="10" maskUnits="userSpaceOnUse" width="12" x="4" y="37"><path d="m15.7009 40.4056c0-.8719-.5503-1.7438-1.6526-2.4085-2.2029-1.3295-5.77335-1.3295-7.97628 0-1.10223.6647-1.65259 1.5366-1.65259 2.4085v2.6142c0 .8703.55036 1.7423 1.65259 2.407 2.20293 1.3294 5.77338 1.3294 7.97628 0 1.1023-.6647 1.6526-1.5367 1.6526-2.407z" fill="#fff"/></mask><path d="m35 70c19.33 0 35-9.0571 35-20.2296s-15.67-20.2296-35-20.2296-35 9.0571-35 20.2296 15.67 20.2296 35 20.2296z" fill="#f5f5f5"/><g fill="#e0e0e0"><path d="m26.7121 55.8977c7.5735 0 13.7131-3.7061 13.7131-8.2777 0-4.5717-6.1396-8.2777-13.7131-8.2777s-13.7131 3.706-13.7131 8.2777c0 4.5716 6.1396 8.2777 13.7131 8.2777z"/><path d="m10.06 59.8573c3.3468 0 6.06-1.6379 6.06-3.6583s-2.7132-3.6582-6.06-3.6582c-3.34685 0-6.06 1.6378-6.06 3.6582s2.71315 3.6583 6.06 3.6583z"/><path d="m49 61c6.0751 0 11-2.9101 11-6.5s-4.9249-6.5-11-6.5-11 2.9101-11 6.5 4.9249 6.5 11 6.5z"/><path d="m23.86 59.0762-1.0214-.6153-1.4056-.8512c-.3015-.1599-.6347-.2432-.9727-.2432s-.6712.0833-.9726.2432c-.5351.3188-.5336.8512 0 1.1748l1.4071.8464 1.0184.6169c.3014.1599.6346.2432.9726.2432s.6713-.0833.9727-.2432c.5427-.3236.5397-.848.0015-1.1716z"/><path d="m13.8865 61.971 1.0199-.6137 1.4056-.8496c.3014-.16.6346-.2433.9726-.2433s.6713.0833.9727.2433c.5366.3188.5336.8512 0 1.1747l-1.4087.8465-1.0184.6168c-.3014.16-.6346.2433-.9726.2433s-.6712-.0833-.9726-.2433c-.5397-.3251-.5382-.8512.0015-1.1747z"/></g><path d="m14.8736 24.2739c-2.9022 1.751-7.51764 5.2311-7.51764 12.7064s4.80484 13.3994 11.27564 15.8838c3.4616 1.3293 8.9433 1.8336 13.1274-.3997 3.6352-1.9435 6.0832-3.9439 7.416-7.5743 2.2358-6.0873 0-10.7793-3.3424-13.3004-3.3423-2.5211-4.7049-3.4727-7.5527-6.2927-1.445-1.4301-3.6072-2.3927-5.8886-2.6586-2.6071-.2756-5.2321.2955-7.5177 1.6355z" fill="#516eb4"/><path d="m14.8736 24.2739c-2.9022 1.751-7.51764 5.2311-7.51764 12.7064s4.80484 13.3994 11.27564 15.8838c3.4616 1.3293 8.9433 1.8336 13.1274-.3997 3.6352-1.9435 6.0832-3.9439 7.416-7.5743 2.2358-6.0873 0-10.7793-3.3424-13.3004-3.3423-2.5211-4.7049-3.4727-7.5527-6.2927-1.445-1.4301-3.6072-2.3927-5.8886-2.6586-2.6071-.2756-5.2321.2955-7.5177 1.6355z" fill="#fff" opacity=".75"/><path d="m15.6262 49.2339c-5.73431-4.8846-6.13764-12.6514-4.7348-17.3782 1.4818-4.9506 5.9623-8.68 11.4966-9.2172-.4013-.0455-.8046-.0687-1.2082-.0697-4.9872.8361-9.0924 4.5325-10.4935 9.2209-1.43447 4.7946-1.01361 12.6678 4.7996 17.6202 2.4831 2.1159 6.241 3.9531 9.2116 4.5838.3507.0073.7067.0037 1.0679-.011-3.572-.5317-7.686-2.6586-10.1392-4.7488z" fill="#516eb4"/><path d="m15.6262 49.2339c-5.73431-4.8846-6.13764-12.6514-4.7348-17.3782 1.4818-4.9506 5.9623-8.68 11.4966-9.2172-.4013-.0455-.8046-.0687-1.2082-.0697-4.9872.8361-9.0924 4.5325-10.4935 9.2209-1.43447 4.7946-1.01361 12.6678 4.7996 17.6202 2.4831 2.1159 6.241 3.9531 9.2116 4.5838.3507.0073.7067.0037 1.0679-.011-3.572-.5317-7.686-2.6586-10.1392-4.7488z" fill="#000" opacity=".05"/><path d="m55.6243 53.3506c.1538.3208.2239.6784.2032 1.0367-.0165.3145-.1966.7205-.1156 1.4289.0809.7085.2363.9313.3073 1.4324.0433.229.0422.4647-.0032.6933-.0455.2285-.1343.4452-.2612.6372-.2793.4768-.899.8535-2.1185.8086-.9915-.038-1.3848-.5667-1.4063-1.1732z" fill="#263238"/><path d="m55.3332 51.8801c.029.1319.0483.2659.0579.4009.038.2384.1058.4682.1652.7032.0144.061.0276.1232.0397.1866.0958.4717 0 .9624 0 1.4462.0083.5719.1653 1.13.2859 1.6864.2214 1.0021.2578 1.6743-.5817 2.3689-.4429.3663-.9271.3784-1.4873.3939-.4263.0121-.9832-.1175-1.2361-.3127-.3586-.2765-.3553-.508-.3569-.5979-.0331-1.066.3305-2.3049.4082-3.3675.0291-.287.0352-.576.0181-.864-.0347-.3455-.152-.7015-.1883-1.0574-.0262-.1319-.0099-.2692.0462-.3905.0569-.0674.1268-.1214.2052-.1584.0783-.0369.1633-.056.2493-.0558.4462-.0611.8934-.1083 1.3418-.1417.0526-.0108.1067-.0105.1592.0008.0524.0112.1023.0333.1465.0648.0876.0812.0893.2195.1124.3456s.1091.2574.2231.235c.0364-.0118.0688-.0344.0931-.0651.0244-.0307.0397-.0681.0441-.1077.0115-.0795.0429-.6911.0396-.7758.0066-.0121.1653-.0397.2148.0622z" fill="#37474f"/><path d="m40.5045 55.4155c-.0685.1894-.065.399.0099.5857.071.1728.9056.7154 2.0607.6825.8573-.026 1.6922-.2921 2.4176-.7706.4512-.2851.9122-.3231 1.4873-.3335.5751-.0103 1.2394-.2246 1.4344-.4959.0747-.2627.0747-.5424 0-.8051z" fill="#263238"/><path d="m44.6817 51.8474c-.0452.0856-.0855.1738-.1207.2644-.1411.328-.3594.6134-.6345.8293-.3985.2882-.8264.5293-1.2758.7188-.2826.1331-.5817.1728-.8692.2765-.3248.108-.6378.2517-.9337.4285-.466.2989-.5552 1.0972-.0512 1.4358.4329.292 1.5914.6376 2.8324.3266.6759-.1728 1.4476-.8864 2.3268-.921.5602-.0207 1.6211-.1399 1.9962-.5684.1388-.6393-.0115-.8207-.1371-1.365-.0661-.3069-.101-.6202-.1041-.9348 0-.1641.1041-.6393-.2281-.6911l-.033.3559s-.0628.121-.4082.1849c-.1124.0207-.2.1728-.2611.3145-.0463.1071-.0959.2453-.2082.2436-.0385-.0051-.0749-.0209-.1055-.0458-.0305-.025-.054-.0581-.0681-.0959-.0264-.0761-.048-.1541-.0644-.2333-.0443-.1243-.1139-.2371-.2041-.3305s-.1987-.1652-.3181-.2103c-.1987-.0696-.4044-.1148-.6131-.1347-.1652-.026-.2892-.0968-.4313.0431-.0323.033-.0611.0695-.0859.1089z" fill="#37474f"/><path d="m53.4596 24.5439c.4263 4.3611.5982 6.4345 1.1435 15.1359.44 1.6364.7197 3.3153.8346 5.0108.1189 2.1114.4065 8.4786.4065 8.4786s-1.6278 1.3995-3.5149.7516c0 0-1.7055-9.3546-2.3004-12.2678-.5701-2.8008-1.008-5.8643-1.008-5.8643l-.4082 3.905s.076 1.7382.0232 4.3351c-.0281 1.3823-.6611 8.9019-.6611 8.9019s-2.292 1.0696-3.8338-.3127c0 0-.1124-12.1848-.1355-13.4427-.0265-1.4324.2099-15.8547.2099-15.8547z" fill="#455a64"/><path d="m49.0214 35.7749-1.1667-6.393s-1.8062-.1642-2.8093-1.2095c0 0 .1768 1.0367 2.4474 1.6501l1.127 5.8937-.0132 3.974z" fill="#263238"/><path d="m55.7914 52.0133c-.6937.6302-1.5864.9689-2.5053.9503 0 0 1.5567-.2419 2.4887-1.3166z" fill="#37474f"/><path d="m48.0425 52.0322s-1.5914.5806-2.9365.1365c0 0 1.0377.7292 2.9134.1296z" fill="#37474f"/><path d="m46.1718 11.3709c-1.8988-.0207-2.264.9521-3.0423 1.994-.6445.8639-3.2191 4.1641-3.2191 4.1641s-.2991-.3974-1.0064-1.1473c-.5419-.6258-1.0421-1.2897-1.4972-1.987l-2.3995.4354s.4429 1.0643 1.322 2.8008c.8792 1.7365 1.8724 3.0756 2.4078 3.6458.7667.8138 1.6657.3456 2.4788-.3991.813-.7447 3.8966-3.5853 3.8966-3.5853z" fill="#ffa8a7"/><path d="m46.7142 11.3224c-.661-.1157-1.6757-.133-2.4309.4821s-1.5732 1.816-2.0144 2.438-1.6658 2.1857-1.8608 2.419c-.195.2332-.5436.2229-.7304.5736l.233.2869s.5503.3265.7272 1.6224c.0999.8143-.0185 1.6416-.3421 2.3896l-.3818.1365s.1008.3456.6825.1728.7618-.8207 1.3501-1.2648c.5883-.444 4.3231-4.0069 4.3231-4.0069z" fill="#516eb4"/><path d="m46.7142 11.3224c-.661-.1157-1.6757-.133-2.4309.4821s-1.5732 1.816-2.0144 2.438-1.6658 2.1857-1.8608 2.419c-.195.2332-.5436.2229-.7304.5736l.233.2869s.5503.3265.7272 1.6224c.0999.8143-.0185 1.6416-.3421 2.3896l-.3818.1365s.1008.3456.6825.1728.7618-.8207 1.3501-1.2648c.5883-.444 4.3231-4.0069 4.3231-4.0069z" fill="#000" opacity=".2"/><path d="m39.9106 17.5291c.2572.0074.508.0854.7272.2263.3652.235.5321.6704.7023 1.0367.1388.2955.3305.4613.1933.6687-.1371.2073-.2908-.0605-.385-.3715s-.347-1.2527-1.2378-1.5602z" fill="#000" opacity=".2"/><path d="m37.9132 11.7145c-.1262.2688-.1907.5646-.1884.864.0232.3766.2248.4958.6098.7395.262.1807.5036.3917.7205.6289l-.7337.6376s-.3437-.5477-.6048-.2678c-.1967.2108-.4743.5598-.6792.7429-.2049.1832-.7238.2005-.7238.2005-.0958.0681-.206.111-.321.1252-.1151.0141-.2317-.001-.34-.044-.3867-.1382-.5437-.9555-.4958-1.4912.0479-.5356 1.9632-2.5917 2.3747-2.4863s.3817.3507.3817.3507z" fill="#f28f8f"/><path d="m38.8726 14.9889c.1353.1877.3276.3217.5453.3801.3107.0501.6296-.0518.6907-.1987.0612-.1468-.033-.3006-.1883-.4475-.1139-.115-.2189-.2392-.314-.3715z" fill="#ffa8a7"/><path d="m40.5896 13.7932c.005-.0765.005-.1532 0-.2298-.0057-.072.0104-.1441.046-.2061.0355-.062.0888-.1108.1523-.1394l.3487-.1607-.4958-1.1871-.347.1607c-.062.0288-.1309.0369-.1974.0233s-.1274-.0483-.1744-.0993c-.0515-.0537-.1067-.1034-.1653-.1486-.266-.2056-.5222-.2505-.7188-.1589l-2.9399 1.3511c-.1983.0899-.3387.318-.3751.6618-.0203.3744.0439.7486.1875 1.0922.1435.3437.3623.6473.6388.8862.266.2039.5222.2505.7188.159l2.9399-1.3512c.2049-.083.3453-.311.3817-.6532z" fill="#516eb4"/><path d="m40.593 13.7882c.0087-.0762.0114-.1531.0083-.2298-.0057-.072.0104-.1441.046-.2061s.0888-.1108.1523-.1394l.3487-.1607-.4958-1.1871-.347.1607c-.062.0287-.1308.0368-.1974.0232-.0665-.0135-.1274-.0482-.1744-.0992-.0515-.0538-.1067-.1034-.1653-.1486-.266-.2039-.5222-.2505-.7188-.159l-2.9399 1.3512c-.1983.0916-.3305.3179-.3751.6618-.0203.3744.044.7486.1875 1.0922.1435.3437.3623.6473.6388.8862.266.2039.5205.2505.7188.1589l2.9399-1.3511c.1983-.083.3387-.3111.3734-.6532z" fill="#fff" opacity=".7"/><path d="m37.2669 15.8148c.4228-.1943.5023-.9778.1776-1.7501-.3247-.7722-.9306-1.2407-1.3533-1.0464-.4228.1943-.5023.9778-.1776 1.7501.3246.7722.9306 1.2408 1.3533 1.0464z" fill="#516eb4"/><path d="m35.7266 13.6655c.0694-.6912.5535-.9054 1.0824-.4977.2754.2399.4935.5436.6369.887.1435.3435.2083.7172.1893 1.0914-.0694.6912-.5536.9071-1.0807.4976-.2752-.2401-.4932-.5439-.6369-.8872-.1436-.3433-.209-.7169-.191-1.0911z" fill="#000" opacity=".05"/><path d="m39.7537 12.9983c-.4396.1555-.2149.4561-.9568.838-.742.3819-1.1452-.1728-1.8707-.1123s-.9089.3732-.9469.6652.542 1.2354 1.1568 1.1473l2.9745-1.3339c.0793-.0346.1917-.2143.1901-.5184-.245-.165-.4358-.4043-.547-.6859z" fill="#455a64"/><path d="m40.8248 13.3474c.0214-.3592-.0684-.716-.2561-1.0177l.2214-.1019-.147-.3456-.3124.1434-.0347.0173c-.0619.0287-.1308.0368-.1973.0232s-.1274-.0482-.1745-.0992c-.0519-.0538-.1071-.1041-.1652-.1503-.2644-.2005-.5156-.2437-.7123-.1538l-2.9398 1.3512c-.1983.0915-.3388.3179-.3735.66-.0308.5488.1204 1.0919.428 1.5378-.5519-1.1024-.2066-1.5896.1273-1.7434l2.8671-1.3184c.0514-.0299.1084-.0482.167-.0535.0587-.0054.1178.0023.1734.0224-.0195.0587-.0323.1196-.038.1815-.0142.2679.0323.5355.1357.7811s.2607.4622.4592.6322c.3702.2851.7205.1244.7717-.3663z" fill="#516eb4"/><path d="m40.5902 13.7934c.005-.0765.005-.1533 0-.2298-.0057-.0721.0104-.1442.046-.2062.0355-.0619.0888-.1107.1523-.1394l.3487-.1607-.0546-.1296-.4561.2229c-.0543.035-.0993.0837-.1308.1417s-.0484.1234-.0493.1901c-.0116.1382-.0099.5615-.1355.7222s-.7519.4112-1.1138.5788l-1.8558.8588c-.1688.0772-.3559.0994-.5369.0636-.181-.0357-.3475-.1278-.4777-.264.069.0796.1454.152.228.2159.2661.2039.5123.2523.7205.1573l2.9399-1.3512c.1983-.1002.3387-.3283.3751-.6704z" fill="#fff" opacity=".4"/><path d="m40.8262 13.6964-.0991.0467c-.0879.0307-.182.0363-.2726.0162-.0907-.02-.1746-.065-.243-.1302-.1981-.1705-.3552-.3871-.4585-.6326s-.1501-.513-.1364-.7808c.0091-.1065.0401-.2096.0909-.3024.0399-.0757.1018-.1363.1768-.1728l.1024-.0484c.0218-.0095.0445-.0164.0678-.0207.0791-.0126.1599-.0072.2369.0158.077.0229.1484.0629.2093.1172l.0132.0121c.1942.1705.3478.3858.4488.629.1009.2432.1464.5076.1329.7723-.0031.0837-.023.1658-.0586.2409-.0356.075-.0861.1414-.148.1945-.0193.0168-.0404.0313-.0628.0432z" fill="#f0f0f0"/><path d="m39.8909 13.0314.3503-.1607c.1405-.0639-.033.0588-.1404-.1952-.0926-.2212.3123-.6428.4131-.8536l-.0132-.0121c-.0609-.0543-.1323-.0943-.2093-.1172-.077-.023-.1578-.0284-.2369-.0158-.0233.0042-.046.0112-.0678.0207l-.1024.0484c-.075.0365-.1369.097-.1768.1728-.0508.0927-.0818.1959-.0909.3023-.0137.2679.0331.5353.1364.7808s.2604.4622.4585.6326c-.2198-.2384-.4545-.5408-.3206-.603z" fill="#e0e0e0"/><path d="m39.7208 12.1689c.0512-.4889.3999-.6496.78-.3576.1984.17.3556.3867.4587.6323s.1492.5133.1345.7811c-.0512.4889-.3999.6496-.78.3576-.1981-.1703-.355-.387-.4581-.6326-.1031-.2455-.1494-.513-.1351-.7808z" fill="#455a64"/><path d="m41.1567 13.5444-.1983.0915c-.0219.0111-.0453.0187-.0694.0225-.0793.0122-.1601.0065-.2371-.0168-.077-.0232-.1483-.0634-.2091-.118-.1792-.148-.3234-.3372-.4214-.5529-.1301-.2666-.1872-.5655-.1652-.8639.0091-.107.0401-.2107.0909-.3041.0281-.0517.0671-.096.114-.1296.0188-.0153.0393-.0281.0611-.038l.2033-.0933c.0872-.0304.1806-.0361.2707-.0163.09.0197.1734.0641.2416.1286l.0495.0415c.1835.1713.3277.3835.4221.621s.1365.4941.1233.7509c-.0003.0982-.0261.1945-.0747.2785s-.1182.1526-.2013.1984z" fill="#516eb4"/><path d="m41.1567 13.5444-.1983.0915c-.0219.0111-.0453.0187-.0694.0225-.0793.0122-.1601.0065-.2371-.0168-.077-.0232-.1483-.0634-.2091-.118-.1792-.148-.3234-.3372-.4214-.5529-.1301-.2666-.1872-.5655-.1652-.8639.0091-.107.0401-.2107.0909-.3041.0281-.0517.0671-.096.114-.1296.0188-.0153.0393-.0281.0611-.038l.2033-.0933c.0872-.0304.1806-.0361.2707-.0163.09.0197.1734.0641.2416.1286l.0495.0415c.1835.1713.3277.3835.4221.621s.1365.4941.1233.7509c-.0003.0982-.0261.1945-.0747.2785s-.1182.1526-.2013.1984z" fill="#fff" opacity=".7"/><path d="m39.9407 11.8061c-.0507.0934-.0817.1971-.0909.3041-.022.2984.0352.5973.1653.8639.071-.0294.1421-.0121.0793-.2955-.0512-.2367-.0992-.5978.0644-.8518.0812-.1129.2008-.1888.334-.212.1332-.0231.2699.0082.3816.0876l-.0496-.0415c-.0682-.0645-.1516-.1089-.2416-.1286s-.1834-.0141-.2707.0163l-.2032.0933c-.0219.01-.0424.0227-.0612.038-.0441.0334-.0808.0765-.1074.1262z" fill="#516eb4"/><path d="m40.0561 12.0137c.0513-.489.4-.6497.78-.3594.1984.1701.3557.3868.4591.6323.1033.2456.1499.5132.1358.7811-.0512.4889-.4015.6496-.7816.3594-.1979-.1705-.3547-.3873-.4578-.6328-.103-.2455-.1494-.5129-.1355-.7806z" fill="#516eb4"/><path d="m40.0561 12.0137c.0513-.489.4-.6497.78-.3594.1984.1701.3557.3868.4591.6323.1033.2456.1499.5132.1358.7811-.0512.4889-.4015.6496-.7816.3594-.1979-.1705-.3547-.3873-.4578-.6328-.103-.2455-.1494-.5129-.1355-.7806z" fill="#fff" opacity=".8"/><path d="m40.1521 12.0894c.0447-.4216.3454-.5598.671-.3093.1698.1457.3045.3311.3932.5412.0887.21.1289.439.1174.6683-.043.4199-.3437.5581-.6709.3076-.1694-.1457-.3038-.3308-.3925-.5405s-.1291-.4382-.1182-.6673z" fill="#516eb4"/><path d="m40.1521 12.0894c.0447-.4216.3454-.5598.671-.3093.1698.1457.3045.3311.3932.5412.0887.21.1289.439.1174.6683-.043.4199-.3437.5581-.6709.3076-.1694-.1457-.3038-.3308-.3925-.5405s-.1291-.4382-.1182-.6673z" fill="#fff" opacity=".7"/><path d="m40.3587 11.9947c-.0503-.04-.106-.072-.1653-.095-.0229.0609-.038.1249-.0446.19-.0112.2293.0291.4582.1178.6682.0887.2101.2232.3955.3928.5413.0503.0397.106.0712.1653.0933.0233-.0603.0383-.1237.0446-.1883.0115-.2294-.0287-.4583-.1174-.6684s-.2234-.3955-.3932-.5411z" fill="#516eb4"/><path d="m37.5345 15.0442.4957-.2246.4958-.2246.1438-.0674c-.2414-.2425-.4303-.5362-.554-.8613-.1237-.3252-.1794-.6743-.1632-1.0238.0347-.3456.1735-.5719.3701-.6618l-1.2989.5961c-.1966.0916-.3305.3179-.3701.6618-.0164.3491.0391.6979.1625 1.0228.1234.3248.312.6183.553.8605z" fill="#516eb4"/><path d="m38.0681 12.5853c.0347-.3455.1735-.5719.3701-.6617l-1.2989.5961c-.1966.0916-.3305.3179-.3701.6618-.0186.3767.0474.7527.1925 1.098.1452.3453.3656.6503.6437.8907l1.2988-.5961c-.278-.2404-.4984-.5454-.6436-.8907s-.2111-.7213-.1925-1.0981z" fill="#fafafa"/><path d="m38.2285 14.5723c-.0058.0022-.0123.0022-.0181 0-.2056-.2404-.3644-.5203-.4677-.8242-.0011-.0031-.0016-.0063-.0015-.0096.0001-.0032.0009-.0064.0022-.0094s.0031-.0057.0054-.0079.005-.0039.0079-.0051c.003-.0011.0061-.0016.0092-.0015s.0062.0009.009.0023c.0029.0013.0054.0033.0076.0057.0021.0024.0037.0052.0048.0082.0999.2986.2555.5735.4578.8087.0022.0022.0039.0049.0051.0079.0012.0029.0018.0061.0018.0093 0 .0033-.0006.0065-.0018.0094-.0012.003-.0029.0057-.0051.0079-.0028.001-.0056.0014-.0085.0011-.0028-.0003-.0056-.0013-.0081-.0028z" fill="#e0e0e0"/><path d="m38.0087 14.6726c-.0053.0022-.0112.0022-.0165 0-.2056-.241-.3644-.5215-.4677-.8259-.0017-.006-.0014-.0124.0011-.0181.0024-.0057.0067-.0103.0121-.013.006-.0023.0125-.0022.0184.0004.0058.0026.0105.0074.013.0134.0999.2991.2555.5745.4578.8104.0021.0021.0039.0046.005.0075.0012.0028.0018.0058.0018.0089s-.0006.0061-.0018.009c-.0011.0028-.0029.0053-.005.0074-.0029.0014-.006.0021-.0091.0021s-.0062-.0007-.0091-.0021z" fill="#e0e0e0"/><path d="m37.7903 14.7781c-.0026.0011-.0054.0017-.0082.0017-.0029 0-.0057-.0006-.0083-.0017-.2062-.2406-.3651-.5212-.4677-.8259-.0023-.0034-.0037-.0072-.0042-.0113-.0004-.0041.0001-.0082.0016-.012.0015-.0039.0039-.0072.0069-.0098.0031-.0025.0067-.0042.0106-.0049.0057-.0023.012-.0021.0176.0005s.0099.0074.0122.0133c.1003.2988.2559.5742.4577.8103.0022.0023.004.005.0051.008.0012.0029.0019.0061.0019.0093s-.0007.0064-.0019.0094c-.0011.003-.0029.0057-.0051.0079-.0053.0039-.0117.0057-.0182.0052z" fill="#e0e0e0"/><path d="m40.2729 12.7704c.1677-.0623.3465-.0847.5235-.0655.1769.0191.3475.0793.4995.176.2412.1573.3404.546.1008.7067-.2033.1383-.5255-.0242-.6148-.209-.2313-.1358-.411-.3505-.509-.6082z" fill="#37474f"/><path d="m40.6938 12.7843c.1428-.0259.2897-.0051.4207.0595s.2398.1699.3114.3016c.0942.1987.0248.4164-.1355.3939-.1603-.0224-.1239-.1607-.1091-.2263.0271-.0817.0271-.1706 0-.2523-.0925-.1831-.2412-.2557-.4875-.2764z" fill="#455a64"/><path d="m35.0075 14.8301c-.0989-.3251-.1545-.6629-.1653-1.0038-.0217-.1292-.0164-.2617.0155-.3884.032-.1268.0898-.2448.1696-.346.1339-.152.1934-.4872.2925-.6237.0898-.0901.2065-.145.3305-.1555-.0325-.1488-.0233-.3041.0265-.4476.0349-.075.0866-.1401.1508-.1897s.1388-.0824.2177-.0953c.1112-.025.2251-.0349.3387-.0294.0702-.1391.1815-.2506.3173-.3179.2231-.1089.6445-.3214.9172-.4337.0833-.0422.1783-.0514.2676-.026s.1668.0837.2182.1642c.1983.1898.3833.3942.5536.6116.1107.1728.3917.6134.1653.8-.1868.1504-.3421.0381-.6445-.2557-.1589-.157-.3278-.3025-.5057-.4354l-.3041.0484s.5784.4302.7239.5823c.1719.2031.3273.421.4643.6514.0793.1434.2148.311.0562.4769-.1586.1658-.4098.0898-.6329-.1089-.1251-.1694-.2657-.3256-.4198-.4665-.268-.2032-.5555-.3769-.8576-.5184-.114-.0121.4577.4441.6973.7033.1998.2345.3667.4974.4958.781.0958.2159.1653.3455.0678.4233-.0473.0414-.1023.0722-.1615.0905-.0592.0182-.1213.0236-.1825.0156-.0613-.0079-.1203-.029-.1734-.0618s-.0992-.0767-.1354-.129c-.3041-.3542-.3751-.5183-.5701-.6721-.2615-.1844-.5509-.3211-.856-.4043-.1884-.0329-.233.1727-.1124.2488.1206.076.2512.1728.3536.2453.1025.0726.3421.2316.471.3266.1934.1417.2727.2903.1868.451-.086.1606-.3487.1572-.5371.0708s-.9634-.5184-.9634-.5184-.0347.94.2049 1.2493c.2792.3594.7205.1728.7205.1728-.1029.0583-.2163.0937-.3329.1038s-.234-.0053-.3447-.0451c-.1224-.0407-.2337-.1112-.3248-.2059-.0911-.0946-.1593-.2106-.199-.3384z" fill="#ffa8a7"/><path d="m39.911 17.5291s.5685.2453.7271 1.3045c.1587 1.0592.0463 2.1304-.3453 2.7006-.1068.0989-.2331.1721-.3698.2144-.1368.0424-.2807.053-.4218.031-.2839-.0519-.5391-.2127-.7156-.451 0 0 .6892.1728 1.1353-.8639.4462-1.0367.1422-2.3223-.0099-2.9356z" fill="#455a64"/><path d="m53.6633 25.3869s.0975.788-.0264.9901c-.1239.2022-2.4342.8415-5.4385.5305-3.0043-.3111-3.9131-1.1335-4.0189-1.3167-.1058-.1831-.0859-.6099 0-1.0747z" fill="#516eb4"/><path d="m53.6633 25.3869s.0975.788-.0264.9901c-.1239.2022-2.4342.8415-5.4385.5305-3.0043-.3111-3.9131-1.1335-4.0189-1.3167-.1058-.1831-.0859-.6099 0-1.0747z" fill="#000" opacity=".2"/><path d="m44.097 15.2396c.1306-2.6972 1.17-3.7857 2.6127-3.9188l3.2455-.228c.6941.19 2.8622.7343 3.8008 1.0367.9387.3024.9552 2.5123.7354 3.974-.2198 1.4618-.6841 2.5918-.813 5.0523.038 2.336.6064 3.5663.0545 4.1866-2.0177 1.3373-7.4727.895-9.6045-.4476-.4511-.2332.0132-2.0077-.0314-3.4453-.0644-2.4691-.0396-5.2803 0-6.2099z" fill="#516eb4"/><path d="m51.2838 11.4398c-.4627-.1192-1.0906-.2834-1.322-.3456l-2.1565.1521c-.6181.3888-1.4427 1.3132-.4545 1.8211.9882.508 2.6176.0242 3.2572-.641.3784-.3957.5949-.6946.6758-.9866z" fill="#455a64"/><path d="m44.9543 3.80277c-.2677.11749-.4114.4717-.4197.7758-.0062.23464.0579.46543.1834.66004.1883.2499.4494.42884.7437.50972.1278.03045.2524.07445.3718.13131.1472.11047.2849.23419.4115.36976.1983.16069.3966.32657.5998.48207.4048.31374.8269.60222 1.2642.86393.4188.25051.8559.46601 1.3072.64449.4808.18661.8857.02246 1.3897.07084l-.0694 1.45658s.1653-.33521.3652-.73434c.1653-.34557.8693-2.09243.8693-2.09243.2743-.69114.6263-1.40819.5833-2.17536-.0331-.61857-.1537-1.1663-.6048-1.42893-.0364-.71361-.1934-1.06263-.6726-1.44621-.3534-.25263-.7598-.41264-1.1849-.46652-.4796-.05825-.9649-.04019-1.4393.05356-.7089.11749-1.4195.30756-2.1367.26955-.3841-.04309-.7724-.01797-1.1485.07429-.2398.07992-.448.23939-.5932.45422-.1453.21484-.2195.47332-.2116.73627 0 .28164.2082.73088.3916.79136z" fill="#455a64"/><path d="m49.5649 3.64213c0 .02419.2958.21425.7981.26263.3392.04735.6843.00395 1.0031-.12613.1395-.0759.2886-.13059.4429-.16242.076.04147-.043.15032-.0892.19179-.1619.14296-.3457.25629-.5437.33521-.1602.06418-.3263.11051-.4958.13822-.0694.0121-.1107.06912-.0495.12268.0599.05028.1347.07716.2115.07603.0991 0 .1966.01727.2958.01727.196-.00057.3914-.02199.5833-.06393.0215 0 .0529 0 .0612.01555.0047.01218.0047.02584 0 .03802-.0398.06358-.0976.11253-.1653.13995-.2181.10367-.4577.14687-.6792.2419-.026.00726-.0502.02027-.0711.03815-.0208.01789-.0377.04023-.0495.06552-.0055.02722-.0046.05541.0026.08218.0072.02678.0205.05134.0387.0716.0371.03922.0698.0827.0975.12959.0138.03075.0198.06468.0175.09856s-.0129.06657-.0307.09496c-.0294.03878-.0633.07361-.1008.10367-.0766.07565-.1393.16523-.1851.26436-.0525.10065-.0951.20658-.1273.3162 0 0-1.4228-1.03153-.965-2.49156z" fill="#e0e0e0"/><path d="m49.5648 3.64203c0 .4527.4148 1.25442 1.0295 1.81424-.0948.50451-.1065 1.02224-.0347 1.53088.0172.1086.0548.21256.1107.30583.0277.04732.0653.08747.1099.1174.0447.02993.0952.04887.1479.05538.1405.0121.1983-.07775.2429-.19352.0617-.14859.1335-.29237.2149-.43023.0334-.0638.0757-.12203.1256-.17279.2148-.20734.851-.46133 1.1452.24709.2941.70841-.2562 1.70366-.7701 1.85398-.8825.25745-1.0758-.37149-1.0758-.37149l.0165 3.0548c-.2479.7758-1.6195 1.5275-2.725 1.3823-1.1055-.1451-.7536-.8484-.3041-1.3201l-.0578-1.0574c-.3923.0414-.7881.0269-1.1766-.0432-.4594-.0933-.8362-.54254-1.0262-1.27342-.3619-1.39265-.3024-3.36758-.1322-4.24187.1702-.8743.6131-1.43585.8609-1.56544-.0082.18661.1389.63931 1.0296.76717.9452.1365 1.593-.1676 2.2689-.45961z" fill="#ffa8a7"/><path d="m47.7402 10.4584c.8164-.0761 1.479-.1936 1.9384-.4476.3306-.18656.628-.76539.7156-.97101 0 0-.0231.79309-.4743 1.23201-.6412.622-2.1565.622-2.1565.622z" fill="#f28f8f"/><path d="m48.1602 6.56567c.0003.06065.0177.11985.05.17023.0323.05039.078.08974.1315.11316s.1124.02988.1694.01857.1096-.03989.1511-.08219c.0416-.04229.0704-.09643.0827-.15568.0124-.05925.0079-.121-.0131-.17757-.0209-.05656-.0573-.10544-.1045-.14057-.0473-.03512-.1035-.05493-.1614-.05696-.0799-.00093-.157.03127-.2143.08955-.0572.05828-.0901.1379-.0914.22146z" fill="#263238"/><path d="m48.2773 5.55486.7139.31101c.0378-.10218.0363-.21563-.004-.31671-.0404-.10108-.1165-.18198-.2124-.22584-.0471-.02015-.0976-.03013-.1485-.02933s-.1011.01237-.1475.03401c-.0465.02163-.0883.05289-.123.09188-.0346.03899-.0613.0849-.0785.13498z" fill="#263238"/><path d="m48.4196 8.26416-.9684.41468c.0232.06816.0594.1307.1064.18388.0469.05318.1036.09589.1668.12558.0631.02969.1313.04575.2005.0472.0692.00146.1379-.01172.2022-.03873.1297-.05912.2325-.16834.287-.30486.0545-.13651.0565-.28976.0055-.42775z" fill="#f28f8f"/><path d="m45.5934 5.84865.7073-.28682c-.0167-.04818-.0424-.09235-.0758-.12985s-.0737-.06756-.1184-.08838c-.0448-.02081-.0931-.03196-.1421-.03276s-.0976.00875-.143.02809c-.0938.03735-.1701.11144-.2127.20657-.0426.09514-.0481.20386-.0153.30315z" fill="#263238"/><path d="m45.7759 6.5c.0003.06114.0179.12082.0505.17158s.0788.09035.1328.11381c.054.02347.1134.02977.1708.01813.0574-.01165.1102-.04073.1519-.0836.0417-.04288.0704-.09765.0825-.15747.012-.05983.007-.12205-.0146-.17888-.0215-.05684-.0586-.10577-.1066-.14069-.048-.03491-.1048-.05426-.1633-.05562-.0799-.00046-.1567.03218-.2137.09078s-.0894.1384-.0903.22196z" fill="#263238"/><path d="m47.349 7.94951-1.0907-.21598 1.0295-1.82289z" fill="#f28f8f"/><path d="m45.4353 16.3988c-.2693-.3801-.5486-.7378-.7552-.8121-.2065-.0743-.5056.4302-.3569.7827 0 0 .8626.1918 1.1121.0294z" fill="#f28f8f"/><path d="m43.1168 16.9343 4.8154-.8743.1174-.0639-.043.0968c-.0151.0347-.038.0651-.0668.0885-.0288.0235-.0626.0393-.0985.0462l-4.7725.864z" fill="#e0e0e0"/><path d="m43.1236 16.8965c-.0363.2177-.1008.6514-.8113.8414-.7106.1901-1.3915-.2799-1.3221-.7343z" fill="#ebebeb"/><path d="m42.5777 17.3907c-.5156.2004-1.165.1589-1.4493-.0899-.2842-.2488-.1008-.6583.4099-.8639.5106-.2056 1.1766-.1486 1.4608.1002.0478.045.0841.1017.1057.1651.0217.0633.0279.1313.0182.1977-.0297.178-.2231.3663-.5453.4908z" fill="#f5f5f5"/><path d="m48.0627 15.8563c-.0186-.0531-.0545-.0976-.1013-.1257-.0469-.0281-.1017-.0381-.1549-.0281l-4.9576.8985c-.1503.0276-.2131.1244-.1404.216.0544.0504.1193.0871.1895.1072s.1439.023.2153.0085l4.837-.876c.021-.0035.041-.0118.0585-.0243.0176-.0125.0322-.029.043-.0481.0107-.0192.0173-.0406.0192-.0628.0018-.0221-.001-.0444-.0083-.0652z" fill="#f5f5f5"/><path d="m41.1714 16.6649c.1071-.1016.2316-.1814.3668-.235.4958-.2073 1.1766-.1486 1.4609.1002.0133.0113.0255.0241.0363.038l4.7758-.8639c.0532-.01.108 0 .1549.0281.0468.0282.0827.0726.1013.1257.0098.0296.0098.0619 0 .0916-.0232-.197-.1801-.1573-.4115-.121s-4.68.8415-4.68.8415c-.2271-.1903-.5144-.2841-.8047-.2627-.4032.0156-.8263.121-.9998.2575z" fill="#fff" opacity=".1"/><path d="m41.1768 16.8914c.0391-.08.1016-.1448.1785-.1849-.0611.2592.228.4251.6412.4527.4726.0294.9617-.1987.9766-.4509.0151.0327.0251.0677.0298.1036.0264.3612-.7189.6912-1.2593.629-.5403-.0622-.6692-.3197-.5668-.5495z" fill="#000" opacity=".1"/><path d="m56.0841 20.7616c-.0281-.94-.3982-5.8298-.623-6.7542-.2247-.9244-.5602-1.4963-1.907-1.9508 0 0-1.5749 1.5171-1.2063 4.2626l.542 3.3417s-.4346 0-1.7038-.1555c-1.3418-.1555-2.8836-.2695-3.1232-.6911-.0695-.6134-.2132-1.3253-.276-1.6208-.0054-.0464-.0153-.0922-.0298-.1365-.0337-.0899-.0862-.1707-.1536-.2367-.3041-.2816-.4214-.2194-.8792-.2574-.4577-.038-1.0543-.1348-1.5831-.1953-.5288-.0604-.7734-.0622-.9023.0605-.0269.0323-.0467.0705-.0578.1118-.0112.0413-.0134.0846-.0066.1269s.0225.0825.0459.1177.054.0646.0896.0859l-.5702.1037c.0423.1336.1135.2552.2081.3553s.21.176.3373.2218l.4957.2073c-.2131.3283-.1553.6411.0992.8242-.0369.0495-.0638.1063-.0791.1669-.0153.0607-.0186.1239-.0098.186.0088.062.0296.1216.061.175.0315.0534.073.0995.1221.1356.1549.1237.3209.2313.4957.3214.0678.5857.2297.7758.3686.9382.309.3629.6411.4804 1.1237.5685.4825.0881 2.0689.5754 3.5959 1.0194 1.0394.3024 2.9745.9573 4.3395.8104s1.2146-1.2043 1.1865-2.1425z" fill="#ffa8a7"/><path d="m44.8779 18.5793c.1322.0968.9701.3802 1.0163.4234.0463.0432.038.1382-.1768.0397s-.6841-.2367-.8395-.4631z" fill="#f28f8f"/><path d="m45.5841 18.1698c.2066.064.661.1728.6742.0882.0133-.0847-.3519-.1296-.466-.1607-.3488-.0841-.6899-.1997-1.0196-.3456-.018.029-.0345.059-.0496.0899.3322.1434.7238.2851.861.3282z" fill="#f28f8f"/><path d="m46.6429 17.5791c.0198-.0778-.2545-.102-.3884-.1348-.1338-.0328-1.6525-.4389-1.9466-.5771l-.1355.0242 1.2377.4078c.276.0898.4131.1295.7618.2194.3487.0898.4528.1382.471.0605z" fill="#f28f8f"/><path d="m53.2883 11.9807c1.0047.1607 1.6079.5426 1.8888.9832.281.4406.4032 1.0954.5834 2.4604.1801 1.365.4825 5.5965.423 6.279s-.2545 1.2925-1.4443 1.2095c0 0 .3702-2.1771-1.8492-3.2604l-.3305-.019c-.0418-.2051-.0418-.417 0-.6221.0645-.4008-.4379-2.8371-.4379-2.8371-.1336-.7457-.0976-1.5138.105-2.2422.2027-.7285.5664-1.3969 1.0617-1.9513z" fill="#516eb4"/><path d="m53.2883 11.9807c1.0047.1607 1.6079.5426 1.8888.9832.281.4406.4032 1.0954.5834 2.4604.1801 1.365.4825 5.5965.423 6.279s-.2545 1.2925-1.4443 1.2095c0 0 .3702-2.1771-1.8492-3.2604l-.3305-.019c-.0418-.2051-.0418-.417 0-.6221.0645-.4008-.4379-2.8371-.4379-2.8371-.1336-.7457-.0976-1.5138.105-2.2422.2027-.7285.5664-1.3969 1.0617-1.9513z" fill="#000" opacity=".2"/><path d="m52.5571 19.642s.8626-.2678 1.5567-.0501 1.0312.0846 1.0989.254c.0678.1693-.1652.3455-.6924.1209-.5271-.2246-.818-.3836-1.9632-.3248z" fill="#000" opacity=".2"/><path d="m52.8901 19.6611-.3305-.019s1.0278 1.1749 1.1567 2.0613-.0082 1.1646-.0082 1.1646l-.2099-.0294s-.157.1728.3454.2471.8378.076.9188 0 .1206-.2592.1338-.6911c.0133-.432-.3883-2.3102-2.0061-2.7335z" fill="#455a64"/><path d="m33.6253 34.9266c-1.189-.4437-4.1841-.9168-4.982-1.1001-1.2433-.3099-1.4274-2.9814-2.2165-5.915-1.4029-5.2366-3.0425-4.7305-4.5594-4.6553-2.8145.1356-5.7588 1.7436-6.5479 3.8925s-1.096 5.4585-.6857 8.4233c.3893 2.8016 1.0662 4.1786 1.0662 4.1786-.6954-.0797-1.3982.0453-2.0294.3608-.6311.3156-1.1654.8091-1.5427 1.425 0 0 2.4849-1.3568 5.2731-.2952-.2929 2.5321.1 5.596 2.1218 6.5861.9891.4859 2.6638.0311 4.2385-.6216-.107 2.2002 1.9447 2.8823 2.7251 2.985 1.5782.2072.9662-2.3341.5383-4.1089-.363-1.5072 3.2565-3.1335 4.4752-3.3096 1.2188-.176 3.7247 2.446 4.363 1.1002.2981-.6289.1438-1.4302-.2175-2.1526-.5261-1.047-1.729-1.7107-1.729-1.7107 2.4427-1.3678 2.918-3.8834-.2911-5.0825z" fill="#000" opacity=".1"/><path d="m17.8538 42.5064c2.6515.2164 12.0016-2.5192 13.9411-8.6964 0 0-3.0442-1.5622-5.7869-1.6612-2.7426-.099-6.9688 1.8666-8.0665 5.4786-.4696 1.585-.5 3.2767-.0877 4.879z" fill="#516eb4"/><path d="m17.8538 42.5064c2.6515.2164 12.0016-2.5192 13.9411-8.6964 0 0-3.0442-1.5622-5.7869-1.6612-2.7426-.099-6.9688 1.8666-8.0665 5.4786-.4696 1.585-.5 3.2767-.0877 4.879z" fill="#000" opacity=".35"/><path d="m26.3162 33.0457-8.6698 1.4099s-.2104.9315-.1473 2.6953c.0649 1.7969.2999 6.3459.7243 7.4423.4243 1.0965.7487 2.2003 3.188 1.9931l1.7711-4.593.0369-3.095c.5404-.1693 1.068-.3808 1.5782-.6326 0 0 2.4743.2145 3.9403 0s3.1407-1.2505 3.1407-1.2505l2.0289-2.6256c-1.5642-.7572-7.5913-1.3439-7.5913-1.3439z" fill="#37474f"/><path d="m28.4765 37.831c-.9083.099-2.1604.1155-2.9618-.1723.4156-1.4669.1491-2.3323.1491-2.3323-.0544.4456-.1158 1.531-.7716 2.3139-.1368.0715-1.331.6564-1.5958.3924-.3885-.5809-.9593-1.0013-1.6133-1.1881.8154.6215 1.3608 1.2834 1.5362 2.0535 0 0 .8768-.3117 1.5782-.6325 1.2651.1154 2.5372.1234 3.8035.0238l2.3393-1.5328s-.9188-.2036-2.4638 1.0744z" fill="#263238"/><path d="m23.1916 41.2488c-.7579.2017-1.4544.6017-2.0236 1.1625 0 0 .2665-1.3513 2.0236-1.7345z" fill="#263238"/><path d="m27.2633 40.3796c-1.0381 1.8189-1.3222 2.2736-1.9044 2.7412-.4051.3245-1.0066.7334-.6594 1.7473.2192.6473-.0122 1.1973-.0193 1.8739-.0214.3671.0402.7344.1797 1.072s.3531.6362.6235.8715c.3234.3448.7083.6202 1.1328.8104.4069.1724.6471.1431.847.0367.115-.0702.21-.1714.275-.2929.0651-.1216.0979-.2591.095-.3983-.0328-.3945-.1105-.7836-.2315-1.1588-.1844-.5814-.3205-1.1782-.4068-1.784-.0601-.3524-.0261-.7153.0982-1.0488.3349-.7939 2.1482-2.798 2.1482-2.798z" fill="#f0f0f0"/><path d="m26.616 49.5031c-.4245-.1902-.8094-.4656-1.1328-.8104-.3132-.2774-.5494-.6377-.6839-1.0433.1414-.2425.347-.4369.592-.5596.245-.1228.5187-.1685.7881-.1316.4905.077.9581.2688 1.3678.5611.0175.0568.0351.1136.0544.1705.1209.3752.1986.7643.2314 1.1588.0029.1392-.0299.2767-.0949.3983-.0651.1215-.1601.2226-.2751.2929-.1999.1064-.4401.1357-.847-.0367z" fill="#516eb4"/><path d="m24.7608 45.11c-.0151-.0797-.0356-.1581-.0613-.2347-.3508-1.0195.2542-1.4228.6593-1.7474l.1035-.0862c.0846.1839.1335.3834.144.5871s-.0176.4075-.0828.5998-.1662.3691-.2971.5204-.2891.2739-.4656.361z" fill="#516eb4"/><path d="m27.2948 48.5022c.0158-.9626-.7716-2.9484-.833-3.4691s.7628-1.4393.7628-1.4393c-.2907-.1227-.5378-.3368-.7071-.6127s-.2525-.6-.2381-.9275c.2473-.3832.5489-.9057.9838-1.6666l2.178 1.6721s-1.8132 2.0041-2.1482 2.798c-.1243.3335-.1583.6964-.0982 1.0488.0863.6058.2224 1.2027.4069 1.784.1209.3753.1986.7643.2314 1.1588.0029.1392-.0299.2768-.095.3983-.065.1215-.16.2227-.275.2929-.1999.1064-.4401.1357-.847-.0366l-.0228-.011c.3578.055.6874-.1284.7015-.9901z" fill="#000" opacity=".1"/><path d="m32.14 34.0156c2.8917.1357 3.5476 1.9216 3.0373 3.2344-.5507 1.4155-2.8865 3.0895-4.242 4.2666-1.2468 1.0854-2.9373 2.2644-2.9373 2.2644s-1.6834-.8471-1.708-1.9729c1.1802-2.0499 2.1166-4.1254 4.6523-5.0514z" fill="#37474f"/><path d="m27.6089 40.3963c1.9623-.5171 2.455-.6729 3.0565-1.1203.4139-.3136.9557-.7995 1.7904-.1596.5261.4071 1.1013.3319 1.7221.5189.3423.0844.6609.2516.9302.4882.2692.2366.4816.536.6199.8742.2237.4228.3655.8876.4174 1.3678.0421.4565-.0561.6894-.2087.8581-.0977.0953-.218.1615-.3484.1918s-.2663.0236-.3934-.0195c-.3515-.1466-.6853-.3362-.9942-.5647-.4803-.3503-.9884-.657-1.5187-.9168-.3047-.1622-.6465-.2326-.9872-.2035-.8242.1082-3.1811 1.3476-3.1811 1.3476z" fill="#f0f0f0"/><path d="m36.145 42.3654c-.0519-.4802-.1937-.945-.4174-1.3679-.1647-.393-.4269-.7329-.7593-.9846-.2628.072-.5.2223-.6828.4326-.1827.2102-.3031.4714-.3465.7519-.071.5133-.0296 1.0368.121 1.531l.1403.1027c.309.2285.6427.4181.9943.5647.1271.0431.2629.0498.3933.0195s.2507-.0965.3484-.1919c.1526-.1686.2508-.4015.2087-.858z" fill="#516eb4"/><path d="m32.6517 39.2448c-.0682-.0381-.1338-.081-.1964-.1284-.8347-.6399-1.3766-.154-1.7904.1596l-.1087.0788c.1441.1373.3129.2435.4965.3123.1835.0689.3783.099.5731.0888s.3857-.0606.5618-.1484c.1761-.0877.3338-.211.4641-.3627z" fill="#516eb4"/><path d="m35.0319 42.7633c-.8768-.2585-2.4779-1.619-2.9373-1.8336-.4595-.2145-1.5379.3503-1.5379.3503-.0291-.3266-.1543-.6356-.3585-.8846-.2041-.2489-.4772-.4254-.7814-.5053-.4226.1376-.9872.2916-1.8079.5079l.9048 2.6605s2.3569-1.2395 3.1811-1.3477c.3407-.0291.6825.0414.9872.2036.5303.2597 1.0384.5664 1.5187.9167.3089.2286.6427.4181.9942.5647.1271.0431.263.0499.3934.0196s.2507-.0966.3484-.1919c.1526-.1687.2508-.4016.2087-.8581-.0008-.0085-.0008-.0171 0-.0257-.0614.3722-.3262.6473-1.1135.4236z" fill="#000" opacity=".1"/><path d="m19.0459 45.4621c.1999 1.0286 1.3275 1.4833 3.6826.8893 2.355-.5941 7.5562-3.9549 7.5562-3.9549s.1192-1.9271-.9084-2.5193c0 0-1.245.2127-3.4616.8141-.7277.198-2.5041.2952-3.53.9002 0 0-1.6185 1.2945-2.085 1.9601-.7768 1.1093-1.2538 1.9105-1.2538 1.9105z" fill="#37474f"/><path d="m24.5662 21.4263c.0651.1282.1062.2683.121.4126.0228.1352.0228.2736 0 .4089.0888-.001.1753.0294.2455.0861.1119.0886.2005.2053.2578.3392.0878.2048.0978.4369.028.6491.1015.059.1899.1396.2597.2365.0698.097.1193.2082.1454.3264.0299.1611.0208.3275-.0263.4841-.0472.1566-.1309.2983-.2437.4125.0817.088.1442.1936.183.3094s.053.2391.0417.3612c-.0114.1221-.048.2402-.1074.3461-.0594.1058-.1402.1968-.2366.2668-.0603.0315-.1116.0789-.149.1375-.0544.1118.0228.2402.0491.3667.0143.1106.0038.2231-.0306.3287-.0344.1057-.0917.2015-.1676.28-.1514.1538-.2866.324-.4033.5079-.0561.0933-.0812.2034-.0714.3131s.054.213.1257.2938c-.1722-.109-.3133-.2642-.4088-.4494-.0955-.1853-.1417-.394-.134-.6043.0076-.2103.069-.4146.1778-.5917.1087-.1771.2608-.3206.4404-.4155-.1231-.193-.2078-.41-.249-.638-.0188-.1146-.0049-.2324.04-.3388.0449-.1063.1189-.1964.2125-.259-.2209-.0568-.4121-.3447-.4927-.55-.0876-.2228-.1036-.4692-.0456-.7023-.1531-.0486-.2822-.1572-.3604-.3032-.0781-.1459-.0992-.3179-.0587-.4797-.2012-.1378-.3431-.3523-.3955-.5978s-.0112-.5026.1149-.7168c.0509-.0752.0842-.1614.1333-.2366.0834-.1092.1828-.2039.2946-.2805.0663-.0635.1494-.1044.2385-.1173.0972.005.1889.049.256.1228.0874.0835.1603.1821.2157.2915z" fill="#37474f"/><path d="m18.5339 24.0889c-.954.3264-1.0872.8379-1.1241 1.4668-.0543.8966.0544 1.5714.1456 2.3524.0912.7811.4647 3.5479.4647 3.5479-.3613 1.025-.5524 2.2919-.6261 3.7276 4.6523 1.2376 8.149-.7334 8.6453-1.7749 0 0-.1894-.693-.3946-1.2724.1461-1.8714.1344-3.7525-.0351-5.6216-.2244-1.7951-.7014-2.7632-1.473-2.9594-.2195-.032-.4414-.0424-.6628-.0311l-2.8058.1082c-.7232.0837-1.4376.2365-2.1341.4565z" fill="#455a64"/><path d="m22.4531 23.1168c1.0689.7047 1.8657 1.7812 2.2499 3.04.4226 1.3953.1561 4.4866.2963 4.879.1403.3923-.0368 1.9912 1.1206 3.2471 1.0329 1.1203 1.5291 1.3184 1.8571 1.4925.5383.2879.8031.1412 1.2959-.4987.6453-.8379 1.0328-1.2614 1.8325-1.5896l.6891.1228s-.1122-.5024-.7838-.7022c-1.0995-.3264-2.8636-.8196-3.3687-1.4797l.9505-2.048s-1.0873-2.765-1.7431-4.3015c-1.0101-2.3671-1.7939-2.7503-2.7935-2.7265-.9995.0239-1.5958.0642-1.5958.0642z" fill="#516eb4"/><path d="m26.5545 29.3858-.2596-2.9446.7208 2.9538z" fill="#000" opacity=".1"/><path d="m22.4531 23.1168v-.8856c.2507.0509.4979.1188.74.2035.2663.1038.5172.2464.7453.4236.491.3777 1.2801 1.5823 1.5292 2.5761.249.9937.2051 3.1591.0192 4.3143-.1858 1.1551-.284 2.6384-.284 2.6384-.0826-.179-.1472-.3664-.1929-.5592-.0575-.2596-.0928-.5241-.1052-.7903-.0579-.627.0333-3.4195-.3893-4.8148-.4227-1.3953-1.1574-2.5284-2.0623-3.106z" fill="#ebebeb"/><path d="m20.2876 22.3761c-1.1013-.3466-1.8974-1.2285-2.2674-2.6367-.5594-2.1287.7014-3.2893 1.2924-3.3975 0 0 .249-1.0249 1.48-1.6502.5408-.2573 1.1322-.3769 1.7257-.3488.5935.028 1.1722.2029 1.6886.5102.552.2984 1.0068.7618 1.3064 1.3311.3126.6579.3999 1.408.2472 2.1251-.1429.477-.4414.8865-.8434 1.1569-.4001.2673-.8372.4683-1.2959.5959-.2824.0899-.5665.1687-.8488.2604-.1491.0356-.2942.0872-.4331.154-.0888.072-.1705.1531-.2438.242l-1.4029 1.3807c-.1034.1045-.284.2769-.405.2769z" fill="#37474f"/><path d="m20.0872 19.7139c-.0112.0118-.0235.0223-.0369.0312-.2016.1339-.1946-.231-.3893-.4749-.0532-.0626-.1194-.1117-.1936-.1434-.0742-.0318-.1543-.0455-.2342-.0399-.1303-.0056-.2592.0292-.3706.0999-.1114.0708-.2003.1745-.2555.2979-.0476.1269-.0705.2624-.0672.3987.0032.1362.0325.2704.0861.3946s.1304.236.226.3287c.0955.0927.2078.1644.3303.211.149.0576.312.0626.4639.0142.152-.0483.2847-.1473.3778-.2819l.1631 3.2307s.5261 1.3055 1.929 1.4797c1.4028.1741 1.3467-.9993.8768-1.5787v-.9919c.3483.0076.6957-.0419 1.0293-.1467.3311-.1225.6248-.3356.8502-.6171.2255-.2816.3746-.6213.4317-.9836.0965-.5244-.0543-.9919-.0491-1.5218.0296-.3659.0349-.7335.0158-1.1001.0046-.1753-.0446-.3475-.1403-.4914-.1045-.1096-.2374-.1848-.3823-.2164-.1891-.0364-.3821-.0444-.5734-.0238-.5103.033-1.1188.2493-1.6256.1833-.4708-.0629-.9179-.2524-1.2976-.55-.0104.3804-.0945.7547-.2473 1.1001-.0836.1629-.2007.3043-.3429.414-.1423.1097-.3061.185-.4795.2204.0404.1965.0349.4002-.0158.594-.0135.0603-.0405.1162-.0789.1632z" fill="#ffa8a7"/><path d="m22.4407 19.1657c.0174.0403.0271.0837.0284.1278.0014.0441-.0056.088-.0205.1293s-.0374.0791-.0663.1113-.0636.0581-.102.0763c-.0385.0182-.08.0282-.1222.0296-.0421.0015-.0842-.0058-.1237-.0214s-.0756-.0392-.1064-.0693c-.0308-.0302-.0556-.0665-.073-.1067-.0771-.1833.0386-.2805.2017-.3575s.3069-.0954.384.0806z" fill="#263238"/><path d="m24.0926 19.0485c-.0177.0427-.0268.0888-.0267.1354.0001.0465.0095.0926.0274.1352.018.0426.0442.0808.077.1123s.0715.0556.1136.0707.0868.0209.1312.0171.0875-.0172.1267-.0393c.0392-.0222.0736-.0525.101-.0892s.0473-.0789.0583-.124c.0597-.1834-.0648-.2769-.2332-.3374-.1683-.0605-.3156-.0623-.3753.1192z" fill="#263238"/><path d="m22.3832 18.5972-.726.2952c-.0359-.1037-.032-.2179.0108-.3187.0428-.1009.1213-.1804.2189-.2222.0479-.0193.0991-.0283.1504-.0263.0514.002.1018.0149.1482.0378.0464.023.0879.0556.1218.0959.034.0403.0598.0873.0759.1383z" fill="#263238"/><path d="m24.7611 18.6763-.7435-.2677c.0142-.0515.0384-.0995.0711-.1409.0326-.0414.0729-.0755.1186-.1.0456-.0246.0956-.0391.1468-.0428.0512-.0036.1026.0037.151.0215.0995.0372.1816.1129.2292.2115s.0572.2126.0268.3184z" fill="#263238"/><path d="m23.1685 18.823.1052 1.7033.8996-.3685z" fill="#f28f8f"/><path d="m23.7667 19.7467c-.3998.2219-.4928.7793-.4928.7793l.8996-.3667-.3349-.4437c-.0249.008-.0489.0184-.0719.0311z" fill="#000" opacity=".15"/><path d="m21.9058 20.0017c.0702.2475-.1402.5317-.4717.6362-.3314.1045-.6558-.0128-.7277-.2604-.0719-.2475.1403-.5335.4717-.6362s.6558.0128.7277.2604z" fill="#f28f8f"/><path d="m25.9007 20.0551c-.0298.2567-.3315.429-.6752.385s-.5962-.2879-.5664-.5501c.0298-.2621.3332-.4272.6752-.3832.3419.044.5962.2916.5664.5483z" fill="#f28f8f"/><path d="m22.9954 22.6918s-1.075-.0697-1.8781-.5812c-.3333-.2399-.5913-.5773-.7418-.97.072.3432.2144.666.4173.9461.7681.8893 2.2026.9461 2.2026.9461z" fill="#f28f8f"/><path d="m27.216 20.6584-3.0898.8361c-.121.0476-.1509-.198 0-.2494l3.0863-1.1753z" fill="#516eb4"/><path d="m26.6984 20.4382-2.5708.8875c-.0386.0146-.0438.1081 0 .099.0895-.022 2.6304-.7664 2.6304-.7664z" fill="#f28f8f"/><path d="m26.4863 20.3484.726-.2769v.5868l-.5436.1485c-.1062-.1284-.1701-.2891-.1824-.4584z" fill="#000" opacity=".2"/><path d="m26.7617 20.2109c0 .1592.0452.3148.1298.4472.0845.1324.2048.2356.3454.2965.1407.0609.2955.0768.4448.0458.1494-.0311.2865-.1077.3942-.2203s.181-.256.2107-.4121c.0297-.1562.0144-.318-.0438-.4651-.0583-.1471-.157-.2728-.2836-.3612-.1266-.0885-.2754-.1357-.4277-.1357-.204.0005-.3995.0854-.5438.2363-.1443.1508-.2255.3553-.226.5686z" fill="#516eb4"/><path d="m27.0825 20.2108c0 .0929.0263.1836.0757.2608.0493.0772.1194.1374.2014.1729.0821.0355.1723.0448.2594.0267s.1671-.0628.2299-.1285c.0628-.0656.1055-.1492.1228-.2403.0174-.091.0085-.1854-.0255-.2712s-.0915-.1591-.1654-.2106c-.0738-.0516-.1606-.0791-.2494-.0791-.059-.0003-.1175.0117-.172.0352-.0546.0235-.1042.0581-.1459.1017s-.0748.0955-.0973.1525c-.0225.0571-.0339.1182-.0337.1799z" fill="#f28f8f"/><path d="m24.1824 21.3842c-.0846-.0751-.1925-.1154-.3034-.1136-.0642.0001-.1273.0165-.1841.0476-.0394.0163-.0757.0399-.107.0697 0 0-.0088.0238 0 .0293.0102.0037.0213.0037.0315 0h.0491c.0314-.0054.063-.0091.0947-.011h.0526.0491.0193c.037.0069.0729.0186.107.0349.0333.0147.0637.0358.0894.0623.018.0227.0344.0465.0491.0715.0149.0202.035.0354.0579.044.0098.005.0205.0078.0314.008.0109.0003.0217-.0019.0317-.0064.01-.0046.019-.0113.0262-.0198.0073-.0085.0127-.0185.0159-.0294.0008-.0214-.0028-.0426-.0105-.0624-.0234-.0492-.0576-.092-.0999-.1247z" fill="#b16668"/><path d="m17.2992 17.5981-.9908-.3319.4367-.5629-2.0342-.5574.7295-.6509-2.2148-.7352 1.3941.8746-.8838.6985 2.3744.5758-.4437.671z" fill="#f28f8f"/><path d="m17.5414 16.2652-.6926-.4731.277-.3099-.6278-.539.463-.2732-.3139-.7774.5015.8086-.3191.2237.6698.5335-.3279.352z" fill="#f28f8f"/><path d="m17.5797 18.5039-.9487 1.1166-.5191-.55-.8715.7352-.5348-.7004-1.4292.6876 1.5835-1.201.6225.6216.726-.6069.4419.5372z" fill="#f28f8f"/><path d="m20.3451 14.2024c.2483-.3154.5341-.5964.8505-.8361.4145-.2944.9187-.4179 1.4151-.3466.2458.0384.4799.1348.6847.2819s.3748.341.4973.5671c.1236.2673.1846.5615.1779.8584-.0067.2968-.0809.5877-.2165.8486-.3418.6424-.8564 1.1658-1.48 1.5053-.7015.4254-1.4327.8343-2.2464.9846-.6367.138-1.2996.0298-1.8658-.3043-.4805-.3136-.5998-1.1313-.2683-1.6026.2174-.3098.5787-.4638.9048-.6435.4625-.2549.8838-.584 1.2486-.9755.1017-.11.1999-.2236.2981-.3373z" fill="#516eb4"/><path d="m17.8941 16.1587c.2175-.3098.5787-.4639.9049-.6436.0526-.0275.1034-.0586.1561-.0898-.8172.6124-.5524 1.2541.0473 1.5237.5997.2695 1.9132.132 3.2705-.8728 1.6922-1.2541 1.2994-2.5101.9294-2.8328.2483.1474.4529.3638.5909.6252.1237.2673.1846.5616.1779.8584-.0067.2969-.0809.5878-.2165.8487-.3417.6424-.8564 1.1658-1.48 1.5053-.7014.4254-1.4327.8342-2.2463.9846-.6367.138-1.2997.0298-1.8659-.3044-.4805-.3135-.5909-1.1313-.2683-1.6025z" fill="#000" opacity=".1"/><path d="m19.5455 14.9412c.1149-.0841.2431-.1462.3788-.1833l.4472-.2164.1613.3667c.0213.0618.0264.1284.0146.1929-.0117.0645-.0398.1245-.0813.1738-.1067.141-.2439.2536-.4002.3285-.1564.0748-.3275.11-.4993.1024-.0618.0002-.1226-.0166-.1762-.0488s-.0981-.0786-.129-.1346l-.1613-.3667z" fill="#37474f"/><path d="m20.3046 14.9063c-.1064.1409-.2433.2533-.3994.3282-.156.0749-.3268.1101-.4984.1027-.3156-.0312-.4226-.275-.2402-.5501.1066-.1412.2437-.254.4001-.3292.1563-.0752.3275-.1107.4995-.1035.3103.0385.4208.2824.2384.5519z" fill="#455a64"/><path d="m29.2076 30.0842c.3507-.0862.5576.3429.491 1.0304-.0667.6876-.5261 1.9418-1.5239 1.5549s1.0329-2.5853 1.0329-2.5853z" fill="#f28f8f"/><path d="m25.9058 28.7347c.0648-.1631.2507-.3025.5576-.3868.8195-.1762 1.6722-.0383 2.4024.3887.2666.1833.4051.3667.4191.55-.0526 1.1405-.4366 2.4093-.9241 3.0675l-.0105.0129c.0007.003.0007.0061 0 .0091-.0929.1173-.2139.2065-.3507.2586-.3044.1047-.628.1327-.9447.0817-.3166-.051-.6172-.1795-.8773-.3751-.1194-.0948-.2121-.2215-.2683-.3667 0 0 0 0 0-.0092.001-.006.001-.0122 0-.0183-.2736-.7811-.2736-2.1122 0-3.2142z" fill="#f5f5f5"/><path d="m26.4637 28.3481c-.7014.1944-.7803.6839-.1613 1.1001.7302.427 1.5829.5649 2.4024.3887.7015-.1943.7804-.682.1613-1.0909-.7291-.4301-1.5819-.5713-2.4024-.3979z" fill="#fafafa"/><path d="m26.6672 28.5756c-.5647.11-.6103.429-.1053.7132.6007.2966 1.2706.4054 1.929.3136.5647-.1119.612-.4309.1052-.7133-.6003-.2977-1.2705-.4067-1.9289-.3135z" fill="#e6e6e6"/><path d="m26.6038 29.0118c-.1005.0174-.198.0501-.2893.0972.0729.074.1563.1358.2472.1833.6007.2965 1.2705.4054 1.929.3135.1006-.0176.1982-.0509.2893-.099-.0734-.0734-.1567-.1352-.2472-.1833-.6006-.2972-1.2707-.4054-1.929-.3117z" fill="#516eb4"/><path d="m27.7626 27.9116c-.2033-.1309-.3553-.3334-.4285-.571-.0733-.2376-.0631-.4948.0287-.7253.2139-.5189.6541-.8819.4068-1.2413 0 0 .5261.242.4262.7903-.1351.7316-.705.8801-.4332 1.7473z" fill="#fafafa"/><path d="m28.0367 27.9116s-.1421-.4529.0421-.7683c.1841-.3153.4524-.495.4401-.8415.0836.0982.1394.2189.1611.3484.0217.1296.0084.2629-.0383.385-.1754.3923-.5489.451-.605.8764z" fill="#fafafa"/><path d="m16.8699 32.7412c-.2841-1.4668-.2244-1.8335-.5015-5.0605-.1894-2.1783 1.2065-3.3224 2.6304-4.1585 1.708 2.0957.3191 4.7379.3191 4.7379l.4998 3.1481s4.4559-.0697 4.8224-.33c.3016-.2145.7014-1.1551 1.0697-1.1295-.0194.2495-.0247.4999-.0158.7499-.0123.1577.7804.3502 1.587.3374.8067-.0128 2.0535-.6014 1.8343.3667-.1473.6509-.3192 1.1203-.8575 1.4302-.9768.5592-2.0132.4125-3.0215.4987s-3.7579.5501-5.4361.5501c-1.5449.011-2.6988.022-2.9303-1.1405z" fill="#ffa8a7"/><path d="m20.119 22.6899c-1.352.7335-2.5918 1.3899-3.0758 1.9601-.3875.4547-.8645.9332-.8645 2.5394 0 1.0213.0561 4.9157.4331 6.4852.0912.3795.335.5024.7015.6124-.014.8673-.3648 1.0396-.3227 3.5974.0491 3.1317-.1438 3.8504.1228 4.2336.088.1163.1992.2113.3257.2784.1266.0671.2655.1047.4073.1103l-.093-.9626c.2052-.7847 1.0206-1.7107 4.2192-1.9032 1.5519-.0917 2.5111.0569 2.6883-.0843.619-.4969.0228-6.1589.0228-6.1589-.1593-.1426-.3013-.3052-.4227-.484-.4033-.6344-.5769-1.5145-.2893-1.6997l.1982-.0238c-.1276-1.3211-.5814-2.5848-1.317-3.6671-1.2065-1.7455-2.7321-2.6494-2.7339-4.8332z" fill="#516eb4"/><path d="m19.5962 34.23 5.1731.0128c-.0491-.5757-.0789-.8434-.0789-.8434z" fill="#000" opacity=".1"/><path d="m20.9817 24.8148c-.6488-.8856-.8505-2.1397-.8505-2.1397l-.0158-.3209c-.374.1449-.7251.3477-1.0416.6014-.4384.3796-.3507.7481.0175 1.7052.363.9168 1.8098 2.4991 2.7883 3.3407s2.199 2.4459 2.2972 3.1885c.0877-.0128.1753-.0256.2543-.044-.335-3.7844-2.7988-5.4456-3.4494-6.3312z" fill="#ebebeb"/><path d="m23.979 31.2119s-3.8193.0385-3.9789.0641c-.1596.0257-.484-3.0179-.484-3.0179s.584 2.2955.747 2.5266c.1631.231 3.7159.4272 3.7159.4272z" fill="#000" opacity=".1"/><path d="m18.5283 21.5198c-.0394.1397-.0536.2858-.0421.4309.0022.1365.0265.2716.0719.3997-.087.0183-.1659.0659-.2245.1357-.1173.1391-.1897.3134-.207.498s.0214.3702.1106.5306c-.0883.0782-.16.1749-.2105.2838-.0504.109-.0785.2278-.0824.3487.0006.1642.0403.3257.1156.4698.0754.1441.1839.2662.3158.3553-.0657.1028-.1091.2195-.1269.3417-.0178.1223-.0097.2472.0238.3658.0334.1186.0914.2281.1699.3206.0784.0926.1754.166.2839.2151.0663.019.1267.0556.1754.1063.0736.099.0228.2402.0193.3667.0083.1099.0402.2164.0934.3117.0531.0952.1261.1767.2135.2384.1766.1203.3406.2598.4892.4162.0723.0803.1173.1832.128.2929.0108.1096-.0132.22-.0684.314.1473-.1418.2558-.322.3144-.5221s.0652-.4129.0191-.6165c-.046-.2037-.1431-.3908-.2812-.5423-.1381-.1514-.3123-.2617-.5047-.3195.0858-.2148.1287-.4457.1263-.6784-.0026-.1164-.0381-.2294-.1021-.3247s-.1536-.1687-.2574-.2107c.2069-.099.3507-.4199.3823-.6381.0453-.2364.0151-.4818-.086-.6985.1429-.0773.2512-.21.3016-.3697.0505-.1597.0392-.3337-.0315-.4848.3507-.3502.4103-1.0506.0614-1.4026-.0632-.0642-.1193-.1687-.1754-.2329-.0785-.1023-.1727-.1903-.2788-.2603-.0732-.0481-.1594-.07-.2455-.0624-.0965.0165-.2648.2164-.3227.2971-.0737.0971-.1307.2069-.1683.3245z" fill="#37474f"/><path d="m15.3808 42.9449c0-.8225-.5199-1.6435-1.5581-2.2699-2.0779-1.2545-5.44404-1.2545-7.52196 0-1.0382.6264-1.55806 1.4474-1.55806 2.2699v12.6405c0 .8209.51986 1.6434 1.55806 2.2699 2.07792 1.2545 5.44406 1.2545 7.52196 0 1.0382-.6265 1.5581-1.449 1.5581-2.2699z" fill="#516eb4"/><path d="m13.333 40.4167v17.6936c.1669-.0763.3298-.1619.4879-.2566.3085-.1839.5925-.4096.8445-.6711v-15.8318c-.2521-.261-.5361-.4861-.8445-.6695-.1583-.0967-.3211-.1851-.4879-.2646z" fill="#fff" opacity=".4"/><path d="m11.9399 58.5853c.2578-.058.5123-.1309.7623-.2183v-18.2037c-.2502-.0872-.5047-.1607-.7623-.2199z" fill="#fff" opacity=".4"/><path d="m15.2858 42.352c-.3306-.4611-.7529-.8418-1.2379-1.1158-2.0489-1.2369-5.28244-1.3214-7.49757-.2566v-.4416c-.08385.0447-.17074.0877-.25154.1371-1.0382.6265-1.55807 1.4474-1.55807 2.2699v2.1726 7.9494 2.5185c0 .8209.51987 1.6434 1.55807 2.2699 2.07792 1.2545 5.44411 1.2545 7.52201 0 .3522-.2065.672-.4683.9482-.7763-.9894.966-3.4515 1.4984-5.28091 1.1158-1.82943-.3826-2.93776-1.594-2.93776-2.4643v-2.2317c1.02601.5819 2.36759.8576 3.67867.8576v-5.7703c-1.31108 0-2.65266-.212-3.67867-.789v-1.5016c2.21513 1.0648 5.44867.9803 7.49757-.2566.5399-.3038.9977-.7452 1.3309-1.2832v-1.8108c-.0009-.2016-.0323-.4017-.093-.593z" fill="#000" opacity=".1"/><path d="m5.64019 55.984v-14.8243c-.59761.5387-.89947 1.162-.89947 1.7853v12.6405c0 .8209.51987 1.6434 1.55807 2.2699.62983.3654 1.31193.6221 2.01999.7603-1.99865-.5659-2.67859-1.9941-2.67859-2.6317z" fill="#000" opacity=".1"/><path d="m15.7009 40.4056c0-.8719-.5503-1.7438-1.6526-2.4085-2.2029-1.3295-5.77335-1.3295-7.97628 0-1.10223.6647-1.65259 1.5366-1.65259 2.4085v2.6142c0 .8703.55036 1.7423 1.65259 2.407 2.20293 1.3294 5.77338 1.3294 7.97628 0 1.1023-.6647 1.6526-1.5367 1.6526-2.407z" fill="#e0e0e0"/><g fill="#000" mask="url(#a)"><g opacity=".2"><path d="m15.8363 40.1633h-.2714v4.0664h.2714z"/><path d="m15.2142 41.2617h-.2713v4.0887h.2713z"/><path d="m14.2723 42.0156h-.2713v4.111h.2713z"/><path d="m13.1991 42.4858h-.2714v4.1317h.2714z"/><path d="m12.0175 42.7998h-.2714v4.154h.2714z"/><path d="m10.7675 42.9578h-.2714v4.1763h.2714z"/><path d="m9.4989 42.9529h-.27136v4.1986h.27136z"/><path d="m8.25965 42.7791h-.27137v4.2209h.27137z"/><path d="m7.09949 42.4302h-.27137v4.2416h.27137z"/><path d="m6.04871 41.8896h-.27137v4.264h.27137z"/><path d="m5.21375 41.1372h-.27137v4.2863h.27137z"/><path d="m4.55506 39.9211h-.27137v4.3087h.27137z"/></g><path d="m11.4166 46.3227c-2.79296.0144-4.2687-.9325-4.71233-1.7056-.33997-.5882-.39943-1.6737-.39943-2.7497 0 0-.31405-2.4515-.25307-2.4595.03811 0-.66927-.1594-1.21962-.2853-.26275.372-.40773.8207-.41467 1.2831v2.6142c0 .8704.55035 1.7423 1.65258 2.407 1.4483.8735 3.48659 1.17 5.34654.8958z" opacity=".1"/></g><path d="m10.0602 43.8104c3.1153 0 5.6407-1.5244 5.6407-3.4049 0-1.8804-2.5254-3.4048-5.6407-3.4048-3.11532 0-5.64077 1.5244-5.64077 3.4048 0 1.8805 2.52545 3.4049 5.64077 3.4049z" fill="#ebebeb"/><path d="m14.3517 42.6102c1.8904-1.3374 1.7928-3.3474-.3049-4.6131-1.0672-.6488-2.4728-.9787-3.8799-.9947-.72152.1179-1.41791.3661-2.05814.7333-1.90413 1.1381-1.90413 3.4112 0 4.5493 1.70137 1.017 4.34034 1.1222 6.24294.3252z" fill="#f5f5f5"/><path d="m6.60519 57.6098c1.90718 1.0026 5.00191 1.0026 6.90911 0s1.9072-2.6269 0-3.6296c-1.9072-1.0026-5.00193-1.0026-6.90911 0-1.90718 1.0027-1.90718 2.619 0 3.6296z" fill="#000" opacity=".1"/><path d="m4.74072 45.6548c0 .8209.51987 1.6434 1.55807 2.2699 1.0382.6264 2.39959.9404 3.76101.9404v5.6588c-1.36142 0-2.72281-.3188-3.76101-.9405s-1.55807-1.449-1.55807-2.2699z" fill="#fff"/><path d="m4.85059 41.7128s1.82942 1.9304 5.37851 1.83c3.5491-.1005 4.9623-2.1249 5.1498-2.7529.0948-.3694.1006-.7577.0171-1.1301s-.2538-.7174-.4958-1.0043c.2405.22.4355.489.5731.7905s.215.6291.2273.9629v2.6142c0 .22.1083.9803-1.0351 1.9654 0 0 .6708-.797.6708-1.5637v-1.8108s-1.2547 2.195-5.1072 2.195c-3.85247 0-5.1849-1.7678-5.37851-2.0962z" fill="#fff"/><path d="m21.3092 59.3218c-.0813-.0596-.1458-.1408-.1868-.2353s-.0571-.1987-.0465-.3019c.0152-.2874.0948-.567.2326-.8163.1377-.2492.3296-.461.5602-.6183.0801-.0611.1744-.0986.273-.1087.0987-.0101.1981.0076.288.0513l1.0199.6169c.2502.1598.4307.4156.503.7127.0723.297.0307.6119-.1159.8773-.1466.2655-.3867.4605-.6689.5434-.2823.0829-.5843.0473-.8418-.0994z" fill="#f5f5f5"/><path d="m19.9037 58.4723c-.1369-.0716-.2583-.1716-.3568-.294-.0986-.1223-.1722-.2644-.2164-.4176-.0441-.1532-.0579-.3142-.0405-.4731.0175-.1589.0658-.3124.142-.4512.0762-.1387.1787-.2597.3013-.3555.1225-.0958.2624-.1645.4112-.2017.1488-.0373.3033-.0424.454-.015.1508.0273.2946.0866.4227.1741l1.404.8528c-.0898-.0437-.1893-.0614-.288-.0513-.0986.0101-.1929.0476-.273.1087-.2306.1573-.4225.3691-.5602.6183-.1377.2493-.2174.5289-.2325.8163-.0106.1032.0054.2075.0464.3019.041.0945.1055.1758.1868.2353z" fill="#516eb4"/><path d="m20.1554 56.7491c-.0285.0508-.0473.1069-.0551.1653-.0078.0583-.0045.1176.0096.1746.0142.057.039.1106.0729.1575.034.047.0765.0865.1251.1163l1.6968 1.0298c.1439-.2476.2242-.5298.2332-.8194 0-.0271 0-.0542 0-.0797l-1.497-.9085c-.0488-.0295-.1026-.0486-.1584-.0563-.0558-.0076-.1125-.0038-.1669.0115-.0544.0152-.1053.0415-.15.0774-.0446.0358-.082.0805-.1102.1315z" fill="#fff" opacity=".4"/><path d="m21.3092 59.3218c-.0813-.0596-.1458-.1408-.1868-.2353s-.0571-.1987-.0465-.3019c.0152-.2874.0948-.567.2326-.8163.1377-.2492.3296-.461.5602-.6183.0801-.0611.1744-.0986.273-.1087.0987-.0101.1981.0076.288.0513l1.0199.6169c.2502.1598.4307.4156.503.7127.0723.297.0307.6119-.1159.8773-.1466.2655-.3867.4605-.6689.5434-.2823.0829-.5843.0473-.8418-.0994z" fill="#f5f5f5"/><path d="m21.8691 57.3483c-.2305.1573-.4225.3691-.5602.6183-.1377.2493-.2174.5289-.2325.8163-.0106.1032.0054.2074.0464.3019.0411.0945.1056.1757.1868.2353l-.0808-.0478-.0609-.0367c-.0807-.0601-.1446-.1415-.1853-.2358-.0407-.0944-.0568-.1984-.0465-.3014.0152-.2874.0948-.567.2326-.8163.1377-.2492.3296-.461.5602-.6183.0801-.0609.1743-.0984.2729-.1088.0985-.0103.198.0069.2881.0498l.1403.0861c-.0899-.0437-.1894-.0614-.288-.0513-.0987.0101-.193.0476-.2731.1087z" fill="#000" opacity=".1"/><path d="m24.003 58.8006c.0222.2154-.0131.433-.102.6287s-.2278.3619-.4015.4801c-.1736.1182-.3752.1838-.5823.1895-.2072.0057-.4118-.0486-.5912-.157l-1.0168-.62c-.0813-.0596-.1458-.1408-.1868-.2353s-.0571-.1988-.0465-.3019c.0016-.1213.018-.2418.0488-.3587l1.7029 1.0298c.5595.3379 1.1693-.271 1.1754-.6552z" fill="#ebebeb"/><path d="m23.6128 58.8451c-.0285.0508-.0663.0952-.1112.1308-.0449.0355-.0961.0614-.1506.0762-.0546.0148-.1113.0182-.1671.01-.0558-.0081-.1095-.0277-.158-.0576l-1.7212-1.0409c.1333-.2533.3265-.4668.561-.6201l.0686-.0366 1.5245.9197c.0494.0297.0926.0693.1271.1166s.0597.1013.074.1589.0175.1176.0095.1765c-.0081.0588-.0273.1155-.0566.1665z" fill="#fff"/><path d="m19.5715 56.746c.012-.0185.0252-.0361.0396-.0526.0107-.0128.0198-.0255.0305-.0367l.0366-.0382.0381-.0383.0198-.0175c.0596-.0534.1245-.0999.1936-.1387.026-.0143.0504-.0271.0763-.0383-.3156.1977-.5153 1.0537.0442 1.3916.1921.1164.4787.2949 1.0671.652-.0308.1169-.0472.2374-.0487.3586-.0106.1032.0054.2074.0464.3019s.1055.1758.1868.2353l-1.4056-.8496c-.1279-.0771-.2399-.1798-.3298-.3022s-.1559-.2622-.1941-.4112c-.0382-.1491-.048-.3046-.0287-.4576s.0672-.3005.141-.4342c.0183-.0319.0366-.0621.0564-.0908z" fill="#000" opacity=".1"/><path d="m16.5545 62.1177c.0809-.0599.1451-.1412.1861-.2356.041-.0943.0573-.1984.0471-.3015-.0151-.2876-.095-.5674-.233-.8167-.138-.2492-.3303-.461-.5612-.618-.0798-.0611-.1738-.0986-.2723-.1087-.0984-.0101-.1976.0076-.2872.0514l-1.0199.6168c-.2386.165-.408.4188-.4738.7097-.0658.291-.023.5973.1197.8564.1427.2592.3745.4517.6482.5383s.5687.0609.8249-.072z" fill="#f5f5f5"/><path d="m17.9602 61.2666c.1316-.075.2476-.1768.341-.2993.0934-.1226.1624-.2635.203-.4143.0405-.1509.0518-.3087.0331-.4642-.0186-.1555-.0669-.3056-.1418-.4413-.075-.1357-.1752-.2543-.2947-.349-.1195-.0946-.2559-.1632-.4011-.2019-.1453-.0387-.2965-.0465-.4447-.0232-.1482.0234-.2905.0775-.4184.1593l-1.4025.8543c.0896-.0437.1888-.0614.2872-.0513.0985.0101.1925.0476.2723.1087.2309.157.4232.3687.5612.618s.2179.5291.2331.8166c.0101.1032-.0062.2072-.0472.3016-.0409.0944-.1052.1757-.1861.2356z" fill="#516eb4"/><path d="m17.7085 59.5451c.0569.1027.0728.2247.0443.3396-.0286.1148-.0993.2133-.1968.2741l-1.6983 1.0297c-.1426-.2481-.2223-.5301-.2317-.8193 0-.0271 0-.0542 0-.0797l1.4971-.9102c.0988-.0585.2156-.0738.3252-.0428s.2031.106.2602.2086z" fill="#fff" opacity=".4"/><path d="m16.5545 62.1177c.0809-.0599.1451-.1412.1861-.2356.041-.0943.0573-.1984.0471-.3015-.0151-.2876-.095-.5674-.233-.8167-.138-.2492-.3303-.461-.5612-.618-.0798-.0611-.1738-.0986-.2723-.1087-.0984-.0101-.1976.0076-.2872.0514l-1.0199.6168c-.2386.165-.408.4188-.4738.7097-.0658.291-.023.5973.1197.8564.1427.2592.3745.4517.6482.5383s.5687.0609.8249-.072z" fill="#f5f5f5"/><path d="m15.9902 60.1442c.2309.157.4232.3687.5612.618.138.2492.2179.529.233.8166.0102.1031-.0061.2072-.0471.3016s-.1052.1757-.1861.2356l.0808-.0494.061-.0367c.0806-.0597.1446-.1408.1853-.2349.0407-.0942.0567-.1979.0464-.3007-.015-.2874-.0946-.5671-.2324-.8164-.1377-.2492-.3297-.461-.5604-.6182-.0801-.0609-.1743-.0984-.2728-.1088-.0986-.0103-.198.0069-.2882.0498l-.1402.0861c.0896-.0437.1888-.0615.2872-.0514.0985.0101.1925.0477.2723.1088z" fill="#000" opacity=".1"/><path d="m13.8561 61.5948c-.0266.2469.0236.4962.1433.7109.1489.2696.3941.4663.6816.547.2876.0807.594.0388.852-.1166l1.0169-.6201c.0809-.0599.1451-.1412.1861-.2355.041-.0944.0573-.1985.0471-.3016-.0013-.1214-.0182-.242-.0503-.3587l-1.7013 1.0297c-.555.338-1.1648-.2693-1.1754-.6551z" fill="#ebebeb"/><path d="m14.248 61.6411c.0285.0508.0663.0952.1113.1308.0449.0355.0961.0614.1506.0762s.1113.0182.1671.01c.0557-.0081.1094-.0277.158-.0576l1.7212-1.0409c-.1354-.2521-.3301-.4639-.5656-.6153-.0223-.0135-.0452-.0257-.0686-.0366l-1.5246.9197c-.0976.0607-.1682.1594-.1962.2745s-.0112.2371.0468.3392z" fill="#fff"/><path d="m18.2923 59.5401-.0396-.0526-.0305-.035-.0366-.0383-.0381-.0382-.0229-.0128c-.0587-.0537-.1232-.1002-.192-.1387-.0242-.0143-.0491-.0271-.0747-.0382.3155.1976.5137 1.0536-.0458 1.3915-.1921.1164-.4772.2933-1.0671.652.032.1167.0489.2373.0503.3587.0101.1031-.0062.2072-.0472.3015-.0409.0944-.1052.1757-.1861.2356l1.4056-.8512c.2578-.1557.446-.412.5232-.7127s.037-.6211-.1116-.8908c-.0175-.0315-.0368-.0619-.0579-.0909-.0088-.0139-.0185-.0272-.029-.0399z" fill="#000" opacity=".1"/></svg>