<svg enable-background="new 0 0 512 512" viewBox="0 0 512 512" xmlns="http://www.w3.org/2000/svg"><path d="m195.793 512c-104.488 0-153.258-130.083-74.604-198.899v-87.248c0-10.244 8.305-18.549 18.549-18.549h112.122c10.244 0 18.549 8.305 18.549 18.549v87.253c78.625 68.816 29.882 198.894-74.616 198.894z" fill="#fb3732"/><path d="m251.861 244.401h-112.123c-10.244 0-18.549-8.305-18.549-18.549v-151.236c0-41.286 33.411-74.616 74.604-74.616 41.143 0 74.616 33.472 74.616 74.616v151.236c.001 10.244-8.305 18.549-18.548 18.549z" fill="#ff5e5b"/><g fill="#6d6e71"><path d="m411.117 88.22h-68.227c-10.244 0-18.549-8.305-18.549-18.549s8.305-18.549 18.549-18.549h68.227c10.244 0 18.549 8.305 18.549 18.549s-8.305 18.549-18.549 18.549z"/><path d="m386.189 166.311h-43.299c-10.244 0-18.549-8.305-18.549-18.549s8.305-18.549 18.549-18.549h43.298c10.244 0 18.549 8.305 18.549 18.549.001 10.244-8.305 18.549-18.548 18.549z"/><path d="m386.189 244.403h-43.299c-10.244 0-18.549-8.305-18.549-18.549s8.305-18.549 18.549-18.549h43.298c10.244 0 18.549 8.305 18.549 18.549s-8.305 18.549-18.548 18.549z"/><path d="m411.117 322.494h-68.227c-10.244 0-18.549-8.305-18.549-18.549s8.305-18.549 18.549-18.549h68.227c10.244 0 18.549 8.305 18.549 18.549s-8.305 18.549-18.549 18.549z"/></g><path d="m270.41 313.104v-87.252c0-10.244-8.305-18.549-18.549-18.549h-56.067v304.697c104.476 0 153.259-130.06 74.616-198.896z" fill="#f32e28"/><path d="m195.793 0v244.401h56.067c10.244 0 18.549-8.305 18.549-18.549v-151.236c.001-41.144-33.472-74.616-74.616-74.616z" fill="#ff423d"/></svg>