<svg fill="none" height="21" viewBox="0 0 20 21" width="20" xmlns="http://www.w3.org/2000/svg" xmlns:xlink="http://www.w3.org/1999/xlink"><clipPath id="a"><path d="m0 .5h20v20h-20z"/></clipPath><g clip-path="url(#a)" fill="#000"><path d="m17.4998 3.83333h-2.5833c-.1934-.94049-.7051-1.78554-1.449-2.39273-.7438-.607192-1.6742-.939388-2.6343-.9406h-1.6667c-.96017.001212-1.89056.333408-2.63437.9406-.74381.60719-1.25555 1.45224-1.44896 2.39273h-2.58333c-.22102 0-.43298.0878-.58926.24408s-.24408.36824-.24408.58926c0 .22101.0878.43297.24408.58925s.36824.24408.58926.24408h.83333v10.8333c.00132 1.1047.44074 2.1637 1.22185 2.9449.78112.7811 1.84015 1.2205 2.94482 1.2218h4.99996c1.1047-.0013 2.1637-.4407 2.9449-1.2218.7811-.7812 1.2205-1.8402 1.2218-2.9449v-10.8333h.8333c.2211 0 .433-.0878.5893-.24408s.2441-.36824.2441-.58925c0-.22102-.0878-.43298-.2441-.58926s-.3682-.24408-.5893-.24408zm-8.3333-1.66666h1.6667c.5169.00063 1.0209.16114 1.443.45953s.7415.72004.9145 1.20713h-6.3817c.17299-.48709.49242-.90874.91449-1.20713.42208-.29839.92612-.4589 1.44301-.45953zm5.8333 14.16663c0 .6631-.2634 1.299-.7322 1.7678s-1.1047.7322-1.7678.7322h-4.99996c-.66304 0-1.29893-.2634-1.76777-.7322s-.73223-1.1047-.73223-1.7678v-10.8333h9.99996z"/><path d="m8.33333 15.4999c.22102 0 .43298-.0878.58926-.2441.15628-.1562.24408-.3682.24408-.5892v-5.00001c0-.22102-.0878-.43298-.24408-.58926s-.36824-.24408-.58926-.24408c-.22101 0-.43297.0878-.58925.24408s-.24408.36824-.24408.58926v5.00001c0 .221.0878.433.24408.5892.15628.1563.36824.2441.58925.2441z"/><path d="m11.6668 15.4999c.221 0 .433-.0878.5893-.2441.1563-.1562.2441-.3682.2441-.5892v-5.00001c0-.22102-.0878-.43298-.2441-.58926s-.3683-.24408-.5893-.24408-.4329.0878-.5892.24408-.2441.36824-.2441.58926v5.00001c0 .221.0878.433.2441.5892.1563.1563.3682.2441.5892.2441z"/></g></svg>