<svg fill="none" height="24" viewBox="0 0 24 24" width="24" xmlns="http://www.w3.org/2000/svg" xmlns:xlink="http://www.w3.org/1999/xlink"><clipPath id="a"><path d="m0 0h24v24h-24z"/></clipPath><g clip-path="url(#a)" fill="#fff"><path d="m21 4h-3.1c-.2321-1.12859-.8462-2.14265-1.7387-2.87128-.8926-.72863-2.0091-1.12726548-3.1613-1.12872h-2c-1.1522.00145452-2.26868.40009-3.16125 1.12872s-1.50665 1.74269-1.73875 2.87128h-3.1c-.26522 0-.51957.10536-.70711.29289-.18753.18754-.29289.44189-.29289.70711s.10536.51957.29289.70711c.18754.18753.44189.29289.70711.29289h1v13c.00159 1.3256.52888 2.5964 1.46622 3.5338.93734.9373 2.20819 1.4646 3.53378 1.4662h6c1.3256-.0016 2.5964-.5289 3.5338-1.4662.9373-.9374 1.4646-2.2082 1.4662-3.5338v-13h1c.2652 0 .5196-.10536.7071-.29289.1875-.18754.2929-.44189.2929-.70711s-.1054-.51957-.2929-.70711c-.1875-.18753-.4419-.29289-.7071-.29289zm-10-2h2c.6203.00076 1.2251.19338 1.7316.55144.5065.35807.8898.86405 1.0974 1.44856h-7.658c.20758-.58451.5909-1.09049 1.09739-1.44856.50648-.35806 1.11131-.55068 1.73161-.55144zm7 17c0 .7956-.3161 1.5587-.8787 2.1213s-1.3256.8787-2.1213.8787h-6c-.79565 0-1.55871-.3161-2.12132-.8787s-.87868-1.3257-.87868-2.1213v-13h12z"/><path d="m10 18c.2652 0 .5196-.1054.7071-.2929s.2929-.4419.2929-.7071v-6c0-.2652-.1054-.5196-.2929-.7071s-.4419-.2929-.7071-.2929c-.26522 0-.51957.1054-.70711.2929-.18753.1875-.29289.4419-.29289.7071v6c0 .2652.10536.5196.29289.7071.18754.1875.44189.2929.70711.2929z"/><path d="m14 18c.2652 0 .5196-.1054.7071-.2929s.2929-.4419.2929-.7071v-6c0-.2652-.1054-.5196-.2929-.7071s-.4419-.2929-.7071-.2929-.5196.1054-.7071.2929-.2929.4419-.2929.7071v6c0 .2652.1054.5196.2929.7071s.4419.2929.7071.2929z"/></g></svg>