<svg viewBox="0 0 800.61 920.22" xmlns="http://www.w3.org/2000/svg"><ellipse cx="417.32" cy="388.97" fill="#dee8ff" rx="351.78" ry="417.62" transform="matrix(.73668749 -.67623335 .67623335 .73668749 -153.15 384.58)"/><ellipse cx="138.47" cy="887.11" fill="#dee8ff" rx="104.25" ry="33.11"/><path d="m692.52 459.34-390.06-91.63c-11.22-2.64-20.46-16.71-20.63-31.21l-1.95-234.39c-.12-14.53 9-24.26 20.19-21.62l390.06 91.63c11.23 2.64 20.51 16.68 20.64 31.21l2 234.39c.07 14.53-9.02 24.28-20.25 21.62z" fill="#a1bfff"/><path d="m681.78 694.78c19.39 4.55 32.76-5.87 32.58-27.59l-.69-115.76c-.13-14.53-9.41-28.57-20.64-31.21l-390.03-91.63c-11.23-2.64-20.31 7.09-20.19 21.62l1.08 130.22c.12 13.75 7.75 24 20 26.88z" fill="#a1bfff"/><ellipse cx="387.65" cy="243.95" fill="#fff" rx="70.58" ry="94.37" transform="matrix(.85590627 -.51713099 .51713099 .85590627 -70.3 235.65)"/><path d="m415.74 296.8c6.77 1.87 14.85-6.48 12.83-13.28-2-6.61-4.47-12.65-6.57-15a26.66 26.66 0 0 0 -6.18-4.79c-2.08-1.29-4.79-3.19-7.42-5-.87-.62-1.76-1.24-2.63-1.84l-5.31-3.93-2.39-2.25a4.49 4.49 0 0 1 -.56-.52 10.17 10.17 0 0 1 -.05-1.09c-.15-2.3-.29-4.61-.44-6.91 2.1-1.72 3.33-4.59 3.67-8 3.53 1.06 4.21-3.61 4.46-6.86.18-2.31.35-8-2.4-9.38.05-.37.1-.73.16-1a29.21 29.21 0 0 0 .63-6.15 16.33 16.33 0 0 0 -1.48-6.57 4.41 4.41 0 0 0 -.91-1.34 6.65 6.65 0 0 0 -.49-2.41 25.29 25.29 0 0 0 -10.8-13.37 19.76 19.76 0 0 0 -13-2.14c-3.05.47-7.07 2.06-7 7.37a4.71 4.71 0 0 0 .41 1.89c-.58-.11-1 .38-1.3.91a11.42 11.42 0 0 0 -1 5.9 37 37 0 0 0 1.13 6.62c.08.35.16.73.24 1.12-3.37-1-2.55 5.6-2.11 8.27.55 3.32 1.65 8.23 4.86 9.3a25 25 0 0 0 1.14 4.38 19.79 19.79 0 0 0 3 5.37s0 .05 0 .09l.45 7.1c0 .2.08.58.07.82-.05-.15-.55.39-.68.5l-1.43 1.12-1.37.19h-.33a21 21 0 0 0 -2.74.43h-.11c-1.17.26-2.35.57-3.51.88-2.09.57-4.22.69-6.27 1.32-5.1 1.58-11.88 8.12-12.6 20-.33 5.59 2.49 10 7.32 11.48zm-11.29-69.45c0 .32-.05.6-.07.82.02-.25.05-.53.07-.82z" fill="#3071ff"/><g fill="#fff"><path d="m604.69 241.21-108.95-29 .63 35.52 108.96 29z"/><path d="m496.84 274.13.63 35.53 165.32 44-.63-35.52z"/><path d="m439.28 536.98.63 35.52 165.32 44.01-.63-35.53z"/></g><path d="m389.85 492c-9.75 1-16.22 7.31-20.66 13.1-1.38 1.8-4.24 1.11-5.66-1.37-4.81-8.35-11.86-18.76-21.33-22.92-18.09-7.95-30.69 6.68-25.17 27.79 5.94 25.54 50.17 73.45 50.17 73.45l1.07.25s42.88-27.45 48-50.4c4.73-18.65-6.67-41.9-26.42-39.9z" fill="#3071ff"/><path d="m372.61 555.29h-.14a5.36 5.36 0 0 1 -3.47-3.58l-8-25.37-3.74 10.36a2.86 2.86 0 0 1 -3.47 1.85l-13.51-3.18a2.24 2.24 0 0 1 -1.73-2.29c0-2.52 2.72-5 5-4.47l8.06 1.89 5.81-16.14a2.85 2.85 0 0 1 3.47-1.85 5.38 5.38 0 0 1 3.55 3.6l8.2 25.94 3-7.34a2.84 2.84 0 0 1 3.42-1.7l14.56 3.43a2.23 2.23 0 0 1 1.73 2.28c0 2.52-2.72 5-5 4.48l-9.2-2.16-5.15 12.55a2.81 2.81 0 0 1 -3.39 1.7z" fill="#fff"/><path d="m70 291.64-61.58 72.29a35.25 35.25 0 0 0 -.9 44.63l55.13 70.29 24.29-11.36s-40.2-78.89-40.2-81.62 59.26-42.19 56.93-40.72-32-48.86-32-48.86z" fill="#4abfb8"/><path d="m186.75 227.31 8.55 1.75c3.89.8 7.14-2.09 7.22-6.41v-1.05c.07-4.32-3-8.51-6.95-9.31l-8.57-1.75c-3.89-.79-7.14 2.09-7.22 6.41v1.06c-.05 4.32 3.07 8.51 6.97 9.3z" fill="none" stroke="#082187" stroke-linecap="round" stroke-linejoin="round" stroke-width="1.54"/><path d="m79.38 839.66a4.63 4.63 0 0 0 -5.49 2.64c-3.36 7.79-10.25 25.71-5.82 32.54 3.44 5.3 6.6 5.28 10.63 6.95a15 15 0 0 0 8.41.91l40.16-25.6c5.23-1.1-2.8-15.35-10.53-15.57-10.45-.3-14.32 4.52-14.32 4.52z" fill="#292685"/><path d="m104.76 845.37s6.16-.39 9.69 6.41" fill="none" stroke="#fff" stroke-linecap="round" stroke-linejoin="round" stroke-width="1.34"/><path d="m106.49 826-1.48 28s-11.65 1-14.19-5.7a13.24 13.24 0 0 0 -9-7.89l-3.61-1-3.4-26.31z" fill="#ffb39c"/><path d="m79.5 489.55-12.9 2.69-1.28 42.23a51.67 51.67 0 0 0 4.35 25c2.08 23.59 6.81 66.81 2.77 107.26-2.78 27.79-5.11 50.18-5 57.73.23 17.17-.77 113.71-.77 113.71s16.33 12.94 40.33 2.14l23.74-171-1.1-156.31z" fill="#3071ff"/><path d="m153 870.16c-2.47-.77-4.83.17-5.55 2.19-2.63 7.39-7.79 24.48-2.19 31.5 4.34 5.45 6.84 9.19 18.41 9.38l61.68-11.9c5.47-.69 9-20.91-7.17-22.19-11.21-.89-41.67-5.79-41.67-5.79z" fill="#292685"/><path d="m181.23 849.64 2.61 38.48s-14-1.93-17.55-8.71a18 18 0 0 0 -10.59-8.41l-4-1.24-6.16-27z" fill="#ffb39c"/><path d="m185.49 875.05s11.83 4.76 12.75 12.94" fill="none" stroke="#fff" stroke-linecap="round" stroke-linejoin="round" stroke-width="1.32"/><path d="m195.65 876.8s10.59 2.28 11.47 10.07" fill="none" stroke="#fff" stroke-linecap="round" stroke-linejoin="round" stroke-width="1.32"/><path d="m133.24 674.4.38-70.53-37.48-39.87-2.47-3.52c-1.07 19 8 29.75 15.74 37.55a308.48 308.48 0 0 1 8 33.58c-2.12 10-4.08 20.58-.31 26.56 3.53 5.6 2.91 16.6 1.38 27s-4 20.29-4.06 23.61c-.19 6.65-20.19 32.65-16.28 47s-2.29 49.4-5.73 59.21 4.27 28.83 4.27 28.83a132.36 132.36 0 0 0 16.57-5.61l9.56-92.1 5.67-40.85z" fill="#598dff"/><path d="m120.63 502.46 17.64 202s2.67 68.67 3.33 159.3c10.67 7.66 33.17 10.11 44.45 3.17 0 0 12.66-156.38 12.2-161.41l-1.63-205.49z" fill="#3071ff"/><path d="m198.25 705.55-1.63-205.49-15.36.48 1.61 204.74c.46 5-12.2 161.41-12.2 161.41a29 29 0 0 1 -11.23 3.64c9.64 1.51 20 .68 26.61-3.37 0 .04 12.66-156.38 12.2-161.41z" fill="#598dff"/><path d="m119.98 289.87 20.25-53.88 32.67 1.11-12.8 56.1z" fill="#ffb39c"/><path d="m126.57 191.73s-14.85 74.77 47.52 74.72c0 0 25.29 7.51 20-56.88s-42.16-35.1-67.52-17.84z" fill="#ffb39c"/><path d="m181 265.8s-16.66-10.05-25.9-27.78l-28.32 14.23-5.23 33.21 40.16 4 4-22.38s11.29 1.28 15.29-1.28z" fill="#fa8d6c"/><path d="m125.77 255.54 10.93 2.46a13.78 13.78 0 0 0 14.89-6.33c2.44-4.05 4.9-8.4 5.44-10.24 2-6.84 3-6 4.74-16.31.68-4.07 9-2.77 10.32-10.12 2.36-13.55 17.89-27.46 17.89-27.46s7.76-3.23 5.45-9.88c-3.36-9.7-8.75-7.92-15.89-12.54-10.78-7-55.83-3.29-64.65 11.18-2.21 3.62-5.23 7-7.52 11.33-14.52 27.31 18.4 67.91 18.4 67.91z" fill="#6862d6"/><path d="m160.21 219a37 37 0 0 1 -23.06-16.28c-5.25-8.3-11.52-19.76-15.34-32a19.3 19.3 0 0 0 -6.93 6.22c-2.21 3.62-5.23 7-7.52 11.33-14.52 27.27 18.4 67.86 18.4 67.86l10.93 2.51a13.79 13.79 0 0 0 14.89-6.34c2.43-4 4.9-8.39 5.44-10.24 2-6.84 3-6 4.74-16.3.6-3.59 7.16-3 9.58-7.86a17.42 17.42 0 0 1 -11.13 1.1z" fill="#3b35ba"/><ellipse cx="161.97" cy="230.59" fill="#fa8d6c" rx="9.14" ry="11.53" transform="matrix(.99933477 -.03646929 .03646929 .99933477 -8.31 6.07)"/><path d="m217.86 355.85c12.58-33.74-56.35-70.22-56.35-70.22l-38.76-12.77-38.11 8.71c-25 9.05-27.3 39.67-26.63 55.28 0 .26 7.25 58.37 6.08 87.48-.41 10.26-2.3 70.68-1.16 75.16 3.32 13.07 130.85 48.44 140.2 11.14 0 0-9.31-81.44 1.81-114.53 5.69-16.95 9.62-31.37 12.92-40.25z" fill="#57e0d8"/><path d="m200.92 183.27c-.32 6.21-6.91 11.44-15.8 11.67s-16.21-4.64-16.37-10.86-6-23.26 2.69-21.55c11.03 2.16 30.63-1.53 29.48 20.74z" fill="#6862d6"/><path d="m124.77 264.93 39 12.07 15.35 19.49c-5.69-2.32-11.1-4-16-4.23-24.75-3.48-44.37-8.42-52.36-16.68 1-4.5 5.87-11.58 14.01-10.65z" fill="#fff"/><path d="m137.66 274.32a16.54 16.54 0 0 1 5.26-3.78l-18.15-5.61c-8.14-.92-13 6.15-14 10.65 5.23 5.4 15.46 9.38 28.83 12.47l-.08-.05a8.94 8.94 0 0 1 -1.86-13.68z" fill="#cfe4fa"/><path d="m181 265.8s-8.37-9.61-4.42-21.11 8.58-34.55 2.65-41.49-11 12.16-11 12.16l-1.14 19.44-10.09 6.67 2.06 23.29z" fill="#fa8d6c"/><path d="m169.76 225.88a5.11 5.11 0 0 1 -5.22-5l-.41-16.08a5.11 5.11 0 0 1 5-5.22c2.8-.07 10.17-5.91 10.24-3.11l-4.61 24.15a5.11 5.11 0 0 1 -5 5.26z" fill="#6862d6"/><path d="m186.94 366.1c10.7-28.71-33.31-56.23-46.69-63.81a36.92 36.92 0 0 0 -7.18-3.13 144.6 144.6 0 0 0 -44.38-6.67h-4.63c-25 9-26.72 28.72-26.05 44.33 0 .26 7.25 58.37 6.08 87.48-.41 10.26-2.3 70.68-1.16 75.16 3.32 13.07 129.53 56.54 140.2 11.14 0 0-23.95-75.19-12.83-108.29 5.7-16.92-6.66-27.31-3.36-36.21z" fill="#4abfb8"/><path d="m188.29 363.63c-2.89 7.76-6.36-1.88-8 12.52-.24 2.07-1.6 24.15-1.7 26.4-.7 16.07 7.31 36.47 6.62 51.54-1.47 31.88-11.45 53.29-11.45 53.29-.23 5.22 2.57 20.4-2.47 23.6 21.33-1.51 31.3-8.06 31.85-20.35 0 0-3-87.62 2.2-125z" fill="#57e0d8"/><path d="m201.52 217.21-26.8 3.45" fill="none" stroke="#082187" stroke-linecap="round" stroke-linejoin="round" stroke-width="1.54"/><path d="m140.94 295.14s54.85 11.51 70.19 30.52c6.92 8.57 29.86 45.84 38.63 55.73 3.29 3.71-6.09 58.72-11 53.59l-51.76-61.57c23.54-34.99-5.75-57.93-46.06-78.27z" fill="#57e0d8"/><path d="m277.69 352.49 28.63-42.69s19 13.21 12.89 21.52-29.51 29.23-29.51 29.23z" fill="#ffb39c"/><path d="m278.9 339.44-.73-15.83a8.82 8.82 0 0 1 3.6-7.53c5.13-3.74 14.12-9.63 18.43-8.4 19.8 5.63 13.2 24.61 1.62 21.64-7.89 13.83-15.64 21.95-22.92 10.12z" fill="#ffb39c"/><path d="m271.09 348.81 8.42-14.41s19.08 7.35 22.65 16.43l-8.42 15.17z" fill="#fff"/><path d="m225.81 399.49c4.94-.4 41.63-57.14 41.63-57.14 4.89-8.24 38.39 4.64 30.68 28.77l-36.55 61.68-.1.18c-5.39 8.9-18.51 8.71-24.27 0-8.55-12.83-20.29-32.78-11.39-33.49z" fill="#57e0d8"/><g fill="#fff"><path d="m290.44 374.61a2.07 2.07 0 1 1 -2.87.57 2.07 2.07 0 0 1 2.87-.57z"/><path d="m284 384.16a2.07 2.07 0 1 1 -2.87.56 2.07 2.07 0 0 1 2.87-.56z"/><path d="m277.77 393.5a2.07 2.07 0 1 1 -2.31 3.44 2.07 2.07 0 0 1 2.31-3.44z"/></g><path d="m288 321.27a5.49 5.49 0 0 1 .56-7.72l28.62-24.77a5.5 5.5 0 0 1 7.73.56 5.49 5.49 0 0 1 -.56 7.72l-28.62 24.77a5.5 5.5 0 0 1 -7.73-.56z" fill="#ffb39c"/></svg>