<svg fill="none" height="2187" viewBox="0 0 4155 2187" width="4155" xmlns="http://www.w3.org/2000/svg" xmlns:xlink="http://www.w3.org/1999/xlink"><clipPath id="a"><path d="m0 0h4154.67v2186.67h-4154.67z"/></clipPath><g clip-path="url(#a)"><path d="m83.2861 2185.81s-249.6901-617.34 115.5909-985.96c471.149-475.455 1080.003-78.04 1308.463-89.62 228.45-11.59 241.31-467.794 923.92-522.275 527.78-42.13 1394.56-45.447 1209.64 699.885-140.58 566.67 641.64 273.14 489.33 899.16z" fill="#fcecdb"/><path d="m848.52 1809.74s-59.4-69.33-3.664-113.34c0 0 40.714-24.66 73.912-22.67 0 0-47.04 78.9-31.823 86.75 15.218 7.86 46.08-91.7 46.08-91.7s92.645-8.98 122.455 5.35c0 0-79.205 64.83-62.523 68.69 16.683 3.87 102.233-59.77 102.233-59.77s86.23 14.67 81.63 67.3c-4.6 52.61-34.31 68.85-47.37 67.46-13.06-1.4-89.45-30.57-91.11-19.87-1.67 10.71 44.32 45.69 76.52 47.32 0 0-60.8 67.06-101.2 47.71-40.405-19.36-43.857-50.03-69.042-61.55-25.186-11.5-46.686-11.47-36.288.26 10.4 11.74 55.982 23.14 70.384 48.63 14.404 25.49 27.326 42.68-14.476 36.39-41.801-6.29-109.752-36.9-112.736-71.93-2.982-35.03-2.982-35.03-2.982-35.03" fill="#599dad"/><path d="m1135 1752.41s-234.864-8.99-286.731 57.63c0 0-11.471 34.07-46.768 65.08l-5.501 14.88s40.698-42.56 55.259-45.13c0 0-22.773-82.52 283.741-92.46" fill="#599dad"/><path d="m801.775 1874.88s-50.282 37.08-53.775 103.31l9.127.81s16.059-68.49 45.084-95.26c29.027-26.8-.436-8.86-.436-8.86" fill="#599dad"/><path d="m640.839 1721.84s94.554-52.94 50.429-124.79c0 0-35.304-44.14-73.124-55.48 0 0 20.173 107.16 0 109.68-20.174 2.51-13.87-121.02-13.87-121.02s-99.599-47.91-138.683-44.13c0 0 61.779 104.64 41.606 102.12s-89.516-108.42-89.516-108.42-102.121-18.91-118.51 41.6c-16.39 60.51 10.086 90.77 25.215 94.56 15.13 3.77 112.206 2.51 109.686 15.12-2.521 12.6-68.08 32.77-104.642 21.43 0 0 40.343 99.59 93.296 94.55 52.951-5.05 69.341-37.82 102.122-40.34 32.778-2.53 56.734 6.3 40.343 15.12-16.389 8.83-71.864 2.9-98.338 25.4-26.476 22.51-47.91 36.39 1.26 46.47 49.17 10.09 137.423 3.78 155.073-34.04 17.653-37.83 17.653-37.83 17.653-37.83z" fill="#6bb7bf"/><path d="m346 1541s264.569 85.88 294.806 181.85c0 0-1.263 42.95 25.194 92.21v18.94s-27.715-64.42-42.834-73.26c0 0 59.214-83.34-277.166-219.74z" fill="#6bb7bf"/><path d="m666.523 1814.76s40.419 61.89 17.378 137.24l-10.399-2.82s10.093-82.99-11.054-124.73c-21.148-41.75 4.075-9.69 4.075-9.69z" fill="#6bb7bf"/><path d="m791.769 1648.9s-124.38-69.61-66.336-164.09c0 0 46.436-58.01 96.189-72.92 0 0-26.535 140.88 0 144.18 26.533 3.33 18.239-159.1 18.239-159.1s131.016-62.98 182.429-58c0 0-81.263 137.56-54.731 134.24 26.537-3.31 117.751-142.53 117.751-142.53s134.34-24.86 155.89 54.69c21.56 79.55-13.27 119.33-33.17 124.3-19.9 4.98-147.6 3.32-144.28 19.9 3.32 16.56 89.55 43.08 137.64 28.17 0 0-53.06 130.93-122.72 124.3-69.65-6.62-91.208-49.72-134.327-53.03-43.119-3.33-74.629 8.28-53.068 19.89 21.558 11.59 94.528 3.8 129.355 33.38 34.83 29.59 63.02 47.83-1.66 61.09-64.675 13.25-180.764 4.97-203.984-44.75-23.217-49.72-23.217-49.72-23.217-49.72z" fill="#86d1cd"/><path d="m1180 1411s-348.898 112.84-388.771 238.97c0 0 1.66 56.42-33.229 121.14v24.89s36.553-84.65 56.488-96.25c0 0-78.087-109.52 365.512-288.75" fill="#6bb7bf"/><path d="m758.077 1770.54s-54.623 81.84-23.481 181.46l14.052-3.73s-13.64-109.72 14.936-164.91c28.579-55.19-5.507-12.82-5.507-12.82" fill="#6bb7bf"/><path d="m787.501 2167c135.033 0 244.499-108.79 244.499-243h-489c0 134.21 109.468 243 244.501 243z" fill="#efcbab"/><path d="m847 2165.13c-9.911 1.24-20.02 1.87-30.279 1.87-134.607 0-243.721-108.8-243.721-243h60.551c0 123.98 93.129 226.26 213.449 241.13" fill="#ffebdc"/><path d="m1035 2180h-495c0-17.12 13.486-31 30.12-31h434.76c16.63 0 30.12 13.88 30.12 31" fill="#efcbab"/><path d="m1037 1930h-502v-6h502z" fill="#efcdaf"/><path d="m3201 2097.96s5.08 80.73 20.91 81.89c2.1.15 80.29.15 80.29.15l99.8-.57s-.66-23.71-29.83-28.74c-29.17-5.01-78-25.24-95.67-63.28-18.6-40.02-75.5 10.55-75.5 10.55z" fill="#163560"/><path d="m3148.57 1133s46.89 26.49 60.02 26.49 64.66-9.9 79.03-2.6c14.35 7.29 40.35 36.63 45.24 46.21 8.76 17.24-35.33 9.63-56.16-5.05-3.03-2.13-6.78-2.92-10.4-2.14-10.8 2.34-33.23 6.39-44.04 2.41-14.57-5.36-91.26-11.3-91.26-11.3z" fill="#e49963"/><path d="m2791 769.329s48.58 346.201 128.99 377.201c39.68 15.3 215.04 49.99 266.91 53.47 0 0 12.71-10.34 9.61-52.43 0 0-183.72-67.65-209.83-104.44-38.84-54.756 24.12-223.693-24.62-275.125-48.75-51.416-130.84-73.528-171.06 1.324z" fill="#ed7d2b"/><path d="m2806.17 1498.08c14.2 24.08 30.63 46.65 47.56 68 52.33 66.03 109.3 120.47 119.23 171.93 1.97 10.26 5.1 21.31 9.2 32.94 4.15 11.78 9.27 24.18 15.18 36.99 22.2 48.22 55.42 102.23 88.59 151.34 57.31 84.87 111.21 155.72 111.21 155.72l98.86-4.21c-3.97-9.91-47.07-127.11-104.76-270.34-23.41-58.16-48.31-120.01-72.34-179.63-3.21-7.97-6.41-15.91-9.58-23.78-7.33-18.25-14.57-36.21-21.63-53.71-54.16-134.49-97.29-241.59-97.29-241.59s-216.45-81.94-238.93-28.84c-18.53 43.78-3.43 86.67 54.7 185.18" fill="#599dad"/><path d="m2972.38 1864s-68.57 44.16-61.93 58.51c.9 1.92 38.79 69.93 38.79 69.93l48.88 86.56s20.57-12.25 10.84-40.11c-9.73-27.84-15.59-80.3 9.31-114.4 26.2-35.88-45.89-60.49-45.89-60.49z" fill="#163560"/><path d="m3005.19 1942s-42.94-37.9-50.5-65.71c0 0 176.92-212.19 215.3-259.74 1.77-2.19 1.31-4.58-1.01-7.21-28.98-32.7-350.9-99.18-392.97-164.7-14.5-22.57-22.71-44.01-27.19-62.74-9.53-39.98-1.99-67.59-1.99-67.59l321.5-9.31s267.68 166.83 298 280.58c30.3 113.77-361.14 356.42-361.14 356.42z" fill="#6bb7bf"/><path d="m3169 1610c-28.97-32.74-350.77-99.29-392.83-164.89-14.49-22.59-22.7-44.06-27.17-62.8v-40.77l136.59-21.54s38.73 119.48 153.46 164.29c107.45 41.97 127.8 116.43 129.95 125.71z" fill="#5aa9ad"/><path d="m2981 747.038c-65.47 16.814-174-43.439-174-43.439s42.14-28.144 57.76-89.948c.79-3.102 1.5-6.301 2.14-9.583 6.85-1.436 19.79-4.162 33.62-7.068l50.01 44.5s-1.15 18.48-7.39 50.231c-1.09 5.55-2.34 11.492-3.77 17.826 26.84 16.52 41.63 37.481 41.63 37.481" fill="#e49963"/><path d="m2738.75 1017.06c9.32 125.4-2.95 316.13 7.64 349.16 9.15 28.5 113.3 11.56 154.88 2.04 15.38-3.52 34.04-8.55 53.28-14.5 53.71-16.6 112.22-40.31 118.49-57.91.25-.69.46-1.37.59-2.02.57-2.56.44-4.95-.12-7.38-2.09-8.97-10.16-18.68-11.11-40.89-1.06-24.8-.9-54.01-1.83-85.41-.05-3.54-.1-7.4-.49-10.92l-.02-1.28c-.01-.68-.03-1.34-.05-2.01-.9-35.03-2.73-71.85-4.86-108.37-1.34-22.93-2.91-45.645-4.71-67.407-4.68-56.178-10.99-106.127-19.34-137.711-13.66-51.485-43.76-85.062-71.15-109.669l-19.82-16.977c-22.12 4.82-48.25 1.634-71.9-9.558-25.61-12.14-34.44-20.833-38.89-17.549-59.11 45.522-101.62 185.059-90.59 338.361" fill="#f99746"/><path d="m2954.31 1354c53.53-16.61 111.86-40.31 118.1-57.91.25-.7.46-1.37.59-2.03-.03-2.46-.07-4.92-.11-7.38-2.09-8.97-10.13-18.67-11.08-40.89-1.06-24.8-.9-54-1.83-85.41-.05-3.54-.09-7.39-.49-10.91l-.01-1.29c-.02-.67-.03-1.33-.05-2.01l-216.38-276.17s-145.46 303.43 111.26 484z" fill="#ed7d2b"/><path d="m2951 641.627s-1.15 18.532-7.42 50.373c-48.97-15.716-71.16-59.655-78.58-78.302.79-3.11 1.5-6.319 2.14-9.609 6.87-1.441 19.84-4.175 33.72-7.089z" fill="#d68d5d"/><path d="m2956.51 669.942s-105.55-17.726-93.56-83.727 6.43-112.751 74.31-104.208c67.9 8.527 76.38 36.108 77.7 59.131 1.32 23.006-30.7 131.723-58.45 128.804" fill="#e49963"/><path d="m3374 1231.97 9.35 3.03 79.65-243.972-9.35-3.028z" fill="#4a75cb"/><path d="m3113.34 1213 270.66 5.79-.34 16.21-270.66-5.79z" fill="#4a75cb"/><path d="m3118 1242.28s86.72 22.95 119.23 20.54c32.52-2.41 59.56-17.93 63.65-26.04 4.11-8.11 12.69-22.48-9.45-19.83-22.13 2.65-52.35 7.38-53.3 3.11-.93-4.27 18.05-3.87 18.05-3.87s5.74-8.38-1.48-8.68c-7.23-.3-28.3-6.04-36.14-2.11-7.83 3.93-15.05 18.44-20.76 17.83-5.72-.6-72.57-30.23-72.57-30.23z" fill="#e49963"/><path d="m2812 783.293s10.22 349.367 86.85 389.067c37.81 19.6 208.57 73.44 259.81 82.64 0 0 13.79-8.87 15.34-51.03 0 0-175.44-87.53-197.37-126.98-32.64-58.7 48.63-219.599 5.78-276.1-42.86-56.484-122.15-87.512-170.41-17.597z" fill="#f99746"/><path d="m2865.27 613s-1.22-22.466 12.66-35.335c0 0-4.82-22.515 4.09-26.24 8.93-3.709 10.79 15.227 14.88 12.266 4.09-2.977 22.33-17.082 30.14-37.872 7.81-20.807 79.31 4.392 87.64 8.134 8.34 3.741 35.12-10.005 40.32-21.133 0 0-14.88-11.892-21.58-20.79-6.68-8.915-53.56-69.075-119.03-51.994-65.47 17.082-74.4 48.268-70.67 75.013 3.72 26.729-5.28 88.987 21.55 97.951" fill="#2b478b"/><path d="m875.401 747.44 56.54-5.391c4.533-.441 8.821 2.14 10.571 6.339l42.686 102.649c2.679 6.437-1.647 13.642-8.599 14.295l-58.831 5.62c-4.613.442-8.958-2.221-10.649-6.535l-40.395-102.877c-2.517-6.405 1.81-13.446 8.677-14.1" fill="#233862"/><path d="m1591 2104.08-29.96 15.92s-161.93-171.89-200.86-336.85c-6.96-29.45-9.77-58.49-6.79-86.06 0 0-2.36-7.47-6.47-20.67-.18-.57-.37-1.18-.55-1.77-1.8-5.8-3.97-12.61-6.37-20.33-7.82-24.92-18.56-59.04-30.79-97.87-28.19-89.36-92.66-290.91-120.21-374.74l198-71.71s22.48 51.34 54.8 190.87c4.98 18.22 9.96 38.35 14.61 60.3 5.29 24.85 10.22 52.03 14.32 81.39 6.94 49.73 11.58 105.69 11.87 167.07.11 24.97-.51 50.86-1.98 77.58-1.09 19.57 1.83 45.67 7.29 75.37 24.94 135.75 103.09 341.5 103.09 341.5" fill="#2b478b"/><path d="m1700 2180h-160.3s-6-25.5 4.53-42.88c9.32-15.35 5.74-24.11-1.16-36.82 7.28 2.97 16.66 5.67 27.01 5.07 7.98-.46 16.43-4.06 23.83-8.37 6.9 7.86 36.45 41.28 45.68 47.89 10.48 7.52 57.19 4.84 60.41 35.11" fill="#233862"/><path d="m1471 1442.76-124.48 232.24c-1.8-5.81-3.98-12.62-6.38-20.34-7.82-24.94-18.58-59.08-30.82-97.94-28.22-89.41-92.75-291.08-120.32-374.97l198.19-71.75s22.5 51.37 54.85 190.99c4.99 18.22 9.97 38.37 14.63 60.33 5.29 24.87 10.23 52.06 14.33 81.44" fill="#233862"/><path d="m931.249 930.989c-.999.855-48.751-47.663-74.249-74.541l25.541-15.448 139.459 87.004z" fill="#ffb27d"/><path d="m1185.65 2130.16s-3.74 27.04 6.74 49.84h66.61s.49-19.68-16.48-44.4c-16.95-24.72-56.87-5.44-56.87-5.44z" fill="#233862"/><path d="m1316.85 359.389c.9-4.245 12.25-49.825 83.05-40.008 0 0-35.32-1.901-43.94 12.26 0 0 26.83-14.685 44.96-5.294 18.14 9.375 23.56 44.925 21.75 55.988-1.82 11.063-18.68 44.826-31.38 45.744-4.82.344-10.07-.885-14.76-2.557 2.36 5.622 4.57 11.752 6.53 18.504 18.04 62.479-20.72 113.73-43.41 103.371-14.55-6.637-23.39 18.603-23.39 18.603l-127.26-145.558s73.99-103.027 127.85-61.053z" fill="#2c3a64"/><path d="m1187 748.28c16.52 11.459 37.22 20.91 63.21 26.917 97.43 22.509 134.76-59.873 148.79-116.416-13.3-7.607-25.8-9.272-33.01-10.137-7.05-.832-14.45-1.387-20.59-1.697-10.93-8.374-27.23-42.685-30.84-95.947l-4.58 1.224-76.79 21.024s3.51 24.42 5.24 47.5c1.34 18.054 1.55 35.323-1.87 39.535-5.99 1.306-9.6 2.154-9.6 2.154s0 .033-.03.066c-1.03 1.697-23.32 38.342-39.93 85.777z" fill="#ffb27d"/><path d="m1234 573.17s3.49 24.556 5.18 47.83c43.06-4.389 63.04-46.121 70.82-69z" fill="#ed985f"/><path d="m1220.05 596s103.34-5.685 98.8-69.833c-4.54-64.132 5.74-108.065-60.44-107.153-66.18.928-77.25 26.308-80.95 48.07-3.71 21.78 15.58 128.737 42.59 128.916z" fill="#ffb27d"/><path d="m1177.95 431.398c14.54-20.424 26.89-17.055 34.05-11.733 54.12-34.941 93.69 8.153 93.69 8.153 10.2 45.485 45.31 69.441 45.31 69.441s-17.95 12.921-62.06 4.914c-13.47-2.457-25.96-10.985-36.81-21.644 19.63 28.056 45 47.471 45 47.471-53.43-20.163-79.38-90.483-81.98-97.92-5.89 6.086-17.42 19.219-20.33 31.506-3.97 16.681-3.87 50.433-13.75 49.994 0 0-24.94-49.571-3.12-80.182" fill="#2c3a64"/><path d="m1203.33 656.568s168.44-41.008 241.67 19.561l-36.6 511.871-329.4-79.8s9.27-32.39 72.43-118.518c63.18-86.12 35.69-212.468 51.9-333.114z" fill="#ffb27d"/><path d="m1302 1130.79s-.2 1.73-.54 5.02c-.14 1.42-.34 3.13-.54 5.13-1.41 13.22-4.09 38.59-7.54 71.58-9.01 86.52-23.18 225.48-32.81 335.16-7.55 85.76-12.34 153.63-9.75 164.52 7.78 32.79 0 424.84 0 424.84-27.93 13.41-70.27 0-70.27 0s-74.4-353.29-63.98-402.39c10.41-49.09-6.97-91.02-6.97-91.02-57.76-269.49-51.43-418.86-39.96-490.36 3.33-20.8 7.11-35 9.88-43.66 2.33-7.37 3.95-10.73 3.95-10.73 127.42-34.35 218.53 31.91 218.53 31.91" fill="#2b478b"/><path d="m1408 1187.02c-39.3 16.38-78.48 23.54-115.59 24.78-33.92 1.13-66.11-2.69-95.12-8.95-63.21-13.64-111.34-38.88-129.29-49.9 3.34-20.65 7.13-34.76 9.91-43.36 38.91-27.48 135.1-1.19 213.7 27.97 2.8 1.05 5.59 2.1 8.37 3.15 60.19 22.83 108.02 46.31 108.02 46.31" fill="#233862"/><path d="m1467.6 822.737c-8.11 61.399-40.63 136.55-52.24 177.002 0 0 19.4 140.431.87 178.991-2.09 4.4-4.7 7.47-7.91 8.86-68.65 29.92-336.01.86-347.3-85.43-4.1-31.35 101.84-141.635 108.01-155.014 2.57-5.536 5.3-23.472-7.12-60.657-17.61 54.3-50.13 117.011-82.83 127.701-35.95 11.77-178.074-94.192-178.074-94.192s-.82-12.874 17.147-25.046c11.553-7.826 38.09-10.473 38.09-10.473l90.887 40.698c11.4-19.524 39.82-154.608 71.54-215.582 23.86-45.829 87.55-52.478 87.55-52.478s26.5 42.071 90.62 36.107c64.09-5.963 75.82-45.224 75.82-45.224s56.86 7.548 74.37 21.697c3.03 2.451 31.24 72.574 20.57 153.04" fill="#f99746"/><path d="m1415.55 999.504s19.48 140.826.87 179.496c-50.22-25.19-115.68-79.56-95.75-164.52 28.93-123.435 147.33-192.48 147.33-192.48-8.15 61.573-40.79 136.937-52.45 177.504" fill="#ed7d2b"/><path d="m1373 905s-71.2 10.363-76.88 15.691c-5.69 5.329-25.33 36.348-22.92 47.135 2.44 10.784 2.18 21.902 6.54 21.137 4.36-.768 18.58-28.178 23.95-29.435 5.38-1.259 9.8-4.952 10.46-2.545.65 2.407-10.93 13.937-10.36 17.216.57 3.28 9.69-.56 13.78-6.922 4.1-6.364 14.33-9.513 15.86-13.476 1.54-3.963 8.59-17.089 18.18-16.487 9.58.6 21.39-32.314 21.39-32.314" fill="#ffb27d"/><path d="m1442.73 902-69.84 2.789-23.89 32.082 95 3.129z" fill="#ffb27d"/><path d="m1373 648s82.77 9.78 105.56 45.195c28.81 44.754 130.6 193.205 128.41 238.132 0 0-63.41 25.2-233.9 11.692 0 0-3.1-25.727 32.77-46.365 0 0 91.53-12.508 101.61-21.357l-67.96-72.037z" fill="#f99746"/><path d="m863.398 748.437 56.542-5.391c4.533-.425 8.823 2.14 10.569 6.355l42.689 102.652c2.678 6.437-1.646 13.626-8.598 14.296l-58.832 5.603c-4.614.442-8.959-2.222-10.652-6.535l-40.392-102.864c-2.518-6.421 1.811-13.462 8.674-14.116" fill="#2b478b"/><path d="m857.841 857s-14.899-26.044-13.781-32.46 16.536-36.164 24.459-39.124c14.152-5.275 34.015-8.549 28.555 6.548-3.608 9.971-17.879 24.407-15.397 28.938 2.483 4.531 1.532 20.455 1.532 20.455z" fill="#ffb27d"/><path d="m3109.32 1965.64c-20.23 129.74-152.62 212.36-288.38 212.36h-268.94l21.03-756.17s256.6-82.37 321.04-4.02c56.46 68.64 209.58 340.36 217.63 501.18.8 16.14-.03 31.72-2.38 46.65" fill="#f9ddbf"/><path d="m2395 1502.18s362.75-185.11 431.45-64.19c36.48 64.21 136.87 320.37 144.27 481.12 7.21 156.19-128.13 258.89-267.36 258.89h-247.27z" fill="#c6916d"/><path d="m2463.49 1605.26c-3.06 15.73-32.43 30.33-76.03 43.23-7.68 2.29-15.78 4.51-24.29 6.68-148.35 37.87-411.1 59.02-436.15 47.85-34.61-15.43-247.02-769.722-247.02-769.722s202.76-7.623 363.78-11.33c55.1-1.258 105.29-2.058 140.83-1.96 4.31.016 8.38.31 12.2.849 15.38 2.205 26.8 8.606 35.84 18.33 25.93 27.849 32.35 82.853 56.35 143.643 23.74 60.11 52.88 135.13 80.49 209.59 7.12 19.18 14.15 38.33 20.95 57.19 1.92 5.32 3.82 10.61 5.71 15.88 40.84 114.18 72.27 214.3 67.34 239.77" fill="#efcbab"/><path d="m3108 1966.49c-20.17 129.22-152.14 211.51-287.48 211.51h-131.52c87.7-59.39 166.99-242.43 419-211.51" fill="#eac3a0"/><path d="m2396.04 1364.85c-6.76-1.1-15.47-2.53-25.36-4.21-2.06-2.1-3.68-4.22-4.65-6.33-3.97-8.73-1.26-33.8 3.29-62.56-27.66-74.49-56.84-149.55-80.62-209.69-24.05-60.83-30.48-115.858-56.46-143.721-9.05-9.728-20.49-16.133-35.89-18.339-21.44.31-44.08.686-67.43 1.111-8.3 16.424-22.59 31.919-47.29 44.897-110.2 57.902-28.46 177.232-28.46 177.232.8.54 43.75 85.74 43.75 85.74-.15-5.95 5.63-16.6 15.53-30.16 7.32 50.94 19.2 102.95 33.41 140.18-7.78 39.34-27.76 97.92-38.47 142.73-8.56 35.74-11.19 62.68 2.93 64.01 1.59.14 3.36.13 5.26 0-.89 12.46 1.55 25.58 8.61 39.18 27.61 53.29 160.46 62.88 263.14 63.08 43.67-12.91 73.1-27.51 76.16-43.25 4.94-25.49-26.55-125.66-67.45-239.9" fill="#e0b594"/><path d="m2897.66 2061.9c-51.94 72.06-131.6 118.24-220.34 116.81l-381.53.19-182.79.1 205.66-676.38s520.52-51.72 584.71 17.24c29.8 32.02 46.54 177.01 55.91 323.16 5.28 82.41-18.74 159.45-61.62 218.88" fill="#d39e7a"/><path d="m2897 2061.61c-51.95 72.3-131.63 118.63-220.39 117.19l-381.61.2c44.9-37.75 186.14-144.89 337.34-139.83 114.61 3.85 205.65 2.21 264.66 22.44z" fill="#c6916d"/><path d="m2428.63 1029s31.66 46.81 49.73 145.21c15.8 86.18 29.69 117.99 52.52 135.67 22.85 17.67 150.12 69.85 150.12 69.85l-9.52 22.27s-186.54-25.38-207.5-56.52c-20.95-31.14-100.83-215.15-94.64-257.53 6.21-42.37 59.29-58.95 59.29-58.95" fill="#f4a269"/><path d="m2885.03 2057.8c-1.66 18.18 23.63 22.6 52.95 24.05 29.3 1.47 20.44 7.47 60.62 14.74 40.15 7.27 56.25-3.71 59.16-9.14 2.59-4.81-16.09-12.35-36-20.85-2.49-1.06-5-2.16-7.5-3.27-22.4-9.84-34.97-29.92-52.44-48.55-16.53-17.64-32.24-74.11-32.24-74.11l-54.58-11.67s15.32 50.84 20.64 72.54c3.13 12.76-1.48 27.04-5.58 37.91-2.2 5.9-4.44 11.94-5.03 18.35" fill="#ffb27d"/><path d="m2938.01 2081.72c29.3 1.48 20.44 7.53 60.6 14.85 40.14 7.33 56.24-3.73 59.15-9.21 2.59-4.85-16.09-12.44-35.99-21.01l-.31.35s-28.23 9.65-60.81.72c-26.57-7.26-52.25-23.26-70.55-28.42-2.2 5.95-4.44 12.03-5.02 18.49-1.67 18.32 23.62 22.77 52.93 24.23z" fill="#c65447"/><path d="m2341.3 1409.89s363.25-27.3 431.64 15.8c68.37 43.09 178.06 545.07 178.06 545.07s-6.77 5.42-21.9 7.05c-14.05 1.52-45.02-6.74-45.02-6.74s-157.62-224.59-168.73-281.18c-11.1-56.57-8.39-107.08-33.67-108.41-25.28-1.36-340.43 38.24-388.12-45.61-47.67-83.86-8.25-166.87-8.25-166.87z" fill="#163560"/><path d="m2746.09 2115.79c-1.69 18.18 23.76 22.6 53.22 24.07 29.47 1.45 20.56 7.46 60.96 14.73 40.39 7.27 56.57-3.72 59.49-9.15 2.61-4.81-16.18-12.34-36.18-20.85-2.53-1.06-5.04-2.16-7.56-3.25-22.53-9.86-35.16-29.94-52.72-48.56-16.64-17.64-32.42-74.13-32.42-74.13l-54.88-11.65s15.41 50.83 20.75 72.53c3.15 12.76-1.49 27.04-5.62 37.91-2.22 5.9-4.47 11.96-5.04 18.35" fill="#ffb27d"/><path d="m2799.31 2140.02c29.47 1.44 20.56 7.39 60.95 14.6 40.4 7.19 56.58-3.69 59.5-9.07 2.61-4.77-16.18-12.22-36.18-20.66l-.31.34s-28.41 9.51-61.19.72c-26.71-7.15-52.55-22.87-70.96-27.95-2.22 5.85-4.47 11.85-5.04 18.18-1.69 18.01 23.76 22.39 53.23 23.84" fill="#c65447"/><path d="m2270.6 1433s322.32 15.26 388.9 60.99c66.58 45.74 156.5 551.75 156.5 551.75s-6.97 5.14-22.12 6.19c-14.1.98-44.69-8.49-44.69-8.49s-148.57-230.62-157.45-287.6c-8.88-57-4.21-107.35-29.38-109.69-25.19-2.33-341.28 25.01-385.6-60.67-44.31-85.67 93.84-152.48 93.84-152.48" fill="#1c468a"/><path d="m2384.76 721.98c-14.26-9.469-31.98-11.582-44.44-11.68 3.41-3.113 9.8-3.899 9.8-3.899-7.64-1.671-25.35 4.865-25.35 4.865-104.44-48.753-131.81 108.958-132 145.998-.22 37.057-2.76 79.552-58.46 109.058-109.6 58.058-28.29 177.698-28.29 177.698.79.55 43.51 85.98 43.51 85.98-.73-30 146.41-178.2 220.87-220.54 19.06-24.564 28.24-69.598 28.94-73.143-5.37 35.832-12.84 55.635-19.08 66.653 64.11-51.898 42.31-255.876 4.5-280.99" fill="#b5453c"/><path d="m2255.49 974s28.9 1.251 59.36 4.141c20.71 1.962 42.8 4.24 54.47 9.112 28.83 12.039 25.82 63.027-34.7 53.587s-83.37-51.719-79.13-66.84z" fill="#ffb27d"/><path d="m2366.84 1011.5c.35.19 8.59 43.17-30.81 41.45-25.87-1.13-81.65-32.06-76.72-53.944 2.34-10.405 21.88-37.397 25.82-99.006l4.69 1.238 79.18 20.991s-3.51 24.831-5.16 48.334c-1.38 19.734-1.43 38.527 3 40.937" fill="#ffb27d"/><path d="m2369 921.893s-3.5 24.715-5.15 48.107c-44.7-4.188-65.65-46.032-73.85-69z" fill="#f4a269"/><path d="m2282.51 892s-20.8-38.516-24.28-70.496c-2.48-22.838 14.46-105.703 97.16-88.059 0 0 24.08 4.047 45.86 21.069 17.3 13.532 41.69 41.907 7.62 112.911l-9.23 24.149z" fill="#b5453c"/><path d="m2381.58 945s-105.78-5.29-101.45-70.985c4.31-65.678-6.44-110.598 61.29-110.009 67.72.605 79.17 26.533 83.08 48.813 3.9 22.263-15.28 131.865-42.92 132.181z" fill="#ffb27d"/><path d="m2390 766.114s-33.87 74.685-78.76 83.076-63.24-4.683-63.24-4.683 35.63-24.586 45.79-70.962c0 0 76.95-45.335 96.21-7.431z" fill="#b5453c"/><path d="m2382 771.446s20.43 18.792 24.57 36.002c4.14 17.193 4.22 52.057 14.34 51.546 0 0 25.25-51.315 2.76-82.817-23.83-33.397-41.67-4.731-41.67-4.731z" fill="#b5453c"/><path d="m2486.97 1415.28c-8.53 10.21-35.19 13.34-63.66 18.03-22.43 3.7-45.96 8.35-62.7 18.19-38.03 22.33-162.25 97.82-198.65 94.39-14.12-1.34-11.47-28.3-2.92-64.07 13.45-56.5 41.63-134.95 41.63-169.07 0-18.61 6.19-62.67 14.45-113.05.67-4.06 1.35-8.15 2.04-12.28 16.36-97.94 39.01-213.42 39.01-213.42s25.27 55.15 74.48 55.15 37.79-42.058 37.79-42.058 44.91 5.286 55.52 16.718c10.62 11.44 37.53 60.87 42.87 74.35 0 0 1.08 17.16-41.37 25.32 0 0 10.35 46.57 11.58 77.61.9 22.93-15.65 94.7-20.4 139.34-1.7 15.81-1.91 28.22.65 33.84 3.29 7.21 13.91 14.4 25.99 21.44 23.99 13.97 53.82 27.43 43.69 39.57" fill="#1c468a"/><path d="m2443.37 1375.89c27.25 46.43-73.92 60.39-90.66 70.22-38.03 22.31-154.33 103.21-190.74 99.78-14.13-1.34-11.48-28.27-2.93-64 13.46-56.44 41.64-134.81 41.64-168.9 0-18.6 6.2-62.61 14.45-112.93l43.85-42.06s46.97 121.32 91.75 141.2c23.46 10.41 47.97 17.28 65.99 21.46-1.7 15.8-1.91 28.19.65 33.81 3.29 7.21 13.91 14.38 26 21.42z" fill="#163560"/><path d="m2243.48 1010.99s-37.46-22.746-73.66 20.41c-36.22 43.15 25.73 351.6 79.4 367.45 59.6 17.6 231.78-2.82 231.78-2.82l-3.32-26.91s-183.3-35.15-190.92-44.94c-7.61-9.79-24.24-308.21-43.28-313.19z" fill="#ffb27d"/><path d="m2256.83 974s-76.75 6.962-99.03 32.35c-22.3 25.38-28.8 94.17-28.8 94.17s67.58 54.86 149 33.57z" fill="#1c468a"/><path d="m2600 1422h-101v-11h101z" fill="#9e332e"/><path d="m2579 1421c.99-3.97 93.09-149 93.09-149h204.91l-102.79 145.11z" fill="#9e332e"/><path d="m2588 1422c.99-3.95 93.26-150 93.26-150h195.74l-97.67 150z" fill="#b5453c"/><path d="m2760.4 1347.5c-1.98 6.35-8.24 11.5-13.98 11.5-5.75 0-8.8-5.15-6.82-11.5s8.24-11.5 13.98-11.5c5.75 0 8.8 5.15 6.82 11.5z" fill="#9e332e"/><path d="m2462 1368.1s60.17-11.52 66.97-8.64c6.79 2.88 44.64 36.49 40.75 43.21-3.87 6.72-19.4 11.52-36.88 5.76-17.46-5.76-55.31-8.64-62.09-17.28-6.81-8.64-8.75-23.05-8.75-23.05" fill="#ffb27d"/><path d="m2580.46 1972.43c-21.76 125.82-141.2 205.57-263.63 205.57h-246.83l19.31-756.17s235.51-82.37 294.66-4.02c51.82 68.64 192.36 340.36 199.75 501.18.87 18.61-.29 36.44-3.26 53.44" fill="#f9ddbf"/><path d="m2581 1972.61c-21.8 125.72-141.46 205.39-264.11 205.39h-197.89c92.64-62.74 217.35-236.08 462-205.39z" fill="#eac3a0"/><path d="m2197.72 2177.02c-1.85.13-3.69.24-5.54.36-3.92.2-7.84.34-11.77.39-1.29.02-2.61.03-3.92.03h-247.15l-.02-.11c-4.7.06-9.47.11-14.27.18-25.46.31-52.02.6-76.68.82-4.13.04-8.2.08-12.22.11-1.48 0-2.98 0-4.44.02-24.36.16-45.9.24-61.27.13-21.6-.15-41.96-1.67-61.12-4.71-24.7-3.9-47.39-10.32-68.11-19.48-7.48-3.29-14.69-6.97-21.67-11-9.37-5.39-18.32-11.5-26.79-18.27-21.94-17.52-40.91-39.68-57.03-66.95-11.23-18.97-21.1-40.45-29.62-64.56-10.74-30.25-19.37-64.67-26-103.59-9.5-55.57-14.92-120.26-16.57-195.07-.65-30.12-.7-61.88-.15-95.34.88-53.46 3.3-111.27 7.16-173.65 5.43-87.61 13.73-184.26 24.7-290.63 10.01-97.17 21.54-165.083 38.33-180.558 24.77-22.821 76.4-32.002 112.33-35.693h.03c22.31-2.269 38.51-2.449 38.51-2.449 43.89 0 82.9 31.51 96.99 78.334 28.68 95.346 79.89 265.806 133.19 444.106.26.9.54 1.79.8 2.69 3.05 10.24 6.12 20.51 9.19 30.8.48 1.56.95 3.13 1.42 4.69 3.01-1.34 6.13-2.74 9.34-4.16.1-.06.2-.1.33-.15 12.77-5.66 27.24-11.86 42.85-18.18 8.1-3.28 16.47-6.6 25.13-9.92 24.38-9.34 50.72-18.58 77.4-26.55 11.84-3.54 23.76-6.84 35.62-9.76 15.22-3.77 30.32-6.96 45.03-9.33.51-.09.92-.15 1.28-.21 1.74-.28 3.48-.54 5.21-.79 63.45-9.32 118.53-2.85 141.31 37.34 36.47 64.37 136.8 321.17 144.19 482.33 6.86 148.61-114.66 248.92-246 258.78" fill="#d39e7a"/><path d="m1801.26 1508s-126.8-516.937-135.96-560.384c-4.08-19.362-16.65-26.369-29.3-28.166 22.28-2.27 38.49-2.45 38.49-2.45 43.88 0 82.88 31.423 96.96 78.125 30.71 101.865 87.25 289.705 144.55 481.035-2.91-.08-114.74 31.84-114.74 31.84" fill="#f9ddbf"/><path d="m2268.92 1756.71c-33.88-56.1-5.42-66.63-10.62-192.31-5.2-125.66-63.62-115.29-87.85-139.58-4.43-4.48-8.2-13.6-11.75-25.82-1.73.25-3.46.51-5.2.79-.36.06-.77.12-1.27.21-14.69 2.37-29.76 5.56-44.95 9.33-11.84 2.92-23.73 6.21-35.55 9.76-26.63 7.96-52.92 17.2-77.25 26.55-8.64 3.31-17 6.63-25.09 9.91-20.96 131.84-53.39 722.63-53.39 722.63.26.28.52.56.78.82 26.49-.23 55.12-.56 82.34-.88 3.9-.05 7.74-.1 11.57-.15l.02.12h186.16c.24-.13.5-.3.75-.45.16-.09.34-.21.5-.31 50.01-31.06 38.84-93.38 27.08-132.45-4.75-41.76-23.18-90.71-38.24-136.19 4.68-13.85 11.25-21.77 39.41-32.18 31.29-11.55 39.51-60.88 39.51-60.88 8.36 22.05-10.76 52.5-11.27 53.3 1.08-1.27 47.82-56.78 14.31-112.22" fill="#c6916d"/><path d="m1852.21 1502s-188.28 82.17-222.44 80.67c-34.19-1.49-244.77-64.25-244.77-64.25l5.36 36.29s162.51 93.63 219.33 98.94c55.94 5.23 247.21-50.29 265.68-62.01 18.46-11.72 30.5-77.78-23.16-89.64" fill="#ed985f"/><path d="m1880.29 1199.45s69.46-13.21 104.06 12.07c62.66 45.8 66.03 203.7 89.51 227.22s80.1 13.48 85.15 135.19c5.03 121.7-22.55 131.87 10.29 186.21 32.84 54.33-13.89 108.7-13.89 108.7s19.14-29.99 10.93-51.64c0 0-7.96 47.78-38.28 58.97-30.33 11.2-34.82 19.41-39.66 35.83 0 0-258.71-132.68-258.99-226.77-.3-94.12-50.92-187.33-26.05-228.11 0 0-11.08 17.45-12.43 36.86 0 0-14.92-28.61 10.93-55.24 25.87-26.63-30.33-81.74-22.01-145.57 5.72-43.81 36.44-91.82 100.44-93.72" fill="#233862"/><path d="m1829 1591.28c16.51 11.46 37.22 20.91 63.21 26.92 97.43 22.51 134.77-59.86 148.79-116.41-13.28-7.61-25.78-9.28-33.01-10.14-7.03-.83-14.44-1.39-20.57-1.69-10.95-8.38-27.25-42.69-30.86-95.96l-4.58 1.23-76.79 21.02s3.53 24.42 5.26 47.5c1.32 18.06 1.53 35.32-1.88 39.54-6.01 1.3-9.59 2.15-9.59 2.15s0 .03-.04.08c-1.04 1.69-23.31 38.34-39.94 85.76" fill="#ffb27d"/><path d="m1876 1416.17s3.5 24.57 5.18 47.83c43.06-4.39 63.05-46.11 70.82-69z" fill="#ed985f"/><path d="m1862.05 1440s103.34-5.72 98.8-70.23c-4.54-64.5 5.75-108.68-60.44-107.76-66.17.93-77.25 26.45-80.95 48.35-3.71 21.9 15.59 129.46 42.59 129.64" fill="#ffb27d"/><path d="m1820.38 1274.4c14.5-20.42 26.82-17.05 33.97-11.74 53.97-34.94 93.45 8.16 93.45 8.16 10.17 45.48 45.2 69.44 45.2 69.44s-17.91 12.92-61.9 4.91c-13.45-2.45-25.89-10.99-36.72-21.65 19.58 28.06 44.88 47.48 44.88 47.48-53.31-20.16-79.17-90.47-81.79-97.92-5.87 6.09-17.35 19.23-20.26 31.5-3.95 16.69-21.01 42.77-30.88 42.33 0 0-7.71-41.9 14.05-72.51" fill="#233862"/><path d="m2070.84 1801.79c9.33-47.64 39.76-237.94 9.33-299.17-10.93-22-53.84-23.98-100.91-22.05-14.65 9.43-70.46 45.1-93.39 40.65-.24-.05-.68-.17-1.27-.31-10.8-2.69-14.89-10.26-5.87-16.79.02-.01-23.31-2.24-52.26 3.2-16.36 3.07-60.47 25.85-60.47 25.85s22.22 40.04 54.96 53.86c-5.57 49.71 2.71 71.64 54.41 186.47 43.67 97.06-5.9 184.45-5.9 184.45s257.08 206.27 258.52 101.24c1.08-79.07-69.1-196.52-57.15-257.4z" fill="#b5453c"/><path d="m1856.39 2183.37c-13.98-1.58-26.55-9.24-34.37-20.96-1.25-1.87-2.57-3.86-3.97-6.01-29.25-44.36-40.63-180.25-106.43-325-16.02-35.25-73.55-41.58-89.23-81.43 0 0-38.6-129.13 73.9-132.94s301.29 359.3 304.26 397.38c2.89 36.89 74.39 193.67-144.16 168.96" fill="#dd6d22"/><path d="m1409 2180h160.3s6-25.5-4.53-42.88c-9.32-15.35-5.76-24.11 1.14-36.82-7.26 2.97-16.64 5.67-26.99 5.07-7.98-.46-16.43-4.06-23.83-8.37-6.9 7.86-36.45 41.28-45.68 47.89-10.48 7.52-57.19 4.84-60.41 35.11" fill="#9e332e"/><path d="m2054.83 1552s20.99 189.41-115.12 229.1c-136.12 39.68-174.75-174.27-64.86-189.67 109.91-15.38 179.98-39.43 179.98-39.43z" fill="#9e332e"/><path d="m1618.88 1655.37c-9.68 72.27-47.42 300.41-114.04 411.73-21.47 35.88 54.11 56 54.51 55.9 10.14-2.65 27.03-18.76 34.8-25.77 54.08-48.58 163.85-186.19 163.85-296.51 0-53.79.95-156.52-38.27-182.64-24.16-16.06-97.02 8.58-100.85 37.29z" fill="#ed7d2b"/><path d="m1952.54 2180.37s-5.95-8.24-16.3-23.94c-12.33-18.64-25.98-55.33-42.53-102.39-17.39-49.38-38.01-110.13-63.8-173.36-7.96-19.51-16.39-39.26-25.39-58.99-16.04-35.15-60.18-30.3-75.88-70.05 0 0-61.28-137.81 51.36-141.61 112.63-3.81 326.68 368.66 338.97 404.73 13.46 39.48 79.15 203.46-166.43 165.61z" fill="#f99746"/><path d="m1527 2180h160.3s5.99-25.5-4.52-42.88c-9.32-15.35-5.76-24.11 1.14-36.82-7.26 2.97-16.66 5.67-26.99 5.07-8-.46-16.43-4.06-23.84-8.37-6.9 7.86-36.44 41.28-45.68 47.89-10.48 7.52-57.19 4.84-60.41 35.11" fill="#b5453c"/><path d="m1893.53 2054c-17.32-49.54-37.85-110.51-63.53-173.95 6.71-48.05 21.17-90.11 45.49-107.05 0 0 58.99 183.91 18.04 281" fill="#ed7d2b"/><path d="m1712.73 1649.43c-9.66 72.42-23.29 306.07-89.89 417.58-21.47 35.94 54.11 56.09 54.52 55.99 10.13-2.65 27.02-18.8 34.79-25.81 54.08-48.67 163.85-186.51 163.85-297.02 0-53.88-63.31-152.47-102.53-178.63-24.16-16.09-56.89-.86-60.74 27.89z" fill="#f99746"/><path d="m1365.48 1424.58 164.09-17.52c4.78-.51 9.3 2.28 11.02 6.8l58.71 155.1c2.57 6.79-2.24 14.13-9.48 14.43l-162.82 6.6c-4.43.18-8.48-2.43-10.2-6.54l-59.97-144.17c-2.74-6.58 1.6-13.94 8.65-14.7" fill="#9e332e"/><path d="m1351.49 1427.39 164.08-17.33c4.79-.51 9.31 2.25 11.03 6.73l58.7 153.4c2.58 6.73-2.24 13.98-9.47 14.27l-162.82 6.53c-4.43.18-8.5-2.4-10.2-6.47l-59.98-142.59c-2.73-6.51 1.6-13.8 8.66-14.54" fill="#b5453c"/><path d="m1441.67 1498c-2.08-5.52.86-10 6.57-10s12.01 4.48 14.09 10-.86 10-6.57 10-12.01-4.48-14.09-10z" fill="#9e332e"/><path d="m1356.33 1441c-1.03-2.76.43-5 3.29-5s6.01 2.24 7.05 5c1.03 2.76-.43 5-3.29 5-2.84 0-6-2.24-7.05-5z" fill="#9e332e"/><g fill="#ffb27d"><path d="m2041.24 1502s-227.18 83.83-261.31 82.11c-22.07-1.11-205.46-65.7-205.46-65.7l-16.47 31.21s178.5 114.95 227.57 114.38c96.89-1.13 260.36-60.72 278.82-72.43 18.44-11.71 30.46-77.72-23.15-89.57"/><path d="m1575 1518.45s-16.64-25.66-33.19-26.42c-16.56-.75-45.17 11.33-54.94 13.21-9.78 1.89-37.63 10.94-29.35 24.54 8.27 13.57 46.66 16.6 63.21 13.57 16.56-3.01 37.63 6.65 37.63 6.65z"/><path d="m1546 1492.49s-26.04-12.33-33.47-14.64c-7.43-2.3-5.95.04-3.71 7.32 2.23 7.29 15.61 14.24 15.61 16.53s21.57-9.21 21.57-9.21z"/><path d="m1368.62 1504.62s16.35-26.22 21.7-27.29c16.3-3.27 16.3 18.51 12.84 32.55-3.7 15.07-16.26 29.29-19.74 28.04-3.47-1.23-18.65-19.44-14.8-33.3z"/><path d="m1367.4 1510s-5.29 28.9 22.6 44z"/></g><path d="m1925 1542.72s20.2 64.59 89.56 79.28c0 0 114.56-35.65 57.52-114.47 0 0-56.39-42.32-147.08 35.19z" fill="#b5453c"/></g></svg>