<svg fill="none" height="24" viewBox="0 0 24 24" width="24" xmlns="http://www.w3.org/2000/svg" xmlns:xlink="http://www.w3.org/1999/xlink"><clipPath id="a"><path d="m0 0h24v24h-24z"/></clipPath><g clip-path="url(#a)" fill="#000"><path d="m19 0h-14c-1.3256.00158786-2.59644.528882-3.53378 1.46622-.937338.93734-1.46463214 2.20818-1.46622 3.53378v14c.00158786 1.3256.528882 2.5964 1.46622 3.5338.93734.9373 2.20818 1.4646 3.53378 1.4662v-3c0-1.8565.7375-3.637 2.05025-4.9497 1.31276-1.3128 3.09325-2.0503 4.94975-2.0503s3.637.7375 4.9497 2.0503c1.3128 1.3127 2.0503 3.0932 2.0503 4.9497v3c1.3256-.0016 2.5964-.5289 3.5338-1.4662.9373-.9374 1.4646-2.2082 1.4662-3.5338v-14c-.0016-1.3256-.5289-2.59644-1.4662-3.53378-.9374-.937338-2.2082-1.46463214-3.5338-1.46622zm-7 12c-.7911 0-1.5645-.2346-2.22228-.6741-.6578-.4395-1.17049-1.0643-1.47324-1.79517-.30275-.7309-.38196-1.53517-.22762-2.31109.15434-.77593.5353-1.48866 1.09471-2.04807s1.27213-.94037 2.04803-1.09471c.776-.15434 1.5802-.07513 2.3111.22762s1.3557.81544 1.7952 1.47324.6741 1.43115.6741 2.22228c0 1.06087-.4214 2.0783-1.1716 2.8284-.7501.7502-1.7675 1.1716-2.8284 1.1716z"/><path d="m12 10c1.1046 0 2-.89543 2-2s-.8954-2-2-2-2 .89543-2 2 .8954 2 2 2z"/><path d="m12 16c-1.3256.0016-2.59644.5289-3.53378 1.4662-.93734.9374-1.46463 2.2082-1.46622 3.5338v3h10v-3c-.0016-1.3256-.5289-2.5964-1.4662-3.5338-.9374-.9373-2.2082-1.4646-3.5338-1.4662z"/></g></svg>