<svg fill="none" height="24" viewBox="0 0 24 24" width="24" xmlns="http://www.w3.org/2000/svg"><path d="m19 4h-4v-1c0-.79565-.3161-1.55871-.8787-2.12132s-1.3257-.87868-2.1213-.87868-1.5587.31607-2.12132.87868c-.56261.56261-.87868 1.32567-.87868 2.12132v1h-4c-1.3256.00159-2.59644.52888-3.53378 1.46622-.937338.93734-1.46463214 2.20818-1.46622 3.53378v10c.00158786 1.3256.528882 2.5964 1.46622 3.5338.93734.9373 2.20818 1.4646 3.53378 1.4662h14c1.3256-.0016 2.5964-.5289 3.5338-1.4662.9373-.9374 1.4646-2.2082 1.4662-3.5338v-10c-.0016-1.3256-.5289-2.59644-1.4662-3.53378-.9374-.93734-2.2082-1.46463-3.5338-1.46622zm-9 14c0 .2652-.10536.5196-.29289.7071-.18754.1875-.44189.2929-.70711.2929h-5c-.26522 0-.51957-.1054-.70711-.2929-.18753-.1875-.29289-.4419-.29289-.7071v-8c0-.26522.10536-.51957.29289-.70711.18754-.18753.44189-.29289.70711-.29289h5c.26522 0 .51957.10536.70711.29289.18753.18754.29289.44189.29289.70711zm2-12c-.2652 0-.5196-.10536-.7071-.29289-.1875-.18754-.2929-.44189-.2929-.70711v-2c0-.26522.1054-.51957.2929-.70711.1875-.18753.4419-.29289.7071-.29289s.5196.10536.7071.29289c.1875.18754.2929.44189.2929.70711v2c0 .26522-.1054.51957-.2929.70711-.1875.18753-.4419.29289-.7071.29289zm6 13h-4c-.2652 0-.5196-.1054-.7071-.2929s-.2929-.4419-.2929-.7071.1054-.5196.2929-.7071.4419-.2929.7071-.2929h4c.2652 0 .5196.1054.7071.2929s.2929.4419.2929.7071-.1054.5196-.2929.7071-.4419.2929-.7071.2929zm2-4h-6c-.2652 0-.5196-.1054-.7071-.2929s-.2929-.4419-.2929-.7071.1054-.5196.2929-.7071.4419-.2929.7071-.2929h6c.2652 0 .5196.1054.7071.2929s.2929.4419.2929.7071-.1054.5196-.2929.7071-.4419.2929-.7071.2929zm0-4h-6c-.2652 0-.5196-.1054-.7071-.2929s-.2929-.4419-.2929-.7071c0-.26522.1054-.51957.2929-.70711.1875-.18753.4419-.29289.7071-.29289h6c.2652 0 .5196.10536.7071.29289.1875.18754.2929.44189.2929.70711 0 .2652-.1054.5196-.2929.7071s-.4419.2929-.7071.2929zm-15 0h3v6h-3z" fill="#000"/></svg>