<svg fill="none" height="24" viewBox="0 0 24 24" width="24" xmlns="http://www.w3.org/2000/svg"><g stroke="#000" stroke-linecap="round" stroke-linejoin="round" stroke-width="2"><path d="m11.9999 15c-3.17013 0-5.98925 1.5306-7.78405 3.906-.38629.5112-.57944.7668-.57312 1.1123.00488.2669.17248.6036.38249.7684.27182.2133.6485.2133 1.40186.2133h13.14552c.7534 0 1.1301 0 1.4019-.2133.21-.1648.3776-.5015.3825-.7684.0063-.3455-.1869-.6011-.5731-1.1123-1.7948-2.3754-4.614-3.906-7.784-3.906z"/><path d="m11.9999 12c2.4852 0 4.5-2.01472 4.5-4.5s-2.0148-4.5-4.5-4.5c-2.48533 0-4.50005 2.01472-4.50005 4.5s2.01472 4.5 4.50005 4.5z"/></g></svg>